<svg width="32" height="32" viewBox="0 0 32 32" fill="none" xmlns="http://www.w3.org/2000/svg">
<path d="M25.4161 27.9589C22.8103 30.5647 16.1371 28.1163 10.511 22.4902C4.88497 16.8641 2.43652 10.1909 5.04227 7.58515L6.75796 5.86946C7.9424 4.68503 9.89406 4.71634 11.1171 5.9394L13.7746 8.59685C14.9976 9.81991 15.0289 11.7716 13.8445 12.956L13.476 13.3245C12.8365 13.964 12.7739 14.9956 13.3681 15.7157C13.9413 16.4103 14.5592 17.1021 15.2292 17.7721C15.8991 18.442 16.591 19.0599 17.2855 19.6331C18.0056 20.2273 19.0372 20.1647 19.6767 19.5252L20.0452 19.1567C21.2297 17.9723 23.1813 18.0036 24.4044 19.2267L27.0618 21.8841C28.2849 23.1072 28.3162 25.0588 27.1318 26.2433L25.4161 27.9589Z" fill="#222222"/>
<path d="M23.502 13.0009C23.1766 12.2073 22.6918 11.4638 22.0474 10.8194C21.4395 10.2114 20.7432 9.74549 20 9.42155" stroke="#222222" stroke-width="1.5" stroke-linecap="round"/>
<path d="M20 4.8843C21.7795 5.52897 23.4491 6.56463 24.8758 7.99128C26.3382 9.45374 27.3898 11.1715 28.0306 13.0013" stroke="#222222" stroke-width="1.5" stroke-linecap="round"/>
</svg>
