<svg width="99" height="40" viewBox="0 0 99 40" fill="none" xmlns="http://www.w3.org/2000/svg">
<path fill-rule="evenodd" clip-rule="evenodd" d="M15.856 0C7.09896 0 0 7.09897 0 15.856C0 24.613 7.09896 31.7119 15.856 31.7119H17.757L14.1429 40L27.3948 31.7119H83.144C91.901 31.7119 99 24.613 99 15.856C99 7.09897 91.901 0 83.144 0H15.856Z" fill="#007335"/>
<path d="M27.1106 16.6663C27.8146 16.6663 28.4546 16.741 29.0306 16.8903C29.6173 17.029 30.124 17.2317 30.5506 17.4983C30.9773 17.765 31.308 18.085 31.5426 18.4583C31.7773 18.8317 31.8946 19.2477 31.8946 19.7063C31.8946 20.165 31.7773 20.581 31.5426 20.9543C31.308 21.3277 30.9773 21.6477 30.5506 21.9143C30.124 22.181 29.6173 22.3837 29.0306 22.5223C28.4546 22.6717 27.8146 22.7463 27.1106 22.7463C26.4066 22.7463 25.7613 22.6717 25.1746 22.5223C24.5986 22.3837 24.0973 22.181 23.6706 21.9143C23.244 21.6477 22.9133 21.3277 22.6786 20.9543C22.444 20.581 22.3266 20.165 22.3266 19.7063C22.3266 19.2477 22.444 18.8317 22.6786 18.4583C22.9133 18.085 23.244 17.765 23.6706 17.4983C24.0973 17.2317 24.5986 17.029 25.1746 16.8903C25.7613 16.741 26.4066 16.6663 27.1106 16.6663ZM20.4866 12.3943C21.3186 12.3303 22.092 12.245 22.8066 12.1383C23.5213 12.021 24.1453 11.861 24.6786 11.6583C25.1266 11.4877 25.5 11.2797 25.7986 11.0343H21.3666V9.40232H32.6626V11.0343H28.3746C28.332 11.1197 28.284 11.1997 28.2306 11.2743C28.4013 11.381 28.5826 11.477 28.7746 11.5623C29.1906 11.7437 29.6493 11.893 30.1506 12.0103C30.652 12.117 31.1906 12.197 31.7666 12.2503C32.3426 12.293 32.9506 12.3197 33.5906 12.3303L32.6626 13.8983C32.108 13.909 31.548 13.8877 30.9826 13.8343C30.4173 13.7703 29.8733 13.669 29.3506 13.5303C28.828 13.3917 28.332 13.2157 27.8626 13.0023C27.5213 12.853 27.212 12.6717 26.9346 12.4583C26.7 12.6183 26.444 12.7623 26.1666 12.8903C25.452 13.2317 24.668 13.493 23.8146 13.6743C22.972 13.8557 22.1506 13.9677 21.3506 14.0103L20.4866 12.3943ZM20.0066 16.2663V14.6343H25.9586V13.3863H28.1346V14.6343H34.0866V16.2663H20.0066ZM27.1106 21.0823C27.9746 21.0823 28.6306 20.9543 29.0786 20.6983C29.5266 20.4423 29.7506 20.1117 29.7506 19.7063C29.7506 19.301 29.5266 18.9703 29.0786 18.7143C28.6306 18.4583 27.9746 18.3303 27.1106 18.3303C26.2466 18.3303 25.5906 18.4583 25.1426 18.7143C24.6946 18.9703 24.4706 19.301 24.4706 19.7063C24.4706 20.1117 24.6946 20.4423 25.1426 20.6983C25.5906 20.9543 26.2466 21.0823 27.1106 21.0823ZM30.1506 8.98632H23.8786V7.35432H30.1506V8.98632ZM44.51 19.3223C44.9153 19.3223 45.2727 19.2637 45.582 19.1463C45.902 19.029 46.1687 18.869 46.382 18.6663C46.5953 18.453 46.7553 18.2077 46.862 17.9303C46.9687 17.653 47.022 17.3543 47.022 17.0343C47.022 16.7143 46.9633 16.421 46.846 16.1543C46.7287 15.8877 46.558 15.653 46.334 15.4503C46.11 15.2477 45.838 15.093 45.518 14.9863C45.2087 14.869 44.8567 14.8103 44.462 14.8103C44.1527 14.8103 43.854 14.8743 43.566 15.0023C43.2887 15.1303 43.086 15.2423 42.958 15.3383L42.174 13.9303L45.694 10.3943H40.67V8.63432H48.702V10.0103L45.486 13.1463C46.0727 13.2103 46.59 13.3597 47.038 13.5943C47.4967 13.829 47.8753 14.1223 48.174 14.4743C48.4833 14.8263 48.7127 15.221 48.862 15.6583C49.022 16.0957 49.102 16.5543 49.102 17.0343C49.102 17.5997 48.9953 18.1277 48.782 18.6183C48.5793 19.109 48.2807 19.541 47.886 19.9143C47.4913 20.277 47.006 20.565 46.43 20.7783C45.8647 20.981 45.2247 21.0823 44.51 21.0823C44.0193 21.0823 43.5447 21.0077 43.086 20.8583C42.638 20.7197 42.2167 20.5277 41.822 20.2823C41.438 20.0263 41.086 19.7223 40.766 19.3703C40.4567 19.0183 40.1953 18.6343 39.982 18.2183L41.486 17.1143C41.8167 17.7757 42.2433 18.309 42.766 18.7143C43.2887 19.1197 43.87 19.3223 44.51 19.3223ZM51.4333 13.5943V7.89832H62.4413V13.5943H51.4333ZM56.0093 19.0983V16.6023H49.8973V14.8103H63.9773V16.6023H58.1853V19.0983H56.0093ZM53.6413 17.4343V20.0263H63.0013V21.8503H51.4973V17.4343H53.6413ZM53.5773 11.8023H60.2973V9.69032H53.5773V11.8023ZM71.8546 19.6423C70.9906 18.8423 70.244 17.9303 69.6146 16.9063C69.38 16.533 69.1666 16.149 68.9746 15.7543C68.6013 16.5543 68.18 17.2903 67.7106 17.9623C67.188 18.7197 66.628 19.4023 66.0306 20.0103L64.4786 18.7463C65.044 18.2237 65.5613 17.6157 66.0306 16.9223C66.5106 16.229 66.9213 15.461 67.2626 14.6183C67.604 13.7757 67.8706 12.869 68.0626 11.8983C68.18 11.333 68.2653 10.7463 68.3186 10.1383H65.4226V8.31432H72.8306V10.1383H70.4466C70.372 10.9277 70.2493 11.6797 70.0786 12.3943C70.004 12.7357 69.9186 13.0717 69.8226 13.4023C70.1426 14.2557 70.532 15.0343 70.9906 15.7383C71.5986 16.6343 72.3453 17.4557 73.2306 18.2023L71.8546 19.6423ZM71.7426 12.4103H73.8066V7.83432H75.8866V21.6423H73.8066V14.2343H71.7426V12.4103ZM76.7346 21.9943V7.67432H78.8466V21.9943H76.7346Z" fill="white"/>
</svg>
