<svg width="85" height="67" viewBox="0 0 85 67" fill="none" xmlns="http://www.w3.org/2000/svg">
<g clip-path="url(#clip0_100_346)">
<path d="M2.19758 60.0401C2.19758 60.0401 2.1039 59.986 2.05143 59.9493C2.17924 59.911 2.23976 59.9172 2.19758 60.0401Z" fill="white"/>
<path d="M0.34177 59.6987C0.810156 59.6585 1.55924 59.6203 2.05205 59.9593C1.63999 60.0961 0.550885 60.7675 0.34177 59.6987Z" fill="white"/>
<path d="M2.38989 61.7814L1.78055 61.4999C2.11119 61.1881 2.07411 61.7015 2.38989 61.7814Z" fill="white"/>
<path d="M2.10531 60.7876L2.12016 60.3959L2.45395 60.7552L2.10531 60.7876Z" fill="white"/>
<path d="M31.8752 55.0026C31.8044 54.8368 31.7523 54.6497 31.7668 54.4083L31.8752 55.0026Z" fill="white"/>
<path d="M33.3481 56.7114C33.4717 56.7636 33.5635 56.7877 33.6346 56.8032C33.5567 56.8383 33.4843 56.8029 33.3481 56.7114Z" fill="white"/>
<path d="M30.648 55.2419L30.8843 55.1766C30.8083 55.2416 30.7298 55.2667 30.648 55.2419Z" fill="white"/>
<path d="M15.6543 57.6905C15.4161 57.4152 15.1799 57.1699 15.0086 57.0006C15.4284 56.6729 15.5101 57.319 15.6543 57.6905Z" fill="white"/>
<path d="M39.9565 62.0779L39.9958 61.7547C40.0647 61.8905 40.1036 62.0283 39.9565 62.0779Z" fill="white"/>
<path d="M33.9979 61.9805C33.9863 61.8009 33.9773 61.6612 34.0008 61.5595C34.0227 61.5881 34.0539 61.6062 34.0758 61.6348L33.9979 61.9805Z" fill="white"/>
<path d="M29.7317 55.9523L29.5118 55.8061C29.6178 55.7392 29.6815 55.7952 29.7317 55.9523Z" fill="white"/>
<path d="M41.8915 62.4042C41.9829 62.5787 42.0869 62.7925 42.176 63.0873C41.9868 62.9492 41.8777 62.6556 41.8915 62.4042Z" fill="white"/>
<path d="M32.0196 61.7572C32.1226 61.8007 32.225 61.8342 32.3393 61.897C32.214 61.9752 32.0985 61.8924 32.0196 61.7572Z" fill="white"/>
<path d="M15.6543 57.6905C15.7194 57.7665 15.7944 57.8418 15.8594 57.9178C15.7696 57.9236 15.7033 57.8276 15.6543 57.6905Z" fill="white"/>
<path d="M3.72874 59.2301C3.91834 59.2179 3.9724 59.4349 4.0271 59.6618C3.92024 59.5585 3.81144 59.4252 3.72874 59.2301Z" fill="white"/>
<path d="M72.288 53.5926L72.3678 53.5874C72.3678 53.5874 72.3092 53.6113 72.288 53.5926Z" fill="white"/>
<path d="M64.9678 53.2022C64.9333 53.1343 64.8883 53.057 64.8519 52.9592C64.9066 52.8755 64.9556 53.0126 64.9678 53.2022Z" fill="white"/>
<path d="M58.7452 61.2988C59.1947 60.8089 59.7447 61.7255 60.1564 61.7391L59.9917 61.3589L60.432 61.6612L60.396 61.1023C61.1019 61.3274 61.9123 60.684 62.2196 61.5661L62.0819 60.6731L62.8567 61.3447L62.3983 60.763C63.2044 60.5207 64.4975 61.1489 64.6765 61.1273L64.5848 60.7925C64.7036 60.6145 64.8275 60.827 64.9743 60.9278L64.8324 60.4359C66.0788 60.4959 66.3448 59.3364 67.7567 59.7866C68.1282 59.6424 67.5368 59.6404 67.5182 59.351C67.7021 58.9384 68.2055 59.2867 68.3201 59.5098C68.1595 58.7285 67.5961 59.0053 67.9947 58.3483C68.3292 58.7176 67.7383 57.6333 68.2974 57.7577L68.5719 58.7521C68.8703 58.5625 68.581 57.9599 69.0764 58.0282C69.6535 59.4319 68.4711 60.2095 69.3689 60.302C69.8134 60.2032 70.1665 57.9058 71.0701 58.3987C71.7845 57.8216 70.58 56.8571 71.6346 57.0497L70.9335 56.4335C71.0845 56.1331 70.9526 55.6406 71.4052 55.8219C71.57 56.2021 71.8815 56.6831 72.1249 56.7275C71.1074 56.0214 72.9092 55.5246 71.9374 54.5951L72.2793 54.6132C72.2793 54.6132 72.2204 54.4767 72.2359 54.4056L72.6805 54.3068C72.3869 54.1053 71.7318 54.0472 71.9836 53.2895L72.6207 53.0681C72.4151 52.5202 72.6398 52.2752 72.571 51.8287L70.5949 50.8637C70.6866 51.1985 70.9801 51.4001 70.9022 51.7458C70.4119 52.068 70.4538 51.1634 70.0044 51.6533L70.2429 52.0889C70.192 51.9218 70.129 51.8757 70.2249 51.8094C70.3759 51.5091 70.4676 51.8439 70.4856 52.1233C70.3526 52.7031 69.8485 52.3447 69.6837 51.9645C69.0695 52.0742 69.6196 52.9908 69.4908 53.1694C69.1104 52.242 68.4542 52.2562 68.0467 51.8416L68.336 52.4442C67.9146 53.2129 67.4562 52.6311 67.1627 52.4296L67.3052 52.9315C66.6402 52.8741 66.4201 54.5918 65.8161 52.837L65.9078 53.1718C65.6486 53.3488 65.2632 53.7444 64.9697 53.2322C64.9832 53.4417 64.95 53.7044 64.8447 53.7813C64.6607 53.1018 64.4047 53.6393 64.0232 53.7841C64.2943 53.947 64.2723 54.8503 64.5552 55.0425C63.9956 56.0005 63.9321 54.0806 63.4238 54.1234C63.144 54.6023 63.7353 54.6043 63.827 54.9391C63.0072 54.5009 62.3235 57.1102 61.7088 55.3461L62.0115 54.7554C61.6671 54.3868 61.4974 54.3977 61.5483 54.5648C61.6442 54.4985 61.6951 54.6656 61.7359 54.8333C60.837 55.8131 60.1642 53.6118 59.2193 54.0334C59.311 54.3682 59.4578 54.4689 59.4758 54.7484C59.0592 55.1259 58.9349 53.0396 58.2607 53.7744L58.4255 54.1546C58.2007 54.3996 57.9951 53.8517 58.018 53.74C58.0957 55.2581 56.496 53.7578 56.1249 55.7758C55.7216 54.96 54.6819 54.3756 54.4021 54.8546C54.0215 55.791 54.8562 55.8375 54.7412 56.6966C54.3919 56.7191 54.1689 55.9018 53.6687 56.2246C53.614 55.3763 54.576 54.4426 53.5772 54.0259L53.467 54.494C53.563 54.4277 53.6918 54.249 53.8385 54.3498C54.1501 54.8308 53.7055 54.9295 53.6604 55.1629L52.6059 54.9703C52.4782 54.0767 53.1104 54.2464 53.1555 54.013C52.3494 54.2553 51.4363 55.6368 50.6386 55.0769L50.7303 55.4117C49.7129 54.7057 50.2676 57.0949 49.406 55.6974C49.0116 55.9533 49.6174 56.6458 49.0031 56.7555C48.8335 56.7664 48.9114 56.4207 48.9343 56.309C48.1553 56.0385 48.6503 57.1891 47.8977 56.3958L48.1085 57.3342C47.2378 56.7289 46.2523 55.1189 45.5601 55.5743C45.6476 56.3102 46.0922 56.2114 46.2978 56.7594C45.2343 55.4951 43.9417 56.7407 42.9973 56.0801C43.2263 55.434 42.4844 54.6501 43.0297 54.0939C43.2405 55.0323 43.4701 54.3962 43.7859 54.4761C43.1532 52.4325 41.7551 55.6189 41.4891 53.8223L41.4069 54.5691C41.2601 54.4684 40.8749 53.932 41.0996 53.6871L40.1319 54.2204C40.5171 54.7567 41.3279 55.9871 41.516 55.1734C41.8455 55.9338 41.1402 55.7186 41.4476 56.6007C40.7099 55.4157 41.0718 57.146 40.3659 56.9209C40.6165 55.8325 39.5941 55.5176 39.5913 55.0067C39.3746 55.2211 38.8435 54.7542 38.6308 54.4072C38.2252 54.3331 37.3624 55.2505 36.6999 54.9224C36.9606 55.2362 37.3687 55.6609 37.3918 56.3308C37.0574 55.9615 36.7088 55.994 36.6997 56.7862C37.8999 58.1519 36.9426 54.9568 38.0103 55.82C38.3176 56.7021 38.6012 56.9043 39.1375 57.1403C38.9307 57.6647 39.0553 57.8871 38.9953 58.5123C38.2445 56.6567 37.3266 58.4293 36.4379 57.5446C36.0526 57.0083 36.2456 55.8034 35.4337 55.6452L36.085 55.0221C35.37 55.5892 35.8794 54.4742 35.2372 54.3051L35.5265 54.9077C35.155 55.0519 35.0083 54.9511 34.7698 54.5155L35.1502 55.443C34.9583 55.5756 34.5868 55.7198 34.5408 55.1616C34.5057 55.3943 34.4979 55.5852 34.5082 55.7449C34.458 55.5878 34.3518 55.4944 34.1142 55.5398C34.261 55.6406 34.357 55.5743 34.3749 55.8537C33.452 55.6826 34.2216 56.8957 33.657 56.8419C33.7609 57.0556 33.6186 57.3354 33.4167 57.4686C33.3403 55.9704 32.2098 55.8428 31.8571 55.0338C31.8583 55.0538 31.0613 54.5038 31.0613 54.5038C31.2188 54.6139 31.0854 55.0334 30.8662 55.2078C30.6714 55.4509 31.2896 56.8039 30.5335 56.4217L30.126 56.007C30.1991 56.0524 30.144 56.2865 30.1218 56.4082L29.7062 56.0241C29.1875 57.4604 28.5178 55.309 27.853 56.0332C28.0449 55.9006 28.3713 55.9898 28.2605 56.4478C28.1317 56.6265 27.9112 56.4703 27.7973 56.2572L27.8481 56.4243L26.4411 55.583C26.5837 56.0849 27.344 56.0659 27.042 56.6666C26.8861 57.358 26.4507 56.6646 26.208 56.6301C26.2122 56.229 26.6394 55.8608 26.1762 55.6702C26.1285 55.8636 25.7258 56.3004 25.954 56.5763C25.4686 56.1967 24.7845 56.0003 24.3204 55.3287C24.2016 55.5067 24.4121 55.6635 24.4852 55.7089L24.5081 55.5972C24.8016 55.7988 24.6135 56.6125 25.136 56.1681C25.2595 57.4628 24.3708 56.5781 23.9034 56.7885L24.719 57.6279C23.5361 59.4877 21.685 57.6629 20.4063 57.7252C20.7598 57.3016 21.0936 57.6609 20.9888 56.6556C20.1689 56.2174 20.2829 56.4305 19.4817 56.2817L19.5547 56.3271C19.179 56.8723 18.5559 55.9104 18.3443 56.8259C18.5599 57.3731 18.8897 56.2697 18.9723 57.3967L17.9685 57.3711C18.321 58.0198 18.9723 57.3967 19.3618 57.5319C19.6373 57.4541 18.8026 57.4076 18.8854 56.6708C19.8161 56.6509 20.0726 57.3659 20.5997 58.3942C20.9299 59.1645 20.242 59.2189 20.0723 59.2298C19.4084 58.1001 18.5048 57.6072 17.6208 58.1952L17.1671 59.0862C16.6579 58.3374 16.7592 56.7977 15.9431 57.0406L16.2324 57.6433C16.0682 57.8943 15.9536 57.9819 15.8638 57.9877C16.2433 58.4342 16.6659 58.9281 17.0167 59.3965C16.6319 60.734 15.6278 58.8346 14.9225 58.6195C14.9733 58.7865 15.216 58.821 15.3071 59.1458C14.2991 59.5214 13.1211 58.034 12.3093 57.8759C12.0066 58.4665 12.9923 58.2127 12.8873 59.0712C12.447 58.7689 12.0261 59.5475 11.8656 58.7662C12.1172 59.8723 10.9127 58.9077 11.7785 59.9042C10.3031 60.4902 8.57973 59.559 7.01177 59.0187C7.10347 59.3535 7.12147 59.6329 7.06639 59.8669C7.58467 59.8235 8.36367 60.094 8.69321 60.8544C8.39055 61.4451 7.84539 60.1374 7.76744 60.4831C7.95508 60.7516 8.30372 60.7191 8.3397 61.278C7.9411 61.935 7.63442 61.0629 7.31799 60.973L7.469 60.6727C6.45153 59.9666 6.81415 58.7508 5.80556 59.1164C5.47004 59.8194 5.84154 59.6752 5.89617 60.5235C5.63546 60.2096 4.90621 61.1784 4.59889 60.2964L5.21311 60.1867C4.7586 59.9754 4.34945 60.0018 4.03143 59.7317C4.07293 59.9094 4.11509 60.097 4.2094 60.1611C3.84277 59.9142 3.40753 60.0023 3.19192 59.455L3.1506 60.3696C3.33446 59.9569 3.94868 59.8472 4.0806 60.3398C4.0715 61.132 3.41131 60.6835 3.14572 60.7607C4.36929 60.9324 4.47053 62.3488 5.4505 61.6945L5.26286 61.426C5.85783 60.7063 6.57912 61.7922 7.13603 61.7263C6.98792 61.9162 6.97983 62.2574 7.05933 62.4026C8.25178 61.6244 9.49334 62.0755 10.8734 61.5658L11.3498 62.4269L11.336 61.7464C12.0053 61.4027 11.5474 62.6948 11.982 62.5967C11.8123 62.6076 11.8352 62.4959 11.7943 62.3282C12.6422 63.0452 12.2029 61.6705 12.6561 61.8618C12.3997 61.1468 11.7812 61.6576 11.9185 60.6768C12.7663 61.3938 13.9767 60.8949 14.1913 62.5145C15.6264 61.7707 17.5182 62.671 18.7753 62.7404C18.9263 62.4401 18.6507 62.5179 18.7064 62.2939C19.2565 63.2104 20.3106 61.5292 20.3752 62.3768C20.5999 62.1319 20.6599 61.5067 20.705 61.2734C21.0407 61.6626 21.4327 61.8378 21.839 61.9218L21.5348 61.7109L21.5577 61.5992L21.998 61.9016C22.9953 62.138 24.1394 61.8539 25.096 62.7041C24.5417 62.1887 25.1602 61.6779 24.8995 61.364C25.4446 62.6717 26.5449 62.6409 27.4341 62.4433C27.4161 62.1639 27.4711 61.9299 27.3472 61.7174L27.9015 62.2329L27.8098 61.8981C28.7218 61.5888 29.8261 63.0208 30.3944 62.3529C30.0049 62.2177 29.9869 61.9383 29.918 61.4918C30.5886 61.4786 31.2086 61.4587 32.0133 61.8178C31.9683 61.7405 31.9319 61.6426 31.9255 61.5429C32.1174 61.4102 32.3887 61.7335 32.6085 61.8797L32.5948 61.1991C33.0139 61.4828 33.501 61.1107 34.0047 61.6194C34.1467 60.8687 35.1867 62.2347 35.7156 61.89C35.9361 62.0462 35.2164 61.1405 35.7978 61.1432C35.9721 62.605 36.5588 61.1343 36.7003 62.7084L37.1719 62.0968L37.3325 62.8781C37.6764 61.3729 38.0335 63.4944 38.6526 62.9935C38.6117 62.8258 38.538 62.7705 38.5609 62.6587C38.7814 62.8149 39.2668 62.8839 38.9233 63.3068C39.2726 63.2843 40.4633 63.5684 39.8811 62.7742C39.9499 63.2207 39.4465 62.8723 39.226 62.7161C39.2122 62.0356 39.7485 62.2716 39.8307 61.5248C39.8551 61.5934 39.9227 61.7093 39.9797 61.8158L40.0225 61.3922C40.7194 62.0989 41.3433 61.5176 41.8747 62.4554C41.8911 62.2439 41.9906 62.0771 42.2134 62.1129L42.268 62.9611L42.9653 62.8962L42.5669 61.6893C43.3099 61.401 43.9288 62.764 44.561 62.9337C44.63 61.5164 45.8032 63.3949 46.2611 62.1028L45.7577 61.7544C46.8122 61.947 46.9173 61.0885 47.9161 61.5052C47.128 62.0269 47.1 61.7481 45.9764 62.9729C47.136 62.307 48.0936 63.6382 49.1392 62.7592C49.0475 62.4244 48.7546 62.2328 49.0016 61.8662C49.258 62.5812 50.0381 61.7794 49.9231 62.6385C50.2438 62.3273 50.2529 61.5351 50.4547 61.4018L51.6598 62.3764L51.619 62.2087C53.439 60.1274 55.3269 63.3026 57.2296 62.3484L57.1607 61.9019L57.6928 62.539C57.2853 62.1244 57.8258 61.9593 57.8307 61.5682L59.1417 62.4758C59.1459 62.0747 59.0182 61.1811 58.7204 61.3806L58.7452 61.2988ZM42.2623 61.9394L41.9591 61.8988C41.9018 61.9426 41.8426 61.9564 41.7669 61.8711L41.9591 61.8988C42.1017 61.7794 42.1983 61.4124 42.2623 61.9394ZM14.8896 61.9986C14.7248 61.6184 15.0914 61.8653 15.1873 61.799L14.7019 61.7301C14.6468 61.9641 14.8258 61.9426 14.8995 61.9979L14.8896 61.9986ZM41.9102 56.4707L42.0432 55.891L42.2817 56.3266L41.9102 56.4707ZM46.1089 56.1603L45.6686 55.8579L45.7014 55.7456L46.1318 56.0486L46.1089 56.1603ZM51.0536 60.4313C51.0536 60.4313 50.9998 60.3747 50.9667 60.3267C50.9979 60.3447 51.0204 60.3834 51.0536 60.4313C51.3993 60.8199 51.4635 59.7937 51.7965 60.7643C51.5212 61.6237 51.2657 60.7684 51.0536 60.4313ZM43.6789 60.9062C43.5321 60.8055 43.459 60.7601 43.3624 60.8164C43.4541 61.1512 43.7657 61.6322 43.5738 61.7648C43.409 61.3846 42.9236 61.3156 42.877 60.7474C43.3353 61.3292 43.5325 59.7232 43.6789 60.9062ZM33.7736 61.1433L33.8795 61.0763L33.4721 60.6616L33.7836 61.1426L33.7736 61.1433ZM31.9401 60.6801C31.6836 59.9651 31.1431 60.1302 30.7536 59.995C30.6936 60.6201 31.1198 61.3242 31.5643 61.2254C32.1186 61.7409 31.7022 60.2545 31.9401 60.6801ZM46.8321 59.6109L46.6902 59.119L46.7862 59.0527L46.3458 58.7504C46.8504 58.0265 47.3125 59.2894 47.606 59.4909C47.3633 59.4565 46.6157 58.2721 46.8222 59.6116L46.8321 59.6109ZM28.0949 60.567C27.6874 60.1523 26.9634 59.6478 26.9905 59.135C27.0223 60.095 27.6094 60.4981 27.7791 60.4871C27.875 60.4208 27.9487 60.4762 28.0955 60.577L28.0949 60.567ZM27.9985 58.7595C28.5756 59.1632 28.6445 59.6097 29.1208 60.4709C28.5983 60.9154 28.3689 59.6876 28.406 59.1741C27.9985 58.7595 28.1082 59.3737 27.9157 59.4963L27.9979 58.7495L27.9985 58.7595ZM28.7408 61.4172L28.962 61.2727C29.2057 60.8562 29.1956 59.7646 29.6348 60.8286L28.962 61.2727C28.9079 61.3664 28.8419 61.4308 28.7408 61.4172ZM24.0766 61.6575L24.3274 61.972C24.1059 61.9562 24.0663 61.8085 24.0766 61.6575L23.869 61.3903C24.3455 61.0089 24.1079 61.3649 24.0766 61.6575ZM27.6232 61.1786L28.2882 61.236C28.2194 60.7895 27.825 61.0453 27.6232 61.1786ZM24.1717 60.7996C24.4473 60.7217 25.1574 60.5457 25.0615 60.612C25.0244 61.1255 24.3693 61.0675 24.1717 60.7996ZM9.6236 60.3636L10.036 60.3871L9.88008 61.0786L9.6236 60.3636ZM14.4414 59.5523L14.3635 59.898L14.1208 59.8636L14.4414 59.5523ZM18.9096 59.2245C18.8993 59.3755 18.9208 59.5545 18.971 59.7116C19.0447 59.7669 19.1104 59.8529 19.1493 59.9907C19.0895 59.9945 19.0219 59.8786 18.971 59.7116C18.7818 59.5734 18.5174 59.6706 18.4112 59.8879C18.5029 60.2227 18.7778 60.1348 18.8924 60.3579C18.5347 61.1826 17.4617 58.8367 17.8696 61.1253C17.682 60.8568 17.054 60.2859 17.2278 59.8739C17.7052 59.9734 18.578 59.6767 18.9096 59.2245C18.9218 59.1035 18.9553 59.0011 19.0339 58.976C19.0191 59.0571 18.9643 59.1408 18.9096 59.2245ZM24.9063 58.3573C25.0798 58.4063 25.1541 58.4717 25.1985 58.5389C25.3592 58.6989 25.4856 58.9513 25.4563 59.2739C25.089 59.017 25.2919 58.7434 25.1985 58.5389C25.1023 58.4449 25.0073 58.3709 24.9063 58.3573ZM25.9651 58.1489L25.3879 57.7451L25.6995 58.2261L24.8108 57.3414C25.2602 56.8515 25.8653 57.534 25.975 58.1482L25.9651 58.1489ZM26.1364 57.6969L26.2815 58.2387L26.0758 57.6908C26.1364 57.6969 26.0987 57.5791 26.0987 57.5791L27.0474 57.8387L26.127 57.7076L26.1364 57.6969ZM35.7193 58.2122C35.9465 56.2936 34.8142 56.9177 34.5755 56.0111C34.5767 56.6524 34.2811 57.6635 35.1879 57.585C34.4406 58.2745 34.6199 56.3891 34.253 58.006C34.6245 57.8618 35.1057 58.3318 35.1788 58.3772L34.7442 58.4754C35.0695 59.6369 35.3955 57.8522 35.7299 58.2215L35.7193 58.2122ZM40.4814 57.6249L41.0734 57.6369L40.5142 57.5126L40.4914 57.6243L40.4814 57.6249ZM54.87 56.2073C54.8012 55.7608 55.5076 54.9037 55.7318 55.741C55.3603 55.8852 54.9486 55.8716 54.87 56.2073ZM61.0762 55.948L60.3931 55.6112C60.4573 54.5849 60.9845 55.6132 61.2829 55.4236C61.4255 55.9255 61.1541 55.6023 61.0762 55.948ZM65.3486 55.6929L65.5691 55.8491L65.2847 54.8553L65.3393 55.7035L65.3486 55.6929ZM64.9825 54.3637C65.0833 53.9063 64.6201 53.7156 64.5241 53.7819L64.9825 54.3637ZM68.7779 53.2374L68.5123 53.3147L68.8197 54.1967L68.7879 53.2368L68.7779 53.2374ZM68.4063 54.3136C68.3053 53.6787 68.2793 52.8086 67.6683 53.2788C67.6821 53.9594 67.8511 53.9385 67.6729 54.7516C67.8928 54.8978 68.0444 54.6074 68.1404 54.5411C67.9936 54.4403 67.8426 54.7407 67.7738 54.2942C67.9966 54.0193 68.2418 54.0937 68.397 54.3242C68.4317 54.5524 68.4845 54.7494 68.5714 54.8541C68.5579 54.6445 68.4958 54.4581 68.397 54.3242L68.4063 54.3136ZM66.1667 55.1692C66.092 55.2542 66.0179 55.3492 65.9951 55.4609L65.9442 55.2938C66.0154 54.9986 66.0897 55.064 66.1667 55.1692C66.2507 55.0736 66.3553 54.9867 66.4606 54.9098C66.4938 54.3365 66.0397 53.9749 65.9093 53.6627C66.1292 53.8088 66.3348 54.3568 66.5924 53.9995C66.5415 53.8324 66.5744 53.7201 66.4047 53.731L66.7762 53.5868C67.2568 54.3575 66.863 54.6234 66.4706 54.9092C66.469 55.0396 66.4474 55.1712 66.3765 55.3161C66.3218 55.3998 66.2529 55.2639 66.1767 55.1686L66.1667 55.1692ZM69.2627 57.2525L69.0428 56.1064C68.9189 55.8939 68.974 55.6599 68.9331 55.4921C69.1759 55.5266 69.5203 56.8952 69.2627 57.2525ZM56.9192 57.2177C57.048 57.0391 56.6856 56.3911 56.3872 56.5806L56.5022 55.7215C56.5382 56.2803 57.1524 56.1706 57.2261 56.226C57.3866 57.0073 57.1253 56.6834 56.9192 57.2177ZM42.5676 58.1219C42.3891 57.0612 41.6419 57.7506 41.4542 57.4821C41.8486 57.2262 42.7606 56.917 42.5676 58.1219ZM41.2281 58.639C41.0079 58.6432 40.9545 58.7468 40.9497 58.206C40.8358 57.9929 40.6741 58.2839 40.5602 58.0708C40.9491 57.5748 40.9738 58.4249 41.2281 58.639C41.288 58.6352 41.3485 58.6413 41.4309 58.6761C41.343 58.7118 41.2812 58.6857 41.2281 58.639ZM49.6265 58.1884L49.956 58.9488L50.4006 58.85L49.6259 58.1784L49.6265 58.1884ZM54.5078 59.297C54.439 58.8505 54.9573 58.8071 55.0712 59.0202C55.0034 58.4334 54.6586 58.5257 54.3853 58.4832C54.3422 58.4359 54.2903 58.4092 54.2005 58.4149C54.253 58.4516 54.3141 58.4677 54.3853 58.4832C54.4941 58.6165 54.4435 58.9204 54.457 59.1299L54.3282 59.3086L54.7177 59.4438L54.4972 59.2877L54.5078 59.297ZM62.9828 59.4126C63.2626 58.9337 63.3034 59.1014 63.5233 59.2475C63.4682 59.4816 63.2026 59.5588 62.9828 59.4126ZM51.9959 59.9698C52.4962 59.647 51.6886 59.0877 52.0092 58.7765L51.7436 58.8537C52.1422 58.1968 52.096 59.5024 52.3938 59.3029L52.192 59.4361C52.0689 60.0152 52.5364 59.8047 52.5952 60.2519C52.3705 60.4968 51.7834 60.0937 51.9853 59.9605L51.9959 59.9698ZM63.4962 59.7603C63.9679 59.1488 63.9545 60.3421 64.2709 60.4319C63.8952 60.9772 63.8857 59.8956 63.4962 59.7603ZM55.3603 61.4868L55.3374 61.5985L55.7678 61.9014L55.7907 61.7897L55.3503 61.4874L55.3603 61.4868Z" fill="white"/>
<path d="M63.7426 53.7821C63.8678 53.7039 63.9483 53.7088 64.0214 53.7542C63.9335 53.7899 63.8443 53.8057 63.7426 53.7821Z" fill="white"/>
<path d="M39.7012 54.689C39.7009 54.8394 39.6562 54.9224 39.5995 54.9762C39.5937 54.8863 39.6278 54.794 39.7012 54.689Z" fill="white"/>
<path d="M3.98049 58.4723C3.72401 57.7573 4.18234 58.3391 4.35199 58.3281C4.18234 58.3391 4.14526 58.8525 3.98049 58.4723Z" fill="white"/>
<path d="M5.41553 59.5924C5.3016 59.3793 5.14291 59.2492 4.96941 59.2003C5.07789 59.1732 5.20214 59.2354 5.41553 59.5924Z" fill="white"/>
<path d="M4.28776 59.3544C4.53758 59.188 4.76518 59.1433 4.95928 59.2009C4.79156 59.2418 4.65987 59.5308 4.28776 59.3544Z" fill="white"/>
<path d="M9.04565 59.1683C8.80717 58.7327 8.41344 58.9986 8.41344 58.9986C9.27461 58.5222 8.17983 58.1719 8.08813 57.8371C8.65725 57.9607 8.69324 58.5196 9.04565 59.1683Z" fill="white"/>
<path d="M10.2381 59.3219C10.1483 59.3277 10.0598 59.3535 9.99441 59.4278C10.0772 59.3123 10.1564 59.2971 10.2381 59.3219Z" fill="white"/>
<path d="M10.5489 58.861C10.8654 58.9509 11.0073 59.4428 11.172 59.823C10.816 60.2066 10.535 59.4231 10.2473 59.3113C10.4662 59.2872 10.6789 59.3236 10.5489 58.861Z" fill="white"/>
<path d="M19.9045 55.8436C19.8308 55.7882 19.6618 55.8091 19.6338 55.5303L20.1527 55.4969C20.3719 55.6331 20.0004 55.7773 19.9045 55.8436Z" fill="white"/>
<path d="M21.8985 57.088C22.3109 57.1115 22.0544 56.3965 22.2742 56.5427L22.306 57.5027L21.8985 57.088Z" fill="white"/>
<path d="M21.9713 61.9534L21.8451 61.8613C21.8451 61.8613 21.9362 61.8755 21.9867 61.8822L21.9706 61.9434L21.9713 61.9534Z" fill="white"/>
<path d="M23.8235 56.0121L23.4753 54.9623C23.8419 55.2092 23.8965 56.0575 23.8235 56.0121Z" fill="white"/>
<path d="M25.3539 55.192L25.0932 54.8782L25.8722 55.1487L25.3539 55.192Z" fill="white"/>
<path d="M27.2839 55.5988L27.339 55.3648L27.8752 55.6008L27.2839 55.5988Z" fill="white"/>
<path d="M48.0017 55.2066C48.1393 56.0996 47.2866 55.7738 47.0626 56.0287C47.1596 54.8901 47.7456 56.3655 48.0017 55.2066Z" fill="white"/>
<path d="M63.0405 54.2382L62.2387 54.0794C62.8249 53.6909 62.4083 54.0685 63.0405 54.2382Z" fill="white"/>
</g>
<g clip-path="url(#clip1_100_346)">
<path d="M40.178 5.51152C40.178 5.51152 40.1592 5.42656 40.1525 5.37383C40.2447 5.39972 40.274 5.43146 40.178 5.51152Z" fill="white"/>
<path d="M39.3711 4.41488C39.6498 4.59019 40.08 4.89147 40.1467 5.38214C39.8413 5.30936 38.8499 5.36587 39.3711 4.41488Z" fill="white"/>
<path d="M39.248 6.99512L39.0837 6.49906C39.4489 6.39512 39.1237 6.79103 39.248 6.99512Z" fill="white"/>
<path d="M39.6838 6.07097L39.9246 5.76293L39.8928 6.1994L39.6838 6.07097Z" fill="white"/>
<path d="M59.3171 14.6182C59.3771 14.4537 59.4599 14.2804 59.6112 14.0929L59.3171 14.6182Z" fill="white"/>
<path d="M59.1033 16.6434C59.1396 16.74 59.1751 16.8001 59.2047 16.844C59.1414 16.8377 59.1231 16.7771 59.1033 16.6434Z" fill="white"/>
<path d="M58.5074 14.2666L58.6747 14.3189C58.5948 14.3374 58.5371 14.3228 58.5074 14.2666Z" fill="white"/>
<path d="M48.8953 9.58826C48.9292 9.26164 48.9464 8.95992 48.9539 8.74803C49.3769 8.67094 49.0375 9.22601 48.8953 9.58826Z" fill="white"/>
<path d="M59.5105 23.8818L59.7239 23.6397C59.6807 23.7793 59.62 23.9072 59.5105 23.8818Z" fill="white"/>
<path d="M56.3267 21.163C56.4271 21.0136 56.5052 20.8974 56.5784 20.8261C56.5733 20.8588 56.5796 20.8871 56.5745 20.9199L56.3267 21.163Z" fill="white"/>
<path d="M57.5869 14.431L57.5541 14.2162C57.6515 14.2094 57.6529 14.2826 57.5869 14.431Z" fill="white"/>
<path d="M60.3695 25.0014C60.3155 25.182 60.2451 25.3998 60.1184 25.6761C60.0975 25.4813 60.2126 25.1972 60.3695 25.0014Z" fill="white"/>
<path d="M55.3829 20.1068C55.4131 20.1874 55.4489 20.2596 55.4737 20.3607C55.3591 20.368 55.3454 20.2504 55.3829 20.1068Z" fill="white"/>
<path d="M48.8951 9.58829C48.8853 9.67813 48.8813 9.77186 48.8716 9.86169C48.8193 9.82654 48.8402 9.72011 48.8951 9.58829Z" fill="white"/>
<path d="M41.4921 5.5395C41.6025 5.61372 41.503 5.81193 41.3979 6.01843C41.4012 5.88808 41.4212 5.73282 41.4921 5.5395Z" fill="white"/>
<path d="M82.1421 31.3959L82.1886 31.4271C82.1886 31.4271 82.1425 31.4203 82.1421 31.3959Z" fill="white"/>
<path d="M78.3914 27.8382C78.413 27.7684 78.4344 27.6864 78.4727 27.5917C78.5522 27.5487 78.4974 27.6805 78.3914 27.8382Z" fill="white"/>
<path d="M70.1957 31.5829C70.7313 31.3886 70.486 32.3685 70.702 32.5618L70.8382 32.1835L70.8982 32.6214L71.2106 32.1567C71.4609 32.6503 72.284 32.4927 71.9272 33.3373L72.3828 32.5591L72.4054 33.4418L72.5016 32.7715C73.0841 32.9341 73.4144 34.0117 73.5246 34.0737L73.6736 33.7642C73.844 33.6739 73.7852 33.8994 73.8052 34.0454L74.0202 33.5875C74.6627 34.1881 75.4962 33.3748 75.9969 34.362C76.2847 34.4109 75.9641 34.1472 76.1259 33.9066C76.4711 33.6566 76.5381 34.1595 76.4679 34.3894C76.8447 33.6908 76.3737 33.6634 76.9809 33.3125C76.9435 33.7573 77.2661 32.6246 77.4965 32.9723L77.055 33.8925C77.33 33.8725 77.5306 33.2603 77.7596 33.5347C77.8337 34.1147 76.7284 34.2152 77.1619 34.6873C77.4625 34.805 79.0195 33.1165 79.2182 33.9128C78.9497 34.7659 78.8675 33.4575 79.3268 34.0795L79.3115 33.274C79.572 33.0997 79.7929 32.6457 79.9314 32.9918C79.7952 33.3702 79.679 33.8945 79.7849 34.0381C79.6508 33.0201 80.9263 33.4197 80.9498 32.2425L81.1251 32.4086C81.1251 32.4086 81.1741 32.2728 81.2248 32.2226L81.5253 32.3403C81.4854 32.0483 81.1634 31.7114 81.7506 31.2145L82.2288 31.319C82.4424 30.7878 82.7102 30.6907 82.938 30.3016L82.4362 28.6509C82.2872 28.9604 82.3271 29.2524 82.0793 29.4955C81.6212 29.5369 82.1814 28.829 81.6458 29.0233L81.5168 29.4788C81.5884 29.3221 81.5814 29.2571 81.673 29.2464C81.9336 29.0722 81.7846 29.3817 81.6284 29.614C81.2116 30.0207 81.1502 29.5095 81.2864 29.1311C80.8871 28.947 80.6418 29.9269 80.4657 30.0133C80.8097 29.0998 79.8501 29.6236 79.8748 29.11L79.6742 29.7222C78.9882 30.1527 79.0844 29.4824 79.0445 29.1904L78.8239 29.6567C78.4961 29.3158 78.3559 29.5978 79.0698 27.9208L78.9208 28.2303C78.6746 28.2576 78.23 28.4045 78.3746 27.8631C78.2574 28.0374 78.0833 28.2337 77.9803 28.2488C78.2839 27.6214 77.8253 27.9397 77.5317 27.8869C77.5824 28.1379 77.0338 28.8536 77.0735 29.1333C76.1999 29.6546 77.306 28.0846 77.004 27.8937C76.5673 28.1544 76.8878 28.4181 76.7388 28.7276C76.5531 28.0123 74.6309 29.8048 75.3446 28.1157L75.8601 27.7754C75.8918 27.3268 75.793 27.2603 75.7214 27.4171C75.813 27.4063 75.7414 27.563 75.664 27.7158C74.5928 28.1043 75.5345 26.0383 74.77 25.9581C74.621 26.2676 74.641 26.4136 74.4848 26.646C74.0338 26.7646 75.2056 25.034 74.4023 25.3253L74.2661 25.7037C73.9983 25.8008 74.2119 25.2697 74.2907 25.1901C73.4311 26.4437 73.452 24.5299 72.0513 25.9861C72.3165 25.1523 72.098 24.2222 71.6612 24.4828C70.8979 25.0662 71.3244 25.4734 70.7514 26.1124C70.548 25.9757 70.9123 25.2204 70.4483 25.258C70.9225 24.5526 72.0006 24.229 71.7047 23.4517L71.3667 23.7788C71.4583 23.768 71.6345 23.6817 71.6545 23.8276C71.5383 24.352 71.2377 24.2343 71.0745 24.4017L70.6152 23.7797C71.0767 23.0054 71.3198 23.4219 71.483 23.2544C70.9005 23.0918 69.5829 23.7966 69.4816 22.9935L69.3326 23.303C69.1985 22.285 68.0808 24.4497 68.4423 22.9455C68.0757 22.9762 67.9939 23.8008 67.5946 23.6167C67.4958 23.5503 67.7436 23.3072 67.8224 23.2276C67.5592 22.6652 67.145 23.8085 67.2068 22.838L66.764 23.685C66.6499 22.813 67.0702 21.0833 66.4231 21.1423C66.0335 21.772 66.334 21.8897 66.1204 22.4209C66.2929 20.9343 64.8496 21.3618 64.7283 20.4126C65.2367 19.9953 65.2987 19.0369 65.9259 18.8319C65.4831 19.6789 65.9859 19.2699 66.1102 19.474C66.9801 17.5524 64.3264 19.4918 65.249 17.9311L64.7606 18.4944C64.7407 18.3484 64.8497 17.747 65.1175 17.6498L64.2741 17.6493C64.1651 18.2507 63.8752 19.5982 64.461 19.028C64.1886 19.7847 63.9326 19.2994 63.5758 20.144C63.8785 18.8654 63.0474 20.4154 62.7971 19.9217C63.58 19.1588 63.2109 18.4527 63.5129 18.0412C63.2676 18.1173 63.256 17.5071 63.3464 17.1341C63.1698 16.8948 62.1554 17.2491 61.9899 16.6921C61.9452 17.0597 61.915 17.5816 61.5296 18.1298C61.567 17.685 61.3581 17.5566 60.8825 18.1888C60.7241 19.8175 62.1015 16.8273 62.1695 17.9937C61.8127 18.8383 61.8469 19.1263 61.9984 19.5535C61.5744 19.883 61.51 20.1169 61.106 20.5924C61.7999 18.7694 60.2474 19.7862 60.2895 18.6818C60.3985 18.0804 61.2193 17.1982 60.8716 16.7114L61.5961 16.4996C60.8702 16.6382 61.8097 15.9685 61.5608 15.5481L61.3602 16.1603C61.0724 16.1114 61.0524 15.9655 61.1814 15.51L60.8374 16.4234C60.6542 16.4449 60.3665 16.396 60.6731 15.9273C60.5157 16.0987 60.3981 16.2486 60.3088 16.3813C60.3748 16.2329 60.3725 16.1109 60.2163 16.042C60.2363 16.188 60.3279 16.1773 60.1717 16.4096C59.7712 15.8633 59.4692 17.1785 59.194 16.8851C59.1235 17.1028 58.8799 17.2644 58.6909 17.2819C59.5394 16.0449 59.0001 15.4414 59.2889 14.6353C59.2777 14.6519 59.1708 13.8571 59.1708 13.8571C59.191 14.0153 58.8693 14.293 58.6464 14.336C58.396 14.4448 57.9285 15.8054 57.7442 15.1634L57.7689 14.6498C57.7816 14.7186 57.6127 14.8822 57.5283 14.97L57.5304 14.4774C56.3948 15.401 57.3086 13.3765 56.5167 13.6634C56.6998 13.642 56.8244 13.8583 56.492 14.177C56.3158 14.2634 56.2886 14.0403 56.3533 13.8187L56.2817 13.9754L56.016 12.6762C55.7954 13.1424 56.2203 13.4642 55.6991 13.8127C55.2036 14.2989 55.3786 13.549 55.267 13.4138C55.5076 13.0936 55.9588 12.9872 55.82 12.6288C55.6792 12.763 55.2006 12.9353 55.1608 13.258C55.1222 12.7381 54.8668 12.2772 55.0132 11.5322C54.8429 11.6225 54.8642 11.8417 54.877 11.9105L54.9558 11.8309C54.9958 12.1229 54.41 12.6931 54.9584 12.5677C54.2563 13.6622 54.2984 12.5578 53.9191 12.5197L53.8642 13.5552C52.1157 14.5246 52.1927 12.2388 51.46 11.7221C51.904 11.5386 51.8721 11.9751 52.4124 11.1212C52.2267 10.406 52.162 10.6276 51.8145 10.153L51.8273 10.2219C51.2989 10.4933 51.5314 9.44458 50.8724 10.086C50.6646 10.6211 51.4996 9.88105 50.875 10.8228L50.344 10.3574C50.1504 11.0346 50.875 10.8228 51.0065 11.104C51.2027 11.1636 50.7762 10.7563 51.259 10.2013C51.7771 10.5978 51.4919 11.2857 51.1678 12.3451C50.8898 13.1101 50.4832 12.8488 50.3844 12.7824C50.6943 11.5809 50.4956 10.7846 49.6653 10.8651L48.8891 11.3796C49.057 10.5525 50.0268 9.36091 49.4384 9.19435L49.2378 9.80656C48.9993 9.93542 48.885 9.95494 48.8327 9.91978C48.7738 10.4466 48.7104 11.0305 48.623 11.5621C47.619 12.4657 48.2011 10.4953 47.9452 10.01C47.8736 10.1667 47.9851 10.302 47.8417 10.6032C47.0702 10.4581 47.3129 8.74151 46.9652 8.25471C46.4496 8.59494 47.1367 8.8279 46.5695 9.47082C46.5096 9.03288 45.818 9.47171 46.1949 8.77311C45.6746 9.77292 45.5923 8.46448 45.4714 9.6484C44.3206 9.46518 43.9362 7.95359 43.4041 6.82476C43.2551 7.13427 43.0989 7.36665 42.9299 7.53018C43.2376 7.72502 43.5008 8.28748 43.2283 9.04419C42.7127 9.38442 43.193 8.09265 42.9452 8.33575C42.8878 8.63454 43.0968 8.76296 42.7843 9.22771C42.1772 9.57867 42.5284 8.74239 42.4096 8.53L42.6702 8.35573C42.5361 7.33777 43.4557 6.52207 42.6898 6.36867C42.0896 6.78456 42.3774 6.83342 41.9032 7.53884C41.9478 7.17122 40.9754 7.62612 41.3323 6.78154L41.7316 6.96565C41.6098 6.59459 41.3716 6.43442 41.359 6.07655C41.276 6.23766 41.1875 6.40706 41.2007 6.50031C41.148 6.13951 40.8588 6.01742 41.0666 5.48235L40.5008 6.1985C40.846 5.94857 41.2454 6.13268 41.0245 6.5867C40.5489 7.21889 40.4562 6.56613 40.2658 6.51045C40.8295 7.19061 40.0431 8.37299 40.965 8.2818L41.0224 7.98302C41.7737 7.6687 41.521 8.86042 41.8631 9.05428C41.6697 9.14116 41.4626 9.41161 41.4196 9.56344C42.5307 9.46691 42.9382 10.3795 43.9919 10.5817L43.7394 11.4844L44.1362 10.9318C44.7046 10.9524 43.6878 11.7871 43.9826 11.9009C43.8838 11.8345 43.9626 11.7549 44.04 11.6021C44.0753 12.5536 44.653 11.255 44.7859 11.6095C45.0711 10.9216 44.4312 11.0578 45.0886 10.3309C45.1239 11.2824 46.0788 11.4183 45.2334 12.814C46.456 12.8527 46.9504 14.4141 47.5931 15.0269C47.8537 14.8527 47.6575 14.7931 47.8209 14.6378C47.5757 15.6177 49.148 14.7347 48.6796 15.444C48.9474 15.3469 49.3514 14.8714 49.5146 14.704C49.466 15.1653 49.5752 15.4797 49.7463 15.7273L49.7061 15.4231L49.7849 15.3436L49.8449 15.7815C50.247 16.4133 51.0382 16.6922 51.0536 17.799C51.0582 17.1394 51.6982 17.0033 51.7428 16.6356C51.2625 17.9274 51.8794 18.3903 52.4805 18.6257C52.6368 18.3933 52.8057 18.2298 52.8646 18.0043L52.8599 18.6638L53.0089 18.3543C53.6888 18.5102 53.4389 20.1496 54.1449 19.865C54.0133 19.5838 54.1695 19.3514 54.3973 18.9623C54.7699 19.249 55.1191 19.5078 55.3436 20.1527C55.365 20.0707 55.4033 19.976 55.4591 19.893C55.6423 19.8716 55.5979 20.2514 55.6307 20.4662L56.0275 19.9136C56.087 20.3271 56.573 20.2442 56.5449 20.8759C57.0681 20.336 56.8224 21.8939 57.315 21.8515C57.3422 22.0746 57.4886 21.0284 57.8034 21.2882C57.0297 22.5394 58.2227 21.6182 57.3645 22.9451L57.9844 22.663L57.6076 23.3616C58.689 22.3052 57.6229 24.1672 58.2573 24.0393C58.3347 23.8865 58.3275 23.8094 58.4063 23.7298C58.4335 23.953 58.6566 24.2235 58.2184 24.4109C58.4218 24.5476 58.9009 25.3034 59.056 24.4076C58.8282 24.7966 58.7612 24.2938 58.734 24.0707C59.1308 23.518 59.2824 23.9452 59.7708 23.3819C59.7433 23.4478 59.7113 23.5708 59.6789 23.6817L59.9539 23.3604C59.9132 24.2368 60.598 24.0465 60.33 25.0351C60.4646 24.8725 60.6178 24.7827 60.7177 24.9101L60.2435 25.6156L60.6615 25.8724L61.1617 24.7266C61.7373 24.8243 61.2642 26.1933 61.5073 26.6097C62.3869 25.5021 61.9092 27.5306 62.926 26.6958L62.859 26.193C63.3183 26.815 63.8855 26.1721 64.1814 26.9494C63.4427 27.0191 63.5931 26.7828 62.2542 27.2684C63.2807 27.2476 63.0108 28.741 64.1019 28.4985C64.2509 28.189 64.2053 27.9053 64.5575 27.7203C64.2723 28.4082 65.173 28.11 64.6 28.749C64.9594 28.6412 65.435 28.009 65.624 27.9914L65.7007 29.3082L65.7781 29.1554C68.0047 28.2905 67.1455 31.6772 68.7476 31.7541L68.9754 31.365L68.8863 32.1124C68.911 31.5988 69.3031 31.7058 69.5381 31.3938L69.7122 32.7038C69.9528 32.3835 70.4142 31.6093 70.1337 31.6375L70.1957 31.5829ZM60.8474 24.7925L60.7066 24.6255C60.6494 24.6353 60.609 24.6201 60.6185 24.5181L60.7066 24.6255C60.8551 24.5928 61.1257 24.3409 60.8474 24.7925ZM45.9198 12.7091C46.056 12.3308 46.1088 12.6916 46.2003 12.6808L45.9772 12.4103C45.8082 12.5739 45.9184 12.6359 45.9256 12.713L45.9198 12.7091ZM63.9047 20.2446L64.3215 19.838L64.1925 20.2935L63.9047 20.2446ZM66.3735 21.856L66.3136 21.4181L66.3982 21.3424L66.4523 21.7765L66.3735 21.856ZM66.5264 27.4774C66.5264 27.4774 66.5308 27.4081 66.5412 27.3549C66.5475 27.3832 66.5368 27.4242 66.5264 27.4774C66.4836 27.9427 67.1282 27.147 66.7328 28.0741C66.0724 28.6423 66.4415 27.8421 66.5264 27.4774ZM62.2319 24.5905C62.2119 24.4446 62.1991 24.3757 62.1131 24.3782C61.9641 24.6877 61.8479 25.212 61.6647 25.2335C61.801 24.8551 61.5778 24.5846 61.89 24.1077C61.7937 24.778 62.8551 23.5756 62.2319 24.5905ZM56.702 20.3912L56.7994 20.3843L56.8241 19.8707L56.7078 20.3951L56.702 20.3912ZM55.9796 19.2066C56.2648 18.5188 55.8727 18.4118 55.7411 18.1306C55.3371 18.6061 55.1507 19.3603 55.4512 19.478C55.4466 20.1376 56.103 18.7594 55.9796 19.2066ZM64.717 24.9477L64.9321 24.4898L65.0236 24.4791L64.9637 24.0411C65.6682 23.6834 65.1694 24.9024 65.2094 25.1944C65.0978 25.0591 65.3946 23.7766 64.7112 24.9438L64.717 24.9477ZM53.9548 17.4117C53.9794 16.8981 53.8853 16.1721 54.2047 15.7723C53.6517 16.5573 53.7316 17.1412 53.8304 17.2076C53.922 17.1969 53.9292 17.274 53.9492 17.42L53.9548 17.4117ZM54.9762 15.9174C55.0503 16.4974 54.8225 16.8865 54.5701 17.7892C54.0217 17.9146 54.6263 16.8269 54.9515 16.431C54.9762 15.9174 54.671 16.4593 54.4934 16.4724L54.9818 15.9091L54.9762 15.9174ZM53.8011 18.3808L54.0073 18.3628C54.3873 18.1363 55.0303 17.2551 54.6372 18.3042L54.0073 18.3628C53.9222 18.414 53.8481 18.4365 53.8011 18.3808ZM51.1208 16.5067L51.0703 16.8704C50.9592 16.7595 51.0255 16.6233 51.1208 16.5067L51.1666 16.2001C51.6524 16.1049 51.3116 16.2855 51.1208 16.5067ZM53.3348 17.6938L53.6626 18.0346C53.8904 17.6455 53.5238 17.6763 53.3348 17.6938ZM51.6821 15.8598C51.8783 15.9194 52.3693 16.0928 52.2777 16.1035C51.9525 16.4994 51.6305 16.1625 51.6821 15.8598ZM44.0261 9.06236L44.2365 9.26402L43.7409 9.75023L44.0261 9.06236ZM47.1293 10.546L46.8815 10.7891L46.7699 10.6538L47.1293 10.546ZM49.755 12.2629C49.6597 12.3795 49.5651 12.5328 49.499 12.6812C49.5062 12.7584 49.4909 12.8565 49.4302 12.9844C49.3954 12.961 49.4274 12.838 49.499 12.6812C49.4781 12.4864 49.2766 12.4474 49.0897 12.5748C48.9407 12.8843 49.1425 12.9356 49.0723 13.1655C48.3877 13.6693 49.1976 11.3098 48.0599 13.3285C48.1173 13.0297 48.1148 12.2929 48.4542 12.0391C48.6548 12.3306 49.3059 12.4791 49.755 12.2629C49.8335 12.1711 49.9126 12.1037 49.9702 12.1184C49.914 12.177 49.8345 12.2199 49.755 12.2629ZM53.5327 14.224C53.598 14.3402 53.5997 14.4257 53.5838 14.4994C53.5762 14.6991 53.495 14.9578 53.2875 15.2039C53.2403 14.8348 53.5132 14.7049 53.5838 14.4994C53.5873 14.3812 53.5797 14.2797 53.5327 14.224ZM54.2326 14.5258L54.1585 13.9458L54.0422 14.4702L54.0843 13.3658C54.6199 13.1716 54.5436 13.9879 54.2384 14.5297L54.2326 14.5258ZM54.5943 14.2388L54.3514 14.7382L54.565 14.2071C54.5943 14.2388 54.6438 14.1275 54.6438 14.1275L55.0057 14.7564L54.5829 14.2432L54.5943 14.2388ZM59.5019 18.8995C60.7653 17.4594 59.7786 17.4588 60.1872 16.625C59.8069 17.1405 59.0454 17.8214 59.5854 18.1603C58.7692 18.3829 59.9869 16.9481 58.8267 18.0841C59.1144 18.1329 59.097 18.7237 59.1098 18.7925L58.815 18.6787C58.302 19.7557 59.5396 18.4669 59.5022 18.9117L59.5019 18.8995ZM62.4417 20.5383L62.7566 20.8103L62.5263 20.4627L62.4475 20.5422L62.4417 20.5383ZM71.1122 25.7765C71.34 25.3875 72.2335 25.0121 71.8581 25.784C71.5703 25.7351 71.3544 25.5417 71.1122 25.7765ZM74.6428 28.3187L74.4713 27.7455C75.1159 26.9497 74.7918 28.0092 75.0668 27.9892C74.8462 28.4554 74.8906 28.0756 74.6428 28.3187ZM77.1188 30.0072L77.146 30.2304L77.5816 29.3062L77.1074 30.0116L77.1188 30.0072ZM77.7093 28.7775C78.0359 28.4548 77.8971 28.0964 77.8055 28.1072L77.7093 28.7775ZM79.4433 30.5551L79.2529 30.4994L78.8961 31.344L79.4491 30.559L79.4433 30.5551ZM79.6018 30.2546C79.924 29.7 79.4268 29.9897 78.815 30.0966C78.4182 30.6492 79.5226 29.7073 78.9426 30.2814C78.9754 30.4962 79.2304 30.3302 79.322 30.3195C79.302 30.1735 79.0414 30.3478 79.2692 29.9587C79.5537 29.8367 79.643 30.0051 79.5904 30.259C79.4738 30.4577 79.3854 30.6393 79.3705 30.7618C79.4877 30.5875 79.5646 30.4103 79.5904 30.259L79.6018 30.2546ZM77.875 29.9492C77.7839 29.9844 77.6872 30.0278 77.6084 30.1074L77.68 29.9507C77.894 29.7452 77.8957 29.8306 77.875 29.9492C77.9775 29.9097 78.086 29.8863 78.189 29.8712C78.5477 29.4255 78.5154 28.9338 78.63 28.6253C78.6628 28.8401 78.4491 29.3713 78.8015 29.1985C78.8731 29.0418 78.9577 28.9661 78.859 28.8997L79.1467 28.9485C78.9503 29.7804 78.5781 29.8195 78.1948 29.8751C78.1165 29.979 78.0265 30.0752 77.9019 30.1602C77.8224 30.2031 77.8657 30.0635 77.8808 29.9531L77.875 29.9492ZM78.9158 32.1913L78.8831 31.9765C78.9419 31.7509 79.1109 31.5874 79.1883 31.4346C79.2999 31.5698 79.2682 32.0185 78.9158 32.1913ZM71.6268 27.4961C71.803 27.4097 71.9908 26.7287 71.7158 26.7487L72.2888 26.1097C71.9764 26.5744 72.3757 26.7585 72.383 26.8357C72.0061 27.5343 72.0564 27.1583 71.6268 27.4961ZM63.2815 21.862C63.8145 20.931 62.9984 21.1536 63.0558 20.8548C63.4224 20.8241 64.1023 20.9799 63.2815 21.862ZM62.2455 21.6837C62.1232 21.5894 62.0325 21.649 62.3512 21.2126C62.4159 20.9909 62.1551 21.153 62.2197 20.9313C62.726 20.7053 62.2343 21.399 62.2455 21.6837C62.2803 21.7071 62.3096 21.7389 62.3338 21.8033C62.2648 21.793 62.2466 21.7447 62.2455 21.6837ZM67.0824 25.0437L66.81 25.8004L67.1105 25.9181L67.088 25.0354L67.0824 25.0437ZM69.0796 28.0973C69.3074 27.7082 69.6151 27.9031 69.5505 28.1247C69.8622 27.6233 69.6198 27.5447 69.4964 27.3894C69.501 27.3323 69.4887 27.2879 69.4364 27.2527C69.4431 27.3055 69.4669 27.3455 69.4964 27.3894C69.4764 27.5447 69.2683 27.7663 69.1512 27.9406L68.975 28.027L69.1065 28.3082L69.0793 28.0851L69.0796 28.0973ZM73.6218 31.946C74.0586 31.6854 73.9812 31.8382 74.0139 32.053C73.8449 32.2165 73.6546 32.1609 73.6218 31.946ZM67.3132 27.5244C67.7772 27.4869 67.67 26.6798 68.0294 26.572L67.839 26.5163C68.4462 26.1653 67.6454 27.1934 67.926 27.1652L67.737 27.1827C67.326 27.5932 67.7053 27.6314 67.4717 28.0166C67.2039 28.1137 67.124 27.5298 67.313 27.5122L67.3132 27.5244ZM73.6945 32.4528C74.3145 32.1707 73.5983 33.1231 73.7171 33.3355C73.1887 33.6069 73.8261 32.7341 73.6945 32.4528ZM68.2425 30.2337L68.1637 30.3132L68.2178 30.7473L68.2966 30.6677L68.2367 30.2298L68.2425 30.2337Z" fill="white"/>
<path d="M77.3801 27.761C77.4947 27.7537 77.5356 27.7932 77.5484 27.862C77.4794 27.8518 77.4215 27.8249 77.3801 27.761Z" fill="white"/>
<path d="M63.7612 17.8347C63.6717 17.9553 63.598 18.0021 63.5352 18.0202C63.5855 17.9455 63.6589 17.8864 63.7612 17.8347Z" fill="white"/>
<path d="M42.0794 5.04258C42.3646 4.35471 42.2684 5.02502 42.3672 5.09143C42.2684 5.02502 41.9432 5.42093 42.0794 5.04258Z" fill="white"/>
<path d="M42.1946 6.57806C42.2592 6.35642 42.2501 6.18163 42.1848 6.06543C42.2599 6.0918 42.2906 6.19677 42.1946 6.57806Z" fill="white"/>
<path d="M41.7226 5.88713C41.9574 5.86421 42.1078 5.92916 42.1791 6.06148C42.0636 6.01997 41.8202 6.19374 41.7226 5.88713Z" fill="white"/>
<path d="M44.4216 7.84625C44.5507 7.39076 44.1785 7.42977 44.1785 7.42977C44.93 7.42888 44.5425 6.66233 44.6915 6.35281C44.9277 6.70436 44.6153 7.16911 44.4216 7.84625Z" fill="white"/>
<path d="M44.9792 8.49806C44.9269 8.4629 44.8634 8.44434 44.7837 8.47509C44.8973 8.41896 44.9494 8.44191 44.9792 8.49806Z" fill="white"/>
<path d="M45.4222 8.26576C45.5409 8.47815 45.3259 8.93608 45.1897 9.31443C44.768 9.46475 45.0807 8.71098 44.9905 8.49371C45.1239 8.57135 45.2181 8.69488 45.4222 8.26576Z" fill="white"/>
<path d="M52.3047 9.98853C52.2975 9.91139 52.1931 9.85328 52.3435 9.617L52.6457 9.82014C52.6841 10.0267 52.3963 9.9778 52.3047 9.98853Z" fill="white"/>
<path d="M52.6503 11.8716C52.8606 12.0733 53.1459 11.3854 53.1786 11.6003L52.6256 12.3853L52.6503 11.8716Z" fill="white"/>
<path d="M49.7994 15.8113L49.7855 15.6814C49.7855 15.6814 49.8266 15.7332 49.8501 15.761L49.805 15.803L49.7994 15.8113Z" fill="white"/>
<path d="M54.3369 11.8606L54.7711 10.8632C54.8239 11.224 54.3496 11.9294 54.3369 11.8606Z" fill="white"/>
<path d="M55.6566 11.8803L55.7012 11.5127L55.9643 12.0751L55.6566 11.8803Z" fill="white"/>
<path d="M56.4651 13.0624L56.6341 12.8989L56.7856 13.3261L56.4651 13.0624Z" fill="white"/>
<path d="M67.9697 21.929C67.5141 22.7072 67.2437 22.0676 66.9704 22.173C67.6996 21.3016 67.1419 22.7462 67.9697 21.929Z" fill="white"/>
<path d="M76.7271 27.816L76.3851 27.3331C76.9349 27.281 76.4839 27.3996 76.7271 27.816Z" fill="white"/>
</g>
<defs>
<clipPath id="clip0_100_346">
<rect width="72.67" height="11.79" fill="white" transform="translate(73.2773 61.4854) rotate(176.315)"/>
</clipPath>
<clipPath id="clip1_100_346">
<rect width="50.8847" height="11.79" fill="white" transform="translate(77.9912 38.1729) rotate(-146.089)"/>
</clipPath>
</defs>
</svg>
