<svg width="68" height="79" viewBox="0 0 68 79" fill="none" xmlns="http://www.w3.org/2000/svg">
<g clip-path="url(#clip0_100_347)">
<path d="M62.5192 6.68387C62.5192 6.68387 62.6274 6.68388 62.6912 6.68943C62.5997 6.7865 62.5442 6.81146 62.5192 6.68387Z" fill="white"/>
<path d="M64.2971 6.05164C63.9116 6.32063 63.282 6.72827 62.6857 6.68106C62.9741 6.35659 63.5816 5.23061 64.2971 6.05164Z" fill="white"/>
<path d="M61.4821 5.27203L62.1505 5.21108C62.0201 5.64651 61.7955 5.18331 61.4821 5.27203Z" fill="white"/>
<path d="M62.2253 5.99045L62.4083 6.33716L61.9396 6.19289L62.2253 5.99045Z" fill="white"/>
<path d="M39.3364 25.8853C39.4806 25.9935 39.6193 26.1294 39.7274 26.3458L39.3364 25.8853Z" fill="white"/>
<path d="M37.2065 25.1419C37.0734 25.1585 36.9818 25.1834 36.9125 25.2056C36.9624 25.1363 37.0429 25.1307 37.2065 25.1419Z" fill="white"/>
<path d="M40.2795 25.0645L40.1075 25.2392C40.1408 25.1449 40.1963 25.0839 40.2795 25.0645Z" fill="white"/>
<path d="M52.0402 15.4471C52.3841 15.5664 52.7113 15.6607 52.9443 15.7217C52.7446 16.2154 52.3508 15.6967 52.0402 15.4471Z" fill="white"/>
<path d="M28.8002 23.7986L28.9277 24.0982C28.8002 24.015 28.6976 23.9151 28.8002 23.7986Z" fill="white"/>
<path d="M34.0091 20.9036C34.1089 21.0534 34.1866 21.1699 34.2171 21.2697C34.1838 21.2558 34.1478 21.2558 34.1145 21.242L34.0091 20.9036Z" fill="white"/>
<path d="M40.7179 23.9911L40.9814 24.0078C40.9231 24.1187 40.8399 24.1021 40.7179 23.9911Z" fill="white"/>
<path d="M26.9612 24.4835C26.7948 24.3781 26.5979 24.245 26.3733 24.0342C26.6063 24.0592 26.8475 24.2589 26.9612 24.4835Z" fill="white"/>
<path d="M35.8342 20.1078C35.7232 20.1217 35.6178 20.1438 35.4875 20.1466C35.5568 20.0163 35.6983 20.0301 35.8342 20.1078Z" fill="white"/>
<path d="M52.0401 15.4471C51.9458 15.4138 51.8432 15.3861 51.7489 15.3528C51.8238 15.3029 51.9292 15.3528 52.0401 15.4471Z" fill="white"/>
<path d="M61.5983 8.15097C61.4402 8.25634 61.2849 8.09547 61.124 7.92627C61.2682 7.96234 61.4291 8.02337 61.5983 8.15097Z" fill="white"/>
<path d="M5.04281 47.3129L4.97624 47.3572C4.97624 47.3572 5.01508 47.3073 5.04281 47.3129Z" fill="white"/>
<path d="M11.5775 43.9908C11.6413 44.0325 11.719 44.0768 11.7994 44.1434C11.7938 44.2433 11.6829 44.1489 11.5775 43.9908Z" fill="white"/>
<path d="M12.9181 33.8677C12.7739 34.5167 11.8392 33.9979 11.4759 34.192L11.8087 34.4389L11.2762 34.3972L11.5868 34.8632C10.8629 35.0212 10.4828 35.9836 9.77562 35.3734L10.3413 36.0779L9.33459 35.8837L10.0224 36.1583C9.44544 36.7712 8.01153 36.8737 7.8673 36.9818L8.11411 37.2259C8.10023 37.4395 7.88668 37.3174 7.70918 37.3035L8.07802 37.6586C6.96856 38.2298 7.31791 39.367 5.87011 39.683C5.62047 39.9936 6.13359 39.6997 6.29443 39.941C6.34154 40.3903 5.73138 40.3403 5.5206 40.2044C6.05028 40.8008 6.3998 40.2794 6.38308 41.0476C5.90883 40.895 6.96269 41.5386 6.4163 41.7105L5.68139 40.9865C5.51772 41.2999 6.06961 41.6772 5.60642 41.8657C4.40473 40.9386 5.03998 39.674 4.21622 40.0428C3.8806 40.3506 4.72353 42.5168 3.69456 42.5416C3.36443 43.3986 4.88983 43.6317 3.88024 43.9922L4.79548 44.1753C4.81486 44.5109 5.17538 44.8715 4.69279 44.9408C4.35999 44.6939 3.84969 44.4332 3.61671 44.5164C4.85091 44.6191 3.53891 45.9503 4.8452 46.2693L4.5401 46.4246C4.5401 46.4246 4.65935 46.5134 4.68153 46.5827L4.34591 46.8906C4.70092 46.9183 5.29725 46.641 5.45803 47.4232L5.017 47.9335C5.46904 48.3051 5.3969 48.6296 5.67976 48.9819L7.87362 48.8296C7.6268 48.5855 7.27179 48.5577 7.16643 48.2193C7.42997 47.6952 7.84591 48.4995 7.9902 47.8505L7.56588 47.5926C7.69345 47.7118 7.7711 47.7202 7.72117 47.8256C7.74055 48.1611 7.49374 47.9171 7.33844 47.6841C7.16377 47.1155 7.77948 47.1738 8.11227 47.4207C8.58936 47.0185 7.65474 46.4998 7.67694 46.2807C8.47011 46.8937 9.03124 46.5533 9.59147 46.7087L9.03958 46.3314C9.02025 45.455 9.70805 45.7296 10.0631 45.7574L9.68867 45.394C10.2933 45.1112 9.62506 43.5136 11.0256 44.7313L10.7787 44.4872C10.9147 44.2043 11.0506 43.669 11.5609 43.9659C11.4445 43.7911 11.3419 43.547 11.3946 43.4278C11.8937 43.9243 11.8467 43.3308 12.1046 43.0146C11.7884 43.009 11.3559 42.2158 11.0147 42.1908C11.0204 41.0814 12.0353 42.7123 12.4541 42.4211C12.457 41.8664 11.9438 42.1603 11.697 41.9163C12.6262 41.8858 11.9136 39.2842 13.328 40.5047L13.3612 41.1676C13.8438 41.3146 13.9852 41.2203 13.8577 41.101C13.8077 41.2064 13.6802 41.0872 13.5609 40.9623C13.8495 39.6644 15.5328 41.2343 16.1403 40.3968C15.8935 40.1527 15.716 40.1388 15.5607 39.9058C15.7327 39.3706 16.8835 41.1152 17.1 40.1417L16.7672 39.8949C16.8393 39.5704 17.2914 39.9421 17.3274 40.0502C16.501 38.7743 18.6366 39.2738 17.9489 37.3406C18.7061 37.8454 19.8987 37.8317 19.9015 37.277C19.7629 36.2757 19.0168 36.6529 18.6868 35.8513C18.9781 35.6572 19.5799 36.2535 19.8517 35.7238C20.3231 36.4311 19.9569 37.7207 21.0303 37.5822L20.8916 37.1218C20.8417 37.2271 20.8195 37.4462 20.642 37.4324C20.1317 37.1716 20.4673 36.8638 20.3897 36.6391L21.3993 36.2787C21.9567 36.9887 21.3243 37.1579 21.4019 37.3825C21.9789 36.7696 22.0789 35.1166 23.0496 35.2027L22.8028 34.9586C24.037 35.0614 22.362 33.2695 23.8069 34.049C24.0205 33.6302 23.1496 33.3334 23.6267 32.9313C23.7682 32.837 23.8735 33.1754 23.9096 33.2835C24.7195 33.1283 23.7155 32.3793 24.7639 32.6901L24.1122 31.9828C25.1689 32.0716 26.8273 32.9732 27.1991 32.2327C26.7554 31.6391 26.4197 31.9469 25.9677 31.5752C27.5208 32.1384 28.0174 30.4133 29.1656 30.5133C29.2904 31.1873 30.3249 31.4952 30.1306 32.2496C29.4789 31.5423 29.5981 32.208 29.2847 32.2967C30.8544 33.7501 30.472 30.2916 31.6007 31.7145L31.2984 31.0266C31.4759 31.0405 32.0777 31.3124 32.0056 31.6368L32.577 30.6911C31.9752 30.4193 30.6579 29.7591 30.9018 30.5578C30.2363 30.0641 30.9546 29.8978 30.2474 29.2875C31.4788 29.945 30.3002 28.6274 31.0241 28.4694C31.3512 29.5372 32.3941 29.2988 32.652 29.7398C32.7325 29.4459 33.4258 29.5846 33.7836 29.7788C34.1719 29.6401 34.4605 28.4143 35.1982 28.3672C34.8155 28.2257 34.2497 28.062 33.8947 27.4934C34.369 27.646 34.6547 27.4436 34.2665 26.7529C32.5442 26.1703 34.9708 28.4587 33.6146 28.245C32.9074 27.6348 32.5607 27.6015 31.9782 27.6652C31.8951 27.1077 31.676 26.9773 31.4153 26.406C32.9933 27.6376 32.902 25.6434 34.114 25.9652C34.7158 26.2371 35.1512 27.3771 35.9333 27.1081L35.6808 27.9734C36.0165 27.1247 36.1329 28.3451 36.7736 28.1704L36.2217 27.7932C36.4713 27.4826 36.6488 27.4965 37.0732 27.7544L36.28 27.1414C36.3799 26.9306 36.6295 26.62 36.9484 27.0805C36.8625 26.8613 36.7737 26.6922 36.685 26.559C36.807 26.67 36.9457 26.6977 37.1287 26.5396C36.9512 26.5258 36.9013 26.6312 36.746 26.3982C37.6308 26.0848 36.3578 25.4191 36.8737 25.1834C36.6768 25.0502 36.6602 24.7368 36.7684 24.5205C37.5837 25.7798 38.6265 25.325 39.3365 25.8493C39.3254 25.8326 40.2906 25.9104 40.2906 25.9104C40.0992 25.8937 40.005 25.4638 40.1076 25.2031C40.1548 24.8953 38.9429 24.0326 39.7888 23.9855L40.349 24.1409C40.263 24.1381 40.1937 23.9079 40.1521 23.7914L40.704 23.9163C40.4352 22.413 42.0908 23.9414 42.3044 22.9817C42.2046 23.1925 41.8773 23.2785 41.7442 22.8264C41.7664 22.6073 42.0354 22.6323 42.2407 22.7599L42.1131 22.6406L43.7522 22.6657C43.3778 22.3023 42.7288 22.6989 42.69 22.0277C42.4793 21.3509 43.2032 21.7338 43.4306 21.6423C43.6275 21.9917 43.4416 22.5242 43.9381 22.4577C43.8826 22.2663 44.013 21.6867 43.6775 21.5618C44.2876 21.6479 44.9782 21.476 45.716 21.8255C45.7298 21.612 45.4691 21.5814 45.3832 21.5787L45.4192 21.6868C45.0642 21.6591 44.8202 20.8603 44.5899 21.5065C43.8357 20.4469 45.0476 20.7688 45.3472 20.3528L44.2212 20.0337C44.3157 17.8315 46.8312 18.4863 47.9074 17.7931C47.8131 18.3367 47.3444 18.1924 47.9378 19.0106C48.8669 18.9802 48.6617 18.8526 49.43 18.5809L49.344 18.5781C49.3968 17.918 50.4174 18.4395 50.1429 17.5409C49.6825 17.1747 49.9487 18.2953 49.3136 17.3605L50.1956 16.8808C49.5661 16.4952 49.3136 17.3605 48.9087 17.4382C48.709 17.6434 49.4551 17.2663 49.7518 17.9458C48.9557 18.4283 48.3761 17.9373 47.4055 17.3104C46.7343 16.8084 47.3029 16.4174 47.4444 16.3231C48.5842 16.9694 49.6132 16.9445 50.0848 15.9933L50.0322 14.9948C50.8476 15.3887 51.5297 16.7728 52.115 16.1543L51.5631 15.7771C51.5798 15.4775 51.6352 15.3444 51.7101 15.2945C51.1582 15.0975 50.5453 14.8811 50.0073 14.6509C49.6718 13.3002 51.4911 14.443 52.2095 14.2767C52.0819 14.1574 51.8544 14.2489 51.6132 14.0131C52.2983 13.1839 54.0622 13.883 54.8443 13.6141C54.8111 12.9512 54.0844 13.6639 53.7461 12.8679C54.2786 12.9095 54.2537 12.0248 54.7834 12.6212C54.0125 11.789 55.5379 12.0222 54.2898 11.5921C55.2746 10.3469 57.2327 10.2916 58.8607 9.97562C58.6139 9.73153 58.4586 9.49854 58.3893 9.26834C57.9622 9.56506 57.1523 9.7203 56.4867 9.22655C56.4535 8.56368 57.5794 9.42358 57.4741 9.0852C57.1773 8.94649 56.8916 9.14893 56.581 8.68295C56.5978 7.91469 57.2994 8.51661 57.6183 8.43621L57.6377 8.77181C58.8719 8.87454 59.1658 10.1088 59.8565 9.28789C59.7955 8.51131 59.5459 8.82191 59.0745 8.11463C59.4572 8.25611 59.6043 7.05243 60.3115 7.66267L59.8344 8.06478C60.3336 8.02045 60.6748 7.79306 61.0853 7.86798C60.9605 7.73484 60.8301 7.59338 60.7164 7.58505C61.1574 7.6156 61.4903 7.32164 61.9506 7.68779L61.5291 6.87511C61.5762 7.32442 61.0992 7.72653 60.7386 7.36594C60.3504 6.6753 61.1464 6.73362 61.3378 6.53395C60.1923 6.99701 59.3964 5.82098 58.8749 6.87763L59.1716 7.01633C59.0162 7.93712 57.8486 7.35735 57.3993 7.69289C57.4326 7.45437 57.269 7.15482 57.1276 7.06883C56.484 8.33903 55.1832 8.56911 54.2429 9.70061L53.3998 9.19297L53.752 9.77544C53.3442 10.4078 53.0947 9.05981 52.7674 9.36209C52.9089 9.26781 52.9449 9.37598 53.0642 9.5008C51.9714 9.30377 53.0391 10.2746 52.551 10.3356C53.1306 10.8265 53.4108 10.0749 53.7823 10.993C52.6896 10.796 51.8907 11.8332 50.8952 10.5379C50.0242 11.8996 47.9357 12.0658 46.8124 12.6342C46.8318 12.9698 47.0315 12.7646 47.0952 12.9865C46.1606 12.4678 46.0883 14.4508 45.6086 13.7491C45.5364 14.0736 45.7971 14.6449 45.8747 14.8696C45.3894 14.7004 44.9623 14.7447 44.5684 14.875L44.9373 14.9056L44.9733 15.0137L44.4408 14.9721C43.459 15.266 42.6102 16.0841 41.3566 15.826C42.0943 15.9953 41.8141 16.7469 42.1969 16.8884C41.0709 16.0285 40.1334 16.6053 39.4622 17.2209C39.6175 17.4539 39.6868 17.6841 39.9003 17.8062L39.1626 17.6369L39.4094 17.881C38.7742 18.6048 37.1018 17.9168 36.9437 18.7794C37.3486 18.7018 37.5039 18.9347 37.7868 19.287C37.2126 19.6336 36.6856 19.9609 35.8092 20.0523C35.8868 20.0967 35.9673 20.1633 36.0227 20.2465C35.9229 20.4572 35.5263 20.313 35.2628 20.2963L35.615 20.8788C35.1102 20.8427 34.8744 21.4085 34.1838 21.2198C34.4361 21.9409 32.8525 21.2779 32.5668 21.8409C32.2978 21.8159 33.3738 22.2404 32.869 22.5288C31.9872 21.3499 32.2145 22.917 31.3049 21.6244L31.2022 22.3899L30.6725 21.7936C31.1272 23.2691 29.7573 21.6104 29.4715 22.3537C29.5908 22.4785 29.6823 22.4896 29.7183 22.5978C29.4493 22.5728 28.9944 22.7558 29.0805 22.2178C28.7892 22.4119 27.616 22.7612 28.5173 23.1579C28.2345 22.8057 28.8447 22.8556 29.1137 22.8806C29.4659 23.4631 28.8834 23.5268 29.1857 24.2147C29.1302 24.1675 29.0137 24.101 28.9111 24.0372L29.0858 24.4255C28.129 24.1619 27.8793 24.9773 26.9502 24.4308C27.0417 24.6222 27.0389 24.8163 26.8281 24.8967L26.3567 24.1894L25.7853 24.5943L26.7338 25.4403C26.2345 26.0616 25.017 25.1906 24.3846 25.3597C25.0335 26.6217 23.0783 25.5814 23.3278 26.9294L23.9379 26.9794C22.9283 27.3398 23.2666 28.1358 22.1933 28.2744C22.6149 27.4285 22.7785 27.656 23.1393 26.0335C22.468 27.19 20.9731 26.5159 20.507 27.8C20.7538 28.0441 21.1033 28.0635 21.0728 28.5045C20.4931 28.0135 20.2185 29.098 19.8885 28.2964C19.7664 28.7263 20.1546 29.4169 20.0465 29.6332L18.5155 29.3918L18.6347 29.5166C18.0992 32.229 14.8766 30.4232 13.706 32.2009L13.9888 32.5531L13.2095 32.2674C13.7697 32.4228 13.3842 32.836 13.5755 33.1771L11.9863 33.0466C12.1832 33.3961 12.7406 34.1062 12.8987 33.7845L12.9181 33.8677ZM26.8725 25.0715L27.1554 24.955C27.1831 24.8885 27.2275 24.8469 27.3357 24.8829L27.1554 24.955C27.0916 25.1297 27.1914 25.4958 26.8725 25.0715ZM50.5484 11.3338C50.8812 11.5807 50.4402 11.5502 50.3903 11.6555L50.8452 11.4725C50.7758 11.2423 50.6316 11.3505 50.5401 11.3394L50.5484 11.3338ZM29.9118 29.6314L30.0865 30.2L29.6621 29.942L29.9118 29.6314ZM26.4308 31.9996L26.9633 32.0413L26.9911 32.155L26.4669 32.1078L26.4308 31.9996ZM20.0131 30.7731C20.0131 30.7731 20.0879 30.7953 20.1406 30.8203C20.1046 30.8203 20.0658 30.7981 20.0131 30.7731C19.5194 30.6094 19.9769 31.5303 19.2032 30.8563C19.0119 29.9743 19.6608 30.5873 20.0131 30.7731ZM26.1623 26.6745C26.3398 26.6884 26.4258 26.6912 26.4813 26.5941C26.2344 26.35 25.7241 26.0892 25.824 25.8785C26.1568 26.1253 26.6117 25.9423 26.9361 26.4111C26.2483 26.1364 26.8806 27.6259 26.1623 26.6745ZM34.622 21.5166L34.5637 21.6275L35.124 21.7829L34.6137 21.5221L34.622 21.5166ZM36.4415 21.0009C37.0211 21.4919 37.4066 21.0787 37.8116 21.001C37.5509 20.4297 36.8298 20.033 36.4942 20.3408C35.7565 20.1716 36.8602 21.2506 36.4415 21.0009ZM24.0791 29.3729L24.448 29.7279L24.3981 29.8333L24.9306 29.875C24.8556 30.7542 23.8239 29.8915 23.4689 29.8638C23.6964 29.7723 24.9361 30.4241 24.0875 29.3674L24.0791 29.3729ZM39.8281 19.1763C40.3883 19.3316 41.2675 19.4066 41.5004 19.8643C40.993 19.0488 40.2829 18.9933 40.1415 19.0875C40.0916 19.1929 40 19.1818 39.8225 19.1679L39.8281 19.1763ZM40.8153 20.6935C40.1136 20.6324 39.8307 20.2801 38.9876 19.7725C39.2179 19.1263 40.0305 20.0749 40.2551 20.5381C40.8153 20.6935 40.4132 20.2164 40.5186 20.0139L40.8208 20.7018L40.8153 20.6935ZM38.8435 18.7629L38.7242 18.9987C38.7214 19.4812 39.276 20.4215 38.3636 19.7197L38.7242 18.9987C38.7242 18.8905 38.7492 18.8017 38.8435 18.7629ZM42.7627 16.2228L42.3883 16.0757C42.588 15.9787 42.6962 16.0869 42.7627 16.2228L43.0761 16.3504C42.8542 16.9189 42.882 16.4918 42.7627 16.2228ZM39.9308 18.4108L39.3261 18.6936C39.609 19.0459 39.8226 18.6271 39.9308 18.4108ZM43.1093 17.0133C42.9096 17.2185 42.3826 17.726 42.4325 17.6206C42.2079 17.1574 42.8043 16.8801 43.1093 17.0133ZM55.9263 10.1168L55.5575 10.3026L55.3467 9.62583L55.9263 10.1168ZM52.1596 13.2283L52.0543 12.8899L52.2817 12.7984L52.1596 13.2283ZM48.454 15.7463C48.3874 15.6104 48.2793 15.4661 48.1573 15.3552C48.0657 15.3441 47.9659 15.3025 47.8633 15.2026C47.9132 15.1693 48.0297 15.2359 48.1573 15.3552C48.3902 15.3802 48.5705 15.1639 48.5539 14.9226C48.3071 14.6785 48.1129 14.892 47.9022 14.7561C47.7996 13.863 49.9018 15.3581 48.4043 13.5802C48.701 13.7189 49.5303 13.8992 49.5857 14.343C49.1225 14.4955 48.5151 15.1888 48.454 15.7463C48.5039 15.8572 48.5261 15.9626 48.4706 16.0236C48.4429 15.946 48.4484 15.8461 48.454 15.7463ZM43.6943 19.4956C43.5196 19.5399 43.4225 19.5205 43.3504 19.4845C43.1313 19.4262 42.8956 19.2709 42.7597 18.9769C43.2062 19.0157 43.1673 19.3541 43.3504 19.4845C43.4807 19.5178 43.6 19.5344 43.6943 19.4956ZM42.8816 20.2055L43.5833 20.2666L43.073 20.0059L44.285 20.3277C44.1407 20.9767 43.2754 20.6882 42.8733 20.2111L42.8816 20.2055ZM42.9592 20.6826L42.5626 20.2859L43.0147 20.6576C42.9592 20.6826 43.0507 20.7658 43.0507 20.7658L42.0994 21.0153L42.962 20.6687L42.9592 20.6826ZM34.4025 25.0278C35.1651 26.8029 35.8336 25.6964 36.4936 26.3621C36.172 25.8073 35.9224 24.7839 35.1763 25.3053C35.4787 24.3346 36.2662 26.057 35.7755 24.4733C35.5258 24.7839 34.8741 24.6174 34.7881 24.6146L35.1154 24.3123C34.2529 23.4691 34.8629 25.1776 34.3887 25.0251L34.4025 25.0278ZM30.5721 27.9174L30.0534 28.2031L30.5998 28.0312L30.5637 27.923L30.5721 27.9174ZM18.8199 36.3394C19.1028 36.6917 18.9196 37.7872 18.3067 37.1742C18.5564 36.8636 18.9197 36.6695 18.8199 36.3394ZM13.5749 39.6671L14.3348 39.6173C14.7924 40.5381 13.8217 39.9112 13.6581 40.2246C13.2837 39.8612 13.6803 40.0055 13.5749 39.6671ZM10.0024 42.0243L9.73338 41.9993L10.4766 42.7177L10.0052 42.0104L10.0024 42.0243ZM10.9841 42.9923C11.1255 43.4388 11.622 43.3723 11.6719 43.2669L10.9841 42.9923ZM8.26027 45.8654L8.45166 45.6657L7.74448 45.0555L8.25195 45.8709L8.26027 45.8654ZM8.04405 44.7476C8.44893 45.2469 8.90649 45.9875 9.20055 45.2747C8.84837 44.6923 8.71246 44.7949 8.46015 44.0016C8.19666 43.9849 8.2105 44.3122 8.16057 44.4176C8.33807 44.4315 8.31869 44.0959 8.60155 44.4482C8.54605 44.7976 8.29643 44.8558 8.04682 44.7338C7.90262 44.5535 7.75841 44.4092 7.63083 44.3621C7.7473 44.5368 7.89429 44.6672 8.04682 44.7338L8.04405 44.7476ZM9.55579 42.8868C9.57799 42.7758 9.59464 42.6566 9.55859 42.5484L9.68616 42.6677C9.77211 42.9589 9.67504 42.9395 9.55579 42.8868C9.53081 43.0116 9.48365 43.1392 9.43094 43.2584C9.68883 43.7715 10.2629 43.8576 10.5319 44.0628C10.2685 44.0462 9.81642 43.6745 9.772 44.1127C9.89957 44.232 9.9273 44.3457 10.0688 44.2514L9.81911 44.562C9.01761 44.1348 9.22566 43.7077 9.42262 43.264C9.35884 43.1502 9.31171 43.0254 9.30063 42.8646C9.30618 42.7647 9.43376 42.8479 9.54747 42.8923L9.55579 42.8868ZM5.83292 42.6306L6.5964 43.5133C6.80995 43.6353 6.87926 43.8656 6.99851 43.9904C6.77108 44.0819 5.7885 43.0688 5.83292 42.6306ZM16.5401 36.489C16.5179 36.7081 17.1557 37.0881 17.3194 36.7747L17.6494 37.5763C17.3388 37.1103 16.8617 37.5124 16.7702 37.5013C16.2405 36.905 16.6288 37.0548 16.5401 36.489ZM28.5168 28.5302C29.2018 29.3595 29.5042 28.3888 29.801 28.5275C29.5874 28.9463 28.9522 29.6701 28.5168 28.5302ZM29.4183 27.4126C29.6069 27.2989 29.6014 27.1824 29.8759 27.6483C30.0812 27.7759 30.0756 27.4431 30.2809 27.5707C30.1921 28.1948 29.7456 27.4708 29.4183 27.4126C29.3684 27.4458 29.3129 27.4708 29.2242 27.4819C29.2824 27.407 29.349 27.3987 29.4183 27.4126ZM22.3704 32.002L21.7048 31.5083L21.3692 31.8161L22.376 32.0103L22.3704 32.002ZM17.5888 33.4826C17.8716 33.8349 17.4445 34.1316 17.2392 34.004C17.5914 34.4783 17.8438 34.2259 18.1018 34.1261C18.1628 34.1455 18.221 34.1428 18.2959 34.0928C18.2322 34.0873 18.1711 34.1039 18.1018 34.1261C17.9409 34.0651 17.8328 33.7766 17.7163 33.6019L17.7385 33.3828L17.3336 33.4604L17.6026 33.4854L17.5888 33.4826ZM10.1914 37.62C10.1886 38.1747 10.0694 38.0498 9.80587 38.0332C9.73656 37.803 9.92795 37.6033 10.1914 37.62ZM19.4278 31.644C19.1559 32.1737 20.1349 32.2542 20.0129 32.6841L20.2043 32.4844C20.1875 33.2527 19.5747 32.0988 19.4166 32.4205L19.5248 32.2042C19.3418 31.6412 19.0422 32.0572 18.7677 31.6994C18.8398 31.3749 19.5498 31.4304 19.4416 31.6467L19.4278 31.644ZM9.57294 37.5755C9.47025 38.341 8.88514 37.3009 8.56618 37.3813C8.61894 36.7212 9.168 37.6531 9.57294 37.5755ZM15.7556 32.0125L15.7196 31.9043L15.1954 31.8571L15.2314 31.9653L15.7639 32.0069L15.7556 32.0125Z" fill="white"/>
<path d="M12.3486 42.876C12.2793 43.0063 12.2072 43.0423 12.1212 43.0396C12.1794 42.9647 12.2488 42.9065 12.3486 42.876Z" fill="white"/>
<path d="M32.7157 30.0699C32.6408 29.9395 32.6381 29.8452 32.6603 29.7704C32.7102 29.8452 32.7268 29.9423 32.7157 30.0699Z" fill="white"/>
<path d="M61.7591 8.93308C62.3387 9.42405 61.6509 9.1494 61.5095 9.24369C61.6509 9.1494 61.4263 8.68621 61.7591 8.93308Z" fill="white"/>
<path d="M59.9563 8.68054C60.1615 8.80814 60.364 8.84145 60.5387 8.79709C60.4583 8.87474 60.3196 8.88304 59.9563 8.68054Z" fill="white"/>
<path d="M61.0519 8.32285C60.9187 8.59186 60.744 8.74439 60.5471 8.79152C60.6719 8.67227 60.6414 8.35609 61.0519 8.32285Z" fill="white"/>
<path d="M57.0245 10.863C57.4489 11.121 57.6569 10.6939 57.6569 10.6939C57.1493 11.5369 58.2726 11.293 58.5194 11.5371C57.9647 11.7145 57.6541 11.2486 57.0245 10.863Z" fill="white"/>
<path d="M55.9152 11.326C55.99 11.2761 56.0538 11.2096 56.0733 11.1125C56.0594 11.254 55.9984 11.3066 55.9152 11.326Z" fill="white"/>
<path d="M55.8762 11.8807C55.5573 11.9611 55.1884 11.6061 54.8556 11.3592C54.9722 10.8489 55.6073 11.387 55.9124 11.3399C55.7348 11.4703 55.5324 11.5451 55.8762 11.8807Z" fill="white"/>
<path d="M49.2829 19.1717C49.3744 19.1828 49.5103 19.0802 49.6739 19.3076L49.2412 19.596C48.9833 19.5877 49.2329 19.277 49.2829 19.1717Z" fill="white"/>
<path d="M46.9337 19.091C46.5648 19.2768 47.1444 19.7678 46.8809 19.7511L46.3735 18.9356L46.9337 19.091Z" fill="white"/>
<path d="M44.438 14.9138L44.5933 14.9305C44.5933 14.9305 44.5074 14.9638 44.4602 14.9832L44.4436 14.9222L44.438 14.9138Z" fill="white"/>
<path d="M45.8048 20.9852L46.6312 21.7203C46.1903 21.6897 45.7188 20.9824 45.8048 20.9852Z" fill="white"/>
<path d="M44.8894 22.4606L45.2721 22.6021L44.4622 22.7573L44.8894 22.4606Z" fill="white"/>
<path d="M43.0145 23.0734L43.0838 23.3036L42.5013 23.3673L43.0145 23.0734Z" fill="white"/>
<path d="M25.2685 33.7718C24.7028 33.0673 25.6042 32.9231 25.6708 32.5903C26.1561 33.6249 24.9109 32.6402 25.2685 33.7718Z" fill="white"/>
<path d="M12.7288 42.1299L13.5026 41.8665C13.1891 42.4961 13.3611 41.9608 12.7288 42.1299Z" fill="white"/>
</g>
<g clip-path="url(#clip1_100_347)">
<path d="M56.8917 72.897C56.8917 72.897 56.9504 72.9611 56.9826 73.0034C56.8898 73.0271 56.8485 73.0143 56.8917 72.897Z" fill="white"/>
<path d="M58.1388 73.4433C57.8097 73.4308 57.2865 73.385 56.9834 72.9935C57.2843 72.9038 58.1146 72.3591 58.1388 73.4433Z" fill="white"/>
<path d="M56.9551 71.1472L57.3454 71.4946C57.0811 71.7673 57.1648 71.2618 56.9551 71.1472Z" fill="white"/>
<path d="M57.0399 72.1654L56.9854 72.5526L56.7947 72.1587L57.0399 72.1654Z" fill="white"/>
<path d="M35.7632 74.58C35.7935 74.7524 35.8085 74.9439 35.7712 75.1819L35.7632 74.58Z" fill="white"/>
<path d="M34.9359 72.7192C34.8561 72.6536 34.7953 72.6194 34.7477 72.5961C34.8057 72.57 34.8519 72.6132 34.9359 72.7192Z" fill="white"/>
<path d="M36.6404 74.4796L36.4693 74.518C36.5293 74.4619 36.5865 74.4458 36.6404 74.4796Z" fill="white"/>
<path d="M47.304 73.725C47.4379 74.0249 47.5738 74.2948 47.6733 74.482C47.3455 74.7603 47.3619 74.1099 47.304 73.725Z" fill="white"/>
<path d="M30.964 66.6542L30.9002 66.9706C30.8678 66.8281 30.8564 66.6869 30.964 66.6542Z" fill="white"/>
<path d="M35.0808 67.4167C35.0686 67.5963 35.059 67.736 35.0312 67.8343C35.0193 67.8034 34.9997 67.782 34.9878 67.7511L35.0808 67.4167Z" fill="white"/>
<path d="M37.3553 73.8769L37.4911 74.0465C37.4102 74.1012 37.3724 74.0384 37.3553 73.8769Z" fill="white"/>
<path d="M29.6603 66.114C29.6167 65.9306 29.5688 65.7068 29.5404 65.4042C29.6559 65.5624 29.6983 65.866 29.6603 66.114Z" fill="white"/>
<path d="M36.4262 67.8595C36.3597 67.8049 36.2926 67.7602 36.2205 67.6851C36.3161 67.6215 36.3868 67.7165 36.4262 67.8595Z" fill="white"/>
<path d="M47.304 73.725C47.2675 73.6423 47.2241 73.5592 47.1876 73.4765C47.2505 73.4808 47.2856 73.5834 47.304 73.725Z" fill="white"/>
<path d="M55.7395 73.5298C55.6067 73.5208 55.5938 73.2994 55.5815 73.068C55.6439 73.1825 55.7042 73.327 55.7395 73.5298Z" fill="white"/>
<path d="M7.60753 71.4625L7.55164 71.4587C7.55164 71.4587 7.59492 71.4416 7.60753 71.4625Z" fill="white"/>
<path d="M12.6346 72.6682C12.6508 72.7394 12.6733 72.8211 12.6875 72.9223C12.6401 72.9993 12.6217 72.8577 12.6346 72.6682Z" fill="white"/>
<path d="M17.8598 65.3274C17.4931 65.7634 17.2156 64.7922 16.9319 64.7327L17.0031 65.1285L16.7322 64.7792L16.694 65.3379C16.2304 65.0356 15.5964 65.5836 15.4831 64.6738L15.4776 65.5755L15.0168 64.8223L15.2686 65.451C14.6828 65.6014 13.858 64.8333 13.7315 64.8347L13.7573 65.1773C13.6548 65.3406 13.593 65.1159 13.5027 64.9995L13.5455 65.5036C12.6888 65.3047 12.3735 66.4258 11.4463 65.8211C11.1726 65.9227 11.5821 65.9908 11.5623 66.2801C11.3883 66.6692 11.0789 66.2671 11.0247 66.0329C11.0477 66.8263 11.4692 66.6146 11.1189 67.2221C10.9289 66.8182 11.2158 67.9604 10.8425 67.7745L10.7647 66.7568C10.5365 66.9116 10.6689 67.5421 10.3334 67.419C9.97918 66.9537 10.8862 66.3141 10.2747 66.1219C9.95553 66.1703 9.45143 68.4111 8.88117 67.8209C8.68711 66.9478 9.41257 68.0398 8.70377 67.7307L9.11983 68.4207C8.98129 68.7019 9.01705 69.2055 8.72399 68.975C8.65279 68.5792 8.49128 68.067 8.32772 67.9957C8.95283 68.8102 7.6485 69.102 8.2167 70.1331L7.98191 70.077C7.98191 70.077 8.00729 70.219 7.98854 70.2879L7.66941 70.3363C7.85001 70.5691 8.29727 70.6999 8.03722 71.4239L7.57087 71.5724C7.65144 72.1392 7.46809 72.3572 7.46534 72.8081L8.72531 73.9868C8.69959 73.6442 8.51899 73.4114 8.61204 73.0769C8.98809 72.812 8.85686 73.7051 9.22355 73.2691L9.10754 72.8101C9.12389 72.9816 9.16239 73.0344 9.08844 73.0895C8.9499 73.3707 8.92419 73.0281 8.94329 72.7488C9.10092 72.1882 9.40964 72.6002 9.48085 72.996C9.91874 72.9558 9.64123 71.9846 9.75062 71.8217C9.90938 72.7847 10.4785 71.8514 10.714 72.3085L10.5816 71.678C10.9604 70.9622 11.2122 71.5908 11.3928 71.8237L11.3508 71.3096C11.805 71.4409 11.7854 71.1266 12.0057 72.9359L11.98 72.5933C12.1795 72.4466 12.4911 72.097 12.6366 72.6382C12.651 72.4287 12.7036 72.1717 12.7852 72.1071C12.836 72.8022 13.074 72.2972 13.3547 72.1961C13.1853 72.0041 13.3026 71.1101 13.1283 70.8877C13.6241 69.9994 13.4513 71.9121 13.8082 71.9264C14.0562 71.4823 13.6467 71.4142 13.621 71.0717C14.1395 71.5983 14.9079 69.0848 15.1344 70.9045L14.858 71.4569C15.055 71.8613 15.1737 71.8694 15.1574 71.6979C15.0834 71.753 15.0671 71.5815 15.0577 71.4105C15.7911 70.5384 16.0086 72.7985 16.7108 72.4857C16.6851 72.1431 16.5948 72.0267 16.6139 71.7474C16.9451 71.4192 16.7956 73.5038 17.3456 72.8498L17.2744 72.4541C17.4578 72.2361 17.5383 72.8029 17.5099 72.9112C17.6275 71.3957 18.5663 73.0636 19.0513 71.1021C19.2385 71.9569 19.8927 72.6531 20.1407 72.209C20.5101 71.3221 19.9371 71.1827 20.1138 70.3428C20.3583 70.3595 20.4205 71.1957 20.8035 70.9312C20.7456 71.7792 19.9737 72.5985 20.6186 73.1237L20.7477 72.6714C20.6738 72.7265 20.5644 72.8894 20.4741 72.773C20.3126 72.2608 20.6317 72.2125 20.6893 71.9859L21.3981 72.2949C21.3857 73.1962 20.9669 72.9571 20.9093 73.1837C21.495 73.0333 22.2837 71.7641 22.773 72.409L22.7473 72.0664C23.3724 72.8809 23.258 70.4475 23.697 71.9309C23.9991 71.721 23.6577 70.9659 24.0956 70.9257C24.2144 70.9338 24.1213 71.2682 24.0928 71.3766C24.6019 71.7321 24.389 70.5348 24.8207 71.4063L24.7807 70.4513C25.3156 71.1494 25.8164 72.8576 26.3474 72.4829C26.3699 71.7427 26.0507 71.7911 25.9702 71.2242C26.5641 72.5979 27.6003 71.5061 28.1799 72.2674C27.9483 72.883 28.3737 73.744 27.9331 74.2351C27.8931 73.2802 27.6622 73.8858 27.4524 73.7713C27.6599 75.8703 28.9883 72.8639 28.9697 74.6768L29.111 73.9448C29.2013 74.0612 29.4076 74.6366 29.2242 74.8546L29.9549 74.4335C29.7486 73.8581 29.3259 72.5462 29.1037 73.3328C28.9613 72.5413 29.4256 72.8336 29.3123 71.9238C29.6895 73.1824 29.6342 71.4246 30.0978 71.7269C29.8013 72.7791 30.4739 73.206 30.4182 73.7134C30.5925 73.5248 30.9077 74.0475 31.0159 74.4158C31.2885 74.5346 31.9899 73.7206 32.4117 74.1203C32.2666 73.7796 32.0318 73.3125 32.0915 72.645C32.2814 73.0489 32.5266 73.0556 32.6224 72.2703C31.9452 70.7807 32.2475 74.0589 31.6053 73.0829C31.492 72.173 31.3184 71.9407 30.9736 71.6464C31.176 71.1491 31.1149 70.9144 31.227 70.3006C31.5375 72.2263 32.3737 70.5694 32.8894 71.5469C33.0957 72.1223 32.826 73.2966 33.3705 73.5443L32.8489 74.09C33.4083 73.6071 32.9295 74.6568 33.3553 74.8964L33.2229 74.2659C33.4966 74.1644 33.5869 74.2808 33.7029 74.7398L33.5441 73.7767C33.692 73.6665 33.9657 73.565 33.9345 74.1241C33.9851 73.8971 34.012 73.7085 34.0229 73.5488C34.04 73.7104 34.103 73.8149 34.2727 73.7964C34.1824 73.68 34.1084 73.7351 34.1275 73.4558C34.7476 73.7287 34.3515 72.4387 34.7365 72.5552C34.6887 72.3314 34.8189 72.0697 34.9738 71.96C34.8575 73.4555 35.6263 73.7086 35.7792 74.5509C35.7806 74.531 36.2706 75.1659 36.2706 75.1659C36.174 75.039 36.3137 74.6376 36.4853 74.489C36.6477 74.2695 36.3723 72.8575 36.8529 73.3213L37.0883 73.7784C37.0429 73.7252 37.1074 73.4991 37.1366 73.3808L37.3811 73.8085C37.9027 72.4409 38.1236 74.6511 38.666 74.0066C38.5181 74.1167 38.302 73.9917 38.4305 73.5494C38.5399 73.3865 38.675 73.5661 38.7299 73.7904L38.7135 73.6189L39.5932 74.6112C39.5511 74.0971 39.0222 74.0309 39.2993 73.4685C39.4854 72.7996 39.7087 73.5366 39.873 73.5979C39.8248 73.9956 39.4872 74.3133 39.7866 74.5543C39.8414 74.3676 40.1698 73.979 40.0429 73.6797C40.3363 74.1107 40.7879 74.3821 41.0336 75.1006C41.136 74.9372 41.0079 74.758 40.9624 74.7048L40.9339 74.8131C40.7533 74.5802 40.9756 73.7936 40.5634 74.1764C40.6241 72.8775 41.1398 73.8549 41.4874 73.6983L41.0172 72.774C42.0467 71.0603 43.123 73.0784 44.0158 73.1594C43.7231 73.5404 43.5324 73.1464 43.4915 74.156C44.0099 74.6826 43.9551 74.4583 44.4933 74.6956L44.4478 74.6424C44.7697 74.1431 45.0927 75.1676 45.3427 74.2825C45.2552 73.7153 44.9021 74.7736 44.9722 73.6458L45.6646 73.7833C45.4938 73.1001 44.9722 73.6458 44.7176 73.468C44.5179 73.5145 45.0909 73.6539 44.9503 74.376C44.3034 74.2917 44.2065 73.5534 43.9574 72.4739C43.8157 71.6723 44.2984 71.6953 44.4171 71.7034C44.7495 72.8989 45.3198 73.4891 45.9986 73.0043L46.4135 72.1707C46.6817 72.9708 46.4376 74.4877 47.0304 74.3378L46.8981 73.7073C47.0402 73.4764 47.1295 73.4023 47.1923 73.4066C46.9799 72.921 46.7429 72.3836 46.5528 71.8795C46.9704 70.595 47.4515 72.5924 47.9158 72.8848C47.8995 72.7133 47.7352 72.6519 47.7088 72.3193C48.4495 72.0592 49.0976 73.6672 49.6421 73.9149C49.9185 73.3625 49.207 73.5043 49.3767 72.6639C49.6476 73.0132 50.0271 72.2874 50.0501 73.0808C50.0007 71.9548 50.7262 73.0468 50.2389 71.9611C51.3272 71.5443 52.4159 72.6612 53.4411 73.3727C53.4154 73.0302 53.4345 72.7508 53.4991 72.5247C53.1351 72.5099 52.626 72.1543 52.4836 71.3627C52.76 70.8103 52.99 72.1692 53.083 71.8347C52.9834 71.5473 52.7382 71.5405 52.7764 70.9818C53.1267 70.3743 53.2407 71.2742 53.4497 71.3987L53.3112 71.6799C53.9363 72.4945 53.5478 73.6607 54.2878 73.4106C54.5996 72.7503 54.326 72.8519 54.3839 72.0038C54.5291 72.3445 55.1437 71.4644 55.257 72.3742L54.8191 72.4145C55.1101 72.6749 55.3965 72.6945 55.5863 72.9982C55.5776 72.8171 55.5696 72.6262 55.5115 72.552C55.7376 72.8381 56.0491 72.7993 56.1366 73.3665L56.2686 72.4634C56.0946 72.8525 55.6567 72.8927 55.6209 72.3891C55.7167 71.6038 56.1234 72.1227 56.3161 72.0758C55.4879 71.7686 55.5777 70.3514 54.8249 70.8913L54.9246 71.1788C54.4311 71.8266 54.0541 70.6682 53.6609 70.6714C53.7849 70.4995 53.8291 70.1617 53.7904 70.0087C52.8764 70.6479 52.0673 70.0613 51.0536 70.413L50.8209 69.505L50.7536 70.182C50.2511 70.4484 50.7143 69.2171 50.4021 69.2659C50.5209 69.274 50.4924 69.3823 50.5018 69.5534C49.9954 68.747 50.1444 70.1604 49.8521 69.9199C49.949 70.6582 50.4351 70.2204 50.2292 71.1786C49.7229 70.3722 48.828 70.732 48.8623 69.1005C47.7841 69.6783 46.5752 68.5733 45.7122 68.364C45.5737 68.6452 45.7734 68.5987 45.7095 68.8148C45.432 67.8436 44.5118 69.3945 44.5628 68.546C44.3794 68.764 44.2673 69.3778 44.2097 69.6044C44.0211 69.1805 43.7693 68.9629 43.4973 68.834L43.6842 69.0773L43.6558 69.1856L43.3849 68.8363C42.7207 68.4902 41.8961 68.6444 41.3294 67.6935C41.6551 68.267 41.169 68.7049 41.3142 69.0456C41.0842 67.6868 40.3185 67.5943 39.6802 67.691C39.6611 67.9704 39.5965 68.1965 39.6584 68.4212L39.3326 67.8477L39.3583 68.1902C38.6916 68.3952 38.0883 66.8505 37.6192 67.4499C37.8738 67.6277 37.8547 67.907 37.8519 68.3579C37.3859 68.296 36.9542 68.2464 36.4372 67.8001C36.4597 67.8818 36.4738 67.983 36.467 68.0828C36.3191 68.193 36.1677 67.8418 36.0319 67.6722L35.9645 68.3491C35.7062 68.0208 35.3268 68.3356 35.0353 67.7744C34.8521 68.5036 34.2859 67.0316 33.8806 67.3146C33.7455 67.135 34.1417 68.1143 33.7393 68.0467C33.7837 66.5763 33.2111 67.9705 33.2909 66.3923L32.8951 66.9465L32.8721 66.1531C32.4638 67.6087 32.4561 65.4632 31.9706 65.891C31.98 66.0621 32.0248 66.1253 31.9963 66.2336C31.8612 66.054 31.5327 65.9313 31.8185 65.5499C31.574 65.5332 30.7812 65.1181 31.0948 65.9715C31.0976 65.5206 31.407 65.9227 31.5421 66.1023C31.4747 66.7793 31.1299 66.4851 30.9886 67.2172C30.9794 67.1464 30.9457 67.0238 30.9182 66.9116L30.8407 67.3273C30.4378 66.548 29.9399 67.0553 29.6777 66.0651C29.6424 66.2732 29.5547 66.4275 29.4044 66.3671L29.4623 65.5191L28.972 65.5056L29.1116 66.7481C28.5643 66.9512 28.2896 65.5292 27.8708 65.29C27.6628 66.6891 27.0623 64.6935 26.5991 65.9248L26.9085 66.3268C26.1998 66.0178 26.03 66.8582 25.3851 66.3329C25.99 65.9032 25.9779 66.183 26.8946 65.093C26.0161 65.6243 25.5031 64.196 24.6794 64.9516C24.7051 65.2942 24.8864 65.517 24.6739 65.8533C24.577 65.115 23.946 65.8236 24.1228 64.9837C23.8655 65.2568 23.7697 66.0421 23.6148 66.1518L22.89 65.0498L22.8994 65.2208C21.4035 67.0832 20.4542 63.7206 19.0284 64.4551L19.0256 64.9059L18.729 64.2141C18.9645 64.6712 18.5714 64.7746 18.5238 65.1623L17.7181 64.1149C17.6699 64.5125 17.6574 65.4138 17.8862 65.249L17.8598 65.3274ZM29.3509 66.5339L29.5564 66.6081C29.601 66.571 29.6436 66.5639 29.6864 66.657L29.5564 66.6081C29.4441 66.7106 29.3357 67.0641 29.3509 66.5339ZM48.3203 69.5346C48.3915 69.9303 48.1654 69.6442 48.0915 69.6993L48.42 69.822C48.4845 69.5959 48.3581 69.5973 48.3133 69.5341L48.3203 69.5346ZM28.9771 72.0011L28.8195 72.5617L28.7035 72.1027L28.9771 72.0011ZM26.0334 71.84L26.3043 72.1893L26.2688 72.2971L26.0049 71.9483L26.0334 71.84ZM23.0903 67.0481C23.0903 67.0481 23.1211 67.1104 23.1387 67.1617C23.1191 67.1403 23.1079 67.0994 23.0903 67.0481C22.8947 66.6238 22.7343 67.6352 22.6132 66.6346C22.9011 65.8123 22.9814 66.6899 23.0903 67.0481ZM28.2529 67.401C28.3432 67.5174 28.3886 67.5707 28.4619 67.5256C28.4362 67.183 28.2747 66.6708 28.4226 66.5606C28.4938 66.9564 28.8223 67.0791 28.7904 67.6482C28.5386 67.0196 28.2206 68.5916 28.2529 67.401ZM35.1416 68.2728L35.0606 68.3275L35.2961 68.7846L35.1346 68.2724L35.1416 68.2728ZM36.3595 68.9375C36.4564 69.6758 36.8495 69.5723 37.104 69.7501C37.2162 69.1363 37.0005 68.3899 36.6814 68.4382C36.3556 67.8647 36.4762 69.3865 36.3595 68.9375ZM25.9221 68.3342L25.9648 68.8383L25.8909 68.8934L26.1618 69.2427C25.7305 69.9048 25.553 68.5997 25.3724 68.3668C25.5367 68.4282 25.9208 69.6873 25.9291 68.3347L25.9221 68.3342ZM39.0105 69.4795C39.246 69.9366 39.6905 70.5183 39.6138 71.0243C39.7002 70.0679 39.339 69.6022 39.2202 69.5941C39.1463 69.6492 39.1015 69.586 39.0112 69.4695L39.0105 69.4795ZM38.8731 71.2843C38.5189 70.8191 38.5216 70.3682 38.2889 69.4603C38.7011 69.0775 38.7213 70.3218 38.6376 70.8272C38.8731 71.2843 38.8665 70.6624 39.0137 70.5622L38.8724 71.2943L38.8731 71.2843ZM38.659 68.5634L38.4895 68.6821C38.2736 69.0683 38.1573 70.1529 37.9732 69.0478L38.4895 68.6821C38.5375 68.5952 38.5905 68.5387 38.659 68.5634ZM41.9173 68.8463L41.7792 68.5061C41.9308 68.5465 41.9415 68.6976 41.9173 68.8463L42.031 69.1347C41.6578 69.46 41.8626 69.1332 41.9173 68.8463ZM39.4063 68.9252L38.9521 68.7939C38.9493 69.2448 39.2515 69.0349 39.4063 68.9252ZM41.7546 69.6871C41.5549 69.7336 41.043 69.8289 41.117 69.7739C41.2007 69.2684 41.6479 69.3992 41.7546 69.6871ZM51.7837 71.7459L51.5007 71.6764L51.6867 71.0076L51.7837 71.7459ZM48.3544 72.0127L48.4475 71.6782L48.6117 71.7396L48.3544 72.0127ZM45.222 71.8386C45.2462 71.6899 45.2515 71.5099 45.2345 71.3483C45.1897 71.2851 45.1539 71.1925 45.1425 71.0514C45.1844 71.0542 45.2182 71.1768 45.2345 71.3483C45.35 71.5066 45.5441 71.4397 45.6422 71.2359C45.6165 70.8933 45.4162 70.9498 45.362 70.7156C45.703 69.937 46.1813 72.3853 46.1572 70.0683C46.2569 70.3557 46.6274 70.9925 46.4604 71.382C46.141 71.2299 45.5029 71.4268 45.222 71.8386C45.1999 71.9574 45.1651 72.0552 45.1079 72.0714C45.1273 71.9925 45.1747 71.9156 45.222 71.8386ZM40.9698 72.0291C40.8552 71.9611 40.8111 71.8879 40.7879 71.8162C40.6947 71.6394 40.6356 71.3748 40.6923 71.0579C40.9177 71.3539 40.7463 71.6028 40.7879 71.8162C40.8439 71.9202 40.9014 72.0043 40.9698 72.0291ZM40.2128 72.1176L40.567 72.5829L40.4055 72.0707L40.9212 73.0481C40.5545 73.4841 40.2124 72.7391 40.2058 72.1172L40.2128 72.1176ZM40.0431 72.5471L40.0038 71.9931L40.0843 72.5599C40.0431 72.5471 40.0559 72.6682 40.0559 72.6682L39.428 72.3046L40.0508 72.5376L40.0431 72.5471ZM33.4626 70.9646C33.0885 72.8435 33.9434 72.3506 34.0064 73.2771C34.078 72.6405 34.397 71.67 33.7599 71.6465C34.3555 71.0457 34.0183 72.897 34.4551 71.3332C34.1815 71.4347 33.9012 70.9144 33.8557 70.8612L34.1679 70.8124C34.0737 69.6232 33.6463 71.3581 33.4563 70.9542L33.4626 70.9646ZM30.0973 71.0152L29.6886 70.9372L30.0619 71.1231L30.0903 71.0147L30.0973 71.0152ZM19.9693 70.814C19.9666 71.2649 19.3804 72.0367 19.3196 71.1806C19.5933 71.079 19.877 71.1385 19.9693 70.814ZM15.6407 70.3778L16.0758 70.7884C15.9154 71.7999 15.6664 70.7204 15.4382 70.8752C15.3962 70.3611 15.5476 70.7122 15.6407 70.3778ZM12.6521 70.1535L12.517 69.9738L12.6018 70.992L12.6597 70.144L12.6521 70.1535ZM12.7556 71.5137C12.6341 71.9564 12.9335 72.1974 13.0074 72.1423L12.7556 71.5137ZM10.3651 70.8413L10.5578 70.7943L10.4445 69.8845L10.3581 70.8408L10.3651 70.8413ZM10.378 71.1808C10.3763 71.8221 10.662 71.3227 11.1385 70.9242C11.2058 70.2472 10.7203 71.6151 10.9356 70.828C10.7998 70.6583 10.6619 70.9295 10.588 70.9846C10.6783 71.1011 10.8168 70.8199 10.8141 71.2707C10.6287 71.5187 10.4671 71.4174 10.3857 71.1713C10.3874 70.9409 10.3731 70.7394 10.3247 70.6258C10.3104 70.8354 10.3324 71.0273 10.3857 71.1713L10.378 71.1808ZM12.0262 70.5818C12.0876 70.5058 12.1496 70.4198 12.1781 70.3115L12.1944 70.483C12.1118 70.768 12.0676 70.6949 12.0262 70.5818C11.9572 70.6673 11.8749 70.7418 11.7933 70.8064C11.7055 71.3717 11.9793 71.7814 12.0343 72.1059C11.8985 71.9362 11.818 71.3694 11.5992 71.6952C11.6155 71.8668 11.5801 71.9746 11.6988 71.9827L11.4252 72.0843C11.1794 71.2656 11.4822 71.0458 11.7863 70.8059C11.8022 70.6767 11.832 70.5485 11.8974 70.4126C11.9448 70.3357 11.9772 70.4782 12.0192 70.5813L12.0262 70.5818ZM10.0038 69.1605L10.1396 69.3302C10.2014 69.5549 10.1368 69.7811 10.1462 69.9521C9.98195 69.8908 9.785 69.4864 10.0038 69.1605ZM18.6639 69.5821C18.5545 69.7451 18.7323 70.4288 18.9605 70.274L18.7838 71.1139C18.822 70.5552 18.3841 70.5954 18.3392 70.5322C18.3163 69.7388 18.4608 70.0895 18.6639 69.5821ZM28.7082 70.2888C28.712 71.3615 29.3076 70.7608 29.4072 71.0482C29.1051 71.2581 28.4384 71.4631 28.7082 70.2888ZM29.6946 69.9252C29.8476 69.9457 29.8963 69.8488 29.8385 70.3861C29.8934 70.6104 30.0382 70.3396 30.0931 70.5639C29.7676 71.0127 29.8465 70.1661 29.6946 69.9252C29.6526 69.9223 29.6114 69.9095 29.5583 69.8658C29.6232 69.8401 29.663 69.8729 29.6946 69.9252ZM23.8256 69.4338L23.6832 68.6423L23.364 68.6906L23.8249 69.4438L23.8256 69.4338ZM20.5692 67.7879C20.5665 68.2388 20.2025 68.2239 20.1477 67.9996C20.1284 68.5897 20.3777 68.5366 20.5622 68.6093C20.5867 68.6611 20.6196 68.6934 20.6825 68.6977C20.6503 68.6554 20.6097 68.6326 20.5622 68.6093C20.5019 68.4649 20.5713 68.1689 20.5856 67.9594L20.695 67.7965L20.4404 67.6187L20.5755 67.7984L20.5692 67.7879ZM14.7112 66.7259C14.4633 67.17 14.4539 66.999 14.3181 66.8293C14.3827 66.6032 14.5754 66.5563 14.7112 66.7259ZM22.3854 67.4009C22.0024 67.6654 22.4987 68.3107 22.2414 68.5838L22.4341 68.5368C22.0837 69.1443 22.2632 67.8536 22.0344 68.0184L22.1893 67.9087C22.3399 67.3476 21.9923 67.5043 22.002 67.0539C22.1854 66.8359 22.5466 67.3016 22.3917 67.4113L22.3854 67.4009ZM14.3948 66.3234C13.999 66.8777 14.143 65.6948 13.9339 65.5702C14.2558 65.071 14.1402 66.1456 14.3948 66.3234ZM20.226 65.5192L20.2545 65.4109L19.9905 65.0621L19.9621 65.1704L20.233 65.5197L20.226 65.5192Z" fill="white"/>
<path d="M13.5489 72.2295C13.4533 72.2931 13.3981 72.2793 13.3526 72.2261C13.4175 72.2005 13.481 72.1948 13.5489 72.2295Z" fill="white"/>
<path d="M30.3062 74.0165C30.3234 73.8673 30.3638 73.7899 30.4091 73.7429C30.403 73.8326 30.3689 73.9205 30.3062 74.0165Z" fill="white"/>
<path d="M55.4794 74.2538C55.5764 74.9921 55.3246 74.3635 55.2058 74.3554C55.3246 74.3635 55.4082 73.858 55.4794 74.2538Z" fill="white"/>
<path d="M54.6118 72.9817C54.6667 73.206 54.7619 73.3528 54.8766 73.4208C54.7984 73.4355 54.7193 73.3599 54.6118 72.9817Z" fill="white"/>
<path d="M55.3662 73.344C55.1743 73.4812 55.0116 73.5001 54.8836 73.4212C55.0044 73.3994 55.1283 73.1272 55.3662 73.344Z" fill="white"/>
<path d="M52.0491 72.9969C52.1651 73.4559 52.4679 73.2361 52.4679 73.2361C51.8175 73.6126 52.5363 74.0827 52.562 74.4253C52.1817 74.2389 52.2199 73.6802 52.0491 72.9969Z" fill="white"/>
<path d="M51.2404 72.7111C51.3033 72.7154 51.3676 72.6998 51.4212 72.6333C51.3509 72.7387 51.2943 72.7449 51.2404 72.7111Z" fill="white"/>
<path d="M50.973 73.1339C50.7639 73.0093 50.7212 72.5052 50.65 72.1094C50.94 71.7684 51.0461 72.5775 51.2328 72.7206C51.0785 72.7201 50.9352 72.6602 50.973 73.1339Z" fill="white"/>
<path d="M44.151 75.0831C44.1958 75.1463 44.3152 75.1445 44.3031 75.4243L43.9398 75.3995C43.8034 75.2398 44.077 75.1382 44.151 75.0831Z" fill="white"/>
<path d="M42.9101 73.6251C42.6271 73.5557 42.724 74.294 42.5882 74.1243L42.6746 73.168L42.9101 73.6251Z" fill="white"/>
<path d="M43.4092 68.7879L43.4862 68.8934C43.4862 68.8934 43.4247 68.8691 43.3905 68.8568L43.4086 68.7979L43.4092 68.7879Z" fill="white"/>
<path d="M41.4552 74.4779L41.5778 75.5588C41.3518 75.2727 41.4097 74.4247 41.4552 74.4779Z" fill="white"/>
<path d="M40.3023 75.1208L40.4475 75.4615L39.9384 75.1059L40.3023 75.1208Z" fill="white"/>
<path d="M39.0111 74.5012L38.9465 74.7274L38.6017 74.4332L39.0111 74.5012Z" fill="white"/>
<path d="M24.6145 72.575C24.62 71.6732 25.1739 72.092 25.358 71.864C25.1622 72.9833 24.9228 71.4534 24.6145 72.575Z" fill="white"/>
<path d="M14.0868 71.8553L14.6244 72.1025C14.1743 72.4226 14.5056 72.0944 14.0868 71.8553Z" fill="white"/>
</g>
<defs>
<clipPath id="clip0_100_347">
<rect width="72.67" height="11.79" fill="white" transform="translate(0.239746 40.9722) rotate(-33.6845)"/>
</clipPath>
<clipPath id="clip1_100_347">
<rect width="50.8847" height="11.79" fill="white" transform="translate(7.81372 63.5181) rotate(3.91054)"/>
</clipPath>
</defs>
</svg>
