<svg width="36" height="43" viewBox="0 0 36 43" fill="none" xmlns="http://www.w3.org/2000/svg">
<g clip-path="url(#clip0_100_390)">
<path d="M33.4596 3.36489C33.4596 3.36489 33.5177 3.36489 33.552 3.36788C33.5028 3.42002 33.473 3.43343 33.4596 3.36489Z" fill="white"/>
<path d="M34.4147 3.02552C34.2076 3.17003 33.8694 3.38904 33.549 3.36367C33.704 3.18935 34.0304 2.58442 34.4147 3.02552Z" fill="white"/>
<path d="M32.9025 2.60645L33.2616 2.5737C33.1915 2.80763 33.0708 2.55878 32.9025 2.60645Z" fill="white"/>
<path d="M33.3017 2.99239L33.4001 3.17866L33.1482 3.10115L33.3017 2.99239Z" fill="white"/>
<path d="M21.0048 13.6807C21.0822 13.7388 21.1567 13.8118 21.2148 13.928L21.0048 13.6807Z" fill="white"/>
<path d="M19.8603 13.2816C19.7888 13.2906 19.7396 13.304 19.7024 13.3159C19.7292 13.2786 19.7724 13.2757 19.8603 13.2816Z" fill="white"/>
<path d="M21.5114 13.2393L21.419 13.3332C21.4369 13.2825 21.4667 13.2498 21.5114 13.2393Z" fill="white"/>
<path d="M27.8297 8.07324C28.0145 8.13733 28.1903 8.18801 28.3155 8.2208C28.2081 8.48603 27.9966 8.20736 27.8297 8.07324Z" fill="white"/>
<path d="M15.3441 12.5593L15.4126 12.7202C15.3441 12.6755 15.2889 12.6218 15.3441 12.5593Z" fill="white"/>
<path d="M18.1426 11.0044C18.1962 11.0849 18.238 11.1474 18.2543 11.2011C18.2365 11.1936 18.2171 11.1936 18.1992 11.1862L18.1426 11.0044Z" fill="white"/>
<path d="M21.7468 12.6631L21.8884 12.672C21.8571 12.7316 21.8124 12.7227 21.7468 12.6631Z" fill="white"/>
<path d="M14.3562 12.9279C14.2668 12.8713 14.161 12.7998 14.0403 12.6865C14.1654 12.6999 14.2951 12.8072 14.3562 12.9279Z" fill="white"/>
<path d="M19.1231 10.5769C19.0635 10.5844 19.0068 10.5963 18.9368 10.5978C18.9741 10.5277 19.05 10.5352 19.1231 10.5769Z" fill="white"/>
<path d="M27.8298 8.07314C27.7791 8.05525 27.724 8.04035 27.6733 8.02246C27.7136 7.99564 27.7702 8.02247 27.8298 8.07314Z" fill="white"/>
<path d="M32.9649 4.15294C32.8799 4.20956 32.7965 4.12313 32.7101 4.03223C32.7876 4.0516 32.874 4.08439 32.9649 4.15294Z" fill="white"/>
<path d="M2.5804 25.193L2.54464 25.2169C2.54464 25.2169 2.5655 25.19 2.5804 25.193Z" fill="white"/>
<path d="M6.09119 23.4082C6.12546 23.4306 6.16718 23.4544 6.21038 23.4902C6.2074 23.5438 6.1478 23.4931 6.09119 23.4082Z" fill="white"/>
<path d="M6.8115 17.9692C6.73398 18.3179 6.23186 18.0392 6.03665 18.1435L6.21544 18.2761L5.92935 18.2537L6.09622 18.5041C5.7073 18.5889 5.50311 19.106 5.12318 18.7781L5.42712 19.1566L4.88623 19.0523L5.25576 19.1998C4.94579 19.5291 4.17542 19.5842 4.09793 19.6423L4.23054 19.7734C4.22308 19.8881 4.10835 19.8226 4.01298 19.8151L4.21114 20.0059C3.61509 20.3127 3.80278 20.9237 3.02495 21.0935C2.89083 21.2604 3.1665 21.1024 3.25291 21.2321C3.27822 21.4735 2.95041 21.4466 2.83717 21.3736C3.12174 21.694 3.30952 21.4139 3.30054 21.8266C3.04575 21.7446 3.61194 22.0904 3.31839 22.1827L2.92356 21.7938C2.83563 21.9622 3.13213 22.1648 2.88328 22.2661C2.23767 21.7681 2.57896 21.0886 2.13639 21.2868C1.95608 21.4521 2.40895 22.6159 1.85613 22.6293C1.67877 23.0897 2.49829 23.2149 1.95589 23.4086L2.4476 23.507C2.45802 23.6873 2.65171 23.881 2.39243 23.9182C2.21364 23.7856 1.93948 23.6455 1.81431 23.6902C2.47738 23.7454 1.77251 24.4606 2.47431 24.632L2.3104 24.7154C2.3104 24.7154 2.37447 24.7631 2.38639 24.8004L2.20607 24.9657C2.3968 24.9806 2.71718 24.8317 2.80356 25.2519L2.56661 25.526C2.80947 25.7257 2.77071 25.9001 2.92268 26.0893L4.10133 26.0075C3.96873 25.8763 3.778 25.8614 3.7214 25.6796C3.86298 25.398 4.08645 25.8301 4.16396 25.4815L3.936 25.3429C4.00453 25.407 4.04626 25.4114 4.01943 25.4681C4.02984 25.6484 3.89724 25.5172 3.81381 25.392C3.71996 25.0866 4.05075 25.1179 4.22955 25.2505C4.48586 25.0345 3.98374 24.7558 3.99567 24.6381C4.42179 24.9674 4.72326 24.7845 5.02425 24.868L4.72774 24.6653C4.71736 24.1945 5.08688 24.342 5.27761 24.3569L5.07647 24.1617C5.40132 24.0098 5.04229 23.1515 5.79471 23.8057L5.66211 23.6745C5.73514 23.5225 5.80818 23.235 6.08233 23.3944C6.01976 23.3006 5.96464 23.1694 5.99296 23.1054C6.26114 23.3721 6.23584 23.0532 6.37444 22.8834C6.20457 22.8804 5.97216 22.4542 5.78888 22.4408C5.79192 21.8447 6.3372 22.721 6.56221 22.5645C6.56373 22.2665 6.28806 22.4244 6.15545 22.2933C6.65463 22.2769 6.27182 20.8792 7.03168 21.5349L7.04953 21.8911C7.30879 21.9701 7.38479 21.9194 7.31625 21.8553C7.28943 21.9119 7.22089 21.8479 7.15683 21.7808C7.31186 21.0835 8.21625 21.9269 8.54261 21.477C8.41001 21.3458 8.31465 21.3384 8.23121 21.2132C8.32363 20.9256 8.94191 21.8629 9.05819 21.3399L8.87939 21.2073C8.91815 21.033 9.16101 21.2327 9.18038 21.2908C8.7364 20.6053 9.88373 20.8736 9.51429 19.835C9.92105 20.1062 10.5618 20.0989 10.5633 19.8008C10.4888 19.2629 10.088 19.4655 9.91073 19.0349C10.0672 18.9306 10.3905 19.251 10.5366 18.9664C10.7898 19.3464 10.5931 20.0393 11.1697 19.9648L11.0953 19.7174C11.0684 19.7741 11.0565 19.8918 10.9611 19.8843C10.687 19.7442 10.8673 19.5788 10.8256 19.4581L11.368 19.2645C11.6674 19.646 11.3277 19.7368 11.3694 19.8575C11.6794 19.5283 11.7331 18.6402 12.2546 18.6864L12.122 18.5553C12.7851 18.6105 11.8852 17.6478 12.6615 18.0666C12.7762 17.8416 12.3084 17.6821 12.5647 17.4661C12.6407 17.4155 12.6973 17.5972 12.7166 17.6554C13.1518 17.572 12.6124 17.1696 13.1756 17.3365L12.8255 16.9565C13.3932 17.0043 14.2842 17.4886 14.4839 17.0908C14.2455 16.7719 14.0652 16.9373 13.8224 16.7376C14.6568 17.0401 14.9236 16.1134 15.5405 16.1671C15.6075 16.5292 16.1633 16.6946 16.0589 17.0999C15.7088 16.7199 15.7728 17.0775 15.6044 17.1252C16.4477 17.906 16.2423 16.0479 16.8487 16.8124L16.6863 16.4428C16.7817 16.4503 17.105 16.5963 17.0662 16.7707L17.3732 16.2626C17.0499 16.1165 16.3422 15.7618 16.4732 16.191C16.1156 15.9257 16.5016 15.8364 16.1216 15.5085C16.7832 15.8617 16.15 15.1539 16.5389 15.069C16.7147 15.6427 17.275 15.5146 17.4135 15.7515C17.4567 15.5936 17.8292 15.6681 18.0214 15.7724C18.2301 15.6979 18.3851 15.0394 18.7815 15.0141C18.5758 14.938 18.2719 14.8501 18.0812 14.5446C18.336 14.6266 18.4895 14.5178 18.2809 14.1468C17.3556 13.8338 18.6593 15.0632 17.9306 14.9484C17.5507 14.6206 17.3644 14.6027 17.0515 14.6369C17.0069 14.3374 16.8891 14.2674 16.7491 13.9604C17.5969 14.6221 17.5478 13.5507 18.199 13.7236C18.5223 13.8697 18.7562 14.4821 19.1764 14.3376L19.0407 14.8025C19.2211 14.3466 19.2836 15.0022 19.6278 14.9084L19.3313 14.7057C19.4654 14.5388 19.5608 14.5463 19.7888 14.6849L19.3626 14.3555C19.4163 14.2423 19.5504 14.0754 19.7218 14.3228C19.6756 14.205 19.6279 14.1141 19.5802 14.0426C19.6458 14.1022 19.7203 14.1171 19.8186 14.0322C19.7233 14.0248 19.6964 14.0814 19.613 13.9562C20.0884 13.7879 19.4045 13.4302 19.6816 13.3036C19.5758 13.232 19.5669 13.0636 19.625 12.9474C20.063 13.624 20.6233 13.3796 21.0048 13.6613C20.9988 13.6524 21.5173 13.6941 21.5173 13.6941C21.4145 13.6852 21.3639 13.4542 21.419 13.3142C21.4444 13.1488 20.7933 12.6853 21.2477 12.66L21.5487 12.7435C21.5025 12.742 21.4653 12.6183 21.4429 12.5557L21.7395 12.6228C21.595 11.8152 22.4845 12.6363 22.5993 12.1207C22.5456 12.234 22.3698 12.2801 22.2983 12.0373C22.3102 11.9195 22.4548 11.933 22.565 12.0015L22.4965 11.9374L23.3771 11.9509C23.176 11.7557 22.8273 11.9688 22.8064 11.6082C22.6932 11.2446 23.0821 11.4503 23.2043 11.4011C23.3101 11.5888 23.2102 11.8749 23.4769 11.8392C23.4472 11.7364 23.5172 11.425 23.3369 11.3579C23.6647 11.4041 24.0358 11.3118 24.4321 11.4996C24.4396 11.3848 24.2995 11.3684 24.2533 11.3669L24.2727 11.425C24.082 11.4101 23.9509 10.981 23.8272 11.3281C23.4219 10.7589 24.0731 10.9318 24.234 10.7083L23.6291 10.5369C23.6798 9.35379 25.0313 9.70558 25.6095 9.33312C25.5588 9.62516 25.307 9.54766 25.6258 9.98726C26.125 9.97091 26.0147 9.90236 26.4275 9.75637L26.3813 9.75488C26.4096 9.40025 26.9579 9.68043 26.8105 9.19764C26.5631 9.00093 26.7061 9.60292 26.365 9.10074L26.8388 8.84301C26.5006 8.63585 26.365 9.10074 26.1474 9.14244C26.0401 9.25269 26.441 9.05009 26.6004 9.41517C26.1727 9.67439 25.8613 9.41063 25.3398 9.07382C24.9792 8.80408 25.2847 8.59401 25.3607 8.54336C25.9731 8.8906 26.5259 8.87725 26.7793 8.36618L26.751 7.82975C27.1891 8.04139 27.5555 8.78496 27.87 8.45271L27.5735 8.25003C27.5824 8.08911 27.6122 8.01759 27.6525 7.99077C27.356 7.88494 27.0267 7.76869 26.7376 7.64499C26.5574 6.91931 27.5348 7.53331 27.9207 7.44394C27.8522 7.37986 27.73 7.42902 27.6004 7.30235C27.9685 6.85686 28.9161 7.23245 29.3363 7.08795C29.3185 6.73183 28.9281 7.11473 28.7463 6.68707C29.0324 6.70945 29.019 6.23412 29.3036 6.55451C28.8894 6.10745 29.7089 6.23269 29.0384 6.00167C29.5675 5.33268 30.6194 5.30298 31.4941 5.1332C31.3615 5.00206 31.2781 4.87689 31.2409 4.75321C31.0114 4.91262 30.5763 4.99602 30.2187 4.73076C30.2008 4.37463 30.8058 4.83661 30.7491 4.65482C30.5897 4.5803 30.4362 4.68906 30.2694 4.43871C30.2783 4.02597 30.6553 4.34935 30.8267 4.30615L30.8371 4.48645C31.5002 4.54164 31.658 5.20474 32.0291 4.76372C31.9964 4.34649 31.8622 4.51337 31.609 4.13338C31.8146 4.20939 31.8936 3.56271 32.2736 3.89056L32.0172 4.1066C32.2855 4.08278 32.4687 3.96062 32.6893 4.00087C32.6222 3.92934 32.5522 3.85334 32.4911 3.84886C32.728 3.86528 32.9068 3.70735 33.1542 3.90406L32.9277 3.46745C32.953 3.70884 32.6967 3.92487 32.503 3.73115C32.2945 3.3601 32.7221 3.39143 32.8249 3.28416C32.2095 3.53294 31.7819 2.90111 31.5017 3.4688L31.6612 3.54332C31.5777 4.03801 30.9504 3.72653 30.709 3.9068C30.7269 3.77866 30.639 3.61772 30.563 3.57153C30.2172 4.25394 29.5184 4.37755 29.0132 4.98544L28.5602 4.71272L28.7494 5.02565C28.5304 5.36536 28.3963 4.64118 28.2205 4.80358C28.2965 4.75293 28.3159 4.81104 28.3799 4.8781C27.7929 4.77225 28.3665 5.29382 28.1042 5.32658C28.4156 5.59035 28.5662 5.18656 28.7658 5.67979C28.1787 5.57394 27.7495 6.13118 27.2146 5.43527C26.7467 6.16685 25.6247 6.25614 25.0212 6.56154C25.0316 6.74184 25.1389 6.63159 25.1731 6.7508C24.671 6.47211 24.6322 7.5375 24.3744 7.16049C24.3357 7.33482 24.4757 7.64179 24.5174 7.76249C24.2567 7.67157 24.0272 7.69539 23.8156 7.7654L24.0138 7.78181L24.0331 7.83992L23.747 7.81754C23.2195 7.97544 22.7635 8.41496 22.09 8.27632C22.4864 8.36725 22.3359 8.77105 22.5415 8.84706C21.9366 8.38508 21.4329 8.69497 21.0723 9.02572C21.1557 9.1509 21.1929 9.27458 21.3077 9.34015L20.9113 9.24922L21.0439 9.38036C20.7027 9.76923 19.8042 9.39961 19.7192 9.86301C19.9368 9.82131 20.0202 9.94648 20.1722 10.1357C19.8637 10.322 19.5806 10.4978 19.1097 10.5469C19.1514 10.5707 19.1946 10.6065 19.2244 10.6512C19.1708 10.7644 18.9577 10.6869 18.8161 10.678L19.0054 10.9909C18.7342 10.9715 18.6075 11.2755 18.2365 11.1741C18.372 11.5615 17.5212 11.2053 17.3677 11.5078C17.2232 11.4944 17.8013 11.7224 17.5301 11.8774C17.0563 11.244 17.1784 12.0859 16.6898 11.3915L16.6346 11.8028L16.35 11.4824C16.5943 12.2751 15.8583 11.384 15.7048 11.7833C15.7689 11.8504 15.818 11.8563 15.8374 11.9144C15.6929 11.901 15.4485 11.9993 15.4947 11.7103C15.3382 11.8146 14.7079 12.0023 15.1922 12.2154C15.0402 12.0261 15.368 12.053 15.5125 12.0664C15.7018 12.3793 15.3888 12.4136 15.5512 12.7831C15.5214 12.7578 15.4588 12.722 15.4037 12.6877L15.4976 12.8964C14.9835 12.7548 14.8494 13.1928 14.3502 12.8992C14.3994 13.0021 14.3979 13.1064 14.2846 13.1496L14.0314 12.7696L13.7244 12.9871L14.2339 13.4416C13.9657 13.7754 13.3116 13.3074 12.9719 13.3983C13.3205 14.0763 12.27 13.5174 12.4041 14.2416L12.7319 14.2684C12.1895 14.4621 12.3712 14.8898 11.7946 14.9642C12.0211 14.5098 12.109 14.632 12.3028 13.7603C11.9421 14.3816 11.139 14.0195 10.8886 14.7093C11.0212 14.8405 11.209 14.8509 11.1926 15.0878C10.8812 14.8241 10.7336 15.4067 10.5563 14.976C10.4907 15.207 10.6993 15.578 10.6412 15.6942L9.81868 15.5645L9.88274 15.6316C9.59502 17.0888 7.86366 16.1186 7.23476 17.0737L7.38673 17.263L6.96804 17.1094C7.26902 17.1929 7.06188 17.4149 7.16468 17.5982L6.31088 17.5281C6.41666 17.7158 6.71612 18.0973 6.80107 17.9245L6.8115 17.9692ZM14.3085 13.2434L14.4605 13.1809C14.4754 13.1451 14.4992 13.1228 14.5573 13.1421L14.4605 13.1809C14.4262 13.2747 14.4798 13.4714 14.3085 13.2434ZM27.0283 5.8629C27.2071 5.99553 26.9702 5.97912 26.9434 6.03574L27.1878 5.93742C27.1505 5.81374 27.073 5.87184 27.0239 5.86588L27.0283 5.8629ZM15.9413 15.6933L16.0352 15.9987L15.8072 15.8601L15.9413 15.6933ZM14.0712 16.9656L14.3573 16.988L14.3722 17.0491L14.0905 17.0237L14.0712 16.9656ZM10.6232 16.3066C10.6232 16.3066 10.6635 16.3186 10.6918 16.332C10.6724 16.332 10.6515 16.3201 10.6232 16.3066C10.358 16.2187 10.6038 16.7134 10.1881 16.3513C10.0854 15.8775 10.434 16.2068 10.6232 16.3066ZM13.9269 14.1047C14.0223 14.1121 14.0685 14.1136 14.0983 14.0615C13.9657 13.9303 13.6915 13.7902 13.7452 13.677C13.924 13.8096 14.1683 13.7113 14.3427 13.9631C13.9731 13.8156 14.3128 14.6158 13.9269 14.1047ZM18.4719 11.3336L18.4406 11.3932L18.7416 11.4767L18.4674 11.3366L18.4719 11.3336ZM19.4494 11.0565C19.7608 11.3203 19.9679 11.0983 20.1855 11.0566C20.0454 10.7496 19.658 10.5365 19.4777 10.7019C19.0814 10.611 19.6744 11.1906 19.4494 11.0565ZM12.8077 15.5544L13.0059 15.7451L12.9791 15.8017L13.2652 15.8241C13.2249 16.2965 12.6706 15.833 12.4799 15.8181C12.6021 15.7689 13.2681 16.1192 12.8122 15.5514L12.8077 15.5544ZM21.2688 10.0762C21.5698 10.1597 22.0422 10.2 22.1673 10.4459C21.8947 10.0078 21.5132 9.97792 21.4372 10.0286C21.4104 10.0852 21.3612 10.0792 21.2659 10.0718L21.2688 10.0762ZM21.7992 10.8914C21.4222 10.8585 21.2703 10.6693 20.8173 10.3966C20.941 10.0494 21.3776 10.559 21.4982 10.8079C21.7992 10.8914 21.5832 10.635 21.6398 10.5263L21.8022 10.8958L21.7992 10.8914ZM20.7399 9.85417L20.6758 9.98082C20.6743 10.2401 20.9723 10.7452 20.4821 10.3682L20.6758 9.98082C20.6758 9.9227 20.6892 9.87502 20.7399 9.85417ZM22.8455 8.48947L22.6443 8.41048C22.7516 8.35834 22.8097 8.41646 22.8455 8.48947L23.0139 8.55803C22.8946 8.86349 22.9095 8.63402 22.8455 8.48947ZM21.324 9.66499L20.9992 9.81694C21.1511 10.0062 21.2659 9.7812 21.324 9.66499ZM23.0317 8.91416C22.9244 9.02441 22.6413 9.29707 22.6681 9.24045C22.5474 8.9916 22.8678 8.84262 23.0317 8.91416ZM29.9176 5.20904L29.7195 5.30885L29.6062 4.94527L29.9176 5.20904ZM27.894 6.8807L27.8374 6.6989L27.9596 6.64974L27.894 6.8807ZM25.9031 8.23348C25.8674 8.16046 25.8093 8.08297 25.7437 8.02336C25.6945 8.0174 25.6409 7.99504 25.5858 7.9414C25.6126 7.92352 25.6752 7.95929 25.7437 8.02336C25.8689 8.03679 25.9657 7.92057 25.9568 7.79094C25.8242 7.6598 25.7199 7.77452 25.6066 7.7015C25.5516 7.22169 26.681 8.02495 25.8764 7.06974C26.0358 7.14426 26.4814 7.24115 26.5111 7.47957C26.2623 7.5615 25.9359 7.93398 25.9031 8.23348C25.9299 8.29308 25.9418 8.34971 25.912 8.38249C25.8971 8.34076 25.9001 8.28712 25.9031 8.23348ZM23.346 10.2478C23.2521 10.2716 23.2 10.2612 23.1612 10.2418C23.0435 10.2105 22.9169 10.1271 22.8439 9.96911C23.0838 9.98999 23.0629 10.1718 23.1612 10.2418C23.2312 10.2597 23.2953 10.2687 23.346 10.2478ZM22.9094 10.6292L23.2863 10.662L23.0122 10.5219L23.6633 10.6948C23.5858 11.0435 23.1209 10.8885 22.9049 10.6322L22.9094 10.6292ZM22.951 10.8855L22.738 10.6724L22.9809 10.8721C22.951 10.8855 23.0002 10.9302 23.0002 10.9302L22.4891 11.0643L22.9525 10.8781L22.951 10.8855ZM18.354 13.22C18.7637 14.1737 19.1228 13.5792 19.4774 13.9368C19.3046 13.6388 19.1705 13.0889 18.7697 13.369C18.9322 12.8475 19.3553 13.7729 19.0916 12.922C18.9575 13.0889 18.6073 12.9995 18.5611 12.998L18.737 12.8356C18.2736 12.3826 18.6013 13.3005 18.3465 13.2185L18.354 13.22ZM16.2961 14.7724L16.0174 14.9259L16.3109 14.8335L16.2916 14.7754L16.2961 14.7724ZM9.98222 19.2971C10.1342 19.4864 10.0358 20.075 9.70652 19.7456C9.84064 19.5787 10.0358 19.4745 9.98222 19.2971ZM7.16434 21.0849L7.57262 21.0582C7.81843 21.5529 7.29695 21.2161 7.20902 21.3845C7.00788 21.1892 7.22095 21.2667 7.16434 21.0849ZM5.24502 22.3513L5.10048 22.3379L5.49978 22.7239L5.24651 22.3439L5.24502 22.3513ZM5.77245 22.8714C5.84842 23.1113 6.11515 23.0756 6.14197 23.0189L5.77245 22.8714ZM4.30906 24.415L4.41189 24.3077L4.03195 23.9798L4.30459 24.4179L4.30906 24.415ZM4.19289 23.8144C4.41042 24.0827 4.65624 24.4806 4.81422 24.0976C4.62502 23.7847 4.552 23.8398 4.41644 23.4136C4.27489 23.4047 4.28232 23.5805 4.25549 23.6371C4.35086 23.6446 4.34044 23.4643 4.49241 23.6536C4.46259 23.8413 4.32848 23.8726 4.19439 23.807C4.11691 23.7101 4.03944 23.6326 3.97089 23.6073C4.03347 23.7012 4.11243 23.7712 4.19439 23.807L4.19289 23.8144ZM5.00507 22.8147C5.017 22.7551 5.02595 22.691 5.00658 22.6329L5.07512 22.697C5.1213 22.8534 5.06914 22.843 5.00507 22.8147C4.99166 22.8817 4.96632 22.9503 4.938 23.0144C5.07655 23.29 5.38499 23.3363 5.52952 23.4465C5.38796 23.4376 5.1451 23.2379 5.12124 23.4733C5.18977 23.5374 5.20467 23.5985 5.28067 23.5478L5.14654 23.7147C4.71594 23.4852 4.82771 23.2557 4.93353 23.0173C4.89927 22.9562 4.87394 22.8892 4.86799 22.8028C4.87098 22.7491 4.93951 22.7938 5.0006 22.8177L5.00507 22.8147ZM3.00497 22.6771L3.41515 23.1513C3.52987 23.2169 3.56711 23.3405 3.63118 23.4076C3.50899 23.4568 2.9811 22.9125 3.00497 22.6771ZM8.75738 19.3775C8.74545 19.4952 9.08815 19.6994 9.17608 19.531L9.35335 19.9616C9.18649 19.7113 8.93018 19.9273 8.88101 19.9214C8.59644 19.601 8.80504 19.6815 8.75738 19.3775ZM15.1919 15.1016C15.5599 15.5472 15.7224 15.0257 15.8818 15.1002C15.767 15.3252 15.4258 15.7141 15.1919 15.1016ZM15.6762 14.5012C15.7775 14.4401 15.7746 14.3775 15.9221 14.6279C16.0323 14.6964 16.0294 14.5176 16.1396 14.5862C16.0919 14.9214 15.852 14.5325 15.6762 14.5012C15.6494 14.5191 15.6196 14.5325 15.5719 14.5384C15.6032 14.4982 15.639 14.4937 15.6762 14.5012ZM11.8897 16.9669L11.5321 16.7016L11.3518 16.867L11.8927 16.9713L11.8897 16.9669ZM9.32078 17.7623C9.47275 17.9516 9.24327 18.111 9.13301 18.0424C9.32222 18.2972 9.45783 18.1617 9.59641 18.108C9.62919 18.1185 9.66048 18.117 9.70072 18.0902C9.66645 18.0872 9.63366 18.0961 9.59641 18.108C9.50999 18.0752 9.45189 17.9203 9.38932 17.8264L9.40125 17.7087L9.1837 17.7504L9.32823 17.7638L9.32078 17.7623ZM5.34657 19.9851C5.34505 20.2831 5.28099 20.2161 5.13943 20.2071C5.10219 20.0834 5.20502 19.9761 5.34657 19.9851ZM10.3088 16.7745C10.1627 17.0591 10.6887 17.1023 10.6231 17.3333L10.726 17.226C10.717 17.6388 10.3877 17.0189 10.3028 17.1917L10.3609 17.0755C10.2626 16.773 10.1017 16.9965 9.95415 16.8043C9.99291 16.6299 10.3744 16.6598 10.3162 16.776L10.3088 16.7745ZM5.01429 19.9612C4.95912 20.3725 4.64477 19.8137 4.47341 19.8569C4.50175 19.5022 4.79674 20.0029 5.01429 19.9612ZM8.33593 16.9725L8.31656 16.9144L8.03494 16.889L8.05431 16.9471L8.3404 16.9695L8.33593 16.9725Z" fill="white"/>
<path d="M6.50557 22.8094C6.46831 22.8795 6.42957 22.8988 6.38338 22.8973C6.41467 22.8571 6.45193 22.8258 6.50557 22.8094Z" fill="white"/>
<path d="M17.4477 15.9289C17.4075 15.8588 17.406 15.8082 17.4179 15.768C17.4447 15.8082 17.4537 15.8603 17.4477 15.9289Z" fill="white"/>
<path d="M33.0513 4.57353C33.3627 4.8373 32.9932 4.68975 32.9172 4.74041C32.9932 4.68975 32.8725 4.4409 33.0513 4.57353Z" fill="white"/>
<path d="M32.0828 4.4375C32.193 4.50605 32.3018 4.52395 32.3957 4.50011C32.3525 4.54183 32.278 4.54629 32.0828 4.4375Z" fill="white"/>
<path d="M32.6714 4.24535C32.5998 4.38988 32.5059 4.47183 32.4001 4.49715C32.4672 4.43308 32.4508 4.26321 32.6714 4.24535Z" fill="white"/>
<path d="M30.5076 5.61035C30.7355 5.74895 30.8473 5.51949 30.8473 5.51949C30.5746 5.97244 31.1781 5.84138 31.3107 5.97251C31.0127 6.06785 30.8458 5.8175 30.5076 5.61035Z" fill="white"/>
<path d="M29.9116 5.85859C29.9518 5.83178 29.9861 5.79602 29.9965 5.74387C29.9891 5.81986 29.9563 5.84817 29.9116 5.85859Z" fill="white"/>
<path d="M29.8906 6.15642C29.7193 6.19961 29.5211 6.00887 29.3423 5.87623C29.4049 5.60207 29.7461 5.89117 29.91 5.86586C29.8147 5.93588 29.7059 5.9761 29.8906 6.15642Z" fill="white"/>
<path d="M26.3484 10.0738C26.3976 10.0798 26.4706 10.0247 26.5585 10.1469L26.326 10.3018C26.1874 10.2973 26.3216 10.1305 26.3484 10.0738Z" fill="white"/>
<path d="M25.0864 10.0306C24.8882 10.1304 25.1996 10.3942 25.058 10.3852L24.7854 9.94712L25.0864 10.0306Z" fill="white"/>
<path d="M23.7455 7.78603L23.829 7.79498C23.829 7.79498 23.7828 7.81286 23.7574 7.82329L23.7485 7.7905L23.7455 7.78603Z" fill="white"/>
<path d="M24.4798 11.0477L24.9238 11.4426C24.6868 11.4262 24.4336 11.0462 24.4798 11.0477Z" fill="white"/>
<path d="M23.988 11.8412L24.1936 11.9172L23.7585 12.0006L23.988 11.8412Z" fill="white"/>
<path d="M22.9806 12.1702L23.0179 12.2939L22.705 12.3281L22.9806 12.1702Z" fill="white"/>
<path d="M13.4466 17.9182C13.1427 17.5397 13.627 17.4623 13.6628 17.2835C13.9235 17.8393 13.2545 17.3103 13.4466 17.9182Z" fill="white"/>
<path d="M6.70972 22.4082L7.12546 22.2667C6.95705 22.6049 7.04946 22.3173 6.70972 22.4082Z" fill="white"/>
</g>
<g clip-path="url(#clip1_100_390)">
<path d="M30.4354 38.937C30.4354 38.937 30.467 38.9714 30.4843 38.9942C30.4344 39.0069 30.4123 39 30.4354 38.937Z" fill="white"/>
<path d="M31.1054 39.2305C30.9286 39.2238 30.6475 39.1992 30.4847 38.9888C30.6463 38.9406 31.0924 38.648 31.1054 39.2305Z" fill="white"/>
<path d="M30.4696 37.9971L30.6793 38.1837C30.5373 38.3302 30.5823 38.0586 30.4696 37.9971Z" fill="white"/>
<path d="M30.5152 38.5441L30.4858 38.7521L30.3834 38.5405L30.5152 38.5441Z" fill="white"/>
<path d="M19.0842 39.8418C19.1005 39.9345 19.1086 40.0373 19.0885 40.1652L19.0842 39.8418Z" fill="white"/>
<path d="M18.6398 38.8419C18.5969 38.8066 18.5642 38.7882 18.5387 38.7757C18.5698 38.7617 18.5946 38.7849 18.6398 38.8419Z" fill="white"/>
<path d="M19.5555 39.788L19.4636 39.8086C19.4958 39.7785 19.5266 39.7698 19.5555 39.788Z" fill="white"/>
<path d="M25.2844 39.3818C25.3564 39.5429 25.4294 39.6879 25.4829 39.7885C25.3067 39.938 25.3155 39.5886 25.2844 39.3818Z" fill="white"/>
<path d="M16.5058 35.5829L16.4716 35.7529C16.4542 35.6763 16.4481 35.6005 16.5058 35.5829Z" fill="white"/>
<path d="M18.7176 35.9928C18.711 36.0893 18.7059 36.1643 18.6909 36.2171C18.6845 36.2006 18.674 36.1891 18.6676 36.1725L18.7176 35.9928Z" fill="white"/>
<path d="M19.9396 39.4639L20.0125 39.555C19.969 39.5844 19.9487 39.5507 19.9396 39.4639Z" fill="white"/>
<path d="M15.8054 35.2935C15.782 35.1949 15.7562 35.0747 15.741 34.9121C15.803 34.9971 15.8258 35.1602 15.8054 35.2935Z" fill="white"/>
<path d="M19.4404 36.2307C19.4047 36.2014 19.3686 36.1774 19.3299 36.137C19.3813 36.1028 19.4193 36.1539 19.4404 36.2307Z" fill="white"/>
<path d="M25.2844 39.3825C25.2649 39.3381 25.2415 39.2934 25.2219 39.249C25.2557 39.2513 25.2746 39.3065 25.2844 39.3825Z" fill="white"/>
<path d="M29.8164 39.2774C29.7451 39.2725 29.7382 39.1536 29.7316 39.0293C29.7651 39.0908 29.7975 39.1684 29.8164 39.2774Z" fill="white"/>
<path d="M3.95756 38.167L3.92753 38.1649C3.92753 38.1649 3.95078 38.1557 3.95756 38.167Z" fill="white"/>
<path d="M6.65833 38.8145C6.66702 38.8527 6.6791 38.8966 6.6867 38.951C6.66125 38.9924 6.65136 38.9163 6.65833 38.8145Z" fill="white"/>
<path d="M9.46566 34.8708C9.26865 35.105 9.11956 34.5833 8.96714 34.5513L9.0054 34.7639L8.85986 34.5763L8.83934 34.8765C8.59027 34.714 8.24963 35.0085 8.18878 34.5196L8.18583 35.0041L7.93823 34.5995L8.07351 34.9372C7.75879 35.018 7.31566 34.6054 7.24774 34.6061L7.26155 34.7901C7.20653 34.8779 7.17331 34.7572 7.12479 34.6946L7.14776 34.9654C6.6875 34.8586 6.51812 35.4609 6.01997 35.1361C5.87296 35.1906 6.09293 35.2272 6.0823 35.3827C5.98883 35.5917 5.8226 35.3757 5.7935 35.2498C5.80584 35.6761 6.03231 35.5623 5.84409 35.8887C5.74203 35.6717 5.89616 36.2854 5.6956 36.1855L5.65379 35.6388C5.53121 35.7219 5.60232 36.0607 5.42208 35.9945C5.23178 35.7445 5.71907 35.4009 5.39053 35.2977C5.21908 35.3236 4.94825 36.5275 4.64187 36.2104C4.53762 35.7414 4.92737 36.328 4.54657 36.162L4.77009 36.5327C4.69566 36.6838 4.71488 36.9543 4.55743 36.8305C4.51918 36.6179 4.43241 36.3427 4.34453 36.3044C4.68037 36.742 3.97963 36.8987 4.28489 37.4527L4.15875 37.4225C4.15875 37.4225 4.17238 37.4988 4.16231 37.5358L3.99086 37.5618C4.08788 37.6869 4.32817 37.7572 4.18847 38.1461L3.93792 38.2259C3.9812 38.5305 3.8827 38.6476 3.88122 38.8898L4.55814 39.5231C4.54432 39.339 4.4473 39.2139 4.49728 39.0342C4.69932 38.8919 4.62881 39.3717 4.82582 39.1375L4.76349 38.8909C4.77227 38.983 4.79296 39.0114 4.75323 39.041C4.6788 39.192 4.66499 39.008 4.67525 38.8579C4.75994 38.5568 4.9258 38.7781 4.96405 38.9908C5.19931 38.9691 5.05022 38.4474 5.10899 38.3598C5.19428 38.8773 5.50005 38.3758 5.62655 38.6214L5.55543 38.2827C5.75895 37.8981 5.89423 38.2358 5.99125 38.3609L5.96866 38.0847C6.2127 38.1553 6.2022 37.9864 6.32051 38.9584L6.3067 38.7744C6.4139 38.6956 6.58133 38.5078 6.6595 38.7985C6.66719 38.686 6.69548 38.5479 6.73933 38.5132C6.76659 38.8866 6.89449 38.6153 7.04526 38.561C6.95427 38.4579 7.01727 37.9775 6.92363 37.858C7.19004 37.3808 7.09717 38.4084 7.28895 38.4161C7.42215 38.1775 7.20218 38.141 7.18836 37.9569C7.46691 38.2398 7.87972 36.8895 8.00143 37.8671L7.85294 38.1639C7.95875 38.3811 8.02255 38.3855 8.01377 38.2934C7.97404 38.323 7.96525 38.2308 7.96022 38.1389C8.35424 37.6704 8.47108 38.8847 8.84832 38.7166C8.83451 38.5326 8.786 38.47 8.79626 38.3199C8.97422 38.1436 8.89389 39.2636 9.1894 38.9122L9.15114 38.6996C9.24964 38.5825 9.29293 38.887 9.27764 38.9452C9.34084 38.131 9.84519 39.0271 10.1058 37.9733C10.2063 38.4325 10.5578 38.8065 10.691 38.5679C10.8895 38.0915 10.5817 38.0166 10.6766 37.5653C10.808 37.5743 10.8414 38.0235 11.0472 37.8814C11.016 38.337 10.6013 38.7772 10.9478 39.0594L11.0172 38.8164C10.9775 38.846 10.9187 38.9335 10.8702 38.871C10.7834 38.5958 10.9549 38.5698 10.9858 38.4481L11.3666 38.6141C11.3599 39.0983 11.1349 38.9698 11.104 39.0916C11.4187 39.0108 11.8424 38.3289 12.1052 38.6754L12.0914 38.4913C12.4273 38.9289 12.3658 37.6216 12.6017 38.4185C12.764 38.3057 12.5806 37.9001 12.8158 37.8785C12.8796 37.8828 12.8296 38.0625 12.8143 38.1207C13.0879 38.3117 12.9735 37.6685 13.2054 38.1367L13.1839 37.6236C13.4712 37.9987 13.7403 38.9164 14.0256 38.7151C14.0377 38.3174 13.8662 38.3434 13.8229 38.0389C14.142 38.7769 14.6987 38.1903 15.0101 38.5993C14.8857 38.93 15.1142 39.3926 14.8775 39.6565C14.856 39.1434 14.732 39.4688 14.6193 39.4073C14.7307 40.535 15.4444 38.9198 15.4344 39.8938L15.5103 39.5005C15.5588 39.563 15.6697 39.8722 15.5712 39.9893L15.9637 39.763C15.8529 39.4539 15.6258 38.7491 15.5064 39.1717C15.4299 38.7465 15.6793 38.9035 15.6185 38.4147C15.8211 39.0909 15.7914 38.1465 16.0405 38.3089C15.8812 38.8742 16.2426 39.1036 16.2126 39.3762C16.3063 39.2749 16.4756 39.5557 16.5337 39.7535C16.6802 39.8174 17.057 39.38 17.2837 39.5948C17.2057 39.4117 17.0795 39.1608 17.1116 38.8022C17.2136 39.0192 17.3454 39.0228 17.3968 38.6009C17.033 37.8006 17.1954 39.5618 16.8504 39.0374C16.7896 38.5486 16.6963 38.4238 16.511 38.2657C16.6198 37.9985 16.5869 37.8724 16.6472 37.5427C16.814 38.5772 17.2632 37.6871 17.5403 38.2122C17.6511 38.5214 17.5062 39.1523 17.7988 39.2853L17.5185 39.5785C17.8191 39.319 17.5618 39.883 17.7906 40.0118L17.7195 39.673C17.8665 39.6185 17.915 39.681 17.9773 39.9276L17.892 39.4102C17.9715 39.351 18.1185 39.2964 18.1017 39.5969C18.1289 39.4749 18.1434 39.3735 18.1493 39.2878C18.1584 39.3746 18.1923 39.4307 18.2835 39.4208C18.235 39.3582 18.1952 39.3878 18.2055 39.2378C18.5386 39.3844 18.3258 38.6913 18.5327 38.7539C18.5069 38.6337 18.5769 38.4931 18.6601 38.4342C18.5976 39.2376 19.0107 39.3736 19.0928 39.8262C19.0936 39.8154 19.3568 40.1565 19.3568 40.1565C19.3049 40.0884 19.38 39.8727 19.4722 39.7928C19.5594 39.675 19.4114 38.9163 19.6697 39.1655L19.7962 39.4111C19.7717 39.3825 19.8064 39.261 19.8221 39.1975L19.9534 39.4273C20.2337 38.6925 20.3524 39.8799 20.6437 39.5337C20.5643 39.5929 20.4482 39.5257 20.5172 39.2881C20.576 39.2006 20.6486 39.2971 20.6781 39.4176L20.6693 39.3254L21.1419 39.8585C21.1193 39.5823 20.8352 39.5468 20.984 39.2446C21.084 38.8853 21.204 39.2812 21.2922 39.3141C21.2663 39.5278 21.085 39.6985 21.2458 39.8279C21.2753 39.7276 21.4517 39.5189 21.3835 39.3581C21.5411 39.5896 21.7838 39.7355 21.9158 40.1214C21.9708 40.0337 21.9019 39.9374 21.8775 39.9088L21.8622 39.967C21.7652 39.8419 21.8846 39.4192 21.6631 39.6249C21.6958 38.9271 21.9728 39.4522 22.1596 39.368L21.9069 38.8715C22.4601 37.9508 23.0383 39.035 23.5179 39.0786C23.3607 39.2832 23.2582 39.0716 23.2363 39.614C23.5148 39.8969 23.4853 39.7764 23.7745 39.9039L23.7501 39.8753C23.923 39.6071 24.0965 40.1574 24.2308 39.682C24.1838 39.3772 23.9941 39.9458 24.0318 39.3399L24.4038 39.4138C24.312 39.0467 24.0318 39.3399 23.895 39.2443C23.7877 39.2693 24.0956 39.3442 24.02 39.7322C23.6724 39.6869 23.6204 39.2902 23.4866 38.7102C23.4104 38.2796 23.6698 38.292 23.7336 38.2963C23.9121 38.9386 24.2185 39.2557 24.5832 38.9952L24.8061 38.5473C24.9502 38.9772 24.8191 39.7922 25.1375 39.7116L25.0664 39.3729C25.1428 39.2489 25.1908 39.2091 25.2245 39.2114C25.1104 38.9505 24.9831 38.6618 24.8809 38.3909C25.1053 37.7008 25.3638 38.7739 25.6132 38.931C25.6044 38.8389 25.5162 38.8059 25.502 38.6272C25.8999 38.4875 26.2481 39.3514 26.5407 39.4844C26.6892 39.1876 26.3069 39.2638 26.3981 38.8123C26.5436 39 26.7475 38.61 26.7599 39.0363C26.7333 38.4314 27.1231 39.0181 26.8613 38.4347C27.446 38.2108 28.0309 38.8109 28.5817 39.1932C28.5679 39.0091 28.5781 38.859 28.6128 38.7376C28.4173 38.7296 28.1438 38.5386 28.0673 38.1133C28.2158 37.8165 28.3393 38.5465 28.3893 38.3669C28.3358 38.2124 28.204 38.2088 28.2246 37.9086C28.4128 37.5823 28.474 38.0657 28.5863 38.1326L28.5119 38.2837C28.8477 38.7213 28.639 39.3478 29.0366 39.2135C29.2041 38.8587 29.0571 38.9133 29.0882 38.4577C29.1662 38.6408 29.4964 38.1679 29.5573 38.6567L29.322 38.6783C29.4783 38.8183 29.6322 38.8288 29.7342 38.9919C29.7295 38.8947 29.7252 38.7921 29.694 38.7522C29.8155 38.9059 29.9828 38.8851 30.0299 39.1898L30.1007 38.7046C30.0073 38.9136 29.772 38.9353 29.7528 38.6647C29.8043 38.2428 30.0228 38.5216 30.1263 38.4964C29.6813 38.3313 29.7296 37.5699 29.3251 37.86L29.3787 38.0145C29.1136 38.3625 28.911 37.7402 28.6997 37.7419C28.7664 37.6495 28.7901 37.468 28.7693 37.3858C28.2783 37.7292 27.8436 37.4141 27.299 37.603L27.174 37.1152L27.1378 37.4789C26.8678 37.622 27.1167 36.9605 26.949 36.9868C27.0128 36.9911 26.9975 37.0493 27.0025 37.1412C26.7305 36.708 26.8105 37.4673 26.6535 37.3381C26.7055 37.7348 26.9667 37.4996 26.8561 38.0143C26.5841 37.5811 26.1033 37.7744 26.1217 36.8979C25.5424 37.2083 24.893 36.6147 24.4293 36.5022C24.3549 36.6533 24.4622 36.6283 24.4279 36.7444C24.2788 36.2227 23.7844 37.0558 23.8118 36.6C23.7133 36.7171 23.6531 37.0469 23.6221 37.1686C23.5208 36.9409 23.3855 36.8239 23.2394 36.7547L23.3398 36.8854L23.3245 36.9436L23.179 36.756C22.8222 36.57 22.3791 36.6528 22.0747 36.142C22.2497 36.4501 21.9885 36.6854 22.0665 36.8684C21.9429 36.1384 21.5316 36.0887 21.1886 36.1407C21.1784 36.2907 21.1437 36.4122 21.1769 36.533L21.0019 36.2248L21.0157 36.4089C20.6575 36.519 20.3334 35.6891 20.0814 36.0111C20.2181 36.1066 20.2079 36.2567 20.2064 36.4989C19.956 36.4657 19.7241 36.439 19.4464 36.1993C19.4584 36.2432 19.466 36.2975 19.4624 36.3511C19.3829 36.4103 19.3015 36.2217 19.2286 36.1305L19.1924 36.4942C19.0536 36.3178 18.8498 36.487 18.6932 36.1855C18.5947 36.5772 18.2906 35.7864 18.0728 35.9384C18.0002 35.8419 18.2131 36.3681 17.9969 36.3317C18.0207 35.5418 17.7131 36.2908 17.756 35.4429L17.5433 35.7407L17.531 35.3144C17.3116 36.0964 17.3075 34.9437 17.0467 35.1736C17.0517 35.2655 17.0758 35.2995 17.0605 35.3577C16.9879 35.2611 16.8114 35.1952 16.9649 34.9903C16.8336 34.9813 16.4076 34.7584 16.5761 35.2168C16.5776 34.9746 16.7438 35.1906 16.8164 35.2871C16.7803 35.6508 16.595 35.4928 16.5191 35.8861C16.5141 35.848 16.496 35.7822 16.4813 35.7219L16.4396 35.9453C16.2232 35.5266 15.9557 35.7991 15.8148 35.2671C15.7958 35.3789 15.7487 35.4618 15.668 35.4294L15.6991 34.9738L15.4357 34.9666L15.5107 35.6341C15.2167 35.7432 15.069 34.9792 14.844 34.8507C14.7323 35.6024 14.4097 34.5302 14.1608 35.1918L14.3271 35.4077C13.9463 35.2417 13.8551 35.6932 13.5086 35.411C13.8336 35.1802 13.8271 35.3305 14.3196 34.7449C13.8476 35.0303 13.572 34.263 13.1295 34.6689C13.1433 34.8529 13.2407 34.9727 13.1265 35.1534C13.0745 34.7567 12.7355 35.1374 12.8304 34.6862C12.6922 34.8329 12.6407 35.2548 12.5575 35.3137L12.1681 34.7217L12.1732 34.8136C11.3695 35.8141 10.8595 34.0075 10.0935 34.4021L10.092 34.6444L9.93263 34.2727C10.0591 34.5183 9.84795 34.5738 9.8224 34.7821L9.38953 34.2194C9.36361 34.433 9.35691 34.9172 9.47985 34.8287L9.46566 34.8708ZM15.6392 35.519L15.7496 35.5588C15.7736 35.5389 15.7965 35.5351 15.8195 35.5852L15.7496 35.5588C15.6893 35.614 15.6311 35.8038 15.6392 35.519ZM25.8305 37.1311C25.8688 37.3437 25.7473 37.19 25.7076 37.2196L25.8841 37.2855C25.9188 37.1641 25.8508 37.1648 25.8268 37.1308L25.8305 37.1311ZM15.4384 38.4563L15.3537 38.7574L15.2914 38.5108L15.4384 38.4563ZM13.8569 38.3697L14.0024 38.5573L13.9834 38.6153L13.8416 38.4279L13.8569 38.3697ZM12.2757 35.7953C12.2757 35.7953 12.2923 35.8287 12.3017 35.8563C12.2912 35.8448 12.2852 35.8228 12.2757 35.7953C12.1707 35.5673 12.0845 36.1107 12.0194 35.5731C12.1741 35.1313 12.2172 35.6028 12.2757 35.7953ZM15.0493 35.9849C15.0978 36.0474 15.1223 36.076 15.1616 36.0518C15.1478 35.8677 15.061 35.5925 15.1405 35.5334C15.1788 35.746 15.3552 35.8119 15.3381 36.1177C15.2028 35.7799 15.032 36.6245 15.0493 35.9849ZM18.7503 36.4532L18.7068 36.4826L18.8333 36.7282L18.7465 36.453L18.7503 36.4532ZM19.4046 36.8103C19.4567 37.207 19.6678 37.1514 19.8046 37.2469C19.8648 36.9172 19.749 36.5161 19.5775 36.5421C19.4025 36.234 19.4673 37.0515 19.4046 36.8103ZM13.7971 36.4862L13.8201 36.757L13.7803 36.7866L13.9259 36.9743C13.6942 37.33 13.5988 36.6288 13.5018 36.5037C13.59 36.5367 13.7964 37.2132 13.8009 36.4865L13.7971 36.4862ZM20.8288 37.1015C20.9553 37.3471 21.1942 37.6596 21.153 37.9314C21.1994 37.4176 21.0053 37.1674 20.9415 37.1631C20.9018 37.1927 20.8777 37.1587 20.8292 37.0962L20.8288 37.1015ZM20.755 38.0712C20.5647 37.8212 20.5662 37.579 20.4412 37.0912C20.6626 36.8855 20.6735 37.554 20.6285 37.8256C20.755 38.0712 20.7515 37.7371 20.8306 37.6832L20.7547 38.0765L20.755 38.0712ZM20.64 36.6093L20.5489 36.6731C20.4329 36.8806 20.3705 37.4633 20.2716 36.8696L20.5489 36.6731C20.5748 36.6264 20.6032 36.5961 20.64 36.6093ZM22.3905 36.7613L22.3163 36.5785C22.3978 36.6003 22.4035 36.6814 22.3905 36.7613L22.4516 36.9163C22.2511 37.091 22.3612 36.9155 22.3905 36.7613ZM21.0415 36.8037L20.7975 36.7332C20.796 36.9754 20.9583 36.8627 21.0415 36.8037ZM22.3031 37.2131C22.1958 37.238 21.9208 37.2893 21.9606 37.2597C22.0055 36.9881 22.2458 37.0584 22.3031 37.2131ZM27.6912 38.3191L27.5392 38.2818L27.6392 37.9225L27.6912 38.3191ZM25.8489 38.4625L25.8989 38.2828L25.9871 38.3157L25.8489 38.4625ZM24.166 38.369C24.179 38.2891 24.1818 38.1923 24.1727 38.1055C24.1486 38.0716 24.1294 38.0218 24.1233 37.946C24.1458 37.9475 24.1639 38.0134 24.1727 38.1055C24.2348 38.1906 24.339 38.1546 24.3917 38.0451C24.3779 37.8611 24.2703 37.8914 24.2412 37.7656C24.4244 37.3473 24.6814 38.6627 24.6684 37.4178C24.722 37.5723 24.921 37.9144 24.8313 38.1236C24.6597 38.0419 24.3169 38.1477 24.166 38.369C24.1541 38.4328 24.1354 38.4853 24.1047 38.494C24.1151 38.4516 24.1405 38.4103 24.166 38.369ZM21.8815 38.4713C21.8199 38.4348 21.7962 38.3954 21.7837 38.3569C21.7337 38.2619 21.7019 38.1197 21.7324 37.9495C21.8535 38.1086 21.7614 38.2423 21.7837 38.3569C21.8139 38.4128 21.8447 38.458 21.8815 38.4713ZM21.4748 38.5189L21.6651 38.7688L21.5783 38.4936L21.8554 39.0188C21.6584 39.253 21.4746 38.8527 21.471 38.5186L21.4748 38.5189ZM21.3836 38.7496L21.3625 38.4519L21.4058 38.7565C21.3836 38.7496 21.3905 38.8147 21.3905 38.8147L21.0532 38.6193L21.3877 38.7445L21.3836 38.7496ZM17.8483 37.8994C17.6473 38.9088 18.1065 38.644 18.1404 39.1418C18.1789 38.7998 18.3502 38.2783 18.008 38.2657C18.3279 37.943 18.1468 38.9376 18.3815 38.0974C18.2345 38.152 18.0839 37.8724 18.0594 37.8438L18.2271 37.8176C18.1766 37.1787 17.9469 38.1108 17.8449 37.8938L17.8483 37.8994ZM16.0402 37.9266L15.8206 37.8846L16.0212 37.9845L16.0365 37.9263L16.0402 37.9266ZM10.599 37.8185C10.5975 38.0607 10.2826 38.4754 10.2499 38.0154C10.3969 37.9608 10.5494 37.9928 10.599 37.8185ZM8.27341 37.5841L8.50719 37.8047C8.42103 38.3481 8.28722 37.7682 8.16465 37.8513C8.14205 37.5752 8.22342 37.7638 8.27341 37.5841ZM6.66779 37.4636L6.59521 37.3671L6.64077 37.9141L6.67191 37.4585L6.66779 37.4636ZM6.72342 38.1944C6.65814 38.4323 6.81897 38.5617 6.8587 38.5321L6.72342 38.1944ZM5.43911 37.8331L5.54264 37.8079L5.48179 37.3191L5.43535 37.8329L5.43911 37.8331ZM5.44607 38.0155C5.44514 38.3601 5.59865 38.0918 5.85461 37.8777C5.89078 37.514 5.62996 38.2489 5.7456 37.826C5.67264 37.7348 5.59858 37.8806 5.55885 37.9101C5.60737 37.9727 5.68179 37.8216 5.68032 38.0638C5.58072 38.1971 5.49394 38.1427 5.45019 38.0104C5.45111 37.8866 5.44343 37.7784 5.41743 37.7174C5.40974 37.8299 5.42154 37.9331 5.45019 38.0104L5.44607 38.0155ZM6.33156 37.6937C6.36451 37.6529 6.39783 37.6067 6.41312 37.5485L6.42191 37.6407C6.3775 37.7938 6.3538 37.7545 6.33156 37.6937C6.29448 37.7396 6.25026 37.7797 6.20641 37.8144C6.15926 38.1181 6.30635 38.3382 6.33591 38.5125C6.26296 38.4214 6.21967 38.1169 6.10213 38.2919C6.11091 38.3841 6.09187 38.442 6.15567 38.4464L6.00866 38.5009C5.87658 38.0611 6.03926 37.943 6.20266 37.8141C6.21118 37.7447 6.2272 37.6758 6.26235 37.6028C6.2878 37.5615 6.30519 37.6381 6.3278 37.6935L6.33156 37.6937ZM5.245 36.9302L5.31796 37.0213C5.35118 37.142 5.31648 37.2635 5.32151 37.3554C5.23327 37.3225 5.12746 37.1052 5.245 36.9302ZM9.89763 37.1567C9.83886 37.2442 9.93441 37.6115 10.057 37.5283L9.96204 37.9796C9.98256 37.6794 9.7473 37.701 9.72322 37.6671C9.71088 37.2408 9.7885 37.4292 9.89763 37.1567ZM15.2939 37.5363C15.296 38.1126 15.616 37.7899 15.6695 37.9443C15.5072 38.0571 15.149 38.1672 15.2939 37.5363ZM15.8239 37.341C15.9061 37.352 15.9322 37.2999 15.9012 37.5886C15.9307 37.7091 16.0085 37.5636 16.038 37.6841C15.8631 37.9252 15.9055 37.4704 15.8239 37.341C15.8013 37.3394 15.7792 37.3325 15.7506 37.309C15.7855 37.2953 15.8069 37.3129 15.8239 37.341ZM12.6708 37.077L12.5943 36.6517L12.4228 36.6777L12.6704 37.0823L12.6708 37.077ZM10.9213 36.1927C10.9198 36.4349 10.7243 36.4269 10.6948 36.3065C10.6844 36.6235 10.8184 36.5949 10.9175 36.634C10.9307 36.6618 10.9484 36.6792 10.9821 36.6815C10.9648 36.6588 10.943 36.6465 10.9175 36.634C10.8851 36.5564 10.9224 36.3974 10.9301 36.2849L10.9888 36.1973L10.8521 36.1018L10.9247 36.1983L10.9213 36.1927ZM7.77405 35.6222C7.64085 35.8608 7.63582 35.7689 7.56286 35.6777C7.59756 35.5562 7.7011 35.531 7.77405 35.6222ZM11.897 35.9848C11.6912 36.1269 11.9579 36.4736 11.8196 36.6203L11.9232 36.5951C11.7349 36.9215 11.8314 36.228 11.7084 36.3165L11.7916 36.2576C11.8726 35.9562 11.6858 36.0403 11.6911 35.7984C11.7896 35.6812 11.9836 35.9315 11.9004 35.9904L11.897 35.9848ZM7.60407 35.4059C7.39141 35.7037 7.46879 35.0682 7.35647 35.0013C7.5294 34.7331 7.46731 35.3104 7.60407 35.4059ZM10.7369 34.9739L10.7522 34.9157L10.6104 34.7283L10.5951 34.7865L10.7406 34.9741L10.7369 34.9739Z" fill="white"/>
<path d="M7.14959 38.5784C7.09824 38.6126 7.06858 38.6052 7.04414 38.5766C7.07901 38.5628 7.11316 38.5598 7.14959 38.5784Z" fill="white"/>
<path d="M16.1525 39.5388C16.1617 39.4586 16.1834 39.417 16.2078 39.3918C16.2045 39.44 16.1861 39.4872 16.1525 39.5388Z" fill="white"/>
<path d="M29.6768 39.6666C29.7289 40.0633 29.5936 39.7255 29.5298 39.7212C29.5936 39.7255 29.6385 39.454 29.6768 39.6666Z" fill="white"/>
<path d="M29.2107 38.9824C29.2402 39.1029 29.2913 39.1818 29.3529 39.2183C29.3109 39.2262 29.2684 39.1856 29.2107 38.9824Z" fill="white"/>
<path d="M29.6159 39.1778C29.5128 39.2516 29.4254 39.2617 29.3566 39.2193C29.4215 39.2076 29.4881 39.0614 29.6159 39.1778Z" fill="white"/>
<path d="M27.8337 38.9912C27.8961 39.2378 28.0587 39.1197 28.0587 39.1197C27.7093 39.322 28.0955 39.5745 28.1093 39.7586C27.905 39.6584 27.9255 39.3583 27.8337 38.9912Z" fill="white"/>
<path d="M27.3993 38.8373C27.4331 38.8396 27.4676 38.8312 27.4964 38.7955C27.4586 38.8521 27.4282 38.8554 27.3993 38.8373Z" fill="white"/>
<path d="M27.2556 39.0647C27.1433 38.9978 27.1203 38.727 27.0821 38.5143C27.2379 38.3311 27.2949 38.7658 27.3952 38.8427C27.3123 38.8424 27.2353 38.8102 27.2556 39.0647Z" fill="white"/>
<path d="M23.5905 40.112C23.6146 40.146 23.6788 40.145 23.6723 40.2953L23.4771 40.282C23.4038 40.1962 23.5508 40.1416 23.5905 40.112Z" fill="white"/>
<path d="M22.9239 39.3284C22.7718 39.2911 22.8239 39.6877 22.751 39.5966L22.7974 39.0828L22.9239 39.3284Z" fill="white"/>
<path d="M23.1921 36.73L23.2335 36.7867C23.2335 36.7867 23.2004 36.7737 23.182 36.767L23.1917 36.7354L23.1921 36.73Z" fill="white"/>
<path d="M22.1422 39.7863L22.2081 40.367C22.0866 40.2133 22.1178 39.7577 22.1422 39.7863Z" fill="white"/>
<path d="M21.5228 40.1315L21.6008 40.3145L21.3273 40.1235L21.5228 40.1315Z" fill="white"/>
<path d="M20.8292 39.7993L20.7945 39.9208L20.6093 39.7627L20.8292 39.7993Z" fill="white"/>
<path d="M13.0945 38.7639C13.0975 38.2795 13.3951 38.5045 13.494 38.382C13.3887 38.9833 13.2602 38.1614 13.0945 38.7639Z" fill="white"/>
<path d="M7.4386 38.3779L7.7274 38.5108C7.48564 38.6827 7.6636 38.5064 7.4386 38.3779Z" fill="white"/>
</g>
<defs>
<clipPath id="clip0_100_390">
<rect width="39.0419" height="6.33417" fill="white" transform="translate(0 21.7861) rotate(-33.6845)"/>
</clipPath>
<clipPath id="clip1_100_390">
<rect width="27.3378" height="6.33417" fill="white" transform="translate(4.06836 33.8984) rotate(3.91054)"/>
</clipPath>
</defs>
</svg>
