<svg width="166" height="244" viewBox="0 0 166 244" fill="none" xmlns="http://www.w3.org/2000/svg">
<mask id="path-1-outside-1_92_252" maskUnits="userSpaceOnUse" x="15.1452" y="11.6397" width="149.606" height="191.099" fill="black">
<rect fill="white" x="15.1452" y="11.6397" width="149.606" height="191.099"/>
<path d="M52.1255 162.988C53.4918 157.516 56.1974 153.616 60.2423 151.286C64.4035 148.986 69.3948 148.562 75.2161 150.016C81.0373 151.469 85.1709 154.233 87.6168 158.307C90.2082 162.294 90.8353 166.965 89.498 172.32C88.1607 177.676 85.4115 181.504 81.2502 183.804C77.1763 186.25 72.2287 186.746 66.4074 185.293C60.5862 183.839 56.3798 181.119 53.7884 177.133C51.3134 173.175 50.7591 168.46 52.1255 162.988ZM63.5954 121.512C65.3978 114.293 67.6227 108.85 70.2702 105.182C72.9467 101.398 76.9623 98.69 82.3171 97.0587C86.566 95.8933 90.5093 94.7135 94.1469 93.5192C97.9301 92.2375 100.826 91.0434 102.834 89.9369C106.122 88.1606 108.493 86.3409 109.948 84.4778C111.548 82.5274 112.741 79.9804 113.526 76.8369C114.514 72.8785 113.902 69.3861 111.689 66.3599C109.622 63.2463 106.551 61.1808 102.476 60.1633C98.401 59.1458 94.4865 59.2197 90.7324 60.3849C87.0947 61.5792 84.3158 63.7919 82.3959 67.023C80.2432 70.6908 77.3189 73.2383 73.6231 74.6654C70.0727 76.0052 66.1437 76.1373 61.836 75.0617C57.179 73.8988 53.5548 71.5715 50.9635 68.0797C48.4013 64.4715 47.7744 60.0478 49.0826 54.8087C50.8559 47.7067 54.7979 41.8266 60.9085 37.1681C67.0481 32.3933 74.4397 29.2916 83.0833 27.863C91.8433 26.4636 100.88 26.9267 110.194 29.2524C125.33 33.0316 136.508 39.7807 143.728 49.4995C150.949 59.2182 152.757 71.296 149.152 85.7328C147.669 91.6704 145.677 96.6769 143.175 100.752C140.702 104.711 137.444 108.103 133.399 110.927C127.841 114.858 118.966 118.949 106.772 123.202C104.066 124.134 102.087 125.372 100.836 126.914C99.7012 128.486 98.8141 130.553 98.1745 133.114L95.2093 144.99L59.9324 136.181L63.5954 121.512Z"/>
</mask>
<path d="M52.1255 162.988C53.4918 157.516 56.1974 153.616 60.2423 151.286C64.4035 148.986 69.3948 148.562 75.2161 150.016C81.0373 151.469 85.1709 154.233 87.6168 158.307C90.2082 162.294 90.8353 166.965 89.498 172.32C88.1607 177.676 85.4115 181.504 81.2502 183.804C77.1763 186.25 72.2287 186.746 66.4074 185.293C60.5862 183.839 56.3798 181.119 53.7884 177.133C51.3134 173.175 50.7591 168.46 52.1255 162.988ZM63.5954 121.512C65.3978 114.293 67.6227 108.85 70.2702 105.182C72.9467 101.398 76.9623 98.69 82.3171 97.0587C86.566 95.8933 90.5093 94.7135 94.1469 93.5192C97.9301 92.2375 100.826 91.0434 102.834 89.9369C106.122 88.1606 108.493 86.3409 109.948 84.4778C111.548 82.5274 112.741 79.9804 113.526 76.8369C114.514 72.8785 113.902 69.3861 111.689 66.3599C109.622 63.2463 106.551 61.1808 102.476 60.1633C98.401 59.1458 94.4865 59.2197 90.7324 60.3849C87.0947 61.5792 84.3158 63.7919 82.3959 67.023C80.2432 70.6908 77.3189 73.2383 73.6231 74.6654C70.0727 76.0052 66.1437 76.1373 61.836 75.0617C57.179 73.8988 53.5548 71.5715 50.9635 68.0797C48.4013 64.4715 47.7744 60.0478 49.0826 54.8087C50.8559 47.7067 54.7979 41.8266 60.9085 37.1681C67.0481 32.3933 74.4397 29.2916 83.0833 27.863C91.8433 26.4636 100.88 26.9267 110.194 29.2524C125.33 33.0316 136.508 39.7807 143.728 49.4995C150.949 59.2182 152.757 71.296 149.152 85.7328C147.669 91.6704 145.677 96.6769 143.175 100.752C140.702 104.711 137.444 108.103 133.399 110.927C127.841 114.858 118.966 118.949 106.772 123.202C104.066 124.134 102.087 125.372 100.836 126.914C99.7012 128.486 98.8141 130.553 98.1745 133.114L95.2093 144.99L59.9324 136.181L63.5954 121.512Z" fill="#FD780F"/>
<path d="M60.2423 151.286L58.7908 148.661C58.7755 148.669 58.7602 148.678 58.7451 148.687L60.2423 151.286ZM87.6168 158.307L85.0448 159.851C85.0632 159.882 85.0821 159.912 85.1015 159.942L87.6168 158.307ZM81.2502 183.804L79.7988 181.179C79.7675 181.196 79.7366 181.214 79.706 181.232L81.2502 183.804ZM53.7884 177.133L51.2449 178.723C51.2542 178.738 51.2636 178.753 51.2731 178.768L53.7884 177.133ZM70.2702 105.182L72.7027 106.938C72.7084 106.93 72.7139 106.922 72.7195 106.915L70.2702 105.182ZM82.3171 97.0587L81.5235 94.1655C81.4965 94.173 81.4696 94.1807 81.4428 94.1889L82.3171 97.0587ZM94.1469 93.5192L95.0827 96.3695C95.0917 96.3665 95.1006 96.3636 95.1095 96.3605L94.1469 93.5192ZM102.834 89.9369L101.408 87.2974C101.4 87.3014 101.393 87.3054 101.386 87.3094L102.834 89.9369ZM109.948 84.4778L107.629 82.575C107.613 82.5937 107.598 82.6125 107.583 82.6316L109.948 84.4778ZM111.689 66.3599L109.19 68.0193C109.215 68.057 109.241 68.0941 109.267 68.1306L111.689 66.3599ZM90.7324 60.3849L89.8431 57.5198C89.8275 57.5246 89.812 57.5295 89.7966 57.5346L90.7324 60.3849ZM82.3959 67.023L79.8168 65.4906C79.8141 65.4952 79.8113 65.4999 79.8086 65.5045L82.3959 67.023ZM73.6231 74.6654L74.6823 77.4722C74.6895 77.4695 74.6966 77.4668 74.7038 77.464L73.6231 74.6654ZM50.9635 68.0797L48.5175 69.8166C48.5297 69.8337 48.542 69.8507 48.5544 69.8675L50.9635 68.0797ZM60.9085 37.1681L62.7273 39.5539C62.7349 39.5481 62.7426 39.5422 62.7502 39.5363L60.9085 37.1681ZM83.0833 27.863L82.61 24.9006C82.6047 24.9015 82.5994 24.9023 82.5941 24.9032L83.0833 27.863ZM143.728 49.4995L141.32 51.2886L143.728 49.4995ZM143.175 100.752L145.72 102.342C145.724 102.335 145.728 102.328 145.732 102.322L143.175 100.752ZM133.399 110.927L131.681 108.467C131.677 108.471 131.672 108.474 131.667 108.478L133.399 110.927ZM106.772 123.202L107.749 126.038L107.76 126.035L106.772 123.202ZM100.836 126.914L98.5056 125.025C98.4703 125.069 98.4361 125.113 98.4033 125.159L100.836 126.914ZM95.2093 144.99L94.4825 147.9C96.09 148.302 97.7185 147.324 98.1199 145.717L95.2093 144.99ZM59.9324 136.181L57.0218 135.454C56.6204 137.062 57.5981 138.69 59.2056 139.092L59.9324 136.181ZM55.0361 163.715C56.2493 158.857 58.5442 155.726 61.7395 153.886L58.7451 148.687C53.8506 151.505 50.7344 156.176 49.2149 162.262L55.0361 163.715ZM61.6937 153.912C65.0298 152.067 69.2032 151.607 74.4893 152.927L75.9428 147.105C69.5863 145.518 63.7773 145.904 58.7908 148.661L61.6937 153.912ZM74.4893 152.927C79.7521 154.241 83.1093 156.628 85.0448 159.851L90.1889 156.763C87.2326 151.839 82.3226 148.698 75.9428 147.105L74.4893 152.927ZM85.1015 159.942C87.1649 163.116 87.7584 166.904 86.5874 171.594L92.4087 173.047C93.9122 167.026 93.2516 161.471 90.1321 156.672L85.1015 159.942ZM86.5874 171.594C85.4164 176.283 83.1121 179.347 79.7988 181.179L82.7016 186.43C87.7109 183.661 90.9051 179.068 92.4087 173.047L86.5874 171.594ZM79.706 181.232C76.4822 183.168 72.397 183.696 67.1342 182.382L65.6807 188.203C72.0604 189.796 77.8704 189.333 82.7944 186.376L79.706 181.232ZM67.1342 182.382C61.8482 181.062 58.3812 178.694 56.3037 175.498L51.2731 178.768C54.3784 183.545 59.3242 186.616 65.6807 188.203L67.1342 182.382ZM56.332 175.542C54.3768 172.416 53.8229 168.574 55.0361 163.715L49.2149 162.262C47.6953 168.347 48.25 173.935 51.2449 178.723L56.332 175.542ZM66.506 122.238C68.2679 115.182 70.3768 110.16 72.7027 106.938L67.8377 103.426C64.8686 107.54 62.5277 113.404 60.6847 120.785L66.506 122.238ZM72.7195 106.915C74.9369 103.779 78.337 101.407 83.1914 99.9285L81.4428 94.1889C75.5876 95.9727 70.9566 99.0164 67.8209 103.45L72.7195 106.915ZM83.1106 99.9518C87.4003 98.7753 91.3916 97.5813 95.0827 96.3695L93.2112 90.6689C89.6269 91.8456 85.7316 93.0114 81.5235 94.1655L83.1106 99.9518ZM95.1095 96.3605C98.9568 95.0572 102.045 93.7966 104.282 92.5643L101.386 87.3094C99.6059 88.2902 96.9035 89.4178 93.1844 90.6778L95.1095 96.3605ZM104.259 92.5764C107.724 90.705 110.498 88.6481 112.313 86.3241L107.583 82.6316C106.489 84.0337 104.52 85.6162 101.408 87.2974L104.259 92.5764ZM112.267 86.3806C114.217 84.0037 115.573 81.02 116.436 77.5637L110.615 76.1101C109.908 78.9409 108.879 81.0511 107.629 82.575L112.267 86.3806ZM116.436 77.5637C117.619 72.8281 116.9 68.4032 114.111 64.5892L109.267 68.1306C110.904 70.369 111.409 72.9288 110.615 76.1101L116.436 77.5637ZM114.188 64.7005C111.655 60.8849 107.907 58.4273 103.203 57.2527L101.749 63.0739C105.195 63.9343 107.589 65.6078 109.19 68.0193L114.188 64.7005ZM103.203 57.2527C98.633 56.1116 94.1577 56.1805 89.8431 57.5198L91.6217 63.2501C94.8153 62.2588 98.169 62.18 101.749 63.0739L103.203 57.2527ZM89.7966 57.5346C85.484 58.9505 82.1148 61.6233 79.8168 65.4906L84.9749 68.5555C86.5169 65.9606 88.7053 64.208 91.6682 63.2352L89.7966 57.5346ZM79.8086 65.5045C77.9721 68.6336 75.5579 70.7024 72.5424 71.8668L74.7038 77.464C79.08 75.7741 82.5143 72.748 84.9832 68.5416L79.8086 65.5045ZM72.5639 71.8586C69.6766 72.9482 66.3818 73.1046 62.5628 72.151L61.1092 77.9723C65.9056 79.1699 70.4689 79.0622 74.6823 77.4722L72.5639 71.8586ZM62.5628 72.151C58.5049 71.1378 55.5064 69.1671 53.3726 66.2919L48.5544 69.8675C51.6033 73.9758 55.853 76.6598 61.1092 77.9723L62.5628 72.151ZM53.4096 66.3428C51.4649 63.6041 50.8461 60.1293 51.9932 55.5355L46.1719 54.0819C44.7026 59.9664 45.3378 65.3389 48.5175 69.8166L53.4096 66.3428ZM51.9932 55.5355C53.5929 49.129 57.1294 43.8215 62.7273 39.5539L59.0897 34.7824C52.4663 39.8317 48.1189 46.2845 46.1719 54.0819L51.9932 55.5355ZM62.7502 39.5363C68.4476 35.1054 75.3587 32.1804 83.5725 30.8229L82.5941 24.9032C73.5207 26.4028 65.6486 29.6813 59.0667 34.8L62.7502 39.5363ZM83.5566 30.8255C91.8853 29.4949 100.513 29.9272 109.468 32.163L110.921 26.3417C101.247 23.9262 91.8013 23.4322 82.61 24.9006L83.5566 30.8255ZM109.468 32.163C124.127 35.8234 134.62 42.2708 141.32 51.2886L146.136 47.7103C138.395 37.2906 126.532 30.2399 110.921 26.3417L109.468 32.163ZM141.32 51.2886C147.883 60.1227 149.683 71.2217 146.241 85.006L152.062 86.4595C155.83 71.3703 154.014 58.3138 146.136 47.7103L141.32 51.2886ZM146.241 85.006C144.813 90.7251 142.922 95.4298 140.618 99.1827L145.732 102.322C148.432 97.9241 150.525 92.6157 152.062 86.4595L146.241 85.006ZM140.631 99.163C138.384 102.76 135.414 105.861 131.681 108.467L135.117 113.387C139.474 110.344 143.021 106.663 145.72 102.342L140.631 99.163ZM131.667 108.478C126.459 112.16 117.905 116.142 105.784 120.369L107.76 126.035C120.026 121.757 129.223 117.555 135.131 113.376L131.667 108.478ZM105.795 120.365C102.78 121.404 100.233 122.894 98.5056 125.025L103.166 128.804C103.94 127.849 105.352 126.864 107.749 126.038L105.795 120.365ZM98.4033 125.159C96.9804 127.13 95.9646 129.581 95.2639 132.388L101.085 133.841C101.664 131.525 102.422 129.843 103.268 128.67L98.4033 125.159ZM95.2639 132.388L92.2986 144.263L98.1199 145.717L101.085 133.841L95.2639 132.388ZM95.9361 142.079L60.6592 133.271L59.2056 139.092L94.4825 147.9L95.9361 142.079ZM62.843 136.908L66.506 122.238L60.6847 120.785L57.0218 135.454L62.843 136.908Z" fill="black" mask="url(#path-1-outside-1_92_252)"/>
<mask id="path-3-outside-2_92_252" maskUnits="userSpaceOnUse" x="11.1452" y="5.6397" width="149.606" height="191.099" fill="black">
<rect fill="white" x="11.1452" y="5.6397" width="149.606" height="191.099"/>
<path d="M48.1255 156.988C49.4918 151.516 52.1974 147.616 56.2423 145.286C60.4035 142.986 65.3948 142.562 71.2161 144.016C77.0373 145.469 81.1709 148.233 83.6168 152.307C86.2082 156.294 86.8353 160.965 85.498 166.32C84.1607 171.676 81.4115 175.504 77.2502 177.804C73.1763 180.25 68.2287 180.746 62.4074 179.293C56.5862 177.839 52.3798 175.119 49.7884 171.133C47.3134 167.175 46.7591 162.46 48.1255 156.988ZM59.5954 115.512C61.3978 108.293 63.6227 102.85 66.2702 99.1822C68.9467 95.3979 72.9623 92.69 78.3171 91.0587C82.566 89.8933 86.5093 88.7135 90.1469 87.5192C93.9301 86.2375 96.8257 85.0434 98.8336 83.9369C102.122 82.1606 104.493 80.3409 105.948 78.4778C107.548 76.5274 108.741 73.9804 109.526 70.8369C110.514 66.8785 109.902 63.3861 107.689 60.3599C105.622 57.2463 102.551 55.1808 98.4759 54.1633C94.401 53.1458 90.4865 53.2197 86.7324 54.3849C83.0947 55.5792 80.3158 57.7919 78.3959 61.023C76.2432 64.6908 73.3189 67.2383 69.6231 68.6654C66.0727 70.0052 62.1437 70.1373 57.836 69.0617C53.179 67.8988 49.5548 65.5715 46.9635 62.0797C44.4013 58.4715 43.7744 54.0478 45.0826 48.8087C46.8559 41.7067 50.7979 35.8266 56.9085 31.1681C63.0481 26.3933 70.4397 23.2916 79.0833 21.863C87.8433 20.4636 96.8803 20.9267 106.194 23.2524C121.33 27.0316 132.508 33.7807 139.728 43.4995C146.949 53.2182 148.757 65.296 145.152 79.7328C143.669 85.6704 141.677 90.6769 139.175 94.7523C136.702 98.7111 133.444 102.103 129.399 104.927C123.841 108.858 114.966 112.949 102.772 117.202C100.066 118.134 98.0869 119.372 96.8358 120.914C95.7012 122.486 94.8141 124.553 94.1745 127.114L91.2093 138.99L55.9324 130.181L59.5954 115.512Z"/>
</mask>
<path d="M48.1255 156.988C49.4918 151.516 52.1974 147.616 56.2423 145.286C60.4035 142.986 65.3948 142.562 71.2161 144.016C77.0373 145.469 81.1709 148.233 83.6168 152.307C86.2082 156.294 86.8353 160.965 85.498 166.32C84.1607 171.676 81.4115 175.504 77.2502 177.804C73.1763 180.25 68.2287 180.746 62.4074 179.293C56.5862 177.839 52.3798 175.119 49.7884 171.133C47.3134 167.175 46.7591 162.46 48.1255 156.988ZM59.5954 115.512C61.3978 108.293 63.6227 102.85 66.2702 99.1822C68.9467 95.3979 72.9623 92.69 78.3171 91.0587C82.566 89.8933 86.5093 88.7135 90.1469 87.5192C93.9301 86.2375 96.8257 85.0434 98.8336 83.9369C102.122 82.1606 104.493 80.3409 105.948 78.4778C107.548 76.5274 108.741 73.9804 109.526 70.8369C110.514 66.8785 109.902 63.3861 107.689 60.3599C105.622 57.2463 102.551 55.1808 98.4759 54.1633C94.401 53.1458 90.4865 53.2197 86.7324 54.3849C83.0947 55.5792 80.3158 57.7919 78.3959 61.023C76.2432 64.6908 73.3189 67.2383 69.6231 68.6654C66.0727 70.0052 62.1437 70.1373 57.836 69.0617C53.179 67.8988 49.5548 65.5715 46.9635 62.0797C44.4013 58.4715 43.7744 54.0478 45.0826 48.8087C46.8559 41.7067 50.7979 35.8266 56.9085 31.1681C63.0481 26.3933 70.4397 23.2916 79.0833 21.863C87.8433 20.4636 96.8803 20.9267 106.194 23.2524C121.33 27.0316 132.508 33.7807 139.728 43.4995C146.949 53.2182 148.757 65.296 145.152 79.7328C143.669 85.6704 141.677 90.6769 139.175 94.7523C136.702 98.7111 133.444 102.103 129.399 104.927C123.841 108.858 114.966 112.949 102.772 117.202C100.066 118.134 98.0869 119.372 96.8358 120.914C95.7012 122.486 94.8141 124.553 94.1745 127.114L91.2093 138.99L55.9324 130.181L59.5954 115.512Z" fill="#FFFCA9"/>
<path d="M56.2423 145.286L54.7908 142.661C54.7755 142.669 54.7602 142.678 54.7451 142.687L56.2423 145.286ZM83.6168 152.307L81.0448 153.851C81.0632 153.882 81.0821 153.912 81.1015 153.942L83.6168 152.307ZM77.2502 177.804L75.7988 175.179C75.7675 175.196 75.7366 175.214 75.706 175.232L77.2502 177.804ZM49.7884 171.133L47.2449 172.723C47.2542 172.738 47.2636 172.753 47.2731 172.768L49.7884 171.133ZM66.2702 99.1822L68.7027 100.938C68.7084 100.93 68.7139 100.922 68.7195 100.915L66.2702 99.1822ZM78.3171 91.0587L77.5235 88.1655C77.4965 88.173 77.4696 88.1807 77.4428 88.1889L78.3171 91.0587ZM90.1469 87.5192L91.0827 90.3695C91.0917 90.3665 91.1006 90.3636 91.1095 90.3605L90.1469 87.5192ZM98.8336 83.9369L97.4077 81.2974C97.4003 81.3014 97.393 81.3054 97.3856 81.3094L98.8336 83.9369ZM105.948 78.4778L103.629 76.575C103.613 76.5937 103.598 76.6125 103.583 76.6316L105.948 78.4778ZM107.689 60.3599L105.19 62.0193C105.215 62.057 105.241 62.0941 105.267 62.1306L107.689 60.3599ZM86.7324 54.3849L85.8431 51.5198C85.8275 51.5246 85.812 51.5295 85.7966 51.5346L86.7324 54.3849ZM78.3959 61.023L75.8168 59.4906C75.8141 59.4952 75.8113 59.4999 75.8086 59.5045L78.3959 61.023ZM69.6231 68.6654L70.6823 71.4722C70.6895 71.4695 70.6966 71.4668 70.7038 71.464L69.6231 68.6654ZM46.9635 62.0797L44.5175 63.8166C44.5297 63.8337 44.542 63.8507 44.5544 63.8675L46.9635 62.0797ZM56.9085 31.1681L58.7273 33.5539C58.7349 33.5481 58.7426 33.5422 58.7502 33.5363L56.9085 31.1681ZM79.0833 21.863L78.61 18.9006C78.6047 18.9015 78.5994 18.9023 78.5941 18.9032L79.0833 21.863ZM139.728 43.4995L137.32 45.2886L139.728 43.4995ZM139.175 94.7523L141.72 96.3415C141.724 96.335 141.728 96.3284 141.732 96.3218L139.175 94.7523ZM129.399 104.927L127.681 102.467C127.677 102.471 127.672 102.474 127.667 102.478L129.399 104.927ZM102.772 117.202L103.749 120.038L103.76 120.035L102.772 117.202ZM96.8358 120.914L94.5056 119.025C94.4703 119.069 94.4361 119.113 94.4033 119.159L96.8358 120.914ZM91.2093 138.99L90.4825 141.9C92.09 142.302 93.7185 141.324 94.1199 139.717L91.2093 138.99ZM55.9324 130.181L53.0218 129.454C52.6204 131.062 53.5981 132.69 55.2056 133.092L55.9324 130.181ZM51.0361 157.715C52.2493 152.857 54.5442 149.726 57.7395 147.886L54.7451 142.687C49.8506 145.505 46.7344 150.176 45.2149 156.262L51.0361 157.715ZM57.6937 147.912C61.0298 146.067 65.2032 145.607 70.4893 146.927L71.9428 141.105C65.5863 139.518 59.7773 139.904 54.7908 142.661L57.6937 147.912ZM70.4893 146.927C75.7521 148.241 79.1093 150.628 81.0448 153.851L86.1889 150.763C83.2326 145.839 78.3226 142.698 71.9428 141.105L70.4893 146.927ZM81.1015 153.942C83.1649 157.116 83.7584 160.904 82.5874 165.594L88.4087 167.047C89.9122 161.026 89.2516 155.471 86.1321 150.672L81.1015 153.942ZM82.5874 165.594C81.4164 170.283 79.1121 173.347 75.7988 175.179L78.7016 180.43C83.7109 177.661 86.9051 173.068 88.4087 167.047L82.5874 165.594ZM75.706 175.232C72.4822 177.168 68.397 177.696 63.1342 176.382L61.6807 182.203C68.0604 183.796 73.8704 183.333 78.7944 180.376L75.706 175.232ZM63.1342 176.382C57.8482 175.062 54.3812 172.694 52.3037 169.498L47.2731 172.768C50.3784 177.545 55.3242 180.616 61.6807 182.203L63.1342 176.382ZM52.332 169.542C50.3768 166.416 49.8229 162.574 51.0361 157.715L45.2149 156.262C43.6953 162.347 44.25 167.935 47.2449 172.723L52.332 169.542ZM62.506 116.238C64.2679 109.182 66.3768 104.16 68.7027 100.938L63.8377 97.4264C60.8686 101.54 58.5277 107.404 56.6847 114.785L62.506 116.238ZM68.7195 100.915C70.9369 97.7794 74.337 95.4074 79.1914 93.9285L77.4428 88.1889C71.5876 89.9727 66.9566 93.0164 63.8209 97.4499L68.7195 100.915ZM79.1106 93.9518C83.4003 92.7753 87.3916 91.5813 91.0827 90.3695L89.2112 84.6689C85.6269 85.8456 81.7316 87.0114 77.5235 88.1655L79.1106 93.9518ZM91.1095 90.3605C94.9568 89.0572 98.0454 87.7966 100.282 86.5643L97.3856 81.3094C95.6059 82.2902 92.9035 83.4178 89.1844 84.6778L91.1095 90.3605ZM100.259 86.5764C103.724 84.705 106.498 82.6481 108.313 80.3241L103.583 76.6316C102.489 78.0337 100.52 79.6162 97.4077 81.2974L100.259 86.5764ZM108.267 80.3806C110.217 78.0037 111.573 75.02 112.436 71.5637L106.615 70.1101C105.908 72.9409 104.879 75.0511 103.629 76.575L108.267 80.3806ZM112.436 71.5637C113.619 66.8281 112.9 62.4032 110.111 58.5892L105.267 62.1306C106.904 64.369 107.409 66.9288 106.615 70.1101L112.436 71.5637ZM110.188 58.7005C107.655 54.8849 103.907 52.4273 99.2027 51.2527L97.7491 57.0739C101.195 57.9343 103.589 59.6078 105.19 62.0193L110.188 58.7005ZM99.2027 51.2527C94.633 50.1116 90.1577 50.1805 85.8431 51.5198L87.6217 57.2501C90.8153 56.2588 94.169 56.18 97.7491 57.0739L99.2027 51.2527ZM85.7966 51.5346C81.484 52.9505 78.1148 55.6233 75.8168 59.4906L80.9749 62.5555C82.5169 59.9606 84.7053 58.208 87.6682 57.2352L85.7966 51.5346ZM75.8086 59.5045C73.9721 62.6336 71.5579 64.7024 68.5424 65.8668L70.7038 71.464C75.08 69.7741 78.5143 66.748 80.9832 62.5416L75.8086 59.5045ZM68.5639 65.8586C65.6766 66.9482 62.3818 67.1046 58.5628 66.151L57.1092 71.9723C61.9056 73.1699 66.4689 73.0622 70.6823 71.4722L68.5639 65.8586ZM58.5628 66.151C54.5049 65.1378 51.5064 63.1671 49.3726 60.2919L44.5544 63.8675C47.6033 67.9758 51.853 70.6598 57.1092 71.9723L58.5628 66.151ZM49.4096 60.3428C47.4649 57.6041 46.8461 54.1293 47.9932 49.5355L42.1719 48.0819C40.7026 53.9664 41.3378 59.3389 44.5175 63.8166L49.4096 60.3428ZM47.9932 49.5355C49.5929 43.129 53.1294 37.8215 58.7273 33.5539L55.0897 28.7824C48.4663 33.8317 44.1189 40.2845 42.1719 48.0819L47.9932 49.5355ZM58.7502 33.5363C64.4476 29.1054 71.3587 26.1804 79.5725 24.8229L78.5941 18.9032C69.5207 20.4028 61.6486 23.6813 55.0667 28.8L58.7502 33.5363ZM79.5566 24.8255C87.8853 23.4949 96.5134 23.9272 105.468 26.163L106.921 20.3417C97.2472 17.9262 87.8013 17.4322 78.61 18.9006L79.5566 24.8255ZM105.468 26.163C120.127 29.8234 130.62 36.2708 137.32 45.2886L142.136 41.7103C134.395 31.2906 122.532 24.2399 106.921 20.3417L105.468 26.163ZM137.32 45.2886C143.883 54.1227 145.683 65.2217 142.241 79.006L148.062 80.4595C151.83 65.3703 150.014 52.3138 142.136 41.7103L137.32 45.2886ZM142.241 79.006C140.813 84.7251 138.922 89.4298 136.618 93.1827L141.732 96.3218C144.432 91.9241 146.525 86.6157 148.062 80.4595L142.241 79.006ZM136.631 93.163C134.384 96.7597 131.414 99.8611 127.681 102.467L131.117 107.387C135.474 104.344 139.021 100.663 141.72 96.3415L136.631 93.163ZM127.667 102.478C122.459 106.16 113.905 110.142 101.784 114.369L103.76 120.035C116.026 115.757 125.223 111.555 131.131 107.376L127.667 102.478ZM101.795 114.365C98.7795 115.404 96.2335 116.894 94.5056 119.025L99.1661 122.804C99.9403 121.849 101.352 120.864 103.749 120.038L101.795 114.365ZM94.4033 119.159C92.9804 121.13 91.9646 123.581 91.2639 126.388L97.0852 127.841C97.6636 125.525 98.422 123.843 99.2684 122.67L94.4033 119.159ZM91.2639 126.388L88.2986 138.263L94.1199 139.717L97.0852 127.841L91.2639 126.388ZM91.9361 136.079L56.6592 127.271L55.2056 133.092L90.4825 141.9L91.9361 136.079ZM58.843 130.908L62.506 116.238L56.6847 114.785L53.0218 129.454L58.843 130.908Z" fill="black" mask="url(#path-3-outside-2_92_252)"/>
</svg>
