<svg width="210" height="49" viewBox="0 0 210 49" fill="none" xmlns="http://www.w3.org/2000/svg">
<g clip-path="url(#clip0_4_1711)">
<path d="M103.285 12.3247L98.1884 5.50342C98.0644 5.33809 98.1917 5.10448 98.4009 5.11522L143.833 7.44563C144.135 7.46111 144.351 7.74446 144.276 8.03486L143.871 9.63583C143.832 9.78774 143.756 9.9259 143.65 10.0422L115.979 40.1299C115.842 40.2785 115.942 40.5153 116.146 40.5258L133.619 41.422C133.912 41.437 134.196 41.3214 134.395 41.1084L137.064 38.2487C137.17 38.1357 137.353 38.1468 137.445 38.2682L142.499 45.0314C142.621 45.1966 142.496 45.427 142.288 45.4163L96.8368 43.0849C96.5332 43.0694 96.3191 42.7844 96.3941 42.4957L96.7936 40.9435C96.8323 40.7933 96.9082 40.6551 97.012 40.542L124.827 10.4093C124.963 10.2607 124.864 10.0239 124.659 10.0135L107.305 9.12329C107.01 9.10816 106.724 9.222 106.526 9.43505L103.669 12.3461C103.562 12.4589 103.379 12.4478 103.287 12.3248L103.285 12.3247ZM21.8427 26.6597L8.07436 26.8464L8.85223 11.6815L19.4873 12.227L19.7987 6.15671L1.9592 5.24166L0.54319 32.8474L21.5354 32.6508L21.8426 26.6614L21.8427 26.6597ZM15.0575 21.4717L22.7765 21.8677L22.1016 35.0237L29.306 35.3932L30.8201 5.87649L23.6157 5.50695L23.0879 15.7956L15.3689 15.3997L15.0575 21.4717ZM31.3904 34.9928L61.2372 36.5238L61.54 30.6204L31.6932 29.0895L31.3904 34.9928ZM32.8448 23.4022C39.6354 23.5915 44.3689 20.9679 47.2339 17.5178C49.7309 21.2446 54.1694 24.337 60.9763 24.8451L61.2659 19.1998C54.4889 18.3432 51.0728 13.3906 51.2553 9.83172L51.3955 7.09931L44.1911 6.72977L44.0509 9.46217C43.8685 13.0194 39.9636 17.5964 33.1344 17.7569L32.8448 23.4022ZM62.8807 24.6012L69.5687 24.9443L68.9109 27.0396C66.4077 27.3239 64.3622 29.3819 64.2256 32.0434C64.0761 34.9597 66.2749 37.4569 69.1447 37.6041L86.7852 38.509C89.6652 38.6567 92.1171 36.3896 92.2672 33.4632C92.4173 30.5368 90.2102 28.0307 87.3302 27.883L75.4824 27.2752L76.0922 25.2772L84.1492 25.6905L84.4001 20.7991L63.1299 19.7081L62.879 24.5994L62.8807 24.6012ZM64.1749 13.3845C64.0239 16.3278 66.3157 18.8585 69.2763 19.0104L77.6146 19.4381C80.5769 19.59 83.1464 17.3103 83.2974 14.3654C83.4485 11.4205 81.1307 8.79535 78.1683 8.6434L69.83 8.21569C66.8677 8.06374 64.3308 10.3451 64.1749 13.3845ZM70.2514 13.5795C70.2841 12.9436 70.7287 12.4896 71.245 12.516L76.4802 12.7846C76.9965 12.8111 77.3923 13.31 77.3598 13.9441C77.3273 14.5783 76.8841 15.0037 76.3677 14.9773L71.1326 14.7087C70.6162 14.6822 70.2188 14.2154 70.2514 13.5795ZM70.8203 32.1957C70.8446 31.7217 71.1817 31.4532 71.5677 31.473L84.9473 32.1593C85.3658 32.1808 85.6411 32.4807 85.6168 32.9547C85.5925 33.4286 85.288 33.6988 84.8694 33.6773L71.4898 32.991C71.1039 32.9712 70.796 32.6696 70.8203 32.1957ZM84.9392 27.0856L92.3152 27.4639L93.2582 9.0792L85.8823 8.70086L84.9392 27.0856ZM148.343 18.1618L152.632 18.3818L152.545 20.0651C152.146 27.8474 150.941 31.736 147.191 33.9315L146.857 40.4319C150.291 39.2061 152.891 37.1715 154.741 33.9535C156.253 37.3456 158.663 39.6356 161.952 41.2062L162.285 34.7058C158.78 32.1364 157.978 28.1466 158.377 20.3643L158.464 18.681L162.752 18.9009L163.029 13.5036L148.62 12.7645L148.343 18.1618ZM159.66 28.889L164.12 29.1177L163.445 42.2738L169.106 42.5641L170.62 13.0474L164.959 12.757L164.397 23.7204L159.937 23.4916L159.66 28.889ZM170.478 42.6345L176.31 42.9337L177.824 13.4169L171.992 13.1178L170.478 42.6345ZM178.394 42.5333L208.241 44.0642L208.527 38.4982L178.68 36.9672L178.394 42.5333ZM180.798 19.1501L208.586 20.5755L208.846 15.5155L181.057 14.0901L180.798 19.1501ZM208.171 28.6715L187.587 27.6157L187.682 25.7603L208.266 26.8162L208.517 21.9248L180.729 20.4995L180.106 32.6435L207.894 34.0689L208.171 28.6715Z" fill="#FD780F"/>
</g>
<defs>
<clipPath id="clip0_4_1711">
<rect width="208" height="38" fill="white" transform="translate(2.21875 0.181641) rotate(2.93636)"/>
</clipPath>
</defs>
</svg>
