<svg width="161" height="30" viewBox="0 0 161 30" fill="none" xmlns="http://www.w3.org/2000/svg">
<path d="M78.6082 5.48667L74.3977 0.314667C74.2953 0.189333 74.3844 0 74.5466 0H109.759C109.993 0 110.171 0.214667 110.125 0.446667L109.875 1.72533C109.851 1.84667 109.798 1.95867 109.721 2.05467L89.5232 26.896C89.4235 27.0187 89.5099 27.2013 89.6681 27.2013H103.21C103.438 27.2013 103.653 27.0987 103.798 26.9227L105.748 24.56C105.825 24.4667 105.968 24.468 106.043 24.56L110.218 29.688C110.319 29.8133 110.231 30 110.07 30H74.8431C74.6077 30 74.4309 29.784 74.4775 29.5533L74.7247 28.3133C74.7487 28.1933 74.8018 28.0813 74.8776 27.988L95.1841 3.10533C95.2838 2.98267 95.1974 2.8 95.0392 2.8H81.5889C81.3602 2.8 81.1435 2.90133 80.9986 3.07733L78.906 5.488C78.8275 5.58133 78.6853 5.58 78.6095 5.48667H78.6082ZM16.2197 20.0827L5.58381 20.7867V8.79867H13.8266V4H0V25.8227L16.2197 24.8187V20.084V20.0827ZM10.7688 16.2667H16.7514V26.6667H22.3353V3.33333H16.7514V11.4667H10.7688V16.2667ZM23.9306 26.2667H47.0636V21.6H23.9306V26.2667ZM24.5954 17.0693C29.8521 16.944 33.4072 14.684 35.4851 11.848C37.5631 14.6853 41.1168 16.944 46.3988 17.0693V12.6067C41.1261 12.2053 38.289 8.43867 38.289 5.62533V3.46533H32.7052V5.62533C32.7052 8.43733 29.8681 12.204 24.5954 12.6067V17.0693ZM47.8613 16.8H53.0449L52.6195 18.4787C50.6957 18.804 49.1961 20.5093 49.1961 22.6133C49.1961 24.9187 50.9949 26.7987 53.2191 26.7987H66.8914C69.1236 26.7987 70.9291 24.912 70.9291 22.5987C70.9291 20.2853 69.1236 18.3987 66.8914 18.3987H57.7087L58.1009 16.7987H64.3455V12.932H47.8599V16.7987L47.8613 16.8ZM48.417 7.904C48.417 10.2307 50.2889 12.1333 52.5836 12.1333H59.0462C61.3422 12.1333 63.238 10.232 63.238 7.904C63.238 5.576 61.3422 3.6 59.0462 3.6H52.5836C50.2876 3.6 48.417 5.50133 48.417 7.904ZM53.122 7.812C53.122 7.30933 53.4477 6.93333 53.8479 6.93333H57.9055C58.3057 6.93333 58.6314 7.31067 58.6314 7.812C58.6314 8.31333 58.3057 8.66667 57.9055 8.66667H53.8479C53.4477 8.66667 53.122 8.31467 53.122 7.812ZM54.2999 22.4667C54.2999 22.092 54.5499 21.8667 54.849 21.8667H65.219C65.5434 21.8667 65.768 22.092 65.768 22.4667C65.768 22.8413 65.5434 23.0667 65.219 23.0667H54.849C54.5499 23.0667 54.2999 22.8413 54.2999 22.4667ZM65.0116 17.8667H70.7283V3.33333H65.0116V17.8667ZM113.671 8.26667H116.994V9.59733C116.994 15.7493 116.216 18.864 113.405 20.7467V25.8853C116.01 24.78 117.939 23.0707 119.242 20.4587C120.545 23.072 122.5 24.78 125.104 25.8853V20.7467C122.292 18.8627 121.514 15.7493 121.514 9.59733V8.26667H124.838V4H113.671V8.26667ZM122.844 16.2667H126.301V26.6667H130.688V3.33333H126.301V12H122.844V16.2667ZM131.751 26.6667H136.272V3.33333H131.751V26.6667ZM137.867 26.2667H161V21.8667H137.867V26.2667ZM138.798 7.73333H160.335V3.73333H138.798V7.73333ZM160.335 14.1333H144.382V12.6667H160.335V8.8H138.798V18.4H160.335V14.1333Z" fill="#FD780F"/>
</svg>
