<svg width="116" height="178" viewBox="0 0 116 178" fill="none" xmlns="http://www.w3.org/2000/svg">
<mask id="path-1-outside-1_94_3228" maskUnits="userSpaceOnUse" x="11.1228" y="9.54442" width="110.568" height="140.414" fill="black">
<rect fill="white" x="11.1228" y="9.54442" width="110.568" height="140.414"/>
<path d="M38.9355 120.098C39.9223 116.146 41.8763 113.329 44.7976 111.646C47.8029 109.985 51.4077 109.679 55.612 110.729C59.8162 111.779 62.8016 113.775 64.5681 116.717C66.4397 119.596 66.8925 122.97 65.9267 126.838C64.9609 130.706 62.9753 133.47 59.97 135.132C57.0277 136.898 53.4545 137.257 49.2502 136.207C45.046 135.157 42.008 133.192 40.1365 130.313C38.349 127.455 37.9486 124.05 38.9355 120.098ZM47.2193 90.1425C48.521 84.9293 50.1279 80.9981 52.04 78.3491C53.973 75.616 56.8732 73.6603 60.7405 72.4821C63.8091 71.6404 66.6571 70.7883 69.2843 69.9258C72.0166 69.0001 74.1078 68.1377 75.558 67.3386C77.9328 66.0557 79.6456 64.7415 80.6962 63.3959C81.8519 61.9873 82.7131 60.1478 83.28 57.8775C83.9939 55.0186 83.5518 52.4964 81.9537 50.3108C80.4606 48.0621 78.2426 46.5703 75.2996 45.8354C72.3567 45.1006 69.5295 45.1539 66.8182 45.9955C64.191 46.858 62.184 48.4561 60.7974 50.7897C59.2427 53.4386 57.1307 55.2784 54.4615 56.3092C51.8974 57.2768 49.0597 57.3722 45.9486 56.5954C42.5852 55.7555 39.9678 54.0747 38.0963 51.5528C36.2458 48.9469 35.793 45.752 36.7378 41.9682C38.0185 36.839 40.8655 32.5922 45.2787 29.2278C49.7129 25.7793 55.0513 23.5392 61.2939 22.5075C67.6205 21.4967 74.1473 21.8312 80.8741 23.5109C91.8051 26.2403 99.8781 31.1146 105.093 38.1338C110.308 45.1529 111.614 53.8757 109.01 64.3023C107.939 68.5906 106.5 72.2064 104.694 75.1497C102.908 78.0089 100.554 80.4583 97.633 82.4981C93.619 85.3369 87.2088 88.292 78.4024 91.3633C76.4478 92.0365 75.0187 92.9303 74.1152 94.0446C73.2957 95.1799 72.655 96.6725 72.1931 98.5223L70.0515 107.099L44.5738 100.737L47.2193 90.1425Z"/>
</mask>
<path d="M38.9355 120.098C39.9223 116.146 41.8763 113.329 44.7976 111.646C47.8029 109.985 51.4077 109.679 55.612 110.729C59.8162 111.779 62.8016 113.775 64.5681 116.717C66.4397 119.596 66.8925 122.97 65.9267 126.838C64.9609 130.706 62.9753 133.47 59.97 135.132C57.0277 136.898 53.4545 137.257 49.2502 136.207C45.046 135.157 42.008 133.192 40.1365 130.313C38.349 127.455 37.9486 124.05 38.9355 120.098ZM47.2193 90.1425C48.521 84.9293 50.1279 80.9981 52.04 78.3491C53.973 75.616 56.8732 73.6603 60.7405 72.4821C63.8091 71.6404 66.6571 70.7883 69.2843 69.9258C72.0166 69.0001 74.1078 68.1377 75.558 67.3386C77.9328 66.0557 79.6456 64.7415 80.6962 63.3959C81.8519 61.9873 82.7131 60.1478 83.28 57.8775C83.9939 55.0186 83.5518 52.4964 81.9537 50.3108C80.4606 48.0621 78.2426 46.5703 75.2996 45.8354C72.3567 45.1006 69.5295 45.1539 66.8182 45.9955C64.191 46.858 62.184 48.4561 60.7974 50.7897C59.2427 53.4386 57.1307 55.2784 54.4615 56.3092C51.8974 57.2768 49.0597 57.3722 45.9486 56.5954C42.5852 55.7555 39.9678 54.0747 38.0963 51.5528C36.2458 48.9469 35.793 45.752 36.7378 41.9682C38.0185 36.839 40.8655 32.5922 45.2787 29.2278C49.7129 25.7793 55.0513 23.5392 61.2939 22.5075C67.6205 21.4967 74.1473 21.8312 80.8741 23.5109C91.8051 26.2403 99.8781 31.1146 105.093 38.1338C110.308 45.1529 111.614 53.8757 109.01 64.3023C107.939 68.5906 106.5 72.2064 104.694 75.1497C102.908 78.0089 100.554 80.4583 97.633 82.4981C93.619 85.3369 87.2088 88.292 78.4024 91.3633C76.4478 92.0365 75.0187 92.9303 74.1152 94.0446C73.2957 95.1799 72.655 96.6725 72.1931 98.5223L70.0515 107.099L44.5738 100.737L47.2193 90.1425Z" fill="#FD780F"/>
<path d="M44.7976 111.646L43.3461 109.021C43.3308 109.029 43.3156 109.038 43.3004 109.047L44.7976 111.646ZM64.5681 116.717L61.9961 118.261C62.0144 118.292 62.0333 118.322 62.0528 118.352L64.5681 116.717ZM59.97 135.132L58.5185 132.506C58.4873 132.523 58.4564 132.541 58.4258 132.56L59.97 135.132ZM40.1365 130.313L37.5929 131.904C37.6022 131.919 37.6116 131.934 37.6212 131.948L40.1365 130.313ZM52.04 78.3491L54.4725 80.1049C54.4781 80.0971 54.4837 80.0892 54.4893 80.0814L52.04 78.3491ZM60.7405 72.4821L59.947 69.5889C59.9199 69.5964 59.893 69.6042 59.8662 69.6123L60.7405 72.4821ZM69.2843 69.9258L70.2201 72.7761C70.229 72.7732 70.238 72.7702 70.2469 72.7672L69.2843 69.9258ZM75.558 67.3386L74.1321 64.6991C74.1247 64.7031 74.1174 64.7071 74.11 64.7111L75.558 67.3386ZM80.6962 63.3959L78.3768 61.4931C78.3615 61.5118 78.3464 61.5306 78.3316 61.5497L80.6962 63.3959ZM81.9537 50.3108L79.4544 51.9702C79.4794 52.0079 79.5053 52.045 79.532 52.0815L81.9537 50.3108ZM66.8182 45.9955L65.9289 43.1303C65.9134 43.1351 65.8979 43.1401 65.8824 43.1452L66.8182 45.9955ZM60.7974 50.7897L58.2184 49.2572C58.2156 49.2618 58.2128 49.2665 58.2101 49.2712L60.7974 50.7897ZM54.4615 56.3092L55.5207 59.116C55.5279 59.1133 55.535 59.1105 55.5422 59.1078L54.4615 56.3092ZM38.0963 51.5528L35.6503 53.2898C35.6624 53.3069 35.6747 53.3238 35.6872 53.3406L38.0963 51.5528ZM45.2787 29.2278L47.0975 31.6136C47.1052 31.6078 47.1128 31.6019 47.1204 31.596L45.2787 29.2278ZM61.2939 22.5075L60.8206 19.545C60.8153 19.5459 60.81 19.5467 60.8047 19.5476L61.2939 22.5075ZM105.093 38.1338L102.685 39.9229L105.093 38.1338ZM104.694 75.1497L107.238 76.7389C107.242 76.7324 107.246 76.7258 107.25 76.7192L104.694 75.1497ZM97.633 82.4981L95.9155 80.0384C95.9105 80.0418 95.9056 80.0453 95.9007 80.0487L97.633 82.4981ZM78.4024 91.3633L79.3793 94.1999L79.3904 94.196L78.4024 91.3633ZM74.1152 94.0446L71.7849 92.1551C71.7496 92.1987 71.7155 92.2433 71.6826 92.2888L74.1152 94.0446ZM70.0515 107.099L69.3247 110.01C70.9322 110.411 72.5608 109.433 72.9622 107.826L70.0515 107.099ZM44.5738 100.737L41.6631 100.01C41.2618 101.618 42.2395 103.246 43.847 103.648L44.5738 100.737ZM41.8461 120.825C42.6797 117.486 44.2231 115.439 46.2948 114.246L43.3004 109.047C39.5295 111.218 37.1648 114.806 36.0248 119.371L41.8461 120.825ZM46.249 114.272C48.4292 113.067 51.2162 112.723 54.8852 113.64L56.3388 107.818C51.5993 106.635 47.1767 106.903 43.3461 109.021L46.249 114.272ZM54.8852 113.64C58.531 114.55 60.7399 116.169 61.9961 118.261L67.1401 115.173C64.8633 111.381 61.1015 109.008 56.3388 107.818L54.8852 113.64ZM62.0528 118.352C63.3963 120.419 63.8157 122.909 63.0161 126.111L68.8374 127.565C69.9694 123.031 69.483 118.774 67.0834 115.082L62.0528 118.352ZM63.0161 126.111C62.2165 129.313 60.6759 131.314 58.5185 132.506L61.4214 137.757C65.2747 135.627 67.7053 132.098 68.8374 127.565L63.0161 126.111ZM58.4258 132.56C56.3336 133.816 53.6228 134.206 49.977 133.296L48.5234 139.117C53.2861 140.307 57.7218 139.981 61.5142 137.704L58.4258 132.56ZM49.977 133.296C46.308 132.38 44.0094 130.767 42.6518 128.678L37.6212 131.948C40.0067 135.618 43.7839 137.934 48.5234 139.117L49.977 133.296ZM42.68 128.723C41.4124 126.696 41.0125 124.163 41.8461 120.825L36.0248 119.371C34.8848 123.937 35.2856 128.215 37.5929 131.904L42.68 128.723ZM50.1299 90.8693C51.3911 85.8184 52.882 82.3084 54.4725 80.1049L49.6074 76.5933C47.3738 79.6878 45.6509 84.0401 44.3086 89.4157L50.1299 90.8693ZM54.4893 80.0814C55.9632 77.9975 58.2479 76.3776 61.6148 75.3519L59.8662 69.6123C55.4985 70.943 51.9829 73.2344 49.5907 76.6168L54.4893 80.0814ZM61.534 75.3752C64.6435 74.5224 67.5394 73.6562 70.2201 72.7761L68.3485 67.0755C65.7747 67.9205 62.9748 68.7585 59.947 69.5889L61.534 75.3752ZM70.2469 72.7672C73.0433 71.8198 75.3276 70.8909 77.0059 69.966L74.11 64.7111C72.8881 65.3845 70.9899 66.1805 68.3217 67.0844L70.2469 72.7672ZM76.9838 69.9781C79.5347 68.6001 81.6503 67.0487 83.0608 65.2422L78.3316 61.5497C77.6408 62.4343 76.331 63.5113 74.1321 64.6991L76.9838 69.9781ZM83.0155 65.2987C84.5211 63.4635 85.5457 61.1873 86.1907 58.6043L80.3694 57.1507C79.8806 59.1082 79.1826 60.511 78.3768 61.4931L83.0155 65.2987ZM86.1907 58.6043C87.0986 54.9682 86.5495 51.5134 84.3753 48.54L79.532 52.0815C80.554 53.4793 80.8892 55.069 80.3694 57.1507L86.1907 58.6043ZM84.4529 48.6513C82.4938 45.7006 79.5988 43.8168 76.0264 42.9248L74.5728 48.7461C76.8864 49.3238 78.4275 50.4235 79.4544 51.9702L84.4529 48.6513ZM76.0264 42.9248C72.5887 42.0664 69.2007 42.1148 65.9289 43.1303L67.7075 48.8606C69.8583 48.1931 72.1246 48.1347 74.5728 48.7461L76.0264 42.9248ZM65.8824 43.1452C62.5803 44.2293 59.983 46.2875 58.2184 49.2572L63.3764 52.3222C64.3851 50.6247 65.8017 49.4868 67.754 48.8458L65.8824 43.1452ZM58.2101 49.2712C56.9716 51.3814 55.3696 52.7426 53.3808 53.5106L55.5422 59.1078C58.8918 57.8143 61.5138 55.4958 63.3847 52.3082L58.2101 49.2712ZM53.4023 53.5024C51.5013 54.2198 49.2979 54.3396 46.6754 53.6847L45.2218 59.506C48.8216 60.4048 52.2935 60.3338 55.5207 59.116L53.4023 53.5024ZM46.6754 53.6847C43.9111 52.9945 41.9193 51.6703 40.5054 49.765L35.6872 53.3406C38.0162 56.479 41.2592 58.5165 45.2218 59.506L46.6754 53.6847ZM40.5423 49.8159C39.3093 48.0795 38.8648 45.8335 39.6484 42.695L33.8272 41.2414C32.7212 45.6706 33.1823 49.8143 35.6503 53.2898L40.5423 49.8159ZM39.6484 42.695C40.7555 38.2613 43.1971 34.5871 47.0975 31.6136L43.4599 26.842C38.534 30.5973 35.2816 35.4168 33.8272 41.2414L39.6484 42.695ZM47.1204 31.596C51.1124 28.4914 55.9703 26.428 61.7831 25.4673L60.8047 19.5476C54.1323 20.6504 48.3134 23.0673 43.437 26.8597L47.1204 31.596ZM61.7671 25.4699C67.6625 24.5281 73.7803 24.8317 80.1473 26.4215L81.6008 20.6002C74.5142 18.8307 67.5785 18.4654 60.8206 19.545L61.7671 25.4699ZM80.1473 26.4215C90.6024 29.0321 97.9908 33.6048 102.685 39.9229L107.501 36.3446C101.765 28.6245 93.0078 23.4485 81.6008 20.6002L80.1473 26.4215ZM102.685 39.9229C107.242 46.0574 108.54 53.8014 106.099 63.5755L111.921 65.029C114.687 53.95 113.373 44.2484 107.501 36.3446L102.685 39.9229ZM106.099 63.5755C105.083 67.6453 103.746 70.9593 102.137 73.5801L107.25 76.7192C109.255 73.4535 110.795 69.5359 111.921 65.029L106.099 63.5755ZM102.149 73.5604C100.589 76.0574 98.5243 78.2167 95.9155 80.0384L99.3505 84.9578C102.584 82.7 105.226 79.9603 107.238 76.7389L102.149 73.5604ZM95.9007 80.0487C92.2373 82.6397 86.1481 85.4847 77.4145 88.5307L79.3904 94.196C88.2696 91.0992 95.0008 88.0341 99.3652 84.9474L95.9007 80.0487ZM77.4255 88.5269C75.1617 89.3065 73.1653 90.4528 71.7849 92.1551L76.4454 95.934C76.8721 95.4077 77.7339 94.7665 79.3793 94.1998L77.4255 88.5269ZM71.6826 92.2888C70.5749 93.8235 69.8055 95.7008 69.2825 97.7955L75.1037 99.2491C75.5045 97.6441 76.0165 96.5363 76.5477 95.8004L71.6826 92.2888ZM69.2825 97.7955L67.1409 106.372L72.9622 107.826L75.1037 99.2491L69.2825 97.7955ZM70.7783 104.188L45.3006 97.8266L43.847 103.648L69.3247 110.01L70.7783 104.188ZM47.4844 101.464L50.1299 90.8693L44.3086 89.4157L41.6631 100.01L47.4844 101.464Z" fill="black" mask="url(#path-1-outside-1_94_3228)"/>
<mask id="path-3-outside-2_94_3228" maskUnits="userSpaceOnUse" x="7.12275" y="3.54442" width="110.568" height="140.414" fill="black">
<rect fill="white" x="7.12275" y="3.54442" width="110.568" height="140.414"/>
<path d="M34.9355 114.098C35.9223 110.146 37.8763 107.329 40.7976 105.646C43.8029 103.985 47.4077 103.679 51.612 104.729C55.8162 105.779 58.8016 107.775 60.5681 110.717C62.4397 113.596 62.8925 116.97 61.9267 120.838C60.9609 124.706 58.9753 127.47 55.97 129.132C53.0277 130.898 49.4545 131.257 45.2502 130.207C41.046 129.157 38.008 127.192 36.1365 124.313C34.349 121.455 33.9486 118.05 34.9355 114.098ZM43.2193 84.1425C44.521 78.9293 46.1279 74.9981 48.04 72.3491C49.973 69.616 52.8732 67.6603 56.7405 66.4821C59.8091 65.6404 62.6571 64.7883 65.2843 63.9258C68.0166 63.0001 70.1078 62.1377 71.558 61.3386C73.9328 60.0557 75.6456 58.7415 76.6962 57.3959C77.8519 55.9873 78.7131 54.1478 79.28 51.8775C79.9939 49.0186 79.5518 46.4964 77.9537 44.3108C76.4606 42.0621 74.2426 40.5703 71.2996 39.8354C68.3567 39.1006 65.5295 39.1539 62.8182 39.9955C60.191 40.858 58.184 42.4561 56.7974 44.7897C55.2427 47.4386 53.1307 49.2784 50.4615 50.3092C47.8974 51.2768 45.0597 51.3722 41.9486 50.5954C38.5852 49.7555 35.9678 48.0747 34.0963 45.5528C32.2458 42.9469 31.793 39.752 32.7378 35.9682C34.0185 30.839 36.8655 26.5922 41.2787 23.2278C45.7129 19.7793 51.0513 17.5392 57.2939 16.5075C63.6205 15.4967 70.1473 15.8312 76.8741 17.5109C87.8051 20.2403 95.8781 25.1146 101.093 32.1338C106.308 39.1529 107.614 47.8757 105.01 58.3023C103.939 62.5906 102.5 66.2064 100.694 69.1497C98.9077 72.0089 96.5542 74.4583 93.633 76.4981C89.619 79.3369 83.2088 82.292 74.4024 85.3633C72.4478 86.0365 71.0187 86.9303 70.1152 88.0446C69.2957 89.1799 68.655 90.6725 68.1931 92.5223L66.0515 101.099L40.5738 94.7372L43.2193 84.1425Z"/>
</mask>
<path d="M34.9355 114.098C35.9223 110.146 37.8763 107.329 40.7976 105.646C43.8029 103.985 47.4077 103.679 51.612 104.729C55.8162 105.779 58.8016 107.775 60.5681 110.717C62.4397 113.596 62.8925 116.97 61.9267 120.838C60.9609 124.706 58.9753 127.47 55.97 129.132C53.0277 130.898 49.4545 131.257 45.2502 130.207C41.046 129.157 38.008 127.192 36.1365 124.313C34.349 121.455 33.9486 118.05 34.9355 114.098ZM43.2193 84.1425C44.521 78.9293 46.1279 74.9981 48.04 72.3491C49.973 69.616 52.8732 67.6603 56.7405 66.4821C59.8091 65.6404 62.6571 64.7883 65.2843 63.9258C68.0166 63.0001 70.1078 62.1377 71.558 61.3386C73.9328 60.0557 75.6456 58.7415 76.6962 57.3959C77.8519 55.9873 78.7131 54.1478 79.28 51.8775C79.9939 49.0186 79.5518 46.4964 77.9537 44.3108C76.4606 42.0621 74.2426 40.5703 71.2996 39.8354C68.3567 39.1006 65.5295 39.1539 62.8182 39.9955C60.191 40.858 58.184 42.4561 56.7974 44.7897C55.2427 47.4386 53.1307 49.2784 50.4615 50.3092C47.8974 51.2768 45.0597 51.3722 41.9486 50.5954C38.5852 49.7555 35.9678 48.0747 34.0963 45.5528C32.2458 42.9469 31.793 39.752 32.7378 35.9682C34.0185 30.839 36.8655 26.5922 41.2787 23.2278C45.7129 19.7793 51.0513 17.5392 57.2939 16.5075C63.6205 15.4967 70.1473 15.8312 76.8741 17.5109C87.8051 20.2403 95.8781 25.1146 101.093 32.1338C106.308 39.1529 107.614 47.8757 105.01 58.3023C103.939 62.5906 102.5 66.2064 100.694 69.1497C98.9077 72.0089 96.5542 74.4583 93.633 76.4981C89.619 79.3369 83.2088 82.292 74.4024 85.3633C72.4478 86.0365 71.0187 86.9303 70.1152 88.0446C69.2957 89.1799 68.655 90.6725 68.1931 92.5223L66.0515 101.099L40.5738 94.7372L43.2193 84.1425Z" fill="#FFFCA9"/>
<path d="M40.7976 105.646L39.3461 103.021C39.3308 103.029 39.3156 103.038 39.3004 103.047L40.7976 105.646ZM60.5681 110.717L57.9961 112.261C58.0144 112.292 58.0333 112.322 58.0528 112.352L60.5681 110.717ZM55.97 129.132L54.5185 126.506C54.4873 126.523 54.4564 126.541 54.4258 126.56L55.97 129.132ZM36.1365 124.313L33.5929 125.904C33.6022 125.919 33.6116 125.934 33.6212 125.948L36.1365 124.313ZM48.04 72.3491L50.4725 74.1049C50.4781 74.0971 50.4837 74.0892 50.4893 74.0814L48.04 72.3491ZM56.7405 66.4821L55.947 63.5889C55.9199 63.5964 55.893 63.6042 55.8662 63.6123L56.7405 66.4821ZM65.2843 63.9258L66.2201 66.7761C66.229 66.7732 66.238 66.7702 66.2469 66.7672L65.2843 63.9258ZM71.558 61.3386L70.1321 58.6991C70.1247 58.7031 70.1174 58.7071 70.11 58.7111L71.558 61.3386ZM76.6962 57.3959L74.3768 55.4931C74.3615 55.5118 74.3464 55.5306 74.3316 55.5497L76.6962 57.3959ZM77.9537 44.3108L75.4544 45.9702C75.4794 46.0079 75.5053 46.045 75.532 46.0815L77.9537 44.3108ZM62.8182 39.9955L61.9289 37.1303C61.9134 37.1351 61.8979 37.1401 61.8824 37.1452L62.8182 39.9955ZM56.7974 44.7897L54.2184 43.2572C54.2156 43.2618 54.2128 43.2665 54.2101 43.2712L56.7974 44.7897ZM50.4615 50.3092L51.5207 53.116C51.5279 53.1133 51.535 53.1105 51.5422 53.1078L50.4615 50.3092ZM34.0963 45.5528L31.6503 47.2898C31.6624 47.3069 31.6747 47.3238 31.6872 47.3406L34.0963 45.5528ZM41.2787 23.2278L43.0975 25.6136C43.1052 25.6078 43.1128 25.6019 43.1204 25.596L41.2787 23.2278ZM57.2939 16.5075L56.8206 13.545C56.8153 13.5459 56.81 13.5467 56.8047 13.5476L57.2939 16.5075ZM101.093 32.1338L98.6848 33.9229L101.093 32.1338ZM100.694 69.1497L103.238 70.7389C103.242 70.7324 103.246 70.7258 103.25 70.7192L100.694 69.1497ZM93.633 76.4981L91.9155 74.0384C91.9105 74.0418 91.9056 74.0453 91.9007 74.0487L93.633 76.4981ZM74.4024 85.3633L75.3793 88.1999L75.3904 88.196L74.4024 85.3633ZM70.1152 88.0446L67.7849 86.1551C67.7496 86.1987 67.7155 86.2433 67.6826 86.2888L70.1152 88.0446ZM66.0515 101.099L65.3247 104.01C66.9322 104.411 68.5608 103.433 68.9622 101.826L66.0515 101.099ZM40.5738 94.7372L37.6631 94.0104C37.2618 95.6179 38.2395 97.2465 39.847 97.6479L40.5738 94.7372ZM37.8461 114.825C38.6797 111.486 40.2231 109.439 42.2948 108.246L39.3004 103.047C35.5295 105.218 33.1648 108.806 32.0248 113.371L37.8461 114.825ZM42.249 108.272C44.4292 107.067 47.2162 106.723 50.8852 107.64L52.3388 101.818C47.5993 100.635 43.1767 100.903 39.3461 103.021L42.249 108.272ZM50.8852 107.64C54.531 108.55 56.7399 110.169 57.9961 112.261L63.1401 109.173C60.8633 105.381 57.1015 103.008 52.3388 101.818L50.8852 107.64ZM58.0528 112.352C59.3963 114.419 59.8157 116.909 59.0161 120.111L64.8374 121.565C65.9694 117.031 65.483 112.774 63.0834 109.082L58.0528 112.352ZM59.0161 120.111C58.2165 123.313 56.6759 125.314 54.5185 126.506L57.4214 131.757C61.2747 129.627 63.7053 126.098 64.8374 121.565L59.0161 120.111ZM54.4258 126.56C52.3336 127.816 49.6228 128.206 45.977 127.296L44.5234 133.117C49.2861 134.307 53.7218 133.981 57.5142 131.704L54.4258 126.56ZM45.977 127.296C42.308 126.38 40.0094 124.767 38.6518 122.678L33.6212 125.948C36.0067 129.618 39.7839 131.934 44.5234 133.117L45.977 127.296ZM38.68 122.723C37.4124 120.696 37.0125 118.163 37.8461 114.825L32.0248 113.371C30.8848 117.937 31.2856 122.215 33.5929 125.904L38.68 122.723ZM46.1299 84.8693C47.3911 79.8184 48.882 76.3084 50.4725 74.1049L45.6074 70.5933C43.3738 73.6878 41.6509 78.0401 40.3086 83.4157L46.1299 84.8693ZM50.4893 74.0814C51.9632 71.9975 54.2479 70.3776 57.6148 69.3519L55.8662 63.6123C51.4985 64.943 47.9829 67.2344 45.5907 70.6168L50.4893 74.0814ZM57.534 69.3752C60.6435 68.5224 63.5394 67.6562 66.2201 66.7761L64.3485 61.0755C61.7747 61.9205 58.9748 62.7585 55.947 63.5889L57.534 69.3752ZM66.2469 66.7672C69.0433 65.8198 71.3276 64.8909 73.0059 63.966L70.11 58.7111C68.8881 59.3845 66.9899 60.1805 64.3217 61.0844L66.2469 66.7672ZM72.9838 63.9781C75.5347 62.6001 77.6503 61.0487 79.0608 59.2422L74.3316 55.5497C73.6408 56.4343 72.331 57.5113 70.1321 58.6991L72.9838 63.9781ZM79.0155 59.2987C80.5211 57.4635 81.5457 55.1873 82.1907 52.6043L76.3694 51.1507C75.8806 53.1082 75.1826 54.511 74.3768 55.4931L79.0155 59.2987ZM82.1907 52.6043C83.0986 48.9682 82.5495 45.5134 80.3753 42.54L75.532 46.0815C76.554 47.4793 76.8892 49.069 76.3694 51.1507L82.1907 52.6043ZM80.4529 42.6513C78.4938 39.7006 75.5988 37.8168 72.0264 36.9248L70.5728 42.7461C72.8864 43.3238 74.4275 44.4235 75.4544 45.9702L80.4529 42.6513ZM72.0264 36.9248C68.5887 36.0664 65.2007 36.1148 61.9289 37.1303L63.7075 42.8606C65.8583 42.1931 68.1246 42.1347 70.5728 42.7461L72.0264 36.9248ZM61.8824 37.1452C58.5803 38.2293 55.983 40.2875 54.2184 43.2572L59.3764 46.3222C60.3851 44.6247 61.8017 43.4868 63.754 42.8458L61.8824 37.1452ZM54.2101 43.2712C52.9716 45.3814 51.3696 46.7426 49.3808 47.5106L51.5422 53.1078C54.8918 51.8143 57.5138 49.4958 59.3847 46.3082L54.2101 43.2712ZM49.4023 47.5024C47.5013 48.2198 45.2979 48.3396 42.6754 47.6847L41.2218 53.506C44.8216 54.4048 48.2935 54.3338 51.5207 53.116L49.4023 47.5024ZM42.6754 47.6847C39.9111 46.9945 37.9193 45.6703 36.5054 43.765L31.6872 47.3406C34.0162 50.479 37.2592 52.5165 41.2218 53.506L42.6754 47.6847ZM36.5423 43.8159C35.3093 42.0795 34.8648 39.8335 35.6484 36.695L29.8272 35.2414C28.7212 39.6706 29.1823 43.8143 31.6503 47.2898L36.5423 43.8159ZM35.6484 36.695C36.7555 32.2613 39.1971 28.5871 43.0975 25.6136L39.4599 20.842C34.534 24.5973 31.2816 29.4168 29.8272 35.2414L35.6484 36.695ZM43.1204 25.596C47.1124 22.4914 51.9703 20.428 57.7831 19.4673L56.8047 13.5476C50.1323 14.6504 44.3134 17.0673 39.437 20.8597L43.1204 25.596ZM57.7671 19.4699C63.6625 18.5281 69.7803 18.8317 76.1473 20.4215L77.6008 14.6002C70.5142 12.8307 63.5785 12.4654 56.8206 13.545L57.7671 19.4699ZM76.1473 20.4215C86.6024 23.0321 93.9908 27.6048 98.6848 33.9229L103.501 30.3446C97.7654 22.6245 89.0078 17.4485 77.6008 14.6002L76.1473 20.4215ZM98.6848 33.9229C103.242 40.0574 104.54 47.8014 102.099 57.5755L107.921 59.029C110.687 47.95 109.373 38.2484 103.501 30.3446L98.6848 33.9229ZM102.099 57.5755C101.083 61.6453 99.7458 64.9593 98.1369 67.5801L103.25 70.7192C105.255 67.4535 106.795 63.5359 107.921 59.029L102.099 57.5755ZM98.1491 67.5604C96.5895 70.0574 94.5243 72.2167 91.9155 74.0384L95.3505 78.9578C98.584 76.7 101.226 73.9603 103.238 70.7389L98.1491 67.5604ZM91.9007 74.0487C88.2373 76.6397 82.1481 79.4847 73.4145 82.5307L75.3904 88.196C84.2696 85.0992 91.0008 82.0341 95.3652 78.9474L91.9007 74.0487ZM73.4255 82.5269C71.1617 83.3065 69.1653 84.4528 67.7849 86.1551L72.4454 89.934C72.8721 89.4077 73.7339 88.7665 75.3793 88.1998L73.4255 82.5269ZM67.6826 86.2888C66.5749 87.8235 65.8055 89.7008 65.2825 91.7955L71.1037 93.2491C71.5045 91.6441 72.0165 90.5363 72.5477 89.8004L67.6826 86.2888ZM65.2825 91.7955L63.1409 100.372L68.9622 101.826L71.1037 93.2491L65.2825 91.7955ZM66.7783 98.1884L41.3006 91.8266L39.847 97.6479L65.3247 104.01L66.7783 98.1884ZM43.4844 95.464L46.1299 84.8693L40.3086 83.4157L37.6631 94.0104L43.4844 95.464Z" fill="black" mask="url(#path-3-outside-2_94_3228)"/>
</svg>
