<svg width="50" height="37" viewBox="0 0 50 37" fill="none" xmlns="http://www.w3.org/2000/svg">
<g clip-path="url(#clip0_100_366)">
<path d="M2.09568 26.6652C2.09568 26.6652 2.05403 26.6243 2.03157 26.5981C2.1035 26.5953 2.13429 26.6067 2.09568 26.6652Z" fill="white"/>
<path d="M1.1722 26.2369C1.4223 26.2791 1.81879 26.3601 2.03055 26.6036C1.79685 26.6195 1.1374 26.8235 1.1722 26.2369Z" fill="white"/>
<path d="M1.96155 27.6016L1.68115 27.3724C1.89591 27.254 1.80734 27.5173 1.96155 27.6016Z" fill="white"/>
<path d="M1.94682 27.0438L2.00738 26.8411L2.13333 27.0738L1.94682 27.0438Z" fill="white"/>
<path d="M18.2787 28.0332C18.264 27.937 18.262 27.8323 18.3021 27.7081L18.2787 28.0332Z" fill="white"/>
<path d="M18.8178 29.1251C18.8753 29.169 18.92 29.194 18.9551 29.2116C18.9097 29.2195 18.8766 29.1912 18.8178 29.1251Z" fill="white"/>
<path d="M17.6054 27.9929L17.7376 27.9906C17.6892 28.0143 17.6448 28.0169 17.6054 27.9929Z" fill="white"/>
<path d="M9.44238 27.252C9.35505 27.0761 9.26469 26.916 9.19805 26.8045C9.46153 26.6899 9.41713 27.0384 9.44238 27.252Z" fill="white"/>
<path d="M21.547 32.8191L21.6111 32.6555C21.6288 32.7358 21.6305 32.813 21.547 32.8191Z" fill="white"/>
<path d="M18.4472 31.9655C18.4654 31.8701 18.4795 31.7959 18.5055 31.7459C18.5131 31.7638 18.527 31.7775 18.5346 31.7954L18.4472 31.9655Z" fill="white"/>
<path d="M17.031 28.2412L16.9359 28.1352C17.0002 28.1145 17.026 28.1524 17.031 28.2412Z" fill="white"/>
<path d="M22.5139 33.2503C22.5381 33.3538 22.5636 33.4794 22.5704 33.6455C22.4902 33.5478 22.4727 33.3798 22.5139 33.2503Z" fill="white"/>
<path d="M17.4438 31.582C17.4917 31.6186 17.5407 31.6499 17.5919 31.6981C17.516 31.7221 17.4667 31.6633 17.4438 31.582Z" fill="white"/>
<path d="M9.44244 27.2521C9.46617 27.3005 9.49519 27.35 9.51892 27.3984C9.47122 27.3894 9.44951 27.3303 9.44244 27.2521Z" fill="white"/>
<path d="M3.00473 26.4491C3.10543 26.4683 3.10443 26.5889 3.10242 26.7148C3.06052 26.6465 3.02165 26.5622 3.00473 26.4491Z" fill="white"/>
<path d="M39.5811 32.7431L39.6235 32.7511C39.6235 32.7511 39.5896 32.7557 39.5811 32.7431Z" fill="white"/>
<path d="M35.8094 31.5527C35.8006 31.5126 35.7875 31.4662 35.7817 31.4101C35.8216 31.3738 35.8286 31.452 35.8094 31.5527Z" fill="white"/>
<path d="M31.4676 34.9439C31.7684 34.7485 31.9322 35.3015 32.1455 35.3641L32.1106 35.1432L32.2999 35.3605L32.3564 35.0637C32.6949 35.2765 33.2049 35.0495 33.2466 35.5518L33.295 35.0667L33.6093 35.522L33.4482 35.1563C33.902 35.1383 34.4928 35.6408 34.5893 35.6537L34.5865 35.4664C34.6725 35.3894 34.7086 35.5171 34.7717 35.5895L34.7639 35.3134C35.4069 35.5128 35.7022 34.9429 36.3791 35.3684C36.5926 35.3431 36.2839 35.2624 36.3132 35.1087C36.4649 34.9179 36.6809 35.1677 36.7107 35.2997C36.7321 34.8699 36.4005 34.9386 36.6973 34.6491C36.8222 34.8871 36.6597 34.241 36.935 34.3813L36.9444 34.9378C37.1258 34.879 37.0559 34.5251 37.3055 34.6276C37.4178 35.4387 36.6953 35.6856 37.1519 35.8549C37.3974 35.8632 37.8915 34.7106 38.2971 35.0899C38.7481 34.8847 38.2489 34.2184 38.7738 34.4612L38.4906 34.0448C38.61 33.9082 38.6074 33.6331 38.8195 33.7888C38.8543 34.0097 38.9522 34.3029 39.0734 34.3589C38.637 33.8529 39.6452 33.8362 39.2628 33.2197L39.439 33.2752C39.439 33.2752 39.4266 33.196 39.4443 33.1609L39.6899 33.1692C39.5637 33.0243 39.2293 32.9057 39.4629 32.5438L39.8256 32.514C39.792 32.2001 39.9424 32.1024 39.9666 31.8599L39.0644 31.0894C39.0671 31.2767 39.1933 31.4215 39.106 31.5916C38.8065 31.6939 38.9503 31.2269 38.6495 31.4223L38.7154 31.682C38.7113 31.5879 38.6846 31.5553 38.7436 31.5336C38.863 31.3971 38.8658 31.5843 38.8375 31.7327C38.6899 32.0177 38.4748 31.7625 38.44 31.5417C38.1043 31.5162 38.2682 32.0692 38.1768 32.1451C38.1031 31.6093 37.7584 31.5284 37.6014 31.2568L37.6713 31.6106C37.3475 31.9554 37.1865 31.5897 37.0603 31.4449L37.0671 31.7263C36.7274 31.6067 36.3809 32.4744 36.3019 31.4762L36.3047 31.6635C36.1454 31.721 35.8908 31.8757 35.8065 31.5686C35.7853 31.6799 35.7325 31.8127 35.6672 31.8387C35.6626 31.4588 35.4564 31.7052 35.2376 31.7294C35.3573 31.851 35.224 32.32 35.3459 32.4585C34.9245 32.8835 35.1501 31.872 34.8788 31.8258C34.668 32.0383 34.9767 32.1191 34.9795 32.3064C34.6102 31.9669 33.9014 33.2379 33.818 32.2335L34.0558 31.9657C33.9255 31.7267 33.8354 31.7096 33.8395 31.8037C33.8985 31.782 33.9026 31.8761 33.9013 31.9692C33.2997 32.36 33.2448 31.1193 32.6944 31.2122C32.6972 31.3994 32.7603 31.4719 32.732 31.6203C32.4635 31.7614 32.6797 30.6547 32.2285 30.9477L32.2633 31.1685C32.1129 31.2662 32.0793 30.9523 32.1063 30.897C31.9423 31.7006 31.3088 30.7012 30.843 31.7054C30.7423 31.2249 30.2779 30.7795 30.0671 30.992C29.7421 31.4299 30.1719 31.5667 29.996 32C29.8105 31.9647 29.8042 31.5076 29.4993 31.6089C29.5851 31.1584 30.2135 30.8002 29.7479 30.4479L29.6272 30.6776C29.6863 30.6559 29.7776 30.5799 29.8407 30.6523C29.9387 30.9456 29.6931 30.9373 29.6381 31.0531L29.1132 30.8104C29.1669 30.3263 29.4743 30.5002 29.5293 30.3843C29.0755 30.4023 28.4123 31.0009 28.0711 30.6009L28.0739 30.7882C27.6375 30.2822 27.6052 31.6052 27.3435 30.759C27.103 30.8395 27.3261 31.2829 26.9904 31.2574C26.9003 31.2403 26.9877 31.0702 27.0147 31.0149C26.6441 30.7686 26.7477 31.4364 26.4614 30.9205L26.4451 31.4392C26.0718 31.0056 25.7739 30.0317 25.3509 30.1764C25.2975 30.5726 25.543 30.5809 25.5766 30.8949C25.1914 30.0911 24.3483 30.5676 23.9439 30.0952C24.1506 29.7885 23.8687 29.279 24.2286 29.0619C24.2122 29.5806 24.4178 29.2792 24.5721 29.3635C24.517 28.2106 23.3571 29.6869 23.4603 28.7124L23.3167 29.0915C23.2536 29.0191 23.1246 28.687 23.275 28.5893L22.6976 28.7375C22.8266 29.0696 23.0843 29.8216 23.2923 29.4219C23.3619 29.8635 23.0225 29.6561 23.0641 30.1583C22.8385 29.4398 22.7944 30.3925 22.4559 30.1798C22.7335 29.645 22.2419 29.3427 22.3092 29.0754C22.1671 29.1582 21.9526 28.8427 21.8882 28.6328C21.6863 28.5394 21.1119 28.9024 20.8101 28.6417C20.904 28.8408 21.06 29.1176 20.9817 29.4707C20.8568 29.2327 20.6703 29.2027 20.5588 29.6153C21.0017 30.4906 20.9322 28.6924 21.3737 29.2872C21.4153 29.7894 21.5362 29.9333 21.7846 30.1289C21.6059 30.3749 21.641 30.5079 21.5254 30.8264C21.3833 29.7559 20.6648 30.5582 20.3198 29.9763C20.1908 29.6441 20.454 29.0407 20.0512 28.8487L20.4754 28.6109C20.0255 28.8108 20.4418 28.2969 20.1291 28.1221L20.1991 28.4759C19.9856 28.5011 19.9225 28.4287 19.8566 28.169L19.9303 28.7048C19.8122 28.7482 19.5987 28.7735 19.6499 28.4757C19.6002 28.5925 19.5704 28.6912 19.5543 28.776C19.5492 28.6872 19.5063 28.6241 19.3761 28.6158C19.4392 28.6882 19.4982 28.6665 19.47 28.8149C19.0109 28.6011 19.2494 29.3386 18.9617 29.2344C18.9872 29.36 18.8752 29.487 18.7517 29.5294C18.9137 28.7364 18.3403 28.5174 18.2651 28.0472C18.2631 28.0578 17.9208 27.6631 17.9208 27.6631C17.9882 27.7419 17.862 27.943 17.724 28.0046C17.5895 28.1053 17.7301 28.8955 17.3866 28.5939L17.2296 28.3224C17.2616 28.3559 17.2013 28.4708 17.1733 28.5313L17.008 28.2747C16.5434 28.9551 16.4835 27.7409 16.0386 28.0297C16.1567 27.9863 16.3152 28.0769 16.1956 28.3012C16.1043 28.3772 16.0101 28.2659 15.9793 28.1392L15.9834 28.2333L15.3617 27.6042C15.3685 27.8856 15.7683 27.9782 15.5296 28.2513C15.355 28.5915 15.2209 28.1706 15.0988 28.1198C15.155 27.9109 15.4278 27.7761 15.2115 27.6141C15.1606 27.7087 14.8913 27.8826 14.9733 28.0575C14.7709 27.7938 14.44 27.599 14.2881 27.1856C14.202 27.2626 14.2909 27.3728 14.3229 27.4064L14.3499 27.3511C14.4761 27.496 14.2682 27.8958 14.6011 27.734C14.4911 28.427 14.146 27.845 13.8735 27.892L14.1864 28.4404C13.3178 29.2526 12.5967 28.0498 11.9203 27.91C12.1621 27.7364 12.288 27.9691 12.3688 27.4297C11.9995 27.0903 12.0303 27.217 11.6318 27.0313L11.6639 27.0648C11.3941 27.2991 11.1982 26.7126 10.9643 27.1623C11.0032 27.4773 11.3242 26.9452 11.2154 27.5451L10.6945 27.3965C10.7912 27.7829 11.2154 27.5451 11.4007 27.6683C11.5551 27.6647 11.1253 27.528 11.2679 27.1542C11.7567 27.2693 11.7944 27.6774 11.9312 28.2856C11.9999 28.7325 11.6332 28.6682 11.5431 28.651C11.3484 27.9714 10.9428 27.5921 10.4018 27.7802L10.0447 28.1845C9.87959 27.7247 10.14 26.9339 9.68093 26.9509L9.75085 27.3047C9.63123 27.4137 9.55956 27.444 9.51186 27.435C9.64993 27.7194 9.80415 28.0343 9.9243 28.3263C9.54299 28.9732 9.2744 27.8456 8.93494 27.6382C8.93898 27.7323 9.06114 27.783 9.06493 27.965C8.48775 28.0253 8.07279 27.0895 7.66998 26.8975C7.43226 27.1653 7.98143 27.1655 7.81085 27.5999C7.62156 27.3826 7.29677 27.7326 7.31819 27.3028C7.30056 27.9146 6.80133 27.2484 7.11936 27.8856C6.26961 27.9929 5.49477 27.2742 4.74846 26.7806C4.75125 26.9678 4.72299 27.1162 4.66268 27.2311C4.93929 27.2782 5.30979 27.5245 5.37947 27.9662C5.14175 28.234 5.03318 27.4774 4.94587 27.6475C5.00771 27.813 5.19422 27.843 5.13771 28.1398C4.84093 28.4293 4.79825 27.9324 4.64505 27.8428L4.76441 27.7063C4.32802 27.2003 4.68132 26.614 4.10515 26.6691C3.83512 26.9911 4.04863 26.9659 3.96285 27.4163C3.86895 27.2172 3.35741 27.6251 3.31574 27.1229L3.6514 27.1483C3.44242 26.9767 3.22513 26.9354 3.0954 26.7514C3.09313 26.8498 3.08985 26.9535 3.13049 26.9997C2.97224 26.8213 2.73298 26.8087 2.6941 26.4937L2.54926 26.9659C2.70093 26.7751 3.03659 26.8006 3.03913 27.0757C2.9276 27.4883 2.64316 27.1651 2.494 27.1696C3.11007 27.4242 2.97206 28.1778 3.57221 27.9681L3.51036 27.8025C3.91818 27.5067 4.14865 28.1712 4.44847 28.2118C4.3455 28.2911 4.29529 28.4682 4.31725 28.5548C5.04509 28.3089 5.63291 28.712 6.42259 28.6317L6.55537 29.1457L6.63989 28.7884C7.03587 28.699 6.62251 29.3123 6.86277 29.3196C6.77267 29.3024 6.79968 29.2472 6.80093 29.154C7.14722 29.6429 7.10301 28.8656 7.314 29.0266C7.27638 28.6185 6.88445 28.802 7.08834 28.3081C7.43463 28.7969 8.13421 28.6994 8.02801 29.5744C8.87801 29.3793 9.74496 30.1046 10.3923 30.3102C10.5117 30.1737 10.3572 30.1772 10.4165 30.0677C10.5804 30.6206 11.3576 29.8844 11.2772 30.3359C11.4276 30.2382 11.5431 29.9197 11.5981 29.8039C11.7211 30.0525 11.9023 30.1968 12.1032 30.2955L11.9727 30.1443L11.9997 30.0891L12.189 30.3063C12.6781 30.5642 13.3141 30.57 13.6993 31.1431C13.4792 30.7992 13.8711 30.6157 13.7772 30.4165C13.8858 31.1732 14.4647 31.3054 14.9559 31.322C14.9841 31.1736 15.0444 31.0588 15.0083 30.9311L15.2284 31.275L15.2256 31.0878C15.7438 31.0491 16.1277 31.9461 16.5146 31.6737C16.3293 31.5506 16.3576 31.4022 16.3818 31.1596C16.7338 31.2431 17.0604 31.3163 17.4324 31.6123C17.4193 31.5659 17.4135 31.5099 17.4236 31.4569C17.5417 31.4135 17.6399 31.6189 17.7351 31.7249L17.8196 31.3675C18.0003 31.5722 18.3049 31.4434 18.4995 31.7771C18.6749 31.4041 19.0341 32.2578 19.3569 32.149C19.451 32.2603 19.1971 31.6902 19.5004 31.7699C19.3945 32.5571 19.8992 31.8678 19.7609 32.7093L20.0898 32.4534L20.0683 32.8832C20.4509 32.1432 20.3515 33.2996 20.7425 33.1214C20.7437 33.0282 20.7127 32.9894 20.7397 32.9341C20.8338 33.0454 21.0781 33.1468 20.8416 33.3215C21.0271 33.3568 21.6109 33.6657 21.4138 33.1723C21.3896 33.4148 21.1735 33.165 21.0794 33.0537C21.1639 32.6963 21.4122 32.8919 21.5558 32.5128C21.5594 32.5519 21.5791 32.6216 21.5945 32.6849L21.6739 32.4694C21.9427 32.9325 22.347 32.7129 22.4982 33.2744C22.5353 33.1662 22.6098 33.0925 22.7213 33.1412L22.6356 33.5917L23.0086 33.6517L22.9631 32.9675C23.3901 32.917 23.5297 33.7125 23.8371 33.8864C24.0642 33.1552 24.4239 34.2947 24.8373 33.6814L24.6213 33.4316C25.1462 33.6743 25.3168 33.24 25.7824 33.5922C25.3004 33.7586 25.3234 33.6092 24.5713 34.0976C25.2669 33.906 25.5877 34.7305 26.2524 34.4122C26.2496 34.2249 26.1224 34.0854 26.3008 33.9271C26.3385 34.3352 26.8541 34.0215 26.6782 34.4548C26.8876 34.3354 26.9992 33.9228 27.1226 33.8804L27.6208 34.5519L27.6221 34.4588C28.8534 33.6168 29.4117 35.53 30.5343 35.2879L30.5585 35.0454L30.7506 35.45C30.5936 35.1784 30.8982 35.165 30.9535 34.9613L31.5161 35.6122C31.5723 35.4032 31.6261 34.9192 31.4436 34.9833L31.4676 34.9439ZM22.7703 33.0571L22.6174 32.9951C22.5815 33.0102 22.5487 33.0094 22.5207 32.9547L22.6174 32.9951C22.708 32.9519 22.8079 32.7732 22.7703 33.0571ZM8.46234 29.399C8.4275 29.1782 8.58575 29.3566 8.6448 29.3349L8.4005 29.2335C8.34019 29.3483 8.4366 29.3612 8.46764 29.4L8.46234 29.399ZM23.3233 30.1527L23.471 29.8678L23.5368 30.1275L23.3233 30.1527ZM25.5587 30.5564L25.3694 30.3391L25.4017 30.2849L25.5857 30.5011L25.5587 30.5564ZM27.5662 33.4541C27.5662 33.4541 27.5458 33.4172 27.5349 33.3877C27.5488 33.4013 27.5554 33.4246 27.5662 33.4541C27.6945 33.7037 27.8663 33.1762 27.9095 33.7282C27.6498 34.14 27.6316 33.6588 27.5662 33.4541ZM23.6496 32.7083C23.5865 32.6359 23.5544 32.6023 23.4964 32.6187C23.4991 32.806 23.5971 33.0992 23.479 33.1426C23.4441 32.9218 23.1998 32.8204 23.2521 32.5173C23.4131 32.883 23.7326 32.0705 23.6496 32.7083ZM18.443 31.4972L18.5073 31.4765L18.3503 31.2049L18.4483 31.4982L18.443 31.4972ZM17.5475 31.0081C17.5099 30.6 17.2052 30.6134 17.02 30.4903C16.9044 30.8088 17.0322 31.234 17.2777 31.2424C17.4978 31.5863 17.4806 30.7537 17.5475 31.0081ZM25.4715 32.4566L25.4636 32.1805L25.5227 32.1588L25.3334 31.9415C25.6945 31.6313 25.7657 32.3533 25.8919 32.4982C25.7698 32.4475 25.5388 31.728 25.4662 32.4556L25.4715 32.4566ZM15.5539 30.4308C15.3969 30.1593 15.0867 29.7981 15.17 29.5339C15.0572 30.0397 15.3096 30.3294 15.3997 30.3465C15.4588 30.3248 15.4898 30.3637 15.5529 30.4361L15.5539 30.4308ZM15.7472 29.4735C15.9943 29.7622 15.9701 30.0048 16.1029 30.5189C15.77 30.6807 15.8156 30.0083 15.9042 29.7451C15.7472 29.4735 15.7217 29.8092 15.6046 29.8473L15.7482 29.4682L15.7472 29.4735ZM15.7768 30.9621L15.9118 30.9164C16.0953 30.7316 16.2371 30.16 16.3232 30.775L15.9118 30.9164C15.871 30.958 15.8278 30.9827 15.7768 30.9621ZM13.3078 30.459L13.3964 30.6571C13.2828 30.619 13.282 30.5364 13.3078 30.459L13.2353 30.2914C13.5357 30.1563 13.3636 30.3103 13.3078 30.459ZM15.2251 30.6867L15.5648 30.8064C15.589 30.5638 15.3485 30.6443 15.2251 30.6867ZM13.4731 30.0236C13.6275 30.0201 14.0222 30.0238 13.9632 30.0455C13.8746 30.3088 13.5402 30.1902 13.4731 30.0236ZM5.93167 27.8352L6.14392 27.9031L5.96929 28.2433L5.93167 27.8352ZM8.55791 28.0607L8.4706 28.2308L8.34845 28.18L8.55791 28.0607ZM10.9363 28.4916C10.9106 28.5691 10.8977 28.6655 10.9028 28.7543C10.9338 28.7932 10.9565 28.8469 10.9583 28.9241C10.9265 28.9181 10.9068 28.8484 10.9028 28.7543C10.8225 28.6566 10.6714 28.6718 10.5866 28.771C10.5893 28.9582 10.7448 28.9494 10.7746 29.0814C10.4766 29.464 10.2322 28.0939 10.1369 29.3444C10.075 29.1788 9.82388 28.796 9.97025 28.6042C10.2062 28.7205 10.7021 28.6831 10.9363 28.4916C10.959 28.43 10.9903 28.381 11.0348 28.3785C11.0161 28.4189 10.9762 28.4552 10.9363 28.4916ZM14.186 28.8467C14.27 28.8957 14.3 28.9398 14.3142 28.981C14.3765 29.0862 14.4086 29.2351 14.3498 29.3997C14.1925 29.216 14.3354 29.1004 14.3142 28.981C14.2766 28.9189 14.2369 28.8674 14.186 28.8467ZM14.7672 28.8805L14.5201 28.5918L14.618 28.8851L14.273 28.3031C14.5738 28.1077 14.798 28.5459 14.7725 28.8815L14.7672 28.8805ZM14.9176 28.6675L14.9204 28.9701L14.8868 28.6561C14.9176 28.6675 14.9138 28.6009 14.9138 28.6009L15.3744 28.8643L14.9113 28.6718L14.9176 28.6675ZM19.8544 30.2282C20.2317 29.2565 19.5561 29.4299 19.5535 28.9241C19.4677 29.2593 19.177 29.7477 19.6613 29.8289C19.178 30.0884 19.5258 29.1276 19.1162 29.9228C19.3297 29.8976 19.5178 30.208 19.5498 30.2416L19.3095 30.2342C19.323 30.8849 19.7338 29.9965 19.8587 30.2345L19.8544 30.2282ZM22.4214 30.5632L22.729 30.6492L22.4537 30.5089L22.4267 30.5642L22.4214 30.5632ZM30.1293 31.7618C30.1535 31.5192 30.638 31.1666 30.6424 31.6343C30.4288 31.6595 30.2156 31.597 30.1293 31.7618ZM33.4064 32.4627L33.095 32.1947C33.2668 31.6672 33.4036 32.2754 33.5851 32.2166C33.5919 32.498 33.4937 32.2926 33.4064 32.4627ZM35.6728 32.9052L35.7669 33.0165L35.7523 32.459L35.6665 32.9095L35.6728 32.9052ZM35.6606 32.1615C35.775 31.9361 35.5587 31.7741 35.4996 31.7958L35.6606 32.1615ZM37.7952 32.0846L37.6461 32.0892L37.6878 32.5914L37.8005 32.0856L37.7952 32.0846ZM37.4561 32.5967C37.4889 32.2514 37.5926 31.7934 37.21 31.9567C37.1254 32.3141 37.2166 32.3259 37.0139 32.7267C37.1091 32.8327 37.2274 32.7014 37.2865 32.6797C37.2234 32.6073 37.104 32.7439 37.1282 32.5013C37.2817 32.3877 37.3998 32.4597 37.4498 32.601C37.4372 32.7249 37.4382 32.8349 37.4695 32.9013C37.4907 32.79 37.4833 32.6843 37.4498 32.601L37.4561 32.5967ZM36.1707 32.7419C36.1203 32.7762 36.0688 32.8158 36.0418 32.8711L36.0377 32.777C36.1147 32.6324 36.1447 32.6765 36.1707 32.7419C36.2275 32.7033 36.2939 32.672 36.3592 32.646C36.4539 32.3509 36.2653 32.1008 36.2393 31.9201C36.3345 32.0261 36.3681 32.3401 36.5508 32.1882C36.5467 32.094 36.579 32.0398 36.4889 32.0226L36.7024 31.9973C36.8496 32.4647 36.6081 32.5506 36.3645 32.647C36.3461 32.7149 36.3171 32.7807 36.2606 32.8469C36.2207 32.8832 36.203 32.803 36.176 32.7429L36.1707 32.7419ZM37.5074 34.2475L37.547 33.6191C37.5109 33.4914 37.5712 33.3765 37.5725 33.2834C37.6946 33.3341 37.6901 34.0955 37.5074 34.2475ZM31.0636 32.5658C31.155 32.4898 31.053 32.1024 30.8715 32.1612L31.0474 31.7279C30.9909 32.0247 31.3266 32.0502 31.3576 32.089C31.3362 32.5188 31.2433 32.3144 31.0636 32.5658ZM23.4443 31.1039C23.494 30.5258 23.0107 30.7852 22.9488 30.6197C23.1893 30.5391 23.7075 30.5005 23.4443 31.1039ZM22.6748 31.1936C22.5592 31.1661 22.5173 31.213 22.5877 30.9299C22.5569 30.8032 22.4333 30.9334 22.4025 30.8067C22.6725 30.6 22.5708 31.0475 22.6748 31.1936C22.7066 31.1996 22.7374 31.211 22.7757 31.2403C22.725 31.2471 22.6962 31.2251 22.6748 31.1936ZM27.123 32.09L27.1927 32.5317L27.4382 32.54L27.124 32.0847L27.123 32.09ZM29.5237 33.327C29.5479 33.0845 29.8245 33.1317 29.8553 33.2584C29.8989 32.9426 29.7064 32.9444 29.5693 32.8854C29.5532 32.8548 29.5297 32.8339 29.482 32.8248C29.5045 32.8511 29.5342 32.8677 29.5693 32.8854C29.6082 32.9697 29.5408 33.1216 29.5196 33.2329L29.4283 33.3089L29.6135 33.432L29.5194 33.3207L29.5237 33.327ZM33.9355 34.5296C34.1463 34.3171 34.145 34.4102 34.2402 34.5162C34.1798 34.631 34.0307 34.6356 33.9355 34.5296ZM28.1207 33.34C28.4256 33.2388 28.079 32.8378 28.2885 32.7184L28.1393 32.7229C28.4361 32.4334 28.236 33.1093 28.4185 33.0452L28.2951 33.0876C28.1528 33.3736 28.4253 33.3266 28.3958 33.5681C28.2454 33.6658 27.993 33.3761 28.1164 33.3337L28.1207 33.34ZM34.1569 34.7805C34.4857 34.5245 34.3179 35.1461 34.4711 35.2357C34.2013 35.4699 34.3421 34.9036 34.1569 34.7805ZM29.6739 34.5859L29.6469 34.6412L29.8309 34.8574L29.8579 34.8022L29.6686 34.5849L29.6739 34.5859Z" fill="white"/>
<path d="M35.0912 31.6907C35.1672 31.6667 35.2086 31.6801 35.2406 31.7136C35.1899 31.7204 35.1412 31.7166 35.0912 31.6907Z" fill="white"/>
<path d="M22.4094 28.9248C22.3889 29.0033 22.3544 29.0407 22.3175 29.0611C22.3266 29.0134 22.3569 28.9698 22.4094 28.9248Z" fill="white"/>
<path d="M3.23848 26.0869C3.20085 25.6788 3.36188 26.0445 3.45198 26.0617C3.36188 26.0445 3.27332 26.3078 3.23848 26.0869Z" fill="white"/>
<path d="M3.83716 26.8652C3.80636 26.7385 3.74099 26.6492 3.65695 26.6002C3.71726 26.6008 3.7738 26.65 3.83716 26.8652Z" fill="white"/>
<path d="M3.28012 26.5888C3.43305 26.5355 3.55798 26.5429 3.65162 26.5991C3.55849 26.5979 3.45073 26.7311 3.28012 26.5888Z" fill="white"/>
<path d="M5.79077 27.1328C5.72489 26.8731 5.48337 26.9589 5.48337 26.9589C5.99745 26.8262 5.47274 26.4956 5.46995 26.3083C5.7506 26.4496 5.69409 26.7464 5.79077 27.1328Z" fill="white"/>
<path d="M6.39299 27.3742C6.34529 27.3651 6.29558 27.3666 6.25141 27.3966C6.31021 27.3474 6.35362 27.3502 6.39299 27.3742Z" fill="white"/>
<path d="M6.61751 27.1751C6.77071 27.2647 6.77855 27.5408 6.81339 27.7616C6.57566 27.9141 6.5345 27.4669 6.39922 27.3697C6.51683 27.3866 6.62308 27.4343 6.61751 27.1751Z" fill="white"/>
<path d="M11.9116 26.86C11.8806 26.8212 11.7895 26.8093 11.8125 26.6599L12.0881 26.7124C12.1842 26.8131 11.9707 26.8383 11.9116 26.86Z" fill="white"/>
<path d="M12.7857 27.7782C12.998 27.846 12.9603 27.4379 13.0555 27.5439L12.9427 28.0497L12.7857 27.7782Z" fill="white"/>
<path d="M12.168 30.33L12.1145 30.2649C12.1145 30.2649 12.1602 30.2846 12.1857 30.2949L12.169 30.3247L12.168 30.33Z" fill="white"/>
<path d="M13.9363 27.4757L13.8959 26.8803C14.0541 27.0587 13.9683 27.5092 13.9363 27.4757Z" fill="white"/>
<path d="M14.8464 27.2532L14.7525 27.0541L15.123 27.3004L14.8464 27.2532Z" fill="white"/>
<path d="M15.7999 27.7259L15.8602 27.6111L16.1085 27.8066L15.7999 27.7259Z" fill="white"/>
<path d="M26.6759 30.3135C26.6275 30.7985 26.2259 30.5134 26.0745 30.6163C26.2786 30.0346 26.3859 30.8843 26.6759 30.3135Z" fill="white"/>
<path d="M34.663 31.834L34.2655 31.643C34.6241 31.519 34.3556 31.6601 34.663 31.834Z" fill="white"/>
</g>
<g clip-path="url(#clip1_100_366)">
<path d="M29.2871 3.29778C29.2871 3.29778 29.2887 3.25086 29.2923 3.2224C29.337 3.24837 29.348 3.26889 29.2871 3.29778Z" fill="white"/>
<path d="M29.0135 2.6164C29.1355 2.74554 29.3196 2.96092 29.2884 3.22625C29.1386 3.14706 28.6131 3.04298 29.0135 2.6164Z" fill="white"/>
<path d="M28.6014 3.94824L28.5824 3.66695C28.7872 3.66186 28.564 3.82486 28.6014 3.94824Z" fill="white"/>
<path d="M28.9536 3.52421L29.1209 3.39574L29.0454 3.61946L28.9536 3.52421Z" fill="white"/>
<path d="M38.0585 10.6348C38.112 10.5569 38.1786 10.4775 38.2829 10.4L38.0585 10.6348Z" fill="white"/>
<path d="M37.6738 11.6641C37.6797 11.7195 37.6902 11.7557 37.6997 11.7826C37.6676 11.7708 37.6661 11.7367 37.6738 11.6641Z" fill="white"/>
<path d="M37.6828 10.3423L37.7632 10.3922C37.7189 10.3911 37.6907 10.3757 37.6828 10.3423Z" fill="white"/>
<path d="M33.2917 6.60254C33.3535 6.43648 33.4032 6.28118 33.4356 6.17149C33.667 6.18823 33.4149 6.43247 33.2917 6.60254Z" fill="white"/>
<path d="M36.9111 15.5004L37.0552 15.4027C37.0138 15.4698 36.9649 15.5284 36.9111 15.5004Z" fill="white"/>
<path d="M35.6141 13.6514C35.6867 13.5869 35.7431 13.5368 35.791 13.5094C35.7839 13.5258 35.7834 13.5414 35.7763 13.5578L35.6141 13.6514Z" fill="white"/>
<path d="M37.1798 10.3037L37.1916 10.1871C37.2434 10.1966 37.2343 10.2351 37.1798 10.3037Z" fill="white"/>
<path d="M37.2089 16.2009C37.1564 16.288 37.0902 16.3923 36.9868 16.5195C37.0021 16.4149 37.1005 16.282 37.2089 16.2009Z" fill="white"/>
<path d="M35.2634 12.9724C35.2683 13.0186 35.2773 13.0611 35.2766 13.1173C35.2158 13.1057 35.2245 13.0423 35.2634 12.9724Z" fill="white"/>
<path d="M33.2918 6.60252C33.2746 6.64814 33.2599 6.69657 33.2427 6.74219C33.2201 6.71677 33.2454 6.66399 33.2918 6.60252Z" fill="white"/>
<path d="M29.9699 3.49002C30.0176 3.54368 29.9389 3.63382 29.8562 3.72754C29.8755 3.65988 29.9068 3.58147 29.9699 3.49002Z" fill="white"/>
<path d="M47.7214 22.4762L47.7415 22.4988C47.7415 22.4988 47.7184 22.489 47.7214 22.4762Z" fill="white"/>
<path d="M46.2415 20.1123C46.2622 20.0787 46.2844 20.0388 46.3172 19.9945C46.3645 19.9827 46.3181 20.0442 46.2415 20.1123Z" fill="white"/>
<path d="M41.4552 20.9641C41.7612 20.9348 41.501 21.4137 41.5878 21.5438L41.7099 21.3645L41.6822 21.6013L41.9081 21.4007C41.9723 21.6923 42.4236 21.7209 42.1233 22.114L42.4662 21.7689L42.359 22.2331L42.4997 21.8958C42.7821 22.0593 42.8094 22.6668 42.8586 22.714L42.9781 22.5724C43.0793 22.5482 43.0182 22.6581 43.009 22.737L43.183 22.5268C43.4377 22.9271 43.9828 22.6146 44.1113 23.1978C44.2551 23.2622 44.1231 23.0812 44.2401 22.9773C44.4541 22.8932 44.4213 23.165 44.3536 23.2756C44.6446 22.9615 44.4023 22.8837 44.7668 22.7822C44.6873 23.0095 45.0085 22.4612 45.082 22.6739L44.7274 23.0952C44.8737 23.1218 45.061 22.829 45.1437 23.0032C45.1042 23.3162 44.5133 23.2197 44.6761 23.5248C44.8173 23.6268 45.8582 22.9545 45.8547 23.3973C45.5995 23.8068 45.7328 23.1122 45.889 23.499L45.9895 23.0761C46.1491 23.0202 46.3257 22.8128 46.3514 23.0123C46.2293 23.1916 46.0979 23.4498 46.1339 23.5391C46.201 22.9892 46.8135 23.3699 46.9844 22.7581L47.0536 22.8684C47.0536 22.8684 47.0975 22.8041 47.1308 22.7847L47.2719 22.8867C47.2904 22.7288 47.1676 22.5094 47.5413 22.3289L47.777 22.448C47.9602 22.1993 48.1132 22.1846 48.2847 22.0121L48.245 21.0821C48.1254 21.2237 48.1069 21.3816 47.9447 21.4752C47.6998 21.4351 48.0879 21.1408 47.7819 21.1701L47.6531 21.3907C47.7116 21.3185 47.7167 21.2836 47.766 21.2903C47.9256 21.2344 47.8061 21.376 47.6932 21.4764C47.4206 21.6326 47.4575 21.3573 47.5796 21.178C47.3958 21.028 47.1356 21.5068 47.0319 21.5282C47.3348 21.0974 46.7629 21.2417 46.845 20.9767L46.6577 21.2695C46.2413 21.402 46.3819 21.0647 46.4004 20.9068L46.2223 21.1207C46.097 20.8984 45.9858 21.0268 46.5847 20.247L46.4652 20.3886C46.3329 20.3697 46.0808 20.3865 46.2293 20.1231C46.1446 20.1984 46.0272 20.2775 45.9714 20.2715C46.2145 19.9847 45.932 20.0891 45.7858 20.022C45.7784 20.1599 45.3954 20.4599 45.3784 20.6114C44.8518 20.766 45.6412 20.0949 45.5092 19.9544C45.2459 20.0317 45.3778 20.2127 45.2582 20.3543C45.2576 19.9556 44.0119 20.633 44.6123 19.8467L44.9275 19.7385C45.0045 19.5083 44.9619 19.4603 44.9033 19.5325C44.9526 19.5393 44.8941 19.6115 44.8331 19.6809C44.2211 19.7395 44.9915 18.7871 44.6029 18.6422C44.4834 18.7838 44.4742 18.8627 44.3612 18.9631C44.1097 18.9642 44.9551 18.2181 44.4961 18.262L44.374 18.4413C44.221 18.456 44.4042 18.2073 44.4561 18.1763C43.838 18.7154 44.1069 17.7184 43.1789 18.2904C43.4298 17.8905 43.441 17.3752 43.1777 17.4525C42.7003 17.6543 42.8682 17.9246 42.4828 18.1812C42.3949 18.0823 42.687 17.7369 42.4396 17.6939C42.7824 17.3893 43.3892 17.3656 43.3394 16.9197L43.1187 17.045C43.168 17.0517 43.2717 17.0303 43.2625 17.1093C43.1311 17.3675 42.99 17.2655 42.8821 17.331L42.726 16.9441C43.0714 16.6018 43.1423 16.8522 43.2501 16.7867C42.9677 16.6232 42.1844 16.8139 42.2397 16.3807L42.1202 16.5223C42.1873 15.9724 41.3117 16.9526 41.7033 16.2155C41.5076 16.1822 41.3537 16.6019 41.1699 16.4519C41.1273 16.4039 41.2895 16.3103 41.3414 16.2794C41.2797 15.9501 40.9092 16.4915 41.0723 15.9928L40.7268 16.3756C40.7847 15.9047 41.2374 15.0577 40.8914 15.0013C40.603 15.2778 40.7442 15.3798 40.561 15.6285C40.8514 14.8751 40.0398 14.904 40.1044 14.3918C40.4262 14.2423 40.5878 13.75 40.943 13.7274C40.5975 14.1102 40.9154 13.9643 40.9528 14.0876C41.6662 13.201 40.0185 13.8566 40.7108 13.1655L40.3798 13.394C40.389 13.3151 40.527 13.0155 40.68 13.0009L40.2395 12.8869C40.1015 13.1865 39.7685 13.8513 40.1513 13.6324C39.907 13.991 39.8387 13.703 39.5385 14.0961C39.8689 13.4689 39.2259 14.1667 39.1616 13.8751C39.6735 13.582 39.5758 13.1634 39.789 12.9891C39.6506 12.9958 39.7268 12.6754 39.8243 12.4928C39.7643 12.344 39.1866 12.3924 39.1752 12.079C39.1023 12.2651 39.0162 12.5336 38.741 12.7681C38.8205 12.5408 38.7286 12.4455 38.3949 12.7117C38.0927 13.5412 39.2153 12.1647 39.0936 12.7832C38.7934 13.1764 38.7724 13.3314 38.794 13.5751C38.5281 13.69 38.4629 13.8035 38.1878 13.9975C38.796 13.1387 37.8479 13.4606 38.0187 12.8894C38.1567 12.5898 38.7044 12.2396 38.5884 11.9384L38.9954 11.9254C38.5975 11.9 39.1786 11.6767 39.1052 11.4236L38.9179 11.7164C38.7741 11.6521 38.7834 11.5731 38.9122 11.3525L38.6093 11.7834C38.5107 11.7699 38.367 11.7056 38.5903 11.5021C38.485 11.5704 38.4034 11.6328 38.3388 11.6901C38.3933 11.6215 38.4086 11.5574 38.3363 11.5004C38.327 11.5794 38.3763 11.5861 38.2634 11.6864C38.1278 11.347 37.7928 11.9934 37.6886 11.803C37.6224 11.9073 37.4734 11.9589 37.3723 11.9426C37.9822 11.4107 37.7819 11.0227 38.0413 10.6405C38.0333 10.6477 38.0845 10.2181 38.0845 10.2181C38.0738 10.3034 37.8683 10.4052 37.746 10.3976C37.6006 10.4207 37.173 11.0685 37.1632 10.7082L37.2453 10.4432C37.2427 10.4809 37.1324 10.5436 37.0765 10.5781L37.1439 10.3211C36.4262 10.6505 37.1765 9.71601 36.7241 9.7592C36.8227 9.77268 36.8586 9.90246 36.642 10.0242C36.5383 10.0456 36.5541 9.92535 36.6178 9.81827L36.5593 9.89049L36.5956 9.17597C36.4175 9.3898 36.5961 9.61517 36.2769 9.72701C35.9524 9.91423 36.1449 9.54607 36.1049 9.46037C36.2737 9.3255 36.5238 9.33073 36.4996 9.12481C36.4079 9.17595 36.1346 9.20145 36.0704 9.36468C36.1203 9.08785 36.049 8.81263 36.2259 8.44317C36.1247 8.46738 36.1063 8.58478 36.1037 8.62247L36.1556 8.59152C36.1372 8.74943 35.7543 8.96835 36.0577 8.97674C35.5434 9.45392 35.7142 8.88266 35.5212 8.81161L35.353 9.34519C34.3089 9.61597 34.6571 8.43218 34.344 8.06354C34.6007 8.02751 34.5252 8.25123 34.9225 7.87798C34.9219 7.47928 34.8583 7.58637 34.7407 7.2916L34.7381 7.32928C34.4255 7.39985 34.6883 6.88334 34.2575 7.12962C34.0769 7.38114 34.6128 7.10706 34.1596 7.51485L33.9449 7.20019C33.7525 7.52785 34.1596 7.51485 34.1904 7.6795C34.2849 7.73707 34.1169 7.46684 34.444 7.24194C34.6612 7.51891 34.4195 7.83982 34.1074 8.34959C33.8591 8.71178 33.6819 8.52051 33.6392 8.4725C33.963 7.88659 33.9665 7.4438 33.5219 7.37393L33.0471 7.53811C33.2463 7.12867 33.9135 6.63685 33.6286 6.47055L33.4413 6.76333C33.2993 6.79851 33.2369 6.7933 33.2144 6.76788C33.1126 7.03515 33.0008 7.33164 32.8835 7.59761C32.2372 7.93435 32.8068 6.98343 32.7386 6.6954C32.68 6.76762 32.7201 6.85331 32.6046 6.99134C32.2211 6.81157 32.5792 5.94752 32.4632 5.64634C32.148 5.7546 32.4755 5.96891 32.0926 6.22834C32.1203 5.99147 31.6998 6.12752 31.9909 5.81334C31.5843 6.26555 31.7177 5.57091 31.495 6.17312C30.9184 5.9223 30.9213 5.08081 30.7955 4.41938C30.6759 4.56099 30.563 4.66134 30.4527 4.724C30.5872 4.86726 30.6489 5.19656 30.4046 5.55516C30.0894 5.66342 30.5143 5.0533 30.3521 5.1469C30.2819 5.29525 30.3737 5.39051 30.1479 5.5912C29.7834 5.69272 30.0796 5.30317 30.0462 5.1762L30.2058 5.12028C30.2729 4.57041 30.8633 4.26821 30.4838 4.08485C30.1142 4.22123 30.258 4.28554 29.9151 4.59015C29.988 4.40411 29.4187 4.51072 29.719 4.11758L29.9028 4.26759C29.8892 4.05732 29.7863 3.94154 29.828 3.75289C29.7629 3.82587 29.6938 3.90243 29.6881 3.95293C29.7092 3.75733 29.5746 3.65458 29.7553 3.40306L29.3632 3.70094C29.5772 3.61689 29.761 3.76689 29.5844 3.97432C29.2508 4.24049 29.2903 3.88698 29.1984 3.83223C29.4012 4.26353 28.831 4.77524 29.3249 4.85184L29.3952 4.70349C29.83 4.64054 29.5374 5.22905 29.69 5.37645C29.5773 5.39577 29.4326 5.50914 29.3897 5.58267C29.9832 5.68198 30.073 6.21362 30.5962 6.46129L30.3427 6.89884L30.6245 6.66362C30.9186 6.75097 30.2749 7.05002 30.4136 7.14919C30.3709 7.10118 30.4228 7.07023 30.4839 7.00084C30.3741 7.5027 30.8509 6.90214 30.8725 7.10524C31.1143 6.78433 30.7616 6.7692 31.203 6.47806C31.0932 6.97992 31.5737 7.17958 30.944 7.79479C31.5775 7.9798 31.6253 8.86213 31.8785 9.26888C32.0381 9.21296 31.9437 9.15539 32.05 9.09632C31.7898 9.57514 32.7302 9.32575 32.3899 9.63319C32.5429 9.61854 32.818 9.42459 32.9258 9.35911C32.8383 9.59358 32.853 9.77257 32.909 9.92495L32.929 9.76063L32.9808 9.72968L32.9532 9.96655C33.0781 10.3508 33.4539 10.6031 33.3127 11.1834C33.404 10.8395 33.7567 10.8546 33.8296 10.6685C33.4046 11.2787 33.6645 11.6036 33.9468 11.8076C34.0597 11.7073 34.17 11.6446 34.2311 11.5347L34.1398 11.8787L34.2594 11.7371C34.5936 11.9101 34.2421 12.7329 34.6492 12.6794C34.6184 12.5147 34.7313 12.4144 34.9028 12.2418C35.0588 12.4418 35.2063 12.624 35.2367 12.9912C35.2589 12.9513 35.2917 12.9069 35.332 12.8711C35.4306 12.8846 35.3562 13.077 35.3444 13.1937L35.6262 12.9585C35.6015 13.1825 35.8666 13.2047 35.7668 13.5309C36.1129 13.3194 35.7746 14.1001 36.0376 14.1444C36.0217 14.2646 36.2393 13.7378 36.3687 13.9159C35.7959 14.4653 36.5432 14.1448 35.9161 14.7224L36.278 14.6585L35.987 14.9727C36.6943 14.5666 35.8864 15.3956 36.235 15.4143C36.2961 15.3449 36.3027 15.3037 36.3546 15.2727C36.3387 15.3929 36.4188 15.5643 36.1647 15.6032C36.2525 15.702 36.4009 16.1614 36.6026 15.7143C36.4312 15.8869 36.464 15.6152 36.4799 15.4949C36.7616 15.2597 36.7832 15.5033 37.1143 15.2748C37.0911 15.3056 37.0577 15.3655 37.0259 15.4191L37.2129 15.2883C37.0735 15.7406 37.4569 15.7335 37.1837 16.2139C37.2759 16.1471 37.368 16.1208 37.403 16.2008L37.0602 16.5055L37.244 16.696L37.6597 16.1648C37.9472 16.2934 37.5156 16.9448 37.5865 17.1952C38.1953 16.735 37.6723 17.7304 38.316 17.4313L38.3488 17.1596C38.5049 17.5465 38.8879 17.287 38.9377 17.733C38.5424 17.6698 38.6528 17.5667 37.8879 17.6399C38.427 17.7674 38.0847 18.5112 38.6874 18.5315C38.8069 18.3899 38.8214 18.2356 39.0303 18.1864C38.7886 18.5073 39.2993 18.4729 38.9139 18.7296C39.1161 18.7216 39.4498 18.4555 39.5509 18.4718L39.4135 19.17L39.4745 19.1006C40.7543 18.9489 39.849 20.6023 40.6756 20.8584L40.8471 20.6858L40.6998 21.0643C40.7819 20.7993 40.9723 20.908 41.1372 20.7768L41.0516 21.4845C41.2204 21.3497 41.5658 21.0074 41.4154 20.9843L41.4552 20.9641ZM37.4867 16.1569L37.4356 16.0506C37.4044 16.048 37.3853 16.0347 37.404 15.9827L37.4356 16.0506C37.5176 16.0536 37.6929 15.9585 37.4867 16.1569ZM31.3167 7.83251C31.4388 7.65321 31.4178 7.84881 31.4671 7.85554L31.387 7.68416C31.2766 7.74681 31.3258 7.79406 31.3192 7.83533L31.3167 7.83251ZM39.6968 14.193L39.9693 14.0367L39.8405 14.2573L39.6968 14.193ZM40.7693 15.3676L40.797 15.1307L40.8514 15.1026L40.8212 15.3366L40.7693 15.3676ZM40.0916 18.3249C40.0916 18.3249 40.1032 18.2892 40.1159 18.2629C40.1153 18.2785 40.1042 18.2985 40.0916 18.3249C40.0065 18.5622 40.4505 18.2333 40.119 18.6644C39.6974 18.8722 39.9981 18.504 40.0916 18.3249ZM38.2372 16.2379C38.2464 16.159 38.249 16.1213 38.2037 16.111C38.0842 16.2526 37.9528 16.5109 37.8542 16.4974C37.9764 16.3181 37.8962 16.1467 38.1236 15.9396C37.983 16.2768 38.6995 15.7917 38.2372 16.2379ZM35.9142 13.2989L35.966 13.3084L36.0481 13.0434L35.9167 13.3017L35.9142 13.2989ZM35.6964 12.5827C35.9381 12.2618 35.7477 12.153 35.7169 11.9884C35.4417 12.1823 35.2427 12.5513 35.3838 12.6532C35.2925 12.9972 35.8212 12.3657 35.6964 12.5827ZM39.4873 16.7595L39.6613 16.5492L39.7106 16.556L39.7383 16.3191C40.1546 16.2271 39.7297 16.7967 39.7112 16.9547C39.6712 16.869 39.9991 16.239 39.4848 16.7566L39.4873 16.7595ZM34.8805 11.3721C34.9626 11.1071 35.0113 10.7151 35.232 10.5493C34.8373 10.8849 34.8004 11.2007 34.8431 11.2487C34.8924 11.2554 34.8857 11.2967 34.8765 11.3757L34.8805 11.3721ZM35.6155 10.7291C35.5761 11.0421 35.4046 11.2146 35.1511 11.6522C34.8477 11.6438 35.3102 11.1571 35.5334 10.9941C35.6155 10.7291 35.383 10.971 35.2885 10.954L35.6196 10.7255L35.6155 10.7291ZM34.6697 11.8576L34.7798 11.876C35.0089 11.8089 35.4635 11.4352 35.1168 11.9303L34.7798 11.876C34.7284 11.8913 34.6867 11.8931 34.6697 11.8576ZM33.522 10.5173L33.4466 10.7006C33.4035 10.6277 33.4565 10.5655 33.522 10.5173L33.5872 10.3633C33.8538 10.3791 33.6515 10.4275 33.522 10.5173ZM34.5186 11.4359L34.6439 11.6581C34.8154 11.4856 34.6197 11.4522 34.5186 11.4359ZM33.9024 10.2551C33.9969 10.3127 34.23 10.4694 34.1807 10.4627C33.9574 10.6257 33.8347 10.4063 33.9024 10.2551ZM30.8189 5.67217L30.9016 5.80587L30.5772 5.99308L30.8189 5.67217ZM32.2401 6.86544L32.0779 6.95904L32.0378 6.87335L32.2401 6.86544ZM33.3804 8.11625C33.3149 8.16436 33.2448 8.23168 33.1903 8.30032C33.1837 8.34159 33.1624 8.39079 33.1135 8.44943C33.0985 8.43249 33.1318 8.37254 33.1903 8.30032C33.2056 8.19573 33.1056 8.14816 32.9908 8.18953C32.8713 8.33114 32.9698 8.38513 32.9021 8.49579C32.4766 8.6667 33.2177 7.54322 32.3513 8.44448C32.4215 8.29613 32.5195 7.91091 32.731 7.82404C32.7965 8.00336 33.1166 8.16868 33.3804 8.11625C33.4338 8.07889 33.4842 8.05435 33.5123 8.06978C33.475 8.0928 33.4277 8.10452 33.3804 8.11625ZM35.0896 9.64992C35.1081 9.71943 35.0974 9.76428 35.0792 9.80066C35.0483 9.90395 34.9711 10.0282 34.8295 10.1287C34.8546 9.92956 35.0146 9.89851 35.0792 9.80066C35.097 9.73941 35.1067 9.68532 35.0896 9.64992ZM35.4146 9.90191L35.454 9.58891L35.3227 9.84717L35.4935 9.27591C35.7995 9.24661 35.6496 9.66278 35.4171 9.90473L35.4146 9.90191ZM35.6423 9.80071L35.448 10.0289L35.6312 9.78018C35.6423 9.80071 35.6831 9.74923 35.6831 9.74923L35.7874 10.1265L35.6357 9.80147L35.6423 9.80071ZM37.5779 12.8969C38.432 12.3149 37.9166 12.1816 38.2425 11.801C37.9744 12.0191 37.4847 12.2722 37.7212 12.522C37.2648 12.5283 38.0943 11.9429 37.3351 12.3799C37.4788 12.4442 37.3901 12.7505 37.3875 12.7882L37.2489 12.689C36.8357 13.1825 37.6559 12.676 37.5764 12.9033L37.5779 12.8969ZM38.8929 14.1493L39.0207 14.3338L38.9473 14.1211L38.8954 14.1521L38.8929 14.1493ZM42.7165 18.0543C42.888 17.8818 43.4053 17.8061 43.1052 18.1587C42.9614 18.0944 42.8747 17.9643 42.7165 18.0543ZM44.2184 19.8582L44.206 19.5356C44.65 19.2068 44.3379 19.7166 44.4843 19.7432C44.3062 19.957 44.3806 19.7646 44.2184 19.8582ZM45.2843 21.074L45.2684 21.1943L45.6206 20.7702L45.2778 21.0748L45.2843 21.074ZM45.7585 20.5112C45.9726 20.3866 45.9484 20.1807 45.8991 20.1739L45.7585 20.5112ZM46.4248 21.6735L46.3329 21.6187L46.0326 22.0119L46.4273 21.6763L46.4248 21.6735ZM46.5481 21.5379C46.7912 21.2916 46.4924 21.3759 46.1584 21.3493C45.8766 21.5845 46.5805 21.2413 46.2001 21.463C46.1883 21.5797 46.3439 21.5273 46.3932 21.5341C46.4024 21.4551 46.2428 21.511 46.4142 21.3385C46.5793 21.3131 46.6033 21.4131 46.5416 21.5386C46.4539 21.6267 46.3832 21.7097 46.3589 21.7717C46.4436 21.6964 46.5077 21.6142 46.5416 21.5386L46.5481 21.5379ZM45.6872 21.1456C45.6348 21.1517 45.5784 21.1614 45.5265 21.1923L45.5851 21.1201C45.7246 21.0416 45.7139 21.0864 45.6872 21.1456C45.746 21.1388 45.8059 21.1412 45.8617 21.1472C46.1092 20.9627 46.1586 20.7015 46.26 20.5557C46.2482 20.6724 46.065 20.9211 46.2724 20.8783C46.3309 20.8061 46.3853 20.7779 46.3427 20.7299L46.4864 20.7942C46.2717 21.2024 46.072 21.1726 45.8642 21.15C45.8093 21.1938 45.7493 21.2319 45.6728 21.2594C45.6255 21.2712 45.6669 21.2041 45.6897 21.1485L45.6872 21.1456ZM45.9288 22.4572L45.9406 22.3405C46.0017 22.2306 46.112 22.168 46.1731 22.0986C46.2131 22.1843 46.1361 22.4144 45.9288 22.4572ZM42.7536 19.022C42.8573 19.0006 43.0472 18.6702 42.9009 18.6435L43.2863 18.3869C43.0605 18.5876 43.2443 18.7376 43.2376 18.7789C42.9466 19.0931 43.0235 18.9034 42.7536 19.022ZM39.1532 14.954C39.5571 14.5394 39.1008 14.5457 39.171 14.3974C39.3667 14.4307 39.7009 14.6037 39.1532 14.954ZM38.636 14.7212C38.5848 14.6555 38.5294 14.6744 38.7547 14.4893C38.8184 14.3822 38.6603 14.4317 38.7239 14.3247C39.0189 14.2748 38.6685 14.571 38.636 14.7212C38.651 14.7381 38.6621 14.7586 38.666 14.7956C38.6313 14.7809 38.6284 14.7532 38.636 14.7212ZM40.7101 17.1284L40.4658 17.487L40.6069 17.589L40.7141 17.1248L40.7101 17.1284ZM41.3419 18.9928C41.5133 18.8202 41.6478 18.9635 41.5842 19.0706C41.8146 18.8507 41.6986 18.7769 41.655 18.6792C41.6651 18.6499 41.6647 18.6251 41.6421 18.5997C41.6385 18.6281 41.6455 18.6522 41.655 18.6792C41.6237 18.7576 41.4851 18.8453 41.4004 18.9206L41.2967 18.942L41.3275 19.1066L41.3434 18.9864L41.3419 18.9928ZM43.1961 21.6156C43.4594 21.5383 43.3984 21.6077 43.3866 21.7243C43.2762 21.787 43.1843 21.7322 43.1961 21.6156ZM40.4963 18.4554C40.7438 18.4984 40.7965 18.0623 40.9988 18.0544L40.9069 17.9997C41.2714 17.8981 40.7144 18.3273 40.8648 18.3503L40.7637 18.334C40.4937 18.4931 40.6868 18.5642 40.5128 18.7339C40.3598 18.7486 40.3967 18.4327 40.4978 18.449L40.4963 18.4554ZM43.1658 21.8901C43.5277 21.8263 43.0252 22.2274 43.0586 22.3543C42.746 22.4249 43.1966 22.0548 43.1658 21.8901ZM40.6166 19.996L40.5648 20.027L40.5346 20.261L40.5864 20.2301L40.6141 19.9932L40.6166 19.996Z" fill="white"/>
<path d="M45.7237 19.9349C45.7845 19.9466 45.8006 19.9727 45.798 20.0104C45.7633 19.9958 45.7367 19.9739 45.7237 19.9349Z" fill="white"/>
<path d="M39.9467 12.9143C39.8837 12.9652 39.8388 12.9798 39.8036 12.9808C39.8399 12.9485 39.8863 12.9276 39.9467 12.9143Z" fill="white"/>
<path d="M30.3436 3.30977C30.5854 2.98886 30.4447 3.32607 30.4874 3.37408C30.4447 3.32607 30.2215 3.48908 30.3436 3.30977Z" fill="white"/>
<path d="M30.197 4.12695C30.2607 4.01987 30.2795 3.92734 30.261 3.85783C30.2967 3.88173 30.2986 3.9407 30.197 4.12695Z" fill="white"/>
<path d="M30.0435 3.70227C30.1692 3.72194 30.239 3.77614 30.2585 3.85488C30.2037 3.81763 30.0532 3.87561 30.0435 3.70227Z" fill="white"/>
<path d="M31.1896 5.08984C31.3184 4.86927 31.1187 4.8395 31.1187 4.8395C31.5114 4.94032 31.4123 4.48764 31.5319 4.34602C31.6078 4.56151 31.382 4.76219 31.1896 5.08984Z" fill="white"/>
<path d="M31.3929 5.50583C31.3703 5.48042 31.3396 5.46217 31.2938 5.46749C31.3608 5.45348 31.3849 5.47249 31.3929 5.50583Z" fill="white"/>
<path d="M31.6556 5.44356C31.689 5.57053 31.515 5.78078 31.3928 5.96008C31.1523 5.98178 31.4172 5.63013 31.3994 5.50447C31.4586 5.56302 31.4911 5.64024 31.6556 5.44356Z" fill="white"/>
<path d="M35.019 7.27139C35.0257 7.23012 34.979 7.1857 35.0894 7.08253L35.2199 7.22938C35.2121 7.34244 35.0683 7.27813 35.019 7.27139Z" fill="white"/>
<path d="M34.9458 8.30173C35.0285 8.43543 35.2702 8.11452 35.2584 8.23116L34.8637 8.56672L34.9458 8.30173Z" fill="white"/>
<path d="M32.9255 9.9758L32.9357 9.90607C32.9357 9.90607 32.9503 9.93866 32.9588 9.95636L32.9296 9.97221L32.9255 9.9758Z" fill="white"/>
<path d="M35.8283 8.52309L36.1896 8.06056C36.1686 8.25616 35.8257 8.56078 35.8283 8.52309Z" fill="white"/>
<path d="M36.5151 8.71155L36.588 8.52551L36.6497 8.85481L36.5151 8.71155Z" fill="white"/>
<path d="M36.7781 9.43819L36.8884 9.37553L36.91 9.61914L36.7781 9.43819Z" fill="white"/>
<path d="M41.5935 15.6206C41.2506 15.9658 41.1956 15.5952 41.0385 15.6134C41.5369 15.2565 41.0509 15.936 41.5935 15.6206Z" fill="white"/>
<path d="M45.3751 19.876L45.2616 19.5776C45.5558 19.6245 45.3042 19.6256 45.3751 19.876Z" fill="white"/>
</g>
<defs>
<clipPath id="clip0_100_366">
<rect width="39.2069" height="6.36094" fill="white" transform="translate(39.0342 37) rotate(-169.219)"/>
</clipPath>
<clipPath id="clip1_100_366">
<rect width="27.4533" height="6.36094" fill="white" transform="translate(44.6396 25.457) rotate(-131.624)"/>
</clipPath>
</defs>
</svg>
