<svg width="1080" height="740" viewBox="0 0 1080 740" fill="none" xmlns="http://www.w3.org/2000/svg">
<g clip-path="url(#clip0_40_489)">
<path d="M188.19 518.992C190.295 520.177 192.268 520.607 194.257 520.738C196.315 520.876 198.404 520.615 200.593 521.153C202.15 521.538 203.691 522.399 205.11 523.476C206.435 524.476 207.592 525.792 208.679 527.076C209.842 528.445 211.022 529.776 211.777 531.099C212.733 532.791 213.458 534.653 213.966 536.522C214.475 538.399 214.583 540.368 214.629 542.306C214.675 544.245 214.575 546.206 214.136 548.098C213.797 549.567 213.118 550.967 212.378 552.29C211.631 553.637 210.814 554.96 209.526 555.806C208.27 556.629 206.659 556.736 205.156 556.621C203.653 556.506 202.188 556.029 201.263 554.783" fill="#333333"/>
<path d="M188.776 517.992C190.819 519.107 192.977 519.577 195.29 519.623C197.61 519.669 199.938 519.577 202.142 520.438C206.266 522.061 209.326 525.707 211.893 529.184C214.675 532.953 215.677 537.714 215.778 542.306C215.824 544.614 215.716 547.029 215.015 549.244C214.382 551.244 213.326 553.267 212.055 554.936C210.629 556.806 208.717 557.752 206.374 557.813C204.192 557.875 201.872 557.382 200.454 555.606C199.537 554.452 201.163 552.813 202.088 553.975C203.183 555.344 204.863 555.575 206.528 555.498C208.416 555.421 209.681 554.444 210.675 552.898C211.754 551.221 212.687 549.398 213.095 547.437C213.504 545.475 213.519 543.291 213.434 541.214C213.265 537.199 212.093 533.107 209.565 529.915C207.183 526.907 204.454 523.453 200.608 522.346C198.442 521.723 196.168 522.053 193.956 521.869C191.705 521.676 189.609 521.069 187.62 519.984C186.317 519.269 187.481 517.277 188.784 517.992H188.776Z" fill="#333333"/>
<path d="M164.581 664.47C166.762 664.455 168.851 664.632 170.932 664.685C173.067 664.739 175.179 664.616 177.307 664.639C179.434 664.662 181.546 664.562 183.727 664.47C183.743 665.701 183.596 669.424 183.627 671.139C183.627 671.316 183.797 671.47 183.797 671.601C183.812 672.577 184.005 673.593 184.46 674.37C185.084 675.431 186.063 675.946 187.003 676.47C187.944 676.993 189.131 678.031 188.984 679.346C187.296 679.462 185.485 679.346 183.797 679.408C182.101 679.477 180.413 679.531 178.717 679.554C177.021 679.585 175.333 679.739 173.638 679.723C171.942 679.708 170.246 679.792 168.55 679.739C167.772 679.716 167.093 679.293 166.438 678.746C165.452 677.923 165.151 676.393 164.927 674.893C164.904 674.747 164.658 674.623 164.642 674.454C164.519 673.2 164.434 671.293 164.45 669.424C164.465 667.462 164.681 665.578 164.573 664.462L164.581 664.47Z" fill="#333333"/>
<path d="M164.58 663.316C167.702 663.316 170.809 663.578 173.93 663.524C177.199 663.462 180.459 663.455 183.72 663.324C184.352 663.301 184.868 663.87 184.876 664.478C184.891 665.662 184.837 666.839 184.814 668.024C184.799 668.731 184.783 669.439 184.776 670.147C184.768 670.854 184.914 671.424 184.976 672.101C185.053 672.939 185.3 673.754 185.901 674.362C186.441 674.9 187.15 675.2 187.79 675.6C189.115 676.431 190.202 677.716 190.14 679.354C190.117 680.008 189.632 680.469 188.984 680.508C187.258 680.608 185.523 680.508 183.797 680.569C181.985 680.631 180.174 680.677 178.355 680.723C176.536 680.769 174.732 680.877 172.913 680.885C171.263 680.885 169.282 681.215 167.679 680.769C166.323 680.392 165.12 679.323 164.55 678.054C164.264 677.431 164.095 676.777 163.964 676.1C163.887 675.708 163.856 675.516 163.725 675.2C163.578 674.854 163.501 674.585 163.463 674.2C163.293 672.5 163.262 670.77 163.301 669.062C163.332 667.531 163.54 665.993 163.424 664.462C163.309 662.932 165.621 662.986 165.737 664.462C165.852 665.939 165.667 667.285 165.621 668.693C165.575 670.231 165.613 671.785 165.714 673.324C165.729 673.562 165.983 674.508 165.667 673.931C165.814 674.208 165.945 674.27 166.045 674.577C166.261 675.231 166.253 675.954 166.469 676.623C166.939 678.062 168.011 678.585 169.46 678.593C172.736 678.623 175.996 678.446 179.264 678.377C180.891 678.346 182.509 678.269 184.136 678.223C185.755 678.177 187.373 678.262 188.984 678.169L187.828 679.323C187.89 677.823 185.901 677.254 184.914 676.508C183.388 675.362 182.933 673.877 182.664 672.077C182.571 671.439 182.456 670.885 182.463 670.231C182.463 669.531 182.486 668.831 182.502 668.131C182.533 666.908 182.579 665.685 182.571 664.455L183.727 665.608C180.459 665.747 177.199 665.755 173.938 665.808C170.816 665.862 167.71 665.601 164.588 665.601C163.101 665.601 163.101 663.293 164.588 663.293L164.58 663.316Z" fill="#333333"/>
<path d="M185.238 632.41C185.153 635.287 185.508 635.294 185.423 638.171C185.338 641.048 184.984 641.04 184.899 643.917C184.814 646.794 185.123 646.801 185.038 649.678C184.953 652.555 184.876 652.555 184.791 655.432C184.706 658.309 184.776 658.309 184.691 661.193C184.606 664.078 184.321 664.062 184.236 666.947C184.151 669.831 184.275 669.831 184.19 672.708C184.167 673.454 183.674 674.246 183.034 674.246C180.082 674.246 180.082 674.031 177.137 674.031C174.193 674.031 174.185 674.062 171.233 674.062C168.28 674.062 168.28 673.9 165.328 673.9C164.673 673.9 164.056 673.431 164.056 672.662C164.056 669.731 164.141 669.731 164.141 666.801C164.141 663.87 164.203 663.87 164.203 660.939C164.203 658.009 164.033 658.009 164.033 655.078C164.033 652.147 164.265 652.147 164.265 649.209C164.265 646.271 163.933 646.278 163.933 643.348C163.933 640.417 164.311 640.417 164.311 637.479C164.311 634.54 164.002 634.548 164.002 631.61" fill="#95BECE"/>
<path d="M186.394 632.41C186.356 634.11 186.602 635.787 186.595 637.487C186.587 639.187 186.263 640.917 186.125 642.648C185.986 644.379 186.109 646.002 186.194 647.694C186.279 649.471 186.148 651.263 186.055 653.04C185.87 656.547 186.101 660.109 185.685 663.601C185.477 665.385 185.361 667.147 185.369 668.947C185.369 669.616 185.385 670.285 185.385 670.947C185.385 671.985 185.5 673.17 184.991 674.116C184.043 675.854 181.939 675.431 180.274 675.316C178.478 675.193 176.682 675.185 174.886 675.2C173.09 675.216 171.286 675.254 169.49 675.2C168.866 675.177 168.249 675.139 167.625 675.108C166.716 675.07 165.675 675.208 164.789 675C162.538 674.477 162.892 671.993 162.939 670.231C162.985 668.47 162.977 666.601 163.008 664.785C163.031 663.078 163.085 661.362 163.039 659.655C163 657.893 162.862 656.147 162.892 654.386C162.923 652.432 163.154 650.501 163.108 648.548C163.062 646.594 162.761 644.871 162.784 643.009C162.808 641.148 163.154 639.348 163.162 637.494C163.162 635.533 162.862 633.595 162.854 631.625C162.854 630.141 165.159 630.141 165.166 631.625C165.174 633.11 165.39 634.694 165.451 636.241C165.513 637.787 165.398 639.394 165.22 640.986C164.85 644.34 165.559 647.663 165.39 651.024C165.305 652.724 165.174 654.394 165.205 656.101C165.228 657.601 165.359 659.093 165.367 660.586C165.39 663.862 165.32 667.155 165.243 670.431C165.236 670.87 164.989 672.524 165.282 672.739C165.498 672.9 166.292 672.762 166.592 672.77C167.032 672.777 167.471 672.793 167.91 672.816C169.544 672.9 171.171 672.924 172.797 672.916C174.424 672.908 176.143 672.87 177.815 672.893C179.234 672.916 180.636 673.07 182.055 673.093C182.594 673.1 182.91 673.308 183.034 672.716C183.126 672.293 183.057 671.747 183.064 671.316C183.064 670.593 183.057 669.877 183.049 669.154C183.041 667.485 183.088 665.824 183.296 664.17C183.712 660.863 183.55 657.501 183.681 654.171C183.758 652.348 183.905 650.525 183.897 648.694C183.889 646.863 183.666 645.063 183.766 643.233C183.866 641.402 184.236 639.64 184.267 637.817C184.298 635.994 184.028 634.225 184.074 632.41C184.113 630.925 186.425 630.925 186.387 632.41H186.394Z" fill="#333333"/>
<path d="M151.292 664.508C153.473 664.493 155.547 664.331 157.628 664.378C159.763 664.431 161.867 664.485 163.995 664.508C166.122 664.531 168.226 664.562 170.408 664.47C170.423 665.701 170.454 669.416 170.485 671.131C170.485 671.308 170.308 671.47 170.308 671.6C170.323 672.577 170.554 673.662 171.017 674.439C171.641 675.5 172.874 675.723 173.815 676.246C174.755 676.769 175.726 677.908 175.58 679.215C173.892 679.331 172.173 679.385 170.485 679.462C168.789 679.531 167.101 679.469 165.405 679.5C163.709 679.531 162.021 679.477 160.326 679.462C158.63 679.446 156.934 679.592 155.246 679.539C154.468 679.515 153.674 679.431 153.011 678.877C152.024 678.054 151.847 676.385 151.623 674.885C151.6 674.739 151.299 674.623 151.284 674.454C151.161 673.2 151.107 671.293 151.122 669.424C151.138 667.462 151.392 665.608 151.284 664.493L151.292 664.508Z" fill="#333333"/>
<path d="M151.292 663.355C154.413 663.324 157.504 663.232 160.626 663.301C163.887 663.378 167.155 663.447 170.415 663.324C171.047 663.301 171.564 663.87 171.572 664.478C171.587 665.708 171.602 666.939 171.61 668.17C171.618 668.893 171.626 669.608 171.633 670.331C171.641 671.008 171.433 671.7 171.533 672.354C171.641 673.07 171.849 673.862 172.45 674.308C173.052 674.754 173.776 674.9 174.4 675.254C175.819 676.069 176.821 677.562 176.744 679.223C176.713 679.877 176.235 680.338 175.587 680.377C171.949 680.608 168.326 680.646 164.688 680.662C162.877 680.669 161.058 680.592 159.246 680.623C157.558 680.662 155.747 680.892 154.074 680.569C152.602 680.292 151.608 679.331 151.091 677.954C150.86 677.339 150.744 676.693 150.644 676.046C150.536 675.362 150.182 674.893 150.112 674.193C149.95 672.493 149.943 670.762 149.981 669.054C150.012 667.539 150.251 666.008 150.135 664.493C150.02 662.978 152.34 663.016 152.448 664.493C152.556 665.885 152.348 667.293 152.301 668.693C152.255 670.231 152.278 671.785 152.363 673.323C152.371 673.523 152.386 673.723 152.402 673.916C152.448 674.277 152.432 674.285 152.355 673.923C152.525 674.177 152.648 674.277 152.748 674.57C152.949 675.177 152.933 675.916 153.088 676.546C153.219 677.085 153.38 677.716 153.858 678.054C154.39 678.431 155.176 678.377 155.801 678.385C157.435 678.4 159.069 678.285 160.703 678.3C162.337 678.315 163.964 678.346 165.598 678.331C168.935 678.292 172.258 678.269 175.595 678.054L174.439 679.208C174.524 677.439 172.72 677.108 171.494 676.408C169.999 675.546 169.406 673.977 169.221 672.339C169.144 671.654 169.336 671.085 169.328 670.424C169.321 669.708 169.313 669.001 169.305 668.285C169.29 667.008 169.282 665.739 169.267 664.462L170.423 665.616C167.163 665.739 163.894 665.662 160.634 665.593C157.373 665.524 154.413 665.616 151.299 665.647C149.812 665.662 149.812 663.355 151.299 663.339L151.292 663.355Z" fill="#333333"/>
<path d="M172.288 632.418C172.204 635.294 171.872 635.287 171.787 638.163C171.703 641.04 171.926 641.048 171.841 643.925C171.757 646.801 171.703 646.801 171.618 649.678C171.533 652.555 171.479 652.555 171.394 655.432C171.309 658.309 171.479 658.316 171.394 661.193C171.309 664.07 171.333 664.078 171.248 666.954C171.163 669.831 171.209 669.839 171.124 672.716C171.101 673.462 170.361 674.193 169.722 674.193C166.769 674.193 166.769 674.262 163.825 674.262C160.88 674.262 160.873 673.854 157.921 673.854C154.968 673.854 154.968 674.039 152.016 674.039C151.361 674.039 150.721 673.431 150.721 672.662C150.721 669.731 150.783 669.731 150.783 666.801C150.783 663.87 150.86 663.87 150.86 660.939C150.86 658.009 150.683 658.009 150.683 655.078C150.683 652.147 150.76 652.147 150.76 649.209C150.76 646.271 151.029 646.278 151.029 643.348C151.029 640.417 150.69 640.417 150.69 637.479C150.69 634.548 150.744 634.548 150.744 631.61" fill="#95BECE"/>
<path d="M173.445 632.418C173.383 634.118 173.059 635.779 172.975 637.471C172.89 639.163 173.013 640.833 173.021 642.525C173.044 646.017 172.805 649.548 172.643 653.032C172.481 656.517 172.574 660.078 172.497 663.601C172.458 665.385 172.397 667.17 172.366 668.947C172.358 669.578 172.35 670.208 172.335 670.839C172.319 671.777 172.451 672.924 172.019 673.785C171.048 675.723 168.889 675.331 167.07 675.37C165.251 675.408 163.509 675.5 161.752 675.316C160.041 675.139 158.399 674.97 156.672 675.016C155.077 675.054 153.365 675.377 151.785 675.162C149.419 674.839 149.565 672.454 149.596 670.639C149.627 668.824 149.627 667.047 149.658 665.247C149.689 663.447 149.743 661.809 149.719 660.086C149.696 658.363 149.55 656.747 149.55 655.078C149.55 653.124 149.619 651.171 149.627 649.209C149.635 647.248 149.904 645.309 149.897 643.348C149.889 641.386 149.565 639.563 149.558 637.656C149.542 635.641 149.611 633.625 149.611 631.61C149.611 630.125 151.924 630.125 151.924 631.61C151.924 634.818 151.824 637.979 152.117 641.171C152.278 642.902 152.217 644.648 152.063 646.371C151.908 648.094 151.947 649.755 151.916 651.448C151.847 654.74 152.047 658.009 152.04 661.301C152.032 664.593 151.955 667.67 151.908 670.862C151.908 671.285 151.901 671.708 151.901 672.131C151.901 672.724 151.831 672.839 152.394 672.885C153.18 672.947 154.02 672.854 154.807 672.808C156.502 672.708 158.221 672.624 159.917 672.785C163.031 673.093 166.238 673.308 169.375 673.039C170.308 672.962 170.015 671.954 170.03 671.193C170.046 670.516 170.053 669.839 170.061 669.162C170.092 667.47 170.146 665.77 170.184 664.078C170.254 660.732 170.169 657.378 170.3 654.04C170.439 650.44 170.67 646.84 170.716 643.24C170.739 641.425 170.585 639.625 170.655 637.81C170.724 635.994 171.078 634.233 171.14 632.425C171.194 630.941 173.507 630.941 173.453 632.425L173.445 632.418Z" fill="#333333"/>
<path d="M208.548 623.71C210.305 624.279 212.232 624.31 214.074 624.141C215.916 623.964 217.682 623.364 219.308 622.479C220.264 621.956 221.258 621.28 221.451 620.21C221.644 619.141 220.503 617.918 219.532 618.403C220.603 618.072 221.659 617.303 221.844 616.195C222.029 615.087 220.827 613.934 219.824 614.434C220.626 613.88 221.173 612.811 220.927 611.872C220.68 610.926 219.323 610.149 218.545 610.742C219.755 609.826 218.468 608.349 217.404 608.019C216.071 607.603 214.529 608.58 213.142 608.58C213.566 608.303 213.897 607.788 213.866 607.288C213.812 606.549 212.949 606.034 212.232 606.188C211.515 606.342 210.96 606.965 210.436 607.48C208.995 608.911 207.731 610.518 206.328 611.988" fill="#FFE6D9"/>
<path d="M208.856 622.603C211.291 623.341 214.051 623.249 216.463 622.464C217.535 622.118 218.691 621.641 219.585 620.949C219.855 620.741 220.248 620.433 220.287 620.057C220.333 619.626 220.063 619.426 219.832 619.51L219.215 617.287C219.732 617.111 220.425 616.787 220.618 616.226C220.757 615.834 220.572 615.372 220.117 615.541C219.578 615.749 218.961 615.357 218.753 614.872C218.514 614.303 218.76 613.788 219.223 613.434C219.547 613.188 219.94 612.611 219.793 612.172C219.716 611.926 219.346 611.588 219.115 611.734C218.013 612.403 216.718 610.811 217.712 609.919C217.905 609.749 217.874 609.68 217.504 609.372C217.165 609.096 216.787 609.034 216.363 609.08C215.261 609.196 214.259 609.688 213.141 609.726C211.869 609.78 211.738 608.211 212.555 607.573C212.779 607.403 212.717 607.403 212.579 607.319C212.355 607.188 211.985 607.573 211.854 607.688C211.314 608.149 210.837 608.696 210.359 609.211C209.264 610.388 208.239 611.626 207.137 612.795C206.112 613.88 204.477 612.242 205.503 611.165C206.528 610.088 207.491 608.926 208.509 607.819C209.38 606.865 210.382 605.557 211.661 605.142C212.794 604.773 214.159 605.211 214.745 606.288C215.431 607.534 214.745 608.788 213.727 609.572L213.141 607.419C215.03 607.342 216.726 606.142 218.552 607.288C220.04 608.219 220.842 610.234 219.354 611.549L217.951 609.734C219.339 608.896 221.158 609.696 221.844 611.08C222.645 612.695 221.69 614.426 220.395 615.426L219.5 613.318C221.165 612.68 222.915 614.157 222.992 615.834C223.077 617.703 221.42 618.964 219.824 619.51C218.406 619.995 217.836 617.795 219.208 617.287C220.826 616.68 222.476 618.141 222.591 619.741C222.722 621.495 221.266 622.703 219.87 623.472C216.394 625.379 212.047 625.979 208.224 624.826C206.805 624.395 207.406 622.164 208.84 622.603H208.856Z" fill="#333333"/>
<path d="M149.681 603.204C150.282 601.281 151.4 599.534 152.286 597.75C153.173 595.965 154.152 594.142 155.4 592.619C156.711 591.027 158.16 589.635 159.856 588.604C161.536 587.581 163.432 587.02 165.529 586.743C167.363 586.504 169.306 586.635 171.479 587.112C173.838 587.635 176.659 588.335 179.187 589.758C179.604 589.85 179.033 589.066 179.457 589.02C180.035 589.735 180.529 590.65 181.161 591.35C182.718 592.442 184.151 593.596 185.454 594.889C186.757 596.181 188.106 597.504 189.277 598.95C190.449 600.396 191.382 602.011 192.522 603.488C193.663 604.965 194.873 606.357 196.084 607.788C196.993 608.857 198.242 609.803 199.452 610.549C200.77 611.349 202.188 611.942 203.607 611.388C204.393 611.08 205.233 610.249 206.004 610.596C206.52 610.826 206.767 611.503 206.983 612.026C207.777 613.972 208.44 615.972 209.234 617.918C210.027 619.864 211.053 621.718 211.847 623.656C212.016 624.072 212.039 624.58 211.87 624.995C211.7 625.41 211.276 625.649 210.868 625.833C209.033 626.633 207.137 627.295 205.241 627.941C203.337 628.587 201.418 629.095 199.421 629.349C197.425 629.602 195.421 629.641 193.455 629.272C191.474 628.895 189.678 628.064 188.036 626.887C189.046 627.641 187.535 633.941 186.587 634.825C185.94 635.425 184.922 635.579 184.036 635.656C182.032 635.825 180.02 635.871 178.008 635.948C175.996 636.025 173.992 635.864 171.98 635.841C169.969 635.817 167.964 635.787 165.96 635.671C163.956 635.556 161.96 635.364 159.963 635.148C157.805 634.917 155.755 635.002 153.997 634.664C151.785 634.233 149.85 633.518 148.679 631.995C147.715 630.741 147.361 628.833 147.384 626.21C147.399 624.264 147.422 622.31 147.484 620.357C147.546 618.403 147.492 616.441 147.661 614.503C147.831 612.565 148.178 610.634 148.54 608.711C148.872 606.919 149.134 605.019 149.696 603.211L149.681 603.204Z" fill="#FCFCFC"/>
<path d="M148.563 602.896C149.126 601.188 149.989 599.635 150.829 598.058C151.615 596.573 152.325 595.05 153.242 593.635C154.984 590.95 157.427 588.412 160.364 587.027C163.363 585.604 166.754 585.22 170.022 585.689C171.626 585.92 173.229 586.304 174.786 586.758C175.642 587.004 176.489 587.289 177.314 587.62C177.723 587.781 178.131 587.958 178.532 588.143C178.679 588.212 179.696 588.597 179.295 588.612L178.293 589.181C178.178 589.358 178.147 590.166 178.124 589.304C178.124 589.104 178.147 588.92 178.224 588.727C178.393 588.281 178.702 588.089 179.133 587.912C179.65 587.704 180.151 588.066 180.436 588.443C180.829 588.95 181.153 589.504 181.546 590.02C181.985 590.604 182.571 590.966 183.149 591.404C184.236 592.235 185.277 593.119 186.248 594.081C188.144 595.95 189.971 597.858 191.489 600.05C193.093 602.365 194.796 604.55 196.631 606.696C197.463 607.665 198.38 608.496 199.444 609.203C200.508 609.911 201.903 610.834 203.229 610.288C204.254 609.865 205.086 609.065 206.281 609.48C207.407 609.873 207.807 611.057 208.201 612.065C209.249 614.68 210.135 617.341 211.345 619.887C212.232 621.741 214.282 624.726 212.109 626.41C211.199 627.118 209.912 627.464 208.84 627.864C207.515 628.364 206.181 628.841 204.832 629.272C199.036 631.133 192.599 631.525 187.42 627.879C187.89 627.272 188.352 626.672 188.822 626.064C189.909 627.041 189.478 629.149 189.269 630.379C189.007 631.933 188.63 633.733 187.782 635.094C186.495 637.171 183.088 636.887 180.991 636.979C177.777 637.117 174.593 637.01 171.387 636.979C168.119 636.941 164.873 636.787 161.621 636.471C158.73 636.187 155.716 636.271 152.88 635.602C150.575 635.056 148.209 633.948 147.129 631.718C145.958 629.295 146.181 626.433 146.22 623.826C146.266 620.303 146.174 616.718 146.605 613.219C146.821 611.488 147.137 609.773 147.453 608.057C147.769 606.342 148.039 604.588 148.548 602.896C148.979 601.481 151.207 602.081 150.775 603.511C149.989 606.111 149.604 608.865 149.164 611.542C148.702 614.357 148.671 617.149 148.609 619.995C148.548 622.841 148.316 625.495 148.571 628.202C148.764 630.272 149.534 631.856 151.492 632.748C153.704 633.756 156.132 633.741 158.507 633.887C161.359 634.064 164.195 634.456 167.055 634.579C169.938 634.702 172.828 634.733 175.711 634.802C178.594 634.871 181.369 634.802 184.128 634.494C185.061 634.387 185.647 634.256 185.963 633.61C186.279 632.964 186.487 632.172 186.68 631.448C186.895 630.618 187.08 629.764 187.15 628.91C187.181 628.579 187.204 628.233 187.173 627.902C187.142 627.549 187.134 627.995 187.142 627.687C187.15 627.464 187.273 627.795 187.181 627.718C186.217 626.856 187.497 625.141 188.583 625.903C192.869 628.918 197.972 628.826 202.867 627.472C205.241 626.81 207.599 625.964 209.865 625.01C210.336 624.81 210.736 624.756 210.767 624.233C210.798 623.741 210.228 622.933 210.02 622.487C209.472 621.326 208.902 620.172 208.393 618.995C207.884 617.818 207.453 616.649 207.013 615.465C206.574 614.28 206.274 612.957 205.634 611.911C205.395 611.519 205.649 611.711 205.456 611.719C205.264 611.726 205.025 611.942 204.863 612.026C204.439 612.265 204.015 612.495 203.537 612.626C202.358 612.949 201.155 612.703 200.061 612.219C197.771 611.211 195.96 609.503 194.365 607.626C192.684 605.657 191.127 603.65 189.663 601.519C188.075 599.204 186.132 597.181 184.09 595.25C183.111 594.319 182.055 593.473 180.96 592.681C179.835 591.873 179.241 590.704 178.409 589.627C178.84 589.804 179.28 589.981 179.711 590.158L179.596 590.204L180.29 589.673C180.328 589.112 180.374 588.981 180.413 589.289C180.444 589.427 180.459 589.566 180.459 589.704C180.444 590.027 180.313 590.358 180.074 590.589C179.388 591.243 178.632 590.796 177.946 590.443C176.443 589.673 174.825 589.158 173.198 588.735C169.876 587.874 166.615 587.42 163.255 588.381C160.071 589.289 157.435 591.581 155.57 594.258C154.606 595.642 153.866 597.142 153.095 598.635C152.271 600.242 151.323 601.788 150.752 603.519C150.29 604.927 148.054 604.319 148.525 602.904L148.563 602.896Z" fill="#333333"/>
<path d="M185.223 587.25C186.232 587.45 186.911 588.381 187.211 589.358C187.689 590.912 187.743 592.589 188.082 594.181C188.422 595.773 188.984 597.35 189.03 598.981C189.061 599.865 188.861 600.758 188.56 601.596C188.26 602.434 187.628 603.042 186.795 603.334C185.623 603.75 184.398 603.334 183.357 602.665C181.947 601.75 180.69 600.619 179.627 599.311C178.571 598.012 177.869 596.481 177.245 594.927C176.62 593.373 176.012 591.789 175.888 590.12" fill="#FCFCFC"/>
<path d="M185.531 586.135C188.283 586.835 188.606 589.966 188.938 592.304C189.331 595.112 190.603 597.888 190.009 600.75C189.74 602.05 189.185 603.28 188.021 604.011C186.888 604.719 185.477 604.803 184.228 604.365C181.754 603.488 179.496 601.242 178.054 599.104C177.191 597.819 176.59 596.381 176.019 594.95C175.387 593.373 174.886 591.804 174.732 590.112C174.601 588.635 176.913 588.643 177.044 590.112C177.175 591.581 177.7 592.981 178.247 594.342C178.763 595.627 179.334 596.912 180.128 598.058C180.86 599.119 181.816 600.05 182.818 600.857C183.72 601.581 184.991 602.588 186.24 602.296C187.535 601.988 187.843 600.419 187.874 599.281C187.913 597.935 187.473 596.627 187.157 595.342C186.81 593.935 186.687 592.496 186.425 591.073C186.248 590.096 186.047 588.658 184.914 588.373C183.473 588.012 184.082 585.781 185.531 586.15V586.135Z" fill="#333333"/>
<path d="M172.52 604.173C171.279 603.404 169.891 602.488 168.82 601.242C167.749 599.996 166.862 598.642 166.122 597.342C165.19 595.704 164.904 594.019 164.742 592.873C164.712 592.642 164.527 592.435 164.635 592.227C164.796 591.919 165.19 591.981 165.529 591.919C168.18 591.466 170.562 591.419 173.106 592.158C174.848 592.658 178.016 592.327 179.326 593.727C180.243 594.704 180.182 597.342 180.32 598.573C180.544 600.588 180.282 602.78 178.74 604.088C176.79 605.742 174.663 605.496 172.52 604.165V604.173Z" fill="#FCFCFC"/>
<path d="M171.942 605.173C170.254 604.127 168.704 602.973 167.463 601.411C166.222 599.85 164.997 598.042 164.303 596.112C164.01 595.288 163.817 594.435 163.686 593.573C163.54 592.65 163.216 591.727 164.18 591.096C164.873 590.643 166.184 590.658 166.985 590.573C168.003 590.458 169.028 590.419 170.053 590.481C171.787 590.589 173.414 591.15 175.133 591.327C176.605 591.473 178.255 591.558 179.519 592.412C180.868 593.312 181.145 594.873 181.307 596.381C181.469 597.888 181.654 599.442 181.477 600.934C181.222 603.05 180.143 604.903 178.177 605.857C176.081 606.88 173.853 606.334 171.934 605.188C170.662 604.427 171.818 602.427 173.098 603.196C174.208 603.865 175.518 604.411 176.813 603.942C178.016 603.504 178.779 602.527 179.072 601.311C179.341 600.204 179.18 599.088 179.102 597.965C179.033 596.965 179.056 595.858 178.678 594.919C178.362 594.135 177.422 593.973 176.674 593.835C175.611 593.642 174.524 593.619 173.46 593.442C172.119 593.212 170.87 592.819 169.49 592.781C168.743 592.758 167.995 592.796 167.255 592.866C166.877 592.904 166.5 592.958 166.122 593.012C165.922 593.05 165.721 593.081 165.521 593.104C165.151 593.189 165.212 593.081 165.706 592.773V592.158C166.006 593.089 166.06 594.073 166.346 595.012C166.708 596.204 167.348 597.265 168.018 598.304C168.689 599.342 169.398 600.304 170.277 601.142C171.125 601.95 172.096 602.588 173.082 603.204C174.339 603.988 173.183 605.988 171.918 605.196L171.942 605.173Z" fill="#333333"/>
<path d="M132.954 553.998C132.839 555.906 132.661 557.798 132.808 559.644C132.954 561.49 133.34 563.398 133.756 565.221C134.18 567.074 134.789 568.859 135.459 570.605C136.13 572.351 137.016 574.028 137.934 575.666C138.851 577.305 139.637 579.058 140.778 580.558C141.919 582.058 143.183 583.489 144.532 584.812C145.873 586.135 147.338 587.366 148.856 588.489C150.375 589.612 152.132 590.35 153.797 591.243C155.462 592.135 157.027 593.242 158.815 593.889C160.572 594.527 162.476 594.773 164.349 595.158C166.176 595.535 168.041 595.75 169.953 595.865C171.865 595.981 173.761 596.235 175.619 596.081C177.522 595.927 179.357 595.389 181.176 594.965C183.026 594.542 184.807 593.935 186.549 593.258C188.291 592.581 190.156 592.035 191.798 591.112C193.447 590.181 194.912 588.958 196.4 587.812C197.895 586.658 199.413 585.512 200.724 584.166C202.034 582.82 203.059 581.212 204.177 579.689C205.287 578.174 206.466 576.689 207.36 575.02C208.255 573.351 208.833 571.574 209.48 569.782C210.128 567.99 210.644 566.228 211.022 564.367C211.399 562.505 211.631 560.69 211.746 558.782C211.862 556.875 211.931 554.998 211.777 553.144C211.623 551.291 211.438 549.36 211.029 547.537C210.621 545.714 210.02 543.883 209.349 542.129C208.679 540.376 207.9 538.622 206.983 536.983C206.065 535.345 204.971 533.776 203.83 532.284C202.689 530.791 201.333 529.468 199.984 528.145C198.635 526.822 197.147 525.699 195.629 524.576C194.11 523.453 192.561 522.43 190.896 521.538C189.231 520.646 187.558 519.853 185.77 519.207C184.013 518.569 182.24 517.938 180.367 517.554C178.494 517.169 176.682 516.761 174.771 516.646C172.859 516.531 170.947 516.569 169.09 516.715C167.186 516.869 165.29 517.115 163.463 517.538C161.636 517.961 159.894 518.83 158.144 519.507C156.395 520.184 154.606 520.861 152.972 521.784C151.338 522.707 149.781 523.807 148.286 524.953C146.79 526.099 145.241 527.215 143.923 528.568C142.605 529.922 141.688 531.607 140.578 533.137C139.468 534.653 138.45 536.214 137.564 537.883C136.677 539.553 135.868 541.214 135.228 543.006C134.588 544.799 134.003 546.545 133.617 548.406C133.232 550.267 133.078 552.098 132.962 554.006L132.954 553.998Z" fill="#FFE6D9"/>
<path d="M134.111 553.998C133.979 556.121 133.802 558.236 134.033 560.359C134.242 562.298 134.658 564.244 135.174 566.121C136.223 569.967 138.018 573.351 139.876 576.851C141.688 580.266 144.247 583.158 147.168 585.673C148.671 586.966 150.236 588.104 151.993 589.027C153.627 589.873 155.231 590.75 156.834 591.658C158.537 592.627 160.272 593.196 162.191 593.573C164.172 593.965 166.153 594.373 168.165 594.573C170.177 594.773 172.204 594.958 174.208 594.973C176.212 594.988 178.085 594.519 180.004 594.058C181.901 593.596 183.751 593.081 185.577 592.396C187.358 591.727 189.231 591.173 190.911 590.281C192.638 589.366 194.149 588.096 195.69 586.912C197.232 585.727 198.804 584.543 200.13 583.112C201.456 581.681 202.458 580.074 203.591 578.543C204.724 577.012 205.911 575.428 206.744 573.659C208.409 570.136 209.603 566.19 210.205 562.344C211.453 554.329 210.32 546.252 206.713 538.976C203.237 531.968 197.163 526.23 190.295 522.538C186.811 520.661 183.065 519.292 179.187 518.484C175.11 517.646 171.071 517.561 166.939 518.084C162.962 518.584 159.239 520.146 155.593 521.761C152.078 523.315 148.841 525.738 145.942 528.245C144.509 529.484 143.46 530.914 142.412 532.476C141.348 534.06 140.2 535.576 139.236 537.23C137.248 540.629 135.706 544.345 134.827 548.191C134.396 550.106 134.226 552.052 134.103 554.006C134.01 555.483 131.698 555.49 131.79 554.006C132.06 549.729 132.877 545.691 134.473 541.699C135.251 539.76 136.176 537.868 137.24 536.06C138.304 534.253 139.483 532.714 140.601 531.03C141.718 529.345 142.89 527.815 144.432 526.499C145.919 525.23 147.515 524.038 149.103 522.892C152.587 520.384 156.479 518.892 160.441 517.307C164.403 515.723 168.982 515.338 173.221 515.423C177.438 515.507 181.615 516.492 185.562 517.907C193.332 520.7 200.546 525.876 205.449 532.537C210.428 539.299 213.134 547.714 212.995 556.113C212.918 560.405 212.355 564.667 211.029 568.751C210.382 570.736 209.688 572.743 208.81 574.643C207.931 576.543 206.628 578.258 205.372 579.974C204.223 581.528 203.175 583.174 201.872 584.604C200.454 586.158 198.75 587.42 197.086 588.704C195.421 589.989 193.887 591.296 192.075 592.258C190.31 593.196 188.375 593.781 186.518 594.481C184.529 595.235 182.51 595.804 180.444 596.311C178.386 596.811 176.335 597.281 174.208 597.265C170.015 597.234 165.852 596.611 161.752 595.819C159.701 595.419 157.79 594.819 155.963 593.804C154.259 592.858 152.564 591.912 150.829 591.012C147.153 589.104 143.961 586.158 141.294 583.02C139.961 581.451 138.843 579.82 137.88 578.005C136.916 576.189 135.853 574.374 135.005 572.482C133.317 568.705 132.222 564.636 131.744 560.521C131.49 558.336 131.667 556.167 131.806 553.983C131.898 552.506 134.211 552.498 134.118 553.983L134.111 553.998Z" fill="#333333"/>
<path d="M160.65 567.482C160.441 568.29 159.994 570.105 159.27 572.336C158.792 573.79 158.021 575.359 157.397 577.028C156.811 578.605 156.387 580.297 155.709 581.789C154.953 583.474 153.967 584.912 153.165 586.143C151.839 588.174 150.722 589.258 149.527 588.712C147.638 587.85 145.865 587.089 144.478 585.82C143.091 584.551 141.903 583.005 140.662 581.389C139.56 579.951 138.743 578.343 137.703 576.889C136.662 575.436 135.436 574.128 134.581 572.52C133.725 570.913 133.286 569.251 132.638 567.613C131.991 565.974 131.097 564.421 130.642 562.713C130.187 561.005 130.095 559.229 129.863 557.483C129.632 555.737 129.409 553.99 129.424 552.229C129.44 550.375 129.47 548.506 129.709 546.675C129.948 544.845 130.565 543.06 131.043 541.283C131.521 539.506 132.053 537.722 132.8 536.037C133.548 534.353 134.334 532.653 135.367 531.115C136.4 529.576 137.757 528.315 139.067 526.992C140.346 525.692 141.518 524.199 143.083 523.138C144.293 522.323 145.65 521.723 146.86 520.9C148.478 519.807 149.997 518.554 151.685 517.577C153.404 516.584 155.308 515.984 157.15 515.254C158.992 514.523 160.788 513.654 162.715 513.192C164.642 512.731 166.631 512.546 168.597 512.354C170.562 512.162 172.543 512.108 174.524 512.185C176.505 512.262 178.509 512.277 180.452 512.638C181.901 512.908 183.866 513.461 186.055 514.177C187.767 514.738 189.593 515.508 191.451 516.308C193.309 517.107 195.02 517.884 196.662 518.854C198.404 519.877 200.061 520.992 201.394 522.215C202.959 523.646 204.177 525.253 204.771 526.922C205.395 528.684 205.187 530.576 204.216 532.545C203.268 534.461 201.849 536.076 200.061 537.33C198.273 538.583 196.369 539.483 194.372 540.276C192.376 541.068 190.11 541.522 188.229 542.114C186.603 542.622 185.03 543.283 183.381 543.699C181.731 544.114 180.12 544.691 178.455 545.052C176.79 545.414 175.056 545.422 173.391 545.745C171.726 546.068 170.077 546.506 168.404 546.814C166.431 547.183 164.812 550.191 163.162 551.467C160.989 553.16 159.1 555.067 157.127 556.998C156.711 557.421 156.333 557.806 156.179 558.375C155.747 559.99 157.582 561.559 158.792 562.19C160.75 563.213 161.536 563.567 160.912 566.167C160.811 566.598 160.727 567.028 160.611 567.459L160.65 567.482Z" fill="#333333"/>
<path d="M161.759 567.79C161.343 569.42 160.912 571.043 160.38 572.643C159.701 574.666 158.738 576.582 158.067 578.612C157.397 580.643 156.757 582.504 155.701 584.304C154.776 585.889 153.766 587.72 152.402 588.966C151.885 589.443 151.284 589.827 150.583 589.958C149.642 590.127 148.841 589.666 148.008 589.281C146.12 588.412 144.401 587.435 142.936 585.935C139.976 582.904 138.042 579.166 135.467 575.843C134.111 574.097 133.124 572.313 132.376 570.236C131.629 568.159 130.611 566.128 129.856 564.021C129.1 561.913 129.008 559.79 128.746 557.659C128.453 555.344 128.252 553.083 128.299 550.752C128.391 546.245 129.463 541.914 130.95 537.668C131.644 535.676 132.538 533.707 133.571 531.868C134.604 530.03 135.891 528.561 137.34 527.107C138.797 525.645 140.131 523.999 141.749 522.715C143.368 521.43 145.411 520.553 147.145 519.315C148.879 518.077 150.567 516.761 152.525 515.869C154.483 514.977 156.51 514.3 158.483 513.477C160.611 512.592 162.7 511.931 164.989 511.608C167.278 511.285 169.622 511.054 171.949 511.008C176.335 510.923 180.59 511.277 184.791 512.561C189.061 513.861 193.409 515.607 197.263 517.861C200.747 519.9 204.385 522.569 205.85 526.484C207.268 530.268 205.094 534.422 202.335 536.991C199.305 539.806 195.166 541.437 191.227 542.499C186.949 543.645 182.795 545.429 178.424 546.245C176.143 546.675 173.853 546.814 171.58 547.321C170.585 547.544 169.491 547.66 168.527 547.983C167.857 548.206 167.332 548.737 166.854 549.237C165.714 550.437 164.735 551.69 163.44 552.744C161.69 554.167 160.087 555.752 158.483 557.329C157.952 557.852 157.081 558.436 157.374 559.275C157.628 560.005 158.391 560.605 159.023 560.998C160.079 561.652 161.335 562.067 161.96 563.221C162.708 564.605 162.106 566.374 161.759 567.782C161.413 569.19 159.177 568.613 159.532 567.167C159.755 566.251 160.488 564.644 159.563 563.936C158.437 563.075 157.135 562.69 156.171 561.575C155.13 560.375 154.568 558.752 155.431 557.283C155.878 556.521 156.61 555.921 157.235 555.306C157.998 554.56 158.761 553.813 159.539 553.09C160.858 551.867 162.368 550.829 163.563 549.491C164.581 548.344 165.521 547.037 166.854 546.221C167.479 545.845 168.126 545.706 168.835 545.56C169.907 545.337 170.971 545.083 172.034 544.852C174.177 544.391 176.389 544.352 178.524 543.86C182.571 542.922 186.441 541.376 190.449 540.306C194.149 539.322 198.126 537.86 200.924 535.137C202.273 533.822 203.398 532.138 203.838 530.291C204.277 528.445 203.645 526.715 202.566 525.192C200.23 521.9 196.307 519.761 192.715 518.115C188.923 516.377 185.022 514.815 180.937 513.908C178.956 513.469 176.937 513.431 174.917 513.354C172.682 513.277 170.47 513.323 168.25 513.546C166.03 513.769 163.933 513.977 161.867 514.646C159.925 515.269 158.075 516.161 156.171 516.877C154.167 517.63 152.317 518.477 150.552 519.7C148.949 520.815 147.43 521.992 145.719 522.938C143.892 523.953 142.443 525.092 141.017 526.63C139.722 528.022 138.296 529.307 137.078 530.768C134.519 533.861 133.186 537.968 132.13 541.768C131.575 543.76 130.943 545.714 130.758 547.783C130.557 549.998 130.503 552.275 130.688 554.49C130.858 556.552 131.104 558.636 131.42 560.682C131.752 562.851 132.669 564.705 133.517 566.697C134.311 568.582 134.797 570.605 135.845 572.374C136.893 574.143 138.211 575.489 139.275 577.128C141.348 580.32 143.46 584.104 146.844 586.097C147.692 586.597 148.594 587.012 149.496 587.42C150.197 587.735 150.405 587.712 150.968 587.143C152.209 585.874 153.188 584.112 154.044 582.566C155.007 580.812 155.508 578.905 156.179 577.035C156.849 575.166 157.736 573.397 158.329 571.505C158.784 570.074 159.17 568.62 159.539 567.174C159.909 565.728 162.145 566.344 161.767 567.79H161.759Z" fill="#333333"/>
<path d="M192.391 554.752C192.098 556.16 193.208 557.575 194.611 557.867C196.014 558.159 197.532 557.283 197.825 555.875C198.118 554.467 197.054 553.098 195.651 552.806C194.249 552.514 192.676 553.344 192.383 554.752H192.391Z" fill="#333333"/>
<path d="M206.428 560.159C206.281 559.998 206.127 559.844 205.958 559.706L206.189 559.883C206.027 559.759 205.85 559.652 205.665 559.567L205.942 559.683C205.78 559.613 205.611 559.567 205.433 559.544L205.742 559.583C205.58 559.567 205.426 559.567 205.264 559.583L205.572 559.544C205.387 559.575 205.21 559.621 205.04 559.69L205.318 559.575C205.171 559.636 205.04 559.706 204.902 559.79C204.385 560.106 203.607 559.921 203.321 559.375C203.036 558.829 203.183 558.129 203.738 557.798C204.061 557.598 204.424 557.436 204.794 557.352C205.256 557.252 205.665 557.252 206.127 557.329C206.474 557.39 206.821 557.536 207.114 557.721C207.468 557.936 207.784 558.213 208.062 558.521C208.262 558.752 208.401 559.021 208.401 559.336C208.401 559.621 208.278 559.959 208.062 560.152C207.846 560.344 207.553 560.506 207.245 560.49C206.936 560.475 206.628 560.382 206.428 560.152V560.159Z" fill="#333333"/>
<path d="M171.556 561.844C171.101 564.067 171.579 566.344 172.728 568.098C173.884 569.859 175.765 571.274 177.992 571.728C180.22 572.19 182.478 571.605 184.236 570.444C185.986 569.282 187.311 567.413 187.774 565.19C188.236 562.967 187.735 560.736 186.587 558.975C185.431 557.213 183.558 555.96 181.338 555.506C179.11 555.044 176.805 555.313 175.048 556.475C173.29 557.636 172.011 559.613 171.556 561.836V561.844Z" fill="#EDBBA6"/>
<path d="M166.708 563.367C165.12 564.274 163.347 564.751 161.389 564.636C159.616 564.528 158.067 563.936 156.687 563.021C155.307 562.105 154.082 560.875 153.326 559.344C152.571 557.813 152.24 556.213 152.348 554.444C152.455 552.675 153.088 551.137 153.997 549.752C154.937 548.329 156.009 546.898 157.535 546.129C159.061 545.36 160.803 545.014 162.576 545.122C164.634 545.245 166.438 546.237 167.941 547.429" fill="#FFE6D9"/>
<path d="M167.294 564.359C164.542 565.874 161.266 566.274 158.298 565.128C155.524 564.059 153.149 561.936 152.001 559.182C150.775 556.244 150.953 552.898 152.456 550.09C153.897 547.398 156.001 545.152 159.015 544.337C162.615 543.368 165.899 544.375 168.774 546.606C169.945 547.514 168.304 549.137 167.14 548.237C164.596 546.268 161.42 545.637 158.414 546.983C155.878 548.121 153.851 551.406 153.543 554.106C153.18 557.267 154.645 560.275 157.281 562.013C160.002 563.813 163.278 563.936 166.13 562.359C167.433 561.644 168.604 563.636 167.294 564.351V564.359Z" fill="#333333"/>
<path d="M210.282 616.618C210.359 616.534 210.436 616.449 210.505 616.357C210.328 616.611 210.544 616.295 210.574 616.249C210.706 616.065 210.821 615.872 210.929 615.672C210.983 615.572 211.029 615.472 211.083 615.372L211.122 615.295C211.176 615.18 211.168 615.195 211.106 615.342C211.222 615.188 211.268 614.895 211.322 614.711C211.368 614.534 211.492 614.242 211.461 614.057C211.438 614.211 211.438 614.249 211.446 614.157C211.446 614.118 211.453 614.072 211.461 614.034C211.469 613.926 211.476 613.811 211.484 613.703C211.492 613.48 211.484 613.257 211.469 613.034C211.469 612.98 211.461 612.919 211.453 612.865C211.476 613.034 211.476 613.049 211.453 612.919C211.43 612.803 211.415 612.695 211.392 612.58C211.261 611.988 211.569 611.303 212.201 611.157C212.787 611.026 213.488 611.334 213.627 611.965C214.12 614.242 213.465 616.518 211.939 618.264C211.538 618.718 210.706 618.703 210.305 618.264C209.858 617.78 209.881 617.118 210.305 616.634L210.282 616.618Z" fill="#333333"/>
<path d="M176.952 629.464C179.92 629.41 179.912 629.31 182.88 629.256C185.847 629.202 185.847 629.518 188.815 629.464C189.331 629.456 189.701 628.902 189.686 628.387C189.64 625.841 189.855 625.841 189.809 623.295C189.763 620.749 189.555 620.749 189.508 618.203C189.462 615.657 189.539 615.657 189.493 613.111C189.485 612.595 189 612.049 188.491 612.057C185.523 612.111 185.531 612.349 182.564 612.403C179.596 612.457 179.604 612.495 176.636 612.549C176.12 612.557 175.595 612.857 175.603 613.365C175.649 615.911 175.642 615.911 175.688 618.457C175.734 621.003 176.05 620.995 176.096 623.541C176.143 626.087 175.819 626.095 175.865 628.641C175.873 629.156 176.443 629.472 176.952 629.464Z" fill="#FCFCFC"/>
<path d="M180.482 622.941C182.71 622.903 182.71 622.603 184.938 622.564C185.13 622.564 185.5 622.51 185.5 622.318C185.446 619.449 185.277 619.449 185.223 616.572C185.223 616.38 185.015 616.295 184.822 616.303C182.594 616.341 182.594 616.411 180.367 616.449C180.174 616.449 180.22 616.472 180.22 616.664C180.274 619.534 180.212 619.541 180.266 622.41C180.266 622.603 180.297 622.941 180.49 622.941H180.482Z" fill="#95BECE"/>
<path d="M191.566 633.564C189.531 634.025 187.381 634.202 185.747 633.279C185.384 633.071 184.976 632.879 184.791 632.487C184.005 630.825 183.419 629.049 182.987 627.256C182.556 625.464 182.455 623.61 182.401 621.772C182.386 621.295 182.293 620.795 182.494 620.372C182.741 619.849 183.242 619.495 183.735 619.234C186.016 618.011 188.537 617.28 191.096 617.049C192.854 616.888 194.773 616.372 196.16 617.957C196.731 618.611 197.124 619.726 196.615 620.372C196.214 620.872 195.644 620.841 195.089 621.103C195.574 621.195 195.952 621.203 196.376 621.51C196.8 621.818 197.147 622.441 197.093 622.987C197.016 623.787 196.183 624.326 195.513 624.556C196.368 624.326 197.247 624.987 197.347 626.01C197.44 627.033 196.738 627.802 195.844 627.649C199.845 628.356 195.891 632.502 194.202 633.148C193.47 633.425 192.499 633.356 191.574 633.571L191.566 633.564Z" fill="#FFE6D9"/>
<path d="M191.875 634.679C190.356 635.01 188.815 635.225 187.265 634.987C186.024 634.794 184.452 634.217 183.789 633.071C182.995 631.694 182.509 629.987 182.101 628.464C181.654 626.825 181.415 625.164 181.315 623.464C181.222 621.91 180.883 620.172 182.109 618.972C183.141 617.957 184.806 617.395 186.148 616.934C187.697 616.395 189.308 616.08 190.942 615.918C192.237 615.788 193.563 615.534 194.85 615.857C196.291 616.218 197.548 617.411 197.902 618.864C198.087 619.626 198.01 620.441 197.517 621.072C196.962 621.772 196.176 621.903 195.39 622.218V619.995C196.839 620.249 198.165 621.141 198.242 622.756C198.303 624.241 197.078 625.202 195.814 625.679L195.197 623.456C196.831 623.141 198.288 624.203 198.473 625.864C198.642 627.418 197.502 628.972 195.837 628.81L196.145 626.541C197.247 626.764 198.334 627.341 198.642 628.495C198.92 629.51 198.457 630.595 197.879 631.41C197.255 632.294 196.484 633.056 195.598 633.679C194.449 634.487 193.193 634.417 191.867 634.679C190.41 634.971 189.794 632.748 191.25 632.456C192.152 632.279 193.432 632.279 194.018 631.948C194.596 631.625 195.089 631.164 195.528 630.671C195.914 630.248 196.307 629.733 196.407 629.172C196.422 629.072 196.33 629.025 196.407 629.087C196.16 628.895 195.852 628.825 195.521 628.764C194.257 628.51 194.526 626.372 195.829 626.495C196.438 626.556 196.176 625.602 195.806 625.672C194.334 625.956 193.802 623.972 195.189 623.449C195.444 623.356 195.914 623.141 195.914 622.818C195.914 622.303 195.089 622.272 194.765 622.21C193.509 621.987 193.833 620.357 194.765 619.987C195.274 619.78 195.829 619.887 195.598 619.257C195.428 618.795 195.035 618.395 194.588 618.195C193.594 617.757 192.345 618.072 191.312 618.187C189.855 618.341 188.437 618.61 187.042 619.064C186.333 619.295 185.647 619.572 184.976 619.895C184.521 620.118 183.712 620.387 183.519 620.91C183.411 621.203 183.542 621.764 183.558 622.08C183.573 622.395 183.581 622.695 183.596 623.003C183.635 623.818 183.689 624.633 183.804 625.449C184.02 626.964 184.452 628.464 184.961 629.91C185.169 630.502 185.377 631.433 185.778 631.91C186.109 632.302 186.741 632.518 187.227 632.641C188.537 632.971 189.948 632.748 191.243 632.456C192.692 632.133 193.308 634.364 191.859 634.679H191.875Z" fill="#333333"/>
<path d="M165.814 601.011C165.922 602.573 166.107 604.15 166.569 605.626C167.032 607.103 167.741 608.549 168.581 609.857C169.421 611.165 170.4 612.418 171.587 613.457C173.298 614.957 175.403 615.972 177.53 616.757C179.403 617.449 183.103 616.941 184.159 618.91C184.367 619.303 184.375 619.787 184.452 620.226C184.722 621.833 184.984 623.441 185.254 625.049C185.523 626.656 185.824 628.256 186.094 629.864C186.333 631.271 186.579 632.856 185.847 634.079C185.177 635.187 183.72 635.902 182.186 636.379C180.652 636.856 179.079 637.263 177.923 637.44C176.366 637.679 174.755 637.748 173.183 637.733C171.61 637.717 170.022 637.479 168.473 637.21C166.446 636.856 164.45 636.271 162.546 635.487C160.642 634.702 158.892 633.587 157.227 632.387C155.562 631.187 153.997 629.856 152.687 628.256" fill="#FCFCFC"/>
<path d="M166.97 601.011C167.186 604.027 167.949 606.719 169.583 609.273C171.125 611.688 173.137 613.495 175.719 614.749C176.698 615.226 177.731 615.695 178.81 615.888C179.804 616.065 180.822 616.111 181.816 616.303C182.718 616.472 183.62 616.772 184.336 617.357C185.292 618.134 185.446 619.141 185.639 620.287C186.14 623.38 186.703 626.464 187.219 629.556C187.651 632.125 187.674 634.61 185.308 636.225C184.259 636.941 183.018 637.348 181.808 637.702C180.421 638.11 179.018 638.456 177.576 638.648C174.547 639.048 171.541 638.902 168.535 638.387C162.191 637.31 156.04 634.041 151.885 629.072C150.937 627.941 152.564 626.295 153.52 627.441C157.027 631.633 162.06 634.595 167.371 635.81C170.13 636.441 172.936 636.694 175.757 636.517C178.27 636.356 181.114 635.833 183.373 634.687C184.39 634.171 185.084 633.533 185.184 632.348C185.292 631.018 184.899 629.618 184.668 628.318C184.175 625.533 183.743 622.741 183.265 619.957C182.98 618.28 180.305 618.403 179.01 618.234C176.829 617.941 174.694 616.957 172.844 615.803C170.393 614.272 168.496 612.08 167.078 609.58C165.544 606.896 164.889 604.073 164.665 601.011C164.558 599.527 166.87 599.535 166.978 601.011H166.97Z" fill="#333333"/>
<path d="M205.187 566.474C203.576 567.982 201.433 568.897 199.205 568.513C197.224 568.174 195.497 566.759 194.48 565.074C193.709 563.798 195.706 562.636 196.476 563.913C197.186 565.09 198.319 565.99 199.691 566.267C200.292 566.382 201.009 566.274 201.672 566.044C202.335 565.813 203.013 565.351 203.552 564.844C204.007 564.421 204.739 564.39 205.187 564.844C205.634 565.297 205.641 566.051 205.187 566.474Z" fill="#333333"/>
<path d="M192.692 530.391C194.249 529.107 195.898 528.268 197.64 527.922C199.483 527.553 201.417 527.484 203.236 528.022C204.978 528.538 206.636 529.561 208.131 530.784C209.426 531.838 210.59 533.145 211.453 534.584C212.34 536.068 212.671 537.722 212.74 539.376C212.81 541.029 212.494 542.514 211.461 544.06C210.914 544.883 210.312 545.752 209.357 546.037C208.2 546.383 206.882 545.945 205.942 545.191C205.002 544.437 204.477 543.475 203.822 542.46C202.959 544.906 200.138 546.237 197.548 546.045C194.958 545.852 192.607 544.206 191.374 541.929C190.14 539.645 190.163 536.937 190.695 534.407C191.011 532.891 191.474 531.391 192.669 530.407L192.692 530.391Z" fill="#333333"/>
<path d="M191.875 529.576C194.457 527.499 197.463 526.368 200.801 526.484C204.092 526.599 207.014 528.23 209.434 530.368C211.831 532.484 213.465 535.176 213.827 538.376C214.151 541.268 213.296 544.629 210.898 546.498C209.603 547.506 207.877 547.475 206.428 546.814C204.755 546.052 203.799 544.529 202.851 543.037L204.963 542.76C202.936 547.998 196.053 548.306 192.26 544.868C190.125 542.937 189.177 540.114 189.223 537.283C189.262 534.66 189.817 531.399 191.883 529.576C192.993 528.591 194.634 530.222 193.517 531.207C191.983 532.561 191.628 535.022 191.543 536.96C191.459 539.106 191.967 541.245 193.486 542.837C194.812 544.222 196.685 545.045 198.619 544.875C200.308 544.729 202.104 543.783 202.736 542.145C203.09 541.229 204.285 540.983 204.848 541.868C205.618 543.075 206.397 544.514 207.9 544.906C209.411 545.298 210.22 544.022 210.86 542.852C212.324 540.152 211.584 536.63 209.866 534.237C208.147 531.845 205.457 529.761 202.605 529.038C199.429 528.238 196.03 529.191 193.524 531.207C192.376 532.13 190.726 530.507 191.89 529.576H191.875Z" fill="#333333"/>
<path d="M138.257 602.988C139.406 601.773 140.739 600.204 141.949 598.365C143.005 596.758 143.93 594.958 144.694 593.135C145.487 591.242 146.158 589.327 146.281 587.45C146.42 585.412 145.965 583.489 144.879 581.804C143.792 580.12 142.219 579.058 140.408 578.643C138.596 578.228 136.7 578.212 134.781 578.674C132.962 579.112 131.212 580.035 129.617 580.966C127.828 582.004 126.433 583.358 125.416 584.627C123.897 586.527 122.548 588.558 120.729 590.181C119.635 591.166 118.27 591.85 117.222 592.889C115.75 594.342 115.226 596.511 115.179 598.573C115.133 600.634 115.719 602.657 116.937 604.288C118.293 606.103 119.951 607.173 121.723 607.873C123.627 608.619 125.616 608.865 127.674 608.58C129.732 608.296 131.644 607.711 133.463 606.734C135.282 605.757 136.893 604.427 138.257 602.98V602.988Z" fill="#333333"/>
<path d="M137.44 602.173C139.444 600.034 141.171 597.704 142.512 595.096C143.853 592.489 145.271 589.381 145.14 586.343C145.04 583.804 143.66 581.189 141.263 580.135C138.512 578.928 135.158 579.474 132.53 580.72C129.902 581.966 127.697 583.558 125.901 585.858C124.113 588.15 122.456 590.45 120.051 592.158C118.948 592.942 117.823 593.666 117.168 594.889C116.567 596.012 116.343 597.327 116.32 598.588C116.258 601.442 117.623 604.08 119.989 605.696C125.732 609.619 133.054 606.757 137.432 602.188C138.465 601.111 140.099 602.742 139.066 603.819C134.395 608.703 127.104 611.572 120.606 608.665C117.731 607.38 115.38 604.942 114.462 601.904C113.591 599.019 113.892 595.335 115.734 592.866C116.721 591.55 118.124 590.781 119.403 589.796C120.714 588.781 121.785 587.458 122.787 586.158C123.789 584.858 124.691 583.566 125.839 582.435C127.05 581.235 128.445 580.282 129.94 579.466C133.193 577.682 136.677 576.728 140.385 577.474C143.406 578.082 145.657 580.212 146.775 583.035C148.231 586.735 147.052 590.581 145.549 594.05C143.977 597.688 141.772 600.927 139.066 603.819C138.049 604.903 136.415 603.273 137.432 602.188L137.44 602.173Z" fill="#333333"/>
<path d="M219.222 593H197.222L199.507 617.805C199.507 619.144 200.356 620.471 202.075 621.486C205.491 623.505 211.008 623.505 214.402 621.486C216.11 620.471 216.948 619.133 216.937 617.805L219.222 593Z" fill="#F2F2F2" stroke="#333333" stroke-width="2" stroke-linecap="round" stroke-linejoin="round"/>
<path d="M220.238 590.065V593.242C220.238 595.029 219.057 596.805 216.717 598.162C212.004 600.898 204.333 600.909 199.576 598.162C197.192 596.783 195.989 594.974 196 593.165V589.988C196 591.797 197.192 593.606 199.576 594.985C204.322 597.721 211.993 597.721 216.717 594.985C219.057 593.628 220.238 591.841 220.238 590.065Z" fill="#F2F2F2" stroke="#333333" stroke-width="2" stroke-linecap="round" stroke-linejoin="round"/>
<path d="M216.662 585.067C221.408 587.803 221.43 592.249 216.717 594.985C212.004 597.721 204.333 597.732 199.576 594.985C194.83 592.249 194.808 587.803 199.521 585.056C204.234 582.309 211.905 582.32 216.662 585.056V585.067Z" fill="#F2F2F2" stroke="#333333" stroke-width="2" stroke-linecap="round" stroke-linejoin="round"/>
<path d="M199.423 602.692C198.521 602.175 197.783 601.604 197.222 601L198.499 611.206C198.994 611.971 199.775 612.694 200.864 613.319C204.352 615.291 209.722 615.528 213.639 614.03L214.222 603.748C209.568 605.322 203.461 604.977 199.434 602.703L199.423 602.692Z" fill="#FD780F" stroke="#333333" stroke-width="2" stroke-linecap="round" stroke-linejoin="round"/>
<path d="M203.222 607.258L202.662 606.369C202.649 606.347 202.667 606.32 202.693 606.324L208.331 607.135C208.368 607.14 208.392 607.177 208.379 607.212L208.311 607.402C208.304 607.42 208.294 607.436 208.279 607.449L204.497 610.792C204.479 610.809 204.489 610.838 204.514 610.842L206.682 611.154C206.718 611.159 206.755 611.149 206.782 611.125L207.147 610.808C207.161 610.795 207.184 610.799 207.194 610.815L207.749 611.697C207.762 611.718 207.744 611.745 207.719 611.741L202.079 610.93C202.041 610.924 202.017 610.887 202.03 610.853L202.097 610.668C202.103 610.65 202.114 610.635 202.128 610.622L205.929 607.275C205.947 607.259 205.937 607.229 205.912 607.225L203.759 606.915C203.722 606.91 203.685 606.921 203.658 606.944L203.27 607.266C203.255 607.278 203.232 607.275 203.222 607.258L203.222 607.258Z" fill="white"/>
<path d="M217.121 602.652C216.41 603.062 215.623 603.408 214.793 603.699L214.222 614C214.75 613.795 215.246 613.557 215.709 613.287C216.744 612.683 217.498 611.97 217.972 611.225L219.222 601C218.683 601.594 217.983 602.155 217.121 602.652Z" fill="#FD780F" stroke="#333333" stroke-width="2" stroke-linecap="round" stroke-linejoin="round"/>
<path d="M213.222 587C213.222 587 214.229 587.321 215.222 588L213.222 587Z" fill="#F2F2F2"/>
<path d="M213.222 587C213.222 587 214.229 587.321 215.222 588" stroke="#333333" stroke-width="2" stroke-linecap="round" stroke-linejoin="round"/>
</g>
<defs>
<clipPath id="clip0_40_489">
<rect width="109" height="170" fill="white" transform="translate(114 511)"/>
</clipPath>
</defs>
</svg>
