<svg width="143" height="83" viewBox="0 0 143 83" fill="none" xmlns="http://www.w3.org/2000/svg">
<mask id="path-1-outside-1_99_321" maskUnits="userSpaceOnUse" x="-3" y="15" width="145" height="60" fill="black">
<rect fill="white" x="-3" y="15" width="145" height="60"/>
<path d="M18.8458 71.192C16.1578 71.1067 13.8964 70.5307 12.0618 69.464C10.2698 68.44 8.92575 67.096 8.02975 65.432C7.17642 63.768 6.74975 61.9973 6.74975 60.12C6.74975 57.0053 7.70975 54.424 9.62975 52.376C11.5924 50.2853 14.6858 49.2187 18.9097 49.176C27.3578 49.048 35.7844 49.048 44.1898 49.176C48.3711 49.176 51.4431 50.2213 53.4058 52.312C55.3684 54.4027 56.3498 57.0053 56.3498 60.12C56.3498 61.9973 55.9018 63.768 55.0058 65.432C54.1524 67.096 52.8084 68.44 50.9738 69.464C49.1818 70.5307 46.9631 71.1067 44.3178 71.192C35.7844 71.4053 27.2938 71.4053 18.8458 71.192ZM20.6378 31.576H32.6058L37.8538 46.36H25.6938L20.5098 31.96L14.8778 46.36H1.94975L9.30975 27.864H1.62975V18.904H36.9578V27.864H22.1098L20.6378 31.576ZM43.5498 29.784V18.328H56.2218V46.488H43.5498V40.088H37.5978V29.784H43.5498ZM43.4218 58.584V56.408L19.5498 61.208V63.384L43.4218 58.584ZM122.026 26.648V36.76H115.69V45.656H103.018V18.328H115.69V26.648H122.026ZM65.3223 19.032H96.3623V28.76H77.6103V35.48H98.4103V45.208H65.3223V19.032ZM67.9463 48.664H80.4903V63.64H103.146V48.664H115.69V71.32H67.9463V48.664ZM84.0103 56.152L99.6903 53.72V56.28L84.0103 58.712V56.152ZM137.719 68.312H126.135V58.328H137.719V68.312ZM138.743 21.336L136.759 54.68H127.031L125.367 21.336H138.743Z"/>
</mask>
<path d="M18.8458 71.192C16.1578 71.1067 13.8964 70.5307 12.0618 69.464C10.2698 68.44 8.92575 67.096 8.02975 65.432C7.17642 63.768 6.74975 61.9973 6.74975 60.12C6.74975 57.0053 7.70975 54.424 9.62975 52.376C11.5924 50.2853 14.6858 49.2187 18.9097 49.176C27.3578 49.048 35.7844 49.048 44.1898 49.176C48.3711 49.176 51.4431 50.2213 53.4058 52.312C55.3684 54.4027 56.3498 57.0053 56.3498 60.12C56.3498 61.9973 55.9018 63.768 55.0058 65.432C54.1524 67.096 52.8084 68.44 50.9738 69.464C49.1818 70.5307 46.9631 71.1067 44.3178 71.192C35.7844 71.4053 27.2938 71.4053 18.8458 71.192ZM20.6378 31.576H32.6058L37.8538 46.36H25.6938L20.5098 31.96L14.8778 46.36H1.94975L9.30975 27.864H1.62975V18.904H36.9578V27.864H22.1098L20.6378 31.576ZM43.5498 29.784V18.328H56.2218V46.488H43.5498V40.088H37.5978V29.784H43.5498ZM43.4218 58.584V56.408L19.5498 61.208V63.384L43.4218 58.584ZM122.026 26.648V36.76H115.69V45.656H103.018V18.328H115.69V26.648H122.026ZM65.3223 19.032H96.3623V28.76H77.6103V35.48H98.4103V45.208H65.3223V19.032ZM67.9463 48.664H80.4903V63.64H103.146V48.664H115.69V71.32H67.9463V48.664ZM84.0103 56.152L99.6903 53.72V56.28L84.0103 58.712V56.152ZM137.719 68.312H126.135V58.328H137.719V68.312ZM138.743 21.336L136.759 54.68H127.031L125.367 21.336H138.743Z" fill="black"/>
<path d="M18.8458 71.192L18.7506 74.1905L18.7603 74.1908L18.77 74.191L18.8458 71.192ZM12.0618 69.464L13.5696 66.8705L13.5599 66.8648L13.5502 66.8593L12.0618 69.464ZM8.02975 65.432L5.3603 66.8009L5.37405 66.8278L5.38834 66.8543L8.02975 65.432ZM9.62975 52.376L7.44253 50.3227L7.44114 50.3242L9.62975 52.376ZM18.9097 49.176L18.9401 52.1758L18.9476 52.1758L18.9552 52.1757L18.9097 49.176ZM44.1898 49.176L44.1441 52.1757L44.1669 52.176H44.1898V49.176ZM53.4058 52.312L55.593 50.2587L53.4058 52.312ZM55.0058 65.432L52.3643 64.0097L52.3501 64.0362L52.3363 64.0631L55.0058 65.432ZM50.9738 69.464L49.5117 66.8444L49.4752 66.8648L49.4393 66.8861L50.9738 69.464ZM44.3178 71.192L44.3927 74.1911L44.4036 74.1908L44.4145 74.1904L44.3178 71.192ZM20.6378 31.576L17.849 30.4701L16.2208 34.576H20.6378V31.576ZM32.6058 31.576L35.4329 30.5724L34.7242 28.576H32.6058V31.576ZM37.8538 46.36V49.36H42.1021L40.6809 45.3564L37.8538 46.36ZM25.6938 46.36L22.8711 47.3762L23.5853 49.36H25.6938V46.36ZM20.5098 31.96L23.3324 30.9438L20.6261 23.4263L17.7158 30.8673L20.5098 31.96ZM14.8778 46.36V49.36H16.9257L17.6717 47.4527L14.8778 46.36ZM1.94975 46.36L-0.837671 45.2508L-2.47281 49.36H1.94975V46.36ZM9.30975 27.864L12.0972 28.9732L13.7323 24.864H9.30975V27.864ZM1.62975 27.864H-1.37025V30.864H1.62975V27.864ZM1.62975 18.904V15.904H-1.37025V18.904H1.62975ZM36.9578 18.904H39.9578V15.904H36.9578V18.904ZM36.9578 27.864V30.864H39.9578V27.864H36.9578ZM22.1098 27.864V24.864H20.0721L19.321 26.7581L22.1098 27.864ZM43.5498 29.784V32.784H46.5498V29.784H43.5498ZM43.5498 18.328V15.328H40.5498V18.328H43.5498ZM56.2218 18.328H59.2218V15.328H56.2218V18.328ZM56.2218 46.488V49.488H59.2218V46.488H56.2218ZM43.5498 46.488H40.5498V49.488H43.5498V46.488ZM43.5498 40.088H46.5498V37.088H43.5498V40.088ZM37.5978 40.088H34.5978V43.088H37.5978V40.088ZM37.5978 29.784V26.784H34.5978V29.784H37.5978ZM43.4218 58.584L44.0131 61.5251L46.4218 61.0408V58.584H43.4218ZM43.4218 56.408H46.4218V52.7447L42.8304 53.4669L43.4218 56.408ZM19.5498 61.208L18.9584 58.2669L16.5498 58.7512V61.208H19.5498ZM19.5498 63.384H16.5498V67.0473L20.1411 66.3251L19.5498 63.384ZM18.9409 68.1935C16.6202 68.1198 14.8743 67.629 13.5696 66.8705L10.5539 72.0575C12.9185 73.4323 15.6953 74.0935 18.7506 74.1905L18.9409 68.1935ZM13.5502 66.8593C12.199 66.0872 11.2767 65.1343 10.6712 64.0097L5.38834 66.8543C6.57479 69.0577 8.34047 70.7928 10.5733 72.0687L13.5502 66.8593ZM10.6992 64.063C10.064 62.8244 9.74975 61.5232 9.74975 60.12H3.74975C3.74975 62.4715 4.28884 64.7116 5.3603 66.8009L10.6992 64.063ZM9.74975 60.12C9.74975 57.6769 10.4785 55.8571 11.8184 54.4278L7.44114 50.3242C4.94104 52.9909 3.74975 56.3337 3.74975 60.12H9.74975ZM11.817 54.4293C13.0006 53.1684 15.1463 52.2142 18.9401 52.1758L18.8794 46.1762C14.2252 46.2232 10.1842 47.4022 7.44253 50.3227L11.817 54.4293ZM18.9552 52.1757C27.373 52.0481 35.7693 52.0481 44.1441 52.1757L44.2354 46.1763C35.7996 46.0479 27.3425 46.0479 18.8643 46.1763L18.9552 52.1757ZM44.1898 52.176C47.9256 52.176 50.0405 53.1104 51.2185 54.3653L55.593 50.2587C52.8457 47.3322 48.8165 46.176 44.1898 46.176V52.176ZM51.2185 54.3653C52.6119 55.8496 53.3498 57.6964 53.3498 60.12H59.3498C59.3498 56.3142 58.1249 52.9558 55.593 50.2587L51.2185 54.3653ZM53.3498 60.12C53.3498 61.4974 53.0266 62.7798 52.3643 64.0097L57.6472 66.8543C58.7769 64.7562 59.3498 62.4973 59.3498 60.12H53.3498ZM52.3363 64.0631C51.7858 65.1366 50.8954 66.0721 49.5117 66.8444L52.4358 72.0836C54.7214 70.8079 56.5191 69.0554 57.6752 66.8009L52.3363 64.0631ZM49.4393 66.8861C48.1853 67.6325 46.4929 68.1203 44.221 68.1936L44.4145 74.1904C47.4332 74.0931 50.1782 73.4288 52.5082 72.0419L49.4393 66.8861ZM44.2428 68.1929C35.7592 68.405 27.3188 68.405 18.9215 68.193L18.77 74.191C27.2687 74.4057 35.8097 74.4056 44.3927 74.1911L44.2428 68.1929ZM20.6378 34.576H32.6058V28.576H20.6378V34.576ZM29.7786 32.5796L35.0266 47.3636L40.6809 45.3564L35.4329 30.5724L29.7786 32.5796ZM37.8538 43.36H25.6938V49.36H37.8538V43.36ZM28.5164 45.3438L23.3324 30.9438L17.6871 32.9762L22.8711 47.3762L28.5164 45.3438ZM17.7158 30.8673L12.0838 45.2673L17.6717 47.4527L23.3037 33.0527L17.7158 30.8673ZM14.8778 43.36H1.94975V49.36H14.8778V43.36ZM4.73717 47.4692L12.0972 28.9732L6.52233 26.7548L-0.837671 45.2508L4.73717 47.4692ZM9.30975 24.864H1.62975V30.864H9.30975V24.864ZM4.62975 27.864V18.904H-1.37025V27.864H4.62975ZM1.62975 21.904H36.9578V15.904H1.62975V21.904ZM33.9578 18.904V27.864H39.9578V18.904H33.9578ZM36.9578 24.864H22.1098V30.864H36.9578V24.864ZM19.321 26.7581L17.849 30.4701L23.4265 32.6819L24.8985 28.9699L19.321 26.7581ZM46.5498 29.784V18.328H40.5498V29.784H46.5498ZM43.5498 21.328H56.2218V15.328H43.5498V21.328ZM53.2218 18.328V46.488H59.2218V18.328H53.2218ZM56.2218 43.488H43.5498V49.488H56.2218V43.488ZM46.5498 46.488V40.088H40.5498V46.488H46.5498ZM43.5498 37.088H37.5978V43.088H43.5498V37.088ZM40.5978 40.088V29.784H34.5978V40.088H40.5978ZM37.5978 32.784H43.5498V26.784H37.5978V32.784ZM46.4218 58.584V56.408H40.4218V58.584H46.4218ZM42.8304 53.4669L18.9584 58.2669L20.1411 64.1491L44.0131 59.3491L42.8304 53.4669ZM16.5498 61.208V63.384H22.5498V61.208H16.5498ZM20.1411 66.3251L44.0131 61.5251L42.8304 55.6429L18.9584 60.4429L20.1411 66.3251ZM122.026 26.648H125.026V23.648H122.026V26.648ZM122.026 36.76V39.76H125.026V36.76H122.026ZM115.69 36.76V33.76H112.69V36.76H115.69ZM115.69 45.656V48.656H118.69V45.656H115.69ZM103.018 45.656H100.018V48.656H103.018V45.656ZM103.018 18.328V15.328H100.018V18.328H103.018ZM115.69 18.328H118.69V15.328H115.69V18.328ZM115.69 26.648H112.69V29.648H115.69V26.648ZM65.3223 19.032V16.032H62.3223V19.032H65.3223ZM96.3623 19.032H99.3623V16.032H96.3623V19.032ZM96.3623 28.76V31.76H99.3623V28.76H96.3623ZM77.6103 28.76V25.76H74.6103V28.76H77.6103ZM77.6103 35.48H74.6103V38.48H77.6103V35.48ZM98.4102 35.48H101.41V32.48H98.4102V35.48ZM98.4102 45.208V48.208H101.41V45.208H98.4102ZM65.3223 45.208H62.3223V48.208H65.3223V45.208ZM67.9463 48.664V45.664H64.9463V48.664H67.9463ZM80.4902 48.664H83.4902V45.664H80.4902V48.664ZM80.4902 63.64H77.4902V66.64H80.4902V63.64ZM103.146 63.64V66.64H106.146V63.64H103.146ZM103.146 48.664V45.664H100.146V48.664H103.146ZM115.69 48.664H118.69V45.664H115.69V48.664ZM115.69 71.32V74.32H118.69V71.32H115.69ZM67.9463 71.32H64.9463V74.32H67.9463V71.32ZM84.0103 56.152L83.5504 53.1874L81.0103 53.5814V56.152H84.0103ZM99.6902 53.72H102.69V50.2188L99.2304 50.7554L99.6902 53.72ZM99.6902 56.28L100.15 59.2446L102.69 58.8506V56.28H99.6902ZM84.0103 58.712H81.0103V62.2132L84.4701 61.6766L84.0103 58.712ZM119.026 26.648V36.76H125.026V26.648H119.026ZM122.026 33.76H115.69V39.76H122.026V33.76ZM112.69 36.76V45.656H118.69V36.76H112.69ZM115.69 42.656H103.018V48.656H115.69V42.656ZM106.018 45.656V18.328H100.018V45.656H106.018ZM103.018 21.328H115.69V15.328H103.018V21.328ZM112.69 18.328V26.648H118.69V18.328H112.69ZM115.69 29.648H122.026V23.648H115.69V29.648ZM65.3223 22.032H96.3623V16.032H65.3223V22.032ZM93.3623 19.032V28.76H99.3623V19.032H93.3623ZM96.3623 25.76H77.6103V31.76H96.3623V25.76ZM74.6103 28.76V35.48H80.6103V28.76H74.6103ZM77.6103 38.48H98.4102V32.48H77.6103V38.48ZM95.4102 35.48V45.208H101.41V35.48H95.4102ZM98.4102 42.208H65.3223V48.208H98.4102V42.208ZM68.3223 45.208V19.032H62.3223V45.208H68.3223ZM67.9463 51.664H80.4902V45.664H67.9463V51.664ZM77.4902 48.664V63.64H83.4902V48.664H77.4902ZM80.4902 66.64H103.146V60.64H80.4902V66.64ZM106.146 63.64V48.664H100.146V63.64H106.146ZM103.146 51.664H115.69V45.664H103.146V51.664ZM112.69 48.664V71.32H118.69V48.664H112.69ZM115.69 68.32H67.9463V74.32H115.69V68.32ZM70.9463 71.32V48.664H64.9463V71.32H70.9463ZM84.4701 59.1166L100.15 56.6846L99.2304 50.7554L83.5504 53.1874L84.4701 59.1166ZM96.6902 53.72V56.28H102.69V53.72H96.6902ZM99.2304 53.3154L83.5504 55.7474L84.4701 61.6766L100.15 59.2446L99.2304 53.3154ZM87.0103 58.712V56.152H81.0103V58.712H87.0103ZM137.719 68.312V71.312H140.719V68.312H137.719ZM126.135 68.312H123.135V71.312H126.135V68.312ZM126.135 58.328V55.328H123.135V58.328H126.135ZM137.719 58.328H140.719V55.328H137.719V58.328ZM138.743 21.336L141.737 21.5142L141.927 18.336H138.743V21.336ZM136.759 54.68V57.68H139.586L139.753 54.8582L136.759 54.68ZM127.031 54.68L124.034 54.8295L124.177 57.68H127.031V54.68ZM125.367 21.336V18.336H122.213L122.37 21.4855L125.367 21.336ZM137.719 65.312H126.135V71.312H137.719V65.312ZM129.135 68.312V58.328H123.135V68.312H129.135ZM126.135 61.328H137.719V55.328H126.135V61.328ZM134.719 58.328V68.312H140.719V58.328H134.719ZM135.748 21.1578L133.764 54.5018L139.753 54.8582L141.737 21.5142L135.748 21.1578ZM136.759 51.68H127.031V57.68H136.759V51.68ZM130.027 54.5305L128.363 21.1865L122.37 21.4855L124.034 54.8295L130.027 54.5305ZM125.367 24.336H138.743V18.336H125.367V24.336Z" fill="black" mask="url(#path-1-outside-1_99_321)"/>
<mask id="path-3-outside-2_99_321" maskUnits="userSpaceOnUse" x="-3" y="9" width="145" height="60" fill="black">
<rect fill="white" x="-3" y="9" width="145" height="60"/>
<path d="M18.8458 65.192C16.1578 65.1067 13.8964 64.5307 12.0618 63.464C10.2698 62.44 8.92575 61.096 8.02975 59.432C7.17642 57.768 6.74975 55.9973 6.74975 54.12C6.74975 51.0053 7.70975 48.424 9.62975 46.376C11.5924 44.2853 14.6858 43.2187 18.9097 43.176C27.3578 43.048 35.7844 43.048 44.1898 43.176C48.3711 43.176 51.4431 44.2213 53.4058 46.312C55.3684 48.4027 56.3498 51.0053 56.3498 54.12C56.3498 55.9973 55.9018 57.768 55.0058 59.432C54.1524 61.096 52.8084 62.44 50.9738 63.464C49.1818 64.5307 46.9631 65.1067 44.3178 65.192C35.7844 65.4053 27.2938 65.4053 18.8458 65.192ZM20.6378 25.576H32.6058L37.8538 40.36H25.6938L20.5098 25.96L14.8778 40.36H1.94975L9.30975 21.864H1.62975V12.904H36.9578V21.864H22.1098L20.6378 25.576ZM43.5498 23.784V12.328H56.2218V40.488H43.5498V34.088H37.5978V23.784H43.5498ZM43.4218 52.584V50.408L19.5498 55.208V57.384L43.4218 52.584ZM122.026 20.648V30.76H115.69V39.656H103.018V12.328H115.69V20.648H122.026ZM65.3223 13.032H96.3623V22.76H77.6103V29.48H98.4103V39.208H65.3223V13.032ZM67.9463 42.664H80.4903V57.64H103.146V42.664H115.69V65.32H67.9463V42.664ZM84.0103 50.152L99.6903 47.72V50.28L84.0103 52.712V50.152ZM137.719 62.312H126.135V52.328H137.719V62.312ZM138.743 15.336L136.759 48.68H127.031L125.367 15.336H138.743Z"/>
</mask>
<path d="M18.8458 65.192C16.1578 65.1067 13.8964 64.5307 12.0618 63.464C10.2698 62.44 8.92575 61.096 8.02975 59.432C7.17642 57.768 6.74975 55.9973 6.74975 54.12C6.74975 51.0053 7.70975 48.424 9.62975 46.376C11.5924 44.2853 14.6858 43.2187 18.9097 43.176C27.3578 43.048 35.7844 43.048 44.1898 43.176C48.3711 43.176 51.4431 44.2213 53.4058 46.312C55.3684 48.4027 56.3498 51.0053 56.3498 54.12C56.3498 55.9973 55.9018 57.768 55.0058 59.432C54.1524 61.096 52.8084 62.44 50.9738 63.464C49.1818 64.5307 46.9631 65.1067 44.3178 65.192C35.7844 65.4053 27.2938 65.4053 18.8458 65.192ZM20.6378 25.576H32.6058L37.8538 40.36H25.6938L20.5098 25.96L14.8778 40.36H1.94975L9.30975 21.864H1.62975V12.904H36.9578V21.864H22.1098L20.6378 25.576ZM43.5498 23.784V12.328H56.2218V40.488H43.5498V34.088H37.5978V23.784H43.5498ZM43.4218 52.584V50.408L19.5498 55.208V57.384L43.4218 52.584ZM122.026 20.648V30.76H115.69V39.656H103.018V12.328H115.69V20.648H122.026ZM65.3223 13.032H96.3623V22.76H77.6103V29.48H98.4103V39.208H65.3223V13.032ZM67.9463 42.664H80.4903V57.64H103.146V42.664H115.69V65.32H67.9463V42.664ZM84.0103 50.152L99.6903 47.72V50.28L84.0103 52.712V50.152ZM137.719 62.312H126.135V52.328H137.719V62.312ZM138.743 15.336L136.759 48.68H127.031L125.367 15.336H138.743Z" fill="white"/>
<path d="M18.8458 65.192L18.7506 68.1905L18.7603 68.1908L18.77 68.191L18.8458 65.192ZM12.0618 63.464L13.5696 60.8705L13.5599 60.8648L13.5502 60.8593L12.0618 63.464ZM8.02975 59.432L5.3603 60.8009L5.37405 60.8278L5.38834 60.8543L8.02975 59.432ZM9.62975 46.376L7.44253 44.3227L7.44114 44.3242L9.62975 46.376ZM18.9097 43.176L18.9401 46.1758L18.9476 46.1758L18.9552 46.1757L18.9097 43.176ZM44.1898 43.176L44.1441 46.1757L44.1669 46.176H44.1898V43.176ZM53.4058 46.312L55.593 44.2587L53.4058 46.312ZM55.0058 59.432L52.3643 58.0097L52.3501 58.0362L52.3363 58.0631L55.0058 59.432ZM50.9738 63.464L49.5117 60.8444L49.4752 60.8648L49.4393 60.8861L50.9738 63.464ZM44.3178 65.192L44.3927 68.1911L44.4036 68.1908L44.4145 68.1904L44.3178 65.192ZM20.6378 25.576L17.849 24.4701L16.2208 28.576H20.6378V25.576ZM32.6058 25.576L35.4329 24.5724L34.7242 22.576H32.6058V25.576ZM37.8538 40.36V43.36H42.1021L40.6809 39.3564L37.8538 40.36ZM25.6938 40.36L22.8711 41.3762L23.5853 43.36H25.6938V40.36ZM20.5098 25.96L23.3324 24.9438L20.6261 17.4263L17.7158 24.8673L20.5098 25.96ZM14.8778 40.36V43.36H16.9257L17.6717 41.4527L14.8778 40.36ZM1.94975 40.36L-0.837671 39.2508L-2.47281 43.36H1.94975V40.36ZM9.30975 21.864L12.0972 22.9732L13.7323 18.864H9.30975V21.864ZM1.62975 21.864H-1.37025V24.864H1.62975V21.864ZM1.62975 12.904V9.904H-1.37025V12.904H1.62975ZM36.9578 12.904H39.9578V9.904H36.9578V12.904ZM36.9578 21.864V24.864H39.9578V21.864H36.9578ZM22.1098 21.864V18.864H20.0721L19.321 20.7581L22.1098 21.864ZM43.5498 23.784V26.784H46.5498V23.784H43.5498ZM43.5498 12.328V9.328H40.5498V12.328H43.5498ZM56.2218 12.328H59.2218V9.328H56.2218V12.328ZM56.2218 40.488V43.488H59.2218V40.488H56.2218ZM43.5498 40.488H40.5498V43.488H43.5498V40.488ZM43.5498 34.088H46.5498V31.088H43.5498V34.088ZM37.5978 34.088H34.5978V37.088H37.5978V34.088ZM37.5978 23.784V20.784H34.5978V23.784H37.5978ZM43.4218 52.584L44.0131 55.5251L46.4218 55.0408V52.584H43.4218ZM43.4218 50.408H46.4218V46.7447L42.8304 47.4669L43.4218 50.408ZM19.5498 55.208L18.9584 52.2669L16.5498 52.7512V55.208H19.5498ZM19.5498 57.384H16.5498V61.0473L20.1411 60.3251L19.5498 57.384ZM18.9409 62.1935C16.6202 62.1198 14.8743 61.629 13.5696 60.8705L10.5539 66.0575C12.9185 67.4323 15.6953 68.0935 18.7506 68.1905L18.9409 62.1935ZM13.5502 60.8593C12.199 60.0872 11.2767 59.1343 10.6712 58.0097L5.38834 60.8543C6.57479 63.0577 8.34047 64.7928 10.5733 66.0687L13.5502 60.8593ZM10.6992 58.063C10.064 56.8244 9.74975 55.5232 9.74975 54.12H3.74975C3.74975 56.4715 4.28884 58.7116 5.3603 60.8009L10.6992 58.063ZM9.74975 54.12C9.74975 51.6769 10.4785 49.8571 11.8184 48.4278L7.44114 44.3242C4.94104 46.9909 3.74975 50.3337 3.74975 54.12H9.74975ZM11.817 48.4293C13.0006 47.1684 15.1463 46.2142 18.9401 46.1758L18.8794 40.1762C14.2252 40.2232 10.1842 41.4022 7.44253 44.3227L11.817 48.4293ZM18.9552 46.1757C27.373 46.0481 35.7693 46.0481 44.1441 46.1757L44.2354 40.1763C35.7996 40.0479 27.3425 40.0479 18.8643 40.1763L18.9552 46.1757ZM44.1898 46.176C47.9256 46.176 50.0405 47.1104 51.2185 48.3653L55.593 44.2587C52.8457 41.3322 48.8165 40.176 44.1898 40.176V46.176ZM51.2185 48.3653C52.6119 49.8496 53.3498 51.6964 53.3498 54.12H59.3498C59.3498 50.3142 58.1249 46.9558 55.593 44.2587L51.2185 48.3653ZM53.3498 54.12C53.3498 55.4974 53.0266 56.7798 52.3643 58.0097L57.6472 60.8543C58.7769 58.7562 59.3498 56.4973 59.3498 54.12H53.3498ZM52.3363 58.0631C51.7858 59.1366 50.8954 60.0721 49.5117 60.8444L52.4358 66.0836C54.7214 64.8079 56.5191 63.0554 57.6752 60.8009L52.3363 58.0631ZM49.4393 60.8861C48.1853 61.6325 46.4929 62.1203 44.221 62.1936L44.4145 68.1904C47.4332 68.0931 50.1782 67.4288 52.5082 66.0419L49.4393 60.8861ZM44.2428 62.1929C35.7592 62.405 27.3188 62.405 18.9215 62.193L18.77 68.191C27.2687 68.4057 35.8097 68.4056 44.3927 68.1911L44.2428 62.1929ZM20.6378 28.576H32.6058V22.576H20.6378V28.576ZM29.7786 26.5796L35.0266 41.3636L40.6809 39.3564L35.4329 24.5724L29.7786 26.5796ZM37.8538 37.36H25.6938V43.36H37.8538V37.36ZM28.5164 39.3438L23.3324 24.9438L17.6871 26.9762L22.8711 41.3762L28.5164 39.3438ZM17.7158 24.8673L12.0838 39.2673L17.6717 41.4527L23.3037 27.0527L17.7158 24.8673ZM14.8778 37.36H1.94975V43.36H14.8778V37.36ZM4.73717 41.4692L12.0972 22.9732L6.52233 20.7548L-0.837671 39.2508L4.73717 41.4692ZM9.30975 18.864H1.62975V24.864H9.30975V18.864ZM4.62975 21.864V12.904H-1.37025V21.864H4.62975ZM1.62975 15.904H36.9578V9.904H1.62975V15.904ZM33.9578 12.904V21.864H39.9578V12.904H33.9578ZM36.9578 18.864H22.1098V24.864H36.9578V18.864ZM19.321 20.7581L17.849 24.4701L23.4265 26.6819L24.8985 22.9699L19.321 20.7581ZM46.5498 23.784V12.328H40.5498V23.784H46.5498ZM43.5498 15.328H56.2218V9.328H43.5498V15.328ZM53.2218 12.328V40.488H59.2218V12.328H53.2218ZM56.2218 37.488H43.5498V43.488H56.2218V37.488ZM46.5498 40.488V34.088H40.5498V40.488H46.5498ZM43.5498 31.088H37.5978V37.088H43.5498V31.088ZM40.5978 34.088V23.784H34.5978V34.088H40.5978ZM37.5978 26.784H43.5498V20.784H37.5978V26.784ZM46.4218 52.584V50.408H40.4218V52.584H46.4218ZM42.8304 47.4669L18.9584 52.2669L20.1411 58.1491L44.0131 53.3491L42.8304 47.4669ZM16.5498 55.208V57.384H22.5498V55.208H16.5498ZM20.1411 60.3251L44.0131 55.5251L42.8304 49.6429L18.9584 54.4429L20.1411 60.3251ZM122.026 20.648H125.026V17.648H122.026V20.648ZM122.026 30.76V33.76H125.026V30.76H122.026ZM115.69 30.76V27.76H112.69V30.76H115.69ZM115.69 39.656V42.656H118.69V39.656H115.69ZM103.018 39.656H100.018V42.656H103.018V39.656ZM103.018 12.328V9.328H100.018V12.328H103.018ZM115.69 12.328H118.69V9.328H115.69V12.328ZM115.69 20.648H112.69V23.648H115.69V20.648ZM65.3223 13.032V10.032H62.3223V13.032H65.3223ZM96.3623 13.032H99.3623V10.032H96.3623V13.032ZM96.3623 22.76V25.76H99.3623V22.76H96.3623ZM77.6103 22.76V19.76H74.6103V22.76H77.6103ZM77.6103 29.48H74.6103V32.48H77.6103V29.48ZM98.4102 29.48H101.41V26.48H98.4102V29.48ZM98.4102 39.208V42.208H101.41V39.208H98.4102ZM65.3223 39.208H62.3223V42.208H65.3223V39.208ZM67.9463 42.664V39.664H64.9463V42.664H67.9463ZM80.4902 42.664H83.4902V39.664H80.4902V42.664ZM80.4902 57.64H77.4902V60.64H80.4902V57.64ZM103.146 57.64V60.64H106.146V57.64H103.146ZM103.146 42.664V39.664H100.146V42.664H103.146ZM115.69 42.664H118.69V39.664H115.69V42.664ZM115.69 65.32V68.32H118.69V65.32H115.69ZM67.9463 65.32H64.9463V68.32H67.9463V65.32ZM84.0103 50.152L83.5504 47.1874L81.0103 47.5814V50.152H84.0103ZM99.6902 47.72H102.69V44.2188L99.2304 44.7554L99.6902 47.72ZM99.6902 50.28L100.15 53.2446L102.69 52.8506V50.28H99.6902ZM84.0103 52.712H81.0103V56.2132L84.4701 55.6766L84.0103 52.712ZM119.026 20.648V30.76H125.026V20.648H119.026ZM122.026 27.76H115.69V33.76H122.026V27.76ZM112.69 30.76V39.656H118.69V30.76H112.69ZM115.69 36.656H103.018V42.656H115.69V36.656ZM106.018 39.656V12.328H100.018V39.656H106.018ZM103.018 15.328H115.69V9.328H103.018V15.328ZM112.69 12.328V20.648H118.69V12.328H112.69ZM115.69 23.648H122.026V17.648H115.69V23.648ZM65.3223 16.032H96.3623V10.032H65.3223V16.032ZM93.3623 13.032V22.76H99.3623V13.032H93.3623ZM96.3623 19.76H77.6103V25.76H96.3623V19.76ZM74.6103 22.76V29.48H80.6103V22.76H74.6103ZM77.6103 32.48H98.4102V26.48H77.6103V32.48ZM95.4102 29.48V39.208H101.41V29.48H95.4102ZM98.4102 36.208H65.3223V42.208H98.4102V36.208ZM68.3223 39.208V13.032H62.3223V39.208H68.3223ZM67.9463 45.664H80.4902V39.664H67.9463V45.664ZM77.4902 42.664V57.64H83.4902V42.664H77.4902ZM80.4902 60.64H103.146V54.64H80.4902V60.64ZM106.146 57.64V42.664H100.146V57.64H106.146ZM103.146 45.664H115.69V39.664H103.146V45.664ZM112.69 42.664V65.32H118.69V42.664H112.69ZM115.69 62.32H67.9463V68.32H115.69V62.32ZM70.9463 65.32V42.664H64.9463V65.32H70.9463ZM84.4701 53.1166L100.15 50.6846L99.2304 44.7554L83.5504 47.1874L84.4701 53.1166ZM96.6902 47.72V50.28H102.69V47.72H96.6902ZM99.2304 47.3154L83.5504 49.7474L84.4701 55.6766L100.15 53.2446L99.2304 47.3154ZM87.0103 52.712V50.152H81.0103V52.712H87.0103ZM137.719 62.312V65.312H140.719V62.312H137.719ZM126.135 62.312H123.135V65.312H126.135V62.312ZM126.135 52.328V49.328H123.135V52.328H126.135ZM137.719 52.328H140.719V49.328H137.719V52.328ZM138.743 15.336L141.737 15.5142L141.927 12.336H138.743V15.336ZM136.759 48.68V51.68H139.586L139.753 48.8582L136.759 48.68ZM127.031 48.68L124.034 48.8295L124.177 51.68H127.031V48.68ZM125.367 15.336V12.336H122.213L122.37 15.4855L125.367 15.336ZM137.719 59.312H126.135V65.312H137.719V59.312ZM129.135 62.312V52.328H123.135V62.312H129.135ZM126.135 55.328H137.719V49.328H126.135V55.328ZM134.719 52.328V62.312H140.719V52.328H134.719ZM135.748 15.1578L133.764 48.5018L139.753 48.8582L141.737 15.5142L135.748 15.1578ZM136.759 45.68H127.031V51.68H136.759V45.68ZM130.027 48.5305L128.363 15.1865L122.37 15.4855L124.034 48.8295L130.027 48.5305ZM125.367 18.336H138.743V12.336H125.367V18.336Z" fill="black" mask="url(#path-3-outside-2_99_321)"/>
</svg>
