<svg width="1080" height="740" viewBox="0 0 1080 740" fill="none" xmlns="http://www.w3.org/2000/svg">
<path d="M326.324 442.664C317.686 442.024 305.363 446.572 293.962 455.376C282.561 464.18 275.044 474.951 273.483 483.474L269.827 486.296L275.682 493.892L275.705 493.864C282.38 501.325 300.489 497.418 316.733 484.869C332.982 472.314 341.329 455.782 335.8 447.446L335.823 447.419L329.975 439.848L326.319 442.67L326.324 442.664Z" fill="#F9BF1C" stroke="#333333" stroke-width="2" stroke-miterlimit="10"/>
<path d="M329.987 439.838C323.699 431.697 305.135 435.501 288.523 448.333C271.91 461.165 263.541 478.166 269.829 486.307C276.117 494.447 294.682 490.644 311.294 477.812C327.906 464.98 336.275 447.978 329.987 439.838Z" fill="#F9BF1C" stroke="#333333" stroke-width="2" stroke-miterlimit="10"/>
<path d="M326.065 442.868C331.363 449.733 323.264 464.365 309.262 475.181C295.251 485.999 278.885 490.267 273.587 483.403C268.285 476.544 276.298 461.463 290.299 450.647C304.301 439.83 320.757 436.005 326.055 442.869L326.065 442.868Z" fill="#FAE400" stroke="#333333" stroke-width="2" stroke-miterlimit="10"/>
<path d="M279.142 490.541L284.376 497.326" stroke="#333333" stroke-width="2" stroke-miterlimit="10"/>
<path d="M288.796 489.436L294.17 496.39" stroke="#333333" stroke-width="2" stroke-miterlimit="10"/>
<path d="M297.271 486.373L302.609 493.279" stroke="#333333" stroke-width="2" stroke-miterlimit="10"/>
<path d="M306.176 481.446L311.584 488.447" stroke="#333333" stroke-width="2" stroke-miterlimit="10"/>
<path d="M313.878 475.494L319.461 482.711" stroke="#333333" stroke-width="2" stroke-miterlimit="10"/>
<path d="M320.529 469.145L326.206 476.485" stroke="#333333" stroke-width="2" stroke-miterlimit="10"/>
<path d="M325.717 462.951L331.288 470.159" stroke="#333333" stroke-width="2" stroke-miterlimit="10"/>
<path d="M329.626 456.831L334.742 463.455" stroke="#333333" stroke-width="2" stroke-miterlimit="10"/>
<path d="M331.773 449.716L336.971 456.444" stroke="#333333" stroke-width="2" stroke-miterlimit="10"/>
<path d="M882.31 178.664C873.672 178.024 861.35 182.572 849.948 191.376C838.547 200.18 831.03 210.951 829.469 219.474L825.813 222.296L831.668 229.892L831.691 229.864C838.366 237.325 856.476 233.418 872.72 220.869C888.968 208.314 897.316 191.782 891.787 183.446L891.809 183.419L885.962 175.848L882.306 178.67L882.31 178.664Z" fill="#F9BF1C" stroke="#333333" stroke-width="2" stroke-miterlimit="10"/>
<path d="M885.973 175.838C879.685 167.697 861.121 171.501 844.509 184.333C827.897 197.165 819.528 214.166 825.816 222.307C832.104 230.447 850.668 226.644 867.28 213.812C883.892 200.98 892.261 183.978 885.973 175.838Z" fill="#F9BF1C" stroke="#333333" stroke-width="2" stroke-miterlimit="10"/>
<path d="M882.051 178.868C887.349 185.733 879.25 200.365 865.249 211.181C851.237 221.999 834.872 226.267 829.574 219.403C824.271 212.544 832.284 197.463 846.285 186.647C860.287 175.83 876.743 172.005 882.041 178.869L882.051 178.868Z" fill="#FAE400" stroke="#333333" stroke-width="2" stroke-miterlimit="10"/>
<path d="M835.129 226.541L840.363 233.326" stroke="#333333" stroke-width="2" stroke-miterlimit="10"/>
<path d="M844.783 225.436L850.156 232.39" stroke="#333333" stroke-width="2" stroke-miterlimit="10"/>
<path d="M853.257 222.373L858.595 229.279" stroke="#333333" stroke-width="2" stroke-miterlimit="10"/>
<path d="M862.162 217.446L867.57 224.447" stroke="#333333" stroke-width="2" stroke-miterlimit="10"/>
<path d="M869.864 211.494L875.447 218.711" stroke="#333333" stroke-width="2" stroke-miterlimit="10"/>
<path d="M876.516 205.145L882.192 212.485" stroke="#333333" stroke-width="2" stroke-miterlimit="10"/>
<path d="M881.703 198.951L887.275 206.159" stroke="#333333" stroke-width="2" stroke-miterlimit="10"/>
<path d="M885.613 192.831L890.729 199.455" stroke="#333333" stroke-width="2" stroke-miterlimit="10"/>
<path d="M887.76 185.716L892.957 192.444" stroke="#333333" stroke-width="2" stroke-miterlimit="10"/>
</svg>
