<svg width="1080" height="740" viewBox="0 0 1080 740" fill="none" xmlns="http://www.w3.org/2000/svg">
<path d="M953.654 318.12L949.547 310.151C949.447 309.958 949.534 309.798 949.692 309.885L984.045 328.928C984.273 329.054 984.447 329.387 984.402 329.617L984.158 330.889C984.135 331.01 984.083 331.104 984.008 331.168L964.303 347.586C964.206 347.667 964.29 347.915 964.444 348.001L977.656 355.324C977.878 355.447 978.088 355.45 978.229 355.335L980.132 353.789C980.207 353.728 980.346 353.807 980.42 353.949L984.493 361.851C984.591 362.043 984.506 362.201 984.349 362.114L949.981 343.064C949.752 342.937 949.579 342.603 949.625 342.375L949.866 341.144C949.889 341.024 949.941 340.93 950.015 340.868L969.826 324.463C969.923 324.382 969.839 324.135 969.684 324.049L956.562 316.775C956.339 316.652 956.128 316.646 955.986 316.761L953.945 318.283C953.868 318.343 953.73 318.265 953.656 318.121L953.654 318.12ZM892.789 300.446L882.412 295.47V282.276L890.454 286.733V281.452L876.965 273.974V297.993L892.789 305.659V300.448V300.446ZM887.471 293.299L893.307 296.534V307.98L898.755 311V285.319L893.307 282.3V291.251L887.471 288.016V293.299ZM900.311 311.423L922.88 323.932V318.796L900.311 306.286V311.423ZM900.96 301.659C906.088 304.364 909.557 303.799 911.584 301.802C913.611 306.048 917.078 310.456 922.231 313.45V308.539C917.087 305.246 914.319 299.566 914.319 296.469V294.092L908.872 291.072V293.45C908.872 296.545 906.104 299.156 900.96 296.748V301.659ZM923.658 313.945L928.715 316.748L928.3 318.365C926.423 317.683 924.96 318.749 924.96 321.065C924.96 323.602 926.715 326.644 928.885 327.847L942.224 335.24C944.401 336.448 946.163 335.347 946.163 332.801C946.163 330.255 944.401 327.202 942.224 325.995L933.265 321.029L933.648 319.481L939.74 322.858V318.602L923.657 309.687V313.942L923.658 313.945ZM924.2 304.454C924.2 307.015 926.026 310.121 928.265 311.362L934.57 314.857C936.81 316.099 938.659 315.031 938.659 312.469C938.659 309.907 936.81 306.707 934.57 305.465L928.265 301.97C926.025 300.729 924.2 301.81 924.2 304.454ZM928.79 306.897C928.79 306.344 929.108 306.106 929.499 306.323L933.457 308.517C933.847 308.733 934.165 309.325 934.165 309.877C934.165 310.428 933.847 310.641 933.457 310.425L929.499 308.231C929.108 308.014 928.79 307.451 928.79 306.897ZM929.939 323.663C929.939 323.251 930.183 323.138 930.475 323.3L940.592 328.908C940.908 329.083 941.128 329.453 941.128 329.865C941.128 330.277 940.908 330.404 940.592 330.229L930.475 324.621C930.183 324.459 929.939 324.076 929.939 323.663ZM940.39 324.393L945.967 327.485V311.489L940.39 308.398V324.393ZM987.861 340.141L991.104 341.939V343.403C991.104 350.174 990.345 353.181 987.602 353.733V359.389C990.144 359.581 992.026 358.743 993.297 356.573C994.568 360.154 996.475 363.09 999.016 365.715V360.06C996.272 356.466 995.514 352.618 995.514 345.848V344.383L998.756 346.18V341.484L987.861 335.445V340.141ZM996.811 353.907L1000.18 355.776V367.222L1004.46 369.595V343.914L1000.18 341.542V351.08L996.811 349.211V353.907ZM1005.5 370.17L1009.91 372.615V346.934L1005.5 344.489V370.17ZM1011.47 373.037L1034.04 385.547V380.704L1011.47 368.194V373.037ZM1012.37 353.142L1033.39 364.79V360.387L1012.37 348.74V353.142ZM1033.39 371.833L1017.82 363.206V361.592L1033.39 370.219V365.963L1012.37 354.316V364.882L1033.39 376.529V371.833Z" fill="#FD780F"/>
</svg>
