<svg width="167" height="159" viewBox="0 0 167 159" fill="none" xmlns="http://www.w3.org/2000/svg">
<g clip-path="url(#clip0_4_1571)">
<path d="M13.2001 59.9599C12.9601 62.3599 12.9101 64.7699 12.6701 67.1699C12.4301 69.5699 12.3601 71.9799 12.1201 74.3799C11.8801 76.7799 11.2901 79.1399 11.0501 81.5399C10.8101 83.9399 11.0301 86.3799 10.7901 88.7799C10.5501 91.1799 10.0701 93.5499 9.83006 95.9499C9.59006 98.3499 9.64006 100.77 9.40006 103.17C9.20006 105.13 8.80006 107.13 8.90006 109.09C9.01006 111.1 9.44006 113.03 10.4401 114.78C11.8401 117.22 14.0101 119.05 16.6401 120.18C19.2701 121.31 22.0801 121.55 24.7601 122.01C27.2601 122.43 29.7301 122.98 32.2501 123.28C34.7701 123.58 37.2901 123.81 39.8201 123.99C42.3501 124.17 44.8801 124.16 47.4101 124.22C49.9401 124.29 52.4701 124.34 55.0001 124.29C57.5301 124.24 60.0501 124.01 62.5801 123.84C65.1101 123.67 67.6201 123.4 70.1301 123.11C72.6501 122.82 75.1601 122.56 77.6601 122.15C80.1601 121.74 82.6701 121.42 85.1501 120.89C87.6301 120.36 90.1301 119.93 92.5801 119.29C95.1601 118.61 97.7101 117.7 100.17 116.68C102.66 115.65 104.96 114.29 106.99 112.55C108.75 111.05 110.03 109.25 111.21 107.35C112.38 105.45 113.58 103.52 114.31 101.36C115.02 99.2399 115.54 97.0099 115.94 94.7799C116.34 92.5499 116.72 90.2899 116.95 88.0699C117.18 85.7899 117.1 83.4799 117.26 81.1999C117.42 78.9099 117.4 76.6299 117.49 74.3399C117.58 72.0499 118.05 69.7699 118.06 67.4799C118.07 65.1899 118.08 62.8899 118.02 60.5999C117.96 58.3099 117.8 56.0199 117.67 53.7299C117.54 51.4399 117.29 49.1599 117.09 46.8799" fill="#8E816E"/>
<path d="M11.7001 59.9599C11.3201 63.9599 11.0901 67.9799 10.8201 71.9799C10.5601 75.8299 9.5501 79.5999 9.4501 83.4699C9.4001 85.2399 9.4701 87.0099 9.3001 88.7799C9.1001 90.8599 8.7001 92.9199 8.4501 94.9899C8.2401 96.7499 8.1701 98.5099 8.1001 100.28C8.0101 102.32 7.7401 104.32 7.5301 106.35C7.1701 109.74 7.6601 113.29 9.5701 116.18C11.2801 118.77 13.7901 120.67 16.6701 121.78C19.9901 123.07 23.7101 123.31 27.2001 123.95C30.9201 124.64 34.6601 125.07 38.4301 125.37C53.6401 126.58 69.2001 125.38 84.1901 122.6C91.3101 121.28 98.8901 119.78 105.09 115.83C110.87 112.15 114.86 105.71 116.57 99.1499C117.63 95.0899 118.38 90.7799 118.61 86.5799C118.85 82.1899 118.77 77.7799 119.09 73.3999C119.25 71.2499 119.59 69.1299 119.61 66.9599C119.63 64.7499 119.62 62.5399 119.56 60.3299C119.43 55.8299 119.04 51.3399 118.64 46.8599C118.47 44.9499 115.47 44.9299 115.64 46.8599C115.98 50.6099 116.29 54.3599 116.48 58.1199C116.67 61.8799 116.83 65.6099 116.52 69.2799C116.38 70.9599 116.12 72.6199 116.04 74.3099C115.95 76.2699 115.97 78.2299 115.87 80.1899C115.68 83.9699 115.64 87.7199 115.04 91.4699C114.49 94.9199 113.93 98.5399 112.6 101.79C111.38 104.77 109.44 107.95 107.22 110.29C102.51 115.28 95.0301 117.33 88.5301 118.66C81.3601 120.13 74.1601 121.2 66.8801 121.95C63.2701 122.32 59.6301 122.61 56.0001 122.74C52.3601 122.87 48.7201 122.72 45.0801 122.66C41.4401 122.6 37.8101 122.36 34.1801 121.98C30.5501 121.6 27.0501 120.83 23.4801 120.27C20.2901 119.77 17.0601 119.2 14.4601 117.14C11.9501 115.15 10.5801 112.26 10.4301 109.08C10.3401 107.17 10.7001 105.28 10.9001 103.38C11.1101 101.38 11.1201 99.3799 11.2401 97.3699C11.5001 93.1799 12.4201 89.1099 12.4401 84.8999C12.4701 80.6899 13.4901 76.6299 13.8001 72.4399C14.1001 68.2799 14.3201 64.0899 14.7201 59.9399C14.9001 58.0199 11.9001 58.0299 11.7201 59.9399L11.7001 59.9599Z" fill="#333333"/>
<path d="M39.77 151.17C39.89 154.83 39.78 154.83 39.91 158.49C40.03 162.15 39.97 162.15 40.09 165.81C40.21 169.47 40.33 169.47 40.45 173.13C40.57 176.79 40.53 176.79 40.66 180.45C40.78 184.11 40.51 184.12 40.64 187.79C40.77 191.46 41.02 191.44 41.15 195.11C41.18 195.92 41.79 196.5 42.6 196.5C46.34 196.5 46.34 196.33 50.07 196.33C53.8 196.33 53.81 196.5 57.55 196.5C61.29 196.5 61.29 196.56 65.03 196.56C65.86 196.56 66.75 195.89 66.75 195.06C66.75 191.33 66.77 191.33 66.77 187.6C66.77 183.87 66.81 183.87 66.81 180.14C66.81 176.41 66.46 176.41 66.46 172.68C66.46 168.95 66.44 168.95 66.44 165.22C66.44 161.49 66.43 161.49 66.43 157.76C66.43 154.03 66.56 154.03 66.56 150.3" fill="#FCFCFC"/>
<path d="M38.2699 151.17C38.3999 155.08 38.4399 159.01 38.5099 162.92C38.5899 167.11 38.9099 171.28 39.0199 175.46C39.1199 179.15 39.0599 182.84 39.0999 186.53C39.1199 188.47 39.2899 190.38 39.4699 192.31C39.6499 194.24 39.2299 196.99 41.5499 197.81C43.1699 198.38 45.3699 197.95 47.0699 197.88C49.1499 197.8 51.2299 197.8 53.2999 197.89C57.0999 198.05 60.9699 198.17 64.7799 198.06C65.7999 198.03 66.7599 197.74 67.4699 196.96C68.2999 196.05 68.2299 194.92 68.2399 193.77C68.2399 192.01 68.2599 190.25 68.2599 188.49C68.2599 184.52 68.4899 180.49 68.1299 176.53C67.7299 172.13 67.9299 167.65 67.9199 163.24C67.9199 158.92 68.0399 154.61 68.0399 150.29C68.0399 148.36 65.0399 148.36 65.0399 150.29C65.0299 157.45 64.9299 164.62 64.9299 171.78C64.9299 175.61 65.3099 179.41 65.2699 183.25C65.2399 186.64 65.2299 190.02 65.2199 193.41C65.2199 193.69 65.3799 194.91 65.2199 195.06C65.0999 195.16 64.3399 195.06 64.0999 195.06C63.1899 195.06 62.2899 195.05 61.3799 195.03C59.4299 195 57.4799 195.03 55.5299 194.98C52.0999 194.9 48.7099 194.84 45.2799 194.96C44.8199 194.98 42.7899 195.25 42.5799 195.02C42.5199 194.95 42.5499 193.86 42.5399 193.67C42.5099 193.22 42.4799 192.76 42.4399 192.31C42.2699 190.51 42.1099 188.72 42.0799 186.91C42.0099 183.41 42.0999 179.91 42.0099 176.41C41.9099 172.1 41.5799 167.79 41.4799 163.48C41.3899 159.37 41.3599 155.26 41.2299 151.16C41.1699 149.23 38.1699 149.23 38.2299 151.16L38.2699 151.17Z" fill="#333333"/>
<path d="M64.81 164.42C64.85 168.25 64.8301 168.25 64.8701 172.08C64.9101 175.91 64.5401 175.91 64.5801 179.74C64.6201 183.57 64.8301 183.57 64.8701 187.4C64.9101 191.23 64.8301 191.23 64.8701 195.07C64.8701 195.9 65.63 196.47 66.46 196.46C70.2 196.43 70.2001 196.48 73.9401 196.45C77.6801 196.42 77.68 196.25 81.42 196.22C85.16 196.19 85.1601 196.58 88.9001 196.55C89.7101 196.55 90.29 195.74 90.31 194.93C90.41 191.4 90.64 191.4 90.74 187.87C90.84 184.34 90.59 184.33 90.68 180.8C90.7801 177.27 90.6401 177.27 90.7301 173.74C90.8201 170.21 91.18 170.22 91.27 166.68C91.36 163.14 91.23 163.14 91.32 159.6C91.42 156.06 91.17 156.06 91.27 152.52C91.29 151.67 90.87 150.86 90.02 150.86C86.46 150.86 86.4601 150.7 82.9101 150.7C79.3501 150.7 79.35 150.97 75.7901 150.97C72.2301 150.97 72.23 151.21 68.67 151.21C65.11 151.21 65.11 150.8 61.55 150.8" fill="#FCFCFC"/>
<path d="M63.3101 164.42C63.3301 166.67 63.3401 168.92 63.3601 171.16C63.3801 173.38 63.1801 175.56 63.1001 177.78C62.9301 182.3 63.4101 186.84 63.3701 191.37C63.3501 193.51 62.7401 196.58 65.1101 197.67C66.1701 198.16 67.4701 197.96 68.6101 197.96C69.5301 197.96 70.4401 197.96 71.3601 197.96C76.0001 197.96 80.6601 197.49 85.2901 197.9C87.4101 198.09 90.3101 198.66 91.4701 196.37C92.0201 195.28 91.8401 193.88 91.9301 192.69C92.0001 191.73 92.1101 190.78 92.1701 189.82C92.3101 187.56 92.2201 185.32 92.1701 183.05C92.1301 180.88 92.2201 178.7 92.2101 176.53C92.1801 171.97 92.8501 167.47 92.8101 162.9C92.7901 160.7 92.9101 158.5 92.8201 156.31C92.7401 154.31 93.4301 151.21 91.5701 149.88C90.4901 149.1 88.9001 149.38 87.6401 149.34C86.6101 149.31 85.5901 149.25 84.5601 149.23C82.0501 149.18 79.5901 149.42 77.0901 149.48C74.5901 149.54 72.0801 149.69 69.5801 149.73C66.8901 149.77 64.2501 149.34 61.5701 149.32C59.6401 149.31 59.6401 152.31 61.5701 152.32C63.5301 152.33 65.4601 152.64 67.4201 152.71C69.4701 152.79 71.5101 152.63 73.5601 152.54C77.7701 152.35 82.0401 152.11 86.2601 152.29C87.1001 152.33 87.9401 152.36 88.7901 152.37C89.0501 152.37 89.3401 152.39 89.6001 152.37C90.6201 152.31 89.7901 152.29 89.8101 152.42C89.8601 153.09 89.7901 153.8 89.8001 154.48C89.8201 156.49 89.8901 158.48 89.8501 160.49C89.8201 162.33 89.8701 164.17 89.8301 166.01C89.7901 168.01 89.5101 169.97 89.3601 171.96C89.2001 174.02 89.2501 176.08 89.2501 178.15C89.2501 180.22 89.1601 182.28 89.2501 184.34C89.3401 186.45 89.3101 188.56 89.1301 190.67C89.0601 191.45 88.9801 192.22 88.9301 192.99C88.9101 193.35 89.0301 194.69 88.8501 194.93C88.6101 195.24 87.7501 195.05 87.2901 195.03C85.3401 194.96 83.4101 194.71 81.4601 194.72C79.5101 194.72 77.5801 194.87 75.6301 194.92C73.5401 194.97 71.4501 194.95 69.3601 194.95C68.9001 194.95 68.4301 194.95 67.9701 194.95C67.6101 194.95 66.7101 195.14 66.3901 194.95L66.4101 195.07V194.59C66.4101 194.25 66.4101 193.9 66.4101 193.56C66.4101 193 66.4101 192.43 66.4101 191.87C66.4501 187.28 66.0101 182.69 66.1401 178.11C66.2001 175.93 66.4301 173.78 66.4201 171.6C66.4001 169.21 66.3901 166.81 66.3701 164.42C66.3501 162.49 63.3501 162.49 63.3701 164.42H63.3101Z" fill="#333333"/>
<path d="M119.42 120.75C118.56 119.05 117.6 117.39 116.96 115.62C116.32 113.85 116.05 111.96 115.87 110.04C115.78 109.05 116.89 106.65 117.21 105.57C117.73 103.79 118.55 102.11 119.07 100.33C119.28 99.6101 119.33 98.7401 119.93 98.2901C120.82 97.6401 122.28 97.9901 123.01 98.8201C123.74 99.6501 123.88 100.79 123.99 101.88C125.35 100.38 127.02 99.2701 128.8 98.3001C129.58 97.8801 130.37 97.4201 131.26 97.4401C132.15 97.4601 133.24 97.9101 133.5 98.7601C133.82 99.8401 132.87 101.13 132.11 101.96C133.18 101.07 134.8 100.91 135.77 101.91C136.74 102.91 136.43 104.95 135.1 105.38C136.26 104.84 138.02 105.71 138.2 106.98C138.38 108.25 137.35 109.44 136.27 110.14C137.44 109.44 138.94 110.99 138.77 112.34C138.6 113.69 137.52 114.76 136.4 115.54C134.3 117.01 131.86 117.85 129.5 118.86C127.15 119.87 124.9 121.16 122.49 122C121.84 122.23 121.12 122.13 120.5 121.82C120.02 121.58 119.65 121.22 119.41 120.74L119.42 120.75Z" fill="#FFE6D9"/>
<path d="M120.71 119.99C119.57 117.75 118.34 115.61 117.81 113.12C117.59 112.11 117.27 110.85 117.37 109.82C117.44 109.04 117.84 108.21 118.11 107.48C118.86 105.46 119.63 103.43 120.3 101.39C120.51 100.77 120.47 99.3901 121.28 99.4801C122.3 99.5901 122.41 101.12 122.49 101.88C122.62 103.08 124.08 103.98 125.05 102.94C126.4 101.49 127.99 100.44 129.72 99.5001C130.22 99.2301 131.32 98.5501 131.88 99.0901C132.34 99.5401 131.4 100.47 131.04 100.88C129.98 102.07 131.41 104.31 132.86 103.24C133.32 102.9 134.31 102.31 134.75 103.03C135.02 103.48 134.75 103.9 134.34 104.07C132.79 104.73 133.9 107.4 135.5 106.81C135.86 106.68 136.48 106.67 136.69 107.09C137 107.71 135.91 108.55 135.51 108.82C133.9 109.93 135.27 112.21 137.02 111.41C136.77 111.52 137.1 111.55 137.16 111.75C137.25 112.1 137.3 112.22 137.15 112.6C136.88 113.28 136.21 113.8 135.64 114.22C134.14 115.31 132.38 116.03 130.68 116.73C128.91 117.46 127.19 118.25 125.46 119.07C124.35 119.6 121.6 121.49 120.7 119.97C119.72 118.31 117.13 119.81 118.11 121.48C118.79 122.64 119.92 123.41 121.27 123.56C122.83 123.73 124.36 122.87 125.74 122.24C128.67 120.9 131.67 119.67 134.57 118.28C136.91 117.16 140.14 115.27 140.27 112.31C140.38 109.77 137.9 107.72 135.51 108.81C136.01 109.67 136.52 110.54 137.02 111.4C138.72 110.23 140.33 108.21 139.47 106.03C138.76 104.23 136.51 103.24 134.69 103.9L135.85 106.64C137.79 105.82 138.34 103.17 137.31 101.45C136.05 99.3501 133.17 99.2701 131.35 100.63L133.17 102.99C134.21 101.82 135.31 100.32 135.01 98.6601C134.72 97.0801 133.29 96.1501 131.77 95.9601C130.08 95.7501 128.58 96.6501 127.17 97.4801C125.62 98.4001 124.17 99.4801 122.94 100.8C123.79 101.15 124.65 101.51 125.5 101.86C125.34 100.4 125.14 98.8501 124.08 97.7401C123.15 96.7701 121.7 96.2401 120.37 96.5001C118.9 96.7901 118.14 97.8901 117.79 99.2701C117.35 100.99 116.63 102.6 116.06 104.27C115.65 105.47 115.2 106.66 114.8 107.87C114.35 109.23 114.4 110.37 114.58 111.78C115.05 115.36 116.51 118.31 118.13 121.49C119.01 123.21 121.6 121.69 120.72 119.98L120.71 119.99Z" fill="#333333"/>
<path d="M123.02 121.02C121.88 118.87 120.77 116.7 119.63 114.55C118.49 112.4 117.35 110.25 116.21 108.1C115.87 107.46 115.42 106.51 114.71 106.43C114.32 106.39 113.99 106.97 113.63 107.14C110.9 108.44 108.11 109.88 105.09 110.18C102.94 110.39 101.05 109.8 99.4401 108.72C97.8401 107.65 96.5101 106.06 95.0101 104.82C93.1601 103.28 91.2401 101.79 89.1801 100.54C87.1201 99.29 84.8101 98.53 82.5901 97.58C80.3701 96.63 78.2701 95.33 75.9401 94.69C73.9801 94.16 71.8801 94.12 69.8601 93.89C67.8401 93.66 65.8001 93.51 63.7701 93.63C61.7401 93.75 59.6401 93.77 57.6701 94.3C55.3201 94.93 52.9401 96.04 50.6101 97.25C48.3801 98.41 46.2501 99.9 44.1701 101.35C42.0901 102.8 39.8701 104.32 38.0201 105.86C36.3301 107.27 34.6801 108.79 33.0501 110.3C31.4201 111.81 30.0401 113.58 28.6701 115.3C27.3001 117.02 25.8801 118.77 24.9801 120.82C24.0801 122.87 23.7601 125.11 23.5301 127.34C23.3001 129.57 23.3801 131.78 23.8301 133.97C24.4001 136.73 25.6601 139.42 27.5201 141.55C29.4401 143.75 31.8701 145.38 34.7801 145.64C35.2601 145.68 35.7501 145.71 36.1901 145.9C38.2501 146.82 37.3401 151.83 39.2301 153.7C41.6701 156.12 45.7701 155.4 48.9101 155.55C51.4501 155.68 53.9801 155.65 56.5201 155.72C59.0601 155.79 61.5901 156.09 64.1301 156.1C66.5001 156.11 68.8801 156.38 71.2601 156.34C73.6301 156.3 76.0101 156.21 78.3901 156.12C80.7601 156.03 83.1301 155.71 85.5001 155.58C87.6001 155.46 89.7901 154.92 91.6401 153.96C93.4901 153 95.2101 151.59 95.7001 149.23C96.1501 147.07 95.6601 144.73 95.3901 142.42C95.9201 142.46 96.7001 142.57 97.2401 142.53C98.7801 142.4 100.28 141.9 101.71 141.32C103.75 140.49 105.52 139.18 107.37 138.02C109.22 136.86 111.23 135.91 112.92 134.5C114.6 133.11 116.17 131.55 117.74 130.02C119.31 128.49 120.58 126.66 122.09 125.09C122.73 124.42 123.77 123.86 123.81 122.94C123.84 122.26 123.34 121.62 123.02 121.02Z" fill="#FFD063"/>
<path d="M124.32 120.27C122.23 116.32 120.17 112.37 118.09 108.42C117.42 107.15 116.73 105.29 115.12 104.99C114.28 104.83 113.74 105.19 113.11 105.66C112.41 106.18 111.53 106.52 110.73 106.89C107.2 108.52 103.3 109.73 99.88 107.2C98.33 106.06 97.06 104.55 95.57 103.33C93.95 102.01 92.29 100.73 90.53 99.6101C88.77 98.4901 86.97 97.7501 85.1 96.9901C83.23 96.2301 81.49 95.3801 79.69 94.5401C75.86 92.7501 71.71 92.4501 67.53 92.1701C63.46 91.8901 59.05 92.1001 55.2 93.5301C51.31 94.9801 47.75 97.0601 44.35 99.4101C40.79 101.88 37.33 104.39 34.12 107.3C31.09 110.04 28.49 113.03 26.03 116.29C21.22 122.67 20.45 132.46 24.32 139.51C26.03 142.63 28.75 145.36 32.14 146.58C32.94 146.87 33.77 147.02 34.61 147.11C35.18 147.17 35.54 147.1 35.83 147.58C36.42 148.58 36.38 150.18 36.61 151.3C37.25 154.44 39.38 156.32 42.55 156.82C44.16 157.07 45.79 157.04 47.41 157.03C49.34 157.03 51.28 157.14 53.21 157.17C57.57 157.23 61.93 157.47 66.29 157.67C70.65 157.87 75 157.83 79.35 157.58C85.74 157.2 96.38 156.99 97.32 148.59C97.55 146.53 97.15 144.47 96.9 142.43L95.4 143.93C98.9 144.24 102.22 143.02 105.19 141.21C106.68 140.3 108.12 139.3 109.63 138.42C111.21 137.5 112.75 136.59 114.16 135.41C116.98 133.06 119.48 130.41 121.84 127.62C122.37 127 122.9 126.38 123.5 125.82C123.99 125.36 124.51 124.97 124.86 124.38C125.73 122.93 125.06 121.58 124.31 120.25C123.36 118.57 120.77 120.08 121.72 121.76C121.91 122.09 122.32 122.59 122.22 122.92C122.11 123.27 121.28 123.76 121.02 124.02C119.99 125.05 119.11 126.24 118.16 127.34C116.15 129.67 113.78 132.06 111.28 133.86C108.94 135.55 106.31 136.97 103.85 138.49C101.24 140.11 98.48 141.19 95.39 140.91C94.65 140.84 93.8 141.65 93.89 142.41C94.29 145.61 95.31 149.53 92.31 151.78C89.3 154.03 85.51 154.03 81.94 154.35C73.93 155.07 65.96 154.69 57.95 154.27C54.28 154.07 50.54 153.99 46.86 154.02C44.56 154.04 40.65 154.35 39.75 151.61C39.06 149.52 39.39 146.73 37.66 145.1C36.55 144.05 35 144.27 33.63 143.9C32 143.46 30.58 142.51 29.38 141.34C26.77 138.76 25.3 135.23 24.97 131.6C24.64 127.95 25.05 123.62 26.86 120.37C27.81 118.67 29.06 117.17 30.27 115.66C31.48 114.15 32.6 112.78 33.94 111.5C36.82 108.75 39.84 106.18 43.1 103.89C46.3 101.65 49.47 99.4101 53 97.7001C54.7 96.8801 56.45 96.1301 58.28 95.6801C60.21 95.2001 62.25 95.1701 64.22 95.1001C66.18 95.0301 68.13 95.2001 70.08 95.4101C72.12 95.6301 74.18 95.6801 76.14 96.3201C77.85 96.8701 79.42 97.7701 81.04 98.5201C82.66 99.2701 84.51 99.9101 86.21 100.69C89.58 102.22 92.68 104.61 95.35 107.16C97.89 109.59 100.54 111.73 104.24 111.73C106.02 111.73 107.8 111.27 109.45 110.65C111.1 110.03 112.87 109.35 114.38 108.45C114.48 108.39 115.13 107.98 115.1 107.88C115.09 107.83 114.41 107.84 114.4 107.99C114.4 108.06 114.59 108.29 114.62 108.35C115.13 109.22 115.57 110.13 116.04 111.02C116.99 112.81 117.94 114.6 118.89 116.4C119.84 118.2 120.76 120 121.71 121.79C122.61 123.5 125.2 121.98 124.3 120.28L124.32 120.27Z" fill="#333333"/>
<path d="M33.6001 120.19C36.5601 120.21 39.8801 119.4 42.7501 120.46C44.1001 120.96 44.4701 122.05 44.9001 123.33C45.4201 124.92 45.7801 126.56 46.0401 128.22C46.3101 129.92 46.4301 131.63 46.4901 133.35C46.5501 135.07 46.7101 136.89 46.5701 138.61C46.2901 142.03 41.5401 141.84 39.0501 141.86C37.1201 141.87 37.1201 144.87 39.0501 144.86C42.5201 144.84 47.4101 144.65 49.0701 140.92C49.9001 139.04 49.5801 136.72 49.5401 134.72C49.5001 132.57 49.3701 130.43 49.0801 128.3C48.8001 126.28 48.4001 124.26 47.7401 122.33C47.1501 120.6 46.4601 119.02 44.7901 118.09C41.4401 116.23 37.2401 117.2 33.6201 117.18C31.6901 117.17 31.6901 120.17 33.6201 120.18L33.6001 120.19Z" fill="#333333"/>
<path d="M48.5401 96.77C47.9101 98.81 47.6301 100.9 47.6001 103.04C47.5701 105.34 47.7501 107.8 49.2201 109.58C50.5001 111.13 52.4401 111.78 54.4601 111.87C56.4001 111.95 58.4901 111.59 60.1501 110.59C61.8101 109.59 63.2101 108.08 64.4501 106.52C65.6701 104.98 66.7701 103.24 67.8001 101.57C67.9801 105.56 68.8401 108.2 72.0001 110.7C72.7701 111.31 73.6701 111.87 74.5901 112.22C77.0401 113.16 79.9301 112.08 81.8501 110.29C83.7701 108.5 84.8201 105.97 84.9801 103.36C85.1401 100.74 84.4201 98.18 83.5101 95.72" fill="#FFD063"/>
<path d="M47.0901 96.3701C45.3801 102.16 44.9501 111.61 52.5701 113.13C55.9701 113.81 59.5301 113.07 62.2501 110.92C65.1401 108.64 67.1701 105.41 69.0801 102.32C68.1501 102.07 67.2201 101.82 66.2801 101.56C66.4401 104.66 67.0701 107.59 69.1101 110.02C71.4001 112.74 74.8301 114.68 78.4301 113.81C81.8701 112.98 84.5001 110.23 85.7201 106.99C87.1601 103.15 86.2901 99.0401 84.9301 95.3201C84.2701 93.5201 81.3701 94.3001 82.0401 96.1201C83.1001 99.0401 83.9801 102.18 83.1301 105.27C82.4301 107.81 80.5801 110.06 78.0001 110.82C75.4201 111.58 72.8701 109.9 71.2301 107.9C69.7601 106.1 69.4001 103.81 69.2801 101.56C69.2001 100.09 67.2901 99.5001 66.4801 100.8C63.5901 105.47 60.0401 111.18 53.7201 110.3C47.6301 109.46 48.7101 101.43 49.9701 97.1601C50.5201 95.3001 47.6201 94.5101 47.0801 96.3601L47.0901 96.3701Z" fill="#333333"/>
<path d="M117.9 39.39C116.23 39.39 114.66 39.72 113.21 40.34C112.57 38.04 111.76 35.84 110.81 33.69C109.85 31.51 108.62 29.49 107.37 27.49C106.11 25.48 104.7 23.59 103.17 21.79C101.64 19.98 100.14 18.14 98.37 16.57C96.6 15 94.7 13.56 92.72 12.26C90.75 10.97 88.72 9.70005 86.56 8.70005C84.4 7.70005 82.2 6.80005 79.92 6.12005C77.64 5.44005 75.29 5.18005 72.92 4.83005C70.61 4.50005 68.25 4.61005 65.84 4.61005C63.43 4.61005 61.05 4.39005 58.74 4.73005C56.43 5.07005 53.99 5.44005 51.75 6.11005C49.46 6.79005 47.28 7.80005 45.14 8.79005C42.98 9.79005 41.02 11.15 39.05 12.45C37.08 13.75 34.95 14.91 33.18 16.48C31.41 18.05 30.01 20.02 28.48 21.82C26.95 23.62 25.43 25.44 24.17 27.45C22.92 29.45 21.95 31.61 20.99 33.79C20.04 35.94 19.17 38.17 18.53 40.47C17.05 39.82 15.38 39.62 13.66 39.62C11.45 39.62 9.49999 40.19 7.71999 41.23C5.88999 42.3 3.99999 43.5 2.93999 45.35C1.87999 47.2 1.48999 49.34 1.48999 51.55C1.48999 53.76 2.24999 55.78 3.26999 57.56C4.28999 59.34 5.83999 60.87 7.67999 61.94C9.45999 62.98 11.46 63.47 13.66 63.47C15.03 63.47 16.32 63.47 17.54 63.05C18.02 65.55 18.7 67.96 19.54 70.32C20.39 72.71 21.63 74.9 22.82 77.1C24.01 79.3 25.17 81.57 26.69 83.57C28.21 85.58 29.8 87.56 31.61 89.31C33.42 91.06 35.55 92.4501 37.6 93.91C39.65 95.37 41.76 96.7001 44.02 97.83C46.28 98.96 48.63 99.75 51.04 100.52C53.42 101.28 55.78 102.21 58.29 102.59C60.74 102.97 63.27 103.14 65.83 103.14C68.39 103.14 70.89 102.82 73.35 102.45C75.87 102.06 78.27 101.35 80.64 100.59C83.06 99.82 85.34 98.83 87.58 97.71C89.84 96.58 92.13 95.53 94.18 94.08C96.23 92.6301 98.2 91.03 100.01 89.28C101.82 87.53 103.24 85.44 104.76 83.43C106.28 81.43 108.08 79.59 109.28 77.37C110.48 75.15 111.22 72.73 112.08 70.34C112.94 67.95 113.53 65.5 114.01 63C115.2 63.39 116.57 63.62 117.89 63.62C120.1 63.62 122.11 63 123.89 61.97C125.67 60.94 127.48 59.56 128.54 57.72C129.57 55.94 130.12 53.77 130.12 51.56C130.12 49.35 129.28 47.35 128.26 45.56C127.24 43.77 125.76 42.16 123.93 41.09C122.15 40.05 120.11 39.39 117.9 39.39Z" fill="#FFE6D9"/>
<path d="M117.9 37.89C116.14 37.92 114.45 38.23 112.82 38.9L114.67 39.95C110.05 23.71 96.96 9.86998 80.79 4.82998C76.56 3.50998 71.95 3.07998 67.53 3.11998C65.31 3.13998 63.08 3.00998 60.86 3.07998C58.64 3.14998 56.49 3.53998 54.35 3.95998C50.07 4.79998 45.8 6.54998 42.05 8.76998C40.27 9.82998 38.57 11.02 36.81 12.13C35.05 13.24 33.32 14.33 31.82 15.74C30.09 17.36 28.69 19.31 27.16 21.12C25.63 22.93 24.14 24.73 22.9 26.72C20.36 30.77 18.41 35.52 17.1 40.1L18.95 39.05C14.8 37.35 10.04 38.08 6.28999 40.36C4.48999 41.46 2.74999 42.76 1.65999 44.61C0.569985 46.46 0.0999851 48.73 0.00998506 50.9C-0.360015 60.18 9.13999 67.2 17.95 64.51C17.33 64.16 16.72 63.81 16.1 63.46C17 68.07 18.57 72.38 20.79 76.51C23.01 80.64 25.08 84.17 27.98 87.61C30.92 91.09 34.53 93.7 38.3 96.22C42.16 98.8 46.25 100.55 50.65 101.98C52.76 102.66 54.84 103.45 57.02 103.9C59.28 104.36 61.63 104.55 63.93 104.63C68.69 104.8 73.55 104.22 78.14 102.94C86.74 100.53 95.5 96.3 101.71 89.73C103.43 87.91 104.8 85.81 106.35 83.85C107.77 82.05 109.35 80.34 110.49 78.33C111.72 76.15 112.49 73.74 113.32 71.39C114.24 68.78 114.94 66.13 115.47 63.42L113.62 64.47C121.38 66.88 130.26 61.95 131.45 53.72C132.63 45.65 125.97 38.06 117.89 37.9C115.96 37.86 115.96 40.86 117.89 40.9C124.17 41.03 129.46 47.07 128.49 53.36C127.49 59.83 120.44 63.45 114.41 61.58C113.68 61.35 112.72 61.85 112.56 62.63C111.72 66.92 110.47 71.26 108.67 75.26C107.04 78.88 104.12 81.88 101.74 85.03C99.19 88.4 95.91 91.33 92.32 93.56C88.73 95.79 84.69 97.7 80.7 99.04C72.4 101.81 63.05 102.87 54.59 100.15C50.41 98.81 46.24 97.53 42.43 95.3C38.92 93.25 35.23 90.85 32.34 87.97C28.91 84.55 26.39 80.61 24.11 76.37C23.01 74.34 21.86 72.32 21.06 70.15C20.16 67.72 19.48 65.21 18.98 62.67C18.83 61.89 17.87 61.4 17.13 61.62C10.12 63.76 2.68999 58.27 2.98998 50.9C3.05998 49.14 3.42999 47.26 4.42999 45.78C5.32999 44.44 6.74998 43.55 8.11998 42.74C11.15 40.95 14.84 40.59 18.13 41.93C18.89 42.24 19.77 41.59 19.98 40.88C21.09 36.97 22.72 33.1 24.69 29.55C26.57 26.16 29.21 23.27 31.67 20.3C32.97 18.73 34.37 17.32 36.06 16.16C37.65 15.07 39.31 14.08 40.92 13.02C44.34 10.77 47.99 8.83998 51.92 7.62998C55.9 6.39998 60.02 5.98998 64.16 6.08998C66.3 6.13998 68.45 6.03998 70.59 6.12998C72.73 6.21998 74.74 6.54998 76.77 6.91998C80.75 7.64998 84.66 9.23998 88.18 11.22C91.6 13.14 94.93 15.39 97.8 18.08C100.95 21.03 103.77 24.6 106.07 28.24C108.55 32.17 110.48 36.24 111.76 40.73C111.96 41.44 112.85 42.09 113.61 41.78C115 41.22 116.39 40.91 117.9 40.88C119.83 40.84 119.83 37.84 117.9 37.88V37.89Z" fill="#333333"/>
<path d="M53.5101 46.3C53.5101 48.09 52.3301 49.76 50.5501 49.76C48.7701 49.76 47.1101 48.09 47.1101 46.3C47.1101 44.51 48.7701 43.04 50.5501 43.04C52.3301 43.04 53.5101 44.51 53.5101 46.3Z" fill="#333333"/>
<path d="M84.67 46.2999C84.67 48.0899 82.94 49.4199 81.16 49.4199C79.38 49.4199 77.76 48.0899 77.76 46.2999C77.76 44.5099 79.38 42.9099 81.16 42.9099C82.94 42.9099 84.67 44.5199 84.67 46.2999Z" fill="#333333"/>
<path d="M64.6101 49.6999C64.9101 49.5099 65.2201 49.3299 65.5501 49.1899L65.1901 49.3399C65.4701 49.2299 65.7501 49.1399 66.0501 49.0999L65.6501 49.1499C65.8701 49.1199 66.0901 49.1199 66.3101 49.1499L65.9101 49.0999C66.1301 49.1299 66.3401 49.1999 66.5501 49.2799L66.1901 49.1299C66.5001 49.2699 66.7801 49.4499 67.0501 49.6499L66.7501 49.4199L66.8001 49.4599C67.1201 49.7199 67.4301 49.8999 67.8601 49.8999C68.2301 49.8999 68.6701 49.7399 68.9201 49.4599C69.1701 49.1799 69.3801 48.7999 69.3601 48.3999C69.3401 48.0299 69.2301 47.5799 68.9201 47.3399C68.6701 47.1399 68.4201 46.9399 68.1501 46.7799C67.8801 46.6199 67.6201 46.5099 67.3401 46.3899C66.9101 46.2199 66.4401 46.1299 65.9701 46.1299C64.9301 46.1299 63.9401 46.5599 63.0801 47.1099C62.7501 47.3199 62.4901 47.6299 62.3901 48.0099C62.2901 48.3699 62.3401 48.8499 62.5401 49.1699C62.9701 49.8299 63.8901 50.1599 64.5901 49.7099L64.6101 49.6999Z" fill="#333333"/>
<path d="M61.6499 63.89C64.4599 65.18 67.9199 65.38 70.7499 64.13C73.3799 62.97 76.9399 59.07 76.1799 55.94C75.5799 53.46 72.5799 54.15 70.6799 54.2C67.8399 54.27 64.9999 54.03 62.1599 54.03C59.5799 54.03 56.1799 52.9 56.3499 56.83C56.4899 60.05 58.7799 62.57 61.6599 63.89H61.6499Z" fill="#FCFCFC"/>
<path d="M60.89 65.1901C65.14 67.0601 70.07 66.9701 73.77 63.9601C75.35 62.6701 76.68 60.9601 77.38 59.0301C78 57.3201 77.99 55.1101 76.62 53.7501C75.39 52.5401 73.53 52.5201 71.92 52.6301C69.57 52.7901 67.22 52.6701 64.87 52.5901C63.03 52.5301 61.17 52.4001 59.34 52.3901C57.83 52.3801 56.27 52.7601 55.43 54.1301C54.28 56.0101 54.9 58.7401 55.85 60.5601C56.93 62.6201 58.82 64.2001 60.9 65.1901C62.64 66.0101 64.16 63.4301 62.41 62.6001C59.99 61.4501 57.32 58.9801 57.89 55.9901C57.9 55.9301 58.03 55.6101 57.99 55.6801C58.04 55.5801 58.18 55.5201 58.13 55.5501C58.56 55.3601 58.92 55.3901 59.44 55.4001C60.74 55.4201 62.03 55.5301 63.33 55.5601C65.46 55.6001 67.59 55.7301 69.72 55.7301C71.03 55.7301 72.41 55.4501 73.71 55.6201C76.47 55.9801 73.47 60.1201 72.57 61.0201C69.88 63.7201 65.86 64.1401 62.41 62.6201C61.66 62.2901 60.81 62.4101 60.36 63.1601C59.98 63.7901 60.16 64.8901 60.9 65.2101L60.89 65.1901Z" fill="#333333"/>
<path d="M43.8 60.19C43.8 63.02 42.8 65.69 40.96 67.55C39.12 69.41 36.44 70.39 33.62 70.39C30.8 70.39 28.15 69.39 26.3 67.53C24.46 65.68 23.55 63.02 23.55 60.2C23.55 57.38 24.53 54.79 26.38 52.94C28.23 51.08 30.8001 50.21 33.6301 50.21C36.4601 50.21 39.15 50.96 41 52.82C42.84 54.67 43.8101 57.38 43.8101 60.2L43.8 60.19Z" fill="#EDBBA6"/>
<path d="M108.11 60.19C108.11 63.02 107.33 65.75 105.49 67.6C103.65 69.45 100.92 70.64 98.0901 70.64C95.2601 70.64 92.6401 69.36 90.7901 67.5C88.9401 65.64 87.8201 63.02 87.8201 60.19C87.8201 57.36 88.9401 54.72 90.7801 52.87C92.6301 51.01 95.2601 50.04 98.0901 50.04C100.92 50.04 103.27 51.28 105.12 53.14C106.97 55 108.1 57.36 108.1 60.19H108.11Z" fill="#EDBBA6"/>
<path d="M105.75 43.0799C109.09 43.5899 112.89 43.3499 113.93 40.5399C114.17 39.8999 114.18 39.1099 114.17 38.4199C114.14 36.2199 113.75 34.0199 113.34 31.8799C112.93 29.7399 112.35 27.5699 111.54 25.5499C110.73 23.5299 109.79 21.4699 108.55 19.6599C107.32 17.8699 105.86 16.1499 104.22 14.6499C102.52 13.1099 100.39 12.0799 98.44 10.8299C96.49 9.57995 94.52 8.48995 92.41 7.51995C90.3 6.54995 88.26 5.50995 86.07 4.79995C83.88 4.08995 81.64 3.46995 79.4 2.99995C77.12 2.51995 74.81 2.31995 72.56 2.05995C70.22 1.78995 67.87 1.45995 65.51 1.46995C63.15 1.47995 60.79 1.70995 58.45 2.01995C56.11 2.32995 53.77 2.71995 51.49 3.31995C49.45 3.85995 47.36 4.55995 45.27 5.28995C43.22 5.99995 41.12 6.69995 39.18 7.64995C37.24 8.59995 35.36 9.84995 33.65 11.1299C31.72 12.5799 30.01 14.2899 28.34 16.0399C26.67 17.7899 25.12 19.6399 23.65 21.5499C22.16 23.4799 20.77 25.7799 19.54 28.1599C18.31 30.5499 17.08 32.9599 16.68 35.3999C16.34 37.4499 16.68 39.7399 18.08 41.2799C20.25 43.6699 23.98 42.9899 27.11 42.1999C29.41 41.6199 31.76 41.2499 34.01 40.5399C36.27 39.8299 38.41 38.8099 40.63 37.9799C42.85 37.1599 45.15 36.5499 47.33 35.6299C49.51 34.7199 51.71 33.8299 53.86 32.8399C56.01 31.8599 58.11 30.7499 60.24 29.7199C62.37 28.6799 64.54 27.7299 66.65 26.6599C68.76 25.5899 70.73 24.2399 72.83 23.1499C73.06 23.0299 73.38 22.9899 73.64 22.9799C74.12 22.9599 74.65 23.2299 75 23.5599C76.77 25.2499 78.39 27.0999 80.17 28.7799C81.95 30.4599 83.69 32.1999 85.62 33.6999C87.83 35.4199 90.14 37.0999 92.57 38.4999C95.01 39.8999 97.58 41.1899 100.32 41.9199C101.59 42.2599 103.66 42.7499 105.77 43.0699L105.75 43.0799Z" fill="#8E816E"/>
<path d="M105.35 44.5299C108.3 44.9499 112.11 45.1599 114.32 42.7299C115.65 41.2599 115.75 39.3699 115.64 37.4799C115.52 35.3099 115.13 33.1499 114.7 31.0199C113.85 26.8699 112.33 22.6399 109.97 19.0899C107.62 15.5599 104.7 12.8299 101.07 10.6799C97.26 8.41991 93.5 6.27991 89.42 4.50991C85.46 2.78991 81.14 1.64991 76.86 1.06991C72.5 0.479906 68.03 -0.180095 63.62 0.0399055C59.2 0.259905 54.69 0.869905 50.43 2.06991C46.17 3.26991 41.89 4.58991 38.02 6.55991C34.15 8.52991 30.98 11.1699 28.06 14.1699C25.1 17.2099 22.29 20.4999 20.07 24.1299C17.85 27.7599 15.51 31.7699 15.1 35.9499C14.75 39.4399 16.41 43.0899 19.96 44.1299C23.51 45.1699 27.52 43.6399 30.97 42.8799C35.4 41.9099 39.43 39.9399 43.72 38.5299C47.95 37.1399 52.11 35.3899 56.12 33.4599C60.14 31.5199 64.28 29.6999 68.19 27.5699C69.1 27.0699 69.99 26.5399 70.88 26.0099C71.33 25.7499 71.77 25.4799 72.22 25.2199C72.57 25.0199 73.16 24.4999 73.55 24.5199C74.23 24.5499 75.25 25.9599 75.71 26.4299C76.51 27.2499 77.3 28.0899 78.11 28.8999C84.08 34.8699 91.22 40.8699 99.48 43.2599C101.4 43.8199 103.38 44.2199 105.36 44.5299C107.25 44.8299 108.06 41.9399 106.16 41.6399C102.36 41.0399 98.7 40.0899 95.28 38.2999C91.65 36.3999 88.18 34.0399 85.09 31.3499C82 28.6599 79.4 25.7999 76.55 23.0099C75.34 21.8199 73.92 21.1199 72.25 21.8099C70.43 22.5599 68.78 23.8099 67.07 24.7699C63.52 26.7499 59.73 28.3299 56.09 30.1399C52.45 31.9499 48.6 33.6999 44.72 35.0399C42.7 35.7399 40.67 36.3599 38.69 37.1599C36.79 37.9299 34.91 38.7499 32.93 39.3199C30.95 39.8899 28.93 40.2299 26.94 40.7199C25.39 41.0999 23.84 41.4899 22.23 41.4499C18.39 41.3699 17.54 37.6799 18.4 34.5199C19.44 30.7299 21.68 26.9499 23.9 23.7399C26.12 20.5299 28.81 17.5699 31.62 14.8699C34.47 12.1299 37.81 9.77991 41.48 8.27991C49.09 5.17991 57.25 3.02991 65.5 2.99991C67.55 2.99991 69.58 3.23991 71.62 3.47991C73.66 3.71991 75.64 3.87991 77.63 4.21991C81.56 4.87991 85.53 6.01991 89.16 7.68991C92.84 9.37991 96.26 11.3399 99.74 13.4099C103.09 15.3999 105.82 18.0299 107.85 21.3799C109.92 24.7999 111.19 28.6299 111.94 32.5399C112.34 34.6099 112.74 36.7499 112.68 38.8699C112.64 40.3999 111.94 41.2199 110.46 41.5999C109.08 41.9599 107.55 41.8599 106.15 41.6599C105.34 41.5399 104.55 41.8599 104.3 42.7099C104.1 43.4099 104.55 44.4399 105.35 44.5599V44.5299Z" fill="#333333"/>
<path d="M62.4201 125.17C61.9201 126.32 60.6401 127.07 59.3601 127.34C60.7201 126.98 62.1001 127.79 62.4101 129.17C62.7201 130.55 61.7601 132.07 60.3801 132.32C61.7001 132.35 62.6201 133.62 62.6501 134.94C62.7001 137.05 61.3801 138.42 59.4801 139.06C57.5801 139.7 55.3401 139.86 53.8901 139.85C51.4101 139.82 49.0501 139.25 47.1801 138.24C45.3101 137.22 44.1601 135.43 43.5701 132.7C43.3001 131.44 43.1601 130.18 43.2001 128.89C43.2801 126.35 43.7301 123.34 44.9201 120.82C46.1101 118.3 48.0001 116.44 51.0901 116.07C51.3901 116.03 51.6501 115.86 51.9401 115.97C53.0501 116.39 52.8701 117.92 52.4601 119.02C54.3301 118.81 56.1701 118.38 58.0301 118.18C58.8901 118.08 60.0101 118.21 60.5601 118.88C60.9901 119.41 60.8801 120.29 60.5601 120.89C60.2401 121.49 59.7101 122.18 59.1801 122.61C59.9201 122.14 60.8601 121.95 61.5801 122.45C62.3001 122.95 62.5101 123.82 62.3301 124.67C62.3001 124.82 62.5001 125.02 62.4401 125.16L62.4201 125.17Z" fill="#FFE6D9"/>
<path d="M61.1301 124.42C60.6801 125.31 59.9001 125.67 58.9701 125.9C57.0801 126.36 57.8901 129.17 59.7701 128.79C61.2501 128.49 61.3001 130.54 59.9901 130.88C58.2401 131.32 58.7901 133.66 60.3901 133.83C61.1401 133.91 61.2201 134.99 61.1301 135.55C61.0001 136.3 60.5301 136.86 59.9101 137.25C58.4201 138.19 56.2401 138.32 54.5301 138.36C50.9401 138.44 46.7401 137.53 45.4301 133.77C44.1201 130 44.5601 125.19 46.2301 121.59C46.8601 120.23 47.7401 119 49.0701 118.26C49.4201 118.06 49.7801 117.92 50.1701 117.81C50.5601 117.7 51.1801 117.72 51.5101 117.54C51.9801 117.49 51.9001 117.39 51.2701 117.25C51.3101 117.35 51.3201 117.45 51.2901 117.56C51.1601 117.89 51.1401 118.31 51.0301 118.65C50.7401 119.5 51.5301 120.66 52.4801 120.55C54.3401 120.33 56.1901 119.86 58.0501 119.71C58.3101 119.69 58.6201 119.65 58.8801 119.69C58.9401 119.69 59.4601 119.95 59.3601 119.74C59.6201 120.28 58.4301 121.33 58.1301 121.59C56.8301 122.75 58.4901 124.76 59.9501 123.95C61.2401 123.23 60.8401 124.77 61.0001 125.61C61.3601 127.5 64.2501 126.7 63.8901 124.81C63.8501 124.5 63.8301 124.49 63.8301 124.81L63.8801 124.41C63.8901 124.07 63.8801 123.72 63.8101 123.38C63.6501 122.67 63.3001 122.03 62.7701 121.54C61.5101 120.39 59.8201 120.58 58.4301 121.36L60.2501 123.72C62.0401 122.12 63.5501 118.86 60.8901 117.26C59.7801 116.59 58.4501 116.66 57.2201 116.83C55.6301 117.04 54.0701 117.38 52.4801 117.57L53.9301 119.47C54.5201 117.76 54.5101 115.18 52.3701 114.57C51.4901 114.32 50.2401 114.69 49.3801 114.94C48.4601 115.21 47.5801 115.63 46.8101 116.19C43.2301 118.78 42.1001 123.65 41.8001 127.82C41.5001 131.95 42.3601 137.09 46.2001 139.42C50.0601 141.76 55.7001 142.02 59.9201 140.55C62.0101 139.82 63.7401 138.32 64.1001 136.05C64.5201 133.49 63.0701 131.13 60.4201 130.85C60.5501 131.83 60.6901 132.81 60.8201 133.8C62.9801 133.25 64.4301 131.01 63.9001 128.8C63.3601 126.56 61.1501 125.5 59.0101 125.93L59.8101 128.82C61.4501 128.42 62.9801 127.51 63.7601 125.96C64.6301 124.24 62.0501 122.72 61.1701 124.45L61.1301 124.42Z" fill="#333333"/>
<path d="M124.05 106.09C124.19 106.41 124.3 106.74 124.39 107.08C124.43 107.25 124.47 107.42 124.5 107.59C124.52 107.67 124.53 107.76 124.54 107.85C124.52 107.67 124.52 107.66 124.54 107.84C124.56 108.14 124.58 108.44 124.58 108.75C124.58 108.92 124.57 109.1 124.56 109.27C124.56 109.34 124.48 109.89 124.54 109.52C124.44 110.17 124.27 110.81 124.04 111.43C124.01 111.51 123.98 111.59 123.94 111.68C124 111.53 124.01 111.53 123.94 111.68C123.86 111.84 123.79 112 123.71 112.16C123.55 112.47 123.37 112.77 123.18 113.07C122.75 113.73 123.03 114.76 123.72 115.12C124.47 115.52 125.31 115.29 125.77 114.58C127.51 111.91 128.21 108.32 126.95 105.31C126.65 104.59 125.94 103.99 125.1 104.26C124.41 104.48 123.73 105.33 124.05 106.11V106.09Z" fill="#333333"/>
<path d="M106.74 114.23C107.27 116.57 107.79 118.92 108.6 121.19C109.42 123.5 110.5 125.7 111.57 127.91C111.92 128.64 112.96 128.83 113.62 128.45C114.36 128.01 114.51 127.13 114.16 126.4C113.17 124.35 112.16 122.31 111.41 120.16C110.65 117.97 110.15 115.7 109.64 113.44C109.21 111.56 106.32 112.35 106.75 114.24L106.74 114.23Z" fill="#333333"/>
<path d="M34.43 123.61C33.74 128.87 33.42 135.22 36.83 139.67C37.32 140.31 38.12 140.65 38.88 140.21C39.51 139.84 39.91 138.8 39.42 138.16C36.32 134.12 36.81 128.37 37.43 123.62C37.54 122.82 36.67 122.12 35.93 122.12C35.03 122.12 34.54 122.81 34.43 123.62V123.61Z" fill="#333333"/>
<path d="M129.64 114.05C132.9 113.82 132.9 113.87 136.16 113.64C139.42 113.41 139.39 112.98 142.64 112.75C145.9 112.52 145.92 112.84 149.18 112.61C152.44 112.38 152.42 112.08 155.68 111.85C158.94 111.62 158.96 111.82 162.22 111.59C163.59 111.49 164.68 110.34 164.59 108.97C164.36 105.67 164.12 105.68 163.89 102.38C163.66 99.0801 163.64 99.0801 163.41 95.7801C163.18 92.4801 163.44 92.4601 163.21 89.1601C162.98 85.8601 162.7 85.8801 162.46 82.5701C162.23 79.2601 162.48 79.2501 162.24 75.9401C162.01 72.6301 162.12 72.6301 161.89 69.3201C161.79 67.9501 160.45 67.0701 159.08 67.1601C155.82 67.3901 155.8 67.0501 152.54 67.2801C149.28 67.5101 149.29 67.5901 146.03 67.8201C142.77 68.0501 142.79 68.3501 139.53 68.5801C136.27 68.8101 136.26 68.6901 133 68.9201C129.74 69.1501 129.73 69.0701 126.47 69.3001C125.1 69.4001 124.35 70.6001 124.45 71.9701C124.68 75.2701 124.49 75.2901 124.72 78.5901C124.95 81.8901 124.92 81.9001 125.15 85.2001C125.38 88.5001 125.49 88.4901 125.73 91.7901C125.97 95.0901 125.84 95.1001 126.07 98.4101C126.3 101.72 126.36 101.71 126.59 105.02C126.82 108.33 126.63 108.34 126.86 111.65C126.96 113.02 128.26 114.17 129.63 114.07L129.64 114.05Z" fill="#FCFCFC"/>
<path d="M129.64 115.55C132.48 115.35 135.36 115.33 138.17 114.93C140.78 114.56 143.26 114.13 145.92 114.18C148.58 114.24 151.14 113.88 153.76 113.53C156.58 113.15 159.41 113.37 162.23 113.08C163.65 112.94 164.91 112.26 165.63 110.98C166.4 109.6 166.05 107.91 165.85 106.42C165.52 103.8 165.31 101.19 165.12 98.5599C164.92 95.8399 164.91 93.1399 164.79 90.4199C164.67 87.4699 164.07 84.5899 163.91 81.6499C163.76 78.8999 163.72 76.1299 163.6 73.3799C163.49 70.7799 163.95 67.3899 161.16 66.0599C159.8 65.4099 158.3 65.7299 156.85 65.7299C155.56 65.7299 154.29 65.6599 153.01 65.7299C150.16 65.8899 147.26 66.1199 144.42 66.4399C141.77 66.7399 139.19 67.1199 136.51 67.2099C133.9 67.2999 131.3 67.4899 128.7 67.6299C127.32 67.6999 125.75 67.5999 124.55 68.4099C123.2 69.3299 122.89 70.8899 122.97 72.4199C123.12 75.2199 123.18 78.0199 123.36 80.8299C123.54 83.7299 123.76 86.6199 124.03 89.5199C124.34 92.7699 124.38 96.0399 124.62 99.2899C124.84 102.3 125.17 105.29 125.21 108.31C125.23 109.83 125.07 111.64 125.69 113.04C126.38 114.6 127.92 115.54 129.61 115.55C131.54 115.55 131.54 112.56 129.61 112.55C128.06 112.55 128.27 110.77 128.23 109.66C128.19 108.54 128.2 107.41 128.15 106.29C128.02 103.65 127.73 101.03 127.55 98.3899C127.38 95.8899 127.34 93.3799 127.14 90.8799C126.94 88.3199 126.66 85.7799 126.5 83.2199C126.34 80.7799 126.12 78.3399 126.08 75.8999C126.06 74.8799 126.05 73.8699 125.99 72.8499C125.96 72.3499 125.72 71.3899 126.14 70.9699C126.56 70.5499 127.56 70.6999 128.07 70.6699C132.91 70.3899 137.87 70.4399 142.67 69.6999C147.39 68.9799 152.21 68.7299 156.98 68.7199C157.86 68.7199 159.73 68.1999 160.29 69.1199C160.6 69.6299 160.46 70.6699 160.49 71.2599C160.52 71.7899 160.53 72.3199 160.55 72.8599C160.64 75.3399 160.79 77.7999 160.83 80.2899C160.87 82.7799 161.27 85.0899 161.54 87.5099C161.83 90.1099 161.7 92.6999 161.85 95.2999C162.01 97.9599 162.2 100.62 162.43 103.27C162.52 104.29 162.66 105.3 162.8 106.31C162.92 107.23 163.55 109.2 162.68 109.86C161.85 110.5 159.72 110.19 158.68 110.21C157.19 110.23 155.7 110.3 154.21 110.47C151.5 110.77 148.87 111.24 146.12 111.19C143.37 111.14 140.85 111.42 138.21 111.9C135.4 112.41 132.44 112.35 129.59 112.55C127.67 112.68 127.66 115.68 129.59 115.55H129.64Z" fill="#333333"/>
<circle cx="144" cy="91" r="10" stroke="#FD780F" stroke-width="4"/>
</g>
<defs>
<clipPath id="clip0_4_1571">
<rect width="166.1" height="214.45" fill="white"/>
</clipPath>
</defs>
</svg>
