<svg width="1080" height="740" viewBox="0 0 1080 740" fill="none" xmlns="http://www.w3.org/2000/svg">
<g clip-path="url(#clip0_40_708)">
<path d="M931.124 475.101L916.224 501.297V553.323L943.227 569.211L945.798 567.693L946.208 516.842L960.706 492.499L931.124 475.101Z" fill="#FD780F" stroke="#333333" stroke-width="1.8" stroke-miterlimit="10" stroke-linejoin="round"/>
<path d="M928.553 473.584L913.645 499.787V551.813L943.226 569.211V517.185L958.134 490.982L928.553 473.584Z" fill="#FD780F" stroke="#333333" stroke-width="1.8" stroke-miterlimit="10" stroke-linejoin="round"/>
<path d="M913.645 499.787L928.553 473.584L958.134 490.982L943.226 517.185L913.645 499.787Z" fill="#FD780F" stroke="#333333" stroke-width="1.8" stroke-miterlimit="10" stroke-linejoin="round"/>
<path d="M924.157 490.435C923.446 490.048 922.706 489.698 921.945 489.399L916.465 499.035L942.472 514.332L950.361 500.458C945.145 498.51 939.138 498.583 933.974 496.329C930.472 494.804 927.512 492.266 924.164 490.435H924.157Z" fill="#3DC181" stroke="#333333" stroke-width="1.8" stroke-miterlimit="10" stroke-linejoin="round"/>
<path d="M929.315 476.436L921.938 489.399C922.699 489.698 923.447 490.048 924.15 490.435C927.505 492.266 930.457 494.797 933.959 496.329C939.124 498.583 945.124 498.51 950.347 500.458L955.314 491.726L929.307 476.429L929.315 476.436Z" fill="#B3E2FF" stroke="#333333" stroke-width="1.8" stroke-miterlimit="10" stroke-linejoin="round"/>
<path d="M918.45 498.51L921.051 493.973L929.014 498.663L926.413 503.2L918.45 498.51Z" fill="white" stroke="#333333" stroke-width="1.8" stroke-miterlimit="10" stroke-linejoin="round"/>
<path d="M922.201 491.93L924.802 487.393L932.765 492.083L930.172 496.621L922.201 491.93Z" fill="white" stroke="#333333" stroke-width="1.8" stroke-miterlimit="10" stroke-linejoin="round"/>
<path d="M925.952 485.35L928.553 480.813L936.523 485.504L933.923 490.041L925.952 485.35Z" fill="white" stroke="#333333" stroke-width="1.8" stroke-miterlimit="10" stroke-linejoin="round"/>
<path d="M945.798 567.693L957.658 560.793V549.194L945.893 556.16L945.798 567.693Z" fill="#FD780F" stroke="#333333" stroke-width="1.8" stroke-linecap="round" stroke-linejoin="round"/>
<path d="M957.658 549.194L946.002 542.344L945.893 556.16L957.658 549.194Z" fill="#FD780F" stroke="#333333" stroke-width="1.8" stroke-linecap="round" stroke-linejoin="round"/>
<path d="M922.11 525.195L920.605 521.629C920.569 521.543 920.621 521.474 920.692 521.515L936.207 530.473C936.31 530.532 936.374 530.681 936.338 530.781L936.141 531.334C936.122 531.387 936.091 531.427 936.051 531.454L925.467 538.3C925.415 538.334 925.441 538.444 925.511 538.484L931.477 541.929C931.577 541.987 931.679 541.992 931.755 541.944L932.775 541.3C932.815 541.275 932.877 541.312 932.905 541.375L934.396 544.911C934.432 544.997 934.381 545.065 934.31 545.024L918.789 536.063C918.685 536.003 918.622 535.854 918.658 535.754L918.851 535.219C918.87 535.167 918.901 535.127 918.941 535.101L929.575 528.263C929.627 528.229 929.601 528.119 929.531 528.079L923.605 524.657C923.505 524.599 923.402 524.593 923.326 524.641L922.241 525.272C922.2 525.297 922.137 525.26 922.11 525.196L922.11 525.195Z" fill="white"/>
<path d="M706.16 613.136V657.948C706.16 658.057 706.146 658.167 706.146 658.283C706.146 663.937 714.556 668.518 724.922 668.518C735.288 668.518 743.698 663.937 743.698 658.283V613.136H706.153H706.16Z" fill="#FD780F" stroke="#191919" stroke-width="1.8" stroke-miterlimit="10"/>
<mask id="mask0_40_708" style="mask-type:luminance" maskUnits="userSpaceOnUse" x="706" y="613" width="38" height="56">
<path d="M706.16 613.136V657.948C706.16 658.057 706.146 658.167 706.146 658.283C706.146 663.937 714.556 668.518 724.922 668.518C735.288 668.518 743.698 663.937 743.698 658.283V613.136H706.153H706.16Z" fill="white"/>
</mask>
<g mask="url(#mask0_40_708)">
<path d="M708.915 668.518V614.369" stroke="#FFA47D" stroke-width="1.8" stroke-miterlimit="10"/>
<path d="M712.914 668.518V614.369" stroke="#FFA47D" stroke-width="1.8" stroke-miterlimit="10"/>
<path d="M716.922 668.518V614.369" stroke="#FFA47D" stroke-width="1.8" stroke-miterlimit="10"/>
<path d="M720.922 668.518V614.369" stroke="#FFA47D" stroke-width="1.8" stroke-miterlimit="10"/>
<path d="M724.922 668.518V614.369" stroke="#FFA47D" stroke-width="1.8" stroke-miterlimit="10"/>
<path d="M728.929 668.518V614.369" stroke="#FFA47D" stroke-width="1.8" stroke-miterlimit="10"/>
<path d="M732.929 668.518V614.369" stroke="#FFA47D" stroke-width="1.8" stroke-miterlimit="10"/>
<path d="M736.936 668.518V614.369" stroke="#FFA47D" stroke-width="1.8" stroke-miterlimit="10"/>
<path d="M740.936 668.518V614.369" stroke="#FFA47D" stroke-width="1.8" stroke-miterlimit="10"/>
<path d="M706.16 613.136V657.948C706.16 658.057 706.146 658.167 706.146 658.283C706.146 663.937 714.556 668.518 724.922 668.518C735.288 668.518 743.698 663.937 743.698 658.283V613.136H706.153H706.16Z" stroke="#191919" stroke-width="1.8" stroke-miterlimit="10"/>
</g>
<path d="M724.922 623.37C735.291 623.37 743.698 618.788 743.698 613.136C743.698 607.484 735.291 602.901 724.922 602.901C714.552 602.901 706.146 607.484 706.146 613.136C706.146 618.788 714.552 623.37 724.922 623.37Z" fill="#FD780F" stroke="#191919" stroke-width="1.8" stroke-miterlimit="10"/>
<path d="M724.922 621.306C734.146 621.306 741.625 617.648 741.625 613.136C741.625 608.624 734.146 604.966 724.922 604.966C715.697 604.966 708.219 608.624 708.219 613.136C708.219 617.648 715.697 621.306 724.922 621.306Z" fill="#FD780F" stroke="#191919" stroke-width="1.8" stroke-miterlimit="10"/>
<mask id="mask1_40_708" style="mask-type:luminance" maskUnits="userSpaceOnUse" x="695" y="575" width="68" height="47">
<path d="M724.922 621.299C715.076 621.299 708.219 616.995 708.219 613.129C703.032 613.129 675.026 580.003 724.922 575.334C786.862 576.407 758.086 614.464 741.625 613.129C741.625 616.988 734.768 621.299 724.922 621.299Z" fill="white"/>
</mask>
<g mask="url(#mask1_40_708)">
<path d="M718.058 591.032C718.022 590.558 717.721 590.15 717.355 589.873C715.26 588.304 712.403 588.173 709.883 588.319C707.362 588.465 704.359 588.683 702.037 589.697C701.084 590.113 700.374 590.908 699.919 591.828C699.539 592.623 699.282 593.476 699.143 594.344C698.887 595.927 698.945 597.889 700.11 599.13C700.659 599.72 701.421 600.027 702.22 600.093C702.469 600.114 702.725 600.122 702.974 600.129C705.56 600.209 711.817 599.691 714.271 598.976C714.344 598.955 714.425 598.933 714.498 598.911C715.055 598.736 715.633 599.13 715.677 599.713L719.545 648.187C719.611 649.026 720.344 649.653 721.186 649.58C722.029 649.514 722.651 648.778 722.586 647.946L718.044 591.032H718.058Z" fill="#363944" stroke="#191919" stroke-width="1.8" stroke-miterlimit="10"/>
<path d="M722.857 603.156C722.82 602.682 722.52 602.274 722.154 601.996C720.059 600.428 717.202 600.297 714.681 600.443C712.161 600.588 709.158 600.807 706.835 601.821C705.883 602.237 705.172 603.032 704.718 603.951C704.337 604.746 704.081 605.6 703.942 606.468C703.685 608.051 703.744 610.013 704.909 611.253C705.458 611.844 706.22 612.151 707.019 612.216C707.268 612.238 707.524 612.246 707.773 612.253C710.359 612.333 716.615 611.815 719.07 611.1C719.143 611.078 719.223 611.056 719.297 611.035C719.853 610.86 720.432 611.253 720.476 611.837L724.344 660.311C724.41 661.15 725.143 661.777 725.985 661.704C726.828 661.638 727.45 660.902 727.384 660.07L722.842 603.156H722.857Z" fill="#363944" stroke="#191919" stroke-width="1.8" stroke-miterlimit="10"/>
<path d="M712.403 593.659C712.44 593.228 712.703 592.856 713.04 592.608C714.945 591.186 717.531 591.069 719.809 591.2C722.073 591.332 724.813 591.528 726.916 592.448C727.78 592.827 728.425 593.542 728.835 594.381C729.187 595.096 729.414 595.876 729.538 596.664C729.765 598.094 729.714 599.874 728.666 601.004C728.168 601.537 727.48 601.821 726.754 601.872C726.527 601.887 726.3 601.902 726.066 601.909C723.729 601.982 718.059 601.515 715.832 600.866C715.766 600.844 715.692 600.822 715.626 600.807C715.121 600.654 714.601 601.004 714.557 601.53L711.048 645.444C710.989 646.203 710.323 646.772 709.561 646.706C708.799 646.648 708.227 645.984 708.293 645.225L712.41 593.659H712.403Z" fill="#EAE8E8" stroke="#191919" stroke-width="1.8" stroke-linecap="round" stroke-linejoin="round"/>
<path d="M723.502 592.761C723.436 592.338 723.604 591.915 723.875 591.587C725.384 589.756 727.875 589.041 730.124 588.64C732.373 588.239 735.069 587.794 737.325 588.195C738.256 588.363 739.047 588.902 739.64 589.625C740.146 590.237 740.556 590.945 740.864 591.674C741.428 593.009 741.794 594.753 741.04 596.095C740.681 596.73 740.073 597.167 739.384 597.386C739.164 597.459 738.944 597.525 738.725 597.583C736.468 598.196 730.842 599.071 728.527 598.962C728.454 598.962 728.381 598.962 728.315 598.947C727.787 598.911 727.362 599.378 727.443 599.903L734.388 643.409C734.505 644.16 733.992 644.868 733.238 644.984C732.483 645.101 731.772 644.591 731.655 643.839L723.502 592.754V592.761Z" fill="#363944" stroke="#191919" stroke-width="1.8" stroke-miterlimit="10"/>
<path d="M733.025 603.251C733.062 602.821 733.325 602.449 733.662 602.201C735.567 600.778 738.153 600.661 740.432 600.793C742.695 600.924 745.435 601.121 747.538 602.04C748.402 602.42 749.047 603.134 749.457 603.973C749.809 604.688 750.036 605.469 750.16 606.257C750.387 607.686 750.336 609.466 749.288 610.597C748.79 611.129 748.102 611.414 747.376 611.465C747.149 611.48 746.922 611.494 746.688 611.502C744.351 611.574 738.681 611.108 736.454 610.458C736.388 610.436 736.314 610.415 736.248 610.4C735.743 610.247 735.223 610.597 735.179 611.122L731.67 655.037C731.611 655.795 730.945 656.364 730.183 656.299C729.421 656.24 728.849 655.576 728.915 654.818L733.032 603.251H733.025Z" fill="#EAE8E8" stroke="#191919" stroke-width="1.8" stroke-linecap="round" stroke-linejoin="round"/>
</g>
<path d="M803.34 664.958V682.028L801.354 680.853V663.784L803.34 664.958Z" fill="#E5E5E5" stroke="#333333" stroke-width="1.8" stroke-linecap="round" stroke-linejoin="round"/>
<path d="M803.34 664.958V682.028L805.332 680.853V663.784L803.34 664.958Z" fill="#E5E5E5" stroke="#333333" stroke-width="1.8" stroke-linecap="round" stroke-linejoin="round"/>
<path d="M900.633 642.943V660.012L898.641 658.845V641.775L900.633 642.943Z" fill="#E5E5E5" stroke="#333333" stroke-width="1.8" stroke-linecap="round" stroke-linejoin="round"/>
<path d="M900.634 642.943V660.012L902.619 658.845V641.775L900.634 642.943Z" fill="#E5E5E5" stroke="#333333" stroke-width="1.8" stroke-linecap="round" stroke-linejoin="round"/>
<path d="M801.332 661.45L870.861 620.752L902.619 639.434L833.155 680.161L801.332 661.45Z" fill="white" stroke="#333333" stroke-width="1.8" stroke-linecap="round" stroke-linejoin="round"/>
<path d="M801.332 661.449V663.784L833.155 682.502V680.16L801.332 661.449Z" fill="white" stroke="#333333" stroke-width="1.8" stroke-linecap="round" stroke-linejoin="round"/>
<path d="M833.155 680.161V682.502L902.619 641.776V639.434L833.155 680.161Z" fill="white" stroke="#333333" stroke-width="1.8" stroke-linecap="round" stroke-linejoin="round"/>
<path d="M833.156 682.502V699.572L831.163 698.405V681.335L833.156 682.502Z" fill="#E5E5E5" stroke="#333333" stroke-width="1.8" stroke-linecap="round" stroke-linejoin="round"/>
<path d="M833.155 682.502V699.572L835.141 698.405V681.335L833.155 682.502Z" fill="#E5E5E5" stroke="#333333" stroke-width="1.8" stroke-linecap="round" stroke-linejoin="round"/>
<path d="M863.533 627.096H852.506L853.651 639.219C853.651 639.873 854.076 640.522 854.938 641.018C856.651 642.004 859.416 642.004 861.117 641.018C861.973 640.522 862.393 639.868 862.388 639.219L863.533 627.096Z" fill="#F2F2F2" stroke="#333333" stroke-width="1.8" stroke-linecap="round" stroke-linejoin="round"/>
<path d="M864.007 625.651V627.221C864.007 628.104 863.424 628.982 862.268 629.652C859.939 631.004 856.149 631.009 853.798 629.652C852.62 628.971 852.026 628.077 852.031 627.183V625.613C852.031 626.507 852.62 627.401 853.798 628.082C856.143 629.434 859.934 629.434 862.268 628.082C863.424 627.412 864.007 626.529 864.007 625.651Z" fill="#F2F2F2" stroke="#333333" stroke-width="1.8" stroke-linecap="round" stroke-linejoin="round"/>
<path d="M862.241 623.182C864.586 624.534 864.597 626.73 862.268 628.082C859.939 629.434 856.149 629.44 853.799 628.082C851.453 626.73 851.443 624.534 853.771 623.176C856.1 621.819 859.89 621.824 862.241 623.176V623.182Z" fill="#F2F2F2" stroke="#333333" stroke-width="1.8" stroke-linecap="round" stroke-linejoin="round"/>
<path d="M853.776 631.991C853.329 631.729 852.964 631.44 852.686 631.135L853.318 636.297C853.564 636.684 853.951 637.049 854.491 637.366C856.219 638.363 858.881 638.483 860.822 637.725L861.111 632.525C858.804 633.321 855.778 633.146 853.782 631.996L853.776 631.991Z" fill="#FD780F" stroke="#333333" stroke-width="1.8" stroke-linecap="round" stroke-linejoin="round"/>
<path d="M862.284 631.991C861.924 632.198 861.526 632.372 861.106 632.52L860.817 637.72C861.085 637.616 861.335 637.496 861.57 637.36C862.094 637.055 862.475 636.695 862.715 636.319L863.348 631.157C863.075 631.457 862.721 631.74 862.284 631.991Z" fill="#FD780F" stroke="#333333" stroke-width="1.8" stroke-linecap="round" stroke-linejoin="round"/>
<path d="M860.539 623.967C860.539 623.967 860.926 624.103 861.308 624.392L860.539 623.967Z" fill="#F2F2F2"/>
<path d="M860.539 623.967C860.539 623.967 860.926 624.103 861.308 624.392" stroke="#333333" stroke-width="1.8" stroke-linecap="round" stroke-linejoin="round"/>
<path d="M855.43 634.342L855.091 633.802C855.083 633.789 855.094 633.773 855.11 633.775L858.527 634.267C858.55 634.27 858.564 634.293 858.557 634.314L858.515 634.429C858.511 634.44 858.505 634.45 858.496 634.457L856.203 636.484C856.192 636.494 856.198 636.512 856.213 636.514L857.528 636.703C857.55 636.707 857.572 636.7 857.588 636.686L857.809 636.493C857.818 636.486 857.832 636.488 857.838 636.498L858.174 637.032C858.183 637.045 858.172 637.062 858.156 637.059L854.737 636.567C854.714 636.564 854.7 636.541 854.708 636.521L854.748 636.409C854.752 636.398 854.759 636.388 854.767 636.381L857.071 634.352C857.082 634.342 857.076 634.324 857.061 634.322L855.756 634.134C855.733 634.131 855.711 634.137 855.695 634.151L855.459 634.346C855.45 634.354 855.437 634.352 855.43 634.342L855.43 634.342Z" fill="white"/>
<path d="M837.603 694.186L923.575 644.067L961.919 666.815L875.947 716.941L837.603 694.186Z" fill="#546184" stroke="#333333" stroke-width="1.8" stroke-linecap="round" stroke-linejoin="round"/>
<path d="M981.255 692.589L981.395 656.422L1018.31 634.906L1018.17 671.008L981.255 692.589Z" fill="#546184" stroke="#333333" stroke-width="1.8" stroke-linecap="round" stroke-linejoin="round"/>
<path d="M1018.31 634.907L971.074 606.872L934.163 628.388L981.395 656.422L1018.31 634.907Z" fill="#546184" stroke="#333333" stroke-width="1.8" stroke-linecap="round" stroke-linejoin="round"/>
<path d="M934.163 628.388L934.023 664.555L981.255 692.589L981.395 656.422L934.163 628.388Z" fill="#546184" stroke="#333333" stroke-width="1.8" stroke-linecap="round" stroke-linejoin="round"/>
<path d="M982.286 660.751L982.298 657.578L1025.59 632.345L1025.58 635.438L982.286 660.751Z" fill="#546184" stroke="#333333" stroke-width="1.8" stroke-linecap="round" stroke-linejoin="round"/>
<path d="M1025.59 632.345L970.194 599.472L926.911 624.705L982.299 657.578L1025.59 632.345Z" fill="#546184" stroke="#333333" stroke-width="1.8" stroke-linecap="round" stroke-linejoin="round"/>
<path d="M926.91 624.705L926.898 627.878L982.286 660.751L982.299 657.578L926.91 624.705Z" fill="#546184" stroke="#333333" stroke-width="1.8" stroke-linecap="round" stroke-linejoin="round"/>
<path d="M981.399 655.459L965.583 664.677L923.592 639.764L939.408 630.538L981.399 655.459Z" fill="#546184" stroke="#333333" stroke-width="1.8" stroke-linecap="round" stroke-linejoin="round"/>
<path d="M860.131 726.159L981.399 655.459L981.255 692.589L859.988 763.296L860.131 726.159Z" fill="#546184" stroke="#333333" stroke-width="1.8" stroke-linecap="round" stroke-linejoin="round"/>
<path d="M923.592 639.764L923.575 644.068L961.919 666.815L965.583 664.677L923.592 639.764Z" fill="#546184" stroke="#333333" stroke-width="1.8" stroke-linecap="round" stroke-linejoin="round"/>
<path d="M960.59 622.049L953.398 657.452L907.141 684.417L914.333 649.014L960.59 622.049Z" fill="#546184" stroke="#333333" stroke-width="1.8" stroke-linecap="round" stroke-linejoin="round"/>
<path d="M968.806 626.924L961.615 662.32L915.35 689.293L922.542 653.889L968.806 626.924Z" fill="#546184" stroke="#333333" stroke-width="1.8" stroke-linecap="round" stroke-linejoin="round"/>
<path d="M914.333 649.014L907.141 684.417L915.35 689.293L922.541 653.89L914.333 649.014Z" fill="#546184" stroke="#333333" stroke-width="1.8" stroke-linecap="round" stroke-linejoin="round"/>
<path d="M914.334 649.014L960.591 622.049L968.806 626.924L922.542 653.89L914.334 649.014Z" fill="#546184" stroke="#333333" stroke-width="1.8" stroke-linecap="round" stroke-linejoin="round"/>
<path d="M914.333 649.014L907.141 684.417L860.876 711.39L868.068 675.987L914.333 649.014Z" fill="#546184" stroke="#333333" stroke-width="1.8" stroke-linecap="round" stroke-linejoin="round"/>
<path d="M922.541 653.89L915.349 689.293L869.092 716.265L876.284 680.862L922.541 653.89Z" fill="#546184" stroke="#333333" stroke-width="1.8" stroke-linecap="round" stroke-linejoin="round"/>
<path d="M868.068 675.987L860.877 711.39L869.092 716.265L876.284 680.862L868.068 675.987Z" fill="#546184" stroke="#333333" stroke-width="1.8" stroke-linecap="round" stroke-linejoin="round"/>
<path d="M868.069 675.987L914.334 649.014L922.542 653.89L876.284 680.862L868.069 675.987Z" fill="#546184" stroke="#333333" stroke-width="1.8" stroke-linecap="round" stroke-linejoin="round"/>
<path d="M859.987 763.296L860.131 726.159L812.885 698.132L812.741 735.262L859.987 763.296Z" fill="#546184" stroke="#333333" stroke-width="1.8" stroke-linecap="round" stroke-linejoin="round"/>
<path d="M812.885 698.132L828.708 688.907L875.947 716.941L860.131 726.159L812.885 698.132Z" fill="#546184" stroke="#333333" stroke-width="1.8" stroke-linecap="round" stroke-linejoin="round"/>
<path d="M875.947 716.941L871.971 714.584L961.614 662.32L965.583 664.677L875.947 716.941Z" fill="#546184" stroke="#333333" stroke-width="1.8" stroke-linecap="round" stroke-linejoin="round"/>
<path d="M860.09 736.787L812.844 708.753" stroke="#333333" stroke-width="1.8" stroke-linecap="round" stroke-linejoin="round"/>
<path d="M981.358 666.081L860.09 736.787" stroke="#333333" stroke-width="1.8" stroke-linecap="round" stroke-linejoin="round"/>
<path d="M875.946 716.941L875.905 727.562" stroke="#333333" stroke-width="1.8" stroke-linecap="round" stroke-linejoin="round"/>
<path d="M965.583 664.677L965.541 675.531" stroke="#333333" stroke-width="1.8" stroke-linecap="round" stroke-linejoin="round"/>
</g>
<defs>
<clipPath id="clip0_40_708">
<rect width="1080" height="740" rx="20" fill="white"/>
</clipPath>
</defs>
</svg>
