<svg width="1080" height="740" viewBox="0 0 1080 740" fill="none" xmlns="http://www.w3.org/2000/svg">
<g clip-path="url(#clip0_40_563)">
<path d="M869.093 441.854C868.909 443.69 868.871 445.533 868.688 447.368C868.504 449.203 868.451 451.046 868.267 452.882C868.084 454.717 867.632 456.522 867.449 458.357C867.265 460.193 867.434 462.059 867.25 463.894C867.067 465.73 866.7 467.542 866.516 469.377C866.333 471.213 866.371 473.064 866.187 474.899C866.034 476.398 865.729 477.927 865.805 479.426C865.889 480.963 866.218 482.439 866.983 483.778C868.053 485.644 869.712 487.043 871.723 487.907C873.734 488.771 875.882 488.955 877.932 489.307C879.843 489.628 881.732 490.049 883.658 490.278C885.585 490.507 887.512 490.683 889.446 490.821C891.381 490.959 893.315 490.951 895.25 490.997C897.184 491.05 899.119 491.089 901.053 491.05C902.988 491.012 904.914 490.836 906.849 490.706C908.783 490.576 910.702 490.37 912.621 490.148C914.548 489.926 916.467 489.727 918.379 489.414C920.29 489.1 922.21 488.856 924.106 488.45C926.002 488.045 927.913 487.716 929.787 487.227C931.759 486.707 933.709 486.011 935.59 485.231C937.494 484.443 939.252 483.403 940.805 482.072C942.15 480.925 943.129 479.549 944.031 478.096C944.926 476.643 945.843 475.167 946.401 473.515C946.944 471.893 947.342 470.188 947.648 468.483C947.954 466.777 948.244 465.049 948.42 463.351C948.596 461.608 948.535 459.841 948.657 458.097C948.779 456.346 948.764 454.603 948.833 452.851C948.902 451.1 949.261 449.356 949.269 447.605C949.276 445.854 949.284 444.095 949.238 442.344C949.192 440.592 949.07 438.841 948.971 437.09C948.871 435.339 948.68 433.595 948.527 431.851" fill="#8E816E"/>
<path d="M867.946 441.854C867.655 444.913 867.479 447.988 867.273 451.047C867.074 453.991 866.302 456.874 866.226 459.833C866.187 461.187 866.241 462.541 866.111 463.894C865.958 465.485 865.652 467.06 865.461 468.643C865.3 469.989 865.247 471.335 865.193 472.689C865.125 474.249 864.918 475.778 864.758 477.331C864.482 479.923 864.857 482.638 866.317 484.848C867.625 486.829 869.544 488.282 871.746 489.131C874.284 490.117 877.129 490.301 879.797 490.79C882.641 491.318 885.501 491.647 888.384 491.876C900.013 492.802 911.91 491.884 923.372 489.758C928.816 488.749 934.611 487.601 939.352 484.581C943.771 481.766 946.822 476.841 948.129 471.825C948.94 468.72 949.513 465.424 949.689 462.212C949.873 458.855 949.812 455.482 950.056 452.132C950.179 450.488 950.439 448.867 950.454 447.208C950.469 445.517 950.461 443.827 950.416 442.137C950.316 438.696 950.018 435.262 949.712 431.836C949.582 430.375 947.288 430.36 947.418 431.836C947.678 434.704 947.915 437.572 948.061 440.447C948.206 443.323 948.328 446.175 948.091 448.982C947.984 450.267 947.785 451.536 947.724 452.828C947.655 454.327 947.671 455.826 947.594 457.325C947.449 460.216 947.418 463.084 946.96 465.951C946.539 468.59 946.111 471.358 945.094 473.844C944.161 476.123 942.678 478.555 940.98 480.344C937.379 484.16 931.66 485.728 926.69 486.745C921.208 487.869 915.703 488.687 910.136 489.261C907.376 489.544 904.593 489.766 901.818 489.865C899.035 489.965 896.251 489.85 893.468 489.804C890.685 489.758 887.91 489.575 885.134 489.284C882.359 488.993 879.682 488.404 876.953 487.976C874.514 487.594 872.044 487.158 870.056 485.583C868.137 484.061 867.09 481.851 866.975 479.419C866.906 477.958 867.181 476.513 867.334 475.06C867.495 473.53 867.502 472.001 867.594 470.463C867.793 467.259 868.496 464.147 868.512 460.927C868.535 457.707 869.315 454.603 869.552 451.398C869.781 448.217 869.949 445.013 870.255 441.839C870.393 440.371 868.099 440.378 867.961 441.839L867.946 441.854Z" fill="#333333"/>
<path d="M897.115 553.561C897.413 553.683 897.78 553.416 898.094 553.416C899.959 553.416 901.825 553.66 903.698 553.66C905.572 553.66 907.376 553.454 909.242 553.446C909.364 552.2 909.517 550.402 909.502 548.552C909.486 546.602 909.356 544.697 909.463 543.589C907.3 543.573 905.212 543.764 903.148 543.818C901.083 543.871 898.935 543.65 896.825 543.673C894.76 543.696 892.711 543.879 890.547 543.795C890.532 545.019 890.547 548.406 890.517 550.112C892.711 550.28 894.653 551.397 896.259 552.911C896.511 553.148 896.794 553.438 897.123 553.568L897.115 553.561Z" fill="#FFE6D9"/>
<path d="M897.116 554.708C897.498 554.754 897.788 554.616 898.155 554.563C898.668 554.486 899.264 554.586 899.776 554.616C900.832 554.677 901.894 554.769 902.949 554.8C905.052 554.861 907.139 554.616 909.242 554.593C909.907 554.593 910.328 554.073 910.389 553.446C910.557 551.756 910.664 550.066 910.649 548.368C910.634 546.778 910.488 545.172 910.618 543.589C910.672 542.969 910.053 542.441 909.472 542.441C906.306 542.441 903.164 542.747 899.99 542.61C896.817 542.472 893.698 542.755 890.548 542.648C889.921 542.625 889.408 543.191 889.401 543.795C889.37 545.898 889.401 548.009 889.37 550.112C889.363 550.777 889.905 551.198 890.517 551.259C891.695 551.374 892.796 551.81 893.797 552.437C894.799 553.064 895.525 554.027 896.534 554.563C897.842 555.251 898.997 553.27 897.689 552.582C897.116 552.276 896.664 551.725 896.152 551.32C895.609 550.892 895.044 550.487 894.439 550.158C893.208 549.485 891.901 549.102 890.509 548.965L891.656 550.112C891.695 548.009 891.656 545.898 891.687 543.795L890.54 544.942C893.69 545.049 896.825 544.766 899.983 544.904C903.156 545.042 906.291 544.736 909.464 544.736L908.317 543.589C908.187 545.172 908.332 546.778 908.348 548.368C908.363 550.066 908.256 551.756 908.088 553.446L909.234 552.299C907.139 552.322 905.044 552.559 902.942 552.505C901.948 552.475 900.946 552.391 899.952 552.337C899.394 552.307 898.828 552.261 898.27 552.276C897.895 552.291 897.467 552.46 897.1 552.421C895.64 552.245 895.648 554.54 897.1 554.716L897.116 554.708Z" fill="#333333"/>
<path d="M898.094 553.454C897.773 553.454 897.452 553.576 897.154 553.454C896.833 553.324 896.657 552.972 896.404 552.735C894.806 551.221 892.581 550.242 890.387 550.073C890.387 550.249 890.349 550.571 890.341 550.701C890.326 551.672 890.28 552.742 889.821 553.515C889.202 554.57 888.017 554.83 887.084 555.35C886.151 555.87 885.241 556.887 885.386 558.195C887.061 558.31 888.697 558.409 890.372 558.478C892.054 558.547 893.728 558.593 895.41 558.623C897.092 558.654 898.767 558.493 900.449 558.478C902.131 558.463 903.806 558.562 905.488 558.509C906.26 558.486 907.17 558.631 907.82 558.088C908.798 557.27 908.921 555.48 909.15 553.989C909.173 553.844 909.273 553.737 909.288 553.568C907.422 553.568 905.557 553.4 903.691 553.408C901.825 553.415 899.96 553.446 898.086 553.454H898.094Z" fill="#FCFCFC"/>
<path d="M898.094 552.307C897.566 552.352 897.574 552.291 897.214 551.932C897 551.718 896.763 551.527 896.526 551.343C895.93 550.869 895.295 550.456 894.615 550.112C893.277 549.446 891.878 549.072 890.387 548.934C889.744 548.873 889.27 549.508 889.24 550.081C889.194 550.93 889.278 551.924 888.949 552.72C888.628 553.492 887.772 553.752 887.076 554.088C885.432 554.868 884.155 556.291 884.247 558.203C884.277 558.853 884.744 559.304 885.394 559.35C888.016 559.526 890.631 559.663 893.261 559.732C895.892 559.801 898.652 559.61 901.359 559.633C902.681 559.648 903.996 559.686 905.319 559.663C906.344 559.64 907.399 559.732 908.301 559.159C910.106 558.012 909.869 555.664 910.404 553.874C910.626 553.155 910.029 552.421 909.295 552.421C907.429 552.421 905.564 552.261 903.698 552.261C901.833 552.261 899.967 552.299 898.094 552.307C896.618 552.307 896.618 554.608 898.094 554.601C899.959 554.593 901.825 554.555 903.698 554.555C905.564 554.555 907.429 554.708 909.295 554.716C908.928 554.234 908.561 553.744 908.186 553.263C907.934 554.104 907.896 554.991 907.697 555.847C907.498 556.704 907.277 557.331 906.29 557.354C904.042 557.415 901.794 557.27 899.546 557.346C894.806 557.499 890.111 557.354 885.386 557.04L886.533 558.187C886.434 556.253 888.857 556.016 890.027 555.014C891.488 553.767 891.434 551.817 891.533 550.066L890.387 551.213C891.862 551.351 893.277 551.878 894.515 552.689C895.104 553.079 895.54 553.545 896.029 554.035C896.626 554.624 897.291 554.662 898.094 554.593C899.554 554.463 899.569 552.169 898.094 552.299V552.307Z" fill="#333333"/>
<path d="M889.408 511.607C889.5 514.406 889.416 514.406 889.515 517.205C889.607 520.004 889.561 520.004 889.653 522.803C889.745 525.602 889.836 525.602 889.928 528.401C890.02 531.2 889.989 531.2 890.089 533.999C890.18 536.797 889.974 536.805 890.073 539.612C890.173 542.418 890.364 542.403 890.463 545.21C890.486 545.829 890.953 546.273 891.572 546.273C894.432 546.273 894.432 546.143 897.284 546.143C900.136 546.143 900.143 546.273 903.003 546.273C905.862 546.273 905.862 546.319 908.722 546.319C909.357 546.319 910.037 545.806 910.037 545.171C910.037 542.319 910.052 542.319 910.052 539.466C910.052 536.614 910.083 536.614 910.083 533.761C910.083 530.909 909.815 530.909 909.815 528.056C909.815 525.204 909.8 525.204 909.8 522.351C909.8 519.499 909.792 519.499 909.792 516.646C909.792 513.794 909.892 513.794 909.892 510.941" fill="#FCFCFC"/>
<path d="M888.261 511.607C888.36 514.597 888.391 517.602 888.444 520.593C888.505 523.797 888.75 526.986 888.834 530.183C888.911 533.004 888.865 535.826 888.895 538.648C888.911 540.132 889.041 541.593 889.178 543.069C889.316 544.545 888.995 546.648 890.769 547.275C892.007 547.711 893.689 547.382 894.989 547.328C896.58 547.267 898.17 547.267 899.753 547.336C902.658 547.458 905.617 547.55 908.53 547.466C909.31 547.443 910.044 547.221 910.587 546.625C911.222 545.929 911.168 545.065 911.176 544.185C911.176 542.839 911.191 541.493 911.191 540.147C911.191 537.111 911.367 534.029 911.092 531.001C910.786 527.636 910.939 524.21 910.931 520.837C910.931 517.534 911.023 514.238 911.023 510.934C911.023 509.458 908.729 509.458 908.729 510.934C908.721 516.409 908.645 521.893 908.645 527.368C908.645 530.297 908.936 533.203 908.905 536.14C908.882 538.732 908.874 541.317 908.867 543.91C908.867 544.124 908.989 545.057 908.867 545.172C908.775 545.248 908.194 545.172 908.01 545.172C907.315 545.172 906.626 545.164 905.931 545.149C904.44 545.126 902.949 545.149 901.458 545.11C898.835 545.049 896.243 545.003 893.621 545.095C893.269 545.11 891.717 545.317 891.556 545.141C891.51 545.087 891.533 544.254 891.526 544.109C891.503 543.764 891.48 543.413 891.449 543.069C891.319 541.692 891.197 540.323 891.174 538.939C891.12 536.262 891.189 533.586 891.12 530.909C891.044 527.613 890.792 524.317 890.715 521.021C890.646 517.878 890.623 514.735 890.524 511.599C890.478 510.123 888.184 510.123 888.23 511.599L888.261 511.607Z" fill="#333333"/>
<path d="M921.422 553.354C921.132 553.477 920.811 553.584 920.489 553.584C918.624 553.584 916.758 553.354 914.885 553.362C913.019 553.362 911.138 553.553 909.273 553.553C909.143 552.307 909.166 550.403 909.166 548.544C909.166 546.594 909.219 544.782 909.104 543.673C911.268 543.65 913.302 543.581 915.374 543.619C917.492 543.657 919.58 543.803 921.697 543.81C923.762 543.818 925.849 543.696 928.013 543.589C928.044 544.812 928.166 548.437 928.212 550.142C926.017 550.326 923.747 551.091 922.156 552.62C921.904 552.865 921.751 553.217 921.43 553.354H921.422Z" fill="#FFE6D9"/>
<path d="M921.124 552.245C920.229 552.582 919.197 552.406 918.256 552.353C917.263 552.299 916.269 552.223 915.267 552.207C913.271 552.184 911.276 552.383 909.28 552.398L910.427 553.546C910.114 550.265 910.557 546.946 910.259 543.665L909.112 544.812C915.42 544.728 921.705 545.034 928.013 544.728L926.866 543.581C926.919 545.768 927.004 547.948 927.065 550.135L928.212 548.988C926.789 549.125 925.413 549.416 924.098 549.997C923.448 550.28 922.836 550.617 922.263 551.037C922.026 551.213 921.781 551.397 921.567 551.595C921.323 551.817 921.124 552.177 920.848 552.353C919.61 553.14 920.757 555.129 922.003 554.333C922.485 554.027 922.768 553.591 923.181 553.217C923.632 552.819 924.159 552.498 924.694 552.23C925.78 551.687 927.004 551.397 928.204 551.282C928.808 551.221 929.366 550.8 929.351 550.135C929.297 547.948 929.206 545.768 929.152 543.581C929.137 542.984 928.64 542.403 928.005 542.434C921.697 542.74 915.412 542.434 909.104 542.518C908.523 542.526 907.904 543.038 907.957 543.665C908.256 546.946 907.82 550.257 908.126 553.546C908.187 554.157 908.607 554.7 909.272 554.693C911.39 554.67 913.508 554.456 915.634 554.509C917.561 554.555 919.885 555.136 921.728 554.456C923.096 553.943 922.508 551.725 921.116 552.245H921.124Z" fill="#333333"/>
<path d="M920.497 553.454C920.818 553.454 921.07 553.316 921.361 553.194C921.682 553.064 922.033 552.995 922.286 552.758C923.876 551.236 925.986 550.173 928.173 549.99C928.173 550.165 928.273 550.441 928.273 550.571C928.296 551.542 928.349 552.582 928.808 553.354C929.435 554.402 930.635 554.563 931.568 555.075C932.501 555.587 933.472 556.872 933.342 558.18C931.667 558.302 929.917 558.31 928.242 558.386C926.568 558.463 924.885 558.616 923.211 558.654C921.536 558.692 919.847 558.845 918.172 558.838C916.498 558.83 914.816 558.44 913.141 558.394C912.369 558.371 911.604 558.44 910.947 557.897C909.96 557.086 909.808 555.45 909.571 553.966C909.548 553.821 909.326 553.744 909.311 553.576C911.176 553.576 913.042 553.706 914.907 553.699C916.773 553.691 918.639 553.461 920.504 553.454H920.497Z" fill="#FCFCFC"/>
<path d="M920.803 554.563C922.248 554.371 923.089 553.431 924.221 552.658C925.406 551.848 926.752 551.289 928.181 551.144L927.073 550.303C927.317 552.062 927.233 553.874 928.854 555.021C930.169 555.954 932.287 556.1 932.203 558.18L933.35 557.033C928.671 557.354 923.945 557.545 919.251 557.675C917.011 557.736 914.793 557.354 912.561 557.239C911.467 557.186 911.192 556.429 910.97 555.457C910.871 555.014 910.802 554.563 910.733 554.111C910.657 553.607 910.496 553.423 910.282 553.003C909.953 553.576 909.625 554.15 909.288 554.731C911.154 554.731 913.019 554.861 914.885 554.853C916.758 554.846 918.616 554.631 920.482 554.608C921.958 554.593 921.958 552.299 920.482 552.314C918.609 552.337 916.751 552.544 914.885 552.559C913.019 552.567 911.154 552.437 909.288 552.437C908.371 552.437 907.919 553.4 908.294 554.165C908.508 554.601 908.516 554.8 908.608 555.335C908.699 555.87 908.799 556.398 908.982 556.91C909.303 557.836 909.846 558.669 910.733 559.143C911.689 559.648 912.805 559.518 913.845 559.595C915.168 559.694 916.475 559.946 917.798 559.992C920.298 560.076 922.86 559.862 925.36 559.717C928.021 559.564 930.682 559.518 933.335 559.335C933.969 559.289 934.459 558.845 934.482 558.187C934.558 556.253 933.289 554.57 931.561 553.821C930.835 553.507 930.001 553.301 929.665 552.505C929.328 551.71 929.405 550.586 929.275 549.699C929.214 549.248 928.617 548.812 928.166 548.858C926.637 549.018 925.199 549.439 923.854 550.188C922.615 550.877 921.629 552.169 920.176 552.36C919.557 552.444 919.236 553.232 919.373 553.775C919.549 554.44 920.176 554.662 920.788 554.578L920.803 554.563Z" fill="#333333"/>
<path d="M908.554 521.74C908.585 524.669 908.569 524.669 908.6 527.598C908.631 530.527 908.348 530.527 908.378 533.456C908.409 536.385 908.569 536.385 908.6 539.314C908.631 542.243 908.569 542.243 908.6 545.179C908.6 545.814 909.181 546.25 909.816 546.242C912.675 546.219 912.675 546.257 915.535 546.234C918.395 546.212 918.395 546.082 921.254 546.059C924.114 546.036 924.114 546.334 926.973 546.311C927.593 546.311 928.036 545.692 928.051 545.072C928.128 542.373 928.304 542.373 928.38 539.673C928.457 536.973 928.265 536.966 928.334 534.266C928.411 531.567 928.304 531.567 928.373 528.867C928.441 526.168 928.717 526.175 928.785 523.468C928.854 520.761 928.755 520.761 928.824 518.054C928.9 515.346 928.709 515.346 928.785 512.639C928.801 511.989 928.48 511.37 927.83 511.37C925.108 511.37 925.108 511.247 922.393 511.247C919.671 511.247 919.671 511.454 916.949 511.454C914.227 511.454 914.227 511.637 911.505 511.637C908.783 511.637 908.783 511.324 906.062 511.324" fill="#FCFCFC"/>
<path d="M907.407 521.74C907.422 523.46 907.43 525.181 907.445 526.894C907.46 528.592 907.307 530.259 907.246 531.957C907.116 535.413 907.483 538.885 907.453 542.35C907.437 543.986 906.971 546.334 908.783 547.167C909.594 547.542 910.588 547.389 911.459 547.389C912.163 547.389 912.858 547.389 913.562 547.389C917.11 547.389 920.673 547.03 924.213 547.343C925.834 547.489 928.051 547.925 928.938 546.173C929.359 545.34 929.221 544.269 929.29 543.359C929.343 542.625 929.427 541.898 929.473 541.164C929.58 539.436 929.511 537.723 929.473 535.987C929.443 534.327 929.511 532.66 929.504 531.001C929.481 527.513 929.993 524.072 929.963 520.577C929.947 518.895 930.039 517.212 929.97 515.538C929.909 514.008 930.437 511.637 929.014 510.62C928.189 510.024 926.973 510.238 926.01 510.207C925.222 510.184 924.442 510.138 923.655 510.123C921.735 510.085 919.855 510.268 917.943 510.314C916.032 510.36 914.112 510.475 912.201 510.505C910.144 510.536 908.126 510.207 906.076 510.192C904.601 510.184 904.601 512.479 906.076 512.486C907.575 512.494 909.051 512.731 910.549 512.784C912.117 512.846 913.677 512.723 915.244 512.654C918.463 512.509 921.728 512.326 924.954 512.463C925.597 512.494 926.239 512.517 926.889 512.524C927.088 512.524 927.309 512.54 927.508 512.524C928.288 512.479 927.653 512.463 927.669 512.563C927.707 513.075 927.653 513.618 927.661 514.138C927.676 515.675 927.73 517.197 927.699 518.734C927.676 520.141 927.715 521.548 927.684 522.956C927.653 524.485 927.439 525.984 927.325 527.506C927.202 529.081 927.241 530.657 927.241 532.24C927.241 533.823 927.172 535.398 927.241 536.973C927.309 538.587 927.286 540.201 927.149 541.814C927.095 542.411 927.034 543 926.996 543.588C926.981 543.864 927.072 544.889 926.935 545.072C926.751 545.309 926.094 545.164 925.742 545.149C924.251 545.095 922.775 544.904 921.284 544.911C919.793 544.911 918.318 545.026 916.827 545.064C915.229 545.103 913.631 545.087 912.033 545.087C911.681 545.087 911.322 545.087 910.97 545.087C910.695 545.087 910.007 545.233 909.762 545.087L909.777 545.179V544.812C909.777 544.552 909.777 544.284 909.777 544.024C909.777 543.596 909.777 543.16 909.777 542.732C909.808 539.222 909.471 535.712 909.571 532.209C909.617 530.542 909.792 528.898 909.785 527.231C909.769 525.403 909.762 523.567 909.747 521.74C909.731 520.264 907.437 520.264 907.453 521.74H907.407Z" fill="#333333"/>
<path d="M950.308 488.343C949.651 487.043 948.917 485.774 948.427 484.42C947.938 483.066 947.731 481.621 947.594 480.153C947.525 479.396 948.374 477.56 948.618 476.734C949.016 475.373 949.643 474.088 950.041 472.727C950.201 472.176 950.239 471.511 950.698 471.167C951.379 470.67 952.495 470.937 953.053 471.572C953.611 472.207 953.718 473.079 953.802 473.912C954.842 472.765 956.119 471.916 957.48 471.175C958.076 470.853 958.68 470.502 959.361 470.517C960.041 470.532 960.875 470.876 961.074 471.526C961.318 472.352 960.592 473.339 960.011 473.973C960.829 473.293 962.068 473.171 962.809 473.935C963.551 474.7 963.314 476.26 962.297 476.589C963.184 476.176 964.53 476.841 964.667 477.813C964.805 478.784 964.017 479.694 963.192 480.229C964.086 479.694 965.233 480.879 965.103 481.912C964.973 482.944 964.147 483.762 963.291 484.359C961.685 485.483 959.82 486.125 958.015 486.898C956.218 487.67 954.498 488.657 952.655 489.299C952.158 489.475 951.608 489.398 951.134 489.161C950.767 488.978 950.484 488.703 950.3 488.335L950.308 488.343Z" fill="#FFE6D9"/>
<path d="M951.295 487.762C950.423 486.049 949.483 484.412 949.077 482.508C948.909 481.736 948.664 480.772 948.741 479.985C948.794 479.388 949.1 478.753 949.307 478.195C949.88 476.65 950.469 475.098 950.981 473.538C951.142 473.064 951.111 472.008 951.731 472.077C952.51 472.161 952.595 473.331 952.656 473.912C952.755 474.83 953.871 475.518 954.613 474.723C955.645 473.614 956.861 472.811 958.184 472.092C958.566 471.886 959.407 471.366 959.835 471.779C960.187 472.123 959.468 472.834 959.193 473.148C958.383 474.058 959.476 475.771 960.585 474.953C960.936 474.693 961.693 474.241 962.03 474.792C962.236 475.136 962.03 475.457 961.716 475.587C960.531 476.092 961.38 478.134 962.603 477.683C962.878 477.583 963.352 477.576 963.513 477.897C963.75 478.371 962.917 479.013 962.611 479.22C961.38 480.069 962.427 481.812 963.765 481.201C963.574 481.285 963.827 481.308 963.872 481.461C963.941 481.728 963.979 481.82 963.865 482.111C963.658 482.631 963.146 483.028 962.71 483.349C961.563 484.183 960.218 484.734 958.918 485.269C957.564 485.827 956.249 486.431 954.927 487.058C954.078 487.464 951.975 488.909 951.287 487.747C950.538 486.477 948.557 487.624 949.307 488.902C949.827 489.789 950.691 490.377 951.723 490.492C952.916 490.622 954.086 489.965 955.141 489.483C957.381 488.458 959.675 487.517 961.892 486.454C963.681 485.598 966.151 484.152 966.25 481.889C966.334 479.946 964.438 478.379 962.611 479.212C962.993 479.87 963.383 480.535 963.765 481.193C965.065 480.298 966.296 478.753 965.639 477.086C965.096 475.71 963.375 474.953 961.984 475.457L962.871 477.553C964.354 476.926 964.775 474.899 963.987 473.584C963.024 471.978 960.822 471.916 959.43 472.957L960.822 474.761C961.617 473.867 962.458 472.719 962.228 471.45C962.007 470.242 960.913 469.53 959.751 469.385C958.459 469.225 957.312 469.913 956.234 470.548C955.049 471.251 953.94 472.077 953 473.087C953.65 473.354 954.307 473.63 954.957 473.897C954.835 472.781 954.682 471.595 953.871 470.746C953.16 470.005 952.052 469.599 951.035 469.798C949.911 470.02 949.33 470.861 949.062 471.916C948.726 473.232 948.175 474.463 947.739 475.74C947.426 476.658 947.082 477.568 946.776 478.493C946.432 479.533 946.47 480.405 946.608 481.483C946.967 484.221 948.083 486.477 949.322 488.909C949.995 490.225 951.975 489.062 951.302 487.754L951.295 487.762Z" fill="#333333"/>
<path d="M953.061 488.55C952.19 486.905 951.341 485.246 950.469 483.602C949.598 481.958 948.726 480.313 947.854 478.669C947.594 478.18 947.25 477.453 946.707 477.392C946.409 477.361 946.157 477.805 945.882 477.935C943.794 478.929 941.661 480.03 939.352 480.26C937.708 480.42 936.263 479.969 935.032 479.143C933.809 478.325 932.792 477.109 931.645 476.161C930.23 474.983 928.762 473.844 927.187 472.888C925.612 471.932 923.846 471.35 922.148 470.624C920.451 469.897 918.845 468.903 917.064 468.414C915.565 468.009 913.96 467.978 912.415 467.802C910.871 467.626 909.311 467.511 907.759 467.603C906.206 467.695 904.601 467.71 903.095 468.116C901.298 468.597 899.478 469.446 897.696 470.372C895.991 471.259 894.363 472.398 892.772 473.507C891.182 474.616 889.485 475.778 888.07 476.956C886.778 478.034 885.516 479.197 884.27 480.352C883.024 481.506 881.969 482.86 880.921 484.175C879.874 485.491 878.788 486.829 878.1 488.397C877.412 489.964 877.167 491.677 876.991 493.383C876.815 495.088 876.876 496.778 877.221 498.453C877.656 500.564 878.62 502.621 880.042 504.25C881.51 505.932 883.368 507.179 885.593 507.378C885.96 507.408 886.335 507.431 886.671 507.577C888.246 508.28 887.55 512.111 888.995 513.542C890.861 515.392 893.996 514.842 896.397 514.956C898.339 515.056 900.273 515.033 902.215 515.086C904.157 515.14 906.092 515.369 908.034 515.377C909.846 515.385 911.666 515.591 913.485 515.56C915.298 515.53 917.117 515.461 918.937 515.392C920.749 515.323 922.561 515.079 924.373 514.979C925.979 514.888 927.654 514.475 929.068 513.74C930.483 513.006 931.798 511.928 932.172 510.123C932.516 508.471 932.142 506.682 931.935 504.915C932.341 504.946 932.937 505.03 933.35 504.999C934.527 504.9 935.674 504.518 936.768 504.074C938.327 503.439 939.681 502.437 941.095 501.55C942.51 500.663 944.047 499.937 945.339 498.858C946.623 497.795 947.824 496.602 949.024 495.432C950.224 494.262 951.196 492.863 952.35 491.662C952.839 491.15 953.635 490.722 953.665 490.018C953.688 489.498 953.306 489.008 953.061 488.55Z" fill="#FD780F"/>
<path d="M954.055 487.976C952.457 484.955 950.882 481.935 949.291 478.914C948.779 477.943 948.251 476.52 947.02 476.291C946.378 476.168 945.965 476.444 945.483 476.803C944.948 477.201 944.275 477.461 943.664 477.744C940.965 478.99 937.983 479.916 935.368 477.981C934.183 477.109 933.212 475.954 932.072 475.021C930.834 474.012 929.564 473.033 928.219 472.176C926.873 471.32 925.497 470.754 924.067 470.173C922.637 469.592 921.307 468.942 919.931 468.299C917.002 466.93 913.829 466.701 910.633 466.487C907.521 466.273 904.149 466.433 901.205 467.527C898.231 468.636 895.509 470.226 892.91 472.024C890.188 473.912 887.542 475.832 885.088 478.057C882.771 480.153 880.783 482.439 878.902 484.932C875.224 489.812 874.636 497.298 877.595 502.69C878.902 505.076 880.982 507.164 883.574 508.097C884.185 508.318 884.82 508.433 885.462 508.502C885.898 508.548 886.173 508.494 886.395 508.861C886.846 509.626 886.816 510.85 886.992 511.706C887.481 514.108 889.11 515.545 891.533 515.928C892.764 516.119 894.011 516.096 895.249 516.088C896.725 516.088 898.208 516.172 899.684 516.195C903.018 516.241 906.351 516.425 909.685 516.578C913.019 516.731 916.345 516.7 919.671 516.509C924.556 516.218 932.692 516.058 933.41 509.634C933.586 508.058 933.28 506.483 933.089 504.923L931.942 506.07C934.618 506.307 937.157 505.374 939.428 503.99C940.567 503.294 941.668 502.529 942.823 501.856C944.031 501.153 945.208 500.457 946.286 499.554C948.442 497.757 950.354 495.731 952.158 493.597C952.564 493.123 952.969 492.649 953.428 492.22C953.802 491.869 954.2 491.57 954.467 491.119C955.133 490.01 954.62 488.978 954.047 487.961C953.321 486.676 951.34 487.831 952.067 489.116C952.212 489.368 952.525 489.75 952.449 490.003C952.365 490.27 951.73 490.645 951.531 490.844C950.744 491.632 950.071 492.542 949.345 493.383C947.808 495.165 945.996 496.993 944.084 498.369C942.295 499.661 940.284 500.747 938.403 501.91C936.408 503.149 934.297 503.975 931.935 503.761C931.369 503.707 930.719 504.326 930.788 504.908C931.094 507.355 931.874 510.353 929.58 512.073C927.278 513.794 924.381 513.794 921.651 514.039C915.526 514.589 909.433 514.299 903.308 513.978C900.502 513.825 897.642 513.763 894.829 513.786C893.07 513.802 890.081 514.039 889.392 511.943C888.865 510.345 889.117 508.211 887.794 506.965C886.946 506.162 885.761 506.33 884.713 506.047C883.467 505.711 882.381 504.984 881.464 504.089C879.468 502.116 878.344 499.417 878.092 496.641C877.839 493.849 878.153 490.538 879.537 488.053C880.263 486.753 881.219 485.605 882.144 484.451C883.069 483.296 883.926 482.248 884.95 481.269C887.152 479.166 889.461 477.201 891.954 475.45C894.401 473.737 896.824 472.024 899.523 470.716C900.823 470.089 902.161 469.515 903.56 469.171C905.036 468.804 906.596 468.781 908.102 468.727C909.601 468.674 911.092 468.804 912.583 468.965C914.143 469.133 915.718 469.171 917.216 469.66C918.524 470.081 919.724 470.769 920.963 471.343C922.201 471.916 923.616 472.406 924.916 473.002C927.492 474.172 929.863 476 931.904 477.95C933.846 479.809 935.872 481.445 938.701 481.445C940.062 481.445 941.423 481.093 942.685 480.619C943.947 480.145 945.3 479.625 946.454 478.937C946.531 478.891 947.028 478.577 947.005 478.501C946.997 478.463 946.477 478.47 946.47 478.585C946.47 478.639 946.615 478.814 946.638 478.86C947.028 479.526 947.364 480.222 947.724 480.902C948.45 482.271 949.176 483.64 949.903 485.017C950.629 486.393 951.333 487.77 952.059 489.139C952.747 490.446 954.727 489.284 954.039 487.984L954.055 487.976Z" fill="#333333"/>
<path d="M884.69 487.915C886.953 487.93 889.492 487.311 891.686 488.121C892.718 488.504 893.001 489.337 893.33 490.316C893.728 491.532 894.003 492.786 894.202 494.056C894.408 495.356 894.5 496.664 894.546 497.979C894.592 499.294 894.714 500.686 894.607 502.001C894.393 504.617 890.761 504.472 888.857 504.487C887.381 504.495 887.381 506.789 888.857 506.781C891.51 506.766 895.249 506.621 896.518 503.768C897.153 502.33 896.908 500.556 896.878 499.027C896.847 497.382 896.748 495.746 896.526 494.117C896.312 492.572 896.006 491.027 895.502 489.551C895.05 488.228 894.523 487.02 893.246 486.309C890.685 484.886 887.473 485.628 884.705 485.613C883.23 485.605 883.23 487.9 884.705 487.907L884.69 487.915Z" fill="#333333"/>
<path d="M896.114 470.005C895.632 471.565 895.418 473.163 895.395 474.8C895.372 476.559 895.509 478.44 896.633 479.801C897.612 480.986 899.095 481.483 900.64 481.552C902.123 481.614 903.721 481.338 904.991 480.573C906.26 479.809 907.33 478.654 908.278 477.461C909.211 476.283 910.052 474.953 910.84 473.675C910.977 476.727 911.635 478.746 914.051 480.658C914.64 481.124 915.328 481.552 916.031 481.82C917.905 482.539 920.114 481.713 921.582 480.344C923.05 478.975 923.853 477.04 923.976 475.044C924.098 473.041 923.547 471.083 922.852 469.202" fill="#FD780F"/>
<path d="M895.005 469.699C893.698 474.127 893.369 481.353 899.195 482.516C901.795 483.036 904.517 482.47 906.596 480.826C908.806 479.082 910.358 476.612 911.819 474.249C911.108 474.058 910.397 473.867 909.678 473.668C909.8 476.038 910.282 478.279 911.842 480.138C913.593 482.218 916.215 483.701 918.968 483.036C921.598 482.401 923.609 480.298 924.542 477.82C925.643 474.884 924.977 471.741 923.938 468.896C923.433 467.519 921.216 468.116 921.728 469.508C922.538 471.741 923.211 474.142 922.561 476.505C922.026 478.447 920.612 480.168 918.639 480.749C916.666 481.331 914.717 480.046 913.463 478.516C912.339 477.14 912.063 475.388 911.972 473.668C911.91 472.544 910.45 472.092 909.831 473.087C907.621 476.658 904.907 481.025 900.074 480.352C895.418 479.709 896.244 473.568 897.207 470.303C897.628 468.88 895.41 468.276 894.997 469.691L895.005 469.699Z" fill="#333333"/>
<path d="M949.147 426.123C947.87 426.123 946.669 426.376 945.561 426.85C945.071 425.091 944.452 423.409 943.726 421.764C942.992 420.097 942.051 418.552 941.095 417.023C940.132 415.486 939.054 414.04 937.884 412.664C936.714 411.28 935.567 409.872 934.214 408.672C932.861 407.471 931.408 406.37 929.894 405.376C928.388 404.389 926.836 403.418 925.184 402.653C923.533 401.889 921.85 401.2 920.107 400.68C918.364 400.16 916.567 399.961 914.755 399.694C912.989 399.441 911.184 399.525 909.342 399.525C907.499 399.525 905.679 399.357 903.913 399.617C902.147 399.877 900.281 400.16 898.568 400.673C896.817 401.193 895.151 401.965 893.514 402.722C891.863 403.487 890.364 404.527 888.858 405.521C887.352 406.515 885.723 407.402 884.37 408.603C883.016 409.804 881.946 411.31 880.776 412.687C879.606 414.063 878.444 415.455 877.481 416.992C876.525 418.522 875.783 420.174 875.049 421.841C874.323 423.485 873.658 425.19 873.168 426.949C872.037 426.452 870.76 426.299 869.445 426.299C867.755 426.299 866.264 426.735 864.903 427.53C863.504 428.349 862.059 429.266 861.248 430.681C860.438 432.096 860.14 433.733 860.14 435.423C860.14 437.113 860.721 438.658 861.501 440.019C862.281 441.38 863.466 442.55 864.873 443.368C866.234 444.164 867.763 444.538 869.445 444.538C870.492 444.538 871.479 444.538 872.411 444.217C872.778 446.129 873.298 447.972 873.941 449.777C874.591 451.605 875.539 453.28 876.449 454.962C877.358 456.644 878.245 458.38 879.408 459.91C880.57 461.447 881.785 462.961 883.169 464.3C884.553 465.638 886.182 466.701 887.749 467.817C889.317 468.934 890.93 469.951 892.658 470.815C894.386 471.679 896.183 472.283 898.026 472.872C899.845 473.454 901.65 474.165 903.569 474.455C905.442 474.746 907.377 474.876 909.334 474.876C911.291 474.876 913.203 474.631 915.084 474.348C917.011 474.05 918.846 473.507 920.658 472.926C922.508 472.337 924.251 471.58 925.964 470.723C927.692 469.859 929.443 469.056 931.01 467.947C932.578 466.838 934.084 465.615 935.468 464.277C936.852 462.938 937.938 461.34 939.1 459.803C940.262 458.273 941.638 456.866 942.556 455.168C943.473 453.471 944.039 451.62 944.697 449.792C945.354 447.965 945.805 446.091 946.172 444.179C947.082 444.477 948.13 444.653 949.139 444.653C950.829 444.653 952.366 444.179 953.727 443.391C955.088 442.604 956.472 441.548 957.282 440.141C958.07 438.78 958.49 437.12 958.49 435.43C958.49 433.74 957.848 432.211 957.068 430.842C956.288 429.473 955.156 428.242 953.757 427.423C952.396 426.628 950.836 426.123 949.147 426.123Z" fill="#FFE6D9"/>
<path d="M949.147 424.976C947.801 424.999 946.509 425.236 945.262 425.749L946.677 426.552C943.145 414.132 933.136 403.548 920.772 399.694C917.538 398.684 914.013 398.355 910.634 398.386C908.936 398.401 907.231 398.302 905.534 398.355C903.836 398.409 902.193 398.707 900.556 399.028C897.284 399.671 894.019 401.009 891.152 402.707C889.791 403.517 888.491 404.427 887.145 405.276C885.8 406.125 884.477 406.959 883.33 408.037C882.007 409.276 880.937 410.767 879.767 412.151C878.597 413.536 877.458 414.912 876.51 416.434C874.568 419.531 873.077 423.164 872.075 426.666L873.49 425.863C870.316 424.563 866.677 425.121 863.81 426.865C862.433 427.706 861.103 428.701 860.27 430.115C859.436 431.53 859.077 433.266 859.008 434.926C858.725 442.022 865.989 447.391 872.725 445.334C872.251 445.066 871.784 444.798 871.31 444.531C871.999 448.056 873.199 451.352 874.896 454.511C876.594 457.669 878.177 460.369 880.394 462.999C882.642 465.661 885.402 467.657 888.285 469.584C891.236 471.557 894.363 472.895 897.727 473.989C899.341 474.509 900.931 475.113 902.598 475.457C904.326 475.809 906.123 475.954 907.881 476.015C911.521 476.145 915.237 475.702 918.746 474.723C925.322 472.88 932.02 469.645 936.768 464.621C938.083 463.229 939.13 461.623 940.316 460.124C941.401 458.747 942.609 457.44 943.481 455.903C944.421 454.235 945.01 452.392 945.645 450.595C946.348 448.599 946.883 446.573 947.289 444.5L945.874 445.303C951.807 447.146 958.597 443.376 959.507 437.082C960.409 430.911 955.317 425.106 949.139 424.984C947.663 424.953 947.663 427.247 949.139 427.278C953.941 427.377 957.985 431.997 957.244 436.807C956.479 441.755 951.089 444.523 946.478 443.093C945.92 442.917 945.186 443.3 945.064 443.896C944.421 447.177 943.466 450.496 942.089 453.555C940.843 456.323 938.61 458.617 936.791 461.026C934.841 463.604 932.333 465.844 929.588 467.55C926.843 469.255 923.754 470.716 920.704 471.74C914.357 473.859 907.208 474.669 900.74 472.589C897.544 471.565 894.355 470.586 891.442 468.88C888.759 467.313 885.937 465.477 883.728 463.275C881.105 460.659 879.178 457.646 877.435 454.404C876.594 452.851 875.715 451.306 875.103 449.647C874.415 447.789 873.895 445.869 873.512 443.927C873.398 443.33 872.664 442.955 872.098 443.124C866.738 444.76 861.057 440.562 861.287 434.926C861.34 433.58 861.623 432.142 862.388 431.01C863.076 429.985 864.161 429.305 865.209 428.685C867.526 427.316 870.347 427.041 872.863 428.066C873.444 428.303 874.116 427.806 874.277 427.263C875.126 424.273 876.372 421.313 877.878 418.598C879.316 416.006 881.334 413.796 883.215 411.524C884.209 410.324 885.28 409.245 886.572 408.358C887.788 407.525 889.057 406.768 890.288 405.957C892.903 404.236 895.693 402.76 898.698 401.835C901.741 400.894 904.892 400.581 908.057 400.657C909.693 400.695 911.337 400.619 912.973 400.688C914.61 400.757 916.147 401.009 917.699 401.292C920.742 401.85 923.731 403.066 926.423 404.58C929.038 406.049 931.584 407.769 933.778 409.827C936.187 412.083 938.343 414.813 940.101 417.596C941.998 420.602 943.473 423.714 944.452 427.148C944.605 427.691 945.285 428.188 945.867 427.951C946.929 427.523 947.992 427.286 949.147 427.263C950.622 427.232 950.622 424.938 949.147 424.969V424.976Z" fill="#333333"/>
<path d="M899.914 431.408C899.914 432.777 899.012 434.054 897.651 434.054C896.29 434.054 895.021 432.777 895.021 431.408C895.021 430.039 896.29 428.915 897.651 428.915C899.012 428.915 899.914 430.039 899.914 431.408Z" fill="#333333"/>
<path d="M923.738 431.408C923.738 432.777 922.416 433.794 921.055 433.794C919.694 433.794 918.455 432.777 918.455 431.408C918.455 430.039 919.694 428.815 921.055 428.815C922.416 428.815 923.738 430.046 923.738 431.408Z" fill="#333333"/>
<path d="M908.401 434.008C908.63 433.863 908.867 433.725 909.119 433.618L908.844 433.733C909.058 433.649 909.272 433.58 909.502 433.549L909.196 433.587C909.364 433.564 909.532 433.564 909.7 433.587L909.395 433.549C909.563 433.572 909.723 433.626 909.884 433.687L909.609 433.572C909.846 433.679 910.06 433.817 910.266 433.97L910.037 433.794L910.075 433.824C910.32 434.023 910.557 434.161 910.886 434.161C911.169 434.161 911.505 434.039 911.696 433.824C911.887 433.61 912.048 433.32 912.033 433.014C912.017 432.731 911.933 432.387 911.696 432.203C911.505 432.05 911.314 431.897 911.107 431.775C910.901 431.653 910.702 431.568 910.488 431.477C910.159 431.347 909.8 431.278 909.441 431.278C908.645 431.278 907.888 431.607 907.231 432.027C906.979 432.188 906.78 432.425 906.703 432.716C906.627 432.991 906.665 433.358 906.818 433.603C907.147 434.107 907.85 434.36 908.385 434.016L908.401 434.008Z" fill="#333333"/>
<path d="M906.137 444.86C908.286 445.846 910.931 445.999 913.095 445.043C915.106 444.156 917.828 441.174 917.247 438.78C916.788 436.883 914.494 437.411 913.041 437.449C910.87 437.503 908.699 437.319 906.527 437.319C904.554 437.319 901.955 436.455 902.085 439.461C902.192 441.923 903.943 443.85 906.145 444.86H906.137Z" fill="#FCFCFC"/>
<path d="M905.557 445.854C908.806 447.284 912.576 447.215 915.405 444.913C916.613 443.927 917.63 442.619 918.165 441.143C918.639 439.835 918.631 438.145 917.584 437.105C916.643 436.18 915.221 436.165 913.99 436.249C912.193 436.371 910.397 436.279 908.6 436.218C907.193 436.172 905.771 436.073 904.371 436.065C903.217 436.057 902.024 436.348 901.382 437.396C900.503 438.833 900.977 440.921 901.703 442.313C902.529 443.888 903.974 445.097 905.564 445.854C906.895 446.481 908.057 444.508 906.719 443.873C904.868 442.994 902.827 441.105 903.263 438.818C903.27 438.772 903.37 438.528 903.339 438.581C903.377 438.505 903.485 438.459 903.446 438.482C903.775 438.336 904.05 438.359 904.448 438.367C905.442 438.382 906.428 438.466 907.422 438.489C909.051 438.52 910.679 438.619 912.308 438.619C913.31 438.619 914.365 438.405 915.359 438.535C917.469 438.811 915.175 441.977 914.487 442.665C912.43 444.73 909.357 445.051 906.719 443.888C906.145 443.636 905.495 443.728 905.151 444.301C904.861 444.783 904.998 445.624 905.564 445.869L905.557 445.854Z" fill="#333333"/>
<path d="M892.489 442.03C892.489 444.194 891.724 446.236 890.318 447.659C888.911 449.081 886.862 449.831 884.705 449.831C882.549 449.831 880.523 449.066 879.109 447.643C877.702 446.229 877.006 444.194 877.006 442.038C877.006 439.881 877.755 437.9 879.17 436.486C880.584 435.063 882.549 434.398 884.713 434.398C886.877 434.398 888.934 434.972 890.348 436.394C891.755 437.809 892.497 439.881 892.497 442.038L892.489 442.03Z" fill="#EDBBA6"/>
<path d="M941.661 442.03C941.661 444.194 941.065 446.282 939.658 447.697C938.251 449.112 936.164 450.022 934 450.022C931.836 450.022 929.833 449.043 928.418 447.621C927.004 446.198 926.147 444.194 926.147 442.03C926.147 439.866 927.004 437.847 928.411 436.432C929.825 435.01 931.836 434.268 934 434.268C936.164 434.268 937.961 435.216 939.375 436.639C940.79 438.061 941.654 439.866 941.654 442.03H941.661Z" fill="#EDBBA6"/>
<path d="M939.856 428.945C942.41 429.335 945.316 429.152 946.111 427.003C946.294 426.513 946.302 425.909 946.294 425.382C946.271 423.699 945.973 422.017 945.66 420.38C945.346 418.744 944.903 417.084 944.283 415.539C943.664 413.995 942.945 412.419 941.997 411.035C941.057 409.666 939.941 408.351 938.687 407.204C937.387 406.026 935.758 405.238 934.267 404.282C932.776 403.326 931.27 402.493 929.657 401.751C928.043 401.009 926.484 400.214 924.809 399.671C923.135 399.128 921.422 398.654 919.709 398.294C917.966 397.927 916.2 397.774 914.479 397.575C912.69 397.369 910.893 397.117 909.089 397.124C907.284 397.132 905.48 397.308 903.691 397.545C901.902 397.782 900.113 398.08 898.369 398.539C896.809 398.952 895.211 399.487 893.613 400.046C892.046 400.588 890.44 401.124 888.957 401.85C887.474 402.577 886.036 403.533 884.729 404.512C883.253 405.621 881.946 406.928 880.669 408.267C879.392 409.605 878.207 411.02 877.083 412.48C875.944 413.956 874.881 415.715 873.94 417.535C873 419.363 872.059 421.206 871.754 423.072C871.494 424.64 871.754 426.391 872.824 427.569C874.483 429.397 877.335 428.876 879.728 428.272C881.487 427.829 883.284 427.546 885.004 427.003C886.732 426.46 888.368 425.68 890.066 425.045C891.763 424.418 893.522 423.952 895.188 423.248C896.855 422.552 898.537 421.871 900.181 421.114C901.825 420.365 903.431 419.516 905.059 418.728C906.688 417.933 908.347 417.206 909.961 416.388C911.574 415.57 913.08 414.537 914.686 413.704C914.862 413.612 915.106 413.582 915.305 413.574C915.672 413.559 916.077 413.765 916.345 414.017C917.698 415.31 918.937 416.725 920.298 418.009C921.659 419.294 922.989 420.625 924.465 421.772C926.155 423.087 927.921 424.372 929.779 425.443C931.645 426.513 933.61 427.5 935.705 428.058C936.676 428.318 938.258 428.693 939.872 428.938L939.856 428.945Z" fill="#8E816E"/>
<path d="M939.551 430.054C941.806 430.375 944.72 430.536 946.409 428.678C947.426 427.554 947.503 426.108 947.419 424.663C947.327 423.003 947.029 421.351 946.7 419.723C946.05 416.549 944.888 413.314 943.083 410.599C941.286 407.9 939.054 405.812 936.278 404.168C933.365 402.439 930.49 400.803 927.371 399.449C924.343 398.134 921.04 397.262 917.767 396.818C914.434 396.367 911.016 395.862 907.644 396.031C904.265 396.199 900.816 396.665 897.559 397.583C894.302 398.501 891.029 399.51 888.07 401.017C885.111 402.523 882.688 404.542 880.455 406.837C878.192 409.161 876.043 411.677 874.346 414.453C872.648 417.229 870.859 420.296 870.546 423.493C870.278 426.162 871.547 428.953 874.262 429.748C876.976 430.544 880.042 429.374 882.68 428.792C886.067 428.051 889.148 426.544 892.429 425.466C895.663 424.403 898.844 423.064 901.91 421.589C904.983 420.105 908.149 418.713 911.138 417.084C911.834 416.702 912.515 416.296 913.195 415.891C913.539 415.692 913.876 415.486 914.22 415.287C914.487 415.134 914.938 414.736 915.237 414.752C915.757 414.775 916.536 415.853 916.888 416.212C917.5 416.839 918.104 417.482 918.723 418.101C923.288 422.667 928.747 427.255 935.063 429.083C936.531 429.511 938.045 429.817 939.559 430.054C941.004 430.284 941.623 428.074 940.17 427.844C937.265 427.385 934.466 426.659 931.851 425.29C929.076 423.837 926.423 422.032 924.06 419.975C921.697 417.918 919.71 415.731 917.53 413.597C916.605 412.687 915.52 412.152 914.243 412.679C912.851 413.253 911.589 414.209 910.282 414.943C907.568 416.457 904.67 417.665 901.887 419.05C899.104 420.434 896.16 421.772 893.193 422.797C891.649 423.332 890.097 423.806 888.583 424.418C887.13 425.007 885.692 425.634 884.179 426.07C882.665 426.506 881.12 426.766 879.599 427.141C878.413 427.431 877.228 427.729 875.997 427.699C873.061 427.638 872.411 424.816 873.069 422.399C873.864 419.501 875.577 416.61 877.274 414.155C878.972 411.7 881.028 409.437 883.177 407.372C885.356 405.276 887.91 403.479 890.716 402.332C896.534 399.961 902.774 398.317 909.082 398.294C910.649 398.294 912.201 398.478 913.761 398.661C915.321 398.845 916.835 398.967 918.356 399.227C921.361 399.732 924.396 400.604 927.172 401.881C929.986 403.173 932.601 404.672 935.261 406.255C937.823 407.777 939.91 409.788 941.462 412.35C943.045 414.966 944.016 417.895 944.59 420.885C944.895 422.468 945.201 424.105 945.155 425.726C945.125 426.896 944.59 427.523 943.458 427.814C942.403 428.089 941.233 428.012 940.163 427.859C939.543 427.768 938.939 428.012 938.748 428.662C938.595 429.198 938.939 429.985 939.551 430.077V430.054Z" fill="#333333"/>
<path d="M906.726 491.723C906.344 492.603 905.365 493.177 904.386 493.383C905.426 493.108 906.481 493.727 906.718 494.782C906.956 495.838 906.222 497 905.166 497.191C906.176 497.214 906.879 498.186 906.902 499.195C906.94 500.809 905.931 501.856 904.478 502.346C903.025 502.835 901.313 502.958 900.204 502.95C898.308 502.927 896.503 502.491 895.074 501.719C893.644 500.939 892.765 499.57 892.313 497.482C892.107 496.518 892 495.555 892.031 494.568C892.092 492.626 892.436 490.324 893.346 488.397C894.256 486.47 895.701 485.047 898.063 484.764C898.293 484.734 898.491 484.604 898.713 484.688C899.562 485.009 899.424 486.179 899.111 487.02C900.541 486.86 901.947 486.531 903.37 486.378C904.027 486.301 904.883 486.401 905.304 486.913C905.633 487.319 905.549 487.992 905.304 488.45C905.059 488.909 904.654 489.437 904.249 489.766C904.815 489.406 905.533 489.261 906.084 489.643C906.634 490.026 906.795 490.691 906.657 491.341C906.634 491.456 906.787 491.609 906.741 491.716L906.726 491.723Z" fill="#FFE6D9"/>
<path d="M905.74 491.15C905.395 491.83 904.799 492.106 904.088 492.282C902.643 492.633 903.262 494.782 904.7 494.492C905.831 494.262 905.87 495.83 904.868 496.09C903.53 496.427 903.95 498.216 905.174 498.346C905.747 498.407 905.808 499.233 905.74 499.661C905.64 500.235 905.281 500.663 904.807 500.962C903.667 501.68 902.001 501.78 900.693 501.81C897.948 501.872 894.737 501.176 893.735 498.3C892.734 495.417 893.07 491.739 894.347 488.986C894.829 487.946 895.502 487.005 896.518 486.439C896.786 486.286 897.061 486.179 897.36 486.095C897.658 486.011 898.132 486.026 898.384 485.888C898.743 485.85 898.682 485.774 898.201 485.667C898.231 485.743 898.239 485.82 898.216 485.904C898.116 486.156 898.101 486.477 898.017 486.737C897.795 487.387 898.399 488.274 899.126 488.19C900.548 488.022 901.962 487.663 903.385 487.548C903.583 487.533 903.82 487.502 904.019 487.533C904.065 487.533 904.463 487.731 904.386 487.571C904.585 487.984 903.675 488.787 903.446 488.986C902.452 489.873 903.721 491.41 904.837 490.79C905.824 490.24 905.518 491.417 905.64 492.06C905.915 493.505 908.125 492.893 907.85 491.448C907.819 491.211 907.804 491.203 907.804 491.448L907.842 491.142C907.85 490.882 907.842 490.614 907.789 490.354C907.666 489.811 907.399 489.322 906.993 488.947C906.03 488.068 904.738 488.213 903.675 488.81L905.067 490.614C906.435 489.391 907.59 486.898 905.556 485.674C904.707 485.162 903.69 485.215 902.75 485.345C901.534 485.506 900.341 485.766 899.126 485.911L900.234 487.364C900.686 486.057 900.678 484.084 899.042 483.617C898.369 483.426 897.413 483.709 896.756 483.9C896.052 484.106 895.379 484.428 894.79 484.856C892.053 486.837 891.189 490.561 890.96 493.75C890.73 496.908 891.388 500.839 894.324 502.621C897.275 504.411 901.588 504.609 904.814 503.485C906.412 502.927 907.735 501.78 908.01 500.044C908.332 498.086 907.223 496.281 905.197 496.067C905.296 496.817 905.403 497.566 905.503 498.323C907.154 497.903 908.263 496.189 907.857 494.499C907.445 492.786 905.755 491.976 904.119 492.305L904.73 494.515C905.984 494.209 907.154 493.513 907.75 492.328C908.416 491.012 906.443 489.85 905.77 491.173L905.74 491.15Z" fill="#333333"/>
<path d="M953.849 477.132C953.956 477.377 954.04 477.629 954.109 477.889C954.14 478.019 954.17 478.149 954.193 478.279C954.208 478.34 954.216 478.409 954.224 478.478C954.208 478.34 954.208 478.333 954.224 478.47C954.239 478.7 954.254 478.929 954.254 479.166C954.254 479.296 954.247 479.434 954.239 479.564C954.239 479.617 954.178 480.038 954.224 479.755C954.147 480.252 954.017 480.742 953.841 481.216C953.818 481.277 953.795 481.338 953.765 481.407C953.811 481.292 953.818 481.292 953.765 481.407C953.704 481.529 953.65 481.652 953.589 481.774C953.467 482.011 953.329 482.241 953.184 482.47C952.855 482.975 953.069 483.762 953.597 484.038C954.17 484.344 954.812 484.168 955.164 483.625C956.494 481.583 957.03 478.837 956.066 476.536C955.837 475.985 955.294 475.526 954.652 475.733C954.124 475.901 953.604 476.551 953.849 477.147V477.132Z" fill="#333333"/>
<path d="M940.613 483.357C941.019 485.147 941.416 486.944 942.036 488.68C942.663 490.446 943.488 492.129 944.307 493.819C944.574 494.377 945.369 494.522 945.874 494.232C946.44 493.895 946.554 493.222 946.287 492.664C945.53 491.096 944.758 489.536 944.184 487.892C943.603 486.217 943.221 484.481 942.831 482.753C942.502 481.315 940.292 481.919 940.621 483.365L940.613 483.357Z" fill="#333333"/>
<path d="M885.325 490.53C884.798 494.553 884.553 499.409 887.16 502.812C887.535 503.302 888.147 503.562 888.728 503.225C889.209 502.942 889.515 502.147 889.141 501.657C886.77 498.568 887.145 494.171 887.619 490.538C887.703 489.926 887.038 489.391 886.472 489.391C885.784 489.391 885.409 489.919 885.325 490.538V490.53Z" fill="#333333"/>
<path d="M920.812 487.549L920.394 487.031C920.383 487.019 920.392 487 920.408 487H923.908C923.931 487 923.949 487.021 923.944 487.045L923.919 487.173C923.917 487.185 923.912 487.196 923.904 487.205L921.897 489.69C921.887 489.702 921.895 489.72 921.911 489.72H923.257C923.28 489.72 923.301 489.71 923.315 489.692L923.509 489.456C923.517 489.447 923.531 489.447 923.538 489.456L923.953 489.969C923.963 489.981 923.955 490 923.939 490H920.438C920.414 490 920.397 489.978 920.401 489.955L920.426 489.831C920.428 489.819 920.434 489.808 920.441 489.799L922.459 487.311C922.469 487.298 922.461 487.28 922.445 487.28H921.108C921.085 487.28 921.064 487.29 921.05 487.308L920.842 487.549C920.834 487.558 920.82 487.558 920.812 487.549H920.812ZM914.612 489.008L913.555 489.079V487.88H914.374V487.4H913V489.582L914.612 489.482V489.008V489.008ZM914.07 488.627H914.665V489.667H915.22V487.333H914.665V488.147H914.07V488.627ZM915.378 489.627H917.677V489.16H915.378V489.627ZM915.444 488.707C915.967 488.694 916.32 488.468 916.526 488.185C916.733 488.469 917.086 488.694 917.611 488.707V488.261C917.087 488.221 916.805 487.844 916.805 487.563V487.347H916.25V487.563C916.25 487.844 915.968 488.22 915.444 488.261V488.707ZM917.756 488.68H918.272L918.229 488.848C918.038 488.88 917.889 489.051 917.889 489.261C917.889 489.492 918.068 489.68 918.289 489.68H919.648C919.869 489.68 920.049 489.491 920.049 489.26C920.049 489.029 919.869 488.84 919.648 488.84H918.735L918.774 488.68H919.395V488.293H917.756V488.68L917.756 488.68ZM917.812 487.79C917.812 488.023 917.998 488.213 918.226 488.213H918.868C919.096 488.213 919.285 488.023 919.285 487.79C919.285 487.558 919.096 487.36 918.868 487.36H918.226C917.998 487.36 917.812 487.55 917.812 487.79ZM918.279 487.781C918.279 487.731 918.312 487.693 918.351 487.693H918.755C918.794 487.693 918.827 487.731 918.827 487.781C918.827 487.831 918.794 487.867 918.755 487.867H918.351C918.312 487.867 918.279 487.831 918.279 487.781ZM918.396 489.247C918.396 489.209 918.421 489.187 918.451 489.187H919.481C919.514 489.187 919.536 489.209 919.536 489.247C919.536 489.284 919.514 489.307 919.481 489.307H918.451C918.421 489.307 918.396 489.284 918.396 489.247ZM919.461 488.787H920.029V487.333H919.461V488.787ZM924.296 487.827H924.627V487.96C924.627 488.575 924.549 488.886 924.27 489.075V489.589C924.529 489.478 924.721 489.307 924.85 489.046C924.98 489.307 925.174 489.478 925.433 489.589V489.075C925.153 488.886 925.076 488.575 925.076 487.96V487.827H925.406V487.4H924.296V487.827ZM925.208 488.627H925.552V489.667H925.988V487.333H925.552V488.2H925.208V488.627ZM926.093 489.667H926.543V487.333H926.093V489.667ZM926.701 489.627H929V489.187H926.701V489.627ZM926.794 487.773H928.934V487.373H926.794V487.773ZM928.934 488.413H927.348V488.267H928.934V487.88H926.794V488.84H928.934V488.413Z" fill="white"/>
</g>
<defs>
<clipPath id="clip0_40_563">
<rect width="127" height="164" fill="white" transform="translate(859 396)"/>
</clipPath>
</defs>
</svg>
