<svg width="1080" height="740" viewBox="0 0 1080 740" fill="none" xmlns="http://www.w3.org/2000/svg">
<path d="M159.9 374.21C152.96 364.28 137.14 354.94 117.52 350.36C97.9002 345.78 79.5802 347.15 68.9602 352.99L62.6702 351.52L59.6102 364.58H59.6602C57.4702 378.41 77.7102 394.59 105.67 401.11C133.64 407.63 158.94 402.07 163.09 388.71H163.14L166.18 375.68L159.89 374.21H159.9Z" fill="#F9BF1C" stroke="#333333" stroke-width="2" stroke-miterlimit="10"/>
<path d="M166.201 375.684C169.469 361.673 148.94 344.908 120.349 338.239C91.7566 331.57 65.9289 337.521 62.6607 351.532C59.3925 365.543 79.9215 382.308 108.513 388.977C137.105 395.646 162.933 389.695 166.201 375.684Z" fill="#F9BF1C" stroke="#333333" stroke-width="2" stroke-miterlimit="10"/>
<path d="M159.449 374.11C156.689 385.92 133.669 390.07 109.569 384.45C85.4592 378.82 66.3692 364.85 69.1292 353.04C71.8792 341.23 95.3092 336.59 119.409 342.21C143.509 347.83 162.199 362.29 159.439 374.1L159.449 374.11Z" fill="#FAE400" stroke="#333333" stroke-width="2" stroke-miterlimit="10"/>
<path d="M66.2993 365.37L63.5693 377.04" stroke="#333333" stroke-width="2" stroke-miterlimit="10"/>
<path d="M76.0293 374.86L73.2393 386.83" stroke="#333333" stroke-width="2" stroke-miterlimit="10"/>
<path d="M86.8393 381.34L84.0693 393.23" stroke="#333333" stroke-width="2" stroke-miterlimit="10"/>
<path d="M100.049 386.64L97.2393 398.69" stroke="#333333" stroke-width="2" stroke-miterlimit="10"/>
<path d="M113.31 389.73L110.42 402.16" stroke="#333333" stroke-width="2" stroke-miterlimit="10"/>
<path d="M126.07 391.33L123.13 403.97" stroke="#333333" stroke-width="2" stroke-miterlimit="10"/>
<path d="M137.369 391.48L134.479 403.89" stroke="#333333" stroke-width="2" stroke-miterlimit="10"/>
<path d="M147.46 390.31L144.8 401.71" stroke="#333333" stroke-width="2" stroke-miterlimit="10"/>
<path d="M157.069 386.35L154.369 397.93" stroke="#333333" stroke-width="2" stroke-miterlimit="10"/>
<path d="M1035.97 597.064C1030.39 586.312 1015.93 574.984 997.074 567.878C978.221 560.773 959.879 559.736 948.587 564.138L942.543 561.858L937.802 574.406L937.851 574.412C933.872 587.837 951.823 606.525 978.691 616.644C1005.57 626.764 1031.38 624.559 1037.24 611.857L1037.29 611.863L1042.01 599.342L1035.96 597.063L1035.97 597.064Z" fill="#F9BF1C" stroke="#333333" stroke-width="2" stroke-miterlimit="10"/>
<path d="M1042.03 599.349C1047.1 585.885 1028.94 566.581 1001.46 556.231C973.989 545.881 947.605 548.405 942.533 561.869C937.461 575.332 955.622 594.637 983.097 604.986C1010.57 615.336 1036.96 612.812 1042.03 599.349Z" fill="#F9BF1C" stroke="#333333" stroke-width="2" stroke-miterlimit="10"/>
<path d="M1035.54 596.906C1031.26 608.254 1007.89 609.359 984.736 600.637C961.569 591.903 944.469 575.557 948.749 564.21C953.019 552.86 976.855 551.323 1000.01 560.045C1023.17 568.768 1039.81 585.547 1035.53 596.895L1035.54 596.906Z" fill="#FAE400" stroke="#333333" stroke-width="2" stroke-miterlimit="10"/>
<path d="M944.332 576.064L940.099 587.277" stroke="#333333" stroke-width="2" stroke-miterlimit="10"/>
<path d="M952.738 586.744L948.407 598.247" stroke="#333333" stroke-width="2" stroke-miterlimit="10"/>
<path d="M962.608 594.582L958.307 606.008" stroke="#333333" stroke-width="2" stroke-miterlimit="10"/>
<path d="M975.011 601.563L970.65 613.142" stroke="#333333" stroke-width="2" stroke-miterlimit="10"/>
<path d="M987.754 606.36L983.264 618.306" stroke="#333333" stroke-width="2" stroke-miterlimit="10"/>
<path d="M1000.2 609.615L995.628 621.762" stroke="#333333" stroke-width="2" stroke-miterlimit="10"/>
<path d="M1011.38 611.241L1006.89 623.166" stroke="#333333" stroke-width="2" stroke-miterlimit="10"/>
<path d="M1021.53 611.399L1017.41 622.354" stroke="#333333" stroke-width="2" stroke-miterlimit="10"/>
<path d="M1031.58 608.73L1027.39 619.858" stroke="#333333" stroke-width="2" stroke-miterlimit="10"/>
</svg>
