<svg width="132" height="161" viewBox="0 0 132 161" fill="none" xmlns="http://www.w3.org/2000/svg">
<g clip-path="url(#clip0_4_5753)">
<path d="M92.18 153.37C92.08 157.21 91.8 157.2 91.7 161.04C91.6 164.88 91.78 164.88 91.68 168.72C91.58 172.56 91.23 172.55 91.13 176.39C91.03 180.23 91.09 180.23 90.99 184.07C90.89 187.91 91.11 187.91 91.01 191.75C90.91 195.59 91.07 195.59 90.97 199.44C90.87 203.29 90.64 203.27 90.54 207.12C90.51 208.12 89.86 208.82 89.04 208.83C85.3 208.83 85.3 208.86 81.57 208.87C77.83 208.87 77.83 208.92 74.09 208.93C70.35 208.93 70.35 208.87 66.61 208.88C65.78 208.88 65.27 208.14 65.27 207.12C65.27 203.7 65.11 203.7 65.11 200.28C65.11 196.86 65.02 196.86 65.02 193.44C65.02 190.02 65.34 190.02 65.33 186.6C65.32 183.18 65.11 183.18 65.1 179.76C65.1 176.34 64.75 176.34 64.74 172.92C64.73 169.5 65.2 169.5 65.19 166.08C65.19 162.66 64.76 162.66 64.76 159.23C64.76 155.81 65.15 155.81 65.14 152.38" fill="#AFAFAF"/>
<path d="M90.68 153.37C90.62 155.39 90.37 157.39 90.26 159.4C90.14 161.56 90.18 163.71 90.2 165.87C90.25 170.34 89.62 174.76 89.56 179.22C89.44 187.56 89.77 195.93 89.16 204.25C89.13 204.71 89.1 205.18 89.08 205.64C89.06 205.99 89.23 207.07 88.96 207.31C88.9 207.36 87.74 207.3 87.38 207.31C86.81 207.31 86.23 207.31 85.66 207.32C83.43 207.34 81.2 207.33 78.97 207.36C76.85 207.38 74.73 207.41 72.61 207.4C71.73 207.4 70.85 207.38 69.97 207.37C69.51 207.37 69.05 207.36 68.58 207.35C68.35 207.35 68.12 207.35 67.88 207.35C67.61 207.35 67.33 207.35 67.06 207.35C66.56 207.32 66.44 207.32 66.69 207.37C66.87 207.54 66.75 206.59 66.75 206.62C66.75 206.35 66.75 206.08 66.75 205.81C66.75 205.3 66.73 204.8 66.71 204.29C66.67 203.3 66.62 202.32 66.61 201.33C66.58 199.23 66.55 197.13 66.52 195.04C66.49 192.95 66.66 190.71 66.78 188.52C66.9 186.33 66.74 184.16 66.64 181.98C66.53 179.54 66.41 177.12 66.28 174.68C66.15 172.24 66.56 169.8 66.66 167.32C66.76 164.88 66.33 162.52 66.26 160.09C66.18 157.49 66.62 154.94 66.63 152.35C66.63 150.42 63.64 150.42 63.63 152.35C63.63 154.72 63.23 157.06 63.25 159.43C63.27 161.8 63.69 163.98 63.68 166.28C63.67 168.65 63.2 170.98 63.23 173.36C63.26 175.65 63.57 177.91 63.59 180.2C63.61 182.48 63.83 184.76 63.81 187.04C63.79 189.32 63.49 191.59 63.5 193.88C63.5 196.16 63.58 198.44 63.59 200.72C63.61 202.93 63.56 205.26 63.78 207.46C63.89 208.63 64.49 209.74 65.63 210.17C66.77 210.6 68.25 210.35 69.45 210.37C71.76 210.4 74.06 210.42 76.37 210.4C78.7 210.38 81.04 210.36 83.37 210.34C84.3 210.34 85.24 210.33 86.17 210.32C87.34 210.32 88.73 210.5 89.86 210.17C92.57 209.38 92.02 205.92 92.2 203.74C92.39 201.44 92.49 199.15 92.49 196.85C92.48 192.44 92.39 188.01 92.49 183.59C92.55 181.03 92.54 178.47 92.63 175.91C92.71 173.5 93.1 171.12 93.17 168.7C93.24 166.14 93.12 163.58 93.19 161.02C93.26 158.46 93.6 155.92 93.67 153.35C93.73 151.42 90.73 151.42 90.67 153.35L90.68 153.37Z" fill="#333333"/>
<path d="M66.86 169.7C66.8 173.45 66.7 173.45 66.64 177.19C66.58 180.94 66.81 180.94 66.75 184.69C66.69 188.44 66.7 188.44 66.64 192.18C66.58 195.92 66.31 195.92 66.25 199.67C66.19 203.42 66.47 203.42 66.4 207.17C66.38 208.19 65.49 208.95 64.66 208.94C60.92 208.88 60.92 208.76 57.19 208.7C53.46 208.64 53.44 208.93 49.7 208.87C45.96 208.81 45.97 208.46 42.23 208.4C41.42 208.39 40.88 207.79 40.87 206.79C40.82 203.09 40.52 203.09 40.47 199.39C40.42 195.69 40.54 195.69 40.49 191.98C40.44 188.28 40.52 188.28 40.47 184.57C40.42 180.87 40.11 180.87 40.06 177.16C40.01 173.46 40.21 173.45 40.16 169.75C40.11 166.04 40.15 166.04 40.1 162.34C40.05 158.64 39.94 158.64 39.89 154.93C39.88 153.89 40.72 153 41.57 153.01C45.06 153.04 45.06 152.98 48.56 153.01C52.06 153.04 52.06 153.23 55.55 153.26C59.05 153.29 59.05 153.27 62.55 153.3C66.05 153.33 66.05 153.39 69.55 153.42" fill="#AFAFAF"/>
<path d="M65.36 169.7C65.32 172.04 65.19 174.38 65.14 176.72C65.09 179.06 65.25 181.17 65.25 183.4C65.26 188.07 65.1 192.72 64.81 197.38C64.67 199.7 64.75 202 64.85 204.32C64.88 204.93 65.2 207.15 64.7 207.43C64.33 207.64 63.27 207.43 62.82 207.41C62.3 207.39 61.79 207.37 61.27 207.35C58.86 207.24 56.45 207.13 54.04 207.26C51.63 207.39 49.41 207.46 47.09 207.26C46.22 207.19 45.36 207.07 44.5 207.01C43.84 206.96 43.08 207.05 42.44 206.92C41.96 206.82 42.44 207.19 42.35 206.81C42.25 206.37 42.33 205.81 42.31 205.35C42.21 203.07 41.96 200.81 41.94 198.52C41.91 194.1 42.01 189.68 41.96 185.27C41.94 182.99 41.66 180.74 41.57 178.47C41.48 176.22 41.61 173.99 41.64 171.75C41.71 167.1 41.61 162.44 41.44 157.79C41.42 157.14 41.4 156.49 41.39 155.84C41.39 155.71 41.31 155.11 41.38 154.95C41.61 154.43 41.41 154.61 42.04 154.53C43.22 154.39 44.5 154.53 45.69 154.53C48.24 154.51 50.77 154.62 53.32 154.73C58.71 154.97 64.14 154.89 69.54 154.94C71.47 154.96 71.47 151.96 69.54 151.94C64.24 151.89 58.91 151.94 53.62 151.74C51.16 151.65 48.72 151.52 46.25 151.52C45.24 151.52 44.24 151.54 43.23 151.54C41.72 151.54 40.33 151.42 39.24 152.66C38.25 153.77 38.38 155.2 38.41 156.59C38.44 157.66 38.49 158.73 38.53 159.8C38.62 162.27 38.61 164.74 38.62 167.21C38.65 172.17 38.48 177.08 38.86 182.03C39.23 186.93 39 191.94 38.95 196.85C38.92 199.39 39.09 201.87 39.26 204.4C39.35 205.72 39.09 207.33 39.78 208.52C40.6 209.95 42.05 209.9 43.5 209.97C46 210.08 48.46 210.43 50.98 210.41C53.48 210.39 55.96 210.19 58.46 210.26C59.48 210.29 60.5 210.34 61.53 210.38C62.82 210.44 64.37 210.71 65.6 210.32C68.46 209.42 67.95 205.92 67.82 203.58C67.67 200.82 67.77 198.09 67.99 195.34C68.21 192.58 68.17 189.79 68.21 187.02C68.25 184.18 68.13 181.35 68.13 178.51C68.13 175.58 68.31 172.65 68.37 169.73C68.4 167.8 65.4 167.8 65.37 169.73L65.36 169.7Z" fill="#333333"/>
<path d="M35.87 114.84C36.07 113.59 36.11 112.31 36.44 111.06C36.96 109.11 37.47 107.09 38.33 105.27C39.2 103.43 40.3 101.65 41.72 100.19C44.21 97.6299 47 97.2099 49.8 97.0099C52.61 96.8099 55.58 97.0599 58.66 96.4099C61.13 95.8899 63.67 95.6299 66.22 95.6799C68.78 95.7199 71.33 95.9299 73.77 96.5899C75.68 97.0999 78.61 97.8699 81.18 99.0999C83.88 100.4 86.17 102.22 86.7 104.36C87.28 106.7 87.68 109.08 88.17 111.44C88.66 113.8 89.44 116.11 89.84 118.48C90.24 120.85 90.41 123.27 90.72 125.66C91.03 128.05 91.42 130.44 91.63 132.84C91.85 135.24 91.73 137.66 91.86 140.07C91.98 142.48 92.28 144.88 92.31 147.29C92.34 149.76 92.29 151.97 91.68 153.71C91.04 155.54 89.68 156.88 86.81 157.48C84.74 157.91 82.57 158.17 80.36 158.27C78.21 158.37 76.02 158.43 73.86 158.4C71.7 158.37 69.46 158.29 67.37 158.3C65 158.31 62.62 157.98 60.25 157.95C57.88 157.91 55.5 157.97 53.13 157.88C50.76 157.79 48.39 157.6 46.02 157.47C43.2 157.47 40.37 156.51 38.06 154.82C35.7 153.1 33.99 150.77 33.72 147.8C33.41 144.42 32.81 140.91 32.93 137.51C33 135.47 33.76 133.73 34.1 131.74C34.57 128.92 34.82 126.1 35.01 123.29C35.2 120.48 35.42 117.68 35.87 114.86V114.84Z" fill="#FCFCFC"/>
<path d="M37.32 115.24C38.17 109.39 39.9 100.85 46.58 98.9899C49.56 98.1599 52.73 98.5099 55.78 98.2899C57.52 98.1599 59.2 97.78 60.93 97.51C62.76 97.23 64.62 97.1399 66.47 97.1699C69.79 97.2399 72.91 97.8199 76.08 98.7699C78.9 99.6199 82 100.68 84.11 102.84C85.17 103.93 85.39 105.16 85.7 106.62C86.07 108.35 86.38 110.09 86.74 111.82C87.48 115.34 88.46 118.69 88.86 122.29C89.25 125.8 89.85 129.3 90.15 132.82C90.45 136.34 90.34 139.89 90.62 143.42C90.86 146.49 91.26 149.97 90.37 152.96C89.56 155.68 86.63 156.06 84.18 156.41C80.79 156.89 77.3 156.92 73.88 156.88C70.45 156.83 67.01 156.85 63.59 156.61C60.03 156.36 56.47 156.5 52.91 156.36C51.25 156.29 49.59 156.18 47.93 156.07C46.15 155.96 44.39 155.96 42.67 155.44C39.67 154.53 36.55 152.33 35.56 149.23C35.03 147.59 35.03 145.76 34.84 144.06C34.61 142.04 34.4 140 34.44 137.96C34.48 136.23 35.03 134.64 35.4 132.97C35.83 131.03 36.03 129.01 36.23 127.04C36.61 123.11 36.73 119.16 37.34 115.26C37.63 113.37 34.74 112.56 34.45 114.46C33.85 118.32 33.66 122.21 33.32 126.1C33.15 127.99 32.97 129.9 32.6 131.76C32.23 133.62 31.63 135.25 31.48 137.07C31.18 140.71 31.84 144.57 32.29 148.18C32.69 151.36 34.5 153.97 37.03 155.88C40.04 158.16 43.32 158.79 47 159.02C50.8 159.26 54.58 159.42 58.39 159.43C62.2 159.44 66.23 159.75 70.15 159.82C73.89 159.89 77.62 159.97 81.35 159.72C84.54 159.5 88.49 159.32 91.08 157.21C93.36 155.35 93.77 152.3 93.85 149.53C93.96 145.72 93.41 141.95 93.35 138.15C93.28 134.09 92.87 130.17 92.33 126.15C91.83 122.41 91.59 118.67 90.65 115C90.19 113.21 89.74 111.44 89.38 109.63C88.99 107.66 88.74 105.58 88.11 103.67C87.1 100.61 84.01 98.6899 81.21 97.4599C78.29 96.1799 75.06 95.17 71.9 94.66C67.55 93.95 63.1 94.0599 58.77 94.8899C54.84 95.6399 50.82 95.1399 46.9 95.8799C42.98 96.6199 40.1 99.2299 38.1 102.59C35.92 106.25 35.07 110.31 34.46 114.47C34.18 116.36 37.07 117.17 37.35 115.27L37.32 115.24Z" fill="#333333"/>
<path d="M50.27 125.07C50.36 127.3 50.22 129.53 50.32 131.76C50.42 133.99 50.59 136.21 50.67 138.44C50.75 140.67 50.76 142.9 50.81 145.12C50.86 147.35 51.12 149.57 51.13 151.8C51.13 154.03 51 156.26 50.94 158.49C50.87 161.13 47.75 162.06 44.37 162.11C41.26 162.16 37.86 161.62 36.24 161.55C35.63 161.52 35.04 161.2 34.6 160.77C34.24 160.41 34.02 159.96 33.93 159.46C33.62 157.69 33.35 155.9 33.04 154.13C32.73 152.36 32.51 150.42 32.2 148.64C29.35 148.51 26.54 147.51 24.4 145.63C22.26 143.75 20.76 141.23 19.86 138.58C19.23 136.71 18.57 134.61 18.47 132.43C18.37 130.35 19.06 128.25 19.46 126.21C19.89 124.08 20.12 121.88 21.12 120.15C22.15 118.37 23.54 116.8 24.87 115.23C26.2 113.66 27.83 112.36 29.24 110.88C31.29 108.73 33.12 106.48 35.19 104.52C37.26 102.56 39.45 100.7 42.23 99.4899C45.67 97.9899 49.83 97.2199 49.95 102.3C50.01 104.83 50.08 107.37 50.1 109.9C50.12 112.43 49.56 114.97 49.59 117.5C49.62 120.03 50.15 122.55 50.26 125.08L50.27 125.07Z" fill="#AFAFAF"/>
<path d="M48.77 125.07C48.84 127.22 48.73 129.37 48.81 131.52C48.89 133.67 49.06 135.81 49.15 137.96C49.33 142.25 49.48 146.56 49.61 150.85C49.67 152.92 49.56 154.99 49.48 157.06C49.42 158.68 49.42 159.54 47.75 160.12C44.45 161.26 40.56 160.42 37.18 160.12C36.32 160.04 35.65 160.03 35.37 159.06C35.04 157.9 34.96 156.61 34.76 155.43C34.36 153.04 34.04 150.63 33.63 148.25C33.52 147.58 32.8 147.19 32.18 147.15C29.13 146.96 26.36 145.73 24.3 143.45C22.23 141.16 21.12 138.19 20.4 135.23C20.02 133.71 19.83 132.17 20.05 130.6C20.29 128.9 20.79 127.23 21.1 125.55C21.36 124.12 21.57 122.59 22.22 121.27C22.93 119.81 24.03 118.54 25.07 117.31C27.19 114.8 29.68 112.67 31.88 110.24C34.08 107.81 36.09 105.56 38.54 103.55C40.5 101.95 42.78 100.61 45.27 100.04C47.03 99.6301 48.25 99.9901 48.43 101.94C48.61 103.78 48.53 105.68 48.56 107.53C48.59 109.38 48.57 111.32 48.38 113.23C48.19 115.14 48.01 117.01 48.15 118.93C48.3 120.99 48.65 123.03 48.75 125.09C48.85 127.01 51.85 127.02 51.75 125.09C51.65 123.16 51.32 121.15 51.16 119.17C51 117.17 51.17 115.22 51.37 113.24C51.58 111.18 51.58 109.14 51.54 107.07C51.51 105.2 51.58 103.26 51.36 101.4C51.06 98.9301 49.53 97.1101 46.98 96.9001C44.43 96.6901 41.69 97.9301 39.57 99.1801C36.54 100.96 33.95 103.5 31.59 106.08C30.25 107.55 28.96 109.07 27.55 110.46C26.24 111.75 24.85 112.95 23.65 114.35C22.45 115.75 21.27 117.13 20.27 118.66C19.3 120.14 18.78 121.76 18.43 123.48C17.69 127.2 16.54 130.88 17.21 134.69C17.87 138.49 19.39 142.33 21.91 145.28C24.52 148.34 28.21 149.92 32.18 150.16C31.7 149.79 31.22 149.43 30.73 149.06C31.14 151.45 31.46 153.85 31.86 156.24C32.21 158.36 32.17 160.96 34.1 162.32C35.56 163.35 37.79 163.2 39.51 163.37C41.68 163.58 43.89 163.77 46.06 163.52C47.78 163.32 49.59 162.91 50.92 161.73C52.41 160.41 52.4 158.69 52.47 156.84C52.65 151.89 52.31 146.99 52.23 142.04C52.18 139.25 52.04 136.47 51.89 133.69C51.74 130.91 51.84 127.96 51.74 125.09C51.67 123.16 48.67 123.16 48.74 125.09L48.77 125.07Z" fill="#333333"/>
<path d="M45.47 97.21C43.58 97.93 42.12 99.41 40.81 100.95C39.5 102.49 38.28 104.16 37.85 106.14C37.56 107.49 37.46 108.95 37.82 110.27C38.66 113.33 41.64 115.31 44.29 117.07C42.01 118.91 39.39 121.31 39.77 124.21C39.94 125.53 40.57 126.84 41.36 127.92C43.39 130.7 45.81 133.23 48.31 135.6" fill="#AFAFAF"/>
<path d="M45.07 95.7599C42.72 96.7399 40.96 98.3999 39.35 100.35C37.74 102.3 36.48 104.51 36.17 107.16C35.54 112.53 39.49 115.68 43.53 118.36C43.43 117.57 43.33 116.79 43.23 116C40.17 118.48 37.17 121.76 38.66 125.98C39.4 128.07 40.84 129.78 42.25 131.45C43.81 133.29 45.5 135 47.25 136.66C48.65 137.99 50.77 135.87 49.37 134.54C46.72 132.02 43.61 129.23 41.9 125.96C41.13 124.48 41.02 123.04 41.91 121.61C42.8 120.18 44.1 119.15 45.35 118.14C46.15 117.49 45.77 116.27 45.05 115.78C42.09 113.81 38.74 111.61 39.13 107.59C39.32 105.62 40.24 103.99 41.48 102.48C42.72 100.97 44.07 99.4099 45.87 98.6599C47.67 97.9099 46.86 95.0299 45.07 95.7699V95.7599Z" fill="#333333"/>
<path d="M63.07 120.6C63.07 120.09 62.9 119.63 62.74 119.15C62.06 117.05 60.14 115.75 59.48 113.62C58.93 111.87 58.83 109.57 59.12 107.74C59.77 103.66 62.61 101.58 66.32 102.29C69.71 102.94 70.77 105.26 70.89 107.91C71 110.37 70.16 113.16 69.19 115.55C68.28 117.8 68.24 120.22 68.27 122.63C68.3 124.99 68.62 127.37 69.15 129.72C69.68 132.07 70.55 134.4 71.2 136.59C72 139.27 72.16 141.96 71.79 144.81C71.71 145.41 70.68 147.49 69.47 149.57C68.11 151.9 67.02 154.11 67.03 154.13C65.95 152.67 64.72 151.33 63.64 149.87C62.56 148.41 61.65 146.83 60.57 145.37C60.26 144.95 59.87 144.64 59.73 144.05C59.57 143.37 59.79 142.68 59.91 141.98C60.26 139.85 60.23 137.66 60.57 135.54C60.91 133.42 61.29 131.3 61.64 129.17C61.99 127.04 62.49 124.95 62.87 122.83C63 122.1 63.07 121.34 63.07 120.6Z" fill="#95BECE"/>
<path d="M64.57 120.6C64.36 117.94 62.65 116.35 61.37 114.18C60.21 112.21 60.18 109.27 60.78 107.11C61.26 105.39 62.42 103.96 64.25 103.69C66.11 103.42 68.29 104.16 69.01 106C69.89 108.24 69.2 110.91 68.49 113.09C68.08 114.36 67.49 115.57 67.2 116.87C66.85 118.39 66.76 119.96 66.75 121.51C66.73 124.56 67.07 127.61 67.8 130.57C68.48 133.34 69.64 135.98 70.19 138.78C70.51 140.45 70.55 142.18 70.39 143.87C70.28 145.08 69.66 146.12 69.09 147.18C67.95 149.32 66.39 151.42 65.58 153.73L68.32 153.37C66.54 151 64.66 148.76 63.02 146.29C62.46 145.45 61.13 144.24 61.19 143.21C61.27 141.74 61.63 140.24 61.74 138.75C61.97 135.66 62.56 132.62 63.08 129.56C63.6 126.5 64.5 123.62 64.56 120.59C64.6 118.66 61.6 118.66 61.56 120.59C61.5 123.72 60.5 126.9 59.98 129.98C59.44 133.21 58.94 136.4 58.67 139.66C58.55 141.07 58.02 142.62 58.23 144.03C58.41 145.31 59.36 146.19 60.06 147.22C60.95 148.53 61.78 149.87 62.74 151.12C63.71 152.39 64.78 153.59 65.74 154.87C66.52 155.91 68.03 155.8 68.48 154.51C68.25 155.17 68.73 154.05 68.82 153.88C69.09 153.35 69.38 152.82 69.66 152.29C70.46 150.83 71.33 149.4 72.08 147.92C72.58 146.94 73.14 145.91 73.28 144.8C73.51 143.12 73.53 141.41 73.34 139.72C72.97 136.43 71.63 133.39 70.8 130.2C69.93 126.85 69.59 123.37 69.79 119.91C69.98 116.59 71.73 113.68 72.21 110.41C72.56 108.03 72.44 105.35 70.94 103.36C68.04 99.51 61.62 99.85 59 103.78C57.33 106.28 57.2 109.63 57.68 112.5C57.93 114 58.49 115.33 59.38 116.56C60.27 117.79 61.45 119.02 61.57 120.58C61.72 122.49 64.72 122.51 64.57 120.58V120.6Z" fill="#333333"/>
<path d="M81.99 125.06C81.9 127.29 82.13 129.53 82.03 131.75C81.93 133.97 81.56 136.19 81.48 138.42C81.4 140.65 81.76 142.89 81.71 145.12C81.66 147.35 81.49 149.57 81.48 151.8C81.48 154.03 81.59 156.25 81.65 158.48C81.72 161 84.02 161.91 86.86 162.11C89.5 162.3 92.47 161.65 94.02 161.72C95.19 161.78 96.59 162.01 97.31 161.08C97.74 160.53 97.78 159.77 97.85 159.08C98.05 157.13 98.09 155.16 98.29 153.21C98.32 152.87 98.38 152.39 98.62 152.15C98.8 151.96 99.18 151.98 99.43 151.9C101.59 151.17 103.58 150.05 105.38 148.65C107.18 147.26 108.75 145.59 110.02 143.71C111.3 141.82 112.4 139.79 112.98 137.59C113.56 135.39 113.65 133.1 113.36 130.8C113.06 128.42 112.18 126.18 111.27 123.96C110.38 121.79 109.41 119.75 108.29 117.83C107.13 115.83 106 113.85 104.6 112.08C103.2 110.31 101.53 108.74 99.88 107.13C98.28 105.57 96.71 103.91 94.88 102.46C93.2 101.13 90.33 99.39 87.86 98.58C85.1 97.68 82.98 98.13 82.88 102.3C82.82 104.83 82.71 107.36 82.69 109.89C82.67 112.42 82.46 114.95 82.43 117.48C82.4 120.01 82.09 122.53 81.99 125.06Z" fill="#AFAFAF"/>
<path d="M80.49 125.06C80.39 128.26 80.62 131.41 80.3 134.61C80.14 136.19 79.95 137.78 79.97 139.38C79.98 141.06 80.2 142.73 80.21 144.4C80.24 147.58 79.93 150.76 80.01 153.94C80.07 156.36 79.57 159.7 81.41 161.61C84.76 165.1 90.83 163.14 95.03 163.27C96.1 163.3 97.17 163.17 98.03 162.48C99.08 161.63 99.25 160.34 99.38 159.07C99.53 157.52 99.6 155.97 99.71 154.42C99.72 154.24 99.91 153.29 99.82 153.2L99.85 153.03L99.57 153.39C100.21 153.42 101.21 152.82 101.79 152.56C106.94 150.26 111.14 145.87 113.44 140.74C114.65 138.04 115.17 135.12 115.01 132.17C114.84 129.14 113.89 126.34 112.74 123.55C110.46 118.02 107.48 112.59 103.25 108.3C99.24 104.23 95.23 100.04 89.89 97.74C88.03 96.94 85.64 96.1 83.71 97.17C81.47 98.42 81.42 101.22 81.36 103.46C81.26 107.02 81.22 110.58 81.06 114.13C80.89 117.77 80.67 121.4 80.51 125.03C80.42 126.96 83.42 126.96 83.51 125.03C83.77 119.41 84.12 113.82 84.23 108.2C84.26 106.86 84.3 105.51 84.34 104.17C84.37 103.03 84.25 101.75 84.61 100.65C85.03 99.38 86.1 99.59 87.21 99.91C91.93 101.3 95.43 104.82 98.84 108.15C100.81 110.08 102.83 111.97 104.4 114.26C105.93 116.49 107.31 118.89 108.5 121.32C110.83 126.08 112.92 131.35 111.67 136.72C110.53 141.62 106.95 146.04 102.72 148.66C101.69 149.3 100.6 149.88 99.45 150.28C98.4 150.65 97.49 150.76 97.05 151.94C96.63 153.06 96.7 154.45 96.63 155.62C96.55 156.85 96.73 158.54 96.3 159.7C95.98 160.55 95 160.22 94.21 160.19C93.22 160.15 92.25 160.27 91.27 160.38C89.12 160.61 86.66 160.93 84.59 160.12C83.77 159.8 83.27 159.34 83.18 158.44C83.01 156.88 83.06 155.24 83.03 153.67C82.96 150.48 83.3 147.31 83.24 144.13C83.21 142.53 83.02 140.94 83 139.35C82.98 137.76 83.17 136.17 83.33 134.58C83.65 131.38 83.42 128.23 83.52 125.03C83.58 123.1 80.58 123.1 80.52 125.03L80.49 125.06Z" fill="#333333"/>
<path d="M86.8 97.4099C88.69 98.1299 90.33 99.3199 91.65 100.85C92.97 102.39 93.94 104.18 94.36 106.16C94.65 107.51 94.86 108.93 94.49 110.26C93.65 113.32 90.86 115.33 88.21 117.08C90.49 118.92 92.91 121.29 92.52 124.2C92.35 125.52 91.67 126.77 90.89 127.85C88.86 130.63 86.48 133.18 83.98 135.54" fill="#AFAFAF"/>
<path d="M86.4 98.8499C89.92 100.27 92.41 103.53 93.05 107.24C93.76 111.36 90.53 113.74 87.46 115.79C86.73 116.28 86.36 117.5 87.16 118.15C88.4 119.16 89.68 120.24 90.49 121.64C91.36 123.14 91.13 124.63 90.28 126.09C88.43 129.25 85.57 131.99 82.94 134.49C81.54 135.82 83.66 137.94 85.06 136.61C86.8 134.95 88.48 133.23 90.02 131.39C91.36 129.79 92.8 128.12 93.56 126.15C95.18 121.97 92.38 118.55 89.28 116.03C89.18 116.82 89.08 117.6 88.98 118.39C93.1 115.64 96.86 112.33 96.02 106.91C95.25 101.91 91.87 97.8499 87.2 95.9699C85.41 95.2499 84.63 98.1499 86.4 98.8599V98.8499Z" fill="#333333"/>
<path d="M83.13 98.76C83.76 100.8 84.22 102.94 84.25 105.07C84.28 107.37 83.85 109.91 82.39 111.68C81.11 113.23 79.08 113.8 77.07 113.89C75.13 113.97 73.16 113.43 71.5 112.42C69.84 111.41 68.44 110.01 67.2 108.45C65.96 106.89 65 105.39 63.97 103.72C63.79 107.71 62.62 110.14 59.47 112.64C58.7 113.25 57.83 113.82 56.92 114.17C54.47 115.11 51.56 114.17 49.64 112.38C47.72 110.6 46.79 108.01 46.63 105.39C46.47 102.77 46.95 100.16 47.86 97.7" fill="#FCFCFC"/>
<path d="M81.69 99.1601C83.01 103.56 84.18 111.53 77.82 112.34C71.76 113.11 68.03 107.44 65.26 102.96C64.46 101.66 62.55 102.24 62.46 103.72C62.34 105.99 61.8 108.15 60.24 109.88C58.51 111.79 56.17 113.57 53.46 112.84C47.04 111.12 47.53 102.98 49.29 98.0901C49.94 96.2701 47.04 95.4901 46.4 97.2901C45.1 100.92 44.51 105.12 45.74 108.86C46.84 112.22 49.49 115.06 53.03 115.82C56.64 116.59 59.84 114.71 62.25 112.12C64.44 109.76 65.29 106.89 65.46 103.72C64.53 103.97 63.6 104.22 62.66 104.48C66.28 110.33 71.21 116.64 78.96 115.18C86.82 113.7 86.36 104.28 84.58 98.3701C84.03 96.5301 81.13 97.3101 81.69 99.1701V99.1601Z" fill="#333333"/>
<path d="M13.62 41.1801C15.29 41.1801 16.97 41.9001 18.42 42.5201C19.06 40.2201 19.73 37.8701 20.68 35.7201C21.64 33.5401 22.71 31.4201 23.96 29.4201C25.22 27.4101 26.7 25.5401 28.22 23.7401C29.74 21.9401 31.4 20.2201 33.17 18.6501C34.94 17.0801 36.9 15.7401 38.88 14.4401C40.85 13.1501 42.78 11.7101 44.93 10.7101C47.08 9.71011 49.34 8.98011 51.63 8.30011C53.92 7.62011 56.19 7.03011 58.56 6.69011C60.93 6.35011 63.26 6.11011 65.66 6.11011C68.06 6.11011 70.44 6.48011 72.75 6.82011C75.06 7.16011 77.35 8.00011 79.6 8.67011C81.85 9.34011 84.28 9.73011 86.41 10.7201C88.57 11.7201 90.61 12.9801 92.58 14.2801C94.55 15.5801 96.37 17.1501 98.14 18.7101C99.91 20.2801 101.4 22.1201 102.93 23.9301C104.46 25.7301 106.22 27.3801 107.48 29.3901C108.74 31.4001 109.52 33.6601 110.48 35.8401C111.43 37.9901 112.5 39.9901 113.14 42.2901C114.62 41.6401 116.12 41.6401 117.84 41.6401C120.05 41.6401 122.19 41.9201 123.97 42.9601C125.75 44.0001 127.5 45.5501 128.56 47.4001C129.62 49.2501 130.03 51.3901 130.03 53.6001C130.03 55.8101 129.52 57.9801 128.5 59.7601C127.48 61.5401 125.84 63.2201 124.01 64.2801C122.18 65.3401 120.06 65.5701 117.85 65.5701C116.48 65.5701 115.38 65.6801 114.16 65.2501C113.68 67.7501 112.68 69.9601 111.85 72.3201C111 74.7101 110.1 77.0601 108.91 79.2701C107.71 81.5001 106.53 83.7701 105.02 85.7701C103.5 87.7801 101.82 89.7201 100.01 91.4801C98.2 93.2401 96.04 94.6101 93.99 96.0801C91.94 97.5301 89.83 98.9201 87.57 100.05C85.33 101.17 82.96 102.04 80.54 102.81C78.16 103.57 75.71 104.14 73.19 104.53C70.67 104.92 68.23 105.4 65.67 105.4C63.11 105.4 60.58 105.09 58.12 104.71C55.6 104.32 53.1 103.82 50.73 103.07C48.31 102.3 45.96 101.3 43.73 100.18C41.47 99.0501 39.38 97.5901 37.34 96.1401C35.28 94.6801 33.26 93.1501 31.45 91.4001C29.64 89.6501 28.05 87.6701 26.53 85.6601C25.01 83.6601 23.63 81.5501 22.43 79.3201C21.23 77.0901 20.42 74.7401 19.57 72.3501C18.73 70.0001 17.75 67.7501 17.27 65.2501C16.08 65.6401 14.96 66.0301 13.64 66.0301C11.43 66.0301 9.47 64.9701 7.69 63.9401C5.86 62.8701 4.05 61.6201 2.99 59.7801C1.93 57.9401 1.49 55.8301 1.49 53.6201C1.49 51.4101 2.23 49.3901 3.25 47.6101C4.31 45.7701 5.85 44.3601 7.69 43.2901C9.47 42.2501 11.44 41.2101 13.64 41.2101L13.62 41.1801Z" fill="#FFE6D9"/>
<path d="M13.62 42.68C15.04 42.73 16.37 43.26 17.66 43.81C18.54 44.18 19.58 43.94 19.86 42.91C20.96 38.97 22.32 35.25 24.34 31.69C26.36 28.13 28.78 25.15 31.51 22.32C34.34 19.38 37.56 17.14 40.92 14.87C42.59 13.74 44.26 12.63 46.11 11.81C48.02 10.96 50.03 10.34 52.02 9.75003C60.28 7.30003 68.81 6.86003 77.09 9.45003C80.9 10.64 84.72 11.36 88.23 13.34C91.74 15.33 95 17.7 97.89 20.52C99.47 22.06 100.83 23.8 102.28 25.46C103.67 27.05 105.2 28.52 106.3 30.34C107.46 32.25 108.21 34.36 109.1 36.4C110.01 38.49 111.06 40.5 111.69 42.7C111.9 43.41 112.77 44.06 113.54 43.75C115.13 43.11 116.81 43.11 118.5 43.16C120.29 43.21 122.01 43.52 123.55 44.47C126.63 46.36 128.36 49.34 128.51 52.94C128.66 56.5 127.37 59.8 124.58 62.08C123.25 63.17 121.72 63.77 120.02 63.97C118.29 64.17 116.22 64.31 114.54 63.81C113.8 63.59 112.85 64.08 112.69 64.86C112.28 66.87 111.55 68.77 110.83 70.69C110.07 72.71 109.39 74.77 108.48 76.73C106.72 80.52 104.56 84.14 101.83 87.32C98.99 90.62 95.69 93.09 92.12 95.54C88.52 98.02 84.73 99.86 80.57 101.21C76.33 102.59 71.77 103.5 67.32 103.83C62.92 104.15 58.33 103.41 54.06 102.42C49.74 101.42 45.51 99.69 41.75 97.34C38.25 95.14 34.75 92.67 31.86 89.71C28.57 86.34 25.66 82.36 23.49 78.18C22.43 76.12 21.69 73.92 20.91 71.75C20.09 69.47 19.17 67.24 18.69 64.85C18.53 64.08 17.58 63.56 16.84 63.8C15.34 64.3 13.88 64.73 12.29 64.37C10.77 64.03 9.39 63.22 8.07 62.43C5.3 60.77 3.52 58.67 3.06 55.38C2.63 52.31 3.57 49.06 5.66 46.75C7.56 44.65 10.73 42.77 13.6 42.68C15.53 42.62 15.53 39.62 13.6 39.68C9.83 39.8 5.71 42.07 3.28 44.92C0.74 47.93 -0.4 51.85 0.12 55.75C0.66 59.79 2.8 62.69 6.22 64.81C7.85 65.82 9.62 66.82 11.5 67.26C13.64 67.75 15.6 67.37 17.65 66.69L15.8 65.64C16.24 67.81 17.03 69.85 17.8 71.92C18.59 74.06 19.31 76.21 20.24 78.29C22.04 82.31 24.72 85.96 27.52 89.34C30.43 92.85 33.93 95.6 37.65 98.19C41.42 100.83 45.49 102.91 49.87 104.36C54.29 105.82 59.11 106.58 63.75 106.84C68.47 107.1 73.43 106.22 78 105.08C82.47 103.97 86.9 102.32 90.86 99.94C94.82 97.56 98.59 95.06 101.71 91.91C105.26 88.32 107.97 84.28 110.31 79.83C111.48 77.62 112.38 75.28 113.22 72.93C114.09 70.52 115.1 68.17 115.61 65.65C114.99 66 114.38 66.35 113.76 66.7C115.85 67.33 118.32 67.18 120.46 66.92C122.69 66.64 124.64 65.85 126.4 64.45C129.92 61.65 131.71 57.41 131.53 52.94C131.34 48.39 129.23 44.6 125.42 42.09C123.53 40.85 121.4 40.32 119.17 40.19C117.05 40.06 114.75 40.06 112.76 40.86L114.61 41.91C114.02 39.89 113.13 38 112.25 36.1C111.37 34.2 110.63 32.12 109.66 30.2C107.86 26.61 104.76 23.69 102.14 20.69C99.35 17.48 96 14.69 92.42 12.4C90.67 11.28 88.87 10.2 86.97 9.35003C85.07 8.50003 82.93 8.04003 80.86 7.48003C78.79 6.92003 76.78 6.15003 74.69 5.68003C72.53 5.19003 70.26 4.92003 68.06 4.74003C63.62 4.36003 58.97 4.92003 54.65 5.95003C50.33 6.98003 45.83 8.29003 42.02 10.6C38.47 12.75 34.86 15.12 31.78 17.9C28.26 21.07 25.04 24.83 22.55 28.86C19.98 33 18.28 37.46 16.97 42.13C17.7 41.83 18.44 41.53 19.17 41.23C17.36 40.46 15.6 39.76 13.61 39.69C11.62 39.62 11.68 42.62 13.61 42.69L13.62 42.68Z" fill="#333333"/>
<path d="M77.82 55.0199C77.82 56.8099 79.2 58.3099 80.98 58.3099C82.76 58.3099 84.28 56.7999 84.28 55.0199C84.28 53.2299 82.76 51.6399 80.98 51.6399C79.2 51.6399 77.82 53.2299 77.82 55.0199Z" fill="#333333"/>
<path d="M47.19 55.02C47.19 56.81 48.58 58.31 50.36 58.31C52.14 58.31 53.85 56.81 53.85 55.02C53.85 53.23 52.14 51.71 50.36 51.71C48.58 51.71 47.19 53.23 47.19 55.02Z" fill="#333333"/>
<path d="M68.66 55.4601C67.78 54.9001 66.68 54.5201 65.62 54.6401C64.98 54.7101 64.46 54.8501 63.88 55.1201C63.39 55.3401 62.97 55.6601 62.54 56.0001C62.26 56.2201 62.1 56.7201 62.1 57.0601C62.1 57.4301 62.26 57.8701 62.54 58.1201C62.82 58.3701 63.2 58.5801 63.6 58.5601L64 58.5101C64.25 58.4401 64.47 58.3101 64.66 58.1201L64.72 58.0701L64.42 58.3001C64.74 58.0501 65.08 57.8401 65.45 57.6801L65.09 57.8301C65.36 57.7201 65.63 57.6401 65.92 57.6001L65.52 57.6501C65.78 57.6201 66.05 57.6101 66.31 57.6501L65.91 57.6001C66.22 57.6401 66.51 57.7201 66.8 57.8401L66.44 57.6901C66.69 57.8001 66.92 57.9201 67.14 58.0601C67.8 58.4801 68.82 58.2201 69.19 57.5201C69.58 56.7801 69.36 55.9201 68.65 55.4701L68.66 55.4601Z" fill="#333333"/>
<path d="M87.59 62.23C87.59 65.06 88.89 67.57 90.73 69.42C92.58 71.28 95.08 72.2 97.91 72.2C100.73 72.2 103.29 71.33 105.13 69.47C106.97 67.62 107.96 65.06 107.96 62.23C107.96 59.4 107.07 56.75 105.23 54.9C103.38 53.04 100.73 51.79 97.91 51.79C95.09 51.79 92.7 53.3 90.86 55.16C89.02 57.01 87.6 59.4 87.6 62.23H87.59Z" fill="#EDBBA6"/>
<path d="M23.23 62.23C23.23 65.06 24.49 67.48 26.33 69.34C28.18 71.2 30.6 72.64 33.42 72.64C36.24 72.64 38.98 71.51 40.83 69.65C42.67 67.8 43.43 65.05 43.43 62.23C43.43 59.4 42.45 56.88 40.61 55.02C38.76 53.16 36.24 52.01 33.42 52.01C30.6 52.01 28.22 53.3 26.37 55.16C24.52 57.02 23.22 59.4 23.22 62.22L23.23 62.23Z" fill="#EDBBA6"/>
<path d="M23.94 44.2901C23.75 44.8101 23.61 45.3601 23.42 45.8801C23.15 46.6401 22.67 47.6801 21.87 47.7301C21.34 47.7601 20.76 47.3501 20.39 46.9801C18.67 45.2801 18.02 43.0201 17.63 40.6501C17.28 38.4701 17.23 36.1201 17.72 33.7001C18.17 31.4601 19 29.2301 19.93 27.0501C20.86 24.8701 21.99 22.7301 23.2 20.8501C24.62 18.6201 26.05 16.6601 27.47 15.3001C29.15 13.6901 30.84 12.0401 32.76 10.7301C34.68 9.42007 36.78 8.35007 38.88 7.33007C40.98 6.31007 43.16 5.47007 45.36 4.71007C47.56 3.95007 49.84 3.39007 52.09 2.88007C54.38 2.36007 56.69 2.00007 58.96 1.72007C61.3 1.44007 63.66 1.49007 66.02 1.51007C68.38 1.53007 70.73 1.54007 73.07 1.87007C75.41 2.20007 77.69 2.75007 79.97 3.39007C82.02 3.97007 84.19 4.45007 86.29 5.22007C88.39 5.99007 90.45 6.70008 92.4 7.71007C94.35 8.72007 96.24 9.97008 97.93 11.3101C99.87 12.8501 101.44 14.8001 103.12 16.6601C104.8 18.5201 106.52 20.2901 107.99 22.3001C109.29 24.0801 110.61 25.9601 111.67 27.9701C112.73 29.9801 113.47 32.1501 114.02 34.2901C114.57 36.4301 114.81 38.7401 114.53 40.9701C114.26 43.1001 113.63 45.2601 112.32 47.3101C111.97 47.8601 111.44 48.3001 110.83 48.5401C109.47 49.0701 108.3 47.7401 107.87 46.3401C107.44 44.9401 107.56 43.3701 106.97 42.0401C106.31 40.5401 104.48 39.8701 103.18 38.8801C101.36 37.4901 99.76 35.7901 98.16 34.1501C96.56 32.5101 95.31 30.5801 93.97 28.7201C92.63 26.8601 91.45 24.9301 90.39 22.9001C89.33 20.8701 88.14 19.0601 87.39 16.9001C85.29 18.1601 83.19 19.1401 81.04 20.3101C78.89 21.4801 76.81 22.8101 74.61 23.8801C72.41 24.9501 70 25.5901 67.76 26.5701C65.52 27.5501 63.26 28.4701 60.97 29.3701C58.68 30.2701 56.58 31.6201 54.26 32.4201C51.94 33.2201 49.53 33.7201 47.18 34.4301C44.83 35.1301 42.51 35.9501 40.14 36.5601C37.76 37.1601 35.3 37.3801 32.9 37.8801C30.5 38.3801 27.98 38.7801 25.56 39.1801C24.98 40.8101 24.53 42.6501 23.95 44.2901H23.94Z" fill="#8E816E"/>
<path d="M22.49 43.8899C22.29 44.4899 22.15 45.1399 21.88 45.7299C21.55 46.4499 21.64 46.1499 21.17 45.6299C20.2 44.5699 19.71 43.1799 19.38 41.8099C18.63 38.6499 18.72 35.4199 19.61 32.3099C20.5 29.1999 21.76 26.3599 23.29 23.6199C24.74 21.0299 26.41 18.4399 28.53 16.3499C30.79 14.1199 33.12 12.1099 35.9 10.5499C38.77 8.9299 41.77 7.5599 44.88 6.4599C50.85 4.3399 57.32 2.9999 63.67 2.9999C66.98 2.9999 70.34 2.9199 73.62 3.4599C76.9 3.9999 79.87 4.8999 82.96 5.7499C88.89 7.3899 94.81 9.93989 99.13 14.4499C103.45 18.9599 107.82 23.5999 110.6 29.1299C112.03 31.9899 113.07 35.3699 113.16 38.5799C113.2 40.0699 113.02 41.5399 112.63 42.9699C112.44 43.6599 112.21 44.3399 111.9 44.9899C111.63 45.5699 111.14 46.9299 110.45 47.0699C109.26 47.3099 109.08 44.7099 108.97 43.9599C108.76 42.4499 108.42 41.0399 107.3 39.9299C106.36 38.9899 105.11 38.4399 104.05 37.6499C102.64 36.6099 101.41 35.3199 100.19 34.0699C97.83 31.6499 95.82 28.9099 93.98 26.0699C92.99 24.5399 92.13 22.9299 91.26 21.3299C90.39 19.7299 89.46 18.1899 88.84 16.4899C88.51 15.5999 87.53 15.0699 86.64 15.5899C84.71 16.7299 82.7 17.7099 80.72 18.7699C78.89 19.7499 77.12 20.8499 75.29 21.8399C73.36 22.8799 71.34 23.5999 69.29 24.3599C67.19 25.1399 65.16 26.0899 63.08 26.9299C61.18 27.6999 59.29 28.4299 57.46 29.3399C55.63 30.2499 53.71 31.0699 51.67 31.6499C49.6 32.2299 47.52 32.7399 45.46 33.3799C43.49 33.9999 41.52 34.6699 39.51 35.1599C37.2 35.7199 34.82 35.9599 32.49 36.4299C30.16 36.8999 27.6 37.3199 25.15 37.7299C24.63 37.8199 24.26 38.3199 24.1 38.7799C23.51 40.4699 23.07 42.1999 22.49 43.8899C21.85 45.7199 24.75 46.4999 25.38 44.6899C25.97 42.9999 26.41 41.2699 26.99 39.5799L25.94 40.6299C30.2 39.9199 34.47 39.1999 38.72 38.3999C42.93 37.6099 46.98 36.0099 51.11 34.9199C53.13 34.3799 55.1 33.7899 57 32.9099C58.91 32.0199 60.76 31.0699 62.72 30.2999C64.82 29.4599 66.89 28.5299 68.99 27.6899C70.96 26.8999 73 26.2899 74.94 25.3999C77.17 24.3699 79.24 23.0299 81.38 21.8499C83.62 20.6099 85.93 19.5199 88.13 18.2199L85.93 17.3199C87.16 20.6999 89.1 23.9999 91.01 27.0399C92.92 30.0799 94.87 32.9199 97.26 35.3899C98.48 36.6599 99.71 37.9399 101.05 39.0899C102.26 40.1299 103.71 40.8299 104.92 41.8499C106.02 42.7699 105.95 44.2699 106.17 45.5799C106.43 47.1399 107.1 48.8099 108.52 49.6699C111.85 51.6799 114.19 47.5499 115.13 44.9799C116.37 41.5799 116.4 37.8799 115.59 34.3799C113.9 27.0899 109.43 21.3799 104.51 15.9599C102.13 13.3399 99.88 10.7699 96.96 8.72989C94.04 6.68989 90.87 5.3099 87.54 4.0999C84.04 2.8199 80.37 1.8499 76.74 1.0399C73.02 0.189895 69.33 0.0298954 65.55 -0.00010462C58.09 -0.0601046 50.66 1.1699 43.63 3.7199C36.6 6.2699 30.49 9.65989 25.6 15.0499C22.96 17.9699 20.83 21.4899 19.18 25.0499C17.43 28.8099 15.93 32.8299 15.86 37.0199C15.8 40.5599 16.44 44.6599 18.79 47.4499C19.79 48.6299 21.33 49.7399 22.91 48.9599C24.49 48.1799 24.87 46.1899 25.38 44.6799C26 42.8499 23.1 42.0599 22.49 43.8799V43.8899Z" fill="#333333"/>
<path d="M56.57 65.6499C59.22 67.6199 62.56 68.0099 65.77 68.0699C68.98 68.1299 72.33 67.7999 75.12 66.0499C76.75 65.0299 75.25 62.4299 73.61 63.4599C71.26 64.9299 68.48 65.1199 65.77 65.0699C63.04 65.0199 60.33 64.7399 58.08 63.0599C57.43 62.5799 56.4 62.9499 56.03 63.5999C55.58 64.3599 55.92 65.1699 56.57 65.6499Z" fill="#333333"/>
<path d="M75.68 61.7201C76.02 61.8801 76.36 62.0501 76.68 62.2501C76.82 62.3401 76.97 62.4301 77.1 62.5301C77.17 62.5801 77.24 62.6301 77.3 62.6801C77.45 62.7901 77.06 62.4901 77.28 62.6601C77.56 62.9001 77.84 63.1501 78.09 63.4201C78.21 63.5401 78.32 63.6701 78.42 63.8001C78.48 63.8801 78.54 63.9601 78.61 64.0301C78.5 63.9201 78.46 63.8401 78.59 64.0101C78.8 64.3001 78.99 64.5901 79.16 64.9001C79.24 65.0501 79.32 65.2001 79.39 65.3501C79.43 65.4301 79.47 65.5501 79.52 65.6301C79.43 65.5101 79.42 65.3901 79.5 65.6001C79.63 65.9301 79.74 66.2701 79.83 66.6201C79.87 66.7901 79.91 66.9501 79.94 67.1201C79.96 67.2201 79.98 67.3201 80 67.4201C80.06 67.7301 79.96 67.1001 80 67.4301C80.09 68.2101 80.62 68.9701 81.5 68.9301C82.23 68.9001 83.1 68.2601 83 67.4301C82.78 65.6601 82.23 63.9601 81.18 62.5001C80.15 61.0701 78.8 59.8701 77.19 59.1401C76.48 58.8201 75.54 58.9101 75.14 59.6801C74.79 60.3401 74.92 61.3901 75.68 61.7301V61.7201Z" fill="#D6B4A5"/>
<path d="M33.45 145.44C31.31 144.71 29.61 142.99 28.71 140.79C27.82 138.62 27.88 136.04 27.78 134.07C27.68 131.93 27.67 129.88 28.5 128.15C29.34 126.4 30.93 125.09 32.62 123.82C33.82 122.91 35.31 122.49 36.75 122.95C38.19 123.41 39.34 124.71 39.2 126.21C39.08 127.5 37.95 128.64 37.05 129.58C38.38 129.68 40.02 130.2 40.6 131.41C41.18 132.62 40.65 134.4 39.34 134.65C40.4 135.37 41.46 136.21 41.79 137.45C42.12 138.69 41.18 140.3 39.9 140.32C41.05 140.77 41.43 142.41 40.85 143.5C40.27 144.59 39.03 145.13 37.84 145.46C36.39 145.86 34.87 145.93 33.45 145.45V145.44Z" fill="#FFE6D9"/>
<path d="M33.85 144C31.38 143.09 29.98 140.75 29.56 138.25C29.34 136.98 29.35 135.68 29.29 134.39C29.23 132.96 29.12 131.49 29.43 130.09C29.72 128.81 30.38 127.79 31.3 126.87C32.22 125.95 33.39 124.83 34.64 124.42C35.67 124.08 37.14 124.36 37.6 125.47C38.06 126.58 36.69 127.79 35.99 128.53C35.04 129.53 35.78 130.97 37.05 131.09C37.7 131.15 38.75 131.34 39.16 131.93C39.41 132.28 39.44 133.08 38.94 133.22C37.63 133.59 37.55 135.25 38.58 135.96C39.2 136.39 40.07 136.95 40.29 137.72C40.37 138.01 40.33 138.78 39.9 138.83C38.57 138.96 37.67 140.91 39.14 141.63C40.24 142.17 39.26 143.29 38.54 143.64C37.09 144.35 35.37 144.49 33.84 144.02C31.99 143.46 31.2 146.35 33.04 146.91C35.67 147.71 39.3 147.3 41.36 145.3C43.15 143.56 43.05 140.2 40.65 139.04C40.4 139.97 40.15 140.9 39.89 141.84C41.81 141.64 43.26 140.13 43.34 138.16C43.42 136 41.71 134.5 40.09 133.38L39.73 136.12C41.77 135.54 42.77 133.25 42.13 131.28C41.43 129.1 39.1 128.3 37.04 128.1C37.39 128.95 37.75 129.81 38.1 130.66C39.12 129.59 40.24 128.43 40.58 126.94C40.91 125.53 40.46 124.09 39.51 123.02C37.23 120.46 33.7 121.11 31.26 122.99C28.73 124.94 26.76 127.13 26.35 130.41C26.15 131.96 26.25 133.51 26.31 135.07C26.37 136.63 26.44 138.25 26.81 139.8C27.59 143.09 29.88 145.75 33.05 146.91C34.86 147.58 35.65 144.68 33.85 144.02V144Z" fill="#333333"/>
<path d="M94.49 141.11C97.27 141.62 99.62 140.55 101.51 139.18C103.4 137.81 104.79 135.64 105.45 133.19C106.11 130.74 106.17 128.31 105.26 125.95C104.44 123.82 101.93 122.88 99.87 122.17C98.69 121.77 97.37 121.51 96.21 121.96C95.04 122.41 94.01 123.54 93.95 124.79C93.89 126.04 95.03 127.05 96.28 127.06C95.48 127.12 94.6 127.39 93.86 127.71C93.12 128.03 92.37 128.67 92.22 129.46C92.07 130.25 92.72 131.2 93.51 131.31C92.54 131.65 91.47 132.25 91.17 133.23C90.87 134.21 91.48 135.61 92.5 135.44C91.78 136.42 91.16 137.51 91.45 138.69C91.76 139.95 93.22 140.87 94.5 141.1L94.49 141.11Z" fill="#FFE6D9"/>
<path d="M94.09 142.55C97.45 143.09 100.57 141.96 103.14 139.78C105.71 137.6 106.99 134.36 107.35 131.12C107.72 127.81 106.95 124.25 104.01 122.36C102.78 121.57 101.33 121.03 99.94 120.61C98.26 120.1 96.39 120.01 94.84 120.96C93.29 121.91 92.19 123.63 92.5 125.44C92.82 127.3 94.46 128.44 96.27 128.55V125.55C94.37 125.76 92.1 126.4 91.1 128.19C90.11 129.97 91.14 132.26 93.1 132.75V129.86C91.43 130.48 89.71 131.59 89.6 133.56C89.51 135.23 90.65 137.05 92.49 136.94C92.06 136.19 91.63 135.44 91.19 134.68C90.1 136.21 89.38 138.1 90.31 139.9C91.03 141.31 92.59 142.22 94.09 142.54C95.97 142.94 96.78 140.05 94.89 139.65C94.23 139.51 93.39 139.23 93.02 138.6C92.54 137.79 93.33 136.83 93.78 136.19C94.43 135.28 93.57 133.87 92.48 133.93C92.55 133.93 92.61 134.15 92.61 133.94C92.61 133.8 92.58 133.7 92.63 133.56C92.8 133.13 93.5 132.88 93.89 132.74C95.19 132.25 95.43 130.23 93.89 129.85C93.45 129.74 93.86 129.42 94.11 129.24C94.69 128.83 95.56 128.61 96.26 128.54C98.15 128.33 98.22 125.66 96.26 125.54C95.05 125.47 95.44 124.25 96.09 123.72C97.22 122.79 98.71 123.34 99.94 123.77C101.01 124.15 102.15 124.58 103.01 125.34C103.99 126.2 104.3 127.6 104.39 128.86C104.59 131.6 103.8 134.68 101.93 136.75C100.2 138.67 97.5 140.07 94.87 139.65C94.07 139.52 93.26 139.86 93.02 140.7C92.82 141.41 93.26 142.42 94.07 142.55H94.09Z" fill="#333333"/>
</g>
<defs>
<clipPath id="clip0_4_5753">
<rect width="131.54" height="216.5" fill="white"/>
</clipPath>
</defs>
</svg>
