<svg width="132" height="161" viewBox="0 0 132 161" fill="none" xmlns="http://www.w3.org/2000/svg">
<g clip-path="url(#clip0_4_1659)">
<path d="M92.1799 153.37C92.0799 157.21 91.7999 157.2 91.6999 161.04C91.5999 164.88 91.7799 164.88 91.6799 168.72C91.5799 172.56 91.2299 172.55 91.1299 176.39C91.0299 180.23 91.0899 180.23 90.9899 184.07C90.8899 187.91 91.1099 187.91 91.0099 191.75C90.9099 195.59 91.0699 195.59 90.9699 199.44C90.8699 203.29 90.6399 203.27 90.5399 207.12C90.5099 208.12 89.8599 208.82 89.0399 208.83C85.2999 208.83 85.2999 208.86 81.5699 208.87C77.8299 208.87 77.8299 208.92 74.0899 208.93C70.3499 208.93 70.3499 208.87 66.6099 208.88C65.7799 208.88 65.2699 208.14 65.2699 207.12C65.2699 203.7 65.1099 203.7 65.1099 200.28C65.1099 196.86 65.0199 196.86 65.0199 193.44C65.0199 190.02 65.3399 190.02 65.3299 186.6C65.3199 183.18 65.1099 183.18 65.0999 179.76C65.0999 176.34 64.7499 176.34 64.7399 172.92C64.7299 169.5 65.1999 169.5 65.1899 166.08C65.1899 162.66 64.7599 162.66 64.7599 159.23C64.7599 155.81 65.1499 155.81 65.1399 152.38" fill="#AFAFAF"/>
<path d="M90.6799 153.37C90.6199 155.39 90.3699 157.39 90.2599 159.4C90.1399 161.56 90.1799 163.71 90.1999 165.87C90.2499 170.34 89.6199 174.76 89.5599 179.22C89.4399 187.56 89.7699 195.93 89.1599 204.25C89.1299 204.71 89.0999 205.18 89.0799 205.64C89.0599 205.99 89.2299 207.07 88.9599 207.31C88.8999 207.36 87.7399 207.3 87.3799 207.31C86.8099 207.31 86.2299 207.31 85.6599 207.32C83.4299 207.34 81.1999 207.33 78.9699 207.36C76.8499 207.38 74.7299 207.41 72.6099 207.4C71.7299 207.4 70.8499 207.38 69.9699 207.37C69.5099 207.37 69.0499 207.36 68.5799 207.35C68.3499 207.35 68.1199 207.35 67.8799 207.35C67.6099 207.35 67.3299 207.35 67.0599 207.35C66.5599 207.32 66.4399 207.32 66.6899 207.37C66.8699 207.54 66.7499 206.59 66.7499 206.62C66.7499 206.35 66.7499 206.08 66.7499 205.81C66.7499 205.3 66.7299 204.8 66.7099 204.29C66.6699 203.3 66.6199 202.32 66.6099 201.33C66.5799 199.23 66.5499 197.13 66.5199 195.04C66.4899 192.95 66.6599 190.71 66.7799 188.52C66.8999 186.33 66.7399 184.16 66.6399 181.98C66.5299 179.54 66.4099 177.12 66.2799 174.68C66.1499 172.24 66.5599 169.8 66.6599 167.32C66.7599 164.88 66.3299 162.52 66.2599 160.09C66.1799 157.49 66.6199 154.94 66.6299 152.35C66.6299 150.42 63.6399 150.42 63.6299 152.35C63.6299 154.72 63.2299 157.06 63.2499 159.43C63.2699 161.8 63.6899 163.98 63.6799 166.28C63.6699 168.65 63.1999 170.98 63.2299 173.36C63.2599 175.65 63.5699 177.91 63.5899 180.2C63.6099 182.48 63.8299 184.76 63.8099 187.04C63.7899 189.32 63.4899 191.59 63.4999 193.88C63.4999 196.16 63.5799 198.44 63.5899 200.72C63.6099 202.93 63.5599 205.26 63.7799 207.46C63.8899 208.63 64.4899 209.74 65.6299 210.17C66.7699 210.6 68.2499 210.35 69.4499 210.37C71.7599 210.4 74.0599 210.42 76.3699 210.4C78.6999 210.38 81.0399 210.36 83.3699 210.34C84.2999 210.34 85.2399 210.33 86.1699 210.32C87.3399 210.32 88.7299 210.5 89.8599 210.17C92.5699 209.38 92.0199 205.92 92.1999 203.74C92.3899 201.44 92.4899 199.15 92.4899 196.85C92.4799 192.44 92.3899 188.01 92.4899 183.59C92.5499 181.03 92.5399 178.47 92.6299 175.91C92.7099 173.5 93.0999 171.12 93.1699 168.7C93.2399 166.14 93.1199 163.58 93.1899 161.02C93.2599 158.46 93.5999 155.92 93.6699 153.35C93.7299 151.42 90.7299 151.42 90.6699 153.35L90.6799 153.37Z" fill="#333333"/>
<path d="M66.8602 169.7C66.8002 173.45 66.7002 173.45 66.6402 177.19C66.5802 180.94 66.8102 180.94 66.7502 184.69C66.6902 188.44 66.7002 188.44 66.6402 192.18C66.5802 195.92 66.3102 195.92 66.2502 199.67C66.1902 203.42 66.4702 203.42 66.4002 207.17C66.3802 208.19 65.4902 208.95 64.6602 208.94C60.9202 208.88 60.9202 208.76 57.1902 208.7C53.4602 208.64 53.4402 208.93 49.7002 208.87C45.9602 208.81 45.9702 208.46 42.2302 208.4C41.4202 208.39 40.8802 207.79 40.8702 206.79C40.8202 203.09 40.5202 203.09 40.4702 199.39C40.4202 195.69 40.5402 195.69 40.4902 191.98C40.4402 188.28 40.5202 188.28 40.4702 184.57C40.4202 180.87 40.1102 180.87 40.0602 177.16C40.0102 173.46 40.2102 173.45 40.1602 169.75C40.1102 166.04 40.1502 166.04 40.1002 162.34C40.0502 158.64 39.9402 158.64 39.8902 154.93C39.8802 153.89 40.7202 153 41.5702 153.01C45.0602 153.04 45.0602 152.98 48.5602 153.01C52.0602 153.04 52.0602 153.23 55.5502 153.26C59.0502 153.29 59.0502 153.27 62.5502 153.3C66.0502 153.33 66.0502 153.39 69.5502 153.42" fill="#AFAFAF"/>
<path d="M65.3599 169.7C65.3199 172.04 65.1899 174.38 65.1399 176.72C65.0899 179.06 65.2499 181.17 65.2499 183.4C65.2599 188.07 65.0999 192.72 64.8099 197.38C64.6699 199.7 64.7499 202 64.8499 204.32C64.8799 204.93 65.1999 207.15 64.6999 207.43C64.3299 207.64 63.2699 207.43 62.8199 207.41C62.2999 207.39 61.7899 207.37 61.2699 207.35C58.8599 207.24 56.4499 207.13 54.0399 207.26C51.6299 207.39 49.4099 207.46 47.0899 207.26C46.2199 207.19 45.3599 207.07 44.4999 207.01C43.8399 206.96 43.0799 207.05 42.4399 206.92C41.9599 206.82 42.4399 207.19 42.3499 206.81C42.2499 206.37 42.3299 205.81 42.3099 205.35C42.2099 203.07 41.9599 200.81 41.9399 198.52C41.9099 194.1 42.0099 189.68 41.9599 185.27C41.9399 182.99 41.6599 180.74 41.5699 178.47C41.4799 176.22 41.6099 173.99 41.6399 171.75C41.7099 167.1 41.6099 162.44 41.4399 157.79C41.4199 157.14 41.3999 156.49 41.3899 155.84C41.3899 155.71 41.3099 155.11 41.3799 154.95C41.6099 154.43 41.4099 154.61 42.0399 154.53C43.2199 154.39 44.4999 154.53 45.6899 154.53C48.2399 154.51 50.7699 154.62 53.3199 154.73C58.7099 154.97 64.1399 154.89 69.5399 154.94C71.4699 154.96 71.4699 151.96 69.5399 151.94C64.2399 151.89 58.9099 151.94 53.6199 151.74C51.1599 151.65 48.7199 151.52 46.2499 151.52C45.2399 151.52 44.2399 151.54 43.2299 151.54C41.7199 151.54 40.3299 151.42 39.2399 152.66C38.2499 153.77 38.3799 155.2 38.4099 156.59C38.4399 157.66 38.4899 158.73 38.5299 159.8C38.6199 162.27 38.6099 164.74 38.6199 167.21C38.6499 172.17 38.4799 177.08 38.8599 182.03C39.2299 186.93 38.9999 191.94 38.9499 196.85C38.9199 199.39 39.0899 201.87 39.2599 204.4C39.3499 205.72 39.0899 207.33 39.7799 208.52C40.5999 209.95 42.0499 209.9 43.4999 209.97C45.9999 210.08 48.4599 210.43 50.9799 210.41C53.4799 210.39 55.9599 210.19 58.4599 210.26C59.4799 210.29 60.4999 210.34 61.5299 210.38C62.8199 210.44 64.3699 210.71 65.5999 210.32C68.4599 209.42 67.9499 205.92 67.8199 203.58C67.6699 200.82 67.7699 198.09 67.9899 195.34C68.2099 192.58 68.1699 189.79 68.2099 187.02C68.2499 184.18 68.1299 181.35 68.1299 178.51C68.1299 175.58 68.3099 172.65 68.3699 169.73C68.3999 167.8 65.3999 167.8 65.3699 169.73L65.3599 169.7Z" fill="#333333"/>
<path d="M35.8702 114.84C36.0702 113.59 36.1102 112.31 36.4402 111.06C36.9602 109.11 37.4702 107.09 38.3302 105.27C39.2002 103.43 40.3002 101.65 41.7202 100.19C44.2102 97.6299 47.0002 97.2099 49.8002 97.0099C52.6102 96.8099 55.5802 97.0599 58.6602 96.4099C61.1302 95.8899 63.6702 95.6299 66.2202 95.6799C68.7802 95.7199 71.3302 95.9299 73.7702 96.5899C75.6802 97.0999 78.6102 97.8699 81.1802 99.0999C83.8802 100.4 86.1702 102.22 86.7002 104.36C87.2802 106.7 87.6802 109.08 88.1702 111.44C88.6602 113.8 89.4402 116.11 89.8402 118.48C90.2402 120.85 90.4102 123.27 90.7202 125.66C91.0302 128.05 91.4202 130.44 91.6302 132.84C91.8502 135.24 91.7302 137.66 91.8602 140.07C91.9802 142.48 92.2802 144.88 92.3102 147.29C92.3402 149.76 92.2902 151.97 91.6802 153.71C91.0402 155.54 89.6802 156.88 86.8102 157.48C84.7402 157.91 82.5702 158.17 80.3602 158.27C78.2102 158.37 76.0202 158.43 73.8602 158.4C71.7002 158.37 69.4602 158.29 67.3702 158.3C65.0002 158.31 62.6202 157.98 60.2502 157.95C57.8802 157.91 55.5002 157.97 53.1302 157.88C50.7602 157.79 48.3902 157.6 46.0202 157.47C43.2002 157.47 40.3702 156.51 38.0602 154.82C35.7002 153.1 33.9902 150.77 33.7202 147.8C33.4102 144.42 32.8102 140.91 32.9302 137.51C33.0002 135.47 33.7602 133.73 34.1002 131.74C34.5702 128.92 34.8202 126.1 35.0102 123.29C35.2002 120.48 35.4202 117.68 35.8702 114.86V114.84Z" fill="#FCFCFC"/>
<path d="M37.3199 115.24C38.1699 109.39 39.8999 100.85 46.5799 98.9899C49.5599 98.1599 52.7299 98.5099 55.7799 98.2899C57.5199 98.1599 59.1999 97.78 60.9299 97.51C62.7599 97.23 64.6199 97.1399 66.4699 97.1699C69.7899 97.2399 72.9099 97.8199 76.0799 98.7699C78.8999 99.6199 81.9999 100.68 84.1099 102.84C85.1699 103.93 85.3899 105.16 85.6999 106.62C86.0699 108.35 86.3799 110.09 86.7399 111.82C87.4799 115.34 88.4599 118.69 88.8599 122.29C89.2499 125.8 89.8499 129.3 90.1499 132.82C90.4499 136.34 90.3399 139.89 90.6199 143.42C90.8599 146.49 91.2599 149.97 90.3699 152.96C89.5599 155.68 86.6299 156.06 84.1799 156.41C80.7899 156.89 77.2999 156.92 73.8799 156.88C70.4499 156.83 67.0099 156.85 63.5899 156.61C60.0299 156.36 56.4699 156.5 52.9099 156.36C51.2499 156.29 49.5899 156.18 47.9299 156.07C46.1499 155.96 44.3899 155.96 42.6699 155.44C39.6699 154.53 36.5499 152.33 35.5599 149.23C35.0299 147.59 35.0299 145.76 34.8399 144.06C34.6099 142.04 34.3999 140 34.4399 137.96C34.4799 136.23 35.0299 134.64 35.3999 132.97C35.8299 131.03 36.0299 129.01 36.2299 127.04C36.6099 123.11 36.7299 119.16 37.3399 115.26C37.6299 113.37 34.7399 112.56 34.4499 114.46C33.8499 118.32 33.6599 122.21 33.3199 126.1C33.1499 127.99 32.9699 129.9 32.5999 131.76C32.2299 133.62 31.6299 135.25 31.4799 137.07C31.1799 140.71 31.8399 144.57 32.2899 148.18C32.6899 151.36 34.4999 153.97 37.0299 155.88C40.0399 158.16 43.3199 158.79 46.9999 159.02C50.7999 159.26 54.5799 159.42 58.3899 159.43C62.1999 159.44 66.2299 159.75 70.1499 159.82C73.8899 159.89 77.6199 159.97 81.3499 159.72C84.5399 159.5 88.4899 159.32 91.0799 157.21C93.3599 155.35 93.7699 152.3 93.8499 149.53C93.9599 145.72 93.4099 141.95 93.3499 138.15C93.2799 134.09 92.8699 130.17 92.3299 126.15C91.8299 122.41 91.5899 118.67 90.6499 115C90.1899 113.21 89.7399 111.44 89.3799 109.63C88.9899 107.66 88.7399 105.58 88.1099 103.67C87.0999 100.61 84.0099 98.6899 81.2099 97.4599C78.2899 96.1799 75.0599 95.17 71.8999 94.66C67.5499 93.95 63.0999 94.0599 58.7699 94.8899C54.8399 95.6399 50.8199 95.1399 46.8999 95.8799C42.9799 96.6199 40.0999 99.2299 38.0999 102.59C35.9199 106.25 35.0699 110.31 34.4599 114.47C34.1799 116.36 37.0699 117.17 37.3499 115.27L37.3199 115.24Z" fill="#333333"/>
<path d="M50.2702 125.07C50.3602 127.3 50.2202 129.53 50.3202 131.76C50.4202 133.99 50.5902 136.21 50.6702 138.44C50.7502 140.67 50.7602 142.9 50.8102 145.12C50.8602 147.35 51.1202 149.57 51.1302 151.8C51.1302 154.03 51.0002 156.26 50.9402 158.49C50.8702 161.13 47.7502 162.06 44.3702 162.11C41.2602 162.16 37.8602 161.62 36.2402 161.55C35.6302 161.52 35.0402 161.2 34.6002 160.77C34.2402 160.41 34.0202 159.96 33.9302 159.46C33.6202 157.69 33.3502 155.9 33.0402 154.13C32.7302 152.36 32.5102 150.42 32.2002 148.64C29.3502 148.51 26.5402 147.51 24.4002 145.63C22.2602 143.75 20.7602 141.23 19.8602 138.58C19.2302 136.71 18.5702 134.61 18.4702 132.43C18.3702 130.35 19.0602 128.25 19.4602 126.21C19.8902 124.08 20.1202 121.88 21.1202 120.15C22.1502 118.37 23.5402 116.8 24.8702 115.23C26.2002 113.66 27.8302 112.36 29.2402 110.88C31.2902 108.73 33.1202 106.48 35.1902 104.52C37.2602 102.56 39.4502 100.7 42.2302 99.4899C45.6702 97.9899 49.8302 97.2199 49.9502 102.3C50.0102 104.83 50.0802 107.37 50.1002 109.9C50.1202 112.43 49.5602 114.97 49.5902 117.5C49.6202 120.03 50.1502 122.55 50.2602 125.08L50.2702 125.07Z" fill="#AFAFAF"/>
<path d="M48.7698 125.07C48.8398 127.22 48.7298 129.37 48.8098 131.52C48.8898 133.67 49.0598 135.81 49.1498 137.96C49.3298 142.25 49.4798 146.56 49.6098 150.85C49.6698 152.92 49.5598 154.99 49.4798 157.06C49.4198 158.68 49.4198 159.54 47.7498 160.12C44.4498 161.26 40.5598 160.42 37.1798 160.12C36.3198 160.04 35.6498 160.03 35.3698 159.06C35.0398 157.9 34.9598 156.61 34.7598 155.43C34.3598 153.04 34.0398 150.63 33.6298 148.25C33.5198 147.58 32.7998 147.19 32.1798 147.15C29.1298 146.96 26.3598 145.73 24.2998 143.45C22.2298 141.16 21.1198 138.19 20.3998 135.23C20.0198 133.71 19.8298 132.17 20.0498 130.6C20.2898 128.9 20.7898 127.23 21.0998 125.55C21.3598 124.12 21.5698 122.59 22.2198 121.27C22.9298 119.81 24.0298 118.54 25.0698 117.31C27.1898 114.8 29.6798 112.67 31.8798 110.24C34.0798 107.81 36.0898 105.56 38.5398 103.55C40.4998 101.95 42.7798 100.61 45.2698 100.04C47.0298 99.6301 48.2498 99.9901 48.4298 101.94C48.6098 103.78 48.5298 105.68 48.5598 107.53C48.5898 109.38 48.5698 111.32 48.3798 113.23C48.1898 115.14 48.0098 117.01 48.1498 118.93C48.2998 120.99 48.6498 123.03 48.7498 125.09C48.8498 127.01 51.8498 127.02 51.7498 125.09C51.6498 123.16 51.3198 121.15 51.1598 119.17C50.9998 117.17 51.1698 115.22 51.3698 113.24C51.5798 111.18 51.5798 109.14 51.5398 107.07C51.5098 105.2 51.5798 103.26 51.3598 101.4C51.0598 98.9301 49.5298 97.1101 46.9798 96.9001C44.4298 96.6901 41.6898 97.9301 39.5698 99.1801C36.5398 100.96 33.9498 103.5 31.5898 106.08C30.2498 107.55 28.9598 109.07 27.5498 110.46C26.2398 111.75 24.8498 112.95 23.6498 114.35C22.4498 115.75 21.2698 117.13 20.2698 118.66C19.2998 120.14 18.7798 121.76 18.4298 123.48C17.6898 127.2 16.5398 130.88 17.2098 134.69C17.8698 138.49 19.3898 142.33 21.9098 145.28C24.5198 148.34 28.2098 149.92 32.1798 150.16C31.6998 149.79 31.2198 149.43 30.7298 149.06C31.1398 151.45 31.4598 153.85 31.8598 156.24C32.2098 158.36 32.1698 160.96 34.0998 162.32C35.5598 163.35 37.7898 163.2 39.5098 163.37C41.6798 163.58 43.8898 163.77 46.0598 163.52C47.7798 163.32 49.5898 162.91 50.9198 161.73C52.4098 160.41 52.3998 158.69 52.4698 156.84C52.6498 151.89 52.3098 146.99 52.2298 142.04C52.1798 139.25 52.0398 136.47 51.8898 133.69C51.7398 130.91 51.8398 127.96 51.7398 125.09C51.6698 123.16 48.6698 123.16 48.7398 125.09L48.7698 125.07Z" fill="#333333"/>
<path d="M45.47 97.21C43.58 97.93 42.12 99.41 40.81 100.95C39.5 102.49 38.28 104.16 37.85 106.14C37.56 107.49 37.46 108.95 37.82 110.27C38.66 113.33 41.64 115.31 44.29 117.07C42.01 118.91 39.39 121.31 39.77 124.21C39.94 125.53 40.57 126.84 41.36 127.92C43.39 130.7 45.81 133.23 48.31 135.6" fill="#AFAFAF"/>
<path d="M45.0701 95.7599C42.7201 96.7399 40.9601 98.3999 39.3501 100.35C37.7401 102.3 36.4801 104.51 36.1701 107.16C35.5401 112.53 39.4901 115.68 43.5301 118.36C43.4301 117.57 43.3301 116.79 43.2301 116C40.1701 118.48 37.1701 121.76 38.6601 125.98C39.4001 128.07 40.8401 129.78 42.2501 131.45C43.8101 133.29 45.5001 135 47.2501 136.66C48.6501 137.99 50.7701 135.87 49.3701 134.54C46.7201 132.02 43.6101 129.23 41.9001 125.96C41.1301 124.48 41.0201 123.04 41.9101 121.61C42.8001 120.18 44.1001 119.15 45.3501 118.14C46.1501 117.49 45.7701 116.27 45.0501 115.78C42.0901 113.81 38.7401 111.61 39.1301 107.59C39.3201 105.62 40.2401 103.99 41.4801 102.48C42.7201 100.97 44.0701 99.4099 45.8701 98.6599C47.6701 97.9099 46.8601 95.0299 45.0701 95.7699V95.7599Z" fill="#333333"/>
<path d="M63.07 120.6C63.07 120.09 62.9 119.63 62.74 119.15C62.06 117.05 60.14 115.75 59.48 113.62C58.93 111.87 58.83 109.57 59.12 107.74C59.77 103.66 62.61 101.58 66.32 102.29C69.71 102.94 70.77 105.26 70.89 107.91C71 110.37 70.16 113.16 69.19 115.55C68.28 117.8 68.24 120.22 68.27 122.63C68.3 124.99 68.62 127.37 69.15 129.72C69.68 132.07 70.55 134.4 71.2 136.59C72 139.27 72.16 141.96 71.79 144.81C71.71 145.41 70.68 147.49 69.47 149.57C68.11 151.9 67.02 154.11 67.03 154.13C65.95 152.67 64.72 151.33 63.64 149.87C62.56 148.41 61.65 146.83 60.57 145.37C60.26 144.95 59.87 144.64 59.73 144.05C59.57 143.37 59.79 142.68 59.91 141.98C60.26 139.85 60.23 137.66 60.57 135.54C60.91 133.42 61.29 131.3 61.64 129.17C61.99 127.04 62.49 124.95 62.87 122.83C63 122.1 63.07 121.34 63.07 120.6Z" fill="#95BECE"/>
<path d="M64.57 120.6C64.36 117.94 62.65 116.35 61.37 114.18C60.21 112.21 60.18 109.27 60.78 107.11C61.26 105.39 62.42 103.96 64.25 103.69C66.11 103.42 68.29 104.16 69.01 106C69.89 108.24 69.2 110.91 68.49 113.09C68.08 114.36 67.49 115.57 67.2 116.87C66.85 118.39 66.76 119.96 66.75 121.51C66.73 124.56 67.07 127.61 67.8 130.57C68.48 133.34 69.64 135.98 70.19 138.78C70.51 140.45 70.55 142.18 70.39 143.87C70.28 145.08 69.66 146.12 69.09 147.18C67.95 149.32 66.39 151.42 65.58 153.73L68.32 153.37C66.54 151 64.66 148.76 63.02 146.29C62.46 145.45 61.13 144.24 61.19 143.21C61.27 141.74 61.63 140.24 61.74 138.75C61.97 135.66 62.56 132.62 63.08 129.56C63.6 126.5 64.5 123.62 64.56 120.59C64.6 118.66 61.6 118.66 61.56 120.59C61.5 123.72 60.5 126.9 59.98 129.98C59.44 133.21 58.94 136.4 58.67 139.66C58.55 141.07 58.02 142.62 58.23 144.03C58.41 145.31 59.36 146.19 60.06 147.22C60.95 148.53 61.78 149.87 62.74 151.12C63.71 152.39 64.78 153.59 65.74 154.87C66.52 155.91 68.03 155.8 68.48 154.51C68.25 155.17 68.73 154.05 68.82 153.88C69.09 153.35 69.38 152.82 69.66 152.29C70.46 150.83 71.33 149.4 72.08 147.92C72.58 146.94 73.14 145.91 73.28 144.8C73.51 143.12 73.53 141.41 73.34 139.72C72.97 136.43 71.63 133.39 70.8 130.2C69.93 126.85 69.59 123.37 69.79 119.91C69.98 116.59 71.73 113.68 72.21 110.41C72.56 108.03 72.44 105.35 70.94 103.36C68.04 99.51 61.62 99.85 59 103.78C57.33 106.28 57.2 109.63 57.68 112.5C57.93 114 58.49 115.33 59.38 116.56C60.27 117.79 61.45 119.02 61.57 120.58C61.72 122.49 64.72 122.51 64.57 120.58V120.6Z" fill="#333333"/>
<path d="M81.9899 125.06C81.8999 127.29 82.1299 129.53 82.0299 131.75C81.9299 133.97 81.5599 136.19 81.4799 138.42C81.3999 140.65 81.7599 142.89 81.7099 145.12C81.6599 147.35 81.4899 149.57 81.4799 151.8C81.4799 154.03 81.5899 156.25 81.6499 158.48C81.7199 161 84.0199 161.91 86.8599 162.11C89.4999 162.3 92.4699 161.65 94.0199 161.72C95.1899 161.78 96.5899 162.01 97.3099 161.08C97.7399 160.53 97.7799 159.77 97.8499 159.08C98.0499 157.13 98.0899 155.16 98.2899 153.21C98.3199 152.87 98.3799 152.39 98.6199 152.15C98.7999 151.96 99.1799 151.98 99.4299 151.9C101.59 151.17 103.58 150.05 105.38 148.65C107.18 147.26 108.75 145.59 110.02 143.71C111.3 141.82 112.4 139.79 112.98 137.59C113.56 135.39 113.65 133.1 113.36 130.8C113.06 128.42 112.18 126.18 111.27 123.96C110.38 121.79 109.41 119.75 108.29 117.83C107.13 115.83 106 113.85 104.6 112.08C103.2 110.31 101.53 108.74 99.8799 107.13C98.2799 105.57 96.7099 103.91 94.8799 102.46C93.1999 101.13 90.3299 99.39 87.8599 98.58C85.0999 97.68 82.9799 98.13 82.8799 102.3C82.8199 104.83 82.7099 107.36 82.6899 109.89C82.6699 112.42 82.4599 114.95 82.4299 117.48C82.3999 120.01 82.0899 122.53 81.9899 125.06Z" fill="#AFAFAF"/>
<path d="M80.49 125.06C80.39 128.26 80.62 131.41 80.3 134.61C80.14 136.19 79.95 137.78 79.97 139.38C79.98 141.06 80.2 142.73 80.21 144.4C80.24 147.58 79.93 150.76 80.01 153.94C80.07 156.36 79.57 159.7 81.41 161.61C84.76 165.1 90.83 163.14 95.03 163.27C96.1 163.3 97.17 163.17 98.03 162.48C99.08 161.63 99.25 160.34 99.38 159.07C99.53 157.52 99.6 155.97 99.71 154.42C99.72 154.24 99.91 153.29 99.82 153.2L99.85 153.03L99.57 153.39C100.21 153.42 101.21 152.82 101.79 152.56C106.94 150.26 111.14 145.87 113.44 140.74C114.65 138.04 115.17 135.12 115.01 132.17C114.84 129.14 113.89 126.34 112.74 123.55C110.46 118.02 107.48 112.59 103.25 108.3C99.24 104.23 95.23 100.04 89.89 97.74C88.03 96.94 85.64 96.1 83.71 97.17C81.47 98.42 81.42 101.22 81.36 103.46C81.26 107.02 81.22 110.58 81.06 114.13C80.89 117.77 80.67 121.4 80.51 125.03C80.42 126.96 83.42 126.96 83.51 125.03C83.77 119.41 84.12 113.82 84.23 108.2C84.26 106.86 84.3 105.51 84.34 104.17C84.37 103.03 84.25 101.75 84.61 100.65C85.03 99.38 86.1 99.59 87.21 99.91C91.93 101.3 95.43 104.82 98.84 108.15C100.81 110.08 102.83 111.97 104.4 114.26C105.93 116.49 107.31 118.89 108.5 121.32C110.83 126.08 112.92 131.35 111.67 136.72C110.53 141.62 106.95 146.04 102.72 148.66C101.69 149.3 100.6 149.88 99.45 150.28C98.4 150.65 97.49 150.76 97.05 151.94C96.63 153.06 96.7 154.45 96.63 155.62C96.55 156.85 96.73 158.54 96.3 159.7C95.98 160.55 95 160.22 94.21 160.19C93.22 160.15 92.25 160.27 91.27 160.38C89.12 160.61 86.66 160.93 84.59 160.12C83.77 159.8 83.27 159.34 83.18 158.44C83.01 156.88 83.06 155.24 83.03 153.67C82.96 150.48 83.3 147.31 83.24 144.13C83.21 142.53 83.02 140.94 83 139.35C82.98 137.76 83.17 136.17 83.33 134.58C83.65 131.38 83.42 128.23 83.52 125.03C83.58 123.1 80.58 123.1 80.52 125.03L80.49 125.06Z" fill="#333333"/>
<path d="M86.8 97.4099C88.69 98.1299 90.33 99.3199 91.65 100.85C92.97 102.39 93.94 104.18 94.36 106.16C94.65 107.51 94.86 108.93 94.49 110.26C93.65 113.32 90.86 115.33 88.21 117.08C90.49 118.92 92.91 121.29 92.52 124.2C92.35 125.52 91.67 126.77 90.89 127.85C88.86 130.63 86.48 133.18 83.98 135.54" fill="#AFAFAF"/>
<path d="M86.3999 98.8499C89.9199 100.27 92.4099 103.53 93.0499 107.24C93.7599 111.36 90.5299 113.74 87.4599 115.79C86.7299 116.28 86.3599 117.5 87.1599 118.15C88.3999 119.16 89.6799 120.24 90.4899 121.64C91.3599 123.14 91.1299 124.63 90.2799 126.09C88.4299 129.25 85.5699 131.99 82.9399 134.49C81.5399 135.82 83.6599 137.94 85.0599 136.61C86.7999 134.95 88.4799 133.23 90.0199 131.39C91.3599 129.79 92.7999 128.12 93.5599 126.15C95.1799 121.97 92.3799 118.55 89.2799 116.03C89.1799 116.82 89.0799 117.6 88.9799 118.39C93.0999 115.64 96.8599 112.33 96.0199 106.91C95.2499 101.91 91.8699 97.8499 87.1999 95.9699C85.4099 95.2499 84.6299 98.1499 86.3999 98.8599V98.8499Z" fill="#333333"/>
<path d="M83.13 98.76C83.76 100.8 84.22 102.94 84.25 105.07C84.28 107.37 83.85 109.91 82.39 111.68C81.11 113.23 79.08 113.8 77.07 113.89C75.13 113.97 73.16 113.43 71.5 112.42C69.84 111.41 68.44 110.01 67.2 108.45C65.96 106.89 65 105.39 63.97 103.72C63.79 107.71 62.62 110.14 59.47 112.64C58.7 113.25 57.83 113.82 56.92 114.17C54.47 115.11 51.56 114.17 49.64 112.38C47.72 110.6 46.79 108.01 46.63 105.39C46.47 102.77 46.95 100.16 47.86 97.7" fill="#FCFCFC"/>
<path d="M81.6901 99.1601C83.0101 103.56 84.1801 111.53 77.8201 112.34C71.7601 113.11 68.0301 107.44 65.2601 102.96C64.4601 101.66 62.5501 102.24 62.4601 103.72C62.3401 105.99 61.8001 108.15 60.2401 109.88C58.5101 111.79 56.1701 113.57 53.4601 112.84C47.0401 111.12 47.5301 102.98 49.2901 98.0901C49.9401 96.2701 47.0401 95.4901 46.4001 97.2901C45.1001 100.92 44.5101 105.12 45.7401 108.86C46.8401 112.22 49.4901 115.06 53.0301 115.82C56.6401 116.59 59.8401 114.71 62.2501 112.12C64.4401 109.76 65.2901 106.89 65.4601 103.72C64.5301 103.97 63.6001 104.22 62.6601 104.48C66.2801 110.33 71.2101 116.64 78.9601 115.18C86.8201 113.7 86.3601 104.28 84.5801 98.3701C84.0301 96.5301 81.1301 97.3101 81.6901 99.1701V99.1601Z" fill="#333333"/>
<path d="M13.6202 41.1801C15.2902 41.1801 16.9702 41.9001 18.4202 42.5201C19.0602 40.2201 19.7302 37.8701 20.6802 35.7201C21.6402 33.5401 22.7102 31.4201 23.9602 29.4201C25.2202 27.4101 26.7002 25.5401 28.2202 23.7401C29.7402 21.9401 31.4002 20.2201 33.1702 18.6501C34.9402 17.0801 36.9002 15.7401 38.8802 14.4401C40.8502 13.1501 42.7802 11.7101 44.9302 10.7101C47.0802 9.71011 49.3402 8.98011 51.6302 8.30011C53.9202 7.62011 56.1902 7.03011 58.5602 6.69011C60.9302 6.35011 63.2602 6.11011 65.6602 6.11011C68.0602 6.11011 70.4402 6.48011 72.7502 6.82011C75.0602 7.16011 77.3502 8.00011 79.6002 8.67011C81.8502 9.34011 84.2802 9.73011 86.4102 10.7201C88.5702 11.7201 90.6102 12.9801 92.5802 14.2801C94.5502 15.5801 96.3702 17.1501 98.1402 18.7101C99.9102 20.2801 101.4 22.1201 102.93 23.9301C104.46 25.7301 106.22 27.3801 107.48 29.3901C108.74 31.4001 109.52 33.6601 110.48 35.8401C111.43 37.9901 112.5 39.9901 113.14 42.2901C114.62 41.6401 116.12 41.6401 117.84 41.6401C120.05 41.6401 122.19 41.9201 123.97 42.9601C125.75 44.0001 127.5 45.5501 128.56 47.4001C129.62 49.2501 130.03 51.3901 130.03 53.6001C130.03 55.8101 129.52 57.9801 128.5 59.7601C127.48 61.5401 125.84 63.2201 124.01 64.2801C122.18 65.3401 120.06 65.5701 117.85 65.5701C116.48 65.5701 115.38 65.6801 114.16 65.2501C113.68 67.7501 112.68 69.9601 111.85 72.3201C111 74.7101 110.1 77.0601 108.91 79.2701C107.71 81.5001 106.53 83.7701 105.02 85.7701C103.5 87.7801 101.82 89.7201 100.01 91.4801C98.2002 93.2401 96.0402 94.6101 93.9902 96.0801C91.9402 97.5301 89.8302 98.9201 87.5702 100.05C85.3302 101.17 82.9602 102.04 80.5402 102.81C78.1602 103.57 75.7102 104.14 73.1902 104.53C70.6702 104.92 68.2302 105.4 65.6702 105.4C63.1102 105.4 60.5802 105.09 58.1202 104.71C55.6002 104.32 53.1002 103.82 50.7302 103.07C48.3102 102.3 45.9602 101.3 43.7302 100.18C41.4702 99.0501 39.3802 97.5901 37.3402 96.1401C35.2802 94.6801 33.2602 93.1501 31.4502 91.4001C29.6402 89.6501 28.0502 87.6701 26.5302 85.6601C25.0102 83.6601 23.6302 81.5501 22.4302 79.3201C21.2302 77.0901 20.4202 74.7401 19.5702 72.3501C18.7302 70.0001 17.7502 67.7501 17.2702 65.2501C16.0802 65.6401 14.9602 66.0301 13.6402 66.0301C11.4302 66.0301 9.47023 64.9701 7.69023 63.9401C5.86023 62.8701 4.05023 61.6201 2.99023 59.7801C1.93023 57.9401 1.49023 55.8301 1.49023 53.6201C1.49023 51.4101 2.23023 49.3901 3.25023 47.6101C4.31023 45.7701 5.85023 44.3601 7.69023 43.2901C9.47023 42.2501 11.4402 41.2101 13.6402 41.2101L13.6202 41.1801Z" fill="#FFE6D9"/>
<path d="M13.6198 42.68C15.0398 42.73 16.3698 43.26 17.6598 43.81C18.5398 44.18 19.5798 43.94 19.8598 42.91C20.9598 38.97 22.3198 35.25 24.3398 31.69C26.3598 28.13 28.7798 25.15 31.5098 22.32C34.3398 19.38 37.5598 17.14 40.9198 14.87C42.5898 13.74 44.2598 12.63 46.1098 11.81C48.0198 10.96 50.0298 10.34 52.0198 9.75003C60.2798 7.30003 68.8098 6.86003 77.0898 9.45003C80.8998 10.64 84.7198 11.36 88.2298 13.34C91.7398 15.33 94.9998 17.7 97.8898 20.52C99.4698 22.06 100.83 23.8 102.28 25.46C103.67 27.05 105.2 28.52 106.3 30.34C107.46 32.25 108.21 34.36 109.1 36.4C110.01 38.49 111.06 40.5 111.69 42.7C111.9 43.41 112.77 44.06 113.54 43.75C115.13 43.11 116.81 43.11 118.5 43.16C120.29 43.21 122.01 43.52 123.55 44.47C126.63 46.36 128.36 49.34 128.51 52.94C128.66 56.5 127.37 59.8 124.58 62.08C123.25 63.17 121.72 63.77 120.02 63.97C118.29 64.17 116.22 64.31 114.54 63.81C113.8 63.59 112.85 64.08 112.69 64.86C112.28 66.87 111.55 68.77 110.83 70.69C110.07 72.71 109.39 74.77 108.48 76.73C106.72 80.52 104.56 84.14 101.83 87.32C98.9898 90.62 95.6898 93.09 92.1198 95.54C88.5198 98.02 84.7298 99.86 80.5698 101.21C76.3298 102.59 71.7698 103.5 67.3198 103.83C62.9198 104.15 58.3298 103.41 54.0598 102.42C49.7398 101.42 45.5098 99.69 41.7498 97.34C38.2498 95.14 34.7498 92.67 31.8598 89.71C28.5698 86.34 25.6598 82.36 23.4898 78.18C22.4298 76.12 21.6898 73.92 20.9098 71.75C20.0898 69.47 19.1698 67.24 18.6898 64.85C18.5298 64.08 17.5798 63.56 16.8398 63.8C15.3398 64.3 13.8798 64.73 12.2898 64.37C10.7698 64.03 9.38977 63.22 8.06977 62.43C5.29977 60.77 3.51977 58.67 3.05977 55.38C2.62977 52.31 3.56977 49.06 5.65977 46.75C7.55977 44.65 10.7298 42.77 13.5998 42.68C15.5298 42.62 15.5298 39.62 13.5998 39.68C9.82977 39.8 5.70977 42.07 3.27977 44.92C0.739769 47.93 -0.400231 51.85 0.119769 55.75C0.659769 59.79 2.79977 62.69 6.21977 64.81C7.84977 65.82 9.61977 66.82 11.4998 67.26C13.6398 67.75 15.5998 67.37 17.6498 66.69L15.7998 65.64C16.2398 67.81 17.0298 69.85 17.7998 71.92C18.5898 74.06 19.3098 76.21 20.2398 78.29C22.0398 82.31 24.7198 85.96 27.5198 89.34C30.4298 92.85 33.9298 95.6 37.6498 98.19C41.4198 100.83 45.4898 102.91 49.8698 104.36C54.2898 105.82 59.1098 106.58 63.7498 106.84C68.4698 107.1 73.4298 106.22 77.9998 105.08C82.4698 103.97 86.8998 102.32 90.8598 99.94C94.8198 97.56 98.5898 95.06 101.71 91.91C105.26 88.32 107.97 84.28 110.31 79.83C111.48 77.62 112.38 75.28 113.22 72.93C114.09 70.52 115.1 68.17 115.61 65.65C114.99 66 114.38 66.35 113.76 66.7C115.85 67.33 118.32 67.18 120.46 66.92C122.69 66.64 124.64 65.85 126.4 64.45C129.92 61.65 131.71 57.41 131.53 52.94C131.34 48.39 129.23 44.6 125.42 42.09C123.53 40.85 121.4 40.32 119.17 40.19C117.05 40.06 114.75 40.06 112.76 40.86L114.61 41.91C114.02 39.89 113.13 38 112.25 36.1C111.37 34.2 110.63 32.12 109.66 30.2C107.86 26.61 104.76 23.69 102.14 20.69C99.3498 17.48 95.9998 14.69 92.4198 12.4C90.6698 11.28 88.8698 10.2 86.9698 9.35003C85.0698 8.50003 82.9298 8.04003 80.8598 7.48003C78.7898 6.92003 76.7798 6.15003 74.6898 5.68003C72.5298 5.19003 70.2598 4.92003 68.0598 4.74003C63.6198 4.36003 58.9698 4.92003 54.6498 5.95003C50.3298 6.98003 45.8298 8.29003 42.0198 10.6C38.4698 12.75 34.8598 15.12 31.7798 17.9C28.2598 21.07 25.0398 24.83 22.5498 28.86C19.9798 33 18.2798 37.46 16.9698 42.13C17.6998 41.83 18.4398 41.53 19.1698 41.23C17.3598 40.46 15.5998 39.76 13.6098 39.69C11.6198 39.62 11.6798 42.62 13.6098 42.69L13.6198 42.68Z" fill="#333333"/>
<path d="M77.8201 55.0199C77.8201 56.8099 79.2001 58.3099 80.9801 58.3099C82.7601 58.3099 84.2801 56.7999 84.2801 55.0199C84.2801 53.2299 82.7601 51.6399 80.9801 51.6399C79.2001 51.6399 77.8201 53.2299 77.8201 55.0199Z" fill="#333333"/>
<path d="M47.1899 55.02C47.1899 56.81 48.5799 58.31 50.3599 58.31C52.1399 58.31 53.8499 56.81 53.8499 55.02C53.8499 53.23 52.1399 51.71 50.3599 51.71C48.5799 51.71 47.1899 53.23 47.1899 55.02Z" fill="#333333"/>
<path d="M68.6601 55.4601C67.7801 54.9001 66.6801 54.5201 65.6201 54.6401C64.9801 54.7101 64.4601 54.8501 63.8801 55.1201C63.3901 55.3401 62.9701 55.6601 62.5401 56.0001C62.2601 56.2201 62.1001 56.7201 62.1001 57.0601C62.1001 57.4301 62.2601 57.8701 62.5401 58.1201C62.8201 58.3701 63.2001 58.5801 63.6001 58.5601L64.0001 58.5101C64.2501 58.4401 64.4701 58.3101 64.6601 58.1201L64.7201 58.0701L64.4201 58.3001C64.7401 58.0501 65.0801 57.8401 65.4501 57.6801L65.0901 57.8301C65.3601 57.7201 65.6301 57.6401 65.9201 57.6001L65.5201 57.6501C65.7801 57.6201 66.0501 57.6101 66.3101 57.6501L65.9101 57.6001C66.2201 57.6401 66.5101 57.7201 66.8001 57.8401L66.4401 57.6901C66.6901 57.8001 66.9201 57.9201 67.1401 58.0601C67.8001 58.4801 68.8201 58.2201 69.1901 57.5201C69.5801 56.7801 69.3601 55.9201 68.6501 55.4701L68.6601 55.4601Z" fill="#333333"/>
<path d="M87.5901 62.23C87.5901 65.06 88.8901 67.57 90.7301 69.42C92.5801 71.28 95.0801 72.2 97.9101 72.2C100.73 72.2 103.29 71.33 105.13 69.47C106.97 67.62 107.96 65.06 107.96 62.23C107.96 59.4 107.07 56.75 105.23 54.9C103.38 53.04 100.73 51.79 97.9101 51.79C95.0901 51.79 92.7001 53.3 90.8601 55.16C89.0201 57.01 87.6001 59.4 87.6001 62.23H87.5901Z" fill="#EDBBA6"/>
<path d="M23.2302 62.23C23.2302 65.06 24.4902 67.48 26.3302 69.34C28.1802 71.2 30.6002 72.64 33.4202 72.64C36.2402 72.64 38.9802 71.51 40.8302 69.65C42.6702 67.8 43.4302 65.05 43.4302 62.23C43.4302 59.4 42.4502 56.88 40.6102 55.02C38.7602 53.16 36.2402 52.01 33.4202 52.01C30.6002 52.01 28.2202 53.3 26.3702 55.16C24.5202 57.02 23.2202 59.4 23.2202 62.22L23.2302 62.23Z" fill="#EDBBA6"/>
<path d="M23.94 44.2901C23.75 44.8101 23.61 45.3601 23.42 45.8801C23.15 46.6401 22.67 47.6801 21.87 47.7301C21.34 47.7601 20.76 47.3501 20.39 46.9801C18.67 45.2801 18.02 43.0201 17.63 40.6501C17.28 38.4701 17.23 36.1201 17.72 33.7001C18.17 31.4601 19 29.2301 19.93 27.0501C20.86 24.8701 21.99 22.7301 23.2 20.8501C24.62 18.6201 26.05 16.6601 27.47 15.3001C29.15 13.6901 30.84 12.0401 32.76 10.7301C34.68 9.42007 36.78 8.35007 38.88 7.33007C40.98 6.31007 43.16 5.47007 45.36 4.71007C47.56 3.95007 49.84 3.39007 52.09 2.88007C54.38 2.36007 56.69 2.00007 58.96 1.72007C61.3 1.44007 63.66 1.49007 66.02 1.51007C68.38 1.53007 70.73 1.54007 73.07 1.87007C75.41 2.20007 77.69 2.75007 79.97 3.39007C82.02 3.97007 84.19 4.45007 86.29 5.22007C88.39 5.99007 90.4501 6.70008 92.4 7.71007C94.35 8.72007 96.24 9.97008 97.93 11.3101C99.87 12.8501 101.44 14.8001 103.12 16.6601C104.8 18.5201 106.52 20.2901 107.99 22.3001C109.29 24.0801 110.61 25.9601 111.67 27.9701C112.73 29.9801 113.47 32.1501 114.02 34.2901C114.57 36.4301 114.81 38.7401 114.53 40.9701C114.26 43.1001 113.63 45.2601 112.32 47.3101C111.97 47.8601 111.44 48.3001 110.83 48.5401C109.47 49.0701 108.3 47.7401 107.87 46.3401C107.44 44.9401 107.56 43.3701 106.97 42.0401C106.31 40.5401 104.48 39.8701 103.18 38.8801C101.36 37.4901 99.76 35.7901 98.16 34.1501C96.5601 32.5101 95.31 30.5801 93.97 28.7201C92.6301 26.8601 91.45 24.9301 90.39 22.9001C89.33 20.8701 88.14 19.0601 87.39 16.9001C85.29 18.1601 83.19 19.1401 81.04 20.3101C78.89 21.4801 76.81 22.8101 74.61 23.8801C72.41 24.9501 70 25.5901 67.76 26.5701C65.52 27.5501 63.26 28.4701 60.97 29.3701C58.68 30.2701 56.58 31.6201 54.26 32.4201C51.94 33.2201 49.53 33.7201 47.18 34.4301C44.83 35.1301 42.51 35.9501 40.14 36.5601C37.76 37.1601 35.3 37.3801 32.9 37.8801C30.5 38.3801 27.98 38.7801 25.56 39.1801C24.98 40.8101 24.53 42.6501 23.95 44.2901H23.94Z" fill="#8E816E"/>
<path d="M22.4902 43.8899C22.2902 44.4899 22.1502 45.1399 21.8802 45.7299C21.5502 46.4499 21.6402 46.1499 21.1702 45.6299C20.2002 44.5699 19.7102 43.1799 19.3802 41.8099C18.6302 38.6499 18.7202 35.4199 19.6102 32.3099C20.5002 29.1999 21.7602 26.3599 23.2902 23.6199C24.7402 21.0299 26.4102 18.4399 28.5302 16.3499C30.7902 14.1199 33.1202 12.1099 35.9002 10.5499C38.7702 8.9299 41.7702 7.5599 44.8802 6.4599C50.8502 4.3399 57.3202 2.9999 63.6702 2.9999C66.9802 2.9999 70.3402 2.9199 73.6202 3.4599C76.9002 3.9999 79.8702 4.8999 82.9602 5.7499C88.8902 7.3899 94.8102 9.93989 99.1302 14.4499C103.45 18.9599 107.82 23.5999 110.6 29.1299C112.03 31.9899 113.07 35.3699 113.16 38.5799C113.2 40.0699 113.02 41.5399 112.63 42.9699C112.44 43.6599 112.21 44.3399 111.9 44.9899C111.63 45.5699 111.14 46.9299 110.45 47.0699C109.26 47.3099 109.08 44.7099 108.97 43.9599C108.76 42.4499 108.42 41.0399 107.3 39.9299C106.36 38.9899 105.11 38.4399 104.05 37.6499C102.64 36.6099 101.41 35.3199 100.19 34.0699C97.8302 31.6499 95.8202 28.9099 93.9802 26.0699C92.9902 24.5399 92.1302 22.9299 91.2602 21.3299C90.3902 19.7299 89.4602 18.1899 88.8402 16.4899C88.5102 15.5999 87.5302 15.0699 86.6402 15.5899C84.7102 16.7299 82.7002 17.7099 80.7202 18.7699C78.8902 19.7499 77.1202 20.8499 75.2902 21.8399C73.3602 22.8799 71.3402 23.5999 69.2902 24.3599C67.1902 25.1399 65.1602 26.0899 63.0802 26.9299C61.1802 27.6999 59.2902 28.4299 57.4602 29.3399C55.6302 30.2499 53.7102 31.0699 51.6702 31.6499C49.6002 32.2299 47.5202 32.7399 45.4602 33.3799C43.4902 33.9999 41.5202 34.6699 39.5102 35.1599C37.2002 35.7199 34.8202 35.9599 32.4902 36.4299C30.1602 36.8999 27.6002 37.3199 25.1502 37.7299C24.6302 37.8199 24.2602 38.3199 24.1002 38.7799C23.5102 40.4699 23.0702 42.1999 22.4902 43.8899C21.8502 45.7199 24.7502 46.4999 25.3802 44.6899C25.9702 42.9999 26.4102 41.2699 26.9902 39.5799L25.9402 40.6299C30.2002 39.9199 34.4702 39.1999 38.7202 38.3999C42.9302 37.6099 46.9802 36.0099 51.1102 34.9199C53.1302 34.3799 55.1002 33.7899 57.0002 32.9099C58.9102 32.0199 60.7602 31.0699 62.7202 30.2999C64.8202 29.4599 66.8902 28.5299 68.9902 27.6899C70.9602 26.8999 73.0002 26.2899 74.9402 25.3999C77.1702 24.3699 79.2402 23.0299 81.3802 21.8499C83.6202 20.6099 85.9302 19.5199 88.1302 18.2199L85.9302 17.3199C87.1602 20.6999 89.1002 23.9999 91.0102 27.0399C92.9202 30.0799 94.8702 32.9199 97.2602 35.3899C98.4802 36.6599 99.7102 37.9399 101.05 39.0899C102.26 40.1299 103.71 40.8299 104.92 41.8499C106.02 42.7699 105.95 44.2699 106.17 45.5799C106.43 47.1399 107.1 48.8099 108.52 49.6699C111.85 51.6799 114.19 47.5499 115.13 44.9799C116.37 41.5799 116.4 37.8799 115.59 34.3799C113.9 27.0899 109.43 21.3799 104.51 15.9599C102.13 13.3399 99.8802 10.7699 96.9602 8.72989C94.0402 6.68989 90.8702 5.3099 87.5402 4.0999C84.0402 2.8199 80.3702 1.8499 76.7402 1.0399C73.0202 0.189895 69.3302 0.0298954 65.5502 -0.00010462C58.0902 -0.0601046 50.6602 1.1699 43.6302 3.7199C36.6002 6.2699 30.4902 9.65989 25.6002 15.0499C22.9602 17.9699 20.8302 21.4899 19.1802 25.0499C17.4302 28.8099 15.9302 32.8299 15.8602 37.0199C15.8002 40.5599 16.4402 44.6599 18.7902 47.4499C19.7902 48.6299 21.3302 49.7399 22.9102 48.9599C24.4902 48.1799 24.8702 46.1899 25.3802 44.6799C26.0002 42.8499 23.1002 42.0599 22.4902 43.8799V43.8899Z" fill="#333333"/>
<path d="M56.57 65.6499C59.22 67.6199 62.56 68.0099 65.77 68.0699C68.98 68.1299 72.33 67.7999 75.12 66.0499C76.75 65.0299 75.25 62.4299 73.61 63.4599C71.26 64.9299 68.48 65.1199 65.77 65.0699C63.04 65.0199 60.33 64.7399 58.08 63.0599C57.43 62.5799 56.4 62.9499 56.03 63.5999C55.58 64.3599 55.92 65.1699 56.57 65.6499Z" fill="#333333"/>
<path d="M75.68 61.7201C76.02 61.8801 76.36 62.0501 76.68 62.2501C76.82 62.3401 76.97 62.4301 77.1 62.5301C77.17 62.5801 77.24 62.6301 77.3 62.6801C77.45 62.7901 77.06 62.4901 77.28 62.6601C77.56 62.9001 77.84 63.1501 78.09 63.4201C78.21 63.5401 78.32 63.6701 78.42 63.8001C78.48 63.8801 78.54 63.9601 78.61 64.0301C78.5 63.9201 78.46 63.8401 78.59 64.0101C78.8 64.3001 78.99 64.5901 79.16 64.9001C79.24 65.0501 79.32 65.2001 79.39 65.3501C79.43 65.4301 79.47 65.5501 79.52 65.6301C79.43 65.5101 79.42 65.3901 79.5 65.6001C79.63 65.9301 79.74 66.2701 79.83 66.6201C79.87 66.7901 79.91 66.9501 79.94 67.1201C79.96 67.2201 79.98 67.3201 80 67.4201C80.06 67.7301 79.96 67.1001 80 67.4301C80.09 68.2101 80.62 68.9701 81.5 68.9301C82.23 68.9001 83.1 68.2601 83 67.4301C82.78 65.6601 82.23 63.9601 81.18 62.5001C80.15 61.0701 78.8 59.8701 77.19 59.1401C76.48 58.8201 75.54 58.9101 75.14 59.6801C74.79 60.3401 74.92 61.3901 75.68 61.7301V61.7201Z" fill="#D6B4A5"/>
<path d="M38.9098 146.24C42.1698 146.01 42.1698 146.06 45.4298 145.83C48.6898 145.6 48.6598 145.17 51.9098 144.94C55.1698 144.71 55.1898 145.03 58.4498 144.8C61.7098 144.57 61.6898 144.27 64.9498 144.04C68.2098 143.81 68.2298 144.01 71.4898 143.78C72.8598 143.68 73.9498 142.53 73.8598 141.16C73.6298 137.86 73.3898 137.87 73.1598 134.57C72.9298 131.27 72.9098 131.27 72.6798 127.97C72.4498 124.67 72.7098 124.65 72.4798 121.35C72.2498 118.05 71.9698 118.07 71.7298 114.76C71.4998 111.45 71.7498 111.44 71.5098 108.13C71.2798 104.82 71.3898 104.82 71.1598 101.51C71.0598 100.14 69.7198 99.2601 68.3498 99.3501C65.0898 99.5801 65.0698 99.2401 61.8098 99.4701C58.5498 99.7001 58.5598 99.7801 55.2998 100.01C52.0398 100.24 52.0598 100.54 48.7998 100.77C45.5398 101 45.5298 100.88 42.2698 101.11C39.0098 101.34 38.9998 101.26 35.7398 101.49C34.3698 101.59 33.6198 102.79 33.7198 104.16C33.9498 107.46 33.7598 107.48 33.9898 110.78C34.2198 114.08 34.1898 114.09 34.4198 117.39C34.6498 120.69 34.7598 120.68 34.9998 123.98C35.2398 127.28 35.1098 127.29 35.3398 130.6C35.5698 133.91 35.6298 133.9 35.8598 137.21C36.0898 140.52 35.8998 140.53 36.1298 143.84C36.2298 145.21 37.5298 146.36 38.8998 146.26L38.9098 146.24Z" fill="#FCFCFC"/>
<path d="M38.9102 147.74C41.7502 147.54 44.6302 147.52 47.4402 147.12C50.0502 146.75 52.5302 146.32 55.1902 146.37C57.8502 146.43 60.4102 146.07 63.0302 145.72C65.8502 145.34 68.6802 145.56 71.5002 145.27C72.9202 145.13 74.1802 144.45 74.9002 143.17C75.6702 141.79 75.3202 140.1 75.1202 138.61C74.7902 135.99 74.5802 133.38 74.3902 130.75C74.1902 128.03 74.1802 125.33 74.0602 122.61C73.9402 119.66 73.3402 116.78 73.1802 113.84C73.0302 111.09 72.9902 108.32 72.8702 105.57C72.7602 102.97 73.2202 99.5801 70.4302 98.2501C69.0702 97.6001 67.5702 97.9201 66.1202 97.9201C64.8302 97.9201 63.5602 97.8501 62.2802 97.9201C59.4302 98.0801 56.5302 98.3101 53.6902 98.6301C51.0402 98.9301 48.4602 99.3101 45.7802 99.4001C43.1702 99.4901 40.5702 99.6801 37.9702 99.8201C36.5902 99.8901 35.0202 99.7901 33.8202 100.6C32.4702 101.52 32.1602 103.08 32.2402 104.61C32.3902 107.41 32.4502 110.21 32.6302 113.02C32.8102 115.92 33.0302 118.81 33.3002 121.71C33.6102 124.96 33.6502 128.23 33.8902 131.48C34.1102 134.49 34.4402 137.48 34.4802 140.5C34.5002 142.02 34.3402 143.83 34.9602 145.23C35.6502 146.79 37.1902 147.73 38.8802 147.74C40.8102 147.74 40.8102 144.75 38.8802 144.74C37.3302 144.74 37.5402 142.96 37.5002 141.85C37.4602 140.73 37.4702 139.6 37.4202 138.48C37.2902 135.84 37.0002 133.22 36.8202 130.58C36.6502 128.08 36.6102 125.57 36.4102 123.07C36.2102 120.51 35.9302 117.97 35.7702 115.41C35.6102 112.97 35.3902 110.53 35.3502 108.09C35.3302 107.07 35.3202 106.06 35.2602 105.04C35.2302 104.54 34.9902 103.58 35.4102 103.16C35.8302 102.74 36.8302 102.89 37.3402 102.86C42.1802 102.58 47.1402 102.63 51.9402 101.89C56.6602 101.17 61.4802 100.92 66.2502 100.91C67.1302 100.91 69.0002 100.39 69.5602 101.31C69.8702 101.82 69.7302 102.86 69.7602 103.45C69.7902 103.98 69.8002 104.51 69.8202 105.05C69.9102 107.53 70.0602 109.99 70.1002 112.48C70.1402 114.97 70.5402 117.28 70.8102 119.7C71.1002 122.3 70.9702 124.89 71.1202 127.49C71.2802 130.15 71.4702 132.81 71.7002 135.46C71.7902 136.48 71.9302 137.49 72.0702 138.5C72.1902 139.42 72.8202 141.39 71.9502 142.05C71.1202 142.69 68.9902 142.38 67.9502 142.4C66.4602 142.42 64.9702 142.49 63.4802 142.66C60.7702 142.96 58.1402 143.43 55.3902 143.38C52.6402 143.33 50.1202 143.61 47.4802 144.09C44.6702 144.6 41.7102 144.54 38.8602 144.74C36.9402 144.87 36.9302 147.87 38.8602 147.74H38.9102Z" fill="#333333"/>
<path d="M33.45 145.44C31.31 144.71 29.61 142.99 28.71 140.79C27.82 138.62 27.88 136.04 27.78 134.07C27.68 131.93 27.67 129.88 28.5 128.15C29.34 126.4 30.93 125.09 32.62 123.82C33.82 122.91 35.31 122.49 36.75 122.95C38.19 123.41 39.34 124.71 39.2 126.21C39.08 127.5 37.95 128.64 37.05 129.58C38.38 129.68 40.02 130.2 40.6 131.41C41.18 132.62 40.65 134.4 39.34 134.65C40.4 135.37 41.46 136.21 41.79 137.45C42.12 138.69 41.18 140.3 39.9 140.32C41.05 140.77 41.43 142.41 40.85 143.5C40.27 144.59 39.03 145.13 37.84 145.46C36.39 145.86 34.87 145.93 33.45 145.45V145.44Z" fill="#FFE6D9"/>
<path d="M33.8502 144C31.3802 143.09 29.9802 140.75 29.5602 138.25C29.3402 136.98 29.3502 135.68 29.2902 134.39C29.2302 132.96 29.1202 131.49 29.4302 130.09C29.7202 128.81 30.3802 127.79 31.3002 126.87C32.2202 125.95 33.3902 124.83 34.6402 124.42C35.6702 124.08 37.1402 124.36 37.6002 125.47C38.0602 126.58 36.6902 127.79 35.9902 128.53C35.0402 129.53 35.7802 130.97 37.0502 131.09C37.7002 131.15 38.7502 131.34 39.1602 131.93C39.4102 132.28 39.4402 133.08 38.9402 133.22C37.6302 133.59 37.5502 135.25 38.5802 135.96C39.2002 136.39 40.0702 136.95 40.2902 137.72C40.3702 138.01 40.3302 138.78 39.9002 138.83C38.5702 138.96 37.6702 140.91 39.1402 141.63C40.2402 142.17 39.2602 143.29 38.5402 143.64C37.0902 144.35 35.3702 144.49 33.8402 144.02C31.9902 143.46 31.2002 146.35 33.0402 146.91C35.6702 147.71 39.3002 147.3 41.3602 145.3C43.1502 143.56 43.0502 140.2 40.6502 139.04C40.4002 139.97 40.1502 140.9 39.8902 141.84C41.8102 141.64 43.2602 140.13 43.3402 138.16C43.4202 136 41.7102 134.5 40.0902 133.38L39.7302 136.12C41.7702 135.54 42.7702 133.25 42.1302 131.28C41.4302 129.1 39.1002 128.3 37.0402 128.1C37.3902 128.95 37.7502 129.81 38.1002 130.66C39.1202 129.59 40.2402 128.43 40.5802 126.94C40.9102 125.53 40.4602 124.09 39.5102 123.02C37.2302 120.46 33.7002 121.11 31.2602 122.99C28.7302 124.94 26.7602 127.13 26.3502 130.41C26.1502 131.96 26.2502 133.51 26.3102 135.07C26.3702 136.63 26.4402 138.25 26.8102 139.8C27.5902 143.09 29.8802 145.75 33.0502 146.91C34.8602 147.58 35.6502 144.68 33.8502 144.02V144Z" fill="#333333"/>
<path d="M94.4901 141.11C97.2701 141.62 99.6201 140.55 101.51 139.18C103.4 137.81 104.79 135.64 105.45 133.19C106.11 130.74 106.17 128.31 105.26 125.95C104.44 123.82 101.93 122.88 99.8701 122.17C98.6901 121.77 97.3701 121.51 96.2101 121.96C95.0401 122.41 94.0101 123.54 93.9501 124.79C93.8901 126.04 95.0301 127.05 96.2801 127.06C95.4801 127.12 94.6001 127.39 93.8601 127.71C93.1201 128.03 92.3701 128.67 92.2201 129.46C92.0701 130.25 92.7201 131.2 93.5101 131.31C92.5401 131.65 91.4701 132.25 91.1701 133.23C90.8701 134.21 91.4801 135.61 92.5001 135.44C91.7801 136.42 91.1601 137.51 91.4501 138.69C91.7601 139.95 93.2201 140.87 94.5001 141.1L94.4901 141.11Z" fill="#FFE6D9"/>
<path d="M94.0899 142.55C97.4499 143.09 100.57 141.96 103.14 139.78C105.71 137.6 106.99 134.36 107.35 131.12C107.72 127.81 106.95 124.25 104.01 122.36C102.78 121.57 101.33 121.03 99.9399 120.61C98.2599 120.1 96.3899 120.01 94.8399 120.96C93.2899 121.91 92.1899 123.63 92.4999 125.44C92.8199 127.3 94.4599 128.44 96.2699 128.55V125.55C94.3699 125.76 92.0999 126.4 91.0999 128.19C90.1099 129.97 91.1399 132.26 93.0999 132.75V129.86C91.4299 130.48 89.7099 131.59 89.5999 133.56C89.5099 135.23 90.6499 137.05 92.4899 136.94C92.0599 136.19 91.6299 135.44 91.1899 134.68C90.0999 136.21 89.3799 138.1 90.3099 139.9C91.0299 141.31 92.5899 142.22 94.0899 142.54C95.9699 142.94 96.7799 140.05 94.8899 139.65C94.2299 139.51 93.3899 139.23 93.0199 138.6C92.5399 137.79 93.3299 136.83 93.7799 136.19C94.4299 135.28 93.5699 133.87 92.4799 133.93C92.5499 133.93 92.6099 134.15 92.6099 133.94C92.6099 133.8 92.5799 133.7 92.6299 133.56C92.7999 133.13 93.4999 132.88 93.8899 132.74C95.1899 132.25 95.4299 130.23 93.8899 129.85C93.4499 129.74 93.8599 129.42 94.1099 129.24C94.6899 128.83 95.5599 128.61 96.2599 128.54C98.1499 128.33 98.2199 125.66 96.2599 125.54C95.0499 125.47 95.4399 124.25 96.0899 123.72C97.2199 122.79 98.7099 123.34 99.9399 123.77C101.01 124.15 102.15 124.58 103.01 125.34C103.99 126.2 104.3 127.6 104.39 128.86C104.59 131.6 103.8 134.68 101.93 136.75C100.2 138.67 97.4999 140.07 94.8699 139.65C94.0699 139.52 93.2599 139.86 93.0199 140.7C92.8199 141.41 93.2599 142.42 94.0699 142.55H94.0899Z" fill="#333333"/>
<circle cx="54" cy="123" r="10" stroke="#FD780F" stroke-width="4"/>
</g>
<defs>
<clipPath id="clip0_4_1659">
<rect width="131.54" height="216.5" fill="white"/>
</clipPath>
</defs>
</svg>
