<svg width="132" height="167" viewBox="0 0 132 167" fill="none" xmlns="http://www.w3.org/2000/svg">
<g clip-path="url(#clip0_4_5710)">
<path d="M43.85 7.1214C41.57 7.00455 39.29 6.87797 37.01 6.76113C34.73 6.64429 32.45 6.4885 30.17 6.37166C28.04 6.26455 25.94 6.40087 23.88 6.91692C21.99 7.39403 20.34 8.21192 18.88 9.46797C17.42 10.724 16.34 12.243 15.32 13.8301C14.07 15.7677 13 17.754 12.3 19.9156C11.6 22.0869 11.09 24.2972 10.92 26.5756C10.75 28.854 11.05 31.0935 11.42 33.3427C11.79 35.5919 12.25 37.8119 13.15 39.9053C14.05 41.9988 15.07 44.0727 16.48 45.8935" fill="#333333"/>
<path d="M43.85 5.66088C39 5.40772 34.12 4.95983 29.26 4.87219C24.93 4.7943 20.54 5.83614 17.36 8.83509C14.43 11.6101 12.18 15.5632 10.91 19.3217C9.40001 23.7811 9.12001 28.2017 9.82001 32.8267C10.56 37.7535 12.1 42.5732 15.17 46.6238C16.3 48.1232 18.91 46.6627 17.76 45.1535C15.33 41.9501 13.82 38.1917 13.09 34.2969C12.3 30.1393 12.11 26.1667 13.22 22.048C14.19 18.4064 16.01 14.8232 18.51 11.9314C21.13 8.89351 24.82 7.80298 28.81 7.79325C33.81 7.79325 38.86 8.31904 43.86 8.58193C45.79 8.6793 45.78 5.75825 43.86 5.66088H43.85Z" fill="#333333"/>
<path d="M39.46 150.243C39.5267 152.736 39.59 155.225 39.65 157.711C39.75 161.45 40.03 161.441 40.13 165.18C40.23 168.918 39.86 168.928 39.96 172.667C40.06 176.406 40.16 176.406 40.25 180.145C40.35 183.884 40.07 183.894 40.17 187.623C40.27 191.352 40.52 191.352 40.62 195.091C40.72 198.83 40.54 198.84 40.64 202.579C40.67 203.552 41.53 204.448 42.35 204.448C46.09 204.448 46.09 204.37 49.82 204.38C53.56 204.38 53.56 204.575 57.3 204.585C61.04 204.594 61.04 204.526 64.78 204.536C65.61 204.536 66.14 203.562 66.14 202.569C66.14 199.239 66.2 199.239 66.2 195.909C66.2 192.579 66.52 192.579 66.52 189.249C66.52 185.919 66.45 185.919 66.46 182.589C66.46 179.259 66.55 179.259 66.56 175.929C66.56 172.599 66.25 172.599 66.26 169.269C66.26 165.939 66.48 165.939 66.49 162.609C66.49 159.279 66.61 159.279 66.61 155.939C66.61 152.6 66.66 152.609 66.67 149.27" fill="#95BECE"/>
<path d="M37.96 150.243C38.07 154.547 38.25 158.821 38.54 163.115C38.69 165.394 38.6 167.623 38.48 169.892C38.36 172.132 38.5 174.391 38.62 176.63C38.85 181.128 38.46 185.627 38.79 190.116C38.95 192.306 39.14 194.478 39.15 196.678C39.17 198.733 38.89 200.894 39.19 202.929C39.37 204.127 40.15 205.256 41.35 205.695C42.55 206.133 43.99 205.909 45.21 205.889C47.51 205.85 49.82 205.802 52.12 205.88C54.42 205.957 56.78 206.055 59.12 206.045C60.05 206.045 60.99 206.026 61.92 206.016C63.08 206.006 64.57 206.24 65.66 205.831C68.23 204.877 67.64 201.469 67.68 199.356C67.72 197.136 67.66 194.906 67.87 192.696C68.28 188.275 67.91 183.806 68.03 179.376C68.1 176.903 68.08 174.459 67.88 171.995C67.68 169.532 67.85 167.205 67.96 164.8C68.2 159.639 68.18 154.44 68.19 149.27C68.19 147.39 65.2 147.39 65.19 149.27C65.18 153.427 65.05 157.585 65.01 161.733C64.99 163.836 64.84 165.92 64.79 168.023C64.74 170.145 64.96 172.219 65.05 174.342C65.22 178.568 64.97 182.823 65.02 187.058C65.07 191.323 64.73 195.578 64.66 199.843C64.66 200.281 64.65 200.719 64.64 201.147C64.63 201.576 64.83 202.501 64.59 202.9C64.38 203.26 64.4 203.124 63.88 203.075C63.64 203.056 63.36 203.075 63.12 203.075C62.55 203.075 61.97 203.075 61.4 203.095C59.17 203.124 56.94 203.163 54.71 203.075C52.59 202.997 50.47 202.91 48.35 202.92C47.47 202.92 46.59 202.939 45.71 202.958C45.25 202.958 44.79 202.978 44.32 202.978C43.85 202.978 42.68 203.192 42.34 202.929C41.79 202.481 42.09 200.505 42.1 199.804C42.11 198.927 42.14 198.041 42.14 197.165C42.14 195.062 42.03 192.978 41.84 190.885C41.45 186.571 41.84 182.248 41.66 177.915C41.56 175.578 41.39 173.242 41.43 170.905C41.47 168.568 41.68 166.28 41.57 163.933C41.46 161.587 41.18 159.493 41.12 157.263C41.06 154.927 41 152.58 40.94 150.243C40.89 148.364 37.89 148.364 37.94 150.243H37.96Z" fill="#333333"/>
<path d="M64.55 166.144C64.61 169.795 64.37 169.795 64.43 173.446C64.49 177.097 64.82 177.088 64.89 180.739C64.95 184.39 65.09 184.381 65.15 188.032C65.21 191.683 64.85 191.693 64.91 195.335C64.97 198.976 64.88 198.986 64.94 202.637C64.96 203.63 65.92 204.497 66.75 204.487C70.49 204.429 70.48 204.253 74.22 204.195C77.96 204.137 77.97 204.477 81.71 204.409C85.45 204.341 85.44 203.903 89.18 203.835C89.99 203.825 90.7 203.231 90.72 202.257C90.77 198.655 90.48 198.645 90.53 195.042C90.58 191.44 90.81 191.44 90.86 187.837C90.91 184.235 90.88 184.235 90.93 180.622C90.98 177.02 91.21 177.02 91.26 173.407C91.31 169.805 90.96 169.795 91 166.192C91.05 162.58 91.23 162.59 91.28 158.977C91.33 155.365 91.31 155.365 91.36 151.762C91.37 150.75 90.68 150.058 89.83 150.068C86.34 150.097 86.34 150.049 82.84 150.068C79.34 150.097 79.34 150.204 75.85 150.234C72.36 150.263 72.35 150.302 68.85 150.321C65.35 150.341 65.35 150.263 61.85 150.292" fill="#95BECE"/>
<path d="M63.05 166.143C63.09 168.655 62.88 171.158 62.93 173.67C62.98 176.182 63.33 178.675 63.39 181.187C63.45 183.699 63.63 186.045 63.65 188.48C63.67 190.924 63.38 193.338 63.41 195.782C63.44 198.119 63.14 200.641 63.47 202.958C63.65 204.205 64.52 205.373 65.78 205.782C67.04 206.191 68.58 205.909 69.86 205.84C72.35 205.694 74.85 205.558 77.34 205.724C79.84 205.889 82.33 205.977 84.82 205.675C85.84 205.548 86.86 205.402 87.89 205.344C89.37 205.266 90.84 205.285 91.73 203.922C92.45 202.822 92.24 201.293 92.19 200.047C92.15 199.015 92.06 197.993 92.03 196.96C91.96 194.487 92.2 192.053 92.3 189.59C92.41 187.136 92.37 184.673 92.4 182.219C92.42 179.804 92.62 177.419 92.71 175.004C92.8 172.589 92.57 170.204 92.5 167.789C92.44 165.374 92.66 162.979 92.74 160.574C92.82 158.169 92.81 155.764 92.83 153.359C92.85 151.811 93 150.204 91.57 149.182C90.35 148.315 88.65 148.627 87.23 148.617C84.47 148.617 81.71 148.617 78.96 148.714C73.26 148.929 67.55 148.802 61.84 148.841C59.91 148.851 59.91 151.772 61.84 151.762C66.51 151.733 71.17 151.743 75.84 151.704C78.17 151.684 80.5 151.558 82.83 151.538C84.04 151.528 85.24 151.538 86.45 151.538C86.91 151.538 87.37 151.538 87.82 151.538C88.27 151.538 89.51 151.314 89.84 151.538C90.08 151.704 89.82 154.031 89.82 154.527C89.82 155.482 89.81 156.436 89.79 157.39C89.77 159.59 89.65 161.781 89.55 163.982C89.44 166.309 89.57 168.597 89.7 170.914C89.83 173.232 89.7 175.384 89.53 177.613C89.2 182.17 89.53 186.756 89.19 191.323C89.02 193.562 88.95 195.812 89.07 198.051C89.12 198.918 89.18 199.794 89.2 200.66C89.2 201.03 89.39 202.082 89.17 202.364C89.03 202.54 87.34 202.442 87.03 202.462C84.68 202.666 82.42 202.988 80.05 202.939C77.8 202.89 75.58 202.686 73.32 202.744C72.29 202.773 71.26 202.822 70.23 202.89C69.78 202.919 69.33 202.939 68.88 202.958C68.32 202.978 67.18 203.221 66.7 202.988C66.1 202.705 66.4 200.456 66.4 199.833C66.4 198.869 66.42 197.905 66.4 196.931C66.38 194.361 66.59 191.829 66.62 189.268C66.65 186.708 66.43 184.147 66.37 181.586C66.31 179.006 65.97 176.455 65.91 173.874C65.85 171.294 66.06 168.704 66.02 166.114C65.99 164.235 62.99 164.235 63.02 166.114L63.05 166.143Z" fill="#333333"/>
<path d="M95.86 112.678C95.66 111.461 95.17 110.293 94.84 109.076C94.32 107.177 93.57 105.347 92.71 103.565C91.85 101.783 90.93 100.03 89.51 98.6087C87.02 96.1161 84.4 95.5027 81.6 95.3079C78.8 95.1132 75.78 95.5513 72.7 94.9185C70.23 94.4121 67.72 94.0324 65.17 94.0714C62.61 94.1103 60.05 94.2856 57.61 94.9282C55.07 95.5903 53.08 97.1871 50.68 98.1121C48.94 98.784 47.36 98.414 46.06 99.8842C44.4 101.763 43.55 104.49 42.94 107.294C42.34 110.079 42.11 112.98 41.79 115.307C41.49 117.547 40.96 119.757 40.72 121.997C40.48 124.236 40.35 126.495 40.17 128.744C39.99 130.993 39.91 133.252 39.79 135.502C39.67 137.751 39.66 140.01 39.6 142.269C39.54 144.528 39.48 146.777 39.49 149.036C39.49 152.035 40.72 153.184 42.53 153.768C44.34 154.352 46.49 154.313 48.79 154.43C51.33 154.557 53.85 154.985 56.39 155.053C58.93 155.121 61.47 154.751 64.01 154.761C66.38 154.771 68.75 154.683 71.13 154.644C73.5 154.605 75.88 154.751 78.25 154.664C80.62 154.576 82.99 154.226 85.36 154.089C88.18 154.089 91.19 153.495 93.5 151.86C95.86 150.185 97.22 147.663 97.49 144.781C97.8 141.49 98.71 138.082 98.59 134.771C98.52 132.785 97.73 131.071 97.4 129.143C96.93 126.398 96.72 123.662 96.53 120.916C96.34 118.17 96.31 115.405 95.85 112.669L95.86 112.678Z" fill="#FCFCFC"/>
<path d="M97.31 112.289C96.64 108.774 95.24 105.259 93.63 102.065C92.08 98.9982 89.92 96.2719 86.6 94.9087C83.39 93.5845 79.94 93.8669 76.54 93.8182C72.71 93.7695 69.03 92.5816 65.17 92.6206C61.31 92.6595 57.6 93.0295 54.23 94.714C52.81 95.4248 51.45 96.3595 49.92 96.8464C48.41 97.3235 46.87 97.3137 45.58 98.3361C43.08 100.332 42.14 103.974 41.51 106.914C40.75 110.439 40.56 114.051 39.92 117.605C38.53 125.395 38.3 133.428 38.14 141.315C38.1 143.087 38.05 144.859 38.02 146.631C38 148.325 37.84 150.146 38.41 151.782C39.33 154.381 41.82 155.316 44.42 155.637C46.19 155.852 47.97 155.832 49.74 155.968C51.8 156.124 53.85 156.436 55.91 156.523C57.82 156.601 59.72 156.436 61.63 156.319C63.53 156.212 65.43 156.251 67.33 156.212C71.28 156.134 75.26 156.348 79.2 156.105C81.1 155.988 82.99 155.715 84.89 155.608C86.69 155.501 88.47 155.443 90.22 154.975C93.61 154.06 96.53 151.898 97.97 148.734C98.75 147.02 98.89 145.287 99.14 143.457C99.43 141.324 99.86 139.211 100.03 137.069C100.19 135.034 99.97 133.155 99.43 131.188C98.89 129.221 98.56 127.147 98.36 125.064C97.94 120.818 97.96 116.534 97.3 112.318C97.01 110.468 94.12 111.257 94.41 113.097C94.96 116.593 94.94 120.176 95.24 123.701C95.37 125.278 95.55 126.855 95.78 128.433C96.02 130.049 96.49 131.578 96.85 133.155C97.6 136.456 96.62 139.961 96.18 143.242C95.79 146.134 95.29 148.763 92.75 150.642C90.15 152.57 87.04 152.522 83.95 152.785C80.29 153.096 76.72 153.281 73.04 153.242C69.57 153.203 66.06 153.242 62.59 153.388C60.84 153.456 59.1 153.641 57.35 153.661C55.6 153.68 53.86 153.495 52.12 153.31C50.41 153.135 48.7 153.028 46.98 152.95C45.55 152.882 43.92 152.882 42.59 152.288C40.24 151.256 40.99 147.712 41.03 145.716C41.16 138.462 41.42 131.217 42.04 123.983C42.32 120.702 43.04 117.488 43.44 114.227C43.84 110.936 44.19 107.625 45.27 104.461C45.68 103.243 46.23 101.939 47.12 100.975C48.09 99.9232 49.79 100.04 51.08 99.5824C53.97 98.5406 56.31 96.6808 59.39 96.0869C63.32 95.3274 67.45 95.4637 71.37 96.2037C73.42 96.5932 75.39 96.8074 77.48 96.7977C79.21 96.7977 80.96 96.7003 82.68 96.934C86.32 97.4208 88.85 99.5629 90.54 102.659C92.23 105.756 93.73 109.524 94.41 113.126C94.76 114.976 97.65 114.188 97.3 112.347L97.31 112.289Z" fill="#333333"/>
<path d="M71.43 109.572C72.24 106.914 73.02 104.869 71.66 102.299C70.67 100.42 68.08 98.6087 65.81 98.969C64.1 99.2416 62.85 100.819 61.72 102.503C59.74 105.444 59.99 107.674 60.94 110.059C61.88 112.425 63.23 114.821 63.54 117.703C63.88 120.955 63.14 124.236 62.02 127.177C60.9 130.117 59.49 132.902 58.71 136.027C58.12 138.413 59.12 140.789 60.67 142.911C62.22 145.034 64.39 147.04 65.67 148.442C66.08 148.89 66.58 149.581 67.12 149.552C67.58 149.532 67.97 148.938 68.33 148.568C69.94 146.923 71.59 145.141 72.86 143.057C73.97 141.246 74.56 139.318 74.73 137.41C74.89 135.56 74.62 133.583 74.28 131.509C73.86 128.958 73.47 126.398 73.03 123.856C72.59 121.296 71.74 118.832 71.14 116.33C70.87 115.22 70.7 114.032 70.78 112.873C70.85 111.744 71.11 110.624 71.43 109.572Z" fill="#FFD063"/>
<path d="M72.88 109.962C73.45 108.102 74.08 106.203 73.83 104.237C73.59 102.367 72.64 100.644 71.18 99.4072C69.85 98.2874 68.13 97.4306 66.33 97.4695C64.41 97.5085 62.89 98.6185 61.72 100.021C59.24 103.02 57.99 106.379 59.37 110.127C60.05 111.977 61 113.73 61.57 115.619C62.22 117.751 62.25 119.981 61.88 122.172C61.14 126.456 58.88 130.253 57.62 134.382C57.03 136.32 56.84 138.199 57.51 140.146C58.2 142.132 59.44 143.856 60.81 145.453C62.04 146.894 63.44 148.179 64.71 149.591C65.98 151.003 67.47 151.558 68.94 150.097C71.85 147.205 74.82 143.866 75.83 139.844C76.42 137.498 76.31 135.141 75.97 132.775C75.6 130.146 75.14 127.527 74.71 124.908C74.28 122.308 73.6 119.816 72.92 117.274C72.24 114.733 72.12 112.532 72.87 109.972C73.4 108.161 70.51 107.391 69.98 109.193C69.48 110.887 69.14 112.649 69.31 114.412C69.48 116.252 70.02 118.034 70.52 119.806C71.6 123.701 72.14 127.683 72.79 131.665C73.41 135.482 73.6 139.095 71.45 142.512C70.51 144.021 69.34 145.365 68.12 146.66C67.84 146.962 67.55 147.244 67.27 147.546C67.19 147.624 66.97 147.809 66.93 147.916C66.84 148.228 67.41 148.13 67.4 148.15C67.46 148.004 66.1 146.748 65.94 146.592C63.66 144.245 60.61 141.597 60.1 138.218C59.83 136.446 60.67 134.567 61.29 132.931C61.91 131.295 62.66 129.64 63.31 127.975C64.63 124.596 65.45 120.916 64.98 117.284C64.55 113.983 62.6 111.257 61.86 108.073C61.44 106.242 62.09 104.607 63.12 103.088C64 101.793 65.15 100.118 66.96 100.459C68.62 100.77 70.09 102.163 70.63 103.691C71.28 105.532 70.52 107.43 69.97 109.202C69.42 110.975 72.31 111.783 72.86 109.981L72.88 109.962Z" fill="#333333"/>
<path d="M83.72 122.698C83.61 125.229 83.26 127.761 83.17 130.292C83.08 132.824 83.46 135.375 83.39 137.907C83.32 140.438 82.9 142.97 82.84 145.501C82.79 148.033 82.66 150.574 82.63 153.106C82.61 154.839 82.43 156.455 82.54 158.218C82.56 158.607 82.71 159.104 82.96 159.415C83.29 159.834 83.98 159.951 84.52 160.019C86.72 160.282 88.95 160.126 91.16 160.233C93.37 160.34 95.57 160.408 97.78 160.369C98.21 160.369 98.68 160.564 99.04 160.34C99.48 160.058 99.83 159.571 99.97 159.084C100.75 156.416 100.97 153.622 100.93 150.847C100.85 145.56 104.53 147.156 108.49 145.248C110.32 144.372 112.16 143.32 113.54 141.86C114.92 140.399 115.97 138.569 116.66 136.689C117.41 134.674 117.31 132.493 117.28 130.351C117.25 128.209 116.95 126.135 116.42 124.07C115.78 121.597 115.17 119.26 114.1 117.167C112.97 114.957 111.72 112.834 110.17 110.945C108.62 109.056 106.56 107.644 104.68 105.999C102.87 104.412 101.12 102.669 99.05 101.208C98.03 100.488 95.96 99.0273 93.67 97.8199C91.65 96.7489 89.43 95.7752 87.66 95.6291C85.51 95.4539 83.7 96.5736 83.8 99.7575C83.88 102.309 84.23 104.85 84.22 107.411C84.21 109.962 84.15 112.513 84.08 115.064C84.01 117.615 83.86 120.166 83.75 122.717L83.72 122.698Z" fill="#95BECE"/>
<path d="M82.22 122.698C82.06 126.105 81.54 129.484 81.7 132.912C81.78 134.577 81.92 136.242 81.88 137.907C81.84 139.572 81.61 141.392 81.47 143.126C81.2 146.436 81.2 149.786 81.12 153.106C81.07 155.443 80.04 159.717 82.72 161.051C83.93 161.655 85.55 161.596 86.86 161.626C88.6 161.664 90.34 161.655 92.08 161.733C93.82 161.811 95.39 161.849 97.04 161.83C98.52 161.82 99.63 162.044 100.66 160.788C101.56 159.698 101.77 158.091 101.99 156.747C102.26 155.092 102.39 153.427 102.4 151.752C102.4 150.827 102.2 149.6 102.75 148.773C103.1 148.247 103.73 148.091 104.32 147.945C106.43 147.4 108.36 146.962 110.31 145.939C112.88 144.586 115 142.775 116.51 140.312C119.83 134.917 119.05 128.189 117.49 122.357C115.96 116.622 113.08 111.101 108.42 107.187C103.76 103.273 99.8 99.4363 94.6 96.6418C92.12 95.3079 88.88 93.6039 85.94 94.2563C83.28 94.8502 82.24 97.2844 82.26 99.7284C82.28 101.647 82.53 103.555 82.63 105.463C82.72 107.372 82.67 109.29 82.63 111.208C82.56 115.035 82.37 118.861 82.21 122.688C82.13 124.567 85.13 124.567 85.21 122.688C85.47 116.661 85.97 110.546 85.57 104.509C85.48 103.078 85.33 101.647 85.28 100.205C85.25 99.3194 85.15 98.0926 85.91 97.4305C87.35 96.1939 90.31 97.7713 91.65 98.4237C93.91 99.5142 96.03 100.858 98.07 102.299C100.29 103.867 102.18 105.824 104.26 107.567C106.34 109.309 108.44 110.945 110.02 113.194C111.58 115.424 112.96 117.858 113.81 120.429C114.7 123.107 115.46 125.92 115.68 128.734C115.88 131.324 116.03 134.187 115.04 136.65C113.22 141.178 109.24 143.885 104.49 144.907C102.96 145.238 101.39 145.657 100.41 146.952C99.08 148.734 99.46 151.08 99.37 153.145C99.31 154.557 99.15 155.959 98.84 157.332C98.72 157.867 98.64 158.568 98.29 158.997L98.2 159.094C98.61 158.967 98.57 158.909 98.08 158.909C97.69 158.812 97.2 158.889 96.81 158.899C93.81 158.919 90.82 158.724 87.82 158.704C87.03 158.704 86.24 158.685 85.45 158.627C84.77 158.578 84.11 158.704 84.02 157.964C83.83 156.368 84.09 154.693 84.13 153.086C84.2 149.766 84.21 146.417 84.48 143.106C84.62 141.363 84.84 139.63 84.89 137.887C84.93 136.3 84.8 134.713 84.72 133.126C84.55 129.62 85.06 126.174 85.23 122.678C85.32 120.799 82.32 120.799 82.23 122.678L82.22 122.698Z" fill="#333333"/>
<path d="M90.12 95.3469C91.97 96.1551 93.65 97.5182 94.88 99.0859C96.11 100.654 96.65 102.65 96.96 104.597C97.17 105.921 97.26 107.275 96.82 108.54C95.8 111.471 93.15 113.321 90.4 114.879C92.57 116.797 94.72 119.222 94.18 122.016C93.93 123.292 93.11 124.421 92.27 125.424C90.08 128.014 87.73 130.516 85.1 132.688" fill="#95BECE"/>
<path d="M89.36 96.6126C93.14 98.3555 95.16 101.491 95.58 105.493C96 109.494 92.83 111.802 89.65 113.633C88.85 114.09 88.63 115.288 89.35 115.931C90.51 116.972 91.74 118.102 92.39 119.533C93.12 121.149 92.62 122.581 91.59 123.934C89.44 126.768 86.78 129.387 84.04 131.665C82.57 132.892 84.7 134.947 86.16 133.729C87.87 132.308 89.48 130.76 90.99 129.134C92.42 127.585 94.1 125.95 95.04 124.061C97.02 120.088 94.44 116.515 91.48 113.866C91.38 114.636 91.28 115.395 91.18 116.164C95.25 113.818 99.09 110.546 98.6 105.502C98.38 103.224 97.84 100.799 96.54 98.8521C95.18 96.8073 93.15 95.1423 90.9 94.1005C89.16 93.3021 87.64 95.8142 89.39 96.6223L89.36 96.6126Z" fill="#333333"/>
<path d="M49.13 122.698C49.23 124.966 49.11 127.255 49.21 129.523C49.31 131.792 49.47 134.061 49.55 136.339C49.63 138.617 49.68 140.886 49.74 143.155C49.8 145.423 50.17 147.702 50.16 149.971C50.16 153.193 49.65 156.3 49.36 159.542C49.33 159.912 49.53 160.311 49.27 160.584C48.98 160.905 48.53 161.158 48.09 161.207C46.68 161.353 43 161.752 39.47 161.898C35.69 162.054 31.92 161.791 31.35 160.019C31.13 159.328 31.22 158.539 31.24 157.809C31.28 155.949 31.49 153.622 31.57 151.334C31.65 149.046 31.81 146.514 31.14 144.732C29 144.703 26.6 144.976 24.44 144.596C22.28 144.216 20.27 143.155 18.38 142.201C16.49 141.246 14.81 139.951 13.56 138.14C12.53 136.651 11.89 135.034 11.57 133.262C11.25 131.49 11.05 129.708 11.27 127.946C11.49 126.183 11.77 124.372 12.31 122.659C12.85 120.945 13.57 119.29 14.22 117.615C14.79 116.145 15.53 114.733 16.1 113.263C16.45 112.357 16.81 111.471 17.45 110.731C18.28 109.777 19.43 109.232 20.6 108.716C22.4 107.917 24.13 106.885 25.99 106.116C27.85 105.347 29.68 104.616 31.44 103.721C33.23 102.815 35.11 102.075 36.67 100.877C38.35 99.5824 41.06 97.6837 43.53 96.9048C46.29 96.0285 48.83 96.4569 48.93 100.517C48.99 102.981 49.03 105.454 49.04 107.917C49.06 110.381 48.74 112.854 48.77 115.317C48.8 117.781 49.02 120.244 49.12 122.707L49.13 122.698Z" fill="#95BECE"/>
<path d="M47.63 122.698C47.72 125.122 47.62 127.547 47.73 129.981C47.84 132.405 48 134.82 48.08 137.245C48.16 139.669 48.14 142.094 48.3 144.518C48.46 146.962 48.73 149.357 48.61 151.801C48.48 154.235 48.08 156.64 47.91 159.075C47.91 159.201 47.92 159.854 47.89 159.912C47.92 159.863 48.1 159.678 47.91 159.766C47.71 159.873 47.25 159.834 47.03 159.854C46.01 159.961 44.99 160.058 43.97 160.146C41.63 160.34 39.26 160.535 36.9 160.467C35.87 160.438 33.04 160.555 32.73 159.299C32.47 158.276 32.78 156.855 32.84 155.813C32.91 154.547 33 153.281 33.06 152.025C33.18 149.494 33.44 146.787 32.61 144.343C32.4 143.729 31.85 143.272 31.16 143.272C29.37 143.272 27.57 143.437 25.78 143.291C23.97 143.145 22.3 142.493 20.69 141.704C17.77 140.283 15.21 138.637 13.85 135.619C10.82 128.871 14.15 121.422 16.91 115.191C17.56 113.72 17.95 112.007 19.34 111.014C20.68 110.069 22.37 109.504 23.82 108.764C27.06 107.119 30.47 105.804 33.74 104.227C36.63 102.844 38.97 100.751 41.78 99.2417C42.98 98.5991 46.16 96.9341 47.11 98.7841C47.81 100.147 47.47 102.27 47.5 103.74C47.54 105.902 47.59 108.054 47.49 110.215C47.39 112.221 47.24 114.217 47.3 116.223C47.36 118.384 47.53 120.536 47.63 122.688C47.71 124.558 50.71 124.567 50.63 122.688C50.53 120.536 50.36 118.375 50.3 116.223C50.24 114.139 50.4 112.065 50.5 109.981C50.6 107.83 50.54 105.668 50.5 103.506C50.47 101.764 50.65 99.8259 50.07 98.1415C49.17 95.5223 46.67 94.7044 44.06 95.2301C40.64 95.9215 38.02 98.2291 35.23 100.079C31.85 102.319 27.84 103.594 24.17 105.298C22.37 106.135 20.57 107.012 18.8 107.908C17.1 108.774 15.88 110.011 15.11 111.724C11.9 118.969 8.17 126.778 10.4 134.82C11.48 138.715 14.2 141.675 17.82 143.525C19.79 144.538 21.84 145.57 24.05 145.969C26.4 146.397 28.78 146.144 31.14 146.154L29.69 145.083C30.5 147.468 30.13 150.214 30 152.678C29.93 153.992 29.83 155.297 29.77 156.611C29.72 157.711 29.56 158.929 29.8 160.019C30.22 161.889 32.01 162.726 33.79 163.057C36.26 163.515 38.8 163.388 41.29 163.232C43.49 163.096 45.69 162.911 47.87 162.658C48.89 162.541 49.96 162.19 50.54 161.285C50.82 160.847 50.84 160.37 50.85 159.873C50.86 159.133 50.94 158.403 51.02 157.663C51.31 154.946 51.68 152.22 51.63 149.474C51.58 146.748 51.23 144.031 51.17 141.295C51.1 138.267 50.99 135.239 50.82 132.211C50.65 129.027 50.72 125.843 50.6 122.659C50.53 120.78 47.53 120.78 47.6 122.659L47.63 122.698Z" fill="#333333"/>
<path d="M44.58 95.7168C42.69 96.4178 41.07 97.6155 39.75 99.115C38.43 100.614 37.16 102.289 36.74 104.217C36.45 105.532 36.4 107.012 36.77 108.297C37.61 111.276 40.42 113.204 43.07 114.918C40.79 116.709 38.43 119.017 38.81 121.841C38.98 123.126 39.94 124.168 40.73 125.219C42.76 127.926 45.02 130.448 47.52 132.756" fill="#95BECE"/>
<path d="M44.18 94.3146C39.75 96.0575 35.68 100.283 35.1 105.025C34.45 110.293 38.21 113.516 42.31 116.184C42.21 115.414 42.11 114.655 42.01 113.886C39.09 116.203 35.93 119.806 37.86 123.681C38.76 125.473 40.3 127.128 41.59 128.676C43.1 130.477 44.73 132.181 46.46 133.798C47.86 135.093 49.98 133.038 48.58 131.733C45.89 129.231 43.48 126.485 41.3 123.545C40.32 122.23 39.95 121.033 40.75 119.514C41.55 117.995 42.86 116.972 44.13 115.96C44.93 115.327 44.55 114.139 43.83 113.662C40.78 111.685 37.63 109.407 38.05 105.434C38.42 101.929 41.7 98.4139 44.97 97.1286C46.74 96.4373 45.96 93.6039 44.17 94.3146H44.18Z" fill="#333333"/>
<path d="M48.56 97.1578C47.93 99.1442 47.08 101.13 47.05 103.204C47.02 105.444 47.51 107.937 48.98 109.66C50.26 111.169 52.31 111.656 54.33 111.744C56.27 111.822 58.19 111.267 59.85 110.293C61.55 109.29 63.15 108.17 64.39 106.651C65.61 105.152 66.61 103.409 67.64 101.783C67.82 105.668 68.99 107.878 72.14 110.312C72.91 110.906 73.67 111.432 74.59 111.773C77.04 112.688 79.82 112.036 81.74 110.303C83.66 108.569 84.49 106.048 84.64 103.506C84.79 100.965 84.15 98.521 83.24 96.1257" fill="#FCFCFC"/>
<path d="M47.12 96.7782C46.01 100.225 45.04 103.419 46.01 107.031C46.86 110.176 49.09 112.464 52.43 113.019C55.97 113.613 59.13 112.63 62.04 110.673C65.18 108.56 66.98 105.648 68.94 102.533L66.14 101.793C66.31 104.782 67.12 107.479 69.24 109.718C71.61 112.221 74.79 114.139 78.4 113.516C82.01 112.893 84.53 110.157 85.57 106.895C86.75 103.185 86.04 99.3098 84.71 95.7461C84.06 93.9935 81.16 94.753 81.82 96.5251C82.86 99.3098 83.59 102.25 82.93 105.21C82.36 107.752 80.74 110.079 77.99 110.643C75.24 111.208 73.07 109.446 71.38 107.664C69.82 106.018 69.28 103.993 69.16 101.802C69.08 100.371 67.17 99.7966 66.36 101.062C64.83 103.497 63.45 106.028 61.06 107.781C58.85 109.407 56.41 110.566 53.58 110.254C50.9 109.962 49.4 108.404 48.81 105.882C48.13 102.942 49.11 100.332 50.01 97.5572C50.59 95.7559 47.7 94.9866 47.12 96.7782Z" fill="#333333"/>
<path d="M117.78 41.1126C116.11 41.1126 114.53 41.5897 113.08 42.1934C112.44 39.9539 111.74 37.7534 110.79 35.66C109.83 33.5373 108.79 31.4342 107.54 29.4966C106.29 27.5589 104.7 25.7868 103.17 24.0342C101.64 22.2718 100.15 20.4316 98.38 18.9126C96.61 17.3839 94.45 16.3226 92.47 15.0568C90.49 13.791 88.47 12.6518 86.31 11.6781C84.18 10.7142 82.06 9.64314 79.78 8.98103C77.5 8.31893 75.18 7.98787 72.81 7.65682C70.5 7.33551 68.14 7.18945 65.74 7.18945C63.34 7.18945 60.97 7.27708 58.66 7.60814C56.29 7.93919 53.98 8.46498 51.73 9.11735C49.48 9.76972 47.15 10.4416 45.02 11.4055C42.86 12.3792 40.93 13.7618 38.96 15.0276C36.99 16.2934 35.15 17.7345 33.38 19.2631C31.61 20.7918 29.82 22.301 28.29 24.0634C26.76 25.8258 25.19 27.5784 23.93 29.5355C22.67 31.4926 21.79 33.6542 20.83 35.7768C19.87 37.8995 18.96 39.9247 18.32 42.1642C16.84 41.5313 15.29 41.2197 13.57 41.2197C11.36 41.2197 9.32003 41.9013 7.54003 42.9042C5.71003 43.946 4.11003 45.3773 3.05003 47.1689C1.99003 48.9605 1.53003 50.9468 1.53003 53.0987C1.53003 55.2505 2.30003 57.1395 3.33003 58.8726C4.39003 60.6642 5.58003 62.4752 7.41003 63.5171C9.24003 64.5589 11.37 64.8121 13.58 64.8121C14.95 64.8121 16.16 64.7731 17.39 64.3642C17.87 66.7984 18.76 69.0379 19.6 71.3358C20.45 73.6629 21.4 75.9218 22.59 78.0737C23.78 80.2255 25.07 82.3579 26.59 84.3052C28.11 86.2624 29.7 88.2 31.51 89.9039C33.32 91.6079 35.47 92.9321 37.53 94.3537C39.58 95.7655 41.53 97.3818 43.79 98.4821C46.05 99.5824 48.45 100.371 50.86 101.121C53.24 101.861 55.76 102.104 58.27 102.484C60.72 102.854 63.2 103.107 65.76 103.107C68.32 103.107 70.83 103.088 73.28 102.718C75.8 102.338 78.33 102.026 80.71 101.296C83.13 100.546 85.48 99.5629 87.72 98.4723C89.98 97.3721 91.9 95.7266 93.95 94.305C96.01 92.8834 98.04 91.4618 99.84 89.7579C101.64 88.0539 103.53 86.3792 105.05 84.4221C106.57 82.465 107.79 80.3034 108.99 78.1418C110.19 75.9802 111.03 73.6921 111.88 71.365C112.72 69.0768 113.67 66.8568 114.15 64.4323C115.34 64.8121 116.49 64.9095 117.81 64.9095C120.02 64.9095 122.03 64.2668 123.81 63.2639C125.64 62.2221 127.03 60.7031 128.09 58.9116C129.12 57.1784 129.82 55.27 129.82 53.1181C129.82 50.9663 129.27 48.98 128.25 47.2371C127.19 45.4455 125.68 43.9558 123.85 42.9139C122.02 41.8721 120.02 41.1321 117.81 41.1321L117.78 41.1126Z" fill="#FFE6D9"/>
<path d="M117.78 39.6522C115.99 39.7009 114.32 40.1196 112.68 40.7817C113.3 41.1225 113.91 41.4633 114.53 41.804C113.35 37.7146 111.78 33.7614 109.62 30.0517C107.56 26.5075 104.67 23.3917 101.92 20.344C99.08 17.199 95.54 15.1543 91.92 12.9733C88.43 10.8701 84.52 8.91299 80.6 7.68615C76.43 6.38141 71.77 5.86536 67.41 5.73878C63.05 5.6122 58.43 5.94326 54.05 6.97536C49.96 7.93931 45.72 9.13694 42.1 11.2596C38.5 13.3627 35.12 15.7969 31.98 18.5038C28.52 21.4833 25.24 24.7938 22.74 28.6106C21.46 30.5677 20.56 32.7196 19.61 34.8325C18.59 37.1109 17.56 39.3796 16.86 41.7651L18.71 40.7427C14.55 39.0485 9.82999 39.6327 6.08999 42.0377C2.37999 44.4233 0.209993 48.1427 0.00999292 52.4562C-0.180007 56.4385 2.03999 60.9662 5.04999 63.634C8.22999 66.448 13.75 66.9738 17.75 65.7567C17.13 65.4159 16.52 65.0751 15.9 64.7343C16.78 68.999 18.51 73.3319 20.45 77.2559C22.41 81.2188 24.94 84.8604 27.84 88.2098C29.27 89.8651 30.82 91.3938 32.58 92.7083C34.34 94.0227 36.2 95.1912 37.98 96.4764C39.79 97.7812 41.58 99.0762 43.62 100.011C45.66 100.946 47.96 101.744 50.19 102.435C52.45 103.127 54.78 103.429 57.12 103.769C59.42 104.1 61.72 104.422 64.05 104.519C68.85 104.714 73.63 104.295 78.34 103.37C82.75 102.504 87.41 100.663 91.09 98.1414C94.68 95.678 98.33 93.1562 101.5 90.1767C103.31 88.4825 105.08 86.7785 106.57 84.8019C108.06 82.8254 109.3 80.6541 110.45 78.4827C111.56 76.3893 112.39 74.1596 113.21 71.9396C114.08 69.5833 115.04 67.2562 115.55 64.7927L113.7 65.8151C121.47 68.1227 129.7 62.8551 131.07 55.1435C132.47 47.2761 125.88 39.8275 117.76 39.6425C115.83 39.5938 115.83 42.5148 117.76 42.5635C124.05 42.7096 129.36 48.649 128.1 54.7735C126.87 60.7714 120.62 64.8122 114.5 63.0012C113.76 62.7869 112.81 63.264 112.65 64.0235C112.24 65.9904 111.55 67.8696 110.84 69.7585C110.12 71.6669 109.47 73.6046 108.62 75.4643C106.92 79.1935 104.67 82.8935 101.75 85.8341C100.32 87.2848 98.82 88.7162 97.25 90.0209C95.68 91.3256 93.92 92.4648 92.24 93.6819C90.56 94.8991 88.95 96.1648 87.1 97.1093C85.05 98.1512 82.9 99.0372 80.71 99.748C72.29 102.465 62.99 101.949 54.39 100.449C50.19 99.7188 45.74 98.2096 42.19 95.8922C40.4 94.7238 38.72 93.4093 36.95 92.2214C35.18 91.0335 33.52 89.8748 32.04 88.4143C28.74 85.1622 26.04 81.3648 23.83 77.3338C22.7 75.2793 21.8 73.1372 20.99 70.9464C20.18 68.7556 19.28 66.3701 18.78 63.9748C18.62 63.2154 17.67 62.7285 16.93 62.9525C13.85 63.8872 9.25999 63.634 6.86999 61.3167C4.57999 59.0967 2.83999 55.6401 2.98999 52.4659C3.32999 45.2898 11.21 40.8596 17.87 43.5762C18.62 43.8877 19.51 43.2354 19.72 42.5538C20.82 38.8148 22.52 35.0175 24.41 31.5901C26.24 28.2601 28.96 25.193 31.77 22.6127C34.65 19.9643 37.69 17.5983 40.98 15.4464C42.64 14.3559 44.31 13.2751 46.15 12.4864C47.93 11.7269 49.81 11.1817 51.68 10.6462C59.84 8.27036 68.29 8.11457 76.62 9.73089C80.54 10.4904 84.21 12.1651 87.72 13.9956C89.48 14.9109 91.13 15.9917 92.83 17.0043C94.53 18.0169 96.19 18.9322 97.63 20.2272C99.27 21.6975 100.65 23.4111 102.09 25.0664C103.54 26.7314 105.03 28.3769 106.23 30.2367C108.7 34.0535 110.38 38.2598 111.62 42.583C111.82 43.2743 112.71 43.9072 113.47 43.6054C114.86 43.0406 116.26 42.6219 117.77 42.583C119.7 42.5343 119.7 39.6133 117.77 39.6619L117.78 39.6522Z" fill="#333333"/>
<path d="M53.45 47.9772C53.45 49.7201 52.2 51.0443 50.41 51.0443C48.62 51.0443 47.19 49.7201 47.19 47.9772C47.19 46.2343 48.62 44.5693 50.41 44.5693C52.2 44.5693 53.45 46.2343 53.45 47.9772Z" fill="#333333"/>
<path d="M84.33 47.977C84.33 49.7199 82.83 51.0636 81.05 51.0636C79.27 51.0636 77.73 49.7199 77.73 47.977C77.73 46.2342 79.27 44.7542 81.05 44.7542C82.83 44.7542 84.33 46.2342 84.33 47.977Z" fill="#333333"/>
<path d="M64.31 51.0249C64.58 50.8594 64.86 50.7133 65.15 50.5867L64.79 50.7328C65.1 50.6159 65.42 50.5186 65.75 50.4796L65.35 50.5283C65.62 50.4991 65.88 50.4991 66.14 50.5283L65.74 50.4796C66.03 50.5186 66.3 50.5965 66.57 50.7036L66.21 50.5575C66.52 50.6841 66.8 50.8594 67.06 51.0541L66.76 50.8301L66.82 50.8788C67.14 51.132 67.45 51.3073 67.88 51.3073C68.25 51.3073 68.69 51.1515 68.94 50.8788C69.19 50.6062 69.4 50.2362 69.38 49.8467C69.36 49.4865 69.25 49.0483 68.94 48.8146C68.42 48.4154 67.94 48.1233 67.33 47.8896C66.86 47.7046 66.34 47.617 65.84 47.6073C64.76 47.578 63.68 47.9675 62.78 48.5225C62.12 48.9315 61.79 49.837 62.24 50.5186C62.67 51.1612 63.58 51.4825 64.29 51.0444L64.31 51.0249Z" fill="#333333"/>
<path d="M43.56 61.5016C43.56 64.2571 42.56 66.74 40.72 68.5511C38.88 70.3621 36.32 71.6864 33.5 71.6864C30.68 71.6864 28.02 70.4595 26.17 68.6485C24.33 66.8471 23.24 64.2571 23.24 61.5016C23.24 58.7461 24.42 56.2437 26.26 54.4424C28.1 52.6411 30.67 51.7258 33.49 51.7258C36.31 51.7258 38.72 52.7774 40.57 54.5885C42.42 56.3995 43.56 58.7461 43.56 61.4919V61.5016Z" fill="#EDBBA6"/>
<path d="M108.12 61.5017C108.12 64.2572 107.07 66.7791 105.23 68.5901C103.38 70.4012 100.79 71.628 97.97 71.628C95.15 71.628 92.5 70.4596 90.65 68.6485C88.81 66.8472 87.76 64.267 87.76 61.5114C87.76 58.7559 88.93 56.2925 90.77 54.4814C92.62 52.6704 95.15 51.2585 97.97 51.2585C100.79 51.2585 103.28 52.7093 105.12 54.5204C106.96 56.3314 108.11 58.7462 108.11 61.5017H108.12Z" fill="#EDBBA6"/>
<path d="M106.11 43.9168C108.93 45.5915 112.42 46.0978 113.82 42.2226C114.06 41.5604 114 40.7523 113.99 40.0512C113.96 37.8118 113.74 35.5528 113.34 33.362C112.93 31.1518 111.96 29.0876 111.15 27.0136C110.33 24.9104 109.41 22.8949 108.18 21.0254C106.95 19.156 105.72 17.2183 104.05 15.6702C102.37 14.1026 100.53 12.6615 98.6 11.386C96.68 10.1202 94.57 9.09782 92.48 8.10466C90.39 7.1115 88.25 6.1865 86.05 5.4465C83.84 4.7065 81.53 4.31703 79.27 3.83018C76.98 3.32387 74.67 3.08045 72.39 2.80782C70.05 2.53518 67.71 2.21387 65.35 2.2236C62.99 2.23334 60.64 2.43782 58.3 2.74939C55.96 3.07071 53.71 3.69387 51.43 4.31703C49.38 4.88176 47.23 5.37834 45.13 6.12808C43.08 6.85834 40.98 7.55939 39.04 8.53308C37.07 9.52624 35.38 10.8991 33.68 12.2136C31.74 13.7131 29.77 15.1833 28.09 16.9847C26.41 18.786 24.96 20.7431 23.49 22.7002C22.72 23.7226 21.44 25.8549 20.15 28.367C19.18 30.2657 17.99 32.291 17.32 34.3162C16.51 36.7797 16.19 39.1554 16.67 40.801C17.21 42.651 18.9 43.5954 22.31 42.9236C24.32 42.5341 26.34 41.7552 28.4 40.8107C30.29 39.9441 32.2 38.9218 34.05 37.7339C35.85 36.5947 37.54 35.251 39.24 33.956C40.94 32.661 42.71 31.3368 44.28 29.9833C46.01 28.5033 47.65 27.3641 49.1 26.0399C48.5 27.4128 49.47 28.6883 50.78 29.4673C52.09 30.2462 53.62 30.2462 55.16 30.2268C57.72 30.1976 60.26 30.0807 62.75 29.5062C65.24 28.9318 67.54 27.8704 69.85 26.7897C72.15 25.7089 74.43 24.7352 76.44 23.187C76.23 25.076 77.27 26.5852 78.62 27.9483C79.97 29.3115 81.56 30.3436 83.45 30.5286C85.34 30.7136 87.28 30.3241 89.03 29.4965C90.78 28.6689 92.29 27.481 93.56 26.0886C92.63 27.111 94.51 30.3047 96.64 33.4107C98.68 36.3804 100.8 39.4573 101.47 40.1583C102.46 41.1904 104.22 42.8068 106.08 43.907L106.11 43.9168Z" fill="#333333"/>
<path d="M105.35 45.1826C107.28 46.2926 109.7 47.1202 111.91 46.312C114.6 45.3286 115.55 42.6218 115.5 40.0415C115.43 36.6433 115.1 33.1673 113.93 29.9541C112.78 26.7994 111.54 23.5278 109.73 20.6554C108.06 18.007 106.25 15.5339 103.84 13.4697C101.25 11.2497 98.42 9.37045 95.35 7.83203C92.28 6.29361 88.97 4.73571 85.58 3.74255C82.19 2.7494 78.65 2.10676 75.16 1.65887C71.67 1.21097 68.01 0.675448 64.42 0.772817C60.92 0.870185 57.4 1.27913 54 2.1165C47.33 3.7815 40.18 5.47571 34.64 9.63334C32.02 11.6002 29.28 13.5573 27.05 15.9526C24.94 18.2018 22.93 20.7236 21.3 23.3233C19.67 25.9231 18.08 28.8733 16.78 31.7457C15.48 34.6181 14.49 37.8312 15.17 40.8594C16.79 48.0257 27.36 43.0697 31.21 41.0736C34.78 39.2236 37.9 36.8283 41.07 34.4136C44.24 31.9989 47.31 29.662 50.19 27.0623C49.35 26.5852 48.52 26.1178 47.68 25.6407C46.78 28.2307 48.94 30.4897 51.33 31.2783C52.63 31.7068 54.06 31.697 55.42 31.6776C57.09 31.6483 58.76 31.5802 60.42 31.3757C63.45 31.0057 66.23 30.0418 68.99 28.8052C71.81 27.5394 74.73 26.3028 77.2 24.4528C76.45 24.0341 75.7 23.6154 74.94 23.187C74.68 27.1012 78.66 31.0836 82.45 31.8431C87.06 32.7681 91.58 30.3533 94.61 27.1207L92.25 25.3486C91.22 26.741 92.14 28.7078 92.8 30.032C93.93 32.291 95.47 34.3649 96.91 36.4486C97.97 37.987 99 39.6033 100.24 41.0152C101.66 42.6315 103.46 44.0336 105.3 45.1631C106.94 46.166 108.45 43.6441 106.81 42.6412C103.85 40.8302 101.93 38.4739 100 35.6989C98.77 33.9365 97.51 32.1839 96.39 30.3533C95.91 29.5744 95.43 28.776 95.09 27.9386C94.98 27.6562 94.92 27.3641 94.81 27.0818C94.78 26.9747 94.77 26.8676 94.78 26.7605C94.68 27.0039 94.69 27.0233 94.82 26.8189C95.81 25.4655 93.6 23.8297 92.46 25.0468C90.23 27.4323 87.1 29.4283 83.64 29.0681C80.92 28.7857 77.73 25.962 77.91 23.1773C77.98 22.1549 76.55 21.2494 75.65 21.9115C73.75 23.3331 71.62 24.3262 69.47 25.3291C67.29 26.3418 65.11 27.3739 62.76 27.9776C61.19 28.3768 49.21 30.1683 50.52 26.4099C51.02 24.9591 49.05 24.0536 48.01 24.9883C45.82 26.9747 43.42 28.8149 41.09 30.6455C38.76 32.476 36.23 34.511 33.64 36.2052C31.05 37.8994 28.25 39.3891 25.33 40.4797C23.7 41.0931 20.28 42.5244 18.63 41.2586C17.97 40.7523 17.9 39.7883 17.9 39.0386C17.9 37.5586 18.25 36.0786 18.72 34.6765C19.64 31.921 21.23 29.2628 22.66 26.7215C25.35 21.9504 28.94 17.6857 33.31 14.2778C35.62 12.4765 37.88 10.5973 40.57 9.37045C43.42 8.06571 46.5 7.10176 49.54 6.29361C52.55 5.49519 55.54 4.56045 58.64 4.13203C61.77 3.70361 64.96 3.51861 68.11 3.77176C74.22 4.26834 80.68 5.05703 86.45 7.13098C92.17 9.17571 97.77 12.0676 102.27 16.0889C104.62 18.192 106.47 20.9086 107.94 23.6544C108.76 25.1928 109.39 26.8091 110.04 28.4157C110.68 30.0126 111.35 31.6094 111.72 33.2841C112.08 34.9005 112.25 36.5752 112.35 38.2304C112.43 39.5839 112.7 41.2099 112 42.4465C110.84 44.4815 108.42 43.5857 106.79 42.6412C105.12 41.6773 103.61 44.2089 105.28 45.1631L105.35 45.1826Z" fill="#333333"/>
<path d="M60.95 65.9805C64.14 67.4021 67.8 67.48 71.02 66.0974C72.5 65.4645 74.42 64.3642 75.69 62.7868C76.96 61.2095 77.78 59.1647 77.34 57.4218C76.65 54.676 73.27 55.231 71.11 55.2797C67.89 55.3576 64.66 55.3284 61.43 55.3284C58.5 55.3284 54.49 54.0626 54.68 58.3955C54.84 61.9495 57.69 64.52 60.95 65.9805Z" fill="#FCFCFC"/>
<path d="M60.19 67.2366C64.99 69.2911 70.37 68.8042 74.62 65.7469C76.65 64.2863 78.33 62.1735 78.81 59.7198C79.19 57.7724 78.73 55.5329 76.85 54.4716C75.29 53.5856 73.4 53.7219 71.66 53.7998C68.84 53.9166 66 53.8777 63.18 53.8679C61.37 53.8679 59.53 53.6342 57.72 53.7024C56.04 53.7608 54.42 54.3061 53.63 55.864C52.59 57.9477 53.3 60.7519 54.5 62.6213C55.83 64.705 57.93 66.2142 60.18 67.2463C61.92 68.0448 63.44 65.5229 61.69 64.7245C58.97 63.4782 55.74 61.0537 56.17 57.714C56.29 56.7306 56.9 56.6332 57.82 56.6137C59.02 56.5845 60.21 56.7695 61.41 56.7792C65.4 56.8279 69.39 56.6235 73.38 56.6527C74.43 56.6527 75.66 56.7208 75.9 57.9185C76.22 59.5835 75.05 61.4237 73.89 62.5435C70.73 65.5911 65.76 66.4577 61.7 64.7245C59.95 63.9748 58.42 66.4869 60.19 67.2463V67.2366Z" fill="#333333"/>
<path d="M50.41 37.8897C50.89 38.1721 51.34 38.4934 51.79 38.8244L51.49 38.6005C52.58 39.4281 53.62 40.3239 54.76 41.0834C55.07 41.2878 55.57 41.3268 55.92 41.2294C56.27 41.1321 56.65 40.8789 56.82 40.5576C57.22 39.8176 56.97 39.0192 56.28 38.5615C55.99 38.3668 55.7 38.1623 55.42 37.9481L55.72 38.1721C54.47 37.2276 53.29 36.176 51.94 35.3678C51.27 34.9686 50.26 35.2023 49.89 35.8936C49.52 36.585 49.71 37.4613 50.43 37.8897H50.41Z" fill="#333333"/>
<path d="M37.8 109.251C37.66 110.137 37.3 110.984 37.05 111.851C36.6 113.457 36.02 115.074 34.83 116.271C32.99 118.111 30.46 118.959 27.81 118.91C25.19 118.871 22.42 118.17 20.24 117.449C18.55 116.894 16.94 115.745 16.46 114.071C16.29 113.467 16.21 112.873 16.24 112.25C16.35 109.777 16.15 107.343 16.17 104.918C16.19 102.474 16.38 100.05 16.24 97.596C16.11 95.2786 16.05 89.7773 19.23 89.232C20.49 89.0178 21.92 89.8649 22.51 90.9749C23.1 92.0752 23.04 93.4481 23.11 94.6944C23.23 96.6612 23.47 98.667 23.59 100.634C23.32 99.1441 24.65 97.3526 26.2 97.4986C27.57 97.6349 28.24 99.0955 28.57 100.157C29.19 99.5433 30.05 99.3681 30.95 99.4655C32.14 99.6018 33.33 100.556 32.86 101.627C33.9 101.306 34.82 101.247 35.85 101.627C37.55 102.25 37.81 104.236 37.78 106.009C37.76 107.089 37.96 108.18 37.79 109.251H37.8Z" fill="#FFE6D9"/>
<path d="M36.35 108.871C35.97 110.789 35.37 113.224 34.15 114.811C32.95 116.359 30.94 117.226 28.99 117.42C26.85 117.634 24.63 117.187 22.58 116.632C20.88 116.174 18.65 115.638 17.96 113.837C17.56 112.776 17.78 111.52 17.78 110.419C17.78 109.202 17.72 107.976 17.69 106.758C17.64 104.392 17.79 102.036 17.79 99.6797C17.79 97.1579 17.09 93.7403 18.53 91.4521C19.6 89.7579 21.3 91.3255 21.5 92.7958C21.67 94.0226 21.64 95.2981 21.75 96.525C21.87 97.8979 22 99.2708 22.09 100.644H25.09C25.03 100.108 25.23 98.9008 26.05 98.9689C26.66 99.0176 26.98 100.108 27.13 100.556C27.49 101.647 28.77 101.929 29.64 101.199C29.88 101.004 31.57 100.741 31.42 101.247C31.11 102.318 32.17 103.341 33.27 103.049C34.82 102.62 35.95 102.922 36.21 104.548C36.45 106.028 36.46 107.791 36.3 109.261C36.09 111.13 39.09 111.111 39.3 109.261C39.44 107.976 39.33 106.642 39.28 105.347C39.24 104.285 39.09 103.185 38.58 102.231C37.41 100.001 34.75 99.6018 32.47 100.225L34.32 102.026C34.8 100.381 33.82 98.9397 32.25 98.3166C30.68 97.6934 28.85 98.0245 27.53 99.1345L30.04 99.7771C29.41 97.8492 28.07 95.8531 25.72 96.0674C23.49 96.2718 21.89 98.5405 22.12 100.634C22.32 102.464 25.24 102.542 25.12 100.634C25.02 99.1053 24.86 97.5863 24.74 96.0576C24.63 94.7139 24.66 93.341 24.43 92.0168C24.02 89.6216 21.88 87.5184 19.25 87.7813C15.1 88.1903 14.65 93.4482 14.72 96.5737C14.77 99.1345 14.75 101.676 14.7 104.246C14.67 105.697 14.72 107.138 14.76 108.579C14.8 110.098 14.65 111.666 14.8 113.175C15.05 115.765 16.79 117.625 19.19 118.608C21.73 119.64 24.64 120.254 27.39 120.361C30.14 120.468 33.13 119.669 35.33 117.829C37.67 115.862 38.69 112.503 39.26 109.641C39.62 107.8 36.73 107.021 36.37 108.862L36.35 108.871Z" fill="#333333"/>
<path d="M89.43 136.466C90.73 138.092 92.15 139.591 93.86 140.818C95.56 142.035 97.57 142.746 99.52 143.466C100.26 143.739 101.2 143.165 101.37 142.444C101.56 141.616 101.11 140.935 100.32 140.643C98.55 139.99 96.97 139.426 95.37 138.286C95.35 138.267 95.17 138.14 95.28 138.228C95.19 138.16 95.11 138.092 95.03 138.024C94.84 137.868 94.65 137.712 94.47 137.546C94.12 137.245 93.79 136.923 93.47 136.592C92.79 135.891 92.16 135.151 91.55 134.392C91.07 133.788 89.93 133.856 89.43 134.392C88.82 135.034 88.91 135.813 89.43 136.456V136.466Z" fill="#333333"/>
<path d="M32.84 123.496C33.02 126.008 33.64 128.462 33.8 130.974C33.96 133.486 33.81 135.998 33.96 138.501C34.07 140.37 37.07 140.38 36.96 138.501C36.81 135.989 36.96 133.476 36.8 130.974C36.63 128.462 36.02 125.999 35.84 123.496C35.78 122.707 35.19 122.036 34.34 122.036C33.57 122.036 32.78 122.707 32.84 123.496Z" fill="#333333"/>
<path d="M96.25 134.168C97.89 132.59 99.05 130.068 99.86 127.41C100.76 124.46 101.53 121.529 101.6 119.815C101.66 118.355 101.69 116.846 100.92 115.59C100.07 114.197 98.17 113.876 97.61 112.143C97.33 111.276 97.51 110.225 96.85 109.582C96 108.754 94.55 108.998 93.7 109.825C92.85 110.653 92.74 111.851 92.74 113.019C92.74 113.233 92.56 113.496 92.4 113.662C92.19 113.886 91.74 113.954 91.44 113.866C89.21 113.253 87.5 111.646 85.1 111.461C83.63 111.344 82.02 111.744 81.38 113.048C80.74 114.353 81.85 116.398 83.32 116.398C82.16 116.038 80.77 116.612 80.38 117.732C79.99 118.852 80.29 120.185 81.43 120.594C80.42 120.799 79.53 121.636 79.43 122.629C79.33 123.623 80.06 124.499 81.01 124.879C79.57 124.879 78.6 126.709 78.82 128.082C79.05 129.465 80.18 130.623 81.28 131.519C82.88 132.814 84.85 133.544 86.79 134.284C88.73 135.024 90.7 135.492 92.77 135.609C94.17 135.687 95.21 135.17 96.24 134.177L96.25 134.168Z" fill="#FFE6D9"/>
<path d="M97.31 135.2C100.49 132.006 101.7 127.148 102.63 122.922C103.05 121.004 103.31 118.988 102.99 117.041C102.64 114.899 101.42 113.954 99.83 112.659C98.33 111.442 99.17 109.241 97.37 108.112C95.75 107.099 93.56 107.693 92.39 109.076C91.72 109.865 91.42 110.838 91.31 111.851C91.31 111.929 91.31 112.523 91.25 112.62C91.5 112.221 91.58 112.533 91.13 112.211C90.71 111.909 90.08 111.724 89.61 111.491C87.76 110.556 85.88 109.767 83.75 110.04C81.73 110.303 79.74 111.666 79.72 113.828C79.7 115.989 81.24 117.664 83.34 117.849C85.03 117.995 85.36 115.366 83.74 114.976C81.84 114.529 79.76 115.298 79.03 117.158C78.35 118.881 78.91 121.013 80.69 121.851L81.05 119.183C77.54 120.156 76.86 124.528 80.27 126.145L81.03 123.418C78.76 123.623 77.25 125.619 77.31 127.8C77.39 130.439 79.91 132.581 82.07 133.808C84.45 135.151 87.29 136.213 89.98 136.719C92.8 137.254 95.14 137.206 97.31 135.21C98.72 133.915 96.59 131.85 95.19 133.145C93.81 134.411 92.33 134.216 90.56 133.866C88.79 133.515 87.1 132.892 85.44 132.191C83.87 131.529 82.31 130.692 81.17 129.416C80.71 128.9 80.23 128.248 80.29 127.518C80.32 127.186 80.58 126.378 81 126.339C82.34 126.223 83.22 124.314 81.76 123.613C80.8 123.155 80.67 122.308 81.82 121.987C82.97 121.666 83.38 119.884 82.18 119.319C81.17 118.852 81.88 117.547 82.92 117.79C83.05 116.836 83.19 115.882 83.32 114.918C82.87 114.879 82.61 114.013 82.73 113.672C82.97 112.961 84.14 112.873 84.76 112.893C86.66 112.951 88.27 114.207 89.97 114.889C92.16 115.765 94.05 115.064 94.24 112.62C94.29 112.016 94.41 110.41 95.43 110.527C96.15 110.605 95.97 111.812 96.12 112.367C96.61 114.159 98.06 114.743 99.28 115.94C100.54 117.177 100.21 119.631 99.92 121.198C99.51 123.438 98.88 125.668 98.15 127.819C97.5 129.738 96.64 131.675 95.18 133.136C93.84 134.489 95.95 136.553 97.3 135.2H97.31Z" fill="#333333"/>
</g>
<defs>
<clipPath id="clip0_4_5710">
<rect width="131.28" height="210.744" fill="white" transform="translate(0 0.763184)"/>
</clipPath>
</defs>
</svg>
