<svg width="94" height="94" viewBox="0 0 94 94" fill="none" xmlns="http://www.w3.org/2000/svg">
<path fill-rule="evenodd" clip-rule="evenodd" d="M75.1179 71.538C80.8785 63.5324 83.5533 53.3127 81.7651 42.822C78.2221 22.0363 58.4998 8.05838 37.7141 11.6014C16.9284 15.1444 2.95043 34.8667 6.49345 55.6525C10.0365 76.4382 29.7588 90.4161 50.5445 86.8731C57.0023 85.7723 62.8029 83.1099 67.6252 79.3391C75.3374 81.7132 83.8912 80.9355 88.0971 79.9689C81.2719 77.7549 77.5313 74.5778 75.1179 71.538Z" fill="black"/>
<path d="M75.1179 71.538L73.9003 70.6619L73.2379 71.5824L73.9431 72.4707L75.1179 71.538ZM67.6252 79.3391L68.0665 77.9055L67.3181 77.6751L66.7012 78.1575L67.6252 79.3391ZM88.0971 79.9689L88.4331 81.4308L93.7194 80.2158L88.5599 78.5421L88.0971 79.9689ZM80.2865 43.0741C82.0045 53.1529 79.436 62.9688 73.9003 70.6619L76.3354 72.4141C82.3209 64.096 85.1022 53.4724 83.2438 42.57L80.2865 43.0741ZM37.9661 13.0801C57.9352 9.67626 76.8827 23.105 80.2865 43.0741L83.2438 42.57C79.5616 20.9676 59.0644 6.44051 37.462 10.1227L37.9661 13.0801ZM7.97212 55.4004C4.5683 35.4313 17.9971 16.4839 37.9661 13.0801L37.462 10.1227C15.8597 13.8049 1.33256 34.3021 5.01478 55.9045L7.97212 55.4004ZM50.2925 85.3944C30.3234 88.7982 11.3759 75.3695 7.97212 55.4004L5.01478 55.9045C8.697 77.5069 29.1942 92.034 50.7965 88.3518L50.2925 85.3944ZM66.7012 78.1575C62.07 81.7789 56.4991 84.3365 50.2925 85.3944L50.7965 88.3518C57.5054 87.2082 63.5358 84.4409 68.5492 80.5207L66.7012 78.1575ZM67.1838 80.7727C75.2239 83.2477 84.0602 82.4358 88.4331 81.4308L87.7611 78.507C83.7222 79.4353 75.4509 80.1787 68.0665 77.9055L67.1838 80.7727ZM88.5599 78.5421C82.0158 76.4192 78.5228 73.4141 76.2926 70.6053L73.9431 72.4707C76.5399 75.7414 80.528 79.0905 87.6342 81.3957L88.5599 78.5421Z" fill="black"/>
<path fill-rule="evenodd" clip-rule="evenodd" d="M71.5262 67.9196C78.6092 60.9376 83 51.2316 83 40.5C83 19.237 65.763 2 44.5 2C23.237 2 6 19.237 6 40.5C6 61.763 23.237 79 44.5 79C51.1059 79 57.3233 77.3363 62.7559 74.405C70.0202 78.0719 78.6552 78.7483 83 78.5C76.5904 75.1426 73.4103 71.3504 71.5262 67.9196Z" fill="#FF3B8E"/>
<path d="M71.5262 67.9196L70.4732 66.8514L69.6654 67.6476L70.2114 68.6417L71.5262 67.9196ZM62.7559 74.405L63.4318 73.0659L62.7327 72.713L62.0436 73.0849L62.7559 74.405ZM83 78.5L83.0856 79.9976L88.5009 79.6881L83.696 77.1713L83 78.5ZM81.5 40.5C81.5 50.8138 77.282 60.1396 70.4732 66.8514L72.5792 68.9879C79.9365 61.7355 84.5 51.6493 84.5 40.5H81.5ZM44.5 3.5C64.9345 3.5 81.5 20.0655 81.5 40.5H84.5C84.5 18.4086 66.5914 0.5 44.5 0.5V3.5ZM7.5 40.5C7.5 20.0655 24.0655 3.5 44.5 3.5V0.5C22.4086 0.5 4.5 18.4086 4.5 40.5H7.5ZM44.5 77.5C24.0655 77.5 7.5 60.9345 7.5 40.5H4.5C4.5 62.5914 22.4086 80.5 44.5 80.5V77.5ZM62.0436 73.0849C56.8244 75.901 50.8512 77.5 44.5 77.5V80.5C51.3607 80.5 57.8221 78.7715 63.4682 75.7251L62.0436 73.0849ZM62.0799 75.744C69.6504 79.5656 78.5697 80.2556 83.0856 79.9976L82.9144 77.0024C78.7407 77.2409 70.3899 76.5783 63.4318 73.0659L62.0799 75.744ZM83.696 77.1713C77.5481 73.9509 74.5831 70.3699 72.8409 67.1976L70.2114 68.6417C72.2374 72.3309 75.6326 76.3342 82.304 79.8287L83.696 77.1713Z" fill="black"/>
<path d="M36.5966 48.48L44.7726 39.324C45.6312 38.3533 46.2379 37.532 46.5926 36.86C46.9659 36.1693 47.1526 35.46 47.1526 34.732C47.1526 33.9667 46.9006 33.36 46.3966 32.912C45.8926 32.4453 45.2206 32.212 44.3806 32.212C42.4579 32.212 41.4499 33.3507 41.3566 35.628H36.5966C36.5966 33.9107 36.9419 32.4453 37.6326 31.232C38.3232 30 39.2659 29.076 40.4606 28.46C41.6552 27.8253 42.9899 27.508 44.4646 27.508C45.9579 27.508 47.3019 27.8067 48.4966 28.404C49.7099 28.9827 50.6619 29.804 51.3526 30.868C52.0432 31.932 52.3886 33.164 52.3886 34.564C52.3886 35.628 52.2206 36.5987 51.8846 37.476C51.5672 38.3347 51.1099 39.1747 50.5126 39.996C49.9152 40.7987 49.0846 41.7693 48.0206 42.908L43.4566 47.808H52.4166V52.512H36.5966V48.48Z" fill="white"/>
</svg>
