<svg width="1080" height="740" viewBox="0 0 1080 740" fill="none" xmlns="http://www.w3.org/2000/svg">
<g clip-path="url(#clip0_40_647)">
<rect width="299.216" height="211.599" transform="matrix(0.866025 -0.5 0 1 601 405.633)" fill="#ACF3CE"/>
<rect width="299.216" height="299.168" transform="matrix(0.866025 -0.5 0.866025 0.5 601.163 617.207)" fill="#AAD89C"/>
<rect width="299.216" height="167.586" transform="matrix(0.866025 -0.5 0.866025 0.5 601.163 617.207)" fill="#91C980"/>
<rect x="1.55885" width="153.203" height="58.7133" transform="matrix(0.866025 -0.5 0.866025 0.5 722.676 637.772)" fill="#42AD68" stroke="#333333" stroke-width="1.8"/>
<rect width="299.216" height="211.599" transform="matrix(0.866025 0.5 0 1 860.129 256)" fill="#DBF5E7"/>
<path d="M924.118 411.687L924.03 441.319L903.787 429.637L903.868 400L924.118 411.687Z" fill="#E6E6E6" stroke="#333333" stroke-width="1.8" stroke-linecap="round" stroke-linejoin="round"/>
<path d="M920.508 432.804L907.392 425.233" stroke="#333333" stroke-width="1.8" stroke-linecap="round" stroke-linejoin="round"/>
<path d="M920.508 428.623L907.392 421.052" stroke="#333333" stroke-width="1.8" stroke-linecap="round" stroke-linejoin="round"/>
<path d="M920.508 424.442L907.392 416.876" stroke="#333333" stroke-width="1.8" stroke-linecap="round" stroke-linejoin="round"/>
<path d="M920.508 420.267L907.392 412.695" stroke="#333333" stroke-width="1.8" stroke-linecap="round" stroke-linejoin="round"/>
<path d="M920.508 416.086L907.392 408.514" stroke="#333333" stroke-width="1.8" stroke-linecap="round" stroke-linejoin="round"/>
<path d="M954.748 428.587L954.661 458.219L934.417 446.537L934.499 416.899L954.748 428.587Z" fill="#E6E6E6" stroke="#333333" stroke-width="1.8" stroke-linecap="round" stroke-linejoin="round"/>
<path d="M951.138 449.704L938.022 442.132" stroke="#333333" stroke-width="1.8" stroke-linecap="round" stroke-linejoin="round"/>
<path d="M951.138 445.523L938.022 437.951" stroke="#333333" stroke-width="1.8" stroke-linecap="round" stroke-linejoin="round"/>
<path d="M951.138 441.342L938.022 433.776" stroke="#333333" stroke-width="1.8" stroke-linecap="round" stroke-linejoin="round"/>
<path d="M951.138 437.167L938.022 429.595" stroke="#333333" stroke-width="1.8" stroke-linecap="round" stroke-linejoin="round"/>
<path d="M951.138 432.985L938.022 425.414" stroke="#333333" stroke-width="1.8" stroke-linecap="round" stroke-linejoin="round"/>
<path d="M978.991 390.496L975.661 383.912C975.58 383.752 975.65 383.622 975.779 383.696L1003.63 399.777C1003.82 399.884 1003.96 400.159 1003.92 400.346L1003.72 401.385C1003.7 401.483 1003.66 401.56 1003.6 401.611L987.625 414.774C987.546 414.839 987.614 415.043 987.74 415.116L998.451 421.3C998.631 421.404 998.801 421.41 998.916 421.317L1000.46 420.079C1000.52 420.03 1000.63 420.096 1000.69 420.213L1003.99 426.741C1004.07 426.9 1004 427.028 1003.88 426.955L976.013 410.868C975.827 410.76 975.687 410.485 975.724 410.298L975.92 409.293C975.939 409.196 975.981 409.12 976.041 409.07L992.103 395.919C992.182 395.854 992.113 395.65 991.988 395.578L981.349 389.436C981.168 389.331 980.997 389.323 980.882 389.416L979.227 390.633C979.165 390.681 979.052 390.615 978.992 390.496L978.991 390.496ZM929.643 375.158L921.23 370.936V360.132L927.75 363.896V359.572L916.813 353.257V372.924L929.643 379.426V375.159V375.158ZM925.331 369.23L930.064 371.962V381.335L934.48 383.885V362.857L930.064 360.307V367.636L925.331 364.904V369.23ZM935.742 384.253L954.04 394.817V390.611L935.742 380.047V384.253ZM936.268 376.268C940.426 378.555 943.238 378.142 944.882 376.535C946.525 380.041 949.336 383.7 953.514 386.225V382.203C949.344 379.433 947.099 374.743 947.099 372.208V370.261L942.683 367.711V369.658C942.683 372.192 940.439 374.291 936.268 372.246V376.268ZM954.671 386.65L958.771 389.017L958.435 390.336C956.913 389.75 955.727 390.602 955.727 392.498C955.727 394.576 957.15 397.092 958.909 398.107L969.724 404.351C971.489 405.371 972.917 404.495 972.917 402.41C972.917 400.325 971.489 397.801 969.724 396.781L962.46 392.588L962.77 391.325L967.71 394.177V390.692L954.67 383.163V386.648L954.671 386.65ZM955.111 378.887C955.111 380.983 956.591 383.553 958.406 384.601L963.518 387.552C965.334 388.601 966.834 387.753 966.834 385.655C966.834 383.557 965.334 380.91 963.518 379.862L958.406 376.911C956.59 375.862 955.111 376.721 955.111 378.887ZM958.832 380.952C958.832 380.499 959.09 380.309 959.406 380.492L962.616 382.345C962.932 382.528 963.19 383.016 963.19 383.468C963.19 383.92 962.932 384.09 962.616 383.907L959.406 382.054C959.09 381.871 958.832 381.405 958.832 380.952ZM959.764 394.697C959.764 394.359 959.962 394.27 960.198 394.407L968.401 399.143C968.657 399.291 968.835 399.597 968.835 399.934C968.835 400.272 968.657 400.372 968.401 400.224L960.198 395.488C959.962 395.352 959.764 395.035 959.764 394.697ZM968.237 395.443L972.758 398.054V384.956L968.237 382.346V395.443ZM1006.73 409.013L1009.35 410.531V411.73C1009.35 417.274 1008.74 419.726 1006.51 420.139V424.77C1008.58 424.963 1010.1 424.304 1011.13 422.545C1012.16 425.495 1013.71 427.927 1015.77 430.112V425.481C1013.54 422.499 1012.93 419.339 1012.93 413.794V412.595L1015.56 414.113V410.268L1006.73 405.168V409.013ZM1013.98 420.412L1016.72 421.99V431.363L1020.19 433.366V412.338L1016.72 410.335V418.145L1013.98 416.567V420.412ZM1021.03 433.852L1024.6 435.916V414.888L1021.03 412.824V433.852ZM1025.86 436.285L1044.16 446.849V442.884L1025.86 432.319V436.285ZM1026.6 420.007L1043.64 429.843V426.238L1026.6 416.403V420.007ZM1043.64 435.611L1031.02 428.325V427.003L1043.64 434.289V430.804L1026.6 420.969V429.62L1043.64 439.456V435.611Z" fill="#FD780F"/>
<path d="M805.057 551.735C806.388 551.735 807.467 550.661 807.467 549.335C807.467 548.01 806.388 546.935 805.057 546.935C803.726 546.935 802.647 548.01 802.647 549.335C802.647 550.661 803.726 551.735 805.057 551.735Z" fill="white" stroke="#333333" stroke-width="1.8" stroke-linecap="round" stroke-linejoin="round"/>
<path d="M668.544 607.244C669.876 607.244 670.955 606.17 670.955 604.844C670.955 603.519 669.876 602.444 668.544 602.444C667.213 602.444 666.134 603.519 666.134 604.844C666.134 606.17 667.213 607.244 668.544 607.244Z" fill="white" stroke="#333333" stroke-width="1.8" stroke-linecap="round" stroke-linejoin="round"/>
<path d="M832.961 517.464C834.293 517.464 835.372 516.39 835.372 515.064C835.372 513.739 834.293 512.664 832.961 512.664C831.63 512.664 830.551 513.739 830.551 515.064C830.551 516.39 831.63 517.464 832.961 517.464Z" fill="white" stroke="#333333" stroke-width="1.8" stroke-linecap="round" stroke-linejoin="round"/>
<path d="M607.689 445.543L612.384 448.307V616.506L607.689 613.748V445.543Z" fill="white" stroke="#333333" stroke-width="1.8" stroke-miterlimit="10" stroke-linejoin="round"/>
<path d="M612.384 448.307L857.4 304.182L852.719 301.418L607.689 445.543L612.384 448.307Z" fill="white" stroke="#333333" stroke-width="1.8" stroke-miterlimit="10" stroke-linejoin="round"/>
<path d="M612.384 448.307V616.506V616.735L857.609 472.492L857.4 304.182L612.384 448.307Z" fill="white" stroke="#333333" stroke-width="1.8" stroke-miterlimit="10" stroke-linejoin="round"/>
<path d="M612.384 448.307V514.597C628.302 499.268 649.423 489.405 670.607 482.209C696.486 473.416 723.543 467.755 748.277 456.142C769.985 445.945 789.376 431.401 810.853 420.725C825.369 413.516 841.503 408.126 857.532 407.521L857.407 304.189L612.391 448.307H612.384Z" fill="#B3E2FF" stroke="#333333" stroke-width="1.8" stroke-miterlimit="10" stroke-linejoin="round"/>
<mask id="mask0_40_647" style="mask-type:luminance" maskUnits="userSpaceOnUse" x="612" y="304" width="246" height="211">
<path d="M613.284 512.512V448.826L856.509 305.762L856.631 406.659C840.719 407.427 824.777 412.805 810.453 419.919L810.453 419.919C800.288 424.972 790.593 430.885 780.939 436.774C780.353 437.131 779.768 437.488 779.183 437.845C768.935 444.091 758.699 450.252 747.895 455.327C735.587 461.106 722.689 465.409 709.61 469.372C705.541 470.604 701.451 471.805 697.356 473.007C688.309 475.663 679.237 478.326 670.318 481.357C649.749 488.344 629.149 497.866 613.284 512.512Z" fill="white" stroke="white" stroke-width="1.8" stroke-linejoin="round"/>
</mask>
<g mask="url(#mask0_40_647)">
<path d="M647.714 492.273C647.84 491.079 647.17 489.842 646.103 489.28C645.036 488.717 643.982 488.877 643.062 489.655C643.285 488.606 642.608 487.439 641.576 487.113C640.543 486.786 639.427 486.752 639.009 487.738C638.165 486.606 636.63 486.036 635.249 486.342C633.868 486.647 632.717 487.536 632.431 488.912C632.027 488.127 631.092 487.655 630.213 487.787C629.334 487.918 628.727 488.488 628.574 489.356C626.872 487.988 624.221 487.96 622.484 489.287C620.747 490.613 620.008 492.579 620.908 494.566C620.42 493.628 619.352 493.017 618.292 493.072C617.232 493.128 616.179 493.343 615.788 494.322C616.465 492.447 615.676 490.148 613.988 489.085C612.3 488.023 609.873 488.287 608.464 489.697C609.022 498.518 609.308 507.832 610.577 516.577C610.703 517.452 610.891 518.424 611.624 518.931C612.503 519.549 613.716 519.181 614.7 518.751C621.187 515.917 626.635 511.201 631.978 506.554C637.3 501.928 642.406 496.885 647.728 492.253L647.714 492.273Z" fill="#009A56" stroke="#333333" stroke-width="1.8" stroke-miterlimit="10" stroke-linejoin="round"/>
</g>
<path d="M810.853 420.718C789.376 431.394 769.985 445.938 748.277 456.135C723.543 467.748 696.492 473.416 670.607 482.202C649.423 489.398 628.302 499.261 612.384 514.59V568.594C639.183 558.085 664.511 543.867 687.376 526.433C716.923 503.901 742.216 476.215 771.882 453.843C796.951 434.936 826.59 419.676 857.539 417.37L857.525 407.507C841.496 408.105 825.362 413.495 810.846 420.711L810.853 420.718Z" fill="#3DC181" stroke="#333333" stroke-width="1.8" stroke-miterlimit="10" stroke-linejoin="round"/>
<mask id="mask1_40_647" style="mask-type:luminance" maskUnits="userSpaceOnUse" x="612" y="304" width="246" height="313">
<path d="M856.639 417.378V417.379L856.708 471.978L613.284 615.161V568.594V514.597V448.822L856.502 305.755L856.632 407.515V407.516L856.639 417.378Z" fill="white" stroke="white" stroke-width="1.8" stroke-linejoin="round"/>
</mask>
<g mask="url(#mask1_40_647)">
<path d="M685.178 539.102C664.671 553.931 642.657 566.697 619.589 577.151C615.613 578.95 610.863 580.665 607.068 578.498C603.657 576.553 602.513 572.261 601.934 568.392C599.953 555.036 602.43 540.818 608.359 528.669C609.44 526.447 611.839 524.926 614.316 524.877C616.792 524.828 619.247 526.266 620.412 528.447C620.782 525.134 622.791 523.217 626.139 523.002C629.48 522.793 632.8 525.231 633.589 528.475C634.691 526.377 637.104 525.752 639.246 526.78C641.387 527.808 642.447 530.635 641.492 532.802C642.252 531.08 644.163 530.705 645.879 530.76C647.972 530.83 649.039 532.101 649.855 533.913C648.272 530.378 650.79 525.342 654.34 523.766C657.891 522.189 662.125 522.786 664.545 525.822C666.254 524.391 668.354 524.009 670.223 525.224C672.092 526.44 673.02 528.926 672.399 531.059C673.962 527.259 678.042 525.474 681.872 526.989C685.701 528.503 687.836 533.316 686.364 537.15" fill="#009A56"/>
<path d="M685.178 539.102C664.671 553.931 642.657 566.697 619.589 577.151C615.613 578.95 610.863 580.665 607.068 578.498C603.657 576.553 602.513 572.261 601.934 568.392C599.953 555.036 602.43 540.818 608.359 528.669C609.44 526.447 611.839 524.926 614.316 524.877C616.792 524.828 619.247 526.266 620.412 528.447C620.782 525.134 622.791 523.217 626.139 523.002C629.48 522.793 632.8 525.231 633.589 528.475C634.691 526.377 637.104 525.752 639.246 526.78C641.387 527.808 642.447 530.635 641.492 532.802C642.252 531.08 644.163 530.705 645.879 530.76C647.972 530.83 649.039 532.101 649.855 533.913C648.272 530.378 650.79 525.342 654.34 523.766C657.891 522.189 662.125 522.786 664.545 525.822C666.254 524.391 668.354 524.009 670.223 525.224C672.092 526.44 673.02 528.926 672.399 531.059C673.962 527.259 678.042 525.474 681.872 526.989C685.701 528.503 687.836 533.316 686.364 537.15" stroke="#333333" stroke-width="1.8" stroke-miterlimit="10" stroke-linejoin="round"/>
<path d="M686.58 528.176C686.036 526.836 685.834 525.356 685.994 523.918C686.127 522.745 686.524 521.55 687.362 520.716C688.199 519.883 689.538 519.466 690.626 519.945C690.159 518.147 690.507 516.452 691.819 515.132C693.13 513.812 695.153 513.243 696.967 513.687C698.124 512.555 699.513 512.402 701.089 512.798C702.665 513.194 703.991 514.444 704.465 515.993L686.587 528.183L686.58 528.176Z" fill="#009A56" stroke="#333333" stroke-width="1.8" stroke-miterlimit="10" stroke-linejoin="round"/>
<path d="M709.683 511.75C707.939 510.631 707.018 508.374 707.486 506.367C707.946 504.352 709.767 502.727 711.824 502.47C711.134 500.984 711.155 499.657 712.222 498.421C713.289 497.184 715.117 496.636 716.693 497.094C716.526 495.899 716.965 494.885 717.942 494.17C718.918 493.454 720.292 493.316 721.394 493.829C721.834 492.26 723.501 491.503 725.112 491.78C726.724 492.058 727.993 493.67 727.882 495.295L709.69 511.757L709.683 511.75Z" fill="#009A56" stroke="#333333" stroke-width="1.8" stroke-miterlimit="10" stroke-linejoin="round"/>
</g>
<path d="M711.776 489.697C710.387 490.072 708.776 490.398 707.632 489.53C706.398 488.592 706.391 486.641 707.2 485.321C708.009 484.001 709.404 483.161 710.743 482.376C736.406 467.317 762.863 451.967 792.292 447.383C790.674 447.633 786.335 453.961 784.905 455.28C782.261 457.732 779.436 460.004 776.472 462.066C770.515 466.206 764.335 468.72 757.68 471.283C750.154 474.173 743.109 478.611 735.589 481.66C727.826 484.807 719.867 487.495 711.783 489.69L711.776 489.697Z" fill="#B3E2FF" stroke="#333333" stroke-width="1.8" stroke-miterlimit="10" stroke-linejoin="round"/>
<path d="M687.376 526.44C664.511 543.874 639.176 558.092 612.384 568.601V616.735L857.609 472.492L857.539 417.378C826.59 419.683 796.951 434.943 771.882 453.85C742.216 476.222 716.923 503.908 687.376 526.44Z" fill="#3DC181" stroke="#333333" stroke-width="1.8" stroke-miterlimit="10" stroke-linejoin="round"/>
<path d="M776.834 462.803C774.756 464.296 773.033 465.894 770.933 467.38C767.467 469.825 762.995 471.957 760.184 474.562C759.501 475.194 758.915 475.868 758.796 476.514C758.678 477.16 759.089 477.764 760.08 477.958C761.761 478.285 764.083 477.361 765.785 476.472C768.534 475.034 771.052 473.471 773.821 472.054C777.211 470.318 780.943 468.811 784.445 467.151C787.946 465.491 791.301 463.595 793.401 461.434C794.154 460.663 794.74 459.844 794.817 459.08C794.894 458.316 794.405 457.607 793.296 457.302C788.776 456.065 779.897 460.601 776.841 462.796L776.834 462.803Z" fill="#FFDD83" stroke="#333333" stroke-width="1.8" stroke-miterlimit="10" stroke-linejoin="round"/>
<path d="M658.128 500.449C657.745 500.789 657.354 501.171 657.242 501.671C657.061 502.512 657.821 503.317 658.658 503.526C659.495 503.734 660.367 503.491 661.197 503.248C668.682 501.039 675.978 498.226 683.002 494.837C684.028 494.344 685.227 493.441 684.879 492.364C684.648 491.649 683.839 491.322 683.107 491.142C674.709 489.072 664.155 495.073 658.128 500.456V500.449Z" fill="#FFDD83" stroke="#333333" stroke-width="1.8" stroke-miterlimit="10" stroke-linejoin="round"/>
<path d="M690.494 497.094C688.98 497.788 687.564 498.705 686.309 499.796C686.085 499.99 685.841 500.254 685.904 500.546C685.988 500.949 686.539 501.011 686.957 500.97C689.734 500.657 692.419 499.56 694.616 497.83C695.118 497.441 695.628 496.747 695.244 496.24C695.014 495.941 694.588 495.906 694.212 495.92C692.9 495.969 691.603 496.385 690.501 497.101" fill="#FFDD83"/>
<path d="M690.494 497.094C688.98 497.788 687.564 498.705 686.309 499.796C686.085 499.99 685.841 500.254 685.904 500.546C685.988 500.949 686.539 501.011 686.957 500.97C689.734 500.657 692.419 499.56 694.616 497.83C695.118 497.441 695.628 496.747 695.244 496.24C695.014 495.941 694.588 495.906 694.212 495.92C692.9 495.969 691.603 496.385 690.501 497.101" stroke="#333333" stroke-width="1.8" stroke-miterlimit="10" stroke-linejoin="round"/>
<path opacity="0.7" d="M652.653 572.143L618.006 592.529V605.274V605.302L652.688 584.909L652.653 572.143Z" fill="#2B333F" stroke="#333333" stroke-width="1.8" stroke-miterlimit="10" stroke-linejoin="round"/>
<path opacity="0.7" d="M652.653 555.57L618.006 575.949V588.695V588.722L652.688 568.33L652.653 555.57Z" fill="#2B333F" stroke="#333333" stroke-width="1.8" stroke-miterlimit="10" stroke-linejoin="round"/>
<path opacity="0.7" d="M652.653 538.991L618.006 559.37V572.115V572.143L652.688 551.75L652.653 538.991Z" fill="#2B333F" stroke="#333333" stroke-width="1.8" stroke-miterlimit="10" stroke-linejoin="round"/>
<path opacity="0.7" d="M691.533 549.277L656.88 569.663V582.402V582.436L691.561 562.037L691.533 549.277Z" fill="#2B333F" stroke="#333333" stroke-width="1.8" stroke-miterlimit="10" stroke-linejoin="round"/>
<path opacity="0.7" d="M691.533 532.698L656.88 553.084V565.829V565.857L691.561 545.457L691.533 532.698Z" fill="#2B333F" stroke="#333333" stroke-width="1.8" stroke-miterlimit="10" stroke-linejoin="round"/>
<path opacity="0.7" d="M691.533 516.125L656.88 536.504V549.25V549.277L691.561 528.885L691.533 516.125Z" fill="#2B333F" stroke="#333333" stroke-width="1.8" stroke-miterlimit="10" stroke-linejoin="round"/>
<path opacity="0.45" d="M816.416 354.335L816.415 354.336C815.296 354.993 814.607 356.198 814.607 357.498V475.291C814.607 478.13 817.709 479.903 820.177 478.453L845.672 463.458L845.672 463.457C846.792 462.8 847.481 461.595 847.481 460.295C847.481 460.295 847.481 460.295 847.481 460.295L847.453 342.516V342.516C847.453 339.683 844.35 337.904 841.883 339.353L816.416 354.335ZM816.416 354.335L841.882 339.354L816.416 354.335Z" fill="#63BDFF" stroke="#333333" stroke-width="1.8" stroke-linejoin="round"/>
<g opacity="0.7">
<path d="M655.722 430.151L622.966 449.39C621.292 450.377 619.778 452.446 618.983 454.836C617.239 460.073 619.666 463.97 623.335 461.816L656.092 442.577C657.773 441.59 659.293 439.513 660.081 437.11C661.811 431.88 659.384 427.997 655.729 430.144L655.722 430.151Z" fill="#2B333F" stroke="#333333" stroke-width="1.8" stroke-miterlimit="10" stroke-linejoin="round"/>
<path d="M655.722 446.32L622.966 465.56C621.292 466.546 619.778 468.616 618.983 471.006C617.239 476.243 619.666 480.139 623.335 477.986L656.092 458.746C657.773 457.76 659.293 455.683 660.081 453.28C661.811 448.05 659.384 444.167 655.729 446.313L655.722 446.32Z" fill="#2B333F" stroke="#333333" stroke-width="1.8" stroke-miterlimit="10" stroke-linejoin="round"/>
</g>
<path d="M857.539 417.377L857.532 407.514L857.4 304.182L612.384 448.307V514.597V568.594V616.506V616.735L857.609 472.492L857.539 417.377Z" stroke="#333333" stroke-width="1.8" stroke-miterlimit="10" stroke-linejoin="round"/>
<path d="M749.2 445.691L748.496 445.692L748.511 458.5L749.216 458.499L749.2 445.691Z" fill="#FF1919" stroke="#333333" stroke-width="1.8" stroke-linecap="round" stroke-linejoin="round"/>
<path d="M755.658 447.341C755.679 447.883 755.211 448.342 754.702 448.543C754.193 448.744 752.016 449.008 751.486 449.12C750.956 449.231 750.238 449.481 749.994 449.967L750.036 445.841C750.28 445.355 750.838 445.105 751.375 444.994C751.912 444.883 754.081 444.612 754.59 444.417C755.1 444.223 755.567 443.764 755.546 443.216L755.665 447.341H755.658Z" fill="#FF1919" stroke="#333333" stroke-width="1.8" stroke-linecap="round" stroke-linejoin="round"/>
</g>
<defs>
<clipPath id="clip0_40_647">
<rect width="1080" height="740" rx="20" fill="white"/>
</clipPath>
</defs>
</svg>
