<svg width="132" height="161" viewBox="0 0 132 161" fill="none" xmlns="http://www.w3.org/2000/svg">
<g clip-path="url(#clip0_4_1521)">
<path d="M15.6799 56.46C15.2299 58.79 14.5199 61.05 13.7499 63.32C12.9799 65.59 12.1999 67.8 11.1499 69.96C10.1099 72.09 9.01994 74.21 7.69994 76.22C6.39994 78.2 4.85994 80.02 3.30994 81.86C2.97994 82.26 2.88994 82.75 3.02994 83.22C3.18994 83.75 3.64994 84.2 4.24994 84.37C6.59994 85.02 9.02994 85.4 11.4399 85.84C13.8499 86.28 16.2499 86.67 18.6899 86.89C21.1299 87.11 23.5699 87.4 26.0099 87.41C28.4499 87.42 30.8799 86.94 33.3199 86.74C35.7599 86.54 38.1599 86.16 40.5599 85.75" fill="#C67D71"/>
<path d="M14.23 56.0599C13.31 60.6699 11.73 65.3799 9.64997 69.5999C8.62997 71.6699 7.55997 73.7199 6.26997 75.6399C4.97997 77.5599 3.46997 79.1399 2.11997 80.9399C0.90997 82.5499 1.52997 84.7399 3.31997 85.5999C5.26997 86.5299 7.78997 86.6999 9.89997 87.0799C14.74 87.9399 19.62 88.6599 24.54 88.8699C27.26 88.9899 29.89 88.5799 32.58 88.3099C35.27 88.0399 38.17 87.6699 40.95 87.1999C42.85 86.8699 42.04 83.9799 40.15 84.3099C37.96 84.6899 35.77 85.0299 33.55 85.2299C31.36 85.4299 29.18 85.8099 26.98 85.8999C22.62 86.0799 18.05 85.4599 13.75 84.7399C11.68 84.3899 9.59997 84.0299 7.52997 83.6099C7.00997 83.4999 6.47997 83.3899 5.95997 83.2699C5.68997 83.2099 4.80997 83.1299 4.62997 82.9299C4.36997 82.6299 4.80997 82.3899 5.07997 82.0699C5.41997 81.6699 5.74997 81.2699 6.07997 80.8599C8.63997 77.7299 10.67 74.3599 12.42 70.7299C14.52 66.3999 16.16 61.5899 17.1 56.8699C17.48 54.9799 14.59 54.1799 14.21 56.0699L14.23 56.0599Z" fill="#333333"/>
<path d="M116.33 56.49C116.78 58.82 117.25 61.19 118.02 63.46C118.78 65.71 119.67 67.95 120.73 70.11C121.77 72.24 123 74.32 124.31 76.33C125.61 78.31 127.27 80.06 128.82 81.89C129.15 82.29 129.28 82.75 129.14 83.23C128.98 83.76 128.5 84.18 127.9 84.34C125.55 84.99 123.15 85.47 120.74 85.91C118.34 86.35 115.89 86.42 113.45 86.64C111.02 86.87 108.59 87.08 106.15 87.09C103.71 87.1 101.27 86.97 98.8401 86.77C96.4101 86.57 94.0101 86.14 91.6101 85.73" fill="#C67D71"/>
<path d="M114.88 56.8899C116.44 65.0199 119.57 73.0499 124.83 79.5299C125.4 80.2299 125.99 80.8999 126.58 81.5799C126.8 81.8299 127.53 82.3999 127.59 82.6899C127.64 82.9399 127.72 82.6599 127.5 82.8899C127.37 83.0299 126.75 83.0899 126.56 83.1399C124.43 83.6899 122.26 84.1299 120.1 84.4999C117.94 84.8699 115.67 84.9399 113.45 85.1399C111.26 85.3299 109.08 85.5299 106.88 85.5799C101.87 85.6799 96.93 85.1399 92 84.2799C90.11 83.9499 89.3 86.8399 91.2 87.1699C95.99 87.9999 100.78 88.5799 105.65 88.5799C108.09 88.5799 110.52 88.3899 112.95 88.1699C115.35 87.9499 117.77 87.8499 120.16 87.4999C122.57 87.1399 124.98 86.6299 127.34 86.0199C129.18 85.5499 131.18 84.3699 130.59 82.1099C130.35 81.1899 129.59 80.4799 128.98 79.7799C128.2 78.8799 127.4 77.9799 126.66 77.0399C125.27 75.2699 124.11 73.2799 123.03 71.3099C120.4 66.5099 118.79 61.4299 117.76 56.0799C117.4 54.1899 114.5 54.9899 114.87 56.8799L114.88 56.8899Z" fill="#333333"/>
<path d="M40.3101 154.78C40.4301 158.44 40.3101 158.44 40.4301 162.1C40.5501 165.76 40.6101 165.76 40.7301 169.42C40.8501 173.08 40.6601 173.09 40.7801 176.75C40.9001 180.41 40.9201 180.41 41.0401 184.07C41.1601 187.73 41.1001 187.74 41.2201 191.4C41.3401 195.06 41.4301 195.06 41.5501 198.72C41.5801 199.53 42.3101 200.34 43.1301 200.34C46.8701 200.34 46.8701 200.11 50.6001 200.11C54.3301 200.11 54.3401 200.03 58.0801 200.03C61.8201 200.03 61.8201 200.4 65.5601 200.4C66.3901 200.4 66.9301 199.5 66.9301 198.67C66.9301 194.94 67.0501 194.94 67.0501 191.21C67.0501 187.48 67.0801 187.48 67.0801 183.75C67.0801 180.02 66.8601 180.02 66.8601 176.29C66.8601 172.56 66.8401 172.56 66.8401 168.83C66.8401 165.1 67.1501 165.1 67.1501 161.37C67.1501 157.64 67.0601 157.64 67.0601 153.91" fill="#FCFCFC"/>
<path d="M38.81 154.78C38.94 158.7 38.9399 162.61 39.1199 166.53C39.3099 170.61 39.21 174.69 39.36 178.77C39.49 182.48 39.5899 186.2 39.6899 189.91C39.7499 191.93 39.85 193.95 39.95 195.97C40.05 197.99 39.74 200.69 42.08 201.62C43.72 202.27 46.0099 201.77 47.7599 201.68C49.8299 201.57 51.91 201.62 53.99 201.58C56.07 201.54 58.06 201.48 60.08 201.58C61.9 201.67 63.74 202.02 65.57 201.9C68.27 201.73 68.4199 199.13 68.4499 197.02C68.4699 195.31 68.5499 193.6 68.5599 191.89C68.5799 187.94 68.71 183.97 68.48 180.02C68.23 175.63 68.18 171.09 68.4 166.7C68.5 164.55 68.68 162.44 68.66 160.28C68.64 158.12 68.57 156.03 68.57 153.91C68.57 151.98 65.57 151.98 65.57 153.91C65.57 157.56 65.82 161.22 65.5299 164.86C65.2399 168.5 65.37 171.89 65.37 175.4C65.37 179.18 65.61 182.95 65.58 186.74C65.56 190.17 65.4899 193.6 65.4499 197.03C65.4499 197.42 65.6099 198.34 65.4499 198.68C65.2599 199.07 65.26 198.93 64.68 198.91C63.8099 198.87 62.95 198.84 62.08 198.76C60.2 198.58 58.3299 198.54 56.4399 198.56C52.9599 198.59 49.47 198.62 45.99 198.8C45.59 198.82 45.1799 198.84 44.7799 198.85C44.4899 198.85 43.4199 199.04 43.1899 198.88C42.7599 198.57 42.9699 196.56 42.9399 195.99C42.8399 194.16 42.7499 192.34 42.6899 190.51C42.5799 186.94 42.51 183.37 42.38 179.8C42.22 175.57 42.32 171.34 42.13 167.12C41.95 163.01 41.92 158.91 41.79 154.8C41.73 152.87 38.73 152.87 38.79 154.8L38.81 154.78Z" fill="#333333"/>
<path d="M65.3299 168.03C65.3699 171.86 65.1899 171.86 65.2299 175.69C65.2699 179.52 65.0799 179.52 65.1199 183.35C65.1599 187.18 65.3699 187.18 65.4099 191.01C65.4499 194.84 65.5899 194.84 65.6299 198.67C65.6299 199.5 66.1799 200 67.0099 200C70.7499 199.97 70.7499 200.28 74.4899 200.26C78.2299 200.23 78.2299 200.21 81.9699 200.18C85.7099 200.15 85.7099 200.14 89.4499 200.12C90.2599 200.12 90.8999 199.36 90.9299 198.54C91.0299 195.01 90.9099 195.01 91.0099 191.47C91.1099 187.93 91.2399 187.94 91.3399 184.41C91.4399 180.88 91.5599 180.88 91.6599 177.35C91.7599 173.82 91.3999 173.81 91.4999 170.27C91.5999 166.73 91.7699 166.74 91.8699 163.2C91.9699 159.66 91.8399 159.66 91.9299 156.12C91.9499 155.27 91.4499 154.46 90.5999 154.46C87.0399 154.46 87.0399 154.67 83.4899 154.67C79.9399 154.67 79.9299 154.57 76.3699 154.57C72.8099 154.57 72.8099 154.59 69.2499 154.59C65.6899 154.59 65.6899 154.63 62.1299 154.63" fill="#FCFCFC"/>
<path d="M63.8301 168.03C63.8601 172.38 63.7101 176.73 63.6301 181.08C63.5401 185.57 63.8101 190.12 64.0101 194.61C64.0501 195.54 64.0901 196.48 64.1101 197.41C64.1401 198.73 64.0601 200.09 65.2501 200.96C66.2501 201.68 67.4901 201.5 68.6601 201.53C69.6501 201.56 70.6401 201.65 71.6301 201.71C76.1701 201.99 80.8001 201.71 85.3401 201.67C87.4401 201.65 90.5501 202.29 91.8901 200.28C92.6001 199.21 92.4501 197.84 92.4701 196.62C92.4701 195.66 92.4701 194.7 92.4701 193.74C92.5001 189.26 92.7801 184.76 93.0401 180.29C93.3001 175.77 92.8401 171.28 93.1801 166.76C93.3501 164.49 93.4101 162.21 93.4001 159.93C93.3901 157.96 94.0401 155.01 92.3001 153.62C91.2001 152.74 89.6501 152.98 88.3301 153.04C87.2601 153.08 86.1801 153.17 85.1101 153.2C82.6201 153.26 80.1301 153.14 77.6401 153.12C72.4701 153.07 67.2901 153.17 62.1201 153.17C60.1901 153.17 60.1901 156.17 62.1201 156.17C66.1101 156.17 70.1101 156.13 74.1001 156.11C78.3301 156.09 82.5701 156.36 86.8001 156.11C87.7101 156.06 88.6101 156.01 89.5201 156C89.7101 156 90.4801 155.89 90.6001 156C90.4201 155.84 90.4101 155.98 90.4301 156.16C90.5201 156.77 90.4001 157.49 90.3901 158.11C90.3801 160.12 90.4101 162.12 90.3401 164.12C90.2701 166.03 90.0701 167.93 90.0101 169.84C89.9501 171.83 90.1401 173.78 90.1701 175.76C90.2401 179.88 89.9201 184.1 89.6601 188.21C89.5201 190.32 89.4701 192.43 89.4701 194.54C89.4701 195.4 89.4701 196.26 89.4701 197.12C89.4701 197.4 89.6201 198.43 89.4001 198.64C89.2001 198.84 87.7801 198.64 87.4801 198.64C83.5801 198.67 79.6901 198.72 75.7901 198.75C73.7201 198.77 71.6801 198.66 69.6101 198.55C69.0501 198.52 68.4801 198.5 67.9201 198.5C67.7301 198.5 67.2301 198.57 67.0201 198.5C67.1701 198.55 67.0201 198.88 67.1401 198.44C67.3701 197.56 67.1001 196.24 67.0601 195.32C66.8501 190.69 66.5801 186.01 66.6401 181.38C66.7001 176.75 66.8901 172.47 66.8501 168.02C66.8301 166.09 63.8301 166.09 63.8501 168.02L63.8301 168.03Z" fill="#333333"/>
<path d="M35.7399 115.05C35.9399 113.8 36.3799 112.59 36.7099 111.34C37.2299 109.39 37.8799 107.45 38.7399 105.63C39.6099 103.79 40.5399 101.95 41.9699 100.49C44.4599 97.9301 47.1799 97.1101 49.9799 96.9101C52.7899 96.7101 55.8199 97.4801 58.8999 96.8301C61.3699 96.3101 63.8799 95.8001 66.4299 95.8501C68.9899 95.8901 71.5399 96.2101 73.9799 96.8701C75.8899 97.3801 78.7199 98.3501 81.2899 99.5801C83.9899 100.88 86.1999 102.53 86.7299 104.67C87.3099 107.01 88.2099 109.28 88.6899 111.64C89.1799 114 89.3699 116.42 89.7699 118.79C90.1699 121.16 90.7599 123.52 91.0599 125.91C91.3699 128.3 91.5699 130.71 91.7899 133.11C92.0099 135.51 92.1399 137.92 92.2599 140.33C92.3799 142.74 92.2299 145.15 92.2599 147.56C92.2899 150.03 92.5099 152.24 91.8999 153.98C91.2599 155.81 89.8799 157.15 87.0099 157.75C84.9399 158.18 82.7699 158.41 80.5599 158.52C78.3499 158.63 76.2299 158.31 74.0599 158.28C71.8499 158.25 69.6599 158.49 67.5599 158.5C65.1899 158.51 62.8099 158.25 60.4399 158.21C58.0699 158.17 55.6899 158.21 53.3199 158.12C50.9499 158.03 48.5699 158.02 46.1999 157.88C43.3799 157.88 40.3099 157.1 38.0099 155.41C35.6499 153.69 33.9299 151.05 33.6599 148.09C33.3499 144.71 32.9499 141.17 33.0699 137.78C33.1399 135.74 33.7899 133.97 34.1199 131.99C34.5899 129.17 34.6099 126.35 34.7999 123.54C34.9899 120.73 35.2699 117.9 35.7199 115.09L35.7399 115.05Z" fill="#FCFCFC"/>
<path d="M37.1899 115.45C37.8299 111.96 39.0099 108.37 40.6099 105.2C42.0299 102.38 44.0299 99.9201 47.1399 98.9401C50.1099 98.0001 53.1099 98.6101 56.1499 98.5901C59.6299 98.5701 62.9399 97.3101 66.4299 97.3401C69.7899 97.3701 73.0399 98.0301 76.1999 99.1101C78.9799 100.06 82.3899 101.2 84.3899 103.47C85.2299 104.42 85.3999 105.61 85.7499 106.79C86.2699 108.53 86.8599 110.24 87.2299 112.01C87.9499 115.47 88.2499 119.01 88.9399 122.48C89.6399 125.98 89.9599 129.52 90.2799 133.08C90.5999 136.76 90.8399 140.46 90.7799 144.15C90.7599 145.73 90.7399 147.31 90.7799 148.89C90.8199 150.4 90.9899 152.1 90.4499 153.55C89.5199 156.02 86.5899 156.36 84.2999 156.67C80.8499 157.13 77.5199 156.8 74.0699 156.74C70.5399 156.68 67.0699 157.01 63.5399 156.8C59.9799 156.59 56.4199 156.68 52.8599 156.56C49.6099 156.46 46.1099 156.73 42.9299 155.95C39.7099 155.17 36.7699 153.09 35.6099 149.89C35.0199 148.27 35.0199 146.48 34.8699 144.78C34.6899 142.75 34.5399 140.7 34.5599 138.66C34.5799 136.79 35.0299 135.06 35.4099 133.24C35.8199 131.27 35.9899 129.25 36.1099 127.24C36.3399 123.29 36.5699 119.35 37.1799 115.43C37.4799 113.54 34.5899 112.73 34.2899 114.63C33.6799 118.5 33.3699 122.39 33.1599 126.3C33.0599 128.2 32.9699 130.12 32.6099 131.99C32.2399 133.91 31.6799 135.76 31.5899 137.73C31.4099 141.37 31.7299 145.23 32.2699 148.83C32.7499 152.01 34.6799 154.81 37.2599 156.67C40.0399 158.67 43.3399 159.23 46.6899 159.37C50.6399 159.53 54.5999 159.63 58.5599 159.65C62.3299 159.67 66.0899 160.07 69.8599 159.88C71.7299 159.79 73.5999 159.69 75.4699 159.79C77.4899 159.9 79.4899 160.06 81.5199 159.93C84.7199 159.72 88.6599 159.55 91.2599 157.44C93.4699 155.65 93.8699 152.87 93.8399 150.18C93.7999 146.24 93.8899 142.3 93.6699 138.36C93.4499 134.51 93.1399 130.66 92.6899 126.83C92.2199 122.84 91.2799 118.92 90.7399 114.93C90.2499 111.25 89.2399 107.78 88.1799 104.23C87.2599 101.15 84.4199 99.3401 81.6499 98.0501C78.6099 96.6401 75.3699 95.4601 72.0699 94.8601C67.6099 94.0501 63.3899 94.3601 58.9799 95.2501C55.1499 96.0201 51.2599 94.8901 47.4199 95.7301C43.5999 96.5701 40.5599 99.1401 38.6499 102.5C36.5599 106.17 35.0699 110.47 34.3099 114.62C33.9599 116.51 36.8499 117.32 37.1999 115.42L37.1899 115.45Z" fill="#333333"/>
<path d="M50.2999 125.34C50.3799 127.39 50.1899 129.46 50.2799 131.51C50.3699 133.56 50.6999 135.6 50.7799 137.65C50.8599 139.7 51.0799 141.75 51.1399 143.8C51.2299 147.07 51.8299 150.32 51.9899 153.6C52.1099 156.07 52.4399 161.13 49.9799 162.69C48.9599 163.34 47.6699 163.56 46.4599 163.57C42.9499 163.59 39.4299 163.3 35.9499 162.76C32.9499 162.3 33.3999 159.99 33.3399 157.61C33.3199 156.9 32.6999 149.87 32.0899 149.92C30.0899 150.07 27.1199 149.71 24.2199 149.55C21.3199 149.39 18.4599 149.03 16.7199 147.89C14.7199 146.58 13.3599 144.73 12.5699 142.47C11.7799 140.21 11.4999 137.87 11.6499 135.56C11.8099 133 12.4699 130.56 13.3199 128.16C14.1699 125.76 15.2699 123.5 16.6299 121.33C17.9899 119.17 19.5499 117.17 21.2599 115.3C21.8899 114.6 23.6899 112.44 26.4299 110.2C28.1399 108.8 30.2299 107.39 32.2999 105.9C34.3699 104.41 36.5499 103.36 38.5499 102.2C40.9699 100.79 43.0899 99.23 44.9899 98.8C47.8399 98.16 49.6099 99.24 49.6899 102.58C49.7499 105.11 50.0099 107.64 50.0299 110.17C50.0499 112.7 50.3299 115.23 50.3599 117.76C50.3899 120.29 50.1899 122.82 50.2999 125.35V125.34Z" fill="#AFAFAF"/>
<path d="M48.8 125.34C48.85 127.08 48.74 128.82 48.75 130.56C48.77 132.3 48.99 134.03 49.15 135.76C49.45 139.09 49.49 142.44 49.75 145.76C49.99 148.79 50.44 151.79 50.55 154.83C50.62 156.69 50.86 159.47 49.6 161.03C48.89 161.92 47.51 162.03 46.46 162.06C44.71 162.1 42.94 162 41.19 161.86C39.58 161.73 37.94 161.61 36.35 161.3C35.26 161.09 34.95 160.79 34.87 159.7C34.62 156.53 34.8 153.22 33.88 150.13C33.7 149.54 33.46 148.94 32.89 148.62C32.37 148.32 31.77 148.44 31.2 148.44C30.37 148.44 29.54 148.4 28.71 148.35C25.62 148.15 22.29 148.21 19.3 147.36C13.45 145.69 12.47 138.12 13.48 133.05C15.86 121.22 25.17 111.72 35.24 105.75C36.71 104.88 38.23 104.1 39.7 103.23C41.17 102.36 42.56 101.36 44.1 100.66C44.96 100.27 46.34 99.7801 47.27 100.25C48.07 100.65 48.14 101.78 48.18 102.55C48.37 106.34 48.45 110.14 48.68 113.93C48.91 117.73 48.66 121.52 48.79 125.32C48.86 127.25 51.86 127.25 51.79 125.32C51.66 121.52 51.91 117.73 51.68 113.93C51.45 110.14 51.37 106.34 51.18 102.55C51.06 100.22 50.22 97.8901 47.73 97.2501C45.01 96.5501 42.33 98.1001 40.11 99.4601C37.14 101.28 33.99 102.83 31.15 104.85C28.24 106.92 25.3 108.94 22.76 111.46C18.4 115.77 14.62 120.76 12.34 126.48C9.95002 132.47 8.72002 140.13 12.58 145.83C14.27 148.33 16.66 149.92 19.61 150.51C23.04 151.19 26.73 151.31 30.21 151.42C30.54 151.42 30.86 151.44 31.19 151.43C32.38 151.42 30.94 150.82 30.95 150.81C30.88 150.84 30.92 150.5 30.97 150.91C30.99 151.08 31.06 151.25 31.09 151.42C31.28 152.3 31.4 153.2 31.5 154.1C31.7 155.78 31.81 157.42 31.83 159.11C31.88 161.95 33.07 163.8 36.01 164.25C39.55 164.8 43.26 165.21 46.85 165.03C50.23 164.86 52.58 163.12 53.24 159.78C53.8 156.96 53.56 153.96 53.29 151.12C52.87 146.78 52.51 142.45 52.29 138.1C52.18 136.05 51.91 134.01 51.79 131.96C51.66 129.75 51.86 127.53 51.79 125.32C51.73 123.39 48.73 123.39 48.79 125.32L48.8 125.34Z" fill="#333333"/>
<path d="M45.66 97.4399C43.77 98.1599 42.12 99.4899 40.8 101.03C39.48 102.57 38.72 104.46 38.3 106.45C38.01 107.8 37.92 109.13 38.29 110.46C39.13 113.52 41.61 115.6 44.25 117.36C41.97 119.2 39.42 121.59 39.8 124.5C39.97 125.82 40.82 127.07 41.61 128.15C43.64 130.93 45.9001 133.6 48.4001 135.97" fill="#AFAFAF"/>
<path d="M45.26 95.9999C40.54 97.9199 37.36 102.11 36.67 107.15C35.98 112.19 39.5101 115.98 43.4901 118.65C43.3901 117.86 43.29 117.08 43.19 116.29C40.22 118.7 37.0801 122.14 38.7501 126.23C39.5801 128.25 41.1101 130.01 42.4701 131.69C43.9801 133.57 45.6 135.34 47.35 137.01C48.75 138.34 50.8701 136.23 49.4701 134.89C46.7601 132.29 44.0801 129.38 42.0901 126.18C41.1901 124.73 41.0101 123.37 41.9101 121.88C42.7501 120.5 44.0601 119.42 45.3 118.41C46.1 117.76 45.7201 116.54 45.0001 116.05C42.0601 114.07 39.08 111.44 39.62 107.54C40.16 103.64 42.4901 100.34 46.0601 98.8799C47.8201 98.1599 47.05 95.2599 45.26 95.9899V95.9999Z" fill="#333333"/>
<path d="M82.2 125.33C82.11 127.56 82.48 129.8 82.38 132.03C82.28 134.26 82.28 136.49 82.19 138.71C82.11 140.94 81.64 143.15 81.58 145.38C81.52 147.61 81.82 149.84 81.82 152.07C81.82 154.3 81.45 156.53 81.51 158.76C81.51 161.64 84.37 162.82 87.45 163.04C90.53 163.26 93.79 162.61 95.35 162.2C95.77 162.09 96.16 161.86 96.48 161.57C96.96 161.13 97.32 160.48 97.41 159.83C97.85 156.56 98.58 153.34 98.8 150.09C102.18 150.09 105.64 149.73 108.57 148.06C111.12 146.61 113.18 144.36 114.26 141.64C115.31 138.98 115.24 135.89 114.91 133.05C114.58 130.16 113.71 127.45 112.49 124.8C111.28 122.18 110.15 119.45 108.6 117.03C107.49 115.29 106.09 113.33 104.8 111.33C103.51 109.33 102.06 107.41 100.41 106.11C98.28 104.41 95.57 103.07 93.28 101.49C91.68 100.39 89.13 99.3299 87.01 98.9499C84.74 98.5499 82.71 99.0499 82.62 102.57C82.56 105.1 82.99 107.64 82.98 110.17C82.96 112.7 82.46 115.23 82.43 117.76C82.4 120.29 82.29 122.81 82.19 125.34L82.2 125.33Z" fill="#AFAFAF"/>
<path d="M80.7001 125.33C80.6301 127.81 80.9401 130.27 80.8501 132.75C80.7601 135.21 80.8201 137.69 80.5901 140.15C80.3601 142.63 80.0101 145.04 80.1201 147.54C80.2301 150.04 80.3601 152.45 80.1801 154.94C80.0401 156.93 79.6201 159.27 80.5801 161.12C81.3401 162.59 82.8201 163.48 84.3501 163.99C87.8201 165.13 92.3001 164.69 95.7501 163.64C96.7401 163.34 97.5901 162.73 98.1701 161.87C98.8801 160.81 98.9401 159.58 99.1401 158.36C99.5801 155.61 100.1 152.87 100.3 150.09L98.8001 151.59C102.41 151.57 106.13 151.17 109.33 149.35C112.15 147.75 114.43 145.22 115.64 142.21C117.04 138.74 116.79 134.68 116.12 131.07C115.4 127.2 113.66 123.61 111.97 120.08C110.29 116.57 107.99 113.43 105.85 110.19C104.83 108.65 103.71 107.12 102.38 105.83C101.05 104.54 99.5601 103.6 98.0401 102.67C94.9901 100.8 92.0801 98.6901 88.5701 97.7501C86.2701 97.1401 83.4401 96.9701 81.9801 99.2501C81.0001 100.77 81.0701 102.73 81.1601 104.46C81.2701 106.76 81.5701 109.04 81.4501 111.35C81.3201 113.65 80.9701 115.92 80.9301 118.23C80.8901 120.6 80.7901 122.97 80.6901 125.34C80.6101 127.27 83.6101 127.27 83.6901 125.34C83.8401 121.71 83.8001 118.05 84.1601 114.44C84.3201 112.86 84.5001 111.29 84.4801 109.7C84.4601 107.79 84.2001 105.9 84.1401 104C84.1101 103.08 83.8801 101.32 84.7101 100.63C85.2101 100.21 86.0201 100.31 86.6101 100.4C89.7401 100.86 92.2301 102.68 94.8501 104.27C97.6501 105.97 100.25 107.58 102.23 110.25C104.19 112.89 106.09 115.73 107.77 118.57C109.47 121.43 110.94 124.62 112.08 127.74C113.25 130.95 113.83 134.44 113.57 137.86C113.32 141.17 111.64 144.13 108.93 146.06C105.95 148.18 102.35 148.59 98.7901 148.6C97.9401 148.6 97.3501 149.29 97.2901 150.1C97.1401 152.15 96.8101 154.16 96.4701 156.19C96.2101 157.75 96.4301 160.38 94.5901 160.86C91.6501 161.63 87.9101 162.14 84.9901 161.07C83.7501 160.61 83.0301 159.89 83.0001 158.55C82.9701 156.4 83.3001 154.26 83.3101 152.1C83.3101 150.03 83.0501 147.96 83.0701 145.89C83.0901 143.82 83.4601 141.77 83.6201 139.7C83.8101 137.32 83.7601 134.92 83.8501 132.54C83.9401 130.14 83.6201 127.76 83.6901 125.36C83.7401 123.43 80.7401 123.43 80.6901 125.36L80.7001 125.33Z" fill="#333333"/>
<path d="M86.96 97.78C88.85 98.5 90.44 99.66 91.75 101.2C93.07 102.74 94.19 104.43 94.62 106.41C94.91 107.76 94.78 109.12 94.42 110.44C93.58 113.5 90.84 115.56 88.2 117.32C90.48 119.16 93.2 121.57 92.81 124.47C92.64 125.79 91.7 126.89 90.91 127.97C88.88 130.75 86.53 133.26 84.03 135.63" fill="#AFAFAF"/>
<path d="M86.57 99.23C89.76 100.51 93.04 103.97 93.28 107.54C93.55 111.54 90.45 114.03 87.45 116.03C86.73 116.51 86.35 117.74 87.15 118.39C88.41 119.41 89.77 120.49 90.65 121.87C91.6 123.37 91.47 124.63 90.47 126.07C88.32 129.19 85.72 131.97 82.98 134.58C81.58 135.91 83.7 138.03 85.1 136.7C86.83 135.05 88.5 133.34 90.04 131.51C91.39 129.9 92.99 128.13 93.85 126.19C95.66 122.11 92.18 118.63 89.26 116.26L88.96 118.62C92.99 115.93 96.78 112.4 96.24 107.09C95.75 102.26 91.71 98.08 87.37 96.34C85.58 95.62 84.8 98.52 86.57 99.23Z" fill="#333333"/>
<path d="M83.15 99.0799C83.78 101.12 84.34 103.2 84.37 105.33C84.4 107.63 84 110.12 82.54 111.89C81.26 113.44 79.3 114.35 77.29 114.44C75.28 114.53 73.23 113.91 71.57 112.91C69.87 111.88 68.49 110.4 67.25 108.83C66.03 107.29 64.8 105.43 63.77 103.76C63.59 107.75 62.85 110.42 59.69 112.91C58.92 113.52 57.97 113.88 57.05 114.23C54.6 115.17 51.54 114.64 49.62 112.86C47.7 111.08 46.91 108.25 46.75 105.64C46.59 103.03 47.12 100.39 48.03 97.9299" fill="#FCFCFC"/>
<path d="M81.7001 99.4801C82.5401 102.25 83.2501 105.14 82.6501 108.03C82.1201 110.6 80.3501 112.6 77.6501 112.92C71.6201 113.63 67.7601 107.38 65.0501 103.01C64.2501 101.72 62.3301 102.29 62.2501 103.77C62.1401 106.01 61.8401 108.32 60.4001 110.13C58.7701 112.19 56.0001 113.62 53.3401 113.1C46.8601 111.83 47.8301 102.88 49.4601 98.3401C50.1101 96.5201 47.2201 95.7401 46.5701 97.5401C44.3101 103.84 44.4101 114.64 52.9001 116.05C56.3901 116.63 60.0001 115.14 62.3101 112.5C64.4901 110.02 65.0901 106.97 65.2501 103.76C64.3201 104.01 63.3901 104.26 62.4501 104.52C65.9701 110.19 71.0801 117.32 78.7901 115.76C82.0001 115.11 84.4401 112.7 85.3501 109.59C86.4001 105.97 85.6601 102.2 84.5901 98.6901C84.0301 96.8501 81.1301 97.6301 81.7001 99.4901V99.4801Z" fill="#333333"/>
<path d="M13.82 41.8C15.49 41.8 17.07 42.04 18.52 42.66C19.16 40.36 19.92 38.13 20.87 35.98C21.83 33.8 22.97 31.71 24.22 29.72C25.48 27.71 26.87 25.78 28.4 23.98C29.93 22.17 31.82 20.73 33.59 19.16C35.36 17.59 36.92 15.73 38.9 14.43C40.88 13.13 43 12.02 45.16 11.02C47.32 10.02 49.62 9.47999 51.91 8.79999C54.2 8.11999 56.42 7.42999 58.79 7.08999C61.1 6.75999 63.47 6.88999 65.87 6.88999C68.27 6.88999 70.61 7.01999 72.92 7.35999C75.29 7.69999 77.63 8.03999 79.87 8.70999C82.11 9.37999 84.41 10.14 86.55 11.13C88.69 12.12 90.72 13.4 92.69 14.7C94.67 16 96.51 17.49 98.28 19.06C100.05 20.63 101.98 22.07 103.52 23.88C105.05 25.68 106.46 27.63 107.72 29.65C108.98 31.67 109.73 33.94 110.69 36.12C111.65 38.3 112.56 40.47 113.2 42.77C114.68 42.12 116.34 41.99 118.06 41.99C120.27 41.99 122.38 42.25 124.16 43.29C125.94 44.33 127.38 46.03 128.44 47.87C129.5 49.71 129.99 51.67 129.99 53.87C129.99 56.07 129.49 58.1 128.46 59.88C127.4 61.72 126.07 63.5 124.23 64.57C122.39 65.64 120.27 66.18 118.06 66.18C116.69 66.18 115.27 65.68 114.04 65.25C113.56 67.75 112.82 70.21 111.99 72.56C111.16 74.91 110.23 77.28 109.04 79.49C107.84 81.72 106.51 83.85 105 85.86C103.48 87.87 101.81 89.76 100 91.51C98.19 93.26 96.41 95.08 94.35 96.54C92.3 97.99 89.97 99.02 87.7 100.15C85.43 101.28 83.23 102.5 80.81 103.27C78.43 104.03 75.91 104.36 73.39 104.75C70.87 105.14 68.43 105.4 65.87 105.4C63.31 105.4 60.82 105.04 58.37 104.67C55.85 104.28 53.31 104.05 50.94 103.29C48.57 102.53 46.17 101.54 43.93 100.42C41.67 99.29 39.72 97.64 37.67 96.19C35.62 94.74 33.59 93.25 31.79 91.5C29.98 89.75 28.33 87.86 26.81 85.85C25.29 83.85 23.93 81.74 22.73 79.52C21.54 77.32 20.62 74.99 19.77 72.6C18.92 70.21 18.1 67.87 17.62 65.38C16.43 65.77 15.15 66.27 13.83 66.27C11.62 66.27 9.68999 65.17 7.90999 64.13C6.07999 63.06 4.27999 61.84 3.21999 59.99C2.18999 58.21 1.48999 56.06 1.48999 53.85C1.48999 51.64 2.08999 49.44 3.10999 47.65C4.16999 45.81 5.98999 44.5 7.81999 43.43C9.64999 42.36 11.61 41.78 13.82 41.78V41.8Z" fill="#FFE6D9"/>
<path d="M13.8201 43.3001C15.3201 43.3201 16.7201 43.5401 18.1201 44.1001C18.8801 44.4001 19.7601 43.7601 19.9701 43.0501C22.1101 35.5001 26.0201 27.8001 31.9701 22.5301C33.4301 21.2301 34.9301 19.9901 36.3301 18.6301C37.6701 17.3201 39.0001 16.1101 40.6001 15.1301C44.0401 13.0201 47.5901 11.6101 51.4501 10.4901C53.4801 9.91008 55.4801 9.26008 57.5501 8.82008C59.5901 8.39008 61.6401 8.34008 63.7201 8.36008C67.9601 8.40008 72.1001 8.61008 76.2801 9.39008C84.4201 10.9201 91.3701 15.0301 97.5601 20.4001C99.2401 21.8601 101 23.2301 102.46 24.9301C103.92 26.6301 105.25 28.4801 106.42 30.3901C107.55 32.2301 108.28 34.2601 109.12 36.2401C110.09 38.5101 111.06 40.7601 111.75 43.1501C111.95 43.8601 112.84 44.5101 113.6 44.2001C116.57 42.9901 120.99 43.0101 123.74 44.7701C126.57 46.5801 128.37 50.1001 128.48 53.4101C128.59 56.8401 127.11 60.3401 124.46 62.5701C123.17 63.6501 121.5 64.2601 119.85 64.5301C117.92 64.8501 116.26 64.4101 114.44 63.7901C113.71 63.5401 112.74 64.0801 112.59 64.8401C110.94 73.2301 107.21 81.2801 101.53 87.7001C98.8401 90.7401 95.7701 93.9601 92.2801 96.0801C90.5001 97.1601 88.5901 98.0101 86.7401 98.9501C84.8901 99.8901 82.8901 100.98 80.8301 101.68C78.7501 102.39 76.5701 102.75 74.4001 103.08C72.2301 103.41 70.0001 103.74 67.7701 103.85C63.3401 104.07 58.8801 103.34 54.5201 102.59C50.3001 101.86 45.9401 100.15 42.3801 97.7601C38.9101 95.4301 35.3301 92.9201 32.3601 89.9701C25.6001 83.2201 20.9301 74.3501 19.0501 64.9801C18.9001 64.2201 17.9301 63.6901 17.2001 63.9301C15.6501 64.4501 14.1501 65.0001 12.5001 64.6101C10.9901 64.2501 9.63009 63.4201 8.31009 62.6301C5.56009 60.9801 3.77009 58.8501 3.14009 55.6301C2.55009 52.6201 3.41009 49.0301 5.63009 46.8501C7.85009 44.6701 10.7601 43.3501 13.8101 43.2901C15.7401 43.2501 15.7401 40.2501 13.8101 40.2901C9.88009 40.3601 5.94009 42.1501 3.23009 45.0101C0.540094 47.8501 -0.469906 52.1901 0.170094 55.9901C0.840094 59.9501 3.08009 62.9201 6.45009 65.0001C8.08009 66.0001 9.83009 67.0401 11.7001 67.4901C13.9301 68.0301 15.8801 67.5201 18.0001 66.8101L16.1501 65.7601C17.9201 74.6001 22.1701 83.0601 28.1101 89.8201C31.0801 93.1901 34.5601 95.7301 38.1501 98.3901C41.8901 101.16 45.8501 103.22 50.3001 104.65C52.5601 105.38 54.9101 105.65 57.2501 106C59.5601 106.34 61.8601 106.72 64.1901 106.84C68.9301 107.1 73.8401 106.36 78.4701 105.4C82.9001 104.49 86.8401 102.24 90.8501 100.25C94.9301 98.2201 98.1401 95.4301 101.36 92.2401C108.62 85.0501 113.5 75.6601 115.48 65.6401L113.63 66.6901C115.84 67.4501 117.87 67.8401 120.2 67.5001C122.39 67.1701 124.53 66.3601 126.26 64.9501C129.64 62.2001 131.61 57.7401 131.46 53.4201C131.32 49.1201 129.12 44.8801 125.57 42.4101C123.74 41.1301 121.56 40.6501 119.36 40.5201C117.16 40.3901 114.84 40.4901 112.79 41.3201L114.64 42.3701C114.01 40.1901 113.16 38.0901 112.26 36.0101C111.43 34.0901 110.71 32.1101 109.76 30.2501C107.9 26.5901 105.13 23.0301 102.04 20.3301C98.8701 17.5601 95.6901 14.8401 92.1401 12.5701C88.4301 10.2001 84.4901 8.50008 80.2701 7.27008C76.0401 6.04008 71.4601 5.50008 67.0601 5.41008C64.8501 5.37008 62.6101 5.29008 60.4101 5.43008C58.2101 5.57008 55.9401 6.08008 53.7601 6.69008C49.6401 7.86008 45.6101 9.02008 41.8001 11.0101C40.0101 11.9501 38.2401 12.9601 36.6701 14.2401C35.0901 15.5201 33.7301 17.0501 32.2001 18.3901C30.4701 19.9001 28.6801 21.3301 27.2001 23.0901C25.7201 24.8501 24.3001 26.7901 23.0501 28.7701C20.3901 32.9701 18.4301 37.4801 17.0801 42.2601C17.7001 41.9101 18.3101 41.5601 18.9301 41.2101C17.3001 40.5601 15.5801 40.3201 13.8301 40.3001C11.9001 40.2701 11.9001 43.2701 13.8301 43.3001H13.8201Z" fill="#333333"/>
<path d="M78.23 48.6C78.23 50.39 79.4 52.05 81.18 52.05C82.96 52.05 84.25 50.39 84.25 48.6C84.25 46.81 82.96 45.27 81.18 45.27C79.4 45.27 78.23 46.81 78.23 48.6Z" fill="#333333"/>
<path d="M47.52 48.6001C47.52 50.3901 48.78 51.6501 50.56 51.6501C52.34 51.6501 53.97 50.3801 53.97 48.6001C53.97 46.8201 52.34 45.3701 50.56 45.3701C48.78 45.3701 47.52 46.8101 47.52 48.6001Z" fill="#333333"/>
<path d="M68.6699 49.3499C67.7499 48.7599 66.7399 48.3399 65.6399 48.2499C65.1599 48.2099 64.6499 48.2799 64.1999 48.4199C63.5699 48.6299 63.0899 48.9399 62.5699 49.3399C62.2899 49.5599 62.1299 50.0599 62.1299 50.3999C62.1299 50.7699 62.2899 51.2099 62.5699 51.4599C62.8499 51.7099 63.2299 51.9199 63.6299 51.8999L64.0299 51.8499C64.2799 51.7799 64.4999 51.6499 64.6899 51.4599L64.7499 51.4099L64.4499 51.6399C64.6799 51.4699 64.9099 51.3299 65.1699 51.2199L64.8099 51.3699C65.0099 51.2899 65.2199 51.2299 65.4299 51.1999L65.0299 51.2499C65.2899 51.2199 65.5399 51.2199 65.7999 51.2499L65.3999 51.1999C65.7699 51.2499 66.1199 51.3599 66.4699 51.5099L66.1099 51.3599C66.4699 51.5199 66.8199 51.7099 67.1499 51.9299C67.8099 52.3499 68.8299 52.0899 69.1999 51.3899C69.5899 50.6499 69.3699 49.7899 68.6599 49.3399L68.6699 49.3499Z" fill="#333333"/>
<path d="M87.95 62.4901C87.95 65.3201 88.89 68.0201 90.74 69.8801C92.59 71.7401 95.29 72.8001 98.11 72.8001C100.93 72.8001 103.57 71.6701 105.41 69.8101C107.25 67.9601 108.42 65.3201 108.42 62.4901C108.42 59.6601 107.14 57.1401 105.3 55.2801C103.46 53.4201 100.93 52.0801 98.11 52.0801C95.29 52.0801 92.71 53.3701 90.86 55.2301C89.02 57.0801 87.95 59.6701 87.95 62.5001V62.4901Z" fill="#EDBBA6"/>
<path d="M23.27 62.49C23.27 65.32 24.37 68.07 26.21 69.93C28.06 71.79 30.81 72.96 33.63 72.96C36.45 72.96 39.11 71.7 40.96 69.84C42.8 67.99 43.7 65.32 43.7 62.49C43.7 59.66 42.84 56.96 40.99 55.11C39.14 53.25 36.45 52.26 33.62 52.26C30.8 52.26 28.31 53.46 26.47 55.32C24.63 57.17 23.26 59.66 23.26 62.49H23.27Z" fill="#EDBBA6"/>
<path d="M25.9801 45.3601C22.6401 45.9001 19.2301 45.5201 18.1901 42.55C17.9501 41.87 17.7401 41.19 17.7501 40.46C17.7801 38.16 18.0401 35.87 18.4401 33.62C18.8501 31.35 19.4501 29.12 20.2601 27C21.0801 24.84 22.0701 22.76 23.3101 20.84C24.5501 18.92 26.1901 17.32 27.8501 15.72C29.5301 14.11 31.1001 12.36 33.0201 11.05C34.9401 9.75005 37.0501 8.72005 39.1501 7.70005C41.2501 6.68005 43.3501 5.67005 45.5501 4.92005C47.7601 4.16005 50.1001 3.88005 52.3501 3.37005C54.6001 2.86005 56.8901 2.22005 59.1701 1.94005C61.5101 1.66005 63.8801 1.48005 66.2401 1.50005C68.6001 1.52005 70.9501 1.78005 73.2901 2.10005C75.6301 2.42005 77.9201 2.95005 80.2001 3.59005C82.2501 4.17005 84.3201 4.93005 86.4201 5.70005C88.5201 6.47005 90.5501 7.19005 92.4901 8.20005C94.4601 9.22005 96.3901 10.29 98.0901 11.64C100.03 13.18 101.71 15.01 103.39 16.87C105.07 18.73 106.84 20.47 108.31 22.48C109.81 24.53 111.02 27.1 112.25 29.63C113.48 32.16 114.59 34.71 114.99 37.28C115.58 41.05 114.67 42.93 112.96 43.64C111.24 44.35 108.75 43.7001 106 42.6501C103.83 41.8301 101.38 41.03 99.3101 39.87C96.6801 38.41 94.3501 37 93.0501 36.2201C90.5601 34.7201 88.2501 32.93 85.8601 31.28C83.4701 29.63 81.1001 27.95 78.7701 26.21C76.4401 24.47 74.2401 22.43 71.9301 20.61C70.6101 19.57 68.9901 17.58 67.1901 17.56C65.8901 17.55 64.2401 19.49 63.2501 20.33C61.6801 21.68 60.0801 22.98 58.4901 24.3C56.9001 25.62 55.3101 26.95 53.7101 28.25C51.1101 30.36 48.7101 32.9401 45.9001 34.75C43.7801 36.12 41.5801 37.3801 39.5001 38.7901C37.3901 40.2201 35.4101 41.8301 33.1701 42.93C30.9201 44.0401 28.5301 44.94 25.9901 45.35L25.9801 45.3601Z" fill="#C67D71"/>
<path d="M25.5801 43.91C24.1501 44.1199 22.4801 44.24 21.1201 43.65C19.4801 42.94 19.2101 41.1299 19.2701 39.5299C19.4401 35.25 20.3001 30.95 21.8701 26.96C22.6301 25.03 23.5701 23.14 24.7201 21.41C25.8401 19.73 27.3101 18.32 28.7501 16.92C30.2101 15.51 31.6001 13.97 33.2301 12.73C34.9501 11.42 36.9301 10.45 38.8601 9.49995C40.7901 8.54995 42.8001 7.53995 44.8601 6.74995C46.9201 5.95995 49.0201 5.54995 51.1601 5.12995C53.3001 4.70995 55.2401 4.16995 57.3001 3.74995C59.4601 3.30995 61.6801 3.11995 63.8801 3.02995C72.7701 2.63995 81.3901 5.10995 89.5401 8.46995C93.4401 10.08 96.9801 12.33 99.9301 15.34C101.31 16.75 102.62 18.24 103.96 19.69C105.3 21.14 106.75 22.72 107.85 24.48C109.34 26.85 118.22 42.9399 110.81 42.41C108.88 42.27 107.01 41.4199 105.22 40.7599C103.31 40.0599 101.43 39.33 99.6501 38.34C96.3401 36.49 93.0701 34.57 89.9801 32.38C86.3401 29.79 82.6101 27.32 79.0801 24.58C77.3601 23.25 75.7401 21.8 74.0601 20.42C72.7701 19.36 71.55 18.17 70.2001 17.19C68.93 16.27 67.35 15.73 65.84 16.37C64.43 16.97 63.3901 18.19 62.2701 19.19C59.0001 22.12 55.4901 24.79 52.1301 27.62C50.5401 28.95 49.0601 30.4 47.4701 31.73C45.8801 33.06 44.1001 34.1399 42.3301 35.2299C38.7501 37.4399 35.4401 40.27 31.6101 42.04C29.6901 42.93 27.6701 43.5599 25.5901 43.9199C23.6901 44.25 24.5001 47.14 26.3901 46.81C30.8501 46.04 34.7701 43.9899 38.4201 41.3899C42.2001 38.7 46.4001 36.59 49.9401 33.57C53.4801 30.5499 56.9101 27.55 60.4701 24.62C62.1401 23.24 63.8201 21.87 65.4001 20.39C65.8301 19.99 66.48 19.22 67.09 19.1C67.8 18.96 68.6001 19.7 69.1001 20.12C72.4201 22.93 75.6901 25.81 79.1901 28.39C82.9801 31.18 86.8301 33.9599 90.7601 36.5499C94.1201 38.77 97.7101 40.9799 101.44 42.52C103.46 43.35 105.54 44.1699 107.63 44.7999C109.4 45.34 111.43 45.76 113.23 45.15C116.55 44.02 116.94 40.36 116.52 37.34C115.9 32.91 113.59 28.62 111.48 24.73C109.37 20.85 106.26 17.74 103.29 14.52C100.2 11.18 96.7501 8.58995 92.6501 6.60995C88.5101 4.60995 83.94 3.02995 79.4901 1.85995C74.8701 0.629951 70.0401 -0.0600486 65.2901 -4.85554e-05C62.9601 0.0299514 60.6201 0.219951 58.3101 0.549951C56.0101 0.889951 53.7701 1.52995 51.4901 2.01995C49.2101 2.50995 46.9101 2.83995 44.7001 3.62995C42.5301 4.40995 40.4501 5.39995 38.3801 6.40995C36.3101 7.41995 34.0401 8.49995 32.0801 9.87995C30.3001 11.13 28.8001 12.69 27.2501 14.2C25.7001 15.71 24.1701 17.17 22.8601 18.88C21.5501 20.59 20.4501 22.68 19.5601 24.74C17.7301 29 16.6901 33.53 16.3401 38.15C16.1801 40.22 16.1601 42.3299 17.2901 44.16C18.1401 45.5299 19.5601 46.41 21.1101 46.7799C22.8501 47.1899 24.6201 47.0499 26.3601 46.79C28.2601 46.5 27.4501 43.61 25.5601 43.9L25.5801 43.91Z" fill="#333333"/>
<path d="M65.8399 63.9099C67.4699 63.8399 69.1399 63.4699 70.3899 62.4099C71.6399 61.3499 72.1999 59.7299 72.1399 58.0999C72.1199 57.4799 72.0299 56.9799 71.5199 56.6199C70.2099 55.7099 66.6599 56.0899 65.0999 56.1099C63.6699 56.1199 61.3999 56.0799 60.0599 56.5599C57.6599 57.4199 59.5399 60.2499 60.6799 61.7099C61.8999 63.2599 63.8599 63.9899 65.8499 63.9099H65.8399Z" fill="#FCFCFC"/>
<path d="M65.8401 65.41C67.5101 65.33 69.2601 65.01 70.6801 64.06C72.1001 63.11 73.0301 61.78 73.4201 60.17C73.7901 58.66 73.8801 56.65 72.5801 55.57C71.5701 54.73 70.1501 54.59 68.8901 54.54C67.7001 54.49 66.5101 54.59 65.3101 54.61C63.9801 54.64 62.6601 54.61 61.3401 54.77C59.9401 54.95 58.4101 55.32 57.7201 56.69C57.0901 57.94 57.5101 59.34 58.1001 60.51C58.7501 61.79 59.6901 63.04 60.8301 63.91C62.2601 64.99 64.0701 65.47 65.8601 65.42C67.7901 65.37 67.7901 62.37 65.8601 62.42C64.7901 62.45 63.8401 62.28 62.9401 61.73C62.5101 61.47 62.2301 61.19 61.8701 60.8C61.8301 60.76 61.6401 60.51 61.8401 60.77C61.7901 60.7 61.7401 60.63 61.6801 60.56C61.5301 60.36 61.3801 60.15 61.2401 59.94C61.0101 59.6 60.8201 59.24 60.6301 58.87C60.4201 58.48 60.6801 59.02 60.5901 58.78C60.5501 58.67 60.5101 58.57 60.4801 58.46C60.4601 58.38 60.4401 58.29 60.4201 58.21C60.3301 57.9 60.3801 58.43 60.4201 58.12C60.4501 57.83 60.3901 58.13 60.3901 58.17L60.4101 58.06C60.4501 57.93 60.4501 57.92 60.4101 58.03L60.3801 58.11C60.4701 57.97 60.4501 57.98 60.3401 58.13C60.3501 58.13 60.6001 57.92 60.3201 58.13C60.3901 58.08 60.4801 58.03 60.5601 57.99C60.3801 58.08 60.5901 57.99 60.6301 57.97C60.9201 57.88 61.2101 57.82 61.5101 57.77C62.3801 57.63 63.6401 57.63 64.6601 57.63C65.5401 57.63 66.4201 57.57 67.3101 57.55C67.8001 57.54 68.2801 57.53 68.7701 57.55C68.9801 57.55 69.1901 57.57 69.4101 57.58C69.5101 57.58 69.6101 57.6 69.7201 57.61C70.0801 57.64 69.5901 57.57 69.9001 57.64C70.1201 57.69 70.3301 57.75 70.5501 57.8C70.6201 57.82 70.8401 57.86 70.5301 57.78C70.5801 57.79 70.6801 57.85 70.7301 57.88C70.5201 57.73 70.6401 57.61 70.7001 57.99C70.6901 57.9 70.6901 57.85 70.7001 58.12C70.7001 58.31 70.7001 58.5 70.7001 58.68C70.6501 59.67 70.2201 60.71 69.3901 61.37C68.4201 62.15 67.1001 62.37 65.9101 62.42C65.1001 62.46 64.4101 63.08 64.4101 63.92C64.4101 64.7 65.1001 65.46 65.9101 65.42L65.8401 65.41Z" fill="#333333"/>
<path d="M22.5 141.62C25.76 141.39 25.78 141.62 29.04 141.4C32.3 141.17 32.29 141.09 35.55 140.86C38.81 140.63 38.82 140.7 42.08 140.47C45.34 140.24 45.33 140.02 48.59 139.79C51.85 139.56 51.86 139.67 55.12 139.44C56.49 139.34 57.31 138.24 57.21 136.87C56.98 133.57 57.01 133.57 56.78 130.26C56.55 126.96 56.84 126.94 56.61 123.63C56.38 120.33 56.23 120.34 55.99 117.04C55.75 113.74 55.8 113.73 55.57 110.43C55.34 107.13 55.53 107.11 55.3 103.8C55.07 100.49 54.77 100.51 54.54 97.21C54.44 95.84 53.35 94.77 51.98 94.86C48.72 95.09 48.74 95.38 45.48 95.61C42.22 95.84 42.18 95.31 38.93 95.54C35.67 95.77 35.71 96.29 32.45 96.52C29.19 96.75 29.18 96.58 25.91 96.81C22.65 97.04 22.63 96.76 19.36 96.99C17.99 97.09 16.85 98.49 16.95 99.86C17.18 103.16 17.32 103.15 17.56 106.45C17.79 109.75 18 109.74 18.24 113.04C18.47 116.34 18.52 116.34 18.75 119.64C18.98 122.94 18.42 122.98 18.66 126.29C18.9 129.6 18.9 129.6 19.13 132.9C19.36 136.2 19.36 136.21 19.59 139.51C19.69 140.88 21.14 141.7 22.52 141.6L22.5 141.62Z" fill="#FCFCFC"/>
<path d="M22.4999 143.12C25.3199 142.93 28.1399 142.99 30.9699 142.75C33.5799 142.53 36.1899 142.3 38.8099 142.17C41.4399 142.04 44.0299 141.76 46.6499 141.47C49.5299 141.15 52.4399 141.26 55.3199 140.93C56.7499 140.77 57.9599 139.91 58.4599 138.54C58.9599 137.19 58.6199 135.62 58.5299 134.22C58.3699 131.59 58.1799 128.97 58.1999 126.33C58.2199 123.59 57.7999 120.88 57.5699 118.15C57.3299 115.23 57.1499 112.28 56.9999 109.35C56.8499 106.42 56.8899 103.79 56.4999 101.02C56.1399 98.5101 56.4599 95.1101 53.8399 93.7801C52.4299 93.0701 50.7099 93.4601 49.2099 93.6701C47.9599 93.8501 46.7299 94.0401 45.4699 94.1301C42.5899 94.3201 39.7999 93.8401 36.9099 94.2801C35.7599 94.4501 34.6399 94.8001 33.4899 94.9401C32.0599 95.1201 30.6099 95.1501 29.1699 95.1801C26.5399 95.2401 23.9199 95.3701 21.2999 95.4201C19.7299 95.4501 18.1499 95.4501 16.9099 96.5501C15.6699 97.6501 15.3799 99.1701 15.5099 100.79C15.7299 103.53 15.9499 106.3 16.2899 109.02C16.6099 111.63 16.8099 114.25 17.0299 116.88C17.1599 118.44 17.3399 120.01 17.2999 121.57C17.2699 122.69 17.0899 123.8 17.0999 124.92C17.1099 127.81 17.4699 130.74 17.6799 133.62C17.7699 134.84 17.8499 136.06 17.9399 137.29C18.0399 138.73 17.9099 140.36 18.8499 141.56C19.7299 142.68 21.1299 143.17 22.5199 143.14C24.4499 143.1 24.4499 140.1 22.5199 140.14C20.9699 140.17 21.0699 139.16 20.9799 137.91C20.8999 136.8 20.8299 135.69 20.7499 134.58C20.5699 131.99 20.3699 129.39 20.1999 126.8C20.0299 124.21 20.4099 121.91 20.2399 119.45C20.0599 116.9 19.8799 114.35 19.6399 111.8C19.4099 109.28 19.1299 106.76 18.8799 104.24C18.7799 103.22 18.6499 102.21 18.5599 101.19C18.5099 100.6 18.3099 99.8601 18.5599 99.2901C18.9299 98.4101 19.8599 98.4901 20.6499 98.4601C23.0499 98.3601 25.4599 98.3401 27.8599 98.2401C30.2599 98.1401 32.8799 98.1801 35.3499 97.6801C37.8199 97.1801 40.0199 96.9301 42.4699 97.1401C44.9299 97.3501 47.3399 96.9801 49.7699 96.6301C50.5999 96.5101 52.2699 95.9901 52.8599 96.7701C53.2599 97.3001 53.1299 98.2601 53.1999 98.8901C53.2699 99.5201 53.3499 100.1 53.4499 100.7C53.8199 103.1 53.9099 105.5 53.9599 107.93C54.0699 112.9 54.6499 117.84 55.0599 122.78C55.2799 125.45 55.1499 128.11 55.3299 130.78C55.4099 131.89 55.4799 133 55.5399 134.11C55.5899 134.98 56.1599 137.23 55.4699 137.83C55.0499 138.2 54.0199 138.06 53.5099 138.09C52.9199 138.12 52.3299 138.14 51.7399 138.17C50.2699 138.22 48.7899 138.3 47.3299 138.44C44.5699 138.7 41.8499 139.06 39.0699 139.2C36.4699 139.33 33.8699 139.54 31.2799 139.77C28.3599 140.03 25.4399 139.97 22.5199 140.16C20.5999 140.29 20.5899 143.29 22.5199 143.16L22.4999 143.12Z" fill="#333333"/>
<path d="M17.1299 140.95C14.9899 140.22 13.3099 138.65 12.4099 136.45C11.5199 134.28 11.0899 131.76 10.9899 129.79C10.8899 127.65 11.4299 125.65 12.2599 123.92C13.0899 122.19 14.3899 120.59 16.0799 119.32C17.2799 118.41 18.9499 118.1 20.3899 118.55C21.8299 119 22.8999 120.4 22.7699 121.9C22.6499 123.19 22.0399 124.14 21.1399 125.08C22.4699 125.18 23.5499 125.95 24.1299 127.15C24.7099 128.35 24.0399 130.04 22.7299 130.29C23.7899 131.01 24.9999 131.93 25.3399 133.17C25.6799 134.41 24.7799 135.99 23.4899 136.01C24.6399 136.46 24.8099 137.98 24.2299 139.07C23.6499 140.16 22.6499 140.79 21.4499 141.12C19.9999 141.52 18.5499 141.44 17.1299 140.95Z" fill="#FFE6D9"/>
<path d="M17.5301 139.51C15.0301 138.6 13.8301 136.45 13.1701 134C12.4301 131.25 12.1801 128.4 13.1501 125.67C13.9101 123.53 15.7301 120.68 18.0401 119.99C19.0901 119.68 20.4501 119.83 21.0501 120.85C21.7101 121.97 20.8301 123.21 20.0801 124.02C19.1301 125.05 19.8701 126.43 21.1401 126.58C21.7901 126.66 22.5701 127.13 22.7801 127.8C22.9201 128.23 22.8001 128.72 22.3301 128.85C21.0201 129.21 20.9401 130.88 21.9701 131.59C22.6001 132.03 23.5101 132.58 23.8001 133.33C23.9101 133.61 23.9601 134.46 23.4801 134.5C22.1501 134.63 21.2501 136.57 22.7201 137.3C23.6701 137.77 22.4301 139.04 21.8901 139.34C20.5401 140.09 18.9201 139.95 17.5101 139.51C15.6601 138.93 14.8701 141.82 16.7101 142.4C19.3401 143.23 22.6901 143.03 24.7001 140.92C26.3501 139.19 26.6801 135.92 24.2301 134.71C23.9801 135.64 23.7301 136.57 23.4701 137.51C25.4301 137.31 26.8901 135.73 26.8901 133.72C26.8901 131.57 25.0801 130.11 23.4701 129L23.1101 131.74C25.0301 131.21 26.1601 129.19 25.7201 127.26C25.2301 125.09 23.2001 123.83 21.1201 123.59C21.4701 124.44 21.8301 125.3 22.1801 126.15C24.1701 123.98 25.1901 120.81 22.9001 118.42C20.7301 116.15 17.1401 116.57 14.8501 118.38C12.4301 120.29 10.6801 122.96 9.90008 125.95C9.10008 129.02 9.50008 132.37 10.4201 135.38C11.4301 138.69 13.4101 141.21 16.7201 142.41C18.5401 143.07 19.3201 140.17 17.5201 139.52L17.5301 139.51Z" fill="#333333"/>
<path d="M73.1501 53.82C73.2901 53.91 73.4301 54 73.5601 54.1C73.6301 54.15 73.6901 54.2 73.7601 54.25C73.8401 54.31 73.9901 54.48 73.7301 54.23C73.9501 54.45 74.2201 54.63 74.4501 54.84C74.6801 55.05 74.9001 55.28 75.1101 55.51C75.2201 55.63 75.3201 55.76 75.4301 55.89C75.6101 56.1 75.3001 55.71 75.4101 55.86C75.4601 55.93 75.5101 55.99 75.5601 56.06C75.7401 56.31 75.9101 56.57 76.0601 56.84C76.1401 56.98 76.2201 57.13 76.2901 57.27C76.3301 57.34 76.3601 57.42 76.3901 57.49C76.4801 57.67 76.3801 57.47 76.3501 57.4C76.4501 57.71 76.5801 58.01 76.6601 58.32C76.7001 58.46 76.7301 58.6 76.7601 58.75C76.7801 58.83 76.7901 58.91 76.8101 58.99C76.7701 58.66 76.8701 59.29 76.8101 58.99C76.8601 59.4 76.9501 59.75 77.2501 60.05C77.5101 60.31 77.9401 60.51 78.3101 60.49C79.0401 60.46 79.9101 59.82 79.8101 58.99C79.6201 57.39 79.0801 55.87 78.1401 54.55C77.2001 53.23 76.0201 52.13 74.6601 51.24C74.0001 50.81 72.9701 51.09 72.6101 51.78C72.2201 52.53 72.4401 53.37 73.1501 53.83V53.82Z" fill="#D6B4A5"/>
<path d="M96.0099 131.51C95.2399 129.27 95.9699 126.59 97.2399 123.93C98.3399 121.62 99.8799 119.34 101.81 117.59C103.97 115.63 106.41 114.33 108.72 114.15C110.04 114.04 111.35 114.67 111.83 115.9C112.31 117.13 111.63 118.74 110.32 118.87C111.45 119.74 112.69 120.36 113.9 121.12C115.11 121.88 116.26 122.92 116.32 124.35C116.38 125.78 114.96 127.31 113.66 126.74C114.33 127.66 114.74 128.57 114.89 129.69C115.04 130.81 114.68 132.19 113.56 132.43C113.29 132.49 112.98 132.39 112.76 132.55C112.21 132.95 112.44 133.8 112.44 134.48C112.44 135.44 111.65 136.35 110.7 136.44C109.75 136.53 108.85 136.14 107.97 135.75C108.27 136.29 107.85 136.69 107.36 137.09C106.87 137.49 106.35 137.77 105.73 137.82C103.66 137.99 101.43 137.61 99.6999 136.48C97.9699 135.35 96.6799 133.47 96.0099 131.51Z" fill="#FFE6D9"/>
<path d="M97.46 131.11C96.78 128.88 97.65 126.52 98.63 124.51C99.61 122.5 100.85 120.61 102.45 119.05C104 117.53 105.92 116.2 108.08 115.75C108.78 115.6 109.78 115.49 110.27 116.15C110.65 116.65 110.53 117.31 109.92 117.42C108.51 117.68 108.64 119.48 109.56 120.16C110.92 121.17 112.55 121.84 113.85 122.92C114.29 123.29 114.85 123.82 114.82 124.45C114.8 124.85 114.5 125.43 114.06 125.29C112.86 124.91 111.62 126.42 112.37 127.49C112.93 128.29 113.49 129.25 113.42 130.26C113.41 130.43 113.4 130.64 113.31 130.8C113.26 130.88 113.11 131.04 113.28 130.94C112.85 131.18 112.32 131.02 111.85 131.36C110.97 132 110.9 133.02 110.92 134.02C110.95 135.44 109.67 134.87 108.73 134.46C107.63 133.98 106.08 134.79 106.53 136.15C106.68 135.72 106.61 135.67 106.32 136.01C106.14 136.15 105.93 136.25 105.71 136.31C105.25 136.43 104.65 136.36 104.18 136.34C103.14 136.28 102.08 136.04 101.15 135.57C99.37 134.68 98.14 132.95 97.47 131.11C96.82 129.31 93.92 130.09 94.58 131.91C95.79 135.23 98.14 137.99 101.64 138.94C103.23 139.38 105.26 139.63 106.85 139.1C108.44 138.57 109.99 137.1 109.43 135.36C108.7 135.92 107.96 136.49 107.23 137.05C108.96 137.81 111.01 138.53 112.65 137.17C113.26 136.66 113.69 135.97 113.87 135.2C113.95 134.87 113.95 134.52 113.94 134.18C113.92 133.97 113.91 133.77 113.9 133.56C113.18 133.89 113.06 134.01 113.57 133.93C115.13 134 116.15 132.28 116.36 130.96C116.63 129.19 115.97 127.42 114.97 125.98C114.41 126.71 113.84 127.45 113.28 128.18C116.07 129.08 118.35 126 117.71 123.43C116.95 120.37 113.36 119.25 111.09 117.57C110.97 118.48 110.85 119.4 110.73 120.31C113.77 119.76 114.26 115.69 112.18 113.81C109.77 111.61 106.03 112.92 103.6 114.39C100.67 116.16 98.34 118.82 96.68 121.8C95.02 124.78 93.53 128.47 94.58 131.92C95.14 133.76 98.04 132.98 97.47 131.12L97.46 131.11Z" fill="#333333"/>
<path d="M106.1 121.38C106.06 121.43 106.02 121.49 105.98 121.54C105.84 121.73 105.98 121.54 106.04 121.46C105.96 121.57 105.87 121.67 105.79 121.78C105.63 121.98 105.46 122.17 105.28 122.36C104.92 122.74 104.54 123.11 104.14 123.45C104.05 123.53 103.95 123.6 103.86 123.68C103.72 123.79 104.15 123.47 103.94 123.62C103.89 123.66 103.83 123.7 103.78 123.74C103.57 123.89 103.36 124.03 103.14 124.17C102.68 124.45 102.2 124.7 101.71 124.91L102.07 124.76L102 124.79C101.62 124.95 101.32 125.11 101.1 125.48C100.91 125.8 100.83 126.28 100.95 126.64C101.07 127 101.29 127.35 101.64 127.54C101.99 127.73 102.43 127.84 102.8 127.69C104.05 127.17 105.16 126.5 106.21 125.64C107.17 124.85 107.97 123.92 108.7 122.92C108.92 122.62 108.94 122.1 108.85 121.76C108.76 121.42 108.49 121.03 108.16 120.86C107.81 120.68 107.39 120.58 107 120.71C106.61 120.84 106.35 121.07 106.1 121.4V121.38Z" fill="#333333"/>
<path d="M26.4312 108.602L48.0689 127.898" stroke="#007335" stroke-width="4"/>
<path d="M46.8977 107.431L27.6025 129.069" stroke="#007335" stroke-width="4"/>
</g>
<defs>
<clipPath id="clip0_4_1521">
<rect width="131.48" height="218.02" fill="white"/>
</clipPath>
</defs>
</svg>
