<svg width="66" height="66" viewBox="0 0 66 66" fill="none" xmlns="http://www.w3.org/2000/svg">
<path fill-rule="evenodd" clip-rule="evenodd" d="M50.6082 50.7516C54.6471 45.139 56.5225 37.974 55.2688 30.619C52.7849 16.0467 38.958 6.24704 24.3856 8.73096C9.81325 11.2149 0.0136222 25.0418 2.49755 39.6141C4.98148 54.1865 18.8084 63.9862 33.3807 61.5022C37.9078 60.7306 41.9743 58.8642 45.355 56.2208C50.762 57.8854 56.759 57.3402 59.7077 56.6624C54.9227 55.1102 52.3002 52.8827 50.6082 50.7516Z" fill="black"/>
<path d="M50.6082 50.7516L49.3907 49.8754L48.7282 50.796L49.4334 51.6843L50.6082 50.7516ZM45.355 56.2208L45.7963 54.7872L45.0479 54.5568L44.431 55.0391L45.355 56.2208ZM59.7077 56.6624L60.0437 58.1243L65.3301 56.9093L60.1706 55.2356L59.7077 56.6624ZM53.7901 30.8711C54.9736 37.8142 53.2046 44.5754 49.3907 49.8754L51.8257 51.6277C56.0895 45.7026 58.0714 38.1338 56.7475 30.367L53.7901 30.8711ZM24.6377 10.2096C38.3934 7.86491 51.4454 17.1154 53.7901 30.8711L56.7475 30.367C54.1244 14.978 39.5226 4.62916 24.1336 7.25229L24.6377 10.2096ZM3.97622 39.3621C1.6315 25.6064 10.8819 12.5544 24.6377 10.2096L24.1336 7.25229C8.74456 9.87542 -1.60425 24.4772 1.01888 39.8662L3.97622 39.3621ZM33.1287 60.0236C19.373 62.3683 6.32095 53.1178 3.97622 39.3621L1.01888 39.8662C3.64201 55.2552 18.2438 65.604 33.6328 62.9809L33.1287 60.0236ZM44.431 55.0391C41.2414 57.5331 37.4047 59.2947 33.1287 60.0236L33.6328 62.9809C38.411 62.1664 42.7073 60.1952 46.2789 57.4024L44.431 55.0391ZM44.9136 57.6544C50.6484 59.4199 56.928 58.8404 60.0437 58.1243L59.3717 55.2005C56.59 55.8399 50.8755 56.3509 45.7963 54.7872L44.9136 57.6544ZM60.1706 55.2356C55.6666 53.7746 53.2917 51.7191 51.783 49.8189L49.4334 51.6843C51.3088 54.0463 54.1788 56.4458 59.2449 58.0892L60.1706 55.2356Z" fill="black"/>
<path fill-rule="evenodd" clip-rule="evenodd" d="M48.091 48.2146C53.0566 43.3196 56.1348 36.515 56.1348 28.9915C56.1348 14.0845 44.0503 2 29.1433 2C14.2363 2 2.15186 14.0845 2.15186 28.9915C2.15186 43.8984 14.2363 55.9829 29.1433 55.9829C33.7746 55.9829 38.1335 54.8165 41.9422 52.7614C47.0351 55.3323 53.089 55.8065 56.1351 55.6324C51.6413 53.2785 49.4118 50.6198 48.091 48.2146Z" fill="#FFFCA9"/>
<path d="M48.091 48.2146L47.0379 47.1463L46.2302 47.9425L46.7762 48.9366L48.091 48.2146ZM41.9422 52.7614L42.6182 51.4223L41.9191 51.0694L41.2299 51.4413L41.9422 52.7614ZM56.1351 55.6324L56.2207 57.13L61.636 56.8205L56.8311 54.3037L56.1351 55.6324ZM54.6348 28.9915C54.6348 36.0972 51.7294 42.5217 47.0379 47.1463L49.144 49.2828C54.3839 44.1175 57.6348 36.9328 57.6348 28.9915H54.6348ZM29.1433 3.5C43.2219 3.5 54.6348 14.9129 54.6348 28.9915H57.6348C57.6348 13.2561 44.8787 0.5 29.1433 0.5V3.5ZM3.65186 28.9915C3.65186 14.9129 15.0648 3.5 29.1433 3.5V0.5C13.4079 0.5 0.651855 13.2561 0.651855 28.9915H3.65186ZM29.1433 54.4829C15.0648 54.4829 3.65186 43.07 3.65186 28.9915H0.651855C0.651855 44.7269 13.4079 57.4829 29.1433 57.4829V54.4829ZM41.2299 51.4413C37.6347 53.3813 33.5199 54.4829 29.1433 54.4829V57.4829C34.0294 57.4829 38.6324 56.2518 42.6545 54.0815L41.2299 51.4413ZM41.2663 54.1005C46.6653 56.8259 53.0035 57.3138 56.2207 57.13L56.0495 54.1349C53.1745 54.2992 47.4049 53.8387 42.6182 51.4223L41.2663 54.1005ZM56.8311 54.3037C52.5991 52.0869 50.5847 49.6394 49.4057 47.4925L46.7762 48.9366C48.239 51.6003 50.6836 54.4702 55.4391 56.9612L56.8311 54.3037Z" fill="black"/>
<path d="M27.4367 25.5738H24.6567V22.5937C25.67 22.5537 26.45 22.3471 26.9967 21.9737C27.5567 21.6004 27.9167 20.9871 28.0767 20.1337H31.2367V37.6738H27.4367V25.5738Z" fill="black"/>
</svg>
