<svg width="1080" height="740" viewBox="0 0 1080 740" fill="none" xmlns="http://www.w3.org/2000/svg">
<mask id="path-2-inside-1_40_838" fill="white">
<path fill-rule="evenodd" clip-rule="evenodd" d="M199 510C218.33 510 234 494.33 234 475C234 455.67 218.33 440 199 440C179.67 440 164 455.67 164 475C164 483.867 167.297 491.964 172.732 498.131C171.039 499.923 170 502.34 170 505C170 510.523 174.477 515 180 515C184.237 515 187.859 512.364 189.316 508.643C192.391 509.527 195.64 510 199 510Z"/>
</mask>
<path fill-rule="evenodd" clip-rule="evenodd" d="M199 510C218.33 510 234 494.33 234 475C234 455.67 218.33 440 199 440C179.67 440 164 455.67 164 475C164 483.867 167.297 491.964 172.732 498.131C171.039 499.923 170 502.34 170 505C170 510.523 174.477 515 180 515C184.237 515 187.859 512.364 189.316 508.643C192.391 509.527 195.64 510 199 510Z" fill="#FD780F"/>
<path d="M172.732 498.131L174.549 499.849L176.117 498.19L174.608 496.478L172.732 498.131ZM189.316 508.643L190.006 506.24L187.818 505.611L186.988 507.732L189.316 508.643ZM231.5 475C231.5 492.949 216.949 507.5 199 507.5V512.5C219.711 512.5 236.5 495.711 236.5 475H231.5ZM199 442.5C216.949 442.5 231.5 457.051 231.5 475H236.5C236.5 454.289 219.711 437.5 199 437.5V442.5ZM166.5 475C166.5 457.051 181.051 442.5 199 442.5V437.5C178.289 437.5 161.5 454.289 161.5 475H166.5ZM174.608 496.478C169.56 490.75 166.5 483.235 166.5 475H161.5C161.5 484.498 165.035 493.177 170.857 499.784L174.608 496.478ZM172.5 505C172.5 503.004 173.277 501.194 174.549 499.849L170.916 496.413C168.801 498.651 167.5 501.676 167.5 505H172.5ZM180 512.5C175.858 512.5 172.5 509.142 172.5 505H167.5C167.5 511.904 173.096 517.5 180 517.5V512.5ZM186.988 507.732C185.894 510.527 183.174 512.5 180 512.5V517.5C185.301 517.5 189.825 514.201 191.644 509.554L186.988 507.732ZM199 507.5C195.876 507.5 192.859 507.06 190.006 506.24L188.625 511.046C191.923 511.993 195.404 512.5 199 512.5V507.5Z" fill="#333333" mask="url(#path-2-inside-1_40_838)"/>
<circle cx="167" cy="517" r="4.75" fill="#FD780F" stroke="#333333" stroke-width="2.5"/>
<mask id="path-5-outside-2_40_838" maskUnits="userSpaceOnUse" x="174.266" y="442.642" width="68" height="51" fill="black">
<rect fill="white" x="174.266" y="442.642" width="68" height="51"/>
<path fill-rule="evenodd" clip-rule="evenodd" d="M237.703 453.274L219.369 479.8L219.368 479.799L208.529 479.641L197.421 468.217L202.242 460.987L202.242 460.987L212.905 472.7L230.161 448.443L227.495 446.851L238.817 444.642L240.082 455.021L237.703 453.274ZM182.226 491L202.242 460.987L192.32 460.843L176.266 483.929L182.226 491Z"/>
</mask>
<path fill-rule="evenodd" clip-rule="evenodd" d="M237.703 453.274L219.369 479.8L219.368 479.799L208.529 479.641L197.421 468.217L202.242 460.987L202.242 460.987L212.905 472.7L230.161 448.443L227.495 446.851L238.817 444.642L240.082 455.021L237.703 453.274ZM182.226 491L202.242 460.987L192.32 460.843L176.266 483.929L182.226 491Z" fill="#FFFCA9"/>
<path d="M219.369 479.8L217.887 481.143C218.297 481.595 218.891 481.835 219.5 481.795C220.109 481.755 220.667 481.439 221.014 480.937L219.369 479.8ZM237.703 453.274L238.887 451.662C238.451 451.342 237.905 451.212 237.372 451.302C236.839 451.391 236.365 451.692 236.058 452.137L237.703 453.274ZM219.368 479.799L220.85 478.456C220.478 478.045 219.952 477.808 219.398 477.799L219.368 479.799ZM208.529 479.641L207.095 481.035C207.465 481.415 207.97 481.633 208.5 481.641L208.529 479.641ZM197.421 468.217L195.757 467.107C195.233 467.892 195.329 468.935 195.987 469.611L197.421 468.217ZM202.242 460.987L203.721 459.641C203.327 459.208 202.763 458.97 202.178 458.988C201.593 459.007 201.046 459.281 200.68 459.738L202.242 460.987ZM212.905 472.7L211.426 474.046C211.833 474.493 212.421 474.732 213.025 474.696C213.629 474.66 214.184 474.352 214.535 473.859L212.905 472.7ZM230.161 448.443L231.79 449.603C232.114 449.148 232.233 448.579 232.118 448.032C232.003 447.486 231.665 447.013 231.186 446.726L230.161 448.443ZM227.495 446.851L227.112 444.888C226.298 445.047 225.667 445.691 225.524 446.507C225.382 447.323 225.758 448.143 226.469 448.568L227.495 446.851ZM238.817 444.642L240.802 444.4C240.735 443.848 240.442 443.35 239.992 443.024C239.543 442.697 238.979 442.572 238.434 442.679L238.817 444.642ZM240.082 455.021L238.898 456.633C239.541 457.105 240.404 457.15 241.092 456.747C241.781 456.345 242.164 455.571 242.067 454.779L240.082 455.021ZM182.226 491L180.697 492.289C181.103 492.77 181.711 493.032 182.339 492.997C182.967 492.962 183.541 492.633 183.89 492.11L182.226 491ZM192.32 460.843L192.349 458.843C191.684 458.833 191.057 459.155 190.678 459.701L192.32 460.843ZM176.266 483.929L174.624 482.787C174.107 483.53 174.153 484.527 174.736 485.218L176.266 483.929ZM221.014 480.937L239.348 454.411L236.058 452.137L217.723 478.662L221.014 480.937ZM217.886 481.142L217.887 481.143L220.851 478.456L220.85 478.456L217.886 481.142ZM219.398 477.799L208.558 477.641L208.5 481.641L219.339 481.799L219.398 477.799ZM209.963 478.247L198.854 466.823L195.987 469.611L207.095 481.035L209.963 478.247ZM199.084 469.327L203.906 462.097L200.578 459.878L195.757 467.107L199.084 469.327ZM203.804 462.237L203.804 462.237L200.68 459.738L200.68 459.738L203.804 462.237ZM200.763 462.334L211.426 474.046L214.384 471.353L203.721 459.641L200.763 462.334ZM228.531 447.284L211.275 471.54L214.535 473.859L231.79 449.603L228.531 447.284ZM226.469 448.568L229.135 450.16L231.186 446.726L228.52 445.134L226.469 448.568ZM238.434 442.679L227.112 444.888L227.878 448.814L239.2 446.605L238.434 442.679ZM242.067 454.779L240.802 444.4L236.832 444.884L238.097 455.263L242.067 454.779ZM236.519 454.886L238.898 456.633L241.266 453.409L238.887 451.662L236.519 454.886ZM200.578 459.878L180.563 489.89L183.89 492.11L203.906 462.097L200.578 459.878ZM192.29 462.843L202.213 462.987L202.271 458.988L192.349 458.843L192.29 462.843ZM177.908 485.071L193.962 461.985L190.678 459.701L174.624 482.787L177.908 485.071ZM183.756 489.711L177.795 482.64L174.736 485.218L180.697 492.289L183.756 489.711Z" fill="#333333" mask="url(#path-5-outside-2_40_838)"/>
</svg>
