<svg width="132" height="161" viewBox="0 0 132 161" fill="none" xmlns="http://www.w3.org/2000/svg">
<g clip-path="url(#clip0_4_5626)">
<path d="M15.68 56.46C15.23 58.79 14.52 61.05 13.75 63.32C12.98 65.59 12.2 67.8 11.15 69.96C10.11 72.09 9.02 74.21 7.7 76.22C6.4 78.2 4.86 80.02 3.31 81.86C2.98 82.26 2.89 82.75 3.03 83.22C3.19 83.75 3.65 84.2 4.25 84.37C6.6 85.02 9.03 85.4 11.44 85.84C13.85 86.28 16.25 86.67 18.69 86.89C21.13 87.11 23.57 87.4 26.01 87.41C28.45 87.42 30.88 86.94 33.32 86.74C35.76 86.54 38.16 86.16 40.56 85.75" fill="#C67D71"/>
<path d="M14.23 56.0599C13.31 60.6699 11.73 65.3799 9.65 69.5999C8.63 71.6699 7.56 73.7199 6.27 75.6399C4.98 77.5599 3.47 79.1399 2.12 80.9399C0.910001 82.5499 1.53 84.7399 3.32 85.5999C5.27 86.5299 7.79 86.6999 9.9 87.0799C14.74 87.9399 19.62 88.6599 24.54 88.8699C27.26 88.9899 29.89 88.5799 32.58 88.3099C35.27 88.0399 38.17 87.6699 40.95 87.1999C42.85 86.8699 42.04 83.9799 40.15 84.3099C37.96 84.6899 35.77 85.0299 33.55 85.2299C31.36 85.4299 29.18 85.8099 26.98 85.8999C22.62 86.0799 18.05 85.4599 13.75 84.7399C11.68 84.3899 9.6 84.0299 7.53 83.6099C7.01 83.4999 6.48 83.3899 5.96 83.2699C5.69 83.2099 4.81 83.1299 4.63 82.9299C4.37 82.6299 4.81 82.3899 5.08 82.0699C5.42 81.6699 5.75 81.2699 6.08 80.8599C8.64 77.7299 10.67 74.3599 12.42 70.7299C14.52 66.3999 16.16 61.5899 17.1 56.8699C17.48 54.9799 14.59 54.1799 14.21 56.0699L14.23 56.0599Z" fill="#333333"/>
<path d="M116.33 56.49C116.78 58.82 117.25 61.19 118.02 63.46C118.78 65.71 119.67 67.95 120.73 70.11C121.77 72.24 123 74.32 124.31 76.33C125.61 78.31 127.27 80.06 128.82 81.89C129.15 82.29 129.28 82.75 129.14 83.23C128.98 83.76 128.5 84.18 127.9 84.34C125.55 84.99 123.15 85.47 120.74 85.91C118.34 86.35 115.89 86.42 113.45 86.64C111.02 86.87 108.59 87.08 106.15 87.09C103.71 87.1 101.27 86.97 98.84 86.77C96.41 86.57 94.01 86.14 91.61 85.73" fill="#C67D71"/>
<path d="M114.88 56.8899C116.44 65.0199 119.57 73.0499 124.83 79.5299C125.4 80.2299 125.99 80.8999 126.58 81.5799C126.8 81.8299 127.53 82.3999 127.59 82.6899C127.64 82.9399 127.72 82.6599 127.5 82.8899C127.37 83.0299 126.75 83.0899 126.56 83.1399C124.43 83.6899 122.26 84.1299 120.1 84.4999C117.94 84.8699 115.67 84.9399 113.45 85.1399C111.26 85.3299 109.08 85.5299 106.88 85.5799C101.87 85.6799 96.93 85.1399 92 84.2799C90.11 83.9499 89.3 86.8399 91.2 87.1699C95.99 87.9999 100.78 88.5799 105.65 88.5799C108.09 88.5799 110.52 88.3899 112.95 88.1699C115.35 87.9499 117.77 87.8499 120.16 87.4999C122.57 87.1399 124.98 86.6299 127.34 86.0199C129.18 85.5499 131.18 84.3699 130.59 82.1099C130.35 81.1899 129.59 80.4799 128.98 79.7799C128.2 78.8799 127.4 77.9799 126.66 77.0399C125.27 75.2699 124.11 73.2799 123.03 71.3099C120.4 66.5099 118.79 61.4299 117.76 56.0799C117.4 54.1899 114.5 54.9899 114.87 56.8799L114.88 56.8899Z" fill="#333333"/>
<path d="M40.31 154.78C40.43 158.44 40.31 158.44 40.43 162.1C40.55 165.76 40.61 165.76 40.73 169.42C40.85 173.08 40.66 173.09 40.78 176.75C40.9 180.41 40.92 180.41 41.04 184.07C41.16 187.73 41.1 187.74 41.22 191.4C41.34 195.06 41.43 195.06 41.55 198.72C41.58 199.53 42.31 200.34 43.13 200.34C46.87 200.34 46.87 200.11 50.6 200.11C54.33 200.11 54.34 200.03 58.08 200.03C61.82 200.03 61.82 200.4 65.56 200.4C66.39 200.4 66.93 199.5 66.93 198.67C66.93 194.94 67.05 194.94 67.05 191.21C67.05 187.48 67.08 187.48 67.08 183.75C67.08 180.02 66.86 180.02 66.86 176.29C66.86 172.56 66.84 172.56 66.84 168.83C66.84 165.1 67.15 165.1 67.15 161.37C67.15 157.64 67.06 157.64 67.06 153.91" fill="#FCFCFC"/>
<path d="M38.81 154.78C38.94 158.7 38.94 162.61 39.12 166.53C39.31 170.61 39.21 174.69 39.36 178.77C39.49 182.48 39.59 186.2 39.69 189.91C39.75 191.93 39.85 193.95 39.95 195.97C40.05 197.99 39.74 200.69 42.08 201.62C43.72 202.27 46.01 201.77 47.76 201.68C49.83 201.57 51.91 201.62 53.99 201.58C56.07 201.54 58.06 201.48 60.08 201.58C61.9 201.67 63.74 202.02 65.57 201.9C68.27 201.73 68.42 199.13 68.45 197.02C68.47 195.31 68.55 193.6 68.56 191.89C68.58 187.94 68.71 183.97 68.48 180.02C68.23 175.63 68.18 171.09 68.4 166.7C68.5 164.55 68.68 162.44 68.66 160.28C68.64 158.12 68.57 156.03 68.57 153.91C68.57 151.98 65.57 151.98 65.57 153.91C65.57 157.56 65.82 161.22 65.53 164.86C65.24 168.5 65.37 171.89 65.37 175.4C65.37 179.18 65.61 182.95 65.58 186.74C65.56 190.17 65.49 193.6 65.45 197.03C65.45 197.42 65.61 198.34 65.45 198.68C65.26 199.07 65.26 198.93 64.68 198.91C63.81 198.87 62.95 198.84 62.08 198.76C60.2 198.58 58.33 198.54 56.44 198.56C52.96 198.59 49.47 198.62 45.99 198.8C45.59 198.82 45.18 198.84 44.78 198.85C44.49 198.85 43.42 199.04 43.19 198.88C42.76 198.57 42.97 196.56 42.94 195.99C42.84 194.16 42.75 192.34 42.69 190.51C42.58 186.94 42.51 183.37 42.38 179.8C42.22 175.57 42.32 171.34 42.13 167.12C41.95 163.01 41.92 158.91 41.79 154.8C41.73 152.87 38.73 152.87 38.79 154.8L38.81 154.78Z" fill="#333333"/>
<path d="M65.33 168.03C65.37 171.86 65.19 171.86 65.23 175.69C65.27 179.52 65.08 179.52 65.12 183.35C65.16 187.18 65.37 187.18 65.41 191.01C65.45 194.84 65.59 194.84 65.63 198.67C65.63 199.5 66.18 200 67.01 200C70.75 199.97 70.75 200.28 74.49 200.26C78.23 200.23 78.23 200.21 81.97 200.18C85.71 200.15 85.71 200.14 89.45 200.12C90.26 200.12 90.9 199.36 90.93 198.54C91.03 195.01 90.91 195.01 91.01 191.47C91.11 187.93 91.24 187.94 91.34 184.41C91.44 180.88 91.56 180.88 91.66 177.35C91.76 173.82 91.4 173.81 91.5 170.27C91.6 166.73 91.77 166.74 91.87 163.2C91.97 159.66 91.84 159.66 91.93 156.12C91.95 155.27 91.45 154.46 90.6 154.46C87.04 154.46 87.04 154.67 83.49 154.67C79.94 154.67 79.93 154.57 76.37 154.57C72.81 154.57 72.81 154.59 69.25 154.59C65.69 154.59 65.69 154.63 62.13 154.63" fill="#FCFCFC"/>
<path d="M63.83 168.03C63.86 172.38 63.71 176.73 63.63 181.08C63.54 185.57 63.81 190.12 64.01 194.61C64.05 195.54 64.09 196.48 64.11 197.41C64.14 198.73 64.06 200.09 65.25 200.96C66.25 201.68 67.49 201.5 68.66 201.53C69.65 201.56 70.64 201.65 71.63 201.71C76.17 201.99 80.8 201.71 85.34 201.67C87.44 201.65 90.55 202.29 91.89 200.28C92.6 199.21 92.45 197.84 92.47 196.62C92.47 195.66 92.47 194.7 92.47 193.74C92.5 189.26 92.78 184.76 93.04 180.29C93.3 175.77 92.84 171.28 93.18 166.76C93.35 164.49 93.41 162.21 93.4 159.93C93.39 157.96 94.04 155.01 92.3 153.62C91.2 152.74 89.65 152.98 88.33 153.04C87.26 153.08 86.18 153.17 85.11 153.2C82.62 153.26 80.13 153.14 77.64 153.12C72.47 153.07 67.29 153.17 62.12 153.17C60.19 153.17 60.19 156.17 62.12 156.17C66.11 156.17 70.11 156.13 74.1 156.11C78.33 156.09 82.57 156.36 86.8 156.11C87.71 156.06 88.61 156.01 89.52 156C89.71 156 90.48 155.89 90.6 156C90.42 155.84 90.41 155.98 90.43 156.16C90.52 156.77 90.4 157.49 90.39 158.11C90.38 160.12 90.41 162.12 90.34 164.12C90.27 166.03 90.07 167.93 90.01 169.84C89.95 171.83 90.14 173.78 90.17 175.76C90.24 179.88 89.92 184.1 89.66 188.21C89.52 190.32 89.47 192.43 89.47 194.54C89.47 195.4 89.47 196.26 89.47 197.12C89.47 197.4 89.62 198.43 89.4 198.64C89.2 198.84 87.78 198.64 87.48 198.64C83.58 198.67 79.69 198.72 75.79 198.75C73.72 198.77 71.68 198.66 69.61 198.55C69.05 198.52 68.48 198.5 67.92 198.5C67.73 198.5 67.23 198.57 67.02 198.5C67.17 198.55 67.02 198.88 67.14 198.44C67.37 197.56 67.1 196.24 67.06 195.32C66.85 190.69 66.58 186.01 66.64 181.38C66.7 176.75 66.89 172.47 66.85 168.02C66.83 166.09 63.83 166.09 63.85 168.02L63.83 168.03Z" fill="#333333"/>
<path d="M35.74 115.05C35.94 113.8 36.38 112.59 36.71 111.34C37.23 109.39 37.88 107.45 38.74 105.63C39.61 103.79 40.54 101.95 41.97 100.49C44.46 97.9301 47.18 97.1101 49.98 96.9101C52.79 96.7101 55.82 97.4801 58.9 96.8301C61.37 96.3101 63.88 95.8001 66.43 95.8501C68.99 95.8901 71.54 96.2101 73.98 96.8701C75.89 97.3801 78.72 98.3501 81.29 99.5801C83.99 100.88 86.2 102.53 86.73 104.67C87.31 107.01 88.21 109.28 88.69 111.64C89.18 114 89.37 116.42 89.77 118.79C90.17 121.16 90.76 123.52 91.06 125.91C91.37 128.3 91.57 130.71 91.79 133.11C92.01 135.51 92.14 137.92 92.26 140.33C92.38 142.74 92.23 145.15 92.26 147.56C92.29 150.03 92.51 152.24 91.9 153.98C91.26 155.81 89.88 157.15 87.01 157.75C84.94 158.18 82.77 158.41 80.56 158.52C78.35 158.63 76.23 158.31 74.06 158.28C71.85 158.25 69.66 158.49 67.56 158.5C65.19 158.51 62.81 158.25 60.44 158.21C58.07 158.17 55.69 158.21 53.32 158.12C50.95 158.03 48.57 158.02 46.2 157.88C43.38 157.88 40.31 157.1 38.01 155.41C35.65 153.69 33.93 151.05 33.66 148.09C33.35 144.71 32.95 141.17 33.07 137.78C33.14 135.74 33.79 133.97 34.12 131.99C34.59 129.17 34.61 126.35 34.8 123.54C34.99 120.73 35.27 117.9 35.72 115.09L35.74 115.05Z" fill="#FCFCFC"/>
<path d="M37.19 115.45C37.83 111.96 39.01 108.37 40.61 105.2C42.03 102.38 44.03 99.9201 47.14 98.9401C50.11 98.0001 53.11 98.6101 56.15 98.5901C59.63 98.5701 62.94 97.3101 66.43 97.3401C69.79 97.3701 73.04 98.0301 76.2 99.1101C78.98 100.06 82.39 101.2 84.39 103.47C85.23 104.42 85.4 105.61 85.75 106.79C86.27 108.53 86.86 110.24 87.23 112.01C87.95 115.47 88.25 119.01 88.94 122.48C89.64 125.98 89.96 129.52 90.28 133.08C90.6 136.76 90.84 140.46 90.78 144.15C90.76 145.73 90.74 147.31 90.78 148.89C90.82 150.4 90.99 152.1 90.45 153.55C89.52 156.02 86.59 156.36 84.3 156.67C80.85 157.13 77.52 156.8 74.07 156.74C70.54 156.68 67.07 157.01 63.54 156.8C59.98 156.59 56.42 156.68 52.86 156.56C49.61 156.46 46.11 156.73 42.93 155.95C39.71 155.17 36.77 153.09 35.61 149.89C35.02 148.27 35.02 146.48 34.87 144.78C34.69 142.75 34.54 140.7 34.56 138.66C34.58 136.79 35.03 135.06 35.41 133.24C35.82 131.27 35.99 129.25 36.11 127.24C36.34 123.29 36.57 119.35 37.18 115.43C37.48 113.54 34.59 112.73 34.29 114.63C33.68 118.5 33.37 122.39 33.16 126.3C33.06 128.2 32.97 130.12 32.61 131.99C32.24 133.91 31.68 135.76 31.59 137.73C31.41 141.37 31.73 145.23 32.27 148.83C32.75 152.01 34.68 154.81 37.26 156.67C40.04 158.67 43.34 159.23 46.69 159.37C50.64 159.53 54.6 159.63 58.56 159.65C62.33 159.67 66.09 160.07 69.86 159.88C71.73 159.79 73.6 159.69 75.47 159.79C77.49 159.9 79.49 160.06 81.52 159.93C84.72 159.72 88.66 159.55 91.26 157.44C93.47 155.65 93.87 152.87 93.84 150.18C93.8 146.24 93.89 142.3 93.67 138.36C93.45 134.51 93.14 130.66 92.69 126.83C92.22 122.84 91.28 118.92 90.74 114.93C90.25 111.25 89.24 107.78 88.18 104.23C87.26 101.15 84.42 99.3401 81.65 98.0501C78.61 96.6401 75.37 95.4601 72.07 94.8601C67.61 94.0501 63.39 94.3601 58.98 95.2501C55.15 96.0201 51.26 94.8901 47.42 95.7301C43.6 96.5701 40.56 99.1401 38.65 102.5C36.56 106.17 35.07 110.47 34.31 114.62C33.96 116.51 36.85 117.32 37.2 115.42L37.19 115.45Z" fill="#333333"/>
<path d="M50.3 125.34C50.38 127.39 50.19 129.46 50.28 131.51C50.37 133.56 50.7 135.6 50.78 137.65C50.86 139.7 51.08 141.75 51.14 143.8C51.23 147.07 51.83 150.32 51.99 153.6C52.11 156.07 52.44 161.13 49.98 162.69C48.96 163.34 47.67 163.56 46.46 163.57C42.95 163.59 39.43 163.3 35.95 162.76C32.95 162.3 33.4 159.99 33.34 157.61C33.32 156.9 32.7 149.87 32.09 149.92C30.09 150.07 27.12 149.71 24.22 149.55C21.32 149.39 18.46 149.03 16.72 147.89C14.72 146.58 13.36 144.73 12.57 142.47C11.78 140.21 11.5 137.87 11.65 135.56C11.81 133 12.47 130.56 13.32 128.16C14.17 125.76 15.27 123.5 16.63 121.33C17.99 119.17 19.55 117.17 21.26 115.3C21.89 114.6 23.69 112.44 26.43 110.2C28.14 108.8 30.23 107.39 32.3 105.9C34.37 104.41 36.55 103.36 38.55 102.2C40.97 100.79 43.09 99.23 44.99 98.8C47.84 98.16 49.61 99.24 49.69 102.58C49.75 105.11 50.01 107.64 50.03 110.17C50.05 112.7 50.33 115.23 50.36 117.76C50.39 120.29 50.19 122.82 50.3 125.35V125.34Z" fill="#AFAFAF"/>
<path d="M48.8 125.34C48.85 127.08 48.74 128.82 48.75 130.56C48.77 132.3 48.99 134.03 49.15 135.76C49.45 139.09 49.49 142.44 49.75 145.76C49.99 148.79 50.44 151.79 50.55 154.83C50.62 156.69 50.86 159.47 49.6 161.03C48.89 161.92 47.51 162.03 46.46 162.06C44.71 162.1 42.94 162 41.19 161.86C39.58 161.73 37.94 161.61 36.35 161.3C35.26 161.09 34.95 160.79 34.87 159.7C34.62 156.53 34.8 153.22 33.88 150.13C33.7 149.54 33.46 148.94 32.89 148.62C32.37 148.32 31.77 148.44 31.2 148.44C30.37 148.44 29.54 148.4 28.71 148.35C25.62 148.15 22.29 148.21 19.3 147.36C13.45 145.69 12.47 138.12 13.48 133.05C15.86 121.22 25.17 111.72 35.24 105.75C36.71 104.88 38.23 104.1 39.7 103.23C41.17 102.36 42.56 101.36 44.1 100.66C44.96 100.27 46.34 99.7801 47.27 100.25C48.07 100.65 48.14 101.78 48.18 102.55C48.37 106.34 48.45 110.14 48.68 113.93C48.91 117.73 48.66 121.52 48.79 125.32C48.86 127.25 51.86 127.25 51.79 125.32C51.66 121.52 51.91 117.73 51.68 113.93C51.45 110.14 51.37 106.34 51.18 102.55C51.06 100.22 50.22 97.8901 47.73 97.2501C45.01 96.5501 42.33 98.1001 40.11 99.4601C37.14 101.28 33.99 102.83 31.15 104.85C28.24 106.92 25.3 108.94 22.76 111.46C18.4 115.77 14.62 120.76 12.34 126.48C9.94999 132.47 8.71999 140.13 12.58 145.83C14.27 148.33 16.66 149.92 19.61 150.51C23.04 151.19 26.73 151.31 30.21 151.42C30.54 151.42 30.86 151.44 31.19 151.43C32.38 151.42 30.94 150.82 30.95 150.81C30.88 150.84 30.92 150.5 30.97 150.91C30.99 151.08 31.06 151.25 31.09 151.42C31.28 152.3 31.4 153.2 31.5 154.1C31.7 155.78 31.81 157.42 31.83 159.11C31.88 161.95 33.07 163.8 36.01 164.25C39.55 164.8 43.26 165.21 46.85 165.03C50.23 164.86 52.58 163.12 53.24 159.78C53.8 156.96 53.56 153.96 53.29 151.12C52.87 146.78 52.51 142.45 52.29 138.1C52.18 136.05 51.91 134.01 51.79 131.96C51.66 129.75 51.86 127.53 51.79 125.32C51.73 123.39 48.73 123.39 48.79 125.32L48.8 125.34Z" fill="#333333"/>
<path d="M45.66 97.4399C43.77 98.1599 42.12 99.4899 40.8 101.03C39.48 102.57 38.72 104.46 38.3 106.45C38.01 107.8 37.92 109.13 38.29 110.46C39.13 113.52 41.61 115.6 44.25 117.36C41.97 119.2 39.42 121.59 39.8 124.5C39.97 125.82 40.82 127.07 41.61 128.15C43.64 130.93 45.9 133.6 48.4 135.97" fill="#AFAFAF"/>
<path d="M45.26 95.9999C40.54 97.9199 37.36 102.11 36.67 107.15C35.98 112.19 39.51 115.98 43.49 118.65C43.39 117.86 43.29 117.08 43.19 116.29C40.22 118.7 37.08 122.14 38.75 126.23C39.58 128.25 41.11 130.01 42.47 131.69C43.98 133.57 45.6 135.34 47.35 137.01C48.75 138.34 50.87 136.23 49.47 134.89C46.76 132.29 44.08 129.38 42.09 126.18C41.19 124.73 41.01 123.37 41.91 121.88C42.75 120.5 44.06 119.42 45.3 118.41C46.1 117.76 45.72 116.54 45 116.05C42.06 114.07 39.08 111.44 39.62 107.54C40.16 103.64 42.49 100.34 46.06 98.8799C47.82 98.1599 47.05 95.2599 45.26 95.9899V95.9999Z" fill="#333333"/>
<path d="M82.2 125.33C82.11 127.56 82.48 129.8 82.38 132.03C82.28 134.26 82.28 136.49 82.19 138.71C82.11 140.94 81.64 143.15 81.58 145.38C81.52 147.61 81.82 149.84 81.82 152.07C81.82 154.3 81.45 156.53 81.51 158.76C81.51 161.64 84.37 162.82 87.45 163.04C90.53 163.26 93.79 162.61 95.35 162.2C95.77 162.09 96.16 161.86 96.48 161.57C96.96 161.13 97.32 160.48 97.41 159.83C97.85 156.56 98.58 153.34 98.8 150.09C102.18 150.09 105.64 149.73 108.57 148.06C111.12 146.61 113.18 144.36 114.26 141.64C115.31 138.98 115.24 135.89 114.91 133.05C114.58 130.16 113.71 127.45 112.49 124.8C111.28 122.18 110.15 119.45 108.6 117.03C107.49 115.29 106.09 113.33 104.8 111.33C103.51 109.33 102.06 107.41 100.41 106.11C98.28 104.41 95.57 103.07 93.28 101.49C91.68 100.39 89.13 99.3299 87.01 98.9499C84.74 98.5499 82.71 99.0499 82.62 102.57C82.56 105.1 82.99 107.64 82.98 110.17C82.96 112.7 82.46 115.23 82.43 117.76C82.4 120.29 82.29 122.81 82.19 125.34L82.2 125.33Z" fill="#AFAFAF"/>
<path d="M80.7 125.33C80.63 127.81 80.94 130.27 80.85 132.75C80.76 135.21 80.82 137.69 80.59 140.15C80.36 142.63 80.01 145.04 80.12 147.54C80.23 150.04 80.36 152.45 80.18 154.94C80.04 156.93 79.62 159.27 80.58 161.12C81.34 162.59 82.82 163.48 84.35 163.99C87.82 165.13 92.3 164.69 95.75 163.64C96.74 163.34 97.59 162.73 98.17 161.87C98.88 160.81 98.94 159.58 99.14 158.36C99.58 155.61 100.1 152.87 100.3 150.09L98.8 151.59C102.41 151.57 106.13 151.17 109.33 149.35C112.15 147.75 114.43 145.22 115.64 142.21C117.04 138.74 116.79 134.68 116.12 131.07C115.4 127.2 113.66 123.61 111.97 120.08C110.29 116.57 107.99 113.43 105.85 110.19C104.83 108.65 103.71 107.12 102.38 105.83C101.05 104.54 99.56 103.6 98.04 102.67C94.99 100.8 92.08 98.6901 88.57 97.7501C86.27 97.1401 83.44 96.9701 81.98 99.2501C81 100.77 81.07 102.73 81.16 104.46C81.27 106.76 81.57 109.04 81.45 111.35C81.32 113.65 80.97 115.92 80.93 118.23C80.89 120.6 80.79 122.97 80.69 125.34C80.61 127.27 83.61 127.27 83.69 125.34C83.84 121.71 83.8 118.05 84.16 114.44C84.32 112.86 84.5 111.29 84.48 109.7C84.46 107.79 84.2 105.9 84.14 104C84.11 103.08 83.88 101.32 84.71 100.63C85.21 100.21 86.02 100.31 86.61 100.4C89.74 100.86 92.23 102.68 94.85 104.27C97.65 105.97 100.25 107.58 102.23 110.25C104.19 112.89 106.09 115.73 107.77 118.57C109.47 121.43 110.94 124.62 112.08 127.74C113.25 130.95 113.83 134.44 113.57 137.86C113.32 141.17 111.64 144.13 108.93 146.06C105.95 148.18 102.35 148.59 98.79 148.6C97.94 148.6 97.35 149.29 97.29 150.1C97.14 152.15 96.81 154.16 96.47 156.19C96.21 157.75 96.43 160.38 94.59 160.86C91.65 161.63 87.91 162.14 84.99 161.07C83.75 160.61 83.03 159.89 83 158.55C82.97 156.4 83.3 154.26 83.31 152.1C83.31 150.03 83.05 147.96 83.07 145.89C83.09 143.82 83.46 141.77 83.62 139.7C83.81 137.32 83.76 134.92 83.85 132.54C83.94 130.14 83.62 127.76 83.69 125.36C83.74 123.43 80.74 123.43 80.69 125.36L80.7 125.33Z" fill="#333333"/>
<path d="M86.96 97.78C88.85 98.5 90.44 99.66 91.75 101.2C93.07 102.74 94.19 104.43 94.62 106.41C94.91 107.76 94.78 109.12 94.42 110.44C93.58 113.5 90.84 115.56 88.2 117.32C90.48 119.16 93.2 121.57 92.81 124.47C92.64 125.79 91.7 126.89 90.91 127.97C88.88 130.75 86.53 133.26 84.03 135.63" fill="#AFAFAF"/>
<path d="M86.57 99.23C89.76 100.51 93.04 103.97 93.28 107.54C93.55 111.54 90.45 114.03 87.45 116.03C86.73 116.51 86.35 117.74 87.15 118.39C88.41 119.41 89.77 120.49 90.65 121.87C91.6 123.37 91.47 124.63 90.47 126.07C88.32 129.19 85.72 131.97 82.98 134.58C81.58 135.91 83.7 138.03 85.1 136.7C86.83 135.05 88.5 133.34 90.04 131.51C91.39 129.9 92.99 128.13 93.85 126.19C95.66 122.11 92.18 118.63 89.26 116.26L88.96 118.62C92.99 115.93 96.78 112.4 96.24 107.09C95.75 102.26 91.71 98.08 87.37 96.34C85.58 95.62 84.8 98.52 86.57 99.23Z" fill="#333333"/>
<path d="M83.15 99.0799C83.78 101.12 84.34 103.2 84.37 105.33C84.4 107.63 84 110.12 82.54 111.89C81.26 113.44 79.3 114.35 77.29 114.44C75.28 114.53 73.23 113.91 71.57 112.91C69.87 111.88 68.49 110.4 67.25 108.83C66.03 107.29 64.8 105.43 63.77 103.76C63.59 107.75 62.85 110.42 59.69 112.91C58.92 113.52 57.97 113.88 57.05 114.23C54.6 115.17 51.54 114.64 49.62 112.86C47.7 111.08 46.91 108.25 46.75 105.64C46.59 103.03 47.12 100.39 48.03 97.9299" fill="#FCFCFC"/>
<path d="M81.7 99.4801C82.54 102.25 83.25 105.14 82.65 108.03C82.12 110.6 80.35 112.6 77.65 112.92C71.62 113.63 67.76 107.38 65.05 103.01C64.25 101.72 62.33 102.29 62.25 103.77C62.14 106.01 61.84 108.32 60.4 110.13C58.77 112.19 56 113.62 53.34 113.1C46.86 111.83 47.83 102.88 49.46 98.3401C50.11 96.5201 47.22 95.7401 46.57 97.5401C44.31 103.84 44.41 114.64 52.9 116.05C56.39 116.63 60 115.14 62.31 112.5C64.49 110.02 65.09 106.97 65.25 103.76C64.32 104.01 63.39 104.26 62.45 104.52C65.97 110.19 71.08 117.32 78.79 115.76C82 115.11 84.44 112.7 85.35 109.59C86.4 105.97 85.66 102.2 84.59 98.6901C84.03 96.8501 81.13 97.6301 81.7 99.4901V99.4801Z" fill="#333333"/>
<path d="M13.82 41.8C15.49 41.8 17.07 42.04 18.52 42.66C19.16 40.36 19.92 38.13 20.87 35.98C21.83 33.8 22.97 31.71 24.22 29.72C25.48 27.71 26.87 25.78 28.4 23.98C29.93 22.17 31.82 20.73 33.59 19.16C35.36 17.59 36.92 15.73 38.9 14.43C40.88 13.13 43 12.02 45.16 11.02C47.32 10.02 49.62 9.47999 51.91 8.79999C54.2 8.11999 56.42 7.42999 58.79 7.08999C61.1 6.75999 63.47 6.88999 65.87 6.88999C68.27 6.88999 70.61 7.01999 72.92 7.35999C75.29 7.69999 77.63 8.03999 79.87 8.70999C82.11 9.37999 84.41 10.14 86.55 11.13C88.69 12.12 90.72 13.4 92.69 14.7C94.67 16 96.51 17.49 98.28 19.06C100.05 20.63 101.98 22.07 103.52 23.88C105.05 25.68 106.46 27.63 107.72 29.65C108.98 31.67 109.73 33.94 110.69 36.12C111.65 38.3 112.56 40.47 113.2 42.77C114.68 42.12 116.34 41.99 118.06 41.99C120.27 41.99 122.38 42.25 124.16 43.29C125.94 44.33 127.38 46.03 128.44 47.87C129.5 49.71 129.99 51.67 129.99 53.87C129.99 56.07 129.49 58.1 128.46 59.88C127.4 61.72 126.07 63.5 124.23 64.57C122.39 65.64 120.27 66.18 118.06 66.18C116.69 66.18 115.27 65.68 114.04 65.25C113.56 67.75 112.82 70.21 111.99 72.56C111.16 74.91 110.23 77.28 109.04 79.49C107.84 81.72 106.51 83.85 105 85.86C103.48 87.87 101.81 89.76 100 91.51C98.19 93.26 96.41 95.08 94.35 96.54C92.3 97.99 89.97 99.02 87.7 100.15C85.43 101.28 83.23 102.5 80.81 103.27C78.43 104.03 75.91 104.36 73.39 104.75C70.87 105.14 68.43 105.4 65.87 105.4C63.31 105.4 60.82 105.04 58.37 104.67C55.85 104.28 53.31 104.05 50.94 103.29C48.57 102.53 46.17 101.54 43.93 100.42C41.67 99.29 39.72 97.64 37.67 96.19C35.62 94.74 33.59 93.25 31.79 91.5C29.98 89.75 28.33 87.86 26.81 85.85C25.29 83.85 23.93 81.74 22.73 79.52C21.54 77.32 20.62 74.99 19.77 72.6C18.92 70.21 18.1 67.87 17.62 65.38C16.43 65.77 15.15 66.27 13.83 66.27C11.62 66.27 9.69001 65.17 7.91001 64.13C6.08001 63.06 4.28001 61.84 3.22001 59.99C2.19001 58.21 1.49001 56.06 1.49001 53.85C1.49001 51.64 2.09001 49.44 3.11001 47.65C4.17001 45.81 5.99001 44.5 7.82001 43.43C9.65001 42.36 11.61 41.78 13.82 41.78V41.8Z" fill="#FFE6D9"/>
<path d="M13.82 43.3001C15.32 43.3201 16.72 43.5401 18.12 44.1001C18.88 44.4001 19.76 43.7601 19.97 43.0501C22.11 35.5001 26.02 27.8001 31.97 22.5301C33.43 21.2301 34.93 19.9901 36.33 18.6301C37.67 17.3201 39 16.1101 40.6 15.1301C44.04 13.0201 47.59 11.6101 51.45 10.4901C53.48 9.91008 55.48 9.26008 57.55 8.82008C59.59 8.39008 61.64 8.34008 63.72 8.36008C67.96 8.40008 72.1 8.61008 76.28 9.39008C84.42 10.9201 91.37 15.0301 97.56 20.4001C99.24 21.8601 101 23.2301 102.46 24.9301C103.92 26.6301 105.25 28.4801 106.42 30.3901C107.55 32.2301 108.28 34.2601 109.12 36.2401C110.09 38.5101 111.06 40.7601 111.75 43.1501C111.95 43.8601 112.84 44.5101 113.6 44.2001C116.57 42.9901 120.99 43.0101 123.74 44.7701C126.57 46.5801 128.37 50.1001 128.48 53.4101C128.59 56.8401 127.11 60.3401 124.46 62.5701C123.17 63.6501 121.5 64.2601 119.85 64.5301C117.92 64.8501 116.26 64.4101 114.44 63.7901C113.71 63.5401 112.74 64.0801 112.59 64.8401C110.94 73.2301 107.21 81.2801 101.53 87.7001C98.84 90.7401 95.77 93.9601 92.28 96.0801C90.5 97.1601 88.59 98.0101 86.74 98.9501C84.89 99.8901 82.89 100.98 80.83 101.68C78.75 102.39 76.57 102.75 74.4 103.08C72.23 103.41 70 103.74 67.77 103.85C63.34 104.07 58.88 103.34 54.52 102.59C50.3 101.86 45.94 100.15 42.38 97.7601C38.91 95.4301 35.33 92.9201 32.36 89.9701C25.6 83.2201 20.93 74.3501 19.05 64.9801C18.9 64.2201 17.93 63.6901 17.2 63.9301C15.65 64.4501 14.15 65.0001 12.5 64.6101C10.99 64.2501 9.63 63.4201 8.31 62.6301C5.56 60.9801 3.77 58.8501 3.14 55.6301C2.55 52.6201 3.41 49.0301 5.63 46.8501C7.85 44.6701 10.76 43.3501 13.81 43.2901C15.74 43.2501 15.74 40.2501 13.81 40.2901C9.88 40.3601 5.94 42.1501 3.23 45.0101C0.540003 47.8501 -0.469997 52.1901 0.170003 55.9901C0.840003 59.9501 3.08 62.9201 6.45 65.0001C8.08 66.0001 9.83 67.0401 11.7 67.4901C13.93 68.0301 15.88 67.5201 18 66.8101L16.15 65.7601C17.92 74.6001 22.17 83.0601 28.11 89.8201C31.08 93.1901 34.56 95.7301 38.15 98.3901C41.89 101.16 45.85 103.22 50.3 104.65C52.56 105.38 54.91 105.65 57.25 106C59.56 106.34 61.86 106.72 64.19 106.84C68.93 107.1 73.84 106.36 78.47 105.4C82.9 104.49 86.84 102.24 90.85 100.25C94.93 98.2201 98.14 95.4301 101.36 92.2401C108.62 85.0501 113.5 75.6601 115.48 65.6401L113.63 66.6901C115.84 67.4501 117.87 67.8401 120.2 67.5001C122.39 67.1701 124.53 66.3601 126.26 64.9501C129.64 62.2001 131.61 57.7401 131.46 53.4201C131.32 49.1201 129.12 44.8801 125.57 42.4101C123.74 41.1301 121.56 40.6501 119.36 40.5201C117.16 40.3901 114.84 40.4901 112.79 41.3201L114.64 42.3701C114.01 40.1901 113.16 38.0901 112.26 36.0101C111.43 34.0901 110.71 32.1101 109.76 30.2501C107.9 26.5901 105.13 23.0301 102.04 20.3301C98.87 17.5601 95.69 14.8401 92.14 12.5701C88.43 10.2001 84.49 8.50008 80.27 7.27008C76.04 6.04008 71.46 5.50008 67.06 5.41008C64.85 5.37008 62.61 5.29008 60.41 5.43008C58.21 5.57008 55.94 6.08008 53.76 6.69008C49.64 7.86008 45.61 9.02008 41.8 11.0101C40.01 11.9501 38.24 12.9601 36.67 14.2401C35.09 15.5201 33.73 17.0501 32.2 18.3901C30.47 19.9001 28.68 21.3301 27.2 23.0901C25.72 24.8501 24.3 26.7901 23.05 28.7701C20.39 32.9701 18.43 37.4801 17.08 42.2601C17.7 41.9101 18.31 41.5601 18.93 41.2101C17.3 40.5601 15.58 40.3201 13.83 40.3001C11.9 40.2701 11.9 43.2701 13.83 43.3001H13.82Z" fill="#333333"/>
<path d="M78.23 48.6C78.23 50.39 79.4 52.05 81.18 52.05C82.96 52.05 84.25 50.39 84.25 48.6C84.25 46.81 82.96 45.27 81.18 45.27C79.4 45.27 78.23 46.81 78.23 48.6Z" fill="#333333"/>
<path d="M47.52 48.6001C47.52 50.3901 48.78 51.6501 50.56 51.6501C52.34 51.6501 53.97 50.3801 53.97 48.6001C53.97 46.8201 52.34 45.3701 50.56 45.3701C48.78 45.3701 47.52 46.8101 47.52 48.6001Z" fill="#333333"/>
<path d="M68.67 49.3499C67.75 48.7599 66.74 48.3399 65.64 48.2499C65.16 48.2099 64.65 48.2799 64.2 48.4199C63.57 48.6299 63.09 48.9399 62.57 49.3399C62.29 49.5599 62.13 50.0599 62.13 50.3999C62.13 50.7699 62.29 51.2099 62.57 51.4599C62.85 51.7099 63.23 51.9199 63.63 51.8999L64.03 51.8499C64.28 51.7799 64.5 51.6499 64.69 51.4599L64.75 51.4099L64.45 51.6399C64.68 51.4699 64.91 51.3299 65.17 51.2199L64.81 51.3699C65.01 51.2899 65.22 51.2299 65.43 51.1999L65.03 51.2499C65.29 51.2199 65.54 51.2199 65.8 51.2499L65.4 51.1999C65.77 51.2499 66.12 51.3599 66.47 51.5099L66.11 51.3599C66.47 51.5199 66.82 51.7099 67.15 51.9299C67.81 52.3499 68.83 52.0899 69.2 51.3899C69.59 50.6499 69.37 49.7899 68.66 49.3399L68.67 49.3499Z" fill="#333333"/>
<path d="M87.95 62.4901C87.95 65.3201 88.89 68.0201 90.74 69.8801C92.59 71.7401 95.29 72.8001 98.11 72.8001C100.93 72.8001 103.57 71.6701 105.41 69.8101C107.25 67.9601 108.42 65.3201 108.42 62.4901C108.42 59.6601 107.14 57.1401 105.3 55.2801C103.46 53.4201 100.93 52.0801 98.11 52.0801C95.29 52.0801 92.71 53.3701 90.86 55.2301C89.02 57.0801 87.95 59.6701 87.95 62.5001V62.4901Z" fill="#EDBBA6"/>
<path d="M23.27 62.49C23.27 65.32 24.37 68.07 26.21 69.93C28.06 71.79 30.81 72.96 33.63 72.96C36.45 72.96 39.11 71.7 40.96 69.84C42.8 67.99 43.7 65.32 43.7 62.49C43.7 59.66 42.84 56.96 40.99 55.11C39.14 53.25 36.45 52.26 33.62 52.26C30.8 52.26 28.31 53.46 26.47 55.32C24.63 57.17 23.26 59.66 23.26 62.49H23.27Z" fill="#EDBBA6"/>
<path d="M25.98 45.3601C22.64 45.9001 19.23 45.5201 18.19 42.55C17.95 41.87 17.74 41.19 17.75 40.46C17.78 38.16 18.04 35.87 18.44 33.62C18.85 31.35 19.45 29.12 20.26 27C21.08 24.84 22.07 22.76 23.31 20.84C24.55 18.92 26.19 17.32 27.85 15.72C29.53 14.11 31.1 12.36 33.02 11.05C34.94 9.75005 37.05 8.72005 39.15 7.70005C41.25 6.68005 43.35 5.67005 45.55 4.92005C47.76 4.16005 50.1 3.88005 52.35 3.37005C54.6 2.86005 56.89 2.22005 59.17 1.94005C61.51 1.66005 63.88 1.48005 66.24 1.50005C68.6 1.52005 70.95 1.78005 73.29 2.10005C75.63 2.42005 77.92 2.95005 80.2 3.59005C82.25 4.17005 84.32 4.93005 86.42 5.70005C88.52 6.47005 90.55 7.19005 92.49 8.20005C94.46 9.22005 96.39 10.29 98.09 11.64C100.03 13.18 101.71 15.01 103.39 16.87C105.07 18.73 106.84 20.47 108.31 22.48C109.81 24.53 111.02 27.1 112.25 29.63C113.48 32.16 114.59 34.71 114.99 37.28C115.58 41.05 114.67 42.93 112.96 43.64C111.24 44.35 108.75 43.7001 106 42.6501C103.83 41.8301 101.38 41.03 99.31 39.87C96.68 38.41 94.35 37 93.05 36.2201C90.56 34.7201 88.25 32.93 85.86 31.28C83.47 29.63 81.1 27.95 78.77 26.21C76.44 24.47 74.24 22.43 71.93 20.61C70.61 19.57 68.99 17.58 67.19 17.56C65.89 17.55 64.24 19.49 63.25 20.33C61.68 21.68 60.08 22.98 58.49 24.3C56.9 25.62 55.31 26.95 53.71 28.25C51.11 30.36 48.71 32.9401 45.9 34.75C43.78 36.12 41.58 37.3801 39.5 38.7901C37.39 40.2201 35.41 41.8301 33.17 42.93C30.92 44.0401 28.53 44.94 25.99 45.35L25.98 45.3601Z" fill="#C67D71"/>
<path d="M25.58 43.91C24.15 44.1199 22.48 44.24 21.12 43.65C19.48 42.94 19.21 41.1299 19.27 39.5299C19.44 35.25 20.3 30.95 21.87 26.96C22.63 25.03 23.57 23.14 24.72 21.41C25.84 19.73 27.31 18.32 28.75 16.92C30.21 15.51 31.6 13.97 33.23 12.73C34.95 11.42 36.93 10.45 38.86 9.49995C40.79 8.54995 42.8 7.53995 44.86 6.74995C46.92 5.95995 49.02 5.54995 51.16 5.12995C53.3 4.70995 55.24 4.16995 57.3 3.74995C59.46 3.30995 61.68 3.11995 63.88 3.02995C72.77 2.63995 81.39 5.10995 89.54 8.46995C93.44 10.08 96.98 12.33 99.93 15.34C101.31 16.75 102.62 18.24 103.96 19.69C105.3 21.14 106.75 22.72 107.85 24.48C109.34 26.85 118.22 42.9399 110.81 42.41C108.88 42.27 107.01 41.4199 105.22 40.7599C103.31 40.0599 101.43 39.33 99.65 38.34C96.34 36.49 93.07 34.57 89.98 32.38C86.34 29.79 82.61 27.32 79.08 24.58C77.36 23.25 75.74 21.8 74.06 20.42C72.77 19.36 71.55 18.17 70.2 17.19C68.93 16.27 67.35 15.73 65.84 16.37C64.43 16.97 63.39 18.19 62.27 19.19C59 22.12 55.49 24.79 52.13 27.62C50.54 28.95 49.06 30.4 47.47 31.73C45.88 33.06 44.1 34.1399 42.33 35.2299C38.75 37.4399 35.44 40.27 31.61 42.04C29.69 42.93 27.67 43.5599 25.59 43.9199C23.69 44.25 24.5 47.14 26.39 46.81C30.85 46.04 34.77 43.9899 38.42 41.3899C42.2 38.7 46.4 36.59 49.94 33.57C53.48 30.5499 56.91 27.55 60.47 24.62C62.14 23.24 63.82 21.87 65.4 20.39C65.83 19.99 66.48 19.22 67.09 19.1C67.8 18.96 68.6 19.7 69.1 20.12C72.42 22.93 75.69 25.81 79.19 28.39C82.98 31.18 86.83 33.9599 90.76 36.5499C94.12 38.77 97.71 40.9799 101.44 42.52C103.46 43.35 105.54 44.1699 107.63 44.7999C109.4 45.34 111.43 45.76 113.23 45.15C116.55 44.02 116.94 40.36 116.52 37.34C115.9 32.91 113.59 28.62 111.48 24.73C109.37 20.85 106.26 17.74 103.29 14.52C100.2 11.18 96.75 8.58995 92.65 6.60995C88.51 4.60995 83.94 3.02995 79.49 1.85995C74.87 0.629951 70.04 -0.0600486 65.29 -4.85554e-05C62.96 0.0299514 60.62 0.219951 58.31 0.549951C56.01 0.889951 53.77 1.52995 51.49 2.01995C49.21 2.50995 46.91 2.83995 44.7 3.62995C42.53 4.40995 40.45 5.39995 38.38 6.40995C36.31 7.41995 34.04 8.49995 32.08 9.87995C30.3 11.13 28.8 12.69 27.25 14.2C25.7 15.71 24.17 17.17 22.86 18.88C21.55 20.59 20.45 22.68 19.56 24.74C17.73 29 16.69 33.53 16.34 38.15C16.18 40.22 16.16 42.3299 17.29 44.16C18.14 45.5299 19.56 46.41 21.11 46.7799C22.85 47.1899 24.62 47.0499 26.36 46.79C28.26 46.5 27.45 43.61 25.56 43.9L25.58 43.91Z" fill="#333333"/>
<path d="M65.84 63.9099C67.47 63.8399 69.14 63.4699 70.39 62.4099C71.64 61.3499 72.2 59.7299 72.14 58.0999C72.12 57.4799 72.03 56.9799 71.52 56.6199C70.21 55.7099 66.66 56.0899 65.1 56.1099C63.67 56.1199 61.4 56.0799 60.06 56.5599C57.66 57.4199 59.54 60.2499 60.68 61.7099C61.9 63.2599 63.86 63.9899 65.85 63.9099H65.84Z" fill="#FCFCFC"/>
<path d="M65.84 65.41C67.51 65.33 69.26 65.01 70.68 64.06C72.1 63.11 73.03 61.78 73.42 60.17C73.79 58.66 73.88 56.65 72.58 55.57C71.57 54.73 70.15 54.59 68.89 54.54C67.7 54.49 66.51 54.59 65.31 54.61C63.98 54.64 62.66 54.61 61.34 54.77C59.94 54.95 58.41 55.32 57.72 56.69C57.09 57.94 57.51 59.34 58.1 60.51C58.75 61.79 59.69 63.04 60.83 63.91C62.26 64.99 64.07 65.47 65.86 65.42C67.79 65.37 67.79 62.37 65.86 62.42C64.79 62.45 63.84 62.28 62.94 61.73C62.51 61.47 62.23 61.19 61.87 60.8C61.83 60.76 61.64 60.51 61.84 60.77C61.79 60.7 61.74 60.63 61.68 60.56C61.53 60.36 61.38 60.15 61.24 59.94C61.01 59.6 60.82 59.24 60.63 58.87C60.42 58.48 60.68 59.02 60.59 58.78C60.55 58.67 60.51 58.57 60.48 58.46C60.46 58.38 60.44 58.29 60.42 58.21C60.33 57.9 60.38 58.43 60.42 58.12C60.45 57.83 60.39 58.13 60.39 58.17L60.41 58.06C60.45 57.93 60.45 57.92 60.41 58.03L60.38 58.11C60.47 57.97 60.45 57.98 60.34 58.13C60.35 58.13 60.6 57.92 60.32 58.13C60.39 58.08 60.48 58.03 60.56 57.99C60.38 58.08 60.59 57.99 60.63 57.97C60.92 57.88 61.21 57.82 61.51 57.77C62.38 57.63 63.64 57.63 64.66 57.63C65.54 57.63 66.42 57.57 67.31 57.55C67.8 57.54 68.28 57.53 68.77 57.55C68.98 57.55 69.19 57.57 69.41 57.58C69.51 57.58 69.61 57.6 69.72 57.61C70.08 57.64 69.59 57.57 69.9 57.64C70.12 57.69 70.33 57.75 70.55 57.8C70.62 57.82 70.84 57.86 70.53 57.78C70.58 57.79 70.68 57.85 70.73 57.88C70.52 57.73 70.64 57.61 70.7 57.99C70.69 57.9 70.69 57.85 70.7 58.12C70.7 58.31 70.7 58.5 70.7 58.68C70.65 59.67 70.22 60.71 69.39 61.37C68.42 62.15 67.1 62.37 65.91 62.42C65.1 62.46 64.41 63.08 64.41 63.92C64.41 64.7 65.1 65.46 65.91 65.42L65.84 65.41Z" fill="#333333"/>
<path d="M17.13 140.95C14.99 140.22 13.31 138.65 12.41 136.45C11.52 134.28 11.09 131.76 10.99 129.79C10.89 127.65 11.43 125.65 12.26 123.92C13.09 122.19 14.39 120.59 16.08 119.32C17.28 118.41 18.95 118.1 20.39 118.55C21.83 119 22.9 120.4 22.77 121.9C22.65 123.19 22.04 124.14 21.14 125.08C22.47 125.18 23.55 125.95 24.13 127.15C24.71 128.35 24.04 130.04 22.73 130.29C23.79 131.01 25 131.93 25.34 133.17C25.68 134.41 24.78 135.99 23.49 136.01C24.64 136.46 24.81 137.98 24.23 139.07C23.65 140.16 22.65 140.79 21.45 141.12C20 141.52 18.55 141.44 17.13 140.95Z" fill="#FFE6D9"/>
<path d="M17.53 139.51C15.03 138.6 13.83 136.45 13.17 134C12.43 131.25 12.18 128.4 13.15 125.67C13.91 123.53 15.73 120.68 18.04 119.99C19.09 119.68 20.45 119.83 21.05 120.85C21.71 121.97 20.83 123.21 20.08 124.02C19.13 125.05 19.87 126.43 21.14 126.58C21.79 126.66 22.57 127.13 22.78 127.8C22.92 128.23 22.8 128.72 22.33 128.85C21.02 129.21 20.94 130.88 21.97 131.59C22.6 132.03 23.51 132.58 23.8 133.33C23.91 133.61 23.96 134.46 23.48 134.5C22.15 134.63 21.25 136.57 22.72 137.3C23.67 137.77 22.43 139.04 21.89 139.34C20.54 140.09 18.92 139.95 17.51 139.51C15.66 138.93 14.87 141.82 16.71 142.4C19.34 143.23 22.69 143.03 24.7 140.92C26.35 139.19 26.68 135.92 24.23 134.71C23.98 135.64 23.73 136.57 23.47 137.51C25.43 137.31 26.89 135.73 26.89 133.72C26.89 131.57 25.08 130.11 23.47 129L23.11 131.74C25.03 131.21 26.16 129.19 25.72 127.26C25.23 125.09 23.2 123.83 21.12 123.59C21.47 124.44 21.83 125.3 22.18 126.15C24.17 123.98 25.19 120.81 22.9 118.42C20.73 116.15 17.14 116.57 14.85 118.38C12.43 120.29 10.68 122.96 9.89999 125.95C9.09999 129.02 9.49999 132.37 10.42 135.38C11.43 138.69 13.41 141.21 16.72 142.41C18.54 143.07 19.32 140.17 17.52 139.52L17.53 139.51Z" fill="#333333"/>
<path d="M73.15 53.82C73.29 53.91 73.43 54 73.56 54.1C73.63 54.15 73.69 54.2 73.76 54.25C73.84 54.31 73.99 54.48 73.73 54.23C73.95 54.45 74.22 54.63 74.45 54.84C74.68 55.05 74.9 55.28 75.11 55.51C75.22 55.63 75.32 55.76 75.43 55.89C75.61 56.1 75.3 55.71 75.41 55.86C75.46 55.93 75.51 55.99 75.56 56.06C75.74 56.31 75.91 56.57 76.06 56.84C76.14 56.98 76.22 57.13 76.29 57.27C76.33 57.34 76.36 57.42 76.39 57.49C76.48 57.67 76.38 57.47 76.35 57.4C76.45 57.71 76.58 58.01 76.66 58.32C76.7 58.46 76.73 58.6 76.76 58.75C76.78 58.83 76.79 58.91 76.81 58.99C76.77 58.66 76.87 59.29 76.81 58.99C76.86 59.4 76.95 59.75 77.25 60.05C77.51 60.31 77.94 60.51 78.31 60.49C79.04 60.46 79.91 59.82 79.81 58.99C79.62 57.39 79.08 55.87 78.14 54.55C77.2 53.23 76.02 52.13 74.66 51.24C74 50.81 72.97 51.09 72.61 51.78C72.22 52.53 72.44 53.37 73.15 53.83V53.82Z" fill="#D6B4A5"/>
<path d="M96.01 131.51C95.24 129.27 95.97 126.59 97.24 123.93C98.34 121.62 99.88 119.34 101.81 117.59C103.97 115.63 106.41 114.33 108.72 114.15C110.04 114.04 111.35 114.67 111.83 115.9C112.31 117.13 111.63 118.74 110.32 118.87C111.45 119.74 112.69 120.36 113.9 121.12C115.11 121.88 116.26 122.92 116.32 124.35C116.38 125.78 114.96 127.31 113.66 126.74C114.33 127.66 114.74 128.57 114.89 129.69C115.04 130.81 114.68 132.19 113.56 132.43C113.29 132.49 112.98 132.39 112.76 132.55C112.21 132.95 112.44 133.8 112.44 134.48C112.44 135.44 111.65 136.35 110.7 136.44C109.75 136.53 108.85 136.14 107.97 135.75C108.27 136.29 107.85 136.69 107.36 137.09C106.87 137.49 106.35 137.77 105.73 137.82C103.66 137.99 101.43 137.61 99.7 136.48C97.97 135.35 96.68 133.47 96.01 131.51Z" fill="#FFE6D9"/>
<path d="M97.46 131.11C96.78 128.88 97.65 126.52 98.63 124.51C99.61 122.5 100.85 120.61 102.45 119.05C104 117.53 105.92 116.2 108.08 115.75C108.78 115.6 109.78 115.49 110.27 116.15C110.65 116.65 110.53 117.31 109.92 117.42C108.51 117.68 108.64 119.48 109.56 120.16C110.92 121.17 112.55 121.84 113.85 122.92C114.29 123.29 114.85 123.82 114.82 124.45C114.8 124.85 114.5 125.43 114.06 125.29C112.86 124.91 111.62 126.42 112.37 127.49C112.93 128.29 113.49 129.25 113.42 130.26C113.41 130.43 113.4 130.64 113.31 130.8C113.26 130.88 113.11 131.04 113.28 130.94C112.85 131.18 112.32 131.02 111.85 131.36C110.97 132 110.9 133.02 110.92 134.02C110.95 135.44 109.67 134.87 108.73 134.46C107.63 133.98 106.08 134.79 106.53 136.15C106.68 135.72 106.61 135.67 106.32 136.01C106.14 136.15 105.93 136.25 105.71 136.31C105.25 136.43 104.65 136.36 104.18 136.34C103.14 136.28 102.08 136.04 101.15 135.57C99.37 134.68 98.14 132.95 97.47 131.11C96.82 129.31 93.92 130.09 94.58 131.91C95.79 135.23 98.14 137.99 101.64 138.94C103.23 139.38 105.26 139.63 106.85 139.1C108.44 138.57 109.99 137.1 109.43 135.36C108.7 135.92 107.96 136.49 107.23 137.05C108.96 137.81 111.01 138.53 112.65 137.17C113.26 136.66 113.69 135.97 113.87 135.2C113.95 134.87 113.95 134.52 113.94 134.18C113.92 133.97 113.91 133.77 113.9 133.56C113.18 133.89 113.06 134.01 113.57 133.93C115.13 134 116.15 132.28 116.36 130.96C116.63 129.19 115.97 127.42 114.97 125.98C114.41 126.71 113.84 127.45 113.28 128.18C116.07 129.08 118.35 126 117.71 123.43C116.95 120.37 113.36 119.25 111.09 117.57C110.97 118.48 110.85 119.4 110.73 120.31C113.77 119.76 114.26 115.69 112.18 113.81C109.77 111.61 106.03 112.92 103.6 114.39C100.67 116.16 98.34 118.82 96.68 121.8C95.02 124.78 93.53 128.47 94.58 131.92C95.14 133.76 98.04 132.98 97.47 131.12L97.46 131.11Z" fill="#333333"/>
<path d="M106.1 121.38C106.06 121.43 106.02 121.49 105.98 121.54C105.84 121.73 105.98 121.54 106.04 121.46C105.96 121.57 105.87 121.67 105.79 121.78C105.63 121.98 105.46 122.17 105.28 122.36C104.92 122.74 104.54 123.11 104.14 123.45C104.05 123.53 103.95 123.6 103.86 123.68C103.72 123.79 104.15 123.47 103.94 123.62C103.89 123.66 103.83 123.7 103.78 123.74C103.57 123.89 103.36 124.03 103.14 124.17C102.68 124.45 102.2 124.7 101.71 124.91L102.07 124.76L102 124.79C101.62 124.95 101.32 125.11 101.1 125.48C100.91 125.8 100.83 126.28 100.95 126.64C101.07 127 101.29 127.35 101.64 127.54C101.99 127.73 102.43 127.84 102.8 127.69C104.05 127.17 105.16 126.5 106.21 125.64C107.17 124.85 107.97 123.92 108.7 122.92C108.92 122.62 108.94 122.1 108.85 121.76C108.76 121.42 108.49 121.03 108.16 120.86C107.81 120.68 107.39 120.58 107 120.71C106.61 120.84 106.35 121.07 106.1 121.4V121.38Z" fill="#333333"/>
</g>
<defs>
<clipPath id="clip0_4_5626">
<rect width="131.48" height="218.02" fill="white"/>
</clipPath>
</defs>
</svg>
