<svg width="1080" height="740" viewBox="0 0 1080 740" fill="none" xmlns="http://www.w3.org/2000/svg">
<path d="M478.72 372.405C473.581 364.958 461.866 357.954 447.337 354.519C432.807 351.084 419.241 352.112 411.376 356.491L406.718 355.389L404.452 365.183H404.489C402.867 375.554 417.856 387.688 438.561 392.578C459.274 397.467 478.01 393.298 481.083 383.279H481.12L483.371 373.507L478.713 372.405H478.72Z" fill="#F9BF1C" stroke="#333333" stroke-width="2" stroke-miterlimit="10"/>
<path d="M483.387 373.51C485.807 363.003 470.604 350.431 449.431 345.429C428.258 340.428 409.131 344.891 406.711 355.398C404.291 365.905 419.493 378.477 440.667 383.479C461.84 388.48 480.966 384.017 483.387 373.51Z" fill="#F9BF1C" stroke="#333333" stroke-width="2" stroke-miterlimit="10"/>
<path d="M478.387 372.33C476.343 381.186 459.296 384.299 441.449 380.084C423.595 375.862 409.458 365.385 411.502 356.529C413.538 347.672 430.889 344.192 448.736 348.407C466.583 352.622 480.423 363.466 478.379 372.322L478.387 372.33Z" fill="#FAE400" stroke="#333333" stroke-width="2" stroke-miterlimit="10"/>
<path d="M409.406 365.775L407.385 374.527" stroke="#333333" stroke-width="2" stroke-miterlimit="10"/>
<path d="M416.611 372.892L414.545 381.869" stroke="#333333" stroke-width="2" stroke-miterlimit="10"/>
<path d="M424.617 377.752L422.565 386.668" stroke="#333333" stroke-width="2" stroke-miterlimit="10"/>
<path d="M434.399 381.726L432.318 390.763" stroke="#333333" stroke-width="2" stroke-miterlimit="10"/>
<path d="M444.218 384.043L442.078 393.365" stroke="#333333" stroke-width="2" stroke-miterlimit="10"/>
<path d="M453.667 385.243L451.49 394.722" stroke="#333333" stroke-width="2" stroke-miterlimit="10"/>
<path d="M462.036 385.356L459.896 394.663" stroke="#333333" stroke-width="2" stroke-miterlimit="10"/>
<path d="M469.508 384.479L467.538 393.028" stroke="#333333" stroke-width="2" stroke-miterlimit="10"/>
<path d="M476.624 381.509L474.625 390.193" stroke="#333333" stroke-width="2" stroke-miterlimit="10"/>
<path d="M634.797 285.027C628.406 284.554 619.29 287.918 610.855 294.431C602.421 300.944 596.86 308.913 595.705 315.219L593 317.306L597.332 322.926L597.348 322.905C602.286 328.425 615.684 325.534 627.702 316.25C639.722 306.962 645.898 294.731 641.808 288.565L641.824 288.545L637.498 282.944L634.793 285.031L634.797 285.027Z" fill="#F9BF1C" stroke="#333333" stroke-width="2" stroke-miterlimit="10"/>
<path d="M637.507 282.936C632.855 276.914 619.121 279.727 606.831 289.221C594.541 298.714 588.35 311.292 593.002 317.314C597.654 323.336 611.388 320.523 623.677 311.029C635.967 301.536 642.159 288.958 637.507 282.936Z" fill="#F9BF1C" stroke="#333333" stroke-width="2" stroke-miterlimit="10"/>
<path d="M634.605 285.178C638.525 290.257 632.533 301.081 622.174 309.084C611.808 317.087 599.701 320.244 595.782 315.166C591.859 310.092 597.787 298.935 608.145 290.933C618.504 282.93 630.678 280.1 634.598 285.179L634.605 285.178Z" fill="#FAE400" stroke="#333333" stroke-width="2" stroke-miterlimit="10"/>
<path d="M599.891 320.447L603.763 325.466" stroke="#333333" stroke-width="2" stroke-miterlimit="10"/>
<path d="M607.034 319.629L611.009 324.774" stroke="#333333" stroke-width="2" stroke-miterlimit="10"/>
<path d="M613.303 317.363L617.252 322.472" stroke="#333333" stroke-width="2" stroke-miterlimit="10"/>
<path d="M619.89 313.719L623.891 318.898" stroke="#333333" stroke-width="2" stroke-miterlimit="10"/>
<path d="M625.589 309.315L629.719 314.654" stroke="#333333" stroke-width="2" stroke-miterlimit="10"/>
<path d="M630.51 304.618L634.71 310.048" stroke="#333333" stroke-width="2" stroke-miterlimit="10"/>
<path d="M634.348 300.036L638.47 305.368" stroke="#333333" stroke-width="2" stroke-miterlimit="10"/>
<path d="M637.24 295.508L641.024 300.408" stroke="#333333" stroke-width="2" stroke-miterlimit="10"/>
<path d="M638.828 290.244L642.673 295.221" stroke="#333333" stroke-width="2" stroke-miterlimit="10"/>
</svg>
