<svg width="143" height="83" viewBox="0 0 143 83" fill="none" xmlns="http://www.w3.org/2000/svg">
<mask id="path-1-outside-1_99_322" maskUnits="userSpaceOnUse" x="0" y="15" width="142" height="60" fill="black">
<rect fill="white" y="15" width="142" height="60"/>
<path d="M37.5263 59.288H57.3023V69.4H3.60625V59.288H23.3823V50.456H21.0783C17.9209 50.456 15.1689 49.752 12.8223 48.344C10.4756 46.936 8.68358 45.016 7.44625 42.584C6.20892 40.152 5.59025 37.4427 5.59025 34.456C5.59025 31.512 6.20892 28.824 7.44625 26.392C8.68358 23.96 10.4756 22.04 12.8223 20.632C15.1689 19.224 17.9209 18.52 21.0783 18.52H39.8303C42.9876 18.52 45.7183 19.224 48.0223 20.632C50.3689 22.04 52.1609 23.96 53.3983 26.392C54.6356 28.824 55.2543 31.512 55.2543 34.456C55.2543 37.4427 54.6356 40.152 53.3983 42.584C52.1609 45.016 50.3689 46.936 48.0223 48.344C45.7183 49.752 42.9876 50.456 39.8303 50.456H37.5263V59.288ZM43.4143 37.464V35.224L18.2623 40.024V42.264L43.4143 37.464ZM43.4143 29.144V26.904L18.2623 31.704V33.944L43.4143 29.144ZM121.714 26.648V36.76H115.378V45.656H102.706V18.328H115.378V26.648H121.714ZM65.0098 19.032H96.0498V28.76H77.2978V35.48H98.0978V45.208H65.0098V19.032ZM67.6338 48.664H80.1778V63.64H102.834V48.664H115.378V71.32H67.6338V48.664ZM83.6978 56.152L99.3778 53.72V56.28L83.6978 58.712V56.152ZM137.406 68.312H125.822V58.328H137.406V68.312ZM138.43 21.336L136.446 54.68H126.718L125.054 21.336H138.43Z"/>
</mask>
<path d="M37.5263 59.288H57.3023V69.4H3.60625V59.288H23.3823V50.456H21.0783C17.9209 50.456 15.1689 49.752 12.8223 48.344C10.4756 46.936 8.68358 45.016 7.44625 42.584C6.20892 40.152 5.59025 37.4427 5.59025 34.456C5.59025 31.512 6.20892 28.824 7.44625 26.392C8.68358 23.96 10.4756 22.04 12.8223 20.632C15.1689 19.224 17.9209 18.52 21.0783 18.52H39.8303C42.9876 18.52 45.7183 19.224 48.0223 20.632C50.3689 22.04 52.1609 23.96 53.3983 26.392C54.6356 28.824 55.2543 31.512 55.2543 34.456C55.2543 37.4427 54.6356 40.152 53.3983 42.584C52.1609 45.016 50.3689 46.936 48.0223 48.344C45.7183 49.752 42.9876 50.456 39.8303 50.456H37.5263V59.288ZM43.4143 37.464V35.224L18.2623 40.024V42.264L43.4143 37.464ZM43.4143 29.144V26.904L18.2623 31.704V33.944L43.4143 29.144ZM121.714 26.648V36.76H115.378V45.656H102.706V18.328H115.378V26.648H121.714ZM65.0098 19.032H96.0498V28.76H77.2978V35.48H98.0978V45.208H65.0098V19.032ZM67.6338 48.664H80.1778V63.64H102.834V48.664H115.378V71.32H67.6338V48.664ZM83.6978 56.152L99.3778 53.72V56.28L83.6978 58.712V56.152ZM137.406 68.312H125.822V58.328H137.406V68.312ZM138.43 21.336L136.446 54.68H126.718L125.054 21.336H138.43Z" fill="black"/>
<path d="M37.5263 59.288H34.5263V62.288H37.5263V59.288ZM57.3023 59.288H60.3023V56.288H57.3023V59.288ZM57.3023 69.4V72.4H60.3023V69.4H57.3023ZM3.60625 69.4H0.60625V72.4H3.60625V69.4ZM3.60625 59.288V56.288H0.60625V59.288H3.60625ZM23.3823 59.288V62.288H26.3823V59.288H23.3823ZM23.3823 50.456H26.3823V47.456H23.3823V50.456ZM12.8223 48.344L11.2788 50.9165L12.8223 48.344ZM7.44625 42.584L4.77242 43.9444L7.44625 42.584ZM7.44625 26.392L4.77242 25.0316L7.44625 26.392ZM12.8223 20.632L11.2788 18.0595L11.2788 18.0595L12.8223 20.632ZM48.0223 20.632L46.4579 23.1918L46.4683 23.1982L46.4788 23.2045L48.0223 20.632ZM53.3983 26.392L56.0721 25.0316L56.0721 25.0316L53.3983 26.392ZM53.3983 42.584L56.0721 43.9444L56.0721 43.9444L53.3983 42.584ZM48.0223 48.344L46.4788 45.7715L46.4683 45.7778L46.4579 45.7842L48.0223 48.344ZM37.5263 50.456V47.456H34.5263V50.456H37.5263ZM43.4143 37.464L43.9766 40.4108L46.4143 39.9456V37.464H43.4143ZM43.4143 35.224H46.4143V31.5973L42.8519 32.2772L43.4143 35.224ZM18.2623 40.024L17.6999 37.0772L15.2623 37.5424V40.024H18.2623ZM18.2623 42.264H15.2623V45.8907L18.8246 45.2108L18.2623 42.264ZM43.4143 29.144L43.9766 32.0908L46.4143 31.6256V29.144H43.4143ZM43.4143 26.904H46.4143V23.2773L42.8519 23.9572L43.4143 26.904ZM18.2623 31.704L17.6999 28.7572L15.2623 29.2224V31.704H18.2623ZM18.2623 33.944H15.2623V37.5707L18.8246 36.8908L18.2623 33.944ZM37.5263 62.288H57.3023V56.288H37.5263V62.288ZM54.3023 59.288V69.4H60.3023V59.288H54.3023ZM57.3023 66.4H3.60625V72.4H57.3023V66.4ZM6.60625 69.4V59.288H0.60625V69.4H6.60625ZM3.60625 62.288H23.3823V56.288H3.60625V62.288ZM26.3823 59.288V50.456H20.3823V59.288H26.3823ZM23.3823 47.456H21.0783V53.456H23.3823V47.456ZM21.0783 47.456C18.3797 47.456 16.1783 46.8591 14.3657 45.7715L11.2788 50.9165C14.1595 52.6449 17.4622 53.456 21.0783 53.456V47.456ZM14.3657 45.7715C12.5007 44.6525 11.1011 43.1519 10.1201 41.2236L4.77242 43.9444C6.26603 46.8801 8.45047 49.2195 11.2788 50.9165L14.3657 45.7715ZM10.1201 41.2236C9.11689 39.2518 8.59025 37.0154 8.59025 34.456H2.59025C2.59025 37.87 3.30095 41.0522 4.77242 43.9444L10.1201 41.2236ZM8.59025 34.456C8.59025 31.9467 9.11381 29.7302 10.1201 27.7524L4.77242 25.0316C3.30402 27.9178 2.59025 31.0773 2.59025 34.456H8.59025ZM10.1201 27.7524C11.1011 25.8241 12.5007 24.3235 14.3657 23.2045L11.2788 18.0595C8.45047 19.7565 6.26603 22.0959 4.77242 25.0316L10.1201 27.7524ZM14.3657 23.2045C16.1783 22.1169 18.3797 21.52 21.0783 21.52V15.52C17.4622 15.52 14.1595 16.3311 11.2788 18.0595L14.3657 23.2045ZM21.0783 21.52H39.8303V15.52H21.0783V21.52ZM39.8303 21.52C42.5304 21.52 44.6997 22.1174 46.4579 23.1918L49.5866 18.0722C46.7368 16.3306 43.4448 15.52 39.8303 15.52V21.52ZM46.4788 23.2045C48.3438 24.3235 49.7434 25.8241 50.7244 27.7524L56.0721 25.0316C54.5785 22.0959 52.394 19.7565 49.5657 18.0595L46.4788 23.2045ZM50.7244 27.7524C51.7307 29.7302 52.2543 31.9467 52.2543 34.456H58.2543C58.2543 31.0773 57.5405 27.9178 56.0721 25.0316L50.7244 27.7524ZM52.2543 34.456C52.2543 37.0154 51.7276 39.2518 50.7244 41.2236L56.0721 43.9444C57.5436 41.0522 58.2543 37.87 58.2543 34.456H52.2543ZM50.7244 41.2236C49.7434 43.1519 48.3438 44.6525 46.4788 45.7715L49.5657 50.9165C52.394 49.2195 54.5785 46.8801 56.0721 43.9444L50.7244 41.2236ZM46.4579 45.7842C44.6997 46.8586 42.5304 47.456 39.8303 47.456V53.456C43.4448 53.456 46.7368 52.6454 49.5866 50.9038L46.4579 45.7842ZM39.8303 47.456H37.5263V53.456H39.8303V47.456ZM34.5263 50.456V59.288H40.5263V50.456H34.5263ZM46.4143 37.464V35.224H40.4143V37.464H46.4143ZM42.8519 32.2772L17.6999 37.0772L18.8246 42.9708L43.9766 38.1708L42.8519 32.2772ZM15.2623 40.024V42.264H21.2623V40.024H15.2623ZM18.8246 45.2108L43.9766 40.4108L42.8519 34.5172L17.6999 39.3172L18.8246 45.2108ZM46.4143 29.144V26.904H40.4143V29.144H46.4143ZM42.8519 23.9572L17.6999 28.7572L18.8246 34.6508L43.9766 29.8508L42.8519 23.9572ZM15.2623 31.704V33.944H21.2623V31.704H15.2623ZM18.8246 36.8908L43.9766 32.0908L42.8519 26.1972L17.6999 30.9972L18.8246 36.8908ZM121.714 26.648H124.714V23.648H121.714V26.648ZM121.714 36.76V39.76H124.714V36.76H121.714ZM115.378 36.76V33.76H112.378V36.76H115.378ZM115.378 45.656V48.656H118.378V45.656H115.378ZM102.706 45.656H99.7057V48.656H102.706V45.656ZM102.706 18.328V15.328H99.7057V18.328H102.706ZM115.378 18.328H118.378V15.328H115.378V18.328ZM115.378 26.648H112.378V29.648H115.378V26.648ZM65.0098 19.032V16.032H62.0098V19.032H65.0098ZM96.0498 19.032H99.0498V16.032H96.0498V19.032ZM96.0498 28.76V31.76H99.0498V28.76H96.0498ZM77.2978 28.76V25.76H74.2978V28.76H77.2978ZM77.2978 35.48H74.2978V38.48H77.2978V35.48ZM98.0977 35.48H101.098V32.48H98.0977V35.48ZM98.0977 45.208V48.208H101.098V45.208H98.0977ZM65.0098 45.208H62.0098V48.208H65.0098V45.208ZM67.6338 48.664V45.664H64.6338V48.664H67.6338ZM80.1777 48.664H83.1777V45.664H80.1777V48.664ZM80.1777 63.64H77.1777V66.64H80.1777V63.64ZM102.834 63.64V66.64H105.834V63.64H102.834ZM102.834 48.664V45.664H99.8338V48.664H102.834ZM115.378 48.664H118.378V45.664H115.378V48.664ZM115.378 71.32V74.32H118.378V71.32H115.378ZM67.6338 71.32H64.6338V74.32H67.6338V71.32ZM83.6978 56.152L83.2379 53.1874L80.6978 53.5814V56.152H83.6978ZM99.3777 53.72H102.378V50.2188L98.9179 50.7554L99.3777 53.72ZM99.3777 56.28L99.8376 59.2446L102.378 58.8506V56.28H99.3777ZM83.6978 58.712H80.6978V62.2132L84.1576 61.6766L83.6978 58.712ZM118.714 26.648V36.76H124.714V26.648H118.714ZM121.714 33.76H115.378V39.76H121.714V33.76ZM112.378 36.76V45.656H118.378V36.76H112.378ZM115.378 42.656H102.706V48.656H115.378V42.656ZM105.706 45.656V18.328H99.7057V45.656H105.706ZM102.706 21.328H115.378V15.328H102.706V21.328ZM112.378 18.328V26.648H118.378V18.328H112.378ZM115.378 29.648H121.714V23.648H115.378V29.648ZM65.0098 22.032H96.0498V16.032H65.0098V22.032ZM93.0498 19.032V28.76H99.0498V19.032H93.0498ZM96.0498 25.76H77.2978V31.76H96.0498V25.76ZM74.2978 28.76V35.48H80.2978V28.76H74.2978ZM77.2978 38.48H98.0977V32.48H77.2978V38.48ZM95.0977 35.48V45.208H101.098V35.48H95.0977ZM98.0977 42.208H65.0098V48.208H98.0977V42.208ZM68.0098 45.208V19.032H62.0098V45.208H68.0098ZM67.6338 51.664H80.1777V45.664H67.6338V51.664ZM77.1777 48.664V63.64H83.1777V48.664H77.1777ZM80.1777 66.64H102.834V60.64H80.1777V66.64ZM105.834 63.64V48.664H99.8338V63.64H105.834ZM102.834 51.664H115.378V45.664H102.834V51.664ZM112.378 48.664V71.32H118.378V48.664H112.378ZM115.378 68.32H67.6338V74.32H115.378V68.32ZM70.6338 71.32V48.664H64.6338V71.32H70.6338ZM84.1576 59.1166L99.8376 56.6846L98.9179 50.7554L83.2379 53.1874L84.1576 59.1166ZM96.3777 53.72V56.28H102.378V53.72H96.3777ZM98.9179 53.3154L83.2379 55.7474L84.1576 61.6766L99.8376 59.2446L98.9179 53.3154ZM86.6978 58.712V56.152H80.6978V58.712H86.6978ZM137.406 68.312V71.312H140.406V68.312H137.406ZM125.822 68.312H122.822V71.312H125.822V68.312ZM125.822 58.328V55.328H122.822V58.328H125.822ZM137.406 58.328H140.406V55.328H137.406V58.328ZM138.43 21.336L141.425 21.5142L141.614 18.336H138.43V21.336ZM136.446 54.68V57.68H139.273L139.441 54.8582L136.446 54.68ZM126.718 54.68L123.722 54.8295L123.864 57.68H126.718V54.68ZM125.054 21.336V18.336H121.901L122.058 21.4855L125.054 21.336ZM137.406 65.312H125.822V71.312H137.406V65.312ZM128.822 68.312V58.328H122.822V68.312H128.822ZM125.822 61.328H137.406V55.328H125.822V61.328ZM134.406 58.328V68.312H140.406V58.328H134.406ZM135.436 21.1578L133.452 54.5018L139.441 54.8582L141.425 21.5142L135.436 21.1578ZM136.446 51.68H126.718V57.68H136.446V51.68ZM129.715 54.5305L128.051 21.1865L122.058 21.4855L123.722 54.8295L129.715 54.5305ZM125.054 24.336H138.43V18.336H125.054V24.336Z" fill="black" mask="url(#path-1-outside-1_99_322)"/>
<mask id="path-3-outside-2_99_322" maskUnits="userSpaceOnUse" x="0" y="9" width="142" height="60" fill="black">
<rect fill="white" y="9" width="142" height="60"/>
<path d="M37.5263 53.288H57.3023V63.4H3.60625V53.288H23.3823V44.456H21.0783C17.9209 44.456 15.1689 43.752 12.8223 42.344C10.4756 40.936 8.68358 39.016 7.44625 36.584C6.20892 34.152 5.59025 31.4427 5.59025 28.456C5.59025 25.512 6.20892 22.824 7.44625 20.392C8.68358 17.96 10.4756 16.04 12.8223 14.632C15.1689 13.224 17.9209 12.52 21.0783 12.52H39.8303C42.9876 12.52 45.7183 13.224 48.0223 14.632C50.3689 16.04 52.1609 17.96 53.3983 20.392C54.6356 22.824 55.2543 25.512 55.2543 28.456C55.2543 31.4427 54.6356 34.152 53.3983 36.584C52.1609 39.016 50.3689 40.936 48.0223 42.344C45.7183 43.752 42.9876 44.456 39.8303 44.456H37.5263V53.288ZM43.4143 31.464V29.224L18.2623 34.024V36.264L43.4143 31.464ZM43.4143 23.144V20.904L18.2623 25.704V27.944L43.4143 23.144ZM121.714 20.648V30.76H115.378V39.656H102.706V12.328H115.378V20.648H121.714ZM65.0098 13.032H96.0498V22.76H77.2978V29.48H98.0978V39.208H65.0098V13.032ZM67.6338 42.664H80.1778V57.64H102.834V42.664H115.378V65.32H67.6338V42.664ZM83.6978 50.152L99.3778 47.72V50.28L83.6978 52.712V50.152ZM137.406 62.312H125.822V52.328H137.406V62.312ZM138.43 15.336L136.446 48.68H126.718L125.054 15.336H138.43Z"/>
</mask>
<path d="M37.5263 53.288H57.3023V63.4H3.60625V53.288H23.3823V44.456H21.0783C17.9209 44.456 15.1689 43.752 12.8223 42.344C10.4756 40.936 8.68358 39.016 7.44625 36.584C6.20892 34.152 5.59025 31.4427 5.59025 28.456C5.59025 25.512 6.20892 22.824 7.44625 20.392C8.68358 17.96 10.4756 16.04 12.8223 14.632C15.1689 13.224 17.9209 12.52 21.0783 12.52H39.8303C42.9876 12.52 45.7183 13.224 48.0223 14.632C50.3689 16.04 52.1609 17.96 53.3983 20.392C54.6356 22.824 55.2543 25.512 55.2543 28.456C55.2543 31.4427 54.6356 34.152 53.3983 36.584C52.1609 39.016 50.3689 40.936 48.0223 42.344C45.7183 43.752 42.9876 44.456 39.8303 44.456H37.5263V53.288ZM43.4143 31.464V29.224L18.2623 34.024V36.264L43.4143 31.464ZM43.4143 23.144V20.904L18.2623 25.704V27.944L43.4143 23.144ZM121.714 20.648V30.76H115.378V39.656H102.706V12.328H115.378V20.648H121.714ZM65.0098 13.032H96.0498V22.76H77.2978V29.48H98.0978V39.208H65.0098V13.032ZM67.6338 42.664H80.1778V57.64H102.834V42.664H115.378V65.32H67.6338V42.664ZM83.6978 50.152L99.3778 47.72V50.28L83.6978 52.712V50.152ZM137.406 62.312H125.822V52.328H137.406V62.312ZM138.43 15.336L136.446 48.68H126.718L125.054 15.336H138.43Z" fill="white"/>
<path d="M37.5263 53.288H34.5263V56.288H37.5263V53.288ZM57.3023 53.288H60.3023V50.288H57.3023V53.288ZM57.3023 63.4V66.4H60.3023V63.4H57.3023ZM3.60625 63.4H0.60625V66.4H3.60625V63.4ZM3.60625 53.288V50.288H0.60625V53.288H3.60625ZM23.3823 53.288V56.288H26.3823V53.288H23.3823ZM23.3823 44.456H26.3823V41.456H23.3823V44.456ZM12.8223 42.344L11.2788 44.9165L12.8223 42.344ZM7.44625 36.584L4.77242 37.9444L7.44625 36.584ZM7.44625 20.392L4.77242 19.0316L7.44625 20.392ZM12.8223 14.632L11.2788 12.0595L11.2788 12.0595L12.8223 14.632ZM48.0223 14.632L46.4579 17.1918L46.4683 17.1982L46.4788 17.2045L48.0223 14.632ZM53.3983 20.392L56.0721 19.0316L56.0721 19.0316L53.3983 20.392ZM53.3983 36.584L56.0721 37.9444L56.0721 37.9444L53.3983 36.584ZM48.0223 42.344L46.4788 39.7715L46.4683 39.7778L46.4579 39.7842L48.0223 42.344ZM37.5263 44.456V41.456H34.5263V44.456H37.5263ZM43.4143 31.464L43.9766 34.4108L46.4143 33.9456V31.464H43.4143ZM43.4143 29.224H46.4143V25.5973L42.8519 26.2772L43.4143 29.224ZM18.2623 34.024L17.6999 31.0772L15.2623 31.5424V34.024H18.2623ZM18.2623 36.264H15.2623V39.8907L18.8246 39.2108L18.2623 36.264ZM43.4143 23.144L43.9766 26.0908L46.4143 25.6256V23.144H43.4143ZM43.4143 20.904H46.4143V17.2773L42.8519 17.9572L43.4143 20.904ZM18.2623 25.704L17.6999 22.7572L15.2623 23.2224V25.704H18.2623ZM18.2623 27.944H15.2623V31.5707L18.8246 30.8908L18.2623 27.944ZM37.5263 56.288H57.3023V50.288H37.5263V56.288ZM54.3023 53.288V63.4H60.3023V53.288H54.3023ZM57.3023 60.4H3.60625V66.4H57.3023V60.4ZM6.60625 63.4V53.288H0.60625V63.4H6.60625ZM3.60625 56.288H23.3823V50.288H3.60625V56.288ZM26.3823 53.288V44.456H20.3823V53.288H26.3823ZM23.3823 41.456H21.0783V47.456H23.3823V41.456ZM21.0783 41.456C18.3797 41.456 16.1783 40.8591 14.3657 39.7715L11.2788 44.9165C14.1595 46.6449 17.4622 47.456 21.0783 47.456V41.456ZM14.3657 39.7715C12.5007 38.6525 11.1011 37.1519 10.1201 35.2236L4.77242 37.9444C6.26603 40.8801 8.45047 43.2195 11.2788 44.9165L14.3657 39.7715ZM10.1201 35.2236C9.11689 33.2518 8.59025 31.0154 8.59025 28.456H2.59025C2.59025 31.87 3.30095 35.0522 4.77242 37.9444L10.1201 35.2236ZM8.59025 28.456C8.59025 25.9467 9.11381 23.7302 10.1201 21.7524L4.77242 19.0316C3.30402 21.9178 2.59025 25.0773 2.59025 28.456H8.59025ZM10.1201 21.7524C11.1011 19.8241 12.5007 18.3235 14.3657 17.2045L11.2788 12.0595C8.45047 13.7565 6.26603 16.0959 4.77242 19.0316L10.1201 21.7524ZM14.3657 17.2045C16.1783 16.1169 18.3797 15.52 21.0783 15.52V9.52C17.4622 9.52 14.1595 10.3311 11.2788 12.0595L14.3657 17.2045ZM21.0783 15.52H39.8303V9.52H21.0783V15.52ZM39.8303 15.52C42.5304 15.52 44.6997 16.1174 46.4579 17.1918L49.5866 12.0722C46.7368 10.3306 43.4448 9.52 39.8303 9.52V15.52ZM46.4788 17.2045C48.3438 18.3235 49.7434 19.8241 50.7244 21.7524L56.0721 19.0316C54.5785 16.0959 52.394 13.7565 49.5657 12.0595L46.4788 17.2045ZM50.7244 21.7524C51.7307 23.7302 52.2543 25.9467 52.2543 28.456H58.2543C58.2543 25.0773 57.5405 21.9178 56.0721 19.0316L50.7244 21.7524ZM52.2543 28.456C52.2543 31.0154 51.7276 33.2518 50.7244 35.2236L56.0721 37.9444C57.5436 35.0522 58.2543 31.87 58.2543 28.456H52.2543ZM50.7244 35.2236C49.7434 37.1519 48.3438 38.6525 46.4788 39.7715L49.5657 44.9165C52.394 43.2195 54.5785 40.8801 56.0721 37.9444L50.7244 35.2236ZM46.4579 39.7842C44.6997 40.8586 42.5304 41.456 39.8303 41.456V47.456C43.4448 47.456 46.7368 46.6454 49.5866 44.9038L46.4579 39.7842ZM39.8303 41.456H37.5263V47.456H39.8303V41.456ZM34.5263 44.456V53.288H40.5263V44.456H34.5263ZM46.4143 31.464V29.224H40.4143V31.464H46.4143ZM42.8519 26.2772L17.6999 31.0772L18.8246 36.9708L43.9766 32.1708L42.8519 26.2772ZM15.2623 34.024V36.264H21.2623V34.024H15.2623ZM18.8246 39.2108L43.9766 34.4108L42.8519 28.5172L17.6999 33.3172L18.8246 39.2108ZM46.4143 23.144V20.904H40.4143V23.144H46.4143ZM42.8519 17.9572L17.6999 22.7572L18.8246 28.6508L43.9766 23.8508L42.8519 17.9572ZM15.2623 25.704V27.944H21.2623V25.704H15.2623ZM18.8246 30.8908L43.9766 26.0908L42.8519 20.1972L17.6999 24.9972L18.8246 30.8908ZM121.714 20.648H124.714V17.648H121.714V20.648ZM121.714 30.76V33.76H124.714V30.76H121.714ZM115.378 30.76V27.76H112.378V30.76H115.378ZM115.378 39.656V42.656H118.378V39.656H115.378ZM102.706 39.656H99.7057V42.656H102.706V39.656ZM102.706 12.328V9.328H99.7057V12.328H102.706ZM115.378 12.328H118.378V9.328H115.378V12.328ZM115.378 20.648H112.378V23.648H115.378V20.648ZM65.0098 13.032V10.032H62.0098V13.032H65.0098ZM96.0498 13.032H99.0498V10.032H96.0498V13.032ZM96.0498 22.76V25.76H99.0498V22.76H96.0498ZM77.2978 22.76V19.76H74.2978V22.76H77.2978ZM77.2978 29.48H74.2978V32.48H77.2978V29.48ZM98.0977 29.48H101.098V26.48H98.0977V29.48ZM98.0977 39.208V42.208H101.098V39.208H98.0977ZM65.0098 39.208H62.0098V42.208H65.0098V39.208ZM67.6338 42.664V39.664H64.6338V42.664H67.6338ZM80.1777 42.664H83.1777V39.664H80.1777V42.664ZM80.1777 57.64H77.1777V60.64H80.1777V57.64ZM102.834 57.64V60.64H105.834V57.64H102.834ZM102.834 42.664V39.664H99.8338V42.664H102.834ZM115.378 42.664H118.378V39.664H115.378V42.664ZM115.378 65.32V68.32H118.378V65.32H115.378ZM67.6338 65.32H64.6338V68.32H67.6338V65.32ZM83.6978 50.152L83.2379 47.1874L80.6978 47.5814V50.152H83.6978ZM99.3777 47.72H102.378V44.2188L98.9179 44.7554L99.3777 47.72ZM99.3777 50.28L99.8376 53.2446L102.378 52.8506V50.28H99.3777ZM83.6978 52.712H80.6978V56.2132L84.1576 55.6766L83.6978 52.712ZM118.714 20.648V30.76H124.714V20.648H118.714ZM121.714 27.76H115.378V33.76H121.714V27.76ZM112.378 30.76V39.656H118.378V30.76H112.378ZM115.378 36.656H102.706V42.656H115.378V36.656ZM105.706 39.656V12.328H99.7057V39.656H105.706ZM102.706 15.328H115.378V9.328H102.706V15.328ZM112.378 12.328V20.648H118.378V12.328H112.378ZM115.378 23.648H121.714V17.648H115.378V23.648ZM65.0098 16.032H96.0498V10.032H65.0098V16.032ZM93.0498 13.032V22.76H99.0498V13.032H93.0498ZM96.0498 19.76H77.2978V25.76H96.0498V19.76ZM74.2978 22.76V29.48H80.2978V22.76H74.2978ZM77.2978 32.48H98.0977V26.48H77.2978V32.48ZM95.0977 29.48V39.208H101.098V29.48H95.0977ZM98.0977 36.208H65.0098V42.208H98.0977V36.208ZM68.0098 39.208V13.032H62.0098V39.208H68.0098ZM67.6338 45.664H80.1777V39.664H67.6338V45.664ZM77.1777 42.664V57.64H83.1777V42.664H77.1777ZM80.1777 60.64H102.834V54.64H80.1777V60.64ZM105.834 57.64V42.664H99.8338V57.64H105.834ZM102.834 45.664H115.378V39.664H102.834V45.664ZM112.378 42.664V65.32H118.378V42.664H112.378ZM115.378 62.32H67.6338V68.32H115.378V62.32ZM70.6338 65.32V42.664H64.6338V65.32H70.6338ZM84.1576 53.1166L99.8376 50.6846L98.9179 44.7554L83.2379 47.1874L84.1576 53.1166ZM96.3777 47.72V50.28H102.378V47.72H96.3777ZM98.9179 47.3154L83.2379 49.7474L84.1576 55.6766L99.8376 53.2446L98.9179 47.3154ZM86.6978 52.712V50.152H80.6978V52.712H86.6978ZM137.406 62.312V65.312H140.406V62.312H137.406ZM125.822 62.312H122.822V65.312H125.822V62.312ZM125.822 52.328V49.328H122.822V52.328H125.822ZM137.406 52.328H140.406V49.328H137.406V52.328ZM138.43 15.336L141.425 15.5142L141.614 12.336H138.43V15.336ZM136.446 48.68V51.68H139.273L139.441 48.8582L136.446 48.68ZM126.718 48.68L123.722 48.8295L123.864 51.68H126.718V48.68ZM125.054 15.336V12.336H121.901L122.058 15.4855L125.054 15.336ZM137.406 59.312H125.822V65.312H137.406V59.312ZM128.822 62.312V52.328H122.822V62.312H128.822ZM125.822 55.328H137.406V49.328H125.822V55.328ZM134.406 52.328V62.312H140.406V52.328H134.406ZM135.436 15.1578L133.452 48.5018L139.441 48.8582L141.425 15.5142L135.436 15.1578ZM136.446 45.68H126.718V51.68H136.446V45.68ZM129.715 48.5305L128.051 15.1865L122.058 15.4855L123.722 48.8295L129.715 48.5305ZM125.054 18.336H138.43V12.336H125.054V18.336Z" fill="black" mask="url(#path-3-outside-2_99_322)"/>
</svg>
