<svg width="1080" height="740" viewBox="0 0 1080 740" fill="none" xmlns="http://www.w3.org/2000/svg">
<mask id="path-2-inside-1_40_949" fill="white">
<path fill-rule="evenodd" clip-rule="evenodd" d="M199 510C218.33 510 234 494.33 234 475C234 455.67 218.33 440 199 440C179.67 440 164 455.67 164 475C164 483.867 167.297 491.964 172.732 498.131C171.039 499.923 170 502.34 170 505C170 510.523 174.477 515 180 515C184.237 515 187.859 512.364 189.316 508.643C192.391 509.527 195.64 510 199 510Z"/>
</mask>
<path fill-rule="evenodd" clip-rule="evenodd" d="M199 510C218.33 510 234 494.33 234 475C234 455.67 218.33 440 199 440C179.67 440 164 455.67 164 475C164 483.867 167.297 491.964 172.732 498.131C171.039 499.923 170 502.34 170 505C170 510.523 174.477 515 180 515C184.237 515 187.859 512.364 189.316 508.643C192.391 509.527 195.64 510 199 510Z" fill="#FD780F"/>
<path d="M172.732 498.131L174.549 499.849L176.117 498.19L174.608 496.478L172.732 498.131ZM189.316 508.643L190.006 506.24L187.818 505.611L186.988 507.732L189.316 508.643ZM231.5 475C231.5 492.949 216.949 507.5 199 507.5V512.5C219.711 512.5 236.5 495.711 236.5 475H231.5ZM199 442.5C216.949 442.5 231.5 457.051 231.5 475H236.5C236.5 454.289 219.711 437.5 199 437.5V442.5ZM166.5 475C166.5 457.051 181.051 442.5 199 442.5V437.5C178.289 437.5 161.5 454.289 161.5 475H166.5ZM174.608 496.478C169.56 490.75 166.5 483.235 166.5 475H161.5C161.5 484.498 165.035 493.177 170.857 499.784L174.608 496.478ZM172.5 505C172.5 503.004 173.277 501.194 174.549 499.849L170.916 496.413C168.801 498.651 167.5 501.676 167.5 505H172.5ZM180 512.5C175.858 512.5 172.5 509.142 172.5 505H167.5C167.5 511.904 173.096 517.5 180 517.5V512.5ZM186.988 507.732C185.894 510.527 183.174 512.5 180 512.5V517.5C185.301 517.5 189.825 514.201 191.644 509.554L186.988 507.732ZM199 507.5C195.876 507.5 192.859 507.06 190.006 506.24L188.625 511.046C191.923 511.993 195.404 512.5 199 512.5V507.5Z" fill="#333333" mask="url(#path-2-inside-1_40_949)"/>
<circle cx="167" cy="517" r="4.75" fill="#FD780F" stroke="#333333" stroke-width="2.5"/>
<mask id="path-5-outside-2_40_949" maskUnits="userSpaceOnUse" x="185.681" y="456" width="31" height="36" fill="black">
<rect fill="white" x="185.681" y="456" width="31" height="36"/>
<path d="M188.087 472.517C191.393 472.479 194.607 470.429 196.074 467.419C196.745 466.04 197.064 464.513 197.595 463.068C198.125 461.623 198.937 460.195 200.263 459.442C201.588 458.689 203.509 458.876 204.332 460.173C204.895 461.068 204.824 462.216 204.684 463.271C204.386 465.502 203.867 467.705 203.141 469.831C205.403 469.336 207.779 469.353 210.036 469.886C210.728 470.05 211.443 470.281 211.946 470.792C213.023 471.896 212.612 473.874 211.508 474.945C210.404 476.017 208.834 476.407 207.346 476.764C208.764 476.445 210.263 476.127 211.654 476.566C213.045 477.006 214.219 478.5 213.791 479.912C213.521 480.802 212.714 481.406 211.908 481.846C210.599 482.549 209.148 482.977 207.676 483.093C208.613 482.856 209.587 482.62 210.539 482.785C211.491 482.95 212.433 483.62 212.606 484.581C212.79 485.609 212.076 486.587 211.253 487.213C209.121 488.834 206.264 488.955 203.601 489.01C198.201 489.119 192.594 489.191 187.681 486.916"/>
</mask>
<path d="M188.087 472.517C191.393 472.479 194.607 470.429 196.074 467.419C196.745 466.04 197.064 464.513 197.595 463.068C198.125 461.623 198.937 460.195 200.263 459.442C201.588 458.689 203.509 458.876 204.332 460.173C204.895 461.068 204.824 462.216 204.684 463.271C204.386 465.502 203.867 467.705 203.141 469.831C205.403 469.336 207.779 469.353 210.036 469.886C210.728 470.05 211.443 470.281 211.946 470.792C213.023 471.896 212.612 473.874 211.508 474.945C210.404 476.017 208.834 476.407 207.346 476.764C208.764 476.445 210.263 476.127 211.654 476.566C213.045 477.006 214.219 478.5 213.791 479.912C213.521 480.802 212.714 481.406 211.908 481.846C210.599 482.549 209.148 482.977 207.676 483.093C208.613 482.856 209.587 482.62 210.539 482.785C211.491 482.95 212.433 483.62 212.606 484.581C212.79 485.609 212.076 486.587 211.253 487.213C209.121 488.834 206.264 488.955 203.601 489.01C198.201 489.119 192.594 489.191 187.681 486.916" fill="white"/>
<path d="M196.074 467.419L198.321 468.514L198.322 468.513L196.074 467.419ZM204.332 460.173L206.449 458.842L206.443 458.833L204.332 460.173ZM204.684 463.271L207.162 463.602L207.162 463.602L204.684 463.271ZM203.141 469.831L200.775 469.024L199.344 473.22L203.675 472.273L203.141 469.831ZM210.036 469.886L210.614 467.453L210.61 467.452L210.036 469.886ZM211.946 470.792L213.736 469.047L213.727 469.038L211.946 470.792ZM207.346 476.764L206.763 474.333L207.894 479.203L207.346 476.764ZM213.791 479.912L216.183 480.639L216.184 480.636L213.791 479.912ZM211.908 481.846L213.091 484.048L213.098 484.044L213.105 484.041L211.908 481.846ZM207.676 483.093L207.065 480.669L207.872 485.585L207.676 483.093ZM212.606 484.581L215.067 484.141L215.067 484.138L212.606 484.581ZM211.253 487.213L212.766 489.203L212.768 489.202L211.253 487.213ZM203.601 489.01L203.652 491.509L203.653 491.509L203.601 489.01ZM188.116 475.017C192.381 474.967 196.447 472.363 198.321 468.514L193.826 466.324C192.768 468.496 190.405 469.99 188.057 470.017L188.116 475.017ZM198.322 468.513C198.742 467.649 199.035 466.776 199.273 466.015C199.528 465.2 199.704 464.576 199.942 463.929L195.248 462.206C194.955 463.005 194.706 463.866 194.501 464.521C194.279 465.23 194.077 465.81 193.826 466.325L198.322 468.513ZM199.942 463.929C200.407 462.661 200.952 461.925 201.497 461.616L199.028 457.268C196.921 458.464 195.843 460.585 195.248 462.206L199.942 463.929ZM201.497 461.616C201.567 461.576 201.665 461.538 201.784 461.517C201.902 461.496 202.015 461.496 202.108 461.51C202.303 461.54 202.276 461.599 202.221 461.512L206.443 458.833C205.565 457.45 204.166 456.767 202.864 456.568C201.576 456.37 200.194 456.606 199.028 457.268L201.497 461.616ZM202.215 461.503C202.215 461.503 202.215 461.503 202.216 461.503C202.216 461.504 202.216 461.504 202.217 461.505C202.217 461.507 202.219 461.51 202.221 461.514C202.225 461.523 202.231 461.538 202.238 461.563C202.252 461.614 202.269 461.699 202.277 461.827C202.295 462.103 202.27 462.455 202.206 462.94L207.162 463.602C207.296 462.593 207.543 460.584 206.449 458.842L202.215 461.503ZM202.206 462.94C201.93 465.007 201.448 467.051 200.775 469.024L205.508 470.638C206.285 468.358 206.842 465.996 207.162 463.602L202.206 462.94ZM203.675 472.273C205.574 471.858 207.571 471.872 209.461 472.319L210.61 467.452C207.987 466.833 205.233 466.814 202.608 467.388L203.675 472.273ZM209.457 472.318C209.749 472.387 209.937 472.446 210.068 472.503C210.191 472.556 210.198 472.58 210.165 472.546L213.727 469.038C212.687 467.982 211.348 467.628 210.614 467.453L209.457 472.318ZM210.156 472.538C210.018 472.396 210.099 472.318 210.068 472.538C210.055 472.638 210.019 472.758 209.958 472.88C209.897 473.002 209.826 473.094 209.767 473.151L213.249 476.739C214.212 475.804 214.841 474.526 215.021 473.224C215.203 471.911 214.951 470.292 213.736 469.047L210.156 472.538ZM209.767 473.151C209.236 473.666 208.38 473.945 206.763 474.333L207.93 479.195C209.289 478.869 211.571 478.367 213.249 476.739L209.767 473.151ZM207.894 479.203C209.429 478.858 210.257 478.746 210.9 478.95L212.407 474.182C210.269 473.507 208.099 474.032 206.798 474.325L207.894 479.203ZM210.9 478.95C210.961 478.969 211.046 479.009 211.136 479.077C211.226 479.144 211.296 479.22 211.341 479.286C211.387 479.353 211.389 479.383 211.385 479.363C211.38 479.335 211.374 479.267 211.399 479.187L216.184 480.636C216.67 479.032 216.196 477.527 215.468 476.462C214.747 475.409 213.651 474.575 212.407 474.182L210.9 478.95ZM211.399 479.185C211.423 479.106 211.448 479.123 211.335 479.229C211.214 479.343 211.015 479.485 210.712 479.65L213.105 484.041C214.008 483.549 215.607 482.534 216.183 480.639L211.399 479.185ZM210.725 479.643C209.718 480.184 208.603 480.512 207.481 480.6L207.872 485.585C209.694 485.442 211.48 484.913 213.091 484.048L210.725 479.643ZM208.288 485.517C209.306 485.26 209.767 485.188 210.113 485.248L210.965 480.322C209.407 480.052 207.919 480.453 207.065 480.669L208.288 485.517ZM210.113 485.248C210.141 485.253 210.178 485.264 210.215 485.281C210.252 485.297 210.274 485.313 210.28 485.318C210.286 485.323 210.265 485.307 210.234 485.259C210.202 485.209 210.165 485.129 210.146 485.025L215.067 484.138C214.643 481.788 212.546 480.595 210.965 480.322L210.113 485.248ZM210.145 485.022C210.108 484.812 210.188 484.718 210.138 484.805C210.114 484.847 210.069 484.912 209.996 484.991C209.924 485.07 209.836 485.15 209.739 485.224L212.768 489.202C213.82 488.401 215.506 486.592 215.067 484.141L210.145 485.022ZM209.741 485.223C208.357 486.274 206.353 486.452 203.55 486.51L203.653 491.509C206.175 491.457 209.885 491.393 212.766 489.203L209.741 485.223ZM203.551 486.51C198.05 486.622 193.036 486.64 188.731 484.648L186.631 489.185C192.153 491.741 198.352 491.617 203.652 491.509L203.551 486.51Z" fill="#333333" mask="url(#path-5-outside-2_40_949)"/>
<path d="M187.481 468.073H186.61C184.616 468.073 183 469.713 183 471.737V487.493C183 489.517 184.616 491.158 186.61 491.158H187.481C189.474 491.158 191.09 489.517 191.09 487.493V471.737C191.09 469.713 189.474 468.073 187.481 468.073Z" fill="white" stroke="#333333" stroke-width="2.5" stroke-linecap="round" stroke-linejoin="round"/>
</svg>
