<svg width="1080" height="740" viewBox="0 0 1080 740" fill="none" xmlns="http://www.w3.org/2000/svg">
<g clip-path="url(#clip0_40_910)">
<path d="M111.762 668.006C114.196 667.988 116.559 667.962 118.878 668.015C121.251 668.076 123.596 668.156 125.969 668.182C128.288 668.209 130.616 668.323 133.041 668.226C133.059 669.638 133.164 673.767 133.2 675.734C133.2 675.937 133.12 676.122 133.129 676.272C133.147 677.393 133.288 678.637 133.799 679.528C134.487 680.745 135.801 681.107 136.851 681.707C137.9 682.307 139.108 683.586 138.941 685.094C137.062 685.227 135.096 685.324 133.209 685.403C131.321 685.483 129.434 685.35 127.547 685.386C125.66 685.421 123.781 685.73 121.894 685.712C120.007 685.694 118.138 685.262 116.25 685.2C115.386 685.174 114.566 685.174 113.834 684.547C112.732 683.603 112.353 681.786 112.106 680.075C112.079 679.907 112.141 679.731 112.123 679.536C111.982 678.098 111.912 675.937 111.929 673.793C111.947 671.544 111.894 669.303 111.771 668.023L111.762 668.006Z" fill="#333333"/>
<path d="M111.762 669.329C118.843 669.285 125.96 669.814 133.041 669.55L131.718 668.226C131.745 669.664 131.78 671.094 131.806 672.532C131.842 674.102 131.7 675.752 131.859 677.304C132.044 679.157 132.662 680.78 134.267 681.839C135.563 682.695 137.697 683.162 137.609 685.094L138.932 683.771C135.272 684.018 131.648 684.027 127.979 684.053C126.092 684.062 124.213 684.353 122.326 684.38C120.554 684.406 118.816 684.053 117.053 683.912C116.418 683.859 115.633 683.974 115.042 683.736C114.381 683.462 114.072 682.712 113.869 682.077C113.428 680.701 113.393 679.298 113.322 677.869C113.155 674.587 113.375 671.288 113.084 668.006C112.934 666.321 110.289 666.303 110.439 668.006C110.756 671.632 110.465 675.275 110.739 678.901C110.959 681.777 111.409 685.844 114.936 686.4C116.682 686.682 118.508 686.744 120.272 686.921C122.423 687.132 124.522 686.841 126.674 686.726C128.702 686.621 130.739 686.779 132.767 686.726C134.822 686.674 136.886 686.541 138.932 686.409C139.672 686.356 140.219 685.844 140.254 685.086C140.334 683.242 139.223 681.671 137.732 680.692C137.053 680.251 136.26 680.013 135.598 679.536C134.84 678.989 134.602 678.187 134.496 677.287C134.32 675.796 134.487 674.181 134.452 672.664C134.417 671.182 134.381 669.7 134.355 668.209C134.346 667.512 133.755 666.859 133.032 666.885C125.96 667.15 118.843 666.621 111.753 666.665C110.051 666.674 110.051 669.32 111.753 669.312L111.762 669.329Z" fill="#333333"/>
<path d="M135.29 631.306C135.202 634.693 134.955 634.685 134.867 638.072C134.779 641.46 134.937 641.46 134.849 644.848C134.761 648.235 134.452 648.227 134.364 651.614C134.276 655.002 134.329 655.002 134.241 658.39C134.153 661.777 134.347 661.777 134.258 665.165C134.17 668.553 134.311 668.553 134.223 671.949C134.135 675.346 133.932 675.328 133.844 678.725C133.817 679.607 133.244 680.225 132.521 680.233C129.223 680.233 129.223 680.26 125.934 680.269C122.635 680.269 122.635 680.313 119.337 680.322C116.039 680.322 116.039 680.269 112.741 680.278C112.009 680.278 111.559 679.625 111.559 678.725C111.559 675.708 111.418 675.708 111.418 672.69C111.418 669.673 111.339 669.673 111.339 666.656C111.339 663.639 111.621 663.639 111.612 660.622C111.603 657.605 111.418 657.605 111.409 654.587C111.409 651.57 111.101 651.57 111.092 648.553C111.083 645.536 111.498 645.536 111.489 642.519C111.489 639.501 111.11 639.501 111.11 636.475C111.11 633.458 111.454 633.458 111.445 630.432" fill="#AFAFAF"/>
<path d="M133.967 631.306C133.914 633.088 133.694 634.852 133.597 636.625C133.491 638.531 133.526 640.428 133.544 642.333C133.588 646.277 133.032 650.176 132.979 654.111C132.874 661.469 133.165 668.853 132.627 676.193C132.6 676.599 132.574 677.013 132.556 677.419C132.538 677.728 132.688 678.681 132.45 678.892C132.397 678.937 131.374 678.884 131.057 678.892C130.554 678.892 130.043 678.892 129.54 678.901C127.574 678.919 125.607 678.91 123.64 678.937C121.771 678.954 119.901 678.981 118.032 678.972C117.256 678.972 116.48 678.954 115.704 678.945C115.298 678.945 114.892 678.937 114.478 678.928C114.275 678.928 114.072 678.928 113.861 678.928C113.623 678.928 113.376 678.928 113.138 678.928C112.697 678.901 112.591 678.901 112.811 678.945C112.97 679.095 112.864 678.257 112.864 678.284C112.864 678.046 112.864 677.807 112.864 677.569C112.864 677.119 112.847 676.678 112.829 676.228C112.794 675.355 112.75 674.49 112.741 673.617C112.714 671.764 112.688 669.911 112.661 668.068C112.635 666.224 112.785 664.248 112.891 662.316C112.996 660.384 112.855 658.469 112.767 656.546C112.67 654.393 112.564 652.258 112.45 650.106C112.335 647.953 112.697 645.8 112.785 643.613C112.873 641.46 112.494 639.378 112.432 637.234C112.361 634.94 112.75 632.691 112.758 630.406C112.758 628.703 110.122 628.703 110.113 630.406C110.113 632.497 109.76 634.561 109.778 636.652C109.795 638.743 110.166 640.666 110.157 642.695C110.148 644.786 109.734 646.841 109.76 648.941C109.786 650.961 110.06 652.955 110.077 654.976C110.095 656.987 110.289 658.998 110.271 661.01C110.254 663.021 109.989 665.024 109.998 667.044C109.998 669.056 110.069 671.067 110.077 673.079C110.095 675.028 110.051 677.084 110.245 679.025C110.342 680.057 110.871 681.036 111.876 681.416C112.882 681.795 114.187 681.574 115.245 681.592C117.282 681.618 119.311 681.636 121.348 681.618C123.402 681.601 125.466 681.583 127.521 681.566C128.341 681.566 129.17 681.557 129.99 681.548C131.022 681.548 132.247 681.707 133.244 681.416C135.634 680.719 135.149 677.666 135.308 675.743C135.475 673.714 135.563 671.694 135.563 669.664C135.554 665.774 135.475 661.866 135.563 657.966C135.616 655.708 135.607 653.449 135.687 651.191C135.757 649.065 136.101 646.965 136.163 644.83C136.225 642.572 136.119 640.313 136.181 638.055C136.242 635.796 136.542 633.555 136.604 631.288C136.657 629.585 134.011 629.585 133.958 631.288L133.967 631.306Z" fill="#333333"/>
<path d="M86.9996 681.354C88.049 680.763 89.4865 680.595 90.1831 679.386C90.6946 678.495 90.6241 677.234 90.6505 676.113C90.6505 675.963 90.7652 675.778 90.774 675.584C90.8181 673.617 90.9415 669.47 90.9768 668.059C93.4107 668.182 95.7477 668.015 98.067 668.006C100.439 667.997 102.785 667.926 105.157 667.882C107.476 667.838 109.787 668.076 112.212 668.103C112.08 669.382 112.141 671.535 112.141 673.793C112.141 675.928 112 678.09 111.85 679.519C111.833 679.713 111.727 679.872 111.709 680.031C111.445 681.751 111.357 683.762 110.254 684.706C109.522 685.333 108.543 685.377 107.679 685.394C105.792 685.447 103.905 685.474 102.027 685.474C100.148 685.474 98.2521 685.483 96.3738 685.439C94.4866 685.394 92.6082 685.209 90.7299 685.121C88.8515 685.024 87.0702 684.794 85.1918 684.653C85.0419 683.145 85.9678 681.945 87.0172 681.354H86.9996Z" fill="#333333"/>
<path d="M87.6696 682.492C89.0188 681.786 90.518 681.477 91.3293 680.048C92.0789 678.725 91.9554 677.04 92.0965 675.575C92.3434 673.096 92.2376 670.538 92.2993 668.05L90.9765 669.373C94.504 669.523 98.0755 669.338 101.612 669.267C105.148 669.197 108.667 669.356 112.212 669.417L110.889 668.094C110.598 671.332 110.889 674.614 110.668 677.86C110.571 679.236 110.36 680.63 110.086 681.98C109.981 682.501 109.884 683.162 109.513 683.568C109.011 684.106 108.129 684.045 107.467 684.071C103.772 684.177 100.069 684.212 96.3735 684.115C92.6785 684.018 88.913 683.621 85.1915 683.33L86.5143 684.653C86.4702 683.7 86.8759 682.995 87.6784 682.492C89.1246 681.601 87.8018 679.307 86.3468 680.207C84.7682 681.177 83.7806 682.774 83.8687 684.653C83.904 685.412 84.4508 685.915 85.1915 685.977C89.3539 686.303 93.5075 686.735 97.6787 686.788C99.707 686.815 101.744 686.806 103.772 686.788C105.624 686.771 107.741 686.982 109.54 686.506C111.136 686.082 112.079 684.856 112.503 683.321C112.891 681.927 113.111 680.348 113.244 678.901C113.57 675.302 113.226 671.685 113.543 668.094C113.605 667.371 112.882 666.78 112.221 666.771C108.675 666.709 105.166 666.55 101.621 666.621C98.0843 666.691 94.5128 666.877 90.9854 666.727C90.2622 666.691 89.6802 667.362 89.6626 668.05C89.6097 670.247 89.5479 672.452 89.4862 674.649C89.4774 675.152 89.3892 675.611 89.3451 676.105C89.2834 676.775 89.398 677.472 89.2481 678.134C88.9571 679.466 87.3962 679.651 86.3468 680.198C84.8388 680.983 86.1704 683.268 87.6784 682.483L87.6696 682.492Z" fill="#333333"/>
<path d="M112.962 645.712C112.909 649.021 112.821 649.021 112.768 652.32C112.715 655.628 112.918 655.628 112.865 658.937C112.812 662.245 112.821 662.245 112.768 665.544C112.715 668.844 112.477 668.844 112.424 672.152C112.371 675.461 112.618 675.461 112.556 678.769C112.538 679.669 111.753 680.339 111.022 680.33C107.723 680.277 107.723 680.172 104.434 680.119C101.145 680.066 101.127 680.322 97.8289 680.269C94.5307 680.216 94.5395 679.907 91.2414 679.854C90.5271 679.845 90.0509 679.316 90.042 678.434C89.9979 675.169 89.7334 675.169 89.6893 671.905C89.6452 668.641 89.751 668.641 89.7069 665.368C89.6628 662.104 89.7334 662.104 89.6893 658.831C89.6452 655.567 89.3718 655.567 89.3277 652.294C89.2836 649.029 89.46 649.021 89.4159 645.756C89.3718 642.483 89.4071 642.483 89.363 639.219C89.3189 635.955 89.2219 635.955 89.1778 632.682C89.169 631.764 89.9098 630.979 90.6593 630.988C93.737 631.014 93.737 630.962 96.8236 630.988C99.9101 631.014 99.9101 631.182 102.988 631.209C106.074 631.235 106.074 631.217 109.161 631.244C112.247 631.27 112.247 631.323 115.334 631.35" fill="#AFAFAF"/>
<path d="M111.638 645.712C111.603 647.777 111.488 649.841 111.444 651.905C111.4 653.97 111.541 655.831 111.541 657.799C111.55 661.919 111.409 666.021 111.153 670.132C111.03 672.179 111.1 674.208 111.189 676.255C111.215 676.793 111.497 678.751 111.056 678.998C110.73 679.184 109.795 678.998 109.398 678.981C108.94 678.963 108.49 678.945 108.031 678.928C105.906 678.831 103.781 678.734 101.656 678.848C99.5304 678.963 97.5726 679.025 95.5267 678.848C94.7595 678.787 94.0011 678.681 93.2427 678.628C92.6607 678.584 91.9904 678.663 91.426 678.548C91.0028 678.46 91.426 678.787 91.3467 678.451C91.2585 678.063 91.329 677.569 91.3114 677.163C91.2232 675.152 91.0028 673.158 90.9851 671.138C90.9587 667.238 91.0468 663.339 91.0028 659.448C90.9851 657.437 90.7382 655.452 90.6588 653.449C90.5795 651.464 90.6941 649.497 90.7206 647.521C90.7823 643.419 90.6941 639.307 90.5442 635.205C90.5266 634.632 90.5089 634.058 90.5001 633.485C90.5001 633.37 90.4295 632.841 90.4913 632.7C90.6941 632.241 90.5177 632.4 91.0733 632.329C92.1139 632.206 93.2427 632.329 94.2921 632.329C96.5408 632.311 98.772 632.408 101.021 632.505C105.774 632.717 110.562 632.647 115.324 632.691C117.026 632.708 117.026 630.062 115.324 630.044C110.651 630 105.95 630.044 101.285 629.868C99.1159 629.788 96.9641 629.674 94.7859 629.674C93.8953 629.674 93.0134 629.691 92.1227 629.691C90.7911 629.691 89.5653 629.585 88.6041 630.679C87.7311 631.659 87.8457 632.92 87.8721 634.146C87.8986 635.09 87.9427 636.034 87.978 636.978C88.0573 639.157 88.0485 641.336 88.0573 643.516C88.0838 647.891 87.9339 652.223 88.269 656.59C88.5953 660.913 88.3924 665.333 88.3484 669.664C88.3219 671.905 88.4718 674.093 88.6217 676.325C88.7011 677.49 88.4718 678.91 89.0803 679.96C89.8034 681.222 91.0821 681.177 92.3608 681.239C94.5655 681.336 96.7349 681.645 98.9571 681.627C101.162 681.61 103.349 681.433 105.553 681.495C106.453 681.521 107.352 681.566 108.261 681.601C109.398 681.654 110.765 681.892 111.85 681.548C114.372 680.754 113.922 677.666 113.808 675.602C113.675 673.167 113.764 670.758 113.958 668.332C114.152 665.897 114.116 663.436 114.152 660.992C114.187 658.487 114.081 655.99 114.081 653.485C114.081 650.9 114.24 648.315 114.293 645.739C114.319 644.036 111.674 644.036 111.647 645.739L111.638 645.712Z" fill="#333333"/>
<path d="M85.6328 597.314C85.8092 596.211 85.8445 595.082 86.1355 593.979C86.5941 592.259 87.0438 590.477 87.8022 588.871C88.5694 587.248 89.5395 585.677 90.7917 584.389C92.9876 582.131 95.4479 581.76 97.9172 581.584C100.395 581.407 103.014 581.628 105.73 581.055C107.909 580.596 110.149 580.366 112.397 580.411C114.655 580.446 116.904 580.631 119.055 581.213C120.74 581.663 123.324 582.343 125.59 583.428C127.971 584.575 129.99 586.18 130.458 588.068C130.969 590.133 131.322 592.232 131.754 594.314C132.186 596.396 132.874 598.434 133.227 600.525C133.58 602.616 133.73 604.751 134.003 606.859C134.276 608.968 134.62 611.076 134.805 613.194C134.999 615.311 134.894 617.446 135.008 619.572C135.114 621.698 135.379 623.816 135.405 625.942C135.432 628.121 135.387 630.071 134.85 631.606C134.285 633.22 133.086 634.402 130.555 634.932C128.729 635.311 126.816 635.54 124.867 635.628C122.971 635.717 121.04 635.77 119.135 635.743C117.23 635.717 115.255 635.646 113.411 635.655C111.321 635.664 109.223 635.373 107.133 635.346C105.043 635.311 102.944 635.364 100.854 635.284C98.7637 635.205 96.6737 635.037 94.5837 634.923C92.0969 634.923 89.6012 634.076 87.5641 632.585C85.4829 631.067 83.9749 629.012 83.7368 626.392C83.4635 623.41 82.9343 620.313 83.0402 617.314C83.1019 615.514 83.7721 613.979 84.0719 612.223C84.4864 609.735 84.7069 607.248 84.8744 604.769C85.042 602.289 85.236 599.819 85.6328 597.331V597.314Z" fill="#FCFCFC"/>
<path d="M86.911 597.667C87.6606 592.506 89.1863 584.972 95.0771 583.331C97.705 582.598 100.501 582.907 103.19 582.713C104.725 582.598 106.206 582.263 107.732 582.025C109.346 581.778 110.986 581.699 112.617 581.725C115.545 581.787 118.296 582.298 121.092 583.137C123.579 583.886 126.313 584.822 128.173 586.727C129.108 587.689 129.302 588.774 129.575 590.062C129.902 591.588 130.175 593.123 130.493 594.649C131.145 597.755 132.009 600.71 132.362 603.886C132.706 606.983 133.235 610.071 133.5 613.176C133.764 616.281 133.667 619.413 133.914 622.528C134.126 625.236 134.479 628.306 133.694 630.944C132.979 633.344 130.396 633.679 128.235 633.988C125.246 634.411 122.168 634.437 119.152 634.402C116.127 634.358 113.094 634.376 110.078 634.164C106.938 633.943 103.799 634.067 100.659 633.943C99.1954 633.882 97.7315 633.785 96.2676 633.688C94.6979 633.591 93.1458 633.591 91.629 633.132C88.9834 632.329 86.232 630.388 85.359 627.653C84.8916 626.206 84.8916 624.592 84.724 623.092C84.5212 621.31 84.336 619.51 84.3713 617.711C84.4066 616.184 84.8916 614.782 85.2179 613.308C85.5971 611.597 85.7734 609.815 85.9498 608.077C86.2849 604.61 86.3907 601.125 86.9287 597.684C87.1844 596.017 84.6358 595.302 84.3801 596.979C83.851 600.384 83.6834 603.816 83.3836 607.248C83.2337 608.915 83.075 610.6 82.7487 612.241C82.4224 613.882 81.8933 615.32 81.761 616.925C81.4964 620.137 82.0784 623.542 82.4753 626.727C82.828 629.532 84.4242 631.835 86.6553 633.52C89.3097 635.531 92.2022 636.087 95.4475 636.29C98.7985 636.502 102.132 636.643 105.492 636.652C108.852 636.661 112.406 636.934 115.863 636.996C119.161 637.058 122.45 637.128 125.739 636.908C128.553 636.714 132.036 636.555 134.32 634.693C136.331 633.052 136.692 630.362 136.763 627.918C136.86 624.557 136.375 621.231 136.322 617.878C136.26 614.296 135.898 610.838 135.422 607.292C134.981 603.992 134.77 600.693 133.941 597.455C133.535 595.876 133.138 594.314 132.821 592.717C132.477 590.979 132.256 589.144 131.701 587.459C130.81 584.76 128.085 583.066 125.616 581.981C123.041 580.852 120.192 579.961 117.406 579.511C113.57 578.884 109.645 578.981 105.827 579.714C102.361 580.375 98.8162 579.934 95.3593 580.587C91.9024 581.24 89.3626 583.542 87.5989 586.507C85.6764 589.736 84.9269 593.317 84.3889 596.987C84.142 598.655 86.6906 599.369 86.9375 597.693L86.911 597.667Z" fill="#333333"/>
<path d="M98.3311 606.339C98.4105 608.306 98.287 610.274 98.3752 612.241C98.4634 614.208 98.6133 616.167 98.6839 618.134C98.7544 620.101 98.7632 622.069 98.8073 624.027C98.8514 625.995 99.0807 627.953 99.0895 629.921C99.0895 631.888 98.9749 633.855 98.922 635.823C98.8602 638.152 96.1088 638.972 93.1281 639.016C90.3855 639.06 87.3872 638.584 85.9586 638.522C85.4207 638.496 84.9004 638.213 84.5123 637.834C84.1949 637.516 84.0009 637.119 83.9215 636.678C83.6481 635.117 83.41 633.538 83.1366 631.976C82.8633 630.415 82.6693 628.703 82.3959 627.133C79.8826 627.018 77.4045 626.136 75.5174 624.477C73.6302 622.819 72.3074 620.596 71.5137 618.258C70.9581 616.608 70.3761 614.755 70.2879 612.832C70.1997 610.997 70.8082 609.144 71.161 607.345C71.5402 605.465 71.743 603.525 72.6249 601.998C73.5332 600.428 74.759 599.043 75.9318 597.658C77.1047 596.273 78.5421 595.126 79.7856 593.82C81.5934 591.923 83.2072 589.938 85.0326 588.209C86.8581 586.48 88.7894 584.839 91.2409 583.772C94.2745 582.448 97.9431 581.769 98.0489 586.251C98.1018 588.483 98.1636 590.724 98.1812 592.956C98.1988 595.188 97.705 597.428 97.7314 599.661C97.7579 601.893 98.2253 604.116 98.3223 606.348L98.3311 606.339Z" fill="#AFAFAF"/>
<path d="M97.0087 606.339C97.0704 608.236 96.9734 610.132 97.0439 612.029C97.1145 613.926 97.2644 615.814 97.3438 617.711C97.5025 621.495 97.6348 625.298 97.7494 629.082C97.8023 630.909 97.7053 632.735 97.6348 634.561C97.5819 635.99 97.5819 636.749 96.1092 637.261C93.199 638.266 89.7686 637.525 86.7879 637.261C86.0295 637.19 85.4387 637.181 85.1917 636.325C84.9007 635.302 84.8302 634.164 84.6538 633.123C84.3011 631.014 84.0189 628.888 83.6573 626.789C83.5603 626.198 82.9254 625.854 82.3786 625.818C79.6889 625.651 77.2462 624.565 75.4295 622.554C73.6041 620.534 72.6252 617.914 71.9903 615.302C71.6552 613.961 71.4876 612.603 71.6816 611.218C71.8933 609.718 72.3342 608.244 72.6076 606.762C72.8369 605.501 73.0221 604.151 73.5953 602.986C74.2214 601.698 75.1914 600.578 76.1086 599.493C77.9781 597.279 80.1739 595.399 82.114 593.256C84.0541 591.112 85.8267 589.127 87.9872 587.354C89.7157 585.942 91.7263 584.76 93.9222 584.257C95.4742 583.895 96.5501 584.213 96.7088 585.933C96.8676 587.556 96.797 589.233 96.8235 590.865C96.8499 592.497 96.8323 594.208 96.6647 595.893C96.4972 597.578 96.3385 599.228 96.4619 600.922C96.5942 602.739 96.9029 604.539 96.991 606.357C97.0792 608.05 99.7248 608.059 99.6366 606.357C99.5484 604.654 99.2574 602.881 99.1163 601.134C98.9752 599.369 99.1251 597.649 99.3015 595.902C99.4867 594.085 99.4867 592.285 99.4514 590.459C99.425 588.809 99.4867 587.098 99.2927 585.457C99.0281 583.278 97.6789 581.672 95.4301 581.487C93.1814 581.302 90.7651 582.396 88.8956 583.498C86.2235 585.069 83.9395 587.309 81.8583 589.586C80.6766 590.882 79.539 592.223 78.2956 593.45C77.1403 594.588 75.9146 595.646 74.8563 596.882C73.7981 598.117 72.7575 599.334 71.8756 600.684C71.0202 601.99 70.5617 603.419 70.253 604.936C69.6004 608.218 68.5863 611.465 69.1771 614.826C69.7592 618.178 71.0996 621.566 73.3219 624.168C75.6235 626.868 78.8776 628.262 82.3786 628.474C81.9553 628.147 81.532 627.83 81.0999 627.503C81.4615 629.612 81.7437 631.729 82.0964 633.838C82.4051 635.708 82.3698 638.002 84.0718 639.201C85.3593 640.11 87.3258 639.978 88.8426 640.128C90.7563 640.313 92.7052 640.481 94.6188 640.26C96.1356 640.084 97.7318 639.722 98.9047 638.681C100.219 637.516 100.21 635.999 100.272 634.367C100.43 630 100.13 625.677 100.06 621.31C100.016 618.849 99.8924 616.396 99.7601 613.944C99.6278 611.491 99.716 608.888 99.6278 606.357C99.5661 604.654 96.9205 604.654 96.9822 606.357L97.0087 606.339Z" fill="#333333"/>
<path d="M94.0985 581.76C92.4318 582.396 91.1443 583.701 89.9891 585.06C88.8338 586.418 87.7579 587.892 87.3787 589.639C87.123 590.83 87.0348 592.118 87.3523 593.282C88.093 595.982 90.721 597.729 93.0579 599.281C91.0473 600.904 88.7368 603.022 89.0719 605.58C89.2218 606.745 89.7774 607.9 90.4741 608.853C92.2643 611.306 94.3984 613.538 96.603 615.629" fill="#AFAFAF"/>
<path d="M93.7451 580.481C91.6728 581.346 90.1207 582.81 88.7009 584.531C87.2811 586.251 86.1699 588.201 85.8966 590.538C85.341 595.276 88.8243 598.055 92.3871 600.419C92.2989 599.722 92.2107 599.034 92.1225 598.337C89.424 600.525 86.7784 603.419 88.0924 607.142C88.745 608.986 90.0149 610.494 91.2583 611.967C92.634 613.591 94.1243 615.099 95.6676 616.564C96.9022 617.737 98.7717 615.867 97.5371 614.694C95.2002 612.47 92.4576 610.009 90.9496 607.124C90.2706 605.818 90.1736 604.548 90.9584 603.286C91.7433 602.025 92.8897 601.116 93.9921 600.225C94.6975 599.652 94.3624 598.575 93.7275 598.143C91.1172 596.405 88.163 594.464 88.5069 590.918C88.6744 589.18 89.4857 587.742 90.5792 586.41C91.6728 585.078 92.8633 583.701 94.4506 583.04C96.038 582.378 95.3237 579.837 93.7451 580.49V580.481Z" fill="#333333"/>
<path d="M109.619 602.395C109.619 601.945 109.47 601.54 109.328 601.116C108.729 599.264 107.036 598.117 106.454 596.238C105.969 594.694 105.88 592.665 106.136 591.05C106.709 587.451 109.214 585.616 112.486 586.242C115.475 586.815 116.41 588.862 116.516 591.2C116.613 593.37 115.872 595.832 115.016 597.94C114.214 599.925 114.179 602.06 114.205 604.186C114.232 606.268 114.514 608.368 114.981 610.441C115.449 612.514 116.216 614.57 116.789 616.502C117.494 618.866 117.636 621.24 117.309 623.754C117.239 624.283 116.33 626.118 115.263 627.953C114.064 630.009 113.103 631.958 113.112 631.976C112.159 630.688 111.075 629.506 110.122 628.218C109.17 626.93 108.367 625.536 107.415 624.248C107.141 623.877 106.798 623.604 106.674 623.083C106.533 622.483 106.727 621.875 106.833 621.257C107.141 619.378 107.115 617.446 107.415 615.576C107.715 613.705 108.05 611.835 108.358 609.956C108.667 608.077 109.108 606.233 109.443 604.363C109.558 603.719 109.619 603.048 109.619 602.395Z" fill="#95BECE"/>
<path d="M110.942 602.395C110.756 600.049 109.248 598.646 108.12 596.732C107.097 594.994 107.07 592.4 107.599 590.494C108.023 588.977 109.046 587.715 110.659 587.477C112.3 587.239 114.222 587.892 114.857 589.515C115.633 591.491 115.025 593.847 114.399 595.77C114.037 596.89 113.517 597.958 113.261 599.105C112.952 600.446 112.873 601.831 112.864 603.198C112.846 605.889 113.146 608.58 113.79 611.191C114.39 613.635 115.413 615.964 115.898 618.434C116.18 619.907 116.215 621.434 116.074 622.925C115.977 623.992 115.43 624.91 114.928 625.845C113.922 627.733 112.547 629.585 111.832 631.623L114.249 631.306C112.679 629.215 111.021 627.239 109.575 625.06C109.081 624.319 107.908 623.251 107.961 622.342C108.032 621.045 108.349 619.722 108.446 618.408C108.649 615.682 109.169 613 109.628 610.3C110.086 607.6 110.88 605.06 110.933 602.387C110.968 600.684 108.323 600.684 108.287 602.387C108.234 605.148 107.352 607.953 106.894 610.671C106.418 613.52 105.977 616.334 105.739 619.21C105.633 620.454 105.165 621.822 105.351 623.066C105.509 624.195 106.347 624.971 106.964 625.88C107.749 627.036 108.481 628.218 109.328 629.321C110.183 630.441 111.127 631.5 111.973 632.629C112.661 633.546 113.993 633.449 114.39 632.311C114.187 632.894 114.61 631.906 114.69 631.756C114.928 631.288 115.183 630.82 115.43 630.353C116.136 629.065 116.903 627.803 117.564 626.498C118.005 625.633 118.499 624.724 118.623 623.745C118.825 622.263 118.843 620.754 118.676 619.263C118.349 616.361 117.168 613.679 116.436 610.865C115.668 607.909 115.369 604.839 115.545 601.787C115.713 598.858 117.256 596.29 117.679 593.406C117.988 591.306 117.882 588.942 116.559 587.186C114.002 583.789 108.34 584.089 106.03 587.557C104.557 589.762 104.442 592.717 104.866 595.249C105.086 596.573 105.58 597.746 106.365 598.831C107.15 599.916 108.19 601.002 108.296 602.378C108.428 604.063 111.074 604.08 110.942 602.378V602.395Z" fill="#333333"/>
<path d="M126.304 606.33C126.224 608.297 126.427 610.274 126.339 612.232C126.251 614.191 125.925 616.149 125.854 618.116C125.783 620.084 126.101 622.06 126.057 624.027C126.013 625.995 125.863 627.953 125.854 629.921C125.854 631.888 125.951 633.846 126.004 635.814C126.066 638.037 128.094 638.84 130.598 639.016C132.927 639.184 135.546 638.61 136.913 638.672C137.944 638.725 139.179 638.928 139.814 638.108C140.193 637.622 140.228 636.952 140.29 636.343C140.466 634.623 140.502 632.885 140.678 631.164C140.705 630.865 140.757 630.441 140.969 630.229C141.128 630.062 141.463 630.079 141.683 630.009C143.588 629.365 145.343 628.377 146.93 627.142C148.518 625.915 149.902 624.442 151.022 622.783C152.151 621.116 153.121 619.325 153.633 617.384C154.144 615.443 154.223 613.423 153.968 611.394C153.703 609.294 152.927 607.318 152.125 605.36C151.34 603.445 150.484 601.645 149.497 599.952C148.474 598.187 147.477 596.44 146.243 594.879C145.008 593.317 143.535 591.932 142.08 590.512C140.669 589.136 139.285 587.671 137.671 586.392C136.189 585.219 133.658 583.684 131.48 582.969C129.046 582.175 127.177 582.572 127.089 586.251C127.036 588.483 126.939 590.715 126.921 592.947C126.903 595.179 126.718 597.411 126.692 599.643C126.665 601.875 126.392 604.098 126.304 606.33Z" fill="#AFAFAF"/>
<path d="M124.981 606.33C124.893 609.153 125.096 611.932 124.814 614.755C124.673 616.149 124.505 617.552 124.523 618.963C124.532 620.446 124.726 621.919 124.734 623.392C124.761 626.198 124.487 629.003 124.558 631.809C124.611 633.943 124.17 636.89 125.793 638.575C128.747 641.654 134.1 639.925 137.804 640.04C138.747 640.066 139.691 639.951 140.449 639.343C141.375 638.593 141.525 637.455 141.64 636.334C141.772 634.967 141.834 633.599 141.931 632.232C141.94 632.073 142.107 631.235 142.028 631.156L142.054 631.006L141.807 631.323C142.372 631.35 143.253 630.82 143.765 630.591C148.307 628.562 152.01 624.689 154.039 620.163C155.106 617.781 155.564 615.205 155.423 612.603C155.273 609.93 154.435 607.459 153.421 604.998C151.411 600.119 148.783 595.329 145.052 591.544C141.516 587.953 137.98 584.257 133.271 582.228C131.631 581.522 129.523 580.781 127.821 581.725C125.846 582.828 125.801 585.298 125.749 587.274C125.66 590.415 125.625 593.556 125.484 596.687C125.334 599.899 125.14 603.101 124.999 606.304C124.92 608.006 127.565 608.006 127.645 606.304C127.874 601.346 128.182 596.414 128.279 591.456C128.306 590.274 128.341 589.083 128.376 587.901C128.403 586.895 128.297 585.766 128.615 584.795C128.985 583.675 129.929 583.86 130.907 584.142C135.07 585.369 138.156 588.474 141.163 591.412C142.901 593.114 144.682 594.782 146.067 596.802C147.416 598.769 148.633 600.887 149.682 603.031C151.737 607.23 153.58 611.879 152.478 616.617C151.472 620.94 148.315 624.839 144.585 627.15C143.677 627.715 142.716 628.227 141.701 628.58C140.775 628.906 139.973 629.003 139.585 630.044C139.215 631.032 139.276 632.258 139.215 633.291C139.144 634.376 139.303 635.867 138.924 636.89C138.641 637.64 137.777 637.349 137.08 637.322C136.207 637.287 135.352 637.393 134.488 637.49C132.592 637.693 130.422 637.975 128.597 637.261C127.874 636.978 127.433 636.572 127.354 635.778C127.204 634.402 127.248 632.955 127.221 631.57C127.16 628.756 127.459 625.959 127.406 623.154C127.38 621.742 127.212 620.34 127.195 618.937C127.177 617.534 127.345 616.132 127.486 614.729C127.768 611.906 127.565 609.127 127.653 606.304C127.706 604.601 125.061 604.601 125.008 606.304L124.981 606.33Z" fill="#333333"/>
<path d="M130.545 581.937C132.212 582.572 133.658 583.622 134.822 584.972C135.987 586.33 136.842 587.909 137.212 589.656C137.468 590.847 137.653 592.1 137.327 593.273C136.586 595.973 134.126 597.746 131.789 599.29C133.8 600.913 135.934 603.004 135.59 605.571C135.44 606.736 134.84 607.839 134.152 608.791C132.362 611.244 130.263 613.494 128.059 615.576" fill="#AFAFAF"/>
<path d="M130.192 583.207C133.296 584.46 135.492 587.336 136.057 590.609C136.683 594.244 133.834 596.343 131.127 598.152C130.483 598.584 130.157 599.661 130.863 600.234C131.956 601.125 133.085 602.078 133.799 603.313C134.566 604.636 134.364 605.951 133.614 607.239C131.982 610.027 129.46 612.444 127.141 614.649C125.906 615.823 127.776 617.693 129.011 616.52C130.545 615.055 132.027 613.538 133.385 611.915C134.566 610.503 135.836 609.03 136.506 607.292C137.935 603.604 135.466 600.587 132.732 598.364C132.644 599.061 132.556 599.749 132.468 600.446C136.101 598.02 139.417 595.1 138.676 590.318C137.997 585.907 135.016 582.325 130.898 580.666C129.319 580.031 128.631 582.59 130.192 583.216V583.207Z" fill="#333333"/>
<path d="M127.309 583.128C127.865 584.928 128.271 586.815 128.297 588.695C128.324 590.724 127.944 592.965 126.657 594.526C125.528 595.893 123.738 596.396 121.965 596.476C120.255 596.546 118.517 596.07 117.053 595.179C115.59 594.288 114.355 593.053 113.261 591.676C112.168 590.3 111.321 588.977 110.413 587.504C110.254 591.024 109.223 593.167 106.445 595.373C105.766 595.911 104.998 596.414 104.196 596.723C102.035 597.552 99.4691 596.723 97.776 595.144C96.0828 593.573 95.2627 591.288 95.1216 588.977C94.9805 586.665 95.4038 584.363 96.2062 582.193" fill="#FCFCFC"/>
<path d="M126.039 583.481C127.203 587.362 128.235 594.394 122.626 595.108C117.282 595.788 113.993 590.785 111.55 586.833C110.845 585.686 109.16 586.198 109.081 587.504C108.975 589.506 108.499 591.412 107.123 592.938C105.598 594.623 103.534 596.193 101.144 595.549C95.4826 594.032 95.9147 586.851 97.4668 582.537C98.04 580.931 95.4826 580.243 94.9182 581.831C93.7718 585.033 93.2515 588.739 94.3362 592.038C95.3063 595.002 97.6432 597.508 100.765 598.178C103.948 598.858 106.77 597.199 108.896 594.914C110.827 592.832 111.577 590.3 111.727 587.504C110.906 587.724 110.086 587.945 109.257 588.174C112.45 593.335 116.797 598.902 123.632 597.614C130.563 596.308 130.157 587.998 128.588 582.784C128.103 581.16 125.545 581.849 126.039 583.489V583.481Z" fill="#333333"/>
<path d="M66.0114 532.33C67.4841 532.33 68.9657 532.965 70.2444 533.512C70.8088 531.483 71.3996 529.41 72.2374 527.513C73.084 525.59 74.0275 523.719 75.1299 521.955C76.241 520.182 77.5462 518.532 78.8866 516.944C80.227 515.356 81.6909 513.838 83.2518 512.453C84.8127 511.068 86.5412 509.886 88.2872 508.739C90.0245 507.601 91.7265 506.331 93.6225 505.449C95.5185 504.566 97.5115 503.922 99.531 503.322C101.55 502.723 103.552 502.202 105.642 501.902C107.732 501.602 109.787 501.39 111.903 501.39C114.02 501.39 116.119 501.717 118.156 502.017C120.193 502.317 122.212 503.058 124.197 503.649C126.181 504.24 128.324 504.584 130.202 505.457C132.107 506.34 133.906 507.451 135.643 508.598C137.38 509.745 138.985 511.13 140.546 512.506C142.107 513.891 143.421 515.515 144.77 517.111C146.12 518.699 147.672 520.155 148.783 521.928C149.894 523.702 150.582 525.695 151.428 527.619C152.266 529.515 153.21 531.28 153.774 533.309C155.079 532.736 156.402 532.736 157.919 532.736C159.868 532.736 161.755 532.983 163.325 533.9C164.895 534.818 166.438 536.185 167.373 537.817C168.307 539.449 168.669 541.337 168.669 543.287C168.669 545.237 168.219 547.151 167.32 548.721C166.42 550.292 164.974 551.774 163.36 552.709C161.746 553.644 159.877 553.847 157.928 553.847C156.72 553.847 155.75 553.944 154.674 553.565C154.25 555.77 153.369 557.72 152.637 559.802C151.887 561.91 151.093 563.984 150.044 565.933C148.986 567.901 147.945 569.903 146.614 571.668C145.273 573.441 143.792 575.153 142.195 576.705C140.599 578.258 138.694 579.467 136.887 580.763C135.079 582.043 133.218 583.269 131.225 584.266C129.25 585.254 127.16 586.021 125.026 586.701C122.927 587.371 120.766 587.874 118.544 588.218C116.322 588.562 114.17 588.986 111.912 588.986C109.655 588.986 107.424 588.712 105.254 588.377C103.032 588.033 100.827 587.592 98.7373 586.93C96.6032 586.251 94.5308 585.369 92.5643 584.381C90.5713 583.384 88.7282 582.096 86.9292 580.816C85.1125 579.528 83.3312 578.179 81.735 576.635C80.1388 575.091 78.7367 573.344 77.3963 571.571C76.0558 569.806 74.8389 567.945 73.7806 565.977C72.7224 564.01 72.0081 561.937 71.2585 559.828C70.5177 557.755 69.6535 555.77 69.2302 553.565C68.1808 553.909 67.1931 554.253 66.0291 554.253C64.0802 554.253 62.3517 553.318 60.782 552.409C59.1682 551.465 57.572 550.362 56.6372 548.739C55.7025 547.116 55.3145 545.254 55.3145 543.305C55.3145 541.355 55.967 539.573 56.8665 538.002C57.8013 536.379 59.1594 535.135 60.782 534.191C62.3517 533.274 64.089 532.356 66.0291 532.356L66.0114 532.33Z" fill="#FFE6D9"/>
<path d="M66.0108 533.653C67.2631 533.697 68.4359 534.165 69.5735 534.65C70.3496 534.976 71.2667 534.765 71.5136 533.856C72.4837 530.38 73.683 527.098 75.4644 523.958C77.2457 520.817 79.3798 518.188 81.7873 515.691C84.283 513.097 87.1226 511.121 90.0856 509.119C91.5583 508.122 93.0311 507.142 94.6625 506.419C96.3468 505.669 98.1194 505.122 99.8743 504.602C107.158 502.44 114.681 502.052 121.983 504.337C125.342 505.387 128.711 506.022 131.806 507.769C134.902 509.524 137.777 511.615 140.325 514.103C141.719 515.462 142.918 516.997 144.197 518.461C145.422 519.864 146.772 521.161 147.742 522.767C148.765 524.452 149.426 526.313 150.211 528.113C151.013 529.957 151.939 531.73 152.495 533.671C152.68 534.297 153.447 534.871 154.126 534.597C155.529 534.032 157.01 534.032 158.5 534.077C160.079 534.121 161.596 534.394 162.954 535.232C165.67 536.9 167.196 539.529 167.328 542.705C167.46 545.845 166.323 548.757 163.862 550.768C162.689 551.73 161.34 552.259 159.841 552.435C158.315 552.612 156.49 552.735 155.008 552.294C154.356 552.1 153.518 552.533 153.377 553.221C153.015 554.994 152.371 556.67 151.737 558.364C151.066 560.146 150.467 561.963 149.664 563.693C148.112 567.036 146.207 570.23 143.8 573.035C141.295 575.947 138.385 578.126 135.237 580.287C132.062 582.475 128.72 584.098 125.051 585.289C121.312 586.507 117.291 587.31 113.367 587.601C109.487 587.883 105.439 587.23 101.673 586.357C97.8637 585.475 94.1334 583.948 90.8176 581.875C87.7311 579.934 84.6446 577.755 82.096 575.144C79.1947 572.171 76.6284 568.659 74.7148 564.972C73.78 563.154 73.1274 561.214 72.4396 559.299C71.7165 557.288 70.9052 555.32 70.4819 553.212C70.3408 552.533 69.503 552.074 68.8504 552.286C67.5276 552.727 66.2401 553.106 64.838 552.788C63.4975 552.488 62.2806 551.774 61.1165 551.077C58.6737 549.612 57.104 547.76 56.6984 544.857C56.3192 542.149 57.1481 539.282 58.9912 537.244C60.6668 535.391 63.4622 533.732 65.9932 533.653C67.6952 533.6 67.6952 530.954 65.9932 531.006C62.6686 531.112 59.0353 533.115 56.8924 535.629C54.6525 538.285 53.6471 541.743 54.1057 545.184C54.5819 548.748 56.4691 551.306 59.4851 553.177C60.9225 554.068 62.4834 554.95 64.1413 555.338C66.0285 555.77 67.7569 555.435 69.5647 554.835L67.9333 553.909C68.3213 555.823 69.018 557.623 69.697 559.449C70.3937 561.337 71.0286 563.234 71.8487 565.069C73.4361 568.615 75.7995 571.835 78.2687 574.817C80.8349 577.914 83.9214 580.34 87.202 582.625C90.5266 584.954 94.1157 586.789 97.9783 588.068C101.876 589.356 106.127 590.027 110.219 590.256C114.381 590.486 118.755 589.709 122.785 588.703C126.727 587.724 130.634 586.269 134.126 584.169C137.618 582.069 140.943 579.864 143.694 577.085C146.825 573.917 149.214 570.353 151.278 566.427C152.31 564.478 153.103 562.413 153.844 560.34C154.611 558.214 155.502 556.141 155.952 553.918C155.405 554.226 154.867 554.535 154.32 554.844C156.163 555.4 158.342 555.267 160.229 555.038C162.195 554.791 163.915 554.094 165.467 552.859C168.571 550.389 170.15 546.648 169.991 542.705C169.824 538.691 167.963 535.347 164.603 533.133C162.936 532.039 161.058 531.571 159.091 531.456C157.222 531.342 155.193 531.342 153.439 532.047L155.07 532.974C154.55 531.192 153.765 529.524 152.989 527.848C152.213 526.172 151.56 524.337 150.705 522.643C149.117 519.476 146.384 516.9 144.073 514.253C141.613 511.421 138.659 508.96 135.501 506.94C133.958 505.951 132.371 504.999 130.695 504.249C129.02 503.499 127.133 503.093 125.307 502.599C123.482 502.105 121.709 501.426 119.866 501.011C117.961 500.579 115.959 500.341 114.019 500.182C110.104 499.847 106.003 500.341 102.194 501.249C98.3839 502.158 94.4156 503.314 91.0557 505.352C87.9251 507.248 84.7416 509.339 82.0254 511.792C78.9213 514.588 76.0817 517.906 73.8858 521.461C71.6195 525.113 70.1203 529.048 68.9651 533.168C69.6088 532.903 70.2614 532.639 70.9052 532.374C69.309 531.695 67.7569 531.077 66.002 531.015C64.2471 530.954 64.3 533.6 66.002 533.662L66.0108 533.653Z" fill="#333333"/>
<path d="M122.626 544.54C122.626 546.119 123.843 547.442 125.413 547.442C126.982 547.442 128.323 546.11 128.323 544.54C128.323 542.96 126.982 541.558 125.413 541.558C123.843 541.558 122.626 542.96 122.626 544.54Z" fill="#333333"/>
<path d="M95.6152 544.54C95.6152 546.119 96.841 547.442 98.4107 547.442C99.9804 547.442 101.488 546.119 101.488 544.54C101.488 542.96 99.9804 541.619 98.4107 541.619C96.841 541.619 95.6152 542.96 95.6152 544.54Z" fill="#333333"/>
<path d="M114.549 544.928C113.773 544.434 112.803 544.099 111.868 544.204C111.303 544.266 110.845 544.39 110.333 544.628C109.901 544.822 109.531 545.104 109.152 545.404C108.905 545.598 108.764 546.039 108.764 546.339C108.764 546.666 108.905 547.054 109.152 547.275C109.399 547.495 109.734 547.68 110.086 547.663L110.439 547.619C110.66 547.557 110.854 547.442 111.021 547.275L111.074 547.23L110.81 547.433C111.092 547.213 111.392 547.027 111.718 546.886L111.4 547.019C111.639 546.922 111.877 546.851 112.132 546.816L111.78 546.86C112.009 546.833 112.247 546.825 112.476 546.86L112.124 546.816C112.397 546.851 112.653 546.922 112.908 547.027L112.591 546.895C112.811 546.992 113.014 547.098 113.208 547.222C113.79 547.592 114.69 547.363 115.016 546.745C115.36 546.092 115.166 545.334 114.54 544.937L114.549 544.928Z" fill="#333333"/>
<path d="M131.242 550.9C131.242 553.397 132.389 555.611 134.011 557.243C135.643 558.884 137.847 559.696 140.343 559.696C142.83 559.696 145.087 558.928 146.71 557.288C148.333 555.655 149.206 553.397 149.206 550.9C149.206 548.404 148.421 546.066 146.798 544.434C145.167 542.793 142.83 541.69 140.343 541.69C137.856 541.69 135.749 543.022 134.126 544.663C132.503 546.295 131.251 548.404 131.251 550.9H131.242Z" fill="#EDBBA6"/>
<path d="M74.4854 550.9C74.4854 553.397 75.5965 555.532 77.2192 557.173C78.8506 558.814 80.9847 560.084 83.4715 560.084C85.9584 560.084 88.3747 559.087 90.0061 557.446C91.6288 555.814 92.299 553.388 92.299 550.9C92.299 548.404 91.4348 546.18 89.8121 544.54C88.1807 542.899 85.9584 541.884 83.4715 541.884C80.9847 541.884 78.8859 543.022 77.2544 544.663C75.623 546.304 74.4766 548.404 74.4766 550.891L74.4854 550.9Z" fill="#EDBBA6"/>
<path d="M75.1114 535.073C74.9438 535.532 74.8204 536.017 74.6528 536.476C74.4147 537.147 73.9914 538.064 73.2859 538.108C72.8186 538.135 72.3071 537.773 71.9808 537.446C70.464 535.947 69.8908 533.953 69.5469 531.862C69.2382 529.939 69.1941 527.866 69.6262 525.731C70.0231 523.754 70.755 521.787 71.5751 519.864C72.3953 517.941 73.3918 516.053 74.4588 514.394C75.7111 512.427 76.9721 510.698 78.2244 509.498C79.7059 508.077 81.1962 506.622 82.8894 505.466C84.5826 504.31 86.4345 503.366 88.2864 502.467C90.1383 501.567 92.0608 500.826 94.0009 500.155C95.941 499.485 97.9516 498.991 99.9358 498.541C101.955 498.082 103.992 497.764 105.994 497.517C108.058 497.27 110.139 497.314 112.22 497.332C114.301 497.35 116.374 497.359 118.437 497.65C120.501 497.941 122.511 498.426 124.522 498.991C126.33 499.502 128.244 499.926 130.095 500.605C131.947 501.284 133.764 501.911 135.484 502.802C137.203 503.693 138.87 504.796 140.36 505.978C142.071 507.336 143.456 509.057 144.937 510.698C146.419 512.339 147.935 513.9 149.232 515.673C150.378 517.244 151.542 518.902 152.477 520.676C153.412 522.449 154.064 524.363 154.549 526.251C155.034 528.139 155.246 530.177 154.999 532.144C154.761 534.023 154.206 535.929 153.05 537.738C152.742 538.223 152.274 538.611 151.736 538.823C150.537 539.29 149.505 538.117 149.126 536.882C148.747 535.647 148.853 534.262 148.332 533.088C147.75 531.765 146.136 531.174 144.99 530.301C143.385 529.074 141.974 527.574 140.563 526.128C139.152 524.681 138.05 522.978 136.868 521.337C135.686 519.696 134.646 517.994 133.711 516.203C132.776 514.412 131.727 512.815 131.065 510.909C129.214 512.021 127.362 512.886 125.466 513.918C123.57 514.95 121.735 516.123 119.795 517.067C117.855 518.011 115.73 518.576 113.755 519.44C111.779 520.305 109.786 521.117 107.767 521.911C105.747 522.705 103.895 523.896 101.849 524.601C99.8035 525.307 97.6782 525.748 95.6058 526.375C93.5335 526.992 91.4876 527.716 89.3975 528.254C87.2987 528.783 85.1293 528.977 83.0129 529.418C80.8964 529.859 78.6741 530.212 76.54 530.565C76.0285 532.003 75.6317 533.626 75.1202 535.073H75.1114Z" fill="#8E816E"/>
<path d="M73.8335 534.72C73.6571 535.25 73.5336 535.823 73.2955 536.344C73.0045 536.979 73.0839 536.714 72.6694 536.255C71.814 535.32 71.3819 534.094 71.0909 532.885C70.4295 530.098 70.5089 527.248 71.2937 524.504C72.0786 521.761 73.1897 519.255 74.539 516.838C75.8177 514.553 77.2904 512.268 79.1599 510.424C81.1529 508.457 83.2077 506.684 85.6592 505.307C88.1902 503.878 90.8358 502.669 93.5783 501.699C98.8431 499.829 104.549 498.647 110.149 498.647C113.067 498.647 116.031 498.576 118.923 499.052C121.816 499.529 124.435 500.323 127.16 501.073C132.389 502.519 137.61 504.769 141.419 508.748C145.229 512.727 149.083 516.82 151.534 521.699C152.795 524.222 153.712 527.204 153.792 530.036C153.827 531.35 153.668 532.647 153.324 533.909C153.157 534.517 152.954 535.117 152.681 535.691C152.443 536.203 152.01 537.402 151.402 537.526C150.353 537.738 150.194 535.444 150.097 534.782C149.912 533.45 149.612 532.206 148.624 531.227C147.795 530.398 146.693 529.912 145.758 529.215C144.515 528.298 143.43 527.16 142.354 526.057C140.273 523.922 138.5 521.505 136.878 518.999C136.005 517.649 135.246 516.229 134.479 514.818C133.712 513.406 132.892 512.047 132.345 510.548C132.054 509.762 131.19 509.295 130.405 509.754C128.703 510.759 126.93 511.624 125.184 512.559C123.57 513.424 122.01 514.394 120.396 515.268C118.694 516.185 116.912 516.82 115.105 517.491C113.253 518.179 111.462 519.017 109.628 519.758C107.953 520.437 106.286 521.081 104.672 521.884C103.058 522.687 101.365 523.41 99.5662 523.922C97.7407 524.434 95.9065 524.884 94.0898 525.448C92.3526 525.995 90.6153 526.586 88.8427 527.019C86.8056 527.513 84.7068 527.724 82.6521 528.139C80.5973 528.554 78.3398 528.924 76.1792 529.286C75.7207 529.365 75.3944 529.806 75.2533 530.212C74.733 531.703 74.345 533.229 73.8335 534.72C73.2691 536.335 75.8265 537.023 76.3821 535.426C76.9023 533.935 77.2904 532.409 77.8018 530.918L76.8759 531.844C80.6326 531.218 84.3982 530.583 88.1461 529.877C91.8587 529.18 95.4303 527.769 99.0723 526.807C100.854 526.331 102.591 525.81 104.266 525.034C105.951 524.248 107.582 523.41 109.311 522.731C111.163 521.99 112.988 521.17 114.84 520.428C116.577 519.732 118.376 519.193 120.087 518.408C122.054 517.5 123.879 516.317 125.766 515.276C127.742 514.182 129.779 513.221 131.719 512.074L129.779 511.28C130.863 514.262 132.574 517.173 134.259 519.855C135.943 522.537 137.663 525.042 139.77 527.222C140.846 528.342 141.931 529.471 143.112 530.486C144.18 531.403 145.458 532.021 146.525 532.921C147.495 533.732 147.434 535.056 147.628 536.211C147.857 537.588 148.448 539.061 149.7 539.82C152.637 541.593 154.7 537.949 155.529 535.682C156.623 532.682 156.649 529.418 155.935 526.331C154.444 519.899 150.502 514.862 146.164 510.08C144.065 507.769 142.081 505.501 139.506 503.702C136.931 501.902 134.135 500.684 131.199 499.617C128.112 498.488 124.876 497.632 121.674 496.917C118.394 496.168 115.14 496.026 111.806 496C105.228 495.947 98.6755 497.032 92.476 499.282C86.2765 501.531 80.8884 504.522 76.5761 509.277C74.2479 511.853 72.3696 514.959 70.9145 518.099C69.3713 521.417 68.0485 524.963 67.9867 528.66C67.9338 531.783 68.4982 535.4 70.5706 537.861C71.4524 538.902 72.8105 539.881 74.2039 539.193C75.5972 538.505 75.9323 536.75 76.3821 535.417C76.9288 533.803 74.3714 533.106 73.8335 534.712V534.72Z" fill="#333333"/>
<path d="M103.887 553.918C106.223 555.656 109.169 556 112 556.053C114.83 556.105 117.785 555.814 120.245 554.27C121.683 553.371 120.36 551.077 118.913 551.985C116.841 553.282 114.39 553.45 112 553.406C109.592 553.362 107.202 553.115 105.218 551.633C104.645 551.209 103.737 551.536 103.41 552.109C103.014 552.779 103.313 553.494 103.887 553.918Z" fill="#333333"/>
<path d="M120.74 550.45C121.04 550.592 121.339 550.742 121.622 550.918C121.745 550.997 121.877 551.077 121.992 551.165C122.054 551.209 122.115 551.253 122.168 551.297C122.301 551.394 121.957 551.13 122.151 551.28C122.398 551.491 122.644 551.712 122.865 551.95C122.971 552.056 123.068 552.171 123.156 552.285C123.209 552.356 123.262 552.427 123.324 552.488C123.227 552.391 123.191 552.321 123.306 552.471C123.491 552.727 123.659 552.982 123.809 553.256C123.879 553.388 123.95 553.521 124.011 553.653C124.047 553.723 124.082 553.829 124.126 553.9C124.047 553.794 124.038 553.688 124.108 553.873C124.223 554.165 124.32 554.464 124.399 554.773C124.435 554.923 124.47 555.064 124.496 555.214C124.514 555.303 124.532 555.391 124.549 555.479C124.602 555.753 124.514 555.197 124.549 555.488C124.629 556.176 125.096 556.846 125.872 556.811C126.516 556.785 127.283 556.22 127.195 555.488C127.001 553.926 126.516 552.427 125.59 551.139C124.682 549.877 123.491 548.818 122.071 548.174C121.445 547.892 120.616 547.971 120.263 548.651C119.955 549.233 120.069 550.159 120.74 550.459V550.45Z" fill="#D6B4A5"/>
<path d="M83.4983 624.31C81.6111 623.666 80.1119 622.148 79.3182 620.207C78.5334 618.293 78.5863 616.017 78.4981 614.279C78.4099 612.391 78.4011 610.582 79.133 609.056C79.8738 607.512 81.276 606.357 82.7663 605.236C83.8245 604.433 85.1385 604.063 86.4084 604.469C87.6783 604.874 88.6924 606.021 88.569 607.345C88.4631 608.483 87.4666 609.488 86.673 610.318C87.8458 610.406 89.2921 610.865 89.8036 611.932C90.315 613 89.8477 614.57 88.6924 614.791C89.6272 615.426 90.562 616.167 90.853 617.261C91.144 618.355 90.315 619.775 89.1863 619.793C90.2004 620.19 90.5355 621.637 90.024 622.598C89.5126 623.56 88.419 624.036 87.3696 624.327C86.0909 624.68 84.7505 624.742 83.4983 624.318V624.31Z" fill="#FFE6D9"/>
<path d="M83.8515 623.039C81.6733 622.236 80.4387 620.172 80.0683 617.967C79.8743 616.846 79.8831 615.699 79.8302 614.561C79.7773 613.3 79.6803 612.003 79.9537 610.768C80.2094 609.638 80.7914 608.739 81.6027 607.927C82.414 607.115 83.4458 606.127 84.5482 605.765C85.4565 605.466 86.7528 605.713 87.1585 606.692C87.5641 607.671 86.356 608.739 85.7387 609.391C84.9009 610.274 85.5535 611.544 86.6734 611.65C87.2466 611.703 88.1726 611.87 88.5342 612.391C88.7546 612.7 88.7811 613.405 88.3402 613.529C87.1849 613.855 87.1144 615.32 88.0227 615.946C88.5694 616.326 89.3367 616.82 89.5307 617.499C89.6012 617.755 89.5659 618.434 89.1867 618.478C88.0139 618.593 87.2202 620.313 88.5165 620.948C89.4866 621.425 88.6224 622.413 87.9874 622.722C86.7087 623.348 85.1919 623.472 83.8427 623.057C82.2112 622.563 81.5146 625.112 83.1372 625.607C85.4565 626.312 88.6576 625.951 90.4743 624.186C92.0528 622.651 91.9646 619.687 89.8481 618.663C89.6277 619.484 89.4072 620.304 89.1779 621.134C90.8711 620.957 92.1498 619.625 92.2203 617.887C92.2909 615.982 90.7829 614.658 89.3543 613.67L89.0368 616.087C90.8358 615.576 91.7177 613.555 91.1533 611.817C90.536 609.894 88.4813 609.188 86.6646 609.012C86.9733 609.762 87.2907 610.521 87.5994 611.27C88.4989 610.327 89.4866 609.303 89.7864 607.989C90.0774 606.745 89.6806 605.474 88.8428 604.53C86.8322 602.272 83.7192 602.845 81.5675 604.504C79.3364 606.224 77.5991 608.156 77.2375 611.05C77.0612 612.417 77.1493 613.785 77.2022 615.161C77.2552 616.537 77.3169 617.967 77.6432 619.334C78.331 622.236 80.3505 624.583 83.146 625.607C84.7422 626.198 85.4388 623.639 83.8515 623.057V623.039Z" fill="#333333"/>
<path d="M137.327 620.49C139.779 620.94 141.851 619.996 143.518 618.787C145.185 617.578 146.411 615.664 146.993 613.503C147.575 611.341 147.627 609.197 146.825 607.115C146.102 605.236 143.888 604.407 142.072 603.781C141.031 603.428 139.867 603.198 138.844 603.595C137.812 603.992 136.904 604.989 136.851 606.092C136.798 607.195 137.804 608.086 138.906 608.095C138.2 608.147 137.424 608.386 136.772 608.668C136.119 608.95 135.458 609.515 135.326 610.212C135.193 610.909 135.766 611.747 136.463 611.844C135.608 612.144 134.664 612.673 134.4 613.538C134.135 614.402 134.673 615.638 135.572 615.488C134.938 616.352 134.391 617.314 134.646 618.355C134.92 619.466 136.207 620.278 137.336 620.481L137.327 620.49Z" fill="#FFE6D9"/>
<path d="M136.975 621.76C139.938 622.236 142.689 621.239 144.956 619.316C147.222 617.393 148.351 614.535 148.668 611.676C148.994 608.756 148.315 605.615 145.723 603.948C144.638 603.251 143.359 602.775 142.134 602.404C140.652 601.954 139.003 601.875 137.636 602.713C136.269 603.551 135.299 605.068 135.573 606.665C135.855 608.306 137.301 609.312 138.897 609.409V606.762C137.222 606.948 135.22 607.512 134.338 609.091C133.465 610.662 134.373 612.682 136.102 613.114V610.565C134.629 611.112 133.112 612.091 133.015 613.829C132.936 615.302 133.941 616.908 135.564 616.811C135.184 616.149 134.805 615.487 134.417 614.817C133.456 616.167 132.821 617.834 133.641 619.422C134.276 620.666 135.652 621.469 136.975 621.751C138.633 622.104 139.347 619.554 137.68 619.202C137.098 619.078 136.357 618.831 136.031 618.275C135.608 617.561 136.304 616.714 136.701 616.149C137.275 615.346 136.516 614.102 135.555 614.155C135.617 614.155 135.67 614.349 135.67 614.164C135.67 614.041 135.643 613.952 135.687 613.829C135.837 613.45 136.454 613.229 136.798 613.105C137.945 612.673 138.156 610.891 136.798 610.556C136.41 610.459 136.772 610.176 136.992 610.018C137.504 609.656 138.271 609.462 138.888 609.4C140.555 609.215 140.617 606.859 138.888 606.753C137.821 606.692 138.165 605.615 138.738 605.148C139.735 604.327 141.049 604.813 142.134 605.192C143.077 605.527 144.082 605.907 144.841 606.577C145.705 607.336 145.978 608.571 146.058 609.682C146.234 612.1 145.538 614.817 143.888 616.643C142.363 618.337 139.982 619.572 137.663 619.202C136.957 619.087 136.243 619.387 136.031 620.128C135.855 620.754 136.243 621.645 136.957 621.76H136.975Z" fill="#333333"/>
</g>
<defs>
<clipPath id="clip0_40_910">
<rect width="116" height="191" fill="white" transform="translate(54 496)"/>
</clipPath>
</defs>
</svg>
