<svg width="1080" height="740" viewBox="0 0 1080 740" fill="none" xmlns="http://www.w3.org/2000/svg">
<g clip-path="url(#clip0_40_603)">
<path d="M1126.45 591.222L998.692 665.431C979.531 676.563 948.35 676.563 929.065 665.431L678.812 521.024L735.381 488.155L942.371 607.603C954.097 614.369 973.041 614.369 984.704 607.603L1069.5 558.353L1126.44 591.222H1126.45Z" fill="#FD780F" stroke="#333333" stroke-width="2" stroke-linecap="round" stroke-linejoin="round"/>
<path d="M998.691 665.446C979.53 676.578 948.35 676.578 929.065 665.446L678.812 521.024L678.549 615.685L928.786 760.091C948.086 771.223 979.267 771.223 998.412 760.091L1126.17 685.883L1126.44 591.223L998.676 665.431L998.691 665.446Z" fill="#FE9A4B" stroke="#333333" stroke-width="2" stroke-linecap="round" stroke-linejoin="round"/>
<path d="M1079.75 618.348V712.312" stroke="#333333" stroke-width="2" stroke-linecap="round" stroke-linejoin="round"/>
<path d="M1079.75 618.348L1023.94 584.828" stroke="#333333" stroke-width="2" stroke-linecap="round" stroke-linejoin="round"/>
<path d="M802.219 635.69L799.369 630.16C799.299 630.026 799.36 629.915 799.469 629.976L823.309 643.19C823.467 643.278 823.588 643.509 823.557 643.669L823.387 644.551C823.371 644.635 823.335 644.701 823.283 644.745L809.609 656.139C809.541 656.195 809.6 656.367 809.707 656.426L818.875 661.508C819.029 661.593 819.175 661.596 819.273 661.516L820.593 660.443C820.646 660.401 820.742 660.455 820.793 660.554L823.62 666.037C823.688 666.171 823.629 666.281 823.52 666.22L799.67 653C799.511 652.912 799.391 652.681 799.423 652.522L799.59 651.668C799.606 651.585 799.642 651.519 799.694 651.476L813.441 640.092C813.509 640.036 813.45 639.864 813.343 639.805L804.237 634.757C804.082 634.671 803.936 634.667 803.838 634.747L802.421 635.803C802.368 635.845 802.271 635.791 802.22 635.691L802.219 635.69ZM759.981 623.425L752.78 619.972V610.816L758.361 613.909V610.244L749 605.055V621.723L759.981 627.043V623.427V623.425ZM756.291 618.465L760.341 620.711V628.654L764.121 630.749V612.928L760.341 610.832V617.044L756.291 614.799V618.465ZM765.201 631.042L780.863 639.724V636.159L765.201 627.478V631.042ZM765.652 624.267C769.21 626.144 771.617 625.752 773.024 624.366C774.431 627.313 776.837 630.372 780.413 632.45V629.041C776.843 626.756 774.922 622.814 774.922 620.665V619.016L771.142 616.92V618.57C771.142 620.718 769.221 622.53 765.652 620.859V624.267ZM781.403 632.793L784.912 634.738L784.624 635.86C783.322 635.387 782.307 636.127 782.307 637.734C782.307 639.494 783.524 641.605 785.03 642.44L794.287 647.571C795.798 648.409 797.02 647.645 797.02 645.878C797.02 644.112 795.798 641.993 794.287 641.155L788.07 637.709L788.335 636.634L792.563 638.978V636.025L781.402 629.838V632.791L781.403 632.793ZM781.779 626.207C781.779 627.984 783.047 630.139 784.6 631.001L788.975 633.426C790.53 634.287 791.813 633.547 791.813 631.769C791.813 629.991 790.53 627.77 788.975 626.908L784.6 624.483C783.046 623.621 781.779 624.372 781.779 626.207ZM784.965 627.902C784.965 627.518 785.185 627.353 785.456 627.503L788.203 629.026C788.474 629.176 788.695 629.587 788.695 629.97C788.695 630.353 788.474 630.5 788.203 630.35L785.456 628.827C785.185 628.677 784.965 628.286 784.965 627.902ZM785.762 639.537C785.762 639.251 785.931 639.173 786.134 639.285L793.154 643.176C793.374 643.298 793.526 643.555 793.526 643.841C793.526 644.127 793.374 644.215 793.154 644.093L786.134 640.201C785.931 640.089 785.762 639.823 785.762 639.537ZM793.014 640.043L796.884 642.189V631.089L793.014 628.943V640.043ZM825.957 650.972L828.207 652.219V653.235C828.207 657.934 827.681 660.021 825.777 660.404V664.329C827.541 664.462 828.847 663.881 829.729 662.375C830.611 664.86 831.935 666.898 833.698 668.719V664.795C831.794 662.3 831.268 659.631 831.268 654.932V653.916L833.518 655.163V651.904L825.957 647.713V650.972ZM832.168 660.525L834.508 661.822V669.765L837.478 671.412V653.59L834.508 651.944V658.563L832.168 657.266V660.525ZM838.198 671.811L841.258 673.507V655.686L838.198 653.989V671.811ZM842.339 673.8L858 682.481V679.121L842.339 670.44V673.8ZM842.969 659.994L857.55 668.077V665.022L842.969 656.939V659.994ZM857.55 672.965L846.749 666.978V665.858L857.55 671.845V668.891L842.969 660.809V668.141L857.55 676.224V672.965Z" fill="white"/>
<path d="M1025.91 625.888L1025.86 639.466L995.253 621.801L995.284 612.062L1025.91 625.888Z" fill="#DCD7DD" stroke="#333333" stroke-width="2" stroke-linecap="round" stroke-linejoin="round"/>
<path d="M1025.91 625.888L1051.45 611.04L1051.42 624.618L1025.86 639.466L1025.91 625.888Z" fill="#DCD7DD" stroke="#333333" stroke-width="2" stroke-linecap="round" stroke-linejoin="round"/>
<path d="M995.284 612.062L1020.84 597.214L1051.45 611.04L1025.91 625.888L995.284 612.062Z" fill="#DCD7DD" stroke="#333333" stroke-width="2" stroke-linecap="round" stroke-linejoin="round"/>
<path d="M1031.67 622.126L1027.01 619.416L1026.99 614.353L1031.65 617.063L1031.67 622.126Z" fill="#DCD7DD" stroke="#333333" stroke-width="2" stroke-linecap="round" stroke-linejoin="round"/>
<path d="M1058.2 562.471C1062.01 560.273 1065.11 562.038 1065.13 566.419L1065.19 589.767C1065.19 594.133 1062.12 599.475 1058.31 601.673L1045.7 608.95V614.013L1031.65 622.126V617.063L1019.04 624.324C1015.23 626.523 1012.14 624.758 1012.12 620.392L1012.06 597.044C1012.06 592.662 1015.13 587.336 1018.94 585.122L1058.19 562.471H1058.2Z" fill="#DCD7DD" stroke="#333333" stroke-width="2" stroke-linecap="round" stroke-linejoin="round"/>
<path d="M1014.29 582.428L1053.54 559.777C1055.46 558.678 1057.2 558.57 1058.45 559.297L1063.11 562.007C1061.86 561.279 1060.12 561.387 1058.2 562.487L1018.95 585.138C1015.14 587.336 1012.06 592.662 1012.07 597.044L1012.14 620.392C1012.14 622.559 1012.91 624.092 1014.15 624.804L1009.49 622.095C1008.25 621.382 1007.49 619.85 1007.47 617.682L1007.41 594.334C1007.41 589.953 1010.48 584.627 1014.29 582.428Z" fill="#DCD7DD" stroke="#333333" stroke-width="2" stroke-linecap="round" stroke-linejoin="round"/>
<path d="M798.842 540.749L733.336 502.693L756.772 489.177L822.278 527.218L798.842 540.749Z" fill="#CCCCCC" stroke="#333333" stroke-width="2" stroke-linecap="round" stroke-linejoin="round"/>
<path d="M822.138 475.18L822.2 497.491L798.764 511.007L798.842 540.749L822.278 527.217L822.309 537.451L778.535 562.719L778.364 500.448L822.138 475.18Z" fill="#E6E6E6" stroke="#333333" stroke-width="2" stroke-linecap="round" stroke-linejoin="round"/>
<path d="M778.535 562.719L713.029 524.663L712.858 462.392L778.365 500.448L778.535 562.719Z" fill="#CCCCCC" stroke="#333333" stroke-width="2" stroke-linecap="round" stroke-linejoin="round"/>
<path d="M778.365 500.448L712.858 462.392L756.632 437.14L822.139 475.18L778.365 500.448Z" fill="#CCCCCC" stroke="#333333" stroke-width="2" stroke-linecap="round" stroke-linejoin="round"/>
<path d="M936.314 595.929H904.994L908.247 630.363C908.247 632.22 909.455 634.063 911.903 635.472C916.766 638.274 924.62 638.274 929.452 635.472C931.884 634.063 933.077 632.205 933.062 630.363L936.314 595.929Z" fill="#F2F2F2" stroke="#333333" stroke-width="2" stroke-linecap="round" stroke-linejoin="round"/>
<path d="M937.662 591.826V596.285C937.662 598.794 936.005 601.286 932.721 603.191C926.107 607.03 915.341 607.046 908.665 603.191C905.319 601.255 903.631 598.716 903.647 596.177V591.718C903.647 594.257 905.319 596.796 908.665 598.732C915.326 602.571 926.091 602.571 932.721 598.732C936.005 596.827 937.662 594.319 937.662 591.826Z" fill="#F2F2F2" stroke="#333333" stroke-width="2" stroke-linecap="round" stroke-linejoin="round"/>
<path d="M932.643 584.813C939.304 588.652 939.335 594.892 932.721 598.732C926.107 602.571 915.341 602.587 908.665 598.732C901.989 594.876 901.974 588.652 908.588 584.797C915.202 580.958 925.967 580.958 932.643 584.797V584.813Z" fill="#F2F2F2" stroke="#333333" stroke-width="2" stroke-linecap="round" stroke-linejoin="round"/>
<path d="M908.604 609.833C907.334 609.089 906.296 608.269 905.506 607.402L907.303 622.064C908 623.163 909.099 624.2 910.633 625.098C915.543 627.932 923.102 628.272 928.617 626.12L929.438 611.35C922.885 613.61 914.289 613.115 908.619 609.848L908.604 609.833Z" fill="#FD780F" stroke="#333333" stroke-width="2" stroke-linecap="round" stroke-linejoin="round"/>
<path d="M932.783 609.833C931.761 610.421 930.63 610.916 929.437 611.335L928.616 626.105C929.375 625.811 930.088 625.47 930.754 625.083C932.241 624.216 933.325 623.194 934.007 622.126L935.803 607.464C935.029 608.315 934.022 609.121 932.783 609.833Z" fill="#FD780F" stroke="#333333" stroke-width="2" stroke-linecap="round" stroke-linejoin="round"/>
<path d="M927.811 587.042C927.811 587.042 928.91 587.429 929.995 588.25L927.811 587.042Z" fill="#F2F2F2"/>
<path d="M927.811 587.042C927.811 587.042 928.91 587.429 929.995 588.25" stroke="#333333" stroke-width="2" stroke-linecap="round" stroke-linejoin="round"/>
<path d="M912.585 615.946L911.621 614.413C911.598 614.376 911.629 614.33 911.674 614.336L921.381 615.733C921.445 615.742 921.486 615.806 921.465 615.865L921.347 616.193C921.336 616.224 921.317 616.252 921.292 616.274L914.781 622.029C914.749 622.058 914.766 622.11 914.809 622.116L918.542 622.653C918.605 622.662 918.668 622.643 918.715 622.603L919.342 622.057C919.367 622.035 919.406 622.041 919.424 622.068L920.38 623.587C920.403 623.624 920.371 623.67 920.327 623.664L910.616 622.266C910.552 622.257 910.511 622.193 910.533 622.134L910.648 621.817C910.659 621.786 910.678 621.758 910.702 621.737L917.245 615.975C917.277 615.946 917.26 615.894 917.217 615.888L913.509 615.355C913.446 615.346 913.382 615.364 913.336 615.404L912.667 615.958C912.642 615.979 912.603 615.973 912.586 615.946L912.585 615.946Z" fill="white"/>
<path d="M889.117 569.036H857.797L861.05 603.469C861.05 605.327 862.258 607.17 864.705 608.578C869.569 611.381 877.422 611.381 882.255 608.578C884.687 607.17 885.88 605.312 885.864 603.469L889.117 569.036Z" fill="#F2F2F2" stroke="#333333" stroke-width="2" stroke-linecap="round" stroke-linejoin="round"/>
<path d="M890.465 564.933V569.392C890.465 571.9 888.807 574.393 885.524 576.297C878.909 580.137 868.144 580.152 861.468 576.297C858.122 574.362 856.434 571.823 856.449 569.284V564.825C856.449 567.364 858.122 569.903 861.468 571.838C868.129 575.678 878.894 575.678 885.524 571.838C888.807 569.934 890.465 567.426 890.465 564.933Z" fill="#F2F2F2" stroke="#333333" stroke-width="2" stroke-linecap="round" stroke-linejoin="round"/>
<path d="M885.446 557.919C892.107 561.759 892.138 567.999 885.524 571.838C878.909 575.678 868.144 575.693 861.468 571.838C854.807 567.999 854.776 561.759 861.391 557.904C868.005 554.049 878.77 554.064 885.446 557.904V557.919Z" fill="#F2F2F2" stroke="#333333" stroke-width="2" stroke-linecap="round" stroke-linejoin="round"/>
<path d="M861.407 582.939C860.136 582.196 859.099 581.376 858.309 580.509L860.105 595.171C860.802 596.27 861.902 597.307 863.436 598.205C868.346 601.038 875.905 601.379 881.419 599.227L882.24 584.457C875.688 586.717 867.091 586.222 861.422 582.955L861.407 582.939Z" fill="#FD780F" stroke="#333333" stroke-width="2" stroke-linecap="round" stroke-linejoin="round"/>
<path d="M885.57 582.939C884.548 583.527 883.417 584.023 882.224 584.441L881.403 599.211C882.162 598.917 882.875 598.577 883.541 598.19C885.028 597.322 886.112 596.301 886.794 595.232L888.591 580.57C887.816 581.422 886.809 582.227 885.57 582.939Z" fill="#FD780F" stroke="#333333" stroke-width="2" stroke-linecap="round" stroke-linejoin="round"/>
<path d="M880.613 560.149C880.613 560.149 881.713 560.536 882.797 561.357L880.613 560.149Z" fill="#F2F2F2"/>
<path d="M880.613 560.149C880.613 560.149 881.713 560.536 882.797 561.357" stroke="#333333" stroke-width="2" stroke-linecap="round" stroke-linejoin="round"/>
<path d="M866.105 589.617L865.141 588.085C865.117 588.048 865.149 588.001 865.194 588.008L874.9 589.404C874.965 589.414 875.006 589.477 874.984 589.537L874.867 589.864C874.855 589.896 874.837 589.923 874.812 589.945L868.301 595.701C868.268 595.729 868.285 595.781 868.329 595.787L872.062 596.324C872.125 596.333 872.188 596.315 872.234 596.274L872.862 595.728C872.887 595.706 872.926 595.712 872.943 595.74L873.899 597.259C873.922 597.296 873.891 597.342 873.847 597.335L864.136 595.938C864.071 595.928 864.031 595.864 864.052 595.805L864.167 595.488C864.179 595.457 864.197 595.43 864.222 595.408L870.765 589.646C870.797 589.618 870.78 589.566 870.736 589.56L867.029 589.026C866.966 589.017 866.902 589.035 866.855 589.076L866.187 589.629C866.162 589.651 866.123 589.645 866.105 589.617L866.105 589.617Z" fill="white"/>
</g>
<defs>
<clipPath id="clip0_40_603">
<rect width="1080" height="740" rx="20" fill="white"/>
</clipPath>
</defs>
</svg>
