<svg width="1080" height="740" viewBox="0 0 1080 740" fill="none" xmlns="http://www.w3.org/2000/svg">
<g clip-path="url(#clip0_40_542)">
<path d="M911.035 364.743L910.787 448.906L853.289 415.727L853.521 331.548L911.035 364.743Z" fill="#E6E6E6" stroke="#333333" stroke-width="2" stroke-linecap="round" stroke-linejoin="round"/>
<path d="M900.78 424.723L863.527 403.217" stroke="#333333" stroke-width="2" stroke-linecap="round" stroke-linejoin="round"/>
<path d="M900.78 412.847L863.527 391.342" stroke="#333333" stroke-width="2" stroke-linecap="round" stroke-linejoin="round"/>
<path d="M900.78 400.972L863.527 379.482" stroke="#333333" stroke-width="2" stroke-linecap="round" stroke-linejoin="round"/>
<path d="M900.78 389.113L863.527 367.607" stroke="#333333" stroke-width="2" stroke-linecap="round" stroke-linejoin="round"/>
<path d="M900.78 377.238L863.527 355.732" stroke="#333333" stroke-width="2" stroke-linecap="round" stroke-linejoin="round"/>
<path d="M977.222 402.939L976.99 487.102L919.477 453.923L919.724 369.744L977.222 402.939Z" fill="#E6E6E6" stroke="#333333" stroke-width="2" stroke-linecap="round" stroke-linejoin="round"/>
<path d="M966.983 462.918L929.73 441.413" stroke="#333333" stroke-width="2" stroke-linecap="round" stroke-linejoin="round"/>
<path d="M966.983 451.043L929.73 429.553" stroke="#333333" stroke-width="2" stroke-linecap="round" stroke-linejoin="round"/>
<path d="M966.983 439.183L929.73 417.678" stroke="#333333" stroke-width="2" stroke-linecap="round" stroke-linejoin="round"/>
<path d="M966.983 427.308L929.73 405.803" stroke="#333333" stroke-width="2" stroke-linecap="round" stroke-linejoin="round"/>
<path d="M966.983 415.433L929.73 393.943" stroke="#333333" stroke-width="2" stroke-linecap="round" stroke-linejoin="round"/>
<path d="M1043.43 441.134L1043.18 525.313L985.664 492.118L985.912 407.939L1043.43 441.134Z" fill="#E6E6E6" stroke="#333333" stroke-width="2" stroke-linecap="round" stroke-linejoin="round"/>
<path d="M1033.17 501.114L995.919 479.624" stroke="#333333" stroke-width="2" stroke-linecap="round" stroke-linejoin="round"/>
<path d="M1033.17 489.239L995.919 467.749" stroke="#333333" stroke-width="2" stroke-linecap="round" stroke-linejoin="round"/>
<path d="M1033.17 477.379L995.919 455.874" stroke="#333333" stroke-width="2" stroke-linecap="round" stroke-linejoin="round"/>
<path d="M1033.17 465.504L995.919 444.014" stroke="#333333" stroke-width="2" stroke-linecap="round" stroke-linejoin="round"/>
<path d="M1033.17 453.629L995.919 432.139" stroke="#333333" stroke-width="2" stroke-linecap="round" stroke-linejoin="round"/>
</g>
<defs>
<clipPath id="clip0_40_542">
<rect width="1080" height="740" rx="20" fill="white"/>
</clipPath>
</defs>
</svg>
