<svg width="80" height="47" viewBox="0 0 80 47" fill="none" xmlns="http://www.w3.org/2000/svg">
<mask id="path-1-outside-1_99_320" maskUnits="userSpaceOnUse" x="-1" y="8" width="81" height="35" fill="black">
<rect fill="white" x="-1" y="8" width="81" height="35"/>
<path d="M20.8898 33.912H32.0138V39.6H1.80977V33.912H12.9338V28.944H11.6378C9.86177 28.944 8.31377 28.548 6.99377 27.756C5.67377 26.964 4.66577 25.884 3.96977 24.516C3.27377 23.148 2.92577 21.624 2.92577 19.944C2.92577 18.288 3.27377 16.776 3.96977 15.408C4.66577 14.04 5.67377 12.96 6.99377 12.168C8.31377 11.376 9.86177 10.98 11.6378 10.98H22.1858C23.9618 10.98 25.4978 11.376 26.7938 12.168C28.1138 12.96 29.1218 14.04 29.8178 15.408C30.5138 16.776 30.8618 18.288 30.8618 19.944C30.8618 21.624 30.5138 23.148 29.8178 24.516C29.1218 25.884 28.1138 26.964 26.7938 27.756C25.4978 28.548 23.9618 28.944 22.1858 28.944H20.8898V33.912ZM24.2018 21.636V20.376L10.0538 23.076V24.336L24.2018 21.636ZM24.2018 16.956V15.696L10.0538 18.396V19.656L24.2018 16.956ZM68.2452 15.552V21.24H64.6812V26.244H57.5532V10.872H64.6812V15.552H68.2452ZM36.3492 11.268H53.8092V16.74H43.2612V20.52H54.9612V25.992H36.3492V11.268ZM37.8252 27.936H44.8812V36.36H57.6252V27.936H64.6812V40.68H37.8252V27.936ZM46.8612 32.148L55.6812 30.78V32.22L46.8612 33.588V32.148ZM77.0723 38.988H70.5563V33.372H77.0723V38.988ZM77.6483 12.564L76.5323 31.32H71.0603L70.1243 12.564H77.6483Z"/>
</mask>
<path d="M20.8898 33.912H32.0138V39.6H1.80977V33.912H12.9338V28.944H11.6378C9.86177 28.944 8.31377 28.548 6.99377 27.756C5.67377 26.964 4.66577 25.884 3.96977 24.516C3.27377 23.148 2.92577 21.624 2.92577 19.944C2.92577 18.288 3.27377 16.776 3.96977 15.408C4.66577 14.04 5.67377 12.96 6.99377 12.168C8.31377 11.376 9.86177 10.98 11.6378 10.98H22.1858C23.9618 10.98 25.4978 11.376 26.7938 12.168C28.1138 12.96 29.1218 14.04 29.8178 15.408C30.5138 16.776 30.8618 18.288 30.8618 19.944C30.8618 21.624 30.5138 23.148 29.8178 24.516C29.1218 25.884 28.1138 26.964 26.7938 27.756C25.4978 28.548 23.9618 28.944 22.1858 28.944H20.8898V33.912ZM24.2018 21.636V20.376L10.0538 23.076V24.336L24.2018 21.636ZM24.2018 16.956V15.696L10.0538 18.396V19.656L24.2018 16.956ZM68.2452 15.552V21.24H64.6812V26.244H57.5532V10.872H64.6812V15.552H68.2452ZM36.3492 11.268H53.8092V16.74H43.2612V20.52H54.9612V25.992H36.3492V11.268ZM37.8252 27.936H44.8812V36.36H57.6252V27.936H64.6812V40.68H37.8252V27.936ZM46.8612 32.148L55.6812 30.78V32.22L46.8612 33.588V32.148ZM77.0723 38.988H70.5563V33.372H77.0723V38.988ZM77.6483 12.564L76.5323 31.32H71.0603L70.1243 12.564H77.6483Z" fill="black"/>
<path d="M20.8898 33.912H18.8898V35.912H20.8898V33.912ZM32.0138 33.912H34.0138V31.912H32.0138V33.912ZM32.0138 39.6V41.6H34.0138V39.6H32.0138ZM1.80977 39.6H-0.190234V41.6H1.80977V39.6ZM1.80977 33.912V31.912H-0.190234V33.912H1.80977ZM12.9338 33.912V35.912H14.9338V33.912H12.9338ZM12.9338 28.944H14.9338V26.944H12.9338V28.944ZM6.99377 27.756L5.96477 29.471L6.99377 27.756ZM3.96977 24.516L2.18721 25.4229H2.18721L3.96977 24.516ZM6.99377 12.168L5.96477 10.453L5.96477 10.453L6.99377 12.168ZM26.7938 12.168L25.7509 13.8746L25.7578 13.8788L25.7648 13.883L26.7938 12.168ZM29.8178 15.408L31.6003 14.5011L31.6003 14.5011L29.8178 15.408ZM29.8178 24.516L31.6003 25.4229L31.6003 25.4229L29.8178 24.516ZM26.7938 27.756L25.7648 26.041L25.7578 26.0452L25.7509 26.0494L26.7938 27.756ZM20.8898 28.944V26.944H18.8898V28.944H20.8898ZM24.2018 21.636L24.5767 23.6005L26.2018 23.2904V21.636H24.2018ZM24.2018 20.376H26.2018V17.9582L23.8269 18.4115L24.2018 20.376ZM10.0538 23.076L9.67885 21.1115L8.05377 21.4216V23.076H10.0538ZM10.0538 24.336H8.05377V26.7538L10.4287 26.3005L10.0538 24.336ZM24.2018 16.956L24.5767 18.9205L26.2018 18.6104V16.956H24.2018ZM24.2018 15.696H26.2018V13.2782L23.8269 13.7315L24.2018 15.696ZM10.0538 18.396L9.67885 16.4315L8.05377 16.7416V18.396H10.0538ZM10.0538 19.656H8.05377V22.0738L10.4287 21.6205L10.0538 19.656ZM20.8898 35.912H32.0138V31.912H20.8898V35.912ZM30.0138 33.912V39.6H34.0138V33.912H30.0138ZM32.0138 37.6H1.80977V41.6H32.0138V37.6ZM3.80977 39.6V33.912H-0.190234V39.6H3.80977ZM1.80977 35.912H12.9338V31.912H1.80977V35.912ZM14.9338 33.912V28.944H10.9338V33.912H14.9338ZM12.9338 26.944H11.6378V30.944H12.9338V26.944ZM11.6378 26.944C10.1676 26.944 8.9867 26.6194 8.02276 26.041L5.96477 29.471C7.64083 30.4766 9.55592 30.944 11.6378 30.944V26.944ZM8.02276 26.041C7.02384 25.4417 6.27747 24.6413 5.75232 23.6091L2.18721 25.4229C3.05406 27.1267 4.32369 28.4863 5.96477 29.471L8.02276 26.041ZM5.75232 23.6091C5.21241 22.5479 4.92577 21.3391 4.92577 19.944H0.925766C0.925766 21.9089 1.33512 23.7481 2.18721 25.4229L5.75232 23.6091ZM4.92577 19.944C4.92577 18.5778 5.21036 17.3801 5.75232 16.3149L2.18721 14.5011C1.33717 16.1719 0.925766 17.9982 0.925766 19.944H4.92577ZM5.75232 16.3149C6.27747 15.2827 7.02384 14.4823 8.02276 13.883L5.96477 10.453C4.32369 11.4377 3.05406 12.7973 2.18721 14.5011L5.75232 16.3149ZM8.02276 13.883C8.9867 13.3046 10.1676 12.98 11.6378 12.98V8.98C9.55592 8.98 7.64083 9.44738 5.96477 10.453L8.02276 13.883ZM11.6378 12.98H22.1858V8.98H11.6378V12.98ZM22.1858 12.98C23.657 12.98 24.8188 13.3049 25.7509 13.8746L27.8367 10.4614C26.1768 9.44706 24.2666 8.98 22.1858 8.98V12.98ZM25.7648 13.883C26.7637 14.4823 27.5101 15.2827 28.0352 16.3149L31.6003 14.5011C30.7335 12.7973 29.4638 11.4377 27.8228 10.453L25.7648 13.883ZM28.0352 16.3149C28.5772 17.3801 28.8618 18.5778 28.8618 19.944H32.8618C32.8618 17.9982 32.4504 16.1719 31.6003 14.5011L28.0352 16.3149ZM28.8618 19.944C28.8618 21.3391 28.5751 22.5479 28.0352 23.6091L31.6003 25.4229C32.4524 23.7481 32.8618 21.9089 32.8618 19.944H28.8618ZM28.0352 23.6091C27.5101 24.6413 26.7637 25.4417 25.7648 26.041L27.8228 29.471C29.4638 28.4863 30.7335 27.1267 31.6003 25.4229L28.0352 23.6091ZM25.7509 26.0494C24.8188 26.6191 23.657 26.944 22.1858 26.944V30.944C24.2666 30.944 26.1768 30.4769 27.8367 29.4626L25.7509 26.0494ZM22.1858 26.944H20.8898V30.944H22.1858V26.944ZM18.8898 28.944V33.912H22.8898V28.944H18.8898ZM26.2018 21.636V20.376H22.2018V21.636H26.2018ZM23.8269 18.4115L9.67885 21.1115L10.4287 25.0405L24.5767 22.3405L23.8269 18.4115ZM8.05377 23.076V24.336H12.0538V23.076H8.05377ZM10.4287 26.3005L24.5767 23.6005L23.8269 19.6715L9.67885 22.3715L10.4287 26.3005ZM26.2018 16.956V15.696H22.2018V16.956H26.2018ZM23.8269 13.7315L9.67885 16.4315L10.4287 20.3605L24.5767 17.6605L23.8269 13.7315ZM8.05377 18.396V19.656H12.0538V18.396H8.05377ZM10.4287 21.6205L24.5767 18.9205L23.8269 14.9915L9.67885 17.6915L10.4287 21.6205ZM68.2452 15.552H70.2452V13.552H68.2452V15.552ZM68.2452 21.24V23.24H70.2452V21.24H68.2452ZM64.6812 21.24V19.24H62.6812V21.24H64.6812ZM64.6812 26.244V28.244H66.6812V26.244H64.6812ZM57.5532 26.244H55.5532V28.244H57.5532V26.244ZM57.5532 10.872V8.872H55.5532V10.872H57.5532ZM64.6812 10.872H66.6812V8.872H64.6812V10.872ZM64.6812 15.552H62.6812V17.552H64.6812V15.552ZM36.3492 11.268V9.268H34.3492V11.268H36.3492ZM53.8092 11.268H55.8092V9.268H53.8092V11.268ZM53.8092 16.74V18.74H55.8092V16.74H53.8092ZM43.2612 16.74V14.74H41.2612V16.74H43.2612ZM43.2612 20.52H41.2612V22.52H43.2612V20.52ZM54.9612 20.52H56.9612V18.52H54.9612V20.52ZM54.9612 25.992V27.992H56.9612V25.992H54.9612ZM36.3492 25.992H34.3492V27.992H36.3492V25.992ZM37.8252 27.936V25.936H35.8252V27.936H37.8252ZM44.8812 27.936H46.8812V25.936H44.8812V27.936ZM44.8812 36.36H42.8812V38.36H44.8812V36.36ZM57.6252 36.36V38.36H59.6252V36.36H57.6252ZM57.6252 27.936V25.936H55.6252V27.936H57.6252ZM64.6812 27.936H66.6812V25.936H64.6812V27.936ZM64.6812 40.68V42.68H66.6812V40.68H64.6812ZM37.8252 40.68H35.8252V42.68H37.8252V40.68ZM46.8612 32.148L46.5547 30.1716L44.8612 30.4343V32.148H46.8612ZM55.6812 30.78H57.6812V28.4459L55.3747 28.8036L55.6812 30.78ZM55.6812 32.22L55.9878 34.1964L57.6812 33.9337V32.22H55.6812ZM46.8612 33.588H44.8612V35.9221L47.1678 35.5644L46.8612 33.588ZM66.2452 15.552V21.24H70.2452V15.552H66.2452ZM68.2452 19.24H64.6812V23.24H68.2452V19.24ZM62.6812 21.24V26.244H66.6812V21.24H62.6812ZM64.6812 24.244H57.5532V28.244H64.6812V24.244ZM59.5532 26.244V10.872H55.5532V26.244H59.5532ZM57.5532 12.872H64.6812V8.872H57.5532V12.872ZM62.6812 10.872V15.552H66.6812V10.872H62.6812ZM64.6812 17.552H68.2452V13.552H64.6812V17.552ZM36.3492 13.268H53.8092V9.268H36.3492V13.268ZM51.8092 11.268V16.74H55.8092V11.268H51.8092ZM53.8092 14.74H43.2612V18.74H53.8092V14.74ZM41.2612 16.74V20.52H45.2612V16.74H41.2612ZM43.2612 22.52H54.9612V18.52H43.2612V22.52ZM52.9612 20.52V25.992H56.9612V20.52H52.9612ZM54.9612 23.992H36.3492V27.992H54.9612V23.992ZM38.3492 25.992V11.268H34.3492V25.992H38.3492ZM37.8252 29.936H44.8812V25.936H37.8252V29.936ZM42.8812 27.936V36.36H46.8812V27.936H42.8812ZM44.8812 38.36H57.6252V34.36H44.8812V38.36ZM59.6252 36.36V27.936H55.6252V36.36H59.6252ZM57.6252 29.936H64.6812V25.936H57.6252V29.936ZM62.6812 27.936V40.68H66.6812V27.936H62.6812ZM64.6812 38.68H37.8252V42.68H64.6812V38.68ZM39.8252 40.68V27.936H35.8252V40.68H39.8252ZM47.1678 34.1244L55.9878 32.7564L55.3747 28.8036L46.5547 30.1716L47.1678 34.1244ZM53.6812 30.78V32.22H57.6812V30.78H53.6812ZM55.3747 30.2436L46.5547 31.6116L47.1678 35.5644L55.9878 34.1964L55.3747 30.2436ZM48.8612 33.588V32.148H44.8612V33.588H48.8612ZM77.0723 38.988V40.988H79.0723V38.988H77.0723ZM70.5563 38.988H68.5563V40.988H70.5563V38.988ZM70.5563 33.372V31.372H68.5563V33.372H70.5563ZM77.0723 33.372H79.0723V31.372H77.0723V33.372ZM77.6483 12.564L79.6447 12.6828L79.7708 10.564H77.6483V12.564ZM76.5323 31.32V33.32H78.4168L78.5287 31.4388L76.5323 31.32ZM71.0603 31.32L69.0628 31.4197L69.1576 33.32H71.0603V31.32ZM70.1243 12.564V10.564H68.022L68.1268 12.6637L70.1243 12.564ZM77.0723 36.988H70.5563V40.988H77.0723V36.988ZM72.5563 38.988V33.372H68.5563V38.988H72.5563ZM70.5563 35.372H77.0723V31.372H70.5563V35.372ZM75.0723 33.372V38.988H79.0723V33.372H75.0723ZM75.6518 12.4452L74.5358 31.2012L78.5287 31.4388L79.6447 12.6828L75.6518 12.4452ZM76.5323 29.32H71.0603V33.32H76.5323V29.32ZM73.0578 31.2203L72.1218 12.4643L68.1268 12.6637L69.0628 31.4197L73.0578 31.2203ZM70.1243 14.564H77.6483V10.564H70.1243V14.564Z" fill="black" mask="url(#path-1-outside-1_99_320)"/>
<mask id="path-3-outside-2_99_320" maskUnits="userSpaceOnUse" x="-1" y="4" width="81" height="35" fill="black">
<rect fill="white" x="-1" y="4" width="81" height="35"/>
<path d="M20.8898 29.912H32.0138V35.6H1.80977V29.912H12.9338V24.944H11.6378C9.86177 24.944 8.31377 24.548 6.99377 23.756C5.67377 22.964 4.66577 21.884 3.96977 20.516C3.27377 19.148 2.92577 17.624 2.92577 15.944C2.92577 14.288 3.27377 12.776 3.96977 11.408C4.66577 10.04 5.67377 8.96 6.99377 8.168C8.31377 7.376 9.86177 6.98 11.6378 6.98H22.1858C23.9618 6.98 25.4978 7.376 26.7938 8.168C28.1138 8.96 29.1218 10.04 29.8178 11.408C30.5138 12.776 30.8618 14.288 30.8618 15.944C30.8618 17.624 30.5138 19.148 29.8178 20.516C29.1218 21.884 28.1138 22.964 26.7938 23.756C25.4978 24.548 23.9618 24.944 22.1858 24.944H20.8898V29.912ZM24.2018 17.636V16.376L10.0538 19.076V20.336L24.2018 17.636ZM24.2018 12.956V11.696L10.0538 14.396V15.656L24.2018 12.956ZM68.2452 11.552V17.24H64.6812V22.244H57.5532V6.872H64.6812V11.552H68.2452ZM36.3492 7.268H53.8092V12.74H43.2612V16.52H54.9612V21.992H36.3492V7.268ZM37.8252 23.936H44.8812V32.36H57.6252V23.936H64.6812V36.68H37.8252V23.936ZM46.8612 28.148L55.6812 26.78V28.22L46.8612 29.588V28.148ZM77.0723 34.988H70.5563V29.372H77.0723V34.988ZM77.6483 8.564L76.5323 27.32H71.0603L70.1243 8.564H77.6483Z"/>
</mask>
<path d="M20.8898 29.912H32.0138V35.6H1.80977V29.912H12.9338V24.944H11.6378C9.86177 24.944 8.31377 24.548 6.99377 23.756C5.67377 22.964 4.66577 21.884 3.96977 20.516C3.27377 19.148 2.92577 17.624 2.92577 15.944C2.92577 14.288 3.27377 12.776 3.96977 11.408C4.66577 10.04 5.67377 8.96 6.99377 8.168C8.31377 7.376 9.86177 6.98 11.6378 6.98H22.1858C23.9618 6.98 25.4978 7.376 26.7938 8.168C28.1138 8.96 29.1218 10.04 29.8178 11.408C30.5138 12.776 30.8618 14.288 30.8618 15.944C30.8618 17.624 30.5138 19.148 29.8178 20.516C29.1218 21.884 28.1138 22.964 26.7938 23.756C25.4978 24.548 23.9618 24.944 22.1858 24.944H20.8898V29.912ZM24.2018 17.636V16.376L10.0538 19.076V20.336L24.2018 17.636ZM24.2018 12.956V11.696L10.0538 14.396V15.656L24.2018 12.956ZM68.2452 11.552V17.24H64.6812V22.244H57.5532V6.872H64.6812V11.552H68.2452ZM36.3492 7.268H53.8092V12.74H43.2612V16.52H54.9612V21.992H36.3492V7.268ZM37.8252 23.936H44.8812V32.36H57.6252V23.936H64.6812V36.68H37.8252V23.936ZM46.8612 28.148L55.6812 26.78V28.22L46.8612 29.588V28.148ZM77.0723 34.988H70.5563V29.372H77.0723V34.988ZM77.6483 8.564L76.5323 27.32H71.0603L70.1243 8.564H77.6483Z" fill="white"/>
<path d="M20.8898 29.912H18.8898V31.912H20.8898V29.912ZM32.0138 29.912H34.0138V27.912H32.0138V29.912ZM32.0138 35.6V37.6H34.0138V35.6H32.0138ZM1.80977 35.6H-0.190234V37.6H1.80977V35.6ZM1.80977 29.912V27.912H-0.190234V29.912H1.80977ZM12.9338 29.912V31.912H14.9338V29.912H12.9338ZM12.9338 24.944H14.9338V22.944H12.9338V24.944ZM6.99377 23.756L5.96477 25.471L6.99377 23.756ZM3.96977 20.516L2.18721 21.4229H2.18721L3.96977 20.516ZM6.99377 8.168L5.96477 6.45301L5.96477 6.45301L6.99377 8.168ZM26.7938 8.168L25.7509 9.87456L25.7578 9.8788L25.7648 9.88298L26.7938 8.168ZM29.8178 11.408L31.6003 10.5011L31.6003 10.5011L29.8178 11.408ZM29.8178 20.516L31.6003 21.4229L31.6003 21.4229L29.8178 20.516ZM26.7938 23.756L25.7648 22.041L25.7578 22.0452L25.7509 22.0494L26.7938 23.756ZM20.8898 24.944V22.944H18.8898V24.944H20.8898ZM24.2018 17.636L24.5767 19.6005L26.2018 19.2904V17.636H24.2018ZM24.2018 16.376H26.2018V13.9582L23.8269 14.4115L24.2018 16.376ZM10.0538 19.076L9.67885 17.1115L8.05377 17.4216V19.076H10.0538ZM10.0538 20.336H8.05377V22.7538L10.4287 22.3005L10.0538 20.336ZM24.2018 12.956L24.5767 14.9205L26.2018 14.6104V12.956H24.2018ZM24.2018 11.696H26.2018V9.27823L23.8269 9.73145L24.2018 11.696ZM10.0538 14.396L9.67885 12.4315L8.05377 12.7416V14.396H10.0538ZM10.0538 15.656H8.05377V18.0738L10.4287 17.6205L10.0538 15.656ZM20.8898 31.912H32.0138V27.912H20.8898V31.912ZM30.0138 29.912V35.6H34.0138V29.912H30.0138ZM32.0138 33.6H1.80977V37.6H32.0138V33.6ZM3.80977 35.6V29.912H-0.190234V35.6H3.80977ZM1.80977 31.912H12.9338V27.912H1.80977V31.912ZM14.9338 29.912V24.944H10.9338V29.912H14.9338ZM12.9338 22.944H11.6378V26.944H12.9338V22.944ZM11.6378 22.944C10.1676 22.944 8.9867 22.6194 8.02276 22.041L5.96477 25.471C7.64083 26.4766 9.55592 26.944 11.6378 26.944V22.944ZM8.02276 22.041C7.02384 21.4417 6.27747 20.6413 5.75232 19.6091L2.18721 21.4229C3.05406 23.1267 4.32369 24.4863 5.96477 25.471L8.02276 22.041ZM5.75232 19.6091C5.21241 18.5479 4.92577 17.3391 4.92577 15.944H0.925766C0.925766 17.9089 1.33512 19.7481 2.18721 21.4229L5.75232 19.6091ZM4.92577 15.944C4.92577 14.5778 5.21036 13.3801 5.75232 12.3149L2.18721 10.5011C1.33717 12.1719 0.925766 13.9982 0.925766 15.944H4.92577ZM5.75232 12.3149C6.27747 11.2827 7.02384 10.4823 8.02276 9.88298L5.96477 6.45301C4.32369 7.43766 3.05406 8.79727 2.18721 10.5011L5.75232 12.3149ZM8.02276 9.88298C8.9867 9.30462 10.1676 8.98 11.6378 8.98V4.98C9.55592 4.98 7.64083 5.44738 5.96477 6.45301L8.02276 9.88298ZM11.6378 8.98H22.1858V4.98H11.6378V8.98ZM22.1858 8.98C23.657 8.98 24.8188 9.30494 25.7509 9.87456L27.8367 6.46143C26.1768 5.44706 24.2666 4.98 22.1858 4.98V8.98ZM25.7648 9.88298C26.7637 10.4823 27.5101 11.2827 28.0352 12.3149L31.6003 10.5011C30.7335 8.79727 29.4638 7.43766 27.8228 6.45301L25.7648 9.88298ZM28.0352 12.3149C28.5772 13.3801 28.8618 14.5778 28.8618 15.944H32.8618C32.8618 13.9982 32.4504 12.1719 31.6003 10.5011L28.0352 12.3149ZM28.8618 15.944C28.8618 17.3391 28.5751 18.5479 28.0352 19.6091L31.6003 21.4229C32.4524 19.7481 32.8618 17.9089 32.8618 15.944H28.8618ZM28.0352 19.6091C27.5101 20.6413 26.7637 21.4417 25.7648 22.041L27.8228 25.471C29.4638 24.4863 30.7335 23.1267 31.6003 21.4229L28.0352 19.6091ZM25.7509 22.0494C24.8188 22.6191 23.657 22.944 22.1858 22.944V26.944C24.2666 26.944 26.1768 26.4769 27.8367 25.4626L25.7509 22.0494ZM22.1858 22.944H20.8898V26.944H22.1858V22.944ZM18.8898 24.944V29.912H22.8898V24.944H18.8898ZM26.2018 17.636V16.376H22.2018V17.636H26.2018ZM23.8269 14.4115L9.67885 17.1115L10.4287 21.0405L24.5767 18.3405L23.8269 14.4115ZM8.05377 19.076V20.336H12.0538V19.076H8.05377ZM10.4287 22.3005L24.5767 19.6005L23.8269 15.6715L9.67885 18.3715L10.4287 22.3005ZM26.2018 12.956V11.696H22.2018V12.956H26.2018ZM23.8269 9.73145L9.67885 12.4315L10.4287 16.3605L24.5767 13.6605L23.8269 9.73145ZM8.05377 14.396V15.656H12.0538V14.396H8.05377ZM10.4287 17.6205L24.5767 14.9205L23.8269 10.9915L9.67885 13.6915L10.4287 17.6205ZM68.2452 11.552H70.2452V9.552H68.2452V11.552ZM68.2452 17.24V19.24H70.2452V17.24H68.2452ZM64.6812 17.24V15.24H62.6812V17.24H64.6812ZM64.6812 22.244V24.244H66.6812V22.244H64.6812ZM57.5532 22.244H55.5532V24.244H57.5532V22.244ZM57.5532 6.872V4.872H55.5532V6.872H57.5532ZM64.6812 6.872H66.6812V4.872H64.6812V6.872ZM64.6812 11.552H62.6812V13.552H64.6812V11.552ZM36.3492 7.268V5.268H34.3492V7.268H36.3492ZM53.8092 7.268H55.8092V5.268H53.8092V7.268ZM53.8092 12.74V14.74H55.8092V12.74H53.8092ZM43.2612 12.74V10.74H41.2612V12.74H43.2612ZM43.2612 16.52H41.2612V18.52H43.2612V16.52ZM54.9612 16.52H56.9612V14.52H54.9612V16.52ZM54.9612 21.992V23.992H56.9612V21.992H54.9612ZM36.3492 21.992H34.3492V23.992H36.3492V21.992ZM37.8252 23.936V21.936H35.8252V23.936H37.8252ZM44.8812 23.936H46.8812V21.936H44.8812V23.936ZM44.8812 32.36H42.8812V34.36H44.8812V32.36ZM57.6252 32.36V34.36H59.6252V32.36H57.6252ZM57.6252 23.936V21.936H55.6252V23.936H57.6252ZM64.6812 23.936H66.6812V21.936H64.6812V23.936ZM64.6812 36.68V38.68H66.6812V36.68H64.6812ZM37.8252 36.68H35.8252V38.68H37.8252V36.68ZM46.8612 28.148L46.5547 26.1716L44.8612 26.4343V28.148H46.8612ZM55.6812 26.78H57.6812V24.4459L55.3747 24.8036L55.6812 26.78ZM55.6812 28.22L55.9878 30.1964L57.6812 29.9337V28.22H55.6812ZM46.8612 29.588H44.8612V31.9221L47.1678 31.5644L46.8612 29.588ZM66.2452 11.552V17.24H70.2452V11.552H66.2452ZM68.2452 15.24H64.6812V19.24H68.2452V15.24ZM62.6812 17.24V22.244H66.6812V17.24H62.6812ZM64.6812 20.244H57.5532V24.244H64.6812V20.244ZM59.5532 22.244V6.872H55.5532V22.244H59.5532ZM57.5532 8.872H64.6812V4.872H57.5532V8.872ZM62.6812 6.872V11.552H66.6812V6.872H62.6812ZM64.6812 13.552H68.2452V9.552H64.6812V13.552ZM36.3492 9.268H53.8092V5.268H36.3492V9.268ZM51.8092 7.268V12.74H55.8092V7.268H51.8092ZM53.8092 10.74H43.2612V14.74H53.8092V10.74ZM41.2612 12.74V16.52H45.2612V12.74H41.2612ZM43.2612 18.52H54.9612V14.52H43.2612V18.52ZM52.9612 16.52V21.992H56.9612V16.52H52.9612ZM54.9612 19.992H36.3492V23.992H54.9612V19.992ZM38.3492 21.992V7.268H34.3492V21.992H38.3492ZM37.8252 25.936H44.8812V21.936H37.8252V25.936ZM42.8812 23.936V32.36H46.8812V23.936H42.8812ZM44.8812 34.36H57.6252V30.36H44.8812V34.36ZM59.6252 32.36V23.936H55.6252V32.36H59.6252ZM57.6252 25.936H64.6812V21.936H57.6252V25.936ZM62.6812 23.936V36.68H66.6812V23.936H62.6812ZM64.6812 34.68H37.8252V38.68H64.6812V34.68ZM39.8252 36.68V23.936H35.8252V36.68H39.8252ZM47.1678 30.1244L55.9878 28.7564L55.3747 24.8036L46.5547 26.1716L47.1678 30.1244ZM53.6812 26.78V28.22H57.6812V26.78H53.6812ZM55.3747 26.2436L46.5547 27.6116L47.1678 31.5644L55.9878 30.1964L55.3747 26.2436ZM48.8612 29.588V28.148H44.8612V29.588H48.8612ZM77.0723 34.988V36.988H79.0723V34.988H77.0723ZM70.5563 34.988H68.5563V36.988H70.5563V34.988ZM70.5563 29.372V27.372H68.5563V29.372H70.5563ZM77.0723 29.372H79.0723V27.372H77.0723V29.372ZM77.6483 8.564L79.6447 8.68279L79.7708 6.564H77.6483V8.564ZM76.5323 27.32V29.32H78.4168L78.5287 27.4388L76.5323 27.32ZM71.0603 27.32L69.0628 27.4197L69.1576 29.32H71.0603V27.32ZM70.1243 8.564V6.564H68.022L68.1268 8.66368L70.1243 8.564ZM77.0723 32.988H70.5563V36.988H77.0723V32.988ZM72.5563 34.988V29.372H68.5563V34.988H72.5563ZM70.5563 31.372H77.0723V27.372H70.5563V31.372ZM75.0723 29.372V34.988H79.0723V29.372H75.0723ZM75.6518 8.44521L74.5358 27.2012L78.5287 27.4388L79.6447 8.68279L75.6518 8.44521ZM76.5323 25.32H71.0603V29.32H76.5323V25.32ZM73.0578 27.2203L72.1218 8.46432L68.1268 8.66368L69.0628 27.4197L73.0578 27.2203ZM70.1243 10.564H77.6483V6.564H70.1243V10.564Z" fill="black" mask="url(#path-3-outside-2_99_320)"/>
</svg>
