<svg width="132" height="167" viewBox="0 0 132 167" fill="none" xmlns="http://www.w3.org/2000/svg">
<g clip-path="url(#clip0_4_1612)">
<path d="M43.8499 7.1214C41.5699 7.00455 39.2899 6.87797 37.0099 6.76113C34.7299 6.64429 32.4499 6.4885 30.1699 6.37166C28.0399 6.26455 25.9399 6.40087 23.8799 6.91692C21.9899 7.39403 20.3399 8.21192 18.8799 9.46797C17.4199 10.724 16.3399 12.243 15.3199 13.8301C14.0699 15.7677 12.9999 17.754 12.2999 19.9156C11.5999 22.0869 11.0899 24.2972 10.9199 26.5756C10.7499 28.854 11.0499 31.0935 11.4199 33.3427C11.7899 35.5919 12.2499 37.8119 13.1499 39.9053C14.0499 41.9988 15.0699 44.0727 16.4799 45.8935" fill="#333333"/>
<path d="M43.8499 5.66088C38.9999 5.40772 34.1199 4.95983 29.2599 4.87219C24.9299 4.7943 20.5399 5.83614 17.3599 8.83509C14.4299 11.6101 12.1799 15.5632 10.9099 19.3217C9.39989 23.7811 9.11989 28.2017 9.81989 32.8267C10.5599 37.7535 12.0999 42.5732 15.1699 46.6238C16.2999 48.1232 18.9099 46.6627 17.7599 45.1535C15.3299 41.9501 13.8199 38.1917 13.0899 34.2969C12.2999 30.1393 12.1099 26.1667 13.2199 22.048C14.1899 18.4064 16.0099 14.8232 18.5099 11.9314C21.1299 8.89351 24.8199 7.80298 28.8099 7.79325C33.8099 7.79325 38.8599 8.31904 43.8599 8.58193C45.7899 8.6793 45.7799 5.75825 43.8599 5.66088H43.8499Z" fill="#333333"/>
<path d="M39.46 150.243C39.5266 152.736 39.59 155.225 39.65 157.711C39.75 161.45 40.03 161.441 40.13 165.18C40.23 168.918 39.86 168.928 39.96 172.667C40.06 176.406 40.16 176.406 40.25 180.145C40.35 183.884 40.07 183.894 40.17 187.623C40.27 191.352 40.52 191.352 40.62 195.091C40.72 198.83 40.54 198.84 40.64 202.579C40.67 203.552 41.53 204.448 42.35 204.448C46.09 204.448 46.09 204.37 49.82 204.38C53.56 204.38 53.56 204.575 57.3 204.585C61.04 204.594 61.04 204.526 64.78 204.536C65.61 204.536 66.14 203.562 66.14 202.569C66.14 199.239 66.2 199.239 66.2 195.909C66.2 192.579 66.52 192.579 66.52 189.249C66.52 185.919 66.45 185.919 66.46 182.589C66.46 179.259 66.55 179.259 66.56 175.929C66.56 172.599 66.25 172.599 66.26 169.269C66.26 165.939 66.48 165.939 66.49 162.609C66.49 159.279 66.61 159.279 66.61 155.939C66.61 152.6 66.66 152.609 66.67 149.27" fill="#95BECE"/>
<path d="M37.9601 150.243C38.0701 154.547 38.2501 158.821 38.5401 163.115C38.6901 165.394 38.6001 167.623 38.4801 169.892C38.3601 172.132 38.5001 174.391 38.6201 176.63C38.8501 181.128 38.4601 185.627 38.7901 190.116C38.9501 192.306 39.1401 194.478 39.1501 196.678C39.1701 198.733 38.8901 200.894 39.1901 202.929C39.3701 204.127 40.1501 205.256 41.3501 205.695C42.5501 206.133 43.9901 205.909 45.2101 205.889C47.5101 205.85 49.8201 205.802 52.1201 205.88C54.4201 205.957 56.7801 206.055 59.1201 206.045C60.0501 206.045 60.9901 206.026 61.9201 206.016C63.0801 206.006 64.5701 206.24 65.6601 205.831C68.2301 204.877 67.6401 201.469 67.6801 199.356C67.7201 197.136 67.6601 194.906 67.8701 192.696C68.2801 188.275 67.9101 183.806 68.0301 179.376C68.1001 176.903 68.0801 174.459 67.8801 171.995C67.6801 169.532 67.8501 167.205 67.9601 164.8C68.2001 159.639 68.1801 154.44 68.1901 149.27C68.1901 147.39 65.2001 147.39 65.1901 149.27C65.1801 153.427 65.0501 157.585 65.0101 161.733C64.9901 163.836 64.8401 165.92 64.7901 168.023C64.7401 170.145 64.9601 172.219 65.0501 174.342C65.2201 178.568 64.9701 182.823 65.0201 187.058C65.0701 191.323 64.7301 195.578 64.6601 199.843C64.6601 200.281 64.6501 200.719 64.6401 201.147C64.6301 201.576 64.8301 202.501 64.5901 202.9C64.3801 203.26 64.4001 203.124 63.8801 203.075C63.6401 203.056 63.3601 203.075 63.1201 203.075C62.5501 203.075 61.9701 203.075 61.4001 203.095C59.1701 203.124 56.9401 203.163 54.7101 203.075C52.5901 202.997 50.4701 202.91 48.3501 202.92C47.4701 202.92 46.5901 202.939 45.7101 202.958C45.2501 202.958 44.7901 202.978 44.3201 202.978C43.8501 202.978 42.6801 203.192 42.3401 202.929C41.7901 202.481 42.0901 200.505 42.1001 199.804C42.1101 198.927 42.1401 198.041 42.1401 197.165C42.1401 195.062 42.0301 192.978 41.8401 190.885C41.4501 186.571 41.8401 182.248 41.6601 177.915C41.5601 175.578 41.3901 173.242 41.4301 170.905C41.4701 168.568 41.6801 166.28 41.5701 163.933C41.4601 161.587 41.1801 159.493 41.1201 157.263C41.0601 154.927 41.0001 152.58 40.9401 150.243C40.8901 148.364 37.8901 148.364 37.9401 150.243H37.9601Z" fill="#333333"/>
<path d="M64.5501 166.144C64.6101 169.795 64.3701 169.795 64.4301 173.446C64.4901 177.097 64.8201 177.088 64.8901 180.739C64.9501 184.39 65.0901 184.381 65.1501 188.032C65.2101 191.683 64.8501 191.693 64.9101 195.335C64.9701 198.976 64.8801 198.986 64.9401 202.637C64.9601 203.63 65.9201 204.497 66.7501 204.487C70.4901 204.429 70.4801 204.253 74.2201 204.195C77.9601 204.137 77.9701 204.477 81.7101 204.409C85.4501 204.341 85.4401 203.903 89.1801 203.835C89.9901 203.825 90.7001 203.231 90.7201 202.257C90.7701 198.655 90.4801 198.645 90.5301 195.042C90.5801 191.44 90.8101 191.44 90.8601 187.837C90.9101 184.235 90.8801 184.235 90.9301 180.622C90.9801 177.02 91.2101 177.02 91.2601 173.407C91.3101 169.805 90.9601 169.795 91.0001 166.192C91.0501 162.58 91.2301 162.59 91.2801 158.977C91.3301 155.365 91.3101 155.365 91.3601 151.762C91.3701 150.75 90.6801 150.058 89.8301 150.068C86.3401 150.097 86.3401 150.049 82.8401 150.068C79.3401 150.097 79.3401 150.204 75.8501 150.234C72.3601 150.263 72.3501 150.302 68.8501 150.321C65.3501 150.341 65.3501 150.263 61.8501 150.292" fill="#95BECE"/>
<path d="M63.0501 166.143C63.0901 168.655 62.8801 171.158 62.9301 173.67C62.9801 176.182 63.3301 178.675 63.3901 181.187C63.4501 183.699 63.6301 186.045 63.6501 188.48C63.6701 190.924 63.3801 193.338 63.4101 195.782C63.4401 198.119 63.1401 200.641 63.4701 202.958C63.6501 204.205 64.5201 205.373 65.7801 205.782C67.0401 206.191 68.5801 205.909 69.8601 205.84C72.3501 205.694 74.8501 205.558 77.3401 205.724C79.8401 205.889 82.3301 205.977 84.8201 205.675C85.8401 205.548 86.8601 205.402 87.8901 205.344C89.3701 205.266 90.8401 205.285 91.7301 203.922C92.4501 202.822 92.2401 201.293 92.1901 200.047C92.1501 199.015 92.0601 197.993 92.0301 196.96C91.9601 194.487 92.2001 192.053 92.3001 189.59C92.4101 187.136 92.3701 184.673 92.4001 182.219C92.4201 179.804 92.6201 177.419 92.7101 175.004C92.8001 172.589 92.5701 170.204 92.5001 167.789C92.4401 165.374 92.6601 162.979 92.7401 160.574C92.8201 158.169 92.8101 155.764 92.8301 153.359C92.8501 151.811 93.0001 150.204 91.5701 149.182C90.3501 148.315 88.6501 148.627 87.2301 148.617C84.4701 148.617 81.7101 148.617 78.9601 148.714C73.2601 148.929 67.5501 148.802 61.8401 148.841C59.9101 148.851 59.9101 151.772 61.8401 151.762C66.5101 151.733 71.1701 151.743 75.8401 151.704C78.1701 151.684 80.5001 151.558 82.8301 151.538C84.0401 151.528 85.2401 151.538 86.4501 151.538C86.9101 151.538 87.3701 151.538 87.8201 151.538C88.2701 151.538 89.5101 151.314 89.8401 151.538C90.0801 151.704 89.8201 154.031 89.8201 154.527C89.8201 155.482 89.8101 156.436 89.7901 157.39C89.7701 159.59 89.6501 161.781 89.5501 163.982C89.4401 166.309 89.5701 168.597 89.7001 170.914C89.8301 173.232 89.7001 175.384 89.5301 177.613C89.2001 182.17 89.5301 186.756 89.1901 191.323C89.0201 193.562 88.9501 195.812 89.0701 198.051C89.1201 198.918 89.1801 199.794 89.2001 200.66C89.2001 201.03 89.3901 202.082 89.1701 202.364C89.0301 202.54 87.3401 202.442 87.0301 202.462C84.6801 202.666 82.4201 202.988 80.0501 202.939C77.8001 202.89 75.5801 202.686 73.3201 202.744C72.2901 202.773 71.2601 202.822 70.2301 202.89C69.7801 202.919 69.3301 202.939 68.8801 202.958C68.3201 202.978 67.1801 203.221 66.7001 202.988C66.1001 202.705 66.4001 200.456 66.4001 199.833C66.4001 198.869 66.4201 197.905 66.4001 196.931C66.3801 194.361 66.5901 191.829 66.6201 189.268C66.6501 186.708 66.4301 184.147 66.3701 181.586C66.3101 179.006 65.9701 176.455 65.9101 173.874C65.8501 171.294 66.0601 168.704 66.0201 166.114C65.9901 164.235 62.9901 164.235 63.0201 166.114L63.0501 166.143Z" fill="#333333"/>
<path d="M95.8601 112.678C95.6601 111.461 95.1701 110.293 94.8401 109.076C94.3201 107.177 93.5701 105.347 92.7101 103.565C91.8501 101.783 90.9301 100.03 89.5101 98.6087C87.0201 96.1161 84.4001 95.5027 81.6001 95.3079C78.8001 95.1132 75.7801 95.5513 72.7001 94.9185C70.2301 94.4121 67.7201 94.0324 65.1701 94.0714C62.6101 94.1103 60.0501 94.2856 57.6101 94.9282C55.0701 95.5903 53.0801 97.1871 50.6801 98.1121C48.9401 98.784 47.3601 98.414 46.0601 99.8842C44.4001 101.763 43.5501 104.49 42.9401 107.294C42.3401 110.079 42.1101 112.98 41.7901 115.307C41.4901 117.547 40.9601 119.757 40.7201 121.997C40.4801 124.236 40.3501 126.495 40.1701 128.744C39.9901 130.993 39.9101 133.252 39.7901 135.502C39.6701 137.751 39.6601 140.01 39.6001 142.269C39.5401 144.528 39.4801 146.777 39.4901 149.036C39.4901 152.035 40.7201 153.184 42.5301 153.768C44.3401 154.352 46.4901 154.313 48.7901 154.43C51.3301 154.557 53.8501 154.985 56.3901 155.053C58.9301 155.121 61.4701 154.751 64.0101 154.761C66.3801 154.771 68.7501 154.683 71.1301 154.644C73.5001 154.605 75.8801 154.751 78.2501 154.664C80.6201 154.576 82.9901 154.226 85.3601 154.089C88.1801 154.089 91.1901 153.495 93.5001 151.86C95.8601 150.185 97.2201 147.663 97.4901 144.781C97.8001 141.49 98.7101 138.082 98.5901 134.771C98.5201 132.785 97.7301 131.071 97.4001 129.143C96.9301 126.398 96.7201 123.662 96.5301 120.916C96.3401 118.17 96.3101 115.405 95.8501 112.669L95.8601 112.678Z" fill="#FCFCFC"/>
<path d="M97.3101 112.289C96.6401 108.774 95.2401 105.259 93.6301 102.065C92.0801 98.9982 89.9201 96.2719 86.6001 94.9087C83.3901 93.5845 79.9401 93.8669 76.5401 93.8182C72.7101 93.7695 69.0301 92.5816 65.1701 92.6206C61.3101 92.6595 57.6001 93.0295 54.2301 94.714C52.8101 95.4248 51.4501 96.3595 49.9201 96.8464C48.4101 97.3235 46.8701 97.3137 45.5801 98.3361C43.0801 100.332 42.1401 103.974 41.5101 106.914C40.7501 110.439 40.5601 114.051 39.9201 117.605C38.5301 125.395 38.3001 133.428 38.1401 141.315C38.1001 143.087 38.0501 144.859 38.0201 146.631C38.0001 148.325 37.8401 150.146 38.4101 151.782C39.3301 154.381 41.8201 155.316 44.4201 155.637C46.1901 155.852 47.9701 155.832 49.7401 155.968C51.8001 156.124 53.8501 156.436 55.9101 156.523C57.8201 156.601 59.7201 156.436 61.6301 156.319C63.5301 156.212 65.4301 156.251 67.3301 156.212C71.2801 156.134 75.2601 156.348 79.2001 156.105C81.1001 155.988 82.9901 155.715 84.8901 155.608C86.6901 155.501 88.4701 155.443 90.2201 154.975C93.6101 154.06 96.5301 151.898 97.9701 148.734C98.7501 147.02 98.8901 145.287 99.1401 143.457C99.4301 141.324 99.8601 139.211 100.03 137.069C100.19 135.034 99.9701 133.155 99.4301 131.188C98.8901 129.221 98.5601 127.147 98.3601 125.064C97.9401 120.818 97.9601 116.534 97.3001 112.318C97.0101 110.468 94.1201 111.257 94.4101 113.097C94.9601 116.593 94.9401 120.176 95.2401 123.701C95.3701 125.278 95.5501 126.855 95.7801 128.433C96.0201 130.049 96.4901 131.578 96.8501 133.155C97.6001 136.456 96.6201 139.961 96.1801 143.242C95.7901 146.134 95.2901 148.763 92.7501 150.642C90.1501 152.57 87.0401 152.522 83.9501 152.785C80.2901 153.096 76.7201 153.281 73.0401 153.242C69.5701 153.203 66.0601 153.242 62.5901 153.388C60.8401 153.456 59.1001 153.641 57.3501 153.661C55.6001 153.68 53.8601 153.495 52.1201 153.31C50.4101 153.135 48.7001 153.028 46.9801 152.95C45.5501 152.882 43.9201 152.882 42.5901 152.288C40.2401 151.256 40.9901 147.712 41.0301 145.716C41.1601 138.462 41.4201 131.217 42.0401 123.983C42.3201 120.702 43.0401 117.488 43.4401 114.227C43.8401 110.936 44.1901 107.625 45.2701 104.461C45.6801 103.243 46.2301 101.939 47.1201 100.975C48.0901 99.9232 49.7901 100.04 51.0801 99.5824C53.9701 98.5406 56.3101 96.6808 59.3901 96.0869C63.3201 95.3274 67.4501 95.4637 71.3701 96.2037C73.4201 96.5932 75.3901 96.8074 77.4801 96.7977C79.2101 96.7977 80.9601 96.7003 82.6801 96.934C86.3201 97.4208 88.8501 99.5629 90.5401 102.659C92.2301 105.756 93.7301 109.524 94.4101 113.126C94.7601 114.976 97.6501 114.188 97.3001 112.347L97.3101 112.289Z" fill="#333333"/>
<path d="M71.4301 109.572C72.2401 106.914 73.0201 104.869 71.6601 102.299C70.6701 100.42 68.0801 98.6087 65.8101 98.969C64.1001 99.2416 62.8501 100.819 61.7201 102.503C59.7401 105.444 59.9901 107.674 60.9401 110.059C61.8801 112.425 63.2301 114.821 63.5401 117.703C63.8801 120.955 63.1401 124.236 62.0201 127.177C60.9001 130.117 59.4901 132.902 58.7101 136.027C58.1201 138.413 59.1201 140.789 60.6701 142.911C62.2201 145.034 64.3901 147.04 65.6701 148.442C66.0801 148.89 66.5801 149.581 67.1201 149.552C67.5801 149.532 67.9701 148.938 68.3301 148.568C69.9401 146.923 71.5901 145.141 72.8601 143.057C73.9701 141.246 74.5601 139.318 74.7301 137.41C74.8901 135.56 74.6201 133.583 74.2801 131.509C73.8601 128.958 73.4701 126.398 73.0301 123.856C72.5901 121.296 71.7401 118.832 71.1401 116.33C70.8701 115.22 70.7001 114.032 70.7801 112.873C70.8501 111.744 71.1101 110.624 71.4301 109.572Z" fill="#FFD063"/>
<path d="M72.88 109.962C73.45 108.102 74.08 106.203 73.83 104.237C73.59 102.367 72.64 100.644 71.18 99.4072C69.85 98.2874 68.13 97.4306 66.33 97.4695C64.41 97.5085 62.89 98.6185 61.72 100.021C59.24 103.02 57.99 106.379 59.37 110.127C60.05 111.977 61 113.73 61.57 115.619C62.22 117.751 62.25 119.981 61.88 122.172C61.14 126.456 58.88 130.253 57.62 134.382C57.03 136.32 56.84 138.199 57.51 140.146C58.2 142.132 59.44 143.856 60.81 145.453C62.04 146.894 63.44 148.179 64.71 149.591C65.98 151.003 67.47 151.558 68.94 150.097C71.85 147.205 74.82 143.866 75.83 139.844C76.42 137.498 76.31 135.141 75.97 132.775C75.6 130.146 75.14 127.527 74.71 124.908C74.28 122.308 73.6 119.816 72.92 117.274C72.24 114.733 72.12 112.532 72.87 109.972C73.4 108.161 70.51 107.391 69.98 109.193C69.48 110.887 69.14 112.649 69.31 114.412C69.48 116.252 70.02 118.034 70.52 119.806C71.6 123.701 72.14 127.683 72.79 131.665C73.41 135.482 73.6 139.095 71.45 142.512C70.51 144.021 69.34 145.365 68.12 146.66C67.84 146.962 67.55 147.244 67.27 147.546C67.19 147.624 66.97 147.809 66.93 147.916C66.84 148.228 67.41 148.13 67.4 148.15C67.46 148.004 66.1 146.748 65.94 146.592C63.66 144.245 60.61 141.597 60.1 138.218C59.83 136.446 60.67 134.567 61.29 132.931C61.91 131.295 62.66 129.64 63.31 127.975C64.63 124.596 65.45 120.916 64.98 117.284C64.55 113.983 62.6 111.257 61.86 108.073C61.44 106.242 62.09 104.607 63.12 103.088C64 101.793 65.15 100.118 66.96 100.459C68.62 100.77 70.09 102.163 70.63 103.691C71.28 105.532 70.52 107.43 69.97 109.202C69.42 110.975 72.31 111.783 72.86 109.981L72.88 109.962Z" fill="#333333"/>
<path d="M83.72 122.698C83.61 125.229 83.26 127.761 83.17 130.292C83.08 132.824 83.46 135.375 83.39 137.907C83.32 140.438 82.9 142.97 82.84 145.501C82.79 148.033 82.66 150.574 82.63 153.106C82.61 154.839 82.43 156.455 82.54 158.218C82.56 158.607 82.71 159.104 82.96 159.415C83.29 159.834 83.98 159.951 84.52 160.019C86.72 160.282 88.95 160.126 91.16 160.233C93.37 160.34 95.57 160.408 97.78 160.369C98.21 160.369 98.68 160.564 99.04 160.34C99.48 160.058 99.83 159.571 99.97 159.084C100.75 156.416 100.97 153.622 100.93 150.847C100.85 145.56 104.53 147.156 108.49 145.248C110.32 144.372 112.16 143.32 113.54 141.86C114.92 140.399 115.97 138.569 116.66 136.689C117.41 134.674 117.31 132.493 117.28 130.351C117.25 128.209 116.95 126.135 116.42 124.07C115.78 121.597 115.17 119.26 114.1 117.167C112.97 114.957 111.72 112.834 110.17 110.945C108.62 109.056 106.56 107.644 104.68 105.999C102.87 104.412 101.12 102.669 99.05 101.208C98.03 100.488 95.96 99.0273 93.67 97.8199C91.65 96.7489 89.43 95.7752 87.66 95.6291C85.51 95.4539 83.7 96.5736 83.8 99.7575C83.88 102.309 84.23 104.85 84.22 107.411C84.21 109.962 84.15 112.513 84.08 115.064C84.01 117.615 83.86 120.166 83.75 122.717L83.72 122.698Z" fill="#95BECE"/>
<path d="M82.22 122.698C82.06 126.105 81.54 129.484 81.7 132.912C81.78 134.577 81.92 136.242 81.88 137.907C81.84 139.572 81.61 141.392 81.47 143.126C81.2 146.436 81.2 149.786 81.12 153.106C81.07 155.443 80.04 159.717 82.72 161.051C83.93 161.655 85.55 161.596 86.86 161.626C88.6 161.664 90.34 161.655 92.08 161.733C93.82 161.811 95.39 161.849 97.04 161.83C98.52 161.82 99.63 162.044 100.66 160.788C101.56 159.698 101.77 158.091 101.99 156.747C102.26 155.092 102.39 153.427 102.4 151.752C102.4 150.827 102.2 149.6 102.75 148.773C103.1 148.247 103.73 148.091 104.32 147.945C106.43 147.4 108.36 146.962 110.31 145.939C112.88 144.586 115 142.775 116.51 140.312C119.83 134.917 119.05 128.189 117.49 122.357C115.96 116.622 113.08 111.101 108.42 107.187C103.76 103.273 99.8 99.4363 94.6 96.6418C92.12 95.3079 88.88 93.6039 85.94 94.2563C83.28 94.8502 82.24 97.2844 82.26 99.7284C82.28 101.647 82.53 103.555 82.63 105.463C82.72 107.372 82.67 109.29 82.63 111.208C82.56 115.035 82.37 118.861 82.21 122.688C82.13 124.567 85.13 124.567 85.21 122.688C85.47 116.661 85.97 110.546 85.57 104.509C85.48 103.078 85.33 101.647 85.28 100.205C85.25 99.3194 85.15 98.0926 85.91 97.4305C87.35 96.1939 90.31 97.7713 91.65 98.4237C93.91 99.5142 96.03 100.858 98.07 102.299C100.29 103.867 102.18 105.824 104.26 107.567C106.34 109.309 108.44 110.945 110.02 113.194C111.58 115.424 112.96 117.858 113.81 120.429C114.7 123.107 115.46 125.92 115.68 128.734C115.88 131.324 116.03 134.187 115.04 136.65C113.22 141.178 109.24 143.885 104.49 144.907C102.96 145.238 101.39 145.657 100.41 146.952C99.08 148.734 99.46 151.08 99.37 153.145C99.31 154.557 99.15 155.959 98.84 157.332C98.72 157.867 98.64 158.568 98.29 158.997L98.2 159.094C98.61 158.967 98.57 158.909 98.08 158.909C97.69 158.812 97.2 158.889 96.81 158.899C93.81 158.919 90.82 158.724 87.82 158.704C87.03 158.704 86.24 158.685 85.45 158.627C84.77 158.578 84.11 158.704 84.02 157.964C83.83 156.368 84.09 154.693 84.13 153.086C84.2 149.766 84.21 146.417 84.48 143.106C84.62 141.363 84.84 139.63 84.89 137.887C84.93 136.3 84.8 134.713 84.72 133.126C84.55 129.62 85.06 126.174 85.23 122.678C85.32 120.799 82.32 120.799 82.23 122.678L82.22 122.698Z" fill="#333333"/>
<path d="M90.1201 95.3469C91.9701 96.1551 93.6501 97.5182 94.8801 99.0859C96.1101 100.654 96.6501 102.65 96.9601 104.597C97.1701 105.921 97.2601 107.275 96.8201 108.54C95.8001 111.471 93.1501 113.321 90.4001 114.879C92.5701 116.797 94.7201 119.222 94.1801 122.016C93.9301 123.292 93.1101 124.421 92.2701 125.424C90.0801 128.014 87.7301 130.516 85.1001 132.688" fill="#95BECE"/>
<path d="M89.3601 96.6126C93.1401 98.3555 95.1601 101.491 95.5801 105.493C96.0001 109.494 92.8301 111.802 89.6501 113.633C88.8501 114.09 88.6301 115.288 89.3501 115.931C90.5101 116.972 91.7401 118.102 92.3901 119.533C93.1201 121.149 92.6201 122.581 91.5901 123.934C89.4401 126.768 86.7801 129.387 84.0401 131.665C82.5701 132.892 84.7001 134.947 86.1601 133.729C87.8701 132.308 89.4801 130.76 90.9901 129.134C92.4201 127.585 94.1001 125.95 95.0401 124.061C97.0201 120.088 94.4401 116.515 91.4801 113.866C91.3801 114.636 91.2801 115.395 91.1801 116.164C95.2501 113.818 99.0901 110.546 98.6001 105.502C98.3801 103.224 97.8401 100.799 96.5401 98.8521C95.1801 96.8073 93.1501 95.1423 90.9001 94.1005C89.1601 93.3021 87.6401 95.8142 89.3901 96.6223L89.3601 96.6126Z" fill="#333333"/>
<path d="M49.13 122.698C49.23 124.966 49.11 127.255 49.21 129.523C49.31 131.792 49.47 134.061 49.55 136.339C49.63 138.617 49.68 140.886 49.74 143.155C49.8 145.423 50.17 147.702 50.16 149.971C50.16 153.193 49.65 156.3 49.36 159.542C49.33 159.912 49.53 160.311 49.27 160.584C48.98 160.905 48.53 161.158 48.09 161.207C46.68 161.353 43 161.752 39.47 161.898C35.69 162.054 31.92 161.791 31.35 160.019C31.13 159.328 31.22 158.539 31.24 157.809C31.28 155.949 31.49 153.622 31.57 151.334C31.65 149.046 31.81 146.514 31.14 144.732C29 144.703 26.6 144.976 24.44 144.596C22.28 144.216 20.27 143.155 18.38 142.201C16.49 141.246 14.81 139.951 13.56 138.14C12.53 136.651 11.89 135.034 11.57 133.262C11.25 131.49 11.05 129.708 11.27 127.946C11.49 126.183 11.77 124.372 12.31 122.659C12.85 120.945 13.57 119.29 14.22 117.615C14.79 116.145 15.53 114.733 16.1 113.263C16.45 112.357 16.81 111.471 17.45 110.731C18.28 109.777 19.43 109.232 20.6 108.716C22.4 107.917 24.13 106.885 25.99 106.116C27.85 105.347 29.68 104.616 31.44 103.721C33.23 102.815 35.11 102.075 36.67 100.877C38.35 99.5824 41.06 97.6837 43.53 96.9048C46.29 96.0285 48.83 96.4569 48.93 100.517C48.99 102.981 49.03 105.454 49.04 107.917C49.06 110.381 48.74 112.854 48.77 115.317C48.8 117.781 49.02 120.244 49.12 122.707L49.13 122.698Z" fill="#95BECE"/>
<path d="M47.6301 122.698C47.7201 125.122 47.6201 127.547 47.7301 129.981C47.8401 132.405 48.0001 134.82 48.0801 137.245C48.1601 139.669 48.1401 142.094 48.3001 144.518C48.4601 146.962 48.7301 149.357 48.6101 151.801C48.4801 154.235 48.0801 156.64 47.9101 159.075C47.9101 159.201 47.9201 159.854 47.8901 159.912C47.9201 159.863 48.1001 159.678 47.9101 159.766C47.7101 159.873 47.2501 159.834 47.0301 159.854C46.0101 159.961 44.9901 160.058 43.9701 160.146C41.6301 160.34 39.2601 160.535 36.9001 160.467C35.8701 160.438 33.0401 160.555 32.7301 159.299C32.4701 158.276 32.7801 156.855 32.8401 155.813C32.9101 154.547 33.0001 153.281 33.0601 152.025C33.1801 149.494 33.4401 146.787 32.6101 144.343C32.4001 143.729 31.8501 143.272 31.1601 143.272C29.3701 143.272 27.5701 143.437 25.7801 143.291C23.9701 143.145 22.3001 142.493 20.6901 141.704C17.7701 140.283 15.2101 138.637 13.8501 135.619C10.8201 128.871 14.1501 121.422 16.9101 115.191C17.5601 113.72 17.9501 112.007 19.3401 111.014C20.6801 110.069 22.3701 109.504 23.8201 108.764C27.0601 107.119 30.4701 105.804 33.7401 104.227C36.6301 102.844 38.9701 100.751 41.7801 99.2417C42.9801 98.5991 46.1601 96.9341 47.1101 98.7841C47.8101 100.147 47.4701 102.27 47.5001 103.74C47.5401 105.902 47.5901 108.054 47.4901 110.215C47.3901 112.221 47.2401 114.217 47.3001 116.223C47.3601 118.384 47.5301 120.536 47.6301 122.688C47.7101 124.558 50.7101 124.567 50.6301 122.688C50.5301 120.536 50.3601 118.375 50.3001 116.223C50.2401 114.139 50.4001 112.065 50.5001 109.981C50.6001 107.83 50.5401 105.668 50.5001 103.506C50.4701 101.764 50.6501 99.8259 50.0701 98.1415C49.1701 95.5223 46.6701 94.7044 44.0601 95.2301C40.6401 95.9215 38.0201 98.2291 35.2301 100.079C31.8501 102.319 27.8401 103.594 24.1701 105.298C22.3701 106.135 20.5701 107.012 18.8001 107.908C17.1001 108.774 15.8801 110.011 15.1101 111.724C11.9001 118.969 8.17006 126.778 10.4001 134.82C11.4801 138.715 14.2001 141.675 17.8201 143.525C19.7901 144.538 21.8401 145.57 24.0501 145.969C26.4001 146.397 28.7801 146.144 31.1401 146.154L29.6901 145.083C30.5001 147.468 30.1301 150.214 30.0001 152.678C29.9301 153.992 29.8301 155.297 29.7701 156.611C29.7201 157.711 29.5601 158.929 29.8001 160.019C30.2201 161.889 32.0101 162.726 33.7901 163.057C36.2601 163.515 38.8001 163.388 41.2901 163.232C43.4901 163.096 45.6901 162.911 47.8701 162.658C48.8901 162.541 49.9601 162.19 50.5401 161.285C50.8201 160.847 50.8401 160.37 50.8501 159.873C50.8601 159.133 50.9401 158.403 51.0201 157.663C51.3101 154.946 51.6801 152.22 51.6301 149.474C51.5801 146.748 51.2301 144.031 51.1701 141.295C51.1001 138.267 50.9901 135.239 50.8201 132.211C50.6501 129.027 50.7201 125.843 50.6001 122.659C50.5301 120.78 47.5301 120.78 47.6001 122.659L47.6301 122.698Z" fill="#333333"/>
<path d="M44.5799 95.7168C42.6899 96.4178 41.0699 97.6155 39.7499 99.115C38.4299 100.614 37.1599 102.289 36.7399 104.217C36.4499 105.532 36.3999 107.012 36.7699 108.297C37.6099 111.276 40.4199 113.204 43.0699 114.918C40.7899 116.709 38.4299 119.017 38.8099 121.841C38.9799 123.126 39.9399 124.168 40.7299 125.219C42.7599 127.926 45.0199 130.448 47.5199 132.756" fill="#95BECE"/>
<path d="M44.1799 94.3146C39.7499 96.0575 35.6799 100.283 35.0999 105.025C34.4499 110.293 38.2099 113.516 42.3099 116.184C42.2099 115.414 42.1099 114.655 42.0099 113.886C39.0899 116.203 35.9299 119.806 37.8599 123.681C38.7599 125.473 40.2999 127.128 41.5899 128.676C43.0999 130.477 44.7299 132.181 46.4599 133.798C47.8599 135.093 49.9799 133.038 48.5799 131.733C45.8899 129.231 43.4799 126.485 41.2999 123.545C40.3199 122.23 39.9499 121.033 40.7499 119.514C41.5499 117.995 42.8599 116.972 44.1299 115.96C44.9299 115.327 44.5499 114.139 43.8299 113.662C40.7799 111.685 37.6299 109.407 38.0499 105.434C38.4199 101.929 41.6999 98.4139 44.9699 97.1286C46.7399 96.4373 45.9599 93.6039 44.1699 94.3146H44.1799Z" fill="#333333"/>
<path d="M48.5601 97.1578C47.9301 99.1442 47.0801 101.13 47.0501 103.204C47.0201 105.444 47.5101 107.937 48.9801 109.66C50.2601 111.169 52.3101 111.656 54.3301 111.744C56.2701 111.822 58.1901 111.267 59.8501 110.293C61.5501 109.29 63.1501 108.17 64.3901 106.651C65.6101 105.152 66.6101 103.409 67.6401 101.783C67.8201 105.668 68.9901 107.878 72.1401 110.312C72.9101 110.906 73.6701 111.432 74.5901 111.773C77.0401 112.688 79.8201 112.036 81.7401 110.303C83.6601 108.569 84.4901 106.048 84.6401 103.506C84.7901 100.965 84.1501 98.521 83.2401 96.1257" fill="#FCFCFC"/>
<path d="M47.1199 96.7782C46.0099 100.225 45.0399 103.419 46.0099 107.031C46.8599 110.176 49.0899 112.464 52.4299 113.019C55.9699 113.613 59.1299 112.63 62.0399 110.673C65.1799 108.56 66.9799 105.648 68.9399 102.533L66.1399 101.793C66.3099 104.782 67.1199 107.479 69.2399 109.718C71.6099 112.221 74.7899 114.139 78.3999 113.516C82.0099 112.893 84.5299 110.157 85.5699 106.895C86.7499 103.185 86.0399 99.3098 84.7099 95.7461C84.0599 93.9935 81.1599 94.753 81.8199 96.5251C82.8599 99.3098 83.5899 102.25 82.9299 105.21C82.3599 107.752 80.7399 110.079 77.9899 110.643C75.2399 111.208 73.0699 109.446 71.3799 107.664C69.8199 106.018 69.2799 103.993 69.1599 101.802C69.0799 100.371 67.1699 99.7966 66.3599 101.062C64.8299 103.497 63.4499 106.028 61.0599 107.781C58.8499 109.407 56.4099 110.566 53.5799 110.254C50.8999 109.962 49.3999 108.404 48.8099 105.882C48.1299 102.942 49.1099 100.332 50.0099 97.5572C50.5899 95.7559 47.6999 94.9866 47.1199 96.7782Z" fill="#333333"/>
<path d="M117.78 41.1126C116.11 41.1126 114.53 41.5897 113.08 42.1934C112.44 39.9539 111.74 37.7534 110.79 35.66C109.83 33.5373 108.79 31.4342 107.54 29.4966C106.29 27.5589 104.7 25.7868 103.17 24.0342C101.64 22.2718 100.15 20.4316 98.38 18.9126C96.61 17.3839 94.45 16.3226 92.47 15.0568C90.49 13.791 88.47 12.6518 86.31 11.6781C84.18 10.7142 82.06 9.64314 79.78 8.98103C77.5 8.31893 75.18 7.98787 72.81 7.65682C70.5 7.33551 68.14 7.18945 65.74 7.18945C63.34 7.18945 60.97 7.27708 58.66 7.60814C56.29 7.93919 53.98 8.46498 51.73 9.11735C49.48 9.76972 47.15 10.4416 45.02 11.4055C42.86 12.3792 40.93 13.7618 38.96 15.0276C36.99 16.2934 35.15 17.7345 33.38 19.2631C31.61 20.7918 29.82 22.301 28.29 24.0634C26.76 25.8258 25.19 27.5784 23.93 29.5355C22.67 31.4926 21.79 33.6542 20.83 35.7768C19.87 37.8995 18.96 39.9247 18.32 42.1642C16.84 41.5313 15.29 41.2197 13.57 41.2197C11.36 41.2197 9.32003 41.9013 7.54003 42.9042C5.71003 43.946 4.11003 45.3773 3.05003 47.1689C1.99003 48.9605 1.53003 50.9468 1.53003 53.0987C1.53003 55.2505 2.30003 57.1395 3.33003 58.8726C4.39003 60.6642 5.58003 62.4752 7.41003 63.5171C9.24003 64.5589 11.37 64.8121 13.58 64.8121C14.95 64.8121 16.16 64.7731 17.39 64.3642C17.87 66.7984 18.76 69.0379 19.6 71.3358C20.45 73.6629 21.4 75.9218 22.59 78.0737C23.78 80.2255 25.07 82.3579 26.59 84.3052C28.11 86.2624 29.7 88.2 31.51 89.9039C33.32 91.6079 35.47 92.9321 37.53 94.3537C39.58 95.7655 41.53 97.3818 43.79 98.4821C46.05 99.5824 48.45 100.371 50.86 101.121C53.24 101.861 55.76 102.104 58.27 102.484C60.72 102.854 63.2 103.107 65.76 103.107C68.32 103.107 70.83 103.088 73.28 102.718C75.8 102.338 78.33 102.026 80.71 101.296C83.13 100.546 85.48 99.5629 87.72 98.4723C89.98 97.3721 91.9 95.7266 93.95 94.305C96.01 92.8834 98.04 91.4618 99.84 89.7579C101.64 88.0539 103.53 86.3792 105.05 84.4221C106.57 82.465 107.79 80.3034 108.99 78.1418C110.19 75.9802 111.03 73.6921 111.88 71.365C112.72 69.0768 113.67 66.8568 114.15 64.4323C115.34 64.8121 116.49 64.9095 117.81 64.9095C120.02 64.9095 122.03 64.2668 123.81 63.2639C125.64 62.2221 127.03 60.7031 128.09 58.9116C129.12 57.1784 129.82 55.27 129.82 53.1181C129.82 50.9663 129.27 48.98 128.25 47.2371C127.19 45.4455 125.68 43.9558 123.85 42.9139C122.02 41.8721 120.02 41.1321 117.81 41.1321L117.78 41.1126Z" fill="#FFE6D9"/>
<path d="M117.78 39.6522C115.99 39.7009 114.32 40.1196 112.68 40.7817C113.3 41.1225 113.91 41.4633 114.53 41.804C113.35 37.7146 111.78 33.7614 109.62 30.0517C107.56 26.5075 104.67 23.3917 101.92 20.344C99.0801 17.199 95.5401 15.1543 91.9201 12.9733C88.4301 10.8701 84.5201 8.91299 80.6001 7.68615C76.4301 6.38141 71.7701 5.86536 67.4101 5.73878C63.0501 5.6122 58.4301 5.94326 54.0501 6.97536C49.9601 7.93931 45.7201 9.13694 42.1001 11.2596C38.5001 13.3627 35.1201 15.7969 31.9801 18.5038C28.5201 21.4833 25.2401 24.7938 22.7401 28.6106C21.4601 30.5677 20.5601 32.7196 19.6101 34.8325C18.5901 37.1109 17.5601 39.3796 16.8601 41.7651L18.7101 40.7427C14.5501 39.0485 9.83012 39.6327 6.09012 42.0377C2.38012 44.4233 0.210115 48.1427 0.010115 52.4562C-0.179885 56.4385 2.04012 60.9662 5.05012 63.634C8.23011 66.448 13.7501 66.9738 17.7501 65.7567C17.1301 65.4159 16.5201 65.0751 15.9001 64.7343C16.7801 68.999 18.5101 73.3319 20.4501 77.2559C22.4101 81.2188 24.9401 84.8604 27.8401 88.2098C29.2701 89.8651 30.8201 91.3938 32.5801 92.7083C34.3401 94.0227 36.2001 95.1912 37.9801 96.4764C39.7901 97.7812 41.5801 99.0762 43.6201 100.011C45.6601 100.946 47.9601 101.744 50.1901 102.435C52.4501 103.127 54.7801 103.429 57.1201 103.769C59.4201 104.1 61.7201 104.422 64.0501 104.519C68.8501 104.714 73.6301 104.295 78.3401 103.37C82.7501 102.504 87.4101 100.663 91.0901 98.1414C94.6801 95.678 98.3301 93.1562 101.5 90.1767C103.31 88.4825 105.08 86.7785 106.57 84.8019C108.06 82.8254 109.3 80.6541 110.45 78.4827C111.56 76.3893 112.39 74.1596 113.21 71.9396C114.08 69.5833 115.04 67.2562 115.55 64.7927L113.7 65.8151C121.47 68.1227 129.7 62.8551 131.07 55.1435C132.47 47.2761 125.88 39.8275 117.76 39.6425C115.83 39.5938 115.83 42.5148 117.76 42.5635C124.05 42.7096 129.36 48.649 128.1 54.7735C126.87 60.7714 120.62 64.8122 114.5 63.0012C113.76 62.7869 112.81 63.264 112.65 64.0235C112.24 65.9904 111.55 67.8696 110.84 69.7585C110.12 71.6669 109.47 73.6046 108.62 75.4643C106.92 79.1935 104.67 82.8935 101.75 85.8341C100.32 87.2848 98.8201 88.7162 97.2501 90.0209C95.6801 91.3256 93.9201 92.4648 92.2401 93.6819C90.5601 94.8991 88.9501 96.1648 87.1001 97.1093C85.0501 98.1512 82.9001 99.0372 80.7101 99.748C72.2901 102.465 62.9901 101.949 54.3901 100.449C50.1901 99.7188 45.7401 98.2096 42.1901 95.8922C40.4001 94.7238 38.7201 93.4093 36.9501 92.2214C35.1801 91.0335 33.5201 89.8748 32.0401 88.4143C28.7401 85.1622 26.0401 81.3648 23.8301 77.3338C22.7001 75.2793 21.8001 73.1372 20.9901 70.9464C20.1801 68.7556 19.2801 66.3701 18.7801 63.9748C18.6201 63.2154 17.6701 62.7285 16.9301 62.9525C13.8501 63.8872 9.26011 63.634 6.87011 61.3167C4.58011 59.0967 2.84011 55.6401 2.99011 52.4659C3.33011 45.2898 11.2101 40.8596 17.8701 43.5762C18.6201 43.8877 19.5101 43.2354 19.7201 42.5538C20.8201 38.8148 22.5201 35.0175 24.4101 31.5901C26.2401 28.2601 28.9601 25.193 31.7701 22.6127C34.6501 19.9643 37.6901 17.5983 40.9801 15.4464C42.6401 14.3559 44.3101 13.2751 46.1501 12.4864C47.9301 11.7269 49.8101 11.1817 51.6801 10.6462C59.8401 8.27036 68.2901 8.11457 76.6201 9.73089C80.5401 10.4904 84.2101 12.1651 87.7201 13.9956C89.4801 14.9109 91.1301 15.9917 92.8301 17.0043C94.5301 18.0169 96.1901 18.9322 97.6301 20.2272C99.2701 21.6975 100.65 23.4111 102.09 25.0664C103.54 26.7314 105.03 28.3769 106.23 30.2367C108.7 34.0535 110.38 38.2598 111.62 42.583C111.82 43.2743 112.71 43.9072 113.47 43.6054C114.86 43.0406 116.26 42.6219 117.77 42.583C119.7 42.5343 119.7 39.6133 117.77 39.6619L117.78 39.6522Z" fill="#333333"/>
<path d="M53.4499 47.9772C53.4499 49.7201 52.1999 51.0443 50.4099 51.0443C48.6199 51.0443 47.1899 49.7201 47.1899 47.9772C47.1899 46.2343 48.6199 44.5693 50.4099 44.5693C52.1999 44.5693 53.4499 46.2343 53.4499 47.9772Z" fill="#333333"/>
<path d="M84.33 47.977C84.33 49.7199 82.83 51.0636 81.05 51.0636C79.27 51.0636 77.73 49.7199 77.73 47.977C77.73 46.2342 79.27 44.7542 81.05 44.7542C82.83 44.7542 84.33 46.2342 84.33 47.977Z" fill="#333333"/>
<path d="M64.3101 51.0249C64.5801 50.8594 64.8601 50.7133 65.1501 50.5867L64.7901 50.7328C65.1001 50.6159 65.4201 50.5186 65.7501 50.4796L65.3501 50.5283C65.6201 50.4991 65.8801 50.4991 66.1401 50.5283L65.7401 50.4796C66.0301 50.5186 66.3001 50.5965 66.5701 50.7036L66.2101 50.5575C66.5201 50.6841 66.8001 50.8594 67.0601 51.0541L66.7601 50.8301L66.8201 50.8788C67.1401 51.132 67.4501 51.3073 67.8801 51.3073C68.2501 51.3073 68.6901 51.1515 68.9401 50.8788C69.1901 50.6062 69.4001 50.2362 69.3801 49.8467C69.3601 49.4865 69.2501 49.0483 68.9401 48.8146C68.4201 48.4154 67.9401 48.1233 67.3301 47.8896C66.8601 47.7046 66.3401 47.617 65.8401 47.6073C64.7601 47.578 63.6801 47.9675 62.7801 48.5225C62.1201 48.9315 61.7901 49.837 62.2401 50.5186C62.6701 51.1612 63.5801 51.4825 64.2901 51.0444L64.3101 51.0249Z" fill="#333333"/>
<path d="M43.56 61.5016C43.56 64.2571 42.56 66.74 40.72 68.5511C38.88 70.3621 36.32 71.6864 33.5 71.6864C30.68 71.6864 28.02 70.4595 26.17 68.6485C24.33 66.8471 23.24 64.2571 23.24 61.5016C23.24 58.7461 24.42 56.2437 26.26 54.4424C28.1 52.6411 30.67 51.7258 33.49 51.7258C36.31 51.7258 38.72 52.7774 40.57 54.5885C42.42 56.3995 43.56 58.7461 43.56 61.4919V61.5016Z" fill="#EDBBA6"/>
<path d="M108.12 61.5017C108.12 64.2572 107.07 66.7791 105.23 68.5901C103.38 70.4012 100.79 71.628 97.97 71.628C95.15 71.628 92.5 70.4596 90.65 68.6485C88.81 66.8472 87.76 64.267 87.76 61.5114C87.76 58.7559 88.93 56.2925 90.77 54.4814C92.62 52.6704 95.15 51.2585 97.97 51.2585C100.79 51.2585 103.28 52.7093 105.12 54.5204C106.96 56.3314 108.11 58.7462 108.11 61.5017H108.12Z" fill="#EDBBA6"/>
<path d="M106.11 43.9168C108.93 45.5915 112.42 46.0978 113.82 42.2226C114.06 41.5604 114 40.7523 113.99 40.0512C113.96 37.8118 113.74 35.5528 113.34 33.362C112.93 31.1518 111.96 29.0876 111.15 27.0136C110.33 24.9104 109.41 22.8949 108.18 21.0254C106.95 19.156 105.72 17.2183 104.05 15.6702C102.37 14.1026 100.53 12.6615 98.6 11.386C96.68 10.1202 94.57 9.09782 92.48 8.10466C90.39 7.1115 88.25 6.1865 86.05 5.4465C83.84 4.7065 81.53 4.31703 79.27 3.83018C76.98 3.32387 74.67 3.08045 72.39 2.80782C70.05 2.53518 67.71 2.21387 65.35 2.2236C62.99 2.23334 60.64 2.43782 58.3 2.74939C55.96 3.07071 53.71 3.69387 51.43 4.31703C49.38 4.88176 47.23 5.37834 45.13 6.12808C43.08 6.85834 40.98 7.55939 39.04 8.53308C37.07 9.52624 35.38 10.8991 33.68 12.2136C31.74 13.7131 29.77 15.1833 28.09 16.9847C26.41 18.786 24.96 20.7431 23.49 22.7002C22.72 23.7226 21.44 25.8549 20.15 28.367C19.18 30.2657 17.99 32.291 17.32 34.3162C16.51 36.7797 16.19 39.1554 16.67 40.801C17.21 42.651 18.9 43.5954 22.31 42.9236C24.32 42.5341 26.34 41.7552 28.4 40.8107C30.29 39.9441 32.2 38.9218 34.05 37.7339C35.85 36.5947 37.54 35.251 39.24 33.956C40.94 32.661 42.71 31.3368 44.28 29.9833C46.01 28.5033 47.65 27.3641 49.1 26.0399C48.5 27.4128 49.47 28.6883 50.78 29.4673C52.09 30.2462 53.62 30.2462 55.16 30.2268C57.72 30.1976 60.26 30.0807 62.75 29.5062C65.24 28.9318 67.54 27.8704 69.85 26.7897C72.15 25.7089 74.43 24.7352 76.44 23.187C76.23 25.076 77.27 26.5852 78.62 27.9483C79.97 29.3115 81.56 30.3436 83.45 30.5286C85.34 30.7136 87.28 30.3241 89.03 29.4965C90.78 28.6689 92.29 27.481 93.56 26.0886C92.63 27.111 94.51 30.3047 96.64 33.4107C98.68 36.3804 100.8 39.4573 101.47 40.1583C102.46 41.1904 104.22 42.8068 106.08 43.907L106.11 43.9168Z" fill="#333333"/>
<path d="M105.35 45.1826C107.28 46.2926 109.7 47.1202 111.91 46.312C114.6 45.3286 115.55 42.6218 115.5 40.0415C115.43 36.6433 115.1 33.1673 113.93 29.9541C112.78 26.7994 111.54 23.5278 109.73 20.6554C108.06 18.007 106.25 15.5339 103.84 13.4697C101.25 11.2497 98.4201 9.37045 95.3501 7.83203C92.2801 6.29361 88.9701 4.73571 85.5801 3.74255C82.1901 2.7494 78.6501 2.10676 75.1601 1.65887C71.6701 1.21097 68.0101 0.675448 64.4201 0.772817C60.9201 0.870185 57.4001 1.27913 54.0001 2.1165C47.3301 3.7815 40.1801 5.47571 34.6401 9.63334C32.0201 11.6002 29.2801 13.5573 27.0501 15.9526C24.9401 18.2018 22.9301 20.7236 21.3001 23.3233C19.6701 25.9231 18.0801 28.8733 16.7801 31.7457C15.4801 34.6181 14.4901 37.8312 15.1701 40.8594C16.7901 48.0257 27.3601 43.0697 31.2101 41.0736C34.7801 39.2236 37.9001 36.8283 41.0701 34.4136C44.2401 31.9989 47.3101 29.662 50.1901 27.0623C49.3501 26.5852 48.5201 26.1178 47.6801 25.6407C46.7801 28.2307 48.9401 30.4897 51.3301 31.2783C52.6301 31.7068 54.0601 31.697 55.4201 31.6776C57.0901 31.6483 58.7601 31.5802 60.4201 31.3757C63.4501 31.0057 66.2301 30.0418 68.9901 28.8052C71.8101 27.5394 74.7301 26.3028 77.2001 24.4528C76.4501 24.0341 75.7001 23.6154 74.9401 23.187C74.6801 27.1012 78.6601 31.0836 82.4501 31.8431C87.0601 32.7681 91.5801 30.3533 94.6101 27.1207L92.2501 25.3486C91.2201 26.741 92.1401 28.7078 92.8001 30.032C93.9301 32.291 95.4701 34.3649 96.9101 36.4486C97.9701 37.987 99.0001 39.6033 100.24 41.0152C101.66 42.6315 103.46 44.0336 105.3 45.1631C106.94 46.166 108.45 43.6441 106.81 42.6412C103.85 40.8302 101.93 38.4739 100 35.6989C98.7701 33.9365 97.5101 32.1839 96.3901 30.3533C95.9101 29.5744 95.4301 28.776 95.0901 27.9386C94.9801 27.6562 94.9201 27.3641 94.8101 27.0818C94.7801 26.9747 94.7701 26.8676 94.7801 26.7605C94.6801 27.0039 94.6901 27.0233 94.8201 26.8189C95.8101 25.4655 93.6001 23.8297 92.4601 25.0468C90.2301 27.4323 87.1001 29.4283 83.6401 29.0681C80.9201 28.7857 77.7301 25.962 77.9101 23.1773C77.9801 22.1549 76.5501 21.2494 75.6501 21.9115C73.7501 23.3331 71.6201 24.3262 69.4701 25.3291C67.2901 26.3418 65.1101 27.3739 62.7601 27.9776C61.1901 28.3768 49.2101 30.1683 50.5201 26.4099C51.0201 24.9591 49.0501 24.0536 48.0101 24.9883C45.8201 26.9747 43.4201 28.8149 41.0901 30.6455C38.7601 32.476 36.2301 34.511 33.6401 36.2052C31.0501 37.8994 28.2501 39.3891 25.3301 40.4797C23.7001 41.0931 20.2801 42.5244 18.6301 41.2586C17.9701 40.7523 17.9001 39.7883 17.9001 39.0386C17.9001 37.5586 18.2501 36.0786 18.7201 34.6765C19.6401 31.921 21.2301 29.2628 22.6601 26.7215C25.3501 21.9504 28.9401 17.6857 33.3101 14.2778C35.6201 12.4765 37.8801 10.5973 40.5701 9.37045C43.4201 8.06571 46.5001 7.10176 49.5401 6.29361C52.5501 5.49519 55.5401 4.56045 58.6401 4.13203C61.7701 3.70361 64.9601 3.51861 68.1101 3.77176C74.2201 4.26834 80.6801 5.05703 86.4501 7.13098C92.1701 9.17571 97.7701 12.0676 102.27 16.0889C104.62 18.192 106.47 20.9086 107.94 23.6544C108.76 25.1928 109.39 26.8091 110.04 28.4157C110.68 30.0126 111.35 31.6094 111.72 33.2841C112.08 34.9005 112.25 36.5752 112.35 38.2304C112.43 39.5839 112.7 41.2099 112 42.4465C110.84 44.4815 108.42 43.5857 106.79 42.6412C105.12 41.6773 103.61 44.2089 105.28 45.1631L105.35 45.1826Z" fill="#333333"/>
<path d="M60.9501 65.9805C64.1401 67.4021 67.8001 67.48 71.0201 66.0974C72.5001 65.4645 74.4201 64.3642 75.6901 62.7868C76.9601 61.2095 77.7801 59.1647 77.3401 57.4218C76.6501 54.676 73.2701 55.231 71.1101 55.2797C67.8901 55.3576 64.6601 55.3284 61.4301 55.3284C58.5001 55.3284 54.4901 54.0626 54.6801 58.3955C54.8401 61.9495 57.6901 64.52 60.9501 65.9805Z" fill="#FCFCFC"/>
<path d="M60.1899 67.2366C64.9899 69.2911 70.3699 68.8042 74.6199 65.7469C76.6499 64.2863 78.3299 62.1735 78.8099 59.7198C79.1899 57.7724 78.7299 55.5329 76.8499 54.4716C75.2899 53.5856 73.3999 53.7219 71.6599 53.7998C68.8399 53.9166 65.9999 53.8777 63.1799 53.8679C61.3699 53.8679 59.5299 53.6342 57.7199 53.7024C56.0399 53.7608 54.4199 54.3061 53.6299 55.864C52.5899 57.9477 53.2999 60.7519 54.4999 62.6213C55.8299 64.705 57.9299 66.2142 60.1799 67.2463C61.9199 68.0448 63.4399 65.5229 61.6899 64.7245C58.9699 63.4782 55.7399 61.0537 56.1699 57.714C56.2899 56.7306 56.8999 56.6332 57.8199 56.6137C59.0199 56.5845 60.2099 56.7695 61.4099 56.7792C65.3999 56.8279 69.3899 56.6235 73.3799 56.6527C74.4299 56.6527 75.6599 56.7208 75.8999 57.9185C76.2199 59.5835 75.0499 61.4237 73.8899 62.5435C70.7299 65.5911 65.7599 66.4577 61.6999 64.7245C59.9499 63.9748 58.4199 66.4869 60.1899 67.2463V67.2366Z" fill="#333333"/>
<path d="M50.41 37.8897C50.89 38.1721 51.34 38.4934 51.79 38.8244L51.49 38.6005C52.58 39.4281 53.62 40.3239 54.76 41.0834C55.07 41.2878 55.57 41.3268 55.92 41.2294C56.27 41.1321 56.65 40.8789 56.82 40.5576C57.22 39.8176 56.97 39.0192 56.28 38.5615C55.99 38.3668 55.7 38.1623 55.42 37.9481L55.72 38.1721C54.47 37.2276 53.29 36.176 51.94 35.3678C51.27 34.9686 50.26 35.2023 49.89 35.8936C49.52 36.585 49.71 37.4613 50.43 37.8897H50.41Z" fill="#333333"/>
<path d="M37.8001 109.251C37.6601 110.137 37.3001 110.984 37.0501 111.851C36.6001 113.457 36.0201 115.074 34.8301 116.271C32.9901 118.111 30.4601 118.959 27.8101 118.91C25.1901 118.871 22.4201 118.17 20.2401 117.449C18.5501 116.894 16.9401 115.745 16.4601 114.071C16.2901 113.467 16.2101 112.873 16.2401 112.25C16.3501 109.777 16.1501 107.343 16.1701 104.918C16.1901 102.474 16.3801 100.05 16.2401 97.596C16.1101 95.2786 16.0501 89.7773 19.2301 89.232C20.4901 89.0178 21.9201 89.8649 22.5101 90.9749C23.1001 92.0752 23.0401 93.4481 23.1101 94.6944C23.2301 96.6612 23.4701 98.667 23.5901 100.634C23.3201 99.1441 24.6501 97.3526 26.2001 97.4986C27.5701 97.6349 28.2401 99.0955 28.5701 100.157C29.1901 99.5433 30.0501 99.3681 30.9501 99.4655C32.1401 99.6018 33.3301 100.556 32.8601 101.627C33.9001 101.306 34.8201 101.247 35.8501 101.627C37.5501 102.25 37.8101 104.236 37.7801 106.009C37.7601 107.089 37.9601 108.18 37.7901 109.251H37.8001Z" fill="#FFE6D9"/>
<path d="M36.3501 108.871C35.9701 110.789 35.3701 113.224 34.1501 114.811C32.9501 116.359 30.9401 117.226 28.9901 117.42C26.8501 117.634 24.6301 117.187 22.5801 116.632C20.8801 116.174 18.6501 115.638 17.9601 113.837C17.5601 112.776 17.7801 111.52 17.7801 110.419C17.7801 109.202 17.7201 107.976 17.6901 106.758C17.6401 104.392 17.7901 102.036 17.7901 99.6797C17.7901 97.1579 17.0901 93.7403 18.5301 91.4521C19.6001 89.7579 21.3001 91.3255 21.5001 92.7958C21.6701 94.0226 21.6401 95.2981 21.7501 96.525C21.8701 97.8979 22.0001 99.2708 22.0901 100.644H25.0901C25.0301 100.108 25.2301 98.9008 26.0501 98.9689C26.6601 99.0176 26.9801 100.108 27.1301 100.556C27.4901 101.647 28.7701 101.929 29.6401 101.199C29.8801 101.004 31.5701 100.741 31.4201 101.247C31.1101 102.318 32.1701 103.341 33.2701 103.049C34.8201 102.62 35.9501 102.922 36.2101 104.548C36.4501 106.028 36.4601 107.791 36.3001 109.261C36.0901 111.13 39.0901 111.111 39.3001 109.261C39.4401 107.976 39.3301 106.642 39.2801 105.347C39.2401 104.285 39.0901 103.185 38.5801 102.231C37.4101 100.001 34.7501 99.6018 32.4701 100.225L34.3201 102.026C34.8001 100.381 33.8201 98.9397 32.2501 98.3166C30.6801 97.6934 28.8501 98.0245 27.5301 99.1345L30.0401 99.7771C29.4101 97.8492 28.0701 95.8531 25.7201 96.0674C23.4901 96.2718 21.8901 98.5405 22.1201 100.634C22.3201 102.464 25.2401 102.542 25.1201 100.634C25.0201 99.1053 24.8601 97.5863 24.7401 96.0576C24.6301 94.7139 24.6601 93.341 24.4301 92.0168C24.0201 89.6216 21.8801 87.5184 19.2501 87.7813C15.1001 88.1903 14.6501 93.4482 14.7201 96.5737C14.7701 99.1345 14.7501 101.676 14.7001 104.246C14.6701 105.697 14.7201 107.138 14.7601 108.579C14.8001 110.098 14.6501 111.666 14.8001 113.175C15.0501 115.765 16.7901 117.625 19.1901 118.608C21.7301 119.64 24.6401 120.254 27.3901 120.361C30.1401 120.468 33.1301 119.669 35.3301 117.829C37.6701 115.862 38.6901 112.503 39.2601 109.641C39.6201 107.8 36.7301 107.021 36.3701 108.862L36.3501 108.871Z" fill="#333333"/>
<path d="M56.89 134.547C60.15 134.324 60.15 134.372 63.41 134.148C66.67 133.924 66.64 133.506 69.89 133.282C73.15 133.058 73.17 133.369 76.43 133.145C79.69 132.921 79.67 132.629 82.93 132.405C86.19 132.181 86.21 132.376 89.47 132.152C90.84 132.055 91.93 130.935 91.84 129.601C91.61 126.388 91.37 126.398 91.14 123.185C90.91 119.971 90.89 119.971 90.66 116.758C90.43 113.545 90.69 113.526 90.46 110.312C90.23 107.099 89.95 107.119 89.71 103.896C89.48 100.673 89.73 100.663 89.49 97.4403C89.26 94.2175 89.37 94.2174 89.14 90.9946C89.04 89.6606 87.7 88.8038 86.33 88.8914C83.07 89.1153 83.05 88.7843 79.79 89.0082C76.53 89.2322 76.54 89.3101 73.28 89.534C70.02 89.758 70.04 90.0501 66.78 90.274C63.52 90.498 63.51 90.3811 60.25 90.6051C56.99 90.829 56.98 90.7511 53.72 90.9751C52.35 91.0725 51.6 92.2409 51.7 93.5748C51.93 96.788 51.74 96.8075 51.97 100.021C52.2 103.234 52.17 103.244 52.4 106.457C52.63 109.67 52.74 109.66 52.98 112.873C53.22 116.086 53.09 116.096 53.32 119.319C53.55 122.542 53.61 122.532 53.84 125.755C54.07 128.978 53.88 128.988 54.11 132.211C54.21 133.545 55.51 134.664 56.88 134.567L56.89 134.547Z" fill="#FCFCFC"/>
<path d="M56.8899 136.008C59.7299 135.813 62.6099 135.794 65.4199 135.404C68.0299 135.044 70.5099 134.625 73.1699 134.674C75.8299 134.732 78.3899 134.382 81.0099 134.041C83.8299 133.671 86.6599 133.885 89.4799 133.603C90.8999 133.467 92.1599 132.805 92.8799 131.558C93.6499 130.215 93.2999 128.569 93.0999 127.118C92.7699 124.567 92.5599 122.026 92.3699 119.465C92.1699 116.817 92.1599 114.188 92.0399 111.539C91.9199 108.667 91.3199 105.863 91.1599 103C91.0099 100.322 90.9699 97.6254 90.8499 94.9477C90.7399 92.4162 91.1999 89.1154 88.4099 87.8204C87.0499 87.1875 85.5499 87.4991 84.0999 87.4991C82.8099 87.4991 81.5399 87.4309 80.2599 87.4991C77.4099 87.6548 74.5099 87.8788 71.6699 88.1904C69.0199 88.4825 66.4399 88.8525 63.7599 88.9401C61.1499 89.0277 58.5499 89.2127 55.9499 89.3491C54.5699 89.4172 52.9999 89.3198 51.7999 90.1085C50.4499 91.0043 50.1399 92.5233 50.2199 94.013C50.3699 96.7393 50.4299 99.4656 50.6099 102.202C50.7899 105.025 51.0099 107.839 51.2799 110.663C51.5899 113.827 51.6299 117.011 51.8699 120.176C52.0899 123.107 52.4199 126.018 52.4599 128.959C52.4799 130.439 52.3199 132.201 52.9399 133.564C53.6299 135.083 55.1699 135.998 56.8599 136.008C58.7899 136.008 58.7899 133.097 56.8599 133.087C55.3099 133.087 55.5199 131.354 55.4799 130.273C55.4399 129.182 55.4499 128.082 55.3999 126.992C55.2699 124.421 54.9799 121.87 54.7999 119.3C54.6299 116.865 54.5899 114.421 54.3899 111.987C54.1899 109.495 53.9099 107.021 53.7499 104.529C53.5899 102.153 53.3699 99.7772 53.3299 97.4014C53.3099 96.4083 53.2999 95.4248 53.2399 94.4317C53.2099 93.9448 52.9699 93.0101 53.3899 92.6012C53.8099 92.1922 54.8099 92.3383 55.3199 92.309C60.1599 92.0364 65.1199 92.0851 69.9199 91.3646C74.6399 90.6635 79.4599 90.4201 84.2299 90.4104C85.1099 90.4104 86.9799 89.9041 87.5399 90.7998C87.8499 91.2964 87.7099 92.3091 87.7399 92.8835C87.7699 93.3996 87.7799 93.9156 87.7999 94.4414C87.8899 96.8562 88.0399 99.2514 88.0799 101.676C88.1199 104.1 88.5199 106.35 88.7899 108.706C89.0799 111.237 88.9499 113.759 89.0999 116.291C89.2599 118.881 89.4499 121.471 89.6799 124.051C89.7699 125.044 89.9099 126.028 90.0499 127.011C90.1699 127.907 90.7999 129.825 89.9299 130.468C89.0999 131.091 86.9699 130.789 85.9299 130.809C84.4399 130.828 82.9499 130.896 81.4599 131.062C78.7499 131.354 76.1199 131.811 73.3699 131.763C70.6199 131.714 68.0999 131.987 65.4599 132.454C62.6499 132.951 59.6899 132.892 56.8399 133.087C54.9199 133.214 54.9099 136.135 56.8399 136.008H56.8899Z" fill="#333333"/>
<path d="M89.43 136.466C90.73 138.092 92.15 139.591 93.86 140.818C95.56 142.035 97.57 142.746 99.52 143.466C100.26 143.739 101.2 143.165 101.37 142.444C101.56 141.616 101.11 140.935 100.32 140.643C98.55 139.99 96.97 139.426 95.37 138.286C95.35 138.267 95.17 138.14 95.28 138.228C95.19 138.16 95.11 138.092 95.03 138.024C94.84 137.868 94.65 137.712 94.47 137.546C94.12 137.245 93.79 136.923 93.47 136.592C92.79 135.891 92.16 135.151 91.55 134.392C91.07 133.788 89.93 133.856 89.43 134.392C88.82 135.034 88.91 135.813 89.43 136.456V136.466Z" fill="#333333"/>
<path d="M32.8399 123.496C33.0199 126.008 33.6399 128.462 33.7999 130.974C33.9599 133.486 33.8099 135.998 33.9599 138.501C34.0699 140.37 37.0699 140.38 36.9599 138.501C36.8099 135.989 36.9599 133.476 36.7999 130.974C36.6299 128.462 36.0199 125.999 35.8399 123.496C35.7799 122.707 35.1899 122.036 34.3399 122.036C33.5699 122.036 32.7799 122.707 32.8399 123.496Z" fill="#333333"/>
<path d="M60.9988 103.107L83.5013 120.906" stroke="#007335" stroke-width="4"/>
<path d="M81.3896 101.052L63.1102 122.962" stroke="#007335" stroke-width="4"/>
<path d="M96.2499 134.168C97.8899 132.59 99.0499 130.068 99.8599 127.41C100.76 124.46 101.53 121.529 101.6 119.815C101.66 118.355 101.69 116.846 100.92 115.59C100.07 114.197 98.1699 113.876 97.6099 112.143C97.3299 111.276 97.5099 110.225 96.8499 109.582C95.9999 108.754 94.5499 108.998 93.6999 109.825C92.8499 110.653 92.7399 111.851 92.7399 113.019C92.7399 113.233 92.5599 113.496 92.3999 113.662C92.1899 113.886 91.7399 113.954 91.4399 113.866C89.2099 113.253 87.4999 111.646 85.0999 111.461C83.6299 111.344 82.0199 111.744 81.3799 113.048C80.7399 114.353 81.8499 116.398 83.3199 116.398C82.1599 116.038 80.7699 116.612 80.3799 117.732C79.9899 118.852 80.2899 120.185 81.4299 120.594C80.4199 120.799 79.5299 121.636 79.4299 122.629C79.3299 123.623 80.0599 124.499 81.0099 124.879C79.5699 124.879 78.5999 126.709 78.8199 128.082C79.0499 129.465 80.1799 130.623 81.2799 131.519C82.8799 132.814 84.8499 133.544 86.7899 134.284C88.7299 135.024 90.6999 135.492 92.7699 135.609C94.1699 135.687 95.2099 135.17 96.2399 134.177L96.2499 134.168Z" fill="#FFE6D9"/>
<path d="M97.3101 135.2C100.49 132.006 101.7 127.148 102.63 122.922C103.05 121.004 103.31 118.988 102.99 117.041C102.64 114.899 101.42 113.954 99.8301 112.659C98.3301 111.442 99.1701 109.241 97.3701 108.112C95.7501 107.099 93.5601 107.693 92.3901 109.076C91.7201 109.865 91.4201 110.838 91.3101 111.851C91.3101 111.929 91.3101 112.523 91.2501 112.62C91.5001 112.221 91.5801 112.533 91.1301 112.211C90.7101 111.909 90.0801 111.724 89.6101 111.491C87.7601 110.556 85.8801 109.767 83.7501 110.04C81.7301 110.303 79.7401 111.666 79.7201 113.828C79.7001 115.989 81.2401 117.664 83.3401 117.849C85.0301 117.995 85.3601 115.366 83.7401 114.976C81.8401 114.529 79.7601 115.298 79.0301 117.158C78.3501 118.881 78.9101 121.013 80.6901 121.851L81.0501 119.183C77.5401 120.156 76.8601 124.528 80.2701 126.145L81.0301 123.418C78.7601 123.623 77.2501 125.619 77.3101 127.8C77.3901 130.439 79.9101 132.581 82.0701 133.808C84.4501 135.151 87.2901 136.213 89.9801 136.719C92.8001 137.254 95.1401 137.206 97.3101 135.21C98.7201 133.915 96.5901 131.85 95.1901 133.145C93.8101 134.411 92.3301 134.216 90.5601 133.866C88.7901 133.515 87.1001 132.892 85.4401 132.191C83.8701 131.529 82.3101 130.692 81.1701 129.416C80.7101 128.9 80.2301 128.248 80.2901 127.518C80.3201 127.186 80.5801 126.378 81.0001 126.339C82.3401 126.223 83.2201 124.314 81.7601 123.613C80.8001 123.155 80.6701 122.308 81.8201 121.987C82.9701 121.666 83.3801 119.884 82.1801 119.319C81.1701 118.852 81.8801 117.547 82.9201 117.79C83.0501 116.836 83.1901 115.882 83.3201 114.918C82.8701 114.879 82.6101 114.013 82.7301 113.672C82.9701 112.961 84.1401 112.873 84.7601 112.893C86.6601 112.951 88.2701 114.207 89.9701 114.889C92.1601 115.765 94.0501 115.064 94.2401 112.62C94.2901 112.016 94.4101 110.41 95.4301 110.527C96.1501 110.605 95.9701 111.812 96.1201 112.367C96.6101 114.159 98.0601 114.743 99.2801 115.94C100.54 117.177 100.21 119.631 99.9201 121.198C99.5101 123.438 98.8801 125.668 98.1501 127.819C97.5001 129.738 96.6401 131.675 95.1801 133.136C93.8401 134.489 95.9501 136.553 97.3001 135.2H97.3101Z" fill="#333333"/>
</g>
<defs>
<clipPath id="clip0_4_1612">
<rect width="131.28" height="210.744" fill="white" transform="translate(0 0.763184)"/>
</clipPath>
</defs>
</svg>
