<svg width="1080" height="740" viewBox="0 0 1080 740" fill="none" xmlns="http://www.w3.org/2000/svg">
<g clip-path="url(#clip0_40_794)">
<path d="M88.4159 501.853C86.3144 501.745 84.213 501.629 82.1115 501.521C80.0101 501.414 77.9086 501.27 75.8071 501.163C73.8439 501.064 71.9084 501.19 70.0097 501.665C68.2677 502.104 66.7469 502.857 65.4012 504.013C64.0555 505.169 63.0601 506.568 62.12 508.029C60.9679 509.812 59.9816 511.641 59.3365 513.631C58.6913 515.629 58.2212 517.664 58.0645 519.762C57.9078 521.859 58.1843 523.92 58.5254 525.991C58.8664 528.061 59.2904 530.105 60.1199 532.032C60.9494 533.959 61.8895 535.868 63.1891 537.545" fill="#333333"/>
<path d="M88.4159 500.508C83.9457 500.275 79.4478 499.863 74.9684 499.782C70.9774 499.711 66.9312 500.67 64.0002 503.43C61.2997 505.985 59.2258 509.624 58.0553 513.084C56.6635 517.189 56.4055 521.258 57.0506 525.516C57.7327 530.051 59.1521 534.488 61.9817 538.217C63.0232 539.597 65.4288 538.253 64.3689 536.863C62.1292 533.914 60.7374 530.455 60.0646 526.869C59.3364 523.042 59.1613 519.385 60.1844 515.594C61.0784 512.241 62.7559 508.943 65.0602 506.281C67.475 503.484 70.876 502.48 74.5536 502.471C79.1621 502.471 83.8166 502.955 88.4251 503.197C90.204 503.287 90.1948 500.598 88.4251 500.508H88.4159Z" fill="#333333"/>
<path d="M108.731 670.899C106.187 670.881 103.717 670.765 101.293 670.828C98.8684 670.89 96.3707 671.303 93.8913 671.33C91.4119 671.356 89.1169 671.374 86.5823 671.267C86.5638 672.701 86.5177 676.743 86.4809 678.742C86.4809 678.948 86.444 679.137 86.4348 679.289C86.4164 680.427 86.2505 681.691 85.7251 682.605C85.0062 683.842 83.7066 684.344 82.6098 684.954C81.5129 685.563 80.2779 686.594 80.4438 688.127C82.407 688.261 84.361 688.512 86.3242 688.593C88.2874 688.673 90.269 688.342 92.2415 688.378C94.2139 688.413 96.1771 688.476 98.1403 688.458C100.104 688.44 102.076 688.342 104.039 688.279C104.942 688.252 105.781 688.297 106.546 687.661C107.698 686.702 108.233 684.9 108.5 683.161C108.528 682.991 108.316 682.785 108.334 682.596C108.482 681.135 108.482 678.939 108.463 676.77C108.445 674.485 108.602 672.217 108.731 670.917V670.899Z" fill="#333333"/>
<path d="M108.73 669.555C104.997 669.528 101.32 669.403 97.5961 669.743C93.937 670.084 90.2502 670.057 86.5818 669.922C85.8261 669.895 85.2085 670.559 85.1993 671.267C85.1532 674.261 85.3744 677.362 84.9965 680.329C84.8859 681.234 84.6094 682.076 83.8628 682.668C83.2084 683.188 82.3881 683.484 81.6784 683.923C80.1392 684.864 78.9779 686.271 79.0608 688.118C79.0977 688.889 79.6691 689.408 80.4434 689.462C82.6831 689.624 84.9228 689.955 87.1717 689.937C89.1718 689.919 91.1534 689.686 93.1535 689.722C95.2734 689.767 97.3933 689.812 99.5132 689.758C101.486 689.713 103.596 689.803 105.541 689.498C107.237 689.229 108.343 687.983 108.997 686.522C109.329 685.778 109.56 684.999 109.726 684.201C109.891 683.403 109.753 682.749 109.781 681.951C109.919 678.258 109.781 674.574 110.122 670.89C110.288 669.169 107.514 669.178 107.357 670.89C107.043 674.225 107.182 677.559 107.062 680.893C107.007 682.462 107.182 683.421 106.712 684.846C106.509 685.447 106.223 686.2 105.689 686.594C105.117 687.015 104.288 686.908 103.606 686.935C99.6699 687.069 95.7619 686.988 91.8355 687.015C90.0013 687.033 88.1764 687.293 86.3422 687.23C84.379 687.168 82.4158 686.899 80.4618 686.764L81.8443 688.109C81.7614 686.397 83.9827 685.868 85.1624 685.061C86.8584 683.905 87.5773 682.283 87.78 680.311C88.0934 677.317 87.9367 674.252 87.9828 671.249L86.6003 672.593C90.2686 672.737 93.9554 672.755 97.6145 672.414C101.338 672.074 105.016 672.199 108.749 672.226C110.527 672.244 110.527 669.555 108.749 669.537L108.73 669.555Z" fill="#333333"/>
<path d="M84.3701 633.603C84.4316 635.898 84.4899 638.19 84.5452 640.478C84.6374 643.92 84.8955 643.911 84.9877 647.353C85.0798 650.795 84.7388 650.804 84.831 654.246C84.9231 657.688 85.0153 657.688 85.0983 661.129C85.1904 664.571 84.9323 664.58 85.0245 668.013C85.1167 671.446 85.3471 671.446 85.4393 674.888C85.5315 678.33 85.3655 678.339 85.4577 681.781C85.4854 682.677 86.278 683.502 87.0338 683.502C90.4809 683.502 90.4809 683.43 93.9189 683.439C97.366 683.439 97.366 683.618 100.813 683.627C104.26 683.636 104.26 683.573 107.707 683.582C108.472 683.582 108.961 682.686 108.961 681.772C108.961 678.706 109.016 678.706 109.016 675.641C109.016 672.576 109.311 672.576 109.311 669.51C109.311 666.445 109.247 666.445 109.256 663.379C109.256 660.314 109.339 660.314 109.348 657.248C109.348 654.183 109.062 654.183 109.072 651.118C109.072 648.052 109.274 648.052 109.284 644.987C109.284 641.921 109.394 641.921 109.394 638.847C109.394 635.773 109.44 635.781 109.449 632.707" fill="#95BECE"/>
<path d="M82.9878 633.603C83.0891 637.565 83.255 641.5 83.5223 645.453C83.6606 647.55 83.5776 649.603 83.467 651.691C83.3564 653.753 83.4855 655.832 83.5961 657.894C83.8081 662.035 83.4486 666.176 83.7528 670.308C83.9002 672.325 84.0754 674.323 84.0846 676.349C84.103 678.24 83.8449 680.23 84.1214 682.103C84.2873 683.206 85.0063 684.246 86.1123 684.649C87.2183 685.052 88.5456 684.846 89.67 684.828C91.7899 684.792 93.919 684.748 96.0389 684.819C98.1588 684.891 100.334 684.981 102.491 684.972C103.348 684.972 104.214 684.954 105.072 684.945C106.141 684.936 107.514 685.151 108.519 684.774C110.887 683.896 110.344 680.759 110.381 678.814C110.417 676.77 110.362 674.718 110.556 672.683C110.934 668.614 110.592 664.5 110.703 660.421C110.768 658.145 110.749 655.895 110.565 653.627C110.381 651.36 110.537 649.217 110.639 647.003C110.86 642.253 110.841 637.467 110.851 632.707C110.851 630.977 108.095 630.977 108.085 632.707C108.076 636.534 107.956 640.362 107.92 644.18C107.901 646.116 107.763 648.034 107.717 649.97C107.671 651.924 107.873 653.833 107.956 655.787C108.113 659.677 107.883 663.594 107.929 667.493C107.975 671.419 107.662 675.336 107.597 679.262C107.597 679.665 107.588 680.069 107.579 680.463C107.569 680.858 107.754 681.709 107.532 682.077C107.339 682.408 107.357 682.283 106.878 682.238C106.657 682.22 106.399 682.238 106.178 682.238C105.652 682.238 105.118 682.238 104.592 682.256C102.537 682.283 100.482 682.319 98.4261 682.238C96.4721 682.166 94.5181 682.085 92.5642 682.094C91.7531 682.094 90.942 682.112 90.1309 682.13C89.7069 682.13 89.2829 682.148 88.8497 682.148C88.4165 682.148 87.3382 682.345 87.0248 682.103C86.5178 681.691 86.7943 679.872 86.8036 679.226C86.8128 678.42 86.8404 677.604 86.8404 676.797C86.8404 674.861 86.739 672.943 86.5639 671.016C86.2045 667.045 86.5639 663.066 86.398 659.077C86.3059 656.926 86.1492 654.775 86.186 652.623C86.2229 650.472 86.4165 648.366 86.3151 646.206C86.2137 644.046 85.9556 642.118 85.9003 640.066C85.845 637.915 85.7897 635.755 85.7344 633.603C85.6883 631.874 82.9232 631.874 82.9693 633.603H82.9878Z" fill="#333333"/>
<path d="M134.51 684.631C133.413 684.031 132.003 683.69 131.275 682.453C130.74 681.548 130.777 680.257 130.749 679.128C130.749 678.975 130.731 678.787 130.722 678.581C130.676 676.582 130.574 672.226 130.537 670.792C127.993 670.917 125.468 671.177 123.044 671.159C120.565 671.15 118.113 671.222 115.634 671.177C113.21 671.132 110.684 670.747 108.149 670.783C108.288 672.083 108.177 674.467 108.168 676.761C108.168 678.93 108.242 681.144 108.398 682.605C108.417 682.803 108.518 682.973 108.546 683.143C108.822 684.891 109.2 686.854 110.352 687.804C111.117 688.44 112.103 688.27 113.007 688.297C114.979 688.351 116.942 688.584 118.906 688.584C120.878 688.584 122.85 688.682 124.814 688.638C126.786 688.593 128.749 688.378 130.712 688.279C132.676 688.18 134.501 687.903 136.464 687.759C136.621 686.227 135.588 685.232 134.491 684.631H134.51Z" fill="#333333"/>
<path d="M135.211 683.475C134.105 682.892 132.584 682.543 132.262 681.198C131.985 680.042 132.105 678.724 132.077 677.541C132.022 675.291 131.976 673.042 131.921 670.792C131.902 670.093 131.303 669.411 130.538 669.447C126.796 669.636 123.091 669.806 119.339 669.842C117.524 669.86 115.717 669.878 113.911 669.761C111.994 669.636 110.076 669.438 108.15 669.438C107.45 669.438 106.703 670.057 106.768 670.783C107.099 674.503 106.657 678.258 106.961 681.987C107.182 684.613 107.846 688.969 111.1 689.552C112.021 689.713 112.989 689.632 113.92 689.677C114.98 689.731 116.04 689.821 117.1 689.875C119.21 689.982 121.349 689.991 123.469 690C127.819 690.009 132.151 689.453 136.483 689.104C137.257 689.041 137.829 688.539 137.866 687.759C137.948 685.859 136.833 684.416 135.211 683.466C133.681 682.578 132.289 684.9 133.819 685.787C134.64 686.262 135.147 686.791 135.1 687.75L136.483 686.406C132.603 686.71 128.732 687.195 124.833 687.284C120.962 687.374 117.109 687.06 113.247 686.944C112.593 686.926 111.662 687.114 111.136 686.648C110.712 686.271 110.519 685.608 110.371 685.079C109.975 683.735 109.745 682.301 109.671 680.902C109.487 677.532 109.846 674.117 109.551 670.765L108.169 672.109C110.095 672.109 112.003 672.307 113.929 672.432C115.736 672.549 117.551 672.531 119.358 672.513C123.109 672.477 126.814 672.316 130.557 672.118L129.174 670.774C129.229 673.337 129.266 675.901 129.349 678.455C129.395 679.988 129.275 681.727 130.096 683.107C130.916 684.488 132.437 685.034 133.829 685.769C135.395 686.585 136.796 684.264 135.22 683.448L135.211 683.475Z" fill="#333333"/>
<path d="M107.495 648.24C107.551 651.602 107.33 651.602 107.385 654.963C107.44 658.324 107.744 658.315 107.809 661.676C107.864 665.037 107.993 665.028 108.048 668.39C108.104 671.751 107.772 671.76 107.827 675.112C107.883 678.464 107.8 678.473 107.855 681.834C107.873 682.749 108.758 683.546 109.523 683.537C112.97 683.484 112.961 683.322 116.408 683.269C119.855 683.215 119.865 683.529 123.312 683.466C126.759 683.403 126.75 683 130.197 682.937C130.943 682.928 131.598 682.381 131.616 681.485C131.662 678.169 131.395 678.16 131.441 674.843C131.487 671.527 131.699 671.527 131.745 668.21C131.791 664.894 131.764 664.894 131.81 661.569C131.856 658.252 132.068 658.252 132.114 654.927C132.16 651.611 131.837 651.602 131.874 648.285C131.92 644.96 132.086 644.969 132.132 641.643C132.178 638.318 132.16 638.318 132.206 635.002C132.215 634.069 131.579 633.433 130.796 633.442C127.579 633.469 127.579 633.424 124.353 633.442C121.127 633.469 121.127 633.568 117.911 633.594C114.694 633.621 114.685 633.657 111.459 633.675C108.233 633.693 108.233 633.621 105.007 633.648" fill="#95BECE"/>
<path d="M106.112 648.24C106.149 650.553 105.956 652.856 106.002 655.169C106.048 657.481 106.371 659.776 106.426 662.089C106.481 664.401 106.647 666.561 106.666 668.802C106.684 671.052 106.417 673.275 106.444 675.524C106.472 677.676 106.195 679.997 106.5 682.13C106.666 683.278 107.467 684.353 108.629 684.73C109.79 685.106 111.209 684.846 112.389 684.783C114.684 684.649 116.988 684.523 119.283 684.676C121.588 684.828 123.883 684.909 126.178 684.631C127.118 684.515 128.058 684.38 129.007 684.326C130.371 684.255 131.726 684.272 132.547 683.018C133.21 682.005 133.017 680.598 132.971 679.45C132.934 678.5 132.851 677.559 132.823 676.609C132.759 674.332 132.98 672.091 133.072 669.824C133.173 667.565 133.137 665.297 133.164 663.039C133.183 660.816 133.367 658.62 133.45 656.397C133.533 654.174 133.321 651.978 133.256 649.755C133.201 647.532 133.404 645.327 133.478 643.113C133.551 640.899 133.542 638.686 133.561 636.472C133.579 635.046 133.717 633.568 132.399 632.626C131.275 631.829 129.708 632.116 128.399 632.107C125.855 632.107 123.311 632.107 120.777 632.196C115.523 632.393 110.26 632.277 104.997 632.313C103.218 632.322 103.218 635.011 104.997 635.002C109.302 634.975 113.597 634.984 117.901 634.948C120.049 634.93 122.196 634.813 124.344 634.796C125.459 634.787 126.565 634.796 127.68 634.796C128.104 634.796 128.528 634.796 128.943 634.796C129.358 634.796 130.501 634.589 130.805 634.796C131.026 634.948 130.786 637.09 130.786 637.547C130.786 638.426 130.777 639.304 130.759 640.182C130.74 642.208 130.63 644.225 130.537 646.251C130.436 648.393 130.556 650.499 130.676 652.632C130.795 654.766 130.676 656.746 130.519 658.799C130.215 662.994 130.519 667.215 130.206 671.419C130.049 673.481 129.984 675.551 130.095 677.613C130.141 678.411 130.196 679.217 130.215 680.015C130.215 680.356 130.39 681.324 130.187 681.584C130.058 681.745 128.5 681.655 128.215 681.673C126.049 681.861 123.966 682.157 121.781 682.112C119.707 682.068 117.661 681.879 115.578 681.933C114.629 681.96 113.68 682.005 112.73 682.068C112.315 682.094 111.901 682.112 111.486 682.13C110.97 682.148 109.919 682.372 109.477 682.157C108.924 681.897 109.2 679.827 109.2 679.253C109.2 678.366 109.219 677.478 109.2 676.582C109.182 674.216 109.375 671.885 109.403 669.528C109.431 667.171 109.228 664.813 109.173 662.456C109.117 660.081 108.804 657.732 108.749 655.357C108.693 652.982 108.887 650.598 108.85 648.213C108.822 646.484 106.057 646.484 106.085 648.213L106.112 648.24Z" fill="#333333"/>
<path d="M136.353 599.023C136.169 597.903 135.717 596.827 135.413 595.707C134.934 593.959 134.243 592.274 133.45 590.634C132.657 588.993 131.809 587.38 130.501 586.071C128.206 583.777 125.791 583.212 123.21 583.033C120.629 582.854 117.846 583.257 115.007 582.674C112.73 582.208 110.417 581.859 108.067 581.895C105.707 581.93 103.348 582.092 101.099 582.683C98.7575 583.293 96.9233 584.763 94.7113 585.614C93.1075 586.233 91.6512 585.892 90.453 587.246C88.923 588.976 88.1396 591.485 87.5773 594.067C87.0243 596.63 86.8123 599.301 86.5174 601.443C86.2409 603.505 85.7524 605.54 85.5312 607.601C85.31 609.663 85.1902 611.742 85.0242 613.813C84.8583 615.883 84.7846 617.963 84.674 620.033C84.5634 622.104 84.5542 624.183 84.4989 626.263C84.4436 628.342 84.3883 630.412 84.3975 632.492C84.3975 635.253 85.5312 636.31 87.1994 636.848C88.8677 637.386 90.8494 637.35 92.9693 637.458C95.3104 637.574 97.633 637.968 99.9741 638.031C102.315 638.094 104.656 637.753 106.997 637.762C109.182 637.771 111.366 637.691 113.56 637.655C115.744 637.619 117.938 637.753 120.122 637.673C122.307 637.592 124.491 637.269 126.676 637.144C129.275 637.144 132.049 636.597 134.178 635.091C136.353 633.55 137.607 631.228 137.856 628.575C138.141 625.545 138.98 622.408 138.87 619.361C138.805 617.532 138.077 615.955 137.773 614.18C137.34 611.652 137.146 609.134 136.971 606.606C136.796 604.079 136.768 601.533 136.344 599.014L136.353 599.023Z" fill="#FCFCFC"/>
<path d="M137.69 598.665C137.072 595.429 135.782 592.193 134.298 589.253C132.869 586.43 130.879 583.92 127.819 582.665C124.86 581.446 121.68 581.706 118.546 581.662C115.016 581.617 111.624 580.523 108.067 580.559C104.509 580.595 101.089 580.935 97.9833 582.486C96.6745 583.14 95.421 584.001 94.0108 584.449C92.6191 584.888 91.1997 584.879 90.0107 585.82C87.7065 587.658 86.8401 591.01 86.2594 593.717C85.5589 596.962 85.3838 600.287 84.7939 603.559C83.5127 610.729 83.3008 618.124 83.1533 625.384C83.1164 627.015 83.0703 628.647 83.0427 630.278C83.0242 631.838 82.8768 633.514 83.4021 635.02C84.2501 637.413 86.5451 638.273 88.9415 638.569C90.5729 638.766 92.2135 638.748 93.8449 638.874C95.7436 639.017 97.6331 639.304 99.5318 639.385C101.292 639.456 103.043 639.304 104.804 639.196C106.555 639.098 108.306 639.134 110.058 639.098C113.698 639.026 117.367 639.223 120.998 638.999C122.749 638.892 124.491 638.641 126.242 638.542C127.902 638.444 129.542 638.39 131.155 637.96C134.28 637.117 136.971 635.127 138.298 632.214C139.017 630.637 139.146 629.041 139.377 627.356C139.644 625.393 140.04 623.448 140.197 621.476C140.344 619.603 140.142 617.873 139.644 616.062C139.146 614.252 138.842 612.343 138.658 610.424C138.271 606.517 138.289 602.573 137.681 598.692C137.413 596.989 134.75 597.715 135.017 599.409C135.524 602.626 135.506 605.925 135.782 609.17C135.902 610.622 136.068 612.074 136.28 613.526C136.501 615.014 136.934 616.421 137.266 617.873C137.957 620.911 137.054 624.138 136.648 627.159C136.289 629.821 135.828 632.241 133.487 633.971C131.091 635.746 128.224 635.701 125.376 635.943C122.003 636.23 118.712 636.4 115.32 636.364C112.122 636.328 108.887 636.364 105.689 636.499C104.076 636.561 102.472 636.732 100.859 636.749C99.2461 636.767 97.6423 636.597 96.0386 636.427C94.4625 636.265 92.8864 636.167 91.3011 636.095C89.983 636.032 88.4807 636.032 87.2548 635.486C85.0888 634.536 85.7801 631.273 85.817 629.435C85.9368 622.758 86.1764 616.089 86.7479 609.43C87.006 606.409 87.6696 603.451 88.0383 600.448C88.4069 597.419 88.7295 594.371 89.725 591.458C90.1029 590.338 90.6098 589.137 91.4301 588.249C92.3241 587.281 93.891 587.389 95.08 586.968C97.7437 586.009 99.9005 584.297 102.739 583.75C106.362 583.051 110.168 583.176 113.781 583.857C115.671 584.216 117.486 584.413 119.413 584.404C121.007 584.404 122.62 584.315 124.206 584.53C127.561 584.978 129.892 586.95 131.45 589.8C133.008 592.65 134.39 596.119 135.017 599.436C135.34 601.139 138.003 600.413 137.681 598.719L137.69 598.665Z" fill="#333333"/>
<path d="M113.836 596.164C114.583 593.717 115.302 591.835 114.048 589.468C113.136 587.739 110.748 586.071 108.656 586.403C107.08 586.654 105.928 588.106 104.887 589.657C103.062 592.364 103.292 594.416 104.168 596.612C105.034 598.79 106.278 600.995 106.564 603.648C106.877 606.642 106.195 609.663 105.163 612.37C104.131 615.076 102.831 617.64 102.112 620.517C101.568 622.713 102.49 624.9 103.919 626.854C105.347 628.808 107.347 630.654 108.527 631.945C108.905 632.357 109.366 632.994 109.864 632.967C110.288 632.949 110.647 632.402 110.979 632.062C112.463 630.547 113.984 628.907 115.154 626.989C116.177 625.321 116.721 623.547 116.878 621.79C117.025 620.087 116.776 618.267 116.463 616.358C116.076 614.01 115.716 611.652 115.311 609.313C114.905 606.956 114.122 604.688 113.569 602.384C113.32 601.363 113.163 600.269 113.237 599.203C113.302 598.163 113.541 597.132 113.836 596.164Z" fill="#FFD063"/>
<path d="M115.174 596.523C115.699 594.811 116.28 593.063 116.049 591.252C115.828 589.531 114.952 587.945 113.607 586.806C112.381 585.776 110.795 584.987 109.136 585.023C107.367 585.059 105.966 586.08 104.887 587.371C102.602 590.132 101.45 593.224 102.721 596.675C103.348 598.378 104.224 599.991 104.749 601.73C105.348 603.693 105.376 605.746 105.035 607.762C104.353 611.706 102.27 615.202 101.108 619.002C100.565 620.786 100.39 622.516 101.007 624.309C101.643 626.137 102.786 627.724 104.049 629.193C105.182 630.52 106.473 631.703 107.643 633.003C108.814 634.303 110.187 634.813 111.542 633.469C114.224 630.807 116.962 627.732 117.893 624.031C118.436 621.871 118.335 619.701 118.022 617.523C117.681 615.103 117.257 612.692 116.86 610.281C116.464 607.888 115.837 605.593 115.21 603.254C114.584 600.915 114.473 598.889 115.164 596.532C115.653 594.864 112.989 594.156 112.501 595.814C112.04 597.374 111.726 598.996 111.883 600.619C112.04 602.313 112.537 603.953 112.998 605.584C113.994 609.17 114.491 612.836 115.091 616.502C115.662 620.015 115.837 623.341 113.856 626.487C112.989 627.876 111.911 629.113 110.786 630.305C110.528 630.583 110.261 630.843 110.003 631.121C109.929 631.192 109.726 631.363 109.689 631.461C109.607 631.748 110.132 631.658 110.123 631.676C110.178 631.542 108.924 630.386 108.777 630.242C106.676 628.082 103.864 625.644 103.394 622.534C103.145 620.903 103.92 619.173 104.491 617.667C105.063 616.161 105.754 614.637 106.353 613.104C107.57 609.994 108.325 606.606 107.892 603.263C107.496 600.224 105.699 597.715 105.016 594.784C104.629 593.099 105.228 591.593 106.178 590.194C106.989 589.002 108.049 587.461 109.717 587.774C111.247 588.061 112.602 589.343 113.1 590.75C113.699 592.444 112.998 594.192 112.491 595.823C111.984 597.455 114.648 598.199 115.155 596.54L115.174 596.523Z" fill="#333333"/>
<path d="M125.164 608.246C125.063 610.577 124.74 612.907 124.657 615.238C124.574 617.568 124.924 619.917 124.86 622.247C124.795 624.577 124.408 626.908 124.353 629.238C124.307 631.569 124.187 633.908 124.159 636.239C124.141 637.834 123.975 639.322 124.077 640.944C124.095 641.303 124.233 641.76 124.464 642.047C124.768 642.432 125.404 642.54 125.901 642.602C127.929 642.844 129.985 642.701 132.022 642.8C134.058 642.898 136.086 642.961 138.123 642.925C138.519 642.925 138.953 643.104 139.284 642.898C139.69 642.638 140.013 642.19 140.142 641.742C140.861 639.286 141.063 636.714 141.026 634.159C140.953 629.292 144.345 630.762 147.994 629.005C149.681 628.199 151.377 627.231 152.649 625.886C153.921 624.542 154.889 622.856 155.525 621.127C156.216 619.271 156.124 617.263 156.096 615.292C156.069 613.32 155.792 611.41 155.304 609.51C154.714 607.234 154.151 605.082 153.165 603.155C152.124 601.121 150.972 599.167 149.543 597.428C148.114 595.689 146.216 594.389 144.483 592.874C142.815 591.413 141.202 589.809 139.294 588.465C138.354 587.801 136.446 586.457 134.335 585.345C132.473 584.359 130.427 583.463 128.796 583.329C126.814 583.167 125.146 584.198 125.238 587.129C125.312 589.477 125.634 591.817 125.625 594.174C125.616 596.523 125.56 598.871 125.496 601.219C125.431 603.568 125.293 605.916 125.192 608.264L125.164 608.246Z" fill="#95BECE"/>
<path d="M123.782 608.246C123.634 611.384 123.155 614.494 123.303 617.649C123.376 619.182 123.505 620.714 123.468 622.247C123.432 623.78 123.22 625.456 123.091 627.051C122.842 630.099 122.842 633.182 122.768 636.239C122.722 638.39 121.773 642.325 124.243 643.553C125.358 644.108 126.851 644.055 128.059 644.081C129.662 644.117 131.266 644.108 132.87 644.18C134.474 644.252 135.921 644.288 137.441 644.27C138.805 644.261 139.829 644.467 140.778 643.311C141.607 642.307 141.801 640.828 142.004 639.591C142.253 638.067 142.372 636.534 142.382 634.993C142.382 634.141 142.197 633.012 142.704 632.25C143.027 631.766 143.608 631.623 144.151 631.488C146.096 630.986 147.875 630.583 149.672 629.642C152.041 628.396 153.995 626.729 155.387 624.461C158.447 619.495 157.728 613.302 156.29 607.933C154.88 602.653 152.225 597.571 147.93 593.968C143.635 590.365 139.985 586.833 135.192 584.261C132.907 583.033 129.92 581.464 127.211 582.065C124.759 582.612 123.8 584.852 123.819 587.102C123.837 588.868 124.068 590.625 124.16 592.382C124.243 594.138 124.197 595.904 124.16 597.67C124.095 601.192 123.92 604.715 123.773 608.237C123.699 609.967 126.464 609.967 126.538 608.237C126.777 602.689 127.238 597.06 126.87 591.503C126.787 590.186 126.648 588.868 126.602 587.541C126.575 586.726 126.482 585.596 127.183 584.987C128.51 583.849 131.238 585.301 132.473 585.901C134.556 586.905 136.51 588.142 138.391 589.468C140.437 590.912 142.179 592.713 144.096 594.318C146.013 595.922 147.949 597.428 149.405 599.498C150.843 601.551 152.115 603.792 152.898 606.158C153.718 608.623 154.419 611.213 154.622 613.804C154.806 616.188 154.944 618.823 154.032 621.091C152.354 625.259 148.686 627.75 144.308 628.692C142.898 628.996 141.451 629.382 140.547 630.574C139.322 632.214 139.672 634.374 139.589 636.274C139.534 637.574 139.386 638.865 139.1 640.129C138.99 640.622 138.916 641.267 138.593 641.661L138.511 641.751C138.888 641.634 138.852 641.581 138.4 641.581C138.04 641.491 137.589 641.563 137.229 641.572C134.464 641.59 131.708 641.41 128.943 641.392C128.215 641.392 127.487 641.375 126.759 641.321C126.132 641.276 125.524 641.392 125.441 640.711C125.266 639.241 125.505 637.7 125.542 636.221C125.607 633.164 125.616 630.081 125.865 627.033C125.994 625.429 126.197 623.833 126.243 622.229C126.28 620.768 126.16 619.307 126.086 617.846C125.929 614.619 126.399 611.446 126.556 608.229C126.639 606.499 123.874 606.499 123.791 608.229L123.782 608.246Z" fill="#333333"/>
<path d="M131.063 583.069C132.769 583.813 134.317 585.068 135.451 586.511C136.584 587.954 137.082 589.791 137.368 591.584C137.561 592.803 137.644 594.049 137.239 595.214C136.299 597.912 133.856 599.615 131.322 601.049C133.322 602.815 135.303 605.047 134.806 607.619C134.575 608.793 133.819 609.833 133.045 610.756C131.027 613.14 128.861 615.444 126.437 617.443" fill="#95BECE"/>
<path d="M130.363 584.234C133.847 585.838 135.709 588.725 136.096 592.408C136.483 596.092 133.561 598.217 130.63 599.902C129.893 600.323 129.69 601.425 130.354 602.017C131.423 602.976 132.557 604.016 133.156 605.333C133.829 606.821 133.368 608.139 132.418 609.385C130.437 611.993 127.985 614.404 125.46 616.502C124.105 617.631 126.068 619.522 127.414 618.402C128.99 617.093 130.474 615.668 131.865 614.171C133.183 612.746 134.732 611.24 135.598 609.501C137.423 605.844 135.045 602.555 132.317 600.117C132.225 600.825 132.133 601.524 132.04 602.232C135.792 600.072 139.331 597.06 138.879 592.417C138.677 590.32 138.179 588.088 136.981 586.296C135.727 584.413 133.856 582.881 131.782 581.921C130.179 581.186 128.778 583.499 130.391 584.243L130.363 584.234Z" fill="#333333"/>
<path d="M93.2826 608.246C93.3748 610.335 93.2642 612.441 93.3563 614.53C93.4485 616.618 93.596 618.707 93.6697 620.804C93.7434 622.901 93.7895 624.99 93.8448 627.078C93.9001 629.167 94.2411 631.264 94.2319 633.352C94.2319 636.319 93.7619 639.179 93.4946 642.163C93.4669 642.504 93.6513 642.871 93.4116 643.122C93.1443 643.418 92.7296 643.651 92.324 643.696C91.0244 643.83 87.6326 644.198 84.379 644.332C80.895 644.476 77.4202 644.234 76.8949 642.602C76.6921 641.966 76.775 641.24 76.7935 640.568C76.8303 638.856 77.0239 636.714 77.0976 634.607C77.1714 632.501 77.3188 630.17 76.7013 628.53C74.7289 628.503 72.5168 628.754 70.526 628.405C68.5351 628.055 66.6825 627.078 64.9405 626.2C63.1985 625.321 61.65 624.129 60.4979 622.462C59.5486 621.091 58.9587 619.603 58.6638 617.972C58.3688 616.34 58.1845 614.7 58.3873 613.078C58.59 611.455 58.8481 609.788 59.3458 608.211C59.8435 606.633 60.5071 605.109 61.1062 603.568C61.6316 602.214 62.3137 600.915 62.839 599.561C63.1616 598.728 63.4934 597.912 64.0833 597.231C64.8483 596.352 65.9083 595.85 66.9867 595.375C68.6457 594.64 70.2402 593.69 71.9546 592.982C73.6689 592.274 75.3556 591.602 76.9778 590.777C78.6277 589.944 80.3604 589.262 81.7983 588.16C83.3467 586.968 85.8445 585.22 88.1211 584.503C90.665 583.696 93.0061 584.091 93.0983 587.828C93.1536 590.096 93.1904 592.373 93.1996 594.64C93.2181 596.908 92.9231 599.185 92.9508 601.452C92.9784 603.72 93.1812 605.988 93.2734 608.255L93.2826 608.246Z" fill="#95BECE"/>
<path d="M91.9 608.246C91.983 610.478 91.8908 612.71 91.9922 614.951C92.0936 617.183 92.2411 619.406 92.3148 621.637C92.3885 623.869 92.3701 626.101 92.5176 628.333C92.6651 630.583 92.9139 632.788 92.8033 635.038C92.6835 637.278 92.3148 639.492 92.1581 641.733C92.1581 641.85 92.1673 642.45 92.1397 642.504C92.1673 642.459 92.3332 642.289 92.1581 642.369C91.9738 642.468 91.5498 642.432 91.347 642.45C90.4069 642.549 89.4668 642.638 88.5266 642.719C86.3699 642.898 84.1855 643.078 82.0103 643.015C81.0609 642.988 78.4525 643.095 78.1668 641.939C77.9272 640.998 78.2129 639.689 78.2682 638.73C78.3327 637.565 78.4157 636.4 78.471 635.244C78.5816 632.913 78.8212 630.421 78.0562 628.172C77.8626 627.607 77.3557 627.186 76.7197 627.186C75.0699 627.186 73.4109 627.338 71.761 627.204C70.0928 627.069 68.5535 626.469 67.0696 625.743C64.3783 624.434 62.0187 622.919 60.7652 620.141C57.9725 613.929 61.0417 607.072 63.5856 601.336C64.1847 599.982 64.5442 598.405 65.8253 597.491C67.0604 596.621 68.6181 596.101 69.9545 595.42C72.9408 593.905 76.0838 592.695 79.0977 591.243C81.7614 589.97 83.9182 588.043 86.5081 586.654C87.6142 586.062 90.5452 584.53 91.4208 586.233C92.066 587.488 91.7526 589.442 91.7802 590.795C91.8171 592.785 91.8632 594.766 91.771 596.756C91.6788 598.602 91.5406 600.439 91.5959 602.286C91.6512 604.276 91.8079 606.257 91.9 608.237C91.9738 609.958 94.7389 609.967 94.6651 608.237C94.573 606.257 94.4163 604.267 94.361 602.286C94.3057 600.368 94.4531 598.459 94.5453 596.54C94.6375 594.56 94.5822 592.57 94.5453 590.58C94.5177 588.976 94.6836 587.192 94.149 585.641C93.3195 583.23 91.0152 582.477 88.6096 582.961C85.4574 583.598 83.0426 585.722 80.471 587.425C77.3557 589.486 73.6597 590.661 70.2771 592.229C68.6181 593 66.959 593.807 65.3276 594.631C63.7607 595.429 62.6363 596.567 61.9266 598.145C58.9679 604.814 55.53 612.002 57.5854 619.406C58.5808 622.991 61.0878 625.716 64.4243 627.419C66.2401 628.351 68.1296 629.301 70.1665 629.669C72.3325 630.063 74.5261 629.83 76.7013 629.839L75.3649 628.853C76.1114 631.049 75.7704 633.577 75.6506 635.844C75.5861 637.054 75.4939 638.255 75.4386 639.465C75.3925 640.478 75.245 641.599 75.4662 642.602C75.8534 644.323 77.5032 645.094 79.1438 645.399C81.4204 645.82 83.7615 645.704 86.0565 645.56C88.0842 645.435 90.112 645.265 92.1213 645.032C93.0614 644.924 94.0476 644.601 94.5822 643.768C94.8403 643.364 94.8587 642.925 94.8679 642.468C94.8771 641.787 94.9509 641.115 95.0246 640.433C95.2919 637.933 95.6329 635.423 95.5868 632.895C95.5407 630.386 95.2181 627.885 95.1628 625.366C95.0983 622.579 94.9969 619.791 94.8402 617.004C94.6836 614.073 94.7481 611.142 94.6375 608.211C94.573 606.481 91.8079 606.481 91.8724 608.211L91.9 608.246Z" fill="#333333"/>
<path d="M89.0889 583.409C87.3469 584.055 85.8537 585.157 84.6371 586.538C83.4204 587.918 82.2499 589.46 81.8628 591.234C81.5955 592.444 81.5494 593.807 81.8904 594.99C82.6647 597.733 85.2546 599.507 87.6971 601.085C85.5956 602.734 83.4204 604.858 83.7707 607.458C83.9274 608.641 84.8122 609.6 85.5403 610.568C87.4114 613.06 89.4944 615.381 91.7986 617.505" fill="#95BECE"/>
<path d="M88.72 582.119C84.6369 583.723 80.8856 587.613 80.351 591.978C79.7519 596.827 83.2175 599.794 86.9964 602.25C86.9043 601.542 86.8121 600.843 86.7199 600.135C84.0286 602.268 81.116 605.584 82.8949 609.152C83.7244 610.801 85.1438 612.325 86.3328 613.75C87.7246 615.408 89.2269 616.977 90.8215 618.464C92.1118 619.657 94.0658 617.765 92.7755 616.564C90.2961 614.261 88.0748 611.733 86.0655 609.026C85.1623 607.816 84.8212 606.714 85.5586 605.315C86.2959 603.917 87.5034 602.976 88.6739 602.044C89.4113 601.461 89.061 600.368 88.3974 599.929C85.5862 598.109 82.6829 596.012 83.07 592.355C83.411 589.128 86.4342 585.892 89.4481 584.709C91.0795 584.073 90.3606 581.464 88.7108 582.119H88.72Z" fill="#333333"/>
<path d="M92.7572 584.736C92.1765 586.564 91.3931 588.393 91.3654 590.302C91.3378 592.364 91.7894 594.658 93.1443 596.245C94.3241 597.634 96.2136 598.082 98.0754 598.163C99.8635 598.235 101.633 597.724 103.163 596.827C104.73 595.904 106.205 594.873 107.348 593.475C108.472 592.095 109.394 590.49 110.343 588.993C110.509 592.57 111.587 594.604 114.491 596.845C115.2 597.392 115.901 597.876 116.749 598.19C119.007 599.032 121.569 598.432 123.339 596.836C125.109 595.241 125.874 592.919 126.012 590.58C126.15 588.241 125.56 585.991 124.722 583.786" fill="#FCFCFC"/>
<path d="M91.4303 584.386C90.4072 587.559 89.5131 590.499 90.4072 593.825C91.1906 596.72 93.246 598.826 96.3245 599.337C99.5873 599.884 102.5 598.978 105.182 597.177C108.076 595.232 109.735 592.552 111.542 589.684L108.961 589.002C109.118 591.754 109.864 594.237 111.818 596.298C114.003 598.602 116.934 600.368 120.261 599.794C123.588 599.22 125.911 596.702 126.869 593.699C127.957 590.284 127.303 586.717 126.077 583.436C125.478 581.823 122.805 582.522 123.413 584.153C124.372 586.717 125.044 589.424 124.436 592.148C123.911 594.488 122.418 596.63 119.883 597.15C117.348 597.67 115.348 596.047 113.791 594.407C112.353 592.892 111.855 591.028 111.744 589.011C111.671 587.694 109.91 587.165 109.164 588.33C107.753 590.571 106.482 592.901 104.279 594.515C102.242 596.012 99.9928 597.078 97.3844 596.791C94.9143 596.523 93.5317 595.088 92.9879 592.767C92.3612 590.06 93.2644 587.658 94.094 585.103C94.6286 583.445 91.9649 582.737 91.4303 584.386Z" fill="#333333"/>
<path d="M156.557 533.144C155.018 533.144 153.562 533.583 152.225 534.138C151.635 532.077 150.99 530.051 150.114 528.124C149.23 526.17 148.271 524.234 147.119 522.45C145.967 520.667 144.501 519.035 143.091 517.422C141.681 515.8 140.308 514.106 138.676 512.707C137.045 511.3 135.054 510.323 133.229 509.158C131.404 507.993 129.542 506.944 127.551 506.048C125.588 505.16 123.634 504.174 121.533 503.565C119.431 502.955 117.293 502.651 115.109 502.346C112.979 502.05 110.804 501.916 108.592 501.916C106.38 501.916 104.196 501.996 102.067 502.301C99.8821 502.606 97.753 503.09 95.6792 503.69C93.6054 504.291 91.4578 504.909 89.4946 505.797C87.5038 506.693 85.7249 507.966 83.9092 509.131C82.0934 510.296 80.3975 511.623 78.7661 513.03C77.1347 514.437 75.4849 515.827 74.0747 517.449C72.6645 519.071 71.2174 520.685 70.0561 522.486C68.8948 524.288 68.0837 526.278 67.1989 528.232C66.314 530.186 65.4753 532.05 64.8854 534.112C63.5213 533.529 62.0927 533.242 60.5074 533.242C58.4704 533.242 56.5902 533.87 54.9495 534.793C53.2628 535.752 51.7881 537.069 50.8111 538.719C49.8341 540.368 49.4102 542.196 49.4102 544.177C49.4102 546.158 50.1199 547.897 51.0692 549.492C52.0462 551.142 53.143 552.809 54.8297 553.768C56.5164 554.727 58.4796 554.96 60.5166 554.96C61.7793 554.96 62.8945 554.924 64.0282 554.548C64.4706 556.789 65.2909 558.85 66.0652 560.965C66.8486 563.108 67.7242 565.187 68.821 567.168C69.9178 569.149 71.1068 571.112 72.5078 572.904C73.9088 574.706 75.3743 576.49 77.0425 578.058C78.7108 579.627 80.6925 580.846 82.5911 582.154C84.4806 583.454 86.2779 584.942 88.361 585.955C90.444 586.968 92.656 587.694 94.8773 588.384C97.071 589.065 99.3936 589.289 101.707 589.639C103.965 589.979 106.251 590.212 108.611 590.212C110.97 590.212 113.284 590.194 115.542 589.854C117.864 589.504 120.196 589.217 122.39 588.545C124.62 587.855 126.786 586.95 128.851 585.946C130.934 584.933 132.704 583.418 134.593 582.11C136.492 580.801 138.363 579.492 140.022 577.924C141.681 576.355 143.423 574.814 144.824 573.012C146.225 571.21 147.349 569.221 148.455 567.231C149.561 565.241 150.336 563.135 151.119 560.992C151.893 558.886 152.769 556.842 153.211 554.61C154.308 554.96 155.368 555.05 156.585 555.05C158.622 555.05 160.474 554.458 162.115 553.535C163.802 552.576 165.083 551.178 166.06 549.528C167.009 547.933 167.654 546.176 167.654 544.195C167.654 542.214 167.147 540.386 166.207 538.781C165.23 537.132 163.838 535.761 162.152 534.802C160.465 533.843 158.622 533.162 156.585 533.162L156.557 533.144Z" fill="#FFE6D9"/>
<path d="M156.557 531.799C154.908 531.844 153.368 532.229 151.857 532.839C152.428 533.153 152.99 533.466 153.562 533.78C152.474 530.015 151.027 526.376 149.036 522.961C147.138 519.699 144.474 516.831 141.939 514.025C139.322 511.13 136.059 509.248 132.722 507.24C129.506 505.304 125.902 503.502 122.289 502.373C118.445 501.172 114.15 500.697 110.132 500.58C106.113 500.464 101.855 500.768 97.8178 501.719C94.0481 502.606 90.1401 503.708 86.8036 505.662C83.4855 507.598 80.3702 509.839 77.476 512.331C74.287 515.074 71.2638 518.121 68.9596 521.635C67.7798 523.436 66.9503 525.417 66.0747 527.362C65.1345 529.46 64.1852 531.548 63.54 533.744L65.2451 532.803C61.4109 531.243 57.0605 531.781 53.6134 533.995C50.1939 536.191 48.1938 539.615 48.0095 543.586C47.8343 547.252 49.8805 551.42 52.6548 553.876C55.5858 556.466 60.6735 556.95 64.3603 555.829C63.7889 555.516 63.2266 555.202 62.6552 554.888C63.4663 558.814 65.0608 562.803 66.8489 566.415C68.6554 570.063 70.9873 573.415 73.6602 576.499C74.9782 578.022 76.4069 579.43 78.029 580.64C79.6512 581.85 81.3656 582.925 83.0062 584.108C84.6745 585.31 86.3243 586.502 88.2045 587.362C90.0848 588.223 92.2047 588.958 94.2601 589.594C96.3431 590.23 98.4907 590.508 100.647 590.822C102.767 591.127 104.887 591.422 107.035 591.512C111.459 591.691 115.865 591.306 120.206 590.454C124.27 589.657 128.566 587.963 131.957 585.641C135.266 583.373 138.63 581.052 141.552 578.309C143.22 576.75 144.852 575.181 146.225 573.362C147.599 571.542 148.741 569.543 149.801 567.544C150.824 565.617 151.589 563.565 152.345 561.521C153.147 559.352 154.032 557.21 154.502 554.942L152.797 555.883C159.958 558.008 167.544 553.158 168.807 546.06C170.097 538.817 164.023 531.96 156.539 531.79C154.76 531.745 154.76 534.434 156.539 534.479C162.336 534.614 167.231 540.081 166.069 545.719C164.936 551.24 159.175 554.96 153.534 553.293C152.852 553.096 151.977 553.535 151.829 554.234C151.451 556.045 150.815 557.775 150.161 559.513C149.497 561.27 148.898 563.054 148.115 564.766C146.548 568.199 144.474 571.605 141.783 574.312C140.465 575.647 139.082 576.965 137.635 578.166C136.188 579.367 134.566 580.416 133.017 581.536C131.469 582.656 129.985 583.822 128.28 584.691C126.39 585.65 124.409 586.466 122.39 587.12C114.63 589.621 106.058 589.146 98.1312 587.765C94.2601 587.093 90.1585 585.704 86.8865 583.571C85.2367 582.495 83.6883 581.285 82.0569 580.192C80.4255 579.098 78.8954 578.031 77.5313 576.687C74.4897 573.693 72.0012 570.198 69.9642 566.487C68.9227 564.596 68.0932 562.624 67.3466 560.607C66.6 558.59 65.7705 556.394 65.3097 554.189C65.1622 553.49 64.2866 553.042 63.6045 553.248C60.7657 554.109 56.5351 553.876 54.3323 551.742C52.2216 549.699 50.6179 546.517 50.7561 543.595C51.0695 536.989 58.3324 532.911 64.4709 535.411C65.1622 535.698 65.9825 535.098 66.1761 534.47C67.1899 531.028 68.7568 527.533 70.4988 524.378C72.1855 521.312 74.6925 518.489 77.2825 516.113C79.937 513.675 82.7389 511.497 85.7713 509.517C87.3013 508.513 88.8405 507.518 90.5364 506.792C92.1771 506.093 93.9098 505.591 95.6334 505.098C103.154 502.911 110.943 502.767 118.62 504.255C122.233 504.954 125.616 506.496 128.851 508.181C130.473 509.024 131.994 510.018 133.561 510.951C135.128 511.883 136.658 512.725 137.985 513.917C139.497 515.271 140.769 516.848 142.096 518.372C143.432 519.905 144.806 521.42 145.912 523.132C148.188 526.645 149.737 530.517 150.88 534.497C151.064 535.133 151.884 535.716 152.585 535.438C153.866 534.918 155.156 534.533 156.548 534.497C158.327 534.452 158.327 531.763 156.548 531.808L156.557 531.799Z" fill="#333333"/>
<path d="M97.2649 539.463C97.2649 541.067 96.1128 542.286 94.463 542.286C92.8131 542.286 91.4951 541.067 91.4951 539.463C91.4951 537.858 92.8131 536.326 94.463 536.326C96.1128 536.326 97.2649 537.858 97.2649 539.463Z" fill="#333333"/>
<path d="M125.727 539.463C125.727 541.067 124.344 542.304 122.704 542.304C121.063 542.304 119.644 541.067 119.644 539.463C119.644 537.858 121.063 536.496 122.704 536.496C124.344 536.496 125.727 537.858 125.727 539.463Z" fill="#333333"/>
<path d="M107.275 542.268C107.523 542.116 107.782 541.981 108.049 541.865L107.717 541.999C108.003 541.892 108.298 541.802 108.602 541.766L108.233 541.811C108.482 541.784 108.722 541.784 108.961 541.811L108.593 541.766C108.86 541.802 109.109 541.874 109.358 541.972L109.026 541.838C109.312 541.954 109.57 542.116 109.809 542.295L109.533 542.089L109.588 542.134C109.883 542.367 110.169 542.528 110.565 542.528C110.906 542.528 111.312 542.385 111.542 542.134C111.772 541.883 111.966 541.542 111.948 541.184C111.929 540.852 111.828 540.449 111.542 540.234C111.063 539.866 110.62 539.597 110.058 539.382C109.625 539.212 109.146 539.131 108.685 539.122C107.689 539.095 106.694 539.454 105.864 539.965C105.256 540.341 104.952 541.175 105.367 541.802C105.763 542.394 106.602 542.689 107.256 542.286L107.275 542.268Z" fill="#333333"/>
<path d="M88.1487 551.913C88.1487 554.449 87.2271 556.735 85.5311 558.402C83.8352 560.069 81.4757 561.288 78.8765 561.288C76.2773 561.288 73.8256 560.159 72.1205 558.492C70.4246 556.833 69.4199 554.449 69.4199 551.913C69.4199 549.376 70.5075 547.072 72.2034 545.414C73.8994 543.756 76.2681 542.914 78.8673 542.914C81.4665 542.914 83.6877 543.882 85.3929 545.549C87.098 547.216 88.1487 549.376 88.1487 551.904V551.913Z" fill="#EDBBA6"/>
<path d="M147.653 551.913C147.653 554.449 146.686 556.771 144.99 558.438C143.285 560.105 140.897 561.234 138.298 561.234C135.699 561.234 133.257 560.159 131.551 558.492C129.855 556.833 128.888 554.458 128.888 551.922C128.888 549.385 129.966 547.117 131.662 545.45C133.367 543.783 135.699 542.483 138.298 542.483C140.897 542.483 143.192 543.819 144.888 545.486C146.584 547.153 147.644 549.376 147.644 551.913H147.653Z" fill="#EDBBA6"/>
<path d="M145.801 535.725C148.4 537.267 151.617 537.733 152.907 534.165C153.129 533.556 153.073 532.812 153.064 532.167C153.036 530.105 152.834 528.026 152.465 526.009C152.087 523.974 151.193 522.074 150.446 520.165C149.691 518.229 148.843 516.373 147.709 514.652C146.575 512.932 145.442 511.148 143.902 509.723C142.354 508.28 140.658 506.953 138.879 505.779C137.11 504.614 135.165 503.673 133.238 502.758C131.312 501.844 129.34 500.993 127.312 500.311C125.275 499.63 123.146 499.272 121.063 498.823C118.952 498.357 116.823 498.133 114.722 497.882C112.565 497.631 110.408 497.336 108.233 497.344C106.058 497.353 103.892 497.542 101.735 497.829C99.5781 498.124 97.5043 498.698 95.4029 499.272C93.5134 499.791 91.5318 500.249 89.5962 500.939C87.7067 501.611 85.7712 502.256 83.9831 503.153C82.1674 504.067 80.6097 505.331 79.0428 506.541C77.2547 507.921 75.439 509.275 73.8905 510.933C72.3421 512.591 71.0056 514.393 69.6507 516.194C68.941 517.135 67.7613 519.098 66.5723 521.411C65.6782 523.159 64.5814 525.023 63.9639 526.887C63.2173 529.155 62.9224 531.342 63.3648 532.857C63.8625 534.56 65.4202 535.429 68.5631 534.811C70.4157 534.452 72.2776 533.735 74.1763 532.866C75.9183 532.068 77.6787 531.127 79.3838 530.033C81.0429 528.985 82.6005 527.748 84.1674 526.556C85.7343 525.364 87.3657 524.145 88.8128 522.899C90.4073 521.536 91.9189 520.488 93.2553 519.269C92.7023 520.532 93.5964 521.707 94.8038 522.424C96.0112 523.141 97.4214 523.141 98.8408 523.123C101.2 523.096 103.541 522.988 105.836 522.459C108.131 521.931 110.251 520.954 112.38 519.959C114.5 518.964 116.602 518.067 118.454 516.642C118.261 518.381 119.219 519.77 120.464 521.025C121.708 522.28 123.174 523.23 124.916 523.401C126.658 523.571 128.446 523.212 130.059 522.45C131.672 521.689 133.063 520.595 134.234 519.313C133.377 520.254 135.109 523.194 137.073 526.054C138.953 528.787 140.907 531.62 141.524 532.265C142.437 533.215 144.059 534.703 145.773 535.716L145.801 535.725Z" fill="#333333"/>
<path d="M145.1 536.89C146.879 537.912 149.11 538.674 151.147 537.93C153.626 537.025 154.502 534.533 154.455 532.158C154.391 529.029 154.087 525.83 153.008 522.872C151.948 519.968 150.806 516.956 149.137 514.312C147.598 511.874 145.93 509.597 143.709 507.697C141.321 505.653 138.713 503.923 135.883 502.507C133.054 501.091 130.003 499.657 126.878 498.743C123.754 497.828 120.491 497.237 117.274 496.825C114.058 496.412 110.684 495.919 107.375 496.009C104.149 496.099 100.905 496.475 97.7713 497.246C91.6236 498.779 85.0335 500.338 79.9273 504.165C77.5124 505.976 74.987 507.778 72.9316 509.983C70.9868 512.053 69.1342 514.375 67.6319 516.768C66.1295 519.161 64.664 521.877 63.4658 524.521C62.2676 527.165 61.3551 530.123 61.9819 532.91C63.475 539.507 73.2173 534.945 76.7659 533.108C80.0563 531.405 82.932 529.2 85.8538 526.977C88.7755 524.754 91.6051 522.603 94.2596 520.21C93.4854 519.77 92.7204 519.34 91.9462 518.901C91.1166 521.285 93.1075 523.365 95.3104 524.091C96.5086 524.485 97.8266 524.476 99.0801 524.458C100.619 524.431 102.159 524.369 103.689 524.18C106.481 523.84 109.044 522.952 111.587 521.814C114.187 520.649 116.878 519.51 119.155 517.807C118.463 517.422 117.772 517.037 117.072 516.642C116.832 520.245 120.5 523.911 123.993 524.611C128.242 525.462 132.409 523.239 135.201 520.263L133.026 518.632C132.077 519.914 132.925 521.724 133.533 522.943C134.575 525.023 135.994 526.932 137.321 528.85C138.298 530.266 139.248 531.754 140.39 533.054C141.699 534.542 143.358 535.832 145.054 536.872C146.566 537.795 147.958 535.474 146.446 534.551C143.718 532.884 141.948 530.714 140.169 528.16C139.036 526.538 137.874 524.924 136.842 523.239C136.399 522.522 135.957 521.787 135.644 521.016C135.542 520.756 135.487 520.487 135.386 520.228C135.358 520.129 135.349 520.03 135.358 519.932C135.266 520.156 135.275 520.174 135.395 519.986C136.307 518.74 134.27 517.234 133.22 518.354C131.164 520.55 128.279 522.388 125.09 522.056C122.583 521.796 119.643 519.197 119.809 516.633C119.874 515.692 118.555 514.859 117.726 515.468C115.975 516.777 114.012 517.691 112.03 518.614C110.021 519.546 108.011 520.496 105.845 521.052C104.398 521.42 93.3564 523.069 94.5638 519.609C95.0246 518.274 93.2089 517.44 92.2503 518.3C90.2318 520.129 88.0197 521.823 85.8722 523.508C83.7247 525.193 81.3928 527.066 79.0056 528.626C76.6184 530.186 74.0376 531.557 71.3463 532.561C69.8439 533.126 66.6917 534.443 65.1709 533.278C64.5626 532.812 64.4981 531.925 64.4981 531.234C64.4981 529.872 64.8207 528.51 65.2539 527.219C66.1019 524.682 67.5674 522.235 68.8854 519.896C71.3647 515.504 74.6736 511.578 78.7014 508.441C80.8305 506.783 82.9136 505.053 85.3929 503.923C88.0197 502.722 90.8586 501.835 93.6605 501.091C96.4348 500.356 99.1907 499.496 102.048 499.101C104.933 498.707 107.873 498.537 110.776 498.77C116.408 499.227 122.362 499.953 127.68 501.862C132.952 503.744 138.114 506.406 142.261 510.108C144.427 512.044 146.133 514.545 147.487 517.072C148.243 518.489 148.824 519.977 149.423 521.455C150.013 522.925 150.63 524.395 150.971 525.937C151.303 527.425 151.46 528.967 151.552 530.49C151.626 531.736 151.875 533.233 151.23 534.371C150.16 536.245 147.93 535.42 146.428 534.551C144.888 533.663 143.497 535.994 145.036 536.872L145.1 536.89Z" fill="#333333"/>
<path d="M104.178 556.036C107.118 557.344 110.491 557.416 113.459 556.143C114.823 555.561 116.593 554.548 117.763 553.096C118.934 551.644 119.69 549.761 119.284 548.157C118.648 545.629 115.533 546.14 113.542 546.185C110.574 546.257 107.597 546.23 104.62 546.23C101.919 546.23 98.2235 545.065 98.3986 549.053C98.546 552.325 101.173 554.691 104.178 556.036Z" fill="#FCFCFC"/>
<path d="M103.477 557.192C107.901 559.083 112.86 558.635 116.777 555.821C118.648 554.476 120.197 552.531 120.639 550.272C120.989 548.48 120.565 546.418 118.833 545.441C117.395 544.625 115.653 544.751 114.049 544.823C111.45 544.93 108.832 544.894 106.233 544.885C104.565 544.885 102.869 544.67 101.201 544.733C99.6521 544.787 98.1589 545.289 97.4308 546.723C96.4722 548.641 97.1266 551.222 98.2327 552.943C99.4585 554.861 101.394 556.251 103.468 557.201C105.072 557.936 106.473 555.614 104.86 554.879C102.353 553.732 99.3756 551.5 99.7719 548.426C99.8825 547.521 100.445 547.431 101.293 547.413C102.399 547.386 103.496 547.556 104.602 547.565C108.279 547.61 111.957 547.422 115.634 547.449C116.602 547.449 117.736 547.512 117.957 548.614C118.252 550.147 117.173 551.841 116.104 552.872C113.192 555.677 108.611 556.475 104.869 554.879C103.256 554.189 101.846 556.502 103.477 557.201V557.192Z" fill="#333333"/>
<path d="M94.4628 530.177C94.9052 530.437 95.3199 530.732 95.7347 531.037L95.4582 530.831C96.4628 531.593 97.4214 532.418 98.4721 533.117C98.7579 533.305 99.2187 533.341 99.5413 533.251C99.8639 533.162 100.214 532.928 100.371 532.633C100.739 531.951 100.509 531.217 99.8731 530.795C99.6058 530.616 99.3385 530.428 99.0804 530.231L99.357 530.437C98.2048 529.567 97.1172 528.599 95.8729 527.855C95.2554 527.488 94.3245 527.703 93.9835 528.339C93.6425 528.976 93.8176 529.782 94.4812 530.177H94.4628Z" fill="#333333"/>
<path d="M82.8399 595.868C82.7109 596.684 82.379 597.464 82.1486 598.261C81.7339 599.74 81.1993 601.228 80.1025 602.331C78.4065 604.025 76.0747 604.805 73.6322 604.76C71.2173 604.724 68.6642 604.079 66.6549 603.415C65.0973 602.904 63.6134 601.847 63.1709 600.305C63.0143 599.749 62.9405 599.203 62.9682 598.629C63.0696 596.352 62.8852 594.111 62.9037 591.88C62.9221 589.63 63.0972 587.398 62.9682 585.139C62.8483 583.006 62.793 577.942 65.724 577.44C66.8854 577.243 68.2034 578.022 68.7472 579.044C69.291 580.057 69.2357 581.321 69.3002 582.468C69.4108 584.279 69.632 586.125 69.7426 587.936C69.4938 586.564 70.7196 584.915 72.1482 585.05C73.411 585.175 74.0285 586.52 74.3327 587.497C74.9041 586.932 75.6968 586.771 76.5263 586.86C77.6231 586.986 78.7199 587.864 78.2867 588.85C79.2453 588.554 80.0932 588.5 81.0426 588.85C82.6095 589.424 82.8491 591.252 82.8215 592.883C82.803 593.878 82.9874 594.882 82.8307 595.868H82.8399Z" fill="#FFE6D9"/>
<path d="M81.5031 595.519C81.1529 597.284 80.5999 599.525 79.4754 600.986C78.3694 602.411 76.5168 603.209 74.7195 603.388C72.7471 603.586 70.7009 603.173 68.8114 602.662C67.2445 602.241 65.1892 601.748 64.5532 600.09C64.1845 599.113 64.3873 597.957 64.3873 596.944C64.3873 595.823 64.332 594.694 64.3043 593.574C64.2583 591.396 64.3965 589.226 64.3965 587.057C64.3965 584.736 63.7513 581.59 65.0786 579.483C66.0648 577.924 67.6317 579.367 67.816 580.72C67.9727 581.85 67.945 583.024 68.0464 584.153C68.157 585.417 68.2768 586.681 68.3598 587.945H71.1249C71.0696 587.452 71.2539 586.34 72.0097 586.403C72.5719 586.448 72.8669 587.452 73.0051 587.864C73.3369 588.868 74.5167 589.128 75.3186 588.456C75.5398 588.276 77.0975 588.034 76.9592 588.5C76.6735 589.486 77.6505 590.428 78.6643 590.159C80.093 589.764 81.1345 590.042 81.3741 591.539C81.5953 592.901 81.6045 594.524 81.4571 595.877C81.2635 597.598 84.0286 597.58 84.2221 595.877C84.3512 594.694 84.2498 593.466 84.2037 592.274C84.1668 591.297 84.0286 590.284 83.5585 589.406C82.4801 587.353 80.0284 586.986 77.927 587.559L79.6321 589.218C80.0745 587.703 79.1713 586.376 77.7242 585.803C76.2771 585.229 74.5904 585.534 73.3738 586.555L75.6873 587.147C75.1066 585.372 73.8715 583.535 71.7055 583.732C69.6502 583.92 68.1755 586.009 68.3874 587.936C68.5718 589.621 71.2631 589.693 71.1525 587.936C71.0604 586.529 70.9129 585.13 70.8023 583.723C70.7009 582.486 70.7285 581.222 70.5166 580.003C70.1387 577.798 68.1662 575.862 65.7422 576.104C61.9172 576.481 61.5024 581.321 61.5669 584.198C61.613 586.555 61.5946 588.895 61.5485 591.261C61.5208 592.597 61.5669 593.923 61.6038 595.25C61.6406 596.648 61.5024 598.091 61.6406 599.48C61.8711 601.865 63.4748 603.577 65.6869 604.482C68.028 605.432 70.7101 605.997 73.2448 606.095C75.7794 606.194 78.5353 605.459 80.563 603.765C82.7198 601.954 83.6599 598.862 84.1853 596.227C84.5171 594.533 81.8534 593.816 81.5216 595.51L81.5031 595.519Z" fill="#333333"/>
<path d="M130.427 620.92C131.626 622.417 132.934 623.798 134.51 624.927C136.077 626.047 137.93 626.702 139.727 627.365C140.409 627.616 141.276 627.087 141.432 626.424C141.607 625.662 141.193 625.035 140.465 624.766C138.833 624.165 137.377 623.645 135.902 622.597C135.884 622.579 135.718 622.462 135.819 622.543C135.736 622.48 135.663 622.417 135.589 622.355C135.414 622.211 135.239 622.068 135.073 621.915C134.75 621.638 134.446 621.342 134.151 621.037C133.524 620.392 132.944 619.71 132.381 619.011C131.939 618.456 130.888 618.518 130.427 619.011C129.865 619.603 129.948 620.32 130.427 620.911V620.92Z" fill="#333333"/>
<path d="M78.2686 608.981C78.4345 611.294 79.0059 613.553 79.1534 615.865C79.3009 618.178 79.1626 620.49 79.3009 622.794C79.4023 624.515 82.1674 624.524 82.066 622.794C81.9277 620.481 82.066 618.169 81.9185 615.865C81.7618 613.553 81.1996 611.285 81.0337 608.981C80.9784 608.255 80.4346 607.637 79.6511 607.637C78.9414 607.637 78.2133 608.255 78.2686 608.981Z" fill="#333333"/>
<path d="M136.713 618.805C138.225 617.353 139.294 615.032 140.04 612.585C140.87 609.869 141.579 607.171 141.644 605.593C141.699 604.249 141.727 602.86 141.017 601.703C140.234 600.422 138.483 600.126 137.966 598.53C137.708 597.733 137.874 596.765 137.266 596.173C136.483 595.411 135.146 595.635 134.363 596.397C133.579 597.159 133.478 598.261 133.478 599.337C133.478 599.534 133.312 599.776 133.164 599.929C132.971 600.135 132.556 600.197 132.28 600.117C130.224 599.552 128.648 598.073 126.436 597.903C125.081 597.795 123.597 598.163 123.007 599.364C122.417 600.565 123.441 602.447 124.795 602.447C123.726 602.116 122.445 602.644 122.086 603.675C121.726 604.706 122.003 605.934 123.053 606.31C122.123 606.499 121.302 607.269 121.21 608.184C121.118 609.098 121.791 609.905 122.666 610.254C121.339 610.254 120.445 611.939 120.648 613.203C120.86 614.476 121.901 615.542 122.915 616.367C124.39 617.559 126.206 618.231 127.994 618.913C129.782 619.594 131.598 620.024 133.505 620.132C134.796 620.203 135.754 619.728 136.704 618.814L136.713 618.805Z" fill="#FFE6D9"/>
<path d="M137.69 619.755C140.621 616.815 141.737 612.343 142.594 608.453C142.981 606.687 143.221 604.831 142.926 603.039C142.603 601.067 141.479 600.197 140.013 599.005C138.63 597.885 139.405 595.859 137.746 594.82C136.253 593.887 134.234 594.434 133.156 595.707C132.538 596.433 132.262 597.329 132.16 598.261C132.16 598.333 132.16 598.88 132.105 598.97C132.335 598.602 132.409 598.889 131.994 598.593C131.607 598.315 131.027 598.145 130.593 597.93C128.888 597.069 127.155 596.343 125.192 596.594C123.33 596.836 121.496 598.091 121.478 600.081C121.459 602.071 122.879 603.612 124.814 603.783C126.372 603.917 126.676 601.497 125.183 601.139C123.432 600.726 121.515 601.434 120.842 603.146C120.215 604.733 120.731 606.696 122.372 607.467L122.704 605.011C119.468 605.907 118.842 609.932 121.985 611.419L122.685 608.91C120.593 609.098 119.201 610.935 119.256 612.943C119.33 615.372 121.653 617.344 123.644 618.474C125.837 619.71 128.455 620.687 130.934 621.154C133.534 621.646 135.69 621.602 137.69 619.764C138.99 618.572 137.027 616.672 135.736 617.864C134.464 619.029 133.1 618.85 131.469 618.527C129.838 618.205 128.28 617.631 126.75 616.986C125.303 616.376 123.865 615.605 122.814 614.431C122.39 613.956 121.948 613.355 122.003 612.683C122.031 612.379 122.27 611.635 122.658 611.599C123.893 611.491 124.704 609.734 123.358 609.089C122.473 608.668 122.353 607.888 123.413 607.592C124.473 607.296 124.851 605.656 123.745 605.136C122.814 604.706 123.469 603.505 124.427 603.729C124.547 602.851 124.676 601.972 124.796 601.085C124.381 601.049 124.141 600.251 124.252 599.938C124.473 599.283 125.552 599.203 126.123 599.221C127.874 599.274 129.358 600.431 130.925 601.058C132.944 601.865 134.686 601.219 134.861 598.97C134.907 598.414 135.017 596.935 135.958 597.042C136.621 597.114 136.455 598.226 136.594 598.736C137.045 600.386 138.382 600.924 139.506 602.026C140.667 603.164 140.363 605.423 140.096 606.866C139.718 608.928 139.137 610.98 138.465 612.961C137.865 614.727 137.073 616.511 135.727 617.855C134.492 619.101 136.437 621.001 137.681 619.755H137.69Z" fill="#333333"/>
</g>
<defs>
<clipPath id="clip0_40_794">
<rect width="121" height="194" fill="white" transform="translate(48 496)"/>
</clipPath>
</defs>
</svg>
