<svg width="81" height="47" viewBox="0 0 81 47" fill="none" xmlns="http://www.w3.org/2000/svg">
<mask id="path-1-outside-1_99_319" maskUnits="userSpaceOnUse" x="-2" y="8" width="83" height="35" fill="black">
<rect fill="white" x="-2" y="8" width="83" height="35"/>
<path d="M10.882 40.608C9.36998 40.56 8.09798 40.236 7.06598 39.636C6.05798 39.06 5.30198 38.304 4.79798 37.368C4.31798 36.432 4.07798 35.436 4.07798 34.38C4.07798 32.628 4.61798 31.176 5.69798 30.024C6.80198 28.848 8.54198 28.248 10.918 28.224C15.67 28.152 20.41 28.152 25.138 28.224C27.49 28.224 29.218 28.812 30.322 29.988C31.426 31.164 31.978 32.628 31.978 34.38C31.978 35.436 31.726 36.432 31.222 37.368C30.742 38.304 29.986 39.06 28.954 39.636C27.946 40.236 26.698 40.56 25.21 40.608C20.41 40.728 15.634 40.728 10.882 40.608ZM11.89 18.324H18.622L21.574 26.64H14.734L11.818 18.54L8.64998 26.64H1.37798L5.51798 16.236H1.19798V11.196H21.07V16.236H12.718L11.89 18.324ZM24.778 17.316V10.872H31.906V26.712H24.778V23.112H21.43V17.316H24.778ZM24.706 33.516V32.292L11.278 34.992V36.216L24.706 33.516ZM68.921 15.552V21.24H65.357V26.244H58.229V10.872H65.357V15.552H68.921ZM37.025 11.268H54.485V16.74H43.937V20.52H55.637V25.992H37.025V11.268ZM38.501 27.936H45.557V36.36H58.301V27.936H65.357V40.68H38.501V27.936ZM47.537 32.148L56.357 30.78V32.22L47.537 33.588V32.148ZM77.748 38.988H71.232V33.372H77.748V38.988ZM78.324 12.564L77.208 31.32H71.736L70.8 12.564H78.324Z"/>
</mask>
<path d="M10.882 40.608C9.36998 40.56 8.09798 40.236 7.06598 39.636C6.05798 39.06 5.30198 38.304 4.79798 37.368C4.31798 36.432 4.07798 35.436 4.07798 34.38C4.07798 32.628 4.61798 31.176 5.69798 30.024C6.80198 28.848 8.54198 28.248 10.918 28.224C15.67 28.152 20.41 28.152 25.138 28.224C27.49 28.224 29.218 28.812 30.322 29.988C31.426 31.164 31.978 32.628 31.978 34.38C31.978 35.436 31.726 36.432 31.222 37.368C30.742 38.304 29.986 39.06 28.954 39.636C27.946 40.236 26.698 40.56 25.21 40.608C20.41 40.728 15.634 40.728 10.882 40.608ZM11.89 18.324H18.622L21.574 26.64H14.734L11.818 18.54L8.64998 26.64H1.37798L5.51798 16.236H1.19798V11.196H21.07V16.236H12.718L11.89 18.324ZM24.778 17.316V10.872H31.906V26.712H24.778V23.112H21.43V17.316H24.778ZM24.706 33.516V32.292L11.278 34.992V36.216L24.706 33.516ZM68.921 15.552V21.24H65.357V26.244H58.229V10.872H65.357V15.552H68.921ZM37.025 11.268H54.485V16.74H43.937V20.52H55.637V25.992H37.025V11.268ZM38.501 27.936H45.557V36.36H58.301V27.936H65.357V40.68H38.501V27.936ZM47.537 32.148L56.357 30.78V32.22L47.537 33.588V32.148ZM77.748 38.988H71.232V33.372H77.748V38.988ZM78.324 12.564L77.208 31.32H71.736L70.8 12.564H78.324Z" fill="black"/>
<path d="M10.882 40.608L10.8185 42.607L10.8315 42.6074L10.882 40.608ZM7.06598 39.636L8.07123 37.907L8.06476 37.9032L8.05826 37.8995L7.06598 39.636ZM4.79798 37.368L3.01835 38.2806L3.02752 38.2985L3.03704 38.3162L4.79798 37.368ZM5.69798 30.024L4.23984 28.6551L4.23891 28.6561L5.69798 30.024ZM10.918 28.224L10.9382 30.2239L10.9483 30.2238L10.918 28.224ZM25.138 28.224L25.1075 30.2238L25.1228 30.224H25.138V28.224ZM30.322 29.988L31.7801 28.6191L30.322 29.988ZM31.222 37.368L29.461 36.4198L29.4515 36.4375L29.4424 36.4554L31.222 37.368ZM28.954 39.636L27.9793 37.8896L27.9549 37.9032L27.931 37.9174L28.954 39.636ZM25.21 40.608L25.26 42.6074L25.2672 42.6072L25.2745 42.607L25.21 40.608ZM11.89 18.324L10.0308 17.5867L8.94537 20.324H11.89V18.324ZM18.622 18.324L20.5068 17.6549L20.0343 16.324H18.622V18.324ZM21.574 26.64V28.64H24.4062L23.4588 25.9709L21.574 26.64ZM14.734 26.64L12.8522 27.3174L13.3283 28.64H14.734V26.64ZM11.818 18.54L13.6998 17.8626L11.8955 12.8509L9.95538 17.8115L11.818 18.54ZM8.64998 26.64V28.64H10.0153L10.5126 27.3685L8.64998 26.64ZM1.37798 26.64L-0.480296 25.9005L-1.57039 28.64H1.37798V26.64ZM5.51798 16.236L7.37627 16.9755L8.46636 14.236H5.51798V16.236ZM1.19798 16.236H-0.802016V18.236H1.19798V16.236ZM1.19798 11.196V9.196H-0.802016V11.196H1.19798ZM21.07 11.196H23.07V9.196H21.07V11.196ZM21.07 16.236V18.236H23.07V16.236H21.07ZM12.718 16.236V14.236H11.3596L10.8588 15.4987L12.718 16.236ZM24.778 17.316V19.316H26.778V17.316H24.778ZM24.778 10.872V8.872H22.778V10.872H24.778ZM31.906 10.872H33.906V8.872H31.906V10.872ZM31.906 26.712V28.712H33.906V26.712H31.906ZM24.778 26.712H22.778V28.712H24.778V26.712ZM24.778 23.112H26.778V21.112H24.778V23.112ZM21.43 23.112H19.43V25.112H21.43V23.112ZM21.43 17.316V15.316H19.43V17.316H21.43ZM24.706 33.516L25.1002 35.4768L26.706 35.1539V33.516H24.706ZM24.706 32.292H26.706V29.8498L24.3117 30.3312L24.706 32.292ZM11.278 34.992L10.8837 33.0312L9.27798 33.3541V34.992H11.278ZM11.278 36.216H9.27798V38.6582L11.6722 38.1768L11.278 36.216ZM10.9454 38.609C9.67826 38.5688 8.74993 38.3016 8.07123 37.907L6.06074 41.365C7.44603 42.1704 9.06171 42.5512 10.8185 42.607L10.9454 38.609ZM8.05826 37.8995C7.34417 37.4915 6.86929 36.9962 6.55893 36.4198L3.03704 38.3162C3.73467 39.6118 4.7718 40.6285 6.07371 41.3725L8.05826 37.8995ZM6.57762 36.4554C6.24304 35.8029 6.07798 35.1199 6.07798 34.38H2.07798C2.07798 35.7521 2.39293 37.0611 3.01835 38.2806L6.57762 36.4554ZM6.07798 34.38C6.07798 33.0757 6.46379 32.1314 7.15706 31.3919L4.23891 28.6561C2.77218 30.2206 2.07798 32.1803 2.07798 34.38H6.07798ZM7.15613 31.3929C7.74081 30.7701 8.849 30.245 10.9382 30.2239L10.8978 26.2241C8.23497 26.251 5.86316 26.9259 4.23984 28.6551L7.15613 31.3929ZM10.9483 30.2238C15.6801 30.1521 20.3999 30.1521 25.1075 30.2238L25.1684 26.2242C20.4201 26.1519 15.6598 26.1519 10.8877 26.2242L10.9483 30.2238ZM25.138 30.224C27.193 30.224 28.2829 30.7381 28.8638 31.3569L31.7801 28.6191C30.153 26.8859 27.7869 26.224 25.138 26.224V30.224ZM28.8638 31.3569C29.5883 32.1286 29.978 33.0887 29.978 34.38H33.978C33.978 32.1673 33.2637 30.1994 31.7801 28.6191L28.8638 31.3569ZM29.978 34.38C29.978 35.1027 29.8092 35.7732 29.461 36.4198L32.9829 38.3162C33.6427 37.0908 33.978 35.7693 33.978 34.38H29.978ZM29.4424 36.4554C29.1642 36.9977 28.7106 37.4814 27.9793 37.8896L29.9287 41.3824C31.2613 40.6386 32.3197 39.6103 33.0016 38.2806L29.4424 36.4554ZM27.931 37.9174C27.2817 38.3039 26.3846 38.5691 25.1455 38.609L25.2745 42.607C27.0114 42.5509 28.6103 42.1681 29.977 41.3546L27.931 37.9174ZM25.16 38.6086C20.3932 38.7278 15.6507 38.7278 10.9325 38.6086L10.8315 42.6074C15.6173 42.7282 20.4268 42.7282 25.26 42.6074L25.16 38.6086ZM11.89 20.324H18.622V16.324H11.89V20.324ZM16.7372 18.9931L19.6892 27.3091L23.4588 25.9709L20.5068 17.6549L16.7372 18.9931ZM21.574 24.64H14.734V28.64H21.574V24.64ZM16.6158 25.9626L13.6998 17.8626L9.93621 19.2174L12.8522 27.3174L16.6158 25.9626ZM9.95538 17.8115L6.78738 25.9115L10.5126 27.3685L13.6806 19.2685L9.95538 17.8115ZM8.64998 24.64H1.37798V28.64H8.64998V24.64ZM3.23627 27.3795L7.37627 16.9755L3.6597 15.4965L-0.480296 25.9005L3.23627 27.3795ZM5.51798 14.236H1.19798V18.236H5.51798V14.236ZM3.19798 16.236V11.196H-0.802016V16.236H3.19798ZM1.19798 13.196H21.07V9.196H1.19798V13.196ZM19.07 11.196V16.236H23.07V11.196H19.07ZM21.07 14.236H12.718V18.236H21.07V14.236ZM10.8588 15.4987L10.0308 17.5867L13.7491 19.0613L14.5771 16.9733L10.8588 15.4987ZM26.778 17.316V10.872H22.778V17.316H26.778ZM24.778 12.872H31.906V8.872H24.778V12.872ZM29.906 10.872V26.712H33.906V10.872H29.906ZM31.906 24.712H24.778V28.712H31.906V24.712ZM26.778 26.712V23.112H22.778V26.712H26.778ZM24.778 21.112H21.43V25.112H24.778V21.112ZM23.43 23.112V17.316H19.43V23.112H23.43ZM21.43 19.316H24.778V15.316H21.43V19.316ZM26.706 33.516V32.292H22.706V33.516H26.706ZM24.3117 30.3312L10.8837 33.0312L11.6722 36.9528L25.1002 34.2528L24.3117 30.3312ZM9.27798 34.992V36.216H13.278V34.992H9.27798ZM11.6722 38.1768L25.1002 35.4768L24.3117 31.5552L10.8837 34.2552L11.6722 38.1768ZM68.921 15.552H70.921V13.552H68.921V15.552ZM68.921 21.24V23.24H70.921V21.24H68.921ZM65.357 21.24V19.24H63.357V21.24H65.357ZM65.357 26.244V28.244H67.357V26.244H65.357ZM58.229 26.244H56.229V28.244H58.229V26.244ZM58.229 10.872V8.872H56.229V10.872H58.229ZM65.357 10.872H67.357V8.872H65.357V10.872ZM65.357 15.552H63.357V17.552H65.357V15.552ZM37.025 11.268V9.268H35.025V11.268H37.025ZM54.485 11.268H56.485V9.268H54.485V11.268ZM54.485 16.74V18.74H56.485V16.74H54.485ZM43.937 16.74V14.74H41.937V16.74H43.937ZM43.937 20.52H41.937V22.52H43.937V20.52ZM55.637 20.52H57.637V18.52H55.637V20.52ZM55.637 25.992V27.992H57.637V25.992H55.637ZM37.025 25.992H35.025V27.992H37.025V25.992ZM38.501 27.936V25.936H36.501V27.936H38.501ZM45.557 27.936H47.557V25.936H45.557V27.936ZM45.557 36.36H43.557V38.36H45.557V36.36ZM58.301 36.36V38.36H60.301V36.36H58.301ZM58.301 27.936V25.936H56.301V27.936H58.301ZM65.357 27.936H67.357V25.936H65.357V27.936ZM65.357 40.68V42.68H67.357V40.68H65.357ZM38.501 40.68H36.501V42.68H38.501V40.68ZM47.537 32.148L47.2305 30.1716L45.537 30.4343V32.148H47.537ZM56.357 30.78H58.357V28.4459L56.0505 28.8036L56.357 30.78ZM56.357 32.22L56.6636 34.1964L58.357 33.9337V32.22H56.357ZM47.537 33.588H45.537V35.9221L47.8436 35.5644L47.537 33.588ZM66.921 15.552V21.24H70.921V15.552H66.921ZM68.921 19.24H65.357V23.24H68.921V19.24ZM63.357 21.24V26.244H67.357V21.24H63.357ZM65.357 24.244H58.229V28.244H65.357V24.244ZM60.229 26.244V10.872H56.229V26.244H60.229ZM58.229 12.872H65.357V8.872H58.229V12.872ZM63.357 10.872V15.552H67.357V10.872H63.357ZM65.357 17.552H68.921V13.552H65.357V17.552ZM37.025 13.268H54.485V9.268H37.025V13.268ZM52.485 11.268V16.74H56.485V11.268H52.485ZM54.485 14.74H43.937V18.74H54.485V14.74ZM41.937 16.74V20.52H45.937V16.74H41.937ZM43.937 22.52H55.637V18.52H43.937V22.52ZM53.637 20.52V25.992H57.637V20.52H53.637ZM55.637 23.992H37.025V27.992H55.637V23.992ZM39.025 25.992V11.268H35.025V25.992H39.025ZM38.501 29.936H45.557V25.936H38.501V29.936ZM43.557 27.936V36.36H47.557V27.936H43.557ZM45.557 38.36H58.301V34.36H45.557V38.36ZM60.301 36.36V27.936H56.301V36.36H60.301ZM58.301 29.936H65.357V25.936H58.301V29.936ZM63.357 27.936V40.68H67.357V27.936H63.357ZM65.357 38.68H38.501V42.68H65.357V38.68ZM40.501 40.68V27.936H36.501V40.68H40.501ZM47.8436 34.1244L56.6636 32.7564L56.0505 28.8036L47.2305 30.1716L47.8436 34.1244ZM54.357 30.78V32.22H58.357V30.78H54.357ZM56.0505 30.2436L47.2305 31.6116L47.8436 35.5644L56.6636 34.1964L56.0505 30.2436ZM49.537 33.588V32.148H45.537V33.588H49.537ZM77.748 38.988V40.988H79.748V38.988H77.748ZM71.232 38.988H69.232V40.988H71.232V38.988ZM71.232 33.372V31.372H69.232V33.372H71.232ZM77.748 33.372H79.748V31.372H77.748V33.372ZM78.324 12.564L80.3205 12.6828L80.4466 10.564H78.324V12.564ZM77.208 31.32V33.32H79.0926L79.2045 31.4388L77.208 31.32ZM71.736 31.32L69.7385 31.4197L69.8334 33.32H71.736V31.32ZM70.8 12.564V10.564H68.6977L68.8025 12.6637L70.8 12.564ZM77.748 36.988H71.232V40.988H77.748V36.988ZM73.232 38.988V33.372H69.232V38.988H73.232ZM71.232 35.372H77.748V31.372H71.232V35.372ZM75.748 33.372V38.988H79.748V33.372H75.748ZM76.3276 12.4452L75.2116 31.2012L79.2045 31.4388L80.3205 12.6828L76.3276 12.4452ZM77.208 29.32H71.736V33.32H77.208V29.32ZM73.7336 31.2203L72.7976 12.4643L68.8025 12.6637L69.7385 31.4197L73.7336 31.2203ZM70.8 14.564H78.324V10.564H70.8V14.564Z" fill="black" mask="url(#path-1-outside-1_99_319)"/>
<mask id="path-3-outside-2_99_319" maskUnits="userSpaceOnUse" x="-2" y="4" width="83" height="35" fill="black">
<rect fill="white" x="-2" y="4" width="83" height="35"/>
<path d="M10.882 36.608C9.36998 36.56 8.09798 36.236 7.06598 35.636C6.05798 35.06 5.30198 34.304 4.79798 33.368C4.31798 32.432 4.07798 31.436 4.07798 30.38C4.07798 28.628 4.61798 27.176 5.69798 26.024C6.80198 24.848 8.54198 24.248 10.918 24.224C15.67 24.152 20.41 24.152 25.138 24.224C27.49 24.224 29.218 24.812 30.322 25.988C31.426 27.164 31.978 28.628 31.978 30.38C31.978 31.436 31.726 32.432 31.222 33.368C30.742 34.304 29.986 35.06 28.954 35.636C27.946 36.236 26.698 36.56 25.21 36.608C20.41 36.728 15.634 36.728 10.882 36.608ZM11.89 14.324H18.622L21.574 22.64H14.734L11.818 14.54L8.64998 22.64H1.37798L5.51798 12.236H1.19798V7.196H21.07V12.236H12.718L11.89 14.324ZM24.778 13.316V6.872H31.906V22.712H24.778V19.112H21.43V13.316H24.778ZM24.706 29.516V28.292L11.278 30.992V32.216L24.706 29.516ZM68.921 11.552V17.24H65.357V22.244H58.229V6.872H65.357V11.552H68.921ZM37.025 7.268H54.485V12.74H43.937V16.52H55.637V21.992H37.025V7.268ZM38.501 23.936H45.557V32.36H58.301V23.936H65.357V36.68H38.501V23.936ZM47.537 28.148L56.357 26.78V28.22L47.537 29.588V28.148ZM77.748 34.988H71.232V29.372H77.748V34.988ZM78.324 8.564L77.208 27.32H71.736L70.8 8.564H78.324Z"/>
</mask>
<path d="M10.882 36.608C9.36998 36.56 8.09798 36.236 7.06598 35.636C6.05798 35.06 5.30198 34.304 4.79798 33.368C4.31798 32.432 4.07798 31.436 4.07798 30.38C4.07798 28.628 4.61798 27.176 5.69798 26.024C6.80198 24.848 8.54198 24.248 10.918 24.224C15.67 24.152 20.41 24.152 25.138 24.224C27.49 24.224 29.218 24.812 30.322 25.988C31.426 27.164 31.978 28.628 31.978 30.38C31.978 31.436 31.726 32.432 31.222 33.368C30.742 34.304 29.986 35.06 28.954 35.636C27.946 36.236 26.698 36.56 25.21 36.608C20.41 36.728 15.634 36.728 10.882 36.608ZM11.89 14.324H18.622L21.574 22.64H14.734L11.818 14.54L8.64998 22.64H1.37798L5.51798 12.236H1.19798V7.196H21.07V12.236H12.718L11.89 14.324ZM24.778 13.316V6.872H31.906V22.712H24.778V19.112H21.43V13.316H24.778ZM24.706 29.516V28.292L11.278 30.992V32.216L24.706 29.516ZM68.921 11.552V17.24H65.357V22.244H58.229V6.872H65.357V11.552H68.921ZM37.025 7.268H54.485V12.74H43.937V16.52H55.637V21.992H37.025V7.268ZM38.501 23.936H45.557V32.36H58.301V23.936H65.357V36.68H38.501V23.936ZM47.537 28.148L56.357 26.78V28.22L47.537 29.588V28.148ZM77.748 34.988H71.232V29.372H77.748V34.988ZM78.324 8.564L77.208 27.32H71.736L70.8 8.564H78.324Z" fill="white"/>
<path d="M10.882 36.608L10.8185 38.607L10.8315 38.6074L10.882 36.608ZM7.06598 35.636L8.07123 33.907L8.06476 33.9032L8.05826 33.8995L7.06598 35.636ZM4.79798 33.368L3.01835 34.2806L3.02752 34.2985L3.03704 34.3162L4.79798 33.368ZM5.69798 26.024L4.23984 24.6551L4.23891 24.6561L5.69798 26.024ZM10.918 24.224L10.9382 26.2239L10.9483 26.2238L10.918 24.224ZM25.138 24.224L25.1075 26.2238L25.1228 26.224H25.138V24.224ZM30.322 25.988L31.7801 24.6191L30.322 25.988ZM31.222 33.368L29.461 32.4198L29.4515 32.4375L29.4424 32.4554L31.222 33.368ZM28.954 35.636L27.9793 33.8896L27.9549 33.9032L27.931 33.9174L28.954 35.636ZM25.21 36.608L25.26 38.6074L25.2672 38.6072L25.2745 38.607L25.21 36.608ZM11.89 14.324L10.0308 13.5867L8.94537 16.324H11.89V14.324ZM18.622 14.324L20.5068 13.6549L20.0343 12.324H18.622V14.324ZM21.574 22.64V24.64H24.4062L23.4588 21.9709L21.574 22.64ZM14.734 22.64L12.8522 23.3174L13.3283 24.64H14.734V22.64ZM11.818 14.54L13.6998 13.8626L11.8955 8.85085L9.95538 13.8115L11.818 14.54ZM8.64998 22.64V24.64H10.0153L10.5126 23.3685L8.64998 22.64ZM1.37798 22.64L-0.480296 21.9005L-1.57039 24.64H1.37798V22.64ZM5.51798 12.236L7.37627 12.9755L8.46636 10.236H5.51798V12.236ZM1.19798 12.236H-0.802016V14.236H1.19798V12.236ZM1.19798 7.196V5.196H-0.802016V7.196H1.19798ZM21.07 7.196H23.07V5.196H21.07V7.196ZM21.07 12.236V14.236H23.07V12.236H21.07ZM12.718 12.236V10.236H11.3596L10.8588 11.4987L12.718 12.236ZM24.778 13.316V15.316H26.778V13.316H24.778ZM24.778 6.872V4.872H22.778V6.872H24.778ZM31.906 6.872H33.906V4.872H31.906V6.872ZM31.906 22.712V24.712H33.906V22.712H31.906ZM24.778 22.712H22.778V24.712H24.778V22.712ZM24.778 19.112H26.778V17.112H24.778V19.112ZM21.43 19.112H19.43V21.112H21.43V19.112ZM21.43 13.316V11.316H19.43V13.316H21.43ZM24.706 29.516L25.1002 31.4768L26.706 31.1539V29.516H24.706ZM24.706 28.292H26.706V25.8498L24.3117 26.3312L24.706 28.292ZM11.278 30.992L10.8837 29.0312L9.27798 29.3541V30.992H11.278ZM11.278 32.216H9.27798V34.6582L11.6722 34.1768L11.278 32.216ZM10.9454 34.609C9.67826 34.5688 8.74993 34.3016 8.07123 33.907L6.06074 37.365C7.44603 38.1704 9.06171 38.5512 10.8185 38.607L10.9454 34.609ZM8.05826 33.8995C7.34417 33.4915 6.86929 32.9962 6.55893 32.4198L3.03704 34.3162C3.73467 35.6118 4.7718 36.6285 6.07371 37.3725L8.05826 33.8995ZM6.57762 32.4554C6.24304 31.8029 6.07798 31.1199 6.07798 30.38H2.07798C2.07798 31.7521 2.39293 33.0611 3.01835 34.2806L6.57762 32.4554ZM6.07798 30.38C6.07798 29.0757 6.46379 28.1314 7.15706 27.3919L4.23891 24.6561C2.77218 26.2206 2.07798 28.1803 2.07798 30.38H6.07798ZM7.15613 27.3929C7.74081 26.7701 8.849 26.245 10.9382 26.2239L10.8978 22.2241C8.23497 22.251 5.86316 22.9259 4.23984 24.6551L7.15613 27.3929ZM10.9483 26.2238C15.6801 26.1521 20.3999 26.1521 25.1075 26.2238L25.1684 22.2242C20.4201 22.1519 15.6598 22.1519 10.8877 22.2242L10.9483 26.2238ZM25.138 26.224C27.193 26.224 28.2829 26.7381 28.8638 27.3569L31.7801 24.6191C30.153 22.8859 27.7869 22.224 25.138 22.224V26.224ZM28.8638 27.3569C29.5883 28.1286 29.978 29.0887 29.978 30.38H33.978C33.978 28.1673 33.2637 26.1994 31.7801 24.6191L28.8638 27.3569ZM29.978 30.38C29.978 31.1027 29.8092 31.7732 29.461 32.4198L32.9829 34.3162C33.6427 33.0908 33.978 31.7693 33.978 30.38H29.978ZM29.4424 32.4554C29.1642 32.9977 28.7106 33.4814 27.9793 33.8896L29.9287 37.3824C31.2613 36.6386 32.3197 35.6103 33.0016 34.2806L29.4424 32.4554ZM27.931 33.9174C27.2817 34.3039 26.3846 34.5691 25.1455 34.609L25.2745 38.607C27.0114 38.5509 28.6103 38.1681 29.977 37.3546L27.931 33.9174ZM25.16 34.6086C20.3932 34.7278 15.6507 34.7278 10.9325 34.6086L10.8315 38.6074C15.6173 38.7282 20.4268 38.7282 25.26 38.6074L25.16 34.6086ZM11.89 16.324H18.622V12.324H11.89V16.324ZM16.7372 14.9931L19.6892 23.3091L23.4588 21.9709L20.5068 13.6549L16.7372 14.9931ZM21.574 20.64H14.734V24.64H21.574V20.64ZM16.6158 21.9626L13.6998 13.8626L9.93621 15.2174L12.8522 23.3174L16.6158 21.9626ZM9.95538 13.8115L6.78738 21.9115L10.5126 23.3685L13.6806 15.2685L9.95538 13.8115ZM8.64998 20.64H1.37798V24.64H8.64998V20.64ZM3.23627 23.3795L7.37627 12.9755L3.6597 11.4965L-0.480296 21.9005L3.23627 23.3795ZM5.51798 10.236H1.19798V14.236H5.51798V10.236ZM3.19798 12.236V7.196H-0.802016V12.236H3.19798ZM1.19798 9.196H21.07V5.196H1.19798V9.196ZM19.07 7.196V12.236H23.07V7.196H19.07ZM21.07 10.236H12.718V14.236H21.07V10.236ZM10.8588 11.4987L10.0308 13.5867L13.7491 15.0613L14.5771 12.9733L10.8588 11.4987ZM26.778 13.316V6.872H22.778V13.316H26.778ZM24.778 8.872H31.906V4.872H24.778V8.872ZM29.906 6.872V22.712H33.906V6.872H29.906ZM31.906 20.712H24.778V24.712H31.906V20.712ZM26.778 22.712V19.112H22.778V22.712H26.778ZM24.778 17.112H21.43V21.112H24.778V17.112ZM23.43 19.112V13.316H19.43V19.112H23.43ZM21.43 15.316H24.778V11.316H21.43V15.316ZM26.706 29.516V28.292H22.706V29.516H26.706ZM24.3117 26.3312L10.8837 29.0312L11.6722 32.9528L25.1002 30.2528L24.3117 26.3312ZM9.27798 30.992V32.216H13.278V30.992H9.27798ZM11.6722 34.1768L25.1002 31.4768L24.3117 27.5552L10.8837 30.2552L11.6722 34.1768ZM68.921 11.552H70.921V9.552H68.921V11.552ZM68.921 17.24V19.24H70.921V17.24H68.921ZM65.357 17.24V15.24H63.357V17.24H65.357ZM65.357 22.244V24.244H67.357V22.244H65.357ZM58.229 22.244H56.229V24.244H58.229V22.244ZM58.229 6.872V4.872H56.229V6.872H58.229ZM65.357 6.872H67.357V4.872H65.357V6.872ZM65.357 11.552H63.357V13.552H65.357V11.552ZM37.025 7.268V5.268H35.025V7.268H37.025ZM54.485 7.268H56.485V5.268H54.485V7.268ZM54.485 12.74V14.74H56.485V12.74H54.485ZM43.937 12.74V10.74H41.937V12.74H43.937ZM43.937 16.52H41.937V18.52H43.937V16.52ZM55.637 16.52H57.637V14.52H55.637V16.52ZM55.637 21.992V23.992H57.637V21.992H55.637ZM37.025 21.992H35.025V23.992H37.025V21.992ZM38.501 23.936V21.936H36.501V23.936H38.501ZM45.557 23.936H47.557V21.936H45.557V23.936ZM45.557 32.36H43.557V34.36H45.557V32.36ZM58.301 32.36V34.36H60.301V32.36H58.301ZM58.301 23.936V21.936H56.301V23.936H58.301ZM65.357 23.936H67.357V21.936H65.357V23.936ZM65.357 36.68V38.68H67.357V36.68H65.357ZM38.501 36.68H36.501V38.68H38.501V36.68ZM47.537 28.148L47.2305 26.1716L45.537 26.4343V28.148H47.537ZM56.357 26.78H58.357V24.4459L56.0505 24.8036L56.357 26.78ZM56.357 28.22L56.6636 30.1964L58.357 29.9337V28.22H56.357ZM47.537 29.588H45.537V31.9221L47.8436 31.5644L47.537 29.588ZM66.921 11.552V17.24H70.921V11.552H66.921ZM68.921 15.24H65.357V19.24H68.921V15.24ZM63.357 17.24V22.244H67.357V17.24H63.357ZM65.357 20.244H58.229V24.244H65.357V20.244ZM60.229 22.244V6.872H56.229V22.244H60.229ZM58.229 8.872H65.357V4.872H58.229V8.872ZM63.357 6.872V11.552H67.357V6.872H63.357ZM65.357 13.552H68.921V9.552H65.357V13.552ZM37.025 9.268H54.485V5.268H37.025V9.268ZM52.485 7.268V12.74H56.485V7.268H52.485ZM54.485 10.74H43.937V14.74H54.485V10.74ZM41.937 12.74V16.52H45.937V12.74H41.937ZM43.937 18.52H55.637V14.52H43.937V18.52ZM53.637 16.52V21.992H57.637V16.52H53.637ZM55.637 19.992H37.025V23.992H55.637V19.992ZM39.025 21.992V7.268H35.025V21.992H39.025ZM38.501 25.936H45.557V21.936H38.501V25.936ZM43.557 23.936V32.36H47.557V23.936H43.557ZM45.557 34.36H58.301V30.36H45.557V34.36ZM60.301 32.36V23.936H56.301V32.36H60.301ZM58.301 25.936H65.357V21.936H58.301V25.936ZM63.357 23.936V36.68H67.357V23.936H63.357ZM65.357 34.68H38.501V38.68H65.357V34.68ZM40.501 36.68V23.936H36.501V36.68H40.501ZM47.8436 30.1244L56.6636 28.7564L56.0505 24.8036L47.2305 26.1716L47.8436 30.1244ZM54.357 26.78V28.22H58.357V26.78H54.357ZM56.0505 26.2436L47.2305 27.6116L47.8436 31.5644L56.6636 30.1964L56.0505 26.2436ZM49.537 29.588V28.148H45.537V29.588H49.537ZM77.748 34.988V36.988H79.748V34.988H77.748ZM71.232 34.988H69.232V36.988H71.232V34.988ZM71.232 29.372V27.372H69.232V29.372H71.232ZM77.748 29.372H79.748V27.372H77.748V29.372ZM78.324 8.564L80.3205 8.68279L80.4466 6.564H78.324V8.564ZM77.208 27.32V29.32H79.0926L79.2045 27.4388L77.208 27.32ZM71.736 27.32L69.7385 27.4197L69.8334 29.32H71.736V27.32ZM70.8 8.564V6.564H68.6977L68.8025 8.66368L70.8 8.564ZM77.748 32.988H71.232V36.988H77.748V32.988ZM73.232 34.988V29.372H69.232V34.988H73.232ZM71.232 31.372H77.748V27.372H71.232V31.372ZM75.748 29.372V34.988H79.748V29.372H75.748ZM76.3276 8.44521L75.2116 27.2012L79.2045 27.4388L80.3205 8.68279L76.3276 8.44521ZM77.208 25.32H71.736V29.32H77.208V25.32ZM73.7336 27.2203L72.7976 8.46432L68.8025 8.66368L69.7385 27.4197L73.7336 27.2203ZM70.8 10.564H78.324V6.564H70.8V10.564Z" fill="black" mask="url(#path-3-outside-2_99_319)"/>
</svg>
