<svg width="167" height="159" viewBox="0 0 167 159" fill="none" xmlns="http://www.w3.org/2000/svg">
<g clip-path="url(#clip0_4_5672)">
<path d="M13.2 59.9599C12.96 62.3599 12.91 64.7699 12.67 67.1699C12.43 69.5699 12.36 71.9799 12.12 74.3799C11.88 76.7799 11.29 79.1399 11.05 81.5399C10.81 83.9399 11.03 86.3799 10.79 88.7799C10.55 91.1799 10.07 93.5499 9.83 95.9499C9.59 98.3499 9.64 100.77 9.4 103.17C9.2 105.13 8.8 107.13 8.9 109.09C9.01 111.1 9.44 113.03 10.44 114.78C11.84 117.22 14.01 119.05 16.64 120.18C19.27 121.31 22.08 121.55 24.76 122.01C27.26 122.43 29.73 122.98 32.25 123.28C34.77 123.58 37.29 123.81 39.82 123.99C42.35 124.17 44.88 124.16 47.41 124.22C49.94 124.29 52.47 124.34 55 124.29C57.53 124.24 60.05 124.01 62.58 123.84C65.11 123.67 67.62 123.4 70.13 123.11C72.65 122.82 75.16 122.56 77.66 122.15C80.16 121.74 82.67 121.42 85.15 120.89C87.63 120.36 90.13 119.93 92.58 119.29C95.16 118.61 97.71 117.7 100.17 116.68C102.66 115.65 104.96 114.29 106.99 112.55C108.75 111.05 110.03 109.25 111.21 107.35C112.38 105.45 113.58 103.52 114.31 101.36C115.02 99.2399 115.54 97.0099 115.94 94.7799C116.34 92.5499 116.72 90.2899 116.95 88.0699C117.18 85.7899 117.1 83.4799 117.26 81.1999C117.42 78.9099 117.4 76.6299 117.49 74.3399C117.58 72.0499 118.05 69.7699 118.06 67.4799C118.07 65.1899 118.08 62.8899 118.02 60.5999C117.96 58.3099 117.8 56.0199 117.67 53.7299C117.54 51.4399 117.29 49.1599 117.09 46.8799" fill="#8E816E"/>
<path d="M11.7 59.9599C11.32 63.9599 11.09 67.9799 10.82 71.9799C10.56 75.8299 9.54998 79.5999 9.44998 83.4699C9.39998 85.2399 9.46998 87.0099 9.29998 88.7799C9.09998 90.8599 8.69998 92.9199 8.44998 94.9899C8.23998 96.7499 8.16998 98.5099 8.09998 100.28C8.00998 102.32 7.73998 104.32 7.52998 106.35C7.16998 109.74 7.65998 113.29 9.56998 116.18C11.28 118.77 13.79 120.67 16.67 121.78C19.99 123.07 23.71 123.31 27.2 123.95C30.92 124.64 34.66 125.07 38.43 125.37C53.64 126.58 69.2 125.38 84.19 122.6C91.31 121.28 98.89 119.78 105.09 115.83C110.87 112.15 114.86 105.71 116.57 99.1499C117.63 95.0899 118.38 90.7799 118.61 86.5799C118.85 82.1899 118.77 77.7799 119.09 73.3999C119.25 71.2499 119.59 69.1299 119.61 66.9599C119.63 64.7499 119.62 62.5399 119.56 60.3299C119.43 55.8299 119.04 51.3399 118.64 46.8599C118.47 44.9499 115.47 44.9299 115.64 46.8599C115.98 50.6099 116.29 54.3599 116.48 58.1199C116.67 61.8799 116.83 65.6099 116.52 69.2799C116.38 70.9599 116.12 72.6199 116.04 74.3099C115.95 76.2699 115.97 78.2299 115.87 80.1899C115.68 83.9699 115.64 87.7199 115.04 91.4699C114.49 94.9199 113.93 98.5399 112.6 101.79C111.38 104.77 109.44 107.95 107.22 110.29C102.51 115.28 95.03 117.33 88.53 118.66C81.36 120.13 74.16 121.2 66.88 121.95C63.27 122.32 59.63 122.61 56 122.74C52.36 122.87 48.72 122.72 45.08 122.66C41.44 122.6 37.81 122.36 34.18 121.98C30.55 121.6 27.05 120.83 23.48 120.27C20.29 119.77 17.06 119.2 14.46 117.14C11.95 115.15 10.58 112.26 10.43 109.08C10.34 107.17 10.7 105.28 10.9 103.38C11.11 101.38 11.12 99.3799 11.24 97.3699C11.5 93.1799 12.42 89.1099 12.44 84.8999C12.47 80.6899 13.49 76.6299 13.8 72.4399C14.1 68.2799 14.32 64.0899 14.72 59.9399C14.9 58.0199 11.9 58.0299 11.72 59.9399L11.7 59.9599Z" fill="#333333"/>
<path d="M39.77 151.17C39.89 154.83 39.78 154.83 39.91 158.49C40.03 162.15 39.97 162.15 40.09 165.81C40.21 169.47 40.33 169.47 40.45 173.13C40.57 176.79 40.53 176.79 40.66 180.45C40.78 184.11 40.51 184.12 40.64 187.79C40.77 191.46 41.02 191.44 41.15 195.11C41.18 195.92 41.79 196.5 42.6 196.5C46.34 196.5 46.34 196.33 50.07 196.33C53.8 196.33 53.81 196.5 57.55 196.5C61.29 196.5 61.29 196.56 65.03 196.56C65.86 196.56 66.75 195.89 66.75 195.06C66.75 191.33 66.77 191.33 66.77 187.6C66.77 183.87 66.81 183.87 66.81 180.14C66.81 176.41 66.46 176.41 66.46 172.68C66.46 168.95 66.44 168.95 66.44 165.22C66.44 161.49 66.43 161.49 66.43 157.76C66.43 154.03 66.56 154.03 66.56 150.3" fill="#FCFCFC"/>
<path d="M38.27 151.17C38.4 155.08 38.44 159.01 38.51 162.92C38.59 167.11 38.91 171.28 39.02 175.46C39.12 179.15 39.06 182.84 39.1 186.53C39.12 188.47 39.29 190.38 39.47 192.31C39.65 194.24 39.23 196.99 41.55 197.81C43.17 198.38 45.37 197.95 47.07 197.88C49.15 197.8 51.23 197.8 53.3 197.89C57.1 198.05 60.97 198.17 64.78 198.06C65.8 198.03 66.76 197.74 67.47 196.96C68.3 196.05 68.23 194.92 68.24 193.77C68.24 192.01 68.26 190.25 68.26 188.49C68.26 184.52 68.49 180.49 68.13 176.53C67.73 172.13 67.93 167.65 67.92 163.24C67.92 158.92 68.04 154.61 68.04 150.29C68.04 148.36 65.04 148.36 65.04 150.29C65.03 157.45 64.93 164.62 64.93 171.78C64.93 175.61 65.31 179.41 65.27 183.25C65.24 186.64 65.23 190.02 65.22 193.41C65.22 193.69 65.38 194.91 65.22 195.06C65.1 195.16 64.34 195.06 64.1 195.06C63.19 195.06 62.29 195.05 61.38 195.03C59.43 195 57.48 195.03 55.53 194.98C52.1 194.9 48.71 194.84 45.28 194.96C44.82 194.98 42.79 195.25 42.58 195.02C42.52 194.95 42.55 193.86 42.54 193.67C42.51 193.22 42.48 192.76 42.44 192.31C42.27 190.51 42.11 188.72 42.08 186.91C42.01 183.41 42.1 179.91 42.01 176.41C41.91 172.1 41.58 167.79 41.48 163.48C41.39 159.37 41.36 155.26 41.23 151.16C41.17 149.23 38.17 149.23 38.23 151.16L38.27 151.17Z" fill="#333333"/>
<path d="M64.81 164.42C64.85 168.25 64.83 168.25 64.87 172.08C64.91 175.91 64.54 175.91 64.58 179.74C64.62 183.57 64.83 183.57 64.87 187.4C64.91 191.23 64.83 191.23 64.87 195.07C64.87 195.9 65.63 196.47 66.46 196.46C70.2 196.43 70.2 196.48 73.94 196.45C77.68 196.42 77.68 196.25 81.42 196.22C85.16 196.19 85.16 196.58 88.9 196.55C89.71 196.55 90.29 195.74 90.31 194.93C90.41 191.4 90.64 191.4 90.74 187.87C90.84 184.34 90.59 184.33 90.68 180.8C90.78 177.27 90.64 177.27 90.73 173.74C90.82 170.21 91.18 170.22 91.27 166.68C91.36 163.14 91.23 163.14 91.32 159.6C91.42 156.06 91.17 156.06 91.27 152.52C91.29 151.67 90.87 150.86 90.02 150.86C86.46 150.86 86.46 150.7 82.91 150.7C79.35 150.7 79.35 150.97 75.79 150.97C72.23 150.97 72.23 151.21 68.67 151.21C65.11 151.21 65.11 150.8 61.55 150.8" fill="#FCFCFC"/>
<path d="M63.31 164.42C63.33 166.67 63.34 168.92 63.36 171.16C63.38 173.38 63.18 175.56 63.1 177.78C62.93 182.3 63.41 186.84 63.37 191.37C63.35 193.51 62.74 196.58 65.11 197.67C66.17 198.16 67.47 197.96 68.61 197.96C69.53 197.96 70.44 197.96 71.36 197.96C76 197.96 80.66 197.49 85.29 197.9C87.41 198.09 90.31 198.66 91.47 196.37C92.02 195.28 91.84 193.88 91.93 192.69C92 191.73 92.11 190.78 92.17 189.82C92.31 187.56 92.22 185.32 92.17 183.05C92.13 180.88 92.22 178.7 92.21 176.53C92.18 171.97 92.85 167.47 92.81 162.9C92.79 160.7 92.91 158.5 92.82 156.31C92.74 154.31 93.43 151.21 91.57 149.88C90.49 149.1 88.9 149.38 87.64 149.34C86.61 149.31 85.59 149.25 84.56 149.23C82.05 149.18 79.59 149.42 77.09 149.48C74.59 149.54 72.08 149.69 69.58 149.73C66.89 149.77 64.25 149.34 61.57 149.32C59.64 149.31 59.64 152.31 61.57 152.32C63.53 152.33 65.46 152.64 67.42 152.71C69.47 152.79 71.51 152.63 73.56 152.54C77.77 152.35 82.04 152.11 86.26 152.29C87.1 152.33 87.94 152.36 88.79 152.37C89.05 152.37 89.34 152.39 89.6 152.37C90.62 152.31 89.79 152.29 89.81 152.42C89.86 153.09 89.79 153.8 89.8 154.48C89.82 156.49 89.89 158.48 89.85 160.49C89.82 162.33 89.87 164.17 89.83 166.01C89.79 168.01 89.51 169.97 89.36 171.96C89.2 174.02 89.25 176.08 89.25 178.15C89.25 180.22 89.16 182.28 89.25 184.34C89.34 186.45 89.31 188.56 89.13 190.67C89.06 191.45 88.98 192.22 88.93 192.99C88.91 193.35 89.03 194.69 88.85 194.93C88.61 195.24 87.75 195.05 87.29 195.03C85.34 194.96 83.41 194.71 81.46 194.72C79.51 194.72 77.58 194.87 75.63 194.92C73.54 194.97 71.45 194.95 69.36 194.95C68.9 194.95 68.43 194.95 67.97 194.95C67.61 194.95 66.71 195.14 66.39 194.95L66.41 195.07V194.59C66.41 194.25 66.41 193.9 66.41 193.56C66.41 193 66.41 192.43 66.41 191.87C66.45 187.28 66.01 182.69 66.14 178.11C66.2 175.93 66.43 173.78 66.42 171.6C66.4 169.21 66.39 166.81 66.37 164.42C66.35 162.49 63.35 162.49 63.37 164.42H63.31Z" fill="#333333"/>
<path d="M119.42 120.75C118.56 119.05 117.6 117.39 116.96 115.62C116.32 113.85 116.05 111.96 115.87 110.04C115.78 109.05 116.89 106.65 117.21 105.57C117.73 103.79 118.55 102.11 119.07 100.33C119.28 99.6101 119.33 98.7401 119.93 98.2901C120.82 97.6401 122.28 97.9901 123.01 98.8201C123.74 99.6501 123.88 100.79 123.99 101.88C125.35 100.38 127.02 99.2701 128.8 98.3001C129.58 97.8801 130.37 97.4201 131.26 97.4401C132.15 97.4601 133.24 97.9101 133.5 98.7601C133.82 99.8401 132.87 101.13 132.11 101.96C133.18 101.07 134.8 100.91 135.77 101.91C136.74 102.91 136.43 104.95 135.1 105.38C136.26 104.84 138.02 105.71 138.2 106.98C138.38 108.25 137.35 109.44 136.27 110.14C137.44 109.44 138.94 110.99 138.77 112.34C138.6 113.69 137.52 114.76 136.4 115.54C134.3 117.01 131.86 117.85 129.5 118.86C127.15 119.87 124.9 121.16 122.49 122C121.84 122.23 121.12 122.13 120.5 121.82C120.02 121.58 119.65 121.22 119.41 120.74L119.42 120.75Z" fill="#FFE6D9"/>
<path d="M120.71 119.99C119.57 117.75 118.34 115.61 117.81 113.12C117.59 112.11 117.27 110.85 117.37 109.82C117.44 109.04 117.84 108.21 118.11 107.48C118.86 105.46 119.63 103.43 120.3 101.39C120.51 100.77 120.47 99.3901 121.28 99.4801C122.3 99.5901 122.41 101.12 122.49 101.88C122.62 103.08 124.08 103.98 125.05 102.94C126.4 101.49 127.99 100.44 129.72 99.5001C130.22 99.2301 131.32 98.5501 131.88 99.0901C132.34 99.5401 131.4 100.47 131.04 100.88C129.98 102.07 131.41 104.31 132.86 103.24C133.32 102.9 134.31 102.31 134.75 103.03C135.02 103.48 134.75 103.9 134.34 104.07C132.79 104.73 133.9 107.4 135.5 106.81C135.86 106.68 136.48 106.67 136.69 107.09C137 107.71 135.91 108.55 135.51 108.82C133.9 109.93 135.27 112.21 137.02 111.41C136.77 111.52 137.1 111.55 137.16 111.75C137.25 112.1 137.3 112.22 137.15 112.6C136.88 113.28 136.21 113.8 135.64 114.22C134.14 115.31 132.38 116.03 130.68 116.73C128.91 117.46 127.19 118.25 125.46 119.07C124.35 119.6 121.6 121.49 120.7 119.97C119.72 118.31 117.13 119.81 118.11 121.48C118.79 122.64 119.92 123.41 121.27 123.56C122.83 123.73 124.36 122.87 125.74 122.24C128.67 120.9 131.67 119.67 134.57 118.28C136.91 117.16 140.14 115.27 140.27 112.31C140.38 109.77 137.9 107.72 135.51 108.81C136.01 109.67 136.52 110.54 137.02 111.4C138.72 110.23 140.33 108.21 139.47 106.03C138.76 104.23 136.51 103.24 134.69 103.9L135.85 106.64C137.79 105.82 138.34 103.17 137.31 101.45C136.05 99.3501 133.17 99.2701 131.35 100.63L133.17 102.99C134.21 101.82 135.31 100.32 135.01 98.6601C134.72 97.0801 133.29 96.1501 131.77 95.9601C130.08 95.7501 128.58 96.6501 127.17 97.4801C125.62 98.4001 124.17 99.4801 122.94 100.8C123.79 101.15 124.65 101.51 125.5 101.86C125.34 100.4 125.14 98.8501 124.08 97.7401C123.15 96.7701 121.7 96.2401 120.37 96.5001C118.9 96.7901 118.14 97.8901 117.79 99.2701C117.35 100.99 116.63 102.6 116.06 104.27C115.65 105.47 115.2 106.66 114.8 107.87C114.35 109.23 114.4 110.37 114.58 111.78C115.05 115.36 116.51 118.31 118.13 121.49C119.01 123.21 121.6 121.69 120.72 119.98L120.71 119.99Z" fill="#333333"/>
<path d="M123.02 121.02C121.88 118.87 120.77 116.7 119.63 114.55C118.49 112.4 117.35 110.25 116.21 108.1C115.87 107.46 115.42 106.51 114.71 106.43C114.32 106.39 113.99 106.97 113.63 107.14C110.9 108.44 108.11 109.88 105.09 110.18C102.94 110.39 101.05 109.8 99.44 108.72C97.84 107.65 96.51 106.06 95.01 104.82C93.16 103.28 91.24 101.79 89.18 100.54C87.12 99.29 84.81 98.53 82.59 97.58C80.37 96.63 78.27 95.33 75.94 94.69C73.98 94.16 71.88 94.12 69.86 93.89C67.84 93.66 65.8 93.51 63.77 93.63C61.74 93.75 59.64 93.77 57.67 94.3C55.32 94.93 52.94 96.04 50.61 97.25C48.38 98.41 46.25 99.9 44.17 101.35C42.09 102.8 39.87 104.32 38.02 105.86C36.33 107.27 34.68 108.79 33.05 110.3C31.42 111.81 30.04 113.58 28.67 115.3C27.3 117.02 25.88 118.77 24.98 120.82C24.08 122.87 23.76 125.11 23.53 127.34C23.3 129.57 23.38 131.78 23.83 133.97C24.4 136.73 25.66 139.42 27.52 141.55C29.44 143.75 31.87 145.38 34.78 145.64C35.26 145.68 35.75 145.71 36.19 145.9C38.25 146.82 37.34 151.83 39.23 153.7C41.67 156.12 45.77 155.4 48.91 155.55C51.45 155.68 53.98 155.65 56.52 155.72C59.06 155.79 61.59 156.09 64.13 156.1C66.5 156.11 68.88 156.38 71.26 156.34C73.63 156.3 76.01 156.21 78.39 156.12C80.76 156.03 83.13 155.71 85.5 155.58C87.6 155.46 89.79 154.92 91.64 153.96C93.49 153 95.21 151.59 95.7 149.23C96.15 147.07 95.66 144.73 95.39 142.42C95.92 142.46 96.7 142.57 97.24 142.53C98.78 142.4 100.28 141.9 101.71 141.32C103.75 140.49 105.52 139.18 107.37 138.02C109.22 136.86 111.23 135.91 112.92 134.5C114.6 133.11 116.17 131.55 117.74 130.02C119.31 128.49 120.58 126.66 122.09 125.09C122.73 124.42 123.77 123.86 123.81 122.94C123.84 122.26 123.34 121.62 123.02 121.02Z" fill="#FFD063"/>
<path d="M124.32 120.27C122.23 116.32 120.17 112.37 118.09 108.42C117.42 107.15 116.73 105.29 115.12 104.99C114.28 104.83 113.74 105.19 113.11 105.66C112.41 106.18 111.53 106.52 110.73 106.89C107.2 108.52 103.3 109.73 99.88 107.2C98.33 106.06 97.06 104.55 95.57 103.33C93.95 102.01 92.29 100.73 90.53 99.6101C88.77 98.4901 86.97 97.7501 85.1 96.9901C83.23 96.2301 81.49 95.3801 79.69 94.5401C75.86 92.7501 71.71 92.4501 67.53 92.1701C63.46 91.8901 59.05 92.1001 55.2 93.5301C51.31 94.9801 47.75 97.0601 44.35 99.4101C40.79 101.88 37.33 104.39 34.12 107.3C31.09 110.04 28.49 113.03 26.03 116.29C21.22 122.67 20.45 132.46 24.32 139.51C26.03 142.63 28.75 145.36 32.14 146.58C32.94 146.87 33.77 147.02 34.61 147.11C35.18 147.17 35.54 147.1 35.83 147.58C36.42 148.58 36.38 150.18 36.61 151.3C37.25 154.44 39.38 156.32 42.55 156.82C44.16 157.07 45.79 157.04 47.41 157.03C49.34 157.03 51.28 157.14 53.21 157.17C57.57 157.23 61.93 157.47 66.29 157.67C70.65 157.87 75 157.83 79.35 157.58C85.74 157.2 96.38 156.99 97.32 148.59C97.55 146.53 97.15 144.47 96.9 142.43L95.4 143.93C98.9 144.24 102.22 143.02 105.19 141.21C106.68 140.3 108.12 139.3 109.63 138.42C111.21 137.5 112.75 136.59 114.16 135.41C116.98 133.06 119.48 130.41 121.84 127.62C122.37 127 122.9 126.38 123.5 125.82C123.99 125.36 124.51 124.97 124.86 124.38C125.73 122.93 125.06 121.58 124.31 120.25C123.36 118.57 120.77 120.08 121.72 121.76C121.91 122.09 122.32 122.59 122.22 122.92C122.11 123.27 121.28 123.76 121.02 124.02C119.99 125.05 119.11 126.24 118.16 127.34C116.15 129.67 113.78 132.06 111.28 133.86C108.94 135.55 106.31 136.97 103.85 138.49C101.24 140.11 98.48 141.19 95.39 140.91C94.65 140.84 93.8 141.65 93.89 142.41C94.29 145.61 95.31 149.53 92.31 151.78C89.3 154.03 85.51 154.03 81.94 154.35C73.93 155.07 65.96 154.69 57.95 154.27C54.28 154.07 50.54 153.99 46.86 154.02C44.56 154.04 40.65 154.35 39.75 151.61C39.06 149.52 39.39 146.73 37.66 145.1C36.55 144.05 35 144.27 33.63 143.9C32 143.46 30.58 142.51 29.38 141.34C26.77 138.76 25.3 135.23 24.97 131.6C24.64 127.95 25.05 123.62 26.86 120.37C27.81 118.67 29.06 117.17 30.27 115.66C31.48 114.15 32.6 112.78 33.94 111.5C36.82 108.75 39.84 106.18 43.1 103.89C46.3 101.65 49.47 99.4101 53 97.7001C54.7 96.8801 56.45 96.1301 58.28 95.6801C60.21 95.2001 62.25 95.1701 64.22 95.1001C66.18 95.0301 68.13 95.2001 70.08 95.4101C72.12 95.6301 74.18 95.6801 76.14 96.3201C77.85 96.8701 79.42 97.7701 81.04 98.5201C82.66 99.2701 84.51 99.9101 86.21 100.69C89.58 102.22 92.68 104.61 95.35 107.16C97.89 109.59 100.54 111.73 104.24 111.73C106.02 111.73 107.8 111.27 109.45 110.65C111.1 110.03 112.87 109.35 114.38 108.45C114.48 108.39 115.13 107.98 115.1 107.88C115.09 107.83 114.41 107.84 114.4 107.99C114.4 108.06 114.59 108.29 114.62 108.35C115.13 109.22 115.57 110.13 116.04 111.02C116.99 112.81 117.94 114.6 118.89 116.4C119.84 118.2 120.76 120 121.71 121.79C122.61 123.5 125.2 121.98 124.3 120.28L124.32 120.27Z" fill="#333333"/>
<path d="M33.6 120.19C36.56 120.21 39.88 119.4 42.75 120.46C44.1 120.96 44.47 122.05 44.9 123.33C45.42 124.92 45.78 126.56 46.04 128.22C46.31 129.92 46.43 131.63 46.49 133.35C46.55 135.07 46.71 136.89 46.57 138.61C46.29 142.03 41.54 141.84 39.05 141.86C37.12 141.87 37.12 144.87 39.05 144.86C42.52 144.84 47.41 144.65 49.07 140.92C49.9 139.04 49.58 136.72 49.54 134.72C49.5 132.57 49.37 130.43 49.08 128.3C48.8 126.28 48.4 124.26 47.74 122.33C47.15 120.6 46.46 119.02 44.79 118.09C41.44 116.23 37.24 117.2 33.62 117.18C31.69 117.17 31.69 120.17 33.62 120.18L33.6 120.19Z" fill="#333333"/>
<path d="M48.54 96.77C47.91 98.81 47.63 100.9 47.6 103.04C47.57 105.34 47.75 107.8 49.22 109.58C50.5 111.13 52.44 111.78 54.46 111.87C56.4 111.95 58.49 111.59 60.15 110.59C61.81 109.59 63.21 108.08 64.45 106.52C65.67 104.98 66.77 103.24 67.8 101.57C67.98 105.56 68.84 108.2 72 110.7C72.77 111.31 73.67 111.87 74.59 112.22C77.04 113.16 79.93 112.08 81.85 110.29C83.77 108.5 84.82 105.97 84.98 103.36C85.14 100.74 84.42 98.18 83.51 95.72" fill="#FFD063"/>
<path d="M47.09 96.3701C45.38 102.16 44.95 111.61 52.57 113.13C55.97 113.81 59.53 113.07 62.25 110.92C65.14 108.64 67.17 105.41 69.08 102.32C68.15 102.07 67.22 101.82 66.28 101.56C66.44 104.66 67.07 107.59 69.11 110.02C71.4 112.74 74.83 114.68 78.43 113.81C81.87 112.98 84.5 110.23 85.72 106.99C87.16 103.15 86.29 99.0401 84.93 95.3201C84.27 93.5201 81.37 94.3001 82.04 96.1201C83.1 99.0401 83.98 102.18 83.13 105.27C82.43 107.81 80.58 110.06 78 110.82C75.42 111.58 72.87 109.9 71.23 107.9C69.76 106.1 69.4 103.81 69.28 101.56C69.2 100.09 67.29 99.5001 66.48 100.8C63.59 105.47 60.04 111.18 53.72 110.3C47.63 109.46 48.71 101.43 49.97 97.1601C50.52 95.3001 47.62 94.5101 47.08 96.3601L47.09 96.3701Z" fill="#333333"/>
<path d="M117.9 39.39C116.23 39.39 114.66 39.72 113.21 40.34C112.57 38.04 111.76 35.84 110.81 33.69C109.85 31.51 108.62 29.49 107.37 27.49C106.11 25.48 104.7 23.59 103.17 21.79C101.64 19.98 100.14 18.14 98.37 16.57C96.6 15 94.7 13.56 92.72 12.26C90.75 10.97 88.72 9.70005 86.56 8.70005C84.4 7.70005 82.2 6.80005 79.92 6.12005C77.64 5.44005 75.29 5.18005 72.92 4.83005C70.61 4.50005 68.25 4.61005 65.84 4.61005C63.43 4.61005 61.05 4.39005 58.74 4.73005C56.43 5.07005 53.99 5.44005 51.75 6.11005C49.46 6.79005 47.28 7.80005 45.14 8.79005C42.98 9.79005 41.02 11.15 39.05 12.45C37.08 13.75 34.95 14.91 33.18 16.48C31.41 18.05 30.01 20.02 28.48 21.82C26.95 23.62 25.43 25.44 24.17 27.45C22.92 29.45 21.95 31.61 20.99 33.79C20.04 35.94 19.17 38.17 18.53 40.47C17.05 39.82 15.38 39.62 13.66 39.62C11.45 39.62 9.49999 40.19 7.71999 41.23C5.88999 42.3 3.99999 43.5 2.93999 45.35C1.87999 47.2 1.48999 49.34 1.48999 51.55C1.48999 53.76 2.24999 55.78 3.26999 57.56C4.28999 59.34 5.83999 60.87 7.67999 61.94C9.45999 62.98 11.46 63.47 13.66 63.47C15.03 63.47 16.32 63.47 17.54 63.05C18.02 65.55 18.7 67.96 19.54 70.32C20.39 72.71 21.63 74.9 22.82 77.1C24.01 79.3 25.17 81.57 26.69 83.57C28.21 85.58 29.8 87.56 31.61 89.31C33.42 91.06 35.55 92.4501 37.6 93.91C39.65 95.37 41.76 96.7001 44.02 97.83C46.28 98.96 48.63 99.75 51.04 100.52C53.42 101.28 55.78 102.21 58.29 102.59C60.74 102.97 63.27 103.14 65.83 103.14C68.39 103.14 70.89 102.82 73.35 102.45C75.87 102.06 78.27 101.35 80.64 100.59C83.06 99.82 85.34 98.83 87.58 97.71C89.84 96.58 92.13 95.53 94.18 94.08C96.23 92.6301 98.2 91.03 100.01 89.28C101.82 87.53 103.24 85.44 104.76 83.43C106.28 81.43 108.08 79.59 109.28 77.37C110.48 75.15 111.22 72.73 112.08 70.34C112.94 67.95 113.53 65.5 114.01 63C115.2 63.39 116.57 63.62 117.89 63.62C120.1 63.62 122.11 63 123.89 61.97C125.67 60.94 127.48 59.56 128.54 57.72C129.57 55.94 130.12 53.77 130.12 51.56C130.12 49.35 129.28 47.35 128.26 45.56C127.24 43.77 125.76 42.16 123.93 41.09C122.15 40.05 120.11 39.39 117.9 39.39Z" fill="#FFE6D9"/>
<path d="M117.9 37.89C116.14 37.92 114.45 38.23 112.82 38.9L114.67 39.95C110.05 23.71 96.96 9.86998 80.79 4.82998C76.56 3.50998 71.95 3.07998 67.53 3.11998C65.31 3.13998 63.08 3.00998 60.86 3.07998C58.64 3.14998 56.49 3.53998 54.35 3.95998C50.07 4.79998 45.8 6.54998 42.05 8.76998C40.27 9.82998 38.57 11.02 36.81 12.13C35.05 13.24 33.32 14.33 31.82 15.74C30.09 17.36 28.69 19.31 27.16 21.12C25.63 22.93 24.14 24.73 22.9 26.72C20.36 30.77 18.41 35.52 17.1 40.1L18.95 39.05C14.8 37.35 10.04 38.08 6.28999 40.36C4.48999 41.46 2.74999 42.76 1.65999 44.61C0.569985 46.46 0.0999851 48.73 0.00998506 50.9C-0.360015 60.18 9.13999 67.2 17.95 64.51C17.33 64.16 16.72 63.81 16.1 63.46C17 68.07 18.57 72.38 20.79 76.51C23.01 80.64 25.08 84.17 27.98 87.61C30.92 91.09 34.53 93.7 38.3 96.22C42.16 98.8 46.25 100.55 50.65 101.98C52.76 102.66 54.84 103.45 57.02 103.9C59.28 104.36 61.63 104.55 63.93 104.63C68.69 104.8 73.55 104.22 78.14 102.94C86.74 100.53 95.5 96.3 101.71 89.73C103.43 87.91 104.8 85.81 106.35 83.85C107.77 82.05 109.35 80.34 110.49 78.33C111.72 76.15 112.49 73.74 113.32 71.39C114.24 68.78 114.94 66.13 115.47 63.42L113.62 64.47C121.38 66.88 130.26 61.95 131.45 53.72C132.63 45.65 125.97 38.06 117.89 37.9C115.96 37.86 115.96 40.86 117.89 40.9C124.17 41.03 129.46 47.07 128.49 53.36C127.49 59.83 120.44 63.45 114.41 61.58C113.68 61.35 112.72 61.85 112.56 62.63C111.72 66.92 110.47 71.26 108.67 75.26C107.04 78.88 104.12 81.88 101.74 85.03C99.19 88.4 95.91 91.33 92.32 93.56C88.73 95.79 84.69 97.7 80.7 99.04C72.4 101.81 63.05 102.87 54.59 100.15C50.41 98.81 46.24 97.53 42.43 95.3C38.92 93.25 35.23 90.85 32.34 87.97C28.91 84.55 26.39 80.61 24.11 76.37C23.01 74.34 21.86 72.32 21.06 70.15C20.16 67.72 19.48 65.21 18.98 62.67C18.83 61.89 17.87 61.4 17.13 61.62C10.12 63.76 2.68999 58.27 2.98998 50.9C3.05998 49.14 3.42999 47.26 4.42999 45.78C5.32999 44.44 6.74998 43.55 8.11998 42.74C11.15 40.95 14.84 40.59 18.13 41.93C18.89 42.24 19.77 41.59 19.98 40.88C21.09 36.97 22.72 33.1 24.69 29.55C26.57 26.16 29.21 23.27 31.67 20.3C32.97 18.73 34.37 17.32 36.06 16.16C37.65 15.07 39.31 14.08 40.92 13.02C44.34 10.77 47.99 8.83998 51.92 7.62998C55.9 6.39998 60.02 5.98998 64.16 6.08998C66.3 6.13998 68.45 6.03998 70.59 6.12998C72.73 6.21998 74.74 6.54998 76.77 6.91998C80.75 7.64998 84.66 9.23998 88.18 11.22C91.6 13.14 94.93 15.39 97.8 18.08C100.95 21.03 103.77 24.6 106.07 28.24C108.55 32.17 110.48 36.24 111.76 40.73C111.96 41.44 112.85 42.09 113.61 41.78C115 41.22 116.39 40.91 117.9 40.88C119.83 40.84 119.83 37.84 117.9 37.88V37.89Z" fill="#333333"/>
<path d="M53.51 46.3C53.51 48.09 52.33 49.76 50.55 49.76C48.77 49.76 47.11 48.09 47.11 46.3C47.11 44.51 48.77 43.04 50.55 43.04C52.33 43.04 53.51 44.51 53.51 46.3Z" fill="#333333"/>
<path d="M84.67 46.2999C84.67 48.0899 82.94 49.4199 81.16 49.4199C79.38 49.4199 77.76 48.0899 77.76 46.2999C77.76 44.5099 79.38 42.9099 81.16 42.9099C82.94 42.9099 84.67 44.5199 84.67 46.2999Z" fill="#333333"/>
<path d="M64.61 49.6999C64.91 49.5099 65.22 49.3299 65.55 49.1899L65.19 49.3399C65.47 49.2299 65.75 49.1399 66.05 49.0999L65.65 49.1499C65.87 49.1199 66.09 49.1199 66.31 49.1499L65.91 49.0999C66.13 49.1299 66.34 49.1999 66.55 49.2799L66.19 49.1299C66.5 49.2699 66.78 49.4499 67.05 49.6499L66.75 49.4199L66.8 49.4599C67.12 49.7199 67.43 49.8999 67.86 49.8999C68.23 49.8999 68.67 49.7399 68.92 49.4599C69.17 49.1799 69.38 48.7999 69.36 48.3999C69.34 48.0299 69.23 47.5799 68.92 47.3399C68.67 47.1399 68.42 46.9399 68.15 46.7799C67.88 46.6199 67.62 46.5099 67.34 46.3899C66.91 46.2199 66.44 46.1299 65.97 46.1299C64.93 46.1299 63.94 46.5599 63.08 47.1099C62.75 47.3199 62.49 47.6299 62.39 48.0099C62.29 48.3699 62.34 48.8499 62.54 49.1699C62.97 49.8299 63.89 50.1599 64.59 49.7099L64.61 49.6999Z" fill="#333333"/>
<path d="M61.65 63.89C64.46 65.18 67.92 65.38 70.75 64.13C73.38 62.97 76.94 59.07 76.18 55.94C75.58 53.46 72.58 54.15 70.68 54.2C67.84 54.27 65 54.03 62.16 54.03C59.58 54.03 56.18 52.9 56.35 56.83C56.49 60.05 58.78 62.57 61.66 63.89H61.65Z" fill="#FCFCFC"/>
<path d="M60.89 65.1901C65.14 67.0601 70.07 66.9701 73.77 63.9601C75.35 62.6701 76.68 60.9601 77.38 59.0301C78 57.3201 77.99 55.1101 76.62 53.7501C75.39 52.5401 73.53 52.5201 71.92 52.6301C69.57 52.7901 67.22 52.6701 64.87 52.5901C63.03 52.5301 61.17 52.4001 59.34 52.3901C57.83 52.3801 56.27 52.7601 55.43 54.1301C54.28 56.0101 54.9 58.7401 55.85 60.5601C56.93 62.6201 58.82 64.2001 60.9 65.1901C62.64 66.0101 64.16 63.4301 62.41 62.6001C59.99 61.4501 57.32 58.9801 57.89 55.9901C57.9 55.9301 58.03 55.6101 57.99 55.6801C58.04 55.5801 58.18 55.5201 58.13 55.5501C58.56 55.3601 58.92 55.3901 59.44 55.4001C60.74 55.4201 62.03 55.5301 63.33 55.5601C65.46 55.6001 67.59 55.7301 69.72 55.7301C71.03 55.7301 72.41 55.4501 73.71 55.6201C76.47 55.9801 73.47 60.1201 72.57 61.0201C69.88 63.7201 65.86 64.1401 62.41 62.6201C61.66 62.2901 60.81 62.4101 60.36 63.1601C59.98 63.7901 60.16 64.8901 60.9 65.2101L60.89 65.1901Z" fill="#333333"/>
<path d="M43.8 60.19C43.8 63.02 42.8 65.69 40.96 67.55C39.12 69.41 36.44 70.39 33.62 70.39C30.8 70.39 28.15 69.39 26.3 67.53C24.46 65.68 23.55 63.02 23.55 60.2C23.55 57.38 24.53 54.79 26.38 52.94C28.23 51.08 30.8 50.21 33.63 50.21C36.46 50.21 39.15 50.96 41 52.82C42.84 54.67 43.81 57.38 43.81 60.2L43.8 60.19Z" fill="#EDBBA6"/>
<path d="M108.11 60.19C108.11 63.02 107.33 65.75 105.49 67.6C103.65 69.45 100.92 70.64 98.09 70.64C95.26 70.64 92.64 69.36 90.79 67.5C88.94 65.64 87.82 63.02 87.82 60.19C87.82 57.36 88.94 54.72 90.78 52.87C92.63 51.01 95.26 50.04 98.09 50.04C100.92 50.04 103.27 51.28 105.12 53.14C106.97 55 108.1 57.36 108.1 60.19H108.11Z" fill="#EDBBA6"/>
<path d="M105.75 43.0799C109.09 43.5899 112.89 43.3499 113.93 40.5399C114.17 39.8999 114.18 39.1099 114.17 38.4199C114.14 36.2199 113.75 34.0199 113.34 31.8799C112.93 29.7399 112.35 27.5699 111.54 25.5499C110.73 23.5299 109.79 21.4699 108.55 19.6599C107.32 17.8699 105.86 16.1499 104.22 14.6499C102.52 13.1099 100.39 12.0799 98.44 10.8299C96.49 9.57995 94.52 8.48995 92.41 7.51995C90.3 6.54995 88.26 5.50995 86.07 4.79995C83.88 4.08995 81.64 3.46995 79.4 2.99995C77.12 2.51995 74.81 2.31995 72.56 2.05995C70.22 1.78995 67.87 1.45995 65.51 1.46995C63.15 1.47995 60.79 1.70995 58.45 2.01995C56.11 2.32995 53.77 2.71995 51.49 3.31995C49.45 3.85995 47.36 4.55995 45.27 5.28995C43.22 5.99995 41.12 6.69995 39.18 7.64995C37.24 8.59995 35.36 9.84995 33.65 11.1299C31.72 12.5799 30.01 14.2899 28.34 16.0399C26.67 17.7899 25.12 19.6399 23.65 21.5499C22.16 23.4799 20.77 25.7799 19.54 28.1599C18.31 30.5499 17.08 32.9599 16.68 35.3999C16.34 37.4499 16.68 39.7399 18.08 41.2799C20.25 43.6699 23.98 42.9899 27.11 42.1999C29.41 41.6199 31.76 41.2499 34.01 40.5399C36.27 39.8299 38.41 38.8099 40.63 37.9799C42.85 37.1599 45.15 36.5499 47.33 35.6299C49.51 34.7199 51.71 33.8299 53.86 32.8399C56.01 31.8599 58.11 30.7499 60.24 29.7199C62.37 28.6799 64.54 27.7299 66.65 26.6599C68.76 25.5899 70.73 24.2399 72.83 23.1499C73.06 23.0299 73.38 22.9899 73.64 22.9799C74.12 22.9599 74.65 23.2299 75 23.5599C76.77 25.2499 78.39 27.0999 80.17 28.7799C81.95 30.4599 83.69 32.1999 85.62 33.6999C87.83 35.4199 90.14 37.0999 92.57 38.4999C95.01 39.8999 97.58 41.1899 100.32 41.9199C101.59 42.2599 103.66 42.7499 105.77 43.0699L105.75 43.0799Z" fill="#8E816E"/>
<path d="M105.35 44.5299C108.3 44.9499 112.11 45.1599 114.32 42.7299C115.65 41.2599 115.75 39.3699 115.64 37.4799C115.52 35.3099 115.13 33.1499 114.7 31.0199C113.85 26.8699 112.33 22.6399 109.97 19.0899C107.62 15.5599 104.7 12.8299 101.07 10.6799C97.26 8.41991 93.5 6.27991 89.42 4.50991C85.46 2.78991 81.14 1.64991 76.86 1.06991C72.5 0.479906 68.03 -0.180095 63.62 0.0399055C59.2 0.259905 54.69 0.869905 50.43 2.06991C46.17 3.26991 41.89 4.58991 38.02 6.55991C34.15 8.52991 30.98 11.1699 28.06 14.1699C25.1 17.2099 22.29 20.4999 20.07 24.1299C17.85 27.7599 15.51 31.7699 15.1 35.9499C14.75 39.4399 16.41 43.0899 19.96 44.1299C23.51 45.1699 27.52 43.6399 30.97 42.8799C35.4 41.9099 39.43 39.9399 43.72 38.5299C47.95 37.1399 52.11 35.3899 56.12 33.4599C60.14 31.5199 64.28 29.6999 68.19 27.5699C69.1 27.0699 69.99 26.5399 70.88 26.0099C71.33 25.7499 71.77 25.4799 72.22 25.2199C72.57 25.0199 73.16 24.4999 73.55 24.5199C74.23 24.5499 75.25 25.9599 75.71 26.4299C76.51 27.2499 77.3 28.0899 78.11 28.8999C84.08 34.8699 91.22 40.8699 99.48 43.2599C101.4 43.8199 103.38 44.2199 105.36 44.5299C107.25 44.8299 108.06 41.9399 106.16 41.6399C102.36 41.0399 98.7 40.0899 95.28 38.2999C91.65 36.3999 88.18 34.0399 85.09 31.3499C82 28.6599 79.4 25.7999 76.55 23.0099C75.34 21.8199 73.92 21.1199 72.25 21.8099C70.43 22.5599 68.78 23.8099 67.07 24.7699C63.52 26.7499 59.73 28.3299 56.09 30.1399C52.45 31.9499 48.6 33.6999 44.72 35.0399C42.7 35.7399 40.67 36.3599 38.69 37.1599C36.79 37.9299 34.91 38.7499 32.93 39.3199C30.95 39.8899 28.93 40.2299 26.94 40.7199C25.39 41.0999 23.84 41.4899 22.23 41.4499C18.39 41.3699 17.54 37.6799 18.4 34.5199C19.44 30.7299 21.68 26.9499 23.9 23.7399C26.12 20.5299 28.81 17.5699 31.62 14.8699C34.47 12.1299 37.81 9.77991 41.48 8.27991C49.09 5.17991 57.25 3.02991 65.5 2.99991C67.55 2.99991 69.58 3.23991 71.62 3.47991C73.66 3.71991 75.64 3.87991 77.63 4.21991C81.56 4.87991 85.53 6.01991 89.16 7.68991C92.84 9.37991 96.26 11.3399 99.74 13.4099C103.09 15.3999 105.82 18.0299 107.85 21.3799C109.92 24.7999 111.19 28.6299 111.94 32.5399C112.34 34.6099 112.74 36.7499 112.68 38.8699C112.64 40.3999 111.94 41.2199 110.46 41.5999C109.08 41.9599 107.55 41.8599 106.15 41.6599C105.34 41.5399 104.55 41.8599 104.3 42.7099C104.1 43.4099 104.55 44.4399 105.35 44.5599V44.5299Z" fill="#333333"/>
<path d="M62.42 125.17C61.92 126.32 60.64 127.07 59.36 127.34C60.72 126.98 62.1 127.79 62.41 129.17C62.72 130.55 61.76 132.07 60.38 132.32C61.7 132.35 62.62 133.62 62.65 134.94C62.7 137.05 61.38 138.42 59.48 139.06C57.58 139.7 55.34 139.86 53.89 139.85C51.41 139.82 49.05 139.25 47.18 138.24C45.31 137.22 44.16 135.43 43.57 132.7C43.3 131.44 43.16 130.18 43.2 128.89C43.28 126.35 43.73 123.34 44.92 120.82C46.11 118.3 48 116.44 51.09 116.07C51.39 116.03 51.65 115.86 51.94 115.97C53.05 116.39 52.87 117.92 52.46 119.02C54.33 118.81 56.17 118.38 58.03 118.18C58.89 118.08 60.01 118.21 60.56 118.88C60.99 119.41 60.88 120.29 60.56 120.89C60.24 121.49 59.71 122.18 59.18 122.61C59.92 122.14 60.86 121.95 61.58 122.45C62.3 122.95 62.51 123.82 62.33 124.67C62.3 124.82 62.5 125.02 62.44 125.16L62.42 125.17Z" fill="#FFE6D9"/>
<path d="M61.13 124.42C60.68 125.31 59.9 125.67 58.97 125.9C57.08 126.36 57.89 129.17 59.77 128.79C61.25 128.49 61.3 130.54 59.99 130.88C58.24 131.32 58.79 133.66 60.39 133.83C61.14 133.91 61.22 134.99 61.13 135.55C61 136.3 60.53 136.86 59.91 137.25C58.42 138.19 56.24 138.32 54.53 138.36C50.94 138.44 46.74 137.53 45.43 133.77C44.12 130 44.56 125.19 46.23 121.59C46.86 120.23 47.74 119 49.07 118.26C49.42 118.06 49.78 117.92 50.17 117.81C50.56 117.7 51.18 117.72 51.51 117.54C51.98 117.49 51.9 117.39 51.27 117.25C51.31 117.35 51.32 117.45 51.29 117.56C51.16 117.89 51.14 118.31 51.03 118.65C50.74 119.5 51.53 120.66 52.48 120.55C54.34 120.33 56.19 119.86 58.05 119.71C58.31 119.69 58.62 119.65 58.88 119.69C58.94 119.69 59.46 119.95 59.36 119.74C59.62 120.28 58.43 121.33 58.13 121.59C56.83 122.75 58.49 124.76 59.95 123.95C61.24 123.23 60.84 124.77 61 125.61C61.36 127.5 64.25 126.7 63.89 124.81C63.85 124.5 63.83 124.49 63.83 124.81L63.88 124.41C63.89 124.07 63.88 123.72 63.81 123.38C63.65 122.67 63.3 122.03 62.77 121.54C61.51 120.39 59.82 120.58 58.43 121.36L60.25 123.72C62.04 122.12 63.55 118.86 60.89 117.26C59.78 116.59 58.45 116.66 57.22 116.83C55.63 117.04 54.07 117.38 52.48 117.57L53.93 119.47C54.52 117.76 54.51 115.18 52.37 114.57C51.49 114.32 50.24 114.69 49.38 114.94C48.46 115.21 47.58 115.63 46.81 116.19C43.23 118.78 42.1 123.65 41.8 127.82C41.5 131.95 42.36 137.09 46.2 139.42C50.06 141.76 55.7 142.02 59.92 140.55C62.01 139.82 63.74 138.32 64.1 136.05C64.52 133.49 63.07 131.13 60.42 130.85C60.55 131.83 60.69 132.81 60.82 133.8C62.98 133.25 64.43 131.01 63.9 128.8C63.36 126.56 61.15 125.5 59.01 125.93L59.81 128.82C61.45 128.42 62.98 127.51 63.76 125.96C64.63 124.24 62.05 122.72 61.17 124.45L61.13 124.42Z" fill="#333333"/>
<path d="M124.05 106.09C124.19 106.41 124.3 106.74 124.39 107.08C124.43 107.25 124.47 107.42 124.5 107.59C124.52 107.67 124.53 107.76 124.54 107.85C124.52 107.67 124.52 107.66 124.54 107.84C124.56 108.14 124.58 108.44 124.58 108.75C124.58 108.92 124.57 109.1 124.56 109.27C124.56 109.34 124.48 109.89 124.54 109.52C124.44 110.17 124.27 110.81 124.04 111.43C124.01 111.51 123.98 111.59 123.94 111.68C124 111.53 124.01 111.53 123.94 111.68C123.86 111.84 123.79 112 123.71 112.16C123.55 112.47 123.37 112.77 123.18 113.07C122.75 113.73 123.03 114.76 123.72 115.12C124.47 115.52 125.31 115.29 125.77 114.58C127.51 111.91 128.21 108.32 126.95 105.31C126.65 104.59 125.94 103.99 125.1 104.26C124.41 104.48 123.73 105.33 124.05 106.11V106.09Z" fill="#333333"/>
<path d="M106.74 114.23C107.27 116.57 107.79 118.92 108.6 121.19C109.42 123.5 110.5 125.7 111.57 127.91C111.92 128.64 112.96 128.83 113.62 128.45C114.36 128.01 114.51 127.13 114.16 126.4C113.17 124.35 112.16 122.31 111.41 120.16C110.65 117.97 110.15 115.7 109.64 113.44C109.21 111.56 106.32 112.35 106.75 114.24L106.74 114.23Z" fill="#333333"/>
<path d="M34.43 123.61C33.74 128.87 33.42 135.22 36.83 139.67C37.32 140.31 38.12 140.65 38.88 140.21C39.51 139.84 39.91 138.8 39.42 138.16C36.32 134.12 36.81 128.37 37.43 123.62C37.54 122.82 36.67 122.12 35.93 122.12C35.03 122.12 34.54 122.81 34.43 123.62V123.61Z" fill="#333333"/>
</g>
<defs>
<clipPath id="clip0_4_5672">
<rect width="166.1" height="214.45" fill="white"/>
</clipPath>
</defs>
</svg>
