<svg width="1080" height="740" viewBox="0 0 1080 740" fill="none" xmlns="http://www.w3.org/2000/svg">
<mask id="path-2-inside-1_40_1538" fill="white">
<path fill-rule="evenodd" clip-rule="evenodd" d="M813 373C832.33 373 848 357.33 848 338C848 318.67 832.33 303 813 303C793.67 303 778 318.67 778 338C778 346.867 781.297 354.964 786.732 361.131C785.039 362.923 784 365.34 784 368C784 373.523 788.477 378 794 378C798.237 378 801.859 375.364 803.316 371.643C806.391 372.527 809.64 373 813 373Z"/>
</mask>
<path fill-rule="evenodd" clip-rule="evenodd" d="M813 373C832.33 373 848 357.33 848 338C848 318.67 832.33 303 813 303C793.67 303 778 318.67 778 338C778 346.867 781.297 354.964 786.732 361.131C785.039 362.923 784 365.34 784 368C784 373.523 788.477 378 794 378C798.237 378 801.859 375.364 803.316 371.643C806.391 372.527 809.64 373 813 373Z" fill="#FD780F"/>
<path d="M786.732 361.131L788.549 362.849L790.117 361.19L788.608 359.478L786.732 361.131ZM803.316 371.643L804.006 369.24L801.818 368.611L800.988 370.732L803.316 371.643ZM845.5 338C845.5 355.949 830.949 370.5 813 370.5V375.5C833.711 375.5 850.5 358.711 850.5 338H845.5ZM813 305.5C830.949 305.5 845.5 320.051 845.5 338H850.5C850.5 317.289 833.711 300.5 813 300.5V305.5ZM780.5 338C780.5 320.051 795.051 305.5 813 305.5V300.5C792.289 300.5 775.5 317.289 775.5 338H780.5ZM788.608 359.478C783.56 353.75 780.5 346.235 780.5 338H775.5C775.5 347.498 779.035 356.177 784.857 362.784L788.608 359.478ZM786.5 368C786.5 366.004 787.277 364.194 788.549 362.849L784.916 359.413C782.801 361.651 781.5 364.676 781.5 368H786.5ZM794 375.5C789.858 375.5 786.5 372.142 786.5 368H781.5C781.5 374.904 787.096 380.5 794 380.5V375.5ZM800.988 370.732C799.894 373.527 797.174 375.5 794 375.5V380.5C799.301 380.5 803.825 377.201 805.644 372.554L800.988 370.732ZM813 370.5C809.876 370.5 806.859 370.06 804.006 369.24L802.625 374.046C805.923 374.993 809.404 375.5 813 375.5V370.5Z" fill="#333333" mask="url(#path-2-inside-1_40_1538)"/>
<mask id="path-4-outside-2_40_1538" maskUnits="userSpaceOnUse" x="799.682" y="319" width="31" height="36" fill="black">
<rect fill="white" x="799.682" y="319" width="31" height="36"/>
<path d="M802.088 335.517C805.394 335.479 808.608 333.429 810.075 330.419C810.746 329.04 811.065 327.513 811.596 326.068C812.126 324.623 812.938 323.195 814.263 322.442C815.589 321.689 817.51 321.876 818.333 323.173C818.896 324.068 818.825 325.216 818.685 326.271C818.387 328.502 817.868 330.705 817.142 332.831C819.404 332.336 821.78 332.353 824.037 332.886C824.729 333.05 825.444 333.281 825.947 333.792C827.024 334.896 826.613 336.874 825.509 337.945C824.405 339.017 822.835 339.407 821.347 339.764C822.765 339.445 824.264 339.127 825.655 339.566C827.046 340.006 828.22 341.5 827.792 342.912C827.522 343.802 826.715 344.406 825.909 344.846C824.6 345.549 823.149 345.977 821.677 346.093C822.614 345.856 823.588 345.62 824.54 345.785C825.492 345.95 826.434 346.62 826.607 347.581C826.791 348.609 826.077 349.587 825.254 350.213C823.122 351.834 820.265 351.955 817.602 352.01C812.202 352.119 806.595 352.191 801.682 349.916"/>
</mask>
<path d="M802.088 335.517C805.394 335.479 808.608 333.429 810.075 330.419C810.746 329.04 811.065 327.513 811.596 326.068C812.126 324.623 812.938 323.195 814.263 322.442C815.589 321.689 817.51 321.876 818.333 323.173C818.896 324.068 818.825 325.216 818.685 326.271C818.387 328.502 817.868 330.705 817.142 332.831C819.404 332.336 821.78 332.353 824.037 332.886C824.729 333.05 825.444 333.281 825.947 333.792C827.024 334.896 826.613 336.874 825.509 337.945C824.405 339.017 822.835 339.407 821.347 339.764C822.765 339.445 824.264 339.127 825.655 339.566C827.046 340.006 828.22 341.5 827.792 342.912C827.522 343.802 826.715 344.406 825.909 344.846C824.6 345.549 823.149 345.977 821.677 346.093C822.614 345.856 823.588 345.62 824.54 345.785C825.492 345.95 826.434 346.62 826.607 347.581C826.791 348.609 826.077 349.587 825.254 350.213C823.122 351.834 820.265 351.955 817.602 352.01C812.202 352.119 806.595 352.191 801.682 349.916" fill="white"/>
<path d="M810.075 330.419L812.322 331.514L812.323 331.513L810.075 330.419ZM818.333 323.173L820.45 321.842L820.444 321.833L818.333 323.173ZM818.685 326.271L821.163 326.602L821.163 326.602L818.685 326.271ZM817.142 332.831L814.776 332.024L813.345 336.22L817.676 335.273L817.142 332.831ZM824.037 332.886L824.615 330.453L824.611 330.452L824.037 332.886ZM825.947 333.792L827.737 332.047L827.728 332.038L825.947 333.792ZM821.347 339.764L820.764 337.333L821.895 342.203L821.347 339.764ZM827.792 342.912L830.184 343.639L830.185 343.636L827.792 342.912ZM825.909 344.846L827.092 347.048L827.099 347.044L827.106 347.041L825.909 344.846ZM821.677 346.093L821.066 343.669L821.873 348.585L821.677 346.093ZM826.607 347.581L829.068 347.141L829.068 347.138L826.607 347.581ZM825.254 350.213L826.767 352.203L826.769 352.202L825.254 350.213ZM817.602 352.01L817.653 354.509L817.654 354.509L817.602 352.01ZM802.117 338.017C806.382 337.967 810.448 335.363 812.322 331.514L807.827 329.324C806.769 331.496 804.406 332.99 802.058 333.017L802.117 338.017ZM812.323 331.513C812.743 330.649 813.036 329.776 813.274 329.015C813.529 328.2 813.705 327.576 813.942 326.929L809.249 325.206C808.956 326.005 808.707 326.866 808.502 327.521C808.28 328.23 808.078 328.81 807.827 329.325L812.323 331.513ZM813.942 326.929C814.408 325.661 814.953 324.925 815.498 324.616L813.029 320.268C810.922 321.464 809.844 323.585 809.249 325.206L813.942 326.929ZM815.498 324.616C815.568 324.576 815.666 324.538 815.785 324.517C815.903 324.496 816.016 324.496 816.108 324.51C816.304 324.54 816.277 324.599 816.222 324.512L820.444 321.833C819.566 320.45 818.167 319.767 816.865 319.568C815.577 319.37 814.195 319.606 813.029 320.268L815.498 324.616ZM816.216 324.503C816.216 324.503 816.216 324.503 816.217 324.503C816.217 324.504 816.217 324.504 816.218 324.505C816.218 324.507 816.22 324.51 816.222 324.514C816.226 324.523 816.232 324.538 816.239 324.563C816.253 324.614 816.27 324.699 816.278 324.827C816.296 325.103 816.271 325.455 816.207 325.94L821.163 326.602C821.297 325.593 821.544 323.584 820.45 321.842L816.216 324.503ZM816.207 325.94C815.931 328.007 815.449 330.051 814.776 332.024L819.509 333.638C820.286 331.358 820.843 328.996 821.163 326.602L816.207 325.94ZM817.676 335.273C819.575 334.858 821.572 334.872 823.462 335.319L824.611 330.452C821.988 329.833 819.234 329.814 816.609 330.388L817.676 335.273ZM823.458 335.318C823.75 335.387 823.938 335.446 824.069 335.503C824.192 335.556 824.199 335.58 824.166 335.546L827.728 332.038C826.688 330.982 825.349 330.628 824.615 330.453L823.458 335.318ZM824.157 335.538C824.019 335.396 824.1 335.318 824.069 335.538C824.056 335.638 824.02 335.758 823.959 335.88C823.898 336.002 823.827 336.094 823.768 336.151L827.25 339.739C828.213 338.804 828.842 337.526 829.022 336.224C829.204 334.911 828.951 333.292 827.737 332.047L824.157 335.538ZM823.768 336.151C823.237 336.666 822.38 336.945 820.764 337.333L821.931 342.195C823.29 341.869 825.572 341.367 827.25 339.739L823.768 336.151ZM821.895 342.203C823.43 341.858 824.258 341.746 824.901 341.95L826.408 337.182C824.27 336.507 822.1 337.032 820.799 337.325L821.895 342.203ZM824.901 341.95C824.962 341.969 825.046 342.009 825.137 342.077C825.227 342.144 825.297 342.22 825.342 342.286C825.388 342.353 825.39 342.383 825.386 342.363C825.381 342.335 825.375 342.267 825.4 342.187L830.185 343.636C830.671 342.032 830.197 340.527 829.469 339.462C828.748 338.409 827.652 337.575 826.408 337.182L824.901 341.95ZM825.4 342.185C825.424 342.106 825.449 342.123 825.336 342.229C825.215 342.343 825.016 342.485 824.713 342.65L827.106 347.041C828.009 346.549 829.608 345.534 830.184 343.639L825.4 342.185ZM824.726 342.643C823.719 343.184 822.604 343.512 821.482 343.6L821.873 348.585C823.695 348.442 825.481 347.913 827.092 347.048L824.726 342.643ZM822.289 348.517C823.307 348.26 823.768 348.188 824.114 348.248L824.966 343.322C823.408 343.052 821.92 343.453 821.066 343.669L822.289 348.517ZM824.114 348.248C824.142 348.253 824.179 348.264 824.216 348.281C824.253 348.297 824.275 348.313 824.281 348.318C824.287 348.323 824.265 348.307 824.235 348.259C824.203 348.209 824.166 348.129 824.147 348.025L829.068 347.138C828.644 344.788 826.547 343.595 824.966 343.322L824.114 348.248ZM824.146 348.022C824.109 347.812 824.189 347.718 824.139 347.805C824.115 347.847 824.07 347.912 823.997 347.991C823.925 348.07 823.837 348.15 823.74 348.224L826.769 352.202C827.821 351.401 829.507 349.592 829.068 347.141L824.146 348.022ZM823.741 348.223C822.358 349.274 820.354 349.452 817.551 349.51L817.654 354.509C820.176 354.457 823.886 354.393 826.767 352.203L823.741 348.223ZM817.552 349.51C812.051 349.622 807.037 349.64 802.732 347.648L800.631 352.185C806.154 354.741 812.353 354.617 817.653 354.509L817.552 349.51Z" fill="#333333" mask="url(#path-4-outside-2_40_1538)"/>
<path d="M801.481 331.073H800.61C798.616 331.073 797 332.713 797 334.737V350.493C797 352.517 798.616 354.158 800.61 354.158H801.481C803.474 354.158 805.09 352.517 805.09 350.493V334.737C805.09 332.713 803.474 331.073 801.481 331.073Z" fill="white" stroke="#333333" stroke-width="2.5" stroke-linecap="round" stroke-linejoin="round"/>
<circle cx="781" cy="380" r="4.75" fill="#FD780F" stroke="#333333" stroke-width="2.5"/>
<mask id="path-8-inside-3_40_1538" fill="white">
<path fill-rule="evenodd" clip-rule="evenodd" d="M249 376C229.67 376 214 360.33 214 341C214 321.67 229.67 306 249 306C268.33 306 284 321.67 284 341C284 349.867 280.703 357.964 275.268 364.131C276.961 365.923 278 368.34 278 371C278 376.523 273.523 381 268 381C263.763 381 260.141 378.364 258.684 374.643C255.609 375.527 252.36 376 249 376Z"/>
</mask>
<path fill-rule="evenodd" clip-rule="evenodd" d="M249 376C229.67 376 214 360.33 214 341C214 321.67 229.67 306 249 306C268.33 306 284 321.67 284 341C284 349.867 280.703 357.964 275.268 364.131C276.961 365.923 278 368.34 278 371C278 376.523 273.523 381 268 381C263.763 381 260.141 378.364 258.684 374.643C255.609 375.527 252.36 376 249 376Z" fill="#FD780F"/>
<path d="M275.268 364.131L273.451 365.849L271.883 364.19L273.392 362.478L275.268 364.131ZM258.684 374.643L257.994 372.24L260.182 371.611L261.012 373.732L258.684 374.643ZM216.5 341C216.5 358.949 231.051 373.5 249 373.5V378.5C228.289 378.5 211.5 361.711 211.5 341H216.5ZM249 308.5C231.051 308.5 216.5 323.051 216.5 341H211.5C211.5 320.289 228.289 303.5 249 303.5V308.5ZM281.5 341C281.5 323.051 266.949 308.5 249 308.5V303.5C269.711 303.5 286.5 320.289 286.5 341H281.5ZM273.392 362.478C278.44 356.75 281.5 349.235 281.5 341H286.5C286.5 350.498 282.965 359.177 277.143 365.784L273.392 362.478ZM275.5 371C275.5 369.004 274.723 367.194 273.451 365.849L277.084 362.413C279.199 364.651 280.5 367.676 280.5 371H275.5ZM268 378.5C272.142 378.5 275.5 375.142 275.5 371H280.5C280.5 377.904 274.904 383.5 268 383.5V378.5ZM261.012 373.732C262.106 376.527 264.826 378.5 268 378.5V383.5C262.699 383.5 258.175 380.201 256.356 375.554L261.012 373.732ZM249 373.5C252.124 373.5 255.141 373.06 257.994 372.24L259.375 377.046C256.077 377.993 252.596 378.5 249 378.5V373.5Z" fill="#333333" mask="url(#path-8-inside-3_40_1538)"/>
<mask id="path-10-outside-4_40_1538" maskUnits="userSpaceOnUse" x="235.682" y="322" width="31" height="36" fill="black">
<rect fill="white" x="235.682" y="322" width="31" height="36"/>
<path d="M238.088 338.517C241.394 338.479 244.608 336.429 246.075 333.419C246.746 332.04 247.065 330.513 247.596 329.068C248.126 327.623 248.938 326.195 250.263 325.442C251.589 324.689 253.51 324.876 254.333 326.173C254.896 327.068 254.825 328.216 254.685 329.271C254.387 331.502 253.868 333.705 253.142 335.831C255.404 335.336 257.78 335.353 260.037 335.886C260.729 336.05 261.444 336.281 261.947 336.792C263.024 337.896 262.613 339.874 261.509 340.945C260.405 342.017 258.835 342.407 257.347 342.764C258.765 342.445 260.264 342.127 261.655 342.566C263.046 343.006 264.22 344.5 263.792 345.912C263.522 346.802 262.715 347.406 261.909 347.846C260.6 348.549 259.149 348.977 257.677 349.093C258.614 348.856 259.588 348.62 260.54 348.785C261.492 348.95 262.434 349.62 262.607 350.581C262.791 351.609 262.077 352.587 261.254 353.213C259.122 354.834 256.265 354.955 253.602 355.01C248.202 355.119 242.595 355.191 237.682 352.916"/>
</mask>
<path d="M238.088 338.517C241.394 338.479 244.608 336.429 246.075 333.419C246.746 332.04 247.065 330.513 247.596 329.068C248.126 327.623 248.938 326.195 250.263 325.442C251.589 324.689 253.51 324.876 254.333 326.173C254.896 327.068 254.825 328.216 254.685 329.271C254.387 331.502 253.868 333.705 253.142 335.831C255.404 335.336 257.78 335.353 260.037 335.886C260.729 336.05 261.444 336.281 261.947 336.792C263.024 337.896 262.613 339.874 261.509 340.945C260.405 342.017 258.835 342.407 257.347 342.764C258.765 342.445 260.264 342.127 261.655 342.566C263.046 343.006 264.22 344.5 263.792 345.912C263.522 346.802 262.715 347.406 261.909 347.846C260.6 348.549 259.149 348.977 257.677 349.093C258.614 348.856 259.588 348.62 260.54 348.785C261.492 348.95 262.434 349.62 262.607 350.581C262.791 351.609 262.077 352.587 261.254 353.213C259.122 354.834 256.265 354.955 253.602 355.01C248.202 355.119 242.595 355.191 237.682 352.916" fill="white"/>
<path d="M246.075 333.419L248.322 334.514L248.323 334.513L246.075 333.419ZM254.333 326.173L256.45 324.842L256.444 324.833L254.333 326.173ZM254.685 329.271L257.163 329.602L257.163 329.602L254.685 329.271ZM253.142 335.831L250.776 335.024L249.345 339.22L253.676 338.273L253.142 335.831ZM260.037 335.886L260.615 333.453L260.611 333.452L260.037 335.886ZM261.947 336.792L263.737 335.047L263.728 335.038L261.947 336.792ZM257.347 342.764L256.764 340.333L257.895 345.203L257.347 342.764ZM263.792 345.912L266.184 346.639L266.185 346.636L263.792 345.912ZM261.909 347.846L263.092 350.048L263.099 350.044L263.106 350.041L261.909 347.846ZM257.677 349.093L257.066 346.669L257.873 351.585L257.677 349.093ZM262.607 350.581L265.068 350.141L265.068 350.138L262.607 350.581ZM261.254 353.213L262.767 355.203L262.769 355.202L261.254 353.213ZM253.602 355.01L253.653 357.509L253.654 357.509L253.602 355.01ZM238.117 341.017C242.382 340.967 246.448 338.363 248.322 334.514L243.827 332.324C242.769 334.496 240.406 335.99 238.058 336.017L238.117 341.017ZM248.323 334.513C248.743 333.649 249.036 332.776 249.274 332.015C249.529 331.2 249.705 330.576 249.942 329.929L245.249 328.206C244.956 329.005 244.707 329.866 244.502 330.521C244.28 331.23 244.078 331.81 243.827 332.325L248.323 334.513ZM249.942 329.929C250.408 328.661 250.953 327.925 251.498 327.616L249.029 323.268C246.922 324.464 245.844 326.585 245.249 328.206L249.942 329.929ZM251.498 327.616C251.568 327.576 251.666 327.538 251.785 327.517C251.903 327.496 252.016 327.496 252.108 327.51C252.304 327.54 252.277 327.599 252.222 327.512L256.444 324.833C255.566 323.45 254.167 322.767 252.865 322.568C251.577 322.37 250.195 322.606 249.029 323.268L251.498 327.616ZM252.216 327.503C252.216 327.503 252.216 327.503 252.217 327.503C252.217 327.504 252.217 327.504 252.218 327.505C252.218 327.507 252.22 327.51 252.222 327.514C252.226 327.523 252.232 327.538 252.239 327.563C252.253 327.614 252.27 327.699 252.278 327.827C252.296 328.103 252.271 328.455 252.207 328.94L257.163 329.602C257.297 328.593 257.544 326.584 256.45 324.842L252.216 327.503ZM252.207 328.94C251.931 331.007 251.449 333.051 250.776 335.024L255.509 336.638C256.286 334.358 256.843 331.996 257.163 329.602L252.207 328.94ZM253.676 338.273C255.575 337.858 257.572 337.872 259.462 338.319L260.611 333.452C257.988 332.833 255.234 332.814 252.609 333.388L253.676 338.273ZM259.458 338.318C259.75 338.387 259.938 338.446 260.069 338.503C260.192 338.556 260.199 338.58 260.166 338.546L263.728 335.038C262.688 333.982 261.349 333.628 260.615 333.453L259.458 338.318ZM260.157 338.538C260.019 338.396 260.1 338.318 260.069 338.538C260.056 338.638 260.02 338.758 259.959 338.88C259.898 339.002 259.827 339.094 259.768 339.151L263.25 342.739C264.213 341.804 264.842 340.526 265.022 339.224C265.204 337.911 264.951 336.292 263.737 335.047L260.157 338.538ZM259.768 339.151C259.237 339.666 258.38 339.945 256.764 340.333L257.931 345.195C259.29 344.869 261.572 344.367 263.25 342.739L259.768 339.151ZM257.895 345.203C259.43 344.858 260.258 344.746 260.901 344.95L262.408 340.182C260.27 339.507 258.1 340.032 256.799 340.325L257.895 345.203ZM260.901 344.95C260.962 344.969 261.046 345.009 261.137 345.077C261.227 345.144 261.297 345.22 261.342 345.286C261.388 345.353 261.39 345.383 261.386 345.363C261.381 345.335 261.375 345.267 261.4 345.187L266.185 346.636C266.671 345.032 266.197 343.527 265.469 342.462C264.748 341.409 263.652 340.575 262.408 340.182L260.901 344.95ZM261.4 345.185C261.424 345.106 261.449 345.123 261.336 345.229C261.215 345.343 261.016 345.485 260.713 345.65L263.106 350.041C264.009 349.549 265.608 348.534 266.184 346.639L261.4 345.185ZM260.726 345.643C259.719 346.184 258.604 346.512 257.482 346.6L257.873 351.585C259.695 351.442 261.481 350.913 263.092 350.048L260.726 345.643ZM258.289 351.517C259.307 351.26 259.768 351.188 260.114 351.248L260.966 346.322C259.408 346.052 257.92 346.453 257.066 346.669L258.289 351.517ZM260.114 351.248C260.142 351.253 260.179 351.264 260.216 351.281C260.253 351.297 260.275 351.313 260.281 351.318C260.287 351.323 260.265 351.307 260.235 351.259C260.203 351.209 260.166 351.129 260.147 351.025L265.068 350.138C264.644 347.788 262.547 346.595 260.966 346.322L260.114 351.248ZM260.146 351.022C260.109 350.812 260.189 350.718 260.139 350.805C260.115 350.847 260.07 350.912 259.997 350.991C259.925 351.07 259.837 351.15 259.74 351.224L262.769 355.202C263.821 354.401 265.507 352.592 265.068 350.141L260.146 351.022ZM259.741 351.223C258.358 352.274 256.354 352.452 253.551 352.51L253.654 357.509C256.176 357.457 259.886 357.393 262.767 355.203L259.741 351.223ZM253.552 352.51C248.051 352.622 243.037 352.64 238.732 350.648L236.631 355.185C242.154 357.741 248.353 357.617 253.653 357.509L253.552 352.51Z" fill="#333333" mask="url(#path-10-outside-4_40_1538)"/>
<path d="M237.481 334.073H236.61C234.616 334.073 233 335.713 233 337.737V353.493C233 355.517 234.616 357.158 236.61 357.158H237.481C239.474 357.158 241.09 355.517 241.09 353.493V337.737C241.09 335.713 239.474 334.073 237.481 334.073Z" fill="white" stroke="#333333" stroke-width="2.5" stroke-linecap="round" stroke-linejoin="round"/>
<circle cx="282" cy="382" r="4.75" fill="#FD780F" stroke="#333333" stroke-width="2.5"/>
</svg>
