<svg width="94" height="94" viewBox="0 0 94 94" fill="none" xmlns="http://www.w3.org/2000/svg">
<path fill-rule="evenodd" clip-rule="evenodd" d="M75.1179 71.538C80.8785 63.5324 83.5533 53.3127 81.7651 42.822C78.2221 22.0363 58.4998 8.05838 37.7141 11.6014C16.9284 15.1444 2.95043 34.8667 6.49345 55.6525C10.0365 76.4382 29.7588 90.4161 50.5445 86.8731C57.0023 85.7723 62.8029 83.1099 67.6252 79.3391C75.3374 81.7132 83.8912 80.9355 88.0971 79.9689C81.2719 77.7549 77.5313 74.5778 75.1179 71.538Z" fill="black"/>
<path d="M75.1179 71.538L73.9003 70.6619L73.2379 71.5824L73.9431 72.4707L75.1179 71.538ZM67.6252 79.3391L68.0665 77.9055L67.3181 77.6751L66.7012 78.1575L67.6252 79.3391ZM88.0971 79.9689L88.433 81.4308L93.7194 80.2158L88.5599 78.5421L88.0971 79.9689ZM80.2865 43.0741C82.0045 53.1529 79.436 62.9688 73.9003 70.6619L76.3354 72.4141C82.3209 64.096 85.1022 53.4724 83.2438 42.57L80.2865 43.0741ZM37.9661 13.0801C57.9352 9.67626 76.8827 23.105 80.2865 43.0741L83.2438 42.57C79.5616 20.9676 59.0644 6.44051 37.462 10.1227L37.9661 13.0801ZM7.97212 55.4004C4.5683 35.4313 17.9971 16.4839 37.9661 13.0801L37.462 10.1227C15.8597 13.8049 1.33256 34.3021 5.01478 55.9045L7.97212 55.4004ZM50.2925 85.3944C30.3234 88.7982 11.3759 75.3695 7.97212 55.4004L5.01478 55.9045C8.697 77.5069 29.1942 92.034 50.7965 88.3518L50.2925 85.3944ZM66.7012 78.1575C62.07 81.7789 56.4991 84.3365 50.2925 85.3944L50.7965 88.3518C57.5054 87.2082 63.5358 84.4409 68.5492 80.5207L66.7012 78.1575ZM67.1838 80.7727C75.2239 83.2478 84.0602 82.4358 88.433 81.4308L87.7611 78.507C83.7222 79.4353 75.4509 80.1787 68.0665 77.9055L67.1838 80.7727ZM88.5599 78.5421C82.0158 76.4192 78.5228 73.4141 76.2926 70.6053L73.9431 72.4707C76.5399 75.7414 80.528 79.0905 87.6342 81.3957L88.5599 78.5421Z" fill="black"/>
<path fill-rule="evenodd" clip-rule="evenodd" d="M71.5262 67.9196C78.6092 60.9376 83 51.2316 83 40.5C83 19.237 65.763 2 44.5 2C23.237 2 6 19.237 6 40.5C6 61.763 23.237 79 44.5 79C51.1059 79 57.3233 77.3363 62.7559 74.405C70.0202 78.0719 78.6552 78.7483 83 78.5C76.5904 75.1426 73.4103 71.3504 71.5262 67.9196Z" fill="#A9F5FF"/>
<path d="M71.5262 67.9196L70.4732 66.8514L69.6654 67.6476L70.2114 68.6417L71.5262 67.9196ZM62.7559 74.405L63.4318 73.0659L62.7327 72.713L62.0436 73.0849L62.7559 74.405ZM83 78.5L83.0856 79.9976L88.5009 79.6881L83.696 77.1712L83 78.5ZM81.5 40.5C81.5 50.8138 77.282 60.1396 70.4732 66.8514L72.5792 68.9879C79.9365 61.7355 84.5 51.6493 84.5 40.5H81.5ZM44.5 3.5C64.9345 3.5 81.5 20.0655 81.5 40.5H84.5C84.5 18.4086 66.5914 0.5 44.5 0.5V3.5ZM7.5 40.5C7.5 20.0655 24.0655 3.5 44.5 3.5V0.5C22.4086 0.5 4.5 18.4086 4.5 40.5H7.5ZM44.5 77.5C24.0655 77.5 7.5 60.9345 7.5 40.5H4.5C4.5 62.5914 22.4086 80.5 44.5 80.5V77.5ZM62.0436 73.0849C56.8244 75.901 50.8512 77.5 44.5 77.5V80.5C51.3607 80.5 57.8221 78.7715 63.4682 75.7251L62.0436 73.0849ZM62.0799 75.744C69.6504 79.5656 78.5697 80.2556 83.0856 79.9976L82.9144 77.0024C78.7407 77.2409 70.3899 76.5783 63.4318 73.0659L62.0799 75.744ZM83.696 77.1712C77.5481 73.9509 74.5831 70.3699 72.841 67.1976L70.2114 68.6417C72.2374 72.3309 75.6326 76.3342 82.304 79.8288L83.696 77.1712Z" fill="black"/>
<path d="M44.1715 52.96C42.7529 52.96 41.4555 52.6987 40.2795 52.176C39.1222 51.672 38.1609 50.9533 37.3955 50.02C36.6489 49.068 36.1822 47.9667 35.9955 46.716L40.7275 45.708C40.9329 46.4733 41.3435 47.0893 41.9595 47.556C42.5755 48.0227 43.3129 48.256 44.1715 48.256C45.1422 48.256 45.9355 47.9667 46.5515 47.388C47.1862 46.7907 47.5035 45.9693 47.5035 44.924V44.728C47.5035 43.664 47.1489 42.8333 46.4395 42.236C45.7302 41.6387 44.7409 41.34 43.4715 41.34H40.3635V37.644L45.5995 32.576H37.3395V27.956H51.7875V32.576L46.4955 37.7C47.7089 37.8307 48.7822 38.2133 49.7155 38.848C50.6675 39.464 51.4049 40.2667 51.9275 41.256C52.4502 42.2267 52.7115 43.2907 52.7115 44.448V45.204C52.7115 46.8093 52.3289 48.2 51.5635 49.376C50.7982 50.552 49.7622 51.4387 48.4555 52.036C47.1489 52.652 45.7209 52.96 44.1715 52.96Z" fill="black"/>
</svg>
