<svg width="64" height="104" viewBox="0 0 64 104" fill="none" xmlns="http://www.w3.org/2000/svg">
<g clip-path="url(#clip0_4_16801)">
<path d="M21.3772 3.13775C20.2657 3.08009 19.1542 3.01762 18.0427 2.95996C16.9312 2.9023 15.8196 2.82542 14.7081 2.76776C13.6697 2.71491 12.646 2.78218 11.6417 3.03684C10.7203 3.27229 9.91592 3.67591 9.20416 4.29576C8.4924 4.91561 7.96589 5.66519 7.46863 6.44841C6.85925 7.40461 6.33761 8.38484 5.99636 9.45155C5.6551 10.5231 5.40648 11.6138 5.3236 12.7382C5.24072 13.8626 5.38697 14.9677 5.56735 16.0777C5.74773 17.1876 5.97198 18.2832 6.41074 19.3163C6.8495 20.3494 7.34676 21.3728 8.03414 22.2714" fill="#333333"/>
<path d="M21.3772 2.41707C19.0128 2.29214 16.6338 2.07111 14.2645 2.02787C12.1536 1.98943 10.0134 2.50357 8.46316 3.98351C7.03476 5.35295 5.93787 7.30379 5.31874 9.15853C4.5826 11.3592 4.4461 13.5407 4.78735 15.8231C5.14811 18.2544 5.89887 20.6329 7.39552 22.6318C7.9464 23.3718 9.2188 22.651 8.65816 21.9063C7.47352 20.3254 6.73738 18.4707 6.3815 16.5487C5.99637 14.4969 5.90375 12.5365 6.44488 10.5039C6.91776 8.70685 7.80503 6.9386 9.02379 5.51151C10.3011 4.01234 12.1 3.47418 14.0451 3.46938C16.4827 3.46938 18.9446 3.72885 21.3821 3.85858C22.323 3.90663 22.3181 2.46513 21.3821 2.41707H21.3772Z" fill="#333333"/>
<path d="M32.1219 93.7607C30.7764 93.7511 29.4699 93.6886 28.1877 93.7223C26.9056 93.7559 25.5844 93.9769 24.2731 93.9913C22.9617 94.0058 21.7478 94.0154 20.4071 93.9577C20.3974 94.7265 20.373 96.8936 20.3535 97.9651C20.3535 98.0756 20.334 98.1765 20.3291 98.2582C20.3194 98.8684 20.2316 99.5459 19.9537 100.036C19.5735 100.699 18.8861 100.968 18.306 101.295C17.7258 101.622 17.0726 102.174 17.1603 102.996C18.1987 103.068 19.2322 103.203 20.2706 103.246C21.309 103.289 22.3571 103.111 23.4004 103.131C24.4437 103.15 25.4821 103.183 26.5205 103.174C27.5589 103.164 28.6021 103.111 29.6405 103.078C30.1183 103.063 30.5619 103.087 30.9665 102.746C31.5759 102.232 31.8587 101.266 32 100.334C32.0147 100.243 31.9025 100.132 31.9123 100.031C31.9903 99.248 31.9903 98.0708 31.9805 96.908C31.9708 95.6827 32.0537 94.467 32.1219 93.7703V93.7607Z" fill="#333333"/>
<path d="M32.1218 93.0396C30.1474 93.0252 28.2023 92.9579 26.2327 93.1405C24.2973 93.3231 22.3473 93.3087 20.407 93.2366C20.0073 93.2222 19.6806 93.5778 19.6758 93.9574C19.6514 95.5622 19.7684 97.2248 19.5685 98.8153C19.51 99.3006 19.3638 99.7522 18.9689 100.069C18.6228 100.348 18.1889 100.507 17.8135 100.742C16.9994 101.247 16.3851 102.001 16.429 102.991C16.4485 103.404 16.7507 103.683 17.1602 103.712C18.3449 103.798 19.5295 103.976 20.719 103.966C21.7769 103.957 22.8251 103.832 23.883 103.851C25.0042 103.875 26.1255 103.899 27.2468 103.87C28.29 103.846 29.4064 103.894 30.4351 103.731C31.3321 103.587 31.9171 102.919 32.2632 102.136C32.4387 101.737 32.5606 101.319 32.6483 100.891C32.7361 100.463 32.663 100.113 32.6776 99.685C32.7507 97.7053 32.6776 95.7304 32.858 93.7556C32.9457 92.833 31.4783 92.8378 31.3955 93.7556C31.2297 95.543 31.3028 97.3305 31.2395 99.118C31.2102 99.9589 31.3028 100.473 31.0542 101.237C30.9469 101.559 30.7958 101.963 30.5131 102.174C30.2108 102.4 29.7721 102.342 29.4113 102.357C27.3296 102.429 25.2626 102.385 23.1858 102.4C22.2157 102.409 21.2504 102.549 20.2803 102.515C19.2419 102.481 18.2035 102.337 17.17 102.265L17.9012 102.986C17.8574 102.068 19.0323 101.785 19.6563 101.352C20.5533 100.732 20.9335 99.8628 21.0408 98.8056C21.2065 97.2008 21.1237 95.5574 21.148 93.9478L20.4168 94.6685C22.3571 94.7454 24.3071 94.755 26.2425 94.5724C28.212 94.3898 30.1572 94.4571 32.1316 94.4715C33.0725 94.4811 33.0725 93.0396 32.1316 93.03L32.1218 93.0396Z" fill="#333333"/>
<path d="M19.2371 73.7666C19.2696 74.9967 19.3004 76.2252 19.3297 77.4521C19.3784 79.2972 19.5149 79.2924 19.5637 81.1375C19.6124 82.9827 19.4321 82.9875 19.4808 84.8326C19.5296 86.6777 19.5783 86.6777 19.6222 88.5229C19.6709 90.368 19.5344 90.3728 19.5832 92.2131C19.6319 94.0535 19.7538 94.0535 19.8026 95.8986C19.8513 97.7437 19.7636 97.7485 19.8123 99.5937C19.8269 100.074 20.2462 100.516 20.646 100.516C22.4692 100.516 22.4692 100.478 24.2876 100.483C26.1109 100.483 26.1109 100.579 27.9342 100.583C29.7575 100.588 29.7575 100.555 31.5808 100.559C31.9854 100.559 32.2438 100.079 32.2438 99.5888C32.2438 97.9455 32.273 97.9455 32.273 96.3022C32.273 94.6589 32.429 94.6589 32.429 93.0156C32.429 91.3723 32.3949 91.3723 32.3998 89.7289C32.3998 88.0856 32.4436 88.0856 32.4485 86.4423C32.4485 84.799 32.2974 84.799 32.3023 83.1557C32.3023 81.5123 32.4095 81.5123 32.4144 79.869C32.4144 78.2257 32.4729 78.2257 32.4729 76.5776C32.4729 74.9294 32.4973 74.9343 32.5021 73.2861" fill="#95BECE"/>
<path d="M18.5058 73.7669C18.5594 75.8907 18.6472 78.0001 18.7885 80.1191C18.8617 81.2435 18.8178 82.3438 18.7593 83.4634C18.7008 84.5685 18.769 85.6833 18.8275 86.7885C18.9397 89.0084 18.7495 91.2283 18.9104 93.4434C18.9884 94.5246 19.081 95.5961 19.0859 96.682C19.0957 97.6959 18.9592 98.7626 19.1054 99.7669C19.1932 100.358 19.5734 100.915 20.1584 101.131C20.7434 101.348 21.4455 101.237 22.0402 101.228C23.1615 101.208 24.2876 101.184 25.4089 101.223C26.5302 101.261 27.6807 101.309 28.8214 101.304C29.2748 101.304 29.7331 101.295 30.1865 101.29C30.752 101.285 31.4784 101.401 32.0097 101.199C33.2626 100.728 32.975 99.0461 32.9945 98.0034C33.014 96.9079 32.9848 95.8075 33.0871 94.7168C33.287 92.5353 33.1066 90.3298 33.1651 88.1435C33.1993 86.923 33.1895 85.717 33.092 84.5013C32.9945 83.2856 33.0774 82.1372 33.131 80.9504C33.248 78.4037 33.2383 75.8378 33.2431 73.2863C33.2431 72.359 31.7855 72.359 31.7806 73.2863C31.7757 75.3381 31.7124 77.3898 31.6929 79.4368C31.6831 80.4747 31.61 81.5029 31.5856 82.5408C31.5612 83.5883 31.6685 84.6118 31.7124 85.6593C31.7952 87.7447 31.6734 89.8445 31.6977 91.9347C31.7221 94.0393 31.5564 96.1391 31.5222 98.2437C31.5222 98.4599 31.5174 98.6761 31.5125 98.8875C31.5076 99.099 31.6051 99.5554 31.4881 99.7524C31.3857 99.9302 31.3955 99.8629 31.142 99.8389C31.025 99.8293 30.8885 99.8389 30.7715 99.8389C30.4936 99.8389 30.2108 99.8389 29.933 99.8485C28.8458 99.863 27.7587 99.8822 26.6715 99.8389C25.638 99.8005 24.6045 99.7572 23.571 99.762C23.142 99.762 22.713 99.7717 22.284 99.7813C22.0597 99.7813 21.8355 99.7909 21.6063 99.7909C21.3772 99.7909 20.8068 99.8966 20.6411 99.7669C20.3729 99.5458 20.5192 98.5704 20.5241 98.2244C20.5289 97.792 20.5436 97.3547 20.5436 96.9223C20.5436 95.8844 20.4899 94.8561 20.3973 93.823C20.2072 91.6944 20.3973 89.561 20.3096 87.4227C20.2608 86.2695 20.1779 85.1163 20.1974 83.9631C20.2169 82.8099 20.3193 81.6807 20.2657 80.5227C20.2121 79.3647 20.0756 78.3316 20.0463 77.2313C20.0171 76.0781 19.9878 74.9201 19.9586 73.7669C19.9342 72.8395 18.4717 72.8395 18.496 73.7669H18.5058Z" fill="#333333"/>
<path d="M45.7574 101.122C45.1773 100.8 44.4314 100.617 44.0463 99.9542C43.7635 99.4689 43.783 98.7769 43.7684 98.1715C43.7684 98.0898 43.7586 97.9889 43.7538 97.8784C43.7294 96.8069 43.6758 94.4716 43.6563 93.7028C42.3107 93.7701 40.975 93.9095 39.6928 93.8998C38.3814 93.895 37.0847 93.9335 35.7733 93.9095C34.4911 93.8854 33.1553 93.6788 31.8147 93.698C31.8878 94.3948 31.8293 95.6729 31.8244 96.903C31.8244 98.0658 31.8634 99.2526 31.9463 100.036C31.9561 100.142 32.0097 100.233 32.0243 100.324C32.1706 101.261 32.3705 102.313 32.9798 102.823C33.3845 103.164 33.9061 103.073 34.3839 103.087C35.4271 103.116 36.4655 103.241 37.5039 103.241C38.5472 103.241 39.5904 103.294 40.6288 103.27C41.6721 103.246 42.7105 103.13 43.7489 103.077C44.7873 103.025 45.7525 102.876 46.7909 102.799C46.8738 101.977 46.3278 101.444 45.7477 101.122H45.7574Z" fill="#333333"/>
<path d="M46.1279 100.502C45.5428 100.189 44.7385 100.002 44.5678 99.2812C44.4216 98.6614 44.485 97.9551 44.4703 97.3208C44.4411 96.1147 44.4167 94.9087 44.3875 93.7026C44.3777 93.3278 44.0608 92.9626 43.6562 92.9819C41.6769 93.0828 39.7171 93.1741 37.733 93.1933C36.7726 93.2029 35.8171 93.2125 34.8616 93.15C33.8475 93.0828 32.8335 92.9771 31.8146 92.9771C31.4441 92.9771 31.0492 93.3086 31.0834 93.6978C31.2589 95.6919 31.0249 97.7052 31.1857 99.7041C31.3027 101.112 31.6537 103.447 33.3747 103.76C33.8622 103.846 34.374 103.803 34.8664 103.827C35.4271 103.856 35.9877 103.904 36.5483 103.933C37.6647 103.99 38.7957 103.995 39.917 104C42.218 104.005 44.5093 103.707 46.8006 103.519C47.2101 103.486 47.5124 103.217 47.5319 102.799C47.5757 101.78 46.9859 101.006 46.1279 100.497C45.3186 100.021 44.5825 101.266 45.3917 101.741C45.8256 101.996 46.0937 102.28 46.0693 102.794L46.8006 102.073C44.7482 102.236 42.7007 102.496 40.6385 102.544C38.591 102.592 36.5532 102.424 34.5105 102.361C34.1644 102.352 33.672 102.453 33.3942 102.203C33.1699 102.001 33.0675 101.645 32.9895 101.362C32.7799 100.641 32.658 99.8723 32.619 99.1227C32.5215 97.316 32.7116 95.4853 32.5556 93.6882L31.8244 94.4089C32.8433 94.4089 33.8524 94.5147 34.8713 94.5819C35.8268 94.6444 36.7872 94.6348 37.7427 94.6252C39.7269 94.606 41.6867 94.5195 43.6659 94.4138L42.9347 93.693C42.9639 95.0672 42.9834 96.4415 43.0273 97.8109C43.0517 98.6326 42.9883 99.5647 43.4222 100.305C43.8561 101.045 44.6605 101.338 45.3966 101.732C46.2254 102.169 46.9664 100.925 46.1327 100.487L46.1279 100.502Z" fill="#333333"/>
<path d="M31.4686 81.6132C31.4979 83.4151 31.3809 83.4151 31.4101 85.2169C31.4394 87.0188 31.6002 87.014 31.6344 88.8159C31.6636 90.6178 31.7319 90.613 31.7611 92.4149C31.7904 94.2168 31.6149 94.2216 31.6441 96.0186C31.6734 97.8157 31.6295 97.8205 31.6587 99.6224C31.6685 100.113 32.1365 100.54 32.5411 100.535C34.3644 100.507 34.3595 100.42 36.1828 100.391C38.0061 100.362 38.011 100.531 39.8342 100.497C41.6575 100.463 41.6526 100.247 43.4759 100.213C43.8708 100.209 44.2169 99.9155 44.2267 99.435C44.2511 97.6572 44.1097 97.6524 44.1341 95.8745C44.1584 94.0966 44.2706 94.0966 44.2949 92.3188C44.3193 90.5409 44.3047 90.5409 44.3291 88.7583C44.3534 86.9804 44.4656 86.9804 44.4899 85.1977C44.5143 83.4199 44.3437 83.4151 44.3632 81.6372C44.3876 79.8545 44.4753 79.8593 44.4997 78.0767C44.5241 76.294 44.5143 76.294 44.5387 74.5162C44.5436 74.0164 44.2072 73.6753 43.7928 73.6801C42.0914 73.6945 42.0914 73.6705 40.3851 73.6801C38.6789 73.6945 38.6789 73.7473 36.9775 73.7618C35.276 73.7762 35.2712 73.7954 33.5649 73.805C31.8586 73.8146 31.8586 73.7762 30.1523 73.7906" fill="#95BECE"/>
<path d="M30.7374 81.6135C30.7569 82.8532 30.6546 84.0881 30.6789 85.3278C30.7033 86.5675 30.8739 87.7976 30.9032 89.0373C30.9324 90.277 31.0202 91.435 31.03 92.6362C31.0397 93.8423 30.8983 95.0339 30.9129 96.24C30.9276 97.3932 30.7813 98.6377 30.9422 99.7813C31.03 100.396 31.4541 100.973 32.0683 101.175C32.6826 101.377 33.4334 101.237 34.0574 101.204C35.2713 101.132 36.49 101.064 37.7039 101.146C38.9227 101.228 40.1366 101.271 41.3505 101.122C41.8477 101.059 42.345 100.987 42.8471 100.959C43.5686 100.92 44.2853 100.93 44.7192 100.257C45.0702 99.714 44.9678 98.9597 44.9434 98.3446C44.9239 97.8353 44.88 97.3308 44.8654 96.8214C44.8313 95.6009 44.9483 94.3997 44.997 93.184C45.0507 91.9731 45.0312 90.7575 45.0458 89.5466C45.0555 88.355 45.153 87.1777 45.1969 85.9861C45.2408 84.7944 45.1287 83.6172 45.0945 82.4256C45.0653 81.2339 45.1725 80.0519 45.2115 78.865C45.2505 77.6782 45.2457 76.4914 45.2554 75.3045C45.2652 74.5405 45.3383 73.7477 44.6412 73.2432C44.0464 72.8155 43.2176 72.9693 42.5254 72.9645C41.1799 72.9645 39.8343 72.9645 38.4937 73.0125C35.7149 73.1182 32.9312 73.0558 30.1476 73.075C29.2067 73.0798 29.2067 74.5213 30.1476 74.5165C32.4242 74.5021 34.696 74.5069 36.9727 74.4877C38.1086 74.478 39.2445 74.4156 40.3803 74.406C40.9702 74.4012 41.5552 74.406 42.1451 74.406C42.3694 74.406 42.5936 74.406 42.813 74.406C43.0324 74.406 43.6369 74.2955 43.7978 74.406C43.9148 74.4877 43.788 75.6361 43.788 75.8811C43.788 76.352 43.7832 76.8229 43.7734 77.2938C43.7637 78.3797 43.7052 79.4609 43.6564 80.5468C43.6028 81.6952 43.6661 82.8244 43.7295 83.968C43.7929 85.1116 43.7295 86.1735 43.6466 87.2738C43.4858 89.5226 43.6466 91.7858 43.4809 94.0393C43.398 95.1445 43.3639 96.2544 43.4224 97.3596C43.4468 97.7872 43.476 98.2197 43.4858 98.6473C43.4858 98.8299 43.5784 99.3489 43.4711 99.4882C43.4029 99.5747 42.579 99.5266 42.4279 99.5363C41.2822 99.6372 40.1805 99.7957 39.0251 99.7717C37.9282 99.7477 36.8459 99.6468 35.7441 99.6756C35.242 99.69 34.7399 99.714 34.2378 99.7477C34.0184 99.7621 33.799 99.7717 33.5796 99.7813C33.3066 99.7909 32.7509 99.9111 32.5168 99.7957C32.2243 99.6564 32.3706 98.5464 32.3706 98.2389C32.3706 97.7632 32.3803 97.2875 32.3706 96.807C32.3608 95.5385 32.4632 94.2892 32.4778 93.0255C32.4925 91.7617 32.3852 90.498 32.356 89.2343C32.3267 87.961 32.161 86.702 32.1317 85.4287C32.1025 84.1554 32.2048 82.8772 32.1853 81.5991C32.1707 80.6717 30.7082 80.6717 30.7228 81.5991L30.7374 81.6135Z" fill="#333333"/>
<path d="M46.7324 55.2292C46.6349 54.6285 46.3961 54.0519 46.2352 53.4513C45.9817 52.5143 45.616 51.611 45.1968 50.7317C44.7775 49.8523 44.329 48.9874 43.6368 48.2859C42.4229 47.0558 41.1456 46.7531 39.7806 46.657C38.4156 46.5609 36.9433 46.7771 35.4418 46.4648C34.2376 46.2149 33.014 46.0275 31.7708 46.0468C30.5228 46.066 29.2748 46.1525 28.0853 46.4696C26.847 46.7963 25.8769 47.5844 24.7068 48.0409C23.8586 48.3724 23.0883 48.1898 22.4546 48.9154C21.6453 49.8427 21.2309 51.1881 20.9335 52.572C20.641 53.9462 20.5289 55.3781 20.3729 56.5265C20.2266 57.6317 19.9683 58.7224 19.8513 59.8276C19.7343 60.9327 19.6709 62.0475 19.5831 63.1575C19.4954 64.2674 19.4564 65.3822 19.3979 66.4922C19.3394 67.6021 19.3345 68.7169 19.3053 69.8316C19.276 70.9464 19.2468 72.0564 19.2516 73.1711C19.2516 74.6511 19.8513 75.2181 20.7337 75.5064C21.616 75.7947 22.6642 75.7755 23.7855 75.8331C25.0237 75.8956 26.2522 76.107 27.4905 76.1407C28.7288 76.1743 29.9671 75.9917 31.2053 75.9965C32.3607 76.0013 33.5161 75.9581 34.6764 75.9388C35.8318 75.9196 36.992 75.9917 38.1474 75.9484C39.3028 75.9052 40.4582 75.7322 41.6136 75.665C42.9884 75.665 44.4558 75.3718 45.5819 74.5646C46.7324 73.7381 47.3954 72.4936 47.5271 71.0713C47.6782 69.4472 48.1218 67.7655 48.0633 66.1318C48.0292 65.1516 47.6441 64.3059 47.4832 63.3545C47.2541 61.9995 47.1517 60.6492 47.0591 59.2942C46.9664 57.9392 46.9518 56.5746 46.7276 55.2244L46.7324 55.2292Z" fill="#FCFCFC"/>
<path d="M47.4393 55.0367C47.1127 53.3021 46.4302 51.5675 45.6453 49.9914C44.8896 48.4778 43.8366 47.1324 42.2181 46.4597C40.6532 45.8062 38.9713 45.9456 37.3138 45.9216C35.4466 45.8975 33.6526 45.3113 31.7708 45.3305C29.889 45.3498 28.0804 45.5324 26.4375 46.3636C25.7452 46.7144 25.0822 47.1757 24.3363 47.4159C23.6002 47.6514 22.8494 47.6466 22.2205 48.1511C21.0018 49.1361 20.5435 50.9332 20.2364 52.3843C19.8659 54.1237 19.7733 55.9064 19.4613 57.6602C18.7836 61.5043 18.6715 65.4684 18.5935 69.3605C18.574 70.235 18.5496 71.1095 18.535 71.984C18.5252 72.8201 18.4472 73.7186 18.7251 74.5259C19.1736 75.8088 20.3875 76.2701 21.655 76.4287C22.5179 76.5344 23.3857 76.5248 24.2486 76.592C25.2528 76.6689 26.2522 76.8227 27.2565 76.8659C28.1876 76.9044 29.1139 76.8227 30.045 76.765C30.9713 76.7122 31.8976 76.7314 32.8238 76.7122C34.7495 76.6737 36.6898 76.7794 38.6105 76.6593C39.5368 76.6017 40.4582 76.4671 41.3845 76.4143C42.262 76.3614 43.1297 76.3326 43.9829 76.1019C45.6355 75.6503 47.0591 74.5835 47.7611 73.0219C48.1413 72.1762 48.2096 71.3209 48.3315 70.4176C48.4728 69.3653 48.6825 68.3226 48.7653 67.2655C48.8433 66.2612 48.7361 65.3339 48.4728 64.3633C48.2096 63.3926 48.0487 62.3692 47.9512 61.3409C47.7464 59.2459 47.7562 57.1317 47.4344 55.0511C47.2931 54.1382 45.8842 54.5274 46.0255 55.4355C46.2937 57.1605 46.2839 58.9288 46.4302 60.6682C46.4935 61.4466 46.5813 62.225 46.6934 63.0034C46.8104 63.8011 47.0396 64.5555 47.2151 65.3339C47.5807 66.9628 47.1029 68.6926 46.8884 70.3119C46.6983 71.739 46.4545 73.0363 45.2163 73.9637C43.9488 74.9151 42.4326 74.8911 40.9262 75.0208C39.1419 75.1746 37.4015 75.2659 35.6075 75.2466C33.9159 75.2274 32.2047 75.2466 30.513 75.3187C29.6599 75.3523 28.8116 75.4436 27.9585 75.4533C27.1054 75.4629 26.2571 75.3716 25.4088 75.2803C24.5752 75.1938 23.7416 75.1409 22.9031 75.1025C22.2059 75.0689 21.4113 75.0688 20.7629 74.7757C19.6173 74.2664 19.9829 72.5174 20.0024 71.5324C20.0658 67.9526 20.1925 64.3777 20.4948 60.8075C20.6313 59.1882 20.9823 57.6026 21.1773 55.9929C21.3723 54.3688 21.5429 52.7351 22.0694 51.1735C22.2693 50.5728 22.5374 49.929 22.9713 49.4533C23.4442 48.9343 24.273 48.992 24.9018 48.7661C26.3107 48.252 27.4515 47.3342 28.953 47.0411C30.8689 46.6663 32.8823 46.7336 34.7934 47.0988C35.7928 47.291 36.7531 47.3967 37.772 47.3919C38.6154 47.3919 39.4686 47.3438 40.3071 47.4592C42.0816 47.6994 43.315 48.7565 44.1389 50.2845C44.9628 51.8125 45.694 53.6721 46.0255 55.4499C46.1962 56.3629 47.6051 55.9737 47.4344 55.0655L47.4393 55.0367Z" fill="#333333"/>
<path d="M34.8226 53.6963C35.2174 52.3846 35.5977 51.3755 34.9347 50.107C34.4521 49.1796 33.1894 48.2859 32.0828 48.4637C31.2491 48.5982 30.6397 49.3766 30.0889 50.2079C29.1236 51.659 29.2455 52.7594 29.7086 53.9366C30.1669 55.1042 30.825 56.2863 30.9761 57.7085C31.1419 59.3134 30.7811 60.9327 30.2351 62.3838C29.6891 63.835 29.0017 65.2092 28.6215 66.7516C28.3338 67.9288 28.8213 69.1013 29.577 70.1488C30.3326 71.1963 31.3905 72.1861 32.0145 72.878C32.2144 73.099 32.4582 73.4402 32.7214 73.4258C32.9457 73.4162 33.1358 73.1231 33.3113 72.9405C34.0962 72.1284 34.9006 71.2491 35.5197 70.2208C36.0608 69.3271 36.3485 68.3757 36.4313 67.4339C36.5093 66.521 36.3777 65.5455 36.212 64.5221C36.0072 63.2632 35.8171 61.9994 35.6026 60.7453C35.3881 59.4816 34.9737 58.2659 34.6812 57.031C34.5496 56.4833 34.4667 55.897 34.5057 55.3253C34.5398 54.7679 34.6666 54.2153 34.8226 53.6963Z" fill="#FFD063"/>
<path d="M35.5296 53.8881C35.8075 52.9704 36.1146 52.0334 35.9927 51.0628C35.8757 50.1402 35.4126 49.2897 34.7008 48.6795C34.0524 48.1269 33.2139 47.7041 32.3364 47.7233C31.4004 47.7425 30.6594 48.2903 30.089 48.9822C28.88 50.4622 28.2706 52.1199 28.9434 53.9698C29.2749 54.8828 29.738 55.7477 30.0159 56.6799C30.3327 57.7322 30.3474 58.8325 30.167 59.9136C29.8062 62.0279 28.7045 63.9018 28.0902 65.9391C27.8026 66.8953 27.71 67.8227 28.0366 68.7837C28.373 69.7639 28.9775 70.6144 29.6454 71.4025C30.245 72.1136 30.9275 72.7479 31.5466 73.4446C32.1658 74.1413 32.8922 74.4152 33.6088 73.6945C35.0274 72.2674 36.4753 70.6192 36.9677 68.6348C37.2554 67.4768 37.2017 66.3139 37.036 65.1463C36.8556 63.849 36.6313 62.5564 36.4217 61.2639C36.2121 59.9809 35.8806 58.7508 35.5491 57.4967C35.2176 56.2426 35.1591 55.1567 35.5247 53.8929C35.7831 52.9992 34.3742 52.6196 34.1158 53.5085C33.8721 54.3446 33.7063 55.2143 33.7892 56.084C33.8721 56.9922 34.1353 57.8715 34.3791 58.746C34.9056 60.668 35.1688 62.6333 35.4857 64.5985C35.788 66.4821 35.8806 68.2648 34.8324 69.9513C34.3742 70.6961 33.8038 71.3592 33.209 71.9983C33.0725 72.1472 32.9312 72.2866 32.7947 72.4355C32.7557 72.474 32.6484 72.5653 32.6289 72.6181C32.585 72.7719 32.8629 72.7238 32.858 72.7334C32.8873 72.6614 32.2243 72.0415 32.1463 71.9646C31.0348 70.8066 29.5479 69.4997 29.2992 67.8323C29.1676 66.9578 29.5771 66.0304 29.8794 65.2232C30.1816 64.416 30.5473 63.5991 30.8641 62.7774C31.5076 61.1101 31.9074 59.2938 31.6783 57.5015C31.4686 55.8726 30.518 54.5272 30.1572 52.956C29.9525 52.0526 30.2694 51.2454 30.7715 50.4958C31.2005 49.8567 31.7611 49.0303 32.6435 49.1984C33.4528 49.3522 34.1694 50.0393 34.4327 50.7937C34.7496 51.7018 34.3791 52.6388 34.1109 53.5133C33.8428 54.3879 35.2517 54.7867 35.5198 53.8977L35.5296 53.8881Z" fill="#333333"/>
<path d="M40.8142 60.1733C40.7605 61.4226 40.5899 62.6719 40.546 63.9212C40.5022 65.1705 40.6874 66.4294 40.6533 67.6787C40.6192 68.928 40.4144 70.1773 40.3852 71.4266C40.3608 72.676 40.2974 73.9301 40.2828 75.1794C40.273 76.0347 40.1853 76.8323 40.2389 77.702C40.2487 77.8942 40.3218 78.1393 40.4437 78.293C40.6045 78.4997 40.9409 78.5573 41.2042 78.5909C42.2767 78.7207 43.3638 78.6438 44.4412 78.6967C45.5186 78.7495 46.5911 78.7831 47.6685 78.7639C47.8782 78.7639 48.1073 78.86 48.2828 78.7495C48.4973 78.6102 48.6679 78.3699 48.7362 78.1297C49.1164 76.8131 49.2237 75.434 49.2042 74.0646C49.1652 71.4555 50.9592 72.2435 52.8897 71.3017C53.7819 70.8693 54.6789 70.3503 55.3517 69.6296C56.0244 68.9088 56.5363 68.0055 56.8727 67.0781C57.2383 66.0835 57.1896 65.0071 57.1749 63.95C57.1603 62.8929 57.0141 61.8695 56.7557 60.8508C56.4437 59.6303 56.1463 58.4771 55.6247 57.444C55.0738 56.3533 54.4644 55.3058 53.7087 54.3736C52.9531 53.4414 51.9488 52.7447 51.0323 51.9327C50.1499 51.1494 49.2968 50.2893 48.2877 49.5686C47.7904 49.213 46.7813 48.4923 45.6649 47.8964C44.6801 47.3679 43.5978 46.8874 42.735 46.8153C41.6868 46.7288 40.8044 47.2814 40.8532 48.8526C40.8922 50.1116 41.0628 51.3657 41.0579 52.6294C41.0531 53.8883 41.0238 55.1472 40.9897 56.4061C40.9556 57.6651 40.8824 58.924 40.8288 60.1829L40.8142 60.1733Z" fill="#95BECE"/>
<path d="M40.0828 60.1733C40.0048 61.8551 39.7513 63.5224 39.8293 65.2138C39.8683 66.0354 39.9365 66.8571 39.917 67.6788C39.8975 68.5004 39.7854 69.399 39.7172 70.2543C39.5855 71.888 39.5855 73.5409 39.5465 75.1794C39.5222 76.3326 39.02 78.442 40.3266 79.1003C40.9164 79.3982 41.7062 79.3694 42.3448 79.3838C43.1931 79.403 44.0414 79.3982 44.8896 79.4367C45.7379 79.4751 46.5033 79.4943 47.3077 79.4847C48.0292 79.4799 48.5703 79.5904 49.0724 78.9706C49.5112 78.4324 49.6136 77.6396 49.7208 76.9765C49.8524 76.1596 49.9158 75.338 49.9207 74.5115C49.9207 74.055 49.8232 73.4496 50.0913 73.0412C50.262 72.7817 50.5691 72.7048 50.8567 72.6327C51.8854 72.3637 52.8262 72.1474 53.7769 71.6429C55.0298 70.975 56.0633 70.0813 56.7994 68.8656C58.418 66.2036 58.0377 62.8833 57.2772 60.0051C56.5313 57.175 55.1273 54.4505 52.8555 52.5189C50.5837 50.5873 48.6532 48.6941 46.1181 47.3151C44.9091 46.6568 43.3296 45.8159 41.8963 46.1378C40.5996 46.4309 40.0925 47.6322 40.1023 48.8383C40.112 49.7848 40.2339 50.7266 40.2827 51.6684C40.3265 52.6102 40.3022 53.5568 40.2827 54.5034C40.2485 56.3918 40.1559 58.2801 40.0779 60.1685C40.0389 61.0959 41.5014 61.0959 41.5404 60.1685C41.6672 57.1942 41.9109 54.1766 41.7159 51.1975C41.6721 50.4912 41.5989 49.7848 41.5746 49.0737C41.5599 48.6364 41.5112 48.031 41.8817 47.7043C42.5837 47.094 44.0267 47.8724 44.68 48.1944C45.7818 48.7325 46.8153 49.3956 47.8098 50.1068C48.8921 50.8804 49.8134 51.8462 50.8275 52.7063C51.8415 53.5664 52.8652 54.3736 53.6355 55.4836C54.396 56.584 55.0688 57.7852 55.4832 59.0537C55.917 60.3751 56.2875 61.7638 56.3948 63.1524C56.4923 64.4306 56.5654 65.8432 56.0828 67.0589C55.1955 69.2933 53.2553 70.629 50.9396 71.1336C50.1937 71.2969 49.4283 71.5036 48.9506 72.1426C48.3022 73.022 48.4874 74.18 48.4436 75.1986C48.4143 75.8954 48.3363 76.5873 48.1852 77.2648C48.1267 77.5291 48.0877 77.875 47.917 78.0864L47.8732 78.1345C48.073 78.072 48.0535 78.0432 47.8147 78.0432C47.6245 77.9952 47.3857 78.0336 47.1955 78.0384C45.733 78.048 44.2754 77.9519 42.8128 77.9423C42.4277 77.9423 42.0426 77.9327 41.6574 77.9039C41.3259 77.8798 41.0042 77.9423 40.9603 77.5771C40.8677 76.7891 40.9944 75.9626 41.0139 75.1698C41.0481 73.5313 41.0529 71.8784 41.1846 70.2446C41.2528 69.3845 41.3601 68.5293 41.3844 67.6692C41.4039 66.8859 41.3406 66.1027 41.3016 65.3195C41.2187 63.5897 41.4673 61.8887 41.5502 60.1637C41.5941 59.2363 40.1315 59.2363 40.0877 60.1637L40.0828 60.1733Z" fill="#333333"/>
<path d="M43.9341 46.6763C44.836 47.0751 45.655 47.7478 46.2546 48.5214C46.8543 49.295 47.1175 50.28 47.2687 51.241C47.371 51.8945 47.4149 52.5624 47.2004 53.1871C46.7031 54.6334 45.4113 55.5463 44.0706 56.3152C45.1285 57.2617 46.1766 58.4582 45.9134 59.8372C45.7915 60.4667 45.3918 61.0241 44.9822 61.519C43.9146 62.7971 42.769 64.032 41.4868 65.1035" fill="#95BECE"/>
<path d="M43.5636 47.3009C45.4063 48.161 46.3911 49.7082 46.5959 51.6831C46.8006 53.658 45.2552 54.7967 43.7049 55.7001C43.3149 55.9259 43.2077 56.5169 43.5587 56.8341C44.1242 57.3482 44.7238 57.9056 45.0407 58.6119C45.3966 59.4096 45.1528 60.1159 44.6507 60.7838C43.6026 62.1821 42.3058 63.4746 40.97 64.599C40.2534 65.2044 41.2918 66.2183 42.0035 65.6177C42.8372 64.9161 43.6221 64.1521 44.3582 63.3497C45.0553 62.5857 45.8743 61.7784 46.3326 60.8463C47.2979 58.8858 46.0401 57.1224 44.5971 55.8154C44.5483 56.195 44.4996 56.5698 44.4508 56.9494C46.435 55.7914 48.307 54.1769 48.0681 51.6879C47.9609 50.5635 47.6976 49.3671 47.0639 48.4061C46.4009 47.397 45.4112 46.5753 44.3143 46.0612C43.4661 45.6672 42.725 46.9069 43.5782 47.3057L43.5636 47.3009Z" fill="#333333"/>
<path d="M23.9512 60.1732C24 61.2928 23.9415 62.422 23.9902 63.5415C24.039 64.6611 24.117 65.7807 24.156 66.905C24.195 68.0294 24.2194 69.149 24.2486 70.2686C24.2779 71.3881 24.4582 72.5125 24.4534 73.6321C24.4534 75.2225 24.2047 76.7553 24.0634 78.3554C24.0487 78.538 24.1462 78.735 24.0195 78.8696C23.8781 79.0281 23.6587 79.1531 23.4442 79.1771C22.7568 79.2492 20.9628 79.4462 19.2419 79.5182C17.3991 79.5951 15.5612 79.4654 15.2833 78.5909C15.1761 78.2497 15.22 77.8605 15.2297 77.5001C15.2492 76.5824 15.3516 75.434 15.3906 74.3048C15.4296 73.1756 15.5076 71.9263 15.181 71.047C14.1377 71.0326 12.9677 71.1671 11.9147 70.9797C10.8617 70.7923 9.88176 70.2686 8.96037 69.7977C8.03898 69.3268 7.21997 68.6877 6.61059 67.794C6.10845 67.0588 5.79645 66.2612 5.64045 65.3867C5.48444 64.5121 5.38694 63.6328 5.49419 62.7631C5.60145 61.8934 5.73795 60.9997 6.0012 60.154C6.26446 59.3083 6.61546 58.4914 6.93234 57.665C7.21022 56.9394 7.57098 56.2427 7.84886 55.5171C8.01948 55.0703 8.19499 54.633 8.50699 54.2678C8.91162 53.7969 9.47226 53.5278 10.0426 53.2732C10.9202 52.8792 11.7635 52.3698 12.6703 51.9902C13.5771 51.6106 14.4692 51.2503 15.3272 50.8082C16.1999 50.3613 17.1164 49.9962 17.8769 49.4051C18.6959 48.7661 20.017 47.8291 21.2212 47.4447C22.5667 47.0122 23.805 47.2236 23.8537 49.2273C23.883 50.443 23.9025 51.6635 23.9074 52.8792C23.9171 54.0948 23.7611 55.3153 23.7757 56.531C23.7904 57.7467 23.8976 58.9623 23.9464 60.178L23.9512 60.1732Z" fill="#95BECE"/>
<path d="M23.22 60.1735C23.2639 61.3699 23.2152 62.5664 23.2688 63.7676C23.3224 64.9641 23.4004 66.1557 23.4394 67.3522C23.4784 68.5486 23.4687 69.7451 23.5467 70.9415C23.6247 72.1476 23.7563 73.3296 23.6978 74.5357C23.6344 75.7369 23.4394 76.9238 23.3565 78.125C23.3565 78.1875 23.3614 78.5094 23.3468 78.5383C23.3614 78.5142 23.4492 78.423 23.3565 78.4662C23.259 78.5191 23.0348 78.4998 22.9275 78.5094C22.4303 78.5623 21.933 78.6104 21.4358 78.6536C20.295 78.7497 19.1396 78.8458 17.9891 78.8122C17.4869 78.7977 16.1073 78.8554 15.9562 78.2356C15.8294 77.731 15.9805 77.0295 16.0098 76.5154C16.0439 75.8907 16.0878 75.2661 16.117 74.6462C16.1755 73.3969 16.3023 72.0611 15.8977 70.855C15.7953 70.5523 15.5272 70.3265 15.1908 70.3265C14.3181 70.3265 13.4406 70.4082 12.568 70.3361C11.6856 70.264 10.8715 69.9421 10.0866 69.5529C8.66305 68.8513 7.41503 68.0393 6.75202 66.5497C5.27487 63.2199 6.89827 59.544 8.2438 56.4688C8.56068 55.7432 8.7508 54.8975 9.42844 54.4074C10.0817 53.9413 10.9056 53.6627 11.6125 53.2975C13.192 52.4854 14.8544 51.8367 16.4486 51.0583C17.8574 50.376 18.9982 49.3429 20.3681 48.5982C20.9531 48.281 22.5034 47.4594 22.9665 48.3723C23.3078 49.045 23.142 50.0925 23.1567 50.8181C23.1762 51.8848 23.2005 52.9467 23.1518 54.0134C23.103 55.0033 23.0299 55.9883 23.0592 56.9781C23.0884 58.0448 23.1713 59.1067 23.22 60.1687C23.259 61.0912 24.7216 61.096 24.6826 60.1687C24.6338 59.1067 24.5509 58.04 24.5217 56.9781C24.4924 55.9498 24.5704 54.9264 24.6192 53.8981C24.6679 52.8362 24.6387 51.7695 24.6192 50.7028C24.6046 49.8427 24.6923 48.8865 24.4095 48.0552C23.9708 46.7626 22.752 46.359 21.4796 46.6185C19.8124 46.9596 18.5351 48.0984 17.1749 49.0114C15.5272 50.1165 13.5723 50.746 11.7831 51.5869C10.9056 52.0001 10.0281 52.4326 9.16518 52.8746C8.33642 53.3023 7.74166 53.9125 7.36628 54.7582C5.80138 58.3331 3.98298 62.1868 5.07012 66.1557C5.59663 68.0777 6.92265 69.5385 8.68743 70.4514C9.64782 70.9511 10.6472 71.4605 11.7246 71.6575C12.8702 71.8689 14.0305 71.744 15.181 71.7488L14.4741 71.2202C14.869 72.3975 14.6886 73.7525 14.6253 74.9681C14.5911 75.6168 14.5424 76.2607 14.5131 76.9094C14.4888 77.4523 14.4108 78.053 14.5278 78.5911C14.7325 79.5137 15.6052 79.9269 16.4729 80.0903C17.6771 80.3161 18.9153 80.2537 20.1292 80.1768C21.2017 80.1095 22.2743 80.0182 23.337 79.8933C23.8343 79.8356 24.3559 79.6627 24.6387 79.2158C24.7752 78.9996 24.7849 78.7641 24.7898 78.5191C24.7947 78.1539 24.8337 77.7935 24.8727 77.4283C25.0141 76.0877 25.1944 74.7423 25.1701 73.3873C25.1457 72.0419 24.9751 70.7013 24.9458 69.3511C24.9117 67.8567 24.8581 66.3623 24.7752 64.868C24.6923 63.2967 24.7264 61.7255 24.6679 60.1542C24.6338 59.2269 23.1713 59.2269 23.2054 60.1542L23.22 60.1735Z" fill="#333333"/>
<path d="M21.733 46.8584C20.8117 47.2044 20.0219 47.7954 19.3784 48.5354C18.7349 49.2753 18.1157 50.1018 17.911 51.0532C17.7696 51.7019 17.7452 52.4322 17.9256 53.0665C18.3351 54.5368 19.705 55.4882 20.9969 56.3339C19.8854 57.218 18.7349 58.3568 18.9201 59.7503C19.003 60.3845 19.471 60.8987 19.8561 61.4176C20.8458 62.7534 21.9475 63.9979 23.1663 65.1367" fill="#95BECE"/>
<path d="M21.5381 46.1668C19.3785 47.0269 17.3943 49.1123 17.1116 51.4524C16.7947 54.0519 18.6277 55.6424 20.6265 56.9589C20.5777 56.5793 20.529 56.2045 20.4802 55.8249C19.0567 56.9685 17.5162 58.7464 18.4571 60.6588C18.8958 61.5429 19.6466 62.3598 20.2755 63.1238C21.0116 64.0127 21.8062 64.8536 22.6496 65.6512C23.3321 66.2903 24.3657 65.2764 23.6832 64.6326C22.3718 63.3977 21.1969 62.0426 20.1341 60.5915C19.6563 59.9428 19.476 59.3518 19.866 58.6022C20.256 57.8527 20.8946 57.3481 21.5137 56.8484C21.9038 56.5361 21.7185 55.9499 21.3675 55.7144C19.8806 54.739 18.3449 53.6146 18.5497 51.6542C18.7301 49.9244 20.3291 48.1898 21.9233 47.5555C22.7861 47.2143 22.4059 45.8161 21.5332 46.1668H21.5381Z" fill="#333333"/>
<path d="M23.6734 47.5699C23.3663 48.5501 22.9519 49.5303 22.9373 50.5538C22.9226 51.659 23.1615 52.889 23.8782 53.7395C24.5022 54.4843 25.5016 54.7246 26.4863 54.7678C27.4321 54.8063 28.3681 54.5324 29.1774 54.0519C30.0061 53.5569 30.7861 53.0044 31.3907 52.2548C31.9854 51.5148 32.4729 50.6547 32.9751 49.8523C33.0628 51.7695 33.6332 52.8602 35.1688 54.0615C35.5442 54.3546 35.9147 54.614 36.3632 54.7822C37.5576 55.2339 38.9129 54.912 39.8489 54.0567C40.7849 53.2014 41.1896 51.9569 41.2627 50.7028C41.3358 49.4486 41.0238 48.2426 40.5802 47.0605" fill="#FCFCFC"/>
<path d="M22.9714 47.3824C22.4303 49.0834 21.9574 50.6594 22.4303 52.4421C22.8447 53.9941 23.9318 55.1233 25.5601 55.3972C27.2859 55.6903 28.8264 55.205 30.245 54.2392C31.7758 53.1965 32.6533 51.7598 33.6088 50.2222L32.2438 49.857C32.3267 51.3321 32.7216 52.6631 33.7551 53.7683C34.9105 55.0032 36.4608 55.9498 38.2207 55.6422C39.9806 55.3347 41.2091 53.9845 41.7161 52.3748C42.2913 50.5441 41.9452 48.6317 41.2968 46.8731C40.9799 46.0082 39.5662 46.3829 39.8879 47.2575C40.3949 48.6317 40.7508 50.0828 40.4291 51.5435C40.1512 52.7977 39.3614 53.9461 38.0208 54.2247C36.6801 54.5034 35.6222 53.6337 34.7983 52.7544C34.0378 51.9424 33.7746 50.9429 33.7161 49.8618C33.6771 49.1554 32.7459 48.872 32.3511 49.4966C31.6052 50.6979 30.9324 51.9472 29.7673 52.8121C28.6899 53.6145 27.5004 54.1863 26.1207 54.0325C24.8142 53.8884 24.0829 53.1196 23.7953 51.8751C23.4638 50.424 23.9416 49.1362 24.3803 47.7668C24.6631 46.8779 23.2542 46.4983 22.9714 47.3824Z" fill="#333333"/>
<path d="M57.4186 19.9121C56.6045 19.9121 55.8342 20.1475 55.1273 20.4455C54.8153 19.3403 54.4741 18.2544 54.0109 17.2213C53.5429 16.1738 53.0359 15.1359 52.4265 14.1797C51.8172 13.2235 51.042 12.349 50.2961 11.4841C49.5502 10.6144 48.8239 9.70622 47.961 8.95664C47.0981 8.20225 46.0451 7.6785 45.0798 7.05385C44.1145 6.42919 43.1298 5.86701 42.0767 5.3865C41.0384 4.91081 40.0048 4.38225 38.8933 4.05551C37.7818 3.72877 36.6508 3.5654 35.4954 3.40203C34.3693 3.24346 33.2187 3.17139 32.0487 3.17139C30.8787 3.17139 29.7233 3.21463 28.5972 3.378C27.4418 3.54137 26.3156 3.80085 25.2187 4.12278C24.1218 4.44472 22.9859 4.77627 21.9476 5.25196C20.8945 5.73247 19.9537 6.41478 18.9933 7.03943C18.0329 7.66409 17.1359 8.37523 16.273 9.12962C15.4101 9.88401 14.5374 10.6288 13.7916 11.4985C13.0457 12.3682 12.2803 13.2331 11.666 14.1989C11.0518 15.1647 10.6228 16.2314 10.1547 17.2789C9.68674 18.3264 9.24311 19.3259 8.9311 20.431C8.20959 20.1187 7.45395 19.965 6.61544 19.965C5.53805 19.965 4.54353 20.3013 3.67577 20.7962C2.78363 21.3104 2.00362 22.0167 1.48686 22.9008C0.970103 23.785 0.74585 24.7652 0.74585 25.8271C0.74585 26.889 1.12123 27.8212 1.62336 28.6765C2.14012 29.5606 2.72026 30.4543 3.61239 30.9685C4.50453 31.4826 5.54292 31.6075 6.62032 31.6075C7.2882 31.6075 7.87809 31.5883 8.47772 31.3865C8.71172 32.5878 9.14561 33.6929 9.55511 34.8269C9.96949 35.9753 10.4326 37.0901 11.0128 38.152C11.5929 39.2139 12.2218 40.2662 12.9628 41.2272C13.7038 42.193 14.4789 43.1492 15.3613 43.9901C16.2437 44.831 17.2919 45.4845 18.2961 46.186C19.2955 46.8827 20.2462 47.6804 21.3479 48.2233C22.4497 48.7663 23.6197 49.1555 24.7946 49.5255C25.9549 49.8907 27.1834 50.0108 28.407 50.1982C29.6014 50.3808 30.8104 50.5057 32.0585 50.5057C33.3065 50.5057 34.5301 50.4961 35.7245 50.3135C36.953 50.1261 38.1864 49.9724 39.3467 49.612C40.5265 49.242 41.6721 48.7567 42.7641 48.2185C43.8659 47.6755 44.8019 46.8635 45.8013 46.162C46.8056 45.4604 47.7952 44.7589 48.6727 43.918C49.5502 43.0771 50.4716 42.2507 51.2126 41.2849C51.9537 40.319 52.5484 39.2523 53.1334 38.1856C53.7184 37.1189 54.1279 35.9897 54.5423 34.8413C54.9518 33.7121 55.415 32.6166 55.649 31.4201C56.2291 31.6075 56.7897 31.6556 57.4332 31.6556C58.5106 31.6556 59.4905 31.3385 60.3583 30.8435C61.2504 30.3294 61.9281 29.5798 62.4448 28.6957C62.9469 27.8404 63.2882 26.8986 63.2882 25.8367C63.2882 24.7748 63.0201 23.7946 62.5228 22.9345C62.0061 22.0503 61.2699 21.3152 60.3778 20.801C59.4856 20.2869 58.5106 19.9217 57.4332 19.9217L57.4186 19.9121Z" fill="#FFE6D9"/>
<path d="M57.4187 19.1914C56.5461 19.2155 55.7319 19.4221 54.9324 19.7488C55.2347 19.917 55.532 20.0852 55.8343 20.2533C55.259 18.2352 54.4936 16.2844 53.4406 14.4537C52.4364 12.7046 51.0275 11.167 49.6868 9.66307C48.3023 8.11104 46.5765 7.10199 44.8117 6.02566C43.1103 4.98778 41.2042 4.02197 39.2932 3.41653C37.2603 2.77266 34.9885 2.51799 32.8629 2.45553C30.7374 2.39306 28.4851 2.55643 26.3498 3.06577C24.3559 3.54146 22.2889 4.13248 20.5241 5.17998C18.7691 6.21786 17.1213 7.41912 15.5905 8.75492C13.9038 10.2253 12.3047 11.859 11.086 13.7425C10.462 14.7083 10.0232 15.7703 9.56007 16.8129C9.06281 17.9373 8.56067 19.0569 8.21942 20.2341L9.12131 19.7296C7.09328 18.8935 4.79224 19.1818 2.96896 20.3687C1.16031 21.5459 0.102417 23.3814 0.00491589 25.51C-0.0877106 27.4753 0.994556 29.7096 2.46195 31.0262C4.01223 32.4149 6.70327 32.6743 8.6533 32.0737C8.35105 31.9055 8.05367 31.7374 7.75141 31.5692C8.18042 33.6738 9.02381 35.812 9.96957 37.7484C10.9251 39.7041 12.1585 41.5012 13.5723 43.1541C14.2694 43.971 15.025 44.7253 15.883 45.374C16.7411 46.0227 17.6478 46.5993 18.5156 47.2336C19.398 47.8774 20.2706 48.5165 21.2651 48.9778C22.2596 49.4391 23.3809 49.8331 24.468 50.1742C25.5698 50.5154 26.7057 50.6644 27.8465 50.8325C28.9677 50.9959 30.089 51.1545 31.2249 51.2025C33.5649 51.2986 35.8952 51.092 38.1914 50.6355C40.3413 50.2079 42.6131 49.2997 44.4071 48.0552C46.1573 46.8396 47.9367 45.5951 49.4821 44.1247C50.3645 43.2886 51.2273 42.4478 51.9537 41.4723C52.6801 40.4969 53.2846 39.4254 53.8453 38.3539C54.3864 37.3208 54.791 36.2205 55.1908 35.1249C55.6149 33.9621 56.0829 32.8137 56.3316 31.598L55.4297 32.1025C59.2176 33.2413 63.2298 30.6418 63.8977 26.8362C64.5802 22.9538 61.3675 19.2779 57.4089 19.1866C56.4681 19.1626 56.4681 20.6041 57.4089 20.6281C60.4754 20.7002 63.064 23.6313 62.4498 26.6536C61.8501 29.6135 58.8032 31.6076 55.8197 30.7139C55.4589 30.6082 54.9958 30.8436 54.9178 31.2184C54.7179 32.189 54.3815 33.1164 54.0354 34.0486C53.6844 34.9904 53.3675 35.9466 52.9531 36.8643C52.1244 38.7047 51.0275 40.5306 49.6039 41.9817C48.9068 42.6976 48.1755 43.404 47.4102 44.0478C46.6448 44.6917 45.7868 45.2539 44.9677 45.8545C44.1487 46.4552 43.3638 47.0798 42.462 47.5459C41.4626 48.06 40.4144 48.4973 39.3468 48.8481C35.242 50.1887 30.7081 49.934 26.5156 49.194C24.468 48.8336 22.2986 48.0889 20.568 46.9453C19.6953 46.3687 18.8763 45.72 18.0134 45.1338C17.1506 44.5476 16.3413 43.9758 15.6198 43.255C14.011 41.6501 12.6947 39.7762 11.6173 37.7869C11.0665 36.773 10.6277 35.7159 10.2328 34.6348C9.83794 33.5537 9.39919 32.3764 9.15543 31.1944C9.07743 30.8196 8.6143 30.5793 8.25354 30.6899C6.75202 31.1511 4.51436 31.0262 3.34922 29.8826C2.23283 28.7871 1.38456 27.0813 1.45769 25.5148C1.62344 21.9735 5.465 19.7873 8.7118 21.1279C9.07743 21.2816 9.51131 20.9597 9.61369 20.6233C10.1499 18.7782 10.9787 16.9042 11.9001 15.2129C12.7922 13.5696 14.1183 12.056 15.4882 10.7826C16.8922 9.47567 18.3742 8.30805 19.9781 7.24614C20.7874 6.70798 21.6015 6.17462 22.4985 5.78541C23.3663 5.41062 24.2828 5.14154 25.1944 4.87726C29.1725 3.70483 33.2919 3.62795 37.3529 4.42559C39.2639 4.80038 41.0531 5.62685 42.7642 6.53019C43.6222 6.98186 44.4266 7.51522 45.2554 8.01494C46.0841 8.51467 46.8934 8.96634 47.5954 9.60541C48.3949 10.331 49.0677 11.1767 49.7697 11.9935C50.4766 12.8152 51.203 13.6272 51.788 14.545C52.9921 16.4285 53.8111 18.5043 54.4156 20.6377C54.5131 20.9789 54.947 21.2912 55.3175 21.1423C55.9952 20.8636 56.6777 20.657 57.4138 20.6377C58.3547 20.6137 58.3547 19.1722 57.4138 19.1962L57.4187 19.1914Z" fill="#333333"/>
<path d="M26.0573 23.2994C26.0573 24.1595 25.4479 24.813 24.5753 24.813C23.7026 24.813 23.0055 24.1595 23.0055 23.2994C23.0055 22.4393 23.7026 21.6177 24.5753 21.6177C25.4479 21.6177 26.0573 22.4393 26.0573 23.2994Z" fill="#333333"/>
<path d="M41.1116 23.2994C41.1116 24.1595 40.3803 24.8226 39.5126 24.8226C38.6448 24.8226 37.894 24.1595 37.894 23.2994C37.894 22.4393 38.6448 21.709 39.5126 21.709C40.3803 21.709 41.1116 22.4393 41.1116 23.2994Z" fill="#333333"/>
<path d="M31.3516 24.8035C31.4832 24.7218 31.6197 24.6498 31.7611 24.5873L31.5856 24.6594C31.7367 24.6017 31.8927 24.5537 32.0536 24.5345L31.8586 24.5585C31.9902 24.5441 32.117 24.5441 32.2437 24.5585L32.0487 24.5345C32.1901 24.5537 32.3217 24.5921 32.4533 24.645L32.2778 24.5729C32.429 24.6354 32.5655 24.7218 32.6922 24.818L32.546 24.7074L32.5752 24.7315C32.7312 24.8564 32.8824 24.9429 33.092 24.9429C33.2724 24.9429 33.4869 24.866 33.6087 24.7315C33.7306 24.5969 33.833 24.4143 33.8232 24.2221C33.8135 24.0443 33.7599 23.8281 33.6087 23.7128C33.3552 23.5158 33.1212 23.3716 32.8239 23.2563C32.5947 23.165 32.3412 23.1218 32.0975 23.117C31.571 23.1026 31.0444 23.2948 30.6057 23.5686C30.2839 23.7705 30.1231 24.2173 30.3424 24.5537C30.5521 24.8708 30.9957 25.0294 31.3418 24.8131L31.3516 24.8035Z" fill="#333333"/>
<path d="M21.2359 29.9737C21.2359 31.3335 20.7484 32.5588 19.8513 33.4525C18.9543 34.3462 17.7063 34.9997 16.3315 34.9997C14.9568 34.9997 13.66 34.3943 12.7581 33.5006C11.8611 32.6116 11.3297 31.3335 11.3297 29.9737C11.3297 28.6138 11.905 27.3789 12.802 26.49C13.699 25.6011 14.9519 25.1494 16.3267 25.1494C17.7014 25.1494 18.8763 25.6684 19.7782 26.5621C20.6801 27.4558 21.2359 28.6138 21.2359 29.9689V29.9737Z" fill="#EDBBA6"/>
<path d="M52.7093 29.9738C52.7093 31.3337 52.1975 32.5782 51.3005 33.4719C50.3986 34.3656 49.1359 34.9711 47.7611 34.9711C46.3864 34.9711 45.0945 34.3945 44.1926 33.5007C43.2956 32.6118 42.7837 31.3385 42.7837 29.9786C42.7837 28.6188 43.3541 27.4031 44.2511 26.5094C45.153 25.6157 46.3864 24.9189 47.7611 24.9189C49.1359 24.9189 50.3498 25.6349 51.2468 26.5286C52.1438 27.4224 52.7045 28.614 52.7045 29.9738H52.7093Z" fill="#EDBBA6"/>
<path d="M51.7294 21.2959C53.1042 22.1224 54.8056 22.3723 55.4881 20.4599C55.6051 20.1331 55.5759 19.7343 55.571 19.3883C55.5564 18.2832 55.4491 17.1684 55.2541 16.0873C55.0542 14.9965 54.5814 13.9779 54.1865 12.9544C53.7867 11.9165 53.3382 10.9219 52.7386 9.99932C52.1389 9.07675 51.5393 8.12055 50.7252 7.35655C49.9062 6.58294 49.0091 5.8718 48.0683 5.24234C47.1322 4.61769 46.1036 4.11316 45.0847 3.62305C44.0658 3.13293 43.0225 2.67646 41.95 2.31127C40.8726 1.94609 39.7465 1.75389 38.6447 1.51364C37.5283 1.26378 36.4022 1.14365 35.2907 1.00911C34.1499 0.874571 33.0091 0.716005 31.8586 0.72081C30.7081 0.725615 29.5625 0.82652 28.4217 0.980281C27.2809 1.13885 26.184 1.44637 25.0725 1.75389C24.0731 2.03258 23.025 2.27764 22.0012 2.64763C21.0018 3.008 19.9781 3.35396 19.0323 3.83447C18.0719 4.32458 17.248 5.00209 16.4193 5.65077C15.4735 6.39074 14.5131 7.1163 13.6941 8.00523C12.8751 8.89416 12.1682 9.85997 11.4516 10.8258C11.0762 11.3303 10.4522 12.3826 9.82328 13.6223C9.3504 14.5593 8.77026 15.5587 8.44363 16.5582C8.04875 17.7738 7.89275 18.9463 8.12675 19.7583C8.39001 20.6713 9.2139 21.1374 10.8763 20.8058C11.8562 20.6136 12.841 20.2292 13.8452 19.7631C14.7666 19.3355 15.6977 18.831 16.5996 18.2447C17.4771 17.6826 18.301 17.0195 19.1298 16.3804C19.9586 15.7413 20.8215 15.0878 21.5868 14.4199C22.4302 13.6896 23.2297 13.1274 23.9366 12.4739C23.6441 13.1514 24.117 13.7809 24.7556 14.1653C25.3943 14.5497 26.1402 14.5497 26.8909 14.5401C28.1389 14.5257 29.3772 14.468 30.5911 14.1845C31.805 13.901 32.9263 13.3772 34.0524 12.8439C35.1737 12.3105 36.2852 11.83 37.2651 11.066C37.1627 11.9982 37.6697 12.743 38.3279 13.4157C38.986 14.0884 39.7611 14.5977 40.6825 14.689C41.6039 14.7803 42.5497 14.5881 43.4028 14.1797C44.2559 13.7713 44.9921 13.185 45.6112 12.4979C45.1578 13.0025 46.0743 14.5785 47.1127 16.1113C48.1073 17.5768 49.1408 19.0952 49.4674 19.4412C49.95 19.9505 50.808 20.7482 51.7148 21.2911L51.7294 21.2959Z" fill="#333333"/>
<path d="M51.359 21.9205C52.2998 22.4682 53.4796 22.8767 54.557 22.4779C55.8684 21.9925 56.3315 20.6567 56.3072 19.3834C56.273 17.7065 56.1122 15.9911 55.5418 14.4054C54.9811 12.8486 54.3766 11.2341 53.4942 9.81661C52.6801 8.50964 51.7977 7.28916 50.6228 6.2705C49.3602 5.17495 47.9805 4.24758 46.4839 3.48839C44.9872 2.72919 43.3736 1.96039 41.7209 1.47027C40.0683 0.980162 38.3425 0.66303 36.6411 0.441999C34.9397 0.220967 33.1554 -0.0433091 31.4053 0.00474121C29.699 0.0527915 27.983 0.254603 26.3254 0.667835C23.0738 1.48949 19.5881 2.32557 16.8873 4.37732C15.61 5.34793 14.2742 6.31374 13.1871 7.49578C12.1585 8.60574 11.1786 9.85024 10.3839 11.1332C9.5893 12.4161 8.81416 13.872 8.1804 15.2895C7.54664 16.707 7.06401 18.2927 7.39551 19.787C8.18528 23.3235 13.3382 20.8778 15.2151 19.8927C16.9555 18.9798 18.4766 17.7978 20.022 16.6061C21.5674 15.4145 23.064 14.2613 24.468 12.9783C24.0585 12.7429 23.6539 12.5122 23.2444 12.2768C22.8056 13.5549 23.8586 14.6697 25.0238 15.0589C25.6576 15.2703 26.3547 15.2655 27.0177 15.2559C27.8318 15.2415 28.646 15.2078 29.4552 15.1069C30.9324 14.9243 32.2877 14.4487 33.6332 13.8384C35.0079 13.2138 36.4315 12.6035 37.6356 11.6906C37.27 11.484 36.9044 11.2773 36.5338 11.0659C36.4071 12.9975 38.3474 14.9628 40.195 15.3376C42.4424 15.7941 44.646 14.6024 46.1231 13.0071L44.9726 12.1326C44.4705 12.8197 44.919 13.7904 45.2407 14.4438C45.7916 15.5586 46.5424 16.5821 47.2444 17.6104C47.7612 18.3696 48.2633 19.1672 48.8678 19.8639C49.5601 20.6616 50.4376 21.3535 51.3346 21.9109C52.1341 22.4058 52.8702 21.1613 52.0707 20.6664C50.6277 19.7726 49.6917 18.6098 48.7508 17.2404C48.1512 16.3707 47.5369 15.5058 46.9909 14.6024C46.7569 14.218 46.5229 13.824 46.3571 13.4108C46.3035 13.2714 46.2743 13.1273 46.2206 12.9879C46.206 12.9351 46.2011 12.8822 46.206 12.8294C46.1572 12.9495 46.1621 12.9591 46.2255 12.8582C46.7081 12.1903 45.6307 11.383 45.075 11.9837C43.9878 13.1609 42.4619 14.1459 40.7752 13.9681C39.4491 13.8288 37.894 12.4353 37.9817 11.0611C38.0159 10.5566 37.3187 10.1097 36.88 10.4365C35.9537 11.138 34.9153 11.6281 33.8672 12.123C32.8044 12.6227 31.7416 13.1321 30.596 13.43C29.8306 13.627 23.9903 14.5111 24.6289 12.6564C24.8727 11.9404 23.9123 11.4936 23.4053 11.9548C22.3376 12.9351 21.1676 13.8432 20.0317 14.7466C18.8958 15.6499 17.6624 16.6542 16.3998 17.4902C15.1371 18.3263 13.7721 19.0615 12.3486 19.5996C11.554 19.9024 9.88668 20.6087 9.08229 19.984C8.76054 19.7342 8.72641 19.2585 8.72641 18.8885C8.72641 18.1581 8.89704 17.4278 9.12617 16.7358C9.57467 15.376 10.3498 14.0642 11.0469 12.8101C12.3583 10.4557 14.1085 8.35107 16.2389 6.66931C17.365 5.78038 18.4668 4.85301 19.7782 4.24758C21.1676 3.60371 22.6691 3.12801 24.1512 2.72919C25.6186 2.33518 27.0762 1.8739 28.5875 1.66248C30.1134 1.45105 31.6685 1.35976 33.2042 1.48469C36.1828 1.72975 39.3321 2.11895 42.1451 3.14242C44.9336 4.15148 47.6636 5.57857 49.8574 7.56305C51.0031 8.60093 51.905 9.94154 52.6216 11.2966C53.0214 12.0557 53.3285 12.8534 53.6454 13.6462C53.9574 14.4342 54.284 15.2223 54.4644 16.0487C54.6399 16.8464 54.7228 17.6728 54.7715 18.4897C54.8105 19.1576 54.9421 19.96 54.6009 20.5703C54.0354 21.5745 52.8556 21.1324 52.061 20.6664C51.2468 20.1907 50.5107 21.44 51.3248 21.9109L51.359 21.9205Z" fill="#333333"/>
<path d="M29.7135 32.1839C31.2687 32.8855 33.053 32.9239 34.6227 32.2416C35.3442 31.9293 36.2803 31.3863 36.8994 30.6079C37.5185 29.8295 37.9183 28.8204 37.7038 27.9603C37.3674 26.6053 35.7196 26.8792 34.6666 26.9032C33.0968 26.9417 31.5222 26.9272 29.9475 26.9272C28.5191 26.9272 26.5642 26.3026 26.6569 28.4408C26.7349 30.1947 28.1243 31.4632 29.7135 32.1839Z" fill="#FCFCFC"/>
<path d="M29.3431 32.8038C31.6832 33.8176 34.306 33.5774 36.3779 32.0686C37.3675 31.3479 38.1865 30.3052 38.4205 29.0943C38.6058 28.1333 38.3815 27.0281 37.465 26.5044C36.7045 26.0671 35.7831 26.1344 34.9348 26.1729C33.5601 26.2305 32.1756 26.2113 30.8008 26.2065C29.9184 26.2065 29.0214 26.0912 28.139 26.1248C27.32 26.1536 26.5302 26.4227 26.1451 27.1915C25.6381 28.2198 25.9842 29.6036 26.5692 30.5262C27.2176 31.5545 28.2414 32.2993 29.3383 32.8086C30.1865 33.2026 30.9275 31.9581 30.0744 31.5641C28.7484 30.949 27.1737 29.7526 27.3834 28.1045C27.4419 27.6192 27.7392 27.5711 28.1877 27.5615C28.7728 27.5471 29.3529 27.6384 29.9379 27.6432C31.8831 27.6672 33.8282 27.5663 35.7734 27.5807C36.2852 27.5807 36.8849 27.6144 37.0019 28.2054C37.1579 29.027 36.5875 29.9352 36.022 30.4878C34.4815 31.9917 32.0586 32.4194 30.0793 31.5641C29.2261 31.1941 28.4802 32.4338 29.3431 32.8086V32.8038Z" fill="#333333"/>
<path d="M24.5752 18.3216C24.8092 18.4609 25.0286 18.6195 25.248 18.7828L25.1017 18.6723C25.6331 19.0808 26.1401 19.5228 26.6959 19.8976C26.847 19.9985 27.0908 20.0177 27.2614 19.9697C27.432 19.9216 27.6173 19.7967 27.7002 19.6381C27.8952 19.273 27.7733 18.8789 27.4369 18.6531C27.2955 18.557 27.1541 18.4561 27.0176 18.3504L27.1639 18.4609C26.5545 17.9948 25.9793 17.4759 25.3211 17.0771C24.9945 16.8801 24.5021 16.9954 24.3217 17.3365C24.1414 17.6777 24.234 18.1101 24.585 18.3216H24.5752Z" fill="#333333"/>
<path d="M18.4278 53.5377C18.3596 53.9749 18.1841 54.3929 18.0622 54.8206C17.8428 55.6134 17.56 56.4111 16.9799 57.0021C16.0829 57.9102 14.8495 58.3283 13.5576 58.3042C12.2803 58.285 10.9299 57.9391 9.86717 57.5835C9.04328 57.3096 8.2584 56.7426 8.02439 55.9161C7.94152 55.6182 7.90252 55.3251 7.91714 55.0176C7.97077 53.7971 7.87327 52.5959 7.88302 51.3994C7.89277 50.1934 7.98539 48.9969 7.91714 47.786C7.85376 46.6424 7.82451 43.9276 9.37479 43.6585C9.98905 43.5528 10.6862 43.9708 10.9738 44.5186C11.2614 45.0616 11.2322 45.7391 11.2663 46.3541C11.3248 47.3248 11.4418 48.3146 11.5003 49.2852C11.3687 48.55 12.0171 47.6659 12.7727 47.738C13.4406 47.8053 13.7672 48.526 13.9281 49.0498C14.2304 48.747 14.6496 48.6606 15.0884 48.7086C15.6685 48.7759 16.2486 49.2468 16.0195 49.7753C16.5265 49.6168 16.975 49.5879 17.4772 49.7753C18.3059 50.0828 18.4327 51.0631 18.4181 51.9376C18.4083 52.4709 18.5058 53.0091 18.4229 53.5377H18.4278Z" fill="#FFE6D9"/>
<path d="M17.7209 53.3503C17.5356 54.2969 17.2431 55.4982 16.6484 56.2814C16.0633 57.0454 15.0835 57.473 14.1328 57.5691C13.0895 57.6748 12.0073 57.4538 11.0079 57.1799C10.1791 56.9541 9.09198 56.6898 8.7556 55.8009C8.5606 55.2771 8.66785 54.6573 8.66785 54.1143C8.66785 53.5137 8.6386 52.9083 8.62397 52.3076C8.5996 51.14 8.67273 49.9772 8.67273 48.8144C8.67273 47.5699 8.33147 45.8833 9.03348 44.7541C9.55511 43.9181 10.3839 44.6917 10.4814 45.4172C10.5643 46.0227 10.5496 46.6521 10.6033 47.2575C10.6618 47.9351 10.7251 48.6126 10.769 49.2901H12.2315C12.2023 49.0258 12.2998 48.43 12.6995 48.4636C12.9969 48.4876 13.1529 49.0258 13.226 49.2468C13.4015 49.785 14.0256 49.9243 14.4497 49.564C14.5667 49.4679 15.3906 49.3381 15.3175 49.588C15.1663 50.1165 15.6831 50.6211 16.2193 50.4769C16.975 50.2655 17.5259 50.4144 17.6526 51.2169C17.7696 51.9473 17.7745 52.817 17.6965 53.5425C17.5941 54.4651 19.0566 54.4555 19.159 53.5425C19.2273 52.9083 19.1736 52.25 19.1493 51.6109C19.1298 51.0872 19.0566 50.5442 18.808 50.0733C18.2376 48.9729 16.9409 48.7759 15.8293 49.0835L16.7312 49.9724C16.9652 49.1603 16.4875 48.4492 15.7221 48.1417C14.9567 47.8342 14.0646 47.9975 13.4211 48.5453L14.6447 48.8624C14.3376 47.911 13.6843 46.926 12.5387 47.0317C11.4515 47.1326 10.6715 48.2522 10.7836 49.2853C10.8811 50.1886 12.3047 50.2271 12.2462 49.2853C12.1974 48.5309 12.1194 47.7813 12.0609 47.0269C12.0073 46.3638 12.0219 45.6863 11.9098 45.0328C11.7099 43.8508 10.6666 42.8129 9.38449 42.9426C7.36133 43.1444 7.14195 45.7392 7.17608 47.2816C7.20045 48.5453 7.1907 49.7994 7.16633 51.0679C7.1517 51.7839 7.17608 52.495 7.19558 53.2062C7.21508 53.9558 7.14195 54.7294 7.21508 55.4741C7.33695 56.7523 8.18522 57.67 9.35524 58.1553C10.5935 58.6647 12.0122 58.9674 13.3528 59.0203C14.6934 59.0731 16.1511 58.6791 17.2236 57.7709C18.3644 56.8003 18.8616 55.1426 19.1395 53.7299C19.315 52.8218 17.9061 52.4374 17.7306 53.3455L17.7209 53.3503Z" fill="#333333"/>
<path d="M43.5978 66.9679C44.2315 67.7703 44.9238 68.5103 45.7574 69.1157C46.5862 69.7163 47.5661 70.0671 48.5167 70.4227C48.8775 70.5572 49.3357 70.2737 49.4186 69.9182C49.5112 69.5097 49.2919 69.1734 48.9067 69.0292C48.0438 68.7073 47.2736 68.4286 46.4936 67.8664C46.4838 67.8568 46.3961 67.7943 46.4497 67.8376C46.4058 67.8039 46.3668 67.7703 46.3278 67.7367C46.2352 67.6598 46.1426 67.5829 46.0548 67.5012C45.8842 67.3523 45.7233 67.1937 45.5673 67.0303C45.2358 66.6844 44.9287 66.3192 44.6313 65.9444C44.3973 65.6465 43.8415 65.6801 43.5978 65.9444C43.3004 66.2615 43.3443 66.6459 43.5978 66.9631V66.9679Z" fill="#333333"/>
<path d="M16.0097 60.5674C16.0975 61.8071 16.3998 63.018 16.4778 64.2577C16.5558 65.4974 16.4826 66.7371 16.5558 67.972C16.6094 68.8945 18.0719 68.8994 18.0183 67.972C17.9452 66.7323 18.0183 65.4926 17.9403 64.2577C17.8574 63.018 17.56 61.8023 17.4723 60.5674C17.443 60.1782 17.1554 59.8467 16.741 59.8467C16.3656 59.8467 15.9805 60.1782 16.0097 60.5674Z" fill="#333333"/>
<path d="M46.9226 65.8337C47.7221 65.0553 48.2876 63.8108 48.6825 62.499C49.1212 61.0431 49.4966 59.5968 49.5307 58.7511C49.56 58.0304 49.5746 57.2856 49.1992 56.6657C48.7849 55.9786 47.8586 55.82 47.5856 54.9648C47.4491 54.5371 47.5368 54.0182 47.2151 53.701C46.8007 53.2926 46.0938 53.4127 45.6794 53.8212C45.265 54.2296 45.2114 54.8206 45.2114 55.3972C45.2114 55.5029 45.1237 55.6326 45.0457 55.7143C44.9433 55.8249 44.7239 55.8585 44.5777 55.8152C43.4905 55.5125 42.6569 54.7197 41.4869 54.6284C40.7702 54.5707 39.9853 54.7677 39.6733 55.4116C39.3613 56.0555 39.9025 57.0646 40.6191 57.0646C40.0536 56.8868 39.376 57.1703 39.1858 57.7228C38.9957 58.2754 39.142 58.9337 39.6977 59.1355C39.2053 59.2364 38.7714 59.6497 38.7227 60.1398C38.6739 60.6299 39.0298 61.0623 39.493 61.2497C38.7909 61.2497 38.3181 62.1531 38.4253 62.8306C38.5374 63.5129 39.0883 64.0847 39.6246 64.5268C40.4046 65.1658 41.365 65.5262 42.3108 65.8914C43.2565 66.2566 44.2169 66.4872 45.226 66.5449C45.9086 66.5833 46.4156 66.3286 46.9177 65.8385L46.9226 65.8337Z" fill="#FFE6D9"/>
<path d="M47.4395 66.3429C48.9897 64.7668 49.5796 62.3691 50.033 60.2837C50.2378 59.3372 50.3645 58.3425 50.2085 57.3815C50.0379 56.3244 49.4431 55.8583 48.668 55.2192C47.9367 54.6186 48.3462 53.5327 47.4687 52.9753C46.679 52.4756 45.6113 52.7687 45.0409 53.451C44.7143 53.8402 44.5681 54.3207 44.5144 54.8204C44.5144 54.8589 44.5144 55.152 44.4852 55.2C44.6071 55.003 44.6461 55.1568 44.4267 54.9982C44.2219 54.8493 43.9148 54.758 43.6857 54.6426C42.7838 54.1814 41.8673 53.7922 40.8289 53.9267C39.8441 54.0564 38.874 54.7291 38.8642 55.7959C38.8545 56.8626 39.6052 57.689 40.629 57.7803C41.4529 57.8524 41.6138 56.555 40.824 56.3628C39.8977 56.1418 38.8837 56.5214 38.5278 57.4392C38.1963 58.2897 38.4693 59.342 39.3371 59.7552L39.5126 58.4386C37.8014 58.9191 37.4699 61.0766 39.1323 61.8742L39.5028 60.5288C38.3962 60.6297 37.6601 61.6147 37.6893 62.6911C37.7283 63.9932 38.9568 65.0503 40.0099 65.6558C41.1701 66.3189 42.5546 66.8426 43.866 67.0925C45.2408 67.3567 46.3816 67.3327 47.4395 66.3477C48.1269 65.7086 47.0885 64.69 46.406 65.329C45.7332 65.9537 45.0117 65.8576 44.1488 65.6846C43.2859 65.5116 42.462 65.2041 41.6528 64.8581C40.8874 64.5314 40.1269 64.1182 39.5711 63.4887C39.3468 63.234 39.1128 62.9121 39.1421 62.5517C39.1567 62.3883 39.2835 61.9895 39.4882 61.9703C40.1415 61.9126 40.5705 60.9709 39.8587 60.6249C39.3907 60.3991 39.3273 59.981 39.888 59.8225C40.4486 59.6639 40.6485 58.7846 40.0635 58.5059C39.5711 58.2752 39.9172 57.6314 40.4242 57.7515C40.4876 57.2806 40.5559 56.8097 40.6192 56.334C40.3999 56.3148 40.2731 55.8871 40.3316 55.719C40.4486 55.3682 41.019 55.325 41.3213 55.3346C42.2475 55.3634 43.0324 55.9832 43.8612 56.3196C44.9288 56.752 45.8502 56.4061 45.9428 55.2C45.9672 54.9021 46.0257 54.1093 46.523 54.1669C46.874 54.2054 46.7862 54.8012 46.8593 55.0751C47.0982 55.9592 47.8051 56.2475 48.3999 56.8385C49.0141 57.4488 48.8532 58.6596 48.7119 59.4333C48.512 60.5384 48.2049 61.6388 47.849 62.7007C47.5321 63.6473 47.1128 64.6035 46.4011 65.3242C45.7478 65.9921 46.7765 67.0108 47.4346 66.3429H47.4395Z" fill="#333333"/>
</g>
<defs>
<clipPath id="clip0_4_16801">
<rect width="64" height="104" fill="white"/>
</clipPath>
</defs>
</svg>
