<svg width="320" height="540" viewBox="0 0 320 540" fill="none" xmlns="http://www.w3.org/2000/svg">
<g clip-path="url(#clip0_40_1365)">
<path d="M43.1475 430.303C42.1519 430.252 41.1563 430.197 40.1608 430.146C39.1652 430.095 38.1696 430.027 37.174 429.976C36.2439 429.929 35.327 429.989 34.4275 430.214C33.6022 430.422 32.8817 430.779 32.2442 431.327C31.6066 431.874 31.1351 432.537 30.6897 433.229C30.1439 434.074 29.6766 434.94 29.371 435.883C29.0653 436.83 28.8426 437.794 28.7684 438.787C28.6942 439.781 28.8251 440.758 28.9867 441.739C29.1483 442.72 29.3491 443.688 29.7421 444.601C30.1351 445.514 30.5805 446.418 31.1962 447.212" fill="#333333"/>
<path d="M43.1474 429.666C41.0296 429.556 38.8987 429.36 36.7766 429.322C34.8859 429.288 32.9689 429.743 31.5804 431.051C30.301 432.261 29.3185 433.985 28.7639 435.624C28.1046 437.569 27.9823 439.497 28.288 441.514C28.6111 443.662 29.2836 445.764 30.6241 447.531C31.1175 448.185 32.2572 447.548 31.755 446.889C30.694 445.492 30.0346 443.853 29.7159 442.155C29.3709 440.342 29.2879 438.609 29.7726 436.813C30.1962 435.225 30.9909 433.662 32.0825 432.401C33.2266 431.076 34.8378 430.6 36.5801 430.596C38.7634 430.596 40.9685 430.825 43.1518 430.94C43.9945 430.983 43.9902 429.709 43.1518 429.666H43.1474Z" fill="#333333"/>
<path d="M52.7714 510.39C51.5662 510.381 50.396 510.326 49.2476 510.356C48.0992 510.385 46.9158 510.581 45.7412 510.593C44.5666 510.606 43.4794 510.615 42.2786 510.564C42.2698 511.243 42.248 513.158 42.2305 514.105C42.2305 514.203 42.2131 514.292 42.2087 514.364C42.2 514.903 42.1214 515.502 41.8725 515.935C41.5319 516.521 40.9162 516.759 40.3966 517.048C39.8769 517.337 39.2918 517.825 39.3704 518.551C40.3005 518.615 41.2262 518.734 42.1563 518.772C43.0864 518.81 44.0252 518.653 44.9596 518.67C45.8941 518.687 46.8241 518.717 47.7542 518.708C48.6843 518.7 49.6188 518.653 50.5488 518.623C50.9768 518.611 51.3741 518.632 51.7365 518.33C52.2824 517.876 52.5356 517.022 52.6622 516.199C52.6753 516.118 52.5749 516.02 52.5836 515.931C52.6535 515.239 52.6535 514.199 52.6448 513.171C52.636 512.088 52.7103 511.014 52.7714 510.398V510.39Z" fill="#333333"/>
<path d="M52.7708 509.753C51.0024 509.74 49.2601 509.68 47.496 509.842C45.7625 510.003 44.0159 509.99 42.278 509.927C41.9199 509.914 41.6274 510.228 41.623 510.564C41.6012 511.982 41.706 513.451 41.5269 514.857C41.4745 515.286 41.3435 515.685 40.9899 515.965C40.6798 516.211 40.2912 516.351 39.955 516.56C39.2258 517.005 38.6756 517.672 38.7149 518.547C38.7323 518.912 39.0031 519.158 39.3699 519.184C40.4309 519.26 41.492 519.417 42.5574 519.409C43.505 519.4 44.4438 519.29 45.3913 519.307C46.3957 519.328 47.4 519.349 48.4043 519.324C49.3387 519.303 50.3387 519.345 51.26 519.201C52.0635 519.073 52.5874 518.483 52.8975 517.791C53.0547 517.439 53.1638 517.069 53.2424 516.691C53.321 516.313 53.2555 516.003 53.2686 515.625C53.3341 513.876 53.2686 512.131 53.4302 510.385C53.5088 509.57 52.1945 509.574 52.1202 510.385C51.9718 511.965 52.0373 513.545 51.9805 515.124C51.9543 515.867 52.0373 516.322 51.8146 516.997C51.7185 517.281 51.5831 517.638 51.3299 517.825C51.0592 518.025 50.6662 517.974 50.343 517.986C48.4785 518.05 46.6271 518.012 44.7669 518.025C43.898 518.033 43.0334 518.156 42.1645 518.126C41.2344 518.097 40.3043 517.969 39.3786 517.906L40.0336 518.543C39.9943 517.732 41.0466 517.481 41.6055 517.099C42.409 516.551 42.7496 515.782 42.8456 514.848C42.9941 513.43 42.9199 511.978 42.9417 510.555L42.2867 511.192C44.0246 511.26 45.7712 511.269 47.5048 511.107C49.2689 510.946 51.0111 511.005 52.7796 511.018C53.6223 511.027 53.6223 509.753 52.7796 509.744L52.7708 509.753Z" fill="#333333"/>
<path d="M41.2305 492.72C41.2596 493.808 41.2872 494.893 41.3134 495.977C41.3571 497.608 41.4794 497.604 41.523 499.234C41.5667 500.865 41.4051 500.869 41.4488 502.5C41.4925 504.13 41.5361 504.13 41.5754 505.761C41.6191 507.392 41.4968 507.396 41.5405 509.022C41.5842 510.649 41.6933 510.649 41.737 512.279C41.7807 513.91 41.7021 513.914 41.7457 515.545C41.7588 515.969 42.1343 516.36 42.4924 516.36C44.1255 516.36 44.1255 516.326 45.7542 516.33C47.3873 516.33 47.3873 516.415 49.0204 516.419C50.6535 516.424 50.6535 516.394 52.2866 516.398C52.649 516.398 52.8805 515.974 52.8805 515.54C52.8805 514.088 52.9067 514.088 52.9067 512.636C52.9067 511.184 53.0464 511.184 53.0464 509.731C53.0464 508.279 53.0158 508.279 53.0202 506.827C53.0202 505.375 53.0595 505.375 53.0639 503.922C53.0639 502.47 52.9285 502.47 52.9329 501.018C52.9329 499.566 53.0289 499.566 53.0333 498.113C53.0333 496.661 53.0857 496.661 53.0857 495.205C53.0857 493.748 53.1075 493.752 53.1119 492.296" fill="#95BECE"/>
<path d="M40.5754 492.72C40.6234 494.597 40.702 496.461 40.8287 498.334C40.8942 499.328 40.8549 500.3 40.8025 501.29C40.7501 502.266 40.8112 503.251 40.8636 504.228C40.964 506.19 40.7937 508.152 40.9378 510.109C41.0077 511.065 41.0907 512.012 41.095 512.971C41.1038 513.867 40.9815 514.81 41.1125 515.698C41.1911 516.22 41.5317 516.712 42.0557 516.903C42.5797 517.095 43.2084 516.997 43.7412 516.988C44.7455 516.971 45.7542 516.95 46.7585 516.984C47.7628 517.018 48.7933 517.061 49.8151 517.056C50.2212 517.056 50.6316 517.048 51.0377 517.044C51.5442 517.039 52.1948 517.141 52.6708 516.963C53.793 516.547 53.5354 515.061 53.5528 514.139C53.5703 513.171 53.5441 512.199 53.6358 511.235C53.8148 509.307 53.6533 507.358 53.7057 505.426C53.7362 504.347 53.7275 503.281 53.6402 502.207C53.5528 501.132 53.6271 500.118 53.6751 499.069C53.7799 496.818 53.7712 494.551 53.7755 492.296C53.7755 491.476 52.4699 491.476 52.4656 492.296C52.4612 494.109 52.4044 495.922 52.387 497.731C52.3782 498.648 52.3127 499.557 52.2909 500.474C52.2691 501.4 52.3651 502.304 52.4044 503.23C52.4787 505.073 52.3695 506.929 52.3913 508.776C52.4132 510.636 52.2647 512.492 52.2341 514.351C52.2341 514.543 52.2298 514.734 52.2254 514.92C52.221 515.107 52.3084 515.511 52.2036 515.685C52.1119 515.842 52.1206 515.782 51.8935 515.761C51.7888 515.753 51.6665 515.761 51.5617 515.761C51.3128 515.761 51.0595 515.761 50.8106 515.77C49.8369 515.782 48.8632 515.799 47.8894 515.761C46.9637 515.727 46.038 515.689 45.1123 515.693C44.728 515.693 44.3438 515.702 43.9595 515.71C43.7586 515.71 43.5578 515.719 43.3525 515.719C43.1473 515.719 42.6364 515.812 42.488 515.698C42.2478 515.502 42.3788 514.64 42.3832 514.334C42.3875 513.952 42.4006 513.566 42.4006 513.184C42.4006 512.266 42.3526 511.358 42.2696 510.445C42.0993 508.564 42.2696 506.678 42.191 504.789C42.1474 503.769 42.0731 502.75 42.0906 501.731C42.1081 500.712 42.1998 499.714 42.1517 498.691C42.1037 497.667 41.9814 496.754 41.9552 495.782C41.929 494.763 41.9028 493.74 41.8766 492.72C41.8548 491.901 40.5448 491.901 40.5667 492.72H40.5754Z" fill="#333333"/>
<path d="M64.9845 516.895C64.4648 516.611 63.7968 516.449 63.4518 515.863C63.1985 515.434 63.216 514.823 63.2029 514.288C63.2029 514.216 63.1942 514.126 63.1898 514.029C63.168 513.082 63.1199 511.018 63.1025 510.339C61.8973 510.398 60.7009 510.521 59.5525 510.513C58.3779 510.509 57.2163 510.542 56.0417 510.521C54.8933 510.5 53.6969 510.317 52.4961 510.334C52.5616 510.95 52.5092 512.08 52.5048 513.167C52.5048 514.194 52.5398 515.243 52.614 515.935C52.6227 516.029 52.6708 516.109 52.6839 516.19C52.8149 517.018 52.9939 517.948 53.5397 518.398C53.9021 518.7 54.3693 518.619 54.7973 518.632C55.7317 518.657 56.6618 518.768 57.5919 518.768C58.5263 518.768 59.4608 518.814 60.3908 518.793C61.3253 518.772 62.2554 518.67 63.1854 518.623C64.1155 518.577 64.9801 518.445 65.9102 518.377C65.9844 517.651 65.4954 517.18 64.9757 516.895H64.9845Z" fill="#333333"/>
<path d="M65.3169 516.347C64.7929 516.071 64.0724 515.906 63.9196 515.269C63.7886 514.721 63.8454 514.097 63.8323 513.536C63.8061 512.47 63.7843 511.404 63.7581 510.339C63.7493 510.007 63.4655 509.685 63.1031 509.702C61.3302 509.791 59.5749 509.872 57.7977 509.889C56.9375 509.897 56.0816 509.906 55.2258 509.85C54.3175 509.791 53.4093 509.697 52.4967 509.697C52.1648 509.697 51.8111 509.99 51.8417 510.334C51.9989 512.097 51.7893 513.876 51.9334 515.642C52.0382 516.887 52.3526 518.95 53.894 519.226C54.3306 519.303 54.7891 519.265 55.2301 519.286C55.7323 519.311 56.2345 519.354 56.7366 519.379C57.7366 519.43 58.7496 519.434 59.7539 519.439C61.8149 519.443 63.8672 519.18 65.9195 519.014C66.2863 518.984 66.557 518.746 66.5745 518.377C66.6138 517.477 66.0854 516.793 65.3169 516.343C64.5921 515.923 63.9327 517.022 64.6576 517.443C65.0462 517.668 65.2864 517.918 65.2645 518.373L65.9195 517.736C64.0812 517.88 62.2472 518.109 60.4002 518.152C58.5662 518.194 56.741 518.046 54.9114 517.991C54.6014 517.982 54.1603 518.071 53.9114 517.85C53.7106 517.672 53.6189 517.358 53.549 517.107C53.3613 516.47 53.2521 515.791 53.2172 515.129C53.1298 513.532 53.3001 511.914 53.1604 510.326L52.5054 510.963C53.418 510.963 54.3219 511.056 55.2345 511.116C56.0904 511.171 56.9506 511.162 57.8064 511.154C59.5836 511.137 61.339 511.061 63.1118 510.967L62.4568 510.33C62.483 511.545 62.5005 512.759 62.5398 513.969C62.5616 514.695 62.5048 515.519 62.8935 516.173C63.2821 516.827 64.0026 517.086 64.6619 517.434C65.4042 517.821 66.068 516.721 65.3213 516.335L65.3169 516.347Z" fill="#333333"/>
<path d="M52.1858 499.655C52.212 501.247 52.1072 501.247 52.1334 502.84C52.1596 504.432 52.3037 504.428 52.3343 506.02C52.3605 507.612 52.4216 507.608 52.4478 509.201C52.474 510.793 52.3168 510.797 52.343 512.385C52.3692 513.974 52.3299 513.978 52.3561 515.57C52.3648 516.003 52.784 516.381 53.1465 516.377C54.7795 516.351 54.7752 516.275 56.4083 516.25C58.0414 516.224 58.0457 516.373 59.6788 516.343C61.3119 516.313 61.3076 516.122 62.9407 516.092C63.2944 516.088 63.6044 515.829 63.6131 515.405C63.6349 513.833 63.5083 513.829 63.5301 512.258C63.552 510.687 63.6524 510.687 63.6742 509.116C63.6961 507.545 63.683 507.545 63.7048 505.969C63.7266 504.398 63.8271 504.398 63.8489 502.823C63.8707 501.251 63.7179 501.247 63.7354 499.676C63.7572 498.101 63.8358 498.105 63.8576 496.529C63.8795 494.954 63.8707 494.954 63.8926 493.383C63.8969 492.941 63.5956 492.64 63.2245 492.644C61.7006 492.657 61.7006 492.636 60.1723 492.644C58.644 492.657 58.644 492.703 57.12 492.716C55.5961 492.729 55.5917 492.746 54.0634 492.754C52.5351 492.763 52.5351 492.729 51.0068 492.742" fill="#95BECE"/>
<path d="M51.5315 499.655C51.549 500.75 51.4573 501.842 51.4791 502.937C51.5009 504.033 51.6538 505.12 51.68 506.215C51.7062 507.311 51.7848 508.334 51.7935 509.396C51.8022 510.462 51.6756 511.515 51.6887 512.581C51.7018 513.6 51.5708 514.7 51.7149 515.71C51.7935 516.254 52.1734 516.763 52.7236 516.942C53.2738 517.12 53.9462 516.997 54.5051 516.967C55.5924 516.904 56.6841 516.844 57.7713 516.916C58.863 516.988 59.9502 517.027 61.0375 516.895C61.4829 516.84 61.9283 516.776 62.3781 516.751C63.0243 516.717 63.6662 516.725 64.0548 516.131C64.3692 515.651 64.2775 514.984 64.2557 514.441C64.2382 513.991 64.1989 513.545 64.1858 513.095C64.1552 512.016 64.26 510.954 64.3037 509.88C64.3517 508.81 64.3343 507.736 64.3474 506.666C64.3561 505.612 64.4434 504.572 64.4827 503.519C64.522 502.466 64.4216 501.426 64.391 500.372C64.3648 499.319 64.4609 498.275 64.4958 497.226C64.5308 496.177 64.5264 495.128 64.5351 494.079C64.5439 493.404 64.6094 492.703 63.985 492.258C63.4522 491.88 62.7099 492.016 62.0899 492.011C60.8847 492.011 59.6795 492.011 58.4787 492.054C55.9898 492.147 53.4965 492.092 51.0032 492.109C50.1604 492.113 50.1604 493.387 51.0032 493.383C53.0423 493.37 55.0772 493.374 57.1163 493.357C58.1338 493.349 59.1512 493.294 60.1686 493.285C60.6969 493.281 61.2209 493.285 61.7493 493.285C61.9501 493.285 62.151 493.285 62.3475 493.285C62.544 493.285 63.0854 493.188 63.2295 493.285C63.3343 493.357 63.2208 494.372 63.2208 494.589C63.2208 495.005 63.2164 495.421 63.2077 495.837C63.199 496.797 63.1466 497.752 63.1029 498.712C63.0549 499.727 63.1116 500.725 63.1684 501.736C63.2252 502.746 63.1684 503.685 63.0942 504.657C62.9501 506.644 63.0942 508.644 62.9457 510.636C62.8715 511.613 62.8409 512.593 62.8933 513.57C62.9151 513.948 62.9413 514.33 62.9501 514.708C62.9501 514.87 63.033 515.328 62.937 515.451C62.8758 515.528 62.1379 515.485 62.0025 515.494C60.9764 515.583 59.9895 515.723 58.9547 515.702C57.9722 515.681 57.0028 515.591 56.016 515.617C55.5662 515.63 55.1165 515.651 54.6667 515.681C54.4702 515.693 54.2737 515.702 54.0772 515.71C53.8327 515.719 53.3349 515.825 53.1253 515.723C52.8633 515.6 52.9943 514.619 52.9943 514.347C52.9943 513.927 53.003 513.506 52.9943 513.082C52.9856 511.961 53.0773 510.857 53.0904 509.74C53.1035 508.623 53.0074 507.506 52.9812 506.39C52.955 505.264 52.8065 504.152 52.7803 503.026C52.7541 501.901 52.8458 500.772 52.8284 499.642C52.8153 498.823 51.5053 498.823 51.5184 499.642L51.5315 499.655Z" fill="#333333"/>
<path d="M65.858 476.338C65.7706 475.807 65.5567 475.298 65.4126 474.767C65.1855 473.939 64.858 473.14 64.4825 472.363C64.107 471.586 63.7053 470.822 63.0852 470.202C61.9979 469.115 60.8539 468.847 59.6312 468.762C58.4086 468.678 57.0899 468.869 55.745 468.593C54.6665 468.372 53.5705 468.206 52.457 468.223C51.3391 468.24 50.2213 468.317 49.1559 468.597C48.0468 468.886 47.1778 469.582 46.1298 469.985C45.37 470.278 44.6801 470.117 44.1125 470.758C43.3876 471.578 43.0165 472.767 42.7501 473.99C42.4881 475.204 42.3877 476.47 42.248 477.485C42.117 478.461 41.8855 479.425 41.7807 480.402C41.6759 481.378 41.6192 482.364 41.5406 483.344C41.462 484.325 41.427 485.311 41.3746 486.291C41.3222 487.272 41.3179 488.258 41.2917 489.243C41.2655 490.228 41.2393 491.209 41.2436 492.194C41.2436 493.502 41.7807 494.003 42.5711 494.258C43.3614 494.512 44.3002 494.495 45.3045 494.546C46.4137 494.602 47.514 494.788 48.6231 494.818C49.7322 494.848 50.8414 494.687 51.9505 494.691C52.9853 494.695 54.0202 494.657 55.0595 494.64C56.0943 494.623 57.1336 494.687 58.1684 494.648C59.2033 494.61 60.2382 494.457 61.2731 494.398C62.5044 494.398 63.8188 494.139 64.8275 493.425C65.858 492.695 66.4518 491.595 66.5697 490.338C66.7051 488.903 67.1024 487.417 67.05 485.973C67.0195 485.107 66.6745 484.359 66.5304 483.519C66.3252 482.321 66.2335 481.128 66.1505 479.93C66.0676 478.733 66.0545 477.527 65.8536 476.334L65.858 476.338Z" fill="#FCFCFC"/>
<path d="M66.4909 476.168C66.1983 474.635 65.587 473.102 64.884 471.709C64.2072 470.372 63.264 469.183 61.8143 468.588C60.4126 468.011 58.9062 468.134 57.4215 468.113C55.7491 468.092 54.1423 467.574 52.4568 467.59C50.7713 467.607 49.1513 467.769 47.6797 468.503C47.0597 468.813 46.4658 469.221 45.7977 469.433C45.1384 469.641 44.4659 469.637 43.9027 470.083C42.811 470.954 42.4006 472.542 42.1255 473.824C41.7936 475.361 41.7106 476.937 41.4312 478.487C40.8242 481.884 40.7238 485.387 40.6539 488.827C40.6365 489.599 40.6146 490.372 40.6015 491.145C40.5928 491.884 40.5229 492.678 40.7718 493.391C41.1736 494.525 42.2608 494.933 43.3961 495.073C44.169 495.166 44.9463 495.158 45.7191 495.217C46.6187 495.285 47.5138 495.421 48.4133 495.459C49.2473 495.493 50.077 495.421 50.911 495.37C51.7406 495.324 52.5703 495.34 53.3999 495.324C55.1247 495.29 56.8626 495.383 58.583 495.277C59.4127 495.226 60.238 495.107 61.0676 495.06C61.8536 495.014 62.6309 494.988 63.395 494.784C64.8753 494.385 66.1503 493.442 66.7791 492.062C67.1197 491.315 67.1808 490.559 67.29 489.761C67.4166 488.831 67.6044 487.909 67.6786 486.975C67.7485 486.088 67.6524 485.268 67.4166 484.41C67.1808 483.553 67.0367 482.648 66.9494 481.739C66.766 479.888 66.7747 478.02 66.4865 476.181C66.3599 475.374 65.098 475.718 65.2246 476.521C65.4648 478.045 65.456 479.608 65.587 481.145C65.6438 481.833 65.7224 482.521 65.8228 483.209C65.9276 483.914 66.1328 484.58 66.29 485.268C66.6175 486.708 66.1896 488.236 65.9975 489.667C65.8272 490.929 65.6089 492.075 64.4997 492.895C63.3644 493.735 62.0064 493.714 60.6572 493.829C59.059 493.965 57.5001 494.045 55.8932 494.028C54.378 494.011 52.8454 494.028 51.3302 494.092C50.566 494.122 49.8063 494.202 49.0421 494.211C48.278 494.219 47.5182 494.139 46.7584 494.058C46.0117 493.982 45.265 493.935 44.514 493.901C43.8896 493.871 43.1778 493.871 42.5971 493.612C41.5709 493.162 41.8984 491.616 41.9159 490.746C41.9726 487.582 42.0862 484.423 42.3569 481.268C42.4792 479.837 42.7935 478.436 42.9682 477.013C43.1429 475.578 43.2957 474.134 43.7673 472.754C43.9463 472.223 44.1865 471.654 44.5751 471.234C44.9987 470.775 45.741 470.826 46.3043 470.627C47.5662 470.172 48.588 469.361 49.9329 469.102C51.6489 468.771 53.4523 468.83 55.164 469.153C56.0592 469.323 56.9194 469.416 57.832 469.412C58.5874 469.412 59.3516 469.37 60.1026 469.472C61.692 469.684 62.7968 470.618 63.5347 471.969C64.2727 473.319 64.9277 474.962 65.2246 476.533C65.3774 477.34 66.6394 476.996 66.4865 476.194L66.4909 476.168Z" fill="#333333"/>
<path d="M55.1907 474.983C55.5444 473.824 55.885 472.932 55.2911 471.811C54.8588 470.992 53.7279 470.202 52.7367 470.359C51.99 470.478 51.4442 471.166 50.9508 471.901C50.0862 473.183 50.1953 474.155 50.6102 475.196C51.0206 476.228 51.6101 477.272 51.7455 478.529C51.8939 479.947 51.5708 481.378 51.0818 482.661C50.5927 483.943 49.977 485.158 49.6364 486.521C49.3788 487.561 49.8155 488.597 50.4923 489.523C51.1691 490.449 52.1166 491.323 52.6756 491.935C52.8546 492.13 53.0729 492.432 53.3087 492.419C53.5096 492.41 53.6799 492.151 53.8371 491.99C54.5401 491.272 55.2606 490.495 55.8151 489.587C56.2998 488.797 56.5574 487.956 56.6317 487.124C56.7015 486.317 56.5836 485.455 56.4352 484.55C56.2518 483.438 56.0815 482.321 55.8893 481.213C55.6972 480.096 55.3261 479.022 55.0641 477.93C54.9462 477.446 54.8719 476.928 54.9069 476.423C54.9374 475.93 55.051 475.442 55.1907 474.983Z" fill="#FFD063"/>
<path d="M55.8234 475.153C56.0722 474.342 56.3473 473.514 56.2382 472.656C56.1334 471.841 55.7186 471.089 55.081 470.55C54.5003 470.062 53.7492 469.688 52.9633 469.705C52.1249 469.722 51.4612 470.206 50.9503 470.818C49.8674 472.126 49.3215 473.591 49.9241 475.225C50.2211 476.032 50.6359 476.797 50.8848 477.62C51.1686 478.55 51.1817 479.523 51.0201 480.478C50.697 482.347 49.7102 484.003 49.16 485.803C48.9023 486.648 48.8194 487.468 49.1119 488.317C49.4132 489.183 49.9547 489.935 50.5529 490.631C51.09 491.26 51.7013 491.82 52.2559 492.436C52.8104 493.052 53.461 493.294 54.1029 492.657C55.3736 491.396 56.6705 489.939 57.1115 488.185C57.3691 487.162 57.3211 486.134 57.1726 485.102C57.0111 483.956 56.8102 482.814 56.6224 481.671C56.4347 480.538 56.1377 479.451 55.8408 478.342C55.5439 477.234 55.4915 476.274 55.819 475.157C56.0504 474.368 54.7885 474.032 54.5571 474.818C54.3387 475.557 54.1903 476.325 54.2645 477.094C54.3387 477.896 54.5745 478.673 54.7928 479.446C55.2644 481.145 55.5002 482.882 55.7841 484.618C56.0548 486.283 56.1377 487.858 55.1989 489.349C54.7885 490.007 54.2776 490.593 53.7449 491.158C53.6226 491.289 53.496 491.413 53.3737 491.544C53.3388 491.578 53.2427 491.659 53.2253 491.706C53.186 491.841 53.4348 491.799 53.4305 491.807C53.4567 491.744 52.8628 491.196 52.793 491.128C51.7974 490.105 50.4656 488.95 50.2429 487.476C50.125 486.703 50.4918 485.884 50.7625 485.17C51.0332 484.457 51.3607 483.735 51.6446 483.009C52.2209 481.536 52.579 479.93 52.3738 478.346C52.186 476.907 51.3345 475.718 51.0114 474.329C50.828 473.531 51.1118 472.818 51.5616 472.155C51.9458 471.591 52.448 470.86 53.2383 471.009C53.9632 471.145 54.6051 471.752 54.8409 472.419C55.1247 473.221 54.7928 474.049 54.5527 474.822C54.3125 475.595 55.5745 475.947 55.8146 475.162L55.8234 475.153Z" fill="#333333"/>
<path d="M60.5571 480.708C60.509 481.812 60.3562 482.916 60.3169 484.02C60.2776 485.124 60.4435 486.236 60.413 487.34C60.3824 488.444 60.199 489.548 60.1728 490.652C60.151 491.757 60.0942 492.865 60.0811 493.969C60.0724 494.725 59.9938 495.43 60.0418 496.198C60.0505 496.368 60.116 496.585 60.2252 496.721C60.3693 496.903 60.6706 496.954 60.9064 496.984C61.867 497.098 62.8408 497.031 63.8058 497.077C64.7708 497.124 65.7314 497.154 66.6964 497.137C66.8842 497.137 67.0894 497.222 67.2466 497.124C67.4388 497.001 67.5916 496.788 67.6527 496.576C67.9933 495.413 68.0894 494.194 68.0719 492.984C68.037 490.678 69.6439 491.374 71.373 490.542C72.1721 490.16 72.9756 489.701 73.5782 489.064C74.1807 488.427 74.6392 487.629 74.9405 486.81C75.268 485.931 75.2244 484.979 75.2113 484.045C75.1982 483.111 75.0672 482.206 74.8357 481.306C74.5563 480.228 74.2899 479.209 73.8227 478.296C73.3293 477.332 72.7834 476.406 72.1066 475.582C71.4298 474.758 70.5303 474.143 69.7094 473.425C68.919 472.733 68.1549 471.973 67.251 471.336C66.8056 471.022 65.9017 470.385 64.9018 469.858C64.0197 469.391 63.0504 468.966 62.2775 468.903C61.3387 468.826 60.5483 469.315 60.592 470.703C60.6269 471.816 60.7798 472.924 60.7754 474.041C60.771 475.153 60.7448 476.266 60.7143 477.378C60.6837 478.491 60.6182 479.603 60.5702 480.716L60.5571 480.708Z" fill="#95BECE"/>
<path d="M59.9016 480.708C59.8317 482.194 59.6047 483.667 59.6745 485.162C59.7095 485.888 59.7706 486.614 59.7531 487.34C59.7357 488.066 59.6352 488.861 59.5741 489.616C59.4562 491.06 59.4562 492.521 59.4213 493.969C59.3994 494.988 58.9497 496.852 60.1199 497.434C60.6483 497.697 61.3557 497.672 61.9277 497.685C62.6875 497.701 63.4472 497.697 64.207 497.731C64.9668 497.765 65.6524 497.782 66.3728 497.774C67.0191 497.769 67.5038 497.867 67.9535 497.319C68.3465 496.844 68.4382 496.143 68.5343 495.557C68.6522 494.835 68.709 494.109 68.7133 493.379C68.7133 492.975 68.626 492.44 68.8662 492.079C69.019 491.85 69.2941 491.782 69.5517 491.718C70.473 491.481 71.3158 491.289 72.1673 490.844C73.2895 490.253 74.2152 489.464 74.8745 488.389C76.3242 486.037 75.9837 483.102 75.3025 480.559C74.6344 478.058 73.3768 475.65 71.342 473.943C69.3072 472.236 67.578 470.563 65.3074 469.344C64.2245 468.763 62.8097 468.019 61.526 468.304C60.3645 468.563 59.9103 469.625 59.9191 470.69C59.9278 471.527 60.037 472.359 60.0806 473.191C60.1199 474.024 60.0981 474.86 60.0806 475.697C60.0501 477.366 59.9671 479.034 59.8972 480.703C59.8623 481.523 61.1723 481.523 61.2072 480.703C61.3207 478.075 61.5391 475.408 61.3644 472.775C61.3251 472.151 61.2596 471.527 61.2378 470.898C61.2247 470.512 61.181 469.977 61.5129 469.688C62.1416 469.149 63.4341 469.837 64.0193 470.121C65.0061 470.597 65.9318 471.183 66.8226 471.811C67.792 472.495 68.6173 473.349 69.5255 474.109C70.4338 474.869 71.3507 475.582 72.0406 476.563C72.7218 477.535 73.3244 478.597 73.6956 479.718C74.0842 480.886 74.4161 482.113 74.5121 483.34C74.5995 484.47 74.665 485.718 74.2327 486.793C73.4379 488.767 71.7001 489.948 69.6259 490.393C68.9578 490.538 68.2723 490.72 67.8444 491.285C67.2636 492.062 67.4296 493.086 67.3903 493.986C67.3641 494.602 67.2942 495.213 67.1588 495.812C67.1064 496.045 67.0715 496.351 66.9187 496.538L66.8794 496.58C67.0584 496.525 67.0409 496.5 66.827 496.5C66.6567 496.457 66.4427 496.491 66.2724 496.496C64.9624 496.504 63.6568 496.419 62.3469 496.411C62.0019 496.411 61.657 496.402 61.312 496.377C61.0151 496.355 60.7269 496.411 60.6876 496.088C60.6046 495.391 60.7181 494.661 60.7356 493.96C60.7662 492.512 60.7705 491.052 60.8884 489.608C60.9496 488.848 61.0456 488.092 61.0675 487.332C61.0849 486.64 61.0282 485.948 60.9932 485.255C60.919 483.727 61.1417 482.223 61.2159 480.699C61.2552 479.879 59.9453 479.879 59.906 480.699L59.9016 480.708Z" fill="#333333"/>
<path d="M63.3512 468.779C64.159 469.132 64.8926 469.726 65.4297 470.41C65.9668 471.094 66.2026 471.964 66.3379 472.814C66.4296 473.391 66.4689 473.981 66.2768 474.533C65.8314 475.811 64.6743 476.618 63.4735 477.298C64.421 478.134 65.3598 479.192 65.124 480.41C65.0149 480.967 64.6568 481.459 64.29 481.897C63.3337 483.026 62.3076 484.117 61.1592 485.064" fill="#95BECE"/>
<path d="M63.0198 469.331C64.6704 470.092 65.5524 471.459 65.7358 473.204C65.9192 474.949 64.535 475.956 63.1464 476.754C62.7971 476.954 62.701 477.476 63.0154 477.756C63.522 478.211 64.059 478.703 64.3429 479.327C64.6616 480.032 64.4433 480.657 63.9935 481.247C63.0547 482.482 61.8932 483.625 60.6968 484.618C60.0549 485.153 60.985 486.049 61.6225 485.519C62.3692 484.899 63.0722 484.223 63.7315 483.514C64.356 482.839 65.0895 482.126 65.5 481.302C66.3646 479.569 65.238 478.011 63.9455 476.856C63.9018 477.192 63.8582 477.523 63.8145 477.858C65.5917 476.835 67.2685 475.408 67.0545 473.208C66.9584 472.215 66.7226 471.157 66.155 470.308C65.5611 469.416 64.6747 468.69 63.6922 468.236C62.9325 467.888 62.2687 468.983 63.0329 469.336L63.0198 469.331Z" fill="#333333"/>
<path d="M45.4532 480.708C45.4968 481.697 45.4444 482.695 45.4881 483.684C45.5318 484.674 45.6016 485.663 45.6366 486.657C45.6715 487.65 45.6933 488.64 45.7195 489.629C45.7457 490.619 45.9073 491.612 45.9029 492.602C45.9029 494.007 45.6802 495.362 45.5536 496.776C45.5405 496.937 45.6278 497.111 45.5143 497.23C45.3877 497.37 45.1912 497.481 44.9991 497.502C44.3834 497.566 42.7765 497.74 41.2351 497.803C39.5845 497.871 37.9383 497.757 37.6894 496.984C37.5934 496.682 37.6327 496.338 37.6414 496.02C37.6589 495.209 37.7506 494.194 37.7855 493.196C37.8204 492.198 37.8903 491.094 37.5977 490.317C36.6633 490.304 35.6153 490.423 34.6721 490.258C33.729 490.092 32.8513 489.629 32.026 489.213C31.2007 488.797 30.4671 488.232 29.9213 487.442C29.4715 486.793 29.1921 486.088 29.0524 485.315C28.9126 484.542 28.8253 483.765 28.9214 482.996C29.0174 482.228 29.1397 481.438 29.3755 480.691C29.6113 479.943 29.9257 479.221 30.2095 478.491C30.4584 477.85 30.7815 477.234 31.0304 476.593C31.1832 476.198 31.3404 475.811 31.6199 475.489C31.9823 475.073 32.4845 474.835 32.9954 474.61C33.7814 474.262 34.5368 473.811 35.3489 473.476C36.1611 473.141 36.9602 472.822 37.7287 472.431C38.5103 472.036 39.3313 471.714 40.0124 471.191C40.746 470.627 41.9294 469.799 43.0079 469.459C44.2131 469.077 45.3222 469.264 45.3658 471.034C45.392 472.109 45.4095 473.187 45.4139 474.262C45.4226 475.336 45.2829 476.414 45.296 477.489C45.3091 478.563 45.4051 479.637 45.4488 480.712L45.4532 480.708Z" fill="#95BECE"/>
<path d="M44.7982 480.708C44.8375 481.765 44.7938 482.822 44.8419 483.884C44.8899 484.941 44.9597 485.994 44.9947 487.052C45.0296 488.109 45.0209 489.166 45.0907 490.224C45.1606 491.289 45.2785 492.334 45.2261 493.4C45.1693 494.462 44.9947 495.51 44.9204 496.572C44.9204 496.627 44.9248 496.912 44.9117 496.937C44.9248 496.916 45.0034 496.835 44.9204 496.873C44.8331 496.92 44.6323 496.903 44.5362 496.912C44.0908 496.958 43.6454 497.001 43.2 497.039C42.1782 497.124 41.1434 497.209 40.1129 497.179C39.6631 497.166 38.4274 497.217 38.292 496.67C38.1785 496.224 38.3138 495.604 38.34 495.149C38.3706 494.597 38.4099 494.045 38.4361 493.498C38.4885 492.394 38.602 491.213 38.2396 490.147C38.1479 489.88 37.9077 489.68 37.6065 489.68C36.8248 489.68 36.0389 489.752 35.2572 489.689C34.4669 489.625 33.7377 489.34 33.0347 488.996C31.7596 488.376 30.6418 487.659 30.0479 486.342C28.7249 483.4 30.1789 480.151 31.3841 477.434C31.6679 476.792 31.8382 476.045 32.4452 475.612C33.0303 475.2 33.7682 474.954 34.4014 474.631C35.8162 473.913 37.3052 473.34 38.733 472.652C39.995 472.049 41.0167 471.136 42.2437 470.478C42.7677 470.198 44.1563 469.472 44.5711 470.278C44.8768 470.873 44.7283 471.799 44.7414 472.44C44.7589 473.383 44.7807 474.321 44.7371 475.264C44.6934 476.138 44.6279 477.009 44.6541 477.884C44.6803 478.826 44.7545 479.765 44.7982 480.703C44.8331 481.519 46.1431 481.523 46.1082 480.703C46.0645 479.765 45.9903 478.822 45.9641 477.884C45.9379 476.975 46.0077 476.07 46.0514 475.162C46.0951 474.223 46.0689 473.281 46.0514 472.338C46.0383 471.578 46.1169 470.733 45.8636 469.998C45.4706 468.856 44.379 468.499 43.2393 468.729C41.746 469.03 40.6019 470.036 39.3836 470.843C37.9077 471.82 36.1568 472.376 34.5542 473.119C33.7682 473.484 32.9823 473.867 32.2094 474.257C31.4671 474.635 30.9343 475.175 30.5981 475.922C29.1964 479.081 27.5677 482.487 28.5415 485.994C29.0131 487.693 30.2008 488.984 31.7815 489.791C32.6417 490.232 33.5368 490.682 34.5018 490.856C35.528 491.043 36.5672 490.933 37.5977 490.937L36.9646 490.47C37.3183 491.51 37.1567 492.708 37.0999 493.782C37.0694 494.355 37.0257 494.924 36.9995 495.498C36.9777 495.977 36.9078 496.508 37.0126 496.984C37.196 497.799 37.9776 498.164 38.7549 498.309C39.8334 498.508 40.9425 498.453 42.0298 498.385C42.9904 498.326 43.9511 498.245 44.903 498.135C45.3484 498.084 45.8156 497.931 46.0689 497.536C46.1911 497.345 46.1999 497.137 46.2042 496.92C46.2086 496.597 46.2435 496.279 46.2785 495.956C46.4051 494.771 46.5666 493.583 46.5448 492.385C46.523 491.196 46.3701 490.011 46.3439 488.818C46.3134 487.497 46.2654 486.177 46.1911 484.856C46.1169 483.468 46.1475 482.079 46.0951 480.691C46.0645 479.871 44.7545 479.871 44.7851 480.691L44.7982 480.708Z" fill="#333333"/>
<path d="M43.4663 468.941C42.6411 469.247 41.9337 469.769 41.3573 470.423C40.7809 471.077 40.2263 471.807 40.043 472.648C39.9163 473.221 39.8945 473.867 40.0561 474.427C40.4228 475.726 41.6498 476.567 42.807 477.315C41.8114 478.096 40.7809 479.102 40.9468 480.334C41.0211 480.894 41.4403 481.349 41.7852 481.807C42.6716 482.988 43.6585 484.088 44.7501 485.094" fill="#95BECE"/>
<path d="M43.2919 468.329C41.3575 469.089 39.5803 470.932 39.327 473C39.0432 475.298 40.6851 476.703 42.4753 477.867C42.4317 477.531 42.388 477.2 42.3443 476.865C41.0693 477.875 39.6895 479.446 40.5322 481.136C40.9252 481.918 41.5977 482.64 42.1609 483.315C42.8203 484.1 43.5321 484.843 44.2875 485.548C44.8988 486.113 45.8245 485.217 45.2132 484.648C44.0386 483.557 42.9862 482.359 42.0343 481.077C41.6064 480.504 41.4448 479.981 41.7942 479.319C42.1435 478.656 42.7155 478.211 43.2701 477.769C43.6194 477.493 43.4535 476.975 43.1391 476.767C41.8073 475.905 40.4318 474.911 40.6152 473.179C40.7767 471.65 42.209 470.117 43.6368 469.557C44.4097 469.255 44.0691 468.019 43.2875 468.329H43.2919Z" fill="#333333"/>
<path d="M45.2039 469.569C44.9288 470.436 44.5576 471.302 44.5445 472.206C44.5314 473.183 44.7454 474.27 45.3873 475.022C45.9462 475.68 46.8413 475.892 47.7234 475.93C48.5705 475.964 49.4089 475.722 50.1337 475.298C50.876 474.86 51.5747 474.372 52.1161 473.71C52.6489 473.056 53.0855 472.295 53.5353 471.586C53.6139 473.281 54.1248 474.245 55.5002 475.306C55.8364 475.565 56.1683 475.794 56.57 475.943C57.6398 476.342 58.8537 476.058 59.6921 475.302C60.5305 474.546 60.8929 473.446 60.9584 472.338C61.0239 471.23 60.7445 470.164 60.3471 469.119" fill="#FCFCFC"/>
<path d="M44.5756 469.404C44.0909 470.907 43.6674 472.3 44.0909 473.875C44.4621 475.247 45.4358 476.245 46.8943 476.487C48.44 476.746 49.8199 476.317 51.0905 475.463C52.4616 474.542 53.2476 473.272 54.1035 471.913L52.8808 471.591C52.9551 472.894 53.3088 474.07 54.2345 475.047C55.2693 476.138 56.6579 476.975 58.2342 476.703C59.8106 476.431 60.9109 475.238 61.3651 473.816C61.8803 472.198 61.5703 470.508 60.9895 468.954C60.7057 468.189 59.4394 468.52 59.7276 469.293C60.1817 470.508 60.5005 471.79 60.2123 473.081C59.9634 474.189 59.256 475.204 58.0552 475.451C56.8544 475.697 55.9069 474.928 55.1689 474.151C54.4877 473.433 54.2519 472.55 54.1995 471.595C54.1646 470.971 53.3306 470.72 52.9769 471.272C52.3088 472.334 51.7062 473.438 50.6626 474.202C49.6976 474.911 48.6322 475.417 47.3964 475.281C46.2262 475.153 45.5712 474.474 45.3136 473.374C45.0166 472.092 45.4446 470.954 45.8376 469.743C46.0908 468.958 44.8289 468.622 44.5756 469.404Z" fill="#333333"/>
<path d="M75.4293 445.127C74.7001 445.127 74.0102 445.335 73.377 445.599C73.0975 444.622 72.7919 443.662 72.3771 442.749C71.9579 441.824 71.5038 440.906 70.9579 440.061C70.4121 439.216 69.7178 438.443 69.0497 437.679C68.3817 436.911 67.731 436.108 66.9582 435.446C66.1853 434.779 65.2421 434.316 64.3775 433.764C63.5129 433.212 62.6309 432.715 61.6877 432.29C60.7576 431.87 59.8319 431.403 58.8363 431.114C57.8408 430.825 56.8277 430.681 55.7928 430.537C54.7842 430.397 53.7537 430.333 52.7057 430.333C51.6577 430.333 50.6228 430.371 49.6142 430.515C48.5793 430.66 47.5706 430.889 46.5881 431.174C45.6057 431.458 44.5882 431.751 43.6582 432.172C42.715 432.596 41.8722 433.199 41.012 433.751C40.1518 434.303 39.3484 434.932 38.5755 435.598C37.8026 436.265 37.021 436.923 36.3529 437.692C35.6848 438.46 34.9993 439.225 34.4491 440.078C33.8989 440.932 33.5146 441.875 33.0954 442.8C32.6762 443.726 32.2789 444.609 31.9994 445.586C31.3532 445.31 30.6764 445.174 29.9253 445.174C28.9603 445.174 28.0695 445.471 27.2923 445.909C26.4932 446.363 25.7945 446.987 25.3317 447.768C24.8688 448.55 24.668 449.416 24.668 450.354C24.668 451.293 25.0042 452.117 25.454 452.873C25.9168 453.654 26.4364 454.444 27.2355 454.898C28.0346 455.352 28.9647 455.463 29.9297 455.463C30.5279 455.463 31.0563 455.446 31.5933 455.268C31.8029 456.329 32.1916 457.306 32.5584 458.308C32.9295 459.323 33.3443 460.308 33.864 461.246C34.3836 462.185 34.9469 463.115 35.6106 463.964C36.2743 464.818 36.9686 465.663 37.7589 466.406C38.5493 467.149 39.4881 467.726 40.3876 468.346C41.2828 468.962 42.1342 469.667 43.1211 470.147C44.1079 470.627 45.1559 470.971 46.2082 471.298C47.2475 471.62 48.3479 471.726 49.4439 471.892C50.5137 472.053 51.5966 472.164 52.7144 472.164C53.8323 472.164 54.9283 472.155 55.9981 471.994C57.0985 471.828 58.2032 471.692 59.2424 471.374C60.2991 471.047 61.3253 470.618 62.3034 470.143C63.2902 469.663 64.1286 468.945 65.0238 468.325C65.9233 467.705 66.8097 467.085 67.5957 466.342C68.3817 465.599 69.2069 464.869 69.8707 464.015C70.5344 463.162 71.0671 462.219 71.5911 461.276C72.1151 460.333 72.4819 459.336 72.853 458.321C73.2198 457.323 73.6346 456.355 73.8442 455.297C74.3639 455.463 74.866 455.505 75.4424 455.505C76.4074 455.505 77.2851 455.225 78.0623 454.788C78.8614 454.333 79.4684 453.671 79.9312 452.89C80.381 452.134 80.6866 451.301 80.6866 450.363C80.6866 449.425 80.4465 448.558 80.0011 447.798C79.5382 447.017 78.8789 446.367 78.0798 445.913C77.2807 445.458 76.4074 445.136 75.4424 445.136L75.4293 445.127Z" fill="#FFE6D9"/>
<path d="M75.429 444.49C74.6474 444.511 73.9182 444.694 73.2021 444.983C73.4728 445.131 73.7392 445.28 74.0099 445.429C73.4946 443.645 72.8091 441.921 71.8659 440.303C70.9664 438.758 69.7044 437.399 68.5036 436.07C67.2635 434.698 65.7178 433.806 64.1371 432.855C62.6131 431.938 60.9058 431.084 59.1941 430.549C57.3733 429.98 55.3384 429.755 53.4346 429.7C51.5308 429.645 49.5134 429.789 47.6009 430.239C45.815 430.66 43.9635 431.182 42.3828 432.108C40.8109 433.025 39.335 434.087 37.9639 435.267C36.4531 436.567 35.0208 438.01 33.9292 439.675C33.3703 440.528 32.9773 441.467 32.5624 442.388C32.1171 443.382 31.6673 444.371 31.3616 445.412L32.1694 444.966C30.353 444.227 28.2919 444.482 26.6588 445.531C25.0388 446.571 24.0913 448.193 24.004 450.074C23.921 451.811 24.8904 453.786 26.2047 454.949C27.5933 456.176 30.0036 456.406 31.7503 455.875C31.4795 455.726 31.2132 455.577 30.9424 455.429C31.3267 457.289 32.0821 459.178 32.9292 460.89C33.7851 462.618 34.8898 464.206 36.1561 465.667C36.7805 466.389 37.4574 467.055 38.2259 467.629C38.9944 468.202 39.8066 468.712 40.5838 469.272C41.3742 469.841 42.1558 470.406 43.0466 470.813C43.9373 471.221 44.9417 471.569 45.9154 471.871C46.9022 472.172 47.9197 472.304 48.9414 472.453C49.9457 472.597 50.95 472.737 51.9675 472.78C54.0634 472.864 56.1506 472.682 58.2073 472.278C60.1329 471.901 62.1678 471.098 63.7746 469.998C65.3422 468.924 66.936 467.824 68.3202 466.525C69.1106 465.786 69.8835 465.043 70.5341 464.181C71.1847 463.319 71.7262 462.372 72.2283 461.425C72.713 460.512 73.0754 459.539 73.4335 458.571C73.8134 457.544 74.2326 456.529 74.4553 455.454L73.6475 455.9C77.0403 456.907 80.634 454.609 81.2322 451.246C81.8435 447.815 78.9659 444.567 75.4203 444.486C74.5775 444.465 74.5775 445.739 75.4203 445.76C78.1669 445.824 80.4855 448.414 79.9353 451.085C79.3982 453.701 76.6691 455.463 73.9968 454.673C73.6737 454.58 73.2588 454.788 73.189 455.119C73.0099 455.977 72.7086 456.796 72.3986 457.62C72.0842 458.452 71.8004 459.297 71.4292 460.108C70.6869 461.735 69.7044 463.348 68.4294 464.631C67.805 465.263 67.15 465.888 66.4645 466.457C65.7789 467.026 65.0104 467.523 64.2768 468.053C63.5432 468.584 62.8402 469.136 62.0324 469.548C61.1372 470.002 60.1984 470.389 59.2422 470.699C55.5655 471.884 51.5046 471.658 47.7494 471.005C45.9154 470.686 43.9723 470.028 42.4221 469.017C41.6405 468.508 40.9069 467.934 40.1341 467.416C39.3612 466.898 38.6363 466.393 37.9901 465.756C36.5491 464.338 35.3701 462.682 34.4051 460.924C33.9117 460.028 33.5187 459.093 33.165 458.138C32.8113 457.183 32.4183 456.142 32.2 455.098C32.1302 454.766 31.7153 454.554 31.3922 454.652C30.0473 455.059 28.043 454.949 26.9994 453.938C25.9995 452.97 25.2397 451.463 25.3052 450.078C25.4537 446.949 28.8945 445.017 31.8027 446.202C32.1302 446.337 32.5188 446.053 32.6105 445.756C33.0908 444.125 33.8331 442.469 34.6584 440.974C35.4575 439.522 36.6452 438.184 37.8722 437.059C39.1298 435.904 40.4572 434.872 41.8938 433.934C42.6186 433.458 43.3479 432.987 44.1513 432.643C44.9286 432.312 45.7495 432.074 46.566 431.84C50.1291 430.804 53.8189 430.736 57.4562 431.441C59.1679 431.772 60.7705 432.503 62.3031 433.301C63.0716 433.7 63.7921 434.172 64.5344 434.613C65.2767 435.055 66.0016 435.454 66.6304 436.019C67.3465 436.66 67.9491 437.407 68.5779 438.129C69.211 438.855 69.8616 439.573 70.3856 440.384C71.4642 442.049 72.1978 443.883 72.7392 445.768C72.8265 446.07 73.2152 446.346 73.547 446.214C74.154 445.968 74.7653 445.785 75.4246 445.768C76.2674 445.747 76.2674 444.473 75.4246 444.494L75.429 444.49Z" fill="#333333"/>
<path d="M47.3389 448.121C47.3389 448.881 46.7931 449.458 46.0115 449.458C45.2299 449.458 44.6055 448.881 44.6055 448.121C44.6055 447.361 45.2299 446.635 46.0115 446.635C46.7931 446.635 47.3389 447.361 47.3389 448.121Z" fill="#333333"/>
<path d="M60.8233 448.121C60.8233 448.881 60.1684 449.467 59.3911 449.467C58.6139 449.467 57.9414 448.881 57.9414 448.121C57.9414 447.361 58.6139 446.715 59.3911 446.715C60.1684 446.715 60.8233 447.361 60.8233 448.121Z" fill="#333333"/>
<path d="M52.0812 449.45C52.1991 449.378 52.3214 449.314 52.448 449.259L52.2908 449.323C52.4262 449.272 52.5659 449.229 52.71 449.212L52.5354 449.233C52.6533 449.221 52.7668 449.221 52.8803 449.233L52.7057 449.212C52.8323 449.229 52.9502 449.263 53.0681 449.31L52.9109 449.246C53.0463 449.301 53.1685 449.378 53.282 449.463L53.1511 449.365L53.1773 449.386C53.317 449.497 53.4523 449.573 53.6401 449.573C53.8017 449.573 53.9938 449.505 54.103 449.386C54.2121 449.267 54.3038 449.106 54.2951 448.936C54.2864 448.779 54.2383 448.588 54.103 448.486C53.8759 448.312 53.6663 448.185 53.3999 448.083C53.1947 448.002 52.9677 447.964 52.7493 447.96C52.2777 447.947 51.8061 448.117 51.4132 448.359C51.125 448.537 50.9809 448.932 51.1774 449.229C51.3651 449.509 51.7625 449.65 52.0725 449.459L52.0812 449.45Z" fill="#333333"/>
<path d="M43.0203 454.019C43.0203 455.221 42.5837 456.304 41.7802 457.093C40.9768 457.883 39.8589 458.461 38.6276 458.461C37.3962 458.461 36.2347 457.926 35.4269 457.136C34.6234 456.35 34.1475 455.221 34.1475 454.019C34.1475 452.817 34.6627 451.726 35.4662 450.94C36.2696 450.155 37.3918 449.756 38.6232 449.756C39.8546 449.756 40.9069 450.214 41.7147 451.004C42.5225 451.794 43.0203 452.817 43.0203 454.015V454.019Z" fill="#EDBBA6"/>
<path d="M71.2116 454.019C71.2116 455.221 70.7531 456.321 69.9497 457.11C69.1419 457.9 68.0109 458.435 66.7796 458.435C65.5482 458.435 64.391 457.926 63.5832 457.136C62.7798 456.35 62.3213 455.225 62.3213 454.023C62.3213 452.822 62.8322 451.747 63.6356 450.957C64.4434 450.168 65.5482 449.552 66.7796 449.552C68.0109 449.552 69.0982 450.185 69.9016 450.974C70.7051 451.764 71.2072 452.817 71.2072 454.019H71.2116Z" fill="#EDBBA6"/>
<path d="M70.3336 446.35C71.5649 447.081 73.0889 447.301 73.7002 445.611C73.805 445.323 73.7788 444.97 73.7744 444.664C73.7613 443.688 73.6652 442.703 73.4906 441.747C73.3116 440.783 72.888 439.883 72.5343 438.978C72.1763 438.061 71.7745 437.182 71.2374 436.367C70.7004 435.552 70.1633 434.707 69.434 434.031C68.7005 433.348 67.897 432.719 67.0543 432.163C66.2159 431.611 65.2945 431.165 64.3819 430.732C63.4693 430.299 62.5349 429.895 61.5742 429.573C60.6092 429.25 59.6005 429.08 58.6137 428.868C57.6138 428.647 56.6051 428.541 55.6095 428.422C54.5877 428.303 53.5659 428.163 52.5354 428.167C51.5049 428.171 50.4788 428.261 49.457 428.397C48.4352 428.537 47.4528 428.808 46.4572 429.08C45.562 429.326 44.6232 429.543 43.7062 429.87C42.8111 430.188 41.8941 430.494 41.047 430.919C40.1868 431.352 39.4488 431.951 38.7065 432.524C37.8594 433.178 36.9992 433.819 36.2656 434.605C35.532 435.39 34.8989 436.244 34.257 437.097C33.9208 437.543 33.3618 438.473 32.7986 439.569C32.375 440.397 31.8554 441.28 31.5628 442.163C31.2091 443.238 31.0694 444.274 31.279 444.991C31.5148 445.798 32.2527 446.21 33.7417 445.917C34.6194 445.747 35.5015 445.407 36.401 444.996C37.2263 444.618 38.0603 444.172 38.8681 443.654C39.6541 443.157 40.392 442.571 41.1343 442.006C41.8767 441.441 42.6495 440.864 43.3351 440.274C44.0905 439.628 44.8066 439.131 45.4398 438.554C45.1778 439.153 45.6013 439.709 46.1734 440.049C46.7454 440.388 47.4135 440.388 48.0859 440.38C49.2037 440.367 50.3129 440.316 51.4001 440.066C52.4874 439.815 53.4917 439.352 54.5004 438.881C55.5047 438.409 56.5003 437.985 57.378 437.31C57.2863 438.133 57.7404 438.792 58.3299 439.386C58.9194 439.981 59.6136 440.431 60.4389 440.511C61.2642 440.592 62.1113 440.422 62.8755 440.061C63.6396 439.7 64.299 439.182 64.8535 438.575C64.4474 439.021 65.2683 440.414 66.1984 441.768C67.0892 443.063 68.0149 444.405 68.3075 444.711C68.7398 445.161 69.5083 445.866 70.3205 446.346L70.3336 446.35Z" fill="#333333"/>
<path d="M70.0015 446.902C70.8442 447.386 71.9009 447.747 72.8659 447.395C74.0406 446.966 74.4554 445.785 74.4335 444.66C74.403 443.178 74.2589 441.662 73.748 440.261C73.2458 438.885 72.7044 437.458 71.914 436.206C71.1848 435.051 70.3945 433.972 69.3421 433.072C68.2112 432.104 66.9754 431.284 65.6349 430.613C64.2944 429.942 62.849 429.263 61.3688 428.83C59.8885 428.396 58.3427 428.116 56.8188 427.921C55.2949 427.726 53.6967 427.492 52.1291 427.534C50.6008 427.577 49.0638 427.755 47.5792 428.12C44.6667 428.847 41.5446 429.585 39.1255 431.399C37.9814 432.256 36.785 433.11 35.8113 434.155C34.8899 435.135 34.0122 436.235 33.3005 437.369C32.5887 438.503 31.8945 439.789 31.3268 441.042C30.7591 442.295 30.3269 443.696 30.6238 445.017C31.3312 448.142 35.9466 445.981 37.6278 445.11C39.1866 444.303 40.549 443.259 41.9332 442.206C43.3174 441.153 44.6579 440.133 45.9155 439C45.5487 438.792 45.1863 438.588 44.8195 438.38C44.4265 439.509 45.3697 440.494 46.4133 440.838C46.9809 441.025 47.6054 441.021 48.1992 441.012C48.9284 441 49.6576 440.97 50.3825 440.881C51.7056 440.719 52.9195 440.299 54.1246 439.76C55.356 439.208 56.6311 438.668 57.7096 437.862C57.3821 437.679 57.0546 437.496 56.7227 437.31C56.6092 439.017 58.3471 440.753 60.002 441.085C62.015 441.488 63.9887 440.435 65.3118 439.025L64.2813 438.252C63.8315 438.86 64.2332 439.717 64.5214 440.295C65.0149 441.28 65.6873 442.184 66.3161 443.093C66.7789 443.764 67.2287 444.469 67.7702 445.085C68.3902 445.79 69.1762 446.401 69.9796 446.894C70.6958 447.331 71.3551 446.231 70.639 445.794C69.3465 445.004 68.5081 443.976 67.6654 442.766C67.1283 441.998 66.5781 441.233 66.089 440.435C65.8794 440.095 65.6698 439.747 65.5214 439.382C65.4733 439.259 65.4471 439.131 65.3991 439.008C65.386 438.961 65.3816 438.915 65.386 438.868C65.3424 438.974 65.3467 438.983 65.4035 438.893C65.8358 438.303 64.8708 437.59 64.373 438.121C63.3992 439.161 62.0325 440.032 60.5217 439.874C59.334 439.751 57.941 438.52 58.0196 437.305C58.0502 436.859 57.4258 436.465 57.0328 436.753C56.2031 437.373 55.2731 437.806 54.3342 438.244C53.3823 438.685 52.4304 439.136 51.4043 439.399C50.7187 439.573 45.4876 440.354 46.0596 438.715C46.2779 438.082 45.4177 437.688 44.9636 438.095C44.0073 438.961 42.9593 439.764 41.9419 440.562C40.9245 441.361 39.8198 442.248 38.6888 442.987C37.5579 443.726 36.3353 444.376 35.0602 444.851C34.3485 445.119 32.8551 445.743 32.1346 445.191C31.8464 444.97 31.8159 444.55 31.8159 444.223C31.8159 443.577 31.9687 442.932 32.1739 442.32C32.5756 441.119 33.2699 439.959 33.8943 438.851C35.0689 436.77 36.6365 434.91 38.5447 433.424C39.5534 432.639 40.5403 431.819 41.7149 431.284C42.9593 430.715 44.3042 430.295 45.6317 429.942C46.946 429.594 48.2516 429.186 49.6052 428.999C50.972 428.813 52.3649 428.732 53.7404 428.842C56.4084 429.059 59.2292 429.403 61.7487 430.307C64.2463 431.199 66.6916 432.46 68.6566 434.214C69.6827 435.131 70.4905 436.316 71.1324 437.513C71.4905 438.184 71.7656 438.889 72.0494 439.59C72.3289 440.286 72.6214 440.983 72.783 441.713C72.9402 442.418 73.0144 443.148 73.0581 443.87C73.093 444.46 73.2109 445.17 72.9052 445.709C72.3987 446.596 71.342 446.206 70.6303 445.794C69.901 445.373 69.2417 446.478 69.9709 446.894L70.0015 446.902Z" fill="#333333"/>
<path d="M50.6147 455.972C52.0076 456.592 53.6058 456.626 55.0118 456.023C55.6581 455.747 56.4965 455.268 57.051 454.58C57.6056 453.892 57.9636 453 57.7715 452.24C57.4702 451.042 55.9943 451.284 55.0511 451.306C53.6451 451.34 52.2347 451.327 50.8243 451.327C49.5449 451.327 47.7939 450.775 47.8769 452.665C47.9467 454.214 49.1912 455.335 50.6147 455.972Z" fill="#FCFCFC"/>
<path d="M50.2825 456.52C52.3785 457.416 54.7277 457.204 56.5835 455.87C57.4699 455.234 58.2035 454.312 58.4131 453.242C58.579 452.393 58.3781 451.416 57.5572 450.953C56.876 450.567 56.0508 450.626 55.291 450.66C54.0596 450.711 52.8195 450.694 51.5881 450.69C50.7978 450.69 49.9943 450.588 49.204 450.618C48.4704 450.643 47.763 450.881 47.4181 451.56C46.9639 452.469 47.274 453.692 47.798 454.507C48.3787 455.416 49.2957 456.074 50.2782 456.524C51.038 456.873 51.7017 455.773 50.9375 455.425C49.7498 454.881 48.3394 453.824 48.5272 452.367C48.5796 451.938 48.8459 451.896 49.2477 451.887C49.7716 451.875 50.2913 451.955 50.8153 451.96C52.5575 451.981 54.2998 451.892 56.042 451.904C56.5005 451.904 57.0376 451.934 57.1424 452.456C57.2821 453.183 56.7713 453.985 56.2647 454.473C54.8849 455.803 52.7147 456.18 50.9419 455.425C50.1777 455.098 49.5097 456.193 50.2825 456.524V456.52Z" fill="#333333"/>
<path d="M46.0117 443.722C46.2213 443.845 46.4178 443.985 46.6143 444.129L46.4833 444.032C46.9592 444.393 47.4134 444.783 47.9112 445.114C48.0465 445.204 48.2648 445.221 48.4177 445.178C48.5705 445.136 48.7364 445.025 48.8107 444.885C48.9853 444.562 48.8762 444.214 48.5749 444.015C48.4482 443.93 48.3216 443.841 48.1994 443.747L48.3303 443.845C47.7845 443.433 47.2693 442.974 46.6798 442.622C46.3872 442.448 45.9462 442.55 45.7846 442.851C45.6231 443.153 45.706 443.535 46.0204 443.722H46.0117Z" fill="#333333"/>
<path d="M40.506 474.843C40.4449 475.23 40.2877 475.599 40.1786 475.977C39.9821 476.678 39.7288 477.383 39.2092 477.905C38.4057 478.707 37.301 479.077 36.1438 479.056C34.9998 479.039 33.7903 478.733 32.8384 478.419C32.1004 478.177 31.3974 477.676 31.1878 476.945C31.1136 476.682 31.0786 476.423 31.0917 476.151C31.1398 475.073 31.0524 474.011 31.0612 472.954C31.0699 471.888 31.1529 470.83 31.0917 469.76C31.035 468.75 31.0088 466.351 32.3973 466.113C32.9475 466.019 33.5719 466.389 33.8296 466.873C34.0872 467.353 34.061 467.951 34.0916 468.495C34.144 469.353 34.2488 470.227 34.3012 471.085C34.1833 470.436 34.764 469.654 35.4408 469.718C36.0391 469.777 36.3316 470.414 36.4757 470.877C36.7464 470.61 37.122 470.533 37.515 470.576C38.0346 470.635 38.5542 471.051 38.349 471.518C38.8031 471.378 39.2048 471.353 39.6546 471.518C40.3969 471.79 40.5104 472.656 40.4973 473.429C40.4886 473.901 40.5759 474.376 40.5017 474.843H40.506Z" fill="#FFE6D9"/>
<path d="M39.8726 474.678C39.7067 475.514 39.4447 476.576 38.912 477.268C38.388 477.943 37.5103 478.321 36.6589 478.406C35.7244 478.499 34.755 478.304 33.8599 478.062C33.1176 477.862 32.1438 477.629 31.8425 476.843C31.6679 476.38 31.7639 475.833 31.7639 475.353C31.7639 474.822 31.7377 474.287 31.7246 473.756C31.7028 472.724 31.7683 471.697 31.7683 470.669C31.7683 469.569 31.4626 468.079 32.0914 467.081C32.5587 466.342 33.301 467.026 33.3883 467.667C33.4625 468.202 33.4494 468.758 33.4975 469.293C33.5499 469.892 33.6066 470.491 33.6459 471.09H34.9559C34.9297 470.856 35.017 470.329 35.3751 470.359C35.6414 470.38 35.7812 470.856 35.8467 471.051C36.0039 471.527 36.5628 471.65 36.9427 471.332C37.0475 471.247 37.7854 471.132 37.7199 471.353C37.5846 471.82 38.0474 472.266 38.5277 472.138C39.2046 471.952 39.698 472.083 39.8115 472.792C39.9163 473.438 39.9207 474.206 39.8508 474.848C39.7591 475.663 41.0691 475.654 41.1608 474.848C41.2219 474.287 41.1739 473.705 41.1521 473.14C41.1346 472.678 41.0691 472.198 40.8464 471.782C40.3355 470.809 39.174 470.635 38.1784 470.907L38.9862 471.692C39.1958 470.975 38.7679 470.346 38.0824 470.075C37.3968 469.803 36.5977 469.947 36.0213 470.431L37.1173 470.712C36.8423 469.871 36.2571 469 35.231 469.094C34.2572 469.183 33.5586 470.172 33.659 471.085C33.7464 471.884 35.0214 471.918 34.969 471.085C34.9253 470.419 34.8555 469.756 34.8031 469.089C34.755 468.503 34.7681 467.905 34.6677 467.327C34.4887 466.283 33.5542 465.365 32.4058 465.48C30.5937 465.658 30.3972 467.951 30.4278 469.315C30.4496 470.431 30.4409 471.54 30.419 472.661C30.4059 473.293 30.4278 473.922 30.4452 474.55C30.4627 475.213 30.3972 475.896 30.4627 476.555C30.5719 477.684 31.3316 478.495 32.3796 478.924C33.4887 479.374 34.7594 479.642 35.9602 479.688C37.161 479.735 38.4666 479.387 39.4273 478.584C40.449 477.727 40.8944 476.262 41.1433 475.013C41.3005 474.211 40.0386 473.871 39.8814 474.673L39.8726 474.678Z" fill="#333333"/>
<path d="M63.0506 486.712C63.6182 487.421 64.2383 488.075 64.9849 488.61C65.7273 489.141 66.6049 489.451 67.4564 489.765C67.7795 489.884 68.19 489.633 68.2642 489.319C68.3472 488.958 68.1507 488.661 67.8057 488.534C67.0329 488.249 66.343 488.003 65.6443 487.506C65.6356 487.497 65.557 487.442 65.605 487.48C65.5657 487.451 65.5308 487.421 65.4958 487.391C65.4129 487.323 65.3299 487.255 65.2513 487.183C65.0985 487.052 64.9544 486.911 64.8147 486.767C64.5177 486.461 64.2426 486.139 63.9763 485.807C63.7667 485.544 63.2689 485.574 63.0506 485.807C62.7842 486.088 62.8235 486.427 63.0506 486.708V486.712Z" fill="#333333"/>
<path d="M38.3403 481.056C38.4189 482.151 38.6896 483.221 38.7595 484.317C38.8293 485.412 38.7638 486.508 38.8293 487.599C38.8774 488.415 40.1873 488.419 40.1393 487.599C40.0738 486.504 40.1393 485.408 40.0694 484.317C39.9952 483.221 39.7288 482.147 39.6502 481.056C39.624 480.712 39.3664 480.419 38.9953 480.419C38.659 480.419 38.3141 480.712 38.3403 481.056Z" fill="#333333"/>
<path d="M66.0278 485.71C66.7439 485.022 67.2505 483.922 67.6042 482.763C67.9971 481.476 68.3334 480.198 68.3639 479.451C68.3901 478.814 68.4032 478.155 68.067 477.608C67.6959 477 66.8662 476.86 66.6217 476.104C66.4994 475.727 66.578 475.268 66.2898 474.988C65.9187 474.627 65.2855 474.733 64.9143 475.094C64.5432 475.455 64.4952 475.977 64.4952 476.487C64.4952 476.58 64.4166 476.695 64.3467 476.767C64.255 476.865 64.0585 476.894 63.9275 476.856C62.9538 476.589 62.2071 475.888 61.1591 475.807C60.5172 475.756 59.8142 475.93 59.5347 476.499C59.2553 477.068 59.74 477.96 60.3819 477.96C59.8753 477.803 59.2684 478.054 59.0981 478.542C58.9278 479.03 59.0588 479.612 59.5566 479.79C59.1156 479.879 58.7269 480.245 58.6833 480.678C58.6396 481.111 58.9584 481.493 59.3732 481.659C58.7444 481.659 58.3208 482.457 58.4169 483.056C58.5173 483.659 59.0108 484.164 59.4911 484.555C60.1897 485.12 61.0499 485.438 61.8971 485.761C62.7442 486.083 63.6044 486.287 64.5083 486.338C65.1196 486.372 65.5737 486.147 66.0235 485.714L66.0278 485.71Z" fill="#FFE6D9"/>
<path d="M66.4907 486.16C67.8793 484.767 68.4076 482.648 68.8137 480.805C68.9971 479.969 69.1107 479.09 68.9709 478.24C68.8181 477.306 68.2854 476.894 67.5911 476.33C66.9361 475.799 67.3029 474.839 66.5169 474.346C65.8095 473.905 64.8533 474.164 64.3424 474.767C64.0498 475.111 63.9188 475.535 63.8708 475.977C63.8708 476.011 63.8708 476.27 63.8446 476.313C63.9537 476.138 63.9887 476.274 63.7922 476.134C63.6088 476.003 63.3337 475.922 63.1285 475.82C62.3207 475.412 61.4997 475.068 60.5697 475.187C59.6876 475.302 58.8187 475.896 58.8099 476.839C58.8012 477.782 59.4736 478.512 60.3906 478.593C61.1286 478.657 61.2727 477.51 60.5653 477.34C59.7356 477.145 58.8274 477.48 58.5086 478.291C58.2117 479.043 58.4562 479.973 59.2335 480.338L59.3907 479.175C57.858 479.599 57.5611 481.506 59.0501 482.211L59.382 481.022C58.3907 481.111 57.7314 481.981 57.7576 482.933C57.7925 484.083 58.8929 485.018 59.8361 485.553C60.8753 486.139 62.1154 486.601 63.29 486.822C64.5214 487.056 65.5432 487.035 66.4907 486.164C67.1064 485.599 66.1763 484.699 65.565 485.264C64.9624 485.816 64.3162 485.731 63.5433 485.578C62.7704 485.425 62.0325 485.153 61.3076 484.848C60.6221 484.559 59.9409 484.194 59.4431 483.638C59.2422 483.412 59.0326 483.128 59.0588 482.809C59.0719 482.665 59.1855 482.313 59.3689 482.296C59.954 482.245 60.3382 481.412 59.7007 481.107C59.2815 480.907 59.2248 480.538 59.7269 480.398C60.2291 480.257 60.4081 479.48 59.8841 479.234C59.4431 479.03 59.7531 478.461 60.2072 478.567C60.264 478.151 60.3251 477.735 60.3819 477.315C60.1854 477.298 60.0719 476.92 60.1243 476.771C60.2291 476.461 60.74 476.423 61.0107 476.431C61.8403 476.457 62.5433 477.005 63.2857 477.302C64.2419 477.684 65.0672 477.378 65.1502 476.313C65.172 476.049 65.2244 475.349 65.6698 475.4C65.9842 475.434 65.9056 475.96 65.9711 476.202C66.1851 476.983 66.8182 477.238 67.3509 477.761C67.9011 478.3 67.757 479.37 67.6304 480.054C67.4514 481.03 67.1763 482.003 66.8575 482.941C66.5737 483.778 66.1982 484.623 65.5606 485.26C64.9755 485.85 65.8969 486.75 66.4864 486.16H66.4907Z" fill="#333333"/>
</g>
<defs>
<clipPath id="clip0_40_1365">
<rect width="57.3243" height="91.9083" fill="white" transform="translate(24 427.53)"/>
</clipPath>
</defs>
</svg>
