<svg width="320" height="540" viewBox="0 0 320 540" fill="none" xmlns="http://www.w3.org/2000/svg">
<g clip-path="url(#clip0_40_1147)">
<path d="M53.5596 502.608C54.763 502.6 55.9316 502.587 57.0783 502.613C58.2513 502.643 59.4111 502.682 60.584 502.696C61.7308 502.709 62.8819 502.765 64.081 502.717C64.0897 503.415 64.142 505.457 64.1595 506.43C64.1595 506.53 64.1202 506.621 64.1246 506.696C64.1333 507.25 64.2031 507.865 64.456 508.305C64.7961 508.907 65.4458 509.086 65.9647 509.383C66.4835 509.679 67.0809 510.312 66.9981 511.058C66.0693 511.123 65.097 511.171 64.1639 511.21C63.2307 511.25 62.2976 511.184 61.3645 511.202C60.4314 511.219 59.5027 511.372 58.5696 511.363C57.6365 511.354 56.7121 511.141 55.779 511.11C55.3517 511.097 54.9461 511.097 54.5842 510.787C54.0392 510.32 53.8517 509.422 53.7296 508.576C53.7165 508.493 53.7471 508.406 53.7383 508.31C53.6686 507.599 53.6337 506.53 53.6424 505.47C53.6511 504.358 53.625 503.25 53.5639 502.617L53.5596 502.608Z" fill="#333333"/>
<path d="M53.5604 503.263C57.0617 503.241 60.5805 503.503 64.0818 503.372L63.4278 502.717C63.4409 503.428 63.4583 504.135 63.4714 504.846C63.4888 505.623 63.4191 506.438 63.4976 507.206C63.5891 508.122 63.8943 508.925 64.6879 509.448C65.3289 509.871 66.3841 510.102 66.3405 511.058L66.9945 510.403C65.185 510.525 63.3929 510.53 61.579 510.543C60.6459 510.547 59.7172 510.691 58.7841 510.704C57.9076 510.717 57.0487 510.543 56.1766 510.473C55.8626 510.447 55.4746 510.504 55.1824 510.386C54.8554 510.251 54.7028 509.88 54.6025 509.566C54.3845 508.885 54.3671 508.192 54.3322 507.485C54.2493 505.862 54.3583 504.231 54.2144 502.608C54.1403 501.775 52.8322 501.766 52.9064 502.608C53.0633 504.401 52.9194 506.203 53.0546 507.995C53.1636 509.418 53.386 511.428 55.1301 511.703C55.9935 511.843 56.896 511.873 57.7681 511.961C58.832 512.065 59.8698 511.921 60.9337 511.865C61.9366 511.812 62.9438 511.891 63.9467 511.865C64.9626 511.838 65.9829 511.773 66.9945 511.708C67.3608 511.681 67.6311 511.428 67.6486 511.053C67.6878 510.142 67.1384 509.365 66.4015 508.881C66.0658 508.663 65.6734 508.545 65.3463 508.31C64.9713 508.039 64.8536 507.642 64.8013 507.197C64.7141 506.46 64.7969 505.662 64.7795 504.911C64.762 504.179 64.7446 503.446 64.7315 502.709C64.7272 502.364 64.435 502.041 64.0775 502.054C60.5805 502.185 57.0617 501.923 53.556 501.945C52.7145 501.95 52.7145 503.258 53.556 503.254L53.5604 503.263Z" fill="#333333"/>
<path d="M65.1933 484.462C65.1497 486.137 65.0276 486.133 64.984 487.808C64.9404 489.483 65.0189 489.483 64.9753 491.158C64.9317 492.833 64.7791 492.829 64.7354 494.504C64.6918 496.179 64.718 496.179 64.6744 497.854C64.6308 499.529 64.7267 499.529 64.6831 501.204C64.6395 502.879 64.7093 502.879 64.6657 504.558C64.6221 506.238 64.5218 506.229 64.4782 507.908C64.4651 508.344 64.1817 508.65 63.8241 508.654C62.1934 508.654 62.1934 508.667 60.567 508.672C58.9362 508.672 58.9362 508.693 57.3055 508.698C55.6747 508.698 55.6747 508.672 54.044 508.676C53.6821 508.676 53.4597 508.353 53.4597 507.908C53.4597 506.416 53.3899 506.416 53.3899 504.925C53.3899 503.433 53.3507 503.433 53.3507 501.941C53.3507 500.449 53.4902 500.449 53.4858 498.957C53.4815 497.465 53.3899 497.465 53.3856 495.974C53.3856 494.482 53.2329 494.482 53.2286 492.99C53.2242 491.498 53.4292 491.498 53.4248 490.006C53.4248 488.514 53.2373 488.514 53.2373 487.018C53.2373 485.526 53.4074 485.526 53.403 484.03" fill="#AFAFAF"/>
<path d="M64.539 484.462C64.5128 485.343 64.4038 486.216 64.3559 487.092C64.3035 488.035 64.321 488.972 64.3297 489.915C64.3515 491.865 64.0768 493.793 64.0506 495.738C63.9983 499.376 64.1422 503.027 63.8762 506.656C63.8631 506.857 63.8501 507.062 63.8413 507.263C63.8326 507.415 63.9068 507.886 63.789 507.991C63.7629 508.013 63.2571 507.987 63.1001 507.991C62.8516 507.991 62.5987 507.991 62.3501 507.995C61.3778 508.004 60.4054 508 59.4331 508.013C58.5087 508.022 57.5843 508.035 56.6599 508.03C56.2762 508.03 55.8925 508.022 55.5088 508.017C55.3082 508.017 55.1076 508.013 54.9027 508.009C54.8024 508.009 54.7021 508.009 54.5975 508.009C54.4798 508.009 54.3577 508.009 54.2399 508.009C54.0219 507.995 53.9696 507.995 54.0786 508.017C54.1571 508.091 54.1048 507.677 54.1048 507.69C54.1048 507.572 54.1048 507.455 54.1048 507.337C54.1048 507.114 54.096 506.896 54.0873 506.674C54.0699 506.242 54.0481 505.814 54.0437 505.383C54.0306 504.467 54.0176 503.551 54.0045 502.639C53.9914 501.727 54.0655 500.75 54.1178 499.795C54.1702 498.839 54.1004 497.893 54.0568 496.942C54.0088 495.878 53.9565 494.822 53.8998 493.758C53.8431 492.693 54.0219 491.629 54.0655 490.547C54.1091 489.483 53.9216 488.453 53.8911 487.393C53.8562 486.259 54.0481 485.147 54.0524 484.017C54.0524 483.175 52.7487 483.175 52.7443 484.017C52.7443 485.051 52.5699 486.072 52.5787 487.105C52.5874 488.139 52.7705 489.09 52.7662 490.094C52.7618 491.127 52.5569 492.144 52.5699 493.182C52.583 494.181 52.7182 495.167 52.7269 496.166C52.7356 497.16 52.8316 498.155 52.8228 499.149C52.8141 500.144 52.6833 501.134 52.6877 502.133C52.6877 503.127 52.7225 504.122 52.7269 505.116C52.7356 506.081 52.7138 507.097 52.8098 508.057C52.8577 508.567 53.1193 509.051 53.6164 509.239C54.1135 509.426 54.7588 509.317 55.2821 509.326C56.2893 509.339 57.2922 509.348 58.2994 509.339C59.3153 509.33 60.3357 509.322 61.3516 509.313C61.7571 509.313 62.167 509.308 62.5725 509.304C63.0827 509.304 63.6887 509.383 64.1815 509.239C65.3631 508.894 65.1233 507.385 65.2018 506.434C65.2846 505.431 65.3282 504.432 65.3282 503.428C65.3239 501.505 65.2846 499.572 65.3282 497.644C65.3544 496.528 65.35 495.411 65.3893 494.294C65.4241 493.243 65.5942 492.205 65.6247 491.149C65.6552 490.032 65.6029 488.916 65.6334 487.799C65.664 486.682 65.8122 485.574 65.8427 484.453C65.8689 483.611 64.5608 483.611 64.5346 484.453L64.539 484.462Z" fill="#333333"/>
<path d="M41.3158 509.208C41.8347 508.916 42.5454 508.833 42.8899 508.235C43.1428 507.795 43.1079 507.171 43.121 506.617C43.121 506.543 43.1777 506.451 43.1821 506.355C43.2039 505.383 43.2649 503.332 43.2823 502.634C44.4858 502.696 45.6413 502.613 46.788 502.608C47.961 502.604 49.1208 502.569 50.2937 502.547C51.4405 502.525 52.5829 502.643 53.782 502.656C53.7166 503.289 53.7471 504.353 53.7471 505.47C53.7471 506.525 53.6773 507.594 53.6032 508.301C53.5945 508.397 53.5422 508.475 53.5334 508.554C53.4026 509.404 53.359 510.399 52.814 510.866C52.4521 511.175 51.9681 511.197 51.5408 511.206C50.6077 511.232 49.6746 511.245 48.7458 511.245C47.8171 511.245 46.8796 511.25 45.9509 511.228C45.0177 511.206 44.089 511.114 43.1603 511.071C42.2315 511.023 41.3507 510.909 40.422 510.84C40.3479 510.094 40.8057 509.5 41.3246 509.208H41.3158Z" fill="#333333"/>
<path d="M41.6476 509.771C42.3147 509.422 43.056 509.269 43.4571 508.563C43.8278 507.908 43.7667 507.075 43.8365 506.351C43.9586 505.125 43.9063 503.86 43.9368 502.63L43.2827 503.284C45.0269 503.359 46.7928 503.267 48.5413 503.232C50.2898 503.197 52.0295 503.276 53.7824 503.306L53.1283 502.652C52.9844 504.253 53.1283 505.876 53.0193 507.481C52.9714 508.161 52.8667 508.85 52.7315 509.518C52.6792 509.775 52.6312 510.102 52.4481 510.303C52.1996 510.569 51.7635 510.539 51.4365 510.552C49.6095 510.604 47.7782 510.621 45.9512 510.573C44.1243 510.526 42.2624 510.329 40.4224 510.185L41.0764 510.84C41.0546 510.368 41.2552 510.02 41.652 509.771C42.3671 509.33 41.713 508.196 40.9936 508.641C40.2131 509.121 39.7247 509.91 39.7683 510.84C39.7858 511.215 40.0561 511.463 40.4224 511.494C42.4804 511.655 44.5341 511.869 46.5966 511.895C47.5994 511.908 48.6067 511.904 49.6095 511.895C50.5252 511.886 51.5717 511.991 52.4612 511.756C53.2504 511.546 53.717 510.94 53.9263 510.181C54.1181 509.492 54.2271 508.711 54.2925 507.996C54.4539 506.216 54.2838 504.427 54.4408 502.652C54.4713 502.294 54.1138 502.002 53.7867 501.998C52.0339 501.967 50.2985 501.889 48.5456 501.923C46.7971 501.958 45.0312 502.05 43.2871 501.976C42.9295 501.958 42.6418 502.29 42.633 502.63C42.6069 503.716 42.5764 504.807 42.5458 505.893C42.5415 506.142 42.4979 506.368 42.4761 506.613C42.4456 506.944 42.5022 507.289 42.4281 507.616C42.2842 508.275 41.5124 508.366 40.9936 508.637C40.248 509.025 40.9064 510.155 41.652 509.767L41.6476 509.771Z" fill="#333333"/>
<path d="M54.1534 491.585C54.1272 493.221 54.0836 493.221 54.0574 494.853C54.0313 496.488 54.1316 496.488 54.1054 498.124C54.0792 499.76 54.0836 499.76 54.0574 501.391C54.0313 503.023 53.9135 503.023 53.8874 504.658C53.8612 506.294 53.9833 506.294 53.9528 507.93C53.9441 508.375 53.556 508.706 53.1941 508.702C51.5633 508.676 51.5633 508.624 49.9369 508.597C48.3105 508.571 48.3018 508.698 46.6711 508.672C45.0403 508.645 45.0447 508.493 43.4139 508.467C43.0607 508.462 42.8253 508.2 42.8209 507.764C42.7991 506.15 42.6683 506.15 42.6465 504.536C42.6247 502.922 42.677 502.922 42.6552 501.304C42.6334 499.69 42.6683 499.69 42.6465 498.072C42.6247 496.458 42.4895 496.458 42.4677 494.839C42.4459 493.225 42.5331 493.221 42.5113 491.607C42.4895 489.989 42.507 489.989 42.4852 488.375C42.4634 486.761 42.4154 486.761 42.3936 485.143C42.3892 484.689 42.7555 484.301 43.1261 484.305C44.6479 484.318 44.6479 484.292 46.174 484.305C47.7001 484.318 47.7001 484.401 49.2218 484.414C50.748 484.427 50.748 484.418 52.2741 484.432C53.8002 484.445 53.8002 484.471 55.3263 484.484" fill="#AFAFAF"/>
<path d="M53.499 491.585C53.4816 492.606 53.4249 493.627 53.4031 494.648C53.3813 495.668 53.4511 496.589 53.4511 497.561C53.4554 499.598 53.3857 501.627 53.2592 503.66C53.1982 504.672 53.233 505.675 53.2766 506.687C53.2897 506.953 53.4293 507.921 53.2112 508.043C53.0499 508.135 52.5877 508.043 52.3915 508.035C52.1648 508.026 51.9424 508.017 51.7157 508.009C50.6648 507.961 49.614 507.913 48.5631 507.969C47.5123 508.026 46.5443 508.057 45.5327 507.969C45.1534 507.939 44.7784 507.886 44.4034 507.86C44.1156 507.838 43.7842 507.878 43.5052 507.821C43.2959 507.777 43.5052 507.939 43.4659 507.773C43.4223 507.581 43.4572 507.337 43.4485 507.136C43.4049 506.142 43.2959 505.156 43.2872 504.157C43.2741 502.229 43.3177 500.301 43.2959 498.377C43.2872 497.383 43.1651 496.401 43.1258 495.411C43.0866 494.429 43.1433 493.457 43.1564 492.48C43.1869 490.451 43.1433 488.418 43.0692 486.39C43.0604 486.107 43.0517 485.823 43.0474 485.54C43.0474 485.483 43.0125 485.221 43.043 485.151C43.1433 484.924 43.0561 485.003 43.3308 484.968C43.8453 484.907 44.4034 484.968 44.9223 484.968C46.0342 484.959 47.1373 485.007 48.2492 485.055C50.5994 485.16 52.9671 485.125 55.3216 485.147C56.1632 485.156 56.1632 483.847 55.3216 483.838C53.0107 483.816 50.6866 483.838 48.38 483.751C47.3074 483.712 46.2435 483.655 45.1665 483.655C44.7261 483.655 44.29 483.664 43.8496 483.664C43.1912 483.664 42.5852 483.611 42.1099 484.152C41.6782 484.637 41.7349 485.26 41.748 485.867C41.7611 486.333 41.7829 486.8 41.8003 487.267C41.8395 488.344 41.8352 489.422 41.8395 490.499C41.8526 492.663 41.7785 494.805 41.9442 496.964C42.1055 499.101 42.0052 501.287 41.9834 503.428C41.9704 504.536 42.0445 505.618 42.1186 506.722C42.1578 507.298 42.0445 508 42.3453 508.519C42.7029 509.143 43.3351 509.121 43.9674 509.151C45.0575 509.199 46.1301 509.352 47.2289 509.343C48.319 509.335 49.4003 509.247 50.4904 509.278C50.9352 509.291 51.3799 509.313 51.829 509.33C52.3915 509.356 53.0673 509.474 53.6037 509.304C54.8507 508.911 54.6283 507.385 54.5717 506.364C54.5063 505.16 54.5499 503.969 54.6458 502.77C54.7417 501.566 54.7243 500.349 54.7417 499.14C54.7592 497.902 54.7068 496.667 54.7068 495.428C54.7068 494.15 54.7853 492.872 54.8115 491.598C54.8246 490.757 53.5165 490.757 53.5034 491.598L53.499 491.585Z" fill="#333333"/>
<path d="M40.6403 467.655C40.7275 467.11 40.745 466.551 40.8889 466.006C41.1156 465.156 41.338 464.274 41.713 463.48C42.0923 462.678 42.5719 461.901 43.1911 461.265C44.2768 460.148 45.4933 459.965 46.7142 459.877C47.9395 459.79 49.2345 459.899 50.5775 459.616C51.6545 459.389 52.762 459.275 53.8739 459.297C54.9901 459.315 56.102 459.406 57.1659 459.694C57.9987 459.917 59.2763 460.253 60.3969 460.789C61.5742 461.356 62.5727 462.15 62.8038 463.084C63.0567 464.104 63.2311 465.142 63.4448 466.172C63.6584 467.201 63.9985 468.209 64.1729 469.243C64.3473 470.277 64.4215 471.332 64.5566 472.375C64.6918 473.417 64.8619 474.46 64.9534 475.507C65.0493 476.554 64.997 477.609 65.0537 478.661C65.106 479.712 65.2368 480.759 65.2499 481.81C65.263 482.887 65.2412 483.851 64.9752 484.61C64.6962 485.409 64.1032 485.993 62.8517 486.255C61.9492 486.442 61.003 486.556 60.0393 486.599C59.1019 486.643 58.147 486.669 57.2051 486.656C56.2633 486.643 55.2866 486.608 54.3753 486.613C53.3419 486.617 52.3042 486.473 51.2708 486.46C50.2374 486.442 49.1996 486.469 48.1662 486.429C47.1328 486.39 46.0994 486.307 45.066 486.251C43.8364 486.251 42.6025 485.832 41.5952 485.095C40.5662 484.344 39.8206 483.328 39.7028 482.032C39.5677 480.558 39.3061 479.027 39.3584 477.544C39.3889 476.654 39.7203 475.895 39.8685 475.027C40.0735 473.797 40.1825 472.567 40.2653 471.341C40.3482 470.115 40.4441 468.894 40.6403 467.664V467.655Z" fill="#FCFCFC"/>
<path d="M41.2727 467.83C41.6434 465.278 42.3977 461.553 45.3104 460.741C46.6098 460.379 47.992 460.532 49.3219 460.436C50.0806 460.379 50.8131 460.213 51.5674 460.096C52.3654 459.973 53.1764 459.934 53.983 459.947C55.4307 459.978 56.7911 460.231 58.1733 460.645C59.4029 461.016 60.7546 461.478 61.6746 462.421C62.1368 462.896 62.2328 463.433 62.3679 464.069C62.5293 464.824 62.6644 465.583 62.8214 466.338C63.1441 467.873 63.5714 469.334 63.7458 470.905C63.9158 472.436 64.1775 473.963 64.3083 475.498C64.4391 477.034 64.3911 478.582 64.5132 480.122C64.6179 481.461 64.7923 482.979 64.4042 484.283C64.051 485.47 62.7734 485.636 61.7052 485.788C60.227 485.998 58.7053 486.011 57.214 485.993C55.7184 485.971 54.2185 485.98 52.7273 485.875C51.175 485.766 49.6227 485.827 48.0705 485.766C47.3467 485.736 46.6228 485.688 45.899 485.64C45.1229 485.592 44.3555 485.592 43.6055 485.365C42.2974 484.968 40.937 484.008 40.5053 482.656C40.2742 481.941 40.2742 481.143 40.1914 480.401C40.0911 479.52 39.9995 478.63 40.017 477.74C40.0344 476.986 40.2742 476.292 40.4356 475.563C40.623 474.717 40.7103 473.836 40.7975 472.977C40.9632 471.262 41.0155 469.539 41.2815 467.838C41.4079 467.014 40.1478 466.661 40.0213 467.489C39.7597 469.173 39.6769 470.87 39.5286 472.567C39.4545 473.391 39.376 474.224 39.2147 475.036C39.0533 475.847 38.7917 476.558 38.7263 477.352C38.5955 478.94 38.8833 480.623 39.0795 482.198C39.2539 483.585 40.0431 484.724 41.1463 485.557C42.4587 486.552 43.8889 486.826 45.4935 486.927C47.1504 487.031 48.7986 487.101 50.4599 487.106C52.1212 487.11 53.8784 487.245 55.5876 487.276C57.2184 487.306 58.8448 487.341 60.4712 487.232C61.8621 487.136 63.5845 487.058 64.7138 486.137C65.7079 485.326 65.8867 483.995 65.9216 482.787C65.9695 481.125 65.7297 479.481 65.7036 477.823C65.673 476.052 65.4943 474.342 65.2588 472.589C65.0408 470.957 64.9362 469.326 64.5263 467.725C64.3257 466.944 64.1295 466.172 63.9725 465.382C63.8025 464.523 63.6935 463.616 63.4188 462.783C62.9784 461.448 61.631 460.61 60.4101 460.074C59.1369 459.515 57.7286 459.075 56.3507 458.852C54.454 458.543 52.5136 458.591 50.6256 458.953C48.912 459.28 47.1592 459.062 45.4499 459.385C43.7407 459.707 42.4849 460.846 41.6128 462.312C40.6623 463.908 40.2917 465.679 40.0257 467.494C39.9036 468.318 41.1637 468.671 41.2858 467.843L41.2727 467.83Z" fill="#333333"/>
<path d="M46.9189 472.117C46.9581 473.09 46.8971 474.063 46.9407 475.036C46.9843 476.008 47.0584 476.977 47.0933 477.95C47.1282 478.922 47.1325 479.895 47.1544 480.863C47.1762 481.836 47.2895 482.804 47.2939 483.777C47.2939 484.75 47.2372 485.723 47.211 486.695C47.1805 487.847 45.8201 488.253 44.3463 488.275C42.9902 488.296 41.5077 488.061 40.8014 488.03C40.5354 488.017 40.2781 487.878 40.0863 487.69C39.9293 487.533 39.8334 487.337 39.7941 487.119C39.659 486.347 39.5412 485.566 39.4061 484.794C39.2709 484.022 39.175 483.175 39.0398 482.399C37.7971 482.342 36.5719 481.906 35.6388 481.086C34.7057 480.266 34.0516 479.167 33.6592 478.011C33.3845 477.195 33.0967 476.279 33.0531 475.328C33.0095 474.421 33.3104 473.505 33.4848 472.615C33.6723 471.686 33.7725 470.726 34.2086 469.971C34.6577 469.195 35.2638 468.51 35.8437 467.825C36.4236 467.14 37.1343 466.573 37.7492 465.928C38.643 464.99 39.441 464.008 40.3435 463.153C41.2461 462.298 42.201 461.487 43.4132 460.959C44.9131 460.305 46.727 459.969 46.7794 462.185C46.8055 463.289 46.836 464.397 46.8448 465.5C46.8535 466.604 46.6093 467.712 46.6224 468.815C46.6355 469.919 46.8666 471.018 46.9145 472.122L46.9189 472.117Z" fill="#AFAFAF"/>
<path d="M46.2652 472.117C46.2958 473.055 46.2478 473.993 46.2827 474.931C46.3176 475.869 46.3917 476.802 46.4309 477.74C46.5094 479.611 46.5748 481.492 46.6315 483.363C46.6577 484.266 46.6097 485.169 46.5748 486.072C46.5487 486.778 46.5487 487.154 45.8205 487.407C44.3816 487.904 42.6854 487.537 41.2116 487.407C40.8366 487.372 40.5445 487.367 40.4224 486.944C40.2785 486.438 40.2436 485.875 40.1564 485.361C39.982 484.318 39.8425 483.267 39.6637 482.229C39.6158 481.936 39.3018 481.766 39.0315 481.749C37.7016 481.666 36.4938 481.129 35.5955 480.135C34.693 479.136 34.209 477.84 33.895 476.549C33.7293 475.886 33.6465 475.215 33.7424 474.53C33.8471 473.788 34.0651 473.06 34.2002 472.327C34.3136 471.703 34.4052 471.036 34.6886 470.46C34.9982 469.823 35.4778 469.269 35.9313 468.732C36.8557 467.638 37.9414 466.708 38.9007 465.648C39.8599 464.588 40.7364 463.607 41.8046 462.73C42.6593 462.032 43.6534 461.448 44.7391 461.199C45.5065 461.02 46.0385 461.177 46.117 462.028C46.1955 462.831 46.1606 463.659 46.1737 464.466C46.1867 465.273 46.178 466.12 46.0952 466.953C46.0123 467.786 45.9338 468.602 45.9949 469.439C46.0603 470.338 46.2129 471.228 46.2565 472.126C46.3001 472.964 47.6082 472.968 47.5646 472.126C47.521 471.284 47.3771 470.408 47.3073 469.544C47.2376 468.671 47.3117 467.821 47.3989 466.957C47.4905 466.059 47.4905 465.169 47.473 464.266C47.46 463.45 47.4905 462.604 47.3946 461.792C47.2637 460.715 46.5966 459.921 45.4847 459.829C44.3729 459.738 43.1781 460.279 42.2537 460.824C40.9326 461.6 39.8032 462.708 38.7742 463.834C38.1899 464.475 37.6275 465.138 37.0126 465.744C36.4414 466.307 35.8354 466.831 35.3121 467.441C34.7889 468.052 34.2744 468.654 33.8383 469.321C33.4154 469.967 33.1887 470.674 33.036 471.424C32.7134 473.047 32.2119 474.652 32.5041 476.314C32.7919 477.971 33.4546 479.646 34.5534 480.933C35.6915 482.268 37.3004 482.957 39.0315 483.062C38.8222 482.9 38.6129 482.743 38.3992 482.582C38.578 483.625 38.7175 484.671 38.8919 485.714C39.0446 486.639 39.0271 487.773 39.8687 488.366C40.5053 488.815 41.4776 488.75 42.2276 488.824C43.1738 488.916 44.1374 488.999 45.0836 488.89C45.8336 488.802 46.6228 488.624 47.2027 488.109C47.8524 487.533 47.848 486.783 47.8785 485.976C47.957 483.817 47.8088 481.679 47.7739 479.52C47.7521 478.303 47.6911 477.09 47.6256 475.878C47.5602 474.665 47.6038 473.378 47.5602 472.126C47.5297 471.284 46.2216 471.284 46.2522 472.126L46.2652 472.117Z" fill="#333333"/>
<path d="M44.8261 459.965C44.002 460.279 43.3654 460.924 42.7942 461.596C42.223 462.268 41.691 462.996 41.5035 463.86C41.3771 464.449 41.3335 465.086 41.4904 465.662C41.8567 466.996 43.1561 467.86 44.3116 468.628C43.3174 469.43 42.175 470.477 42.3407 471.742C42.4148 472.318 42.6895 472.889 43.034 473.361C43.9191 474.573 44.9743 475.677 46.0644 476.711" fill="#AFAFAF"/>
<path d="M44.6519 459.332C43.6272 459.76 42.8598 460.484 42.1578 461.334C41.4558 462.185 40.9064 463.149 40.7712 464.305C40.4965 466.647 42.2188 468.021 43.9804 469.19C43.9368 468.846 43.8932 468.506 43.8496 468.161C42.5153 469.243 41.2072 470.674 41.8569 472.514C42.1796 473.426 42.8075 474.172 43.4223 474.9C44.1025 475.703 44.8394 476.449 45.6024 477.173C46.2129 477.753 47.1373 476.828 46.5268 476.248C45.3713 475.149 44.0153 473.932 43.2697 472.506C42.9339 471.86 42.886 471.232 43.274 470.608C43.6621 469.984 44.2289 469.535 44.774 469.095C45.1228 468.811 44.9571 468.279 44.6432 468.065C43.3525 467.206 41.8918 466.246 42.0619 464.493C42.1447 463.633 42.5458 462.922 43.0865 462.264C43.6272 461.605 44.2158 460.924 45.0007 460.597C45.7856 460.27 45.4324 459.014 44.6519 459.337V459.332Z" fill="#333333"/>
<path d="M52.5005 470.168C52.5005 469.945 52.4264 469.744 52.3566 469.535C52.0601 468.619 51.223 468.052 50.9352 467.123C50.6954 466.359 50.6518 465.356 50.7782 464.558C51.0616 462.778 52.3 461.871 53.9176 462.181C55.3958 462.464 55.858 463.476 55.9103 464.632C55.9583 465.705 55.592 466.922 55.1691 467.965C54.7723 468.946 54.7548 470.002 54.7679 471.053C54.781 472.083 54.9205 473.121 55.1516 474.146C55.3827 475.171 55.7621 476.187 56.0455 477.143C56.3943 478.312 56.4641 479.485 56.3027 480.728C56.2678 480.99 55.8187 481.897 55.2911 482.805C54.6981 483.821 54.2229 484.785 54.2272 484.794C53.7563 484.157 53.22 483.572 52.7491 482.935C52.2782 482.299 51.8814 481.609 51.4105 480.972C51.2753 480.789 51.1052 480.654 51.0442 480.397C50.9744 480.1 51.0704 479.799 51.1227 479.494C51.2753 478.565 51.2622 477.609 51.4105 476.685C51.5587 475.76 51.7244 474.835 51.877 473.906C52.0296 472.977 52.2476 472.065 52.4133 471.14C52.47 470.822 52.5005 470.49 52.5005 470.168Z" fill="#95BECE"/>
<path d="M53.1541 470.168C53.0626 469.007 52.317 468.314 51.7588 467.367C51.253 466.508 51.24 465.225 51.5016 464.283C51.7109 463.533 52.2167 462.909 53.0146 462.791C53.8256 462.674 54.7762 462.996 55.0901 463.799C55.4738 464.776 55.173 465.941 54.8634 466.892C54.6846 467.446 54.4273 467.973 54.3009 468.541C54.1483 469.204 54.109 469.888 54.1047 470.565C54.096 471.895 54.2442 473.225 54.5625 474.517C54.859 475.725 55.3648 476.876 55.6046 478.098C55.7442 478.826 55.7616 479.581 55.6918 480.318C55.6439 480.846 55.3735 481.3 55.125 481.762C54.6279 482.695 53.9477 483.612 53.5945 484.619L54.7893 484.462C54.0131 483.428 53.1934 482.451 52.4783 481.374C52.2341 481.007 51.6542 480.48 51.6804 480.03C51.7152 479.389 51.8722 478.735 51.9202 478.085C52.0205 476.737 52.2777 475.411 52.5045 474.076C52.7312 472.741 53.1236 471.485 53.1498 470.163C53.1672 469.321 51.8591 469.321 51.8417 470.163C51.8155 471.529 51.3795 472.916 51.1528 474.259C50.9173 475.668 50.6993 477.06 50.5816 478.482C50.5292 479.097 50.2981 479.773 50.3897 480.388C50.4682 480.946 50.8824 481.33 51.1876 481.779C51.5757 482.351 51.9376 482.935 52.3562 483.481C52.7792 484.035 53.2457 484.558 53.6643 485.116C54.0044 485.57 54.6628 485.522 54.859 484.959C54.7587 485.247 54.968 484.759 55.0073 484.685C55.125 484.453 55.2515 484.222 55.3735 483.991C55.7224 483.354 56.1017 482.73 56.4287 482.085C56.6468 481.657 56.8909 481.208 56.952 480.724C57.0523 479.991 57.061 479.245 56.9781 478.508C56.8168 477.073 56.2325 475.747 55.8706 474.355C55.4913 472.894 55.343 471.376 55.4302 469.867C55.5131 468.418 56.2761 467.149 56.4854 465.723C56.638 464.684 56.5857 463.515 55.9317 462.647C54.6672 460.968 51.8678 461.116 50.7254 462.831C49.9973 463.921 49.9406 465.382 50.1499 466.634C50.2589 467.289 50.5031 467.869 50.8911 468.405C51.2792 468.942 51.7937 469.478 51.846 470.159C51.9114 470.992 53.2195 471.001 53.1541 470.159V470.168Z" fill="#333333"/>
<path d="M60.7499 472.113C60.7107 473.086 60.811 474.063 60.7674 475.031C60.7238 476 60.5624 476.968 60.5275 477.941C60.4927 478.914 60.6496 479.891 60.6278 480.863C60.606 481.836 60.5319 482.805 60.5275 483.777C60.5275 484.75 60.5755 485.718 60.6017 486.691C60.6322 487.79 61.6351 488.187 62.8734 488.275C64.0245 488.357 65.3195 488.074 65.9954 488.104C66.5055 488.131 67.116 488.231 67.4299 487.825C67.6174 487.585 67.6348 487.254 67.6654 486.953C67.7526 486.102 67.77 485.243 67.8572 484.392C67.8703 484.244 67.8965 484.035 68.0011 483.93C68.0796 483.847 68.2453 483.856 68.3543 483.821C69.2961 483.502 70.1638 483.014 70.9487 482.403C71.7335 481.797 72.4181 481.068 72.9719 480.248C73.53 479.424 74.0096 478.538 74.2625 477.579C74.5154 476.619 74.5547 475.62 74.4282 474.617C74.2974 473.579 73.9137 472.602 73.5169 471.633C73.1288 470.687 72.7059 469.797 72.2175 468.959C71.7117 468.087 71.219 467.223 70.6086 466.451C69.9981 465.679 69.27 464.994 68.5505 464.292C67.8529 463.611 67.1683 462.887 66.3704 462.255C65.6378 461.675 64.3864 460.916 63.3094 460.562C62.106 460.17 61.1816 460.366 61.138 462.185C61.1118 463.289 61.0639 464.392 61.0551 465.496C61.0464 466.599 60.9549 467.703 60.9418 468.807C60.9287 469.91 60.7935 471.009 60.7499 472.113Z" fill="#AFAFAF"/>
<path d="M60.0965 472.113C60.0529 473.509 60.1532 474.883 60.0137 476.279C59.9439 476.968 59.8611 477.662 59.8698 478.36C59.8741 479.092 59.9701 479.821 59.9744 480.549C59.9875 481.936 59.8523 483.324 59.8872 484.711C59.9134 485.766 59.6954 487.223 60.4977 488.056C61.9584 489.579 64.6051 488.724 66.4364 488.781C66.903 488.794 67.3695 488.737 67.7445 488.436C68.2023 488.065 68.2765 487.502 68.3331 486.948C68.3985 486.272 68.4291 485.596 68.477 484.92C68.4814 484.842 68.5642 484.427 68.525 484.388L68.5381 484.314L68.416 484.471C68.695 484.484 69.1311 484.222 69.384 484.109C71.6295 483.106 73.4609 481.191 74.4637 478.953C74.9913 477.775 75.2181 476.501 75.1483 475.215C75.0742 473.893 74.66 472.671 74.1585 471.454C73.1644 469.042 71.865 466.674 70.0206 464.802C68.2721 463.027 66.5236 461.199 64.1952 460.196C63.3842 459.847 62.3421 459.481 61.5005 459.947C60.5238 460.493 60.502 461.714 60.4759 462.691C60.4323 464.244 60.4148 465.797 60.345 467.345C60.2709 468.933 60.175 470.517 60.1052 472.1C60.066 472.942 61.3741 472.942 61.4133 472.1C61.5267 469.649 61.6793 467.21 61.7273 464.759C61.7404 464.174 61.7578 463.585 61.7752 463.001C61.7883 462.503 61.736 461.945 61.893 461.465C62.0761 460.911 62.5426 461.003 63.0266 461.142C65.0847 461.749 66.6108 463.284 68.0977 464.737C68.9567 465.579 69.8375 466.403 70.522 467.402C71.1891 468.375 71.7909 469.422 72.3097 470.482C73.3257 472.558 74.237 474.857 73.692 477.199C73.1949 479.337 71.6339 481.265 69.7895 482.408C69.3404 482.687 68.8651 482.94 68.3637 483.114C67.9058 483.276 67.509 483.324 67.3172 483.838C67.1341 484.327 67.1646 484.933 67.1341 485.444C67.0992 485.98 67.1777 486.717 66.9902 487.223C66.8506 487.594 66.4233 487.45 66.0789 487.437C65.6472 487.42 65.2242 487.472 64.7969 487.52C63.8595 487.62 62.7868 487.76 61.8842 487.407C61.5267 487.267 61.3087 487.066 61.2694 486.674C61.1953 485.993 61.2171 485.278 61.204 484.593C61.1735 483.201 61.3218 481.819 61.2956 480.432C61.2825 479.734 61.1997 479.04 61.1909 478.346C61.1822 477.653 61.2651 476.959 61.3348 476.266C61.4744 474.87 61.3741 473.496 61.4177 472.1C61.4438 471.258 60.1358 471.258 60.1096 472.1L60.0965 472.113Z" fill="#333333"/>
<path d="M62.8478 460.052C63.6719 460.366 64.387 460.885 64.9625 461.552C65.5381 462.224 65.961 463.005 66.1442 463.869C66.2706 464.458 66.3622 465.077 66.2009 465.657C65.8346 466.992 64.6181 467.869 63.4626 468.632C64.4567 469.435 65.5119 470.469 65.3419 471.738C65.2677 472.314 64.9712 472.859 64.6311 473.33C63.746 474.543 62.7082 475.655 61.6182 476.685" fill="#AFAFAF"/>
<path d="M62.6727 460.68C64.2075 461.299 65.2932 462.722 65.5723 464.34C65.8819 466.137 64.4735 467.175 63.1349 468.069C62.8166 468.283 62.6552 468.815 63.004 469.099C63.5447 469.539 64.1028 470.011 64.456 470.621C64.8354 471.276 64.7351 471.925 64.3645 472.562C63.5578 473.941 62.3108 475.136 61.164 476.226C60.5535 476.807 61.4779 477.731 62.0884 477.151C62.8471 476.427 63.5796 475.677 64.2511 474.874C64.8354 474.176 65.4633 473.448 65.7946 472.589C66.501 470.765 65.2801 469.273 63.9284 468.174C63.8848 468.519 63.8412 468.859 63.7976 469.204C65.5941 468.004 67.2335 466.56 66.8673 464.196C66.5315 462.015 65.0578 460.244 63.0215 459.424C62.241 459.11 61.9009 460.375 62.6727 460.684V460.68Z" fill="#333333"/>
<path d="M61.2477 460.641C61.5224 461.531 61.723 462.464 61.7361 463.393C61.7492 464.397 61.5617 465.504 60.9251 466.277C60.367 466.953 59.4818 467.201 58.6054 467.241C57.7595 467.275 56.9005 467.04 56.1767 466.599C55.4529 466.159 54.8424 465.548 54.3018 464.868C53.7611 464.187 53.3425 463.533 52.8934 462.804C52.8149 464.545 52.3047 465.605 50.9312 466.695C50.5955 466.961 50.2162 467.21 49.8194 467.363C48.7511 467.773 47.4822 467.363 46.6451 466.582C45.8079 465.805 45.4024 464.676 45.3326 463.533C45.2628 462.39 45.4721 461.251 45.8689 460.178" fill="#FCFCFC"/>
<path d="M60.6189 460.815C61.1945 462.735 61.7047 466.211 58.9315 466.565C56.2891 466.9 54.6627 464.427 53.4549 462.473C53.1061 461.906 52.2733 462.159 52.2341 462.804C52.1817 463.795 51.9463 464.737 51.2661 465.491C50.5117 466.325 49.4914 467.101 48.3098 466.783C45.5104 466.032 45.7241 462.482 46.4915 460.349C46.7749 459.555 45.5104 459.214 45.2314 460C44.6645 461.583 44.4073 463.415 44.9436 465.047C45.4232 466.512 46.5787 467.751 48.1223 468.083C49.6963 468.418 51.0917 467.598 52.1425 466.469C53.0974 465.439 53.468 464.187 53.5421 462.804C53.1366 462.913 52.7311 463.023 52.3213 463.136C53.8997 465.688 56.0493 468.44 59.4286 467.803C62.8558 467.158 62.6552 463.049 61.8791 460.471C61.6392 459.668 60.3748 460.008 60.6189 460.82V460.815Z" fill="#333333"/>
<path d="M30.9385 435.524C31.6666 435.524 32.3992 435.838 33.0314 436.109C33.3105 435.105 33.6026 434.08 34.0169 433.142C34.4354 432.191 34.902 431.267 35.447 430.394C35.9964 429.517 36.6418 428.702 37.3045 427.917C37.9673 427.131 38.6911 426.381 39.4629 425.696C40.2347 425.011 41.0893 424.427 41.9526 423.86C42.8116 423.297 43.6531 422.669 44.5906 422.233C45.5281 421.797 46.5135 421.478 47.512 421.181C48.5105 420.885 49.5003 420.628 50.5337 420.479C51.5671 420.331 52.5831 420.226 53.6295 420.226C54.676 420.226 55.7138 420.388 56.721 420.536C57.7282 420.684 58.7267 421.051 59.7078 421.343C60.6889 421.635 61.7484 421.805 62.6772 422.237C63.619 422.673 64.5085 423.223 65.3675 423.79C66.2265 424.357 67.0201 425.042 67.7918 425.722C68.5636 426.407 69.2133 427.21 69.8804 427.999C70.5476 428.785 71.315 429.504 71.8644 430.381C72.4138 431.258 72.7539 432.244 73.1725 433.195C73.5867 434.132 74.0532 435.005 74.3323 436.008C74.9776 435.725 75.6317 435.725 76.3817 435.725C77.3453 435.725 78.2784 435.847 79.0545 436.3C79.8307 436.754 80.5937 437.43 81.0559 438.237C81.5181 439.044 81.6969 439.978 81.6969 440.942C81.6969 441.906 81.4745 442.852 81.0298 443.629C80.585 444.405 79.8699 445.138 79.072 445.6C78.274 446.063 77.3496 446.163 76.386 446.163C75.7887 446.163 75.309 446.211 74.7771 446.023C74.5678 447.114 74.1317 448.078 73.7698 449.107C73.3992 450.15 73.0068 451.175 72.4879 452.139C71.9647 453.112 71.4501 454.102 70.7917 454.974C70.129 455.851 69.3964 456.697 68.6072 457.465C67.818 458.233 66.8762 458.831 65.9823 459.472C65.0884 460.104 64.1684 460.711 63.183 461.204C62.2063 461.692 61.1729 462.072 60.1177 462.407C59.0799 462.739 58.0117 462.988 56.9129 463.158C55.8141 463.328 54.7501 463.537 53.6339 463.537C52.5177 463.537 51.4145 463.402 50.3419 463.236C49.2431 463.066 48.153 462.848 47.1196 462.521C46.0644 462.185 45.0397 461.749 44.0674 461.26C43.0819 460.767 42.1706 460.13 41.2811 459.498C40.3829 458.861 39.5021 458.194 38.7129 457.43C37.9237 456.667 37.2304 455.803 36.5676 454.926C35.9049 454.054 35.3031 453.134 34.7799 452.161C34.2567 451.188 33.9035 450.163 33.5329 449.121C33.1666 448.095 32.7393 447.114 32.53 446.023C32.0111 446.194 31.5228 446.364 30.9472 446.364C29.9836 446.364 29.1289 445.901 28.3528 445.452C27.5549 444.985 26.7657 444.44 26.3035 443.637C25.8413 442.835 25.6494 441.914 25.6494 440.95C25.6494 439.986 25.9721 439.105 26.4168 438.329C26.879 437.526 27.5505 436.911 28.3528 436.444C29.1289 435.991 29.9879 435.537 30.9472 435.537L30.9385 435.524Z" fill="#FFE6D9"/>
<path d="M30.9392 436.178C31.5583 436.2 32.1382 436.431 32.7007 436.671C33.0844 436.833 33.5379 436.728 33.66 436.279C34.1396 434.56 34.7326 432.937 35.6134 431.384C36.4942 429.831 37.5494 428.532 38.7398 427.297C39.9737 426.015 41.3777 425.038 42.8428 424.047C43.571 423.554 44.2992 423.07 45.1058 422.713C45.9386 422.342 46.8151 422.071 47.6828 421.814C51.2844 420.745 55.0037 420.553 58.6141 421.683C60.2753 422.202 61.941 422.516 63.4715 423.38C65.0019 424.248 66.4234 425.282 67.6835 426.512C68.3724 427.184 68.9655 427.943 69.5977 428.667C70.2038 429.36 70.8709 430.002 71.3505 430.795C71.8563 431.629 72.1834 432.549 72.5714 433.439C72.9682 434.351 73.4261 435.227 73.7008 436.187C73.7923 436.497 74.1717 436.78 74.5074 436.645C75.2007 436.366 75.9332 436.366 76.6701 436.388C77.4506 436.409 78.2006 436.545 78.8721 436.959C80.2151 437.784 80.9694 439.083 81.0348 440.654C81.1002 442.207 80.5377 443.646 79.3212 444.641C78.7413 445.116 78.0741 445.378 77.3329 445.465C76.5786 445.552 75.676 445.613 74.9434 445.395C74.6208 445.299 74.2065 445.513 74.1368 445.853C73.958 446.73 73.6397 447.559 73.3258 448.396C72.9944 449.278 72.6979 450.176 72.3011 451.031C71.5337 452.684 70.5919 454.263 69.4015 455.651C68.1632 457.09 66.7243 458.167 65.1676 459.236C63.5979 460.318 61.9453 461.121 60.1315 461.709C58.2827 462.311 56.2944 462.708 54.354 462.852C52.4355 462.992 50.4341 462.669 48.5723 462.237C46.6886 461.801 44.8442 461.046 43.2047 460.021C41.6786 459.062 40.1525 457.984 38.8924 456.693C37.4578 455.223 36.189 453.487 35.2428 451.664C34.7806 450.765 34.4579 449.805 34.1178 448.859C33.7603 447.864 33.3591 446.892 33.1498 445.849C33.0801 445.513 32.6658 445.286 32.3432 445.391C31.6891 445.609 31.0525 445.797 30.3592 445.64C29.6965 445.491 29.0947 445.138 28.5192 444.793C27.3114 444.069 26.5352 443.153 26.3347 441.718C26.1472 440.379 26.557 438.961 27.4684 437.954C28.2968 437.038 29.679 436.218 30.9304 436.178C31.772 436.152 31.772 434.843 30.9304 434.87C29.2866 434.922 27.4902 435.912 26.4306 437.155C25.3231 438.468 24.826 440.178 25.0527 441.88C25.2882 443.642 26.2213 444.907 27.7125 445.832C28.4233 446.272 29.195 446.708 30.0148 446.9C30.9479 447.114 31.8025 446.948 32.6964 446.652L31.8897 446.194C32.0816 447.14 32.426 448.03 32.7618 448.933C33.1062 449.866 33.4202 450.804 33.8257 451.712C34.6105 453.465 35.7791 455.057 37 456.532C38.2688 458.063 39.795 459.262 41.417 460.392C43.0608 461.544 44.8355 462.451 46.7453 463.084C48.6726 463.72 50.7742 464.052 52.7974 464.165C54.8555 464.279 57.0182 463.895 59.0109 463.398C60.9599 462.913 62.8915 462.194 64.6182 461.156C66.3449 460.117 67.9887 459.027 69.3492 457.653C70.8971 456.087 72.0787 454.325 73.099 452.383C73.6092 451.419 74.0016 450.399 74.3679 449.374C74.7472 448.322 75.1876 447.297 75.41 446.198C75.1397 446.351 74.8737 446.503 74.6033 446.656C75.5146 446.931 76.5916 446.865 77.5247 446.752C78.4971 446.63 79.3474 446.285 80.1148 445.675C81.6496 444.453 82.4301 442.604 82.3516 440.654C82.2688 438.669 81.3487 437.016 79.6875 435.921C78.8634 435.38 77.9346 435.149 76.9623 435.092C76.0379 435.035 75.035 435.035 74.1673 435.384L74.974 435.842C74.7167 434.961 74.3286 434.137 73.9449 433.308C73.5612 432.479 73.2386 431.572 72.8156 430.734C72.0308 429.168 70.6791 427.895 69.5367 426.586C68.3201 425.186 66.8594 423.969 65.2984 422.97C64.5354 422.481 63.7505 422.01 62.9221 421.639C62.0936 421.269 61.1605 421.068 60.2579 420.824C59.3553 420.58 58.4789 420.244 57.5676 420.039C56.6258 419.825 55.636 419.707 54.6767 419.629C52.7407 419.463 50.7132 419.707 48.8295 420.156C46.9459 420.606 44.9837 421.177 43.3224 422.185C41.7745 423.123 40.2005 424.156 38.8575 425.369C37.3227 426.752 35.9186 428.392 34.8329 430.15C33.7123 431.956 32.9711 433.901 32.3999 435.938C32.7182 435.807 33.0408 435.677 33.3591 435.546C32.5699 435.21 31.8025 434.905 30.9348 434.874C30.0671 434.843 30.0933 436.152 30.9348 436.183L30.9392 436.178Z" fill="#333333"/>
<path d="M58.9316 441.561C58.9316 442.342 59.5334 442.996 60.3095 442.996C61.0856 442.996 61.7484 442.338 61.7484 441.561C61.7484 440.78 61.0856 440.087 60.3095 440.087C59.5334 440.087 58.9316 440.78 58.9316 441.561Z" fill="#333333"/>
<path d="M45.5762 441.561C45.5762 442.342 46.1823 442.996 46.9584 442.996C47.7345 442.996 48.4801 442.342 48.4801 441.561C48.4801 440.78 47.7345 440.117 46.9584 440.117C46.1823 440.117 45.5762 440.78 45.5762 441.561Z" fill="#333333"/>
<path d="M54.9375 441.753C54.5538 441.509 54.0742 441.343 53.612 441.395C53.3329 441.426 53.1062 441.487 52.8533 441.605C52.6396 441.701 52.4565 441.84 52.269 441.989C52.1469 442.085 52.0771 442.303 52.0771 442.451C52.0771 442.612 52.1469 442.804 52.269 442.913C52.3911 443.022 52.5568 443.114 52.7312 443.105L52.9056 443.083C53.0146 443.053 53.1105 442.996 53.1934 442.913L53.2196 442.892L53.0887 442.992C53.2283 442.883 53.3765 442.791 53.5379 442.721L53.3809 442.787C53.4986 442.739 53.6163 442.704 53.7428 442.687L53.5684 442.708C53.6817 442.695 53.7995 442.691 53.9128 442.708L53.7384 442.687C53.8736 442.704 54 442.739 54.1265 442.791L53.9695 442.726C54.0785 442.774 54.1788 442.826 54.2747 442.887C54.5625 443.07 55.0073 442.957 55.1686 442.652C55.3387 442.329 55.2427 441.954 54.9332 441.757L54.9375 441.753Z" fill="#333333"/>
<path d="M63.1924 444.706C63.1924 445.941 63.7592 447.036 64.5615 447.842C65.3682 448.654 66.4583 449.055 67.6922 449.055C68.9218 449.055 70.0381 448.676 70.8404 447.864C71.6427 447.057 72.0743 445.941 72.0743 444.706C72.0743 443.472 71.6863 442.316 70.884 441.509C70.0773 440.697 68.9218 440.152 67.6922 440.152C66.4626 440.152 65.4205 440.811 64.6182 441.622C63.8159 442.429 63.1967 443.472 63.1967 444.706H63.1924Z" fill="#EDBBA6"/>
<path d="M35.1294 444.706C35.1294 445.941 35.6788 446.996 36.4811 447.808C37.2877 448.619 38.3429 449.247 39.5725 449.247C40.8021 449.247 41.9969 448.754 42.8035 447.943C43.6058 447.136 43.9372 445.936 43.9372 444.706C43.9372 443.472 43.5099 442.372 42.7076 441.561C41.9009 440.75 40.8021 440.248 39.5725 440.248C38.3429 440.248 37.3052 440.811 36.4985 441.622C35.6918 442.434 35.125 443.472 35.125 444.702L35.1294 444.706Z" fill="#EDBBA6"/>
<path d="M35.4385 436.881C35.3557 437.107 35.2946 437.347 35.2118 437.574C35.094 437.906 34.8847 438.359 34.5359 438.381C34.3048 438.394 34.0519 438.215 33.8906 438.054C33.1406 437.312 32.8572 436.327 32.6871 435.293C32.5345 434.342 32.5127 433.317 32.7264 432.261C32.9226 431.284 33.2845 430.311 33.69 429.36C34.0955 428.409 34.5882 427.476 35.1158 426.656C35.735 425.683 36.3585 424.828 36.9777 424.235C37.7102 423.533 38.4471 422.813 39.2843 422.242C40.1215 421.67 41.0371 421.203 41.9528 420.758C42.8685 420.313 43.819 419.947 44.7783 419.616C45.7376 419.284 46.7317 419.04 47.7128 418.817C48.7113 418.59 49.7185 418.433 50.7083 418.311C51.7286 418.189 52.7577 418.211 53.7867 418.22C54.8157 418.228 55.8404 418.233 56.8607 418.377C57.881 418.521 58.8752 418.761 59.8693 419.04C60.7632 419.293 61.7094 419.502 62.6251 419.838C63.5407 420.174 64.4389 420.484 65.2892 420.924C66.1395 421.365 66.9636 421.91 67.7005 422.495C68.5464 423.166 69.2309 424.017 69.9635 424.828C70.696 425.64 71.446 426.412 72.0869 427.288C72.6538 428.065 73.2293 428.885 73.6915 429.762C74.1537 430.638 74.4764 431.585 74.7162 432.519C74.956 433.452 75.0607 434.46 74.9386 435.432C74.8209 436.362 74.5462 437.304 73.9749 438.198C73.8223 438.438 73.5912 438.63 73.3253 438.735C72.7323 438.966 72.2221 438.386 72.0346 437.775C71.8471 437.164 71.8994 436.479 71.6422 435.899C71.3544 435.245 70.5565 434.953 69.9896 434.521C69.196 433.914 68.4984 433.173 67.8007 432.457C67.1031 431.742 66.5581 430.9 65.9738 430.089C65.3895 429.278 64.875 428.436 64.4128 427.55C63.9506 426.665 63.4317 425.875 63.1047 424.933C62.189 425.483 61.2734 425.91 60.3359 426.42C59.3984 426.931 58.4915 427.511 57.5322 427.978C56.5729 428.444 55.5221 428.724 54.5454 429.151C53.5687 429.579 52.5833 429.98 51.5847 430.372C50.5862 430.765 49.6706 431.354 48.659 431.703C47.6474 432.052 46.5965 432.27 45.5719 432.58C44.5472 432.885 43.5356 433.243 42.5022 433.509C41.4645 433.77 40.3918 433.866 39.3453 434.085C38.2989 434.303 37.2001 434.477 36.1449 434.652C35.892 435.363 35.6958 436.165 35.4429 436.881H35.4385Z" fill="#8E816E"/>
<path d="M34.8066 436.706C34.7194 436.968 34.6583 437.251 34.5406 437.509C34.3967 437.823 34.436 437.692 34.231 437.465C33.8081 437.003 33.5944 436.396 33.4505 435.799C33.1235 434.42 33.1628 433.011 33.5508 431.655C33.9389 430.298 34.4883 429.059 35.1554 427.864C35.7877 426.734 36.5158 425.605 37.4402 424.693C38.4257 423.72 39.4416 422.843 40.6538 422.163C41.9052 421.456 43.2133 420.859 44.5693 420.379C47.1724 419.454 49.9936 418.87 52.7624 418.87C54.2056 418.87 55.6707 418.835 57.1009 419.07C58.5311 419.306 59.8261 419.698 61.1734 420.069C63.7591 420.785 66.3404 421.897 68.224 423.864C70.1077 425.831 72.0131 427.855 73.2253 430.268C73.8488 431.515 74.3023 432.99 74.3416 434.39C74.359 435.04 74.2805 435.681 74.1105 436.305C74.0276 436.606 73.9273 436.902 73.7922 437.186C73.6744 437.439 73.4608 438.032 73.1599 438.093C72.641 438.198 72.5626 437.064 72.5146 436.737C72.423 436.078 72.2748 435.463 71.7864 434.979C71.3765 434.569 70.8315 434.329 70.3693 433.984C69.7545 433.531 69.2182 432.968 68.6862 432.423C67.6572 431.367 66.7808 430.172 65.9785 428.933C65.5468 428.266 65.1718 427.563 64.7925 426.865C64.4131 426.167 64.0076 425.496 63.7373 424.754C63.5934 424.366 63.1661 424.135 62.778 424.361C61.9365 424.859 61.06 425.286 60.1967 425.749C59.3988 426.176 58.627 426.656 57.8291 427.088C56.9875 427.541 56.1067 427.855 55.2129 428.187C54.2972 428.527 53.4121 428.942 52.5051 429.308C51.6767 429.644 50.8526 429.962 50.0546 430.359C49.2567 430.756 48.4195 431.114 47.53 431.367C46.6274 431.62 45.7205 431.842 44.8222 432.122C43.9633 432.392 43.1043 432.684 42.2279 432.898C41.2206 433.142 40.1829 433.247 39.1669 433.452C38.151 433.657 37.0347 433.84 35.9664 434.019C35.7397 434.058 35.5784 434.276 35.5086 434.477C35.2514 435.214 35.0595 435.969 34.8066 436.706C34.5275 437.504 35.792 437.845 36.0667 437.055C36.324 436.318 36.5158 435.563 36.7687 434.826L36.3109 435.284C38.1684 434.974 40.0303 434.66 41.8834 434.311C43.7191 433.967 45.485 433.269 47.2858 432.793C48.1666 432.558 49.0256 432.3 49.854 431.917C50.6869 431.528 51.4935 431.114 52.3481 430.778C53.2638 430.412 54.1664 430.006 55.0821 429.64C55.941 429.295 56.8305 429.029 57.6764 428.641C58.6488 428.191 59.5514 427.607 60.4845 427.092C61.4612 426.551 62.4684 426.076 63.4277 425.509L62.4684 425.116C63.0047 426.59 63.8506 428.03 64.6835 429.356C65.5163 430.682 66.3665 431.921 67.4087 432.998C67.9406 433.552 68.4769 434.111 69.0612 434.612C69.5888 435.066 70.2211 435.371 70.7487 435.816C71.2283 436.218 71.1978 436.872 71.2937 437.443C71.4071 438.124 71.6992 438.852 72.3184 439.227C73.7704 440.104 74.7907 438.303 75.2005 437.182C75.7412 435.698 75.7543 434.085 75.4011 432.558C74.6642 429.378 72.7152 426.887 70.5699 424.523C69.5321 423.38 68.5511 422.259 67.2779 421.369C66.0046 420.479 64.6224 419.877 63.1704 419.349C61.6443 418.791 60.0441 418.368 58.4613 418.015C56.8393 417.644 55.2303 417.574 53.5821 417.561C50.3293 417.535 47.0896 418.071 44.0243 419.184C40.959 420.296 38.2948 421.775 36.1627 424.126C35.0115 425.4 34.0828 426.935 33.3633 428.488C32.6003 430.128 31.9462 431.882 31.9157 433.709C31.8895 435.254 32.1686 437.042 33.1933 438.259C33.6293 438.774 34.3008 439.258 34.9897 438.918C35.6787 438.577 35.8444 437.709 36.0667 437.051C36.3371 436.252 35.0726 435.908 34.8066 436.702V436.706Z" fill="#333333"/>
<path d="M49.6667 446.198C50.8222 447.057 52.2785 447.227 53.6782 447.254C55.0778 447.28 56.5385 447.136 57.7551 446.372C58.4658 445.928 57.8117 444.793 57.0967 445.243C56.072 445.884 54.8598 445.967 53.6782 445.945C52.4878 445.923 51.3062 445.801 50.3251 445.068C50.0417 444.859 49.5926 445.02 49.4312 445.304C49.235 445.635 49.3833 445.989 49.6667 446.198Z" fill="#333333"/>
<path d="M57.9986 444.484C58.1469 444.553 58.2951 444.628 58.4346 444.715C58.4957 444.754 58.5611 444.793 58.6178 444.837C58.6483 444.859 58.6788 444.881 58.705 444.902C58.7704 444.95 58.6003 444.82 58.6963 444.894C58.8183 444.998 58.9404 445.107 59.0494 445.225C59.1018 445.278 59.1497 445.334 59.1933 445.391C59.2195 445.426 59.2457 445.461 59.2762 445.491C59.2282 445.443 59.2108 445.408 59.2675 445.483C59.359 445.609 59.4419 445.736 59.516 445.871C59.5509 445.936 59.5858 446.002 59.6163 446.067C59.6337 446.102 59.6512 446.154 59.673 446.189C59.6337 446.137 59.6294 446.085 59.6642 446.176C59.7209 446.32 59.7689 446.468 59.8081 446.621C59.8256 446.695 59.843 446.765 59.8561 446.839C59.8648 446.883 59.8735 446.926 59.8823 446.97C59.9084 447.105 59.8648 446.83 59.8823 446.974C59.9215 447.315 60.1526 447.646 60.5363 447.629C60.8546 447.616 61.234 447.336 61.1904 446.974C61.0944 446.202 60.8546 445.461 60.3968 444.824C59.9477 444.2 59.359 443.677 58.657 443.358C58.3474 443.219 57.9376 443.258 57.7632 443.594C57.6105 443.882 57.6672 444.34 57.9986 444.488V444.484Z" fill="#D6B4A5"/>
<path d="M39.5854 481.003C38.6523 480.685 37.911 479.934 37.5186 478.975C37.1305 478.028 37.1567 476.903 37.1131 476.043C37.0695 475.11 37.0651 474.216 37.427 473.461C37.7933 472.698 38.4866 472.126 39.2235 471.572C39.7467 471.175 40.3964 470.992 41.0243 471.193C41.6522 471.393 42.1536 471.96 42.0926 472.615C42.0402 473.177 41.5475 473.675 41.1551 474.085C41.735 474.128 42.4501 474.355 42.703 474.883C42.9559 475.411 42.7248 476.187 42.1536 476.296C42.6158 476.61 43.078 476.977 43.2219 477.518C43.3658 478.059 42.9559 478.761 42.3978 478.77C42.8992 478.966 43.0649 479.681 42.812 480.157C42.5591 480.632 42.0184 480.868 41.4996 481.012C40.8673 481.186 40.2045 481.217 39.5854 481.007V481.003Z" fill="#FFE6D9"/>
<path d="M39.7595 480.375C38.6825 479.978 38.0721 478.957 37.8889 477.867C37.793 477.313 37.7974 476.746 37.7712 476.183C37.745 475.559 37.6971 474.918 37.8323 474.307C37.9587 473.749 38.2465 473.304 38.6476 472.903C39.0488 472.501 39.5589 472.013 40.104 471.834C40.5531 471.686 41.1941 471.808 41.3946 472.292C41.5952 472.776 40.9978 473.304 40.6926 473.627C40.2784 474.063 40.601 474.691 41.1548 474.743C41.4382 474.77 41.8961 474.852 42.0748 475.11C42.1838 475.262 42.1969 475.611 41.9789 475.673C41.4077 475.834 41.3728 476.558 41.8219 476.868C42.0923 477.055 42.4716 477.3 42.5676 477.635C42.6024 477.762 42.585 478.098 42.3975 478.12C41.8176 478.176 41.4251 479.027 42.0661 479.341C42.5457 479.577 42.1184 480.065 41.8045 480.218C41.1723 480.528 40.4223 480.589 39.7551 480.384C38.9485 480.139 38.604 481.4 39.4063 481.644C40.5531 481.993 42.1359 481.814 43.0341 480.942C43.8146 480.183 43.771 478.717 42.7245 478.211C42.6155 478.617 42.5065 479.023 42.3931 479.433C43.2303 479.345 43.8626 478.687 43.8974 477.827C43.9323 476.885 43.1867 476.231 42.4803 475.742L42.3234 476.938C43.2129 476.685 43.6489 475.686 43.3698 474.826C43.0646 473.875 42.0487 473.526 41.1504 473.439C41.3031 473.81 41.46 474.185 41.6126 474.556C42.0574 474.089 42.5458 473.583 42.694 472.933C42.8379 472.318 42.6417 471.69 42.2274 471.223C41.2333 470.107 39.6941 470.39 38.6302 471.21C37.527 472.061 36.668 473.016 36.4893 474.447C36.4021 475.123 36.4457 475.799 36.4718 476.48C36.498 477.16 36.5285 477.867 36.6898 478.543C37.03 479.978 38.0285 481.138 39.4107 481.644C40.1999 481.936 40.5444 480.671 39.7595 480.384V480.375Z" fill="#333333"/>
<path d="M66.2007 479.114C67.4129 479.337 68.4376 478.87 69.2617 478.272C70.0858 477.675 70.6919 476.728 70.9796 475.659C71.2674 474.591 71.2936 473.531 70.8968 472.501C70.5393 471.572 69.4448 471.162 68.5466 470.852C68.0321 470.678 67.4565 470.565 66.9507 470.761C66.4406 470.957 65.9914 471.45 65.9653 471.995C65.9391 472.541 66.4362 472.981 66.9812 472.985C66.6324 473.012 66.2487 473.129 65.926 473.269C65.6034 473.409 65.2764 473.688 65.211 474.032C65.1455 474.377 65.429 474.791 65.7734 474.839C65.3505 474.988 64.8839 475.249 64.7531 475.677C64.6223 476.104 64.8883 476.715 65.333 476.641C65.0191 477.068 64.7488 477.544 64.8752 478.059C65.0104 478.608 65.647 479.01 66.2051 479.11L66.2007 479.114Z" fill="#FFE6D9"/>
<path d="M66.0264 479.742C67.4914 479.978 68.8518 479.485 69.9724 478.534C71.093 477.583 71.6512 476.17 71.8081 474.756C71.9695 473.313 71.6337 471.76 70.3518 470.935C69.8155 470.591 69.1832 470.355 68.5771 470.172C67.8446 469.949 67.0292 469.91 66.3534 470.325C65.6775 470.739 65.1979 471.489 65.3331 472.279C65.4726 473.09 66.1877 473.587 66.9769 473.635V472.327C66.1484 472.418 65.1586 472.698 64.7226 473.478C64.2909 474.255 64.7401 475.254 65.5947 475.467V474.207C64.8665 474.477 64.1165 474.961 64.0686 475.821C64.0293 476.549 64.5264 477.343 65.3287 477.295C65.1412 476.968 64.9537 476.641 64.7619 476.309C64.2866 476.977 63.9726 477.801 64.3782 478.586C64.6921 479.201 65.3723 479.598 66.0264 479.738C66.8461 479.912 67.1993 478.652 66.3752 478.477C66.0874 478.416 65.7211 478.294 65.5598 478.019C65.3505 477.666 65.695 477.247 65.8912 476.968C66.1746 476.571 65.7996 475.956 65.3243 475.982C65.3549 475.982 65.381 476.078 65.381 475.987C65.381 475.925 65.3679 475.882 65.3897 475.821C65.4639 475.633 65.7691 475.524 65.9391 475.463C66.506 475.249 66.6106 474.368 65.9391 474.202C65.7473 474.154 65.9261 474.015 66.0351 473.936C66.288 473.758 66.6673 473.662 66.9725 473.631C67.7966 473.539 67.8272 472.375 66.9725 472.322C66.4449 472.292 66.615 471.76 66.8984 471.529C67.3911 471.123 68.0408 471.363 68.5771 471.55C69.0437 471.716 69.5408 471.904 69.9158 472.235C70.3431 472.61 70.4782 473.221 70.5175 473.771C70.6047 474.966 70.2602 476.309 69.4448 477.212C68.6905 478.05 67.5132 478.661 66.3665 478.477C66.0176 478.421 65.6644 478.569 65.5598 478.935C65.4726 479.245 65.6644 479.686 66.0176 479.742H66.0264Z" fill="#333333"/>
</g>
<defs>
<clipPath id="clip0_40_1147">
<rect width="57.3556" height="94.4389" fill="white" transform="translate(25 417.561)"/>
</clipPath>
</defs>
</svg>
