<svg width="81" height="105" viewBox="0 0 81 105" fill="none" xmlns="http://www.w3.org/2000/svg">
<g clip-path="url(#clip0_4_16763)">
<path d="M6.43703 29.3579C6.31999 30.533 6.2956 31.713 6.17857 32.8881C6.06153 34.0632 6.02739 35.2432 5.91035 36.4183C5.79332 37.5934 5.5056 38.7489 5.38856 39.924C5.27152 41.0991 5.37881 42.2938 5.26177 43.4689C5.14473 44.644 4.91066 45.8044 4.79362 46.9795C4.67658 48.1546 4.70096 49.3395 4.58392 50.5146C4.48639 51.4742 4.29133 52.4535 4.3401 53.4132C4.39374 54.3973 4.60343 55.3423 5.09109 56.1991C5.77381 57.3938 6.83203 58.2898 8.11457 58.8431C9.39711 59.3964 10.7674 59.5139 12.0744 59.7391C13.2935 59.9448 14.498 60.214 15.7269 60.3609C16.9558 60.5078 18.1847 60.6204 19.4185 60.7086C20.6523 60.7967 21.886 60.7918 23.1198 60.8212C24.3536 60.8555 25.5874 60.8799 26.8211 60.8555C28.0549 60.831 29.2838 60.7184 30.5176 60.6351C31.7514 60.5519 32.9754 60.4197 34.1994 60.2777C35.4283 60.1357 36.6523 60.0084 37.8715 59.8077C39.0906 59.6069 40.3146 59.4502 41.524 59.1907C42.7334 58.9312 43.9526 58.7207 45.1473 58.4073C46.4055 58.0744 47.649 57.6288 48.8486 57.1294C50.0629 56.6251 51.1845 55.9592 52.1745 55.1073C53.0327 54.3728 53.657 53.4915 54.2324 52.5612C54.8029 51.6309 55.3881 50.686 55.7441 49.6284C56.0904 48.5904 56.3439 47.4985 56.539 46.4066C56.7341 45.3148 56.9194 44.2082 57.0315 43.1213C57.1437 42.0049 57.1047 40.8739 57.1827 39.7575C57.2607 38.6363 57.251 37.5199 57.2949 36.3987C57.3388 35.2775 57.568 34.1611 57.5728 33.0399C57.5777 31.9186 57.5826 30.7925 57.5533 29.6713C57.5241 28.55 57.4461 27.4288 57.3827 26.3075C57.3193 25.1863 57.1973 24.07 57.0998 22.9536" fill="#8E816E"/>
<path d="M5.70556 29.3579C5.52025 31.3164 5.40809 33.2847 5.27642 35.2432C5.14963 37.1283 4.65709 38.9741 4.60833 40.869C4.58394 41.7356 4.61808 42.6023 4.53518 43.4689C4.43765 44.4873 4.24258 45.4959 4.12067 46.5095C4.01826 47.3712 3.98413 48.2329 3.94999 49.0996C3.9061 50.0984 3.77443 51.0777 3.67202 52.0716C3.49647 53.7314 3.73542 55.4696 4.66685 56.8846C5.50074 58.1527 6.72476 59.083 8.12922 59.6265C9.74824 60.2581 11.5623 60.3756 13.2643 60.689C15.0783 61.0268 16.9022 61.2374 18.7407 61.3843C26.1579 61.9767 33.7459 61.3892 41.0559 60.028C44.528 59.3817 48.2245 58.6473 51.2479 56.7132C54.0666 54.9114 56.0124 51.7582 56.8463 48.5463C57.3632 46.5584 57.7289 44.4481 57.8411 42.3917C57.9581 40.2423 57.9191 38.083 58.0751 35.9385C58.1532 34.8858 58.319 33.8478 58.3287 32.7853C58.3385 31.7032 58.3336 30.6211 58.3044 29.5391C58.241 27.3358 58.0508 25.1374 57.8557 22.9438C57.7728 22.0087 56.3098 21.9989 56.3927 22.9438C56.5585 24.7799 56.7097 26.616 56.8024 28.457C56.895 30.298 56.973 32.1243 56.8219 33.9212C56.7536 34.7438 56.6268 35.5566 56.5878 36.384C56.5439 37.3437 56.5537 38.3034 56.5049 39.263C56.4122 41.1138 56.3927 42.9499 56.1001 44.786C55.8319 46.4752 55.5588 48.2476 54.9103 49.8389C54.3153 51.298 53.3693 52.855 52.2867 54.0007C49.9898 56.444 46.3421 57.4477 43.1723 58.0989C39.6758 58.8186 36.1647 59.3425 32.6145 59.7097C30.8541 59.8909 29.079 60.0329 27.3088 60.0965C25.5337 60.1602 23.7587 60.0868 21.9836 60.0574C20.2085 60.028 18.4383 59.9105 16.6681 59.7244C14.8979 59.5384 13.1911 59.1614 11.4502 58.8872C9.89454 58.6424 8.31941 58.3633 7.05149 57.3547C5.82747 56.3803 5.15938 54.9653 5.08623 53.4083C5.04234 52.4731 5.2179 51.5477 5.31543 50.6174C5.41784 49.6382 5.42272 48.6589 5.48124 47.6748C5.60803 45.6232 6.05667 43.6305 6.06643 41.5692C6.08105 39.5078 6.57847 37.52 6.72964 35.4684C6.87594 33.4316 6.98322 31.3801 7.17829 29.3481C7.26606 28.408 5.80309 28.4129 5.71531 29.3481L5.70556 29.3579Z" fill="#333333"/>
<path d="M24.3098 100.877C24.5 100.956 24.7341 100.784 24.934 100.784C26.1239 100.784 27.3138 100.941 28.5085 100.941C29.7033 100.941 30.8542 100.809 32.0441 100.804C32.1221 100.006 32.2196 98.8553 32.2099 97.6704C32.2001 96.4219 32.1172 95.2027 32.1855 94.4927C30.8054 94.483 29.4741 94.6054 28.1574 94.6396C26.8408 94.6739 25.4704 94.5319 24.1245 94.5466C22.8078 94.5613 21.5009 94.6788 20.1208 94.6249C20.1111 95.4083 20.1208 97.5774 20.1013 98.6692C21.5009 98.777 22.7395 99.4918 23.7636 100.461C23.9246 100.613 24.105 100.799 24.3147 100.882L24.3098 100.877Z" fill="#FFE6D9"/>
<path d="M24.3098 101.612C24.5536 101.641 24.7389 101.553 24.973 101.519C25.2997 101.47 25.6801 101.534 26.0068 101.553C26.6798 101.592 27.3576 101.651 28.0306 101.671C29.3717 101.71 30.703 101.553 32.044 101.538C32.4683 101.538 32.7365 101.205 32.7755 100.804C32.8828 99.7219 32.9511 98.6399 32.9413 97.5529C32.9316 96.5345 32.8389 95.5063 32.9218 94.4927C32.956 94.0961 32.561 93.7583 32.1903 93.7583C30.1714 93.7583 28.1672 93.9542 26.1434 93.866C24.1196 93.7779 22.1299 93.959 20.1208 93.8905C19.7209 93.8758 19.3942 94.2381 19.3893 94.6249C19.3698 95.9714 19.3893 97.3228 19.3698 98.6692C19.3649 99.0952 19.7112 99.3645 20.1013 99.4037C20.8523 99.4771 21.5545 99.7562 22.1933 100.158C22.8322 100.559 23.2954 101.176 23.9392 101.519C24.7731 101.96 25.5094 100.691 24.6755 100.251C24.3098 100.055 24.0221 99.7023 23.6953 99.4428C23.3491 99.1687 22.9882 98.9092 22.603 98.6986C21.8178 98.2677 20.9839 98.0229 20.0964 97.9348L20.8279 98.6692C20.8523 97.3228 20.8279 95.9714 20.8474 94.6249L20.1159 95.3594C22.1251 95.4279 24.1245 95.2468 26.1385 95.3349C28.1623 95.423 30.1617 95.2272 32.1855 95.2272L31.454 94.4927C31.3711 95.5063 31.4637 96.5345 31.4735 97.5529C31.4832 98.6399 31.415 99.7219 31.3077 100.804L32.0392 100.07C30.703 100.084 29.3668 100.236 28.0257 100.202C27.3918 100.182 26.7529 100.128 26.119 100.094C25.763 100.074 25.4021 100.045 25.0461 100.055C24.8072 100.065 24.5341 100.172 24.3 100.148C23.3686 100.035 23.3735 101.504 24.3 101.617L24.3098 101.612Z" fill="#333333"/>
<path d="M24.934 100.809C24.7292 100.809 24.5244 100.887 24.3342 100.809C24.1294 100.725 24.0172 100.5 23.8563 100.348C22.8371 99.379 21.418 98.7522 20.0184 98.6445C20.0184 98.7571 19.994 98.9628 19.9892 99.046C19.9794 99.6678 19.9501 100.353 19.6575 100.848C19.2625 101.524 18.5067 101.69 17.9117 102.023C17.3168 102.356 16.7365 103.007 16.8291 103.844C17.8971 103.918 18.9407 103.981 20.0087 104.026C21.0815 104.07 22.1495 104.099 23.2223 104.119C24.2952 104.138 25.3631 104.035 26.436 104.026C27.5088 104.016 28.5768 104.079 29.6497 104.045C30.1422 104.03 30.7225 104.123 31.137 103.776C31.7612 103.252 31.8392 102.106 31.9855 101.151C32.0002 101.058 32.0636 100.99 32.0733 100.882C30.8834 100.882 29.6936 100.774 28.5037 100.779C27.3138 100.784 26.1239 100.804 24.9291 100.809H24.934Z" fill="#FCFCFC"/>
<path d="M24.9339 100.074C24.5975 100.104 24.6023 100.065 24.3731 99.8346C24.2366 99.6975 24.0854 99.5751 23.9342 99.4575C23.5539 99.154 23.1491 98.8896 22.7151 98.6692C21.8617 98.2433 20.9693 98.0034 20.0183 97.9152C19.6087 97.8761 19.3064 98.2824 19.2869 98.6497C19.2576 99.1931 19.3112 99.8297 19.1015 100.339C18.8967 100.833 18.3506 101 17.9068 101.215C16.8583 101.715 16.0439 102.625 16.1025 103.849C16.122 104.266 16.4194 104.555 16.8339 104.584C18.5066 104.697 20.1744 104.785 21.8519 104.829C23.5295 104.873 25.2899 104.75 27.0162 104.765C27.8599 104.775 28.6987 104.799 29.5423 104.785C30.1958 104.77 30.8687 104.829 31.4442 104.462C32.5951 103.727 32.4439 102.224 32.7852 101.078C32.9267 100.618 32.5463 100.148 32.0781 100.148C30.8882 100.148 29.6984 100.045 28.5085 100.045C27.3186 100.045 26.1287 100.07 24.9339 100.074C23.9928 100.074 23.9928 101.548 24.9339 101.543C26.1238 101.538 27.3137 101.514 28.5085 101.514C29.6984 101.514 30.8882 101.612 32.0781 101.617C31.8441 101.308 31.61 100.995 31.371 100.687C31.2101 101.225 31.1857 101.793 31.0589 102.341C30.9321 102.89 30.7907 103.291 30.1616 103.306C28.7279 103.345 27.2942 103.252 25.8605 103.301C22.837 103.399 19.8428 103.306 16.8291 103.105L17.5606 103.84C17.4972 102.601 19.043 102.449 19.7891 101.808C20.7206 101.01 20.6864 99.7611 20.7498 98.6399L20.0183 99.3743C20.9595 99.4624 21.8617 99.8003 22.6517 100.319C23.0272 100.569 23.3052 100.868 23.6173 101.181C23.9976 101.558 24.4219 101.583 24.9339 101.538C25.8654 101.455 25.8751 99.9863 24.9339 100.07V100.074Z" fill="#333333"/>
<path d="M19.3942 74.0168C19.4527 75.8088 19.399 75.8088 19.4624 77.6008C19.521 79.3929 19.4917 79.3929 19.5502 81.1849C19.6087 82.9769 19.6673 82.9769 19.7258 84.769C19.7843 86.561 19.7648 86.561 19.8282 88.353C19.8867 90.145 19.755 90.1499 19.8184 91.9468C19.8818 93.7438 20.0037 93.734 20.0671 95.5309C20.0818 95.9275 20.3792 96.2115 20.7742 96.2115C22.5981 96.2115 22.5981 96.1282 24.417 96.1282C26.236 96.1282 26.2409 96.2115 28.0647 96.2115C29.8886 96.2115 29.8886 96.2409 31.7124 96.2409C32.1172 96.2409 32.5512 95.9128 32.5512 95.5064C32.5512 93.6801 32.5609 93.6801 32.5609 91.8538C32.5609 90.0275 32.5804 90.0275 32.5804 88.2012C32.5804 86.3749 32.4098 86.3749 32.4098 84.5486C32.4098 82.7223 32.4 82.7223 32.4 80.896C32.4 79.0697 32.3951 79.0697 32.3951 77.2434C32.3951 75.4171 32.4585 75.4171 32.4585 73.5908" fill="#FCFCFC"/>
<path d="M18.6626 74.0166C18.726 75.931 18.7455 77.8552 18.7797 79.7696C18.8187 81.8212 18.9747 83.8629 19.0284 85.9095C19.0771 87.7163 19.0479 89.523 19.0674 91.3297C19.0771 92.2796 19.1601 93.2147 19.2478 94.1597C19.3356 95.1047 19.1308 96.4512 20.2622 96.8526C21.0522 97.1317 22.125 96.9212 22.954 96.8869C23.9684 96.8478 24.9827 96.8478 25.9921 96.8918C27.8452 96.9702 29.7325 97.0289 31.5905 96.9751C32.0879 96.9604 32.556 96.8184 32.9023 96.4365C33.307 95.9909 33.2729 95.4376 33.2777 94.8746C33.2777 94.0128 33.2875 93.1511 33.2875 92.2894C33.2875 90.3455 33.3997 88.3724 33.2241 86.4334C33.029 84.2791 33.1266 82.0856 33.1217 79.9263C33.1217 77.8112 33.1802 75.7009 33.1802 73.5857C33.1802 72.6407 31.7172 72.6407 31.7172 73.5857C31.7124 77.0914 31.6636 80.602 31.6636 84.1077C31.6636 85.983 31.8489 87.8436 31.8294 89.7237C31.8148 91.3835 31.8099 93.0385 31.805 94.6983C31.805 94.8354 31.883 95.4327 31.805 95.5062C31.7465 95.5551 31.3759 95.5062 31.2588 95.5062C30.8151 95.5062 30.3762 95.5013 29.9324 95.4915C28.9815 95.4768 28.0306 95.4915 27.0796 95.467C25.4069 95.4278 23.7538 95.3985 22.0811 95.4572C21.8568 95.467 20.8669 95.5992 20.7644 95.4866C20.7352 95.4523 20.7498 94.9186 20.7449 94.8256C20.7303 94.6053 20.7157 94.38 20.6962 94.1597C20.6133 93.2784 20.5352 92.402 20.5206 91.5157C20.4865 89.8021 20.5304 88.0884 20.4865 86.3747C20.4377 84.2644 20.2768 82.1541 20.228 80.0438C20.1841 78.0315 20.1695 76.0191 20.1061 74.0117C20.0768 73.0667 18.6139 73.0667 18.6431 74.0117L18.6626 74.0166Z" fill="#333333"/>
<path d="M39.8123 100.745C39.627 100.824 39.4222 100.892 39.2174 100.892C38.0275 100.892 36.8376 100.745 35.6429 100.75C34.453 100.75 33.2533 100.872 32.0635 100.872C31.9806 100.074 31.9952 98.8552 31.9952 97.6654C31.9952 96.4169 32.0293 95.2565 31.9562 94.5465C33.3362 94.5318 34.6334 94.4878 35.955 94.5123C37.3058 94.5367 38.6371 94.6298 39.9879 94.6347C41.3046 94.6396 42.6359 94.5612 44.016 94.4927C44.0355 95.2761 44.1135 97.5969 44.1427 98.6888C42.7432 98.8063 41.2948 99.2959 40.2805 100.275C40.1196 100.432 40.022 100.657 39.8172 100.745H39.8123Z" fill="#FFE6D9"/>
<path d="M39.6222 100.035C39.0516 100.251 38.3933 100.138 37.7935 100.104C37.1595 100.069 36.5256 100.02 35.8867 100.011C34.6139 99.9959 33.3412 100.123 32.0684 100.133L32.7999 100.867C32.5999 98.7669 32.8828 96.642 32.6926 94.5415L31.9611 95.2759C35.9843 95.2221 39.9928 95.4179 44.016 95.2221L43.2845 94.4876C43.3186 95.8879 43.3723 97.2834 43.4113 98.6837L44.1428 97.9493C43.2357 98.0374 42.358 98.2235 41.5192 98.5956C41.1047 98.7767 40.7145 98.9922 40.3488 99.2615C40.1976 99.3741 40.0416 99.4916 39.905 99.6189C39.749 99.7609 39.6222 99.991 39.4466 100.104C38.6566 100.608 39.3881 101.881 40.183 101.372C40.4902 101.176 40.6707 100.897 40.934 100.657C41.2217 100.402 41.5582 100.197 41.8996 100.025C42.592 99.6776 43.3723 99.4916 44.1379 99.4181C44.5232 99.379 44.8791 99.1097 44.8694 98.6837C44.8353 97.2834 44.7767 95.8879 44.7426 94.4876C44.7329 94.1057 44.4159 93.7336 44.0111 93.7532C39.9879 93.949 35.9794 93.7532 31.9562 93.807C31.5856 93.8119 31.1906 94.14 31.2247 94.5415C31.4149 96.642 31.1369 98.762 31.332 100.867C31.371 101.259 31.6392 101.607 32.0635 101.602C33.4143 101.587 34.7651 101.45 36.1208 101.484C37.3497 101.514 38.8322 101.886 40.0074 101.45C40.8804 101.122 40.5049 99.7021 39.6173 100.035H39.6222Z" fill="#333333"/>
<path d="M39.2223 100.809C39.4271 100.809 39.5881 100.721 39.7734 100.642C39.9782 100.559 40.2025 100.515 40.3634 100.363C41.3778 99.3889 42.7237 98.7083 44.1184 98.5908C44.1184 98.7034 44.1818 98.8797 44.1818 98.9629C44.1964 99.5848 44.2306 100.251 44.5232 100.745C44.923 101.416 45.6887 101.519 46.2836 101.847C46.8786 102.175 47.4979 102.997 47.415 103.835C46.347 103.913 45.2303 103.918 44.1623 103.967C43.0943 104.016 42.0215 104.114 40.9535 104.138C39.8855 104.163 38.8078 104.261 37.7398 104.256C36.6719 104.251 35.599 104.001 34.5311 103.972C34.0385 103.957 33.5509 104.001 33.1315 103.654C32.5024 103.135 32.4049 102.087 32.2537 101.137C32.2391 101.044 32.0976 100.995 32.0879 100.887C33.2778 100.887 34.4677 100.97 35.6575 100.966C36.8474 100.961 38.0373 100.814 39.2272 100.809H39.2223Z" fill="#FCFCFC"/>
<path d="M39.4174 101.519C40.3391 101.397 40.8755 100.794 41.5972 100.3C42.3531 99.7808 43.2114 99.4234 44.1233 99.3304L43.4162 98.7918C43.5722 99.9179 43.5186 101.078 44.5524 101.813C45.3912 102.41 46.742 102.503 46.6884 103.835L47.4199 103.1C44.4354 103.306 41.4217 103.429 38.4274 103.512C36.9986 103.551 35.5844 103.306 34.1604 103.233C33.4631 103.198 33.2875 102.714 33.1461 102.092C33.0827 101.808 33.0388 101.519 32.9949 101.23C32.9462 100.907 32.8438 100.789 32.7072 100.52C32.4975 100.887 32.2878 101.255 32.0733 101.627C33.2631 101.627 34.453 101.71 35.6429 101.705C36.8377 101.7 38.0227 101.563 39.2126 101.548C40.1538 101.539 40.1538 100.07 39.2126 100.079C38.0178 100.094 36.8328 100.226 35.6429 100.236C34.453 100.241 33.2631 100.158 32.0733 100.158C31.4881 100.158 31.2004 100.775 31.4393 101.264C31.5759 101.543 31.5807 101.671 31.6392 102.014C31.6978 102.356 31.7612 102.694 31.8782 103.022C32.083 103.615 32.4293 104.148 32.9949 104.452C33.6045 104.775 34.3165 104.692 34.9797 104.741C35.8234 104.804 36.6573 104.966 37.5009 104.995C39.0955 105.049 40.7292 104.912 42.3238 104.819C44.0209 104.721 45.7179 104.692 47.4101 104.574C47.8149 104.545 48.127 104.261 48.1416 103.84C48.1904 102.601 47.3809 101.524 46.2787 101.044C45.8155 100.843 45.2839 100.711 45.0694 100.202C44.8548 99.6927 44.9035 98.9729 44.8206 98.405C44.7816 98.1161 44.4013 97.837 44.1135 97.8664C43.1382 97.9692 42.2214 98.2385 41.3631 98.7183C40.5731 99.159 39.9441 99.9865 39.0175 100.109C38.6225 100.163 38.4177 100.667 38.5055 101.015C38.6176 101.441 39.0175 101.583 39.4076 101.529L39.4174 101.519Z" fill="#333333"/>
<path d="M31.6051 80.5043C31.6247 82.3795 31.6149 82.3795 31.6344 84.2548C31.6539 86.1301 31.4735 86.1301 31.493 88.0053C31.5125 89.8806 31.6149 89.8806 31.6344 91.7558C31.6539 93.6311 31.6149 93.6311 31.6344 95.5113C31.6344 95.9177 32.005 96.1967 32.4098 96.1919C34.2336 96.1772 34.2336 96.2016 36.0575 96.1869C37.8813 96.1723 37.8813 96.089 39.7051 96.0743C41.529 96.0596 41.529 96.2506 43.3528 96.2359C43.7478 96.2359 44.0307 95.8393 44.0404 95.4427C44.0892 93.7143 44.2014 93.7143 44.2501 91.986C44.2989 90.2576 44.177 90.2527 44.2209 88.5243C44.2696 86.796 44.2014 86.796 44.2452 85.0676C44.2891 83.3392 44.4647 83.3441 44.5086 81.6108C44.5525 79.8775 44.4891 79.8776 44.533 78.1443C44.5817 76.411 44.4598 76.411 44.5086 74.6777C44.5183 74.2616 44.3135 73.865 43.899 73.865C42.1629 73.865 42.1629 73.7866 40.4318 73.7866C38.6957 73.7866 38.6957 73.9188 36.9596 73.9188C35.2236 73.9188 35.2236 74.0363 33.4875 74.0363C31.7514 74.0363 31.7514 73.8356 30.0154 73.8356" fill="#FCFCFC"/>
<path d="M30.8736 80.5042C30.8834 81.6059 30.8883 82.7075 30.898 83.8043C30.9078 84.8912 30.8102 85.9586 30.7712 87.0456C30.6883 89.2587 30.9224 91.4816 30.9029 93.6996C30.8931 94.7474 30.5957 96.2505 31.7514 96.7842C32.2683 97.0241 32.9023 96.9262 33.4582 96.9262C33.9069 96.9262 34.3506 96.9262 34.7993 96.9262C37.062 96.9262 39.3345 96.6961 41.5923 96.8968C42.6262 96.9899 44.0404 97.269 44.6061 96.1477C44.8743 95.614 44.7865 94.9285 44.8304 94.3459C44.8645 93.8759 44.9182 93.4107 44.9474 92.9407C45.0157 91.8341 44.9718 90.7374 44.9474 89.6259C44.9279 88.5634 44.9718 87.496 44.9669 86.4336C44.9523 84.2009 45.279 81.9976 45.2595 79.76C45.2498 78.6828 45.3083 77.6056 45.2644 76.5334C45.2254 75.5541 45.5619 74.0363 44.6548 73.3851C44.1282 73.0032 43.3528 73.1403 42.7383 73.1207C42.2361 73.106 41.7386 73.0766 41.2364 73.0668C40.0123 73.0423 38.8127 73.1598 37.5935 73.1892C36.3744 73.2186 35.1504 73.292 33.9312 73.3116C32.6194 73.3312 31.332 73.1207 30.0251 73.1109C29.0839 73.106 29.0839 74.5749 30.0251 74.5798C30.9809 74.5846 31.9221 74.7364 32.8779 74.7707C33.8776 74.8099 34.8724 74.7315 35.8721 74.6875C37.9252 74.5944 40.0075 74.4769 42.0654 74.5651C42.475 74.5846 42.8846 74.5993 43.2992 74.6042C43.4259 74.6042 43.5674 74.614 43.6942 74.6042C44.1916 74.5749 43.7868 74.5651 43.7966 74.6287C43.8209 74.9568 43.7868 75.3044 43.7917 75.6373C43.8014 76.6215 43.8356 77.5958 43.8161 78.58C43.8014 79.4809 43.8258 80.3818 43.8063 81.2827C43.7868 82.262 43.6503 83.2216 43.5771 84.196C43.4991 85.2046 43.5235 86.2132 43.5235 87.2268C43.5235 88.2403 43.4796 89.2489 43.5235 90.2575C43.5674 91.2906 43.5527 92.3237 43.465 93.3569C43.4308 93.7388 43.3918 94.1158 43.3674 94.4928C43.3577 94.6691 43.4162 95.3251 43.3284 95.4426C43.2114 95.5944 42.792 95.5014 42.5677 95.4916C41.6167 95.4573 40.6755 95.3349 39.7246 95.3398C38.7737 95.3398 37.8325 95.4133 36.8816 95.4378C35.8624 95.4622 34.8432 95.4524 33.824 95.4524C33.5996 95.4524 33.3704 95.4524 33.1461 95.4524C32.9706 95.4524 32.5317 95.5455 32.3756 95.4524L32.3854 95.5112V95.2762C32.3854 95.1097 32.3854 94.9383 32.3854 94.7719C32.3854 94.4977 32.3854 94.2186 32.3854 93.9444C32.4049 91.697 32.1903 89.4496 32.2537 87.2072C32.283 86.1398 32.3951 85.0871 32.3902 84.0197C32.3805 82.8495 32.3756 81.6744 32.3659 80.5042C32.3561 79.5592 30.8931 79.5592 30.9029 80.5042H30.8736Z" fill="#333333"/>
<path d="M58.2361 59.122C57.8168 58.2896 57.3486 57.4768 57.0365 56.6102C56.7244 55.7435 56.5927 54.8182 56.505 53.8781C56.4611 53.3933 57.0024 52.2182 57.1584 51.6895C57.412 50.8179 57.8119 49.9954 58.0655 49.1238C58.1679 48.7713 58.1923 48.3453 58.4849 48.125C58.9189 47.8067 59.6309 47.9781 59.9868 48.3845C60.3428 48.7909 60.4111 49.349 60.4647 49.8827C61.128 49.1483 61.9424 48.6048 62.8104 48.1299C63.1908 47.9242 63.576 47.699 64.01 47.7088C64.444 47.7186 64.9756 47.9389 65.1024 48.3551C65.2584 48.8839 64.7951 49.5155 64.4245 49.9219C64.9463 49.4861 65.7363 49.4078 66.2094 49.8974C66.6824 50.3871 66.5312 51.3859 65.8826 51.5964C66.4483 51.332 67.3066 51.758 67.3944 52.3798C67.4821 53.0016 66.9799 53.5843 66.4532 53.927C67.0237 53.5843 67.7552 54.3432 67.6723 55.0042C67.5894 55.6652 67.0628 56.1891 66.5166 56.571C65.4925 57.2908 64.3026 57.702 63.1517 58.1966C62.0057 58.6911 60.9085 59.3227 59.7333 59.734C59.4163 59.8466 59.0652 59.7976 58.7628 59.6459C58.5287 59.5283 58.3483 59.3521 58.2313 59.1171L58.2361 59.122Z" fill="#FFE6D9"/>
<path d="M58.8652 58.75C58.3093 57.6533 57.7094 56.6055 57.451 55.3863C57.3437 54.8918 57.1877 54.2749 57.2364 53.7706C57.2706 53.3886 57.4656 52.9823 57.5973 52.6248C57.963 51.6358 58.3385 50.6419 58.6653 49.643C58.7677 49.3395 58.7482 48.6638 59.1432 48.7078C59.6406 48.7617 59.6942 49.5108 59.7332 49.8829C59.7966 50.4705 60.5086 50.9111 60.9816 50.4019C61.64 49.692 62.4154 49.1779 63.259 48.7176C63.5028 48.5854 64.0393 48.2525 64.3123 48.5169C64.5367 48.7372 64.0783 49.1926 63.9027 49.3933C63.3858 49.976 64.0831 51.0727 64.7902 50.5488C65.0146 50.3824 65.4973 50.0935 65.7119 50.446C65.8436 50.6663 65.7119 50.872 65.512 50.9552C64.7561 51.2784 65.2974 52.5857 66.0777 52.2968C66.2532 52.2331 66.5556 52.2282 66.658 52.4339C66.8091 52.7374 66.2776 53.1487 66.0825 53.2809C65.2974 53.8244 65.9655 54.9408 66.8189 54.5491C66.697 54.6029 66.8579 54.6176 66.8872 54.7155C66.9311 54.8869 66.9554 54.9457 66.8823 55.1317C66.7506 55.4647 66.4239 55.7193 66.1459 55.9249C65.4144 56.4586 64.5562 56.8111 63.7271 57.1539C62.864 57.5113 62.0252 57.8981 61.1816 58.2996C60.6403 58.5591 59.2992 59.4845 58.8603 58.7402C58.3824 57.9275 57.1194 58.6619 57.5973 59.4796C57.9289 60.0475 58.4799 60.4246 59.1383 60.498C59.899 60.5812 60.6452 60.1602 61.3181 59.8517C62.747 59.1956 64.2099 58.5934 65.6241 57.9128C66.7653 57.3644 68.3404 56.439 68.4038 54.9897C68.4574 53.7461 67.248 52.7423 66.0825 53.276C66.3264 53.6971 66.5751 54.1231 66.8189 54.5442C67.6479 53.9713 68.4331 52.9823 68.0137 51.9149C67.6674 51.0336 66.5702 50.5488 65.6827 50.872L66.2483 52.2135C67.1944 51.8121 67.4626 50.5146 66.9603 49.6724C66.3459 48.6442 64.9414 48.605 64.0539 49.2709L64.9414 50.4264C65.4486 49.8536 65.985 49.1191 65.8387 48.3063C65.6973 47.5327 64.9999 47.0774 64.2587 46.9844C63.4346 46.8815 62.7031 47.3222 62.0155 47.7286C61.2596 48.179 60.5525 48.7078 59.9527 49.3541C60.3672 49.5255 60.7866 49.7018 61.2011 49.8731C61.1231 49.1583 61.0255 48.3994 60.5086 47.8559C60.0551 47.381 59.348 47.1215 58.6994 47.2488C57.9825 47.3907 57.6119 47.9293 57.4412 48.605C57.2267 49.4472 56.8756 50.2355 56.5976 51.0531C56.3976 51.6407 56.1782 52.2233 55.9831 52.8158C55.7637 53.4817 55.7881 54.0398 55.8759 54.7302C56.1051 56.4831 56.817 57.9275 57.607 59.4845C58.0362 60.3266 59.2992 59.5824 58.8701 58.7451L58.8652 58.75Z" fill="#333333"/>
<path d="M59.9917 59.2543C59.4357 58.2016 58.8944 57.1391 58.3385 56.0865C57.7826 55.0338 57.2266 53.9811 56.6707 52.9284C56.5049 52.615 56.2855 52.1499 55.9392 52.1107C55.749 52.0911 55.5881 52.3751 55.4126 52.4583C54.0812 53.0948 52.7207 53.7999 51.248 53.9468C50.1995 54.0496 49.2778 53.7607 48.4927 53.2319C47.7124 52.708 47.0639 51.9295 46.3324 51.3224C45.4302 50.5684 44.4939 49.8388 43.4893 49.2268C42.4847 48.6148 41.3582 48.2427 40.2756 47.7775C39.193 47.3124 38.169 46.6759 37.0327 46.3625C36.0769 46.103 35.0528 46.0834 34.0678 45.9708C33.0827 45.8582 32.0879 45.7847 31.0979 45.8435C30.108 45.9023 29.0839 45.9121 28.1232 46.1716C26.9772 46.48 25.8166 47.0235 24.6803 47.6159C23.5929 48.1839 22.5542 48.9134 21.5398 49.6234C20.5255 50.3334 19.4429 51.0776 18.5407 51.8316C17.7166 52.522 16.912 53.2662 16.1171 54.0055C15.3222 54.7449 14.6492 55.6115 13.9811 56.4537C13.313 57.2958 12.6206 58.1527 12.1817 59.1564C11.7428 60.1601 11.5867 61.2569 11.4746 62.3487C11.3624 63.4406 11.4014 64.5227 11.6209 65.595C11.8988 66.9463 12.5133 68.2634 13.4203 69.3063C14.3566 70.3835 15.5416 71.1816 16.9607 71.3089C17.1948 71.3285 17.4337 71.3432 17.6483 71.4362C18.6529 71.8866 18.2091 74.3397 19.1308 75.2553C20.3207 76.4401 22.3201 76.0876 23.8513 76.1611C25.09 76.2247 26.3238 76.21 27.5624 76.2443C28.8011 76.2786 30.0348 76.4255 31.2735 76.4304C32.4292 76.4353 33.5899 76.5674 34.7505 76.5479C35.9062 76.5283 37.0669 76.4842 38.2275 76.4401C39.3832 76.3961 40.539 76.2394 41.6947 76.1758C42.7188 76.117 43.7868 75.8526 44.689 75.3826C45.5911 74.9125 46.4299 74.2221 46.6688 73.0666C46.8883 72.009 46.6493 70.8633 46.5177 69.7323C46.7761 69.7519 47.1565 69.8057 47.4198 69.7861C48.1708 69.7225 48.9023 69.4777 49.5997 69.1937C50.5945 68.7873 51.4577 68.1459 52.3598 67.5779C53.262 67.01 54.2422 66.5448 55.0663 65.8545C55.8856 65.1739 56.6512 64.4101 57.4168 63.6609C58.1825 62.9118 58.8018 62.0158 59.5381 61.2471C59.8502 60.919 60.3574 60.6449 60.3769 60.1944C60.3915 59.8615 60.1477 59.5481 59.9917 59.2543Z" fill="#FFD063"/>
<path d="M60.6257 58.8869C59.6065 56.9529 58.6019 55.0189 57.5876 53.0849C57.2609 52.4631 56.9244 51.5524 56.1392 51.4055C55.7296 51.3271 55.4663 51.5034 55.159 51.7335C54.8177 51.9881 54.3885 52.1546 53.9984 52.3358C52.277 53.1338 50.3751 53.7263 48.7073 52.4875C47.9515 51.9294 47.3321 51.19 46.6055 50.5927C45.8155 49.9464 45.006 49.3197 44.1477 48.7713C43.2895 48.2229 42.4117 47.8606 41.4997 47.4885C40.5878 47.1164 39.7393 46.7002 38.8615 46.2889C36.9938 45.4125 34.97 45.2656 32.9316 45.1285C30.9468 44.9914 28.7963 45.0942 26.9188 45.7944C25.0218 46.5043 23.2857 47.5228 21.6277 48.6734C19.8916 49.8827 18.2043 51.1117 16.6389 52.5365C15.1613 53.8781 13.8934 55.3421 12.6938 56.9382C10.3482 60.062 9.97266 64.8555 11.8599 68.3073C12.6938 69.8349 14.0202 71.1716 15.6734 71.769C16.0635 71.911 16.4683 71.9844 16.8779 72.0285C17.1559 72.0578 17.3314 72.0236 17.4728 72.2586C17.7606 72.7482 17.7411 73.5316 17.8532 74.08C18.1653 75.6174 19.204 76.5379 20.7499 76.7827C21.535 76.9051 22.3299 76.8904 23.1199 76.8855C24.0611 76.8855 25.0072 76.9394 25.9483 76.9541C28.0745 76.9835 30.2007 77.101 32.3269 77.1989C34.4531 77.2968 36.5744 77.2772 38.6957 77.1548C41.8118 76.9688 47.0005 76.866 47.4589 72.7531C47.5711 71.7445 47.376 70.7359 47.2541 69.737L46.5226 70.4715C48.2294 70.6232 49.8485 70.0259 51.2968 69.1397C52.0234 68.6941 52.7256 68.2045 53.462 67.7736C54.2325 67.3232 54.9835 66.8776 55.6711 66.2999C57.0463 65.1492 58.2654 63.8517 59.4163 62.4857C59.6748 62.1821 59.9332 61.8785 60.2258 61.6044C60.4648 61.3791 60.7183 61.1882 60.889 60.8993C61.3133 60.1893 60.9866 59.5283 60.6208 58.8771C60.1575 58.0546 58.8945 58.7939 59.3578 59.6165C59.4504 59.7781 59.6504 60.0229 59.6016 60.1844C59.548 60.3558 59.1432 60.5957 59.0164 60.723C58.5141 61.2273 58.085 61.81 57.6217 62.3486C56.6415 63.4894 55.4858 64.6596 54.2666 65.5409C53.1255 66.3684 51.843 67.0637 50.6433 67.8079C49.3705 68.6011 48.0246 69.1299 46.5177 68.9928C46.1569 68.9585 45.7424 69.3551 45.7863 69.7272C45.9813 71.294 46.4787 73.2134 45.0158 74.315C43.5479 75.4167 41.6997 75.4167 39.9587 75.5734C36.0526 75.9259 32.166 75.7398 28.2598 75.5342C26.4701 75.4363 24.6463 75.3971 22.8517 75.4118C21.7301 75.4216 19.8233 75.5733 19.3845 74.2318C19.048 73.2085 19.2089 71.8424 18.3653 71.0443C17.824 70.5302 17.0681 70.6379 16.4 70.4568C15.6051 70.2413 14.9126 69.7762 14.3274 69.2033C13.0547 67.9401 12.3378 66.2117 12.1769 64.4344C12.0159 62.6473 12.2159 60.5272 13.0985 58.9359C13.5618 58.1035 14.1714 57.3691 14.7615 56.6298C15.3515 55.8904 15.8977 55.2197 16.5512 54.5929C17.9556 53.2465 19.4283 51.9881 21.0181 50.8669C22.5786 49.7701 24.1245 48.6734 25.8459 47.8361C26.6749 47.4346 27.5283 47.0674 28.4208 46.8471C29.3619 46.612 30.3568 46.5974 31.3174 46.5631C32.2733 46.5288 33.2242 46.6121 34.1751 46.7149C35.1699 46.8226 36.1745 46.8471 37.1303 47.1604C37.9642 47.4297 38.7299 47.8704 39.5199 48.2376C40.3099 48.6048 41.212 48.9182 42.041 49.3001C43.6845 50.0492 45.1962 51.2194 46.4982 52.468C47.7369 53.6578 49.0292 54.7055 50.8335 54.7055C51.7016 54.7055 52.5696 54.4803 53.3742 54.1768C54.1789 53.8732 55.042 53.5402 55.7784 53.0996C55.8271 53.0702 56.1441 52.8695 56.1295 52.8205C56.1246 52.796 55.793 52.8009 55.7881 52.8743C55.7881 52.9086 55.8808 53.0212 55.8954 53.0506C56.1441 53.4766 56.3587 53.9221 56.5879 54.3579C57.0512 55.2343 57.5144 56.1108 57.9777 56.9921C58.441 57.8734 58.8896 58.7547 59.3529 59.6312C59.7918 60.4684 61.0548 59.7242 60.6159 58.8918L60.6257 58.8869Z" fill="#333333"/>
<path d="M16.3853 58.8482C17.8288 58.858 19.4478 58.4614 20.8474 58.9804C21.5058 59.2252 21.6862 59.7589 21.8959 60.3856C22.1495 61.1641 22.325 61.9671 22.4518 62.7799C22.5835 63.6122 22.642 64.4495 22.6713 65.2917C22.7005 66.1338 22.7785 67.0249 22.7103 67.8671C22.5737 69.5416 20.2573 69.4486 19.0431 69.4584C18.1019 69.4633 18.1019 70.9321 19.0431 70.9272C20.7352 70.9174 23.1199 70.8244 23.9294 68.9981C24.3342 68.0776 24.1781 66.9417 24.1586 65.9624C24.1391 64.9098 24.0757 63.862 23.9343 62.8191C23.7977 61.83 23.6027 60.841 23.2808 59.896C22.9931 59.0489 22.6566 58.2753 21.8422 57.82C20.2086 56.9093 18.1604 57.3842 16.3951 57.3744C15.4539 57.3695 15.4539 58.8384 16.3951 58.8433L16.3853 58.8482Z" fill="#333333"/>
<path d="M23.6709 47.3808C23.3636 48.3796 23.2271 49.403 23.2125 50.4508C23.1978 51.5769 23.2856 52.7814 24.0025 53.6529C24.6267 54.4118 25.5727 54.7301 26.5578 54.7741C27.5039 54.8133 28.5231 54.637 29.3326 54.1474C30.1421 53.6578 30.8248 52.9185 31.4295 52.1546C32.0245 51.4006 32.5609 50.5487 33.0632 49.731C33.1509 51.6846 33.5703 52.9772 35.1113 54.2013C35.4868 54.4999 35.9257 54.7741 36.3744 54.9455C37.5691 55.4058 38.9785 54.877 39.9148 54.0005C40.8511 53.1241 41.3631 51.8854 41.4411 50.6074C41.5192 49.3246 41.168 48.0712 40.7243 46.8667" fill="#FFD063"/>
<path d="M22.9638 47.185C22.1299 50.02 21.9202 54.6469 25.6361 55.3912C27.2942 55.7241 29.0302 55.3618 30.3567 54.3091C31.766 53.1927 32.756 51.6113 33.6874 50.0983C33.2339 49.9759 32.7803 49.8535 32.3219 49.7262C32.4 51.244 32.7072 52.6786 33.702 53.8684C34.8187 55.2002 36.4914 56.1501 38.247 55.7241C39.9245 55.3177 41.2071 53.9712 41.802 52.3849C42.5042 50.5047 42.08 48.4923 41.4168 46.6709C41.0949 45.7896 39.6807 46.1715 40.0074 47.0626C40.5243 48.4923 40.9535 50.0298 40.539 51.5427C40.1976 52.7863 39.2954 53.888 38.0373 54.2601C36.7791 54.6322 35.5356 53.8097 34.7358 52.8304C34.019 51.9491 33.8434 50.8279 33.7849 49.7262C33.7459 49.0064 32.8145 48.7176 32.4195 49.3541C31.0101 51.6406 29.2789 54.4364 26.1969 54.0055C23.2271 53.5942 23.7538 49.6625 24.3682 47.5719C24.6364 46.6611 23.2222 46.2743 22.9589 47.1801L22.9638 47.185Z" fill="#333333"/>
<path d="M57.4948 19.2861C56.6804 19.2861 55.9148 19.4477 55.2077 19.7512C54.8956 18.6251 54.5006 17.5479 54.0373 16.4952C53.5692 15.4278 52.9694 14.4388 52.3598 13.4595C51.7453 12.4754 51.0577 11.55 50.3116 10.6687C49.5655 9.78246 48.834 8.88155 47.9709 8.11284C47.1077 7.34413 46.1812 6.63907 45.2156 6.00256C44.2549 5.37095 43.265 4.74912 42.2116 4.2595C41.1583 3.76987 40.0854 3.32921 38.9736 2.99627C37.8617 2.66332 36.7157 2.53602 35.56 2.36465C34.4335 2.20307 33.2826 2.25693 32.1074 2.25693C30.9321 2.25693 29.7715 2.14922 28.645 2.31569C27.5185 2.48216 26.3286 2.66332 25.2363 2.99137C24.1195 3.32431 23.0564 3.81884 22.0128 4.30356C20.9595 4.79319 20.0037 5.45908 19.043 6.09559C18.0823 6.7321 17.0436 7.30007 16.1804 8.06878C15.3173 8.83749 14.6346 9.80205 13.8885 10.6834C13.1423 11.5647 12.4011 12.4558 11.7866 13.44C11.1771 14.4192 10.704 15.4768 10.2359 16.5442C9.77262 17.5969 9.34836 18.6887 9.03626 19.8149C8.31452 19.4966 7.50013 19.3987 6.66136 19.3987C5.58364 19.3987 4.6327 19.6778 3.76467 20.187C2.87226 20.7109 1.95058 21.2984 1.43367 22.2042C0.916749 23.11 0.726562 24.1578 0.726562 25.2399C0.726562 26.322 1.09718 27.311 1.59459 28.1826C2.092 29.0541 2.84787 29.8032 3.74517 30.3271C4.6132 30.8363 5.58851 31.0762 6.66136 31.0762C7.32945 31.0762 7.95853 31.0762 8.55347 30.8706C8.78755 32.0947 9.11916 33.2747 9.52879 34.4302C9.9433 35.6004 10.548 36.6726 11.1283 37.7498C11.7086 38.827 12.2743 39.9384 13.0155 40.9177C13.7568 41.9018 14.5322 42.8713 15.4148 43.7281C16.2975 44.585 17.3362 45.2656 18.3359 45.9804C19.3356 46.6953 20.3645 47.3465 21.4667 47.8997C22.5688 48.453 23.7148 48.8398 24.89 49.2168C26.0506 49.5889 27.2015 50.0443 28.4255 50.2304C29.6203 50.4164 30.8541 50.4996 32.1025 50.4996C33.3509 50.4996 34.57 50.343 35.7697 50.1618C36.9986 49.9709 38.1689 49.6232 39.3247 49.2511C40.5048 48.8741 41.6167 48.3894 42.709 47.841C43.8111 47.2877 44.9279 46.7736 45.9276 46.0637C46.9273 45.3537 47.888 44.5703 48.7706 43.7135C49.6533 42.8566 50.3458 41.8333 51.087 40.8491C51.8282 39.8699 52.706 38.969 53.2912 37.882C53.8764 36.7951 54.2373 35.6102 54.6567 34.44C55.076 33.2698 55.3638 32.0702 55.5978 30.8461C56.1782 31.0371 56.8462 31.1497 57.49 31.1497C58.5677 31.1497 59.5479 30.8461 60.4159 30.3418C61.2839 29.8375 62.1666 29.1618 62.6835 28.2609C63.1858 27.3894 63.454 26.3269 63.454 25.2448C63.454 24.1627 63.0444 23.1835 62.547 22.3071C62.0496 21.4306 61.3278 20.6423 60.4354 20.1184C59.5674 19.6092 58.5726 19.2861 57.4948 19.2861Z" fill="#FFE6D9"/>
<path d="M57.4949 18.5521C56.6366 18.5668 55.8124 18.7186 55.0176 19.0466L55.9197 19.5607C53.6668 11.6092 47.2833 4.83283 39.3979 2.36512C37.3351 1.71882 35.087 1.50828 32.9315 1.52786C31.8489 1.53765 30.7615 1.474 29.6789 1.50828C28.5963 1.54255 27.5478 1.7335 26.5042 1.93915C24.417 2.35043 22.3347 3.20727 20.506 4.29424C19.638 4.81324 18.809 5.3959 17.9507 5.93938C17.0924 6.48286 16.2488 7.01655 15.5173 7.70692C14.6736 8.50012 13.9909 9.45488 13.2448 10.3411C12.4987 11.2273 11.7721 12.1086 11.1674 13.083C9.9287 15.066 8.97777 17.3917 8.33894 19.6342L9.24111 19.1201C7.21733 18.2877 4.89607 18.6451 3.06736 19.7615C2.18957 20.3001 1.34105 20.9366 0.809499 21.8424C0.277952 22.7482 0.0487525 23.8596 0.00486327 24.9221C-0.17557 29.4658 4.45718 32.903 8.75345 31.5859C8.4511 31.4146 8.15363 31.2432 7.85128 31.0718C8.29017 33.329 9.0558 35.4393 10.1384 37.4614C11.221 39.4836 12.2304 41.2119 13.6447 42.8962C15.0784 44.6001 16.8388 45.8781 18.6773 47.1119C20.5596 48.3751 22.5542 49.232 24.6999 49.9322C25.7288 50.2651 26.7432 50.6519 27.8062 50.8722C28.9084 51.0975 30.0543 51.1905 31.176 51.2297C33.4972 51.3129 35.8672 51.0289 38.1056 50.4022C42.2994 49.2222 46.5713 47.1511 49.5997 43.9343C50.4385 43.0431 51.1065 42.0149 51.8624 41.0553C52.5549 40.1739 53.3254 39.3367 53.8813 38.3525C54.4811 37.2851 54.8566 36.1052 55.2614 34.9545C55.71 33.6766 56.0514 32.3791 56.3099 31.0522L55.4077 31.5663C59.1919 32.7463 63.5223 30.3325 64.1026 26.3029C64.6781 22.3516 61.4303 18.6353 57.49 18.557C56.5488 18.5374 56.5488 20.0063 57.49 20.0259C60.5525 20.0895 63.1322 23.0469 62.6592 26.1266C62.1715 29.2945 58.7335 31.0669 55.7929 30.1513C55.437 30.0387 54.9688 30.2835 54.8908 30.6654C54.4811 32.7659 53.8716 34.8909 52.9938 36.8494C52.1989 38.6218 50.7749 40.0907 49.6143 41.633C48.3708 43.2831 46.7713 44.7176 45.0206 45.8095C43.2699 46.9014 41.2997 47.8366 39.354 48.4927C35.3064 49.8489 30.7468 50.3679 26.6212 49.0361C24.5828 48.38 22.5493 47.7533 20.6913 46.6615C18.9796 45.6577 17.1802 44.4826 15.7708 43.0725C14.0982 41.398 12.8693 39.4689 11.7574 37.3929C11.221 36.3989 10.6602 35.4099 10.2701 34.3474C9.83117 33.1576 9.49956 31.9287 9.25574 30.685C9.18259 30.3031 8.71443 30.0632 8.35357 30.1709C4.93509 31.2187 1.31179 28.5307 1.45808 24.9221C1.49222 24.0604 1.67265 23.1399 2.16031 22.4152C2.5992 21.7592 3.29168 21.3234 3.95977 20.9268C5.43737 20.0504 7.23683 19.8741 8.84123 20.5302C9.21185 20.682 9.64099 20.3637 9.74339 20.0161C10.2847 18.1017 11.0796 16.2068 12.0403 14.4686C12.9571 12.8088 14.2445 11.3938 15.4441 9.93961C16.0781 9.1709 16.7608 8.48053 17.5849 7.91257C18.3603 7.37888 19.1698 6.89415 19.955 6.37515C21.6227 5.27349 23.4027 4.32851 25.3192 3.73607C27.2601 3.13383 29.2692 2.93308 31.2881 2.98205C32.3317 3.00653 33.3802 2.95757 34.4238 3.00163C35.4674 3.0457 36.4475 3.20727 37.4375 3.38844C39.3784 3.74586 41.2851 4.52436 43.0017 5.49382C44.6695 6.4339 46.2934 7.53556 47.6929 8.85265C49.2291 10.297 50.6043 12.045 51.7259 13.8272C52.9353 15.7515 53.8764 17.7442 54.5006 19.9426C54.5982 20.2903 55.0322 20.6085 55.4028 20.4567C56.0807 20.1826 56.7585 20.0308 57.4949 20.0161C58.436 19.9965 58.436 18.5276 57.4949 18.5472V18.5521Z" fill="#333333"/>
<path d="M26.0945 22.6694C26.0945 23.5458 25.5191 24.3635 24.6511 24.3635C23.783 24.3635 22.9735 23.5458 22.9735 22.6694C22.9735 21.793 23.783 21.0732 24.6511 21.0732C25.5191 21.0732 26.0945 21.793 26.0945 22.6694Z" fill="#333333"/>
<path d="M41.29 22.6696C41.29 23.546 40.4464 24.1972 39.5783 24.1972C38.7103 24.1972 37.9203 23.546 37.9203 22.6696C37.9203 21.7932 38.7103 21.0098 39.5783 21.0098C40.4464 21.0098 41.29 21.7981 41.29 22.6696Z" fill="#333333"/>
<path d="M31.5076 24.3344C31.6539 24.2414 31.8051 24.1532 31.966 24.0847L31.7905 24.1581C31.927 24.1043 32.0636 24.0602 32.2098 24.0406L32.0148 24.0651C32.1221 24.0504 32.2294 24.0504 32.3366 24.0651L32.1416 24.0406C32.2489 24.0553 32.3513 24.0896 32.4537 24.1287L32.2781 24.0553C32.4293 24.1238 32.5658 24.212 32.6975 24.3099L32.5512 24.1973L32.5756 24.2169C32.7316 24.3442 32.8828 24.4323 33.0925 24.4323C33.2729 24.4323 33.4875 24.354 33.6094 24.2169C33.7313 24.0798 33.8337 23.8937 33.824 23.6979C33.8142 23.5167 33.7606 23.2964 33.6094 23.1789C33.4875 23.0809 33.3656 22.983 33.2339 22.9047C33.1023 22.8263 32.9755 22.7725 32.8389 22.7137C32.6292 22.6305 32.4 22.5864 32.1708 22.5864C31.6637 22.5864 31.1809 22.797 30.7615 23.0663C30.6006 23.1691 30.4738 23.3209 30.425 23.5069C30.3763 23.6832 30.4006 23.9182 30.4982 24.0749C30.7079 24.398 31.1565 24.5596 31.4979 24.3393L31.5076 24.3344Z" fill="#333333"/>
<path d="M30.0641 31.2823C31.4345 31.9139 33.1218 32.0119 34.5018 31.3998C35.7844 30.8319 37.5204 28.9223 37.1498 27.3898C36.8572 26.1755 35.3942 26.5134 34.4677 26.5378C33.0827 26.5721 31.6978 26.4546 30.3128 26.4546C29.0547 26.4546 27.3967 25.9013 27.4796 27.8256C27.5478 29.4022 28.6646 30.636 30.069 31.2823H30.0641Z" fill="#FCFCFC"/>
<path d="M29.6935 31.9187C31.7661 32.8343 34.1702 32.7902 35.9746 31.3164C36.7451 30.6848 37.3936 29.8475 37.735 28.9026C38.0374 28.0653 38.0325 26.9832 37.3644 26.3174C36.7646 25.7249 35.8575 25.7151 35.0724 25.769C33.9264 25.8473 32.7804 25.7886 31.6344 25.7494C30.7371 25.72 29.8301 25.6564 28.9377 25.6515C28.2013 25.6466 27.4405 25.8326 27.0309 26.5034C26.4701 27.4239 26.7725 28.7606 27.2357 29.6517C27.7624 30.6603 28.6841 31.4339 29.6984 31.9187C30.5469 32.3201 31.2882 31.0569 30.4348 30.6505C29.2546 30.0875 27.9526 28.8781 28.2305 27.4141C28.2354 27.3847 28.2988 27.2281 28.2793 27.2623C28.3037 27.2134 28.372 27.184 28.3476 27.1987C28.5573 27.1056 28.7328 27.1203 28.9864 27.1252C29.6204 27.135 30.2495 27.1889 30.8834 27.2036C31.9221 27.2232 32.9608 27.2868 33.9995 27.2868C34.6384 27.2868 35.3113 27.1497 35.9453 27.2329C37.2912 27.4092 35.8283 29.4363 35.3894 29.8769C34.0776 31.1989 32.1172 31.4045 30.4348 30.6603C30.069 30.4987 29.6545 30.5575 29.4351 30.9247C29.2498 31.2332 29.3375 31.7718 29.6984 31.9284L29.6935 31.9187Z" fill="#333333"/>
<path d="M21.3595 29.4704C21.3595 30.8561 20.8718 32.1634 19.9745 33.0741C19.0772 33.9848 17.7703 34.4646 16.3951 34.4646C15.0199 34.4646 13.7276 33.975 12.8254 33.0643C11.9281 32.1585 11.4844 30.8561 11.4844 29.4753C11.4844 28.0946 11.9623 26.8265 12.8644 25.9207C13.7666 25.01 15.0199 24.584 16.4 24.584C17.78 24.584 19.0918 24.9512 19.994 25.8619C20.8913 26.7677 21.3643 28.0946 21.3643 29.4753L21.3595 29.4704Z" fill="#EDBBA6"/>
<path d="M52.7208 29.4707C52.7208 30.8563 52.3404 32.193 51.4431 33.0988C50.5458 34.0046 49.2145 34.5872 47.8344 34.5872C46.4543 34.5872 45.1767 33.9605 44.2745 33.0498C43.3723 32.1391 42.8262 30.8563 42.8262 29.4707C42.8262 28.085 43.3723 26.7924 44.2696 25.8866C45.1718 24.9759 46.4543 24.501 47.8344 24.501C49.2145 24.501 50.3605 25.1081 51.2627 26.0188C52.1648 26.9295 52.7159 28.085 52.7159 29.4707H52.7208Z" fill="#EDBBA6"/>
<path d="M51.5698 21.0931C53.1986 21.3428 55.0517 21.2253 55.5589 19.8495C55.6759 19.5361 55.6808 19.1493 55.6759 18.8115C55.6613 17.7343 55.4711 16.6571 55.2712 15.6093C55.0712 14.5615 54.7884 13.499 54.3934 12.51C53.9984 11.521 53.54 10.5123 52.9353 9.62611C52.3355 8.74968 51.6235 7.90752 50.8237 7.17309C49.9947 6.41907 48.956 5.91475 48.0051 5.30272C47.0541 4.69069 46.0934 4.157 45.0645 3.68206C44.0355 3.20713 43.0407 2.69792 41.9727 2.35029C40.9048 2.00265 39.8124 1.69908 38.72 1.46896C37.6082 1.23394 36.4817 1.13602 35.3845 1.00871C34.2433 0.876515 33.0973 0.714939 31.9465 0.719835C30.7956 0.724731 29.6447 0.837345 28.5036 0.989129C27.3625 1.14091 26.2214 1.33187 25.1095 1.62564C24.1147 1.89004 23.0955 2.23278 22.0763 2.5902C21.0766 2.93783 20.0525 3.28057 19.1064 3.74572C18.1604 4.21086 17.2436 4.82289 16.4097 5.44961C15.4685 6.15956 14.6346 6.99682 13.8202 7.85367C13.0058 8.71051 12.25 9.61631 11.5331 10.5515C10.8065 11.4965 10.1287 12.6226 9.52884 13.7879C8.92902 14.9581 8.3292 16.1381 8.13413 17.3328C7.96833 18.3365 8.13413 19.4578 8.81685 20.2118C9.87507 21.382 11.694 21.049 13.2204 20.6622C14.342 20.3783 15.488 20.1971 16.5852 19.8495C17.6874 19.5018 18.7309 19.0024 19.8135 18.596C20.8961 18.1945 22.0178 17.8959 23.0809 17.4454C24.1439 16.9999 25.2168 16.5641 26.2653 16.0794C27.3137 15.5995 28.3378 15.056 29.3765 14.5517C30.4152 14.0425 31.4734 13.5774 32.5024 13.0535C33.5314 12.5296 34.492 11.8686 35.5161 11.3349C35.6283 11.2761 35.7843 11.2566 35.9111 11.2517C36.1452 11.2419 36.4037 11.3741 36.5743 11.5356C37.4375 12.3631 38.2275 13.2689 39.0955 14.0915C39.9636 14.9141 40.8121 15.766 41.7533 16.5004C42.831 17.3426 43.9575 18.1652 45.1425 18.8506C46.3324 19.5361 47.5857 20.1677 48.9218 20.5251C49.5412 20.6916 50.5506 20.9315 51.5796 21.0882L51.5698 21.0931Z" fill="#8E816E"/>
<path d="M51.3748 21.8031C52.8134 22.0088 54.6713 22.1116 55.7491 20.9218C56.3977 20.2021 56.4464 19.2767 56.3928 18.3513C56.3343 17.2888 56.1441 16.2312 55.9344 15.1883C55.5199 13.1564 54.7786 11.0853 53.6278 9.3471C52.4818 7.61872 51.0578 6.28205 49.2876 5.22935C47.4296 4.1228 45.596 3.07501 43.6064 2.20837C41.6753 1.36622 39.5686 0.808043 37.4814 0.524061C35.3552 0.235182 33.1754 -0.08797 31.0248 0.0197474C28.8694 0.127465 26.67 0.426136 24.5926 1.01369C22.5152 1.60123 20.428 2.24754 18.5408 3.2121C16.6535 4.17666 15.1076 5.46927 13.6837 6.93814C12.2402 8.4266 10.8699 10.0375 9.7873 11.8148C8.7047 13.5921 7.56358 15.5555 7.36364 17.6022C7.19296 19.311 8.00247 21.0981 9.73365 21.6073C11.4648 22.1165 13.4204 21.3674 15.1028 20.9953C17.2631 20.5203 19.2284 19.5558 21.3204 18.8654C23.3832 18.1848 25.4119 17.328 27.3674 16.383C29.3278 15.4331 31.3467 14.542 33.2534 13.4991C33.6972 13.2543 34.1312 12.9948 34.5652 12.7353C34.7846 12.608 34.9992 12.4758 35.2187 12.3485C35.3893 12.2506 35.6771 11.996 35.8673 12.0058C36.1989 12.0204 36.6963 12.7108 36.9206 12.9409C37.3107 13.3424 37.696 13.7537 38.091 14.1503C41.0023 17.0734 44.4842 20.0111 48.5122 21.1813C49.4485 21.4555 50.4141 21.6514 51.3797 21.8031C52.3013 21.95 52.6963 20.535 51.7698 20.3881C49.9167 20.0944 48.1318 19.6292 46.4641 18.7528C44.6939 17.8225 43.0017 16.667 41.4948 15.3499C39.988 14.0328 38.7201 12.6325 37.3302 11.2664C36.7402 10.6838 36.0477 10.341 35.2333 10.6789C34.3458 11.0461 33.5411 11.6581 32.7072 12.1282C30.976 13.0976 29.1278 13.8712 27.3527 14.7574C25.5777 15.6437 23.7002 16.5005 21.8081 17.1566C20.823 17.4993 19.8331 17.8029 18.8675 18.1946C17.9409 18.5716 17.0241 18.9731 16.0586 19.2522C15.093 19.5313 14.1079 19.6978 13.1375 19.9377C12.3816 20.1237 11.6258 20.3147 10.8406 20.2951C8.96803 20.2559 8.55352 18.4492 8.97291 16.902C9.48007 15.0463 10.5724 13.1955 11.655 11.6238C12.7376 10.0522 14.0494 8.60287 15.4197 7.28088C16.8096 5.93931 18.4384 4.78869 20.2281 4.05425C23.9391 2.53642 27.9184 1.48372 31.9416 1.46904C32.9413 1.46904 33.9312 1.58655 34.9261 1.70406C35.9209 1.82157 36.8865 1.89991 37.8569 2.06638C39.7734 2.38953 41.7094 2.9477 43.4796 3.76538C45.2742 4.59284 46.942 5.55251 48.639 6.56603C50.2727 7.54038 51.604 8.82809 52.5939 10.4683C53.6034 12.1429 54.2227 14.0181 54.5884 15.9325C54.7835 16.9461 54.9786 17.9939 54.9493 19.0319C54.9298 19.781 54.5884 20.1825 53.8667 20.3685C53.1937 20.5448 52.4476 20.4958 51.7649 20.3979C51.3699 20.3392 50.9846 20.4958 50.8627 20.912C50.7652 21.2548 50.9846 21.7591 51.3748 21.8178V21.8031Z" fill="#333333"/>
<path d="M30.4397 61.2861C30.1958 61.8491 29.5716 62.2164 28.9474 62.3486C29.6107 62.1723 30.2836 62.5689 30.4348 63.2446C30.586 63.9203 30.1178 64.6645 29.4448 64.7869C30.0886 64.8016 30.5372 65.4234 30.5518 66.0697C30.5762 67.1028 29.9325 67.7736 29.006 68.087C28.0794 68.4003 26.9871 68.4787 26.2799 68.4738C25.0706 68.4591 23.9197 68.18 23.0078 67.6855C22.0958 67.1861 21.535 66.3096 21.2473 64.973C21.1156 64.356 21.0474 63.7391 21.0669 63.1075C21.1059 61.8638 21.3253 60.3901 21.9057 59.1562C22.486 57.9224 23.4076 57.0117 24.9145 56.8305C25.0608 56.8109 25.1876 56.7277 25.329 56.7815C25.8703 56.9872 25.7825 57.7363 25.5826 58.2749C26.4945 58.1721 27.3918 57.9615 28.2989 57.8636C28.7182 57.8146 29.2644 57.8783 29.5326 58.2063C29.7423 58.4658 29.6887 58.8967 29.5326 59.1905C29.3766 59.4843 29.1181 59.8221 28.8597 60.0326C29.2205 59.8025 29.6789 59.7095 30.03 59.9543C30.3812 60.1991 30.4836 60.6251 30.3958 61.0413C30.3812 61.1147 30.4787 61.2126 30.4494 61.2812L30.4397 61.2861Z" fill="#FFE6D9"/>
<path d="M29.8106 60.9192C29.5911 61.3549 29.2107 61.5312 28.7572 61.6438C27.8355 61.869 28.2305 63.2449 29.1473 63.0588C29.8691 62.9119 29.8935 63.9157 29.2546 64.0821C28.4012 64.2976 28.6694 65.4433 29.4497 65.5265C29.8154 65.5657 29.8544 66.0945 29.8106 66.3687C29.7472 66.7359 29.518 67.0101 29.2156 67.2011C28.489 67.6613 27.4259 67.725 26.592 67.7445C24.8413 67.7837 22.7932 67.3382 22.1543 65.4972C21.5155 63.6513 21.7301 61.2962 22.5444 59.5335C22.8517 58.8676 23.2808 58.2654 23.9294 57.9031C24.1001 57.8052 24.2756 57.7366 24.4658 57.6828C24.656 57.6289 24.9584 57.6387 25.1193 57.5506C25.3485 57.5261 25.3095 57.4771 25.0022 57.4086C25.0218 57.4575 25.0266 57.5065 25.012 57.5603C24.9486 57.7219 24.9388 57.9276 24.8852 58.094C24.7438 58.5102 25.129 59.0782 25.5923 59.0243C26.4994 58.9166 27.4015 58.6865 28.3086 58.613C28.4354 58.6032 28.5865 58.5837 28.7133 58.6032C28.7426 58.6032 28.9962 58.7305 28.9474 58.6277C29.0742 58.8921 28.4939 59.4062 28.3476 59.5335C27.7136 60.1015 28.5231 61.0856 29.2351 60.689C29.8642 60.3365 29.6691 61.0905 29.7472 61.5018C29.9227 62.4272 31.332 62.0355 31.1565 61.1101C31.137 60.9583 31.1272 60.9534 31.1272 61.1101L31.1516 60.9143C31.1565 60.7478 31.1516 60.5764 31.1175 60.41C31.0395 60.0623 30.8688 59.749 30.6103 59.5091C29.9959 58.946 29.1717 59.039 28.4939 59.4209L29.3814 60.5764C30.2543 59.793 30.9907 58.1969 29.6935 57.4135C29.1522 57.0854 28.5036 57.1197 27.9038 57.2029C27.1284 57.3057 26.3677 57.4722 25.5923 57.5652L26.2994 58.4955C26.5871 57.6583 26.5823 56.395 25.5387 56.0964C25.1095 55.974 24.5 56.1551 24.0806 56.2775C23.6319 56.4097 23.2028 56.6154 22.8273 56.8896C21.0815 58.1577 20.5304 60.5422 20.3841 62.5839C20.2378 64.606 20.6572 67.1227 22.5298 68.2635C24.4122 69.4093 27.1626 69.5366 29.2205 68.8168C30.2397 68.4594 31.0833 67.725 31.2589 66.6135C31.4637 65.3601 30.7566 64.2046 29.4643 64.0675C29.5277 64.5473 29.596 65.0271 29.6594 65.5119C30.7127 65.2426 31.4198 64.1458 31.1614 63.0637C30.898 61.967 29.8203 61.448 28.7767 61.6585L29.1668 63.0735C29.9666 62.8777 30.7127 62.4321 31.0931 61.6732C31.5174 60.831 30.2592 60.0868 29.8301 60.9339L29.8106 60.9192Z" fill="#333333"/>
<path d="M60.494 51.9444C60.5623 52.1011 60.6159 52.2627 60.6598 52.4292C60.6793 52.5124 60.6988 52.5956 60.7134 52.6789C60.7232 52.718 60.7281 52.7621 60.7329 52.8062C60.7232 52.718 60.7232 52.7131 60.7329 52.8013C60.7427 52.9482 60.7525 53.095 60.7525 53.2468C60.7525 53.3301 60.7476 53.4182 60.7427 53.5014C60.7427 53.5357 60.7037 53.805 60.7329 53.6238C60.6842 53.9421 60.6013 54.2555 60.4891 54.559C60.4745 54.5982 60.4599 54.6374 60.4404 54.6814C60.4696 54.608 60.4745 54.608 60.4404 54.6814C60.4013 54.7598 60.3672 54.8381 60.3282 54.9165C60.2502 55.0682 60.1624 55.2151 60.0697 55.362C59.86 55.6852 59.9966 56.1895 60.3331 56.3657C60.6988 56.5616 61.1084 56.449 61.3328 56.1013C62.1813 54.794 62.5226 53.0363 61.9082 51.5625C61.7619 51.21 61.4157 50.9162 61.006 51.0484C60.6695 51.1561 60.3379 51.5723 60.494 51.9542V51.9444Z" fill="#333333"/>
<path d="M52.0526 55.9297C52.311 57.0754 52.5646 58.226 52.9596 59.3375C53.3595 60.4685 53.8862 61.5457 54.408 62.6278C54.5787 62.9852 55.0858 63.0782 55.4077 62.8922C55.7685 62.6767 55.8417 62.2459 55.671 61.8884C55.1882 60.8847 54.6957 59.8859 54.33 58.8332C53.9593 57.7609 53.7155 56.6494 53.4668 55.5429C53.2571 54.6224 51.8478 55.0092 52.0575 55.9346L52.0526 55.9297Z" fill="#333333"/>
<path d="M16.7901 60.5225C16.4536 63.0979 16.2975 66.207 17.9605 68.3859C18.1994 68.6992 18.5895 68.8657 18.9602 68.6503C19.2674 68.4691 19.4624 67.9599 19.2235 67.6465C17.7118 65.6685 17.9507 62.8531 18.2531 60.5274C18.3067 60.1357 17.8824 59.793 17.5216 59.793C17.0827 59.793 16.8437 60.1308 16.7901 60.5274V60.5225Z" fill="#333333"/>
</g>
<defs>
<clipPath id="clip0_4_16763">
<rect width="81" height="105" fill="white"/>
</clipPath>
</defs>
</svg>
