<svg width="320" height="540" viewBox="0 0 320 540" fill="none" xmlns="http://www.w3.org/2000/svg">
<path d="M117.749 255.923C114.568 249.952 106.466 243.748 95.9683 239.955C85.4706 236.162 75.3064 235.765 69.0908 238.346L65.7255 237.129L63.2051 244.209L63.2326 244.213C61.1414 251.777 71.2364 262.071 86.1969 267.472C101.163 272.875 115.435 271.38 118.574 264.201L118.601 264.204L121.109 257.139L117.743 255.922L117.749 255.923Z" fill="#F9BF1C" stroke="#333333" stroke-width="1.5" stroke-miterlimit="10"/>
<path d="M121.121 257.142C123.817 249.545 113.6 238.908 98.3016 233.383C83.0032 227.858 68.4159 229.538 65.7201 237.135C63.0243 244.732 73.2407 255.369 88.5392 260.894C103.838 266.419 118.425 264.739 121.121 257.142Z" fill="#F9BF1C" stroke="#333333" stroke-width="1.5" stroke-miterlimit="10"/>
<path d="M117.508 255.838C115.233 262.242 102.305 263.096 89.4103 258.44C76.5103 253.777 66.9061 244.788 69.1814 238.384C71.4511 231.98 84.6355 230.879 97.5306 235.535C110.426 240.191 119.778 249.429 117.503 255.832L117.508 255.838Z" fill="#FAE400" stroke="#333333" stroke-width="1.5" stroke-miterlimit="10"/>
<path d="M66.8346 245.073L64.5848 251.4" stroke="#333333" stroke-width="1.5" stroke-miterlimit="10"/>
<path d="M71.5775 250.975L69.2755 257.465" stroke="#333333" stroke-width="1.5" stroke-miterlimit="10"/>
<path d="M77.1075 255.269L74.8217 261.716" stroke="#333333" stroke-width="1.5" stroke-miterlimit="10"/>
<path d="M84.0338 259.057L81.7157 265.591" stroke="#333333" stroke-width="1.5" stroke-miterlimit="10"/>
<path d="M91.1286 261.617L88.7421 268.358" stroke="#333333" stroke-width="1.5" stroke-miterlimit="10"/>
<path d="M98.0448 263.316L95.6174 270.17" stroke="#333333" stroke-width="1.5" stroke-miterlimit="10"/>
<path d="M104.25 264.116L101.865 270.845" stroke="#333333" stroke-width="1.5" stroke-miterlimit="10"/>
<path d="M109.875 264.103L107.681 270.284" stroke="#333333" stroke-width="1.5" stroke-miterlimit="10"/>
<path d="M115.414 262.505L113.186 268.784" stroke="#333333" stroke-width="1.5" stroke-miterlimit="10"/>
<path d="M253.188 185.75C248.411 185.396 241.595 187.912 235.289 192.781C228.983 197.651 224.825 203.608 223.962 208.323L221.94 209.883L225.178 214.084L225.191 214.069C228.883 218.196 238.899 216.035 247.884 209.094C256.871 202.15 261.488 193.005 258.43 188.395L258.442 188.38L255.208 184.192L253.186 185.753L253.188 185.75Z" fill="#F9BF1C" stroke="#333333" stroke-width="1.5" stroke-miterlimit="10"/>
<path d="M255.214 184.187C251.737 179.684 241.468 181.788 232.28 188.885C223.092 195.983 218.463 205.387 221.941 209.889C225.419 214.392 235.687 212.288 244.875 205.191C254.063 198.093 258.692 188.689 255.214 184.187Z" fill="#F9BF1C" stroke="#333333" stroke-width="1.5" stroke-miterlimit="10"/>
<path d="M253.045 185.863C255.976 189.66 251.496 197.753 243.752 203.736C236.002 209.719 226.95 212.08 224.02 208.283C221.087 204.489 225.519 196.148 233.263 190.166C241.007 184.183 250.11 182.067 253.04 185.864L253.045 185.863Z" fill="#FAE400" stroke="#333333" stroke-width="1.5" stroke-miterlimit="10"/>
<path d="M227.092 212.231L229.987 215.984" stroke="#333333" stroke-width="1.5" stroke-miterlimit="10"/>
<path d="M232.432 211.621L235.404 215.467" stroke="#333333" stroke-width="1.5" stroke-miterlimit="10"/>
<path d="M237.119 209.926L240.071 213.746" stroke="#333333" stroke-width="1.5" stroke-miterlimit="10"/>
<path d="M242.044 207.201L245.035 211.073" stroke="#333333" stroke-width="1.5" stroke-miterlimit="10"/>
<path d="M246.305 203.909L249.393 207.901" stroke="#333333" stroke-width="1.5" stroke-miterlimit="10"/>
<path d="M249.984 200.397L253.123 204.456" stroke="#333333" stroke-width="1.5" stroke-miterlimit="10"/>
<path d="M252.853 196.971L255.935 200.958" stroke="#333333" stroke-width="1.5" stroke-miterlimit="10"/>
<path d="M255.015 193.586L257.845 197.25" stroke="#333333" stroke-width="1.5" stroke-miterlimit="10"/>
<path d="M256.203 189.651L259.078 193.372" stroke="#333333" stroke-width="1.5" stroke-miterlimit="10"/>
</svg>
