<svg width="320" height="540" viewBox="0 0 320 540" fill="none" xmlns="http://www.w3.org/2000/svg">
<mask id="path-2-inside-1_40_1675" fill="white">
<path fill-rule="evenodd" clip-rule="evenodd" d="M284.694 313.611C294.252 313.611 302 305.863 302 296.306C302 286.748 294.252 279 284.694 279C275.137 279 267.389 286.748 267.389 296.306C267.389 300.69 269.019 304.693 271.706 307.743C270.869 308.628 270.355 309.824 270.355 311.139C270.355 313.87 272.569 316.083 275.3 316.083C277.395 316.083 279.186 314.78 279.906 312.94C281.427 313.377 283.033 313.611 284.694 313.611Z"/>
</mask>
<path fill-rule="evenodd" clip-rule="evenodd" d="M284.694 313.611C294.252 313.611 302 305.863 302 296.306C302 286.748 294.252 279 284.694 279C275.137 279 267.389 286.748 267.389 296.306C267.389 300.69 269.019 304.693 271.706 307.743C270.869 308.628 270.355 309.824 270.355 311.139C270.355 313.87 272.569 316.083 275.3 316.083C277.395 316.083 279.186 314.78 279.906 312.94C281.427 313.377 283.033 313.611 284.694 313.611Z" fill="#FD780F"/>
<path d="M271.706 307.743L272.796 308.773L273.737 307.778L272.832 306.751L271.706 307.743ZM279.906 312.94L280.32 311.498L279.007 311.121L278.509 312.394L279.906 312.94ZM300.5 296.306C300.5 305.035 293.423 312.111 284.694 312.111V315.111C295.08 315.111 303.5 306.692 303.5 296.306H300.5ZM284.694 280.5C293.423 280.5 300.5 287.576 300.5 296.306H303.5C303.5 285.92 295.08 277.5 284.694 277.5V280.5ZM268.889 296.306C268.889 287.576 275.965 280.5 284.694 280.5V277.5C274.308 277.5 265.889 285.92 265.889 296.306H268.889ZM272.832 306.751C270.376 303.965 268.889 300.311 268.889 296.306H265.889C265.889 301.069 267.661 305.422 270.581 308.734L272.832 306.751ZM271.855 311.139C271.855 310.222 272.212 309.392 272.796 308.773L270.616 306.712C269.526 307.865 268.855 309.425 268.855 311.139H271.855ZM275.3 314.583C273.397 314.583 271.855 313.041 271.855 311.139H268.855C268.855 314.698 271.741 317.583 275.3 317.583V314.583ZM278.509 312.394C278.006 313.678 276.757 314.583 275.3 314.583V317.583C278.033 317.583 280.365 315.882 281.303 313.487L278.509 312.394ZM284.694 312.111C283.175 312.111 281.707 311.897 280.32 311.498L279.492 314.382C281.146 314.857 282.892 315.111 284.694 315.111V312.111Z" fill="#333333" mask="url(#path-2-inside-1_40_1675)"/>
<mask id="path-4-outside-2_40_1675" maskUnits="userSpaceOnUse" x="278.098" y="286.395" width="16" height="19" fill="black">
<rect fill="white" x="278.098" y="286.395" width="16" height="19"/>
<path d="M279.298 295.078C280.933 295.059 282.523 294.046 283.248 292.557C283.579 291.875 283.737 291.12 284 290.406C284.262 289.691 284.663 288.985 285.319 288.613C285.974 288.241 286.924 288.333 287.331 288.974C287.609 289.417 287.574 289.985 287.505 290.506C287.358 291.609 287.101 292.698 286.742 293.75C287.861 293.505 289.035 293.513 290.151 293.777C290.494 293.858 290.847 293.972 291.096 294.225C291.628 294.771 291.425 295.749 290.879 296.279C290.333 296.808 289.557 297.001 288.821 297.178C289.522 297.02 290.263 296.863 290.951 297.08C291.639 297.297 292.219 298.036 292.008 298.734C291.874 299.174 291.475 299.473 291.077 299.69C290.429 300.038 289.712 300.25 288.984 300.307C289.447 300.19 289.929 300.073 290.4 300.155C290.871 300.236 291.336 300.568 291.422 301.043C291.513 301.551 291.16 302.035 290.753 302.344C289.699 303.146 288.286 303.205 286.97 303.233C284.299 303.287 281.527 303.322 279.098 302.198"/>
</mask>
<path d="M279.298 295.078C280.933 295.059 282.523 294.046 283.248 292.557C283.579 291.875 283.737 291.12 284 290.406C284.262 289.691 284.663 288.985 285.319 288.613C285.974 288.241 286.924 288.333 287.331 288.974C287.609 289.417 287.574 289.985 287.505 290.506C287.358 291.609 287.101 292.698 286.742 293.75C287.861 293.505 289.035 293.513 290.151 293.777C290.494 293.858 290.847 293.972 291.096 294.225C291.628 294.771 291.425 295.749 290.879 296.279C290.333 296.808 289.557 297.001 288.821 297.178C289.522 297.02 290.263 296.863 290.951 297.08C291.639 297.297 292.219 298.036 292.008 298.734C291.874 299.174 291.475 299.473 291.077 299.69C290.429 300.038 289.712 300.25 288.984 300.307C289.447 300.19 289.929 300.073 290.4 300.155C290.871 300.236 291.336 300.568 291.422 301.043C291.513 301.551 291.16 302.035 290.753 302.344C289.699 303.146 288.286 303.205 286.97 303.233C284.299 303.287 281.527 303.322 279.098 302.198" fill="white"/>
<path d="M283.248 292.557L284.596 293.214L284.596 293.214L283.248 292.557ZM287.331 288.974L288.601 288.176L288.597 288.171L287.331 288.974ZM287.505 290.506L288.992 290.705L288.992 290.705L287.505 290.506ZM286.742 293.75L285.322 293.265L284.464 295.783L287.062 295.215L286.742 293.75ZM290.151 293.777L290.498 292.318L290.496 292.317L290.151 293.777ZM291.096 294.225L292.169 293.178L292.164 293.172L291.096 294.225ZM288.821 297.178L288.471 295.719L289.15 298.641L288.821 297.178ZM292.008 298.734L293.443 299.171L293.444 299.169L292.008 298.734ZM291.077 299.69L291.786 301.012L291.795 301.007L291.077 299.69ZM288.984 300.307L288.617 298.853L289.102 301.802L288.984 300.307ZM291.422 301.043L292.898 300.779L292.898 300.777L291.422 301.043ZM290.753 302.344L291.661 303.538L291.662 303.538L290.753 302.344ZM286.97 303.233L287 304.732L287.001 304.732L286.97 303.233ZM279.316 296.578C281.526 296.552 283.626 295.206 284.596 293.214L281.899 291.9C281.419 292.886 280.34 293.566 279.281 293.578L279.316 296.578ZM284.596 293.214C284.813 292.768 284.963 292.321 285.081 291.942C285.21 291.531 285.293 291.234 285.408 290.923L282.591 289.889C282.444 290.292 282.317 290.73 282.218 291.046C282.109 291.393 282.014 291.665 281.899 291.901L284.596 293.214ZM285.408 290.923C285.631 290.314 285.872 290.024 286.059 289.917L284.578 287.309C283.454 287.947 282.892 289.069 282.591 289.889L285.408 290.923ZM286.059 289.917C286.066 289.913 286.086 289.904 286.117 289.899C286.148 289.893 286.175 289.894 286.191 289.896C286.207 289.899 286.198 289.901 286.171 289.885C286.14 289.867 286.098 289.832 286.064 289.778L288.597 288.171C288.114 287.409 287.347 287.038 286.645 286.931C285.951 286.825 285.208 286.951 284.578 287.309L286.059 289.917ZM286.061 289.772C286.028 289.72 286.045 289.708 286.051 289.81C286.059 289.92 286.049 290.072 286.018 290.308L288.992 290.705C289.057 290.211 289.198 289.127 288.601 288.176L286.061 289.772ZM286.018 290.308C285.884 291.313 285.65 292.306 285.322 293.265L288.162 294.234C288.552 293.091 288.831 291.906 288.992 290.705L286.018 290.308ZM287.062 295.215C287.963 295.018 288.91 295.025 289.806 295.237L290.496 292.317C289.16 292.002 287.758 291.992 286.422 292.284L287.062 295.215ZM289.804 295.236C289.943 295.269 290.018 295.294 290.062 295.313C290.101 295.33 290.074 295.325 290.027 295.278L292.164 293.172C291.593 292.593 290.865 292.405 290.498 292.318L289.804 295.236ZM290.022 295.272C289.959 295.208 289.927 295.138 289.914 295.089C289.903 295.047 289.908 295.032 289.906 295.052C289.903 295.071 289.895 295.104 289.877 295.139C289.859 295.175 289.841 295.196 289.834 295.202L291.923 297.355C292.443 296.85 292.78 296.164 292.877 295.464C292.975 294.757 292.841 293.867 292.169 293.178L290.022 295.272ZM289.834 295.202C289.632 295.398 289.284 295.524 288.471 295.719L289.171 298.636C289.83 298.478 291.034 298.219 291.923 297.355L289.834 295.202ZM289.15 298.641C289.921 298.468 290.26 298.435 290.499 298.51L291.403 295.65C290.267 295.291 289.123 295.572 288.492 295.714L289.15 298.641ZM290.499 298.51C290.499 298.51 290.514 298.516 290.537 298.532C290.559 298.549 290.573 298.566 290.579 298.574C290.584 298.582 290.57 298.565 290.56 298.517C290.549 298.463 290.547 298.385 290.572 298.3L293.444 299.169C293.712 298.281 293.448 297.455 293.055 296.88C292.666 296.312 292.076 295.862 291.403 295.65L290.499 298.51ZM290.573 298.298C290.601 298.204 290.645 298.174 290.612 298.205C290.596 298.22 290.569 298.243 290.524 298.274C290.479 298.304 290.425 298.337 290.359 298.373L291.795 301.007C292.251 300.759 293.126 300.213 293.443 299.171L290.573 298.298ZM290.367 298.369C289.901 298.619 289.385 298.771 288.867 298.812L289.102 301.802C290.039 301.729 290.958 301.457 291.786 301.012L290.367 298.369ZM289.351 301.761C289.864 301.632 290.037 301.614 290.144 301.633L290.656 298.677C289.821 298.532 289.031 298.748 288.617 298.853L289.351 301.761ZM290.144 301.633C290.138 301.632 290.13 301.632 290.104 301.611C290.075 301.587 289.979 301.492 289.946 301.309L292.898 300.777C292.663 299.469 291.503 298.824 290.656 298.677L290.144 301.633ZM289.945 301.308C289.93 301.224 289.936 301.149 289.948 301.096C289.953 301.07 289.96 301.052 289.965 301.04C289.967 301.034 289.969 301.03 289.97 301.027C289.972 301.024 289.972 301.023 289.973 301.023C289.973 301.023 289.972 301.024 289.97 301.026C289.969 301.028 289.967 301.031 289.964 301.035C289.958 301.044 289.949 301.054 289.937 301.067C289.913 301.094 289.881 301.123 289.844 301.151L291.662 303.538C292.206 303.123 293.142 302.141 292.898 300.779L289.945 301.308ZM289.845 301.15C289.24 301.61 288.339 301.704 286.939 301.733L287.001 304.732C288.233 304.707 290.157 304.681 291.661 303.538L289.845 301.15ZM286.939 301.733C284.209 301.788 281.792 301.792 279.728 300.836L278.468 303.559C281.262 304.853 284.39 304.785 287 304.732L286.939 301.733Z" fill="#333333" mask="url(#path-4-outside-2_40_1675)"/>
<path d="M278.999 292.88H278.568C277.582 292.88 276.783 293.691 276.783 294.692V302.483C276.783 303.483 277.582 304.294 278.568 304.294H278.999C279.984 304.294 280.783 303.483 280.783 302.483V294.692C280.783 293.691 279.984 292.88 278.999 292.88Z" fill="white" stroke="#333333" stroke-width="1.5" stroke-linecap="round" stroke-linejoin="round"/>
<circle cx="268.872" cy="317.072" r="2.21667" fill="#FD780F" stroke="#333333" stroke-width="1.5"/>
<mask id="path-8-inside-3_40_1675" fill="white">
<path fill-rule="evenodd" clip-rule="evenodd" d="M34.3581 313.715C24.7717 313.715 17.0003 305.944 17.0003 296.358C17.0003 286.771 24.7717 279 34.3581 279C43.9445 279 51.7158 286.771 51.7158 296.358C51.7158 300.755 50.0807 304.77 47.3852 307.829C48.2252 308.718 48.7402 309.916 48.7402 311.235C48.7402 313.974 46.5198 316.195 43.7808 316.195C41.6794 316.195 39.8833 314.888 39.1609 313.042C37.6357 313.481 36.0243 313.715 34.3581 313.715Z"/>
</mask>
<path fill-rule="evenodd" clip-rule="evenodd" d="M34.3581 313.715C24.7717 313.715 17.0003 305.944 17.0003 296.358C17.0003 286.771 24.7717 279 34.3581 279C43.9445 279 51.7158 286.771 51.7158 296.358C51.7158 300.755 50.0807 304.77 47.3852 307.829C48.2252 308.718 48.7402 309.916 48.7402 311.235C48.7402 313.974 46.5198 316.195 43.7808 316.195C41.6794 316.195 39.8833 314.888 39.1609 313.042C37.6357 313.481 36.0243 313.715 34.3581 313.715Z" fill="#FD780F"/>
<path d="M47.3852 307.829L46.2952 308.86L45.3546 307.865L46.2599 306.837L47.3852 307.829ZM39.1609 313.042L38.7467 311.601L40.0598 311.223L40.5577 312.496L39.1609 313.042ZM18.5003 296.358C18.5003 305.116 25.6001 312.215 34.3581 312.215V315.215C23.9432 315.215 15.5003 306.773 15.5003 296.358H18.5003ZM34.3581 280.5C25.6001 280.5 18.5003 287.6 18.5003 296.358H15.5003C15.5003 285.943 23.9432 277.5 34.3581 277.5V280.5ZM50.2158 296.358C50.2158 287.6 43.1161 280.5 34.3581 280.5V277.5C44.7729 277.5 53.2158 285.943 53.2158 296.358H50.2158ZM46.2599 306.837C48.7232 304.042 50.2158 300.376 50.2158 296.358H53.2158C53.2158 301.134 51.4382 305.499 48.5106 308.821L46.2599 306.837ZM47.2402 311.235C47.2402 310.315 46.8824 309.481 46.2952 308.86L48.4752 306.799C49.5679 307.954 50.2402 309.518 50.2402 311.235H47.2402ZM43.7808 314.695C45.6914 314.695 47.2402 313.146 47.2402 311.235H50.2402C50.2402 314.803 47.3482 317.695 43.7808 317.695V314.695ZM40.5577 312.496C41.0626 313.786 42.3174 314.695 43.7808 314.695V317.695C41.0415 317.695 38.7039 315.99 37.7641 313.589L40.5577 312.496ZM34.3581 312.215C35.8828 312.215 37.3547 312.001 38.7467 311.601L39.5752 314.484C37.9166 314.961 36.1658 315.215 34.3581 315.215V312.215Z" fill="#333333" mask="url(#path-8-inside-3_40_1675)"/>
<mask id="path-10-outside-4_40_1675" maskUnits="userSpaceOnUse" x="27.7441" y="286.424" width="16" height="19" fill="black">
<rect fill="white" x="27.7441" y="286.424" width="16" height="19"/>
<path d="M28.9454 295.127C30.5852 295.108 32.1794 294.092 32.9067 292.599C33.2395 291.915 33.3978 291.157 33.6608 290.441C33.9238 289.724 34.3264 289.016 34.9839 288.643C35.6415 288.269 36.5942 288.362 37.0021 289.005C37.2812 289.449 37.2464 290.019 37.1766 290.542C37.029 291.648 36.7713 292.74 36.4117 293.795C37.5335 293.55 38.7117 293.558 39.8308 293.822C40.1744 293.904 40.5286 294.018 40.7782 294.272C41.3123 294.819 41.1083 295.8 40.5608 296.331C40.0133 296.863 39.235 297.056 38.497 297.233C39.2001 297.075 39.9436 296.917 40.6333 297.135C41.323 297.353 41.9054 298.094 41.6934 298.794C41.5592 299.236 41.1593 299.536 40.7594 299.754C40.1099 300.102 39.3907 300.315 38.6607 300.372C39.125 300.255 39.6081 300.138 40.0804 300.219C40.5528 300.301 41.0197 300.634 41.1056 301.11C41.1969 301.62 40.8426 302.105 40.4347 302.415C39.3773 303.219 37.9602 303.279 36.6398 303.306C33.9614 303.361 31.181 303.396 28.7441 302.268"/>
</mask>
<path d="M28.9454 295.127C30.5852 295.108 32.1794 294.092 32.9067 292.599C33.2395 291.915 33.3978 291.157 33.6608 290.441C33.9238 289.724 34.3264 289.016 34.9839 288.643C35.6415 288.269 36.5942 288.362 37.0021 289.005C37.2812 289.449 37.2464 290.019 37.1766 290.542C37.029 291.648 36.7713 292.74 36.4117 293.795C37.5335 293.55 38.7117 293.558 39.8308 293.822C40.1744 293.904 40.5286 294.018 40.7782 294.272C41.3123 294.819 41.1083 295.8 40.5608 296.331C40.0133 296.863 39.235 297.056 38.497 297.233C39.2001 297.075 39.9436 296.917 40.6333 297.135C41.323 297.353 41.9054 298.094 41.6934 298.794C41.5592 299.236 41.1593 299.536 40.7594 299.754C40.1099 300.102 39.3907 300.315 38.6607 300.372C39.125 300.255 39.6081 300.138 40.0804 300.219C40.5528 300.301 41.0197 300.634 41.1056 301.11C41.1969 301.62 40.8426 302.105 40.4347 302.415C39.3773 303.219 37.9602 303.279 36.6398 303.306C33.9614 303.361 31.181 303.396 28.7441 302.268" fill="white"/>
<path d="M32.9067 292.599L34.2552 293.256L34.2555 293.255L32.9067 292.599ZM37.0021 289.005L38.2721 288.207L38.2687 288.202L37.0021 289.005ZM37.1766 290.542L38.6634 290.74L38.6634 290.74L37.1766 290.542ZM36.4117 293.795L34.992 293.311L34.1333 295.828L36.732 295.26L36.4117 293.795ZM39.8308 293.822L40.178 292.363L40.1756 292.362L39.8308 293.822ZM40.7782 294.272L41.8521 293.224L41.8468 293.219L40.7782 294.272ZM38.497 297.233L38.147 295.775L38.8259 298.697L38.497 297.233ZM41.6934 298.794L43.1285 299.231L43.129 299.229L41.6934 298.794ZM40.7594 299.754L41.469 301.075L41.4773 301.071L40.7594 299.754ZM38.6607 300.372L38.2937 298.918L38.7779 301.867L38.6607 300.372ZM41.1056 301.11L42.5821 300.846L42.5819 300.844L41.1056 301.11ZM40.4347 302.415L41.3424 303.61L41.3434 303.609L40.4347 302.415ZM36.6398 303.306L36.6703 304.806L36.6708 304.806L36.6398 303.306ZM28.9629 296.627C31.178 296.601 33.2829 295.252 34.2552 293.256L31.5582 291.942C31.0759 292.932 29.9925 293.615 28.928 293.627L28.9629 296.627ZM34.2555 293.255C34.4728 292.808 34.6225 292.36 34.7414 291.98C34.8704 291.568 34.9542 291.271 35.069 290.958L32.2527 289.924C32.1045 290.328 31.9775 290.767 31.8784 291.084C31.7693 291.433 31.6733 291.705 31.5579 291.942L34.2555 293.255ZM35.069 290.958C35.2931 290.347 35.5356 290.054 35.7244 289.947L34.2434 287.338C33.1172 287.978 32.5546 289.102 32.2527 289.924L35.069 290.958ZM35.7244 289.947C35.7322 289.943 35.7527 289.934 35.7842 289.928C35.8158 289.922 35.8429 289.923 35.8595 289.926C35.8762 289.928 35.8673 289.93 35.8409 289.914C35.8111 289.896 35.7693 289.862 35.7355 289.809L38.2687 288.202C37.7849 287.439 37.0168 287.068 36.3137 286.96C35.6187 286.854 34.874 286.98 34.2434 287.338L35.7244 289.947ZM35.7321 289.803C35.6995 289.751 35.7167 289.741 35.7235 289.843C35.7308 289.953 35.7213 290.107 35.6897 290.343L38.6634 290.74C38.7295 290.244 38.8704 289.159 38.2721 288.207L35.7321 289.803ZM35.6898 290.343C35.5552 291.351 35.3202 292.348 34.992 293.311L37.8314 294.279C38.2224 293.133 38.5027 291.944 38.6634 290.74L35.6898 290.343ZM36.732 295.26C37.6358 295.063 38.5867 295.07 39.4861 295.282L40.1756 292.362C38.8367 292.046 37.4312 292.037 36.0914 292.329L36.732 295.26ZM39.4836 295.281C39.6229 295.315 39.6991 295.34 39.7434 295.359C39.7832 295.376 39.7558 295.371 39.7096 295.324L41.8468 293.219C41.2752 292.639 40.5461 292.45 40.178 292.363L39.4836 295.281ZM39.7043 295.319C39.6424 295.255 39.6104 295.186 39.5975 295.138C39.5862 295.095 39.5921 295.081 39.5893 295.102C39.5865 295.122 39.5779 295.154 39.5597 295.191C39.5415 295.227 39.5231 295.248 39.5162 295.255L41.6054 297.408C42.1263 296.903 42.4637 296.215 42.5609 295.514C42.659 294.805 42.5249 293.914 41.8521 293.224L39.7043 295.319ZM39.5162 295.255C39.3128 295.452 38.9621 295.579 38.147 295.775L38.847 298.692C39.508 298.533 40.7139 298.273 41.6054 297.408L39.5162 295.255ZM38.8259 298.697C39.5992 298.523 39.9399 298.489 40.1813 298.565L41.0853 295.705C39.9472 295.345 38.8011 295.628 38.1681 295.77L38.8259 298.697ZM40.1813 298.565C40.1803 298.565 40.1843 298.566 40.1922 298.571C40.2001 298.575 40.2099 298.581 40.2204 298.588C40.2435 298.606 40.2579 298.623 40.2636 298.631C40.2694 298.64 40.2553 298.623 40.2455 298.575C40.2345 298.522 40.2321 298.444 40.2577 298.36L43.129 299.229C43.3981 298.34 43.1334 297.513 42.7394 296.937C42.3501 296.368 41.759 295.918 41.0853 295.705L40.1813 298.565ZM40.2582 298.358C40.2867 298.264 40.3294 298.236 40.2965 298.267C40.2805 298.282 40.2523 298.306 40.2074 298.336C40.1627 298.367 40.1079 298.4 40.0415 298.436L41.4773 301.071C41.9351 300.821 42.811 300.275 43.1285 299.231L40.2582 298.358ZM40.0498 298.432C39.5813 298.684 39.0635 298.836 38.5435 298.877L38.7779 301.867C39.7179 301.794 40.6386 301.521 41.469 301.075L40.0498 298.432ZM39.0277 301.826C39.5414 301.697 39.716 301.679 39.8247 301.697L40.3362 298.741C39.5001 298.597 38.7086 298.813 38.2937 298.918L39.0277 301.826ZM39.8247 301.697C39.8196 301.697 39.8116 301.697 39.7869 301.677C39.7582 301.653 39.6623 301.559 39.6294 301.376L42.5819 300.844C42.3459 299.534 41.1853 298.888 40.3362 298.741L39.8247 301.697ZM39.6291 301.375C39.6141 301.291 39.6198 301.217 39.6315 301.164C39.637 301.139 39.6434 301.12 39.648 301.109C39.6504 301.103 39.6523 301.099 39.6536 301.096C39.6543 301.095 39.6548 301.094 39.6552 301.093C39.6554 301.093 39.6555 301.092 39.6556 301.092C39.6557 301.092 39.6557 301.092 39.6557 301.092C39.6557 301.092 39.6557 301.092 39.6556 301.092C39.6555 301.092 39.6553 301.093 39.6552 301.093C39.6548 301.094 39.6542 301.094 39.6535 301.096C39.652 301.098 39.6497 301.101 39.6467 301.105C39.6404 301.114 39.6315 301.125 39.6195 301.138C39.5948 301.165 39.5628 301.194 39.526 301.222L41.3434 303.609C41.8891 303.193 42.8264 302.21 42.5821 300.846L39.6291 301.375ZM39.527 301.221C38.9188 301.684 38.0136 301.778 36.6089 301.807L36.6708 304.806C37.9068 304.781 39.8357 304.755 41.3424 303.61L39.527 301.221ZM36.6093 301.807C33.8708 301.862 31.4457 301.866 29.3742 300.907L28.1141 303.63C30.9163 304.927 34.052 304.859 36.6703 304.806L36.6093 301.807Z" fill="#333333" mask="url(#path-10-outside-4_40_1675)"/>
<path d="M28.645 292.923H28.2129C27.2243 292.923 26.4229 293.737 26.4229 294.74V302.554C26.4229 303.558 27.2243 304.372 28.2129 304.372H28.645C29.6337 304.372 30.4351 303.558 30.4351 302.554V294.74C30.4351 293.737 29.6337 292.923 28.645 292.923Z" fill="white" stroke="#333333" stroke-width="1.5" stroke-linecap="round" stroke-linejoin="round"/>
<circle cx="50.7237" cy="316.691" r="2.22561" fill="#FD780F" stroke="#333333" stroke-width="1.5"/>
</svg>
