<svg width="320" height="540" viewBox="0 0 320 540" fill="none" xmlns="http://www.w3.org/2000/svg">
<mask id="path-2-inside-1_40_1206" fill="white">
<path fill-rule="evenodd" clip-rule="evenodd" d="M96.6942 424.483C106.252 424.483 114 416.735 114 407.178C114 397.62 106.252 389.872 96.6942 389.872C87.1366 389.872 79.3887 397.62 79.3887 407.178C79.3887 411.562 81.019 415.565 83.7064 418.615C82.8689 419.5 82.3553 420.696 82.3553 422.011C82.3553 424.742 84.569 426.956 87.2998 426.956C89.395 426.956 91.1859 425.652 91.9059 423.812C93.4266 424.249 95.0331 424.483 96.6942 424.483Z"/>
</mask>
<path fill-rule="evenodd" clip-rule="evenodd" d="M96.6942 424.483C106.252 424.483 114 416.735 114 407.178C114 397.62 106.252 389.872 96.6942 389.872C87.1366 389.872 79.3887 397.62 79.3887 407.178C79.3887 411.562 81.019 415.565 83.7064 418.615C82.8689 419.5 82.3553 420.696 82.3553 422.011C82.3553 424.742 84.569 426.956 87.2998 426.956C89.395 426.956 91.1859 425.652 91.9059 423.812C93.4266 424.249 95.0331 424.483 96.6942 424.483Z" fill="#FD780F"/>
<path d="M83.7064 418.615L84.7964 419.645L85.7371 418.65L84.8318 417.623L83.7064 418.615ZM91.9059 423.812L92.3201 422.371L91.007 421.993L90.5091 423.266L91.9059 423.812ZM112.5 407.178C112.5 415.907 105.423 422.983 96.6942 422.983V425.983C107.08 425.983 115.5 417.564 115.5 407.178H112.5ZM96.6942 391.372C105.423 391.372 112.5 398.448 112.5 407.178H115.5C115.5 396.792 107.08 388.372 96.6942 388.372V391.372ZM80.8887 407.178C80.8887 398.448 87.9651 391.372 96.6942 391.372V388.372C86.3082 388.372 77.8887 396.792 77.8887 407.178H80.8887ZM84.8318 417.623C82.3765 414.837 80.8887 411.183 80.8887 407.178H77.8887C77.8887 411.941 79.6615 416.294 82.5811 419.606L84.8318 417.623ZM83.8553 422.011C83.8553 421.094 84.2116 420.264 84.7964 419.645L82.6165 417.584C81.5261 418.737 80.8553 420.297 80.8553 422.011H83.8553ZM87.2998 425.456C85.3974 425.456 83.8553 423.913 83.8553 422.011H80.8553C80.8553 425.57 83.7406 428.456 87.2998 428.456V425.456ZM90.5091 423.266C90.0064 424.55 88.757 425.456 87.2998 425.456V428.456C90.033 428.456 92.3653 426.755 93.3028 424.359L90.5091 423.266ZM96.6942 422.983C95.1746 422.983 93.7075 422.769 92.3201 422.371L91.4917 425.254C93.1457 425.729 94.8915 425.983 96.6942 425.983V422.983Z" fill="#333333" mask="url(#path-2-inside-1_40_1206)"/>
<mask id="path-4-outside-2_40_1206" maskUnits="userSpaceOnUse" x="90.0977" y="397.267" width="16" height="19" fill="black">
<rect fill="white" x="90.0977" y="397.267" width="16" height="19"/>
<path d="M91.2983 405.95C92.9332 405.931 94.5226 404.918 95.2477 403.429C95.5795 402.747 95.7373 401.992 95.9996 401.278C96.2618 400.563 96.6631 399.857 97.3187 399.485C97.9742 399.113 98.9241 399.205 99.3308 399.846C99.6091 400.289 99.5743 400.857 99.5047 401.378C99.3576 402.481 99.1007 403.571 98.7422 404.622C99.8606 404.377 101.035 404.385 102.151 404.649C102.494 404.73 102.847 404.844 103.096 405.097C103.628 405.643 103.425 406.621 102.879 407.151C102.333 407.68 101.557 407.873 100.821 408.05C101.522 407.892 102.263 407.735 102.951 407.952C103.639 408.169 104.219 408.908 104.008 409.606C103.874 410.046 103.475 410.345 103.077 410.562C102.429 410.91 101.712 411.122 100.984 411.179C101.447 411.062 101.929 410.945 102.4 411.027C102.871 411.108 103.336 411.44 103.422 411.915C103.513 412.423 103.16 412.907 102.753 413.216C101.699 414.018 100.286 414.077 98.9696 414.105C96.2992 414.159 93.5272 414.194 91.0977 413.07"/>
</mask>
<path d="M91.2983 405.95C92.9332 405.931 94.5226 404.918 95.2477 403.429C95.5795 402.747 95.7373 401.992 95.9996 401.278C96.2618 400.563 96.6631 399.857 97.3187 399.485C97.9742 399.113 98.9241 399.205 99.3308 399.846C99.6091 400.289 99.5743 400.857 99.5047 401.378C99.3576 402.481 99.1007 403.571 98.7422 404.622C99.8606 404.377 101.035 404.385 102.151 404.649C102.494 404.73 102.847 404.844 103.096 405.097C103.628 405.643 103.425 406.621 102.879 407.151C102.333 407.68 101.557 407.873 100.821 408.05C101.522 407.892 102.263 407.735 102.951 407.952C103.639 408.169 104.219 408.908 104.008 409.606C103.874 410.046 103.475 410.345 103.077 410.562C102.429 410.91 101.712 411.122 100.984 411.179C101.447 411.062 101.929 410.945 102.4 411.027C102.871 411.108 103.336 411.44 103.422 411.915C103.513 412.423 103.16 412.907 102.753 413.216C101.699 414.018 100.286 414.077 98.9696 414.105C96.2992 414.159 93.5272 414.194 91.0977 413.07" fill="white"/>
<path d="M95.2477 403.429L96.5962 404.086L96.5965 404.086L95.2477 403.429ZM99.3308 399.846L100.601 399.048L100.597 399.043L99.3308 399.846ZM99.5047 401.378L100.992 401.577L100.992 401.577L99.5047 401.378ZM98.7422 404.622L97.3225 404.138L96.4638 406.655L99.0625 406.087L98.7422 404.622ZM102.151 404.649L102.498 403.19L102.496 403.189L102.151 404.649ZM103.096 405.097L104.169 404.05L104.164 404.044L103.096 405.097ZM100.821 408.05L100.471 406.591L101.15 409.513L100.821 408.05ZM104.008 409.606L105.443 410.043L105.444 410.041L104.008 409.606ZM103.077 410.562L103.786 411.884L103.795 411.88L103.077 410.562ZM100.984 411.179L100.617 409.725L101.102 412.675L100.984 411.179ZM103.422 411.915L104.898 411.651L104.898 411.649L103.422 411.915ZM102.753 413.216L103.661 414.411L103.662 414.41L102.753 413.216ZM98.9696 414.105L99.0001 415.604L99.0005 415.604L98.9696 414.105ZM91.3158 407.45C93.526 407.424 95.626 406.078 96.5962 404.086L93.8992 402.772C93.4191 403.758 92.3404 404.438 91.2809 404.45L91.3158 407.45ZM96.5965 404.086C96.8133 403.64 96.9626 403.193 97.0812 402.814C97.2099 402.403 97.2933 402.106 97.4077 401.795L94.5914 400.761C94.4436 401.164 94.317 401.602 94.2182 401.918C94.1094 402.265 94.0138 402.537 93.8989 402.773L96.5965 404.086ZM97.4077 401.795C97.6311 401.186 97.8723 400.896 98.0592 400.79L96.5782 398.181C95.4539 398.819 94.8925 399.941 94.5914 400.761L97.4077 401.795ZM98.0592 400.79C98.0664 400.785 98.0864 400.776 98.1173 400.771C98.1483 400.765 98.1749 400.766 98.191 400.768C98.2071 400.771 98.1976 400.773 98.1707 400.757C98.1405 400.739 98.0983 400.704 98.0642 400.65L100.597 399.043C100.114 398.281 99.3471 397.911 98.6451 397.803C97.9513 397.697 97.2077 397.823 96.5782 398.181L98.0592 400.79ZM98.0608 400.645C98.0277 400.592 98.0448 400.58 98.0515 400.682C98.0588 400.792 98.0493 400.944 98.0179 401.18L100.992 401.577C101.057 401.083 101.198 399.999 100.601 399.048L98.0608 400.645ZM98.0179 401.18C97.8838 402.185 97.6496 403.178 97.3225 404.138L100.162 405.106C100.552 403.963 100.831 402.778 100.992 401.577L98.0179 401.18ZM99.0625 406.087C99.9629 405.89 100.91 405.897 101.806 406.109L102.496 403.189C101.16 402.874 99.7583 402.864 98.4218 403.156L99.0625 406.087ZM101.804 406.108C101.943 406.141 102.018 406.166 102.062 406.185C102.101 406.202 102.074 406.197 102.027 406.15L104.164 404.044C103.593 403.465 102.865 403.277 102.498 403.19L101.804 406.108ZM102.022 406.144C101.959 406.081 101.927 406.01 101.914 405.962C101.903 405.919 101.908 405.904 101.906 405.924C101.903 405.943 101.895 405.976 101.877 406.011C101.859 406.047 101.841 406.068 101.834 406.074L103.923 408.227C104.443 407.723 104.78 407.036 104.877 406.336C104.975 405.629 104.841 404.739 104.169 404.05L102.022 406.144ZM101.834 406.074C101.632 406.27 101.284 406.396 100.471 406.591L101.171 409.508C101.83 409.35 103.034 409.091 103.923 408.227L101.834 406.074ZM101.15 409.513C101.921 409.34 102.26 409.307 102.499 409.382L103.403 406.522C102.267 406.163 101.123 406.445 100.492 406.586L101.15 409.513ZM102.499 409.382C102.499 409.382 102.514 409.388 102.537 409.405C102.559 409.421 102.573 409.438 102.579 409.446C102.584 409.454 102.57 409.437 102.56 409.389C102.549 409.335 102.547 409.257 102.572 409.172L105.444 410.041C105.712 409.153 105.448 408.327 105.055 407.752C104.666 407.184 104.076 406.734 103.403 406.522L102.499 409.382ZM102.573 409.17C102.601 409.076 102.645 409.046 102.612 409.077C102.596 409.092 102.569 409.115 102.524 409.146C102.479 409.176 102.425 409.209 102.359 409.245L103.795 411.88C104.251 411.631 105.126 411.086 105.443 410.043L102.573 409.17ZM102.367 409.241C101.901 409.491 101.385 409.643 100.867 409.684L101.102 412.675C102.039 412.601 102.958 412.329 103.786 411.884L102.367 409.241ZM101.351 412.634C101.864 412.504 102.037 412.486 102.144 412.505L102.656 409.549C101.821 409.405 101.031 409.62 100.617 409.725L101.351 412.634ZM102.144 412.505C102.138 412.504 102.13 412.504 102.104 412.483C102.075 412.459 101.979 412.364 101.946 412.181L104.898 411.649C104.663 410.341 103.503 409.696 102.656 409.549L102.144 412.505ZM101.945 412.18C101.93 412.096 101.936 412.021 101.948 411.968C101.953 411.942 101.96 411.924 101.965 411.912C101.967 411.906 101.969 411.902 101.97 411.899C101.972 411.896 101.972 411.895 101.973 411.895C101.973 411.895 101.972 411.896 101.97 411.898C101.969 411.9 101.967 411.903 101.964 411.907C101.958 411.916 101.949 411.927 101.937 411.939C101.913 411.966 101.881 411.995 101.844 412.023L103.662 414.41C104.206 413.995 105.142 413.013 104.898 411.651L101.945 412.18ZM101.845 412.022C101.24 412.482 100.339 412.576 98.9386 412.605L99.0005 415.604C100.233 415.579 102.157 415.553 103.661 414.411L101.845 412.022ZM98.9391 412.605C96.2087 412.66 93.7919 412.664 91.7277 411.708L90.4676 414.431C93.2625 415.725 96.3898 415.657 99.0001 415.604L98.9391 412.605Z" fill="#333333" mask="url(#path-4-outside-2_40_1206)"/>
<path d="M90.9987 403.752H90.5679C89.5822 403.752 88.7832 404.564 88.7832 405.564V413.355C88.7832 414.355 89.5822 415.167 90.5679 415.167H90.9987C91.9844 415.167 92.7834 414.355 92.7834 413.355V405.564C92.7834 404.564 91.9844 403.752 90.9987 403.752Z" fill="white" stroke="#333333" stroke-width="1.5" stroke-linecap="round" stroke-linejoin="round"/>
<circle cx="80.8719" cy="427.944" r="2.21667" fill="#FD780F" stroke="#333333" stroke-width="1.5"/>
</svg>
