<svg width="30" height="54" viewBox="0 0 30 54" fill="none" xmlns="http://www.w3.org/2000/svg">
<g clip-path="url(#clip0_4_13714)">
<path d="M11.0228 1.62905C10.4497 1.59911 9.87658 1.56667 9.30345 1.53673C8.73032 1.5068 8.1572 1.46688 7.58407 1.43694C7.04865 1.40949 6.52077 1.44442 6.00295 1.57665C5.52786 1.6989 5.11309 1.90848 4.74609 2.23032C4.37909 2.55217 4.10761 2.94137 3.85121 3.34804C3.537 3.84453 3.26803 4.3535 3.09207 4.90737C2.91611 5.46374 2.78791 6.03008 2.74518 6.61389C2.70245 7.1977 2.77786 7.77153 2.87086 8.34786C2.96387 8.92419 3.0795 9.49303 3.30574 10.0294C3.53197 10.5658 3.78837 11.0973 4.1428 11.5638" fill="#333333"/>
<path d="M11.0227 1.25488C9.80354 1.19001 8.57685 1.07524 7.35519 1.05279C6.26675 1.03283 5.16323 1.29979 4.36387 2.06822C3.62736 2.77927 3.06177 3.79221 2.74253 4.75525C2.36296 5.89792 2.29257 7.03061 2.46853 8.2157C2.65455 9.47813 3.04166 10.7131 3.81337 11.751C4.09742 12.1352 4.7535 11.761 4.46442 11.3743C3.85359 10.5534 3.47402 9.5904 3.29052 8.59243C3.09193 7.5271 3.04417 6.50918 3.3232 5.45382C3.56703 4.52073 4.02452 3.6026 4.65295 2.86161C5.31154 2.08319 6.2391 1.80376 7.24207 1.80127C8.49893 1.80127 9.76835 1.93599 11.0252 2.00335C11.5104 2.0283 11.5078 1.27983 11.0252 1.25488H11.0227Z" fill="#333333"/>
<path d="M16.5629 48.6833C15.8691 48.6783 15.1955 48.6459 14.5344 48.6633C13.8733 48.6808 13.192 48.7956 12.5159 48.803C11.8397 48.8105 11.2138 48.8155 10.5225 48.7856C10.5175 49.1848 10.5049 50.31 10.4948 50.8663C10.4948 50.9237 10.4848 50.9761 10.4823 51.0185C10.4772 51.3354 10.432 51.6872 10.2887 51.9416C10.0926 52.2859 9.7382 52.4257 9.43907 52.5953C9.13994 52.765 8.8031 53.0519 8.84835 53.4785C9.38377 53.5159 9.91668 53.5858 10.4521 53.6082C10.9875 53.6307 11.528 53.5384 12.0659 53.5484C12.6038 53.5583 13.1393 53.5758 13.6747 53.5708C14.2101 53.5658 14.748 53.5384 15.2834 53.5209C15.5298 53.5134 15.7585 53.5259 15.9672 53.3488C16.2814 53.0818 16.4272 52.5803 16.5001 52.0963C16.5076 52.0489 16.4498 51.9915 16.4548 51.9391C16.4951 51.5325 16.4951 50.9212 16.49 50.3174C16.485 49.6812 16.5277 49.05 16.5629 48.6883V48.6833Z" fill="#333333"/>
<path d="M16.563 48.3093C15.5449 48.3018 14.542 48.2669 13.5264 48.3617C12.5285 48.4565 11.523 48.449 10.5225 48.4116C10.3164 48.4041 10.148 48.5888 10.1455 48.7859C10.1329 49.6192 10.1932 50.4824 10.0902 51.3082C10.06 51.5602 9.98461 51.7947 9.781 51.9594C9.60252 52.1041 9.3788 52.1864 9.18525 52.3087C8.76546 52.5707 8.44873 52.9624 8.47135 53.4763C8.48141 53.6909 8.63726 53.8356 8.84841 53.8505C9.45924 53.8955 10.0701 53.9878 10.6834 53.9828C11.2289 53.9778 11.7693 53.9129 12.3148 53.9229C12.893 53.9354 13.4711 53.9478 14.0493 53.9329C14.5872 53.9204 15.1629 53.9454 15.6932 53.8605C16.1558 53.7857 16.4574 53.4389 16.6359 53.0322C16.7264 52.8251 16.7892 52.6081 16.8345 52.386C16.8797 52.164 16.842 51.9819 16.8496 51.7598C16.8873 50.7319 16.8496 49.7065 16.9426 48.6811C16.9878 48.202 16.2312 48.2045 16.1884 48.6811C16.103 49.6092 16.1407 50.5373 16.108 51.4654C16.0929 51.902 16.1407 52.169 16.0125 52.5657C15.9572 52.7328 15.8793 52.9424 15.7335 53.0522C15.5776 53.1694 15.3514 53.1395 15.1654 53.147C14.092 53.1844 13.0262 53.1619 11.9554 53.1694C11.4551 53.1744 10.9574 53.2468 10.4572 53.2293C9.92177 53.2118 9.38635 53.137 8.85344 53.0996L9.2305 53.4738C9.20787 52.9973 9.81368 52.8501 10.1354 52.6255C10.598 52.3037 10.794 51.8521 10.8493 51.3032C10.9348 50.4699 10.8921 49.6167 10.9046 48.7809L10.5276 49.1551C11.528 49.195 12.5335 49.2 13.5315 49.1052C14.547 49.0104 15.55 49.0453 16.568 49.0528C17.0532 49.0578 17.0532 48.3093 16.568 48.3043L16.563 48.3093Z" fill="#333333"/>
<path d="M9.91895 38.3017C9.9357 38.9404 9.95162 39.5783 9.96671 40.2153C9.99184 41.1734 10.0622 41.1709 10.0874 42.1289C10.1125 43.087 10.0195 43.0895 10.0446 44.0475C10.0698 45.0056 10.0949 45.0056 10.1175 45.9636C10.1427 46.9217 10.0723 46.9242 10.0974 47.8797C10.1226 48.8353 10.1854 48.8353 10.2105 49.7933C10.2357 50.7514 10.1904 50.7539 10.2156 51.7119C10.2231 51.9614 10.4393 52.1909 10.6454 52.1909C11.5855 52.1909 11.5855 52.171 12.5232 52.1735C13.4633 52.1735 13.4633 52.2234 14.4034 52.2259C15.3435 52.2284 15.3435 52.2109 16.2837 52.2134C16.4923 52.2134 16.6255 51.9639 16.6255 51.7094C16.6255 50.8562 16.6406 50.8562 16.6406 50.0029C16.6406 49.1496 16.721 49.1496 16.721 48.2964C16.721 47.4431 16.7035 47.4431 16.706 46.5899C16.706 45.7366 16.7286 45.7366 16.7311 44.8833C16.7311 44.0301 16.6532 44.0301 16.6557 43.1768C16.6557 42.3235 16.711 42.3235 16.7135 41.4703C16.7135 40.617 16.7437 40.617 16.7437 39.7613C16.7437 38.9055 16.7562 38.908 16.7588 38.0522" fill="#95BECE"/>
<path d="M9.5418 38.302C9.56945 39.4048 9.6147 40.5001 9.6876 41.6003C9.72531 42.1841 9.70268 42.7555 9.67252 43.3368C9.64235 43.9106 9.67754 44.4894 9.70771 45.0633C9.76552 46.2159 9.66749 47.3686 9.75044 48.5187C9.79066 49.0801 9.83842 49.6364 9.84094 50.2003C9.84596 50.7267 9.77558 51.2806 9.85099 51.802C9.89624 52.1089 10.0923 52.3983 10.394 52.5106C10.6956 52.6229 11.0576 52.5655 11.3642 52.5605C11.9424 52.5505 12.5231 52.538 13.1012 52.558C13.6794 52.578 14.2726 52.6029 14.8608 52.6004C15.0946 52.6004 15.3309 52.5954 15.5647 52.5929C15.8562 52.5904 16.2308 52.6503 16.5048 52.5455C17.1508 52.301 17.0025 51.4278 17.0126 50.8864C17.0226 50.3176 17.0075 49.7462 17.0603 49.1799C17.1634 48.0472 17.0704 46.902 17.1005 45.7668C17.1181 45.1331 17.1131 44.5069 17.0628 43.8757C17.0126 43.2445 17.0553 42.6482 17.0829 42.0319C17.1433 40.7096 17.1382 39.3773 17.1408 38.0525C17.1408 37.571 16.3892 37.571 16.3866 38.0525C16.3841 39.1179 16.3514 40.1832 16.3414 41.246C16.3364 41.7849 16.2987 42.3189 16.2861 42.8578C16.2735 43.4016 16.3288 43.9331 16.3514 44.477C16.3942 45.5598 16.3313 46.65 16.3439 47.7353C16.3565 48.8281 16.271 49.9184 16.2534 51.0111C16.2534 51.1234 16.2509 51.2357 16.2484 51.3455C16.2459 51.4552 16.2961 51.6923 16.2358 51.7946C16.183 51.8869 16.1881 51.8519 16.0573 51.8395C15.997 51.8345 15.9266 51.8395 15.8663 51.8395C15.723 51.8395 15.5772 51.8395 15.4339 51.8445C14.8734 51.8519 14.3128 51.8619 13.7523 51.8395C13.2194 51.8195 12.6865 51.797 12.1535 51.7995C11.9323 51.7995 11.7111 51.8045 11.4899 51.8095C11.3743 51.8095 11.2587 51.8145 11.1405 51.8145C11.0224 51.8145 10.7283 51.8694 10.6428 51.802C10.5046 51.6873 10.58 51.1808 10.5825 51.0012C10.585 50.7766 10.5925 50.5496 10.5925 50.325C10.5925 49.7861 10.5649 49.2522 10.5171 48.7158C10.4191 47.6106 10.5171 46.5028 10.4719 45.3926C10.4467 44.7938 10.404 44.195 10.4141 43.5963C10.4241 42.9975 10.4769 42.4112 10.4493 41.8099C10.4216 41.2086 10.3512 40.6722 10.3361 40.1009C10.3211 39.5021 10.306 38.9008 10.2909 38.302C10.2783 37.8205 9.52421 37.8205 9.53678 38.302H9.5418Z" fill="#333333"/>
<path d="M23.5935 52.5057C23.2944 52.3385 22.9098 52.2437 22.7112 51.8994C22.5654 51.6474 22.5755 51.2882 22.5679 50.9738C22.5679 50.9314 22.5629 50.879 22.5604 50.8216C22.5478 50.2653 22.5202 49.0527 22.5101 48.6535C21.8163 48.6885 21.1276 48.7608 20.4665 48.7558C19.7903 48.7533 19.1216 48.7733 18.4454 48.7608C17.7843 48.7483 17.0956 48.6411 16.4043 48.651C16.442 49.0128 16.4118 49.6765 16.4093 50.3152C16.4093 50.9189 16.4294 51.5352 16.4722 51.9418C16.4772 51.9967 16.5048 52.0441 16.5124 52.0915C16.5878 52.578 16.6909 53.1244 17.0051 53.3889C17.2137 53.566 17.4827 53.5186 17.729 53.5261C18.267 53.5411 18.8024 53.606 19.3378 53.606C19.8757 53.606 20.4137 53.6334 20.9491 53.6209C21.487 53.6084 22.0224 53.5486 22.5579 53.5211C23.0933 53.4937 23.591 53.4163 24.1264 53.3764C24.1692 52.9498 23.8876 52.6729 23.5885 52.5057H23.5935Z" fill="#333333"/>
<path d="M23.7847 52.1839C23.4831 52.0217 23.0683 51.9244 22.9804 51.5502C22.9049 51.2283 22.9376 50.8616 22.9301 50.5323C22.915 49.906 22.9024 49.2798 22.8874 48.6536C22.8823 48.459 22.7189 48.2694 22.5103 48.2793C21.4897 48.3317 20.4792 48.3791 19.4561 48.3891C18.9609 48.3941 18.4682 48.3991 17.9756 48.3667C17.4527 48.3317 16.9299 48.2769 16.4045 48.2769C16.2134 48.2769 16.0098 48.449 16.0274 48.6511C16.1179 49.6865 15.9973 50.7319 16.0802 51.7697C16.1405 52.5008 16.3215 53.7133 17.2089 53.8755C17.4602 53.9204 17.7242 53.8979 17.9781 53.9104C18.2671 53.9253 18.5562 53.9503 18.8453 53.9653C19.4209 53.9952 20.0041 53.9977 20.5823 54.0002C21.7687 54.0027 22.9502 53.848 24.1316 53.7507C24.3428 53.7332 24.4986 53.5935 24.5087 53.3765C24.5313 52.8475 24.2272 52.4459 23.7847 52.1814C23.3675 51.9344 22.9879 52.5806 23.4052 52.8276C23.6289 52.9598 23.7671 53.107 23.7546 53.374L24.1316 52.9997C23.0734 53.0846 22.0176 53.2193 20.9543 53.2442C19.8985 53.2692 18.8478 53.1819 17.7946 53.1494C17.6161 53.1444 17.3622 53.1968 17.2189 53.0671C17.1033 52.9623 17.0505 52.7777 17.0103 52.6305C16.9022 52.2562 16.8394 51.8571 16.8193 51.4679C16.769 50.5298 16.867 49.5792 16.7866 48.6461L16.4095 49.0203C16.9349 49.0203 17.4552 49.0752 17.9806 49.1102C18.4733 49.1426 18.9685 49.1376 19.4612 49.1326C20.4842 49.1226 21.4948 49.0777 22.5153 49.0228L22.1383 48.6486C22.1533 49.3621 22.1634 50.0757 22.186 50.7867C22.1986 51.2134 22.1659 51.6974 22.3896 52.0816C22.6134 52.4658 23.0281 52.618 23.4077 52.8226C23.835 53.0496 24.2171 52.4035 23.7873 52.1764L23.7847 52.1839Z" fill="#333333"/>
<path d="M16.2261 42.3762C16.2411 43.3118 16.1808 43.3118 16.1959 44.2474C16.211 45.183 16.2939 45.1805 16.3115 46.1161C16.3266 47.0517 16.3618 47.0492 16.3769 47.9848C16.392 48.9204 16.3015 48.9228 16.3166 49.8559C16.3316 50.789 16.309 50.7915 16.3241 51.7271C16.3291 51.9816 16.5704 52.2037 16.7791 52.2012C17.7192 52.1862 17.7167 52.1413 18.6568 52.1263C19.597 52.1114 19.5995 52.1987 20.5396 52.1812C21.4797 52.1637 21.4772 52.0515 22.4173 52.034C22.6209 52.0315 22.7994 51.8793 22.8044 51.6298C22.817 50.7067 22.7441 50.7042 22.7567 49.7811C22.7693 48.858 22.8271 48.858 22.8396 47.9349C22.8522 47.0117 22.8447 47.0117 22.8572 46.0861C22.8698 45.163 22.9276 45.163 22.9402 44.2374C22.9528 43.3143 22.8648 43.3118 22.8748 42.3887C22.8874 41.463 22.9326 41.4655 22.9452 40.5399C22.9578 39.6143 22.9528 39.6143 22.9653 38.6912C22.9678 38.4317 22.7944 38.2546 22.5807 38.2571C21.7034 38.2646 21.7034 38.2521 20.8236 38.2571C19.9438 38.2646 19.9438 38.292 19.0666 38.2995C18.1893 38.307 18.1868 38.317 17.307 38.3219C16.4272 38.3269 16.4272 38.307 15.5474 38.3145" fill="#95BECE"/>
<path d="M15.8492 42.3764C15.8592 43.02 15.8064 43.6612 15.819 44.3049C15.8316 44.9486 15.9196 45.5873 15.9346 46.231C15.9497 46.8747 15.995 47.476 16 48.0997C16.005 48.7259 15.9321 49.3447 15.9397 49.9709C15.9472 50.5697 15.8718 51.2159 15.9547 51.8096C16 52.129 16.2187 52.4284 16.5354 52.5332C16.8521 52.638 17.2393 52.5656 17.561 52.5481C18.1869 52.5107 18.8153 52.4758 19.4413 52.5182C20.0697 52.5606 20.6956 52.5831 21.3215 52.5057C21.5779 52.4733 21.8343 52.4359 22.0932 52.4209C22.4653 52.4009 22.8348 52.4059 23.0585 52.0566C23.2395 51.7747 23.1867 51.383 23.1741 51.0637C23.1641 50.7992 23.1414 50.5372 23.1339 50.2728C23.1163 49.6391 23.1766 49.0153 23.2018 48.3841C23.2294 47.7554 23.2194 47.1242 23.2269 46.4955C23.2319 45.8767 23.2822 45.2655 23.3048 44.6467C23.3275 44.028 23.2696 43.4167 23.2521 42.798C23.237 42.1793 23.2923 41.5655 23.3124 40.9493C23.3325 40.333 23.33 39.7168 23.335 39.1005C23.34 38.7038 23.3777 38.2922 23.0183 38.0302C22.7116 37.8082 22.2843 37.888 21.9273 37.8855C21.2335 37.8855 20.5398 37.8855 19.8485 37.9105C18.4157 37.9653 16.9803 37.9329 15.545 37.9429C15.0599 37.9454 15.0599 38.6939 15.545 38.6914C16.7189 38.6839 17.8903 38.6864 19.0642 38.6764C19.6499 38.6714 20.2356 38.639 20.8213 38.634C21.1255 38.6315 21.4271 38.634 21.7313 38.634C21.8469 38.634 21.9625 38.634 22.0756 38.634C22.1888 38.634 22.5004 38.5766 22.5834 38.634C22.6437 38.6764 22.5784 39.2727 22.5784 39.3999C22.5784 39.6444 22.5759 39.8889 22.5708 40.1334C22.5658 40.6973 22.5356 41.2586 22.5105 41.8225C22.4829 42.4188 22.5155 43.0051 22.5482 43.5989C22.5809 44.1927 22.5482 44.744 22.5055 45.3154C22.4225 46.483 22.5055 47.6581 22.42 48.8282C22.3773 49.4021 22.3597 49.9784 22.3898 50.5522C22.4024 50.7743 22.4175 50.9988 22.4225 51.2208C22.4225 51.3157 22.4703 51.5851 22.415 51.6575C22.3798 51.7024 21.955 51.6774 21.877 51.6824C21.2863 51.7348 20.7182 51.8171 20.1225 51.8047C19.5569 51.7922 18.9989 51.7398 18.4308 51.7548C18.1718 51.7622 17.9129 51.7747 17.654 51.7922C17.5409 51.7997 17.4278 51.8047 17.3147 51.8096C17.1739 51.8146 16.8873 51.877 16.7667 51.8171C16.6159 51.7448 16.6913 51.1684 16.6913 51.0088C16.6913 50.7618 16.6963 50.5148 16.6913 50.2653C16.6862 49.6066 16.739 48.958 16.7466 48.3018C16.7541 47.6456 16.6988 46.9895 16.6837 46.3333C16.6686 45.6721 16.5832 45.0185 16.5681 44.3573C16.553 43.6962 16.6058 43.0325 16.5957 42.3689C16.5882 41.8874 15.8341 41.8874 15.8416 42.3689L15.8492 42.3764Z" fill="#333333"/>
<path d="M24.0963 28.6767C24.0461 28.3648 23.9229 28.0654 23.8399 27.7536C23.7092 27.2671 23.5207 26.798 23.3045 26.3415C23.0883 25.8849 22.8571 25.4358 22.5001 25.0715C21.8742 24.4328 21.2156 24.2757 20.5118 24.2258C19.8079 24.1759 19.0488 24.2881 18.2746 24.126C17.6537 23.9962 17.0228 23.8989 16.3818 23.9089C15.7382 23.9189 15.0947 23.9638 14.4814 24.1285C13.8429 24.2981 13.3427 24.7073 12.7394 24.9443C12.302 25.1164 11.9048 25.0216 11.5781 25.3984C11.1608 25.8799 10.9471 26.5785 10.7938 27.297C10.643 28.0106 10.5851 28.754 10.5047 29.3503C10.4293 29.9242 10.2961 30.4905 10.2357 31.0643C10.1754 31.6382 10.1427 32.217 10.0975 32.7933C10.0522 33.3696 10.0321 33.9485 10.002 34.5248C9.97179 35.1011 9.96928 35.6799 9.9542 36.2588C9.93911 36.8376 9.92403 37.4139 9.92655 37.9927C9.92655 38.7612 10.2357 39.0556 10.6907 39.2052C11.1457 39.3549 11.6861 39.345 12.2643 39.3749C12.9028 39.4073 13.5362 39.5171 14.1747 39.5346C14.8132 39.552 15.4517 39.4572 16.0902 39.4597C16.6859 39.4622 17.2817 39.4398 17.8799 39.4298C18.4757 39.4198 19.0739 39.4572 19.6697 39.4348C20.2654 39.4123 20.8612 39.3225 21.4569 39.2876C22.1658 39.2876 22.9224 39.1354 23.5031 38.7162C24.0963 38.2871 24.4382 37.6409 24.5061 36.9024C24.584 36.0592 24.8127 35.1859 24.7826 34.3377C24.765 33.8287 24.5664 33.3896 24.4834 32.8956C24.3653 32.192 24.3125 31.491 24.2648 30.7874C24.217 30.0838 24.2095 29.3753 24.0938 28.6742L24.0963 28.6767Z" fill="#FCFCFC"/>
<path d="M24.4611 28.5766C24.2927 27.6759 23.9408 26.7753 23.5361 25.9569C23.1464 25.171 22.6035 24.4725 21.7689 24.1232C20.962 23.7839 20.0948 23.8562 19.2401 23.8437C18.2774 23.8313 17.3523 23.5269 16.382 23.5369C15.4117 23.5468 14.4792 23.6416 13.632 24.0733C13.2751 24.2554 12.9332 24.4949 12.5486 24.6197C12.1691 24.7419 11.782 24.7394 11.4577 25.0014C10.8293 25.5128 10.593 26.4459 10.4346 27.1994C10.2436 28.1026 10.1958 29.0282 10.0349 29.9388C9.68552 31.9348 9.6277 33.9931 9.58748 36.0139C9.57743 36.468 9.56486 36.9221 9.55732 37.3762C9.55229 37.8103 9.51207 38.2768 9.65535 38.696C9.88661 39.3621 10.5125 39.6016 11.1661 39.684C11.611 39.7389 12.0585 39.7339 12.5034 39.7688C13.0212 39.8087 13.5365 39.8886 14.0543 39.911C14.5345 39.931 15.0121 39.8886 15.4922 39.8586C15.9698 39.8312 16.4474 39.8411 16.925 39.8312C17.9179 39.8112 18.9184 39.8661 19.9088 39.8037C20.3864 39.7738 20.8615 39.7039 21.3391 39.6765C21.7915 39.649 22.239 39.6341 22.6789 39.5143C23.531 39.2798 24.265 38.7259 24.627 37.9151C24.8231 37.476 24.8583 37.0319 24.9211 36.5628C24.994 36.0164 25.1021 35.475 25.1448 34.9262C25.1851 34.4047 25.1298 33.9232 24.994 33.4192C24.8583 32.9153 24.7753 32.3838 24.725 31.8499C24.6195 30.7621 24.6245 29.6644 24.4586 28.5841C24.3857 28.11 23.6592 28.3121 23.7321 28.7837C23.8704 29.6794 23.8654 30.5975 23.9408 31.5006C23.9734 31.9048 24.0187 32.309 24.0765 32.7132C24.1368 33.1273 24.255 33.519 24.3455 33.9232C24.534 34.769 24.2877 35.6672 24.1771 36.5079C24.079 37.2489 23.9533 37.9226 23.3149 38.4041C22.6613 38.8981 21.8795 38.8856 21.1028 38.953C20.1828 39.0328 19.2854 39.0802 18.3603 39.0702C17.4881 39.0602 16.6058 39.0702 15.7335 39.1076C15.2936 39.1251 14.8562 39.1725 14.4163 39.1775C13.9764 39.1825 13.539 39.1351 13.1016 39.0877C12.6718 39.0428 12.242 39.0153 11.8096 38.9954C11.4501 38.9779 11.0404 38.9779 10.7061 38.8257C10.1154 38.5613 10.3039 37.6531 10.3139 37.1416C10.3466 35.2829 10.412 33.4267 10.5678 31.573C10.6382 30.7322 10.8192 29.9089 10.9197 29.0731C11.0203 28.2298 11.1083 27.3815 11.3798 26.5707C11.4828 26.2588 11.6211 25.9245 11.8448 25.6775C12.0886 25.408 12.516 25.438 12.8402 25.3207C13.5667 25.0538 14.1549 24.5772 14.9291 24.4251C15.917 24.2304 16.9552 24.2654 17.9405 24.455C18.4559 24.5548 18.9511 24.6097 19.4764 24.6072C19.9113 24.6072 20.3512 24.5822 20.7836 24.6421C21.6985 24.7669 22.3345 25.3157 22.7593 26.1091C23.1841 26.9025 23.5612 27.868 23.7321 28.7912C23.8201 29.2652 24.5466 29.0631 24.4586 28.5916L24.4611 28.5766Z" fill="#333333"/>
<path d="M17.9554 27.8806C18.159 27.1995 18.3551 26.6756 18.0132 26.0169C17.7644 25.5354 17.1133 25.0714 16.5427 25.1637C16.1129 25.2335 15.7986 25.6377 15.5146 26.0693C15.0169 26.8228 15.0797 27.3941 15.3185 28.0054C15.5548 28.6116 15.8942 29.2254 15.9721 29.9639C16.0576 30.7972 15.8715 31.638 15.59 32.3914C15.3085 33.1449 14.954 33.8585 14.758 34.6593C14.6097 35.2706 14.861 35.8793 15.2506 36.4232C15.6403 36.9671 16.1857 37.4811 16.5075 37.8403C16.6106 37.9551 16.7363 38.1323 16.872 38.1248C16.9876 38.1198 17.0857 37.9676 17.1762 37.8728C17.5809 37.4511 17.9956 36.9946 18.3149 36.4607C18.5939 35.9966 18.7422 35.5026 18.7849 35.0136C18.8251 34.5396 18.7573 34.0331 18.6718 33.5017C18.5662 32.848 18.4682 32.1919 18.3576 31.5407C18.247 30.8845 18.0333 30.2533 17.8825 29.6121C17.8146 29.3277 17.7719 29.0233 17.792 28.7264C17.8096 28.437 17.875 28.1501 17.9554 27.8806Z" fill="#FFD063"/>
<path d="M18.3198 27.9806C18.4631 27.5041 18.6214 27.0176 18.5586 26.5136C18.4983 26.0346 18.2595 25.593 17.8925 25.2761C17.5581 24.9892 17.1258 24.7696 16.6733 24.7796C16.1907 24.7896 15.8086 25.074 15.5145 25.4333C14.8911 26.2017 14.5769 27.0625 14.9238 28.023C15.0947 28.4971 15.3335 28.9461 15.4768 29.4302C15.6402 29.9765 15.6477 30.5479 15.5547 31.1092C15.3687 32.207 14.8006 33.18 14.4839 34.2379C14.3356 34.7343 14.2878 35.2159 14.4562 35.7148C14.6297 36.2238 14.9414 36.6654 15.2857 37.0746C15.5949 37.4438 15.9468 37.7732 16.2661 38.1349C16.5853 38.4967 16.9599 38.6389 17.3294 38.2647C18.0609 37.5237 18.8075 36.6679 19.0613 35.6375C19.2096 35.0362 19.182 34.4325 19.0965 33.8262C19.0035 33.1526 18.8879 32.4814 18.7798 31.8103C18.6717 31.1442 18.5008 30.5055 18.3298 29.8543C18.1589 29.2031 18.1287 28.6393 18.3173 27.9831C18.4505 27.519 17.724 27.3219 17.5908 27.7835C17.4651 28.2176 17.3797 28.6692 17.4224 29.1208C17.4651 29.5923 17.6009 30.0489 17.7266 30.503C17.998 31.5009 18.1338 32.5214 18.2972 33.5418C18.453 34.5198 18.5008 35.4454 17.9603 36.3211C17.724 36.7078 17.4299 37.0521 17.1233 37.3839C17.0529 37.4613 16.98 37.5336 16.9096 37.611C16.8895 37.6309 16.8342 37.6784 16.8241 37.7058C16.8015 37.7856 16.9448 37.7607 16.9423 37.7657C16.9574 37.7282 16.6155 37.4064 16.5753 37.3665C16.0021 36.7652 15.2355 36.0866 15.1073 35.2209C15.0394 34.7668 15.2505 34.2853 15.4064 33.8661C15.5623 33.447 15.7508 33.0228 15.9142 32.5962C16.246 31.7305 16.4521 30.7874 16.334 29.8568C16.2259 29.011 15.7357 28.3124 15.5497 27.4966C15.4441 27.0275 15.6075 26.6084 15.8664 26.2192C16.0876 25.8874 16.3767 25.4582 16.8317 25.5456C17.2489 25.6254 17.6185 25.9822 17.7542 26.3739C17.9176 26.8454 17.7266 27.3319 17.5883 27.786C17.45 28.2401 18.1765 28.4472 18.3148 27.9856L18.3198 27.9806Z" fill="#333333"/>
<path d="M21.0448 31.2441C21.0171 31.8928 20.9291 32.5414 20.9065 33.1901C20.8839 33.8388 20.9794 34.4925 20.9618 35.1411C20.9442 35.7898 20.8386 36.4385 20.8236 37.0872C20.811 37.7359 20.7783 38.387 20.7708 39.0357C20.7657 39.4798 20.7205 39.894 20.7481 40.3455C20.7532 40.4453 20.7909 40.5726 20.8537 40.6524C20.9367 40.7597 21.1101 40.7896 21.2459 40.8071C21.7989 40.8745 22.3594 40.8345 22.915 40.862C23.4705 40.8894 24.0235 40.9069 24.579 40.8969C24.6871 40.8969 24.8053 40.9468 24.8958 40.8894C25.0064 40.8171 25.0944 40.6923 25.1295 40.5676C25.3256 39.884 25.3809 39.1679 25.3709 38.4569C25.3507 37.1021 26.2758 37.5113 27.2712 37.0223C27.7312 36.7978 28.1938 36.5283 28.5406 36.1541C28.8875 35.7798 29.1515 35.3108 29.3249 34.8293C29.5135 34.3128 29.4883 33.754 29.4808 33.2051C29.4732 32.6562 29.3978 32.1248 29.2646 31.5959C29.1037 30.9622 28.9504 30.3634 28.6814 29.827C28.3974 29.2606 28.0832 28.7167 27.6935 28.2327C27.3039 27.7487 26.7861 27.3869 26.3135 26.9653C25.8585 26.5586 25.4186 26.112 24.8983 25.7378C24.6419 25.5532 24.1215 25.1789 23.5459 24.8696C23.0381 24.5951 22.4801 24.3456 22.0352 24.3082C21.4947 24.2633 21.0397 24.5502 21.0649 25.3661C21.085 26.0197 21.173 26.6709 21.1704 27.3271C21.1679 27.9807 21.1529 28.6344 21.1353 29.2881C21.1177 29.9417 21.08 30.5954 21.0523 31.2491L21.0448 31.2441Z" fill="#95BECE"/>
<path d="M20.6678 31.2439C20.6276 32.1171 20.4969 32.9829 20.5371 33.8611C20.5572 34.2877 20.5924 34.7144 20.5823 35.141C20.5723 35.5676 20.5144 36.0342 20.4793 36.4783C20.4114 37.3265 20.4114 38.1848 20.3913 39.0355C20.3787 39.6343 20.1198 40.7296 20.7935 41.0714C21.0976 41.2261 21.5048 41.2111 21.8341 41.2186C22.2715 41.2286 22.7089 41.2261 23.1463 41.246C23.5837 41.266 23.9783 41.276 24.3931 41.271C24.7651 41.2685 25.0442 41.3259 25.3031 41.004C25.5293 40.7246 25.5821 40.3129 25.6374 39.9686C25.7053 39.5445 25.7379 39.1179 25.7405 38.6888C25.7405 38.4517 25.6902 38.1374 25.8284 37.9253C25.9164 37.7906 26.0748 37.7507 26.2231 37.7132C26.7535 37.5735 27.2386 37.4613 27.7288 37.1993C28.3748 36.8525 28.9077 36.3884 29.2873 35.7572C30.1219 34.375 29.9258 32.6511 29.5336 31.1566C29.149 29.6871 28.4251 28.2725 27.2537 27.2695C26.0823 26.2666 25.0869 25.2836 23.7798 24.5675C23.1564 24.2257 22.3419 23.7891 21.6029 23.9563C20.9342 24.1085 20.6728 24.7322 20.6778 25.3584C20.6829 25.8499 20.7457 26.3389 20.7708 26.8279C20.7935 27.3169 20.7809 27.8084 20.7708 28.2999C20.7532 29.2804 20.7055 30.2609 20.6653 31.2414C20.6452 31.7229 21.3993 31.7229 21.4194 31.2414C21.4847 29.6971 21.6104 28.1303 21.5099 26.5834C21.4873 26.2167 21.4495 25.8499 21.437 25.4807C21.4294 25.2536 21.4043 24.9393 21.5953 24.7696C21.9573 24.4528 22.7014 24.8569 23.0382 25.0241C23.6063 25.3035 24.1392 25.6478 24.652 26.0171C25.2101 26.4187 25.6852 26.9202 26.208 27.3668C26.7309 27.8134 27.2587 28.2326 27.6559 28.8089C28.048 29.3802 28.3949 30.0039 28.6086 30.6626C28.8323 31.3487 29.0234 32.0697 29.0787 32.7908C29.1289 33.4544 29.1666 34.1879 28.9178 34.8191C28.4603 35.9793 27.4598 36.6729 26.2658 36.9348C25.8812 37.0197 25.4866 37.1269 25.2402 37.4588C24.9059 37.9153 25.0014 38.5166 24.9788 39.0455C24.9637 39.4073 24.9235 39.7666 24.8456 40.1183C24.8154 40.2556 24.7953 40.4352 24.7073 40.545L24.6847 40.5699C24.7878 40.5375 24.7777 40.5225 24.6545 40.5225C24.5565 40.4976 24.4333 40.5175 24.3353 40.52C23.5812 40.525 22.8296 40.4751 22.0755 40.4701C21.8769 40.4701 21.6783 40.4651 21.4797 40.4502C21.3088 40.4377 21.1429 40.4701 21.1203 40.2805C21.0725 39.8713 21.1378 39.4422 21.1479 39.0306C21.1655 38.1798 21.168 37.3215 21.2359 36.4733C21.2711 36.0267 21.3264 35.5826 21.3389 35.136C21.349 34.7293 21.3163 34.3226 21.2962 33.916C21.2535 33.0178 21.3817 32.1346 21.4244 31.2389C21.447 30.7574 20.6929 30.7574 20.6703 31.2389L20.6678 31.2439Z" fill="#333333"/>
<path d="M22.6535 24.2358C23.1185 24.4429 23.5408 24.7922 23.85 25.1939C24.1592 25.5956 24.2949 26.107 24.3729 26.606C24.4257 26.9453 24.4483 27.2921 24.3377 27.6165C24.0813 28.3674 23.4151 28.8415 22.7239 29.2406C23.2693 29.7321 23.8098 30.3534 23.6741 31.0694C23.6112 31.3963 23.4051 31.6857 23.1939 31.9426C22.6434 32.6063 22.0527 33.2475 21.3916 33.8039" fill="#95BECE"/>
<path d="M22.4623 24.5598C23.4125 25.0064 23.9203 25.8097 24.0258 26.8352C24.1314 27.8606 23.3346 28.4519 22.5352 28.9209C22.3341 29.0382 22.2788 29.345 22.4598 29.5097C22.7514 29.7767 23.0606 30.0661 23.224 30.4328C23.4075 30.847 23.2818 31.2137 23.0229 31.5605C22.4824 32.2866 21.8138 32.9577 21.125 33.5415C20.7555 33.8559 21.2909 34.3823 21.6579 34.0704C22.0878 33.7062 22.4925 33.3095 22.872 32.8928C23.2315 32.4961 23.6538 32.077 23.8901 31.593C24.3878 30.575 23.7393 29.6594 22.9952 28.9808C22.9701 29.1779 22.9449 29.3725 22.9198 29.5696C23.9429 28.9683 24.9081 28.13 24.785 26.8377C24.7297 26.2538 24.5939 25.6326 24.2672 25.1336C23.9253 24.6097 23.415 24.1831 22.8494 23.9161C22.412 23.7115 22.03 24.3552 22.4699 24.5623L22.4623 24.5598Z" fill="#333333"/>
<path d="M12.3498 31.2437C12.3749 31.825 12.3448 32.4113 12.3699 32.9926C12.395 33.5739 12.4353 34.1552 12.4554 34.739C12.4755 35.3229 12.4881 35.9042 12.5031 36.4855C12.5182 37.0668 12.6112 37.6506 12.6087 38.2319C12.6087 39.0577 12.4805 39.8536 12.4076 40.6844C12.4001 40.7792 12.4503 40.8815 12.385 40.9514C12.3121 41.0337 12.199 41.0986 12.0884 41.1111C11.7339 41.1485 10.8089 41.2508 9.92155 41.2882C8.97137 41.3281 8.0237 41.2608 7.88042 40.8067C7.82512 40.6295 7.84774 40.4275 7.85277 40.2403C7.86282 39.7638 7.91561 39.1675 7.93572 38.5812C7.95583 37.9949 7.99605 37.3462 7.82763 36.8897C7.2897 36.8822 6.68641 36.952 6.14344 36.8547C5.60048 36.7574 5.09523 36.4855 4.62013 36.241C4.14504 35.9965 3.72274 35.6647 3.40853 35.2006C3.14961 34.8189 2.98874 34.4047 2.9083 33.9506C2.82786 33.4966 2.77759 33.04 2.83289 32.5884C2.88819 32.1368 2.95857 31.6728 3.09431 31.2337C3.23005 30.7946 3.41104 30.3704 3.57443 29.9413C3.71771 29.5646 3.90373 29.2028 4.04701 28.8261C4.13499 28.5941 4.22548 28.367 4.38636 28.1774C4.595 27.9329 4.88408 27.7932 5.17818 27.661C5.63065 27.4564 6.06552 27.1919 6.53307 26.9948C7.00062 26.7977 7.46063 26.6106 7.90304 26.3811C8.353 26.149 8.82557 25.9594 9.21771 25.6526C9.64002 25.3207 10.3212 24.8342 10.9421 24.6346C11.6359 24.4101 12.2744 24.5199 12.2995 25.5602C12.3146 26.1915 12.3247 26.8252 12.3272 27.4564C12.3322 28.0876 12.2518 28.7213 12.2593 29.3525C12.2668 29.9837 12.3221 30.6149 12.3473 31.2462L12.3498 31.2437Z" fill="#95BECE"/>
<path d="M11.9729 31.2439C11.9955 31.8651 11.9704 32.4863 11.9981 33.1101C12.0257 33.7313 12.0659 34.35 12.086 34.9713C12.1061 35.5925 12.1011 36.2137 12.1413 36.835C12.1816 37.4612 12.2494 38.0749 12.2193 38.7012C12.1866 39.3249 12.086 39.9411 12.0433 40.5649C12.0433 40.5973 12.0458 40.7645 12.0383 40.7794C12.0458 40.767 12.0911 40.7196 12.0433 40.742C11.993 40.7695 11.8774 40.7595 11.8221 40.7645C11.5657 40.7919 11.3093 40.8169 11.0529 40.8393C10.4647 40.8892 9.86894 40.9391 9.27571 40.9216C9.01679 40.9142 8.30541 40.9441 8.22749 40.6223C8.16213 40.3603 8.24006 39.996 8.25514 39.7291C8.27273 39.4047 8.29536 39.0804 8.31044 38.7586C8.34061 38.1099 8.40596 37.4163 8.19732 36.7901C8.14454 36.6329 8.00628 36.5156 7.83284 36.5156C7.38288 36.5156 6.93041 36.558 6.48046 36.5206C6.02548 36.4832 5.60569 36.316 5.20098 36.1139C4.46698 35.7497 3.82347 35.328 3.4816 34.5546C2.71995 32.8256 3.55701 30.917 4.2508 29.3203C4.41419 28.9435 4.51222 28.5044 4.86163 28.25C5.19847 28.008 5.62328 27.8632 5.98777 27.6736C6.80221 27.252 7.65939 26.9152 8.48137 26.511C9.20784 26.1567 9.79604 25.6203 10.5024 25.2336C10.804 25.0689 11.6034 24.6423 11.8422 25.1163C12.0182 25.4656 11.9327 26.0095 11.9402 26.3863C11.9503 26.9401 11.9629 27.4915 11.9377 28.0454C11.9126 28.5593 11.8749 29.0708 11.89 29.5847C11.905 30.1386 11.9478 30.69 11.9729 31.2414C11.993 31.7204 12.7471 31.7229 12.727 31.2414C12.7019 30.69 12.6592 30.1361 12.6441 29.5847C12.629 29.0508 12.6692 28.5194 12.6944 27.9855C12.7195 27.4341 12.7044 26.8802 12.6944 26.3264C12.6868 25.8798 12.7321 25.3833 12.5863 24.9517C12.36 24.2805 11.7316 24.071 11.0755 24.2057C10.2158 24.3828 9.55724 24.9741 8.85592 25.4482C8.00628 26.022 6.99828 26.3488 6.07575 26.7854C5.62328 27 5.17081 27.2245 4.72589 27.4541C4.29856 27.6761 3.99188 27.993 3.79833 28.4321C2.99143 30.2883 2.05381 32.2892 2.61437 34.35C2.88585 35.348 3.56958 36.1065 4.47954 36.5805C4.97475 36.84 5.49006 37.1044 6.04559 37.2067C6.63631 37.3165 7.23457 37.2516 7.82781 37.2541L7.46332 36.9797C7.66693 37.5909 7.57392 38.2945 7.54124 38.9257C7.52365 39.2625 7.49851 39.5968 7.48343 39.9337C7.47086 40.2156 7.43064 40.5274 7.49097 40.8069C7.59655 41.2859 8.0465 41.5005 8.49394 41.5853C9.11483 41.7026 9.75331 41.6701 10.3792 41.6302C10.9322 41.5953 11.4853 41.5479 12.0332 41.483C12.2896 41.4531 12.5586 41.3632 12.7044 41.1312C12.7748 41.0189 12.7798 40.8967 12.7823 40.7695C12.7848 40.5798 12.805 40.3927 12.8251 40.2031C12.898 39.507 12.991 38.8084 12.9784 38.1049C12.9658 37.4063 12.8779 36.7102 12.8628 36.0092C12.8452 35.2332 12.8175 34.4573 12.7748 33.6814C12.7321 32.8656 12.7497 32.0497 12.7195 31.2339C12.7019 30.7524 11.9478 30.7524 11.9654 31.2339L11.9729 31.2439Z" fill="#333333"/>
<path d="M11.206 24.3306C10.7309 24.5102 10.3237 24.8171 9.99184 25.2013C9.66003 25.5855 9.34079 26.0146 9.23522 26.5086C9.16232 26.8454 9.14975 27.2247 9.24276 27.554C9.45391 28.3174 10.1603 28.8114 10.8264 29.2505C10.2533 29.7096 9.66003 30.3009 9.75555 31.0244C9.79829 31.3538 10.0396 31.6207 10.2382 31.8902C10.7485 32.5838 11.3166 33.2299 11.945 33.8212" fill="#95BECE"/>
<path d="M11.1056 23.971C9.99206 24.4176 8.96898 25.5004 8.82318 26.7154C8.65979 28.0651 9.60495 28.8909 10.6356 29.5746C10.6104 29.3775 10.5853 29.1829 10.5602 28.9858C9.82615 29.5795 9.03182 30.5027 9.51697 31.4956C9.7432 31.9547 10.1303 32.3788 10.4546 32.7755C10.8342 33.2371 11.2439 33.6737 11.6788 34.0879C12.0307 34.4197 12.5636 33.8933 12.2117 33.5589C11.5355 32.9177 10.9297 32.2142 10.3817 31.4607C10.1353 31.1239 10.0423 30.817 10.2434 30.4278C10.4445 30.0386 10.7738 29.7766 11.0931 29.5172C11.2942 29.355 11.1986 29.0506 11.0177 28.9284C10.251 28.4219 9.45915 27.8381 9.56473 26.8202C9.65773 25.922 10.4822 25.0213 11.3042 24.692C11.7491 24.5149 11.5531 23.7888 11.1031 23.971H11.1056Z" fill="#333333"/>
<path d="M12.2066 24.6995C12.0482 25.2085 11.8345 25.7174 11.827 26.2489C11.8194 26.8227 11.9426 27.4614 12.3121 27.903C12.6339 28.2897 13.1492 28.4145 13.657 28.4369C14.1446 28.4569 14.6273 28.3147 15.0445 28.0652C15.4719 27.8082 15.8741 27.5213 16.1858 27.1321C16.4924 26.7478 16.7438 26.3013 17.0027 25.8846C17.048 26.8801 17.3421 27.4464 18.1339 28.0702C18.3274 28.2223 18.5185 28.3571 18.7497 28.4444C19.3656 28.6789 20.0644 28.5118 20.547 28.0677C21.0297 27.6236 21.2383 26.9774 21.276 26.3262C21.3137 25.675 21.1529 25.0488 20.9241 24.4351" fill="#FCFCFC"/>
<path d="M11.8445 24.6025C11.5655 25.4857 11.3216 26.304 11.5655 27.2297C11.7791 28.0355 12.3397 28.6218 13.1793 28.764C14.0691 28.9162 14.8635 28.6642 15.5949 28.1628C16.3842 27.6214 16.8367 26.8754 17.3294 26.077L16.6256 25.8874C16.6683 26.6533 16.8719 27.3444 17.4048 27.9183C18.0006 28.5594 18.7999 29.0509 19.7074 28.8913C20.6148 28.7316 21.2483 28.0305 21.5097 27.1947C21.8063 26.2442 21.6279 25.2512 21.2935 24.338C21.1301 23.889 20.4012 24.0836 20.5671 24.5376C20.8285 25.2512 21.012 26.0047 20.8461 26.7631C20.7028 27.4143 20.2956 28.0106 19.6043 28.1553C18.913 28.3 18.3676 27.8484 17.9427 27.3918C17.5506 26.9702 17.4149 26.4512 17.3847 25.8899C17.3646 25.5231 16.8845 25.3759 16.6809 25.7003C16.2963 26.324 15.9494 26.9727 15.3486 27.4218C14.7931 27.8384 14.1797 28.1353 13.4683 28.0555C12.7947 27.9806 12.4176 27.5814 12.2693 26.9353C12.0984 26.1818 12.3447 25.5132 12.5709 24.8021C12.7167 24.3405 11.9903 24.1434 11.8445 24.6025Z" fill="#333333"/>
<path d="M29.6067 10.3388C29.1869 10.3388 28.7897 10.461 28.4252 10.6157C28.2643 10.0419 28.0884 9.47803 27.8496 8.94162C27.6083 8.39773 27.3468 7.85883 27.0326 7.36234C26.7184 6.86585 26.3187 6.41178 25.9341 5.96269C25.5495 5.51111 25.175 5.03957 24.7301 4.65036C24.2851 4.25866 23.7422 3.98672 23.2445 3.66238C22.7467 3.33804 22.239 3.04613 21.696 2.79664C21.1606 2.54964 20.6277 2.2752 20.0546 2.10555C19.4814 1.93589 18.8983 1.85107 18.3025 1.76624C17.7218 1.68391 17.1286 1.64648 16.5253 1.64648C15.922 1.64648 15.3263 1.66894 14.7456 1.75377C14.1498 1.83859 13.5692 1.97332 13.0036 2.14048C12.438 2.30764 11.8523 2.47979 11.3169 2.72678C10.7739 2.97628 10.2888 3.33055 9.79359 3.65489C9.29839 3.97923 8.83586 4.34848 8.39094 4.74018C7.94601 5.13188 7.49606 5.5186 7.11146 5.97018C6.72686 6.42176 6.33221 6.87084 6.01548 7.37232C5.69875 7.8738 5.47754 8.42767 5.23623 8.97156C4.99491 9.51545 4.76616 10.0344 4.60529 10.6082C4.23326 10.4461 3.84363 10.3662 3.41127 10.3662C2.85574 10.3662 2.34295 10.5409 1.89551 10.7978C1.4355 11.0648 1.0333 11.4316 0.76685 11.8906C0.500396 12.3497 0.384766 12.8586 0.384766 13.41C0.384766 13.9614 0.578321 14.4454 0.837234 14.8895C1.10369 15.3486 1.40282 15.8126 1.86283 16.0796C2.32284 16.3465 2.85826 16.4114 3.41379 16.4114C3.75817 16.4114 4.06233 16.4014 4.37151 16.2966C4.49217 16.9204 4.71589 17.4942 4.92704 18.083C5.14071 18.6793 5.37951 19.2581 5.67864 19.8095C5.97777 20.3609 6.30204 20.9072 6.68413 21.4062C7.06621 21.9077 7.46589 22.4042 7.92087 22.8408C8.37585 23.2774 8.9163 23.6167 9.43413 23.981C9.94944 24.3428 10.4396 24.7569 11.0077 25.0388C11.5758 25.3208 12.1791 25.5228 12.7849 25.715C13.3832 25.9046 14.0166 25.9669 14.6476 26.0642C15.2634 26.1591 15.8868 26.2239 16.5303 26.2239C17.1738 26.2239 17.8048 26.2189 18.4206 26.1241C19.0541 26.0268 19.6901 25.947 20.2883 25.7599C20.8967 25.5678 21.4874 25.3158 22.0504 25.0363C22.6185 24.7544 23.1012 24.3328 23.6165 23.9685C24.1343 23.6043 24.6446 23.24 25.0971 22.8034C25.5495 22.3668 26.0246 21.9376 26.4067 21.4362C26.7888 20.9347 27.0955 20.3808 27.3971 19.827C27.6988 19.2731 27.9099 18.6868 28.1236 18.0905C28.3347 17.5042 28.5735 16.9353 28.6942 16.3141C28.9933 16.4114 29.2824 16.4364 29.6142 16.4364C30.1697 16.4364 30.675 16.2717 31.1224 16.0147C31.5824 15.7478 31.9318 15.3586 32.1983 14.8995C32.4572 14.4554 32.6332 13.9664 32.6332 13.415C32.6332 12.8636 32.4949 12.3547 32.2385 11.9081C31.9721 11.449 31.5925 11.0673 31.1325 10.8003C30.6725 10.5334 30.1697 10.3438 29.6142 10.3438L29.6067 10.3388Z" fill="#FFE6D9"/>
<path d="M29.6063 9.96492C29.1564 9.9774 28.7366 10.0847 28.3243 10.2543C28.4802 10.3417 28.6335 10.429 28.7894 10.5163C28.4928 9.46844 28.0981 8.4555 27.5551 7.50494C27.0373 6.59679 26.3109 5.79841 25.6196 5.0175C24.9057 4.21165 24.0158 3.68771 23.1059 3.12885C22.2286 2.58995 21.2457 2.08847 20.2604 1.77411C19.2121 1.43979 18.0408 1.30756 16.9448 1.27513C15.8488 1.24269 14.6875 1.32752 13.5865 1.59198C12.5583 1.83898 11.4925 2.14585 10.5826 2.68974C9.67764 3.22865 8.828 3.85238 8.0387 4.54596C7.16895 5.30941 6.34445 6.15768 5.71603 7.13569C5.39427 7.63717 5.16804 8.18854 4.92923 8.72994C4.67284 9.31375 4.41392 9.89507 4.23796 10.5063L4.703 10.2444C3.6573 9.81024 2.47083 9.95994 1.5307 10.5762C0.598111 11.1874 0.0526354 12.1405 0.00236118 13.2457C-0.0453993 14.2662 0.512645 15.4263 1.26927 16.1099C2.06863 16.8309 3.4562 16.9657 4.46168 16.6538C4.30583 16.5665 4.1525 16.4792 3.99665 16.3918C4.21785 17.4846 4.65273 18.5948 5.14039 19.6003C5.63307 20.6157 6.26904 21.5488 6.99802 22.4071C7.35748 22.8312 7.74711 23.2229 8.18952 23.5597C8.63193 23.8965 9.09948 24.1959 9.54692 24.5253C10.0019 24.8596 10.4519 25.1914 10.9647 25.4309C11.4775 25.6704 12.0556 25.875 12.6162 26.0522C13.1843 26.2293 13.77 26.3066 14.3582 26.394C14.9363 26.4788 15.5145 26.5611 16.1002 26.5861C17.3067 26.636 18.5083 26.5287 19.6923 26.2917C20.8008 26.0696 21.9722 25.5981 22.8972 24.9519C23.7997 24.3207 24.7172 23.6745 25.514 22.9111C25.969 22.4769 26.4139 22.0403 26.7885 21.5339C27.163 21.0274 27.4747 20.471 27.7638 19.9147C28.0428 19.3783 28.2514 18.8069 28.4576 18.2381C28.6763 17.6343 28.9176 17.038 29.0458 16.4068L28.5807 16.6688C30.5339 17.2601 32.6027 15.9103 32.9471 13.9343C33.299 11.9184 31.6424 10.0098 29.6013 9.96243C29.1162 9.94996 29.1162 10.6984 29.6013 10.7109C31.1824 10.7483 32.5172 12.2702 32.2005 13.8395C31.8913 15.3764 30.3202 16.4118 28.7818 15.9477C28.5958 15.8928 28.357 16.0151 28.3168 16.2097C28.2137 16.7137 28.0403 17.1952 27.8618 17.6792C27.6808 18.1682 27.5174 18.6647 27.3038 19.1412C26.8764 20.0968 26.3109 21.0449 25.5769 21.7983C25.2174 22.1701 24.8403 22.5368 24.4457 22.8711C24.051 23.2055 23.6086 23.4974 23.1863 23.8092C22.764 24.1211 22.3593 24.4454 21.8943 24.6874C21.379 24.9544 20.8385 25.1814 20.288 25.3636C18.1715 26.0596 15.8337 25.9274 13.6719 25.5432C12.6162 25.3561 11.4976 24.9694 10.6052 24.3756C10.1552 24.0762 9.73294 23.7394 9.28801 23.435C8.84308 23.1306 8.42581 22.8337 8.05378 22.4595C7.22425 21.6262 6.54555 20.6532 5.99002 19.6203C5.70597 19.0938 5.47974 18.545 5.27613 17.9836C5.07252 17.4222 4.84628 16.811 4.7206 16.1972C4.68038 16.0026 4.44158 15.8779 4.25556 15.9353C3.48134 16.1748 2.32754 16.1099 1.72677 15.5161C1.15113 14.9473 0.713741 14.0616 0.751447 13.2482C0.836913 11.4095 2.81772 10.2743 4.49185 10.9704C4.68038 11.0502 4.9041 10.8831 4.95689 10.7084C5.23339 9.75036 5.66072 8.77734 6.13582 7.89913C6.59583 7.04587 7.27955 6.25997 7.98591 5.59882C8.70986 4.9202 9.47402 4.31394 10.301 3.76256C10.7183 3.48313 11.1381 3.20619 11.6006 3.0041C12.0481 2.8095 12.5206 2.66979 12.9907 2.53257C15.0419 1.92381 17.166 1.88389 19.2599 2.29804C20.2453 2.49265 21.1678 2.92177 22.0501 3.39082C22.4925 3.62534 22.9073 3.90228 23.3346 4.16175C23.762 4.42122 24.1792 4.65574 24.5412 4.98756C24.9535 5.3643 25.3003 5.8034 25.6623 6.22754C26.0268 6.65417 26.4014 7.07581 26.703 7.55234C27.3239 8.53035 27.7462 9.60815 28.0579 10.7159C28.1082 10.893 28.3319 11.0552 28.5229 10.9779C28.8723 10.8332 29.2243 10.7259 29.6038 10.7159C30.089 10.7034 30.089 9.95495 29.6038 9.96742L29.6063 9.96492Z" fill="#333333"/>
<path d="M13.4359 12.0978C13.4359 12.5444 13.1217 12.8837 12.6717 12.8837C12.2218 12.8837 11.8623 12.5444 11.8623 12.0978C11.8623 11.6512 12.2218 11.2246 12.6717 11.2246C13.1217 11.2246 13.4359 11.6512 13.4359 12.0978Z" fill="#333333"/>
<path d="M21.1981 12.0978C21.1981 12.5444 20.8211 12.8887 20.3736 12.8887C19.9262 12.8887 19.5391 12.5444 19.5391 12.0978C19.5391 11.6512 19.9262 11.272 20.3736 11.272C20.8211 11.272 21.1981 11.6512 21.1981 12.0978Z" fill="#333333"/>
<path d="M16.1657 12.8786C16.2335 12.8361 16.3039 12.7987 16.3768 12.7663L16.2863 12.8037C16.3643 12.7738 16.4447 12.7488 16.5276 12.7388L16.4271 12.7513C16.495 12.7438 16.5603 12.7438 16.6257 12.7513L16.5251 12.7388C16.598 12.7488 16.6659 12.7688 16.7338 12.7962L16.6433 12.7588C16.7212 12.7912 16.7916 12.8361 16.8569 12.886L16.7815 12.8287L16.7966 12.8411C16.877 12.906 16.955 12.9509 17.0631 12.9509C17.1561 12.9509 17.2667 12.911 17.3295 12.8411C17.3924 12.7713 17.4451 12.6765 17.4401 12.5767C17.4351 12.4844 17.4074 12.3721 17.3295 12.3122C17.1988 12.2099 17.0781 12.1351 16.9248 12.0752C16.8067 12.0278 16.676 12.0053 16.5503 12.0028C16.2788 11.9954 16.0073 12.0951 15.7811 12.2374C15.6152 12.3421 15.5322 12.5742 15.6453 12.7488C15.7534 12.9135 15.9822 12.9958 16.1606 12.8835L16.1657 12.8786Z" fill="#333333"/>
<path d="M10.9497 15.5635C10.9497 16.2696 10.6983 16.9058 10.2358 17.3698C9.77324 17.8339 9.12973 18.1732 8.42086 18.1732C7.712 18.1732 7.04335 17.8588 6.57831 17.3948C6.11579 16.9332 5.8418 16.2696 5.8418 15.5635C5.8418 14.8574 6.13841 14.2162 6.60094 13.7547C7.06346 13.2931 7.70948 13.0586 8.41835 13.0586C9.12722 13.0586 9.73302 13.328 10.1981 13.7921C10.6631 14.2562 10.9497 14.8574 10.9497 15.561V15.5635Z" fill="#EDBBA6"/>
<path d="M27.1785 15.5631C27.1785 16.2692 26.9145 16.9154 26.452 17.3794C25.987 17.8435 25.3359 18.1578 24.627 18.1578C23.9182 18.1578 23.252 17.8585 22.787 17.3944C22.3245 16.9328 22.0605 16.2717 22.0605 15.5656C22.0605 14.8596 22.3546 14.2283 22.8172 13.7643C23.2822 13.3002 23.9182 12.9385 24.627 12.9385C25.3359 12.9385 25.9618 13.3102 26.4243 13.7743C26.8869 14.2383 27.1759 14.8571 27.1759 15.5631H27.1785Z" fill="#EDBBA6"/>
<path d="M26.673 11.0573C27.3819 11.4864 28.2592 11.6162 28.6111 10.6232C28.6714 10.4535 28.6563 10.2465 28.6538 10.0668C28.6463 9.493 28.591 8.91418 28.4904 8.35282C28.3874 7.78648 28.1436 7.25756 27.9399 6.72614C27.7338 6.18724 27.5026 5.67079 27.1934 5.19176C26.8842 4.71274 26.575 4.21625 26.1552 3.81956C25.7329 3.41788 25.2704 3.04863 24.7852 2.7218C24.3026 2.39746 23.7722 2.13549 23.2468 1.88101C22.7215 1.62653 22.1835 1.38951 21.6305 1.1999C21.075 1.01028 20.4943 0.910486 19.9262 0.78574C19.3506 0.656004 18.7699 0.593632 18.1968 0.523774C17.6086 0.453916 17.0204 0.371584 16.4271 0.374079C15.8339 0.376574 15.2432 0.428967 14.655 0.508804C14.0668 0.591137 13.5012 0.750811 12.9281 0.910486C12.4127 1.05519 11.8723 1.18243 11.3444 1.37454C10.8291 1.56166 10.3012 1.74129 9.81357 1.99079C9.31837 2.24527 8.89355 2.59705 8.46622 2.93386C7.97856 3.31808 7.48336 3.69481 7.06106 4.15637C6.63875 4.61793 6.27426 5.11941 5.90475 5.62089C5.71119 5.88286 5.38944 6.42924 5.06517 7.07293C4.82134 7.55944 4.52221 8.07838 4.35379 8.59733C4.15018 9.22854 4.06974 9.8373 4.1904 10.2589C4.32614 10.733 4.75095 10.975 5.60813 10.8028C6.11339 10.703 6.62116 10.5034 7.13898 10.2614C7.61407 10.0394 8.09419 9.77742 8.55923 9.47304C9.0117 9.18114 9.43651 8.83684 9.86384 8.50501C10.2912 8.17319 10.7361 7.83388 11.1308 7.48709C11.5656 7.10786 11.9779 6.81596 12.3424 6.47665C12.1915 6.82843 12.4354 7.15526 12.7647 7.35486C13.094 7.55445 13.4786 7.55445 13.8657 7.54946C14.5092 7.54198 15.1477 7.51204 15.7736 7.36484C16.3995 7.21764 16.9776 6.94569 17.5583 6.66876C18.1365 6.39182 18.7096 6.14233 19.2148 5.74564C19.1621 6.22965 19.4235 6.61636 19.7628 6.96565C20.1022 7.31494 20.5019 7.5794 20.977 7.6268C21.4521 7.67421 21.9397 7.57441 22.3796 7.36234C22.8195 7.15027 23.1991 6.84589 23.5183 6.48912C23.2845 6.75109 23.7571 7.56942 24.2925 8.3653C24.8053 9.12625 25.3382 9.91464 25.5067 10.0943C25.7555 10.3587 26.1979 10.7729 26.6655 11.0548L26.673 11.0573Z" fill="#333333"/>
<path d="M26.482 11.3818C26.9671 11.6662 27.5754 11.8783 28.131 11.6712C28.8072 11.4192 29.046 10.7256 29.0334 10.0645C29.0158 9.19376 28.9328 8.30307 28.6387 7.47975C28.3497 6.6714 28.038 5.8331 27.583 5.0971C27.1632 4.41849 26.7082 3.78478 26.1024 3.25585C25.4514 2.68701 24.74 2.20549 23.9683 1.8113C23.1966 1.4171 22.3645 1.01791 21.5124 0.76343C20.6602 0.508949 19.7704 0.344284 18.8931 0.229518C18.0158 0.114752 17.0958 -0.0224686 16.1934 0.00248056C15.3136 0.0274297 14.4287 0.132216 13.5741 0.346779C11.8974 0.77341 10.1001 1.20753 8.70753 2.27286C8.04893 2.77683 7.36018 3.27831 6.79962 3.89206C6.26923 4.46838 5.76397 5.11457 5.35424 5.78071C4.9445 6.44685 4.54482 7.20281 4.21804 7.93881C3.89126 8.67482 3.6424 9.49814 3.81333 10.2741C4.22055 12.1103 6.87754 10.8404 7.84532 10.3289C8.74272 9.85491 9.527 9.24116 10.3238 8.62242C11.1207 8.00368 11.8924 7.4049 12.6163 6.73876C12.4052 6.61651 12.1966 6.49675 11.9854 6.3745C11.7592 7.03815 12.3021 7.61697 12.9029 7.81906C13.2297 7.92883 13.5892 7.92634 13.931 7.92135C14.3508 7.91387 14.7706 7.8964 15.1879 7.84401C15.9495 7.7492 16.6483 7.5022 17.3421 7.18535C18.051 6.86101 18.785 6.54416 19.4059 6.07012C19.2174 5.96284 19.0288 5.85556 18.8378 5.74578C18.7724 6.74874 19.7729 7.76916 20.7256 7.96376C21.8844 8.20078 23.0206 7.58204 23.7823 6.75373L23.189 6.29965C22.9301 6.65643 23.1614 7.1604 23.3273 7.49971C23.6113 8.07853 23.9984 8.60995 24.3604 9.14386C24.6269 9.53806 24.8858 9.95221 25.1975 10.314C25.5544 10.7281 26.0069 11.0874 26.4694 11.3768C26.8817 11.6338 27.2612 10.9876 26.849 10.7306C26.1049 10.2666 25.6223 9.6628 25.1371 8.95175C24.828 8.50017 24.5112 8.05109 24.2297 7.58204C24.109 7.38245 23.9884 7.17786 23.9029 6.9633C23.8753 6.89095 23.8602 6.8161 23.8325 6.74375C23.825 6.7163 23.8225 6.68886 23.825 6.66142C23.7998 6.72379 23.8024 6.72878 23.835 6.67639C24.0839 6.32959 23.5284 5.91045 23.2418 6.22231C22.6812 6.83357 21.8945 7.34502 21.0247 7.25271C20.341 7.18036 19.5391 6.45683 19.5844 5.74329C19.602 5.48132 19.2425 5.24929 19.0163 5.41895C18.5387 5.78321 18.0032 6.03769 17.4628 6.29466C16.9148 6.55413 16.3668 6.8186 15.7761 6.97328C15.3814 7.07557 12.37 7.53464 12.6993 6.5716C12.825 6.19986 12.3298 5.96783 12.0684 6.20734C11.5179 6.7163 10.9146 7.18784 10.3289 7.65689C9.74318 8.12593 9.10721 8.64737 8.45616 9.08149C7.8051 9.5156 7.10127 9.89733 6.36726 10.1768C5.95753 10.3339 5.09784 10.7007 4.68308 10.3763C4.51717 10.2466 4.49957 9.99962 4.49957 9.80751C4.49957 9.42828 4.58755 9.04905 4.7057 8.68979C4.93696 7.98372 5.33664 7.30261 5.6961 6.65144C6.37229 5.42893 7.27471 4.33615 8.3732 3.46293C8.95387 3.00137 9.52197 2.51985 10.1982 2.20549C10.9146 1.87117 11.6888 1.62418 12.453 1.4171C13.2096 1.21252 13.9612 0.973004 14.7404 0.863227C15.5272 0.753451 16.3291 0.706047 17.1209 0.770915C18.6568 0.898156 20.2807 1.10024 21.7311 1.63166C23.1689 2.15559 24.5766 2.89659 25.7078 3.92699C26.2985 4.46589 26.7635 5.16197 27.133 5.86554C27.3392 6.25974 27.4975 6.67389 27.6609 7.08555C27.8218 7.49472 27.9902 7.90389 28.0832 8.33301C28.1737 8.74717 28.2164 9.17629 28.2416 9.60043C28.2617 9.94722 28.3296 10.3639 28.1536 10.6807C27.862 11.2022 27.2537 10.9726 26.844 10.7306C26.4242 10.4836 26.0446 11.1323 26.4644 11.3768L26.482 11.3818Z" fill="#333333"/>
<path d="M15.3209 16.7111C16.1228 17.0753 17.0428 17.0953 17.8522 16.741C18.2242 16.5788 18.7069 16.2969 19.0261 15.8927C19.3453 15.4885 19.5515 14.9646 19.4409 14.518C19.2674 13.8145 18.4178 13.9567 17.8748 13.9691C17.0654 13.9891 16.2535 13.9816 15.4416 13.9816C14.705 13.9816 13.697 13.6573 13.7448 14.7675C13.785 15.6782 14.5014 16.3368 15.3209 16.7111Z" fill="#FCFCFC"/>
<path d="M15.13 17.0327C16.3366 17.5591 17.689 17.4343 18.7573 16.6509C19.2676 16.2767 19.6899 15.7353 19.8106 15.1066C19.9061 14.6076 19.7905 14.0338 19.3179 13.7618C18.9257 13.5348 18.4506 13.5697 18.0133 13.5897C17.3044 13.6196 16.5905 13.6096 15.8816 13.6071C15.4267 13.6071 14.9641 13.5473 14.5091 13.5647C14.0868 13.5797 13.6796 13.7194 13.481 14.1186C13.2196 14.6525 13.3981 15.371 13.6997 15.8501C14.0341 16.384 14.5619 16.7707 15.1275 17.0351C15.5649 17.2397 15.947 16.5935 15.5071 16.389C14.8234 16.0696 14.0114 15.4484 14.1195 14.5926C14.1497 14.3406 14.303 14.3157 14.5343 14.3107C14.8359 14.3032 15.1351 14.3506 15.4367 14.3531C16.4397 14.3656 17.4426 14.3132 18.4456 14.3207C18.7096 14.3207 19.0187 14.3381 19.0791 14.645C19.1595 15.0716 18.8654 15.5432 18.5738 15.8301C17.7795 16.611 16.5302 16.8331 15.5096 16.389C15.0697 16.1969 14.6851 16.8405 15.13 17.0351V17.0327Z" fill="#333333"/>
<path d="M12.6717 9.51298C12.7924 9.58533 12.9055 9.66766 13.0186 9.75249L12.9432 9.69511C13.2172 9.90718 13.4786 10.1367 13.7652 10.3313C13.8431 10.3837 13.9688 10.3937 14.0568 10.3687C14.1447 10.3438 14.2403 10.2789 14.283 10.1966C14.3835 10.007 14.3207 9.80239 14.1473 9.68513C14.0744 9.63523 14.0015 9.58284 13.9311 9.52795L14.0065 9.58533C13.6923 9.34332 13.3957 9.07387 13.0563 8.8668C12.8879 8.7645 12.634 8.82438 12.541 9.00152C12.448 9.17866 12.4957 9.4032 12.6767 9.51298H12.6717Z" fill="#333333"/>
<path d="M9.50197 27.7982C9.46677 28.0253 9.37628 28.2423 9.31344 28.4644C9.20032 28.876 9.05453 29.2902 8.75539 29.5971C8.29287 30.0686 7.6569 30.2857 6.99077 30.2732C6.33218 30.2632 5.63588 30.0836 5.08789 29.899C4.66307 29.7567 4.25837 29.4623 4.13771 29.0332C4.09497 28.8785 4.07486 28.7263 4.08241 28.5667C4.11006 27.933 4.05978 27.3092 4.06481 26.688C4.06984 26.0618 4.1176 25.4405 4.08241 24.8118C4.04973 24.218 4.03464 22.8084 4.83401 22.6687C5.15073 22.6138 5.51019 22.8309 5.6585 23.1153C5.80681 23.3972 5.79173 23.749 5.80933 24.0683C5.83949 24.5723 5.89982 25.0863 5.92998 25.5902C5.86211 25.2085 6.19644 24.7494 6.58606 24.7869C6.93044 24.8218 7.09886 25.196 7.18181 25.468C7.33766 25.3108 7.55384 25.2659 7.78007 25.2908C8.07921 25.3258 8.37834 25.5703 8.26019 25.8447C8.52162 25.7624 8.75288 25.7474 9.01179 25.8447C9.43912 26.0044 9.50448 26.5134 9.49694 26.9674C9.49191 27.2444 9.54219 27.5238 9.49945 27.7982H9.50197Z" fill="#FFE6D9"/>
<path d="M9.13736 27.7012C9.04184 28.1927 8.89101 28.8164 8.58434 29.2231C8.2827 29.6198 7.77744 29.8418 7.28727 29.8917C6.74933 29.9466 6.19129 29.8319 5.67598 29.6897C5.24865 29.5724 4.68809 29.4352 4.51464 28.9736C4.41409 28.7017 4.46939 28.3798 4.46939 28.0979C4.46939 27.786 4.45431 27.4717 4.44677 27.1598C4.4342 26.5535 4.47191 25.9498 4.47191 25.346C4.47191 24.6998 4.29595 23.8241 4.65792 23.2378C4.92689 22.8037 5.35422 23.2054 5.4045 23.5821C5.44723 23.8965 5.43969 24.2233 5.46734 24.5376C5.4975 24.8894 5.53018 25.2412 5.5528 25.593H6.30692C6.29184 25.4558 6.34211 25.1464 6.54823 25.1639C6.70157 25.1763 6.78201 25.4558 6.81971 25.5705C6.91021 25.85 7.23196 25.9223 7.45066 25.7352C7.51099 25.6853 7.9358 25.6179 7.8981 25.7477C7.82017 26.0221 8.08663 26.2841 8.36313 26.2092C8.75276 26.0995 9.03681 26.1768 9.10216 26.5935C9.16249 26.9727 9.16501 27.4243 9.12479 27.801C9.072 28.28 9.82611 28.275 9.8789 27.801C9.91409 27.4717 9.88644 27.1299 9.87387 26.798C9.86382 26.5261 9.82611 26.2442 9.69791 25.9997C9.40381 25.4283 8.73516 25.326 8.16204 25.4857L8.62707 25.9473C8.74773 25.5256 8.50139 25.1564 8.10673 24.9967C7.71208 24.837 7.25207 24.9219 6.92026 25.2063L7.55121 25.371C7.39284 24.877 7.056 24.3655 6.46528 24.4204C5.90472 24.4728 5.50253 25.0541 5.56035 25.5905C5.61062 26.0595 6.34462 26.0795 6.31446 25.5905C6.28932 25.1988 6.2491 24.8096 6.21894 24.4179C6.19129 24.0736 6.19883 23.7218 6.14101 23.3825C6.03795 22.7688 5.50002 22.2298 4.83891 22.2972C3.79572 22.402 3.6826 23.7493 3.7002 24.5501C3.71277 25.2063 3.70774 25.8575 3.69517 26.5161C3.68763 26.8879 3.7002 27.2571 3.71025 27.6264C3.72031 28.0156 3.6826 28.4172 3.72031 28.804C3.78315 29.4676 4.22054 29.9441 4.82383 30.1961C5.46231 30.4606 6.1938 30.6178 6.88507 30.6452C7.57634 30.6727 8.32794 30.4681 8.88096 29.9965C9.46917 29.4926 9.72556 28.6318 9.86885 27.8983C9.95934 27.4268 9.23288 27.2272 9.14238 27.6987L9.13736 27.7012Z" fill="#333333"/>
<path d="M14.3005 34.2803C15.12 34.2229 15.12 34.2354 15.9394 34.178C16.7589 34.1206 16.7514 34.0134 17.5683 33.956C18.3878 33.8986 18.3928 33.9784 19.2123 33.9211C20.0318 33.8637 20.0267 33.7888 20.8462 33.7314C21.6657 33.6741 21.6707 33.724 22.4902 33.6666C22.8345 33.6416 23.1085 33.3547 23.0859 33.0129C23.0281 32.1896 22.9678 32.1921 22.91 31.3688C22.8521 30.5454 22.8471 30.5454 22.7893 29.7221C22.7315 28.8988 22.7968 28.8938 22.739 28.0705C22.6812 27.2471 22.6108 27.2521 22.5505 26.4263C22.4927 25.6005 22.5555 25.598 22.4952 24.7722C22.4374 23.9464 22.465 23.9464 22.4072 23.1206C22.3821 22.7788 22.0452 22.5592 21.7009 22.5817C20.8814 22.639 20.8764 22.5542 20.0569 22.6116C19.2374 22.669 19.2399 22.6889 18.4205 22.7463C17.601 22.8037 17.606 22.8785 16.7866 22.9359C15.9671 22.9933 15.9646 22.9634 15.1451 23.0208C14.3256 23.0781 14.3231 23.0582 13.5037 23.1156C13.1593 23.1405 12.9707 23.4399 12.9959 23.7817C13.0537 24.605 13.0059 24.61 13.0638 25.4333C13.1216 26.2567 13.114 26.2592 13.1718 27.0825C13.2297 27.9058 13.2573 27.9033 13.3176 28.7266C13.378 29.55 13.3453 29.5525 13.4031 30.3783C13.4609 31.2041 13.476 31.2016 13.5338 32.0274C13.5916 32.8532 13.5439 32.8557 13.6017 33.6815C13.6268 34.0233 13.9536 34.3103 14.298 34.2853L14.3005 34.2803Z" fill="#FCFCFC"/>
<path d="M14.3007 34.6544C15.0146 34.6045 15.7385 34.5995 16.4449 34.4997C17.1009 34.4074 17.7244 34.3001 18.393 34.3126C19.0616 34.3276 19.7052 34.2378 20.3637 34.1504C21.0726 34.0556 21.784 34.1105 22.4929 34.0382C22.8498 34.0032 23.1665 33.8336 23.3475 33.5142C23.5411 33.1699 23.4531 32.7483 23.4028 32.3765C23.3199 31.7229 23.2671 31.0717 23.2193 30.4155C23.1691 29.7369 23.1665 29.0633 23.1364 28.3847C23.1062 27.6487 22.9554 26.9301 22.9152 26.1966C22.8775 25.5105 22.8674 24.8194 22.8372 24.1333C22.8096 23.4847 22.9252 22.6389 22.2239 22.3071C21.882 22.1449 21.505 22.2247 21.1405 22.2247C20.8162 22.2247 20.497 22.2073 20.1752 22.2247C19.4588 22.2646 18.7298 22.322 18.0159 22.4019C17.3498 22.4767 16.7013 22.5715 16.0276 22.594C15.3715 22.6164 14.718 22.6638 14.0644 22.6988C13.7175 22.7162 13.3228 22.6913 13.0212 22.8934C12.6818 23.1229 12.6039 23.5121 12.624 23.8938C12.6617 24.5924 12.6768 25.291 12.7221 25.9921C12.7673 26.7156 12.8226 27.4366 12.8905 28.1601C12.9684 28.971 12.9785 29.7868 13.0388 30.5977C13.0941 31.3486 13.177 32.0946 13.1871 32.8481C13.1921 33.2273 13.1519 33.6789 13.3078 34.0282C13.4812 34.4174 13.8683 34.6519 14.2931 34.6544C14.7783 34.6544 14.7783 33.9084 14.2931 33.9059C13.9035 33.9059 13.9563 33.4618 13.9462 33.1849C13.9362 32.9055 13.9387 32.6235 13.9261 32.3441C13.8935 31.6855 13.8206 31.0318 13.7753 30.3731C13.7326 29.7494 13.7225 29.1232 13.6722 28.4994C13.622 27.8607 13.5516 27.227 13.5114 26.5883C13.4712 25.9796 13.4158 25.3708 13.4058 24.7621C13.4008 24.5076 13.3983 24.2556 13.3832 24.0011C13.3756 23.8764 13.3153 23.6369 13.4209 23.5321C13.5265 23.4273 13.7778 23.4647 13.906 23.4572C15.1227 23.3874 16.3695 23.3998 17.576 23.2152C18.7625 23.0356 19.9741 22.9732 21.1732 22.9707C21.3944 22.9707 21.8644 22.841 22.0052 23.0705C22.0831 23.1977 22.0479 23.4572 22.0555 23.6044C22.063 23.7366 22.0655 23.8689 22.0706 24.0036C22.0932 24.6223 22.1309 25.2361 22.1409 25.8573C22.151 26.4786 22.2515 27.0549 22.3194 27.6587C22.3923 28.3073 22.3596 28.9535 22.3973 29.6022C22.4376 30.2658 22.4853 30.9295 22.5431 31.5906C22.5658 31.8451 22.601 32.0971 22.6361 32.3491C22.6663 32.5786 22.8247 33.0701 22.606 33.2348C22.3973 33.3945 21.8619 33.3171 21.6005 33.3221C21.226 33.3271 20.8514 33.3446 20.4769 33.387C19.7956 33.4618 19.1345 33.5791 18.4433 33.5666C17.752 33.5541 17.1185 33.624 16.4549 33.7438C15.7486 33.871 15.0045 33.856 14.2881 33.9059C13.8055 33.9384 13.803 34.6868 14.2881 34.6544H14.3007Z" fill="#333333"/>
<path d="M22.4802 34.7718C22.807 35.1885 23.164 35.5727 23.5938 35.8871C24.0211 36.1989 24.5264 36.3811 25.0166 36.5657C25.2026 36.6355 25.4389 36.4883 25.4816 36.3037C25.5294 36.0916 25.4162 35.917 25.2177 35.8422C24.7727 35.675 24.3756 35.5303 23.9734 35.2384C23.9683 35.2334 23.9231 35.201 23.9507 35.2234C23.9281 35.206 23.908 35.1885 23.8879 35.171C23.8401 35.1311 23.7924 35.0912 23.7471 35.0488C23.6592 34.9714 23.5762 34.8891 23.4958 34.8043C23.3248 34.6246 23.1665 34.435 23.0131 34.2404C22.8925 34.0857 22.6059 34.1032 22.4802 34.2404C22.3269 34.4051 22.3495 34.6047 22.4802 34.7693V34.7718Z" fill="#333333"/>
<path d="M8.2552 31.4485C8.30045 32.0921 8.4563 32.7209 8.49652 33.3646C8.53674 34.0082 8.49903 34.6519 8.53674 35.2931C8.56439 35.7721 9.3185 35.7746 9.29085 35.2931C9.25315 34.6494 9.29085 34.0057 9.25063 33.3646C9.2079 32.7209 9.05456 32.0897 9.00932 31.4485C8.99423 31.2464 8.84593 31.0742 8.63226 31.0742C8.4387 31.0742 8.24012 31.2464 8.2552 31.4485Z" fill="#333333"/>
<path d="M15.3335 26.2241L20.99 30.7847" stroke="#007335" stroke-width="2"/>
<path d="M20.459 25.6973L15.8641 31.3115" stroke="#007335" stroke-width="2"/>
<path d="M24.1944 34.1829C24.6066 33.7787 24.8982 33.1325 25.1018 32.4514C25.3281 31.6954 25.5216 30.9445 25.5392 30.5054C25.5543 30.1311 25.5618 29.7444 25.3683 29.4226C25.1546 29.0658 24.677 28.9835 24.5363 28.5394C24.4659 28.3173 24.5111 28.0479 24.3452 27.8832C24.1315 27.6711 23.7671 27.7335 23.5534 27.9456C23.3397 28.1577 23.3121 28.4645 23.3121 28.7639C23.3121 28.8188 23.2668 28.8862 23.2266 28.9286C23.1738 28.986 23.0607 29.0034 22.9853 28.981C22.4247 28.8238 21.9949 28.4121 21.3916 28.3647C21.0221 28.3348 20.6174 28.4371 20.4565 28.7714C20.2956 29.1057 20.5746 29.6297 20.9442 29.6297C20.6526 29.5373 20.3032 29.6845 20.2051 29.9715C20.1071 30.2584 20.1825 30.6002 20.4691 30.705C20.2152 30.7574 19.9915 30.9719 19.9663 31.2264C19.9412 31.4809 20.1247 31.7054 20.3635 31.8027C20.0015 31.8027 19.7577 32.2718 19.813 32.6236C19.8708 32.9778 20.1549 33.2747 20.4314 33.5043C20.8336 33.8361 21.3288 34.0232 21.8164 34.2128C22.3041 34.4024 22.7993 34.5222 23.3196 34.5521C23.6715 34.5721 23.933 34.4399 24.1919 34.1854L24.1944 34.1829Z" fill="#FFE6D9"/>
<path d="M24.461 34.4475C25.2603 33.6292 25.5645 32.3842 25.7983 31.3014C25.9038 30.8099 25.9692 30.2935 25.8887 29.7945C25.8008 29.2456 25.4941 29.0036 25.0944 28.6718C24.7174 28.3599 24.9285 27.796 24.476 27.5066C24.0688 27.2472 23.5183 27.3993 23.2242 27.7536C23.0558 27.9557 22.9804 28.2052 22.9527 28.4647C22.9527 28.4846 22.9527 28.6368 22.9377 28.6618C23.0005 28.5595 23.0206 28.6393 22.9075 28.557C22.8019 28.4796 22.6435 28.4322 22.5254 28.3724C22.0604 28.1329 21.5878 27.9308 21.0524 28.0006C20.5446 28.068 20.0444 28.4173 20.0393 28.9711C20.0343 29.525 20.4214 29.9541 20.9493 30.0015C21.3741 30.039 21.4571 29.3653 21.0499 29.2655C20.5723 29.1508 20.0494 29.3479 19.8659 29.8244C19.695 30.266 19.8357 30.8124 20.2832 31.027L20.3737 30.3434C19.4914 30.5928 19.3204 31.7131 20.1776 32.1272L20.3686 31.4286C19.798 31.481 19.4185 31.9925 19.4335 32.5514C19.4536 33.2275 20.0871 33.7764 20.6301 34.0907C21.2283 34.435 21.9422 34.707 22.6184 34.8367C23.3273 34.9739 23.9155 34.9614 24.461 34.45C24.8154 34.1182 24.28 33.5892 23.9281 33.9211C23.5812 34.2454 23.2091 34.1955 22.7642 34.1057C22.3193 34.0159 21.8945 33.8562 21.4772 33.6766C21.0825 33.5069 20.6904 33.2923 20.4038 32.9655C20.2882 32.8333 20.1675 32.6661 20.1826 32.479C20.1902 32.3942 20.2555 32.1871 20.3611 32.1771C20.6979 32.1472 20.9191 31.6582 20.5521 31.4785C20.3108 31.3613 20.2781 31.1442 20.5672 31.0619C20.8563 30.9796 20.9594 30.523 20.6577 30.3783C20.4038 30.2585 20.5823 29.9242 20.8437 29.9866C20.8764 29.7421 20.9116 29.4976 20.9443 29.2506C20.8312 29.2406 20.7658 29.0185 20.796 28.9312C20.8563 28.7491 21.1504 28.7266 21.3063 28.7316C21.7839 28.7466 22.1886 29.0684 22.6159 29.2431C23.1664 29.4676 23.6415 29.288 23.6893 28.6618C23.7018 28.5071 23.732 28.0954 23.9884 28.1254C24.1694 28.1453 24.1241 28.4547 24.1618 28.5969C24.285 29.056 24.6495 29.2057 24.9562 29.5125C25.2729 29.8294 25.1899 30.4581 25.117 30.8598C25.014 31.4336 24.8556 32.005 24.6721 32.5563C24.5087 33.0478 24.2925 33.5443 23.9255 33.9186C23.5887 34.2654 24.1191 34.7943 24.4584 34.4475H24.461Z" fill="#333333"/>
</g>
<defs>
<clipPath id="clip0_4_13714">
<rect width="33" height="54" fill="white"/>
</clipPath>
</defs>
</svg>
