<svg width="320" height="540" viewBox="0 0 320 540" fill="none" xmlns="http://www.w3.org/2000/svg">
<path d="M265.886 341.144L263.928 337.345C263.881 337.253 263.922 337.176 263.998 337.218L280.374 346.296C280.483 346.356 280.566 346.515 280.544 346.625L280.428 347.231C280.417 347.288 280.392 347.334 280.356 347.364L270.963 355.191C270.917 355.23 270.957 355.348 271.03 355.388L277.328 358.88C277.434 358.938 277.534 358.94 277.602 358.885L278.509 358.148C278.545 358.119 278.611 358.156 278.646 358.224L280.588 361.991C280.635 362.083 280.594 362.158 280.519 362.117L264.135 353.035C264.026 352.974 263.944 352.815 263.965 352.706L264.08 352.119C264.092 352.063 264.116 352.018 264.151 351.988L273.596 344.168C273.642 344.129 273.602 344.011 273.528 343.97L267.273 340.503C267.166 340.444 267.066 340.441 266.998 340.496L266.025 341.221C265.989 341.25 265.922 341.213 265.887 341.144L265.886 341.144ZM236.871 332.718L231.924 330.346V324.056L235.758 326.181V323.663L229.327 320.099V331.549L236.871 335.203V332.719V332.718ZM234.336 329.311L237.118 330.853V336.31L239.715 337.75V325.507L237.118 324.067V328.335L234.336 326.793V329.311ZM240.457 337.951L251.216 343.915V341.466L240.457 335.502V337.951ZM240.766 333.297C243.211 334.586 244.864 334.317 245.831 333.364C246.797 335.389 248.45 337.49 250.906 338.918V336.576C248.454 335.006 247.135 332.299 247.135 330.822V329.689L244.538 328.25V329.383C244.538 330.858 243.218 332.103 240.766 330.955V333.297ZM251.587 339.153L253.997 340.49L253.8 341.261C252.905 340.935 252.207 341.444 252.207 342.548C252.207 343.757 253.044 345.207 254.078 345.781L260.437 349.305C261.475 349.881 262.315 349.356 262.315 348.143C262.315 346.929 261.475 345.473 260.437 344.898L256.167 342.531L256.349 341.792L259.253 343.402V341.373L251.586 337.123V339.152L251.587 339.153ZM251.845 334.629C251.845 335.85 252.716 337.331 253.783 337.922L256.789 339.588C257.856 340.18 258.738 339.671 258.738 338.45C258.738 337.228 257.856 335.703 256.789 335.111L253.783 333.445C252.715 332.853 251.845 333.368 251.845 334.629ZM254.033 335.794C254.033 335.53 254.185 335.417 254.371 335.52L256.258 336.566C256.444 336.669 256.596 336.951 256.596 337.214C256.596 337.477 256.444 337.578 256.258 337.475L254.371 336.429C254.185 336.326 254.033 336.057 254.033 335.794ZM254.581 343.786C254.581 343.59 254.697 343.536 254.837 343.613L259.659 346.286C259.81 346.37 259.915 346.546 259.915 346.743C259.915 346.939 259.81 347 259.659 346.916L254.837 344.243C254.697 344.166 254.581 343.983 254.581 343.786ZM259.563 344.134L262.222 345.608V337.983L259.563 336.509V344.134ZM282.193 351.642L283.739 352.498V353.197C283.739 356.424 283.377 357.858 282.07 358.121V360.817C283.282 360.909 284.179 360.51 284.785 359.475C285.391 361.182 286.3 362.582 287.511 363.833V361.137C286.203 359.424 285.841 357.59 285.841 354.362V353.664L287.387 354.521V352.282L282.193 349.403V351.642ZM286.46 358.204L288.067 359.095V364.552L290.108 365.683V353.44L288.067 352.309V356.856L286.46 355.965V358.204ZM290.603 365.957L292.705 367.122V354.88L290.603 353.714V365.957ZM293.447 367.324L304.206 373.287V370.979L293.447 365.015V367.324ZM293.88 357.84L303.896 363.392V361.293L293.88 355.741V357.84ZM303.896 366.75L296.477 362.637V361.867L303.896 365.98V363.952L293.88 358.399V363.436L303.896 368.989V366.75Z" fill="#FD780F"/>
</svg>
