<svg width="320" height="540" viewBox="0 0 320 540" fill="none" xmlns="http://www.w3.org/2000/svg">
<g clip-path="url(#clip0_40_1218)">
<rect width="156.869" height="110.934" transform="matrix(0.866025 -0.5 0 1 76 366.448)" fill="#ACF3CE"/>
<rect width="156.869" height="156.844" transform="matrix(0.866025 -0.5 0.866025 0.5 76.0859 477.369)" fill="#AAD89C"/>
<rect width="156.869" height="87.8598" transform="matrix(0.866025 -0.5 0.866025 0.5 76.0859 477.369)" fill="#91C980"/>
<rect x="1.29904" width="79.7632" height="30.2251" transform="matrix(0.866025 -0.5 0.866025 0.5 139.855 488.391)" fill="#42AD68" stroke="#333333" stroke-width="1.5"/>
<rect width="156.869" height="110.934" transform="matrix(0.866025 0.5 0 1 211.853 288)" fill="#DBF5E7"/>
<path d="M245.4 369.622L245.354 385.157L234.741 379.033L234.784 363.495L245.4 369.622Z" fill="#E6E6E6" stroke="#333333" stroke-width="1.5" stroke-linecap="round" stroke-linejoin="round"/>
<path d="M243.507 380.693L236.631 376.724" stroke="#333333" stroke-width="1.5" stroke-linecap="round" stroke-linejoin="round"/>
<path d="M243.507 378.501L236.631 374.532" stroke="#333333" stroke-width="1.5" stroke-linecap="round" stroke-linejoin="round"/>
<path d="M243.507 376.309L236.631 372.343" stroke="#333333" stroke-width="1.5" stroke-linecap="round" stroke-linejoin="round"/>
<path d="M243.507 374.12L236.631 370.151" stroke="#333333" stroke-width="1.5" stroke-linecap="round" stroke-linejoin="round"/>
<path d="M243.507 371.928L236.631 367.959" stroke="#333333" stroke-width="1.5" stroke-linecap="round" stroke-linejoin="round"/>
<path d="M261.459 378.481L261.413 394.016L250.8 387.892L250.843 372.354L261.459 378.481Z" fill="#E6E6E6" stroke="#333333" stroke-width="1.5" stroke-linecap="round" stroke-linejoin="round"/>
<path d="M259.566 389.553L252.689 385.583" stroke="#333333" stroke-width="1.5" stroke-linecap="round" stroke-linejoin="round"/>
<path d="M259.566 387.36L252.689 383.391" stroke="#333333" stroke-width="1.5" stroke-linecap="round" stroke-linejoin="round"/>
<path d="M259.566 385.169L252.689 381.202" stroke="#333333" stroke-width="1.5" stroke-linecap="round" stroke-linejoin="round"/>
<path d="M259.566 382.979L252.689 379.01" stroke="#333333" stroke-width="1.5" stroke-linecap="round" stroke-linejoin="round"/>
<path d="M259.566 380.787L252.689 376.818" stroke="#333333" stroke-width="1.5" stroke-linecap="round" stroke-linejoin="round"/>
<path d="M274.168 358.511L272.422 355.06C272.38 354.976 272.417 354.908 272.484 354.947L287.086 363.377C287.183 363.433 287.257 363.577 287.238 363.676L287.134 364.22C287.124 364.272 287.102 364.312 287.07 364.339L278.694 371.24C278.653 371.274 278.689 371.381 278.755 371.419L284.37 374.661C284.465 374.716 284.554 374.719 284.614 374.67L285.423 374.021C285.455 373.995 285.514 374.03 285.545 374.092L287.276 377.514C287.318 377.597 287.282 377.664 287.215 377.626L272.607 369.192C272.509 369.135 272.436 368.991 272.455 368.893L272.558 368.367C272.568 368.316 272.59 368.275 272.621 368.249L281.042 361.355C281.083 361.321 281.047 361.214 280.982 361.176L275.404 357.956C275.309 357.901 275.219 357.897 275.159 357.945L274.292 358.583C274.259 358.609 274.2 358.574 274.169 358.512L274.168 358.511ZM248.296 350.471L243.886 348.257V342.593L247.304 344.566V342.299L241.57 338.989V349.299L248.296 352.708V350.471V350.471ZM246.036 347.363L248.517 348.795V353.709L250.832 355.045V344.021L248.517 342.684V346.527L246.036 345.095V347.363ZM251.494 355.238L261.087 360.777V358.572L251.494 353.034V355.238ZM251.77 351.052C253.95 352.252 255.424 352.035 256.286 351.192C257.147 353.031 258.621 354.949 260.811 356.272V354.164C258.625 352.712 257.448 350.253 257.448 348.924V347.903L255.133 346.566V347.587C255.133 348.915 253.956 350.016 251.77 348.944V351.052ZM261.418 356.495L263.567 357.736L263.391 358.428C262.593 358.121 261.971 358.567 261.971 359.561C261.971 360.651 262.717 361.97 263.64 362.502L269.309 365.775C270.235 366.31 270.984 365.851 270.984 364.758C270.984 363.665 270.235 362.341 269.309 361.807L265.501 359.608L265.664 358.946L268.254 360.441V358.614L261.417 354.667V356.494L261.418 356.495ZM261.648 352.425C261.648 353.524 262.424 354.872 263.376 355.421L266.056 356.968C267.008 357.518 267.794 357.074 267.794 355.974C267.794 354.874 267.008 353.486 266.056 352.937L263.376 351.389C262.424 350.84 261.648 351.29 261.648 352.425ZM263.599 353.508C263.599 353.271 263.734 353.171 263.9 353.267L265.583 354.238C265.749 354.334 265.884 354.59 265.884 354.827C265.884 355.064 265.749 355.153 265.583 355.057L263.9 354.086C263.734 353.99 263.599 353.746 263.599 353.508ZM264.088 360.714C264.088 360.537 264.191 360.49 264.315 360.562L268.616 363.045C268.75 363.123 268.843 363.283 268.843 363.46C268.843 363.637 268.75 363.689 268.616 363.612L264.315 361.129C264.191 361.057 264.088 360.891 264.088 360.714ZM268.53 361.105L270.9 362.474V355.607L268.53 354.239V361.105ZM288.708 368.22L290.086 369.015V369.644C290.086 372.551 289.764 373.836 288.598 374.052V376.48C289.678 376.582 290.478 376.236 291.019 375.314C291.559 376.861 292.369 378.135 293.449 379.281V376.853C292.283 375.29 291.961 373.633 291.961 370.726V370.098L293.339 370.893V368.877L288.708 366.204V368.22ZM292.512 374.196L293.946 375.023V379.937L295.765 380.987V369.963L293.946 368.913V373.007L292.512 372.18V374.196ZM296.206 381.242L298.08 382.324V371.3L296.206 370.218V381.242ZM298.742 382.517L308.335 388.056V385.977L298.742 380.438V382.517ZM299.128 373.983L308.059 379.14V377.25L299.128 372.094V373.983ZM308.059 382.164L301.443 378.344V377.651L308.059 381.471V379.644L299.128 374.487V379.023L308.059 384.18V382.164Z" fill="#FD780F"/>
<path d="M182.98 443.044C183.678 443.044 184.244 442.481 184.244 441.786C184.244 441.091 183.678 440.528 182.98 440.528C182.283 440.528 181.717 441.091 181.717 441.786C181.717 442.481 182.283 443.044 182.98 443.044Z" fill="white" stroke="#333333" stroke-width="1.5" stroke-linecap="round" stroke-linejoin="round"/>
<path d="M111.411 472.146C112.109 472.146 112.675 471.582 112.675 470.888C112.675 470.193 112.109 469.629 111.411 469.629C110.713 469.629 110.147 470.193 110.147 470.888C110.147 471.582 110.713 472.146 111.411 472.146Z" fill="white" stroke="#333333" stroke-width="1.5" stroke-linecap="round" stroke-linejoin="round"/>
<path d="M197.609 425.077C198.307 425.077 198.873 424.514 198.873 423.819C198.873 423.124 198.307 422.56 197.609 422.56C196.911 422.56 196.346 423.124 196.346 423.819C196.346 424.514 196.911 425.077 197.609 425.077Z" fill="white" stroke="#333333" stroke-width="1.5" stroke-linecap="round" stroke-linejoin="round"/>
<path d="M79.5068 387.371L81.968 388.82V477.001L79.5068 475.555V387.371Z" fill="white" stroke="#333333" stroke-width="1.5" stroke-miterlimit="10" stroke-linejoin="round"/>
<path d="M81.968 388.82L210.422 313.26L207.968 311.811L79.5068 387.37L81.968 388.82Z" fill="white" stroke="#333333" stroke-width="1.5" stroke-miterlimit="10" stroke-linejoin="round"/>
<path d="M81.9678 388.82V477.001V477.121L210.531 401.499L210.422 313.26L81.9678 388.82Z" fill="white" stroke="#333333" stroke-width="1.5" stroke-miterlimit="10" stroke-linejoin="round"/>
<path d="M81.9678 388.82V423.574C90.3129 415.537 101.386 410.366 112.492 406.594C126.06 401.984 140.245 399.016 153.212 392.927C164.593 387.582 174.759 379.957 186.019 374.36C193.629 370.58 202.087 367.754 210.491 367.437L210.425 313.264L81.9714 388.82H81.9678Z" fill="#B3E2FF" stroke="#333333" stroke-width="1.5" stroke-miterlimit="10" stroke-linejoin="round"/>
<mask id="mask0_40_1218" style="mask-type:luminance" maskUnits="userSpaceOnUse" x="81" y="313" width="130" height="111">
<path d="M209.677 314.575L82.7178 389.252V421.851C91.0121 414.375 101.653 409.484 112.251 405.884M209.677 314.575L112.492 406.595M209.677 314.575L209.74 366.722C201.435 367.173 193.136 369.988 185.685 373.689L185.685 373.689C180.345 376.343 175.252 379.45 170.193 382.536C169.885 382.723 169.578 382.911 169.27 383.098C163.897 386.374 158.542 389.596 152.894 392.249M209.677 314.575L153.212 392.928M112.251 405.884L112.492 406.595M112.251 405.884C112.251 405.884 112.251 405.884 112.251 405.884L112.492 406.595M112.251 405.884C116.933 404.294 121.698 402.895 126.444 401.501C128.59 400.872 130.732 400.243 132.86 399.598C139.713 397.522 146.46 395.27 152.894 392.249M112.492 406.595C117.159 405.009 121.899 403.617 126.637 402.226C135.674 399.574 144.705 396.922 153.212 392.928M152.894 392.249C152.894 392.249 152.894 392.249 152.893 392.249L153.212 392.928M152.894 392.249L153.212 392.928M81.9678 423.575C82.2154 423.336 82.4654 423.1 82.7178 422.867L81.9678 422.54L81.9678 423.575Z" fill="white" stroke="white" stroke-width="1.5" stroke-linejoin="round"/>
</mask>
<g mask="url(#mask0_40_1218)">
<path d="M100.491 411.87C100.557 411.244 100.205 410.596 99.6459 410.301C99.0864 410.006 98.5342 410.09 98.0515 410.497C98.1685 409.948 97.8138 409.336 97.2726 409.165C96.7314 408.994 96.1463 408.975 95.9268 409.492C95.4843 408.899 94.6798 408.6 93.9557 408.761C93.2317 408.921 92.6283 409.387 92.4783 410.108C92.2662 409.696 91.7762 409.449 91.3154 409.518C90.8547 409.587 90.5365 409.886 90.456 410.341C89.5638 409.624 88.1741 409.609 87.2635 410.304C86.353 411 85.9653 412.031 86.4371 413.072C86.1811 412.58 85.6216 412.26 85.0657 412.289C84.5099 412.318 83.9577 412.431 83.7529 412.945C84.1076 411.961 83.6944 410.756 82.8094 410.199C81.9244 409.642 80.6518 409.78 79.9131 410.519C80.2056 415.144 80.3556 420.027 81.0211 424.612C81.087 425.071 81.1857 425.58 81.5697 425.846C82.0305 426.17 82.6668 425.977 83.1824 425.751C86.5833 424.266 89.4394 421.793 92.2406 419.357C95.0309 416.932 97.7078 414.288 100.498 411.859L100.491 411.87Z" fill="#009A56" stroke="#333333" stroke-width="1.5" stroke-miterlimit="10" stroke-linejoin="round"/>
</g>
<path d="M186.019 374.356C174.759 379.953 164.593 387.578 153.212 392.924C140.245 399.012 126.063 401.984 112.492 406.59C101.386 410.363 90.3129 415.533 81.9678 423.57V451.882C96.0177 446.373 109.296 438.919 121.284 429.779C136.774 417.966 150.034 403.451 165.587 391.722C178.73 381.81 194.269 373.81 210.495 372.601L210.487 367.43C202.084 367.743 193.625 370.569 186.015 374.352L186.019 374.356Z" fill="#3DC181" stroke="#333333" stroke-width="1.5" stroke-miterlimit="10" stroke-linejoin="round"/>
<mask id="mask1_40_1218" style="mask-type:luminance" maskUnits="userSpaceOnUse" x="81" y="313" width="130" height="165">
<path d="M209.745 372.605V372.606L209.781 401.071L82.7178 475.81V451.882V423.574V389.249L209.673 314.57L209.741 367.434V367.435L209.745 372.605Z" fill="white" stroke="white" stroke-width="1.5" stroke-linejoin="round"/>
</mask>
<g mask="url(#mask1_40_1218)">
<path d="M120.132 436.42C109.38 444.195 97.8391 450.888 85.7456 456.368C83.6612 457.311 81.1708 458.211 79.1814 457.075C77.3932 456.055 76.7934 453.805 76.4899 451.776C75.4513 444.774 76.7495 437.32 79.8579 430.951C80.4248 429.786 81.6828 428.988 82.981 428.963C84.2792 428.937 85.5664 429.691 86.1771 430.834C86.371 429.097 87.4242 428.092 89.1795 427.979C90.9312 427.87 92.6719 429.148 93.0851 430.849C93.6629 429.749 94.9282 429.422 96.0509 429.96C97.1736 430.499 97.7294 431.981 97.2284 433.118C97.627 432.214 98.629 432.018 99.5286 432.047C100.626 432.083 101.185 432.75 101.613 433.7C100.783 431.847 102.103 429.207 103.965 428.38C105.826 427.553 108.046 427.867 109.315 429.458C110.211 428.708 111.311 428.507 112.291 429.145C113.271 429.782 113.758 431.086 113.432 432.204C114.251 430.212 116.391 429.276 118.398 430.07C120.406 430.864 121.525 433.387 120.754 435.397" fill="#009A56"/>
<path d="M120.132 436.42C109.38 444.195 97.8391 450.888 85.7456 456.368C83.6612 457.311 81.1708 458.211 79.1814 457.075C77.3932 456.055 76.7934 453.805 76.4899 451.776C75.4513 444.774 76.7495 437.32 79.8579 430.951C80.4248 429.786 81.6828 428.988 82.981 428.963C84.2792 428.937 85.5664 429.691 86.1771 430.834C86.371 429.097 87.4242 428.092 89.1795 427.979C90.9312 427.87 92.6719 429.148 93.0851 430.849C93.6629 429.749 94.9282 429.422 96.0509 429.96C97.1736 430.499 97.7294 431.981 97.2284 433.118C97.627 432.214 98.629 432.018 99.5286 432.047C100.626 432.083 101.185 432.75 101.613 433.7C100.783 431.847 102.103 429.207 103.965 428.38C105.826 427.553 108.046 427.867 109.315 429.458C110.211 428.708 111.311 428.507 112.291 429.145C113.271 429.782 113.758 431.086 113.432 432.204C114.251 430.212 116.391 429.276 118.398 430.07C120.406 430.864 121.525 433.387 120.754 435.397" stroke="#333333" stroke-width="1.5" stroke-miterlimit="10" stroke-linejoin="round"/>
<path d="M120.866 430.692C120.581 429.99 120.475 429.214 120.559 428.46C120.629 427.845 120.837 427.218 121.276 426.781C121.715 426.344 122.417 426.126 122.987 426.377C122.742 425.434 122.925 424.546 123.613 423.854C124.3 423.162 125.361 422.863 126.312 423.096C126.919 422.503 127.646 422.423 128.473 422.63C129.299 422.838 129.994 423.493 130.243 424.305L120.87 430.696L120.866 430.692Z" fill="#009A56" stroke="#333333" stroke-width="1.5" stroke-miterlimit="10" stroke-linejoin="round"/>
<path d="M132.979 422.08C132.065 421.494 131.582 420.311 131.827 419.258C132.068 418.202 133.023 417.35 134.102 417.215C133.74 416.436 133.751 415.741 134.31 415.092C134.87 414.444 135.828 414.157 136.654 414.397C136.566 413.771 136.797 413.239 137.309 412.864C137.821 412.489 138.541 412.416 139.119 412.686C139.349 411.863 140.223 411.466 141.068 411.611C141.913 411.757 142.578 412.602 142.52 413.454L132.983 422.084L132.979 422.08Z" fill="#009A56" stroke="#333333" stroke-width="1.5" stroke-miterlimit="10" stroke-linejoin="round"/>
</g>
<path d="M134.076 410.519C133.348 410.716 132.503 410.887 131.904 410.431C131.256 409.94 131.253 408.917 131.677 408.225C132.101 407.533 132.833 407.092 133.535 406.681C146.989 398.786 160.859 390.739 176.288 388.335C175.44 388.466 173.165 391.784 172.415 392.476C171.029 393.761 169.548 394.952 167.994 396.033C164.871 398.204 161.631 399.522 158.142 400.865C154.196 402.38 150.503 404.707 146.561 406.306C142.49 407.955 138.318 409.365 134.08 410.515L134.076 410.519Z" fill="#B3E2FF" stroke="#333333" stroke-width="1.5" stroke-miterlimit="10" stroke-linejoin="round"/>
<path d="M121.284 429.783C109.296 438.923 96.0141 446.377 81.9678 451.886V477.121L210.531 401.5L210.495 372.605C194.269 373.814 178.73 381.814 165.587 391.726C150.034 403.455 136.774 417.97 121.284 429.783Z" fill="#3DC181" stroke="#333333" stroke-width="1.5" stroke-miterlimit="10" stroke-linejoin="round"/>
<path d="M168.184 396.419C167.094 397.202 166.191 398.04 165.09 398.819C163.273 400.101 160.929 401.219 159.455 402.584C159.097 402.916 158.789 403.269 158.727 403.608C158.665 403.946 158.881 404.263 159.4 404.365C160.281 404.536 161.499 404.052 162.391 403.586C163.832 402.832 165.152 402.013 166.604 401.27C168.382 400.359 170.338 399.569 172.174 398.699C174.01 397.829 175.769 396.835 176.869 395.702C177.264 395.298 177.571 394.868 177.612 394.468C177.652 394.067 177.396 393.696 176.814 393.535C174.445 392.887 169.789 395.265 168.188 396.416L168.184 396.419Z" fill="#FFDD83" stroke="#333333" stroke-width="1.5" stroke-miterlimit="10" stroke-linejoin="round"/>
<path d="M105.95 416.156C105.749 416.334 105.544 416.535 105.486 416.797C105.391 417.237 105.789 417.66 106.228 417.769C106.667 417.878 107.124 417.751 107.559 417.623C111.483 416.465 115.308 414.991 118.991 413.214C119.529 412.955 120.157 412.482 119.975 411.917C119.854 411.542 119.43 411.371 119.046 411.276C114.643 410.191 109.11 413.337 105.95 416.16V416.156Z" fill="#FFDD83" stroke="#333333" stroke-width="1.5" stroke-miterlimit="10" stroke-linejoin="round"/>
<path d="M122.918 414.397C122.125 414.762 121.382 415.242 120.724 415.814C120.607 415.916 120.479 416.054 120.512 416.207C120.556 416.418 120.845 416.451 121.064 416.429C122.52 416.265 123.928 415.69 125.08 414.783C125.343 414.579 125.61 414.215 125.409 413.949C125.288 413.793 125.065 413.775 124.868 413.782C124.18 413.807 123.5 414.026 122.922 414.401" fill="#FFDD83"/>
<path d="M122.918 414.397C122.125 414.762 121.382 415.242 120.724 415.814C120.607 415.916 120.479 416.054 120.512 416.207C120.556 416.418 120.845 416.451 121.064 416.429C122.52 416.265 123.928 415.69 125.08 414.783C125.343 414.579 125.61 414.215 125.409 413.949C125.288 413.793 125.065 413.775 124.868 413.782C124.18 413.807 123.5 414.026 122.922 414.401" stroke="#333333" stroke-width="1.5" stroke-miterlimit="10" stroke-linejoin="round"/>
<path opacity="0.7" d="M103.079 453.743L84.915 464.43V471.112V471.127L103.097 460.436L103.079 453.743Z" fill="#2B333F" stroke="#333333" stroke-width="1.5" stroke-miterlimit="10" stroke-linejoin="round"/>
<path opacity="0.7" d="M103.079 445.054L84.915 455.738V462.42V462.435L103.097 451.744L103.079 445.054Z" fill="#2B333F" stroke="#333333" stroke-width="1.5" stroke-miterlimit="10" stroke-linejoin="round"/>
<path opacity="0.7" d="M103.079 436.363L84.915 447.047V453.729V453.743L103.097 443.052L103.079 436.363Z" fill="#2B333F" stroke="#333333" stroke-width="1.5" stroke-miterlimit="10" stroke-linejoin="round"/>
<path opacity="0.7" d="M123.464 441.755L105.296 452.443V459.121V459.139L123.478 448.445L123.464 441.755Z" fill="#2B333F" stroke="#333333" stroke-width="1.5" stroke-miterlimit="10" stroke-linejoin="round"/>
<path opacity="0.7" d="M123.464 433.063L105.296 443.751V450.433V450.448L123.478 439.753L123.464 433.063Z" fill="#2B333F" stroke="#333333" stroke-width="1.5" stroke-miterlimit="10" stroke-linejoin="round"/>
<path opacity="0.7" d="M123.464 424.375L105.296 435.058V441.74V441.755L123.478 431.064L123.464 424.375Z" fill="#2B333F" stroke="#333333" stroke-width="1.5" stroke-miterlimit="10" stroke-linejoin="round"/>
<path opacity="0.45" d="M189.076 339.793L189.076 339.793L202.427 331.939C203.537 331.287 204.929 332.088 204.929 333.357V333.357L204.943 395.105C204.943 395.105 204.943 395.105 204.943 395.105C204.943 395.688 204.634 396.228 204.132 396.523L204.132 396.523L190.766 404.385C189.655 405.037 188.265 404.238 188.265 402.967V341.212C188.265 340.629 188.574 340.088 189.076 339.793Z" fill="#63BDFF" stroke="#333333" stroke-width="1.5" stroke-linejoin="round"/>
<g opacity="0.7">
<path d="M104.689 379.301L87.5156 389.388C86.638 389.905 85.8444 390.99 85.4275 392.243C84.5133 394.989 85.7859 397.032 87.7094 395.903L104.882 385.816C105.764 385.299 106.561 384.21 106.974 382.95C107.881 380.208 106.609 378.173 104.692 379.298L104.689 379.301Z" fill="#2B333F" stroke="#333333" stroke-width="1.5" stroke-miterlimit="10" stroke-linejoin="round"/>
<path d="M104.689 387.779L87.5156 397.866C86.638 398.383 85.8444 399.468 85.4275 400.72C84.5133 403.466 85.7859 405.509 87.7094 404.38L104.882 394.293C105.764 393.776 106.561 392.687 106.974 391.427C107.881 388.685 106.609 386.65 104.692 387.775L104.689 387.779Z" fill="#2B333F" stroke="#333333" stroke-width="1.5" stroke-miterlimit="10" stroke-linejoin="round"/>
</g>
<path d="M210.495 372.605L210.491 367.434L210.422 313.26L81.9678 388.82V423.574V451.882V477.001V477.121L210.531 401.499L210.495 372.605Z" stroke="#333333" stroke-width="1.5" stroke-miterlimit="10" stroke-linejoin="round"/>
<path d="M153.697 387.449L153.327 387.449L153.335 394.164L153.705 394.163L153.697 387.449Z" fill="#FF1919" stroke="#333333" stroke-width="1.5" stroke-linecap="round" stroke-linejoin="round"/>
<path d="M157.082 388.314C157.093 388.598 156.848 388.838 156.581 388.944C156.314 389.049 155.173 389.188 154.895 389.246C154.617 389.304 154.24 389.435 154.112 389.69L154.134 387.527C154.262 387.272 154.555 387.141 154.836 387.083C155.118 387.025 156.255 386.883 156.522 386.781C156.789 386.679 157.034 386.438 157.023 386.151L157.085 388.314H157.082Z" fill="#FF1919" stroke="#333333" stroke-width="1.5" stroke-linecap="round" stroke-linejoin="round"/>
</g>
<defs>
<clipPath id="clip0_40_1218">
<rect width="320" height="540" rx="16" fill="white"/>
</clipPath>
</defs>
</svg>
