<svg width="62" height="103" viewBox="0 0 62 103" fill="none" xmlns="http://www.w3.org/2000/svg">
<g clip-path="url(#clip0_4_13582)">
<path d="M7.3941 26.6738C7.1819 27.7746 6.8471 28.8423 6.484 29.9147C6.1209 30.9871 5.75309 32.0312 5.25796 33.0517C4.76754 34.058 4.25354 35.0595 3.63109 36.0091C3.01807 36.9445 2.29188 37.8044 1.56097 38.6736C1.40535 38.8626 1.36291 39.0941 1.42893 39.3162C1.50438 39.5665 1.7213 39.7791 2.00423 39.8595C3.11238 40.1665 4.25826 40.3461 5.39471 40.5539C6.53115 40.7618 7.66289 40.9461 8.81348 41.05C9.96407 41.1539 11.1147 41.2909 12.2653 41.2957C13.4159 41.3004 14.5617 41.0736 15.7123 40.9791C16.8629 40.8846 17.9946 40.7051 19.1264 40.5114" fill="#C67D71"/>
<path d="M6.71046 26.4846C6.27663 28.6625 5.53157 30.8877 4.55074 32.8814C4.06975 33.8593 3.56519 34.8278 2.95688 35.7349C2.34858 36.6419 1.63653 37.3884 0.999933 38.2388C0.429352 38.9994 0.721716 40.034 1.5658 40.4403C2.48533 40.8797 3.67365 40.96 4.66863 41.1395C6.95095 41.5458 9.25214 41.886 11.5722 41.9852C12.8548 42.0419 14.095 41.8482 15.3635 41.7206C16.632 41.5931 17.9995 41.4183 19.3104 41.1962C20.2064 41.0403 19.8244 39.675 18.9332 39.8309C17.9005 40.0104 16.8677 40.171 15.8209 40.2655C14.7882 40.36 13.7602 40.5395 12.7228 40.582C10.6668 40.6671 8.5118 40.3742 6.48411 40.034C5.508 39.8687 4.52716 39.6986 3.55104 39.5002C3.30584 39.4482 3.05591 39.3962 2.8107 39.3395C2.68338 39.3112 2.26842 39.2734 2.18354 39.1789C2.06093 39.0372 2.26841 38.9238 2.39573 38.7726C2.55606 38.5837 2.71168 38.3947 2.86729 38.201C4.07447 36.7223 5.03173 35.1302 5.85695 33.4152C6.84721 31.3696 7.62056 29.0972 8.06382 26.8673C8.24301 25.9744 6.88022 25.5964 6.70103 26.4893L6.71046 26.4846Z" fill="#333333"/>
<path d="M54.856 26.688C55.0682 27.7888 55.2899 28.9084 55.653 29.9808C56.0114 31.0438 56.431 32.1021 56.9309 33.1225C57.4213 34.1288 58.0013 35.1115 58.6191 36.0611C59.2321 36.9965 60.0149 37.8232 60.7458 38.6878C60.9014 38.8768 60.9627 39.0941 60.8967 39.3209C60.8212 39.5713 60.5949 39.7697 60.3119 39.8453C59.2038 40.1523 58.0721 40.3791 56.9356 40.587C55.8039 40.7949 54.6486 40.8279 53.498 40.9319C52.3521 41.0405 51.2062 41.1397 50.0556 41.1445C48.905 41.1492 47.7544 41.0878 46.6086 40.9933C45.4627 40.8988 44.3309 40.6956 43.1992 40.502" fill="#C67D71"/>
<path d="M54.172 26.8769C54.9076 30.7178 56.3836 34.5114 58.864 37.5728C59.1327 37.9035 59.411 38.22 59.6892 38.5413C59.7929 38.6594 60.1372 38.9287 60.1654 39.0657C60.189 39.1838 60.2268 39.0515 60.123 39.1602C60.0617 39.2263 59.7693 39.2547 59.6797 39.2783C58.6753 39.5381 57.6521 39.746 56.6335 39.9208C55.6149 40.0956 54.5445 40.1287 53.4977 40.2232C52.465 40.3129 51.437 40.4074 50.3996 40.431C48.0371 40.4783 45.7076 40.2232 43.3828 39.8169C42.4916 39.661 42.1096 41.0263 43.0056 41.1822C45.2643 41.5743 47.5231 41.8483 49.8195 41.8483C50.9701 41.8483 52.116 41.7586 53.2619 41.6546C54.3936 41.5507 55.5348 41.5034 56.6618 41.3381C57.7982 41.168 58.9347 40.9271 60.0476 40.6389C60.9152 40.4169 61.8583 39.8594 61.5801 38.7917C61.4669 38.357 61.1086 38.0216 60.8209 37.6909C60.4531 37.2657 60.0759 36.8405 59.7269 36.3964C59.0714 35.5602 58.5244 34.6201 58.0152 33.6894C56.775 31.4217 56.0158 29.0218 55.5301 26.4942C55.3603 25.6013 53.9928 25.9793 54.1673 26.8722L54.172 26.8769Z" fill="#333333"/>
<path d="M23.7758 99.0126C23.9597 99.0882 24.1719 99.1354 24.3699 99.1354C25.5205 99.1354 26.6711 99.0599 27.8264 99.0551C28.9817 99.0504 30.1182 99.0126 31.2688 99.0079C31.3442 98.2378 31.4857 97.0898 31.4763 95.9465C31.4668 94.7418 31.3348 93.5277 31.4055 92.8426C30.071 92.8332 28.7648 93.0222 27.4916 93.0505C26.1854 93.0836 24.8934 92.8993 23.5919 92.9135C22.2904 92.9277 21.0785 93.1072 19.744 93.0505C19.7345 93.8064 19.5931 95.9938 19.5742 97.0473C20.9276 97.1512 22.2479 97.6992 23.2382 98.6347C23.3938 98.7811 23.5824 98.9276 23.7852 99.0126H23.7758Z" fill="#FFE6D9"/>
<path d="M23.5872 99.6975C24.1766 99.8959 24.7943 99.8439 25.4074 99.825C26.0581 99.8061 26.7136 99.7778 27.3643 99.7683C28.6658 99.7447 29.9673 99.7258 31.2688 99.7164C31.679 99.7164 31.9384 99.3904 31.9761 99.0077C32.0846 97.9494 32.193 96.8959 32.1836 95.8329C32.1694 94.8408 32.0374 93.8346 32.1129 92.8424C32.1412 92.4598 31.7639 92.1338 31.4055 92.1338C29.4391 92.1338 27.5105 92.3984 25.5394 92.2802C24.568 92.2236 23.6107 92.1858 22.6393 92.2424C21.6726 92.2944 20.7107 92.3747 19.744 92.3464C19.3573 92.3322 19.0461 92.6818 19.0366 93.055C19.0084 94.3873 18.8952 95.7196 18.8669 97.0518C18.8575 97.4628 19.2017 97.7274 19.5742 97.7605C20.3193 97.8313 21.0502 98.0392 21.7056 98.403C22.3281 98.7431 22.7902 99.3195 23.4221 99.6313C24.2379 100.028 24.9547 98.8093 24.1342 98.4077C23.7616 98.2235 23.4787 97.9022 23.1439 97.6565C22.8091 97.4109 22.4507 97.1841 22.0687 97.0093C21.2671 96.6361 20.4419 96.4329 19.5695 96.3479L20.2768 97.0565C20.3051 95.7243 20.4183 94.392 20.4466 93.0598L19.7393 93.7684C20.6729 93.7968 21.5972 93.7259 22.5309 93.6739C23.54 93.6172 24.5303 93.6456 25.5394 93.707C27.5105 93.8251 29.4391 93.5653 31.4055 93.5605L30.6982 92.8519C30.6227 93.844 30.7595 94.8456 30.7689 95.8424C30.7831 96.9054 30.6699 97.9589 30.5614 99.0171L31.2688 98.3085C30.0427 98.3132 28.8214 98.3416 27.5954 98.3557C26.9823 98.3652 26.3693 98.3888 25.7516 98.4077C25.1716 98.4266 24.5208 98.5305 23.9644 98.3416C23.1014 98.0534 22.7289 99.4187 23.5872 99.7069V99.6975Z" fill="#333333"/>
<path d="M24.3701 98.9795C24.1721 98.9795 24.0164 98.9464 23.8325 98.8708C23.6345 98.7905 23.3987 98.7716 23.2431 98.6204C22.2576 97.685 20.9702 97.1323 19.6168 97.0283C19.6168 97.137 19.6499 97.1937 19.6499 97.274C19.6404 97.874 19.532 98.5212 19.249 98.9984C18.8671 99.6503 18.1597 99.8204 17.5844 100.142C17.0091 100.463 16.3631 101.2 16.4527 102.003C17.4854 102.074 18.5794 101.932 19.6168 101.979C20.6543 102.027 21.6823 102.187 22.7197 102.201C23.7571 102.216 24.7898 102.14 25.8272 102.131C26.8646 102.121 27.9021 102.268 28.9395 102.235C29.4157 102.22 29.958 102.145 30.3589 101.809C30.9624 101.304 31.0756 100.222 31.2171 99.3007C31.2312 99.211 31.2642 99.2251 31.2737 99.1259C30.1231 99.1259 28.9819 99.0267 27.8266 99.0314C26.6713 99.0362 25.5254 98.9747 24.3701 98.9795Z" fill="#FCFCFC"/>
<path d="M24.37 98.271C23.5495 98.2238 22.9035 97.3828 22.182 97.0238C21.3709 96.6222 20.5174 96.4049 19.6167 96.3199C19.2678 96.2868 18.867 96.6742 18.9094 97.0285C18.9754 97.5624 18.9283 98.2521 18.5982 98.7056C18.3105 99.1025 17.7777 99.2442 17.3627 99.4615C16.4243 99.9529 15.6934 100.912 15.7453 102.008C15.7641 102.405 16.0565 102.693 16.4526 102.717C17.2307 102.759 18.004 102.707 18.7774 102.688C19.579 102.669 20.3712 102.74 21.1682 102.811C22.8422 102.967 24.4879 102.811 26.1619 102.844C27.5247 102.868 29.2506 103.293 30.5002 102.565C31.7498 101.838 31.6084 100.477 31.9526 99.3104C32.0846 98.8663 31.7215 98.4127 31.2689 98.4127C28.9677 98.408 26.6712 98.2616 24.37 98.2616C23.4599 98.2616 23.4599 99.6789 24.37 99.6789C26.6712 99.6789 28.9724 99.8206 31.2689 99.83L30.5851 98.9324C30.3116 99.8631 30.5097 101.328 29.26 101.502C28.6093 101.592 27.9208 101.517 27.2701 101.474C26.5297 101.432 25.7941 101.413 25.049 101.436C23.5919 101.484 22.1773 101.479 20.7249 101.347C19.2725 101.214 17.8814 101.37 16.4526 101.295L17.1599 102.003C17.1034 100.836 18.4379 100.633 19.1782 100.09C20.0977 99.4143 20.4608 98.1198 20.3241 97.0238L19.6167 97.7324C20.5174 97.8175 21.3804 98.1198 22.1301 98.6253C22.4932 98.871 22.7809 99.2111 23.1817 99.3907C23.5589 99.556 23.9598 99.66 24.3653 99.6836C25.2754 99.7403 25.2707 98.323 24.3653 98.2663L24.37 98.271Z" fill="#333333"/>
<path d="M19.0083 73.1234C19.0649 74.8525 19.0083 74.8525 19.0649 76.5816C19.1215 78.3107 19.1498 78.3107 19.2064 80.0398C19.2629 81.769 19.1733 81.7737 19.2299 83.5028C19.2865 85.2319 19.2959 85.2319 19.3525 86.961C19.4091 88.6901 19.3808 88.6948 19.4374 90.4239C19.494 92.153 19.5364 92.153 19.593 93.8822C19.6072 94.2648 19.9514 94.6475 20.3381 94.6475C22.1017 94.6475 22.1017 94.5388 23.8606 94.5388C25.6195 94.5388 25.6242 94.501 27.3878 94.501C29.1514 94.501 29.1514 94.6758 30.9151 94.6758C31.3064 94.6758 31.5611 94.2507 31.5611 93.8585C31.5611 92.0964 31.6177 92.0964 31.6177 90.3342C31.6177 88.572 31.6318 88.572 31.6318 86.8098C31.6318 85.0476 31.5281 85.0476 31.5281 83.2855C31.5281 81.5233 31.5186 81.5233 31.5186 79.7611C31.5186 77.9989 31.6648 77.9989 31.6648 76.2368C31.6648 74.4746 31.6224 74.4746 31.6224 72.7124" fill="#FCFCFC"/>
<path d="M18.3009 73.1232C18.3622 74.9751 18.3622 76.8223 18.447 78.6743C18.5366 80.6018 18.4895 82.5293 18.5602 84.4569C18.6215 86.2096 18.6687 87.9671 18.7158 89.7198C18.7441 90.6741 18.7913 91.6284 18.8384 92.5827C18.8856 93.537 18.7394 94.8126 19.8428 95.252C20.6162 95.5591 21.6961 95.3228 22.5213 95.2803C23.4974 95.2284 24.4782 95.252 25.4591 95.2331C26.4399 95.2142 27.3783 95.1858 28.3308 95.2331C29.1891 95.2756 30.0567 95.4409 30.9197 95.3843C32.1929 95.3039 32.2636 94.0756 32.2777 93.0788C32.2872 92.2709 32.3249 91.4631 32.3296 90.6552C32.339 88.7891 32.4004 86.9135 32.2919 85.0474C32.174 82.9734 32.1504 80.8286 32.2542 78.7546C32.3013 77.7389 32.3862 76.742 32.3768 75.7216C32.3673 74.7011 32.3343 73.7137 32.3343 72.7122C32.3343 71.8004 30.9197 71.8004 30.9197 72.7122C30.9197 74.4366 31.0376 76.1657 30.9008 77.8853C30.7641 79.605 30.8254 81.2065 30.8254 82.8648C30.8254 84.6506 30.9385 86.4316 30.9244 88.2222C30.915 89.8426 30.8819 91.4631 30.8631 93.0835C30.8631 93.2678 30.9385 93.7024 30.8631 93.863C30.7735 94.0473 30.7735 93.9811 30.5 93.9717C30.0897 93.9528 29.6842 93.9386 29.2739 93.9008C28.3874 93.8158 27.5056 93.7969 26.6144 93.8063C24.9734 93.8205 23.3276 93.8347 21.6866 93.9197C21.498 93.9292 21.3047 93.9386 21.116 93.9433C20.9793 93.9433 20.4747 94.0331 20.3663 93.9575C20.1635 93.8111 20.2625 92.8615 20.2484 92.5922C20.2012 91.7276 20.1588 90.8678 20.1305 90.0032C20.0786 88.3166 20.0456 86.6301 19.9843 84.9435C19.9089 82.9451 19.956 80.9467 19.8664 78.953C19.7815 77.0113 19.7674 75.0743 19.7061 73.1326C19.6778 72.2208 18.2631 72.2208 18.2914 73.1326L18.3009 73.1232Z" fill="#333333"/>
<path d="M38.7568 98.904C38.5776 98.9796 38.3796 98.9229 38.1863 98.9276C37.0357 98.9276 35.8851 99.0788 34.7345 99.0788C33.5839 99.0788 32.4804 98.9371 31.3298 98.9418C31.2497 98.1717 31.2544 97.0899 31.2544 95.9419C31.2544 94.7372 31.1648 93.4805 31.0894 92.7954C32.4239 92.7813 33.7584 92.8427 35.0316 92.8663C36.3047 92.8899 37.6251 92.9561 38.9313 92.9608C40.2045 92.9655 41.5532 92.8191 42.8877 92.7529C42.9065 93.5088 42.9254 95.8852 42.9537 96.9387C41.6003 97.0521 40.2752 97.6001 39.2944 98.545C39.1388 98.6961 38.9596 98.819 38.7615 98.904H38.7568Z" fill="#FFE6D9"/>
<path d="M38.5684 98.2238C38.3091 98.2757 37.9884 98.2238 37.7244 98.2285C37.4178 98.2379 37.1113 98.2568 36.8048 98.2757C36.1918 98.3135 35.5788 98.3608 34.961 98.3702C33.7491 98.3891 32.542 98.2427 31.3254 98.2379L32.0327 98.9466C31.8346 96.9057 31.9997 94.8459 31.7922 92.8002L31.0849 93.5089C33.0465 93.49 35.0129 93.5703 36.9746 93.6317C38.9598 93.6931 40.9026 93.5656 42.8832 93.4664L42.1758 92.7577C42.2041 94.1514 42.2041 95.5498 42.2418 96.9435L42.9492 96.2348C42.0721 96.3246 41.2469 96.5277 40.4452 96.9057C40.0633 97.0852 39.7096 97.3025 39.3701 97.5576C39.0306 97.8127 38.7665 98.1198 38.3987 98.2946C37.5782 98.6867 38.2949 99.9104 39.1107 99.5182C39.7426 99.2159 40.1953 98.6442 40.813 98.3041C41.4685 97.9403 42.2041 97.7277 42.9492 97.6521C43.3217 97.6143 43.6659 97.3592 43.6565 96.9435C43.6235 95.5498 43.6235 94.1514 43.5905 92.7577C43.5811 92.3892 43.2745 92.0302 42.8832 92.0491C40.9026 92.153 38.9598 92.2758 36.9746 92.2144C35.0129 92.153 33.0465 92.0727 31.0849 92.0916C30.7312 92.0916 30.3398 92.4128 30.3775 92.8002C30.585 94.8459 30.42 96.9057 30.618 98.9466C30.6557 99.3293 30.9104 99.6552 31.3254 99.6552C32.6174 99.66 33.9 99.8206 35.1921 99.7828C35.8051 99.7639 36.4181 99.7119 37.0359 99.6789C37.6536 99.6458 38.3327 99.7214 38.9457 99.5891C39.8369 99.4049 39.4597 98.0348 38.5684 98.2238Z" fill="#333333"/>
<path d="M38.1866 98.9419C38.3846 98.9419 38.5638 98.9514 38.7477 98.8758C38.9458 98.7955 39.1863 98.7482 39.3419 98.597C40.3227 97.6569 41.5724 97.0616 42.9257 96.9482C42.9257 97.0569 42.855 97.1183 42.8597 97.1986C42.8738 97.7986 42.9917 98.4648 43.2747 98.9372C43.6613 99.5844 44.3781 99.7828 44.9534 100.099C45.5287 100.416 46.0993 100.964 46.0191 101.772C44.9864 101.847 44.0009 101.918 42.9634 101.965C41.9307 102.017 40.8933 102.027 39.8559 102.051C38.8185 102.074 37.7858 102.287 36.7484 102.287C35.7109 102.287 34.6782 102.121 33.6408 102.093C33.1645 102.079 32.594 102.173 32.1884 101.838C31.5801 101.337 31.4339 100.232 31.2925 99.3104C31.2783 99.2206 31.2925 99.1498 31.2783 99.0458C32.4289 99.0458 33.5795 98.9277 34.7301 98.923C35.8807 98.9183 37.0313 98.9419 38.1866 98.9372V98.9419Z" fill="#FCFCFC"/>
<path d="M38.1866 99.6504C38.6205 99.6504 39.026 99.5606 39.4174 99.3764C39.8088 99.1921 40.0917 98.852 40.4454 98.6016C41.181 98.0819 42.0345 97.7512 42.9258 97.6614C42.6994 97.3638 42.4731 97.0614 42.242 96.7638C41.9921 97.789 42.3363 99.1685 43.1474 99.8771C43.817 100.463 45.3543 100.685 45.3071 101.776L46.0144 101.068C44.5903 101.172 43.1662 101.266 41.7422 101.309C40.2898 101.346 38.8657 101.465 37.418 101.564C36.0458 101.658 34.6877 101.389 33.3155 101.394C32.7025 101.394 32.462 101.228 32.2733 100.633C32.1177 100.132 32.0093 99.5795 31.9857 99.0598L31.2784 99.7685C32.429 99.759 33.5795 99.6551 34.7301 99.6456C35.8807 99.6362 37.0313 99.6598 38.1866 99.6598C39.0967 99.6598 39.0967 98.2425 38.1866 98.2425C37.036 98.2425 35.8854 98.2189 34.7301 98.2283C33.5795 98.2378 32.429 98.3417 31.2784 98.3512C30.9105 98.3512 30.5522 98.6724 30.571 99.0598C30.6229 100.165 30.8445 101.672 31.7641 102.409C32.3111 102.849 32.9807 102.806 33.6456 102.816C34.4613 102.83 35.2724 102.943 36.0882 102.99C37.7104 103.08 39.3467 102.787 40.9688 102.75C42.591 102.712 44.3357 102.613 46.0192 102.49C46.4153 102.461 46.7076 102.187 46.7265 101.781C46.7736 100.671 46.0474 99.8677 45.1043 99.3905C44.6988 99.1874 44.2084 99.0315 43.9302 98.6488C43.652 98.2661 43.4963 97.5906 43.6095 97.1417C43.7085 96.7354 43.402 96.1969 42.9258 96.2441C42.0298 96.3339 41.181 96.5606 40.3841 96.9811C39.672 97.3543 39.0166 98.2331 38.1913 98.2331C37.2812 98.2331 37.2812 99.6504 38.1913 99.6504H38.1866Z" fill="#333333"/>
<path d="M30.8068 79.3831C30.8257 81.1925 30.7408 81.1925 30.7597 83.0019C30.7785 84.8114 30.6889 84.8114 30.7078 86.6208C30.7267 88.4302 30.8257 88.4302 30.8446 90.2396C30.8634 92.049 30.9294 92.049 30.9483 93.8585C30.9483 94.2506 31.2076 94.4868 31.599 94.4868C33.3627 94.4726 33.3627 94.6191 35.1263 94.6096C36.8899 94.5955 36.8899 94.586 38.6535 94.5718C40.4171 94.5577 40.4171 94.5529 42.1807 94.5435C42.5627 94.5435 42.8645 94.1844 42.8786 93.797C42.9258 92.1293 42.8692 92.1294 42.9164 90.4569C42.9635 88.7845 43.0248 88.7892 43.072 87.1216C43.1191 85.4539 43.1757 85.4539 43.2229 83.7862C43.27 82.1185 43.1003 82.1138 43.1474 80.4413C43.1946 78.7689 43.2747 78.7736 43.3219 77.1012C43.369 75.4288 43.3077 75.4288 43.3502 73.7564C43.3596 73.3548 43.1238 72.9722 42.723 72.9722C41.0443 72.9722 41.0443 73.0714 39.3703 73.0714C37.6962 73.0714 37.6915 73.0241 36.0128 73.0241C34.3341 73.0241 34.3341 73.0336 32.6553 73.0336C30.9766 73.0336 30.9766 73.0525 29.2979 73.0525" fill="#FCFCFC"/>
<path d="M30.0993 79.383C30.1134 81.438 30.0427 83.4931 30.005 85.5482C29.9625 87.6694 30.0899 89.819 30.1842 91.9402C30.203 92.3796 30.2219 92.8237 30.2313 93.2631C30.2455 93.8867 30.2077 94.5292 30.7689 94.9402C31.2404 95.2803 31.8252 95.1953 32.3769 95.2095C32.8437 95.2237 33.3106 95.2662 33.7774 95.2945C35.9183 95.4268 38.1016 95.2945 40.2424 95.2756C41.2327 95.2662 42.6992 95.5685 43.3311 94.6189C43.6659 94.1134 43.5952 93.4662 43.6046 92.8898C43.6046 92.4363 43.6046 91.9828 43.6046 91.5292C43.6188 89.4127 43.7508 87.2868 43.8734 85.175C43.996 83.0396 43.7791 80.9184 43.9394 78.783C44.0196 77.7105 44.0479 76.6334 44.0432 75.5562C44.0384 74.6255 44.345 73.2319 43.5244 72.5752C43.0057 72.1594 42.2748 72.2728 41.6524 72.3012C41.1478 72.3201 40.6385 72.3626 40.134 72.3768C38.9598 72.4051 37.7856 72.3484 36.6115 72.339C34.1735 72.3153 31.7309 72.3626 29.2929 72.3626C28.3828 72.3626 28.3828 73.7799 29.2929 73.7799C31.1744 73.7799 33.0606 73.761 34.9422 73.7515C36.9368 73.7421 38.9362 73.8697 40.9309 73.7515C41.36 73.7279 41.7844 73.7043 42.2135 73.6996C42.3031 73.6996 42.6662 73.6476 42.7228 73.6996C42.6379 73.624 42.6332 73.6901 42.6426 73.7752C42.6851 74.0634 42.6285 74.4035 42.6238 74.6964C42.6191 75.646 42.6332 76.5909 42.6002 77.5357C42.5672 78.4381 42.4729 79.3357 42.4446 80.2381C42.4163 81.1782 42.5059 82.0994 42.52 83.0349C42.553 84.9813 42.4021 86.975 42.2795 88.9167C42.2135 89.9135 42.1899 90.9103 42.1899 91.9072C42.1899 92.3135 42.1899 92.7198 42.1899 93.126C42.1899 93.2583 42.2607 93.7449 42.1569 93.8441C42.0626 93.9386 41.393 93.8441 41.2516 93.8441C39.4125 93.8583 37.5781 93.8819 35.7391 93.8961C34.763 93.9056 33.801 93.8536 32.8249 93.8016C32.5608 93.7875 32.292 93.778 32.0279 93.778C31.9383 93.778 31.7026 93.8111 31.6035 93.778C31.6743 93.8016 31.6035 93.9575 31.6601 93.7497C31.7686 93.3339 31.6413 92.7103 31.6224 92.2757C31.5234 90.0883 31.3961 87.8773 31.4244 85.6899C31.4526 83.5026 31.5422 81.4806 31.5234 79.3782C31.5139 78.4664 30.0993 78.4664 30.1087 79.3782L30.0993 79.383Z" fill="#333333"/>
<path d="M16.8533 54.3536C16.9476 53.763 17.1551 53.1914 17.3107 52.6009C17.5559 51.6796 17.8625 50.7631 18.268 49.9033C18.6782 49.034 19.1168 48.1647 19.7911 47.4749C20.9653 46.2655 22.2479 45.8781 23.5683 45.7836C24.8933 45.6892 26.3221 46.0529 27.7745 45.7458C28.9393 45.5002 30.1229 45.2592 31.3253 45.2829C32.5325 45.3018 33.735 45.4529 34.8856 45.7647C35.7862 46.0057 37.1207 46.4639 38.3326 47.045C39.6058 47.6592 40.648 48.4387 40.8979 49.4497C41.1714 50.5552 41.5958 51.6276 41.8221 52.7426C42.0532 53.8575 42.1428 55.0008 42.3314 56.1205C42.52 57.2402 42.7983 58.3551 42.9397 59.4842C43.0859 60.6133 43.1802 61.7519 43.284 62.8857C43.3877 64.0196 43.449 65.1581 43.5056 66.2967C43.5622 67.4353 43.4914 68.5738 43.5056 69.7124C43.5197 70.8793 43.6235 71.9234 43.3358 72.7454C43.034 73.61 42.3833 74.243 41.0299 74.5265C40.0538 74.7296 39.0305 74.8383 37.9884 74.8903C36.9463 74.9422 35.9466 74.7911 34.9233 74.7769C33.8812 74.7627 32.8485 74.8761 31.8582 74.8808C30.7406 74.8856 29.6183 74.7627 28.5007 74.7438C27.3831 74.7249 26.2608 74.7438 25.1433 74.7013C24.0257 74.6588 22.9034 74.6541 21.7858 74.5879C20.456 74.5879 19.0083 74.2194 17.9238 73.421C16.8109 72.6084 15.9998 71.3612 15.8725 69.9628C15.7263 68.366 15.5377 66.6936 15.5943 65.092C15.6273 64.1282 15.9338 63.292 16.0894 62.3566C16.311 61.0243 16.3205 59.6921 16.4101 58.3645C16.4997 57.037 16.6317 55.7 16.8439 54.3725L16.8533 54.3536Z" fill="#FCFCFC"/>
<path d="M17.537 54.5427C17.8388 52.8939 18.3952 51.1979 19.1497 49.7003C19.8193 48.368 20.7625 47.2058 22.229 46.7428C23.6295 46.2987 25.0442 46.5869 26.4777 46.5775C28.1187 46.568 29.6795 45.9728 31.3253 45.9869C32.9097 46.0011 34.4422 46.3129 35.9324 46.8231C37.2433 47.272 38.8513 47.8105 39.7944 48.883C40.1905 49.3318 40.2707 49.894 40.4357 50.4514C40.6809 51.2735 40.9591 52.0813 41.1336 52.9175C41.4731 54.5522 41.6146 56.2246 41.94 57.8639C42.2701 59.5174 42.421 61.1899 42.5719 62.8717C42.7227 64.6103 42.8359 66.3583 42.8076 68.1016C42.7982 68.848 42.7888 69.5944 42.8076 70.3409C42.8265 71.0543 42.9067 71.8574 42.652 72.5424C42.2135 73.7094 40.8318 73.87 39.752 74.0164C38.1251 74.2337 36.5548 74.0778 34.928 74.0495C33.2634 74.0212 31.6271 74.1771 29.9625 74.0778C28.2837 73.9786 26.605 74.0212 24.9263 73.9645C23.3937 73.9172 21.7433 74.0448 20.2437 73.6763C18.7253 73.3078 17.339 72.3251 16.792 70.8133C16.5137 70.048 16.5137 69.2023 16.443 68.3992C16.3581 67.4402 16.2874 66.4717 16.2968 65.5079C16.3063 64.6244 16.5185 63.8071 16.6976 62.9473C16.891 62.0166 16.9712 61.0623 17.0277 60.1127C17.1362 58.2466 17.2447 56.3852 17.5323 54.5333C17.6738 53.6404 16.311 53.2577 16.1695 54.1553C15.8819 55.9836 15.7357 57.8214 15.6367 59.6686C15.5895 60.5662 15.5471 61.4733 15.3773 62.3568C15.2028 63.2638 14.9388 64.1378 14.8963 65.0685C14.8114 66.7882 14.9623 68.6118 15.217 70.3126C15.4433 71.8149 16.3534 73.1377 17.57 74.0164C18.8809 74.9613 20.4371 75.2259 22.0168 75.292C23.8794 75.3676 25.7468 75.4148 27.6141 75.4243C29.3919 75.4337 31.1649 75.6227 32.9427 75.5329C33.8245 75.4904 34.7063 75.4432 35.5881 75.4904C36.5407 75.5424 37.4838 75.618 38.441 75.5566C39.95 75.4574 41.8079 75.377 43.034 74.3802C44.0761 73.5345 44.2647 72.2212 44.2506 70.9503C44.2317 69.0889 44.2742 67.2276 44.1704 65.3662C44.0667 63.5473 43.9205 61.7284 43.7083 59.919C43.4867 58.034 43.0434 56.1821 42.7888 54.297C42.5577 52.5585 42.0814 50.9191 41.5816 49.242C41.1478 47.7869 39.8085 46.9318 38.5023 46.3224C37.0688 45.6562 35.541 45.0988 33.9848 44.8153C31.8817 44.4326 29.8917 44.5791 27.8122 44.9996C26.0061 45.3633 24.1718 44.8295 22.361 45.2263C20.5597 45.6232 19.1262 46.8373 18.2255 48.4247C17.2399 50.1585 16.5373 52.19 16.1789 54.1506C16.0139 55.0435 17.3767 55.4262 17.5417 54.5285L17.537 54.5427Z" fill="#333333"/>
<path d="M23.719 59.2149C23.7567 60.1834 23.6671 61.1614 23.7096 62.1299C23.752 63.0983 23.9076 64.0621 23.9453 65.0306C23.9831 65.9991 24.0868 66.9676 24.1151 67.9361C24.1575 69.4809 24.4405 71.0163 24.5159 72.5659C24.5725 73.7328 24.7281 76.1233 23.5681 76.8603C23.0871 77.1674 22.4788 77.2714 21.9082 77.2761C20.2531 77.2855 18.5932 77.1485 16.9522 76.8934C15.5375 76.6761 15.7497 75.5848 15.7214 74.4604C15.712 74.125 15.4196 70.8037 15.132 70.8274C14.1889 70.8982 12.7884 70.7282 11.4208 70.6526C10.0533 70.577 8.70469 70.4069 7.88419 69.8683C6.94108 69.2494 6.29977 68.3754 5.92724 67.3077C5.55471 66.24 5.42267 65.1345 5.49341 64.0432C5.56886 62.8338 5.88008 61.681 6.2809 60.5472C6.68173 59.4134 7.20044 58.3457 7.84175 57.3205C8.48306 56.3 9.21869 55.3552 10.025 54.4717C10.3221 54.141 11.1709 53.1205 12.463 52.0623C13.2693 51.4009 14.2549 50.7348 15.231 50.0308C16.2071 49.3269 17.2351 48.8308 18.1782 48.2828C19.3194 47.6167 20.3191 46.8797 21.215 46.6766C22.559 46.3742 23.3936 46.8844 23.4313 48.4624C23.4596 49.6576 23.5822 50.8529 23.5917 52.0481C23.6011 53.2434 23.7331 54.4386 23.7473 55.6339C23.7614 56.8292 23.6671 58.0244 23.719 59.2197V59.2149Z" fill="#AFAFAF"/>
<path d="M23.012 59.2146C23.0356 60.0367 22.9837 60.8587 22.9884 61.6807C22.9978 62.5028 23.1016 63.3201 23.177 64.1374C23.3185 65.7106 23.3374 67.2933 23.46 68.8617C23.5731 70.2932 23.7853 71.7105 23.8372 73.1467C23.8702 74.0254 23.9834 75.3388 23.3892 76.0758C23.0544 76.4963 22.4037 76.5482 21.9086 76.5624C21.0833 76.5813 20.2487 76.5341 19.4235 76.4679C18.6643 76.4065 17.8909 76.3498 17.1411 76.2034C16.6271 76.1042 16.481 75.9624 16.4432 75.4475C16.3253 73.9499 16.4102 72.3861 15.9764 70.9263C15.8915 70.6475 15.7783 70.3641 15.5096 70.2129C15.2644 70.0712 14.9814 70.1279 14.7126 70.1279C14.3212 70.1279 13.9299 70.109 13.5385 70.0854C12.0814 69.9909 10.5111 70.0192 9.10113 69.6176C6.34254 68.8287 5.88041 65.2524 6.35669 62.8571C7.47899 57.2682 11.8692 52.7801 16.6177 49.9597C17.3109 49.5487 18.0277 49.1802 18.7208 48.7691C19.414 48.3581 20.0695 47.8857 20.7957 47.555C21.2012 47.3707 21.852 47.1392 22.2905 47.3613C22.6678 47.5503 22.7008 48.0841 22.7196 48.4479C22.8092 50.2384 22.847 52.0337 22.9554 53.8242C23.0639 55.6194 22.946 57.41 23.0073 59.2052C23.0403 60.117 24.455 60.117 24.4219 59.2052C24.3606 57.41 24.4785 55.6194 24.3701 53.8242C24.2616 52.0337 24.2239 50.2384 24.1343 48.4479C24.0777 47.3471 23.6816 46.2463 22.5074 45.944C21.2248 45.6133 19.961 46.3456 18.9142 46.9881C17.5137 47.8479 16.0283 48.5802 14.6891 49.5345C13.3168 50.5124 11.9305 51.4667 10.7327 52.6573C8.67673 54.6935 6.89426 57.0509 5.81911 59.7532C4.6921 62.5831 4.11209 66.2019 5.93229 68.8948C6.72921 70.0759 7.85623 70.8271 9.24732 71.1058C10.8647 71.4271 12.6048 71.4837 14.2458 71.5357C14.4014 71.5357 14.5523 71.5452 14.7079 71.5404C15.2691 71.5357 14.59 71.2523 14.5947 71.2475C14.5617 71.2617 14.5806 71.1011 14.6042 71.2948C14.6136 71.3751 14.6466 71.4554 14.6608 71.5357C14.7504 71.9515 14.8069 72.3767 14.8541 72.8018C14.9484 73.5955 15.0003 74.3703 15.0097 75.1687C15.0333 76.5104 15.5944 77.3844 16.9808 77.597C18.6501 77.8569 20.3996 78.0506 22.0925 77.9655C23.6863 77.8852 24.7945 77.0632 25.1057 75.4853C25.3698 74.153 25.2566 72.7357 25.1293 71.394C24.9312 69.3436 24.7615 67.298 24.6577 65.2429C24.6059 64.2744 24.4785 63.3106 24.4219 62.3422C24.3606 61.2981 24.455 60.2493 24.4219 59.2052C24.3937 58.2934 22.979 58.2934 23.0073 59.2052L23.012 59.2146Z" fill="#333333"/>
<path d="M21.5313 46.0342C20.6401 46.3743 19.862 47.0027 19.2395 47.7302C18.6171 48.4578 18.2587 49.3507 18.0606 50.2908C17.9239 50.9286 17.8815 51.5569 18.0559 52.1853C18.452 53.6309 19.6215 54.6136 20.8664 55.4451C19.7913 56.3143 18.5888 57.4435 18.768 58.8182C18.8481 59.4418 19.249 60.0324 19.6215 60.5426C20.5788 61.856 21.6445 63.1174 22.8234 64.237" fill="#AFAFAF"/>
<path d="M21.3426 45.3534C19.1168 46.2605 17.6173 48.24 17.2919 50.621C16.9665 53.0021 18.6311 54.7926 20.5079 56.054C20.4608 55.6808 20.4136 55.3123 20.3664 54.9391C18.9659 56.0776 17.4852 57.7028 18.2727 59.6351C18.6641 60.5894 19.3856 61.4209 20.0269 62.2146C20.739 63.1027 21.5029 63.9389 22.3281 64.7279C22.9883 65.3562 23.988 64.3594 23.3278 63.7263C22.0499 62.498 20.7861 61.1232 19.8477 59.6114C19.4233 58.9264 19.3385 58.2839 19.7629 57.58C20.159 56.928 20.7767 56.4178 21.3614 55.9406C21.7387 55.6336 21.5595 55.0572 21.22 54.8257C19.8336 53.8903 18.4284 52.6478 18.683 50.8053C18.9376 48.9628 20.0364 47.4038 21.7198 46.714C22.5497 46.3738 22.1866 45.0038 21.3426 45.3487V45.3534Z" fill="#333333"/>
<path d="M38.7616 59.2101C38.7191 60.2636 38.8936 61.3219 38.8465 62.3754C38.7993 63.4289 38.7993 64.4824 38.7569 65.5312C38.7191 66.5848 38.4975 67.6288 38.4692 68.6824C38.4409 69.7359 38.5824 70.7894 38.5824 71.843C38.5824 72.8965 38.4079 73.95 38.4362 75.0035C38.4362 76.3641 39.7849 76.9216 41.2372 77.0255C42.6896 77.1295 44.2269 76.8224 44.9625 76.6287C45.1606 76.5767 45.3445 76.4681 45.4954 76.3311C45.7217 76.1232 45.8915 75.8161 45.9339 75.509C46.1414 73.9642 46.4856 72.4429 46.5894 70.9075C48.1832 70.9075 49.8148 70.7375 51.1965 69.9485C52.3989 69.2635 53.3703 68.2005 53.8796 66.9155C54.3748 65.6588 54.3417 64.199 54.1861 62.8573C54.0305 61.4919 53.6203 60.2116 53.045 58.9597C52.4744 57.7219 51.9415 56.4322 51.2106 55.2889C50.6872 54.4668 50.027 53.5409 49.4187 52.596C48.8104 51.6511 48.1267 50.7441 47.3486 50.1299C46.3442 49.3268 45.0663 48.6937 43.9864 47.9473C43.2319 47.4276 42.0295 46.9268 41.0298 46.7473C39.9593 46.5583 39.0021 46.7945 38.9596 48.4575C38.9313 49.6527 39.1341 50.8527 39.1294 52.048C39.12 53.2432 38.8842 54.4385 38.87 55.6338C38.8559 56.829 38.804 58.0195 38.7569 59.2148L38.7616 59.2101Z" fill="#AFAFAF"/>
<path d="M38.0544 59.2103C38.0214 60.3819 38.1676 61.5441 38.1251 62.7158C38.0827 63.8779 38.111 65.0496 38.0025 66.2118C37.8941 67.3834 37.729 68.522 37.7809 69.7031C37.8328 70.8841 37.8941 72.0227 37.8092 73.1991C37.7432 74.1392 37.5451 75.2447 37.9978 76.1187C38.3562 76.8132 39.0541 77.2336 39.7756 77.4746C41.4119 78.0132 43.5244 77.8053 45.1513 77.3092C45.6181 77.1675 46.019 76.8793 46.2925 76.473C46.6273 75.9722 46.6556 75.3912 46.7499 74.8148C46.9574 73.5156 47.2026 72.2211 47.2969 70.9078L46.5896 71.6164C48.2919 71.607 50.046 71.418 51.555 70.5582C52.8848 69.8023 53.9599 68.607 54.5305 67.185C55.1907 65.5456 55.0728 63.6276 54.7569 61.9221C54.4174 60.0938 53.5969 58.3977 52.7999 56.73C52.0077 55.0718 50.9231 53.5883 49.914 52.0577C49.433 51.3301 48.9049 50.6073 48.2777 49.9978C47.6505 49.3884 46.9479 48.9443 46.2312 48.505C44.7929 47.6215 43.4207 46.6247 41.7655 46.1806C40.681 45.8924 39.3465 45.8121 38.658 46.8892C38.1959 47.6073 38.2289 48.5333 38.2713 49.3506C38.3232 50.4372 38.4647 51.5144 38.4081 52.6057C38.3468 53.6923 38.1817 54.7647 38.1629 55.856C38.144 56.9757 38.0969 58.0954 38.0497 59.215C38.012 60.1268 39.4266 60.1268 39.4644 59.215C39.5351 57.5001 39.5162 55.771 39.686 54.0655C39.7614 53.3191 39.8463 52.5773 39.8369 51.8262C39.8275 50.9238 39.7049 50.0309 39.6766 49.1333C39.6624 48.6987 39.554 47.8672 39.9453 47.5412C40.1811 47.3428 40.5631 47.39 40.8413 47.4325C42.3173 47.6498 43.4914 48.5097 44.7269 49.2608C46.0473 50.064 47.2733 50.8246 48.207 52.086C49.1312 53.3332 50.0272 54.6749 50.8194 56.0166C51.621 57.3678 52.3142 58.8749 52.8518 60.3489C53.4035 61.8654 53.677 63.5142 53.5544 65.1299C53.4365 66.6937 52.6443 68.0921 51.3664 69.0039C49.9612 70.0054 48.2636 70.1991 46.5848 70.2038C46.184 70.2038 45.9058 70.5298 45.8775 70.9125C45.8068 71.881 45.6512 72.8306 45.4908 73.7896C45.3682 74.5266 45.472 75.7691 44.6043 75.9959C43.2179 76.3596 41.4543 76.6006 40.0774 76.0951C39.4927 75.8778 39.1531 75.5376 39.139 74.9046C39.1248 73.8888 39.2805 72.8778 39.2852 71.8574C39.2852 70.8794 39.1626 69.9015 39.172 68.9235C39.1814 67.9456 39.3559 66.9771 39.4314 65.9992C39.5209 64.8748 39.4974 63.7409 39.5398 62.6165C39.5822 61.4827 39.4314 60.3583 39.4644 59.2245C39.4879 58.3127 38.0733 58.3127 38.0497 59.2245L38.0544 59.2103Z" fill="#333333"/>
<path d="M41.0062 46.1943C41.8974 46.5345 42.6472 47.0825 43.2649 47.8101C43.8874 48.5376 44.4155 49.336 44.6183 50.2714C44.755 50.9092 44.6937 51.5517 44.524 52.1753C44.1279 53.621 42.8358 54.5942 41.5909 55.4257C42.666 56.295 43.9487 57.4335 43.7648 58.8036C43.6846 59.4272 43.2413 59.9469 42.8688 60.4571C41.9116 61.7705 40.8034 62.9563 39.6245 64.076" fill="#AFAFAF"/>
<path d="M40.8224 46.8796C42.3267 47.4843 43.8734 49.1189 43.9865 50.8055C44.1138 52.6953 42.652 53.8716 41.2374 54.8165C40.8978 55.0433 40.7187 55.6244 41.0959 55.9314C41.6901 56.4133 42.3314 56.9236 42.7463 57.5755C43.1943 58.2842 43.133 58.8794 42.6615 59.5597C41.6476 61.0337 40.4216 62.3471 39.1295 63.5801C38.4693 64.2085 39.469 65.21 40.1292 64.5817C40.945 63.8022 41.7325 62.9943 42.4587 62.1298C43.0953 61.3692 43.8498 60.5329 44.2553 59.6164C45.1088 57.6889 43.4678 56.0448 42.0909 54.9252L41.9494 56.0401C43.8498 54.7693 45.637 53.1016 45.3823 50.5929C45.1513 48.3111 43.2462 46.3363 41.1996 45.5143C40.3556 45.1741 39.9877 46.5442 40.8224 46.8796Z" fill="#333333"/>
<path d="M39.2097 46.8089C39.5068 47.7727 39.7708 48.7554 39.785 49.7616C39.7991 50.8482 39.6105 52.0246 38.922 52.8608C38.3184 53.5931 37.3942 54.023 36.4464 54.0655C35.4986 54.108 34.5319 53.8151 33.7491 53.3427C32.9474 52.8561 32.2967 52.1569 31.712 51.4152C31.1367 50.6876 30.5567 49.8089 30.071 49.0199C29.9861 50.9049 29.6371 52.1663 28.147 53.3427C27.7839 53.6309 27.3359 53.8009 26.9021 53.9663C25.7468 54.4104 24.3038 54.16 23.3985 53.3191C22.4931 52.4781 22.1205 51.1411 22.0451 49.9081C21.9696 48.675 22.2196 47.4278 22.6487 46.2656" fill="#FCFCFC"/>
<path d="M38.5258 46.9977C38.9219 48.3063 39.2567 49.6716 38.9738 51.037C38.7238 52.2511 37.8892 53.196 36.616 53.3472C33.7725 53.6826 31.9523 50.7299 30.6744 48.6653C30.2972 48.0559 29.3918 48.3252 29.354 49.0244C29.3022 50.0826 29.1607 51.174 28.4817 52.0291C27.713 53.0023 26.4068 53.6779 25.1525 53.4322C22.0968 52.8322 22.5542 48.6039 23.3229 46.4591C23.6294 45.5993 22.2666 45.2308 21.9601 46.0811C20.8944 49.0575 20.9415 54.1598 24.945 54.8259C26.5907 55.0999 28.2931 54.396 29.3823 53.1487C30.4103 51.9771 30.6933 50.5362 30.7687 49.0197C30.3302 49.1378 29.8916 49.2559 29.4484 49.3787C31.1082 52.0574 33.5179 55.4259 37.1536 54.6889C38.6673 54.3818 39.8178 53.2432 40.247 51.774C40.7421 50.0638 40.3931 48.2827 39.8886 46.6244C39.6245 45.7552 38.257 46.1237 38.5258 47.0024V46.9977Z" fill="#333333"/>
<path d="M6.5169 19.7478C7.3044 19.7478 8.04946 19.8611 8.73321 20.154C9.03501 19.0674 9.39339 18.0139 9.84137 16.9982C10.2941 15.9683 10.8316 14.9809 11.4211 14.0408C12.0152 13.0912 12.6707 12.1794 13.3922 11.329C14.1136 10.4739 15.0049 9.79357 15.8395 9.05185C16.6742 8.31013 17.4098 7.43141 18.3435 6.81724C19.2772 6.20308 20.2769 5.67868 21.2954 5.20624C22.314 4.73381 23.3986 4.47869 24.4784 4.15744C25.5583 3.83618 26.6051 3.51021 27.7227 3.34958C28.812 3.19367 29.9296 3.25509 31.0613 3.25509C32.1931 3.25509 33.2965 3.31651 34.3858 3.47713C35.5034 3.63776 36.6068 3.79839 37.6631 4.11492C38.7194 4.43145 39.8039 4.7905 40.8131 5.25821C41.8222 5.72592 42.7795 6.33063 43.7084 6.9448C44.6421 7.55896 45.5098 8.26289 46.3444 9.00461C47.1791 9.74633 48.0892 10.4266 48.8154 11.2817C49.5368 12.1321 50.2017 13.0534 50.7959 14.0077C51.39 14.962 51.7437 16.0344 52.1964 17.0643C52.6491 18.0942 53.0782 19.1194 53.38 20.206C54.0779 19.8989 54.8607 19.8375 55.6718 19.8375C56.7139 19.8375 57.7089 19.9603 58.5482 20.4517C59.3876 20.943 60.0666 21.7461 60.5665 22.6154C61.0663 23.4847 61.2974 24.4107 61.2974 25.45C61.2974 26.4894 61.0616 27.4484 60.5759 28.2894C60.0761 29.1586 59.4489 29.9996 58.5813 30.5051C57.7136 31.0106 56.7139 31.2657 55.6718 31.2657C55.0257 31.2657 54.3561 31.0295 53.7761 30.8263C53.5498 32.0074 53.2008 33.1696 52.8094 34.2798C52.418 35.39 51.9795 36.5097 51.4183 37.5538C50.8525 38.6073 50.2253 39.6136 49.5133 40.5632C48.7965 41.5128 48.009 42.4057 47.1555 43.2324C46.302 44.0592 45.4626 44.919 44.4912 45.6088C43.5245 46.2938 42.4258 46.7804 41.3554 47.3143C40.2849 47.8481 39.2475 48.4245 38.1063 48.7882C36.984 49.1473 35.7957 49.3032 34.6074 49.4875C33.4191 49.6717 32.2685 49.7945 31.0613 49.7945C29.8541 49.7945 28.68 49.6245 27.5247 49.4497C26.3363 49.2654 25.1386 49.1567 24.021 48.7977C22.9034 48.4387 21.7717 47.9709 20.7154 47.4418C19.6497 46.908 18.7302 46.1285 17.7635 45.4434C16.7968 44.7584 15.8395 44.0545 14.9907 43.2277C14.1372 42.4009 13.3592 41.508 12.6424 40.5585C11.9256 39.6136 11.2843 38.6168 10.7185 37.568C10.1573 36.5286 9.72348 35.4278 9.32266 34.2987C8.92183 33.1696 8.53516 32.0641 8.30881 30.8877C7.74766 31.072 7.14407 31.3082 6.52162 31.3082C5.47949 31.3082 4.56938 30.7885 3.73002 30.2972C2.86707 29.7917 2.01827 29.2153 1.51843 28.3413C1.03272 27.5004 0.702637 26.4847 0.702637 25.4406C0.702637 24.3965 0.985569 23.3571 1.46656 22.5115C1.9664 21.6422 2.82463 21.0233 3.68758 20.5178C4.55052 20.0123 5.47477 19.7383 6.5169 19.7383V19.7478Z" fill="#FFE6D9"/>
<path d="M6.51709 20.4563C7.22442 20.4658 7.8846 20.5697 8.54477 20.8343C8.90316 20.976 9.31812 20.6737 9.41715 20.3382C10.4263 16.7714 12.2701 13.1336 15.0758 10.6439C15.7643 10.0297 16.4716 9.44391 17.1318 8.8014C17.7637 8.18251 18.3908 7.61086 19.1453 7.14788C20.7675 6.15104 22.4415 5.48491 24.2617 4.95579C25.2189 4.68177 26.1621 4.37469 27.1382 4.16682C28.1001 3.96367 29.0668 3.94005 30.0477 3.9495C32.0471 3.9684 33.9993 4.06761 35.9704 4.43611C39.8088 5.15893 43.0861 7.10063 46.0051 9.6376C46.7973 10.3274 47.6272 10.9746 48.3157 11.7777C49.0042 12.5809 49.6313 13.4549 50.183 14.3572C50.7159 15.2265 51.0601 16.1855 51.4562 17.121C51.9137 18.1934 52.3711 19.2564 52.6964 20.3855C52.7907 20.7209 53.2104 21.028 53.5688 20.8815C54.9693 20.3099 57.0536 20.3193 58.3504 21.1508C59.6849 22.0059 60.5337 23.6689 60.5855 25.2326C60.6374 26.8531 59.9395 28.5066 58.6899 29.5601C58.0816 30.0704 57.2941 30.3585 56.516 30.4861C55.6059 30.6373 54.8231 30.4294 53.9649 30.1365C53.6207 30.0184 53.1633 30.2735 53.0925 30.6326C52.3145 34.5963 50.5556 38.3994 47.8771 41.4324C46.6087 42.8686 45.161 44.3898 43.5153 45.3914C42.6759 45.9016 41.7752 46.3032 40.9028 46.7473C40.0305 47.1914 39.0874 47.7063 38.116 48.037C37.1351 48.3724 36.1071 48.5425 35.0839 48.6984C34.0606 48.8543 33.009 49.0102 31.9575 49.0622C29.8685 49.1661 27.7653 48.8213 25.7094 48.4669C23.7194 48.1221 21.6634 47.3142 19.9847 46.1851C18.3484 45.0843 16.6602 43.8985 15.2597 42.5048C12.072 39.3159 9.86984 35.1254 8.98332 30.6987C8.91259 30.3397 8.45518 30.0893 8.11094 30.2026C7.38003 30.4483 6.6727 30.7081 5.89464 30.5239C5.18259 30.3538 4.54127 29.9617 3.91882 29.5885C2.62205 28.809 1.77796 27.8027 1.48089 26.2814C1.20267 24.8594 1.6082 23.1634 2.65506 22.1335C3.70191 21.1036 5.07413 20.48 6.51237 20.4516C7.42247 20.4327 7.42247 19.0154 6.51237 19.0343C4.65916 19.0674 2.80124 19.913 1.52332 21.2642C0.254843 22.6059 -0.221427 24.6563 0.0803678 26.4515C0.396309 28.3224 1.45259 29.7255 3.04173 30.7081C3.81036 31.1806 4.63559 31.6719 5.51739 31.8845C6.56896 32.1396 7.48849 31.8987 8.48819 31.5633L7.61581 31.0672C8.45046 35.2435 10.4546 39.2403 13.2556 42.434C14.6561 44.0261 16.2971 45.226 17.99 46.4827C19.7536 47.7914 21.621 48.7646 23.7194 49.4401C24.7851 49.785 25.8933 49.9126 26.9967 50.0779C28.086 50.2386 29.1706 50.4181 30.2693 50.4748C32.5045 50.5976 34.8198 50.248 37.0031 49.7945C39.0921 49.3646 40.95 48.3016 42.8409 47.3614C44.7649 46.4024 46.2786 45.0843 47.797 43.5772C51.2205 40.1804 53.5217 35.7443 54.4553 31.0105L53.583 31.5066C54.6251 31.8656 55.5823 32.0499 56.6811 31.8892C57.7138 31.7333 58.7229 31.3507 59.5387 30.6845C61.1325 29.3853 62.0615 27.2783 61.9908 25.2374C61.9248 23.2059 60.8873 21.2028 59.2133 20.0359C58.3504 19.4312 57.3224 19.2044 56.285 19.143C55.2475 19.0816 54.1535 19.1288 53.1868 19.5209L54.0592 20.017C53.7621 18.9871 53.3613 17.995 52.9369 17.0123C52.5455 16.1052 52.206 15.1698 51.758 14.2911C50.8809 12.562 49.5747 10.8801 48.1176 9.60453C46.6228 8.29589 45.1233 7.01087 43.4492 5.93845C41.6998 4.81878 39.8419 4.01564 37.8519 3.43455C35.8572 2.85346 33.6975 2.59834 31.6227 2.55582C30.5805 2.53692 29.5242 2.49913 28.4868 2.56527C27.4494 2.63141 26.379 2.87235 25.351 3.16054C23.4082 3.71328 21.5078 4.26131 19.7112 5.20145C18.8671 5.64554 18.0325 6.1227 17.2921 6.72741C16.5471 7.33213 15.9057 8.05495 15.1843 8.68801C14.3685 9.40139 13.5244 10.077 12.8265 10.9085C12.1286 11.7399 11.459 12.6565 10.8695 13.5919C9.6152 15.5761 8.69096 17.7068 8.05436 19.965C8.34672 19.7997 8.63437 19.6343 8.92673 19.4689C8.1581 19.1619 7.34702 19.0485 6.5218 19.039C5.6117 19.0249 5.6117 20.4422 6.5218 20.4563H6.51709Z" fill="#333333"/>
<path d="M36.8896 22.9604C36.8896 23.8061 37.4414 24.5903 38.2807 24.5903C39.1201 24.5903 39.7284 23.8061 39.7284 22.9604C39.7284 22.1148 39.1201 21.3872 38.2807 21.3872C37.4414 21.3872 36.8896 22.1148 36.8896 22.9604Z" fill="#333333"/>
<path d="M22.4082 22.96C22.4082 23.8057 23.0024 24.401 23.8417 24.401C24.6811 24.401 25.4497 23.801 25.4497 22.96C25.4497 22.1191 24.6811 21.4341 23.8417 21.4341C23.0024 21.4341 22.4082 22.1144 22.4082 22.96Z" fill="#333333"/>
<path d="M32.3818 23.3145C31.948 23.0358 31.4717 22.8373 30.953 22.7948C30.7267 22.7759 30.4862 22.809 30.274 22.8751C29.9769 22.9743 29.7505 23.1208 29.5053 23.3098C29.3733 23.4137 29.2979 23.6499 29.2979 23.8106C29.2979 23.9854 29.3733 24.1932 29.5053 24.3113C29.6374 24.4294 29.8166 24.5287 30.0052 24.5192L30.1938 24.4956C30.3117 24.4625 30.4154 24.4011 30.505 24.3113L30.5333 24.2877L30.3919 24.3964C30.5003 24.3161 30.6088 24.2499 30.7314 24.198L30.5616 24.2688C30.6559 24.231 30.755 24.2027 30.854 24.1885L30.6654 24.2121C30.788 24.198 30.9059 24.198 31.0285 24.2121L30.8398 24.1885C31.0143 24.2121 31.1794 24.2641 31.3444 24.335L31.1746 24.2641C31.3444 24.3397 31.5094 24.4294 31.6651 24.5334C31.9763 24.7318 32.4573 24.609 32.6317 24.2783C32.8156 23.9287 32.7119 23.5224 32.3771 23.3098L32.3818 23.3145Z" fill="#333333"/>
<path d="M41.4731 29.5225C41.4731 30.8595 41.9164 32.1351 42.7888 33.0138C43.6612 33.8925 44.9344 34.3933 46.2641 34.3933C47.5939 34.3933 48.8388 33.8595 49.7065 32.9807C50.5742 32.1067 51.1259 30.8595 51.1259 29.5225C51.1259 28.1855 50.5223 26.995 49.6546 26.1163C48.787 25.2376 47.5939 24.6045 46.2641 24.6045C44.9344 24.6045 43.7177 25.2139 42.8454 26.0927C41.9777 26.9667 41.4731 28.1903 41.4731 29.5273V29.5225Z" fill="#EDBBA6"/>
<path d="M10.973 29.5225C10.973 30.8594 11.4917 32.1586 12.3593 33.0374C13.2317 33.9161 14.5285 34.4688 15.8583 34.4688C17.1881 34.4688 18.4424 33.8736 19.3148 32.9948C20.1824 32.1208 20.6068 30.8594 20.6068 29.5225C20.6068 28.1855 20.2013 26.9099 19.3289 26.0359C18.4565 25.1572 17.1881 24.6895 15.8536 24.6895C14.5238 24.6895 13.3496 25.2564 12.482 26.1351C11.6143 27.0091 10.9683 28.1855 10.9683 29.5225H10.973Z" fill="#EDBBA6"/>
<path d="M12.2512 21.4297C10.6762 21.6848 9.06818 21.5053 8.57776 20.1021C8.46459 19.7809 8.36556 19.4596 8.37028 19.1147C8.38443 18.0281 8.50703 16.9463 8.69565 15.8833C8.88899 14.8109 9.17192 13.7573 9.55388 12.7558C9.94056 11.7353 10.4074 10.7527 10.9921 9.84559C11.5769 8.93852 12.3502 8.18262 13.133 7.42673C13.9252 6.66611 14.6655 5.83935 15.5709 5.22046C16.4763 4.6063 17.4713 4.11969 18.4615 3.63781C19.4518 3.15593 20.4421 2.67877 21.4795 2.32445C22.5216 1.9654 23.6251 1.83311 24.6861 1.59217C25.7471 1.35123 26.8269 1.04887 27.9021 0.916593C29.0055 0.784312 30.1231 0.699274 31.236 0.708722C32.3488 0.718171 33.457 0.841004 34.5604 0.992183C35.6639 1.14336 36.7437 1.39375 37.8189 1.69611C38.7855 1.97012 39.7617 2.32917 40.7519 2.69294C41.7422 3.05672 42.6995 3.39687 43.6143 3.87403C44.5432 4.35591 45.4533 4.86141 46.255 5.4992C47.1698 6.22675 47.962 7.0913 48.7542 7.97003C49.5464 8.84876 50.3811 9.67079 51.0743 10.6204C51.7816 11.5889 52.3522 12.803 52.9322 13.9983C53.5122 15.1935 54.0356 16.3982 54.2242 17.6124C54.5025 19.3935 54.0734 20.2817 53.267 20.6171C52.4559 20.9525 51.2817 20.6454 49.985 20.1494C48.9617 19.762 47.8064 19.384 46.8303 18.836C45.5901 18.1463 44.4914 17.4801 43.8783 17.1116C42.7042 16.403 41.6149 15.5573 40.4879 14.7778C39.3608 13.9983 38.2433 13.2046 37.1445 12.3826C36.0458 11.5605 35.0084 10.5968 33.9191 9.73693C33.2967 9.2456 32.5327 8.30546 31.6839 8.29601C31.0709 8.29128 30.2929 9.2078 29.826 9.60465C29.0857 10.2424 28.3312 10.8566 27.5814 11.4802C26.8316 12.1038 26.0819 12.7322 25.3274 13.3463C24.1013 14.3432 22.9696 15.562 21.6445 16.4171C20.6448 17.0644 19.6074 17.6596 18.6266 18.3258C17.6316 19.0014 16.6979 19.762 15.6417 20.2817C14.5807 20.8061 13.4536 21.2312 12.2559 21.4249L12.2512 21.4297Z" fill="#C67D71"/>
<path d="M12.0625 20.7448C11.3882 20.844 10.6007 20.9007 9.9594 20.622C9.18605 20.2865 9.05873 19.4314 9.08702 18.6755C9.16719 16.6535 9.57272 14.6221 10.3131 12.7371C10.6714 11.8253 11.1147 10.9324 11.657 10.115C12.1851 9.32136 12.8783 8.65523 13.5574 7.99382C14.2458 7.32769 14.9013 6.60014 15.6699 6.01432C16.481 5.39544 17.4147 4.93717 18.3248 4.48836C19.2349 4.03955 20.1827 3.56239 21.1541 3.18917C22.1255 2.81595 23.1158 2.62225 24.1249 2.42383C25.134 2.22541 26.0488 1.97029 27.0202 1.77187C28.0388 1.564 29.0857 1.47424 30.1231 1.43172C34.3152 1.24747 38.38 2.41438 42.2232 4.00176C44.0622 4.76237 45.7315 5.82535 47.1226 7.24738C47.7734 7.91351 48.3911 8.61743 49.023 9.30246C49.6549 9.98749 50.3386 10.7339 50.8573 11.5654C51.5599 12.6851 55.7474 20.2865 52.2531 20.0362C51.343 19.97 50.4612 19.5684 49.6171 19.2566C48.7165 18.9259 47.83 18.5811 46.9906 18.1133C45.4297 17.2393 43.8878 16.3323 42.4307 15.2976C40.7142 14.074 38.9553 12.9071 37.2907 11.6127C36.4796 10.9843 35.7157 10.2993 34.9235 9.64734C34.3152 9.14656 33.7399 8.58436 33.1033 8.12138C32.5044 7.68674 31.7594 7.43163 31.0473 7.73398C30.3824 8.01744 29.892 8.59381 29.3639 9.06625C27.8219 10.4505 26.1667 11.7119 24.5823 13.0489C23.8325 13.6772 23.1346 14.3622 22.3849 14.9906C21.6351 15.6189 20.7957 16.1291 19.9611 16.6441C18.2729 17.6882 16.7121 19.0251 14.906 19.8614C14.0006 20.2818 13.0481 20.5795 12.0672 20.7495C11.1713 20.9054 11.5533 22.2708 12.4445 22.1149C14.5476 21.7511 16.3961 20.7826 18.1173 19.5543C19.8998 18.2834 21.8803 17.2866 23.5496 15.8598C25.2189 14.4331 26.8363 13.0158 28.5151 11.6316C29.3026 10.9796 30.0948 10.3324 30.8398 9.63317C31.0426 9.44419 31.3491 9.08042 31.6368 9.02373C31.9716 8.95759 32.3488 9.30719 32.5846 9.50561C34.1502 10.8331 35.6921 12.1938 37.3426 13.4126C39.1298 14.7307 40.9453 16.0441 42.7985 17.2677C44.3829 18.3165 46.0758 19.3606 47.8347 20.0881C48.7872 20.4802 49.768 20.8676 50.7536 21.1653C51.5882 21.4204 52.5455 21.6188 53.3943 21.3306C54.9599 20.7968 55.1438 19.0677 54.9457 17.6409C54.6533 15.548 53.5641 13.5213 52.5691 11.6835C51.5741 9.85049 50.1076 8.38122 48.707 6.85998C47.2499 5.28205 45.6231 4.05845 43.6897 3.12303C41.7375 2.17816 39.5825 1.43172 37.484 0.878969C35.3055 0.297876 33.0279 -0.0281037 30.788 0.000242321C29.6892 0.0144153 28.5858 0.104178 27.4965 0.260081C26.4119 0.420708 25.3557 0.723066 24.2805 0.954558C23.2054 1.18605 22.1208 1.34195 21.0787 1.71518C20.0554 2.08367 19.0746 2.55138 18.0984 3.02854C17.1223 3.5057 16.0519 4.01593 15.1276 4.66789C14.2883 5.25843 13.5809 5.99543 12.85 6.7088C12.1191 7.42218 11.3976 8.11193 10.7799 8.91979C10.1622 9.72765 9.64346 10.715 9.22377 11.6883C8.36083 13.7008 7.87041 15.8409 7.70537 18.0236C7.62992 19.0015 7.62049 19.9984 8.15335 20.8629C8.55417 21.5101 9.22377 21.9259 9.95468 22.1007C10.7752 22.2944 11.6098 22.2282 12.4303 22.1054C13.3263 21.9684 12.9443 20.6031 12.0531 20.7401L12.0625 20.7448Z" fill="#333333"/>
<path d="M31.0472 30.193C31.8158 30.1599 32.6033 29.9851 33.1927 29.4844C33.7822 28.9836 34.0463 28.2182 34.018 27.4482C34.0085 27.1553 33.9661 26.919 33.7256 26.749C33.1079 26.319 31.4339 26.4986 30.6982 26.508C30.0239 26.5127 28.9535 26.4939 28.3216 26.7206C27.1899 27.1269 28.0764 28.4639 28.614 29.1537C29.1893 29.8859 30.1135 30.2308 31.0519 30.193H31.0472Z" fill="#FCFCFC"/>
<path d="M31.0471 30.9017C31.8346 30.8639 32.6598 30.7127 33.3294 30.2639C33.999 29.8151 34.4376 29.1867 34.6215 28.4261C34.796 27.7127 34.8384 26.7631 34.2254 26.2529C33.7491 25.8561 33.0795 25.7899 32.4853 25.7663C31.9242 25.7427 31.363 25.7899 30.7972 25.7994C30.17 25.8135 29.5476 25.7994 28.9251 25.875C28.2649 25.96 27.5435 26.1348 27.2181 26.782C26.921 27.3726 27.1191 28.034 27.3973 28.5867C27.7038 29.1914 28.147 29.782 28.6846 30.193C29.3589 30.7032 30.2125 30.93 31.0565 30.9064C31.9666 30.8828 31.9666 29.4655 31.0565 29.4891C30.552 29.5033 30.104 29.4229 29.6796 29.1631C29.4768 29.0403 29.3448 28.908 29.175 28.7237C29.1562 28.7048 29.0666 28.5867 29.1609 28.7096C29.1373 28.6765 29.1137 28.6434 29.0854 28.6104C29.0147 28.5159 28.944 28.4167 28.878 28.3174C28.7695 28.1568 28.6799 27.9867 28.5903 27.8119C28.4913 27.6277 28.6139 27.8828 28.5714 27.7694C28.5526 27.7175 28.5337 27.6702 28.5196 27.6182C28.5101 27.5805 28.5007 27.5379 28.4913 27.5001C28.4488 27.3537 28.4724 27.6041 28.4913 27.4576C28.5054 27.3206 28.4771 27.4623 28.4771 27.4812L28.4866 27.4293C28.5054 27.3679 28.5054 27.3631 28.4866 27.4151L28.4724 27.4529C28.5149 27.3868 28.5054 27.3915 28.4536 27.4623C28.4583 27.4623 28.5762 27.3631 28.4441 27.4623C28.4771 27.4387 28.5196 27.4151 28.5573 27.3962C28.4724 27.4387 28.5714 27.3962 28.5903 27.3868C28.7271 27.3442 28.8638 27.3159 29.0053 27.2923C29.4155 27.2261 30.0097 27.2261 30.4907 27.2261C30.9056 27.2261 31.3206 27.1978 31.7403 27.1883C31.9713 27.1836 32.1977 27.1789 32.4288 27.1883C32.5278 27.1883 32.6268 27.1978 32.7306 27.2025C32.7777 27.2025 32.8249 27.212 32.8767 27.2167C33.0465 27.2309 32.8154 27.1978 32.9616 27.2309C33.0654 27.2545 33.1644 27.2828 33.2681 27.3064C33.3011 27.3159 33.4049 27.3348 33.2587 27.297C33.2823 27.3017 33.3294 27.3301 33.353 27.3442C33.254 27.2734 33.3106 27.2167 33.3389 27.3962C33.3341 27.3537 33.3341 27.3301 33.3389 27.4576C33.3389 27.5474 33.3389 27.6371 33.3389 27.7222C33.3153 28.1899 33.1125 28.6812 32.7211 28.993C32.2637 29.3615 31.6413 29.4655 31.0801 29.4891C30.6982 29.508 30.3728 29.8009 30.3728 30.1977C30.3728 30.5662 30.6982 30.9253 31.0801 30.9064L31.0471 30.9017Z" fill="#333333"/>
<path d="M10.6098 66.906C12.147 66.7973 12.1565 66.906 13.6937 66.8021C15.231 66.6934 15.2263 66.6556 16.7635 66.5469C18.3008 66.4383 18.3055 66.4714 19.8428 66.3627C21.3801 66.254 21.3753 66.1501 22.9126 66.0414C24.4499 65.9328 24.4546 65.9848 25.9919 65.8761C26.6379 65.8288 27.0246 65.3092 26.9774 64.6619C26.869 63.1029 26.8831 63.1029 26.7746 61.5391C26.6662 59.9801 26.8029 59.9707 26.6945 58.4069C26.586 56.8479 26.5153 56.8526 26.4021 55.2936C26.2889 53.7345 26.3125 53.7298 26.2041 52.1708C26.0956 50.6118 26.1852 50.6023 26.0767 49.0386C25.9683 47.4748 25.8268 47.4842 25.7184 45.9252C25.6712 45.278 25.1572 44.7725 24.5112 44.815C22.9739 44.9237 22.9834 45.0607 21.4461 45.1693C19.9088 45.278 19.89 45.0276 18.3574 45.1363C16.8201 45.2449 16.839 45.4906 15.3017 45.5992C13.7645 45.7079 13.7597 45.6276 12.2178 45.7362C10.6805 45.8449 10.6711 45.7126 9.12908 45.8213C8.48305 45.8685 7.94547 46.5299 7.99263 47.1772C8.10109 48.7362 8.1671 48.7315 8.28028 50.2905C8.38874 51.8495 8.48776 51.8448 8.60094 53.4038C8.70939 54.9629 8.73297 54.9629 8.84143 56.5219C8.94989 58.0809 8.68582 58.0998 8.79899 59.6636C8.91216 61.2273 8.91216 61.2273 9.02062 62.7864C9.12908 64.3454 9.12908 64.3501 9.23753 65.9092C9.28469 66.5564 9.96844 66.9438 10.6192 66.8966L10.6098 66.906Z" fill="#FCFCFC"/>
<path d="M10.6099 67.6147C11.9397 67.5249 13.2694 67.5533 14.6039 67.4399C15.8347 67.336 17.0655 67.2273 18.3009 67.1659C19.5411 67.1045 20.7624 66.9722 21.9979 66.8352C23.356 66.684 24.7282 66.736 26.0863 66.5801C26.7606 66.5045 27.3312 66.0982 27.567 65.451C27.8028 64.8132 27.6424 64.0714 27.6 63.41C27.5245 62.1675 27.4349 60.9298 27.4444 59.6825C27.4538 58.3881 27.2558 57.1078 27.1473 55.818C27.0341 54.4385 26.9492 53.0448 26.8785 51.6606C26.8078 50.2764 26.8266 49.0339 26.6427 47.7252C26.473 46.5394 26.6239 44.9332 25.3884 44.3048C24.7235 43.9694 23.9124 44.1536 23.2051 44.2529C22.6157 44.3379 22.0356 44.4277 21.4415 44.4702C20.0834 44.5599 18.7678 44.3332 17.405 44.541C16.8627 44.6214 16.3346 44.7867 15.7923 44.8528C15.1179 44.9379 14.4342 44.9521 13.7551 44.9662C12.515 44.9946 11.2795 45.056 10.044 45.0796C9.30367 45.0938 8.55862 45.0938 7.97389 45.6135C7.38916 46.1331 7.25241 46.8512 7.31371 47.6166C7.41745 48.9111 7.5212 50.2197 7.68152 51.5047C7.83242 52.7378 7.92673 53.9755 8.03047 55.218C8.09178 55.955 8.17666 56.6968 8.15779 57.4338C8.14365 57.9629 8.05877 58.4873 8.06348 59.0164C8.0682 60.3817 8.23796 61.766 8.33698 63.1266C8.37942 63.7029 8.41715 64.2793 8.45959 64.8604C8.50674 65.5407 8.44544 66.3108 8.8887 66.8777C9.30367 67.4068 9.96385 67.6383 10.6193 67.6242C11.5294 67.6053 11.5294 66.188 10.6193 66.2069C9.8884 66.221 9.93555 65.7439 9.89311 65.1533C9.85539 64.6289 9.82238 64.1045 9.78466 63.5801C9.69978 62.3565 9.60547 61.1282 9.5253 59.9046C9.44514 58.681 9.62433 57.5944 9.54416 56.4322C9.45928 55.2275 9.3744 54.0228 9.26123 52.8181C9.15277 51.6275 9.02074 50.437 8.90285 49.2465C8.85569 48.7646 8.79439 48.2874 8.75195 47.8056C8.72837 47.5268 8.63406 47.1772 8.75195 46.9079C8.92643 46.4922 9.36497 46.53 9.7375 46.5158C10.8692 46.4686 12.0057 46.4591 13.1374 46.4119C14.2691 46.3646 15.5046 46.3835 16.6694 46.1473C17.8341 45.9111 18.8715 45.793 20.0268 45.8922C21.1868 45.9914 22.3233 45.8166 23.4692 45.6513C23.8606 45.5946 24.6481 45.3489 24.9263 45.7174C25.1149 45.9678 25.0536 46.4213 25.0866 46.719C25.1196 47.0166 25.1573 47.2906 25.2045 47.5741C25.379 48.7079 25.4214 49.8417 25.445 50.9898C25.4969 53.3378 25.7704 55.6716 25.9637 58.0054C26.0674 59.2668 26.0061 60.5235 26.091 61.7849C26.1287 62.3093 26.1617 62.8337 26.19 63.3581C26.2136 63.7691 26.4824 64.8321 26.157 65.1155C25.959 65.2903 25.4733 65.2242 25.2328 65.2384C24.9546 65.2525 24.6764 65.262 24.3981 65.2762C23.705 65.2998 23.007 65.3376 22.3186 65.4037C21.0171 65.5265 19.7345 65.6966 18.4235 65.7628C17.1975 65.8242 15.9715 65.9234 14.7501 66.0321C13.3732 66.1549 11.9962 66.1265 10.6193 66.2163C9.71392 66.2777 9.70921 67.695 10.6193 67.6336L10.6099 67.6147Z" fill="#333333"/>
<path d="M8.07771 66.5896C7.06858 66.2447 6.27637 65.503 5.85197 64.4637C5.43229 63.4385 5.22952 62.248 5.18237 61.3173C5.13521 60.3063 5.38985 59.3614 5.78124 58.5441C6.17263 57.7268 6.78565 56.9709 7.58258 56.3709C8.14844 55.941 8.93594 55.7945 9.61498 56.0071C10.294 56.2197 10.7986 56.8811 10.7373 57.5898C10.6807 58.1992 10.393 58.648 9.96864 59.0921C10.5958 59.1393 11.1051 59.5031 11.3786 60.07C11.6521 60.637 11.3362 61.4354 10.7184 61.5535C11.2183 61.8936 11.7888 62.3283 11.9492 62.9141C12.1095 63.4999 11.6851 64.2464 11.0768 64.2558C11.6191 64.4684 11.6993 65.1865 11.4257 65.7015C11.1522 66.2164 10.6807 66.514 10.1148 66.6699C9.43107 66.8589 8.74732 66.8211 8.07771 66.5896Z" fill="#FFE6D9"/>
<path d="M8.26637 65.9094C7.08749 65.4795 6.52162 64.4637 6.2104 63.3063C5.86144 62.0071 5.74356 60.6606 6.20096 59.3709C6.55935 58.3599 7.41758 57.0134 8.50687 56.6875C9.002 56.541 9.64331 56.6119 9.92625 57.0938C10.2375 57.6229 9.8225 58.2087 9.46884 58.5914C9.02086 59.078 9.36981 59.7299 9.96869 59.8008C10.2752 59.8386 10.643 60.0606 10.742 60.3772C10.8081 60.5803 10.7515 60.8118 10.5298 60.8732C9.9121 61.0433 9.87437 61.8323 10.3601 62.1677C10.6572 62.3756 11.0863 62.6354 11.223 62.9897C11.2749 63.122 11.2985 63.5236 11.0721 63.5425C10.445 63.6039 10.0206 64.5204 10.7137 64.8653C11.1617 65.0873 10.577 65.6873 10.3224 65.8291C9.68575 66.1834 8.92183 66.1172 8.25694 65.9094C7.38457 65.6354 7.01204 67.0007 7.8797 67.2747C9.11989 67.6668 10.6996 67.5723 11.6474 66.5755C12.4255 65.7582 12.5811 64.2133 11.4258 63.6417C11.3079 64.0811 11.19 64.5204 11.0674 64.9645C11.9917 64.87 12.6801 64.1236 12.6801 63.174C12.6801 62.1583 11.8266 61.4685 11.0674 60.9441L10.8976 62.2386C11.803 61.9882 12.3359 61.0339 12.1284 60.1221C11.8973 59.0969 10.9401 58.5016 9.95926 58.3882C10.1243 58.7898 10.2941 59.1961 10.4591 59.5977C11.3975 58.5725 11.8785 57.0749 10.7986 55.9457C9.77535 54.8733 8.08247 55.0717 7.00261 55.9268C5.86145 56.8292 5.03622 58.0906 4.66841 59.5032C4.29117 60.9535 4.47979 62.5362 4.91362 63.9582C5.38989 65.522 6.32357 66.7125 7.88441 67.2794C8.74264 67.5912 9.11046 66.2212 8.26166 65.9141L8.26637 65.9094Z" fill="#333333"/>
<path d="M34.4942 25.4264C34.5602 25.4689 34.6262 25.5114 34.6875 25.5586C34.7205 25.5823 34.7488 25.6059 34.7818 25.6295C34.8196 25.6579 34.8903 25.7382 34.7677 25.6201C34.8714 25.724 34.9987 25.809 35.1072 25.9082C35.2157 26.0075 35.3194 26.1161 35.4184 26.2248C35.4703 26.2815 35.5175 26.3429 35.5693 26.4043C35.6542 26.5035 35.508 26.3193 35.5599 26.3901C35.5835 26.4232 35.607 26.4515 35.6306 26.4846C35.7155 26.6027 35.7957 26.7256 35.8664 26.8531C35.9041 26.9193 35.9419 26.9901 35.9749 27.0563C35.9937 27.0893 36.0079 27.1271 36.022 27.1602C36.0645 27.2452 36.0173 27.1507 36.0032 27.1177C36.0503 27.2641 36.1116 27.4059 36.1493 27.5523C36.1682 27.6185 36.1823 27.6846 36.1965 27.7555C36.2059 27.7933 36.2106 27.8311 36.2201 27.8688C36.2012 27.7129 36.2484 28.0106 36.2201 27.8688C36.2436 28.0625 36.2861 28.2279 36.4276 28.3696C36.5502 28.4925 36.7529 28.5869 36.9274 28.5775C37.2716 28.5633 37.6819 28.261 37.6347 27.8688C37.5451 27.113 37.2905 26.3949 36.8472 25.7712C36.404 25.1476 35.8475 24.628 35.2062 24.2075C34.895 24.0043 34.4093 24.1366 34.2395 24.4626C34.0556 24.8169 34.1594 25.2138 34.4942 25.4311V25.4264Z" fill="#D6B4A5"/>
<path d="M45.2741 62.1296C44.911 61.0714 45.2552 59.8053 45.8541 58.5486C46.3728 57.4573 47.099 56.3801 48.0091 55.5534C49.0276 54.6274 50.1782 54.0132 51.2675 53.9282C51.89 53.8762 52.5077 54.1738 52.7341 54.7549C52.9604 55.336 52.6398 56.0967 52.022 56.1581C52.5549 56.5691 53.1396 56.862 53.7102 57.221C54.2808 57.5801 54.8231 58.0714 54.8513 58.747C54.8796 59.4226 54.21 60.1454 53.597 59.8761C53.913 60.3108 54.1063 60.7407 54.177 61.2698C54.2478 61.7989 54.078 62.4509 53.5499 62.5643C53.4225 62.5926 53.2764 62.5454 53.1726 62.621C52.9133 62.8099 53.0217 63.2115 53.0217 63.5328C53.0217 63.9863 52.6492 64.4162 52.2012 64.4587C51.7532 64.5013 51.3288 64.317 50.9139 64.1328C51.0553 64.3879 50.8573 64.5768 50.6262 64.7658C50.3952 64.9548 50.1499 65.0871 49.8576 65.1107C48.8815 65.191 47.8299 65.0115 47.0141 64.4776C46.1983 63.9438 45.59 63.0556 45.2741 62.1296Z" fill="#FFE6D9"/>
<path d="M45.9578 61.9409C45.6372 60.8873 46.0474 59.7724 46.5095 58.8228C46.9717 57.8732 47.5564 56.9803 48.3109 56.2433C49.0418 55.5252 49.9472 54.8969 50.9657 54.6843C51.2958 54.6134 51.7674 54.5614 51.9984 54.8732C52.1776 55.1095 52.121 55.4213 51.8334 55.4732C51.1685 55.5961 51.2298 56.4465 51.6636 56.7677C52.3049 57.2449 53.0736 57.5614 53.6866 58.0716C53.8941 58.2464 54.1581 58.4968 54.144 58.7944C54.1346 58.9834 53.9931 59.2574 53.7856 59.1913C53.2198 59.0118 52.635 59.7251 52.9887 60.2306C53.2528 60.6086 53.5168 61.0621 53.4838 61.5393C53.4791 61.6196 53.4744 61.7188 53.432 61.7944C53.4084 61.8322 53.3376 61.9078 53.4178 61.8605C53.215 61.9739 52.9651 61.8983 52.7435 62.059C52.3285 62.3613 52.2955 62.8432 52.3049 63.3156C52.3191 63.9865 51.7155 63.7172 51.2722 63.5235C50.7535 63.2967 50.0226 63.6794 50.2348 64.3219C50.3055 64.1188 50.2725 64.0952 50.1358 64.2558C50.0509 64.3219 49.9519 64.3692 49.8481 64.3975C49.6312 64.4542 49.3483 64.4211 49.1267 64.4117C48.6362 64.3833 48.1364 64.27 47.6978 64.0479C46.8585 63.6274 46.2785 62.8101 45.9625 61.9409C45.656 61.0905 44.2885 61.459 44.5997 62.3188C45.1703 63.8873 46.2785 65.1912 47.9289 65.64C48.6787 65.8479 49.6359 65.966 50.3857 65.7156C51.1355 65.4652 51.8664 64.7707 51.6023 63.9487C51.2581 64.2133 50.9091 64.4826 50.5649 64.7471C51.3807 65.1062 52.3474 65.4463 53.1207 64.8038C53.4084 64.5629 53.6111 64.2369 53.696 63.8731C53.7337 63.7172 53.7337 63.5519 53.729 63.3912C53.7196 63.292 53.7149 63.1975 53.7102 63.0983C53.3707 63.2542 53.3141 63.3109 53.5546 63.2731C54.2902 63.3062 54.7712 62.4936 54.8702 61.87C54.9975 61.0338 54.6863 60.1976 54.2147 59.5173C53.9507 59.8622 53.6819 60.2117 53.4178 60.5566C54.7334 60.9818 55.8086 59.5267 55.5068 58.3126C55.1484 56.8669 53.4555 56.3378 52.3851 55.5441C52.3285 55.974 52.2719 56.4087 52.2153 56.8386C53.6489 56.5787 53.8799 54.6559 52.8991 53.7678C51.7626 52.7284 49.999 53.3473 48.8532 54.0418C47.4715 54.878 46.3728 56.1346 45.59 57.5425C44.8072 58.9504 44.1046 60.6936 44.5997 62.3235C44.8638 63.1928 46.2313 62.8243 45.9625 61.9456L45.9578 61.9409Z" fill="#333333"/>
<path d="M50.0319 57.3439C50.013 57.3676 49.9942 57.3959 49.9753 57.4195C49.9093 57.5093 49.9753 57.4195 50.0036 57.3817C49.9659 57.4337 49.9235 57.481 49.8857 57.5329C49.8103 57.6274 49.7301 57.7172 49.6452 57.8069C49.4755 57.9865 49.2963 58.1613 49.1077 58.3219C49.0652 58.3597 49.0181 58.3928 48.9756 58.4305C48.9096 58.4825 49.1124 58.3313 49.0134 58.4022C48.9898 58.4211 48.9615 58.44 48.9379 58.4589C48.8389 58.5298 48.7399 58.5959 48.6361 58.662C48.4192 58.7943 48.1928 58.9124 47.9618 59.0116L48.1315 58.9408L48.0985 58.955C47.9193 59.0305 47.7779 59.1061 47.6741 59.2809C47.5845 59.4321 47.5468 59.6589 47.6034 59.829C47.66 59.999 47.7637 60.1644 47.9288 60.2541C48.0938 60.3439 48.3013 60.3959 48.4758 60.325C49.0652 60.0793 49.5887 59.7628 50.0838 59.3565C50.5365 58.9833 50.9137 58.5439 51.258 58.0715C51.3617 57.9298 51.3711 57.6841 51.3287 57.5235C51.2862 57.3628 51.1589 57.1786 51.0033 57.0983C50.8383 57.0132 50.6402 56.966 50.4563 57.0274C50.2724 57.0888 50.1498 57.1975 50.0319 57.3534V57.3439Z" fill="#333333"/>
<path d="M12.4639 51.3076L22.6673 60.4233" stroke="#007335" stroke-width="3"/>
<path d="M22.1147 50.7539L13.016 60.9763" stroke="#007335" stroke-width="3"/>
</g>
<defs>
<clipPath id="clip0_4_13582">
<rect width="62" height="103" fill="white"/>
</clipPath>
</defs>
</svg>
