<svg width="320" height="540" viewBox="0 0 320 540" fill="none" xmlns="http://www.w3.org/2000/svg">
<mask id="path-2-inside-1_40_1410" fill="white">
<path fill-rule="evenodd" clip-rule="evenodd" d="M95.5365 434.163C104.694 434.163 112.118 426.739 112.118 417.581C112.118 408.424 104.694 401 95.5365 401C86.3788 401 78.9551 408.424 78.9551 417.581C78.9551 421.782 80.5171 425.618 83.092 428.54C82.2896 429.388 81.7975 430.534 81.7975 431.794C81.7975 434.41 83.9186 436.531 86.5351 436.531C88.5426 436.531 90.2584 435.283 90.9484 433.52C92.4055 433.939 93.9448 434.163 95.5365 434.163Z"/>
</mask>
<path fill-rule="evenodd" clip-rule="evenodd" d="M95.5365 434.163C104.694 434.163 112.118 426.739 112.118 417.581C112.118 408.424 104.694 401 95.5365 401C86.3788 401 78.9551 408.424 78.9551 417.581C78.9551 421.782 80.5171 425.618 83.092 428.54C82.2896 429.388 81.7975 430.534 81.7975 431.794C81.7975 434.41 83.9186 436.531 86.5351 436.531C88.5426 436.531 90.2584 435.283 90.9484 433.52C92.4055 433.939 93.9448 434.163 95.5365 434.163Z" fill="#FD780F"/>
<path d="M83.092 428.54L84.182 429.57L85.1227 428.575L84.2174 427.548L83.092 428.54ZM90.9484 433.52L91.3627 432.078L90.0495 431.701L89.5516 432.973L90.9484 433.52ZM110.618 417.581C110.618 425.911 103.866 432.663 95.5365 432.663V435.663C105.523 435.663 113.618 427.567 113.618 417.581H110.618ZM95.5365 402.5C103.866 402.5 110.618 409.252 110.618 417.581H113.618C113.618 407.595 105.523 399.5 95.5365 399.5V402.5ZM80.4551 417.581C80.4551 409.252 87.2073 402.5 95.5365 402.5V399.5C85.5504 399.5 77.4551 407.595 77.4551 417.581H80.4551ZM84.2174 427.548C81.8746 424.89 80.4551 421.403 80.4551 417.581H77.4551C77.4551 422.161 79.1596 426.346 81.9667 429.531L84.2174 427.548ZM83.2975 431.794C83.2975 430.932 83.6323 430.152 84.182 429.57L82.0021 427.509C80.9468 428.625 80.2975 430.135 80.2975 431.794H83.2975ZM86.5351 435.031C84.747 435.031 83.2975 433.582 83.2975 431.794H80.2975C80.2975 435.239 83.0902 438.031 86.5351 438.031V435.031ZM89.5516 432.973C89.079 434.181 87.9046 435.031 86.5351 435.031V438.031C89.1806 438.031 91.4378 436.385 92.3452 434.067L89.5516 432.973ZM95.5365 432.663C94.0863 432.663 92.6864 432.459 91.3627 432.078L90.5342 434.962C92.1245 435.418 93.8032 435.663 95.5365 435.663V432.663Z" fill="#333333" mask="url(#path-2-inside-1_40_1410)"/>
<circle cx="80.3767" cy="437.479" r="2.09253" fill="#FD780F" stroke="#333333" stroke-width="1.5"/>
<mask id="path-5-outside-2_40_1410" maskUnits="userSpaceOnUse" x="82.7666" y="401.199" width="34" height="26" fill="black">
<rect fill="white" x="82.7666" y="401.199" width="34" height="26"/>
<path fill-rule="evenodd" clip-rule="evenodd" d="M113.873 407.288L105.187 419.855L102.125 416.491L110.3 405L109.037 404.245L114.4 403.199L115 408.116L113.873 407.288ZM87.5906 425.161L97.073 410.942L92.3722 410.874L84.7666 421.811L87.5906 425.161ZM105.187 419.855L105.187 419.855L100.052 419.78L94.7889 414.368L97.0731 410.943L105.187 419.855Z"/>
</mask>
<path fill-rule="evenodd" clip-rule="evenodd" d="M113.873 407.288L105.187 419.855L102.125 416.491L110.3 405L109.037 404.245L114.4 403.199L115 408.116L113.873 407.288ZM87.5906 425.161L97.073 410.942L92.3722 410.874L84.7666 421.811L87.5906 425.161ZM105.187 419.855L105.187 419.855L100.052 419.78L94.7889 414.368L97.0731 410.943L105.187 419.855Z" fill="#FFFCA9"/>
<path d="M113.873 407.288L114.761 406.079C114.434 405.839 114.024 405.742 113.625 405.809C113.225 405.876 112.869 406.102 112.639 406.435L113.873 407.288ZM102.125 416.491L100.902 415.622C100.493 416.197 100.54 416.979 101.015 417.501L102.125 416.491ZM110.3 405L111.522 405.869C111.765 405.528 111.854 405.101 111.768 404.691C111.682 404.282 111.428 403.927 111.069 403.712L110.3 405ZM109.037 404.245L108.749 402.773C108.139 402.892 107.666 403.375 107.559 403.987C107.452 404.6 107.734 405.214 108.267 405.533L109.037 404.245ZM114.4 403.199L115.889 403.017C115.839 402.604 115.619 402.23 115.282 401.985C114.945 401.74 114.522 401.647 114.113 401.726L114.4 403.199ZM115 408.116L114.112 409.325C114.594 409.679 115.241 409.713 115.757 409.411C116.274 409.109 116.561 408.528 116.489 407.934L115 408.116ZM97.073 410.942L98.3209 411.775C98.6257 411.318 98.6563 410.731 98.4007 410.244C98.145 409.758 97.6441 409.451 97.0948 409.443L97.073 410.942ZM87.5906 425.161L86.4437 426.128C86.7477 426.489 87.2037 426.685 87.6747 426.659C88.1457 426.632 88.5768 426.386 88.8385 425.993L87.5906 425.161ZM92.3722 410.874L92.3941 409.374C91.8953 409.367 91.4255 409.608 91.1407 410.018L92.3722 410.874ZM84.7666 421.811L83.5351 420.955C83.1478 421.512 83.1825 422.259 83.6197 422.778L84.7666 421.811ZM105.187 419.855L105.165 421.355C105.757 421.363 106.298 421.023 106.548 420.486C106.797 419.949 106.707 419.316 106.318 418.87L105.187 419.855ZM100.052 419.78L98.9762 420.826C99.2533 421.111 99.6322 421.274 100.03 421.28L100.052 419.78ZM94.7889 414.368L93.541 413.536C93.1486 414.124 93.2205 414.906 93.7135 415.413L94.7889 414.368ZM97.0731 410.943L98.1822 409.933C97.8714 409.592 97.4208 409.412 96.9604 409.447C96.5 409.482 96.0813 409.726 95.8251 410.11L97.0731 410.943ZM106.421 420.708L115.107 408.141L112.639 406.435L103.953 419.002L106.421 420.708ZM101.015 417.501L104.078 420.865L106.296 418.845L103.234 415.481L101.015 417.501ZM109.077 404.13L100.902 415.622L103.347 417.361L111.522 405.869L109.077 404.13ZM108.267 405.533L109.53 406.288L111.069 403.712L109.806 402.958L108.267 405.533ZM114.113 401.726L108.749 402.773L109.324 405.718L114.688 404.671L114.113 401.726ZM116.489 407.934L115.889 403.017L112.912 403.38L113.511 408.297L116.489 407.934ZM112.985 408.497L114.112 409.325L115.888 406.907L114.761 406.079L112.985 408.497ZM95.825 410.11L86.3426 424.329L88.8385 425.993L98.3209 411.775L95.825 410.11ZM92.3503 412.374L97.0511 412.442L97.0948 409.443L92.3941 409.374L92.3503 412.374ZM85.9981 422.668L93.6037 411.73L91.1407 410.018L83.5351 420.955L85.9981 422.668ZM88.7374 424.194L85.9135 420.844L83.6197 422.778L86.4437 426.128L88.7374 424.194ZM106.318 418.87L106.318 418.87L104.056 420.84L104.056 420.84L106.318 418.87ZM100.03 421.28L105.165 421.355L105.209 418.355L100.073 418.28L100.03 421.28ZM93.7135 415.413L98.9762 420.826L101.127 418.734L95.8643 413.322L93.7135 415.413ZM95.8251 410.11L93.541 413.536L96.0368 415.2L98.321 411.775L95.8251 410.11ZM106.296 418.845L98.1822 409.933L95.9639 411.953L104.078 420.865L106.296 418.845Z" fill="#333333" mask="url(#path-5-outside-2_40_1410)"/>
</svg>
