<svg width="62" height="102" viewBox="0 0 62 102" fill="none" xmlns="http://www.w3.org/2000/svg">
<g clip-path="url(#clip0_4_13632)">
<path d="M30.8726 91.8567C32.1735 91.8473 33.4366 91.8332 34.6763 91.8614C35.9442 91.8944 37.1979 91.9368 38.4658 91.9509C39.7055 91.9651 40.9498 92.0263 42.246 91.9745C42.2554 92.7283 42.312 94.9332 42.3308 95.9838C42.3308 96.0922 42.2884 96.1911 42.2931 96.2712C42.3025 96.8696 42.378 97.5339 42.6513 98.0097C43.019 98.6599 43.7213 98.853 44.2822 99.1734C44.8431 99.4938 45.4888 100.177 45.3992 100.983C44.3953 101.053 43.3442 101.105 42.3355 101.147C41.3269 101.19 40.3182 101.119 39.3095 101.138C38.3009 101.157 37.2969 101.322 36.2882 101.312C35.2796 101.303 34.2803 101.072 33.2717 101.039C32.8098 101.025 32.3714 101.025 31.9802 100.69C31.391 100.186 31.1884 99.2158 31.0564 98.3018C31.0422 98.2123 31.0752 98.1181 31.0658 98.0144C30.9904 97.2465 30.9527 96.0922 30.9621 94.9473C30.9715 93.746 30.9433 92.5493 30.8773 91.8661L30.8726 91.8567Z" fill="#333333"/>
<path d="M30.8729 92.5634C34.6577 92.5398 38.4615 92.8225 42.2463 92.6812L41.5393 91.9745C41.5534 92.7424 41.5723 93.5056 41.5864 94.2736C41.6053 95.1122 41.5299 95.9932 41.6147 96.8224C41.7137 97.8118 42.0436 98.6787 42.9015 99.244C43.5943 99.701 44.735 99.9507 44.6878 100.983L45.3949 100.276C43.4388 100.408 41.5016 100.412 39.5408 100.427C38.5322 100.431 37.5282 100.587 36.5195 100.601C35.5721 100.615 34.6436 100.427 33.7009 100.351C33.3616 100.323 32.9421 100.384 32.6263 100.257C32.2728 100.111 32.1078 99.7104 31.9994 99.3712C31.7637 98.6363 31.7449 97.8872 31.7072 97.1239C31.6176 95.3713 31.7354 93.6093 31.5799 91.8567C31.4998 90.9568 30.0857 90.9474 30.1659 91.8567C30.3356 93.793 30.18 95.7388 30.3261 97.6752C30.444 99.2111 30.6844 101.383 32.5697 101.68C33.503 101.831 34.4786 101.864 35.4213 101.958C36.5714 102.071 37.6932 101.915 38.8432 101.854C39.9273 101.798 41.0161 101.882 42.1002 101.854C43.1984 101.826 44.3013 101.755 45.3949 101.684C45.7908 101.656 46.083 101.383 46.1019 100.978C46.1443 99.9931 45.5504 99.1545 44.7538 98.6316C44.3909 98.396 43.9667 98.2688 43.6132 98.0144C43.2078 97.7223 43.0806 97.2935 43.024 96.813C42.9298 96.0168 43.0193 95.1546 43.0005 94.3443C42.9816 93.5528 42.9627 92.7613 42.9486 91.965C42.9439 91.5929 42.6281 91.2442 42.2416 91.2583C38.4615 91.3997 34.6577 91.117 30.8682 91.1406C29.9585 91.1453 29.9585 92.5587 30.8682 92.554L30.8729 92.5634Z" fill="#333333"/>
<path d="M43.4483 72.2574C43.4011 74.0666 43.2692 74.0619 43.222 75.871C43.1749 77.6802 43.2597 77.6802 43.2126 79.4893C43.1655 81.2985 43.0005 81.2937 42.9534 83.1029C42.9062 84.912 42.9345 84.912 42.8874 86.7212C42.8403 88.5303 42.9439 88.5303 42.8968 90.3395C42.8497 92.1486 42.9251 92.1486 42.878 93.9625C42.8308 95.7763 42.7224 95.7669 42.6753 97.5808C42.6611 98.0519 42.3548 98.3817 41.9683 98.3864C40.2055 98.3864 40.2055 98.4005 38.4474 98.4052C36.6846 98.4052 36.6846 98.4288 34.9217 98.4335C33.1589 98.4335 33.1589 98.4052 31.3961 98.41C31.0049 98.41 30.7645 98.0613 30.7645 97.5808C30.7645 95.9695 30.6891 95.9695 30.6891 94.3582C30.6891 92.7469 30.6467 92.747 30.6467 91.1357C30.6467 89.5244 30.7975 89.5244 30.7928 87.9131C30.7881 86.3019 30.6891 86.3019 30.6844 84.6906C30.6844 83.0793 30.5194 83.0793 30.5147 81.4681C30.51 79.8568 30.7315 79.8568 30.7268 78.2455C30.7268 76.6342 30.5242 76.6342 30.5242 75.0183C30.5242 73.407 30.708 73.407 30.7033 71.791" fill="#AFAFAF"/>
<path d="M42.7412 72.2572C42.7129 73.2089 42.5951 74.1512 42.5432 75.0982C42.4866 76.1158 42.5055 77.1287 42.5149 78.1464C42.5385 80.2523 42.2415 82.3347 42.2133 84.436C42.1567 88.3652 42.3122 92.3086 42.0247 96.2284C42.0106 96.4451 41.9965 96.6666 41.987 96.8833C41.9776 97.0482 42.0577 97.557 41.9305 97.6701C41.9022 97.6936 41.3554 97.6654 41.1857 97.6701C40.9171 97.6701 40.6437 97.6701 40.375 97.6748C39.324 97.6842 38.2729 97.6795 37.2218 97.6936C36.2225 97.7031 35.2233 97.7172 34.2241 97.7125C33.8093 97.7125 33.3945 97.7031 32.9797 97.6983C32.7629 97.6983 32.5461 97.6936 32.3246 97.6889C32.2162 97.6889 32.1077 97.6889 31.9946 97.6889C31.8674 97.6889 31.7354 97.6889 31.6081 97.6889C31.3725 97.6748 31.3159 97.6748 31.4337 97.6983C31.5186 97.7784 31.462 97.3309 31.462 97.345C31.462 97.2178 31.462 97.0906 31.462 96.9634C31.462 96.7231 31.4526 96.4875 31.4432 96.2473C31.4243 95.7808 31.4007 95.3191 31.396 94.8527C31.3819 93.8633 31.3677 92.874 31.3536 91.8893C31.3395 90.9046 31.4196 89.8493 31.4762 88.8175C31.5327 87.7857 31.4573 86.7634 31.4102 85.7363C31.3583 84.5868 31.3018 83.4466 31.2405 82.2971C31.1792 81.1475 31.3725 79.9979 31.4196 78.8295C31.4667 77.68 31.264 76.5681 31.2311 75.4232C31.1933 74.1983 31.4007 72.9969 31.4054 71.7767C31.4054 70.8674 29.9961 70.8674 29.9914 71.7767C29.9914 72.8933 29.8029 73.9957 29.8123 75.1123C29.8217 76.2289 30.0197 77.2559 30.015 78.3396C30.0103 79.4561 29.7888 80.5539 29.8029 81.6752C29.817 82.7541 29.9632 83.8188 29.9726 84.8977C29.982 85.9719 30.0857 87.0461 30.0763 88.1202C30.0668 89.1944 29.9254 90.2639 29.9302 91.3428C29.9302 92.417 29.9679 93.4911 29.9726 94.5653C29.982 95.6065 29.9584 96.7043 30.0621 97.7408C30.114 98.292 30.3968 98.8149 30.9341 99.0175C31.4714 99.2201 32.169 99.1023 32.7346 99.1117C33.8234 99.1259 34.9075 99.1353 35.9963 99.1259C37.0945 99.1165 38.1975 99.107 39.2957 99.0976C39.734 99.0976 40.1771 99.0929 40.6154 99.0882C41.1669 99.0882 41.8221 99.173 42.3547 99.0175C43.632 98.6453 43.3728 97.0152 43.4576 95.9881C43.5472 94.9045 43.5943 93.8256 43.5943 92.742C43.5896 90.6644 43.5472 88.5772 43.5943 86.4948C43.6226 85.2887 43.6179 84.0826 43.6603 82.8766C43.698 81.7411 43.8818 80.6198 43.9148 79.4797C43.9478 78.2736 43.8912 77.0675 43.9242 75.8614C43.9572 74.6553 44.1175 73.4586 44.1505 72.2478C44.1788 71.3385 42.7647 71.3385 42.7365 72.2478L42.7412 72.2572Z" fill="#333333"/>
<path d="M17.6374 98.9847C18.1983 98.669 18.9666 98.5795 19.3389 97.9341C19.6123 97.4582 19.5746 96.7845 19.5887 96.1862C19.5887 96.1061 19.65 96.0071 19.6547 95.9035C19.6783 94.8529 19.7443 92.6385 19.7631 91.8847C21.064 91.9507 22.3131 91.8612 23.5527 91.8565C24.8206 91.8517 26.0744 91.8141 27.3423 91.7905C28.5819 91.7669 29.8168 91.8941 31.113 91.9083C31.0423 92.5914 31.0753 93.741 31.0753 94.9471C31.0753 96.0872 30.9999 97.2415 30.9197 98.0047C30.9103 98.1084 30.8538 98.1932 30.8443 98.278C30.7029 99.1967 30.6558 100.271 30.0666 100.775C29.6754 101.109 29.1522 101.133 28.6903 101.142C27.6816 101.171 26.673 101.185 25.669 101.185C24.6651 101.185 23.6517 101.19 22.6477 101.166C21.6391 101.142 20.6351 101.044 19.6312 100.996C18.6272 100.945 17.6751 100.822 16.6712 100.747C16.591 99.9411 17.0859 99.3003 17.6468 98.9847H17.6374Z" fill="#333333"/>
<path d="M17.9958 99.5925C18.717 99.2156 19.5182 99.0507 19.9519 98.2875C20.3525 97.5808 20.2865 96.681 20.3619 95.8989C20.4939 94.575 20.4374 93.2087 20.4703 91.8801L19.7633 92.5868C21.6487 92.6669 23.5576 92.568 25.4477 92.5303C27.3378 92.4926 29.2184 92.5774 31.1132 92.6104L30.4062 91.9037C30.2506 93.6327 30.4062 95.3853 30.2884 97.1191C30.2365 97.8541 30.1234 98.5985 29.9773 99.3193C29.9207 99.5973 29.8689 99.9506 29.6709 100.167C29.4022 100.455 28.9309 100.422 28.5774 100.436C26.6025 100.492 24.6228 100.511 22.6479 100.459C20.673 100.408 18.6604 100.196 16.6714 100.04L17.3784 100.747C17.3548 100.238 17.5716 99.8611 18.0005 99.5925C18.7735 99.1167 18.0665 97.8918 17.2888 98.3723C16.4451 98.8906 15.9172 99.7433 15.9643 100.747C15.9832 101.152 16.2754 101.421 16.6714 101.454C18.8961 101.628 21.1161 101.859 23.3455 101.887C24.4296 101.901 25.5184 101.896 26.6025 101.887C27.5923 101.878 28.7235 101.991 29.685 101.736C30.5382 101.51 31.0425 100.855 31.2687 100.035C31.4761 99.291 31.594 98.4477 31.6647 97.675C31.8391 95.7528 31.6552 93.8212 31.8249 91.9037C31.8579 91.5174 31.4714 91.2017 31.1179 91.197C29.2231 91.164 27.3472 91.0792 25.4524 91.1169C23.5623 91.1546 21.6534 91.2535 19.7681 91.1734C19.3816 91.1546 19.0705 91.5126 19.061 91.8801C19.0328 93.0532 18.9998 94.2311 18.9668 95.4042C18.9621 95.6727 18.9149 95.9177 18.8914 96.1816C18.8584 96.5396 18.9196 96.9118 18.8395 97.2652C18.684 97.9766 17.8497 98.0755 17.2888 98.3676C16.4828 98.7869 17.1945 100.007 18.0005 99.5878L17.9958 99.5925Z" fill="#333333"/>
<path d="M31.5138 79.9513C31.4855 81.718 31.4384 81.718 31.4101 83.48C31.3819 85.2468 31.4903 85.2468 31.462 87.0135C31.4337 88.7803 31.4384 88.7803 31.4101 90.5423C31.3819 92.3043 31.2546 92.3043 31.2263 94.0711C31.198 95.8378 31.33 95.8378 31.297 97.6046C31.2876 98.0851 30.8681 98.4432 30.4769 98.4385C28.7141 98.4102 28.7141 98.3537 26.956 98.3254C25.1979 98.2971 25.1885 98.4337 23.4256 98.4055C21.6628 98.3772 21.6675 98.2123 19.9047 98.184C19.5229 98.1793 19.2684 97.8967 19.2637 97.4255C19.2401 95.6823 19.0987 95.6823 19.0752 93.9392C19.0516 92.196 19.1082 92.196 19.0846 90.4481C19.061 88.7049 19.0987 88.7049 19.0752 86.957C19.0516 85.2138 18.9055 85.2138 18.8819 83.4659C18.8584 81.7227 18.9526 81.718 18.9291 79.9748C18.9055 78.2269 18.9243 78.2269 18.9008 76.4837C18.8772 74.7405 18.8254 74.7405 18.8018 72.9926C18.7971 72.5027 19.193 72.0834 19.5937 72.0881C21.2386 72.1022 21.2386 72.0739 22.8883 72.0881C24.538 72.1022 24.538 72.1917 26.183 72.2058C27.8327 72.22 27.8327 72.2106 29.4824 72.2247C31.132 72.2388 31.132 72.2671 32.7817 72.2812" fill="#AFAFAF"/>
<path d="M30.8068 79.9509C30.788 81.0534 30.7267 82.1558 30.7031 83.2583C30.6796 84.3607 30.755 85.3548 30.755 86.4054C30.7597 88.6056 30.6843 90.7964 30.5476 92.9918C30.4816 94.0849 30.5193 95.1685 30.5664 96.2615C30.5806 96.5489 30.7314 97.5948 30.4957 97.7267C30.3214 97.8256 29.8217 97.7267 29.6096 97.7173C29.3645 97.7079 29.1242 97.6984 28.8791 97.689C27.7431 97.6372 26.6072 97.5854 25.4713 97.6466C24.3353 97.7079 23.289 97.7408 22.1955 97.6466C21.7854 97.6136 21.38 97.5571 20.9747 97.5288C20.6636 97.5053 20.3054 97.5477 20.0037 97.4864C19.7775 97.4393 20.0037 97.6136 19.9613 97.4346C19.9142 97.2273 19.9519 96.9635 19.9425 96.7468C19.8953 95.6726 19.7775 94.6078 19.7681 93.5289C19.7539 91.4465 19.8011 89.3641 19.7775 87.2864C19.7681 86.2123 19.6361 85.1522 19.5937 84.0827C19.5512 83.0227 19.6125 81.9721 19.6267 80.9167C19.6597 78.726 19.6125 76.5305 19.5324 74.3397C19.523 74.0335 19.5135 73.7273 19.5088 73.421C19.5088 73.3598 19.4711 73.0771 19.5041 73.0017C19.6125 72.7567 19.5183 72.8415 19.8152 72.8038C20.3714 72.7379 20.9747 72.8038 21.5356 72.8038C22.7375 72.7944 23.93 72.8462 25.1319 72.8981C27.6724 73.0111 30.2318 72.9735 32.777 72.997C33.6867 73.0064 33.6867 71.593 32.777 71.5836C30.2789 71.5601 27.7667 71.5836 25.2733 71.4894C24.1138 71.447 22.9637 71.3857 21.7995 71.3857C21.3235 71.3857 20.8521 71.3952 20.3761 71.3952C19.6644 71.3952 19.0092 71.3386 18.4954 71.9228C18.0288 72.4458 18.0901 73.1195 18.1042 73.7744C18.1184 74.2785 18.1419 74.7826 18.1608 75.2867C18.2032 76.4504 18.1985 77.6141 18.2032 78.7778C18.2174 81.1146 18.1372 83.4279 18.3163 85.76C18.4907 88.0685 18.3823 90.4289 18.3588 92.7421C18.3446 93.9388 18.4247 95.1072 18.5049 96.2992C18.5473 96.9211 18.4247 97.6796 18.75 98.2402C19.1365 98.914 19.8199 98.8904 20.5034 98.9234C21.6817 98.9752 22.8412 99.1401 24.029 99.1307C25.2073 99.1213 26.3762 99.027 27.5546 99.06C28.0354 99.0741 28.5161 99.0977 29.0016 99.1166C29.6096 99.1448 30.3402 99.272 30.92 99.0883C32.268 98.6643 32.0276 97.0153 31.9663 95.9129C31.8956 94.6125 31.9428 93.3263 32.0465 92.0307C32.1501 90.7304 32.1313 89.416 32.1502 88.1109C32.169 86.7729 32.1124 85.4396 32.1124 84.1016C32.1124 82.7212 32.1973 81.3407 32.2256 79.965C32.2397 79.0558 30.8257 79.0558 30.8115 79.965L30.8068 79.9509Z" fill="#333333"/>
<path d="M16.9068 54.1049C17.0011 53.516 17.0199 52.913 17.1754 52.3241C17.4205 51.4054 17.6609 50.4537 18.0663 49.5962C18.4763 48.7293 18.9948 47.8907 19.6641 47.2029C20.8378 45.9968 22.1528 45.7989 23.4725 45.7047C24.797 45.6104 26.1969 45.7282 27.6486 45.422C28.8128 45.177 30.01 45.0545 31.2119 45.0781C32.4186 45.0969 33.6205 45.1958 34.7705 45.5068C35.6708 45.7471 37.0518 46.1098 38.2632 46.6893C39.5358 47.3018 40.6152 48.1593 40.865 49.1675C41.1383 50.2699 41.3269 51.3912 41.5578 52.5031C41.7888 53.615 42.1564 54.7033 42.345 55.8199C42.5335 56.9364 42.6136 58.0766 42.7598 59.2026C42.9059 60.3286 43.0897 61.4546 43.1887 62.5853C43.2924 63.716 43.2358 64.8562 43.2971 65.9916C43.3536 67.127 43.495 68.2577 43.5092 69.3932C43.5233 70.5569 43.4998 71.5981 43.2122 72.4178C42.9106 73.28 42.2696 73.9113 40.9168 74.194C39.9411 74.3966 38.9183 74.5191 37.8767 74.5662C36.8633 74.6133 35.8311 74.6416 34.813 74.6274C33.7949 74.6133 32.7391 74.5756 31.754 74.5803C30.6369 74.585 29.5151 74.4296 28.398 74.4154C27.281 74.3966 26.1592 74.4248 25.0421 74.3824C23.925 74.34 22.808 74.2505 21.6909 74.1893C20.3617 74.1893 19.0278 73.737 17.939 72.9408C16.8267 72.1304 16.0207 71.0327 15.8934 69.6334C15.7473 68.041 15.4645 66.3873 15.521 64.7855C15.554 63.8244 15.9123 63.0046 16.0725 62.0671C16.294 60.7385 16.4119 59.4099 16.5014 58.086C16.591 56.7621 16.6947 55.443 16.9068 54.1144V54.1049Z" fill="#FCFCFC"/>
<path d="M17.5905 54.2931C17.9911 51.537 18.8065 47.5135 21.9551 46.6372C23.3597 46.2461 24.8538 46.411 26.2914 46.3074C27.1115 46.2461 27.9034 46.0671 28.7188 45.9399C29.5814 45.808 30.4581 45.7656 31.33 45.7797C32.8949 45.8127 34.3655 46.086 35.8596 46.5335C37.1888 46.934 38.6499 47.4334 39.6445 48.451C40.1441 48.9646 40.2478 49.5441 40.3939 50.2319C40.5683 51.047 40.7144 51.8667 40.8841 52.6818C41.2329 54.3402 41.6948 55.9185 41.8833 57.6145C42.0672 59.2682 42.35 60.9172 42.4914 62.5756C42.6328 64.234 42.5809 65.9065 42.7129 67.5696C42.826 69.0159 43.0145 70.6555 42.5951 72.0642C42.2133 73.3456 40.8322 73.5247 39.6775 73.6896C38.0796 73.9157 36.4346 73.9298 34.8227 73.911C33.206 73.8874 31.5846 73.8969 29.9726 73.7838C28.2946 73.666 26.6166 73.732 24.9387 73.666C24.1562 73.633 23.3738 73.5812 22.5914 73.5294C21.7524 73.4776 20.9229 73.4776 20.1122 73.2326C18.6981 72.8038 17.2276 71.7673 16.7609 70.3068C16.5111 69.5342 16.5111 68.672 16.4216 67.8711C16.3132 66.9194 16.2142 65.9583 16.233 64.9972C16.2519 64.1821 16.5111 63.433 16.6855 62.6462C16.8882 61.7322 16.9825 60.7806 17.0767 59.8524C17.2558 58.0009 17.3124 56.1399 17.5999 54.3025C17.7366 53.4121 16.3744 53.0304 16.2377 53.9256C15.9549 55.7442 15.8654 57.5769 15.7051 59.4096C15.625 60.3 15.5402 61.1999 15.3658 62.0762C15.1914 62.9525 14.9086 63.7204 14.8379 64.5779C14.6965 66.2928 15.0075 68.1114 15.2197 69.8121C15.4082 71.3103 16.2613 72.54 17.4538 73.4399C18.8725 74.514 20.4185 74.8109 22.1531 74.9192C23.9441 75.0323 25.7258 75.1077 27.5216 75.1124C29.3174 75.1171 31.2169 75.2631 33.0646 75.2961C34.8274 75.3291 36.5855 75.3668 38.3436 75.249C39.8471 75.1454 41.7089 75.0606 42.9297 74.0665C44.0044 73.1902 44.1976 71.7532 44.2353 70.4482C44.2872 68.6532 44.0279 66.877 43.9996 65.0867C43.9666 63.1739 43.7734 61.3271 43.5189 59.4331C43.2832 57.6711 43.1701 55.9091 42.727 54.18C42.5102 53.3367 42.2981 52.5028 42.1284 51.65C41.9446 50.7219 41.8268 49.7419 41.5298 48.8421C41.0538 47.4004 39.5973 46.4958 38.2776 45.9163C36.9013 45.3133 35.3788 44.8375 33.8894 44.5972C31.8391 44.2627 29.7416 44.3145 27.7007 44.7055C25.8484 45.0589 23.9536 44.8233 22.1059 45.172C20.2583 45.5206 18.9008 46.7503 17.9581 48.3333C16.9306 50.0576 16.53 51.9704 16.2425 53.9303C16.1105 54.8207 17.4727 55.2024 17.6046 54.3072L17.5905 54.2931Z" fill="#333333"/>
<path d="M23.6944 58.9246C23.7368 59.9752 23.6708 61.0258 23.7179 62.0764C23.7651 63.1271 23.8452 64.173 23.8829 65.2236C23.9206 66.2742 23.9253 67.3248 23.9489 68.3707C23.9725 69.4214 24.095 70.4673 24.0997 71.5179C24.0997 72.5685 24.0385 73.6192 24.0102 74.6698C23.9772 75.9136 22.5066 76.3517 20.9135 76.3753C19.4476 76.3988 17.8451 76.1444 17.0815 76.1114C16.794 76.0973 16.5159 75.9465 16.3085 75.744C16.1388 75.5744 16.0351 75.3623 15.9927 75.1268C15.8466 74.2929 15.7193 73.4496 15.5732 72.6156C15.4271 71.7817 15.3234 70.8677 15.1773 70.0291C13.834 69.9679 12.5095 69.4968 11.5008 68.611C10.4922 67.7253 9.78515 66.538 9.36095 65.2895C9.064 64.4085 8.75292 63.4192 8.70578 62.3921C8.65865 61.4121 8.98388 60.4228 9.17241 59.4616C9.37509 58.4581 9.4835 57.4217 9.95484 56.6066C10.4403 55.768 11.0955 55.0283 11.7224 54.2886C12.3492 53.549 13.1175 52.9365 13.7821 52.2392C14.7484 51.2263 15.6109 50.1662 16.5866 49.2428C17.5623 48.3194 18.5945 47.4431 19.9048 46.873C21.5262 46.1663 23.487 45.8035 23.5436 48.1969C23.5718 49.3889 23.6048 50.5855 23.6143 51.7775C23.6237 52.9695 23.3597 54.1661 23.3739 55.3581C23.388 56.5501 23.6378 57.7373 23.6897 58.9293L23.6944 58.9246Z" fill="#AFAFAF"/>
<path d="M22.9873 58.9244C23.0203 59.9373 22.9684 60.9503 23.0061 61.9632C23.0438 62.9761 23.124 63.9844 23.1664 64.9973C23.2512 67.0184 23.3219 69.049 23.3832 71.0702C23.4115 72.0454 23.3596 73.0207 23.3219 73.9959C23.2936 74.7591 23.2936 75.1643 22.5065 75.4376C20.9511 75.9746 19.1176 75.5789 17.5245 75.4376C17.1191 75.3999 16.8033 75.3952 16.6713 74.9382C16.5158 74.3916 16.4781 73.7839 16.3838 73.2279C16.1953 72.1019 16.0444 70.9665 15.8512 69.8452C15.7993 69.5296 15.46 69.3458 15.1678 69.327C13.7302 69.2375 12.4246 68.658 11.4536 67.5838C10.4779 66.5049 9.95474 65.1056 9.61537 63.7111C9.43626 62.995 9.34671 62.2694 9.4504 61.5298C9.56353 60.7288 9.7992 59.942 9.94531 59.1505C10.0679 58.4768 10.1668 57.756 10.4732 57.1341C10.8079 56.4462 11.3263 55.8479 11.8165 55.2684C12.8158 54.0859 13.9894 53.0824 15.0264 51.9375C16.0633 50.7927 17.0107 49.7326 18.1655 48.7856C19.0893 48.0318 20.164 47.4005 21.3376 47.132C22.1671 46.9388 22.7422 47.1084 22.827 48.0271C22.9119 48.894 22.8742 49.7892 22.8883 50.6607C22.9024 51.5323 22.893 52.4463 22.8035 53.3462C22.7139 54.2461 22.6291 55.1271 22.695 56.0317C22.7657 57.0022 22.9307 57.9633 22.9778 58.9338C23.025 59.8384 24.439 59.8431 24.3919 58.9338C24.3447 58.0245 24.1892 57.0776 24.1138 56.1447C24.0384 55.2025 24.1185 54.2838 24.2128 53.3509C24.3117 52.3804 24.3117 51.4193 24.2929 50.444C24.2787 49.563 24.3117 48.649 24.208 47.7727C24.0666 46.609 23.3455 45.7516 22.1436 45.6526C20.9417 45.5537 19.6502 46.1379 18.651 46.7268C17.2228 47.5654 16.002 48.7621 14.8897 49.9776C14.2581 50.6702 13.65 51.3863 12.9855 52.0412C12.368 52.6489 11.7128 53.2143 11.1472 53.8739C10.5816 54.5335 10.0254 55.1836 9.5541 55.9044C9.0969 56.6017 8.8518 57.365 8.68683 58.1753C8.33804 59.9279 7.796 61.6617 8.1118 63.4567C8.42288 65.247 9.13932 67.0561 10.3271 68.446C11.5573 69.8876 13.2965 70.632 15.1678 70.7451C14.9415 70.5708 14.7153 70.4012 14.4843 70.2268C14.6776 71.3528 14.8284 72.4836 15.0169 73.6096C15.1819 74.6084 15.163 75.8333 16.0727 76.4741C16.7609 76.9593 17.812 76.8886 18.6227 76.9687C19.6455 77.0677 20.6871 77.1572 21.7099 77.0394C22.5207 76.9452 23.3738 76.752 24.0007 76.1961C24.7029 75.5742 24.6982 74.7638 24.7312 73.8922C24.8161 71.5601 24.6558 69.2516 24.6181 66.9195C24.5945 65.605 24.5286 64.2953 24.4579 62.9856C24.3872 61.6758 24.4343 60.286 24.3872 58.9338C24.3542 58.0245 22.9401 58.0245 22.9731 58.9338L22.9873 58.9244Z" fill="#333333"/>
<path d="M21.432 45.7988C20.5412 46.138 19.853 46.8353 19.2355 47.5609C18.6181 48.2864 18.0431 49.0732 17.8404 50.006C17.7037 50.6421 17.6566 51.3299 17.8262 51.9518C18.2222 53.3935 19.6268 54.3263 20.8758 55.1555C19.8012 56.0224 18.5662 57.1531 18.7454 58.5194C18.8255 59.1413 19.1224 59.7585 19.4948 60.2673C20.4516 61.577 21.5922 62.769 22.7706 63.8856" fill="#AFAFAF"/>
<path d="M21.2434 45.1155C20.1357 45.5772 19.3062 46.3593 18.5473 47.278C17.7885 48.1967 17.1946 49.2379 17.0485 50.4864C16.7515 53.0164 18.6133 54.5005 20.5175 55.7631C20.4704 55.3909 20.4232 55.0234 20.3761 54.6512C18.9338 55.8196 17.5198 57.365 18.2221 59.3531C18.5709 60.3378 19.2496 61.1434 19.9142 61.9302C20.6495 62.7971 21.446 63.6027 22.2709 64.3848C22.9308 65.0114 23.93 64.0126 23.2701 63.386C22.0211 62.1988 20.5552 60.8843 19.7492 59.3437C19.3863 58.6464 19.3344 57.968 19.7539 57.2943C20.1734 56.6206 20.7862 56.1353 21.3753 55.6595C21.7524 55.3532 21.5733 54.7784 21.2339 54.5476C19.8388 53.6195 18.2598 52.583 18.4436 50.689C18.5332 49.7609 18.9668 48.9929 19.5513 48.2815C20.1357 47.5701 20.772 46.8352 21.6204 46.4818C22.4689 46.1285 22.0871 44.7716 21.2434 45.1202V45.1155Z" fill="#333333"/>
<path d="M29.7272 56.8185C29.7272 56.5782 29.647 56.3615 29.5716 56.1354C29.2511 55.146 28.3461 54.5335 28.035 53.53C27.7758 52.7055 27.7287 51.6219 27.8654 50.7597C28.1717 48.8375 29.5103 47.8576 31.259 48.1921C32.8568 48.4983 33.3565 49.5913 33.413 50.8398C33.4649 51.9988 33.069 53.3133 32.6118 54.4393C32.1828 55.4993 32.164 56.6395 32.1781 57.7749C32.1923 58.8868 32.3431 60.0081 32.5929 61.1152C32.8427 62.2224 33.2528 63.3201 33.5591 64.3519C33.9362 65.6145 34.0116 66.8819 33.8372 68.2246C33.7995 68.5073 33.314 69.4872 32.7437 70.4672C32.1027 71.5649 31.5889 72.6061 31.5937 72.6155C31.0846 71.9277 30.5049 71.2964 29.9958 70.6085C29.4868 69.9207 29.0579 69.1763 28.5488 68.4884C28.4027 68.2905 28.2189 68.1445 28.1529 67.8665C28.0775 67.5462 28.1812 67.2211 28.2377 66.8913C28.4027 65.8878 28.3886 64.856 28.5488 63.8572C28.7091 62.8584 28.8882 61.8596 29.0531 60.8561C29.2181 59.8526 29.4538 58.8679 29.6329 57.8691C29.6942 57.5252 29.7272 57.1671 29.7272 56.8185Z" fill="#95BECE"/>
<path d="M30.4343 56.8187C30.3353 55.5654 29.5293 54.8163 28.926 53.794C28.3793 52.8659 28.3651 51.4807 28.6479 50.4631C28.8742 49.6527 29.4209 48.979 30.2835 48.8518C31.1602 48.7246 32.1877 49.0732 32.5271 49.9401C32.9418 50.9955 32.6166 52.2534 32.282 53.2805C32.0887 53.8788 31.8106 54.4489 31.6739 55.0613C31.509 55.7775 31.4665 56.5171 31.4618 57.2474C31.4524 58.6843 31.6127 60.1213 31.9567 61.5158C32.2773 62.8209 32.824 64.0647 33.0832 65.3838C33.2341 66.1706 33.2529 66.9857 33.1775 67.7819C33.1257 68.352 32.8334 68.8419 32.5648 69.3413C32.0274 70.3496 31.2922 71.3389 30.9104 72.4272L32.2018 72.2576C31.3629 71.1411 30.4767 70.0857 29.7037 68.922C29.4398 68.5263 28.8129 67.9562 28.8412 67.4709C28.8789 66.7784 29.0486 66.0717 29.1004 65.3697C29.2088 63.9139 29.4869 62.4817 29.732 61.04C29.9771 59.5983 30.4013 58.2415 30.4296 56.8139C30.4485 55.9047 29.0344 55.9047 29.0156 56.8139C28.9873 58.2886 28.516 59.7868 28.2709 61.2379C28.0163 62.7596 27.7807 64.2625 27.6534 65.7984C27.5968 66.4627 27.347 67.193 27.446 67.8573C27.5309 68.4603 27.9786 68.8749 28.3086 69.3602C28.7281 69.9774 29.1193 70.6087 29.5718 71.1976C30.029 71.7959 30.5333 72.3613 30.9858 72.9643C31.3534 73.4543 32.0651 73.4025 32.2773 72.7947C32.1688 73.1057 32.3951 72.578 32.4375 72.4979C32.5648 72.2482 32.7015 71.9985 32.8334 71.7488C33.2105 71.061 33.6206 70.3872 33.9741 69.69C34.2097 69.2283 34.4737 68.743 34.5397 68.22C34.6481 67.4285 34.6575 66.6229 34.568 65.8267C34.3936 64.2767 33.762 62.8444 33.3708 61.3415C32.9607 59.7632 32.8004 58.1237 32.8947 56.4936C32.9843 54.9294 33.8091 53.5584 34.0353 52.0178C34.2003 50.8965 34.1438 49.6339 33.4367 48.6963C32.0699 46.8825 29.0439 47.0427 27.809 48.8942C27.0218 50.072 26.9605 51.6503 27.1868 53.0025C27.3046 53.7092 27.5686 54.3358 27.9881 54.9153C28.4076 55.4948 28.9637 56.0743 29.0203 56.8092C29.091 57.7091 30.505 57.7185 30.4343 56.8092V56.8187Z" fill="#333333"/>
<path d="M38.6453 58.9197C38.6029 59.9703 38.7113 61.0256 38.6641 62.0715C38.617 63.1174 38.4426 64.1634 38.4049 65.214C38.3672 66.2646 38.5369 67.3199 38.5133 68.3706C38.4897 69.4212 38.4096 70.4671 38.4049 71.5177C38.4049 72.5683 38.4568 73.6143 38.485 74.6649C38.518 75.8521 39.6021 76.2809 40.9407 76.3751C42.185 76.4646 43.5849 76.1584 44.3155 76.1913C44.867 76.2196 45.5268 76.328 45.8662 75.8898C46.0689 75.6307 46.0877 75.2726 46.1207 74.9476C46.215 74.0289 46.2339 73.1007 46.3281 72.182C46.3423 72.0218 46.3705 71.7957 46.4837 71.6826C46.5685 71.5931 46.7476 71.6025 46.8654 71.5648C47.8835 71.2209 48.8215 70.6932 49.6699 70.0337C50.5183 69.3788 51.2583 68.592 51.8569 67.7063C52.4602 66.8158 52.9787 65.8594 53.2521 64.8229C53.5255 63.7864 53.5679 62.7076 53.4312 61.624C53.2898 60.5027 52.875 59.4473 52.4461 58.4014C52.0266 57.3791 51.5694 56.418 51.0415 55.5134C50.4948 54.5711 49.9621 53.6383 49.3023 52.8044C48.6424 51.9705 47.8553 51.2308 47.0775 50.4723C46.3234 49.7373 45.5834 48.9552 44.7209 48.2721C43.929 47.6455 42.5763 46.8257 41.4121 46.4441C40.1112 46.0201 39.1119 46.2321 39.0648 48.1967C39.0365 49.3887 38.9847 50.5806 38.9752 51.7726C38.9658 52.9646 38.8668 54.1565 38.8527 55.3485C38.8385 56.5404 38.6924 57.7277 38.6453 58.9197Z" fill="#AFAFAF"/>
<path d="M37.9382 58.9196C37.891 60.4272 37.9994 61.9113 37.8486 63.4189C37.7732 64.1633 37.6836 64.9124 37.6931 65.6662C37.6978 66.4577 37.8015 67.2445 37.8062 68.0313C37.8203 69.5295 37.6742 71.0277 37.7119 72.5259C37.7402 73.666 37.5045 75.2396 38.3718 76.1395C39.9508 77.7837 42.8118 76.8603 44.7914 76.9215C45.2958 76.9357 45.8001 76.8744 46.2055 76.5493C46.7004 76.1489 46.7805 75.5411 46.8418 74.9428C46.9125 74.2125 46.9455 73.4823 46.9973 72.752C47.002 72.6672 47.0916 72.2196 47.0492 72.1772L47.0633 72.0972L46.9313 72.2668C47.233 72.2809 47.7043 71.9982 47.9777 71.8757C50.4051 70.7921 52.3847 68.7239 53.4688 66.3069C54.0391 65.0349 54.2842 63.6592 54.2088 62.2693C54.1287 60.8418 53.6809 59.5226 53.1389 58.2082C52.0642 55.6028 50.6596 53.0446 48.6659 51.0234C46.7758 49.1059 44.8857 47.1319 42.3688 46.0483C41.4921 45.6714 40.3656 45.2756 39.4559 45.7797C38.4001 46.3687 38.3765 47.6878 38.3482 48.7432C38.3011 50.4204 38.2822 52.0976 38.2068 53.7701C38.1267 55.485 38.023 57.1953 37.9476 58.9055C37.9052 59.8147 39.3192 59.8147 39.3616 58.9055C39.4842 56.2577 39.6491 53.6241 39.701 50.9763C39.7151 50.345 39.734 49.709 39.7528 49.0777C39.767 48.5406 39.7104 47.9375 39.8801 47.4193C40.078 46.8209 40.5824 46.9199 41.1056 47.0706C43.3303 47.7255 44.98 49.3839 46.5872 50.9528C47.5158 51.862 48.4679 52.7525 49.2079 53.8314C49.929 54.882 50.5795 56.0127 51.1404 57.1576C52.2386 59.4002 53.2237 61.883 52.6345 64.413C52.0972 66.7215 50.4098 68.8039 48.416 70.0383C47.9306 70.3398 47.4168 70.6131 46.8748 70.8015C46.3799 70.9759 45.9509 71.0277 45.7435 71.5836C45.5456 72.1113 45.5786 72.7662 45.5456 73.3174C45.5079 73.8969 45.5927 74.6931 45.39 75.2396C45.2392 75.6401 44.7773 75.4846 44.4049 75.4705C43.9383 75.4516 43.4811 75.5081 43.0192 75.56C42.0058 75.6683 40.8463 75.8191 39.8707 75.4375C39.4842 75.2867 39.2485 75.07 39.2061 74.646C39.1259 73.911 39.1495 73.1384 39.1354 72.3987C39.1024 70.8958 39.2626 69.4023 39.2343 67.9041C39.2202 67.1503 39.1307 66.4012 39.1212 65.6521C39.1118 64.903 39.2014 64.1539 39.2768 63.4048C39.4276 61.8972 39.3192 60.4131 39.3663 58.9055C39.3946 57.9962 37.9806 57.9962 37.9523 58.9055L37.9382 58.9196Z" fill="#333333"/>
<path d="M40.9122 45.8931C41.803 46.2323 42.576 46.7929 43.1982 47.5138C43.8203 48.2393 44.2775 49.0826 44.4755 50.0155C44.6122 50.6515 44.7112 51.3205 44.5368 51.9471C44.1409 53.3888 42.8258 54.3357 41.5768 55.1602C42.6514 56.0271 43.7921 57.1437 43.6082 58.5147C43.5281 59.1366 43.2076 59.7255 42.84 60.2343C41.8831 61.5441 40.7614 62.7454 39.583 63.8573" fill="#AFAFAF"/>
<path d="M40.7236 46.5712C42.3827 47.2402 43.5564 48.7761 43.858 50.524C44.1927 52.465 42.6703 53.5863 41.2232 54.5522C40.8792 54.783 40.7048 55.3578 41.0819 55.664C41.6663 56.1399 42.2696 56.6487 42.6514 57.3083C43.0615 58.015 42.9531 58.717 42.5524 59.4048C41.6804 60.8936 40.3324 62.1845 39.0928 63.3623C38.4329 63.9889 39.4322 64.9877 40.092 64.3611C40.9122 63.579 41.704 62.7687 42.4299 61.9018C43.0615 61.148 43.7402 60.3612 44.0984 59.4331C44.862 57.4637 43.5422 55.8525 42.0811 54.6652C42.034 55.0374 41.9868 55.4049 41.9397 55.7771C43.8816 54.4815 45.6538 52.922 45.2579 50.3685C44.895 48.0128 43.3019 46.1001 41.1007 45.2143C40.257 44.8751 39.8894 46.2414 40.7236 46.5759V46.5712Z" fill="#333333"/>
<path d="M39.1826 46.5292C39.4795 47.4903 39.6963 48.4985 39.7105 49.502C39.7246 50.5856 39.522 51.7823 38.8338 52.6162C38.2305 53.3465 37.2737 53.615 36.3263 53.6574C35.4119 53.6951 34.4833 53.4407 33.7009 52.9648C32.9185 52.489 32.2586 51.8294 31.6741 51.0944C31.0897 50.3595 30.6372 49.6528 30.1517 48.866C30.0669 50.7458 29.5154 51.8907 28.0307 53.0685C27.6678 53.3559 27.2577 53.6244 26.8288 53.7893C25.674 54.2322 24.3024 53.7893 23.3974 52.946C22.4925 52.1074 22.0541 50.8872 21.9787 49.6528C21.9033 48.4184 22.1295 47.1888 22.5584 46.0298" fill="#FCFCFC"/>
<path d="M38.5039 46.7172C39.1261 48.7902 39.6775 52.5451 36.6798 52.9267C33.8235 53.2895 32.0654 50.6181 30.7598 48.5075C30.3827 47.895 29.4824 48.1683 29.44 48.8655C29.3835 49.935 29.1289 50.9526 28.3937 51.7677C27.5782 52.6676 26.4753 53.5062 25.198 53.1622C22.172 52.3519 22.4029 48.5169 23.2325 46.2131C23.5389 45.3556 22.172 44.9881 21.8703 45.8362C21.2576 47.5464 20.9795 49.5251 21.5592 51.2871C22.0777 52.8701 23.3268 54.2082 24.9953 54.5662C26.6968 54.929 28.2051 54.0433 29.341 52.823C30.3733 51.7112 30.7739 50.359 30.854 48.8655C30.4157 48.9833 29.9774 49.1011 29.5343 49.2236C31.2405 51.9797 33.5642 54.9526 37.2171 54.2647C40.9219 53.5674 40.705 49.1294 39.8661 46.345C39.6068 45.4781 38.2399 45.8456 38.5039 46.7219V46.7172Z" fill="#333333"/>
<path d="M6.4195 19.401C7.20663 19.401 7.99848 19.7402 8.68193 20.0323C8.98358 18.9487 9.29938 17.8416 9.74716 16.8286C10.1996 15.8016 10.704 14.8028 11.2931 13.8605C11.887 12.9135 12.5846 12.0325 13.3011 11.1845C14.0175 10.3364 14.7999 9.52608 15.6342 8.78641C16.4685 8.04673 17.3923 7.41542 18.3255 6.80294C19.2541 6.19518 20.1638 5.51676 21.1771 5.04562C22.1905 4.57449 23.2557 4.23057 24.3351 3.9102C25.4145 3.58983 26.4844 3.31186 27.6015 3.15167C28.7186 2.99149 29.8168 2.87842 30.948 2.87842C32.0792 2.87842 33.201 3.05274 34.2898 3.21292C35.3786 3.37311 36.458 3.76886 37.5185 4.08451C38.579 4.40017 39.7244 4.58391 40.7283 5.05033C41.7464 5.52147 42.7079 6.11509 43.6365 6.72756C44.565 7.34003 45.4228 8.07971 46.2571 8.81468C47.0914 9.55435 47.7937 10.4212 48.5148 11.274C49.236 12.122 50.0655 12.8994 50.6594 13.8464C51.2533 14.7933 51.621 15.8581 52.0734 16.8852C52.5212 17.8981 53.0256 18.8404 53.3272 19.924C54.0248 19.6177 54.7318 19.6177 55.5425 19.6177C56.5842 19.6177 57.5928 19.7496 58.4318 20.2396C59.2708 20.7296 60.0956 21.4599 60.5953 22.3314C61.0949 23.203 61.2881 24.2113 61.2881 25.2525C61.2881 26.2937 61.0478 27.316 60.567 28.1546C60.0862 28.9932 59.3132 29.7847 58.4507 30.2841C57.5881 30.7835 56.5889 30.8919 55.5472 30.8919C54.9015 30.8919 54.383 30.9437 53.808 30.7411C53.5817 31.919 53.1104 32.9602 52.7192 34.072C52.3185 35.198 51.8943 36.3052 51.3334 37.3464C50.7678 38.397 50.2117 39.4665 49.4999 40.4088C48.7835 41.3557 47.9916 42.2697 47.1385 43.0989C46.2854 43.9281 45.2673 44.5736 44.3011 45.2661C43.3348 45.9493 42.3403 46.6041 41.2751 47.1365C40.2193 47.6642 39.1022 48.0741 37.9615 48.4368C36.8398 48.7949 35.685 49.0634 34.4972 49.2472C33.3094 49.4309 32.1593 49.6571 30.9527 49.6571C29.7461 49.6571 28.5536 49.511 27.3941 49.332C26.2063 49.1483 25.028 48.9127 23.9109 48.5593C22.7703 48.1966 21.6626 47.7254 20.6115 47.1978C19.5463 46.6654 18.5612 45.9775 17.5997 45.2944C16.6287 44.6065 15.6766 43.8857 14.8235 43.0612C13.9704 42.2368 13.2209 41.3039 12.5045 40.3569C11.7881 39.4147 11.1376 38.4206 10.572 37.37C10.0064 36.3193 9.62461 35.2122 9.22397 34.0862C8.82804 32.979 8.36613 31.919 8.13989 30.7411C7.57899 30.9249 7.05109 31.1086 6.42892 31.1086C5.38726 31.1086 4.46344 30.6092 3.62445 30.124C2.7619 29.6198 1.90878 29.0309 1.40916 28.1641C0.909538 27.2972 0.702148 26.3031 0.702148 25.2619C0.702148 24.2207 1.05094 23.269 1.53171 22.4304C2.03133 21.5635 2.75719 20.8992 3.62445 20.3951C4.46344 19.9051 5.39198 19.4151 6.42892 19.4151L6.4195 19.401Z" fill="#FFE6D9"/>
<path d="M6.41968 20.1078C7.08898 20.1313 7.71587 20.381 8.32389 20.6401C8.73867 20.8145 9.22887 20.7014 9.36084 20.2161C9.87931 18.3599 10.5203 16.6072 11.4724 14.93C12.4245 13.2528 13.5652 11.8488 14.8519 10.5155C16.1858 9.13039 17.7035 8.07505 19.2872 7.00558C20.0744 6.47321 20.8615 5.95025 21.7335 5.56392C22.6338 5.16346 23.5812 4.87136 24.5191 4.59339C28.4124 3.43912 32.4329 3.23182 36.3356 4.45205C38.1314 5.0127 39.9319 5.35191 41.5863 6.28475C43.2407 7.22231 44.7773 8.33889 46.1395 9.66748C46.8842 10.393 47.5252 11.2128 48.2086 11.9949C48.8638 12.744 49.585 13.4365 50.1034 14.294C50.6502 15.1939 51.0037 16.1879 51.4232 17.149C51.8521 18.1337 52.347 19.0807 52.644 20.1172C52.7429 20.4517 53.153 20.7579 53.5159 20.6119C54.2654 20.3103 55.0572 20.3103 55.8538 20.3339C56.6975 20.3575 57.5082 20.5035 58.234 20.9511C59.6858 21.8415 60.5012 23.2455 60.5719 24.9416C60.6426 26.6188 60.0346 28.1735 58.7195 29.2477C58.0926 29.7612 57.3715 30.0439 56.5702 30.1381C55.7548 30.2324 54.7791 30.2983 53.9873 30.0628C53.6385 29.9591 53.1907 30.19 53.1153 30.5575C52.922 31.5044 52.578 32.3996 52.2386 33.3042C51.8804 34.2558 51.5599 35.2264 51.131 36.1498C50.3014 37.9354 49.2833 39.6409 47.9965 41.1391C46.6579 42.6938 45.1025 43.8575 43.4198 45.0118C41.723 46.1802 39.9366 47.0471 37.9759 47.6831C35.9774 48.3333 33.8281 48.762 31.7306 48.9175C29.6567 49.0682 27.4933 48.7196 25.4807 48.2532C23.4445 47.782 21.4507 46.967 19.6785 45.8598C18.0288 44.8233 16.3791 43.6596 15.0169 42.2651C13.4662 40.6774 12.0946 38.8023 11.0718 36.8329C10.5722 35.8624 10.2234 34.8259 9.85575 33.8036C9.46925 32.7294 9.03562 31.6787 8.80937 30.5527C8.73396 30.19 8.28619 29.945 7.9374 30.0581C7.23039 30.2936 6.54223 30.4962 5.7928 30.3266C5.07636 30.1664 4.42591 29.7848 3.80375 29.4126C2.49814 28.6305 1.65915 27.6411 1.44234 26.0911C1.23966 24.6448 1.68272 23.1136 2.66782 22.0253C3.56336 21.0359 5.05751 20.1502 6.41025 20.1078C7.31994 20.0795 7.31994 18.6661 6.41025 18.6944C4.6333 18.7509 2.69139 19.8204 1.54603 21.1631C0.348828 22.5812 -0.188499 24.428 0.0565978 26.2654C0.311121 28.1688 1.31979 29.5351 2.93177 30.5339C3.70005 31.0097 4.53432 31.4809 5.42044 31.6882C6.42911 31.919 7.35293 31.74 8.31918 31.4196L7.4472 30.9249C7.65459 31.9473 8.02695 32.9084 8.38988 33.8836C8.76224 34.8919 9.1016 35.9048 9.53995 36.8848C10.3884 38.7787 11.6516 40.4983 12.9713 42.0908C14.3429 43.7444 15.9926 45.04 17.746 46.2603C19.5229 47.5041 21.4413 48.484 23.5057 49.1672C25.5891 49.855 27.8609 50.2131 30.0479 50.3356C32.2727 50.4581 34.6105 50.0435 36.7645 49.5064C38.8714 48.9834 40.9594 48.206 42.8259 47.0848C44.6925 45.9635 46.4694 44.7856 47.94 43.3016C49.6132 41.6102 50.8906 39.7068 51.9935 37.6103C52.545 36.5691 52.9692 35.4666 53.3651 34.3595C53.7752 33.2241 54.2512 32.1169 54.4916 30.9296C54.1994 31.0945 53.9119 31.2594 53.6196 31.4243C54.6047 31.7211 55.7689 31.6505 56.7776 31.528C57.8287 31.3961 58.7478 31.0239 59.5774 30.3643C61.2365 29.0451 62.0802 27.0475 61.9953 24.9416C61.9058 22.7979 60.9112 21.0123 59.1154 19.8298C58.2246 19.2456 57.2207 18.9959 56.1696 18.9346C55.1703 18.8734 54.0863 18.8734 53.1483 19.2503L54.0203 19.745C53.7422 18.7933 53.3227 17.9029 52.9079 17.0077C52.4931 16.1126 52.1443 15.1326 51.6871 14.228C50.8387 12.5367 49.3776 11.161 48.1427 9.74757C46.8276 8.23524 45.2486 6.92078 43.5612 5.84189C42.7364 5.31422 41.888 4.8054 40.9924 4.40494C40.0969 4.00448 39.0882 3.78776 38.1126 3.52392C37.1369 3.26009 36.1895 2.89732 35.2044 2.67589C34.1863 2.44503 33.1164 2.31782 32.0794 2.23302C29.9867 2.05399 27.7949 2.31783 25.7587 2.80309C23.7226 3.28836 21.6015 3.90554 19.8057 4.99385C18.1325 6.00679 16.4309 7.12337 14.9792 8.43311C13.3201 9.9266 11.8024 11.6981 10.6287 13.5967C9.4174 15.5472 8.61612 17.6484 7.99867 19.8486C8.34275 19.7073 8.69154 19.566 9.03562 19.4246C8.18249 19.0618 7.35293 18.732 6.41497 18.6991C5.477 18.6661 5.50528 20.0795 6.41497 20.1125L6.41968 20.1078Z" fill="#333333"/>
<path d="M36.6797 25.9215C36.6797 26.7649 37.3301 27.4716 38.1691 27.4716C39.0081 27.4716 39.7245 26.7601 39.7245 25.9215C39.7245 25.0782 39.0081 24.3291 38.1691 24.3291C37.3301 24.3291 36.6797 25.0782 36.6797 25.9215Z" fill="#333333"/>
<path d="M22.2427 25.9218C22.2427 26.7651 22.8978 27.4718 23.7368 27.4718C24.5758 27.4718 25.3818 26.7651 25.3818 25.9218C25.3818 25.0784 24.5758 24.3623 23.7368 24.3623C22.8978 24.3623 22.2427 25.0784 22.2427 25.9218Z" fill="#333333"/>
<path d="M32.362 26.1292C31.9472 25.8654 31.4288 25.6863 30.9291 25.7429C30.6275 25.7759 30.3824 25.8418 30.109 25.969C29.878 26.0727 29.6801 26.2234 29.4774 26.3836C29.3454 26.4873 29.27 26.7228 29.27 26.883C29.27 27.0573 29.3454 27.2646 29.4774 27.3824C29.6094 27.5002 29.7885 27.5991 29.977 27.5897L30.1656 27.5662C30.2834 27.5332 30.3871 27.4719 30.4767 27.3824L30.5049 27.3589L30.3635 27.4672C30.5144 27.3494 30.6746 27.2505 30.849 27.1751L30.6793 27.2458C30.8066 27.194 30.9338 27.1563 31.0705 27.1374L30.882 27.161C31.0045 27.1468 31.1318 27.1421 31.2544 27.161L31.0658 27.1374C31.2119 27.1563 31.3486 27.194 31.4853 27.2505L31.3156 27.1798C31.4335 27.2317 31.5419 27.2882 31.6456 27.3541C31.9567 27.552 32.4374 27.4295 32.6118 27.0997C32.7956 26.7511 32.6919 26.3459 32.3573 26.1339L32.362 26.1292Z" fill="#333333"/>
<path d="M41.2847 29.3185C41.2847 30.6518 41.8974 31.8344 42.7647 32.706C43.6367 33.5823 44.815 34.0157 46.1489 34.0157C47.4781 34.0157 48.6847 33.6058 49.552 32.7295C50.4192 31.8579 50.8859 30.6518 50.8859 29.3185C50.8859 27.9852 50.4664 26.7367 49.5991 25.8651C48.7271 24.9888 47.4781 24.3999 46.1489 24.3999C44.8197 24.3999 43.6932 25.1113 42.826 25.9876C41.9587 26.8592 41.2894 27.9852 41.2894 29.3185H41.2847Z" fill="#EDBBA6"/>
<path d="M10.949 29.3184C10.949 30.6517 11.5429 31.7918 12.4102 32.6681C13.2822 33.5444 14.4228 34.2229 15.752 34.2229C17.0812 34.2229 18.3726 33.6905 19.2446 32.8142C20.1119 31.9426 20.4701 30.647 20.4701 29.3184C20.4701 27.9851 20.0082 26.7978 19.1409 25.9215C18.269 25.0452 17.0812 24.5034 15.752 24.5034C14.4228 24.5034 13.301 25.1112 12.4291 25.9875C11.5571 26.8638 10.9443 27.9851 10.9443 29.3137L10.949 29.3184Z" fill="#EDBBA6"/>
<path d="M11.2836 20.8665C11.1941 21.1115 11.1281 21.3706 11.0385 21.6156C10.9113 21.9736 10.685 22.4636 10.308 22.4872C10.0581 22.5013 9.78477 22.3081 9.61037 22.1338C8.79967 21.3329 8.4933 20.2681 8.30947 19.1516C8.14451 18.1245 8.12094 17.0173 8.3519 15.8772C8.564 14.8219 8.95521 13.7712 9.39356 12.7442C9.8319 11.7171 10.3645 10.7089 10.9348 9.82315C11.6041 8.77253 12.2782 7.84911 12.9475 7.20837C13.7393 6.44985 14.5359 5.67248 15.4408 5.0553C16.3458 4.43812 17.3356 3.93401 18.3254 3.45345C19.3153 2.9729 20.3428 2.57715 21.3797 2.21909C22.4167 1.86103 23.4913 1.59719 24.5518 1.35692C25.6312 1.11193 26.72 0.94232 27.7899 0.810403C28.8929 0.678486 30.0052 0.702043 31.1176 0.711465C32.23 0.720888 33.3376 0.725599 34.4405 0.881073C35.5435 1.03655 36.6181 1.29567 37.6928 1.59719C38.659 1.87045 39.6818 2.09659 40.6716 2.45936C41.6615 2.82214 42.6324 3.15664 43.5515 3.63248C44.4706 4.10832 45.3615 4.69724 46.158 5.32856C47.0724 6.0541 47.8124 6.97281 48.6043 7.84911C49.3961 8.72542 50.2068 9.55932 50.8997 10.5063C51.5125 11.3449 52.1346 12.2306 52.6342 13.1776C53.1339 14.1246 53.4827 15.1469 53.7419 16.1552C54.0011 17.1634 54.1143 18.2517 53.9823 19.3023C53.855 20.3058 53.5581 21.3235 52.9406 22.2893C52.7757 22.5484 52.5258 22.7557 52.2383 22.8688C51.5973 23.1185 51.0458 22.4919 50.8432 21.8323C50.6405 21.1727 50.697 20.433 50.419 19.8064C50.1079 19.0997 49.2453 18.7841 48.6326 18.3177C47.7747 17.6628 47.0206 16.8619 46.2665 16.0892C45.5123 15.3165 44.9231 14.4073 44.2915 13.531C43.6599 12.6547 43.1038 11.7454 42.6041 10.789C42.1045 9.83257 41.5436 8.97983 41.1901 7.96218C40.2003 8.55581 39.2105 9.01752 38.1971 9.56874C37.1837 10.12 36.2034 10.7466 35.1664 11.2507C34.1295 11.7548 32.9935 12.0563 31.9377 12.518C30.8819 12.9797 29.8167 13.4132 28.7373 13.8372C27.658 14.2612 26.6681 14.8972 25.5746 15.2741C24.4811 15.651 23.3452 15.8866 22.2376 16.2211C21.1299 16.5509 20.0364 16.9372 18.9193 17.2246C17.7975 17.5073 16.638 17.611 15.5068 17.8465C14.3756 18.0821 13.1878 18.2705 12.0472 18.459C11.7738 19.2269 11.5617 20.0938 11.2883 20.8665H11.2836Z" fill="#8E816E"/>
<path d="M10.6004 20.678C10.5061 20.9607 10.4401 21.2669 10.3129 21.5449C10.1573 21.8841 10.1998 21.7427 9.97823 21.4977C9.52103 20.9983 9.29007 20.3435 9.13453 19.698C8.78103 18.2092 8.82345 16.6875 9.24294 15.2223C9.66243 13.7571 10.2563 12.419 10.9775 11.1281C11.6609 9.90791 12.448 8.68768 13.4473 7.70301C14.5125 6.65239 15.6107 5.70541 16.9211 4.97045C18.2738 4.20721 19.6878 3.56176 21.1537 3.04352C23.9676 2.04472 27.0172 1.4134 30.0102 1.4134C31.5703 1.4134 33.154 1.37571 34.7 1.63012C36.246 1.88454 37.6459 2.30855 39.1023 2.70902C41.8973 3.48167 44.6877 4.68306 46.7239 6.80786C48.76 8.93267 50.8198 11.1187 52.1301 13.7241C52.8041 15.0715 53.2943 16.6639 53.3368 18.1763C53.3556 18.8783 53.2708 19.5708 53.0869 20.2445C52.9974 20.5696 52.889 20.89 52.7429 21.1962C52.6156 21.4695 52.3846 22.1102 52.0594 22.1762C51.4985 22.2892 51.4137 21.0643 51.3618 20.711C51.2629 19.9995 51.1026 19.3353 50.5747 18.8123C50.1316 18.3694 49.5425 18.1103 49.0429 17.7381C48.3783 17.2481 47.7985 16.6404 47.2235 16.0515C46.1111 14.9113 45.1637 13.6204 44.2965 12.2824C43.8298 11.5616 43.4245 10.8031 43.0144 10.0492C42.6044 9.29544 42.166 8.56989 41.8738 7.76897C41.7182 7.34966 41.2563 7.09996 40.8368 7.34495C39.9271 7.88204 38.9798 8.34375 38.0465 8.84315C37.1839 9.30486 36.3497 9.8231 35.4871 10.2895C34.5774 10.7795 33.6253 11.1187 32.6591 11.4768C31.6693 11.8443 30.7125 12.2918 29.7321 12.6876C28.8365 13.0504 27.9457 13.3943 27.0831 13.823C26.2206 14.2517 25.3156 14.6381 24.3541 14.9113C23.3784 15.1846 22.398 15.4249 21.4271 15.7264C20.4985 16.0185 19.57 16.3341 18.6226 16.565C17.5338 16.8288 16.412 16.9419 15.3138 17.1633C14.2156 17.3848 13.0089 17.5826 11.8542 17.7758C11.6091 17.8182 11.4347 18.0538 11.3593 18.2705C11.0812 19.0667 10.8738 19.8818 10.6004 20.678C10.2987 21.5401 11.6656 21.9076 11.9626 21.0549C12.2407 20.2587 12.448 19.4436 12.7214 18.6474L12.2265 19.1421C14.2344 18.8076 16.247 18.4684 18.2502 18.0915C20.2346 17.7193 22.1435 16.9655 24.0901 16.4519C25.0422 16.1975 25.9708 15.9195 26.8663 15.505C27.7666 15.0856 28.6386 14.6381 29.5624 14.2753C30.5522 13.8795 31.5279 13.4414 32.5177 13.0456C33.4462 12.6735 34.4078 12.3861 35.3222 11.9668C36.3732 11.4815 37.3489 10.8502 38.3576 10.2942C39.4134 9.71003 40.5022 9.1965 41.5391 8.58403L40.5022 8.16001C41.0819 9.75243 41.9963 11.3072 42.8966 12.7394C43.7968 14.1716 44.716 15.5097 45.8425 16.6734C46.4175 17.2717 46.9972 17.8747 47.6288 18.4165C48.1992 18.9065 48.8826 19.2363 49.4529 19.7169C49.9714 20.1503 49.9384 20.857 50.0421 21.4742C50.1646 22.2092 50.4804 22.9959 51.1497 23.4011C52.7193 24.3481 53.8222 22.4023 54.2653 21.1915C54.8498 19.5897 54.8639 17.8465 54.4821 16.1975C53.6855 12.763 51.5787 10.0728 49.2597 7.51927C48.1379 6.28491 47.0774 5.0741 45.7011 4.11299C44.3247 3.15188 42.8306 2.50172 41.261 1.93165C39.6113 1.3286 37.8815 0.871603 36.1706 0.489986C34.4172 0.0895243 32.6779 0.0141433 30.8963 9.3492e-06C27.3801 -0.0282585 23.878 0.551233 20.5645 1.75262C17.251 2.954 14.3711 4.55114 12.0663 7.09054C10.8219 8.46624 9.81797 10.1246 9.04026 11.8019C8.21542 13.5733 7.50841 15.4673 7.47541 17.4413C7.44713 19.1091 7.74879 21.0408 8.85644 22.3552C9.32778 22.9111 10.0536 23.4341 10.7984 23.0666C11.5431 22.6991 11.7222 21.7616 11.9626 21.0502C12.2548 20.188 10.8879 19.8158 10.6004 20.6733V20.678Z" fill="#333333"/>
<path d="M26.6637 30.9296C27.9127 31.8577 29.487 32.0414 31 32.0697C32.513 32.098 34.092 31.9425 35.407 31.118C36.1753 30.6375 35.4683 29.4125 34.6953 29.8978C33.5877 30.5904 32.2773 30.6799 31 30.6563C29.7133 30.6328 28.4359 30.5008 27.3754 29.7093C27.069 29.4832 26.5836 29.6575 26.4092 29.9637C26.1971 30.3218 26.3573 30.7034 26.6637 30.9296Z" fill="#333333"/>
<path d="M35.6712 29.0781C35.8314 29.1535 35.9917 29.2336 36.1425 29.3278C36.2085 29.3702 36.2792 29.4126 36.3405 29.4598C36.3735 29.4833 36.4065 29.5069 36.4347 29.5304C36.5054 29.5823 36.3216 29.4409 36.4253 29.521C36.5573 29.6341 36.6893 29.7519 36.8071 29.8791C36.8637 29.9356 36.9155 29.9968 36.9626 30.0581C36.9909 30.0958 37.0192 30.1335 37.0522 30.1665C37.0003 30.1146 36.9815 30.0769 37.0428 30.157C37.1417 30.2937 37.2313 30.4303 37.3114 30.5763C37.3491 30.647 37.3868 30.7177 37.4198 30.7883C37.4387 30.826 37.4575 30.8826 37.4811 30.9203C37.4387 30.8637 37.434 30.8072 37.4717 30.9061C37.533 31.0616 37.5848 31.2218 37.6272 31.3867C37.6461 31.4668 37.6649 31.5422 37.6791 31.6223C37.6885 31.6694 37.6979 31.7165 37.7074 31.7636C37.7356 31.9096 37.6885 31.6128 37.7074 31.7683C37.7498 32.1358 37.9996 32.4938 38.4144 32.475C38.7584 32.4609 39.1685 32.1593 39.1214 31.7683C39.0177 30.9344 38.7584 30.1335 38.2635 29.4456C37.7781 28.7719 37.1417 28.2065 36.3829 27.8626C36.0482 27.7119 35.6052 27.7543 35.4166 28.117C35.2517 28.428 35.3129 28.9227 35.6712 29.0829V29.0781Z" fill="#D6B4A5"/>
<path d="M18.3396 68.8981C19.8762 68.7897 19.8762 68.8132 21.4127 68.7049C22.9493 68.5965 22.9352 68.3939 24.467 68.2856C26.0036 68.1772 26.013 68.328 27.5496 68.2196C29.0861 68.1113 29.0767 67.9699 30.6133 67.8616C32.1498 67.7532 32.1593 67.8474 33.6958 67.7391C34.3416 67.6919 34.8553 67.1502 34.8129 66.5047C34.7045 64.95 34.5914 64.9547 34.483 63.3999C34.3746 61.8452 34.3651 61.8452 34.2567 60.2905C34.1483 58.7357 34.2709 58.7263 34.1625 57.1716C34.0541 55.6168 33.9221 55.6263 33.809 54.0668C33.7006 52.5074 33.8184 52.5027 33.7053 50.9432C33.5969 49.3838 33.6487 49.3838 33.5403 47.8243C33.4932 47.1789 32.8616 46.7643 32.2158 46.8067C30.6793 46.915 30.6698 46.7549 29.1333 46.8632C27.5967 46.9716 27.6014 47.0093 26.0648 47.1176C24.5283 47.226 24.5377 47.3673 23.0011 47.4757C21.4646 47.5841 21.4599 47.5275 19.9233 47.6359C18.3867 47.7442 18.382 47.7065 16.8454 47.8149C16.1997 47.862 15.8462 48.4274 15.8933 49.0728C16.0017 50.6276 15.9122 50.637 16.0206 52.1917C16.129 53.7465 16.1149 53.7512 16.2233 55.3059C16.3317 56.8606 16.3835 56.8559 16.4967 58.4107C16.6098 59.9654 16.5485 59.9701 16.6569 61.5296C16.7653 63.089 16.7936 63.0843 16.902 64.6437C17.0104 66.2032 16.9209 66.2079 17.0293 67.7673C17.0764 68.4128 17.6891 68.9546 18.3349 68.9075L18.3396 68.8981Z" fill="#FCFCFC"/>
<path d="M18.3398 69.6051C19.6784 69.5109 21.0358 69.5014 22.3603 69.313C23.5905 69.1387 24.7594 68.9361 26.0132 68.9596C27.2669 68.9879 28.4736 68.8183 29.7085 68.6534C31.0377 68.4744 32.3715 68.578 33.7007 68.4414C34.37 68.3754 34.9639 68.0551 35.3033 67.452C35.6662 66.8018 35.5012 66.0056 35.407 65.3036C35.2514 64.0693 35.1525 62.8396 35.0629 61.6006C34.9686 60.3191 34.9639 59.047 34.9074 57.7655C34.8508 56.3757 34.568 55.0188 34.4926 53.6337C34.4219 52.3381 34.403 51.0331 34.3465 49.7375C34.2946 48.5125 34.5114 46.9154 33.1964 46.2888C32.5554 45.9825 31.8484 46.1333 31.1649 46.1333C30.5569 46.1333 29.9583 46.1003 29.355 46.1333C28.0117 46.2087 26.6448 46.317 25.3062 46.4678C24.0571 46.6091 22.8411 46.7882 21.5779 46.8306C20.3477 46.873 19.1222 46.9625 17.8967 47.0285C17.2463 47.0614 16.5063 47.0143 15.9407 47.3959C15.3043 47.8294 15.1582 48.5643 15.1959 49.2852C15.2666 50.6043 15.2949 51.9235 15.3798 53.2474C15.4646 54.6137 15.5683 55.9752 15.6956 57.3415C15.8417 58.8727 15.8605 60.4133 15.9736 61.9445C16.0773 63.3626 16.2329 64.7713 16.2517 66.1941C16.2612 66.9102 16.1857 67.763 16.478 68.4225C16.8032 69.1575 17.5291 69.6004 18.3256 69.6051C19.2353 69.6051 19.2353 68.1964 18.3256 68.1917C17.5951 68.1917 17.694 67.3531 17.6752 66.8301C17.6563 66.3024 17.661 65.7701 17.6375 65.2424C17.5762 63.9986 17.4395 62.7642 17.3547 61.5205C17.2745 60.3426 17.2557 59.1601 17.1614 57.9823C17.0672 56.7762 16.9352 55.5795 16.8598 54.3734C16.7844 53.2238 16.6807 52.0743 16.6618 50.9247C16.6524 50.4442 16.6477 49.9683 16.6194 49.4878C16.6052 49.2522 16.4921 48.7999 16.6901 48.602C16.888 48.4042 17.3594 48.4748 17.5998 48.4607C19.8811 48.3288 22.2189 48.3523 24.4813 48.0037C26.706 47.6645 28.9779 47.5467 31.2262 47.542C31.641 47.542 32.5224 47.297 32.7863 47.7304C32.9324 47.9707 32.8665 48.4607 32.8806 48.7387C32.8947 48.9884 32.8994 49.2381 32.9089 49.4925C32.9513 50.6609 33.022 51.8199 33.0408 52.993C33.0597 54.1661 33.2482 55.2544 33.3755 56.3945C33.5122 57.6195 33.4509 58.8397 33.5216 60.0647C33.597 61.3179 33.6866 62.5711 33.795 63.8196C33.8374 64.3001 33.9034 64.776 33.9694 65.2518C34.0259 65.6853 34.3229 66.6134 33.9128 66.9243C33.5216 67.2259 32.5177 67.0798 32.0275 67.0892C31.3252 67.0987 30.6229 67.1316 29.9206 67.2117C28.6433 67.3531 27.4036 67.5745 26.1074 67.5509C24.8113 67.5274 23.6235 67.6593 22.3791 67.8854C21.0547 68.1257 19.6595 68.0975 18.3162 68.1917C17.4112 68.2529 17.4065 69.6663 18.3162 69.6051H18.3398Z" fill="#333333"/>
<path d="M15.7662 68.5212C14.7576 68.1773 13.9563 67.367 13.5321 66.3305C13.1126 65.3081 13.1409 64.0926 13.0937 63.1645C13.0466 62.1562 13.0419 61.1904 13.4331 60.3754C13.829 59.5509 14.5785 58.9337 15.375 58.3354C15.9406 57.9066 16.6429 57.7088 17.3216 57.9255C18.0004 58.1422 18.5424 58.7547 18.4764 59.4614C18.4199 60.0691 17.8873 60.6062 17.4631 61.0491C18.0899 61.0962 18.8629 61.3412 19.1363 61.9113C19.4097 62.4813 19.1599 63.3199 18.5424 63.4377C19.042 63.7769 19.5417 64.1727 19.6972 64.7569C19.8527 65.3411 19.4097 66.0996 18.8064 66.109C19.3484 66.3211 19.5275 67.0937 19.2541 67.6072C18.9808 68.1208 18.3963 68.3752 17.8354 68.5307C17.152 68.7191 16.4355 68.7521 15.7662 68.5259V68.5212Z" fill="#FFE6D9"/>
<path d="M15.9548 67.8427C14.7906 67.414 14.1307 66.3115 13.9327 65.1337C13.829 64.5354 13.8338 63.9229 13.8055 63.3151C13.7772 62.6414 13.7253 61.9489 13.8715 61.2893C14.0082 60.6862 14.3192 60.2057 14.7529 59.7722C15.1865 59.3388 15.738 58.8111 16.3271 58.618C16.8126 58.4578 17.5055 58.5897 17.7223 59.1126C17.9391 59.6356 17.2934 60.2057 16.9634 60.5543C16.5157 61.0254 16.8645 61.7039 17.4631 61.7604C17.7694 61.7887 18.2643 61.8782 18.4576 62.1562C18.5754 62.321 18.5896 62.698 18.3539 62.7639C17.7364 62.9382 17.6987 63.7203 18.1842 64.0548C18.4764 64.2574 18.8865 64.5212 18.9902 64.884C19.0279 65.0206 19.0091 65.3834 18.8064 65.407C18.1795 65.4682 17.7553 66.3869 18.4482 66.7261C18.9666 66.9805 18.5047 67.5082 18.1654 67.6731C17.4819 68.0076 16.6712 68.0736 15.9501 67.8521C15.0781 67.5883 14.7057 68.9499 15.573 69.2137C16.8126 69.5906 18.5236 69.3975 19.4945 68.4552C20.3382 67.6354 20.2911 66.0524 19.1599 65.5059C19.0421 65.9441 18.9242 66.3822 18.8017 66.8251C19.7066 66.7308 20.3901 66.0194 20.4278 65.0913C20.4655 64.0737 19.6595 63.367 18.8959 62.8393L18.7263 64.1302C19.6878 63.8569 20.1591 62.778 19.8575 61.8499C19.5275 60.8229 18.4293 60.446 17.4584 60.3517C17.6233 60.7522 17.793 61.1574 17.958 61.5578C18.4387 61.0537 18.9666 60.5072 19.1269 59.8052C19.2824 59.1409 19.0703 58.4625 18.6226 57.9584C17.5479 56.7523 15.8841 57.0585 14.734 57.9442C13.5415 58.8629 12.613 59.8947 12.4197 61.44C12.3255 62.1703 12.3726 62.9005 12.4009 63.6355C12.4292 64.3705 12.4622 65.1337 12.6366 65.864C13.0042 67.414 14.0836 68.6672 15.5777 69.2137C16.4308 69.5294 16.8032 68.1631 15.9548 67.8521V67.8427Z" fill="#333333"/>
<path d="M44.537 66.4814C45.8473 66.7217 46.955 66.2175 47.8458 65.5721C48.7366 64.9266 49.3918 63.9043 49.7029 62.75C50.0139 61.5958 50.0422 60.4509 49.6133 59.339C49.2268 58.3355 48.0437 57.8927 47.0728 57.5582C46.5166 57.3697 45.8944 57.2472 45.3477 57.4592C44.7962 57.6712 44.3107 58.2036 44.2825 58.7925C44.2542 59.3814 44.7915 59.8573 45.3807 59.862C45.0036 59.8903 44.5888 60.0175 44.24 60.1682C43.8912 60.319 43.5377 60.6205 43.467 60.9927C43.3963 61.3649 43.7027 61.8125 44.0751 61.8643C43.6179 62.0245 43.1135 62.3072 42.9721 62.7689C42.8307 63.2306 43.1182 63.8902 43.599 63.8101C43.2596 64.2718 42.9674 64.7853 43.1041 65.3412C43.2502 65.9349 43.9384 66.3683 44.5417 66.4767L44.537 66.4814Z" fill="#FFE6D9"/>
<path d="M44.3481 67.1597C45.9318 67.4141 47.4024 66.8817 48.6138 65.8547C49.8251 64.8276 50.4284 63.3011 50.5981 61.7747C50.7725 60.2152 50.4096 58.538 49.0238 57.6476C48.4441 57.2754 47.7606 57.021 47.1055 56.8231C46.3136 56.5828 45.4322 56.5404 44.7017 56.988C43.9711 57.4355 43.4526 58.2459 43.5987 59.0986C43.7495 59.9749 44.5225 60.512 45.3757 60.5639V59.1505C44.4801 59.2494 43.4102 59.5509 42.9388 60.3943C42.4722 61.2329 42.9577 62.3118 43.8815 62.5426V61.181C43.0944 61.4731 42.2837 61.9961 42.2318 62.9242C42.1894 63.711 42.7267 64.5685 43.594 64.5167C43.3913 64.1633 43.1887 63.81 42.9813 63.4519C42.4675 64.1727 42.1281 65.0632 42.5665 65.9112C42.9058 66.5755 43.6411 67.0042 44.3481 67.155C45.2343 67.3434 45.6161 65.9819 44.7252 65.7934C44.4141 65.7275 44.0182 65.5955 43.8438 65.2987C43.6176 64.9171 43.9899 64.4648 44.202 64.1633C44.5084 63.7346 44.1031 63.0703 43.5893 63.0985C43.6223 63.0985 43.6506 63.2022 43.6506 63.1033C43.6506 63.0373 43.6364 62.9902 43.66 62.9242C43.7401 62.7216 44.0701 62.6039 44.2539 62.5379C44.8666 62.3071 44.9797 61.3554 44.2539 61.1763C44.0465 61.1245 44.2397 60.9737 44.3576 60.8889C44.631 60.6958 45.041 60.5921 45.371 60.5591C46.2618 60.4602 46.2948 59.2023 45.371 59.1458C44.8006 59.1128 44.9845 58.538 45.2908 58.2883C45.8234 57.8501 46.5257 58.1093 47.1055 58.3119C47.6098 58.4909 48.1471 58.6935 48.5525 59.0515C49.0144 59.4567 49.1605 60.1163 49.2029 60.7099C49.2972 62.0008 48.9249 63.4519 48.0434 64.4271C47.228 65.3317 45.9554 65.9913 44.7158 65.7934C44.3387 65.7322 43.9569 65.8924 43.8438 66.2881C43.7495 66.6226 43.9569 67.0985 44.3387 67.1597H44.3481Z" fill="#333333"/>
<path d="M29.6085 57.949C29.6085 60.2423 27.7484 62.1026 25.4525 62.1026C23.1565 62.1026 21.2964 60.2423 21.2964 57.949C21.2964 55.6557 23.1565 53.7954 25.4525 53.7954C27.7484 53.7954 29.6085 55.6557 29.6085 57.949Z" stroke="#FD780F" stroke-width="3"/>
</g>
<defs>
<clipPath id="clip0_4_13632">
<rect width="62" height="102" fill="white"/>
</clipPath>
</defs>
</svg>
