<svg width="320" height="540" viewBox="0 0 320 540" fill="none" xmlns="http://www.w3.org/2000/svg">
<g clip-path="url(#clip0_40_1034)">
<path d="M225.574 400.266C225.487 401.138 225.468 402.013 225.381 402.885C225.293 403.757 225.268 404.632 225.18 405.504C225.093 406.376 224.878 407.233 224.79 408.105C224.703 408.977 224.783 409.863 224.696 410.735C224.608 411.607 224.433 412.468 224.346 413.34C224.258 414.211 224.276 415.091 224.189 415.962C224.116 416.674 223.97 417.401 224.007 418.113C224.047 418.843 224.204 419.544 224.568 420.18C225.078 421.066 225.869 421.731 226.828 422.141C227.787 422.552 228.811 422.639 229.788 422.806C230.699 422.959 231.599 423.158 232.518 423.267C233.436 423.376 234.355 423.46 235.277 423.525C236.199 423.591 237.121 423.587 238.044 423.609C238.966 423.634 239.888 423.652 240.81 423.634C241.732 423.616 242.651 423.533 243.573 423.471C244.495 423.409 245.41 423.311 246.325 423.206C247.244 423.1 248.158 423.006 249.07 422.857C249.981 422.708 250.896 422.592 251.8 422.399C252.704 422.207 253.615 422.05 254.508 421.818C255.448 421.571 256.378 421.24 257.275 420.87C258.182 420.496 259.02 420.002 259.76 419.37C260.402 418.825 260.868 418.171 261.299 417.481C261.725 416.791 262.162 416.089 262.429 415.305C262.687 414.535 262.877 413.725 263.023 412.915C263.168 412.105 263.307 411.284 263.391 410.477C263.475 409.649 263.445 408.81 263.504 407.982C263.562 407.15 263.555 406.322 263.588 405.49C263.62 404.658 263.792 403.83 263.795 402.998C263.799 402.166 263.803 401.33 263.781 400.499C263.759 399.667 263.701 398.835 263.653 398.003C263.606 397.171 263.515 396.343 263.442 395.515" fill="#8E816E"/>
<path d="M225.027 400.266C224.889 401.719 224.805 403.179 224.706 404.632C224.612 406.031 224.243 407.4 224.207 408.806C224.189 409.449 224.214 410.092 224.152 410.735C224.079 411.491 223.934 412.239 223.843 412.991C223.766 413.63 223.74 414.27 223.715 414.913C223.682 415.654 223.584 416.38 223.507 417.117C223.376 418.349 223.555 419.638 224.251 420.688C224.874 421.629 225.789 422.319 226.839 422.723C228.049 423.191 229.405 423.278 230.677 423.511C232.033 423.761 233.396 423.918 234.77 424.027C240.314 424.466 245.986 424.03 251.45 423.02C254.045 422.541 256.808 421.996 259.068 420.561C261.174 419.224 262.629 416.885 263.252 414.502C263.638 413.027 263.912 411.462 263.996 409.936C264.083 408.341 264.054 406.739 264.171 405.148C264.229 404.367 264.353 403.597 264.36 402.809C264.367 402.006 264.364 401.203 264.342 400.401C264.295 398.766 264.152 397.135 264.007 395.507C263.945 394.814 262.851 394.806 262.913 395.507C263.037 396.87 263.15 398.232 263.219 399.598C263.289 400.964 263.347 402.318 263.234 403.652C263.183 404.262 263.088 404.865 263.059 405.479C263.026 406.191 263.033 406.903 262.997 407.615C262.928 408.988 262.913 410.35 262.694 411.712C262.494 412.965 262.29 414.28 261.805 415.461C261.36 416.544 260.653 417.699 259.844 418.549C258.127 420.361 255.401 421.106 253.032 421.589C250.418 422.123 247.794 422.512 245.14 422.784C243.824 422.919 242.498 423.024 241.174 423.071C239.848 423.118 238.521 423.064 237.194 423.042C235.867 423.02 234.544 422.933 233.221 422.795C231.898 422.657 230.622 422.377 229.321 422.174C228.158 421.992 226.981 421.785 226.033 421.037C225.118 420.314 224.619 419.264 224.564 418.109C224.531 417.415 224.663 416.729 224.736 416.039C224.812 415.312 224.816 414.586 224.859 413.855C224.954 412.333 225.29 410.855 225.297 409.326C225.308 407.796 225.68 406.322 225.793 404.8C225.902 403.288 225.982 401.766 226.128 400.259C226.194 399.561 225.1 399.565 225.034 400.259L225.027 400.266Z" fill="#333333"/>
<path d="M238.933 453.327C239.075 453.385 239.25 453.258 239.399 453.258C240.289 453.258 241.178 453.374 242.071 453.374C242.964 453.374 243.824 453.276 244.714 453.272C244.772 452.68 244.845 451.826 244.838 450.947C244.83 450.021 244.768 449.117 244.819 448.59C243.788 448.583 242.793 448.673 241.809 448.699C240.824 448.724 239.8 448.619 238.794 448.63C237.81 448.641 236.833 448.728 235.802 448.688C235.794 449.269 235.802 450.878 235.787 451.688C236.833 451.768 237.759 452.299 238.524 453.018C238.645 453.131 238.78 453.269 238.936 453.33L238.933 453.327Z" fill="#FFE6D9"/>
<path d="M238.933 453.872C239.115 453.893 239.254 453.828 239.429 453.803C239.673 453.766 239.957 453.814 240.202 453.828C240.705 453.857 241.211 453.901 241.714 453.915C242.717 453.944 243.712 453.828 244.714 453.817C245.031 453.817 245.232 453.57 245.261 453.272C245.341 452.469 245.392 451.667 245.385 450.86C245.377 450.105 245.308 449.342 245.37 448.59C245.396 448.296 245.1 448.045 244.823 448.045C243.314 448.045 241.816 448.19 240.304 448.125C238.791 448.06 237.304 448.194 235.802 448.143C235.503 448.132 235.259 448.401 235.255 448.688C235.241 449.687 235.255 450.69 235.241 451.688C235.237 452.005 235.496 452.204 235.788 452.233C236.349 452.288 236.874 452.495 237.351 452.793C237.829 453.091 238.175 453.548 238.656 453.803C239.279 454.13 239.83 453.189 239.207 452.862C238.933 452.716 238.718 452.455 238.474 452.262C238.215 452.059 237.945 451.866 237.657 451.71C237.071 451.391 236.447 451.209 235.784 451.144L236.331 451.688C236.349 450.69 236.331 449.687 236.345 448.688L235.798 449.233C237.3 449.284 238.795 449.149 240.3 449.215C241.813 449.28 243.307 449.135 244.82 449.135L244.273 448.59C244.211 449.342 244.28 450.105 244.288 450.86C244.295 451.667 244.244 452.469 244.164 453.272L244.71 452.727C243.712 452.738 242.713 452.851 241.711 452.825C241.237 452.811 240.759 452.771 240.285 452.746C240.019 452.731 239.75 452.709 239.484 452.717C239.305 452.724 239.101 452.804 238.926 452.786C238.23 452.702 238.233 453.792 238.926 453.875L238.933 453.872Z" fill="#333333"/>
<path d="M239.399 453.276C239.246 453.276 239.093 453.334 238.951 453.276C238.798 453.214 238.714 453.047 238.594 452.934C237.832 452.215 236.771 451.75 235.725 451.67C235.725 451.754 235.707 451.906 235.703 451.968C235.696 452.429 235.674 452.938 235.455 453.305C235.16 453.806 234.595 453.93 234.15 454.177C233.706 454.424 233.272 454.907 233.341 455.528C234.14 455.583 234.92 455.63 235.718 455.662C236.52 455.695 237.318 455.717 238.12 455.731C238.922 455.746 239.72 455.67 240.522 455.662C241.324 455.655 242.122 455.702 242.924 455.677C243.292 455.666 243.726 455.735 244.036 455.477C244.502 455.089 244.561 454.238 244.67 453.53C244.681 453.461 244.728 453.41 244.736 453.33C243.846 453.33 242.957 453.25 242.067 453.254C241.178 453.258 240.289 453.272 239.396 453.276H239.399Z" fill="#FCFCFC"/>
<path d="M239.4 452.731C239.148 452.753 239.152 452.724 238.981 452.553C238.878 452.451 238.765 452.36 238.652 452.273C238.368 452.048 238.066 451.852 237.741 451.688C237.103 451.372 236.436 451.194 235.726 451.129C235.419 451.1 235.193 451.401 235.179 451.674C235.157 452.077 235.197 452.549 235.04 452.927C234.887 453.294 234.479 453.418 234.147 453.577C233.364 453.948 232.755 454.624 232.799 455.532C232.813 455.84 233.036 456.055 233.345 456.077C234.596 456.16 235.842 456.225 237.096 456.258C238.35 456.291 239.666 456.2 240.956 456.211C241.587 456.218 242.214 456.236 242.844 456.225C243.333 456.215 243.836 456.258 244.266 455.986C245.126 455.441 245.013 454.326 245.268 453.476C245.374 453.134 245.09 452.785 244.74 452.785C243.85 452.785 242.961 452.709 242.071 452.709C241.182 452.709 240.293 452.727 239.4 452.731C238.696 452.731 238.696 453.824 239.4 453.821C240.289 453.817 241.178 453.799 242.071 453.799C242.961 453.799 243.85 453.872 244.74 453.875C244.565 453.646 244.39 453.414 244.211 453.185C244.091 453.585 244.073 454.006 243.978 454.413C243.883 454.82 243.777 455.118 243.307 455.128C242.235 455.158 241.164 455.089 240.092 455.125C237.832 455.197 235.594 455.128 233.342 454.98L233.888 455.524C233.841 454.605 234.997 454.493 235.554 454.017C236.25 453.425 236.225 452.498 236.272 451.667L235.726 452.212C236.429 452.277 237.103 452.528 237.694 452.913C237.974 453.098 238.182 453.319 238.416 453.552C238.7 453.832 239.017 453.85 239.4 453.817C240.096 453.755 240.103 452.666 239.4 452.727V452.731Z" fill="#333333"/>
<path d="M235.259 433.399C235.303 434.728 235.262 434.728 235.31 436.058C235.354 437.387 235.332 437.387 235.375 438.717C235.419 440.046 235.463 440.046 235.507 441.376C235.55 442.705 235.536 442.705 235.583 444.035C235.627 445.364 235.529 445.368 235.576 446.701C235.623 448.034 235.714 448.027 235.762 449.36C235.773 449.654 235.995 449.865 236.29 449.865C237.654 449.865 237.654 449.803 239.013 449.803C240.373 449.803 240.376 449.865 241.74 449.865C243.103 449.865 243.103 449.887 244.466 449.887C244.769 449.887 245.093 449.643 245.093 449.342C245.093 447.987 245.1 447.987 245.1 446.632C245.1 445.277 245.115 445.277 245.115 443.922C245.115 442.567 244.987 442.567 244.987 441.212C244.987 439.857 244.98 439.857 244.98 438.502C244.98 437.147 244.976 437.147 244.976 435.792C244.976 434.438 245.024 434.438 245.024 433.083" fill="#FCFCFC"/>
<path d="M234.712 433.399C234.76 434.819 234.774 436.246 234.8 437.667C234.829 439.189 234.945 440.704 234.986 442.222C235.022 443.562 235 444.903 235.015 446.243C235.022 446.948 235.084 447.642 235.15 448.343C235.215 449.044 235.062 450.043 235.908 450.341C236.498 450.548 237.3 450.392 237.92 450.366C238.678 450.337 239.436 450.337 240.191 450.37C241.576 450.428 242.986 450.472 244.375 450.432C244.747 450.421 245.097 450.315 245.356 450.032C245.658 449.701 245.633 449.291 245.636 448.873C245.636 448.234 245.643 447.595 245.643 446.955C245.643 445.513 245.727 444.049 245.596 442.611C245.45 441.012 245.523 439.385 245.52 437.783C245.52 436.214 245.563 434.648 245.563 433.079C245.563 432.378 244.47 432.378 244.47 433.079C244.466 435.68 244.43 438.284 244.43 440.885C244.43 442.277 244.568 443.657 244.554 445.052C244.543 446.283 244.539 447.511 244.535 448.742C244.535 448.844 244.594 449.287 244.535 449.342C244.492 449.378 244.215 449.342 244.127 449.342C243.795 449.342 243.467 449.338 243.136 449.331C242.425 449.32 241.714 449.331 241.003 449.313C239.753 449.284 238.518 449.262 237.267 449.306C237.1 449.313 236.36 449.411 236.283 449.327C236.261 449.302 236.272 448.906 236.269 448.837C236.258 448.673 236.247 448.506 236.232 448.343C236.17 447.689 236.112 447.039 236.101 446.381C236.075 445.11 236.108 443.839 236.075 442.567C236.039 441.002 235.919 439.436 235.882 437.87C235.849 436.377 235.838 434.884 235.791 433.395C235.769 432.694 234.676 432.694 234.698 433.395L234.712 433.399Z" fill="#333333"/>
<path d="M250.521 453.229C250.382 453.287 250.229 453.338 250.076 453.338C249.186 453.338 248.297 453.229 247.404 453.232C246.515 453.232 245.618 453.323 244.729 453.323C244.667 452.731 244.678 451.827 244.678 450.944C244.678 450.017 244.703 449.157 244.648 448.63C245.68 448.619 246.65 448.586 247.637 448.604C248.647 448.623 249.642 448.692 250.652 448.695C251.636 448.699 252.631 448.641 253.662 448.59C253.677 449.171 253.735 450.893 253.757 451.703C252.711 451.79 251.629 452.153 250.87 452.88C250.75 452.996 250.677 453.163 250.524 453.229H250.521Z" fill="#FFE6D9"/>
<path d="M250.378 452.702C249.952 452.862 249.46 452.778 249.011 452.753C248.538 452.727 248.064 452.691 247.586 452.684C246.635 452.673 245.684 452.767 244.732 452.775L245.279 453.319C245.13 451.761 245.341 450.185 245.199 448.626L244.652 449.171C247.659 449.131 250.655 449.276 253.662 449.131L253.116 448.586C253.141 449.625 253.181 450.66 253.21 451.699L253.757 451.154C253.079 451.22 252.423 451.358 251.796 451.634C251.486 451.768 251.195 451.928 250.921 452.128C250.808 452.212 250.692 452.299 250.59 452.393C250.473 452.499 250.378 452.669 250.247 452.753C249.657 453.127 250.203 454.071 250.797 453.694C251.027 453.548 251.162 453.341 251.359 453.163C251.574 452.974 251.825 452.822 252.081 452.695C252.598 452.437 253.181 452.299 253.754 452.244C254.042 452.215 254.308 452.015 254.3 451.699C254.275 450.66 254.231 449.625 254.206 448.586C254.198 448.303 253.961 448.027 253.659 448.041C250.652 448.187 247.656 448.041 244.648 448.081C244.371 448.085 244.076 448.328 244.102 448.626C244.244 450.185 244.036 451.757 244.182 453.319C244.211 453.61 244.411 453.868 244.729 453.864C245.738 453.853 246.748 453.752 247.761 453.777C248.68 453.799 249.788 454.075 250.666 453.752C251.319 453.508 251.038 452.455 250.375 452.702H250.378Z" fill="#333333"/>
<path d="M250.079 453.276C250.232 453.276 250.353 453.211 250.491 453.152C250.644 453.091 250.812 453.058 250.932 452.945C251.69 452.222 252.696 451.718 253.739 451.63C253.739 451.714 253.786 451.845 253.786 451.906C253.797 452.368 253.823 452.862 254.041 453.229C254.34 453.726 254.912 453.803 255.357 454.046C255.802 454.289 256.265 454.9 256.203 455.521C255.405 455.579 254.57 455.583 253.772 455.619C252.973 455.655 252.171 455.728 251.373 455.746C250.575 455.764 249.769 455.837 248.971 455.833C248.173 455.83 247.371 455.644 246.573 455.623C246.205 455.612 245.84 455.644 245.527 455.386C245.056 455.001 244.984 454.224 244.871 453.519C244.86 453.45 244.754 453.414 244.747 453.334C245.636 453.334 246.525 453.396 247.415 453.392C248.304 453.389 249.193 453.28 250.083 453.276H250.079Z" fill="#FCFCFC"/>
<path d="M250.225 453.803C250.914 453.712 251.315 453.265 251.855 452.898C252.42 452.513 253.061 452.248 253.743 452.179L253.214 451.779C253.331 452.615 253.291 453.476 254.064 454.021C254.69 454.464 255.7 454.533 255.66 455.521L256.207 454.976C253.976 455.128 251.723 455.219 249.485 455.281C248.417 455.31 247.36 455.128 246.296 455.074C245.775 455.049 245.644 454.689 245.538 454.228C245.491 454.017 245.458 453.803 245.425 453.588C245.388 453.349 245.312 453.261 245.21 453.062C245.053 453.334 244.896 453.606 244.736 453.883C245.625 453.883 246.515 453.944 247.404 453.941C248.297 453.937 249.183 453.835 250.072 453.824C250.776 453.817 250.776 452.727 250.072 452.735C249.179 452.746 248.294 452.844 247.404 452.851C246.515 452.854 245.625 452.793 244.736 452.793C244.299 452.793 244.084 453.25 244.262 453.614C244.364 453.821 244.368 453.915 244.412 454.169C244.455 454.424 244.503 454.674 244.59 454.918C244.743 455.357 245.002 455.753 245.425 455.978C245.881 456.218 246.413 456.156 246.908 456.193C247.539 456.24 248.162 456.36 248.793 456.382C249.985 456.422 251.206 456.32 252.398 456.251C253.666 456.178 254.935 456.156 256.199 456.069C256.502 456.048 256.735 455.837 256.746 455.524C256.783 454.605 256.178 453.806 255.354 453.45C255.008 453.301 254.61 453.203 254.45 452.825C254.29 452.448 254.326 451.914 254.264 451.492C254.235 451.278 253.951 451.071 253.735 451.093C253.006 451.169 252.321 451.369 251.68 451.725C251.089 452.052 250.619 452.666 249.926 452.756C249.631 452.796 249.478 453.171 249.544 453.428C249.628 453.744 249.926 453.85 250.218 453.81L250.225 453.803Z" fill="#333333"/>
<path d="M244.386 438.212C244.401 439.603 244.393 439.603 244.408 440.994C244.422 442.386 244.288 442.386 244.302 443.777C244.317 445.168 244.393 445.168 244.408 446.559C244.422 447.951 244.393 447.951 244.408 449.345C244.408 449.647 244.685 449.854 244.987 449.85C246.351 449.839 246.351 449.858 247.714 449.847C249.077 449.836 249.077 449.774 250.44 449.763C251.804 449.752 251.804 449.894 253.167 449.883C253.462 449.883 253.673 449.589 253.681 449.295C253.717 448.012 253.801 448.012 253.837 446.73C253.874 445.448 253.783 445.444 253.816 444.162C253.852 442.88 253.801 442.88 253.834 441.597C253.867 440.315 253.998 440.319 254.031 439.033C254.063 437.747 254.016 437.747 254.049 436.461C254.085 435.175 253.994 435.175 254.031 433.889C254.038 433.58 253.885 433.286 253.575 433.286C252.277 433.286 252.277 433.228 250.983 433.228C249.686 433.228 249.686 433.326 248.388 433.326C247.091 433.326 247.091 433.413 245.793 433.413C244.495 433.413 244.495 433.264 243.198 433.264" fill="#FCFCFC"/>
<path d="M243.839 438.212C243.846 439.029 243.85 439.846 243.857 440.66C243.865 441.466 243.792 442.258 243.763 443.065C243.701 444.707 243.876 446.356 243.861 448.001C243.854 448.779 243.631 449.894 244.495 450.29C244.882 450.468 245.355 450.395 245.771 450.395C246.106 450.395 246.438 450.395 246.773 450.395C248.465 450.395 250.163 450.225 251.851 450.373C252.624 450.443 253.681 450.65 254.103 449.818C254.304 449.422 254.238 448.913 254.271 448.481C254.297 448.132 254.337 447.787 254.359 447.438C254.41 446.617 254.377 445.804 254.359 444.979C254.344 444.191 254.377 443.399 254.373 442.611C254.362 440.954 254.606 439.32 254.592 437.66C254.585 436.86 254.628 436.061 254.595 435.266C254.566 434.539 254.818 433.413 254.14 432.93C253.746 432.647 253.167 432.748 252.707 432.734C252.332 432.723 251.96 432.701 251.585 432.694C250.67 432.676 249.773 432.763 248.862 432.785C247.951 432.806 247.036 432.861 246.124 432.876C245.144 432.89 244.182 432.734 243.205 432.727C242.501 432.723 242.501 433.813 243.205 433.816C243.919 433.82 244.623 433.933 245.337 433.958C246.084 433.987 246.828 433.929 247.575 433.896C249.11 433.827 250.666 433.74 252.204 433.805C252.511 433.82 252.817 433.831 253.127 433.834C253.221 433.834 253.327 433.842 253.422 433.834C253.794 433.813 253.491 433.805 253.498 433.853C253.517 434.096 253.491 434.354 253.495 434.601C253.502 435.331 253.527 436.054 253.513 436.784C253.502 437.453 253.52 438.121 253.506 438.789C253.491 439.516 253.389 440.228 253.334 440.951C253.276 441.699 253.294 442.447 253.294 443.199C253.294 443.951 253.261 444.699 253.294 445.448C253.327 446.214 253.316 446.981 253.25 447.747C253.225 448.03 253.196 448.31 253.178 448.59C253.17 448.721 253.214 449.207 253.148 449.295C253.061 449.407 252.747 449.338 252.58 449.331C251.869 449.306 251.166 449.215 250.455 449.218C249.744 449.218 249.04 449.273 248.33 449.291C247.568 449.309 246.806 449.302 246.044 449.302C245.877 449.302 245.705 449.302 245.538 449.302C245.406 449.302 245.078 449.371 244.962 449.302L244.969 449.345V449.171C244.969 449.048 244.969 448.92 244.969 448.797C244.969 448.594 244.969 448.386 244.969 448.183C244.984 446.516 244.823 444.848 244.871 443.185C244.892 442.393 244.976 441.612 244.973 440.82C244.965 439.952 244.962 439.08 244.954 438.212C244.947 437.511 243.854 437.511 243.861 438.212H243.839Z" fill="#333333"/>
<path d="M264.291 422.348C263.978 421.731 263.628 421.128 263.394 420.485C263.161 419.842 263.063 419.155 262.997 418.458C262.964 418.098 263.369 417.226 263.485 416.834C263.675 416.188 263.974 415.577 264.163 414.931C264.24 414.669 264.258 414.353 264.477 414.19C264.801 413.954 265.333 414.081 265.6 414.382C265.866 414.684 265.917 415.098 265.957 415.494C266.452 414.949 267.061 414.546 267.71 414.193C267.994 414.041 268.282 413.874 268.607 413.881C268.931 413.888 269.328 414.052 269.423 414.36C269.54 414.753 269.193 415.221 268.916 415.523C269.306 415.2 269.897 415.141 270.251 415.505C270.604 415.868 270.491 416.609 270.006 416.765C270.429 416.569 271.071 416.885 271.136 417.346C271.202 417.808 270.826 418.24 270.433 418.494C270.859 418.24 271.406 418.803 271.344 419.293C271.282 419.784 270.888 420.172 270.48 420.456C269.715 420.99 268.825 421.295 267.965 421.662C267.109 422.029 266.288 422.497 265.41 422.802C265.173 422.886 264.911 422.85 264.685 422.737C264.51 422.65 264.375 422.519 264.287 422.345L264.291 422.348Z" fill="#FFE6D9"/>
<path d="M264.761 422.072C264.346 421.259 263.898 420.481 263.704 419.577C263.624 419.21 263.508 418.752 263.544 418.378C263.57 418.095 263.715 417.793 263.814 417.528C264.087 416.794 264.368 416.057 264.612 415.316C264.689 415.091 264.674 414.589 264.969 414.622C265.341 414.662 265.381 415.218 265.41 415.494C265.458 415.93 265.99 416.257 266.343 415.879C266.835 415.352 267.415 414.971 268.046 414.629C268.228 414.531 268.629 414.284 268.833 414.48C269.001 414.644 268.658 414.982 268.527 415.131C268.14 415.563 268.662 416.376 269.19 415.988C269.358 415.864 269.719 415.65 269.879 415.912C269.977 416.075 269.879 416.228 269.73 416.289C269.165 416.529 269.569 417.499 270.152 417.285C270.284 417.237 270.51 417.234 270.586 417.386C270.699 417.612 270.302 417.917 270.156 418.015C269.569 418.418 270.069 419.246 270.706 418.956C270.615 418.996 270.736 419.006 270.758 419.079C270.79 419.206 270.809 419.25 270.754 419.388C270.655 419.635 270.411 419.824 270.203 419.976C269.657 420.372 269.015 420.634 268.396 420.888C267.75 421.153 267.123 421.44 266.493 421.738C266.088 421.931 265.086 422.617 264.758 422.065C264.401 421.462 263.457 422.007 263.814 422.614C264.062 423.035 264.474 423.315 264.966 423.369C265.534 423.431 266.092 423.118 266.595 422.89C267.663 422.403 268.756 421.956 269.813 421.451C270.666 421.044 271.844 420.358 271.891 419.283C271.931 418.36 271.027 417.615 270.156 418.011C270.338 418.324 270.524 418.64 270.706 418.952C271.326 418.527 271.913 417.793 271.599 417.001C271.341 416.347 270.521 415.988 269.857 416.228L270.28 417.223C270.987 416.925 271.188 415.962 270.812 415.338C270.353 414.575 269.303 414.546 268.64 415.04L269.303 415.897C269.682 415.472 270.083 414.927 269.974 414.324C269.868 413.75 269.347 413.412 268.793 413.343C268.177 413.267 267.63 413.594 267.116 413.895C266.551 414.23 266.023 414.622 265.574 415.101C265.884 415.229 266.198 415.359 266.507 415.487C266.449 414.956 266.376 414.393 265.99 413.99C265.651 413.638 265.122 413.445 264.638 413.539C264.102 413.645 263.825 414.044 263.697 414.546C263.537 415.17 263.274 415.755 263.067 416.362C262.917 416.798 262.753 417.23 262.607 417.67C262.443 418.164 262.462 418.578 262.527 419.09C262.698 420.39 263.231 421.462 263.821 422.617C264.142 423.242 265.086 422.69 264.765 422.069L264.761 422.072Z" fill="#333333"/>
<path d="M265.604 422.446C265.188 421.665 264.783 420.877 264.368 420.096C263.952 419.315 263.537 418.534 263.121 417.753C262.997 417.521 262.833 417.176 262.575 417.147C262.432 417.132 262.312 417.343 262.181 417.404C261.186 417.877 260.169 418.4 259.068 418.509C258.284 418.585 257.595 418.371 257.009 417.978C256.425 417.59 255.941 417.012 255.394 416.562C254.72 416.002 254.02 415.461 253.269 415.007C252.518 414.553 251.676 414.277 250.867 413.932C250.058 413.587 249.292 413.114 248.443 412.882C247.728 412.689 246.963 412.675 246.227 412.591C245.49 412.508 244.747 412.453 244.007 412.497C243.267 412.54 242.502 412.548 241.784 412.74C240.927 412.969 240.059 413.372 239.21 413.812C238.397 414.233 237.621 414.775 236.863 415.301C236.105 415.828 235.295 416.38 234.621 416.94C234.005 417.452 233.404 418.004 232.81 418.552C232.215 419.101 231.712 419.744 231.213 420.369C230.714 420.993 230.196 421.629 229.868 422.374C229.54 423.118 229.423 423.932 229.34 424.742C229.256 425.552 229.285 426.355 229.449 427.151C229.657 428.153 230.116 429.13 230.794 429.904C231.494 430.703 232.379 431.295 233.44 431.39C233.615 431.404 233.794 431.415 233.954 431.484C234.705 431.818 234.373 433.638 235.062 434.318C235.952 435.197 237.446 434.935 238.591 434.99C239.516 435.037 240.439 435.026 241.364 435.051C242.29 435.077 243.212 435.186 244.138 435.189C245.002 435.193 245.87 435.291 246.737 435.277C247.601 435.262 248.468 435.229 249.336 435.197C250.2 435.164 251.064 435.048 251.928 435.001C252.693 434.957 253.491 434.761 254.166 434.412C254.84 434.063 255.467 433.551 255.645 432.694C255.809 431.909 255.631 431.059 255.532 430.22C255.726 430.235 256.01 430.275 256.207 430.26C256.768 430.213 257.315 430.031 257.836 429.821C258.58 429.519 259.225 429.043 259.899 428.622C260.573 428.2 261.306 427.855 261.922 427.343C262.534 426.838 263.107 426.272 263.679 425.716C264.251 425.16 264.714 424.495 265.265 423.925C265.498 423.682 265.877 423.478 265.891 423.144C265.902 422.897 265.72 422.664 265.604 422.446Z" fill="#FD780F"/>
<path d="M266.077 422.174C265.316 420.739 264.565 419.304 263.806 417.869C263.562 417.408 263.311 416.732 262.724 416.623C262.418 416.565 262.221 416.696 261.991 416.867C261.736 417.056 261.415 417.179 261.124 417.314C259.837 417.906 258.416 418.345 257.169 417.426C256.604 417.012 256.141 416.464 255.598 416.02C255.007 415.541 254.402 415.076 253.761 414.669C253.119 414.262 252.463 413.994 251.782 413.717C251.1 413.441 250.466 413.133 249.81 412.827C248.414 412.177 246.901 412.068 245.377 411.967C243.894 411.865 242.286 411.941 240.883 412.461C239.465 412.987 238.168 413.743 236.928 414.597C235.631 415.494 234.37 416.406 233.2 417.463C232.095 418.458 231.147 419.544 230.251 420.728C228.498 423.046 228.217 426.602 229.627 429.163C230.251 430.296 231.242 431.288 232.478 431.731C232.769 431.837 233.072 431.891 233.378 431.924C233.586 431.946 233.717 431.92 233.823 432.095C234.038 432.458 234.023 433.039 234.107 433.446C234.34 434.586 235.117 435.269 236.272 435.451C236.859 435.542 237.453 435.531 238.044 435.527C238.747 435.527 239.454 435.567 240.158 435.578C241.747 435.6 243.336 435.687 244.925 435.76C246.515 435.832 248.1 435.818 249.686 435.727C252.015 435.589 255.893 435.513 256.236 432.461C256.32 431.713 256.174 430.965 256.083 430.224L255.536 430.769C256.812 430.881 258.022 430.438 259.104 429.781C259.648 429.45 260.172 429.087 260.723 428.767C261.299 428.433 261.86 428.102 262.374 427.674C263.402 426.82 264.313 425.857 265.173 424.844C265.367 424.619 265.56 424.393 265.778 424.19C265.957 424.023 266.147 423.881 266.274 423.667C266.591 423.14 266.347 422.65 266.074 422.167C265.727 421.556 264.783 422.105 265.13 422.715C265.199 422.835 265.348 423.017 265.312 423.137C265.272 423.264 264.969 423.442 264.874 423.536C264.499 423.91 264.178 424.343 263.832 424.742C263.099 425.589 262.235 426.457 261.324 427.111C260.471 427.725 259.513 428.24 258.616 428.793C257.665 429.381 256.659 429.773 255.532 429.672C255.263 429.646 254.953 429.94 254.986 430.216C255.131 431.379 255.503 432.803 254.41 433.62C253.313 434.437 251.931 434.437 250.63 434.554C247.71 434.815 244.805 434.677 241.886 434.525C240.548 434.452 239.185 434.423 237.843 434.434C237.005 434.441 235.58 434.554 235.252 433.558C235 432.799 235.12 431.786 234.49 431.194C234.085 430.812 233.52 430.892 233.021 430.758C232.427 430.598 231.909 430.253 231.472 429.828C230.52 428.891 229.985 427.608 229.864 426.29C229.744 424.964 229.894 423.391 230.553 422.21C230.9 421.593 231.355 421.048 231.796 420.499C232.237 419.951 232.645 419.453 233.134 418.988C234.184 417.989 235.284 417.056 236.473 416.224C237.639 415.41 238.795 414.597 240.081 413.975C240.701 413.677 241.339 413.405 242.006 413.242C242.709 413.067 243.453 413.056 244.171 413.031C244.885 413.005 245.596 413.067 246.307 413.143C247.05 413.223 247.801 413.242 248.516 413.474C249.139 413.674 249.711 414.001 250.302 414.273C250.892 414.546 251.567 414.778 252.186 415.061C253.415 415.617 254.545 416.485 255.518 417.412C256.444 418.294 257.41 419.072 258.758 419.072C259.407 419.072 260.056 418.905 260.657 418.679C261.259 418.454 261.904 418.207 262.454 417.88C262.491 417.859 262.728 417.71 262.717 417.673C262.713 417.655 262.465 417.659 262.461 417.713C262.461 417.739 262.531 417.822 262.542 417.844C262.728 418.16 262.888 418.491 263.059 418.814C263.406 419.464 263.752 420.114 264.098 420.768C264.444 421.422 264.78 422.076 265.126 422.726C265.454 423.347 266.398 422.795 266.07 422.178L266.077 422.174Z" fill="#333333"/>
<path d="M233.01 422.145C234.089 422.152 235.299 421.858 236.345 422.243C236.837 422.425 236.972 422.821 237.129 423.286C237.318 423.863 237.45 424.459 237.544 425.062C237.643 425.679 237.687 426.301 237.708 426.925C237.73 427.55 237.789 428.211 237.738 428.836C237.636 430.078 235.904 430.009 234.997 430.017C234.293 430.02 234.293 431.11 234.997 431.106C236.261 431.099 238.044 431.03 238.649 429.675C238.951 428.992 238.835 428.15 238.82 427.423C238.806 426.642 238.758 425.865 238.653 425.091C238.55 424.357 238.405 423.623 238.164 422.922C237.949 422.294 237.698 421.72 237.089 421.382C235.868 420.706 234.337 421.059 233.017 421.052C232.314 421.048 232.314 422.138 233.017 422.141L233.01 422.145Z" fill="#333333"/>
<path d="M238.456 413.638C238.226 414.379 238.124 415.138 238.113 415.915C238.102 416.751 238.168 417.644 238.703 418.291C239.17 418.854 239.877 419.09 240.613 419.123C241.32 419.152 242.082 419.021 242.687 418.658C243.292 418.294 243.803 417.746 244.255 417.179C244.699 416.62 245.1 415.988 245.476 415.381C245.541 416.831 245.855 417.79 247.007 418.698C247.287 418.919 247.615 419.123 247.951 419.25C248.844 419.591 249.897 419.199 250.597 418.549C251.297 417.899 251.68 416.979 251.738 416.031C251.796 415.08 251.534 414.15 251.202 413.256" fill="#FD780F"/>
<path d="M237.927 413.492C237.304 415.595 237.147 419.028 239.924 419.58C241.164 419.827 242.461 419.559 243.453 418.778C244.506 417.949 245.246 416.776 245.942 415.654C245.603 415.563 245.264 415.472 244.922 415.378C244.98 416.504 245.21 417.568 245.953 418.451C246.788 419.439 248.038 420.143 249.35 419.827C250.604 419.526 251.563 418.527 252.008 417.35C252.532 415.955 252.215 414.462 251.72 413.111C251.479 412.457 250.422 412.74 250.666 413.401C251.053 414.462 251.373 415.603 251.064 416.725C250.808 417.648 250.134 418.465 249.194 418.741C248.253 419.017 247.324 418.407 246.726 417.681C246.19 417.027 246.059 416.195 246.015 415.378C245.986 414.844 245.29 414.629 244.995 415.101C243.941 416.798 242.647 418.872 240.344 418.552C238.124 418.247 238.518 415.33 238.977 413.779C239.177 413.104 238.12 412.817 237.923 413.489L237.927 413.492Z" fill="#333333"/>
<path d="M263.737 392.794C263.128 392.794 262.556 392.914 262.027 393.139C261.794 392.304 261.499 391.504 261.153 390.723C260.803 389.932 260.354 389.198 259.899 388.471C259.44 387.741 258.926 387.055 258.368 386.401C257.81 385.743 257.263 385.075 256.618 384.504C255.973 383.934 255.281 383.411 254.559 382.939C253.841 382.47 253.101 382.009 252.314 381.646C251.526 381.282 250.724 380.955 249.893 380.708C249.062 380.461 248.206 380.367 247.342 380.24C246.5 380.12 245.64 380.16 244.761 380.16C243.883 380.16 243.015 380.08 242.173 380.204C241.331 380.327 240.442 380.461 239.625 380.705C238.791 380.952 237.996 381.319 237.216 381.678C236.429 382.042 235.714 382.536 234.996 383.008C234.278 383.48 233.502 383.901 232.857 384.472C232.211 385.042 231.701 385.758 231.143 386.412C230.586 387.065 230.032 387.727 229.572 388.457C229.117 389.183 228.763 389.968 228.413 390.76C228.067 391.541 227.75 392.351 227.517 393.186C226.977 392.95 226.369 392.878 225.742 392.878C224.936 392.878 224.225 393.085 223.576 393.462C222.909 393.851 222.221 394.287 221.834 394.959C221.448 395.631 221.306 396.408 221.306 397.211C221.306 398.014 221.583 398.748 221.954 399.394C222.326 400.041 222.891 400.597 223.562 400.985C224.211 401.363 224.94 401.541 225.742 401.541C226.241 401.541 226.711 401.541 227.156 401.389C227.331 402.297 227.579 403.172 227.885 404.029C228.195 404.898 228.647 405.693 229.08 406.492C229.514 407.291 229.937 408.116 230.491 408.843C231.045 409.573 231.625 410.292 232.284 410.928C232.944 411.563 233.72 412.068 234.468 412.599C235.215 413.129 235.984 413.612 236.808 414.023C237.632 414.433 238.488 414.72 239.367 415C240.234 415.276 241.094 415.614 242.009 415.752C242.902 415.89 243.824 415.951 244.758 415.951C245.691 415.951 246.602 415.835 247.499 415.701C248.417 415.559 249.292 415.301 250.156 415.025C251.038 414.745 251.869 414.386 252.685 413.979C253.509 413.569 254.344 413.187 255.091 412.66C255.838 412.134 256.556 411.552 257.216 410.917C257.876 410.281 258.393 409.522 258.947 408.792C259.501 408.065 260.158 407.397 260.595 406.59C261.032 405.784 261.302 404.905 261.616 404.037C261.929 403.169 262.144 402.279 262.319 401.37C262.753 401.512 263.252 401.596 263.733 401.596C264.539 401.596 265.271 401.37 265.92 400.996C266.569 400.622 267.229 400.121 267.615 399.452C267.991 398.806 268.191 398.018 268.191 397.215C268.191 396.412 267.885 395.685 267.513 395.035C267.141 394.385 266.602 393.8 265.935 393.411C265.286 393.034 264.543 392.794 263.737 392.794Z" fill="#FFE6D9"/>
<path d="M263.737 392.249C263.096 392.26 262.48 392.373 261.886 392.616L262.56 392.997C260.876 387.098 256.105 382.071 250.211 380.24C248.669 379.76 246.989 379.604 245.377 379.619C244.568 379.626 243.755 379.579 242.946 379.604C242.137 379.63 241.353 379.771 240.573 379.924C239.013 380.229 237.457 380.865 236.09 381.671C235.441 382.056 234.822 382.488 234.18 382.892C233.539 383.295 232.908 383.691 232.361 384.203C231.731 384.791 231.22 385.5 230.663 386.157C230.105 386.815 229.562 387.469 229.11 388.191C228.184 389.663 227.473 391.388 226.996 393.052L227.67 392.67C226.157 392.053 224.422 392.318 223.056 393.146C222.399 393.546 221.765 394.018 221.368 394.69C220.971 395.362 220.799 396.187 220.767 396.975C220.632 400.346 224.094 402.896 227.306 401.919C227.08 401.792 226.857 401.665 226.631 401.537C226.959 403.212 227.532 404.778 228.341 406.278C229.15 407.778 229.904 409.06 230.962 410.31C232.033 411.574 233.349 412.522 234.723 413.438C236.13 414.375 237.621 415.011 239.225 415.53C239.994 415.777 240.752 416.064 241.547 416.228C242.37 416.395 243.227 416.464 244.065 416.493C245.8 416.554 247.572 416.344 249.245 415.879C252.379 415.003 255.572 413.467 257.836 411.08C258.463 410.419 258.962 409.656 259.527 408.944C260.045 408.29 260.621 407.669 261.036 406.939C261.485 406.147 261.765 405.272 262.068 404.418C262.403 403.47 262.658 402.507 262.852 401.523L262.177 401.904C265.006 402.78 268.242 400.989 268.676 397.999C269.106 395.068 266.679 392.311 263.734 392.253C263.03 392.238 263.03 393.328 263.734 393.342C266.023 393.39 267.951 395.584 267.597 397.869C267.233 400.219 264.663 401.534 262.465 400.855C262.199 400.771 261.849 400.953 261.791 401.236C261.485 402.794 261.029 404.371 260.373 405.824C259.779 407.139 258.714 408.229 257.847 409.373C256.917 410.597 255.722 411.661 254.413 412.471C253.105 413.282 251.632 413.975 250.178 414.462C247.153 415.468 243.745 415.853 240.661 414.865C239.137 414.379 237.617 413.914 236.229 413.104C234.949 412.359 233.604 411.487 232.551 410.441C231.301 409.199 230.382 407.767 229.551 406.227C229.15 405.49 228.731 404.756 228.439 403.968C228.111 403.085 227.863 402.173 227.681 401.251C227.626 400.967 227.276 400.789 227.007 400.869C224.452 401.646 221.743 399.652 221.853 396.975C221.878 396.336 222.013 395.653 222.378 395.115C222.706 394.628 223.223 394.305 223.723 394.011C224.827 393.361 226.172 393.23 227.371 393.717C227.648 393.829 227.969 393.593 228.046 393.335C228.45 391.915 229.044 390.509 229.762 389.22C230.448 387.988 231.41 386.938 232.307 385.859C232.78 385.289 233.291 384.777 233.907 384.356C234.486 383.96 235.091 383.6 235.678 383.215C236.925 382.398 238.255 381.696 239.688 381.257C241.138 380.81 242.64 380.661 244.149 380.698C244.929 380.716 245.713 380.679 246.493 380.712C247.273 380.745 248.005 380.865 248.745 380.999C250.196 381.264 251.621 381.842 252.904 382.561C254.151 383.258 255.365 384.076 256.411 385.053C257.559 386.125 258.587 387.421 259.425 388.744C260.329 390.171 261.033 391.65 261.499 393.281C261.572 393.539 261.897 393.775 262.174 393.662C262.68 393.459 263.187 393.346 263.737 393.335C264.441 393.321 264.441 392.231 263.737 392.245V392.249Z" fill="#333333"/>
<path d="M240.267 395.304C240.267 395.954 239.837 396.561 239.188 396.561C238.539 396.561 237.934 395.954 237.934 395.304C237.934 394.654 238.539 394.12 239.188 394.12C239.837 394.12 240.267 394.654 240.267 395.304Z" fill="#333333"/>
<path d="M251.625 395.304C251.625 395.954 250.994 396.437 250.345 396.437C249.696 396.437 249.106 395.954 249.106 395.304C249.106 394.654 249.696 394.073 250.345 394.073C250.994 394.073 251.625 394.657 251.625 395.304Z" fill="#333333"/>
<path d="M244.313 396.539C244.422 396.47 244.535 396.405 244.655 396.354L244.524 396.408C244.626 396.368 244.728 396.336 244.838 396.321L244.692 396.339C244.772 396.328 244.852 396.328 244.932 396.339L244.787 396.321C244.867 396.332 244.943 396.358 245.02 396.387L244.889 396.332C245.002 396.383 245.104 396.448 245.202 396.521L245.093 396.437L245.111 396.452C245.228 396.546 245.341 396.612 245.497 396.612C245.632 396.612 245.793 396.554 245.884 396.452C245.975 396.35 246.051 396.212 246.044 396.067C246.037 395.932 245.997 395.769 245.884 395.682C245.793 395.609 245.702 395.537 245.603 395.478C245.505 395.42 245.41 395.38 245.308 395.337C245.151 395.275 244.98 395.242 244.808 395.242C244.429 395.242 244.069 395.399 243.755 395.598C243.635 395.675 243.54 395.787 243.504 395.925C243.467 396.056 243.485 396.23 243.558 396.347C243.715 396.586 244.05 396.706 244.305 396.543L244.313 396.539Z" fill="#333333"/>
<path d="M243.234 401.694C244.258 402.162 245.519 402.235 246.551 401.781C247.509 401.36 248.807 399.943 248.53 398.806C248.311 397.905 247.218 398.156 246.525 398.174C245.49 398.199 244.455 398.112 243.42 398.112C242.479 398.112 241.24 397.702 241.302 399.129C241.353 400.299 242.188 401.214 243.238 401.694H243.234Z" fill="#FCFCFC"/>
<path d="M242.957 402.166C244.506 402.845 246.303 402.813 247.652 401.719C248.228 401.251 248.713 400.629 248.968 399.928C249.194 399.307 249.19 398.504 248.691 398.01C248.242 397.571 247.564 397.564 246.978 397.603C246.121 397.662 245.264 397.618 244.408 397.589C243.737 397.567 243.059 397.52 242.392 397.516C241.842 397.513 241.273 397.651 240.967 398.148C240.548 398.831 240.774 399.823 241.12 400.484C241.514 401.232 242.203 401.806 242.961 402.166C243.595 402.464 244.149 401.527 243.511 401.225C242.629 400.807 241.656 399.91 241.864 398.824C241.867 398.802 241.915 398.686 241.9 398.711C241.918 398.675 241.969 398.653 241.951 398.664C242.108 398.595 242.239 398.606 242.429 398.61C242.902 398.617 243.373 398.657 243.846 398.668C244.623 398.682 245.399 398.73 246.176 398.73C246.653 398.73 247.156 398.628 247.63 398.69C248.636 398.82 247.543 400.324 247.214 400.651C246.234 401.632 244.769 401.785 243.511 401.232C243.238 401.113 242.928 401.156 242.764 401.429C242.625 401.657 242.691 402.057 242.961 402.173L242.957 402.166Z" fill="#333333"/>
<path d="M236.728 400.35C236.728 401.378 236.363 402.348 235.693 403.023C235.022 403.699 234.045 404.055 233.017 404.055C231.989 404.055 231.023 403.692 230.349 403.016C229.678 402.344 229.347 401.378 229.347 400.353C229.347 399.329 229.704 398.388 230.378 397.716C231.053 397.04 231.989 396.724 233.021 396.724C234.052 396.724 235.033 396.997 235.707 397.672C236.378 398.344 236.731 399.329 236.731 400.353L236.728 400.35Z" fill="#EDBBA6"/>
<path d="M260.169 400.35C260.169 401.378 259.884 402.369 259.214 403.041C258.543 403.713 257.548 404.146 256.516 404.146C255.485 404.146 254.53 403.681 253.856 403.005C253.181 402.329 252.773 401.378 252.773 400.35C252.773 399.322 253.181 398.363 253.852 397.691C254.526 397.015 255.485 396.663 256.516 396.663C257.548 396.663 258.404 397.113 259.079 397.789C259.753 398.464 260.165 399.322 260.165 400.35H260.169Z" fill="#EDBBA6"/>
<path d="M259.308 394.134C260.526 394.32 261.911 394.232 262.29 393.212C262.377 392.979 262.381 392.692 262.377 392.442C262.366 391.642 262.224 390.843 262.075 390.066C261.925 389.289 261.714 388.5 261.419 387.766C261.123 387.033 260.781 386.284 260.329 385.627C259.881 384.977 259.348 384.352 258.751 383.807C258.131 383.248 257.355 382.873 256.644 382.419C255.933 381.965 255.215 381.569 254.446 381.217C253.677 380.865 252.933 380.487 252.135 380.229C251.337 379.971 250.52 379.746 249.704 379.575C248.873 379.401 248.031 379.328 247.211 379.234C246.358 379.136 245.501 379.016 244.641 379.019C243.781 379.023 242.92 379.106 242.067 379.219C241.215 379.332 240.362 379.473 239.531 379.691C238.787 379.887 238.025 380.142 237.263 380.407C236.516 380.665 235.751 380.919 235.044 381.264C234.336 381.609 233.651 382.063 233.028 382.528C232.324 383.055 231.701 383.676 231.092 384.312C230.484 384.948 229.919 385.62 229.383 386.313C228.84 387.015 228.333 387.85 227.885 388.715C227.436 389.583 226.988 390.458 226.842 391.345C226.718 392.089 226.842 392.921 227.353 393.48C228.144 394.349 229.503 394.102 230.644 393.815C231.482 393.604 232.339 393.47 233.159 393.212C233.983 392.954 234.763 392.583 235.572 392.282C236.381 391.984 237.22 391.762 238.014 391.428C238.809 391.098 239.611 390.774 240.394 390.415C241.178 390.059 241.944 389.655 242.72 389.281C243.496 388.903 244.287 388.558 245.056 388.17C245.825 387.781 246.544 387.291 247.309 386.895C247.393 386.851 247.509 386.837 247.604 386.833C247.779 386.826 247.972 386.924 248.1 387.044C248.745 387.658 249.336 388.33 249.984 388.94C250.633 389.55 251.267 390.182 251.971 390.727C252.776 391.352 253.618 391.962 254.504 392.471C255.394 392.979 256.33 393.448 257.329 393.713C257.792 393.836 258.546 394.014 259.316 394.131L259.308 394.134Z" fill="#8E816E"/>
<path d="M259.163 394.661C260.238 394.814 261.627 394.89 262.432 394.007C262.917 393.473 262.953 392.787 262.913 392.1C262.87 391.312 262.727 390.527 262.571 389.754C262.261 388.246 261.707 386.709 260.847 385.42C259.99 384.138 258.926 383.146 257.603 382.365C256.214 381.544 254.843 380.767 253.356 380.124C251.913 379.499 250.338 379.085 248.778 378.874C247.189 378.66 245.56 378.42 243.952 378.5C242.341 378.58 240.697 378.801 239.144 379.237C237.592 379.673 236.032 380.153 234.621 380.868C233.21 381.584 232.055 382.543 230.991 383.633C229.912 384.737 228.887 385.932 228.078 387.251C227.269 388.569 226.416 390.026 226.267 391.544C226.139 392.812 226.744 394.138 228.038 394.516C229.332 394.894 230.794 394.338 232.051 394.062C233.666 393.709 235.135 392.994 236.699 392.482C238.24 391.977 239.757 391.341 241.218 390.64C242.684 389.935 244.193 389.274 245.618 388.5C245.95 388.319 246.274 388.126 246.598 387.934C246.762 387.839 246.923 387.741 247.087 387.647C247.214 387.574 247.429 387.385 247.572 387.392C247.819 387.403 248.191 387.915 248.359 388.086C248.651 388.384 248.939 388.689 249.234 388.983C251.41 391.152 254.012 393.332 257.023 394.2C257.723 394.403 258.445 394.548 259.166 394.661C259.855 394.77 260.15 393.72 259.458 393.611C258.073 393.393 256.739 393.048 255.492 392.398C254.169 391.708 252.904 390.851 251.778 389.873C250.652 388.896 249.704 387.857 248.665 386.844C248.224 386.412 247.707 386.157 247.098 386.408C246.434 386.68 245.833 387.134 245.21 387.483C243.916 388.202 242.534 388.776 241.207 389.434C239.881 390.091 238.477 390.727 237.063 391.214C236.327 391.468 235.587 391.693 234.865 391.984C234.173 392.264 233.487 392.561 232.766 392.769C232.044 392.976 231.308 393.099 230.582 393.277C230.017 393.415 229.452 393.557 228.866 393.542C227.466 393.513 227.156 392.173 227.47 391.025C227.849 389.648 228.665 388.275 229.474 387.109C230.283 385.943 231.264 384.868 232.288 383.887C233.327 382.892 234.544 382.038 235.882 381.493C238.656 380.367 241.63 379.586 244.637 379.575C245.385 379.575 246.125 379.662 246.868 379.749C247.612 379.837 248.333 379.895 249.059 380.018C250.491 380.258 251.938 380.672 253.261 381.279C254.603 381.893 255.849 382.605 257.118 383.357C258.339 384.079 259.334 385.035 260.074 386.252C260.828 387.494 261.291 388.885 261.565 390.306C261.711 391.058 261.856 391.835 261.834 392.605C261.82 393.161 261.565 393.459 261.025 393.597C260.522 393.728 259.965 393.691 259.454 393.619C259.159 393.575 258.871 393.691 258.78 394C258.707 394.254 258.871 394.628 259.163 394.672V394.661Z" fill="#333333"/>
<path d="M243.514 423.954C243.332 424.372 242.866 424.644 242.399 424.742C242.895 424.611 243.398 424.906 243.511 425.407C243.624 425.908 243.274 426.46 242.771 426.551C243.252 426.562 243.587 427.023 243.598 427.503C243.617 428.269 243.135 428.767 242.443 429C241.75 429.232 240.934 429.29 240.405 429.287C239.501 429.276 238.641 429.069 237.96 428.702C237.278 428.331 236.859 427.681 236.644 426.689C236.545 426.232 236.494 425.774 236.509 425.305C236.538 424.383 236.702 423.289 237.136 422.374C237.569 421.458 238.258 420.783 239.385 420.648C239.494 420.634 239.589 420.572 239.695 420.612C240.099 420.765 240.034 421.32 239.884 421.72C240.566 421.644 241.236 421.487 241.914 421.415C242.228 421.378 242.636 421.426 242.837 421.669C242.993 421.862 242.953 422.181 242.837 422.399C242.72 422.617 242.527 422.868 242.333 423.024C242.603 422.853 242.946 422.784 243.208 422.966C243.471 423.148 243.547 423.464 243.482 423.772C243.471 423.827 243.544 423.899 243.522 423.95L243.514 423.954Z" fill="#FFE6D9"/>
<path d="M243.045 423.682C242.881 424.005 242.596 424.136 242.257 424.219C241.569 424.386 241.864 425.407 242.549 425.269C243.088 425.16 243.107 425.905 242.629 426.028C241.991 426.188 242.192 427.038 242.775 427.1C243.048 427.129 243.078 427.521 243.045 427.725C242.997 427.997 242.826 428.2 242.6 428.342C242.057 428.684 241.262 428.731 240.639 428.745C239.33 428.774 237.8 428.444 237.322 427.078C236.845 425.708 237.005 423.961 237.614 422.653C237.843 422.159 238.164 421.713 238.649 421.444C238.776 421.371 238.908 421.32 239.05 421.28C239.192 421.24 239.418 421.248 239.538 421.182C239.71 421.164 239.68 421.128 239.451 421.077C239.465 421.113 239.469 421.15 239.458 421.19C239.411 421.309 239.403 421.462 239.363 421.586C239.258 421.894 239.546 422.316 239.892 422.276C240.57 422.196 241.244 422.025 241.922 421.971C242.017 421.963 242.13 421.949 242.225 421.963C242.246 421.963 242.436 422.058 242.4 421.981C242.494 422.178 242.061 422.559 241.951 422.653C241.477 423.075 242.082 423.805 242.615 423.511C243.085 423.249 242.939 423.809 242.997 424.114C243.129 424.8 244.182 424.51 244.051 423.823C244.036 423.711 244.029 423.707 244.029 423.823L244.047 423.678C244.051 423.554 244.047 423.427 244.022 423.304C243.963 423.046 243.836 422.813 243.642 422.635C243.183 422.218 242.567 422.287 242.061 422.57L242.724 423.427C243.376 422.846 243.927 421.662 242.957 421.081C242.553 420.837 242.068 420.863 241.62 420.924C241.04 421.001 240.471 421.124 239.892 421.193L240.42 421.883C240.635 421.262 240.632 420.325 239.852 420.103C239.531 420.013 239.075 420.147 238.762 420.238C238.427 420.336 238.106 420.488 237.825 420.692C236.52 421.633 236.108 423.402 235.999 424.917C235.89 426.417 236.203 428.284 237.603 429.13C239.01 429.98 241.065 430.075 242.604 429.541C243.365 429.276 243.996 428.731 244.127 427.906C244.28 426.976 243.752 426.119 242.786 426.017C242.833 426.373 242.884 426.729 242.932 427.089C243.719 426.889 244.248 426.075 244.054 425.273C243.858 424.459 243.052 424.074 242.272 424.23L242.564 425.28C243.161 425.135 243.719 424.804 244.003 424.241C244.32 423.616 243.38 423.064 243.059 423.692L243.045 423.682Z" fill="#333333"/>
<path d="M265.979 417.023C266.03 417.139 266.07 417.259 266.103 417.383C266.117 417.444 266.132 417.506 266.143 417.568C266.15 417.597 266.154 417.63 266.157 417.662C266.15 417.597 266.15 417.593 266.157 417.659C266.164 417.768 266.172 417.877 266.172 417.989C266.172 418.051 266.168 418.116 266.164 418.178C266.164 418.204 266.135 418.403 266.157 418.269C266.121 418.505 266.059 418.738 265.975 418.963C265.964 418.992 265.953 419.021 265.938 419.054C265.96 418.999 265.964 418.999 265.938 419.054C265.909 419.112 265.884 419.17 265.855 419.228C265.796 419.341 265.731 419.45 265.661 419.559C265.505 419.798 265.607 420.172 265.858 420.303C266.132 420.449 266.438 420.365 266.606 420.107C267.24 419.137 267.495 417.833 267.036 416.74C266.926 416.478 266.667 416.26 266.361 416.358C266.11 416.438 265.862 416.747 265.979 417.03V417.023Z" fill="#333333"/>
<path d="M259.669 419.98C259.863 420.83 260.052 421.684 260.347 422.508C260.646 423.347 261.04 424.147 261.43 424.949C261.558 425.214 261.937 425.284 262.177 425.145C262.447 424.986 262.502 424.666 262.374 424.401C262.013 423.656 261.645 422.915 261.372 422.134C261.095 421.339 260.912 420.514 260.726 419.693C260.57 419.01 259.516 419.297 259.673 419.984L259.669 419.98Z" fill="#333333"/>
<path d="M233.312 423.387C233.061 425.298 232.944 427.605 234.187 429.221C234.366 429.454 234.657 429.577 234.934 429.417C235.164 429.283 235.31 428.905 235.131 428.673C234.001 427.205 234.18 425.116 234.406 423.391C234.446 423.1 234.129 422.846 233.859 422.846C233.531 422.846 233.353 423.097 233.312 423.391V423.387Z" fill="#333333"/>
<path d="M250.23 421.972L250.031 421.726C250.026 421.72 250.03 421.711 250.038 421.711H251.706C251.717 421.711 251.725 421.721 251.723 421.732L251.711 421.793C251.71 421.799 251.708 421.804 251.704 421.809L250.747 422.988C250.742 422.994 250.746 423.003 250.754 423.003H251.396C251.406 423.003 251.416 422.998 251.423 422.99L251.516 422.878C251.519 422.873 251.526 422.873 251.53 422.878L251.728 423.121C251.732 423.127 251.728 423.136 251.721 423.136H250.052C250.04 423.136 250.032 423.126 250.034 423.115L250.046 423.056C250.047 423.05 250.05 423.045 250.053 423.04L251.015 421.858C251.02 421.853 251.016 421.844 251.008 421.844H250.371C250.36 421.844 250.35 421.849 250.343 421.857L250.244 421.972C250.24 421.976 250.234 421.976 250.23 421.972H250.23ZM247.274 422.665L246.77 422.698V422.129H247.161V421.901H246.506V422.938L247.274 422.89V422.665V422.665ZM247.016 422.484H247.299V422.978H247.564V421.869H247.299V422.256H247.016V422.484ZM247.64 422.959H248.736V422.737H247.64V422.959ZM247.671 422.522C247.92 422.516 248.089 422.408 248.187 422.274C248.285 422.408 248.454 422.516 248.704 422.522V422.31C248.454 422.291 248.32 422.112 248.32 421.978V421.876H248.055V421.978C248.055 422.112 247.921 422.291 247.671 422.31V422.522ZM248.773 422.509H249.019L248.999 422.589C248.908 422.604 248.837 422.685 248.837 422.785C248.837 422.895 248.922 422.984 249.027 422.984H249.675C249.781 422.984 249.866 422.894 249.866 422.784C249.866 422.674 249.781 422.585 249.675 422.585H249.24L249.258 422.509H249.554V422.325H248.773V422.509L248.773 422.509ZM248.8 422.086C248.8 422.197 248.888 422.287 248.997 422.287H249.303C249.412 422.287 249.502 422.197 249.502 422.086C249.502 421.976 249.412 421.882 249.303 421.882H248.997C248.888 421.882 248.8 421.972 248.8 422.086ZM249.023 422.082C249.023 422.058 249.038 422.04 249.057 422.04H249.249C249.268 422.04 249.284 422.058 249.284 422.082C249.284 422.106 249.268 422.123 249.249 422.123H249.057C249.038 422.123 249.023 422.106 249.023 422.082ZM249.078 422.778C249.078 422.76 249.09 422.75 249.104 422.75H249.596C249.611 422.75 249.622 422.76 249.622 422.778C249.622 422.796 249.611 422.807 249.596 422.807H249.104C249.09 422.807 249.078 422.796 249.078 422.778ZM249.586 422.56H249.857V421.869H249.586V422.56ZM251.891 422.104H252.049V422.167C252.049 422.459 252.012 422.607 251.878 422.696V422.94C252.002 422.888 252.093 422.807 252.155 422.683C252.217 422.807 252.309 422.888 252.433 422.94V422.696C252.3 422.607 252.263 422.459 252.263 422.167V422.104H252.42V421.901H251.891V422.104ZM252.326 422.484H252.489V422.978H252.697V421.869H252.489V422.281H252.326V422.484ZM252.748 422.978H252.962V421.869H252.748V422.978ZM253.037 422.959H254.133V422.75H253.037V422.959ZM253.082 422.078H254.102V421.888H253.082V422.078ZM254.102 422.382H253.346V422.313H254.102V422.129H253.082V422.585H254.102V422.382Z" fill="white"/>
</g>
<defs>
<clipPath id="clip0_40_1034">
<rect width="60.5432" height="77.9" fill="white" transform="translate(220.763 378.485)"/>
</clipPath>
</defs>
</svg>
