<svg width="65" height="107" viewBox="0 0 65 107" fill="none" xmlns="http://www.w3.org/2000/svg">
<g clip-path="url(#clip0_4_16844)">
<path d="M32.3666 96.3593C33.7304 96.3494 35.0547 96.3345 36.3543 96.3642C37.6836 96.3988 38.998 96.4433 40.3273 96.4581C41.6269 96.4729 42.9314 96.5372 44.2903 96.4828C44.3002 97.2736 44.3595 99.5866 44.3793 100.689C44.3793 100.802 44.3348 100.906 44.3397 100.99C44.3496 101.618 44.4287 102.315 44.7153 102.814C45.1007 103.496 45.837 103.699 46.425 104.035C47.0131 104.371 47.6901 105.087 47.5962 105.932C46.5436 106.007 45.4417 106.061 44.3842 106.105C43.3267 106.15 42.2693 106.076 41.2118 106.096C40.1543 106.115 39.1018 106.288 38.0443 106.278C36.9868 106.268 35.9393 106.026 34.8818 105.992C34.3975 105.977 33.938 105.977 33.5278 105.626C32.9101 105.097 32.6977 104.079 32.5593 103.12C32.5445 103.026 32.5791 102.928 32.5692 102.819C32.4901 102.013 32.4506 100.802 32.4605 99.6014C32.4703 98.3411 32.4407 97.0858 32.3715 96.3691L32.3666 96.3593Z" fill="#333333"/>
<path d="M32.3666 97.1005C36.3346 97.0758 40.3224 97.3723 44.2904 97.224L43.5491 96.4827C43.564 97.2883 43.5837 98.0889 43.5986 98.8945C43.6183 99.7743 43.5393 100.698 43.6282 101.568C43.732 102.606 44.0779 103.516 44.9772 104.109C45.7036 104.588 46.8994 104.85 46.85 105.932L47.5913 105.191C45.5405 105.329 43.5096 105.334 41.454 105.349C40.3965 105.354 39.344 105.517 38.2865 105.532C37.2932 105.547 36.3198 105.349 35.3315 105.27C34.9757 105.24 34.5359 105.305 34.2048 105.171C33.8342 105.018 33.6613 104.598 33.5476 104.242C33.3005 103.471 33.2808 102.685 33.2412 101.885C33.1474 100.046 33.2709 98.1977 33.1078 96.3591C33.0238 95.4152 31.5414 95.4053 31.6254 96.3591C31.8033 98.3904 31.6402 100.432 31.7934 102.463C31.9169 104.074 32.1689 106.352 34.1455 106.664C35.1239 106.822 36.1468 106.857 37.1351 106.955C38.3408 107.074 39.5169 106.911 40.7226 106.847C41.8592 106.787 43.0006 106.876 44.1372 106.847C45.2885 106.817 46.4448 106.743 47.5913 106.669C48.0063 106.639 48.3127 106.352 48.3325 105.927C48.3769 104.894 47.7543 104.015 46.9192 103.466C46.5387 103.219 46.094 103.086 45.7234 102.819C45.2984 102.512 45.165 102.063 45.1057 101.558C45.0069 100.723 45.1008 99.8187 45.081 98.9687C45.0612 98.1384 45.0415 97.3081 45.0266 96.4728C45.0217 96.0824 44.6906 95.7166 44.2854 95.7315C40.3224 95.8797 36.3346 95.5832 32.3617 95.6079C31.408 95.6129 31.408 97.0955 32.3617 97.0906L32.3666 97.1005Z" fill="#333333"/>
<path d="M45.5504 75.7993C45.501 77.6972 45.3626 77.6922 45.3132 79.5901C45.2638 81.4879 45.3528 81.4879 45.3033 83.3857C45.2539 85.2835 45.081 85.2786 45.0316 87.1764C44.9822 89.0743 45.0118 89.0743 44.9624 90.9721C44.913 92.8699 45.0217 92.8699 44.9723 94.7677C44.9229 96.6656 45.0019 96.6656 44.9525 98.5683C44.9031 100.471 44.7894 100.461 44.74 102.364C44.7252 102.858 44.404 103.204 43.9988 103.209C42.1507 103.209 42.1507 103.224 40.3075 103.229C38.4594 103.229 38.4594 103.254 36.6113 103.259C34.7632 103.259 34.7632 103.229 32.9151 103.234C32.505 103.234 32.2529 102.868 32.2529 102.364C32.2529 100.674 32.1739 100.674 32.1739 98.9835C32.1739 97.2932 32.1294 97.2932 32.1294 95.603C32.1294 93.9127 32.2875 93.9127 32.2826 92.2225C32.2777 90.5322 32.1739 90.5322 32.1689 88.842C32.1689 87.1517 31.996 87.1517 31.991 85.4615C31.9861 83.7712 32.2184 83.7712 32.2134 82.081C32.2134 80.3907 32.0009 80.3907 32.0009 78.6955C32.0009 77.0053 32.1936 77.0053 32.1887 75.3101" fill="#AFAFAF"/>
<path d="M44.8091 75.7996C44.7795 76.7979 44.656 77.7864 44.6016 78.7798C44.5423 79.8473 44.5621 80.9099 44.5719 81.9774C44.5967 84.1866 44.2853 86.3711 44.2557 88.5753C44.1964 92.6972 44.3595 96.8339 44.058 100.946C44.0432 101.173 44.0284 101.405 44.0185 101.633C44.0086 101.806 44.0926 102.34 43.9592 102.458C43.9296 102.483 43.3563 102.453 43.1785 102.458C42.8968 102.458 42.6102 102.458 42.3285 102.463C41.2266 102.473 40.1246 102.468 39.0227 102.483C37.9751 102.493 36.9275 102.508 35.8799 102.503C35.4451 102.503 35.0102 102.493 34.5754 102.488C34.3481 102.488 34.1208 102.483 33.8885 102.478C33.7749 102.478 33.6612 102.478 33.5426 102.478C33.4092 102.478 33.2708 102.478 33.1374 102.478C32.8903 102.463 32.831 102.463 32.9546 102.488C33.0435 102.572 32.9842 102.102 32.9842 102.117C32.9842 101.984 32.9842 101.85 32.9842 101.717C32.9842 101.465 32.9743 101.218 32.9645 100.966C32.9447 100.476 32.92 99.992 32.915 99.5027C32.9002 98.4648 32.8854 97.4269 32.8706 96.394C32.8557 95.3611 32.9397 94.254 32.999 93.1716C33.0583 92.0893 32.9793 91.0168 32.9299 89.9394C32.8755 88.7335 32.8162 87.5375 32.752 86.3315C32.6877 85.1256 32.8903 83.9197 32.9397 82.694C32.9892 81.4881 32.7767 80.3217 32.7421 79.1208C32.7026 77.8358 32.92 76.5755 32.9249 75.2955C32.9249 74.3416 31.4474 74.3416 31.4425 75.2955C31.4425 76.4668 31.2448 77.6233 31.2547 78.7946C31.2646 79.9659 31.4721 81.0433 31.4672 82.18C31.4622 83.3514 31.23 84.5029 31.2448 85.6792C31.2596 86.8109 31.4128 87.9279 31.4227 89.0597C31.4326 90.1865 31.5413 91.3133 31.5314 92.4402C31.5215 93.567 31.3733 94.6889 31.3782 95.8207C31.3782 96.9475 31.4178 98.0744 31.4227 99.2012C31.4326 100.293 31.4079 101.445 31.5166 102.532C31.571 103.111 31.8674 103.659 32.4308 103.872C32.9941 104.084 33.7254 103.961 34.3184 103.97C35.4599 103.985 36.5964 103.995 37.7379 103.985C38.8893 103.975 40.0456 103.966 41.1969 103.956C41.6565 103.956 42.121 103.951 42.5805 103.946C43.1587 103.946 43.8456 104.035 44.4039 103.872C45.7431 103.481 45.4713 101.771 45.5602 100.694C45.6541 99.557 45.7035 98.4253 45.7035 97.2885C45.6986 95.109 45.6541 92.9196 45.7035 90.7351C45.7332 89.4699 45.7282 88.2047 45.7727 86.9394C45.8123 85.7484 46.005 84.5721 46.0396 83.3761C46.0742 82.1108 46.0149 80.8456 46.0494 79.5804C46.084 78.3152 46.252 77.0599 46.2866 75.7897C46.3163 74.8358 44.8338 74.8358 44.8042 75.7897L44.8091 75.7996Z" fill="#333333"/>
<path d="M18.491 103.837C19.079 103.506 19.8845 103.412 20.2748 102.735C20.5614 102.236 20.5219 101.529 20.5367 100.901C20.5367 100.817 20.601 100.713 20.6059 100.605C20.6306 99.5026 20.6998 97.1798 20.7196 96.389C22.0834 96.4582 23.3929 96.3643 24.6925 96.3593C26.0218 96.3544 27.3362 96.3149 28.6654 96.2902C29.965 96.2654 31.2597 96.3989 32.6186 96.4137C32.5445 97.1303 32.5791 98.3362 32.5791 99.6015C32.5791 100.797 32.5 102.008 32.416 102.809C32.4061 102.918 32.3468 103.007 32.3369 103.096C32.1887 104.059 32.1393 105.186 31.5216 105.715C31.1115 106.066 30.563 106.091 30.0787 106.101C29.0212 106.13 27.9637 106.145 26.9112 106.145C25.8587 106.145 24.7963 106.15 23.7437 106.125C22.6863 106.101 21.6337 105.997 20.5812 105.947C19.5287 105.893 18.5305 105.764 17.478 105.685C17.394 104.84 17.9128 104.168 18.5008 103.837H18.491Z" fill="#333333"/>
<path d="M18.8665 104.474C19.6225 104.079 20.4626 103.906 20.9172 103.105C21.3372 102.364 21.268 101.42 21.3471 100.6C21.4854 99.2108 21.4261 97.7775 21.4607 96.3838L20.7195 97.1252C22.6961 97.2092 24.6974 97.1054 26.6789 97.0659C28.6605 97.0263 30.6321 97.1153 32.6186 97.1499L31.8773 96.4085C31.7143 98.2223 31.8773 100.061 31.7538 101.88C31.6995 102.651 31.5809 103.431 31.4277 104.188C31.3684 104.479 31.314 104.85 31.1065 105.077C30.8248 105.379 30.3307 105.344 29.9601 105.359C27.8896 105.418 25.8142 105.438 23.7437 105.384C21.6732 105.329 19.5632 105.107 17.4779 104.944L18.2191 105.685C18.1944 105.151 18.4217 104.756 18.8714 104.474C19.6818 103.975 18.9406 102.69 18.1253 103.194C17.2407 103.738 16.6873 104.632 16.7367 105.685C16.7565 106.11 17.0628 106.392 17.4779 106.427C19.8103 106.609 22.1377 106.852 24.475 106.881C25.6116 106.896 26.753 106.891 27.8896 106.881C28.9273 106.871 30.1132 106.99 31.1213 106.723C32.0157 106.486 32.5444 105.799 32.7816 104.939C32.9991 104.158 33.1226 103.273 33.1967 102.463C33.3795 100.446 33.1868 98.42 33.3647 96.4085C33.3993 96.0033 32.9941 95.6721 32.6235 95.6672C30.637 95.6326 28.6703 95.5436 26.6839 95.5832C24.7023 95.6227 22.701 95.7265 20.7245 95.6425C20.3193 95.6227 19.9931 95.9983 19.9832 96.3838C19.9536 97.6144 19.919 98.85 19.8844 100.081C19.8795 100.362 19.8301 100.619 19.8053 100.896C19.7708 101.272 19.835 101.662 19.751 102.033C19.5879 102.779 18.7133 102.883 18.1253 103.189C17.2803 103.629 18.0264 104.909 18.8714 104.469L18.8665 104.474Z" fill="#333333"/>
<path d="M33.0386 83.8701C33.0089 85.7235 32.9595 85.7235 32.9299 87.5719C32.9002 89.4252 33.0139 89.4252 32.9842 91.2786C32.9546 93.1319 32.9595 93.1319 32.9299 94.9803C32.9002 96.8287 32.7668 96.8287 32.7372 98.6821C32.7075 100.535 32.8459 100.535 32.8113 102.389C32.8014 102.893 32.3616 103.268 31.9515 103.264C30.1034 103.234 30.1034 103.175 28.2602 103.145C26.417 103.115 26.4072 103.259 24.559 103.229C22.7109 103.199 22.7159 103.026 20.8678 102.997C20.4675 102.992 20.2007 102.695 20.1957 102.201C20.171 100.372 20.0228 100.372 19.9981 98.5437C19.9734 96.715 20.0327 96.715 20.008 94.8815C19.9833 93.0528 20.0228 93.0528 19.9981 91.2193C19.9734 89.3906 19.8202 89.3906 19.7955 87.557C19.7708 85.7284 19.8696 85.7235 19.8449 83.8948C19.8202 82.0612 19.8399 82.0612 19.8152 80.2326C19.7905 78.404 19.7362 78.404 19.7115 76.5704C19.7065 76.0564 20.1216 75.6165 20.5416 75.6215C22.2662 75.6363 22.2662 75.6066 23.9957 75.6215C25.7252 75.6363 25.7252 75.7302 27.4498 75.745C29.1793 75.7599 29.1793 75.75 30.9088 75.7648C32.6383 75.7796 32.6383 75.8093 34.3679 75.8241" fill="#AFAFAF"/>
<path d="M32.2973 83.8703C32.2776 85.0268 32.2133 86.1833 32.1886 87.3398C32.1639 88.4962 32.243 89.5391 32.243 90.6412C32.2479 92.9492 32.1689 95.2474 32.0256 97.5505C31.9564 98.6971 31.9959 99.8338 32.0453 100.98C32.0602 101.282 32.2183 102.379 31.9712 102.517C31.7884 102.621 31.2646 102.517 31.0422 102.508C30.7853 102.498 30.5332 102.488 30.2763 102.478C29.0854 102.424 27.8945 102.369 26.7036 102.433C25.5127 102.498 24.4157 102.532 23.2693 102.433C22.8394 102.399 22.4144 102.34 21.9895 102.31C21.6633 102.285 21.2878 102.33 20.9715 102.265C20.7343 102.216 20.9715 102.399 20.927 102.211C20.8776 101.994 20.9172 101.717 20.9073 101.489C20.8579 100.363 20.7343 99.2457 20.7244 98.1139C20.7096 95.9294 20.759 93.7449 20.7343 91.5654C20.7244 90.4386 20.5861 89.3265 20.5416 88.2047C20.4971 87.0926 20.5614 85.9905 20.5762 84.8834C20.6108 82.5853 20.5614 80.2822 20.4774 77.984C20.4675 77.6628 20.4576 77.3416 20.4527 77.0203C20.4527 76.9561 20.4131 76.6595 20.4477 76.5804C20.5614 76.3234 20.4625 76.4124 20.7739 76.3729C21.3569 76.3037 21.9895 76.3729 22.5775 76.3729C23.8376 76.363 25.0878 76.4174 26.3478 76.4717C29.0113 76.5903 31.6945 76.5508 34.3629 76.5755C35.3166 76.5854 35.3166 75.1027 34.3629 75.0928C31.7439 75.0681 29.1101 75.0928 26.4961 74.994C25.2805 74.9495 24.0748 74.8853 22.8542 74.8853C22.3551 74.8853 21.861 74.8951 21.3619 74.8951C20.6157 74.8951 19.9289 74.8358 19.3902 75.4487C18.901 75.9973 18.9653 76.704 18.9801 77.391C18.9949 77.9198 19.0196 78.4486 19.0394 78.9774C19.0839 80.1982 19.0789 81.4189 19.0839 82.6397C19.0987 85.091 19.0147 87.5177 19.2025 89.9641C19.3853 92.3858 19.2717 94.8619 19.2469 97.2885C19.2321 98.5439 19.3161 99.7695 19.4001 101.02C19.4446 101.672 19.3161 102.468 19.6571 103.056C20.0623 103.763 20.7788 103.738 21.4953 103.773C22.7307 103.827 23.9463 104 25.1915 103.99C26.4269 103.98 27.6524 103.882 28.8877 103.916C29.3918 103.931 29.8958 103.956 30.4048 103.975C31.0422 104.005 31.8081 104.139 32.4159 103.946C33.8292 103.501 33.5772 101.771 33.5129 100.615C33.4388 99.2506 33.4882 97.9014 33.597 96.5422C33.7057 95.1782 33.6859 93.7993 33.7057 92.4303C33.7254 91.0267 33.6661 89.628 33.6661 88.2244C33.6661 86.7763 33.7551 85.3283 33.7847 83.8851C33.7996 82.9313 32.3171 82.9313 32.3023 83.8851L32.2973 83.8703Z" fill="#333333"/>
<path d="M17.725 56.757C17.8239 56.1393 17.8436 55.5067 18.0067 54.8889C18.2637 53.9251 18.5157 52.9268 18.9406 52.0273C19.3706 51.1179 19.9141 50.2382 20.6158 49.5166C21.8462 48.2514 23.2249 48.0438 24.6085 47.945C25.9971 47.8461 27.4647 47.9697 28.9866 47.6485C30.2072 47.3915 31.4623 47.263 32.7224 47.2877C33.9874 47.3074 35.2475 47.4112 36.4532 47.7374C37.397 47.9895 38.8449 48.37 40.1148 48.9779C41.449 49.6204 42.5806 50.5199 42.8425 51.5776C43.1291 52.734 43.3268 53.9103 43.5689 55.0767C43.811 56.2431 44.1965 57.3847 44.3941 58.556C44.5918 59.7273 44.6758 60.9234 44.829 62.1046C44.9822 63.2858 45.1749 64.467 45.2786 65.6531C45.3874 66.8393 45.3281 68.0353 45.3923 69.2264C45.4516 70.4175 45.5998 71.6036 45.6147 72.7947C45.6295 74.0154 45.6048 75.1077 45.3034 75.9676C44.9871 76.8721 44.3151 77.5343 42.8969 77.8309C41.874 78.0434 40.8017 78.1719 39.7096 78.2213C38.6472 78.2707 37.565 78.3004 36.4977 78.2855C35.4303 78.2707 34.3234 78.2312 33.2907 78.2361C32.1195 78.2411 30.9435 78.078 29.7723 78.0631C28.6012 78.0434 27.4251 78.073 26.254 78.0285C25.0829 77.9841 23.9118 77.8902 22.7406 77.8259C21.3471 77.8259 19.9487 77.3515 18.8072 76.5162C17.641 75.6661 16.7961 74.5146 16.6626 73.0467C16.5094 71.3763 16.213 69.6415 16.2723 67.9612C16.3068 66.9529 16.6824 66.093 16.8504 65.1095C17.0827 63.7158 17.2062 62.322 17.3001 60.9333C17.394 59.5445 17.5027 58.1607 17.725 56.7669V56.757Z" fill="#FCFCFC"/>
<path d="M18.4416 56.9545C18.8616 54.0633 19.7165 49.8426 23.0174 48.9233C24.4899 48.5131 26.0564 48.6861 27.5635 48.5774C28.4233 48.5131 29.2535 48.3253 30.1084 48.1919C31.0127 48.0535 31.9318 48.009 32.846 48.0238C34.4865 48.0584 36.0283 48.3451 37.5947 48.8146C38.9882 49.2347 40.52 49.7586 41.5627 50.8261C42.0865 51.3648 42.1952 51.9727 42.3484 52.6943C42.5312 53.5493 42.6844 54.4092 42.8623 55.2642C43.228 57.0039 43.7122 58.6596 43.9099 60.4388C44.1026 62.1735 44.3991 63.9033 44.5473 65.643C44.6956 67.3827 44.6412 69.1372 44.7796 70.8818C44.8982 72.3991 45.0958 74.119 44.6561 75.5967C44.2558 76.941 42.8079 77.1288 41.5973 77.3018C39.9221 77.539 38.1976 77.5539 36.5076 77.5341C34.8127 77.5094 33.1128 77.5193 31.4228 77.4006C29.6637 77.2771 27.9045 77.3463 26.1453 77.2771C25.325 77.2425 24.5048 77.1881 23.6845 77.1338C22.8049 77.0794 21.9352 77.0794 21.0853 76.8224C19.6028 76.3726 18.0611 75.2853 17.5719 73.7532C17.31 72.9427 17.31 72.0383 17.2161 71.1981C17.1025 70.1998 16.9987 69.1915 17.0184 68.1833C17.0382 67.3283 17.31 66.5425 17.4928 65.7171C17.7053 64.7583 17.8041 63.76 17.903 62.7864C18.0907 60.8441 18.15 58.8919 18.4515 56.9644C18.5948 56.0303 17.1667 55.63 17.0234 56.569C16.7269 58.4767 16.633 60.3993 16.465 62.3218C16.381 63.2559 16.2921 64.1999 16.1092 65.1191C15.9264 66.0384 15.6299 66.844 15.5558 67.7435C15.4075 69.5424 15.7337 71.4501 15.956 73.2343C16.1537 74.8059 17.0481 76.0959 18.2983 77.0399C19.7857 78.1667 21.4065 78.4781 23.2249 78.5917C25.1027 78.7103 26.9706 78.7894 28.8533 78.7943C30.7359 78.7993 32.7274 78.9525 34.6644 78.9871C36.5125 79.0217 38.3557 79.0612 40.1988 78.9377C41.7752 78.829 43.7271 78.74 45.0069 77.6972C46.1335 76.7779 46.3361 75.2705 46.3757 73.9015C46.43 72.0185 46.1583 70.1553 46.1286 68.2772C46.094 66.2707 45.8914 64.3333 45.6246 62.3465C45.3775 60.4981 45.2589 58.6497 44.7944 56.8359C44.5671 55.9512 44.3447 55.0764 44.1668 54.1819C43.9741 53.2083 43.8506 52.1803 43.5393 51.2363C43.0402 49.724 41.5133 48.775 40.1297 48.1672C38.6868 47.5345 37.0907 47.0354 35.5292 46.7833C33.3796 46.4324 31.1807 46.4868 29.041 46.897C27.099 47.2677 25.1126 47.0205 23.1755 47.3863C21.2385 47.752 19.8153 49.0419 18.827 50.7025C17.7498 52.5114 17.3298 54.518 17.0283 56.5739C16.89 57.508 18.3181 57.9084 18.4564 56.9693L18.4416 56.9545Z" fill="#333333"/>
<path d="M24.8408 61.8128C24.8852 62.9149 24.8161 64.017 24.8655 65.1191C24.9149 66.2213 24.9989 67.3185 25.0384 68.4206C25.0779 69.5227 25.0829 70.6248 25.1076 71.722C25.1323 72.8241 25.2608 73.9213 25.2657 75.0234C25.2657 76.1256 25.2015 77.2277 25.1718 78.3298C25.1372 79.6346 23.5955 80.0942 21.9253 80.1189C20.3885 80.1436 18.7084 79.8767 17.9079 79.8422C17.6065 79.8273 17.3149 79.6692 17.0975 79.4567C16.9196 79.2787 16.8109 79.0563 16.7664 78.8092C16.6132 77.9344 16.4798 77.0498 16.3266 76.175C16.1734 75.3002 16.0647 74.3414 15.9115 73.4617C14.5032 73.3974 13.1147 72.9032 12.0572 71.9741C10.9997 71.0449 10.2585 69.7995 9.81377 68.4898C9.50246 67.5656 9.17632 66.5277 9.12691 65.4503C9.07749 64.4223 9.41845 63.3844 9.61611 62.3762C9.82859 61.3235 9.94225 60.2362 10.4364 59.3812C10.9454 58.5015 11.6322 57.7255 12.2894 56.9496C12.9467 56.1737 13.7521 55.5312 14.4489 54.7997C15.4619 53.7371 16.3661 52.6251 17.389 51.6564C18.4119 50.6877 19.4941 49.7685 20.8678 49.1705C22.5677 48.4291 24.6233 48.0486 24.6826 50.5592C24.7123 51.8096 24.7469 53.065 24.7568 54.3154C24.7666 55.5658 24.4899 56.8211 24.5047 58.0715C24.5196 59.3219 24.7815 60.5673 24.8358 61.8177L24.8408 61.8128Z" fill="#AFAFAF"/>
<path d="M24.0995 61.8128C24.1341 62.8754 24.0797 63.938 24.1192 65.0006C24.1588 66.0632 24.2428 67.1208 24.2873 68.1834C24.3762 70.3036 24.4503 72.4337 24.5146 74.554C24.5442 75.577 24.4899 76.6001 24.4503 77.6231C24.4207 78.4238 24.4207 78.8488 23.5955 79.1355C21.9648 79.6989 20.0425 79.2837 18.3723 79.1355C17.9474 79.0959 17.6163 79.091 17.4779 78.6116C17.3149 78.0383 17.2753 77.4007 17.1765 76.8175C16.9788 75.6363 16.8207 74.4452 16.6181 73.269C16.5638 72.9379 16.208 72.7451 15.9016 72.7253C14.3944 72.6314 13.0257 72.0235 12.0077 70.8967C10.9848 69.7649 10.4363 68.2971 10.0806 66.8342C9.89278 66.0829 9.79889 65.3218 9.9076 64.5459C10.0262 63.7057 10.2733 62.8804 10.4265 62.0501C10.5549 61.3433 10.6587 60.5871 10.9799 59.9348C11.3307 59.2132 11.8743 58.5855 12.3882 57.9776C13.4358 56.7371 14.6662 55.6844 15.7534 54.4834C16.8405 53.2825 17.8337 52.1705 19.0444 51.1771C20.0129 50.3863 21.1395 49.724 22.37 49.4423C23.2397 49.2397 23.8425 49.4176 23.9315 50.3814C24.0204 51.2907 23.9809 52.2298 23.9957 53.1441C24.0105 54.0584 24.0007 55.0172 23.9068 55.9612C23.8129 56.9052 23.7239 57.8294 23.7931 58.7783C23.8672 59.7964 24.0402 60.8046 24.0896 61.8227C24.139 62.7716 25.6215 62.7766 25.572 61.8227C25.5226 60.8688 25.3596 59.8755 25.2805 58.8969C25.2014 57.9084 25.2854 56.9447 25.3843 55.9661C25.488 54.948 25.488 53.9398 25.4683 52.9167C25.4534 51.9925 25.488 51.0337 25.3793 50.1145C25.2311 48.8937 24.475 47.9943 23.215 47.8905C21.9549 47.7867 20.6009 48.3995 19.5533 49.0173C18.0561 49.897 16.7762 51.1524 15.61 52.4275C14.9479 53.154 14.3104 53.9052 13.6137 54.5922C12.9664 55.2297 12.2795 55.8228 11.6865 56.5147C11.0936 57.2066 10.5105 57.8887 10.0163 58.6448C9.53699 59.3763 9.28003 60.1769 9.10708 61.027C8.74141 62.8655 8.17315 64.6843 8.50422 66.5673C8.83036 68.4453 9.58146 70.3432 10.8267 71.8011C12.1164 73.3135 13.9398 74.0943 15.9016 74.213C15.6644 74.0301 15.4272 73.8522 15.1851 73.6693C15.3877 74.8505 15.5458 76.0367 15.7435 77.2179C15.9164 78.2656 15.8967 79.5506 16.8504 80.2228C17.5718 80.7318 18.6738 80.6577 19.5237 80.7417C20.596 80.8455 21.688 80.9394 22.7603 80.8158C23.6103 80.717 24.5047 80.5143 25.1619 79.9312C25.8982 79.2788 25.8932 78.4287 25.9278 77.5144C26.0168 75.068 25.8488 72.6463 25.8092 70.1998C25.7845 68.8209 25.7153 67.447 25.6412 66.0731C25.5671 64.6991 25.6165 63.2411 25.5671 61.8227C25.5325 60.8688 24.0501 60.8688 24.0847 61.8227L24.0995 61.8128Z" fill="#333333"/>
<path d="M22.4688 48.0439C21.5348 48.3998 20.8134 49.1312 20.1661 49.8924C19.5187 50.6535 18.9159 51.4788 18.7034 52.4574C18.5601 53.1246 18.5107 53.8462 18.6886 54.4985C19.1036 56.0109 20.5762 56.9894 21.8857 57.8593C20.759 58.7687 19.4644 59.9548 19.6522 61.3881C19.7362 62.0404 20.0475 62.6879 20.4378 63.2216C21.441 64.5956 22.6368 65.846 23.8722 67.0173" fill="#AFAFAF"/>
<path d="M22.2711 47.3271C21.1099 47.8114 20.2402 48.6318 19.4446 49.5956C18.649 50.5593 18.0264 51.6516 17.8732 52.9613C17.5619 55.6152 19.5138 57.1721 21.5101 58.4966C21.4607 58.1061 21.4113 57.7206 21.3619 57.3302C19.8498 58.5559 18.3674 60.177 19.1036 62.2626C19.4693 63.2955 20.1809 64.1406 20.8776 64.966C21.6485 65.8754 22.4836 66.7205 23.3484 67.5409C24.0402 68.1982 25.0877 67.1505 24.3959 66.4932C23.0865 65.2477 21.5497 63.8688 20.7047 62.2527C20.3242 61.5212 20.2698 60.8096 20.7096 60.1028C21.1494 59.3961 21.7918 58.887 22.4095 58.3879C22.8048 58.0666 22.617 57.4637 22.2612 57.2215C20.7986 56.2479 19.1432 55.1606 19.3359 53.1738C19.4298 52.2001 19.8844 51.3946 20.4971 50.6483C21.1099 49.902 21.777 49.131 22.6664 48.7603C23.5559 48.3897 23.1556 46.9663 22.2711 47.332V47.3271Z" fill="#333333"/>
<path d="M31.1658 59.6039C31.1658 59.3518 31.0818 59.1245 31.0028 58.8873C30.6667 57.8494 29.718 57.2069 29.3918 56.1542C29.1201 55.2893 29.0707 54.1526 29.214 53.2481C29.5351 51.2317 30.9385 50.2037 32.7718 50.5546C34.447 50.8759 34.9708 52.0225 35.0301 53.3322C35.0844 54.548 34.6693 55.9269 34.19 57.1081C33.7403 58.2201 33.7206 59.4161 33.7354 60.6072C33.7502 61.7736 33.9083 62.9498 34.1702 64.1112C34.4321 65.2727 34.862 66.4242 35.1832 67.5066C35.5786 68.8311 35.6576 70.1606 35.4748 71.5691C35.4353 71.8657 34.9263 72.8937 34.3284 73.9216C33.6563 75.0732 33.1177 76.1654 33.1227 76.1753C32.589 75.4537 31.9812 74.7915 31.4475 74.0699C30.9138 73.3483 30.4641 72.5675 29.9305 71.8459C29.7773 71.6383 29.5846 71.4851 29.5154 71.1935C29.4363 70.8574 29.545 70.5164 29.6043 70.1705C29.7773 69.1178 29.7625 68.0354 29.9305 66.9876C30.0985 65.9399 30.2863 64.8921 30.4592 63.8394C30.6322 62.7867 30.8792 61.7538 31.067 60.706C31.1312 60.3452 31.1658 59.9696 31.1658 59.6039Z" fill="#95BECE"/>
<path d="M31.907 59.6037C31.8033 58.2891 30.9583 57.5033 30.3258 56.4308C29.7526 55.4572 29.7377 54.0041 30.0342 52.9366C30.2714 52.0865 30.8446 51.3798 31.7489 51.2463C32.668 51.1129 33.7453 51.4786 34.1011 52.388C34.5359 53.4951 34.1949 54.8147 33.8441 55.8921C33.6415 56.5197 33.35 57.1178 33.2067 57.7603C33.0337 58.5115 32.9892 59.2874 32.9843 60.0535C32.9744 61.5609 33.1424 63.0682 33.5031 64.5312C33.8392 65.9002 34.4124 67.2049 34.6842 68.5887C34.8423 69.4141 34.862 70.2691 34.783 71.1044C34.7286 71.7024 34.4223 72.2164 34.1406 72.7402C33.5773 73.7979 32.8064 74.8358 32.4061 75.9774L33.7601 75.7995C32.8805 74.6282 31.9515 73.5211 31.1411 72.3004C30.8644 71.8852 30.2072 71.2872 30.2368 70.7782C30.2764 70.0517 30.4543 69.3103 30.5086 68.5739C30.6223 67.0468 30.9138 65.5443 31.1708 64.032C31.4277 62.5196 31.8725 61.0963 31.9021 59.5988C31.9219 58.6449 30.4394 58.6449 30.4197 59.5988C30.39 61.1457 29.8959 62.7173 29.6389 64.2396C29.3721 65.8359 29.125 67.4125 28.9916 69.0237C28.9323 69.7205 28.6704 70.4866 28.7742 71.1834C28.8631 71.816 29.3325 72.251 29.6785 72.76C30.1182 73.4075 30.5284 74.0697 31.0028 74.6875C31.4821 75.3152 32.0108 75.9082 32.4852 76.5408C32.8706 77.0548 33.6168 77.0005 33.8392 76.3629C33.7255 76.6891 33.9627 76.1356 34.0072 76.0516C34.1406 75.7896 34.2839 75.5277 34.4223 75.2657C34.8176 74.5442 35.2475 73.8374 35.6181 73.106C35.8652 72.6216 36.1419 72.1126 36.2111 71.564C36.3247 70.7337 36.3346 69.8886 36.2407 69.0533C36.0579 67.4273 35.3957 65.9249 34.9856 64.3483C34.5557 62.6926 34.3877 60.9727 34.4865 59.2627C34.5804 57.6219 35.4451 56.1837 35.6823 54.5676C35.8553 53.3913 35.796 52.0668 35.0548 51.0833C33.6217 49.1805 30.4493 49.3485 29.1547 51.2908C28.3294 52.5264 28.2652 54.1821 28.5024 55.6005C28.6259 56.3418 28.9026 56.9991 29.3424 57.607C29.7822 58.2149 30.3653 58.8228 30.4246 59.5938C30.4987 60.5378 31.9812 60.5477 31.907 59.5938V59.6037Z" fill="#333333"/>
<path d="M40.5151 61.8077C40.4706 62.9099 40.5843 64.0169 40.5349 65.1141C40.4854 66.2113 40.3026 67.3085 40.2631 68.4106C40.2235 69.5127 40.4014 70.6198 40.3767 71.7219C40.352 72.824 40.268 73.9212 40.2631 75.0233C40.2631 76.1255 40.3174 77.2226 40.3471 78.3248C40.3817 79.5702 41.5182 80.02 42.9216 80.1188C44.2261 80.2127 45.6937 79.8915 46.4597 79.9261C47.0378 79.9557 47.7296 80.0694 48.0854 79.6098C48.2979 79.3379 48.3177 78.9623 48.3523 78.6213C48.4511 77.6576 48.4708 76.6839 48.5697 75.7202C48.5845 75.5522 48.6142 75.3149 48.7327 75.1963C48.8217 75.1024 49.0095 75.1123 49.133 75.0728C50.2004 74.712 51.1837 74.1584 52.0732 73.4665C52.9626 72.7796 53.7384 71.9542 54.366 71.0251C54.9985 70.091 55.5421 69.0877 55.8287 68.0004C56.1153 66.9131 56.1598 65.7813 56.0165 64.6446C55.8682 63.4683 55.4334 62.3613 54.9837 61.2641C54.5439 60.1916 54.0646 59.1834 53.5111 58.2345C52.9379 57.246 52.3795 56.2675 51.6877 55.3927C50.9959 54.5179 50.1707 53.742 49.3554 52.9462C48.5647 52.1753 47.7889 51.3548 46.8846 50.6382C46.0545 49.9809 44.6363 49.1209 43.4157 48.7206C42.0519 48.2758 41.0043 48.4982 40.9549 50.5591C40.9252 51.8095 40.8709 53.0599 40.861 54.3103C40.8511 55.5607 40.7473 56.8111 40.7325 58.0615C40.7177 59.3119 40.5645 60.5573 40.5151 61.8077Z" fill="#AFAFAF"/>
<path d="M39.7738 61.8078C39.7244 63.3893 39.838 64.9461 39.6799 66.5277C39.6008 67.3085 39.5069 68.0944 39.5168 68.8851C39.5218 69.7154 39.6305 70.5408 39.6354 71.3661C39.6503 72.9378 39.4971 74.5094 39.5366 76.0811C39.5662 77.2771 39.3192 78.9278 40.2284 79.8718C41.8838 81.5966 44.8833 80.628 46.9587 80.6922C47.4874 80.707 48.0161 80.6428 48.4411 80.3018C48.96 79.8817 49.044 79.2441 49.1082 78.6165C49.1823 77.8504 49.2169 77.0843 49.2713 76.3183C49.2762 76.2293 49.3701 75.7598 49.3256 75.7153L49.3405 75.6313L49.2021 75.8092C49.5184 75.8241 50.0125 75.5275 50.2991 75.399C52.844 74.2623 54.9194 72.0927 56.0559 69.5573C56.6538 68.2229 56.9108 66.7797 56.8317 65.3218C56.7477 63.8243 56.2783 62.4404 55.71 61.0615C54.5834 58.3285 53.1108 55.6448 51.0206 53.5246C49.039 51.5131 47.0575 49.4423 44.4188 48.3055C43.4997 47.9102 42.3186 47.495 41.3649 48.0238C40.2581 48.6416 40.2333 50.0255 40.2037 51.1325C40.1543 52.892 40.1345 54.6514 40.0555 56.4059C39.9714 58.2049 39.8627 59.9989 39.7837 61.793C39.7392 62.7468 41.2216 62.7468 41.2661 61.793C41.3946 59.0154 41.5675 56.2527 41.6219 53.4752C41.6367 52.8129 41.6565 52.1457 41.6762 51.4834C41.6911 50.92 41.6318 50.2874 41.8097 49.7437C42.0172 49.1161 42.5459 49.2199 43.0945 49.378C45.4268 50.065 47.1563 51.8047 48.8414 53.4504C49.8148 54.4043 50.813 55.3384 51.5888 56.4702C52.3449 57.5723 53.0268 58.7584 53.6148 59.9594C54.7662 62.3119 55.799 64.9165 55.1813 67.5705C54.6179 69.9922 52.8489 72.1767 50.7587 73.4716C50.2497 73.7879 49.7111 74.0745 49.1428 74.2722C48.6239 74.4551 48.1743 74.5094 47.9569 75.0926C47.7493 75.6461 47.7839 76.3331 47.7493 76.9114C47.7098 77.5193 47.7987 78.3545 47.5862 78.9278C47.4281 79.3479 46.9439 79.1848 46.5535 79.17C46.0643 79.1502 45.5849 79.2095 45.1007 79.2639C44.0383 79.3776 42.8227 79.5357 41.7998 79.1354C41.3946 78.9772 41.1475 78.7499 41.103 78.3051C41.019 77.5341 41.0437 76.7236 41.0289 75.9476C40.9943 74.371 41.1623 72.8043 41.1327 71.2327C41.1179 70.4419 41.024 69.6561 41.0141 68.8703C41.0042 68.0845 41.0981 67.2987 41.1772 66.5128C41.3353 64.9313 41.2216 63.3745 41.271 61.793C41.3007 60.8391 39.8183 60.8391 39.7886 61.793L39.7738 61.8078Z" fill="#333333"/>
<path d="M42.8919 48.1426C43.8258 48.4984 44.6362 49.0865 45.2885 49.8427C45.9408 50.6038 46.4201 51.4885 46.6277 52.4671C46.771 53.1343 46.8747 53.8361 46.6919 54.4934C46.2768 56.0057 44.8981 56.9991 43.5886 57.864C44.7153 58.7734 45.9111 59.9447 45.7184 61.3829C45.6344 62.0353 45.2984 62.6531 44.913 63.1868C43.9098 64.5608 42.7338 65.821 41.4984 66.9874" fill="#AFAFAF"/>
<path d="M42.6942 48.8542C44.4336 49.556 45.6641 51.1672 45.9803 53.0008C46.3312 55.037 44.7351 56.2132 43.218 57.2264C42.8573 57.4686 42.6745 58.0715 43.0698 58.3928C43.6825 58.8919 44.315 59.4257 44.7153 60.1176C45.1452 60.859 45.0315 61.5953 44.6115 62.3169C43.6974 63.8787 42.2841 65.2329 40.9845 66.4684C40.2927 67.1257 41.3403 68.1735 42.0321 67.5162C42.8919 66.6958 43.7221 65.8457 44.483 64.9363C45.1452 64.1456 45.8568 63.3202 46.2323 62.3466C47.0328 60.2807 45.6492 58.5905 44.1174 57.345C44.068 57.7354 44.0185 58.1209 43.9691 58.5114C46.005 57.1523 47.863 55.5164 47.4479 52.8377C47.0674 50.3665 45.3972 48.36 43.0896 47.4308C42.205 47.075 41.8196 48.5082 42.6942 48.8591V48.8542Z" fill="#333333"/>
<path d="M41.0783 48.81C41.3897 49.8182 41.617 50.8759 41.6318 51.9286C41.6466 53.0653 41.4341 54.3206 40.7127 55.1954C40.0802 55.9615 39.0771 56.2432 38.0838 56.2877C37.1252 56.3272 36.1517 56.0603 35.3314 55.5611C34.5111 55.062 33.8193 54.3701 33.2066 53.5991C32.5939 52.8281 32.1195 52.0867 31.6105 51.2614C31.5216 53.2333 30.9434 54.4343 29.3868 55.6699C29.0064 55.9714 28.5764 56.2531 28.1268 56.426C26.9161 56.8906 25.4782 56.426 24.5294 55.5414C23.5806 54.6617 23.1211 53.3816 23.042 52.0867C22.9629 50.7919 23.2001 49.5019 23.6498 48.2861" fill="#FCFCFC"/>
<path d="M40.3668 49.0076C41.019 51.1822 41.5972 55.1211 38.4544 55.5215C35.4599 55.902 33.6167 53.0997 32.2479 50.8856C31.8526 50.2431 30.9088 50.5298 30.8643 51.2612C30.805 52.3831 30.5382 53.4506 29.7673 54.3057C28.9125 55.2496 27.7561 56.1294 26.417 55.7686C23.2446 54.9185 23.4867 50.8955 24.3564 48.4787C24.6776 47.5792 23.2446 47.1937 22.9283 48.0834C22.286 49.8774 21.9944 51.9531 22.6022 53.8015C23.1458 55.4621 24.4553 56.8658 26.2045 57.2414C27.9884 57.6219 29.5697 56.6928 30.7606 55.4127C31.8427 54.2464 32.2628 52.8279 32.3468 51.2612C31.8872 51.3848 31.4277 51.5083 30.9632 51.6368C32.752 54.5281 35.1881 57.6466 39.0177 56.9251C42.9017 56.1936 42.6744 51.538 41.7948 48.6171C41.5231 47.7077 40.09 48.0932 40.3668 49.0125V49.0076Z" fill="#333333"/>
<path d="M6.73032 20.352C7.55555 20.352 8.38571 20.7079 9.10223 21.0143C9.41848 19.8776 9.74956 18.7162 10.219 17.6536C10.6934 16.5762 11.2221 15.5284 11.8398 14.5399C12.4624 13.5466 13.1938 12.6223 13.9449 11.7327C14.696 10.8431 15.5162 9.99306 16.3909 9.21713C17.2655 8.44119 18.234 7.77893 19.2125 7.13644C20.1859 6.49888 21.1396 5.7872 22.202 5.29297C23.2645 4.79875 24.3812 4.43796 25.5128 4.10189C26.6444 3.76581 27.7661 3.47422 28.9373 3.30618C30.1084 3.13815 31.2597 3.01953 32.4457 3.01953C33.6317 3.01953 34.8077 3.2024 35.9492 3.37043C37.0907 3.53847 38.2223 3.95362 39.3341 4.28475C40.4459 4.61588 41.6467 4.80863 42.6992 5.29791C43.7666 5.79214 44.7747 6.41487 45.7481 7.05736C46.7216 7.69985 47.6209 8.47579 48.4956 9.24678C49.3702 10.0227 50.1065 10.9321 50.8625 11.8266C51.6186 12.7163 52.4883 13.5317 53.1109 14.5251C53.7335 15.5185 54.119 16.6355 54.5933 17.7129C55.0628 18.7755 55.5915 19.7639 55.9078 20.9006C56.6391 20.5794 57.3803 20.5794 58.2303 20.5794C59.3223 20.5794 60.3798 20.7178 61.2594 21.2318C62.139 21.7458 63.0037 22.5118 63.5275 23.4261C64.0513 24.3405 64.2539 25.3981 64.2539 26.4903C64.2539 27.5826 64.0019 28.655 63.4979 29.5348C62.9938 30.4145 62.1834 31.2448 61.2791 31.7687C60.3748 32.2926 59.3273 32.4062 58.2352 32.4062C57.5582 32.4062 57.0147 32.4606 56.4118 32.2481C56.1746 33.4836 55.6805 34.5759 55.2703 35.7423C54.8503 36.9235 54.4056 38.0849 53.8175 39.1771C53.2246 40.2793 52.6415 41.4011 51.8953 42.3896C51.1442 43.383 50.314 44.3418 49.4196 45.2116C48.5252 46.0815 47.4579 46.7586 46.4449 47.4851C45.4319 48.2017 44.3892 48.8887 43.2724 49.4472C42.1656 50.0007 40.9944 50.4307 39.7986 50.8112C38.6225 51.1868 37.4119 51.4685 36.1666 51.6613C34.9214 51.854 33.7157 52.0913 32.4506 52.0913C31.1856 52.0913 29.9354 51.938 28.7198 51.7502C27.4746 51.5575 26.2392 51.3104 25.0681 50.9397C23.8723 50.5592 22.711 50.0649 21.6091 49.5114C20.4923 48.9529 19.4595 48.2314 18.4515 47.5147C17.4335 46.7932 16.4354 46.037 15.541 45.1721C14.6465 44.3072 13.8609 43.3286 13.1098 42.3352C12.3587 41.3468 11.6767 40.304 11.0838 39.2018C10.4908 38.0997 10.0905 36.9383 9.67049 35.7571C9.25541 34.5956 8.77115 33.4836 8.53396 32.2481C7.94592 32.4408 7.39248 32.6336 6.74021 32.6336C5.64814 32.6336 4.67962 32.1097 3.80004 31.6006C2.89575 31.0718 2.00134 30.454 1.47755 29.5447C0.953753 28.6353 0.736328 27.5925 0.736328 26.5002C0.736328 25.408 1.102 24.4096 1.60603 23.5299C2.12982 22.6205 2.89081 21.9237 3.80004 21.3949C4.67962 20.8809 5.65308 20.3669 6.74021 20.3669L6.73032 20.352Z" fill="#FFE6D9"/>
<path d="M6.73026 21.0937C7.43195 21.1184 8.08916 21.3803 8.72661 21.6521C9.16146 21.835 9.67537 21.7164 9.81373 21.2073C10.3573 19.2601 11.0293 17.4216 12.0275 15.6621C13.0257 13.9027 14.2215 12.4299 15.5705 11.0312C16.969 9.57819 18.5601 8.47112 20.2205 7.34923C21.0457 6.79075 21.8709 6.24216 22.7851 5.83689C23.7289 5.4168 24.7221 5.11038 25.7055 4.81879C29.7871 3.60793 34.0022 3.39047 38.0937 4.67052C39.9764 5.25865 41.8641 5.61449 43.5985 6.59306C45.333 7.57657 46.9439 8.74789 48.372 10.1416C49.1527 10.9027 49.8248 11.7627 50.5413 12.5831C51.2281 13.3689 51.9842 14.0954 52.5277 14.9949C53.101 15.9389 53.4716 16.9817 53.9114 17.9899C54.361 19.0229 54.8799 20.0162 55.1912 21.1035C55.295 21.4544 55.7249 21.7757 56.1054 21.6225C56.8911 21.3062 57.7212 21.3062 58.5563 21.3309C59.4408 21.3556 60.2908 21.5088 61.0518 21.9783C62.5737 22.9124 63.4286 24.3852 63.5027 26.1644C63.5769 27.9239 62.9394 29.5548 61.5607 30.6817C60.9035 31.2204 60.1475 31.5169 59.3074 31.6157C58.4526 31.7146 57.4297 31.7838 56.5995 31.5367C56.2338 31.4279 55.7644 31.6701 55.6853 32.0556C55.4827 33.049 55.122 33.988 54.7662 34.9369C54.3907 35.9353 54.0547 36.9534 53.605 37.9221C52.7353 39.7952 51.6679 41.5843 50.3189 43.1559C48.9155 44.7869 47.2849 46.0076 45.5207 47.2185C43.7418 48.4441 41.869 49.3535 39.8134 50.0207C37.7182 50.7028 35.4649 51.1525 33.2659 51.3156C31.0917 51.4738 28.8235 51.108 26.7135 50.6187C24.5788 50.1245 22.4886 49.2695 20.6306 48.1081C18.9011 47.0208 17.1716 45.8 15.7435 44.3371C14.1177 42.6716 12.6798 40.7046 11.6075 38.6387C11.0837 37.6206 10.718 36.5333 10.3326 35.4608C9.92739 34.334 9.47277 33.2319 9.23558 32.0507C9.15652 31.6701 8.68708 31.4131 8.32141 31.5317C7.58019 31.7788 6.85874 31.9914 6.07305 31.8134C5.32194 31.6454 4.64002 31.2451 3.98775 30.8546C2.61896 30.0342 1.73938 28.9963 1.51208 27.3703C1.29959 25.8531 1.76409 24.2468 2.79686 23.1052C3.73573 22.0673 5.30218 21.1381 6.72038 21.0937C7.67408 21.064 7.67408 19.5813 6.72038 19.611C4.85745 19.6703 2.82156 20.7922 1.62079 22.2007C0.365656 23.6883 -0.197671 25.6257 0.0592853 27.5532C0.326124 29.5499 1.3836 30.9831 3.07358 32.0309C3.87904 32.5301 4.75367 33.0243 5.68267 33.2417C6.74014 33.4839 7.70867 33.2961 8.72167 32.96L7.8075 32.4411C8.02492 33.5136 8.4153 34.5218 8.79579 35.5448C9.18617 36.6025 9.54195 37.6651 10.0015 38.6931C10.891 40.6799 12.2153 42.4838 13.5989 44.1543C15.0369 45.889 16.7664 47.2481 18.6046 48.5282C20.4675 49.8329 22.4787 50.8609 24.6431 51.5775C26.8272 52.2991 29.209 52.6747 31.5018 52.8032C33.8342 52.9317 36.2852 52.4968 38.5434 51.9334C40.7522 51.3848 42.9413 50.5693 44.8981 49.3931C46.8549 48.2168 48.7179 46.9812 50.2596 45.4244C52.0138 43.6502 53.353 41.6535 54.5093 39.4542C55.0874 38.3619 55.5322 37.2054 55.9472 36.044C56.3771 34.8529 56.8762 33.6915 57.1282 32.446C56.8219 32.619 56.5204 32.792 56.2141 32.965C57.2468 33.2763 58.4674 33.2022 59.5249 33.0737C60.6268 32.9353 61.5904 32.5449 62.4601 31.853C64.1995 30.4691 65.084 28.3736 64.9951 26.1644C64.9012 23.9157 63.8585 22.0426 61.9758 20.8021C61.0419 20.1892 59.9893 19.9273 58.8874 19.863C57.8398 19.7988 56.7033 19.7988 55.7199 20.1942L56.6341 20.7131C56.3426 19.7148 55.9028 18.7807 55.4679 17.8417C55.0331 16.9026 54.6674 15.8746 54.1881 14.9257C53.2986 13.1514 51.7668 11.7083 50.4721 10.2256C49.0934 8.63916 47.438 7.26026 45.669 6.12849C44.8042 5.57495 43.9148 5.04119 42.9759 4.6211C42.037 4.201 40.9795 3.97366 39.9567 3.69689C38.9338 3.42013 37.9405 3.03957 36.9078 2.80729C35.8404 2.56511 34.7187 2.43167 33.6316 2.34271C31.4376 2.15491 29.1398 2.43167 27.0051 2.94073C24.8704 3.44978 22.6467 4.09722 20.764 5.23888C19.0098 6.30147 17.2259 7.47278 15.704 8.84673C13.9646 10.4134 12.3734 12.2717 11.143 14.2635C9.87303 16.3096 9.03298 18.5138 8.38565 20.8218C8.74638 20.6736 9.11205 20.5253 9.47277 20.377C8.57837 19.9965 7.70867 19.6505 6.72532 19.6159C5.74197 19.5813 5.77162 21.064 6.72532 21.0986L6.73026 21.0937Z" fill="#333333"/>
<path d="M38.4545 27.1925C38.4545 28.0771 39.1364 28.8185 40.016 28.8185C40.8956 28.8185 41.6467 28.0722 41.6467 27.1925C41.6467 26.3078 40.8956 25.522 40.016 25.522C39.1364 25.522 38.4545 26.3078 38.4545 27.1925Z" fill="#333333"/>
<path d="M23.3187 27.1925C23.3187 28.0772 24.0056 28.8185 24.8852 28.8185C25.7648 28.8185 26.6097 28.0772 26.6097 27.1925C26.6097 26.3079 25.7648 25.5566 24.8852 25.5566C24.0056 25.5566 23.3187 26.3079 23.3187 27.1925Z" fill="#333333"/>
<path d="M33.9281 27.4099C33.4933 27.1331 32.9497 26.9453 32.4259 27.0046C32.1097 27.0392 31.8527 27.1084 31.5661 27.2418C31.324 27.3506 31.1164 27.5087 30.9039 27.6768C30.7656 27.7855 30.6865 28.0326 30.6865 28.2006C30.6865 28.3835 30.7656 28.601 30.9039 28.7245C31.0423 28.8481 31.2301 28.9519 31.4277 28.942L31.6254 28.9173C31.7489 28.8827 31.8577 28.8184 31.9515 28.7245L31.9812 28.6998L31.8329 28.8135C31.9911 28.6899 32.1591 28.5861 32.3419 28.5071L32.164 28.5812C32.2974 28.5268 32.4309 28.4873 32.5742 28.4675L32.3765 28.4922C32.505 28.4774 32.6384 28.4725 32.7669 28.4922L32.5692 28.4675C32.7224 28.4873 32.8657 28.5268 33.009 28.5861L32.8311 28.512C32.9547 28.5664 33.0683 28.6257 33.177 28.6949C33.5032 28.9024 34.0072 28.7739 34.19 28.428C34.3827 28.0623 34.274 27.6372 33.9232 27.4148L33.9281 27.4099Z" fill="#333333"/>
<path d="M43.2822 30.7559C43.2822 32.1546 43.9246 33.3951 44.8338 34.3094C45.748 35.2287 46.9834 35.6833 48.3818 35.6833C49.7753 35.6833 51.0403 35.2534 51.9496 34.3341C52.8588 33.4198 53.348 32.1546 53.348 30.7559C53.348 29.3573 52.9082 28.0476 51.999 27.1332C51.0848 26.214 49.7753 25.5962 48.3818 25.5962C46.9883 25.5962 45.8073 26.3425 44.8981 27.2617C43.9889 28.1761 43.2872 29.3573 43.2872 30.7559H43.2822Z" fill="#EDBBA6"/>
<path d="M11.4791 30.7556C11.4791 32.1542 12.1017 33.3503 13.0109 34.2695C13.9251 35.1888 15.1209 35.9005 16.5144 35.9005C17.9079 35.9005 19.2619 35.342 20.176 34.4227C21.0853 33.5084 21.4608 32.1493 21.4608 30.7556C21.4608 29.3569 20.9766 28.1115 20.0673 27.1922C19.1532 26.273 17.9079 25.7046 16.5144 25.7046C15.1209 25.7046 13.9449 26.3421 13.0307 27.2614C12.1165 28.1807 11.4741 29.3569 11.4741 30.7506L11.4791 30.7556Z" fill="#EDBBA6"/>
<path d="M11.8298 21.8895C11.7359 22.1465 11.6668 22.4183 11.5729 22.6753C11.4394 23.051 11.2023 23.5649 10.8069 23.5897C10.545 23.6045 10.2584 23.4019 10.0756 23.219C9.22567 22.3788 8.90447 21.2619 8.71175 20.0905C8.5388 19.0131 8.5141 17.8517 8.75623 16.6557C8.97859 15.5486 9.38874 14.4465 9.84829 13.3691C10.3078 12.2916 10.8662 11.234 11.4642 10.3049C12.1658 9.20273 12.8725 8.23405 13.5742 7.5619C14.4043 6.7662 15.2394 5.95072 16.1882 5.30329C17.1369 4.65585 18.1747 4.12703 19.2124 3.62292C20.2501 3.1188 21.3273 2.70365 22.4144 2.32804C23.5016 1.95243 24.6282 1.67566 25.74 1.42361C26.8716 1.16661 28.0131 0.988689 29.1348 0.850306C30.2911 0.711923 31.4573 0.736634 32.6235 0.746518C33.7897 0.756403 34.9509 0.761345 36.1072 0.92444C37.2635 1.08753 38.3902 1.35936 39.5168 1.67566C40.5298 1.96232 41.6021 2.19954 42.6398 2.5801C43.6776 2.96065 44.6955 3.31155 45.6591 3.81072C46.6227 4.30989 47.5566 4.92767 48.3917 5.58994C49.3503 6.35105 50.1262 7.31479 50.9563 8.23405C51.7865 9.15331 52.6364 10.0281 53.3628 11.0215C54.0052 11.9012 54.6575 12.8304 55.1813 13.8237C55.7051 14.8171 56.0707 15.8896 56.3425 16.9473C56.6143 18.0049 56.7329 19.1466 56.5945 20.2487C56.4611 21.3014 56.1498 22.3689 55.5025 23.3821C55.3295 23.6539 55.0676 23.8714 54.7662 23.99C54.0942 24.2519 53.516 23.5946 53.3035 22.9027C53.091 22.2108 53.1503 21.4348 52.8588 20.7775C52.5327 20.0362 51.6284 19.705 50.986 19.2158C50.0866 18.5288 49.296 17.6886 48.5054 16.8781C47.7147 16.0675 47.097 15.1137 46.4349 14.1944C45.7727 13.2752 45.1896 12.3213 44.6658 11.318C44.142 10.3147 43.554 9.42019 43.1834 8.35266C42.1457 8.97539 41.108 9.45973 40.0456 10.038C38.9832 10.6162 37.9553 11.2735 36.8682 11.8024C35.7811 12.3312 34.5902 12.6475 33.4833 13.1318C32.3764 13.6162 31.2597 14.0709 30.1281 14.5157C28.9965 14.9605 27.9588 15.6277 26.8123 16.0231C25.6659 16.4184 24.475 16.6655 23.3138 17.0164C22.1525 17.3624 21.0061 17.7677 19.835 18.0692C18.6589 18.3657 17.4433 18.4744 16.2574 18.7215C15.0714 18.9686 13.8262 19.1663 12.6303 19.364C12.3437 20.1696 12.1214 21.079 11.8348 21.8895H11.8298Z" fill="#8E816E"/>
<path d="M11.1134 21.6917C11.0146 21.9882 10.9454 22.3094 10.812 22.601C10.6489 22.9569 10.6934 22.8086 10.4611 22.5516C9.98179 22.0277 9.73966 21.3408 9.57659 20.6637C9.20598 19.1019 9.25045 17.5056 9.69024 15.9685C10.13 14.4315 10.7527 13.0279 11.5087 11.6737C12.2252 10.3936 13.0504 9.11359 14.098 8.08066C15.2148 6.97853 16.3662 5.98514 17.7399 5.21415C19.1581 4.4135 20.6405 3.73641 22.1773 3.19276C25.1274 2.145 28.3245 1.48274 31.4623 1.48274C33.098 1.48274 34.7583 1.4432 36.3791 1.71008C37.9999 1.97696 39.4675 2.42177 40.9944 2.84186C43.9247 3.65239 46.85 4.91267 48.9848 7.14163C51.1195 9.37059 53.2789 11.6638 54.6526 14.3969C55.3592 15.8104 55.8732 17.4808 55.9176 19.0673C55.9374 19.8037 55.8484 20.5302 55.6557 21.237C55.5618 21.578 55.4482 21.9141 55.295 22.2353C55.1616 22.522 54.9195 23.1941 54.5785 23.2633C53.9905 23.3819 53.9015 22.0969 53.8472 21.7262C53.7434 20.98 53.5754 20.2831 53.0219 19.7345C52.5574 19.2699 51.9398 18.9981 51.416 18.6077C50.7192 18.0937 50.1114 17.4561 49.5086 16.8384C48.3424 15.6423 47.3491 14.2881 46.4399 12.8845C45.9507 12.1284 45.5257 11.3327 45.0958 10.5419C44.6659 9.75114 44.2064 8.99003 43.9 8.14985C43.7369 7.70999 43.2527 7.44805 42.8129 7.70505C41.8592 8.26846 40.8659 8.75281 39.8875 9.27669C38.9832 9.76103 38.1086 10.3047 37.2043 10.794C36.2506 11.308 35.2524 11.6638 34.2394 12.0394C33.2017 12.4249 32.1986 12.8944 31.1708 13.3096C30.2319 13.6901 29.298 14.0509 28.3937 14.5007C27.4894 14.9504 26.5406 15.3557 25.5326 15.6423C24.5097 15.929 23.4819 16.181 22.4639 16.4973C21.4905 16.8038 20.517 17.1349 19.5238 17.3771C18.3823 17.6538 17.2062 17.7724 16.0548 18.0047C14.9035 18.237 13.6385 18.4446 12.4278 18.6472C12.1709 18.6917 11.988 18.9388 11.909 19.1662C11.6174 20.0014 11.4 20.8564 11.1134 21.6917C10.7971 22.5961 12.2302 22.9816 12.5415 22.087C12.833 21.2518 13.0504 20.3968 13.337 19.5615L12.8182 20.0805C14.9233 19.7296 17.0333 19.3737 19.1334 18.9783C21.2137 18.5879 23.215 17.7971 25.2559 17.2584C26.254 16.9916 27.2275 16.7 28.1664 16.265C29.1102 15.8252 30.0244 15.3557 30.9929 14.9751C32.0306 14.56 33.0535 14.1003 34.0912 13.6852C35.0647 13.2947 36.0727 12.9933 37.0314 12.5534C38.1333 12.0444 39.1562 11.3821 40.2137 10.7989C41.3205 10.1861 42.462 9.64736 43.5491 9.00486L42.462 8.56006C43.0698 10.2305 44.0285 11.8615 44.9723 13.3639C45.9161 14.8664 46.8797 16.27 48.0607 17.4907C48.6636 18.1184 49.2714 18.751 49.9335 19.3194C50.5314 19.8334 51.2479 20.1793 51.8459 20.6834C52.3894 21.1381 52.3548 21.8795 52.4635 22.5269C52.592 23.2979 52.9231 24.1232 53.6248 24.5483C55.2703 25.5417 56.4266 23.5005 56.8911 22.2304C57.5038 20.55 57.5187 18.7214 57.1184 16.9916C56.2833 13.3887 54.0745 10.5666 51.6433 7.88791C50.4672 6.59304 49.3554 5.32288 47.9125 4.31465C46.4696 3.30643 44.9031 2.6244 43.2576 2.02639C41.5281 1.39378 39.7146 0.914376 37.9208 0.514053C36.0826 0.0939606 34.2592 0.0148845 32.3913 5.76782e-05C28.705 -0.0295959 25.0335 0.578303 21.5596 1.83858C18.0858 3.09886 15.0666 4.77428 12.6502 7.43816C11.3456 8.8813 10.2931 10.621 9.47776 12.3804C8.61301 14.2387 7.87179 16.2255 7.8372 18.2963C7.80755 20.0459 8.1238 22.0722 9.28504 23.4511C9.77919 24.0343 10.5402 24.5829 11.3209 24.1974C12.1017 23.8119 12.2895 22.8284 12.5415 22.0821C12.8478 21.1777 11.4148 20.7872 11.1134 21.6867V21.6917Z" fill="#333333"/>
<path d="M27.9539 32.4461C29.2634 33.4197 30.9138 33.6125 32.5 33.6421C34.0862 33.6718 35.7416 33.5087 37.1203 32.6438C37.9258 32.1397 37.1845 30.8547 36.3741 31.3637C35.2129 32.0902 33.8392 32.1841 32.5 32.1594C31.151 32.1347 29.8119 31.9963 28.7 31.166C28.3788 30.9288 27.8699 31.1117 27.687 31.4329C27.4647 31.8085 27.6327 32.2089 27.9539 32.4461Z" fill="#333333"/>
<path d="M37.397 30.5036C37.5651 30.5826 37.7331 30.6666 37.8912 30.7655C37.9604 30.81 38.0345 30.8545 38.0987 30.9039C38.1333 30.9286 38.1679 30.9533 38.1976 30.978C38.2717 31.0324 38.079 30.8841 38.1877 30.9681C38.326 31.0867 38.4644 31.2103 38.5879 31.3437C38.6472 31.403 38.7016 31.4673 38.751 31.5315C38.7807 31.5711 38.8103 31.6106 38.8449 31.6452C38.7905 31.5909 38.7708 31.5513 38.835 31.6353C38.9388 31.7787 39.0327 31.922 39.1167 32.0752C39.1562 32.1493 39.1957 32.2235 39.2303 32.2976C39.2501 32.3371 39.2699 32.3964 39.2946 32.436C39.2501 32.3767 39.2452 32.3174 39.2847 32.4212C39.3489 32.5842 39.4033 32.7523 39.4478 32.9253C39.4675 33.0093 39.4873 33.0884 39.5021 33.1724C39.512 33.2218 39.5219 33.2712 39.5318 33.3206C39.5614 33.4739 39.512 33.1625 39.5318 33.3256C39.5762 33.7111 39.8381 34.0867 40.273 34.0669C40.6337 34.0521 41.0636 33.7358 41.0142 33.3256C40.9055 32.4508 40.6337 31.6106 40.1149 30.8891C39.6059 30.1823 38.9388 29.5892 38.1432 29.2284C37.7924 29.0703 37.3279 29.1148 37.1302 29.4953C36.9573 29.8215 37.0215 30.3405 37.397 30.5085V30.5036Z" fill="#D6B4A5"/>
<path d="M16.5292 71.8804C15.4717 71.5196 14.6317 70.6696 14.1869 69.5823C13.7471 68.5098 13.7768 67.2347 13.7274 66.2611C13.6779 65.2034 13.673 64.1903 14.0831 63.3352C14.4982 62.4704 15.2839 61.8229 16.119 61.1953C16.712 60.7455 17.4483 60.5379 18.1599 60.7653C18.8714 60.9926 19.4397 61.6351 19.3705 62.3765C19.3112 63.014 18.7528 63.5774 18.3081 64.042C18.9653 64.0914 19.7757 64.3484 20.0623 64.9464C20.3489 65.5444 20.087 66.4242 19.4397 66.5477C19.9635 66.9036 20.4873 67.3187 20.6504 67.9316C20.8134 68.5444 20.3489 69.3401 19.7164 69.35C20.2847 69.5724 20.4725 70.3829 20.1859 70.9216C19.8993 71.4603 19.2865 71.7272 18.6985 71.8903C17.982 72.088 17.2309 72.1226 16.5292 71.8854V71.8804Z" fill="#FFE6D9"/>
<path d="M16.7268 71.1685C15.5063 70.7187 14.8145 69.5622 14.6069 68.3267C14.4982 67.699 14.5031 67.0565 14.4735 66.419C14.4439 65.7122 14.3895 64.9857 14.5427 64.2938C14.686 63.6612 15.0121 63.1571 15.4667 62.7024C15.9213 62.2477 16.4995 61.6942 17.1172 61.4915C17.6262 61.3235 18.3525 61.4619 18.5799 62.0105C18.8072 62.5591 18.1302 63.1571 17.7843 63.5228C17.3148 64.017 17.6805 64.7287 18.3081 64.788C18.6293 64.8177 19.1481 64.9116 19.3507 65.2032C19.4743 65.3761 19.4891 65.7715 19.242 65.8407C18.5947 66.0236 18.5552 66.844 19.0641 67.1949C19.3705 67.4074 19.8004 67.6842 19.9091 68.0647C19.9486 68.2081 19.9289 68.5886 19.7164 68.6133C19.0592 68.6776 18.6144 69.6413 19.3408 69.9972C19.8844 70.264 19.4001 70.8176 19.0444 70.9906C18.3278 71.3415 17.4779 71.4106 16.7219 71.1784C15.8077 70.9016 15.4173 72.3299 16.3265 72.6067C17.6262 73.0021 19.4199 72.7994 20.4378 71.811C21.3224 70.951 21.273 69.2904 20.087 68.7171C19.9635 69.1767 19.8399 69.6364 19.7115 70.1009C20.6602 70.0021 21.3767 69.2558 21.4163 68.2822C21.4558 67.2147 20.6108 66.4733 19.8103 65.9198L19.6324 67.274C20.6404 66.9873 21.1346 65.8555 20.8183 64.8819C20.4724 63.8045 19.3211 63.4091 18.3031 63.3103C18.4761 63.7304 18.654 64.1554 18.8269 64.5755C19.331 64.0467 19.8844 63.4734 20.0524 62.737C20.2155 62.0401 19.9931 61.3284 19.5237 60.7996C18.397 59.5344 16.6527 59.8556 15.447 60.7848C14.1968 61.7485 13.2233 62.8309 13.0207 64.4519C12.9219 65.218 12.9713 65.984 13.0009 66.755C13.0306 67.526 13.0652 68.3267 13.248 69.0927C13.6335 70.7187 14.765 72.0334 16.3315 72.6067C17.2259 72.9378 17.6163 71.5045 16.7268 71.1784V71.1685Z" fill="#333333"/>
<path d="M46.6918 69.7402C48.0656 69.9922 49.2268 69.4634 50.1607 68.7863C51.0947 68.1092 51.7815 67.0367 52.1077 65.8259C52.4338 64.615 52.4635 63.4141 52.0138 62.2477C51.6086 61.195 50.3683 60.7304 49.3503 60.3795C48.7673 60.1818 48.115 60.0533 47.5418 60.2757C46.9636 60.4981 46.4546 61.0566 46.425 61.6744C46.3953 62.2922 46.9587 62.7913 47.5764 62.7963C47.181 62.8259 46.7462 62.9594 46.3805 63.1175C46.0149 63.2757 45.6442 63.592 45.5701 63.9824C45.496 64.3729 45.8172 64.8424 46.2076 64.8967C45.7283 65.0648 45.1995 65.3613 45.0513 65.8456C44.903 66.33 45.2045 67.0219 45.7085 66.9379C45.3527 67.4222 45.0463 67.9609 45.1896 68.5441C45.3428 69.1669 46.0643 69.6215 46.6968 69.7352L46.6918 69.7402Z" fill="#FFE6D9"/>
<path d="M46.4942 70.452C48.1546 70.7188 49.6963 70.1604 50.9663 69.083C52.2362 68.0055 52.8687 66.4042 53.0466 64.803C53.2295 63.1671 52.849 61.4076 51.3962 60.4735C50.7884 60.0831 50.0719 59.8162 49.385 59.6086C48.5548 59.3566 47.6308 59.3121 46.8649 59.7816C46.0989 60.2511 45.5554 61.1012 45.7085 61.9958C45.8667 62.915 46.6771 63.4784 47.5715 63.5328V62.0501C46.6326 62.1539 45.5109 62.4702 45.0167 63.3549C44.5275 64.2346 45.0365 65.3664 46.005 65.6085V64.1802C45.1798 64.4866 44.3299 65.0352 44.2755 66.0089C44.2311 66.8342 44.7944 67.7337 45.7036 67.6794C45.4911 67.3087 45.2786 66.938 45.0612 66.5624C44.5226 67.3186 44.1668 68.2527 44.6264 69.1423C44.9822 69.8391 45.753 70.2889 46.4942 70.447C47.4232 70.6447 47.8235 69.2164 46.8896 69.0187C46.5634 68.9495 46.1483 68.8111 45.9655 68.4998C45.7283 68.0994 46.1187 67.625 46.3411 67.3087C46.6623 66.8589 46.2373 66.1621 45.6987 66.1917C45.7333 66.1917 45.7629 66.3005 45.7629 66.1967C45.7629 66.1275 45.7481 66.0781 45.7728 66.0089C45.8568 65.7963 46.2027 65.6728 46.3954 65.6036C47.0378 65.3614 47.1564 64.3631 46.3954 64.1753C46.178 64.1209 46.3806 63.9628 46.5041 63.8738C46.7907 63.6712 47.2206 63.5624 47.5665 63.5278C48.5005 63.4241 48.5351 62.1045 47.5665 62.0452C46.9686 62.0106 47.1613 61.4076 47.4825 61.1457C48.0409 60.686 48.7772 60.9579 49.385 61.1704C49.9137 61.3582 50.4771 61.5707 50.902 61.9463C51.3863 62.3714 51.5395 63.0633 51.5839 63.686C51.6828 65.0402 51.2924 66.5624 50.3683 67.5854C49.5135 68.5344 48.1793 69.2263 46.8797 69.0187C46.4844 68.9545 46.0841 69.1225 45.9655 69.5376C45.8667 69.8885 46.0841 70.3877 46.4844 70.452H46.4942Z" fill="#333333"/>
</g>
<defs>
<clipPath id="clip0_4_16844">
<rect width="65" height="107" fill="white"/>
</clipPath>
</defs>
</svg>
