<svg width="320" height="540" viewBox="0 0 320 540" fill="none" xmlns="http://www.w3.org/2000/svg">
<g clip-path="url(#clip0_40_1120)">
<path d="M48.9136 327.098C44.2773 320.464 33.7088 314.225 20.6016 311.165C7.49442 308.105 -4.74427 309.02 -11.839 312.922L-16.041 311.94L-18.0853 320.665H-18.0518C-19.5149 329.904 -5.99353 340.713 12.6852 345.068C31.3706 349.424 48.2723 345.71 51.0447 336.785H51.0781L53.109 328.08L48.9069 327.098H48.9136Z" fill="#F9BF1C" stroke="#333333" stroke-width="1.5" stroke-miterlimit="10"/>
<path d="M53.1236 328.083C55.3069 318.723 41.5925 307.523 22.4916 303.068C3.39076 298.612 -13.8635 302.588 -16.0468 311.948C-18.2301 321.308 -4.51569 332.508 14.5852 336.963C33.686 341.419 50.9403 337.443 53.1236 328.083Z" fill="#F9BF1C" stroke="#333333" stroke-width="1.5" stroke-miterlimit="10"/>
<path d="M48.6137 327.031C46.7698 334.92 31.3913 337.693 15.2913 333.938C-0.815451 330.177 -13.5685 320.845 -11.7247 312.955C-9.88758 305.065 5.76485 301.965 21.8649 305.72C37.9649 309.474 50.4508 319.134 48.607 327.024L48.6137 327.031Z" fill="#FAE400" stroke="#333333" stroke-width="1.5" stroke-miterlimit="10"/>
<path d="M0.106361 331.861L-1.74414 339.804" stroke="#333333" stroke-width="1.5" stroke-miterlimit="10"/>
<path d="M8.93093 335.401L7.05371 343.451" stroke="#333333" stroke-width="1.5" stroke-miterlimit="10"/>
<path d="M17.7891 337.466L15.8584 345.77" stroke="#333333" stroke-width="1.5" stroke-miterlimit="10"/>
<path d="M26.3137 338.535L24.3496 346.979" stroke="#333333" stroke-width="1.5" stroke-miterlimit="10"/>
<path d="M33.8623 338.635L31.9316 346.925" stroke="#333333" stroke-width="1.5" stroke-miterlimit="10"/>
<path d="M40.6032 337.853L38.8262 345.469" stroke="#333333" stroke-width="1.5" stroke-miterlimit="10"/>
<path d="M47.0235 335.208L45.2197 342.944" stroke="#333333" stroke-width="1.5" stroke-miterlimit="10"/>
<path d="M303.974 472.001C301.124 466.51 293.737 460.725 284.11 457.096C274.482 453.468 265.115 452.938 259.348 455.186L256.262 454.022L253.841 460.43L253.866 460.433C251.834 467.289 261.001 476.832 274.722 482C288.448 487.168 301.628 486.042 304.621 479.555L304.647 479.558L307.056 473.164L303.969 472L303.974 472.001Z" fill="#F9BF1C" stroke="#333333" stroke-width="1.5" stroke-miterlimit="10"/>
<path d="M307.066 473.168C309.656 466.292 300.381 456.434 286.351 451.148C272.32 445.863 258.846 447.152 256.256 454.027C253.666 460.903 262.941 470.761 276.971 476.047C291.002 481.332 304.476 480.043 307.066 473.168Z" fill="#F9BF1C" stroke="#333333" stroke-width="1.5" stroke-miterlimit="10"/>
<path d="M303.753 471.92C301.567 477.715 289.635 478.279 277.808 473.825C265.977 469.365 257.245 461.018 259.431 455.223C261.611 449.427 273.784 448.642 285.61 453.096C297.437 457.55 305.934 466.119 303.748 471.914L303.753 471.92Z" fill="#FAE400" stroke="#333333" stroke-width="1.5" stroke-miterlimit="10"/>
<path d="M257.175 461.276L255.014 467.002" stroke="#333333" stroke-width="1.5" stroke-miterlimit="10"/>
<path d="M261.468 466.731L259.257 472.605" stroke="#333333" stroke-width="1.5" stroke-miterlimit="10"/>
<path d="M266.508 470.733L264.312 476.568" stroke="#333333" stroke-width="1.5" stroke-miterlimit="10"/>
<path d="M272.843 474.298L270.615 480.212" stroke="#333333" stroke-width="1.5" stroke-miterlimit="10"/>
<path d="M279.35 476.748L277.057 482.849" stroke="#333333" stroke-width="1.5" stroke-miterlimit="10"/>
<path d="M285.703 478.41L283.371 484.613" stroke="#333333" stroke-width="1.5" stroke-miterlimit="10"/>
<path d="M291.414 479.24L289.123 485.331" stroke="#333333" stroke-width="1.5" stroke-miterlimit="10"/>
<path d="M296.601 479.322L294.493 484.916" stroke="#333333" stroke-width="1.5" stroke-miterlimit="10"/>
<path d="M301.731 477.958L299.591 483.641" stroke="#333333" stroke-width="1.5" stroke-miterlimit="10"/>
</g>
<defs>
<clipPath id="clip0_40_1120">
<rect width="320" height="540" rx="16" fill="white"/>
</clipPath>
</defs>
</svg>
