<svg width="42" height="55" viewBox="0 0 42 55" fill="none" xmlns="http://www.w3.org/2000/svg">
<g clip-path="url(#clip0_4_13673)">
<path d="M3.33787 15.3781C3.27718 15.9936 3.26454 16.6117 3.20385 17.2272C3.14317 17.8427 3.12547 18.4608 3.06478 19.0764C3.0041 19.6919 2.85491 20.2972 2.79422 20.9127C2.73354 21.5282 2.78916 22.154 2.72848 22.7695C2.66779 23.3851 2.54642 23.9929 2.48573 24.6084C2.42505 25.2239 2.43769 25.8446 2.377 26.4601C2.32643 26.9628 2.22529 27.4758 2.25057 27.9784C2.27839 28.4939 2.38712 28.9889 2.63998 29.4377C2.99398 30.0635 3.54269 30.5329 4.20771 30.8227C4.87273 31.1125 5.58326 31.1741 6.26093 31.292C6.89308 31.3997 7.51764 31.5408 8.15485 31.6177C8.79205 31.6947 9.42926 31.7537 10.069 31.7998C10.7087 31.846 11.3485 31.8434 11.9882 31.8588C12.6279 31.8768 13.2677 31.8896 13.9074 31.8768C14.5471 31.864 15.1843 31.805 15.8241 31.7614C16.4638 31.7178 17.0985 31.6485 17.7332 31.5741C18.3704 31.4998 19.0051 31.4331 19.6372 31.3279C20.2694 31.2228 20.904 31.1407 21.5311 31.0048C22.1582 30.8689 22.7904 30.7586 23.4099 30.5944C24.0623 30.42 24.707 30.1866 25.3291 29.925C25.9587 29.6609 26.5403 29.3121 27.0536 28.8658C27.4986 28.4811 27.8223 28.0195 28.1206 27.5322C28.4165 27.0449 28.7199 26.5499 28.9045 25.9959C29.084 25.4522 29.2155 24.8803 29.3167 24.3084C29.4178 23.7364 29.5139 23.1568 29.5721 22.5874C29.6302 22.0027 29.61 21.4102 29.6505 20.8255C29.6909 20.2382 29.6859 19.6534 29.7086 19.0661C29.7314 18.4788 29.8502 17.894 29.8527 17.3067C29.8553 16.7194 29.8578 16.1295 29.8426 15.5422C29.8275 14.9549 29.787 14.3676 29.7541 13.7803C29.7213 13.1929 29.658 12.6082 29.6075 12.0234" fill="#8E816E"/>
<path d="M2.95856 15.378C2.86248 16.4039 2.80432 17.4349 2.73605 18.4608C2.6703 19.4482 2.41492 20.4151 2.38963 21.4076C2.37699 21.8616 2.39469 22.3155 2.3517 22.7695C2.30113 23.3029 2.19999 23.8313 2.13677 24.3621C2.08367 24.8135 2.06597 25.2649 2.04827 25.7189C2.02551 26.2421 1.95724 26.755 1.90414 27.2756C1.81311 28.1451 1.93701 29.0556 2.41997 29.7967C2.85236 30.461 3.48704 30.9483 4.21528 31.233C5.05477 31.5638 5.99541 31.6254 6.87789 31.7895C7.81853 31.9665 8.76422 32.0768 9.7175 32.1537C13.5635 32.464 17.498 32.1563 21.2884 31.4433C23.0887 31.1047 25.0054 30.72 26.5731 29.707C28.0347 28.7632 29.0436 27.1115 29.476 25.4291C29.744 24.3878 29.9336 23.2824 29.9918 22.2052C30.0525 21.0793 30.0323 19.9483 30.1132 18.825C30.1536 18.2736 30.2396 17.7298 30.2447 17.1733C30.2497 16.6065 30.2472 16.0397 30.232 15.4729C30.1991 14.3188 30.1005 13.1672 29.9994 12.0182C29.9564 11.5284 29.1978 11.5233 29.2408 12.0182C29.3268 12.98 29.4052 13.9418 29.4532 14.9061C29.5012 15.8704 29.5417 16.8271 29.4633 17.7683C29.4279 18.1992 29.3622 18.6249 29.3419 19.0583C29.3192 19.561 29.3242 20.0637 29.299 20.5664C29.2509 21.5358 29.2408 22.4976 29.0891 23.4594C28.95 24.3442 28.8084 25.2726 28.4721 26.1061C28.1636 26.8704 27.6731 27.686 27.1117 28.2861C25.9208 29.5659 24.0294 30.0917 22.3858 30.4328C20.5728 30.8098 18.7522 31.0842 16.9114 31.2766C15.9985 31.3715 15.0781 31.4459 14.1602 31.4792C13.2398 31.5125 12.3194 31.4741 11.399 31.4587C10.4786 31.4433 9.56073 31.3817 8.64285 31.2843C7.72497 31.1868 6.83996 30.9893 5.93725 30.8457C5.13063 30.7175 4.31389 30.5713 3.65646 30.043C3.02178 29.5326 2.67536 28.7914 2.63743 27.9758C2.61468 27.486 2.7057 27.0012 2.75628 26.5139C2.80938 26.001 2.81191 25.4881 2.84225 24.9725C2.90799 23.8979 3.14062 22.8541 3.14568 21.7744C3.15327 20.6946 3.41118 19.6534 3.48957 18.5787C3.56543 17.5118 3.62106 16.4372 3.7222 15.3729C3.76772 14.8805 3.00914 14.883 2.96362 15.3729L2.95856 15.378Z" fill="#333333"/>
<path d="M12.605 52.8408C12.7036 52.8818 12.825 52.792 12.9287 52.792C13.5457 52.792 14.1626 52.8741 14.7822 52.8741C15.4017 52.8741 15.9984 52.8048 16.6154 52.8023C16.6558 52.3842 16.7064 51.7815 16.7014 51.1609C16.6963 50.5069 16.6533 49.8683 16.6887 49.4964C15.9731 49.4913 15.2828 49.5554 14.6001 49.5733C13.9174 49.5913 13.2068 49.5169 12.5089 49.5246C11.8262 49.5323 11.1486 49.5938 10.433 49.5656C10.4279 49.976 10.433 51.1121 10.4229 51.6841C11.1486 51.7405 11.7908 52.1149 12.3218 52.6228C12.4053 52.7023 12.4988 52.7997 12.6076 52.8433L12.605 52.8408Z" fill="#FFE6D9"/>
<path d="M12.605 53.2251C12.7314 53.2405 12.8275 53.1943 12.9488 53.1764C13.1183 53.1507 13.3155 53.1841 13.4849 53.1943C13.8339 53.2148 14.1853 53.2456 14.5343 53.2559C15.2296 53.2764 15.9199 53.1943 16.6153 53.1866C16.8353 53.1866 16.9744 53.0122 16.9946 52.8019C17.0502 52.2351 17.0856 51.6683 17.0806 51.099C17.0755 50.5655 17.0275 50.0269 17.0705 49.496C17.0882 49.2883 16.8833 49.1113 16.6912 49.1113C15.6443 49.1113 14.6051 49.2139 13.5557 49.1678C12.5063 49.1216 11.4747 49.2165 10.4329 49.1806C10.2255 49.1729 10.0561 49.3627 10.0536 49.5653C10.0435 50.2706 10.0536 50.9784 10.0435 51.6837C10.041 51.9069 10.2205 52.0479 10.4228 52.0684C10.8122 52.1069 11.1763 52.2531 11.5075 52.4634C11.8388 52.6737 12.079 52.9968 12.4128 53.1764C12.8452 53.4072 13.227 52.7429 12.7946 52.5121C12.605 52.4095 12.4558 52.2249 12.2863 52.0889C12.1068 51.9453 11.9197 51.8094 11.7199 51.6991C11.3128 51.4734 10.8804 51.3452 10.4202 51.299L10.7995 51.6837C10.8122 50.9784 10.7995 50.2706 10.8096 49.5653L10.4304 49.95C11.4721 49.9859 12.5089 49.891 13.5532 49.9372C14.6025 49.9833 15.6393 49.8807 16.6886 49.8807L16.3093 49.496C16.2664 50.0269 16.3144 50.5655 16.3195 51.099C16.3245 51.6683 16.2891 52.2351 16.2335 52.8019L16.6128 52.4172C15.9199 52.4249 15.2271 52.5044 14.5317 52.4865C14.203 52.4762 13.8718 52.448 13.5431 52.43C13.3585 52.4198 13.1714 52.4044 12.9868 52.4095C12.8629 52.4147 12.7213 52.4711 12.5999 52.4583C12.1169 52.3993 12.1195 53.1687 12.5999 53.2277L12.605 53.2251Z" fill="#333333"/>
<path d="M12.9288 52.8045C12.8226 52.8045 12.7164 52.8455 12.6178 52.8045C12.5116 52.7609 12.4534 52.6429 12.37 52.5634C11.8415 52.0556 11.1057 51.7273 10.38 51.6709C10.38 51.7299 10.3673 51.8376 10.3648 51.8812C10.3597 52.2069 10.3446 52.566 10.1929 52.825C9.98804 53.1789 9.59611 53.2661 9.28762 53.4405C8.97913 53.6149 8.67823 53.956 8.72627 54.3946C9.28003 54.4331 9.82115 54.4664 10.3749 54.4895C10.9312 54.5126 11.485 54.528 12.0413 54.5382C12.5976 54.5485 13.1513 54.4946 13.7076 54.4895C14.2639 54.4844 14.8177 54.5177 15.374 54.4998C15.6293 54.4921 15.9302 54.5408 16.1452 54.3587C16.4688 54.0843 16.5093 53.4841 16.5851 52.984C16.5927 52.9353 16.6256 52.8994 16.6307 52.843C16.0137 52.843 15.3967 52.7865 14.7797 52.7891C14.1628 52.7917 13.5458 52.8019 12.9263 52.8045H12.9288Z" fill="#FCFCFC"/>
<path d="M12.9285 52.42C12.754 52.4354 12.7565 52.4149 12.6377 52.2943C12.5669 52.2225 12.4885 52.1584 12.4101 52.0969C12.2129 51.9378 12.003 51.7994 11.778 51.6839C11.3355 51.4608 10.8727 51.3351 10.3797 51.289C10.1673 51.2685 10.0105 51.4813 10.0004 51.6737C9.9852 51.9584 10.013 52.2918 9.90428 52.5585C9.79808 52.8175 9.51488 52.9047 9.28478 53.0176C8.74113 53.2792 8.31885 53.7562 8.34919 54.3974C8.35931 54.6154 8.51355 54.7667 8.72848 54.7821C9.59579 54.8411 10.4606 54.8873 11.3304 54.9103C12.2002 54.9334 13.1131 54.8693 14.0082 54.877C14.4456 54.8821 14.8806 54.8949 15.318 54.8872C15.6568 54.8796 16.0058 54.9103 16.3042 54.718C16.9009 54.3333 16.8225 53.5459 16.9995 52.9458C17.0729 52.7047 16.8756 52.4585 16.6329 52.4585C16.0159 52.4585 15.3989 52.4046 14.7819 52.4046C14.165 52.4046 13.548 52.4174 12.9285 52.42C12.4405 52.42 12.4405 53.192 12.9285 53.1894C13.5455 53.1869 14.1624 53.174 14.7819 53.174C15.3989 53.174 16.0159 53.2253 16.6329 53.2279C16.5115 53.0663 16.3901 52.9022 16.2662 52.7406C16.1828 53.0227 16.1701 53.3202 16.1044 53.6075C16.0387 53.8947 15.9653 54.105 15.6391 54.1127C14.8957 54.1332 14.1523 54.0845 13.4089 54.1101C11.8412 54.1614 10.2886 54.1127 8.72596 54.0076L9.10524 54.3923C9.07237 53.7434 9.87394 53.6639 10.2608 53.3279C10.7438 52.9099 10.7261 52.2559 10.7589 51.6686L10.3797 52.0533C10.8677 52.0994 11.3355 52.2764 11.7451 52.5482C11.9398 52.679 12.0839 52.8355 12.2458 52.9996C12.443 53.1971 12.663 53.2099 12.9285 53.1869C13.4114 53.1433 13.4165 52.3738 12.9285 52.4174V52.42Z" fill="#333333"/>
<path d="M10.0562 38.7705C10.0865 39.7092 10.0587 39.7092 10.0916 40.6479C10.1219 41.5865 10.1067 41.5865 10.1371 42.5252C10.1674 43.4639 10.1978 43.4639 10.2281 44.4026C10.2584 45.3413 10.2483 45.3413 10.2812 46.2799C10.3115 47.2186 10.2433 47.2212 10.2761 48.1624C10.309 49.1037 10.3722 49.0985 10.4051 50.0398C10.4127 50.2475 10.5669 50.3963 10.7717 50.3963C11.7174 50.3963 11.7174 50.3527 12.6606 50.3527C13.6038 50.3527 13.6063 50.3963 14.552 50.3963C15.4977 50.3963 15.4977 50.4117 16.4434 50.4117C16.6533 50.4117 16.8783 50.2398 16.8783 50.027C16.8783 49.0703 16.8834 49.0703 16.8834 48.1137C16.8834 47.1571 16.8935 47.1571 16.8935 46.2004C16.8935 45.2438 16.805 45.2438 16.805 44.2872C16.805 43.3305 16.7999 43.3305 16.7999 42.3739C16.7999 41.4173 16.7974 41.4173 16.7974 40.4606C16.7974 39.504 16.8303 39.504 16.8303 38.5474" fill="#FCFCFC"/>
<path d="M9.67684 38.7708C9.70971 39.7736 9.71983 40.7815 9.73753 41.7843C9.75776 42.8589 9.83867 43.9284 9.86649 45.0004C9.89177 45.9468 9.8766 46.8932 9.88672 47.8395C9.89177 48.3371 9.93476 48.827 9.98027 49.3219C10.0258 49.8169 9.91959 50.5222 10.5062 50.7325C10.9159 50.8787 11.4721 50.7684 11.902 50.7505C12.428 50.73 12.9539 50.73 13.4773 50.753C14.4382 50.7941 15.4168 50.8249 16.3802 50.7966C16.6381 50.7889 16.8808 50.7146 17.0603 50.5145C17.2702 50.2811 17.2525 49.9913 17.255 49.6964C17.255 49.245 17.2601 48.7936 17.2601 48.3422C17.2601 47.324 17.3183 46.2905 17.2272 45.2748C17.1261 44.1464 17.1767 42.9974 17.1741 41.8664C17.1741 40.7584 17.2045 39.653 17.2045 38.5451C17.2045 38.0501 16.4459 38.0501 16.4459 38.5451C16.4434 40.3814 16.4181 42.2203 16.4181 44.0566C16.4181 45.0389 16.5142 46.0135 16.5041 46.9983C16.4965 47.8678 16.4939 48.7346 16.4914 49.6041C16.4914 49.6759 16.5319 49.9888 16.4914 50.0272C16.4611 50.0529 16.2689 50.0272 16.2082 50.0272C15.9781 50.0272 15.7505 50.0247 15.5204 50.0195C15.0274 50.0118 14.5343 50.0195 14.0412 50.0067C13.1739 49.9862 12.3167 49.9708 11.4494 50.0016C11.3331 50.0067 10.8198 50.076 10.7667 50.017C10.7515 49.999 10.7591 49.7195 10.7566 49.6707C10.749 49.5553 10.7414 49.4374 10.7313 49.3219C10.6883 48.8603 10.6478 48.4012 10.6402 47.937C10.6225 47.0394 10.6453 46.1417 10.6225 45.2441C10.5973 44.1387 10.5138 43.0333 10.4885 41.9279C10.4658 40.8738 10.4582 39.8197 10.4253 38.7682C10.4101 38.2732 9.65156 38.2732 9.66673 38.7682L9.67684 38.7708Z" fill="#333333"/>
<path d="M20.6434 52.7712C20.5473 52.8122 20.4411 52.8482 20.3349 52.8482C19.7179 52.8482 19.1009 52.7712 18.4814 52.7738C17.8645 52.7738 17.2424 52.8379 16.6255 52.8379C16.5825 52.4199 16.5901 51.7812 16.5901 51.158C16.5901 50.504 16.6078 49.8962 16.5698 49.5243C17.2854 49.5166 17.958 49.4935 18.6433 49.5064C19.3437 49.5192 20.034 49.5679 20.7344 49.5705C21.4171 49.573 22.1075 49.532 22.823 49.4961C22.8332 49.9064 22.8736 51.1221 22.8888 51.694C22.1631 51.7556 21.4121 52.0121 20.8861 52.525C20.8027 52.6071 20.7521 52.725 20.6459 52.7712H20.6434Z" fill="#FFE6D9"/>
<path d="M20.5448 52.3993C20.2489 52.5121 19.9076 52.4532 19.5965 52.4352C19.2678 52.4173 18.9391 52.3916 18.6079 52.3865C17.9479 52.3788 17.2879 52.4455 16.628 52.4506L17.0073 52.8353C16.9036 51.735 17.0502 50.622 16.9516 49.5217L16.5723 49.9064C18.6584 49.8782 20.7369 49.9808 22.823 49.8782L22.4437 49.4935C22.4614 50.227 22.4893 50.9579 22.5095 51.6914L22.8888 51.3067C22.4185 51.3529 21.9633 51.4504 21.5284 51.6453C21.3135 51.7402 21.1112 51.853 20.9215 51.9941C20.8431 52.0531 20.7622 52.1146 20.6914 52.1813C20.6105 52.2557 20.5448 52.3762 20.4537 52.4352C20.0441 52.6994 20.4234 53.3662 20.8356 53.0995C20.9949 52.9969 21.0884 52.8507 21.225 52.725C21.3741 52.5917 21.5486 52.4839 21.7256 52.3942C22.0847 52.2121 22.4893 52.1146 22.8863 52.0761C23.086 52.0556 23.2706 51.9146 23.2655 51.6914C23.2478 50.9579 23.2175 50.227 23.1998 49.4935C23.1947 49.2934 23.0304 49.0985 22.8205 49.1088C20.7344 49.2114 18.6559 49.1088 16.5698 49.137C16.3776 49.1396 16.1728 49.3114 16.1905 49.5217C16.2891 50.622 16.145 51.7325 16.2462 52.8353C16.2664 53.0405 16.4055 53.2226 16.6254 53.22C17.3259 53.2123 18.0263 53.1405 18.7292 53.1585C19.3664 53.1738 20.1351 53.3688 20.7445 53.1405C21.1971 52.9687 21.0024 52.2249 20.5422 52.3993H20.5448Z" fill="#333333"/>
<path d="M20.3375 52.8044C20.4437 52.8044 20.5272 52.7582 20.6233 52.7172C20.7295 52.6736 20.8458 52.6505 20.9292 52.571C21.4552 52.0606 22.1531 51.7041 22.8762 51.6426C22.8762 51.7016 22.9091 51.7939 22.9091 51.8375C22.9167 52.1632 22.9344 52.512 23.0861 52.771C23.2935 53.1224 23.6904 53.1763 23.9989 53.3481C24.3074 53.5199 24.6286 53.9508 24.5856 54.3894C24.0318 54.4304 23.4528 54.433 22.899 54.4586C22.3452 54.4843 21.7889 54.5356 21.2352 54.5484C20.6814 54.5612 20.1226 54.6125 19.5688 54.6099C19.0151 54.6074 18.4588 54.4766 17.905 54.4612C17.6496 54.4535 17.3968 54.4766 17.1793 54.2945C16.8531 54.0226 16.8025 53.4738 16.7242 52.9762C16.7166 52.9275 16.6432 52.9018 16.6382 52.8454C17.2552 52.8454 17.8721 52.889 18.4891 52.8865C19.1061 52.8839 19.7231 52.807 20.34 52.8044H20.3375Z" fill="#FCFCFC"/>
<path d="M20.4387 53.1766C20.9167 53.1125 21.1948 52.797 21.569 52.538C21.961 52.2661 22.406 52.0789 22.8788 52.0302L22.5122 51.7481C22.5931 52.3379 22.5653 52.9458 23.1014 53.3305C23.5363 53.6434 24.2367 53.6921 24.2089 54.3897L24.5882 54.005C23.0407 54.1127 21.478 54.1768 19.9254 54.2204C19.1846 54.2409 18.4513 54.1127 17.7129 54.0742C17.3513 54.0563 17.2603 53.8024 17.187 53.4767C17.1541 53.3279 17.1313 53.1766 17.1086 53.0253C17.0833 52.856 17.0302 52.7944 16.9594 52.6534C16.8507 52.8457 16.7419 53.0381 16.6307 53.233C17.2477 53.233 17.8646 53.2766 18.4816 53.274C19.1011 53.2715 19.7156 53.1997 20.3325 53.192C20.8206 53.1868 20.8206 52.4174 20.3325 52.4226C19.713 52.4303 19.0986 52.4995 18.4816 52.5046C17.8646 52.5072 17.2477 52.4636 16.6307 52.4636C16.3272 52.4636 16.1781 52.7868 16.302 53.0432C16.3728 53.1894 16.3753 53.2561 16.4056 53.4356C16.436 53.6152 16.4689 53.7921 16.5295 53.964C16.6357 54.2743 16.8153 54.5538 17.1086 54.7128C17.4247 54.8821 17.7938 54.8385 18.1377 54.8642C18.5752 54.8975 19.0076 54.9821 19.445 54.9975C20.2719 55.0257 21.1189 54.9539 21.9458 54.9052C22.8257 54.8539 23.7057 54.8385 24.5831 54.777C24.793 54.7616 24.9548 54.6128 24.9624 54.3923C24.9877 53.7434 24.5679 53.1792 23.9965 52.9278C23.7563 52.8227 23.4806 52.7534 23.3694 52.4867C23.2581 52.22 23.2834 51.8429 23.2404 51.5454C23.2202 51.3941 23.023 51.2479 22.8738 51.2633C22.3681 51.3172 21.8927 51.4582 21.4477 51.7096C21.038 51.9404 20.7118 52.3738 20.2314 52.438C20.0266 52.4662 19.9204 52.7303 19.9659 52.9124C20.0241 53.1356 20.2314 53.2099 20.4337 53.1817L20.4387 53.1766Z" fill="#333333"/>
<path d="M16.3878 42.1687C16.3979 43.151 16.3929 43.151 16.403 44.1332C16.4131 45.1155 16.3195 45.1155 16.3296 46.0978C16.3398 47.0801 16.3929 47.0801 16.403 48.0624C16.4131 49.0446 16.3929 49.0446 16.403 50.0295C16.403 50.2424 16.5951 50.3885 16.805 50.386C17.7507 50.3783 17.7507 50.3911 18.6964 50.3834C19.6421 50.3757 19.6421 50.3321 20.5878 50.3244C21.5335 50.3167 21.5335 50.4167 22.4792 50.4091C22.684 50.4091 22.8307 50.2013 22.8357 49.9936C22.861 49.0882 22.9192 49.0882 22.9445 48.1829C22.9697 47.2776 22.9065 47.275 22.9293 46.3697C22.9546 45.4643 22.9192 45.4643 22.9419 44.559C22.9647 43.6536 23.0557 43.6562 23.0785 42.7483C23.1012 41.8404 23.0684 41.8404 23.0911 40.9325C23.1164 40.0246 23.0532 40.0246 23.0785 39.1167C23.0835 38.8987 22.9773 38.6909 22.7624 38.6909C21.8622 38.6909 21.8622 38.6499 20.9646 38.6499C20.0644 38.6499 20.0644 38.7192 19.1642 38.7192C18.264 38.7192 18.264 38.7807 17.3638 38.7807C16.4637 38.7807 16.4637 38.6756 15.5635 38.6756" fill="#FCFCFC"/>
<path d="M16.0086 42.169C16.0137 42.7461 16.0162 43.3231 16.0213 43.8976C16.0263 44.467 15.9758 45.0261 15.9555 45.5954C15.9125 46.7547 16.0339 47.9191 16.0238 49.0809C16.0187 49.6297 15.8645 50.4171 16.4638 50.6966C16.7318 50.8223 17.0605 50.771 17.3488 50.771C17.5814 50.771 17.8115 50.771 18.0441 50.771C19.2174 50.771 20.3957 50.6505 21.5665 50.7556C22.1025 50.8044 22.8358 50.9505 23.1292 50.3632C23.2682 50.0837 23.2227 49.7246 23.2455 49.4194C23.2632 49.1732 23.291 48.9296 23.3062 48.6833C23.3416 48.1037 23.3188 47.5292 23.3062 46.947C23.296 46.3905 23.3188 45.8314 23.3163 45.2749C23.3087 44.1054 23.4781 42.9512 23.468 41.7792C23.4629 41.2149 23.4933 40.6507 23.4705 40.089C23.4503 39.5761 23.6248 38.781 23.1544 38.4399C22.8814 38.2399 22.4793 38.3117 22.1607 38.3014C21.9003 38.2937 21.6423 38.2784 21.3819 38.2732C20.7472 38.2604 20.1252 38.322 19.493 38.3373C18.8609 38.3527 18.2262 38.3912 17.5941 38.4015C16.9139 38.4117 16.2463 38.3014 15.5687 38.2963C15.0806 38.2937 15.0806 39.0632 15.5687 39.0657C16.0643 39.0683 16.5523 39.1478 17.0479 39.1657C17.5662 39.1863 18.0821 39.1452 18.6004 39.1221C19.665 39.0734 20.7447 39.0119 21.8118 39.058C22.0242 39.0683 22.2366 39.076 22.4515 39.0785C22.5172 39.0785 22.5906 39.0837 22.6563 39.0785C22.9142 39.0632 22.7044 39.058 22.7094 39.0914C22.7221 39.2632 22.7044 39.4453 22.7069 39.6197C22.7119 40.1352 22.7296 40.6456 22.7195 41.1611C22.7119 41.633 22.7246 42.1049 22.7145 42.5768C22.7044 43.0897 22.6336 43.5924 22.5956 44.1028C22.5552 44.6311 22.5678 45.1594 22.5678 45.6903C22.5678 46.2212 22.5451 46.7496 22.5678 47.2779C22.5906 47.819 22.583 48.3602 22.5375 48.9013C22.5198 49.1014 22.4995 49.2989 22.4869 49.4964C22.4818 49.5887 22.5122 49.9324 22.4667 49.9939C22.406 50.0734 22.1885 50.0247 22.0722 50.0196C21.5791 50.0016 21.0911 49.9375 20.598 49.9401C20.105 49.9401 19.6169 49.9785 19.1239 49.9913C18.5954 50.0042 18.0669 49.999 17.5384 49.999C17.4221 49.999 17.3033 49.999 17.187 49.999C17.0959 49.999 16.8683 50.0478 16.7874 49.999L16.7925 50.0298V49.9067C16.7925 49.8195 16.7925 49.7297 16.7925 49.6425C16.7925 49.4989 16.7925 49.3527 16.7925 49.2091C16.8026 48.0319 16.6913 46.8547 16.7242 45.6801C16.7394 45.121 16.7975 44.5696 16.795 44.0105C16.79 43.3975 16.7874 42.782 16.7824 42.169C16.7773 41.674 16.0187 41.674 16.0238 42.169H16.0086Z" fill="#333333"/>
<path d="M30.1963 30.9687C29.9789 30.5327 29.7361 30.107 29.5743 29.653C29.4125 29.1991 29.3442 28.7143 29.2987 28.2219C29.2759 27.968 29.5566 27.3525 29.6375 27.0755C29.769 26.619 29.9763 26.1881 30.1078 25.7316C30.1609 25.5469 30.1736 25.3238 30.3253 25.2084C30.5503 25.0417 30.9195 25.1315 31.1041 25.3443C31.2887 25.5572 31.3241 25.8496 31.3519 26.1291C31.6958 25.7444 32.1181 25.4597 32.5681 25.211C32.7654 25.1032 32.9651 24.9853 33.1902 24.9904C33.4152 24.9955 33.6908 25.1109 33.7566 25.3289C33.8375 25.6059 33.5973 25.9368 33.4051 26.1496C33.6757 25.9214 34.0853 25.8803 34.3306 26.1368C34.5759 26.3933 34.4975 26.9165 34.1612 27.0268C34.4545 26.8883 34.8995 27.1114 34.945 27.4371C34.9905 27.7628 34.7301 28.068 34.457 28.2476C34.7529 28.068 35.1321 28.4656 35.0892 28.8118C35.0462 29.158 34.7731 29.4325 34.4899 29.6325C33.9589 30.0095 33.3419 30.2249 32.7451 30.484C32.1509 30.743 31.582 31.0739 30.9726 31.2893C30.8082 31.3483 30.6262 31.3226 30.4694 31.2431C30.348 31.1816 30.2545 31.0893 30.1938 30.9661L30.1963 30.9687Z" fill="#FFE6D9"/>
<path d="M30.5225 30.7739C30.2343 30.1994 29.9232 29.6506 29.7892 29.012C29.7336 28.7529 29.6527 28.4298 29.678 28.1656C29.6957 27.9656 29.7968 27.7527 29.8651 27.5655C30.0547 27.0474 30.2494 26.5268 30.4189 26.0036C30.472 25.8446 30.4618 25.4906 30.6667 25.5137C30.9246 25.5419 30.9524 25.9343 30.9726 26.1292C31.0055 26.437 31.3747 26.6678 31.6199 26.4011C31.9613 26.0292 32.3633 25.7599 32.8008 25.5189C32.9272 25.4496 33.2054 25.2752 33.347 25.4137C33.4633 25.5291 33.2256 25.7676 33.1346 25.8728C32.8665 26.178 33.2281 26.7525 33.5948 26.478C33.7111 26.3908 33.9614 26.2395 34.0727 26.4242C34.1409 26.5396 34.0727 26.6473 33.969 26.6909C33.5771 26.8602 33.8577 27.545 34.2623 27.3936C34.3533 27.3603 34.5101 27.3577 34.5632 27.4655C34.6416 27.6245 34.366 27.8399 34.2648 27.9092C33.8577 28.1938 34.2042 28.7786 34.6467 28.5734C34.5835 28.6016 34.6669 28.6093 34.6821 28.6606C34.7048 28.7504 34.7175 28.7811 34.6795 28.8786C34.6113 29.053 34.4418 29.1864 34.2977 29.2941C33.9184 29.5736 33.4734 29.7583 33.0435 29.9378C32.596 30.1251 32.1611 30.3277 31.7236 30.538C31.4429 30.6739 30.7476 31.1586 30.52 30.7688C30.2722 30.3431 29.6173 30.7278 29.8651 31.1561C30.037 31.4536 30.3228 31.651 30.6641 31.6895C31.0586 31.7331 31.4455 31.5126 31.7944 31.351C32.5353 31.0073 33.2939 30.6919 34.0272 30.3354C34.6189 30.0481 35.4356 29.5634 35.4685 28.8042C35.4963 28.1528 34.8692 27.627 34.2648 27.9066C34.3913 28.1272 34.5202 28.3503 34.6467 28.5708C35.0765 28.2708 35.4836 27.7527 35.2662 27.1936C35.0866 26.732 34.5177 26.478 34.0575 26.6473L34.3508 27.35C34.8414 27.1397 34.9804 26.4601 34.72 26.019C34.4014 25.4804 33.6732 25.4599 33.213 25.8087L33.6732 26.4139C33.9361 26.1139 34.2143 25.7292 34.1384 25.3034C34.0651 24.8982 33.7035 24.6597 33.3192 24.6109C32.8918 24.5571 32.5125 24.7879 32.156 25.0008C31.7641 25.2367 31.3974 25.5137 31.0864 25.8523C31.3013 25.942 31.5188 26.0344 31.7337 26.1241C31.6933 25.7497 31.6427 25.3521 31.3747 25.0675C31.1395 24.8187 30.7729 24.6828 30.4366 24.7494C30.0648 24.8238 29.8727 25.1059 29.7842 25.4599C29.6729 25.901 29.4909 26.3139 29.3467 26.7422C29.2431 27.05 29.1293 27.3552 29.0281 27.6655C28.9143 28.0143 28.927 28.3067 28.9725 28.6683C29.0913 29.5865 29.4605 30.3431 29.8701 31.1586C30.0927 31.5998 30.7476 31.2099 30.5251 30.7714L30.5225 30.7739Z" fill="#333333"/>
<path d="M31.1066 31.038C30.8183 30.4866 30.5377 29.9301 30.2494 29.3787C29.9612 28.8273 29.6729 28.2758 29.3846 27.7244C29.2987 27.5603 29.1849 27.3166 29.0053 27.2961C28.9067 27.2859 28.8233 27.4346 28.7323 27.4782C28.0419 27.8116 27.3365 28.1809 26.5728 28.2579C26.0292 28.3117 25.5513 28.1604 25.1442 27.8834C24.7396 27.609 24.4033 27.2012 24.024 26.8832C23.5562 26.4882 23.0707 26.1061 22.5498 25.7855C22.0289 25.4649 21.4448 25.27 20.8835 25.0264C20.3221 24.7827 19.7911 24.4493 19.202 24.2852C18.7064 24.1492 18.1754 24.139 17.6646 24.08C17.1538 24.021 16.638 23.9825 16.1247 24.0133C15.6114 24.0441 15.0804 24.0492 14.5822 24.1851C13.988 24.3467 13.3862 24.6314 12.797 24.9417C12.2332 25.2392 11.6946 25.6214 11.1686 25.9933C10.6427 26.3651 10.0813 26.755 9.61353 27.1499C9.1862 27.5116 8.76898 27.9014 8.35682 28.2887C7.94466 28.6759 7.59571 29.1299 7.24929 29.571C6.90288 30.0121 6.54382 30.461 6.31624 30.9867C6.08867 31.5125 6.00775 32.087 5.9496 32.6589C5.89144 33.2308 5.91167 33.7976 6.02545 34.3593C6.16958 35.0672 6.48819 35.7571 6.95851 36.3034C7.444 36.8676 8.05844 37.2856 8.79427 37.3523C8.91564 37.3626 9.03954 37.3703 9.1508 37.419C9.67169 37.655 9.44159 38.9399 9.91949 39.4195C10.5365 40.0401 11.5732 39.8555 12.3672 39.8939C13.0094 39.9273 13.6492 39.9196 14.2914 39.9375C14.9337 39.9555 15.5734 40.0324 16.2157 40.035C16.815 40.0376 17.4168 40.1068 18.0186 40.0965C18.6179 40.0863 19.2197 40.0632 19.8215 40.0401C20.4208 40.017 21.02 39.935 21.6193 39.9016C22.1503 39.8709 22.7041 39.7324 23.1719 39.4861C23.6397 39.2399 24.0746 38.8783 24.1985 38.273C24.3123 37.7191 24.1884 37.1189 24.1201 36.5265C24.2541 36.5367 24.4513 36.565 24.5879 36.5547C24.9773 36.5214 25.3566 36.3931 25.7182 36.2444C26.234 36.0315 26.6816 35.6955 27.1494 35.398C27.6171 35.1005 28.1254 34.8569 28.5527 34.4952C28.9775 34.1387 29.3745 33.7387 29.7715 33.3463C30.1685 32.9539 30.4896 32.4845 30.8714 32.0819C31.0333 31.91 31.2963 31.7664 31.3064 31.5304C31.314 31.356 31.1875 31.1919 31.1066 31.038Z" fill="#FFD063"/>
<path d="M31.4355 30.8455C30.907 29.8325 30.3861 28.8194 29.8601 27.8064C29.6907 27.4807 29.5163 27.0036 29.1091 26.9267C28.8967 26.8856 28.7602 26.978 28.6009 27.0985C28.4239 27.2319 28.2014 27.3191 27.9991 27.414C27.1065 27.832 26.1203 28.1423 25.2556 27.4935C24.8636 27.2011 24.5425 26.8138 24.1657 26.5009C23.7561 26.1624 23.3364 25.8341 22.8913 25.5469C22.4463 25.2596 21.9911 25.0698 21.5183 24.8749C21.0454 24.68 20.6055 24.462 20.1503 24.2466C19.1819 23.7875 18.1325 23.7105 17.0756 23.6387C16.0464 23.5669 14.9313 23.6208 13.9578 23.9875C12.9742 24.3594 12.074 24.8929 11.2143 25.4956C10.3141 26.1291 9.43919 26.7728 8.62751 27.5191C7.86134 28.2219 7.20391 28.9887 6.58187 29.8248C5.36562 31.4611 5.17092 33.9719 6.14948 35.78C6.58187 36.5802 7.26965 37.2804 8.12685 37.5933C8.32913 37.6676 8.53901 37.7061 8.75141 37.7292C8.89554 37.7446 8.98657 37.7266 9.0599 37.8497C9.20909 38.1062 9.19897 38.5166 9.25713 38.8038C9.41896 39.6091 9.95755 40.0913 10.7591 40.2195C11.1662 40.2836 11.5784 40.2759 11.988 40.2734C12.476 40.2734 12.9666 40.3016 13.4546 40.3093C14.5571 40.3247 15.6595 40.3862 16.762 40.4375C17.8645 40.4888 18.9644 40.4786 20.0644 40.4144C21.6801 40.317 24.3706 40.2631 24.6082 38.1088C24.6664 37.5804 24.5653 37.0521 24.502 36.5289L24.1228 36.9136C25.0078 36.9931 25.8473 36.6802 26.5982 36.216C26.975 35.9826 27.3391 35.7262 27.7209 35.5005C28.1205 35.2645 28.5099 35.0311 28.8664 34.7285C29.5795 34.1258 30.2116 33.4461 30.8084 32.7306C30.9424 32.5716 31.0764 32.4126 31.2281 32.2689C31.352 32.151 31.4835 32.0509 31.572 31.8996C31.792 31.5277 31.6226 31.1815 31.4329 30.8404C31.1927 30.4095 30.5378 30.7968 30.778 31.2277C30.8261 31.3123 30.9297 31.4405 30.9044 31.5252C30.8766 31.6149 30.6668 31.7406 30.601 31.8073C30.3406 32.0715 30.1181 32.3767 29.8778 32.6588C29.3696 33.2564 28.7703 33.8693 28.1382 34.331C27.5465 34.7644 26.8815 35.1286 26.2594 35.5184C25.5995 35.9339 24.9016 36.2109 24.1202 36.1391C23.9331 36.1211 23.7182 36.3289 23.7409 36.5238C23.8421 37.3445 24.1 38.3499 23.3414 38.9269C22.5803 39.504 21.622 39.504 20.7193 39.586C18.6939 39.7707 16.6786 39.6732 14.6532 39.5655C13.7252 39.5142 12.7795 39.4937 11.8489 39.5014C11.2674 39.5065 10.2787 39.586 10.0511 38.8833C9.87664 38.3473 9.96008 37.6317 9.52263 37.2137C9.24196 36.9444 8.85003 37.0008 8.50361 36.9059C8.09145 36.7931 7.73239 36.5494 7.42895 36.2494C6.76899 35.5877 6.39729 34.6823 6.31384 33.7513C6.2304 32.8152 6.33407 31.7047 6.79175 30.8712C7.03196 30.4352 7.34804 30.0505 7.654 29.6632C7.95996 29.2759 8.24316 28.9246 8.58199 28.5963C9.31023 27.891 10.0739 27.2319 10.8982 26.6446C11.7073 26.0701 12.5089 25.4956 13.4015 25.057C13.8314 24.8467 14.2739 24.6544 14.7366 24.5389C15.2246 24.4158 15.7405 24.4081 16.2386 24.3902C16.7342 24.3722 17.2273 24.4158 17.7203 24.4697C18.2362 24.5261 18.7571 24.5389 19.2527 24.7031C19.6851 24.8441 20.0821 25.075 20.4917 25.2673C20.9013 25.4597 21.3691 25.6238 21.799 25.8239C22.6511 26.2163 23.435 26.8292 24.1101 27.4832C24.7524 28.1064 25.4225 28.6553 26.358 28.6553C26.8081 28.6553 27.2582 28.5373 27.6754 28.3783C28.0926 28.2193 28.5402 28.0449 28.922 27.8141C28.9473 27.7987 29.1117 27.6935 29.1041 27.6679C29.1016 27.6551 28.9296 27.6576 28.9271 27.6961C28.9271 27.714 28.9751 27.773 28.9827 27.7884C29.1117 28.0115 29.2229 28.2449 29.3418 28.4732C29.582 28.9323 29.8222 29.3914 30.0624 29.853C30.3026 30.3146 30.5353 30.7763 30.7755 31.2354C31.0031 31.6739 31.658 31.2841 31.4304 30.8481L31.4355 30.8455Z" fill="#333333"/>
<path d="M8.49621 30.825C9.24468 30.8301 10.0842 30.6224 10.8099 30.8942C11.1512 31.0224 11.2448 31.302 11.3535 31.6303C11.485 32.0381 11.576 32.4587 11.6418 32.8844C11.7101 33.3204 11.7404 33.759 11.7556 34.2001C11.7707 34.6412 11.8112 35.108 11.7758 35.5491C11.705 36.4263 10.5039 36.3775 9.8743 36.3827C9.38628 36.3852 9.38628 37.1546 9.8743 37.1521C10.7517 37.147 11.9882 37.0982 12.408 36.1416C12.6178 35.6594 12.5369 35.0644 12.5268 34.5515C12.5167 34.0001 12.4838 33.4512 12.4105 32.9049C12.3397 32.3869 12.2385 31.8688 12.0716 31.3738C11.9225 30.9301 11.748 30.5249 11.3257 30.2864C10.4786 29.8093 9.41662 30.0581 8.50127 30.053C8.01325 30.0504 8.01325 30.8198 8.50127 30.8224L8.49621 30.825Z" fill="#333333"/>
<path d="M12.2736 24.8186C12.1143 25.3418 12.0435 25.8778 12.0359 26.4267C12.0283 27.0166 12.0738 27.6475 12.4455 28.104C12.7692 28.5015 13.2597 28.6682 13.7705 28.6913C14.2611 28.7118 14.7895 28.6195 15.2093 28.363C15.629 28.1066 15.983 27.7193 16.2966 27.3192C16.6051 26.9242 16.8832 26.478 17.1437 26.0497C17.1892 27.073 17.4066 27.7501 18.2057 28.3912C18.4004 28.5477 18.6279 28.6913 18.8606 28.7811C19.4801 29.0222 20.2108 28.7452 20.6963 28.2861C21.1818 27.827 21.4473 27.1781 21.4878 26.5087C21.5282 25.8368 21.3462 25.1802 21.1161 24.5493" fill="#FFD063"/>
<path d="M11.9072 24.716C11.4748 26.201 11.3661 28.6246 13.2929 29.0145C14.1526 29.1889 15.0528 28.9991 15.7405 28.4477C16.4713 27.8629 16.9846 27.0345 17.4676 26.242C17.2324 26.1779 16.9973 26.1138 16.7596 26.0471C16.8 26.8422 16.9593 27.5936 17.4752 28.2168C18.0542 28.9144 18.9215 29.412 19.8318 29.1889C20.7016 28.976 21.3667 28.2707 21.6752 27.4397C22.0393 26.4549 21.8193 25.4008 21.4754 24.4467C21.3085 23.9851 20.5752 24.1851 20.7446 24.6519C21.0127 25.4008 21.2352 26.2061 21.0203 26.9986C20.8433 27.65 20.3755 28.2271 19.7231 28.422C19.0707 28.6169 18.4259 28.1861 18.0112 27.6731C17.6395 27.2115 17.5485 26.6242 17.5181 26.0471C17.4979 25.6701 17.015 25.5188 16.8101 25.8522C16.0794 27.0499 15.1817 28.5143 13.5836 28.2887C12.0437 28.0732 12.3168 26.0138 12.6354 24.9186C12.7745 24.4416 12.0412 24.239 11.9047 24.7135L11.9072 24.716Z" fill="#333333"/>
<path d="M29.8124 10.1025C29.3901 10.1025 28.9931 10.1872 28.6264 10.3462C28.4646 9.7563 28.2598 9.19207 28.0196 8.64065C27.7768 8.08155 27.4658 7.56348 27.1497 7.05054C26.8311 6.53504 26.4746 6.05031 26.0877 5.58866C25.7009 5.12445 25.3216 4.65255 24.874 4.24989C24.4264 3.84723 23.946 3.47791 23.4453 3.1445C22.9472 2.81366 22.4339 2.48794 21.8877 2.23147C21.3416 1.975 20.7853 1.74417 20.2087 1.56978C19.6322 1.39538 19.038 1.32869 18.4387 1.23893C17.8546 1.15429 17.2579 1.18251 16.6485 1.18251C16.0391 1.18251 15.4373 1.12608 14.8532 1.21328C14.2691 1.30048 13.6521 1.39538 13.0857 1.56721C12.5066 1.74161 11.9554 2.00064 11.4143 2.25455C10.8681 2.51102 10.3725 2.85982 9.87436 3.19323C9.37623 3.52664 8.83764 3.82415 8.39008 4.2268C7.94252 4.62946 7.58851 5.13471 7.20164 5.59635C6.81476 6.058 6.43042 6.52478 6.11181 7.04028C5.79574 7.55322 5.55046 8.1072 5.30772 8.6663C5.0675 9.21771 4.84751 9.78964 4.68568 10.3795C4.31145 10.2128 3.88917 10.1615 3.45426 10.1615C2.89544 10.1615 2.40236 10.3077 1.95227 10.5744C1.48954 10.8489 1.01163 11.1566 0.7436 11.6311C0.475568 12.1056 0.376953 12.6544 0.376953 13.2212C0.376953 13.788 0.569127 14.3061 0.827043 14.7626C1.08496 15.2191 1.47689 15.6115 1.94215 15.8859C2.39225 16.1527 2.89796 16.2783 3.45426 16.2783C3.80067 16.2783 4.12686 16.2783 4.43535 16.1706C4.55673 16.8118 4.72867 17.4299 4.94107 18.0352C5.156 18.6481 5.46955 19.2098 5.77045 19.774C6.07135 20.3383 6.36467 20.9204 6.74902 21.4334C7.13337 21.9489 7.53541 22.4567 7.99309 22.9055C8.45076 23.3543 8.98936 23.7108 9.50772 24.0853C10.0261 24.4597 10.5596 24.8008 11.1311 25.0906C11.7025 25.3805 12.2968 25.5831 12.9062 25.7805C13.508 25.9755 14.1047 26.214 14.7394 26.3114C15.3589 26.4089 15.9986 26.4525 16.646 26.4525C17.2933 26.4525 17.9254 26.3704 18.5475 26.2755C19.1847 26.1755 19.7915 25.9934 20.3908 25.7985C21.0027 25.601 21.5792 25.3471 22.1456 25.0599C22.7171 24.7701 23.2962 24.5008 23.8145 24.1289C24.3329 23.757 24.831 23.3466 25.2887 22.8978C25.7464 22.449 26.1054 21.913 26.4898 21.3975C26.8741 20.8845 27.3293 20.4126 27.6327 19.8433C27.9361 19.2739 28.1233 18.6532 28.3407 18.0403C28.5582 17.4273 28.7074 16.799 28.8287 16.1578C29.1296 16.2578 29.4761 16.3168 29.8098 16.3168C30.3686 16.3168 30.8769 16.1578 31.327 15.8936C31.7771 15.6295 32.2348 15.2755 32.5028 14.8036C32.7632 14.3471 32.9023 13.7906 32.9023 13.2238C32.9023 12.657 32.6899 12.144 32.432 11.685C32.1741 11.2259 31.7998 10.813 31.3371 10.5385C30.887 10.2718 30.3712 10.1025 29.8124 10.1025Z" fill="#FFE6D9"/>
<path d="M29.8123 9.71775C29.3672 9.72544 28.9399 9.80495 28.5278 9.97678L28.9955 10.2461C27.8273 6.081 24.5174 2.53146 20.4287 1.23885C19.3591 0.900309 18.1934 0.790027 17.0757 0.800285C16.5144 0.805415 15.9505 0.772074 15.3892 0.790027C14.8278 0.807979 14.2842 0.908003 13.743 1.01572C12.6608 1.23116 11.5811 1.67998 10.6329 2.24934C10.1828 2.5212 9.75292 2.8264 9.30789 3.11108C8.86285 3.39576 8.42541 3.67531 8.04612 4.03694C7.60867 4.45242 7.25466 4.95254 6.86779 5.41675C6.48091 5.88096 6.10415 6.3426 5.79061 6.85298C5.14834 7.89168 4.65527 9.10991 4.32402 10.2845L4.79181 10.0153C3.74244 9.57926 2.53883 9.76648 1.59061 10.3512C1.13546 10.6333 0.695484 10.9668 0.419867 11.4412C0.14425 11.9157 0.0254057 12.4979 0.00264829 13.0544C-0.0909098 15.4345 2.31126 17.2349 4.53895 16.545C4.38218 16.4552 4.22793 16.3655 4.07116 16.2757C4.29873 17.458 4.69572 18.5634 5.25707 19.6226C5.81842 20.6818 6.34184 21.5872 7.07513 22.4694C7.81854 23.362 8.73137 24.0313 9.68465 24.6776C10.6607 25.3393 11.6949 25.7882 12.8075 26.1549C13.341 26.3293 13.8669 26.5319 14.4182 26.6473C14.9896 26.7653 15.5839 26.814 16.1654 26.8346C17.3691 26.8782 18.598 26.7294 19.7586 26.4011C21.9332 25.783 24.1482 24.6982 25.7185 23.0132C26.1534 22.5464 26.4998 22.0078 26.8918 21.5051C27.2508 21.0435 27.6503 20.6049 27.9386 20.0894C28.2496 19.5303 28.4443 18.9122 28.6542 18.3095C28.8868 17.6401 29.0638 16.9605 29.1978 16.2654L28.73 16.5347C30.6922 17.1528 32.9376 15.8884 33.2385 13.7777C33.5369 11.708 31.8529 9.76135 29.8098 9.72031C29.3217 9.71006 29.3217 10.4795 29.8098 10.4897C31.3977 10.5231 32.7353 12.0721 32.4901 13.6853C32.2372 15.3447 30.4545 16.2731 28.9298 15.7935C28.7452 15.7345 28.5025 15.8628 28.462 16.0628C28.2496 17.1631 27.9335 18.2762 27.4784 19.302C27.0662 20.2305 26.3279 20.9999 25.7261 21.8077C25.0813 22.6721 24.2519 23.4235 23.3441 23.9954C22.4364 24.5674 21.4148 25.0572 20.4059 25.4009C18.3072 26.1113 15.9429 26.3832 13.8037 25.6856C12.7468 25.3419 11.6924 25.0136 10.729 24.4417C9.84142 23.9159 8.90837 23.3004 8.1776 22.5618C7.31029 21.6846 6.67309 20.6742 6.09657 19.5867C5.81842 19.0661 5.52763 18.548 5.32535 17.9915C5.09777 17.3683 4.92583 16.7245 4.7994 16.0731C4.76147 15.873 4.51872 15.7474 4.33161 15.8038C2.55906 16.3526 0.680312 14.9446 0.75617 13.0544C0.77387 12.603 0.867428 12.1209 1.12029 11.7413C1.34786 11.3976 1.70692 11.1694 2.05334 10.9616C2.81951 10.5025 3.75256 10.4102 4.58447 10.7539C4.77664 10.8334 4.99916 10.6667 5.05226 10.4846C5.33293 9.4818 5.74509 8.48926 6.24323 7.57879C6.7186 6.70935 7.38615 5.96816 8.00819 5.20644C8.3369 4.80378 8.69091 4.44216 9.11824 4.14465C9.52029 3.8651 9.94003 3.6112 10.3471 3.33934C11.2119 2.76228 12.1349 2.26729 13.1286 1.95697C14.135 1.64151 15.1768 1.53635 16.2236 1.562C16.7647 1.57482 17.3084 1.54918 17.8495 1.57226C18.3906 1.59534 18.8989 1.67998 19.4122 1.77487C20.4185 1.96209 21.4072 2.36988 22.2973 2.87769C23.1621 3.37012 24.0041 3.94717 24.7298 4.63708C25.5263 5.39366 26.2394 6.30926 26.8209 7.24281C27.448 8.25074 27.9361 9.29457 28.2597 10.4461C28.3103 10.6282 28.5353 10.7949 28.7275 10.7154C29.079 10.5718 29.4305 10.4923 29.8123 10.4846C30.3003 10.4743 30.3003 9.70493 29.8123 9.71519V9.71775Z" fill="#333333"/>
<path d="M13.5304 11.8747C13.5304 12.3337 13.232 12.7621 12.7819 12.7621C12.3319 12.7621 11.9121 12.3337 11.9121 11.8747C11.9121 11.4156 12.3319 11.0386 12.7819 11.0386C13.232 11.0386 13.5304 11.4156 13.5304 11.8747Z" fill="#333333"/>
<path d="M21.4099 11.8748C21.4099 12.3339 20.9724 12.675 20.5223 12.675C20.0722 12.675 19.6626 12.3339 19.6626 11.8748C19.6626 11.4157 20.0722 11.0054 20.5223 11.0054C20.9724 11.0054 21.4099 11.4183 21.4099 11.8748Z" fill="#333333"/>
<path d="M16.3372 12.7467C16.413 12.6979 16.4914 12.6518 16.5749 12.6159L16.4838 12.6543C16.5546 12.6261 16.6254 12.603 16.7013 12.5928L16.6001 12.6056C16.6558 12.5979 16.7114 12.5979 16.767 12.6056L16.6659 12.5928C16.7215 12.6005 16.7746 12.6184 16.8277 12.6389L16.7367 12.6005C16.8151 12.6364 16.8859 12.6825 16.9542 12.7338L16.8783 12.6748L16.8909 12.6851C16.9719 12.7518 17.0502 12.7979 17.159 12.7979C17.2525 12.7979 17.3638 12.7569 17.427 12.6851C17.4902 12.6133 17.5433 12.5158 17.5383 12.4132C17.5332 12.3183 17.5054 12.2029 17.427 12.1414C17.3638 12.0901 17.3006 12.0388 17.2323 11.9978C17.164 11.9567 17.0983 11.9285 17.0275 11.8977C16.9188 11.8541 16.7999 11.8311 16.6811 11.8311C16.4181 11.8311 16.1678 11.9413 15.9503 12.0824C15.8669 12.1363 15.8011 12.2158 15.7758 12.3132C15.7505 12.4055 15.7632 12.5287 15.8138 12.6107C15.9225 12.78 16.1551 12.8646 16.3321 12.7492L16.3372 12.7467Z" fill="#333333"/>
<path d="M15.5888 16.3858C16.2993 16.7166 17.1742 16.7679 17.8898 16.4473C18.5548 16.1498 19.455 15.1496 19.2628 14.3468C19.1111 13.7108 18.3525 13.8878 17.8721 13.9006C17.154 13.9185 16.4359 13.857 15.7177 13.857C15.0654 13.857 14.2056 13.5672 14.2486 14.5751C14.284 15.4009 14.8631 16.0472 15.5913 16.3858H15.5888Z" fill="#FCFCFC"/>
<path d="M15.3966 16.7194C16.4713 17.199 17.7179 17.1759 18.6535 16.4039C19.053 16.0731 19.3893 15.6345 19.5663 15.1395C19.7231 14.701 19.7205 14.1342 19.3741 13.7854C19.0631 13.475 18.5928 13.4699 18.1857 13.4981C17.5915 13.5392 16.9972 13.5084 16.403 13.4879C15.9378 13.4725 15.4674 13.4391 15.0047 13.4366C14.6229 13.434 14.2284 13.5315 14.016 13.8828C13.7252 14.365 13.882 15.0652 14.1222 15.5319C14.3953 16.0603 14.8732 16.4655 15.3992 16.7194C15.8391 16.9297 16.2235 16.268 15.781 16.0551C15.1691 15.7602 14.4939 15.1267 14.6381 14.3599C14.6406 14.3445 14.6735 14.2624 14.6633 14.2804C14.676 14.2547 14.7114 14.2393 14.6987 14.247C14.8075 14.1983 14.8985 14.206 15.03 14.2085C15.3587 14.2137 15.6849 14.2419 16.0136 14.2496C16.5522 14.2598 17.0908 14.2932 17.6294 14.2932C17.9606 14.2932 18.3096 14.2214 18.6383 14.265C19.3362 14.3573 18.5776 15.4191 18.35 15.6499C17.6698 16.3424 16.6533 16.4501 15.781 16.0603C15.5913 15.9756 15.3764 16.0064 15.2626 16.1988C15.1665 16.3603 15.212 16.6424 15.3992 16.7245L15.3966 16.7194Z" fill="#333333"/>
<path d="M11.0755 15.437C11.0755 16.1628 10.8226 16.8476 10.3574 17.3246C9.8921 17.8017 9.21444 18.053 8.50138 18.053C7.78831 18.053 7.11823 17.7965 6.65044 17.3195C6.18518 16.845 5.95508 16.1628 5.95508 15.4396C5.95508 14.7163 6.20288 14.0521 6.67067 13.5776C7.13846 13.1006 7.78831 12.8774 8.5039 12.8774C9.2195 12.8774 9.89969 13.0698 10.3675 13.5468C10.8327 14.0213 11.078 14.7163 11.078 15.4396L11.0755 15.437Z" fill="#EDBBA6"/>
<path d="M27.3366 15.4372C27.3366 16.163 27.1393 16.8631 26.6741 17.3376C26.2088 17.8121 25.5185 18.1173 24.8029 18.1173C24.0873 18.1173 23.4248 17.789 22.957 17.312C22.4893 16.8349 22.2061 16.163 22.2061 15.4372C22.2061 14.7113 22.4893 14.0343 22.9545 13.5598C23.4223 13.0828 24.0873 12.834 24.8029 12.834C25.5185 12.834 26.1127 13.152 26.5805 13.629C27.0483 14.1061 27.334 14.7113 27.334 15.4372H27.3366Z" fill="#EDBBA6"/>
<path d="M26.7401 11.0487C27.5847 11.1795 28.5455 11.118 28.8085 10.3973C28.8692 10.2332 28.8717 10.0305 28.8692 9.85358C28.8616 9.28934 28.763 8.72511 28.6593 8.17626C28.5556 7.62742 28.409 7.07088 28.2042 6.55281C27.9993 6.03474 27.7617 5.50641 27.4481 5.0422C27.1371 4.58312 26.7679 4.14199 26.3532 3.75729C25.9234 3.36232 25.3848 3.09816 24.8917 2.77757C24.3986 2.45698 23.9005 2.17743 23.367 1.92865C22.8334 1.67988 22.3176 1.41315 21.7638 1.23106C21.2101 1.04896 20.6437 0.88995 20.0772 0.769409C19.5007 0.646304 18.9166 0.59501 18.3477 0.528327C17.756 0.45908 17.1618 0.374445 16.565 0.37701C15.9683 0.379575 15.3715 0.438563 14.7798 0.518069C14.1881 0.597574 13.5965 0.697598 13.0199 0.85148C12.5041 0.989973 11.9756 1.1695 11.4471 1.35673C10.9288 1.53882 10.3978 1.71835 9.90723 1.962C9.41668 2.20564 8.94131 2.52623 8.50892 2.85451C8.0209 3.22639 7.58851 3.66496 7.16623 4.11378C6.74396 4.5626 6.35202 5.03707 5.98032 5.52693C5.60356 6.02192 5.25208 6.6118 4.94107 7.2222C4.63005 7.83516 4.31903 8.45325 4.21789 9.07904C4.13192 9.6048 4.21789 10.1921 4.57189 10.5871C5.1206 11.2 6.06376 11.0256 6.85522 10.823C7.43679 10.6743 8.03101 10.5794 8.59995 10.3973C9.17141 10.2152 9.71253 9.9536 10.2739 9.74073C10.8352 9.53043 11.4168 9.37398 11.968 9.13803C12.5193 8.90464 13.0756 8.67638 13.6192 8.42248C14.1629 8.17113 14.6939 7.88645 15.2325 7.62229C15.771 7.35556 16.3198 7.11191 16.8533 6.83749C17.3868 6.56307 17.885 6.21683 18.416 5.93728C18.4741 5.9065 18.555 5.89625 18.6208 5.89368C18.7421 5.88855 18.8762 5.9578 18.9647 6.04243C19.4122 6.47587 19.8219 6.95034 20.2719 7.38121C20.722 7.81208 21.162 8.25833 21.65 8.64304C22.2089 9.08417 22.793 9.51504 23.4074 9.8741C24.0244 10.2332 24.6742 10.564 25.3671 10.7512C25.6882 10.8384 26.2116 10.9641 26.7452 11.0462L26.7401 11.0487Z" fill="#8E816E"/>
<path d="M26.6388 11.4205C27.3847 11.5282 28.3481 11.5821 28.907 10.9588C29.2433 10.5818 29.2685 10.0971 29.2407 9.61237C29.2104 9.05583 29.1118 8.50186 29.003 7.95558C28.7881 6.89123 28.4038 5.80636 27.807 4.89589C27.2128 3.99055 26.4744 3.29039 25.5566 2.73898C24.5932 2.15935 23.6424 1.61051 22.6108 1.15656C21.6094 0.715427 20.5171 0.423051 19.4348 0.274299C18.3324 0.122981 17.2021 -0.0462888 16.087 0.0101346C14.9693 0.066558 13.8289 0.223005 12.7518 0.530769C11.6746 0.838533 10.5923 1.17707 9.61376 1.68232C8.6352 2.18757 7.83363 2.86465 7.09528 3.63406C6.34682 4.41373 5.63628 5.25751 5.07493 6.1885C4.51358 7.11948 3.92189 8.14793 3.81822 9.21997C3.72972 10.1151 4.14946 11.0512 5.04712 11.3179C5.94477 11.5846 6.95874 11.1922 7.8311 10.9973C8.95127 10.7485 9.9703 10.2433 11.0551 9.88167C12.1247 9.52517 13.1766 9.07635 14.1905 8.58136C15.207 8.08381 16.2539 7.61704 17.2425 7.07076C17.4726 6.94252 17.6977 6.80659 17.9227 6.67066C18.0365 6.60398 18.1478 6.53473 18.2616 6.46805C18.3501 6.41676 18.4993 6.28339 18.5979 6.28852C18.7698 6.29622 19.0277 6.65784 19.144 6.77838C19.3463 6.98868 19.5461 7.20412 19.7509 7.41186C21.2605 8.94299 23.0659 10.4818 25.1545 11.0948C25.64 11.2384 26.1407 11.341 26.6413 11.4205C27.1192 11.4974 27.3241 10.7562 26.8436 10.6793C25.8828 10.5254 24.9573 10.2818 24.0925 9.82268C23.1746 9.33539 22.2972 8.73012 21.5159 8.04021C20.7345 7.35031 20.0771 6.6168 19.3564 5.90125C19.0505 5.59605 18.6914 5.41652 18.2692 5.59349C17.8089 5.78584 17.3917 6.10643 16.9593 6.35264C16.0617 6.86045 15.1033 7.26567 14.1829 7.72988C13.2625 8.19409 12.289 8.64292 11.3079 8.98659C10.7971 9.16612 10.2838 9.32513 9.78318 9.5303C9.30275 9.72779 8.82737 9.93809 8.32671 10.0843C7.82605 10.2305 7.31527 10.3177 6.81208 10.4433C6.42015 10.5408 6.02821 10.6408 5.62111 10.6306C4.65013 10.61 4.4352 9.66367 4.65266 8.85322C4.91563 7.8812 5.48204 6.91174 6.04338 6.08847C6.60473 5.26521 7.28493 4.50605 7.99546 3.81359C8.71611 3.11086 9.56066 2.50815 10.4887 2.12345C12.4129 1.32839 14.4763 0.77698 16.5623 0.769286C17.0807 0.769286 17.594 0.830839 18.1099 0.892392C18.6257 0.953944 19.1263 0.99498 19.6295 1.08218C20.6233 1.25145 21.6271 1.54383 22.545 1.97213C23.4755 2.40557 24.3403 2.90825 25.2203 3.43914C26.0673 3.94951 26.7577 4.62403 27.271 5.48321C27.7944 6.36033 28.1155 7.34261 28.3052 8.34541C28.4063 8.8763 28.5074 9.42515 28.4923 9.96887C28.4822 10.3613 28.3052 10.5716 27.9309 10.669C27.582 10.7614 27.1951 10.7357 26.8411 10.6844C26.6363 10.6536 26.4365 10.7357 26.3733 10.9537C26.3227 11.1332 26.4365 11.3974 26.6388 11.4282V11.4205Z" fill="#333333"/>
<path d="M15.7835 32.1023C15.6571 32.3972 15.3335 32.5896 15.0098 32.6588C15.3537 32.5665 15.7026 32.7742 15.781 33.1282C15.8594 33.4821 15.6167 33.8719 15.2677 33.936C15.6015 33.9437 15.8341 34.2695 15.8417 34.608C15.8543 35.1491 15.5206 35.5005 15.0401 35.6646C14.5597 35.8288 13.9933 35.8698 13.6266 35.8673C12.9996 35.8596 12.4028 35.7134 11.93 35.4543C11.4571 35.1927 11.1663 34.7337 11.0171 34.0335C10.9489 33.7103 10.9135 33.3872 10.9236 33.0563C10.9438 32.4049 11.0576 31.6329 11.3585 30.9866C11.6594 30.3403 12.1373 29.8633 12.9186 29.7684C12.9945 29.7581 13.0602 29.7145 13.1336 29.7428C13.4142 29.8505 13.3687 30.2429 13.2651 30.525C13.7379 30.4711 14.2032 30.3608 14.6735 30.3096C14.8909 30.2839 15.1742 30.3172 15.3132 30.4891C15.422 30.625 15.3941 30.8507 15.3132 31.0046C15.2323 31.1585 15.0983 31.3354 14.9643 31.4457C15.1514 31.3252 15.3891 31.2764 15.5711 31.4047C15.7532 31.5329 15.8063 31.756 15.7608 31.974C15.7532 32.0125 15.8038 32.0638 15.7886 32.0997L15.7835 32.1023Z" fill="#FFE6D9"/>
<path d="M15.4573 31.9099C15.3435 32.1381 15.1463 32.2304 14.9111 32.2894C14.4332 32.4074 14.638 33.1281 15.1134 33.0306C15.4876 32.9537 15.5003 33.4795 15.169 33.5667C14.7265 33.6795 14.8656 34.2796 15.2702 34.3232C15.4598 34.3438 15.48 34.6207 15.4573 34.7644C15.4244 34.9567 15.3056 35.1003 15.1488 35.2004C14.772 35.4414 14.2208 35.4748 13.7884 35.485C12.8806 35.5056 11.8186 35.2722 11.4874 34.3079C11.1561 33.341 11.2674 32.1073 11.6897 31.184C11.849 30.8352 12.0715 30.5198 12.4078 30.33C12.4963 30.2787 12.5873 30.2428 12.6859 30.2146C12.7846 30.1864 12.9413 30.1915 13.0248 30.1453C13.1436 30.1325 13.1234 30.1069 12.9641 30.071C12.9742 30.0966 12.9767 30.1223 12.9691 30.1505C12.9363 30.2351 12.9312 30.3428 12.9034 30.43C12.8301 30.648 13.0298 30.9455 13.2701 30.9173C13.7404 30.8609 14.2082 30.7404 14.6785 30.7019C14.7442 30.6968 14.8226 30.6865 14.8884 30.6968C14.9035 30.6968 15.035 30.7634 15.0097 30.7096C15.0755 30.8481 14.7746 31.1174 14.6987 31.184C14.37 31.4816 14.7897 31.9971 15.1589 31.7893C15.4851 31.6047 15.384 31.9996 15.4244 32.2151C15.5154 32.6998 16.2462 32.4946 16.1552 32.0099C16.1451 31.9304 16.14 31.9278 16.14 32.0099L16.1527 31.9073C16.1552 31.8201 16.1527 31.7303 16.135 31.6431C16.0945 31.461 16.006 31.2969 15.872 31.1712C15.5534 30.8763 15.126 30.925 14.7746 31.1251L15.2348 31.7303C15.6874 31.32 16.0692 30.4839 15.3966 30.0735C15.1159 29.9017 14.7796 29.9196 14.4686 29.9632C14.0666 30.0171 13.6721 30.1043 13.2701 30.153L13.6367 30.6403C13.7859 30.2018 13.7834 29.5401 13.2422 29.3836C13.0197 29.3195 12.7036 29.4144 12.4862 29.4785C12.2536 29.5478 12.031 29.6555 11.8363 29.7991C10.9311 30.4634 10.6454 31.7124 10.5695 32.7819C10.4937 33.8411 10.7111 35.1593 11.6821 35.7569C12.6581 36.357 14.0843 36.4237 15.1513 36.0467C15.6798 35.8595 16.1173 35.4748 16.2083 34.8926C16.3145 34.236 15.9478 33.6308 15.2778 33.559C15.3106 33.8103 15.346 34.0616 15.3789 34.3155C15.9251 34.1745 16.2917 33.6 16.1577 33.0332C16.0212 32.4587 15.4623 32.1868 14.9212 32.2971L15.1235 33.0383C15.5382 32.9357 15.9251 32.7023 16.1223 32.3048C16.3423 31.8637 15.6899 31.4739 15.4674 31.9175L15.4573 31.9099Z" fill="#333333"/>
<path d="M31.3674 27.2089C31.4028 27.291 31.4306 27.3756 31.4534 27.4628C31.4635 27.5064 31.4736 27.55 31.4812 27.5936C31.4863 27.6141 31.4888 27.6372 31.4913 27.6603C31.4863 27.6141 31.4863 27.6116 31.4913 27.6577C31.4964 27.7347 31.5014 27.8116 31.5014 27.8911C31.5014 27.9347 31.4989 27.9809 31.4964 28.0245C31.4964 28.0424 31.4761 28.1835 31.4913 28.0886C31.466 28.2553 31.423 28.4195 31.3649 28.5785C31.3573 28.599 31.3497 28.6195 31.3396 28.6426C31.3548 28.6041 31.3573 28.6041 31.3396 28.6426C31.3194 28.6836 31.3017 28.7247 31.2814 28.7657C31.241 28.8452 31.1955 28.9221 31.1474 28.9991C31.0387 29.1683 31.1095 29.4325 31.284 29.5248C31.4736 29.6274 31.686 29.5684 31.8023 29.3863C32.2423 28.7016 32.4193 27.7808 32.1007 27.0089C32.0249 26.8242 31.8453 26.6703 31.6329 26.7396C31.4584 26.796 31.2865 27.014 31.3674 27.214V27.2089Z" fill="#333333"/>
<path d="M26.9904 29.2966C27.1244 29.8968 27.2559 30.4995 27.4607 31.0817C27.6681 31.6741 27.9412 32.2384 28.2117 32.8052C28.3002 32.9924 28.5632 33.0411 28.7301 32.9437C28.9172 32.8308 28.9551 32.6051 28.8666 32.4179C28.6163 31.8921 28.3609 31.3689 28.1713 30.8175C27.9791 30.2558 27.8527 29.6737 27.7237 29.094C27.615 28.6119 26.8842 28.8145 26.9929 29.2992L26.9904 29.2966Z" fill="#333333"/>
<path d="M8.70618 31.7025C8.53171 33.0515 8.4508 34.6801 9.31305 35.8214C9.43695 35.9855 9.63924 36.0727 9.83141 35.9599C9.99071 35.865 10.0919 35.5982 9.96795 35.4341C9.18409 34.398 9.30799 32.9233 9.46476 31.705C9.49258 31.4998 9.27259 31.3203 9.08547 31.3203C8.8579 31.3203 8.734 31.4973 8.70618 31.705V31.7025Z" fill="#333333"/>
<path d="M32.7809 29.2506C33.6052 29.1917 33.6052 29.2045 34.4295 29.1455C35.2539 29.0865 35.2463 28.9762 36.0681 28.9172C36.8924 28.8582 36.8974 28.9403 37.7218 28.8813C38.5461 28.8223 38.541 28.7454 39.3654 28.6864C40.1897 28.6274 40.1947 28.6787 41.0191 28.6197C41.3655 28.5941 41.6411 28.2991 41.6183 27.9478C41.5602 27.1014 41.4995 27.104 41.4413 26.2576C41.3832 25.4113 41.3781 25.4113 41.32 24.5649C41.2618 23.7186 41.3276 23.7135 41.2694 22.8671C41.2112 22.0208 41.1404 22.0259 41.0798 21.177C41.0216 20.328 41.0848 20.3255 41.0241 19.4766C40.966 18.6277 40.9938 18.6277 40.9356 17.7787C40.9103 17.4274 40.5715 17.2017 40.2251 17.2248C39.4008 17.2838 39.3957 17.1966 38.5714 17.2555C37.7471 17.3145 37.7496 17.335 36.9253 17.394C36.1009 17.453 36.106 17.53 35.2817 17.589C34.4574 17.6479 34.4548 17.6172 33.6305 17.6761C32.8062 17.7351 32.8037 17.7146 31.9793 17.7736C31.6329 17.7993 31.4433 18.107 31.4686 18.4584C31.5267 19.3047 31.4787 19.3099 31.5368 20.1562C31.595 21.0026 31.5874 21.0051 31.6456 21.8515C31.7037 22.6978 31.7315 22.6953 31.7922 23.5416C31.8529 24.388 31.82 24.3905 31.8782 25.2395C31.9363 26.0884 31.9515 26.0858 32.0097 26.9347C32.0678 27.7836 32.0198 27.7862 32.0779 28.6351C32.1032 28.9865 32.4319 29.2814 32.7784 29.2558L32.7809 29.2506Z" fill="#FCFCFC"/>
<path d="M32.7808 29.6349C33.499 29.5836 34.2272 29.5785 34.9377 29.4759C35.5977 29.381 36.2248 29.2708 36.8974 29.2836C37.57 29.299 38.2173 29.2066 38.8798 29.1169C39.5929 29.0194 40.3085 29.0758 41.0215 29.0015C41.3806 28.9656 41.6992 28.7912 41.8813 28.4629C42.076 28.1089 41.9875 27.6755 41.9369 27.2934C41.8534 26.6214 41.8003 25.952 41.7523 25.2775C41.7017 24.5799 41.6992 23.8874 41.6689 23.1898C41.6385 22.4333 41.4868 21.6946 41.4463 20.9406C41.4084 20.2353 41.3983 19.5249 41.368 18.8196C41.3401 18.1528 41.4565 17.2833 40.751 16.9422C40.4071 16.7755 40.0278 16.8576 39.6612 16.8576C39.335 16.8576 39.0138 16.8397 38.6902 16.8576C37.9695 16.8986 37.2362 16.9576 36.5181 17.0397C35.848 17.1166 35.1956 17.2141 34.518 17.2372C33.858 17.2603 33.2006 17.309 32.5431 17.3449C32.1942 17.3628 31.7972 17.3372 31.4938 17.5449C31.1524 17.7809 31.074 18.181 31.0943 18.5734C31.1322 19.2915 31.1474 20.0096 31.1929 20.7303C31.2384 21.4741 31.294 22.2153 31.3623 22.959C31.4407 23.7926 31.4508 24.6312 31.5115 25.4647C31.5671 26.2367 31.6506 27.0036 31.6607 27.7781C31.6657 28.1679 31.6253 28.6321 31.782 28.9912C31.9565 29.3913 32.3459 29.6324 32.7733 29.6349C33.2613 29.6349 33.2613 28.8681 32.7733 28.8655C32.3813 28.8655 32.4344 28.409 32.4243 28.1243C32.4142 27.8371 32.4167 27.5473 32.4041 27.26C32.3712 26.5829 32.2979 25.911 32.2524 25.2339C32.2094 24.5927 32.1993 23.949 32.1487 23.3078C32.0981 22.6513 32.0273 21.9998 31.9869 21.3433C31.9464 20.7175 31.8908 20.0917 31.8807 19.4659C31.8756 19.2043 31.8731 18.9453 31.8579 18.6837C31.8503 18.5554 31.7896 18.3092 31.8958 18.2015C32.002 18.0938 32.2549 18.1323 32.3838 18.1246C33.6077 18.0528 34.8619 18.0656 36.0756 17.8758C37.2691 17.6911 38.4879 17.627 39.694 17.6244C39.9165 17.6244 40.3894 17.4911 40.531 17.727C40.6094 17.8578 40.574 18.1246 40.5816 18.2759C40.5891 18.4118 40.5917 18.5477 40.5967 18.6862C40.6195 19.3223 40.6574 19.9532 40.6675 20.5918C40.6776 21.2304 40.7788 21.8229 40.8471 22.4435C40.9204 23.1103 40.8875 23.7746 40.9255 24.4414C40.9659 25.1236 41.0139 25.8058 41.0721 26.4855C41.0949 26.7471 41.1303 27.0061 41.1657 27.2652C41.196 27.5011 41.3553 28.0064 41.1353 28.1756C40.9254 28.3398 40.3869 28.2603 40.1239 28.2654C39.7471 28.2705 39.3704 28.2885 38.9936 28.3321C38.3084 28.409 37.6433 28.5296 36.948 28.5167C36.2526 28.5039 35.6154 28.5757 34.9478 28.6988C34.2373 28.8296 33.4888 28.8142 32.7682 28.8655C32.2827 28.8989 32.2802 29.6683 32.7682 29.6349H32.7808Z" fill="#333333"/>
<path d="M38.4461 23.3389C38.4461 24.4997 37.522 25.4165 36.4118 25.4165C35.3016 25.4165 34.3774 24.4997 34.3774 23.3389C34.3774 22.178 35.3016 21.2612 36.4118 21.2612C37.522 21.2612 38.4461 22.178 38.4461 23.3389Z" stroke="#FD780F" stroke-width="2"/>
</g>
<defs>
<clipPath id="clip0_4_13673">
<rect width="42" height="55" fill="white"/>
</clipPath>
</defs>
</svg>
