<svg width="320" height="540" viewBox="0 0 320 540" fill="none" xmlns="http://www.w3.org/2000/svg">
<g clip-path="url(#clip0_40_1279)">
<path d="M249.073 402.868L241.261 416.601V443.877L255.418 452.206L256.766 451.411L256.981 424.751L264.581 411.989L249.073 402.868Z" fill="#FD780F" stroke="#333333" stroke-width="1.5" stroke-miterlimit="10" stroke-linejoin="round"/>
<path d="M247.725 402.072L239.909 415.809V443.085L255.418 452.206V424.931L263.234 411.193L247.725 402.072Z" fill="#FD780F" stroke="#333333" stroke-width="1.5" stroke-miterlimit="10" stroke-linejoin="round"/>
<path d="M239.909 415.809L247.725 402.072L263.234 411.193L255.418 424.931L239.909 415.809Z" fill="#FD780F" stroke="#333333" stroke-width="1.5" stroke-miterlimit="10" stroke-linejoin="round"/>
<path d="M245.42 410.907C245.048 410.704 244.66 410.52 244.261 410.363L241.388 415.415L255.022 423.435L259.159 416.161C256.424 415.14 253.275 415.178 250.567 413.997C248.731 413.197 247.179 411.866 245.424 410.907H245.42Z" fill="#3DC181" stroke="#333333" stroke-width="1.5" stroke-miterlimit="10" stroke-linejoin="round"/>
<path d="M248.124 403.567L244.257 410.363C244.656 410.52 245.048 410.704 245.417 410.906C247.176 411.866 248.724 413.193 250.559 413.996C253.267 415.178 256.413 415.14 259.151 416.161L261.755 411.583L248.121 403.563L248.124 403.567Z" fill="#B3E2FF" stroke="#333333" stroke-width="1.5" stroke-miterlimit="10" stroke-linejoin="round"/>
<path d="M242.429 415.14L243.792 412.761L247.967 415.22L246.604 417.599L242.429 415.14Z" fill="white" stroke="#333333" stroke-width="1.5" stroke-miterlimit="10" stroke-linejoin="round"/>
<path d="M244.396 411.69L245.759 409.311L249.934 411.77L248.574 414.149L244.396 411.69Z" fill="white" stroke="#333333" stroke-width="1.5" stroke-miterlimit="10" stroke-linejoin="round"/>
<path d="M246.361 408.241L247.725 405.862L251.903 408.321L250.54 410.7L246.361 408.241Z" fill="white" stroke="#333333" stroke-width="1.5" stroke-miterlimit="10" stroke-linejoin="round"/>
<path d="M256.767 451.411L262.985 447.793V441.712L256.817 445.364L256.767 451.411Z" fill="#FD780F" stroke="#333333" stroke-width="1.5" stroke-linecap="round" stroke-linejoin="round"/>
<path d="M262.985 441.712L256.874 438.121L256.816 445.364L262.985 441.712Z" fill="#FD780F" stroke="#333333" stroke-width="1.5" stroke-linecap="round" stroke-linejoin="round"/>
<path d="M244.347 429.13L243.558 427.261C243.539 427.215 243.567 427.179 243.604 427.201L251.738 431.897C251.792 431.928 251.825 432.006 251.806 432.059L251.703 432.349C251.693 432.376 251.677 432.398 251.656 432.412L246.108 436.001C246.08 436.018 246.094 436.076 246.13 436.097L249.258 437.903C249.311 437.934 249.364 437.936 249.404 437.911L249.938 437.574C249.96 437.56 249.992 437.58 250.007 437.613L250.789 439.467C250.807 439.512 250.781 439.547 250.743 439.526L242.606 434.828C242.552 434.797 242.519 434.718 242.538 434.666L242.639 434.386C242.649 434.358 242.665 434.337 242.686 434.324L248.261 430.739C248.288 430.721 248.275 430.663 248.238 430.642L245.131 428.848C245.078 428.818 245.025 428.815 244.985 428.84L244.416 429.17C244.395 429.184 244.362 429.164 244.348 429.131L244.347 429.13Z" fill="white"/>
<path d="M131.132 475.235V498.728C131.132 498.785 131.124 498.843 131.124 498.904C131.124 501.868 135.533 504.27 140.968 504.27C146.402 504.27 150.811 501.868 150.811 498.904V475.235H131.128H131.132Z" fill="#FD780F" stroke="#191919" stroke-width="1.5" stroke-miterlimit="10"/>
<mask id="mask0_40_1279" style="mask-type:luminance" maskUnits="userSpaceOnUse" x="131" y="475" width="20" height="30">
<path d="M131.132 475.235V498.728C131.132 498.785 131.124 498.843 131.124 498.904C131.124 501.868 135.533 504.27 140.968 504.27C146.402 504.27 150.811 501.868 150.811 498.904V475.235H131.128H131.132Z" fill="white"/>
</mask>
<g mask="url(#mask0_40_1279)">
<path d="M132.576 504.27V475.881" stroke="#FFA47D" stroke-width="1.5" stroke-miterlimit="10"/>
<path d="M134.673 504.27V475.881" stroke="#FFA47D" stroke-width="1.5" stroke-miterlimit="10"/>
<path d="M136.773 504.27V475.881" stroke="#FFA47D" stroke-width="1.5" stroke-miterlimit="10"/>
<path d="M138.871 504.27V475.881" stroke="#FFA47D" stroke-width="1.5" stroke-miterlimit="10"/>
<path d="M140.968 504.27V475.881" stroke="#FFA47D" stroke-width="1.5" stroke-miterlimit="10"/>
<path d="M143.068 504.27V475.881" stroke="#FFA47D" stroke-width="1.5" stroke-miterlimit="10"/>
<path d="M145.166 504.27V475.881" stroke="#FFA47D" stroke-width="1.5" stroke-miterlimit="10"/>
<path d="M147.267 504.27V475.881" stroke="#FFA47D" stroke-width="1.5" stroke-miterlimit="10"/>
<path d="M149.363 504.27V475.881" stroke="#FFA47D" stroke-width="1.5" stroke-miterlimit="10"/>
<path d="M131.132 475.235V498.728C131.132 498.785 131.124 498.843 131.124 498.904C131.124 501.868 135.533 504.27 140.968 504.27C146.402 504.27 150.811 501.868 150.811 498.904V475.235H131.128H131.132Z" stroke="#191919" stroke-width="1.5" stroke-miterlimit="10"/>
</g>
<path d="M140.968 480.601C146.404 480.601 150.811 478.198 150.811 475.235C150.811 472.272 146.404 469.869 140.968 469.869C135.531 469.869 131.124 472.272 131.124 475.235C131.124 478.198 135.531 480.601 140.968 480.601Z" fill="#FD780F" stroke="#191919" stroke-width="1.5" stroke-miterlimit="10"/>
<path d="M140.968 479.518C145.804 479.518 149.724 477.6 149.724 475.235C149.724 472.869 145.804 470.952 140.968 470.952C136.131 470.952 132.211 472.869 132.211 475.235C132.211 477.6 136.131 479.518 140.968 479.518Z" fill="#FD780F" stroke="#191919" stroke-width="1.5" stroke-miterlimit="10"/>
<mask id="mask1_40_1279" style="mask-type:luminance" maskUnits="userSpaceOnUse" x="125" y="455" width="36" height="25">
<path d="M140.968 479.514C135.806 479.514 132.211 477.257 132.211 475.231C129.492 475.231 114.809 457.864 140.968 455.416C173.441 455.979 158.355 475.93 149.725 475.231C149.725 477.254 146.13 479.514 140.968 479.514Z" fill="white"/>
</mask>
<g mask="url(#mask1_40_1279)">
<path d="M137.37 463.647C137.35 463.398 137.193 463.184 137.001 463.039C135.902 462.216 134.405 462.147 133.083 462.224C131.762 462.3 130.187 462.415 128.97 462.947C128.471 463.165 128.098 463.582 127.86 464.063C127.66 464.48 127.526 464.928 127.453 465.383C127.318 466.213 127.349 467.242 127.96 467.892C128.248 468.201 128.647 468.362 129.066 468.397C129.197 468.408 129.331 468.412 129.462 468.416C130.817 468.458 134.097 468.186 135.384 467.811C135.422 467.8 135.465 467.788 135.503 467.777C135.795 467.685 136.098 467.892 136.121 468.198L138.149 493.611C138.184 494.051 138.568 494.38 139.01 494.341C139.451 494.307 139.778 493.921 139.743 493.485L137.362 463.647H137.37Z" fill="#363944" stroke="#191919" stroke-width="1.5" stroke-miterlimit="10"/>
<path d="M139.885 470.003C139.866 469.754 139.709 469.54 139.516 469.395C138.418 468.573 136.92 468.504 135.599 468.58C134.278 468.657 132.703 468.771 131.486 469.303C130.986 469.521 130.614 469.938 130.376 470.42C130.176 470.837 130.041 471.284 129.969 471.739C129.834 472.569 129.865 473.598 130.475 474.248C130.764 474.558 131.163 474.718 131.582 474.753C131.712 474.764 131.847 474.768 131.977 474.772C133.333 474.814 136.613 474.542 137.9 474.168C137.938 474.156 137.98 474.145 138.019 474.133C138.31 474.041 138.614 474.248 138.637 474.554L140.665 499.967C140.699 500.407 141.083 500.736 141.525 500.697C141.967 500.663 142.293 500.277 142.259 499.841L139.877 470.003H139.885Z" fill="#363944" stroke="#191919" stroke-width="1.5" stroke-miterlimit="10"/>
<path d="M134.404 465.023C134.424 464.798 134.562 464.603 134.739 464.473C135.737 463.727 137.093 463.666 138.287 463.734C139.474 463.803 140.911 463.907 142.013 464.388C142.466 464.587 142.804 464.962 143.019 465.402C143.203 465.777 143.322 466.186 143.388 466.599C143.507 467.349 143.48 468.282 142.931 468.874C142.67 469.154 142.309 469.303 141.928 469.33C141.809 469.337 141.69 469.345 141.567 469.349C140.342 469.387 137.369 469.142 136.202 468.802C136.167 468.79 136.129 468.779 136.094 468.771C135.829 468.691 135.557 468.874 135.534 469.15L133.694 492.173C133.663 492.57 133.314 492.869 132.914 492.834C132.515 492.804 132.215 492.456 132.25 492.058L134.408 465.023H134.404Z" fill="#EAE8E8" stroke="#191919" stroke-width="1.5" stroke-linecap="round" stroke-linejoin="round"/>
<path d="M140.223 464.553C140.189 464.331 140.277 464.109 140.419 463.937C141.21 462.977 142.516 462.603 143.695 462.392C144.874 462.182 146.288 461.949 147.471 462.159C147.958 462.247 148.373 462.53 148.684 462.909C148.949 463.23 149.164 463.601 149.326 463.983C149.621 464.683 149.814 465.597 149.418 466.301C149.23 466.633 148.911 466.863 148.55 466.978C148.435 467.016 148.319 467.05 148.204 467.081C147.021 467.402 144.072 467.861 142.858 467.804C142.82 467.804 142.781 467.804 142.747 467.796C142.47 467.777 142.247 468.022 142.29 468.297L145.931 491.106C145.992 491.5 145.723 491.871 145.328 491.932C144.932 491.993 144.559 491.725 144.498 491.331L140.223 464.549V464.553Z" fill="#363944" stroke="#191919" stroke-width="1.5" stroke-miterlimit="10"/>
<path d="M145.216 470.053C145.235 469.827 145.373 469.632 145.55 469.502C146.549 468.756 147.904 468.695 149.099 468.764C150.286 468.833 151.722 468.936 152.824 469.418C153.278 469.617 153.616 469.991 153.831 470.431C154.015 470.806 154.134 471.215 154.199 471.628C154.318 472.378 154.291 473.311 153.742 473.904C153.481 474.183 153.12 474.332 152.74 474.359C152.621 474.366 152.502 474.374 152.379 474.378C151.154 474.416 148.181 474.171 147.013 473.831C146.979 473.82 146.94 473.808 146.906 473.8C146.641 473.72 146.368 473.904 146.345 474.179L144.505 497.202C144.475 497.6 144.125 497.898 143.726 497.864C143.326 497.833 143.027 497.485 143.061 497.087L145.22 470.053H145.216Z" fill="#EAE8E8" stroke="#191919" stroke-width="1.5" stroke-linecap="round" stroke-linejoin="round"/>
</g>
<path d="M182.08 502.403V511.352L181.039 510.736V501.787L182.08 502.403Z" fill="#E5E5E5" stroke="#333333" stroke-width="1.5" stroke-linecap="round" stroke-linejoin="round"/>
<path d="M182.08 502.403V511.352L183.125 510.736V501.787L182.08 502.403Z" fill="#E5E5E5" stroke="#333333" stroke-width="1.5" stroke-linecap="round" stroke-linejoin="round"/>
<path d="M233.088 490.861V499.81L232.043 499.198V490.249L233.088 490.861Z" fill="#E5E5E5" stroke="#333333" stroke-width="1.5" stroke-linecap="round" stroke-linejoin="round"/>
<path d="M233.088 490.861V499.81L234.129 499.198V490.249L233.088 490.861Z" fill="#E5E5E5" stroke="#333333" stroke-width="1.5" stroke-linecap="round" stroke-linejoin="round"/>
<path d="M181.027 500.564L217.479 479.227L234.129 489.022L197.711 510.373L181.027 500.564Z" fill="white" stroke="#333333" stroke-width="1.5" stroke-linecap="round" stroke-linejoin="round"/>
<path d="M181.027 500.564V501.787L197.711 511.601V510.373L181.027 500.564Z" fill="white" stroke="#333333" stroke-width="1.5" stroke-linecap="round" stroke-linejoin="round"/>
<path d="M197.711 510.373V511.601L234.128 490.249V489.021L197.711 510.373Z" fill="white" stroke="#333333" stroke-width="1.5" stroke-linecap="round" stroke-linejoin="round"/>
<path d="M197.712 511.601V520.55L196.667 519.938V510.989L197.712 511.601Z" fill="#E5E5E5" stroke="#333333" stroke-width="1.5" stroke-linecap="round" stroke-linejoin="round"/>
<path d="M197.711 511.601V520.55L198.752 519.938V510.989L197.711 511.601Z" fill="#E5E5E5" stroke="#333333" stroke-width="1.5" stroke-linecap="round" stroke-linejoin="round"/>
<path d="M213.638 482.553H207.856L208.457 488.909C208.457 489.252 208.68 489.592 209.132 489.852C210.029 490.369 211.479 490.369 212.371 489.852C212.82 489.592 213.04 489.249 213.037 488.909L213.638 482.553Z" fill="#F2F2F2" stroke="#333333" stroke-width="1.5" stroke-linecap="round" stroke-linejoin="round"/>
<path d="M213.886 481.795V482.618C213.886 483.081 213.58 483.542 212.974 483.893C211.753 484.602 209.766 484.605 208.534 483.893C207.916 483.536 207.605 483.067 207.607 482.598V481.775C207.607 482.244 207.916 482.713 208.534 483.07C209.763 483.779 211.75 483.779 212.974 483.07C213.58 482.718 213.886 482.256 213.886 481.795Z" fill="#F2F2F2" stroke="#333333" stroke-width="1.5" stroke-linecap="round" stroke-linejoin="round"/>
<path d="M212.959 480.501C214.189 481.21 214.195 482.362 212.974 483.07C211.753 483.779 209.766 483.782 208.533 483.07C207.304 482.362 207.298 481.21 208.519 480.498C209.74 479.787 211.727 479.79 212.959 480.498V480.501Z" fill="#F2F2F2" stroke="#333333" stroke-width="1.5" stroke-linecap="round" stroke-linejoin="round"/>
<path d="M208.522 485.119C208.288 484.982 208.096 484.831 207.95 484.671L208.282 487.377C208.411 487.58 208.614 487.771 208.897 487.937C209.803 488.46 211.198 488.523 212.216 488.126L212.368 485.399C211.158 485.817 209.571 485.725 208.525 485.122L208.522 485.119Z" fill="#FD780F" stroke="#333333" stroke-width="1.5" stroke-linecap="round" stroke-linejoin="round"/>
<path d="M212.982 485.119C212.793 485.228 212.585 485.319 212.364 485.396L212.213 488.123C212.353 488.068 212.485 488.006 212.607 487.934C212.882 487.774 213.082 487.585 213.208 487.388L213.54 484.682C213.397 484.839 213.211 484.988 212.982 485.119Z" fill="#FD780F" stroke="#333333" stroke-width="1.5" stroke-linecap="round" stroke-linejoin="round"/>
<path d="M212.067 480.913C212.067 480.913 212.27 480.984 212.471 481.136L212.067 480.913Z" fill="#F2F2F2"/>
<path d="M212.067 480.913C212.067 480.913 212.27 480.984 212.471 481.136" stroke="#333333" stroke-width="1.5" stroke-linecap="round" stroke-linejoin="round"/>
<path d="M209.39 486.352L209.212 486.069C209.208 486.062 209.213 486.054 209.222 486.055L211.013 486.313C211.025 486.314 211.033 486.326 211.029 486.337L211.007 486.398C211.005 486.403 211.002 486.408 210.997 486.413L209.795 487.475C209.789 487.48 209.792 487.49 209.8 487.491L210.489 487.59C210.501 487.592 210.513 487.588 210.521 487.581L210.637 487.48C210.642 487.476 210.649 487.477 210.652 487.482L210.829 487.763C210.833 487.769 210.827 487.778 210.819 487.777L209.026 487.519C209.014 487.517 209.007 487.505 209.011 487.494L209.032 487.436C209.034 487.43 209.038 487.425 209.042 487.421L210.25 486.357C210.256 486.352 210.253 486.343 210.245 486.341L209.56 486.243C209.549 486.241 209.537 486.245 209.528 486.252L209.405 486.354C209.4 486.358 209.393 486.357 209.39 486.352L209.39 486.352Z" fill="white"/>
<path d="M200.043 517.726L245.116 491.451L265.218 503.376L220.146 529.656L200.043 517.726Z" fill="#546184" stroke="#333333" stroke-width="1.5" stroke-linecap="round" stroke-linejoin="round"/>
<path d="M275.355 516.889L275.428 497.928L294.783 486.648L294.709 505.575L275.355 516.889Z" fill="#546184" stroke="#333333" stroke-width="1.5" stroke-linecap="round" stroke-linejoin="round"/>
<path d="M294.783 486.648L270.017 471.951L250.666 483.231L275.428 497.928L294.783 486.648Z" fill="#546184" stroke="#333333" stroke-width="1.5" stroke-linecap="round" stroke-linejoin="round"/>
<path d="M250.666 483.231L250.593 502.192L275.355 516.889L275.428 497.928L250.666 483.231Z" fill="#546184" stroke="#333333" stroke-width="1.5" stroke-linecap="round" stroke-linejoin="round"/>
<path d="M275.896 500.198L275.903 498.534L298.599 485.305L298.592 486.927L275.896 500.198Z" fill="#546184" stroke="#333333" stroke-width="1.5" stroke-linecap="round" stroke-linejoin="round"/>
<path d="M298.598 485.305L269.556 468.071L246.864 481.3L275.902 498.534L298.598 485.305Z" fill="#546184" stroke="#333333" stroke-width="1.5" stroke-linecap="round" stroke-linejoin="round"/>
<path d="M246.863 481.3L246.857 482.964L275.895 500.198L275.902 498.534L246.863 481.3Z" fill="#546184" stroke="#333333" stroke-width="1.5" stroke-linecap="round" stroke-linejoin="round"/>
<path d="M275.43 497.423L267.138 502.256L245.124 489.194L253.415 484.358L275.43 497.423Z" fill="#546184" stroke="#333333" stroke-width="1.5" stroke-linecap="round" stroke-linejoin="round"/>
<path d="M211.854 534.489L275.43 497.423L275.355 516.889L211.779 553.958L211.854 534.489Z" fill="#546184" stroke="#333333" stroke-width="1.5" stroke-linecap="round" stroke-linejoin="round"/>
<path d="M245.124 489.195L245.115 491.451L265.218 503.377L267.138 502.256L245.124 489.195Z" fill="#546184" stroke="#333333" stroke-width="1.5" stroke-linecap="round" stroke-linejoin="round"/>
<path d="M264.521 479.907L260.75 498.468L236.499 512.605L240.27 494.044L264.521 479.907Z" fill="#546184" stroke="#333333" stroke-width="1.5" stroke-linecap="round" stroke-linejoin="round"/>
<path d="M268.828 482.463L265.058 501.02L240.803 515.161L244.573 496.6L268.828 482.463Z" fill="#546184" stroke="#333333" stroke-width="1.5" stroke-linecap="round" stroke-linejoin="round"/>
<path d="M240.27 494.044L236.5 512.605L240.803 515.161L244.573 496.6L240.27 494.044Z" fill="#546184" stroke="#333333" stroke-width="1.5" stroke-linecap="round" stroke-linejoin="round"/>
<path d="M240.27 494.044L264.521 479.907L268.828 482.463L244.573 496.6L240.27 494.044Z" fill="#546184" stroke="#333333" stroke-width="1.5" stroke-linecap="round" stroke-linejoin="round"/>
<path d="M240.27 494.044L236.499 512.605L212.244 526.745L216.015 508.185L240.27 494.044Z" fill="#546184" stroke="#333333" stroke-width="1.5" stroke-linecap="round" stroke-linejoin="round"/>
<path d="M244.573 496.6L240.803 515.161L216.552 529.302L220.322 510.741L244.573 496.6Z" fill="#546184" stroke="#333333" stroke-width="1.5" stroke-linecap="round" stroke-linejoin="round"/>
<path d="M216.015 508.185L212.245 526.746L216.552 529.302L220.322 510.741L216.015 508.185Z" fill="#546184" stroke="#333333" stroke-width="1.5" stroke-linecap="round" stroke-linejoin="round"/>
<path d="M216.015 508.185L240.27 494.044L244.574 496.6L220.322 510.741L216.015 508.185Z" fill="#546184" stroke="#333333" stroke-width="1.5" stroke-linecap="round" stroke-linejoin="round"/>
<path d="M211.778 553.959L211.854 534.489L187.084 519.795L187.009 539.261L211.778 553.959Z" fill="#546184" stroke="#333333" stroke-width="1.5" stroke-linecap="round" stroke-linejoin="round"/>
<path d="M187.084 519.795L195.379 514.959L220.145 529.656L211.853 534.489L187.084 519.795Z" fill="#546184" stroke="#333333" stroke-width="1.5" stroke-linecap="round" stroke-linejoin="round"/>
<path d="M220.145 529.656L218.06 528.42L265.058 501.02L267.138 502.256L220.145 529.656Z" fill="#546184" stroke="#333333" stroke-width="1.5" stroke-linecap="round" stroke-linejoin="round"/>
<path d="M211.832 540.061L187.062 525.363" stroke="#333333" stroke-width="1.5" stroke-linecap="round" stroke-linejoin="round"/>
<path d="M275.409 502.991L211.832 540.061" stroke="#333333" stroke-width="1.5" stroke-linecap="round" stroke-linejoin="round"/>
<path d="M220.146 529.656L220.124 535.224" stroke="#333333" stroke-width="1.5" stroke-linecap="round" stroke-linejoin="round"/>
<path d="M267.139 502.256L267.117 507.946" stroke="#333333" stroke-width="1.5" stroke-linecap="round" stroke-linejoin="round"/>
</g>
<defs>
<clipPath id="clip0_40_1279">
<rect width="320" height="540" rx="16" fill="white"/>
</clipPath>
</defs>
</svg>
