<svg width="320" height="540" viewBox="0 0 320 540" fill="none" xmlns="http://www.w3.org/2000/svg">
<path d="M160.092 372.829C154.322 372.402 146.09 375.44 138.473 381.321C130.856 387.203 125.835 394.398 124.792 400.093L122.35 401.978L126.261 407.052L126.276 407.033C130.735 412.018 142.834 409.408 153.685 401.024C164.54 392.637 170.117 381.592 166.423 376.024L166.438 376.006L162.532 370.948L160.089 372.833L160.092 372.829Z" fill="#F9BF1C" stroke="#333333" stroke-width="1.5" stroke-miterlimit="10"/>
<path d="M162.54 370.941C158.34 365.503 145.938 368.044 134.84 376.616C123.742 385.189 118.151 396.547 122.352 401.985C126.553 407.423 138.955 404.882 150.052 396.31C161.15 387.737 166.741 376.379 162.54 370.941Z" fill="#F9BF1C" stroke="#333333" stroke-width="1.5" stroke-miterlimit="10"/>
<path d="M159.92 372.966C163.459 377.552 158.048 387.326 148.695 394.553C139.334 401.779 128.401 404.631 124.862 400.045C121.32 395.463 126.673 385.388 136.026 378.162C145.38 370.936 156.374 368.381 159.913 372.966L159.92 372.966Z" fill="#FAE400" stroke="#333333" stroke-width="1.5" stroke-miterlimit="10"/>
<path d="M128.573 404.814L132.069 409.346" stroke="#333333" stroke-width="1.5" stroke-miterlimit="10"/>
<path d="M135.023 404.075L138.612 408.72" stroke="#333333" stroke-width="1.5" stroke-miterlimit="10"/>
<path d="M140.684 402.029L144.25 406.643" stroke="#333333" stroke-width="1.5" stroke-miterlimit="10"/>
<path d="M146.632 398.738L150.245 403.414" stroke="#333333" stroke-width="1.5" stroke-miterlimit="10"/>
<path d="M151.778 394.761L155.508 399.582" stroke="#333333" stroke-width="1.5" stroke-miterlimit="10"/>
<path d="M156.221 390.52L160.014 395.423" stroke="#333333" stroke-width="1.5" stroke-miterlimit="10"/>
<path d="M159.688 386.382L163.41 391.197" stroke="#333333" stroke-width="1.5" stroke-miterlimit="10"/>
<path d="M162.299 382.293L165.717 386.719" stroke="#333333" stroke-width="1.5" stroke-miterlimit="10"/>
<path d="M163.733 377.54L167.205 382.035" stroke="#333333" stroke-width="1.5" stroke-miterlimit="10"/>
</svg>
