<svg width="320" height="540" viewBox="0 0 320 540" fill="none" xmlns="http://www.w3.org/2000/svg">
<g clip-path="url(#clip0_40_1074)">
<g clip-path="url(#clip1_40_1074)">
<path d="M348.262 471.216L287.357 506.465C278.222 511.753 263.358 511.753 254.164 506.465L134.864 437.872L161.832 422.259L260.507 478.997C266.097 482.211 275.128 482.211 280.689 478.997L321.11 455.603L348.254 471.216H348.262Z" fill="#FD780F" stroke="#333333" stroke-width="1.5" stroke-linecap="round" stroke-linejoin="round"/>
<path d="M287.356 506.473C278.222 511.76 263.357 511.76 254.164 506.473L134.864 437.872L134.738 482.836L254.031 551.429C263.232 556.717 278.096 556.717 287.223 551.429L348.129 516.18L348.254 471.216L287.349 506.465L287.356 506.473Z" fill="#FE9A4B" stroke="#333333" stroke-width="1.5" stroke-linecap="round" stroke-linejoin="round"/>
<path d="M325.998 484.101L299.393 468.179" stroke="#333333" stroke-width="1.5" stroke-linecap="round" stroke-linejoin="round"/>
<path d="M300.33 487.683L300.308 494.132L285.717 485.741L285.732 481.115L300.33 487.683Z" fill="#DCD7DD" stroke="#333333" stroke-width="1.5" stroke-linecap="round" stroke-linejoin="round"/>
<path d="M300.33 487.683L312.506 480.63L312.492 487.079L300.308 494.132L300.33 487.683Z" fill="#DCD7DD" stroke="#333333" stroke-width="1.5" stroke-linecap="round" stroke-linejoin="round"/>
<path d="M285.731 481.115L297.915 474.062L312.507 480.63L300.33 487.683L285.731 481.115Z" fill="#DCD7DD" stroke="#333333" stroke-width="1.5" stroke-linecap="round" stroke-linejoin="round"/>
<path d="M303.078 485.895L300.855 484.608L300.848 482.204L303.07 483.491L303.078 485.895Z" fill="#DCD7DD" stroke="#333333" stroke-width="1.5" stroke-linecap="round" stroke-linejoin="round"/>
<path d="M315.726 457.56C317.543 456.515 319.02 457.354 319.027 459.435L319.057 470.525C319.057 472.599 317.594 475.136 315.778 476.181L309.767 479.637V482.042L303.07 485.895V483.491L297.059 486.94C295.242 487.984 293.765 487.146 293.758 485.072L293.729 473.982C293.729 471.9 295.191 469.37 297.007 468.319L315.719 457.56H315.726Z" fill="#DCD7DD" stroke="#333333" stroke-width="1.5" stroke-linecap="round" stroke-linejoin="round"/>
<path d="M294.792 467.039L313.504 456.28C314.42 455.758 315.247 455.706 315.845 456.052L318.067 457.339C317.469 456.993 316.642 457.045 315.727 457.567L297.015 468.326C295.198 469.37 293.729 471.9 293.736 473.982L293.766 485.072C293.766 486.101 294.135 486.829 294.726 487.168L292.503 485.881C291.912 485.542 291.551 484.814 291.543 483.785L291.514 472.695C291.514 470.613 292.976 468.083 294.792 467.039Z" fill="#DCD7DD" stroke="#333333" stroke-width="1.5" stroke-linecap="round" stroke-linejoin="round"/>
<path d="M235.12 460.251V460.715C235.12 461.81 234.397 462.899 232.95 463.737C230.04 465.421 225.314 465.421 222.39 463.737C220.921 462.891 220.182 461.781 220.19 460.67V460.207C220.19 461.318 220.921 462.428 222.397 463.274C225.322 464.958 230.047 464.958 232.957 463.274C234.404 462.435 235.12 461.347 235.128 460.251H235.12Z" fill="#AAA9A9"/>
<path d="M232.912 457.185C235.837 458.869 235.851 461.59 232.949 463.274C230.04 464.958 225.314 464.958 222.39 463.274C219.466 461.59 219.451 458.861 222.353 457.185C225.262 455.5 229.988 455.5 232.912 457.185Z" fill="#B6A294"/>
<path d="M235.12 460.678H220.189L221.74 477.034C221.74 477.916 222.316 478.791 223.483 479.461C225.801 480.792 229.545 480.792 231.849 479.461C233.009 478.791 233.577 477.909 233.57 477.034L235.12 460.678Z" fill="#F2F2F2" stroke="#333333" stroke-width="1.5" stroke-linecap="round" stroke-linejoin="round"/>
<path d="M235.763 458.729V460.847C235.763 462.038 234.973 463.222 233.407 464.127C230.254 465.951 225.122 465.958 221.939 464.127C220.344 463.208 219.54 462.002 219.547 460.795V458.677C219.547 459.884 220.344 461.09 221.939 462.009C225.115 463.833 230.247 463.833 233.407 462.009C234.973 461.104 235.763 459.913 235.763 458.729Z" fill="#F2F2F2" stroke="#333333" stroke-width="1.5" stroke-linecap="round" stroke-linejoin="round"/>
<path d="M233.37 455.397C236.546 457.221 236.56 460.185 233.407 462.009C230.254 463.833 225.122 463.84 221.939 462.009C218.764 460.185 218.749 457.221 221.903 455.39C225.056 453.559 230.188 453.566 233.37 455.39V455.397Z" fill="#F2F2F2" stroke="#333333" stroke-width="1.5" stroke-linecap="round" stroke-linejoin="round"/>
<path d="M221.909 467.282C221.304 466.929 220.809 466.539 220.433 466.127L221.289 473.092C221.621 473.614 222.146 474.107 222.877 474.533C225.218 475.879 228.821 476.041 231.45 475.019L231.841 468.003C228.718 469.076 224.619 468.841 221.917 467.289L221.909 467.282Z" fill="#FD780F" stroke="#333333" stroke-width="1.5" stroke-linecap="round" stroke-linejoin="round"/>
<path d="M233.429 467.282C232.941 467.561 232.402 467.797 231.834 467.995L231.442 475.011C231.804 474.871 232.144 474.71 232.461 474.526C233.17 474.114 233.687 473.629 234.012 473.121L234.869 466.157C234.499 466.561 234.019 466.944 233.429 467.282Z" fill="#FD780F" stroke="#333333" stroke-width="1.5" stroke-linecap="round" stroke-linejoin="round"/>
<path d="M231.066 456.456C231.066 456.456 231.591 456.64 232.108 457.03L231.066 456.456Z" fill="#F2F2F2"/>
<path d="M231.066 456.456C231.066 456.456 231.591 456.64 232.108 457.03" stroke="#333333" stroke-width="1.5" stroke-linecap="round" stroke-linejoin="round"/>
<path d="M257.619 473.026V473.489C257.619 474.585 256.896 475.673 255.449 476.511C252.539 478.196 247.813 478.196 244.889 476.511C243.42 475.666 242.681 474.555 242.689 473.445V472.981C242.689 474.092 243.42 475.202 244.896 476.048C247.821 477.732 252.547 477.732 255.456 476.048C256.903 475.21 257.619 474.121 257.627 473.026H257.619Z" fill="#AAA9A9"/>
<path d="M255.419 469.959C258.343 471.643 258.358 474.364 255.456 476.048C252.547 477.732 247.821 477.732 244.897 476.048C241.973 474.364 241.958 471.636 244.86 469.959C247.769 468.275 252.495 468.275 255.419 469.959Z" fill="#B6A294"/>
<path d="M257.619 473.452H242.688L244.239 489.808C244.239 490.69 244.815 491.566 245.982 492.235C248.301 493.566 252.044 493.566 254.348 492.235C255.508 491.566 256.076 490.683 256.069 489.808L257.619 473.452Z" fill="#F2F2F2" stroke="#333333" stroke-width="1.5" stroke-linecap="round" stroke-linejoin="round"/>
<path d="M258.263 471.503V473.621C258.263 474.813 257.473 475.997 255.907 476.901C252.754 478.725 247.622 478.732 244.439 476.901C242.844 475.982 242.04 474.776 242.047 473.57V471.452C242.047 472.658 242.844 473.864 244.439 474.783C247.615 476.607 252.747 476.607 255.907 474.783C257.473 473.879 258.263 472.687 258.263 471.503Z" fill="#F2F2F2" stroke="#333333" stroke-width="1.5" stroke-linecap="round" stroke-linejoin="round"/>
<path d="M255.87 468.172C259.045 469.996 259.06 472.959 255.907 474.783C252.754 476.607 247.622 476.614 244.439 474.783C241.257 472.952 241.249 469.996 244.402 468.164C247.555 466.341 252.688 466.341 255.87 468.164V468.172Z" fill="#F2F2F2" stroke="#333333" stroke-width="1.5" stroke-linecap="round" stroke-linejoin="round"/>
<path d="M244.409 480.056C243.804 479.703 243.309 479.313 242.933 478.902L243.789 485.866C244.121 486.388 244.646 486.881 245.377 487.307C247.718 488.653 251.321 488.815 253.95 487.793L254.341 480.777C251.218 481.851 247.119 481.615 244.417 480.064L244.409 480.056Z" fill="#FD780F" stroke="#333333" stroke-width="1.5" stroke-linecap="round" stroke-linejoin="round"/>
<path d="M255.937 480.056C255.449 480.336 254.91 480.571 254.342 480.77L253.95 487.786C254.312 487.646 254.652 487.484 254.969 487.3C255.678 486.888 256.195 486.403 256.52 485.895L257.376 478.931C257.007 479.336 256.527 479.718 255.937 480.056Z" fill="#FD780F" stroke="#333333" stroke-width="1.5" stroke-linecap="round" stroke-linejoin="round"/>
<path d="M253.565 469.231C253.565 469.231 254.09 469.415 254.607 469.804L253.565 469.231Z" fill="#F2F2F2"/>
<path d="M253.565 469.231C253.565 469.231 254.09 469.415 254.607 469.804" stroke="#333333" stroke-width="1.5" stroke-linecap="round" stroke-linejoin="round"/>
<path d="M192.084 447.242L160.856 429.165L172.029 422.745L203.257 440.814L192.084 447.242Z" fill="#CCCCCC" stroke="#333333" stroke-width="1.5" stroke-linecap="round" stroke-linejoin="round"/>
<path d="M203.19 416.096L203.22 426.694L192.047 433.114L192.084 447.242L203.257 440.814L203.271 445.675L182.403 457.677L182.322 428.098L203.19 416.096Z" fill="#E6E6E6" stroke="#333333" stroke-width="1.5" stroke-linecap="round" stroke-linejoin="round"/>
<path d="M182.404 457.677L151.176 439.601L151.095 410.022L182.323 428.098L182.404 457.677Z" fill="#CCCCCC" stroke="#333333" stroke-width="1.5" stroke-linecap="round" stroke-linejoin="round"/>
<path d="M182.323 428.099L151.095 410.022L171.963 398.027L203.191 416.096L182.323 428.099Z" fill="#CCCCCC" stroke="#333333" stroke-width="1.5" stroke-linecap="round" stroke-linejoin="round"/>
<path d="M193.694 492.339L192.335 489.712C192.302 489.648 192.331 489.595 192.383 489.624L203.748 495.901C203.823 495.943 203.881 496.052 203.866 496.128L203.785 496.548C203.777 496.587 203.76 496.619 203.735 496.64L197.217 502.052C197.184 502.078 197.212 502.16 197.263 502.188L201.634 504.602C201.707 504.643 201.777 504.644 201.824 504.606L202.453 504.096C202.478 504.076 202.524 504.102 202.548 504.149L203.896 506.753C203.928 506.817 203.9 506.869 203.848 506.84L192.479 500.561C192.403 500.519 192.346 500.409 192.361 500.334L192.44 499.928C192.448 499.889 192.465 499.857 192.49 499.837L199.044 494.43C199.076 494.403 199.048 494.321 198.997 494.293L194.656 491.895C194.582 491.855 194.512 491.853 194.465 491.891L193.79 492.392C193.765 492.412 193.719 492.386 193.694 492.339L193.694 492.339ZM173.558 486.513L170.125 484.872V480.523L172.786 481.993V480.252L168.323 477.787V485.704L173.558 488.231V486.513V486.513ZM171.799 484.157L173.73 485.223V488.996L175.532 489.992V481.526L173.73 480.531V483.482L171.799 482.415V484.157ZM176.047 490.131L183.513 494.255V492.561L176.047 488.438V490.131ZM176.261 486.913C177.958 487.804 179.105 487.618 179.776 486.96C180.447 488.359 181.594 489.812 183.298 490.799V489.18C181.597 488.095 180.681 486.223 180.681 485.202V484.418L178.879 483.423V484.207C178.879 485.227 177.963 486.087 176.261 485.294V486.913ZM183.77 490.962L185.443 491.886L185.306 492.419C184.685 492.195 184.201 492.546 184.201 493.309C184.201 494.146 184.782 495.148 185.5 495.545L189.912 497.982C190.633 498.38 191.215 498.017 191.215 497.178C191.215 496.339 190.633 495.332 189.912 494.935L186.949 493.298L187.075 492.787L189.091 493.9V492.497L183.77 489.559V490.962L183.77 490.962ZM183.95 487.834C183.95 488.678 184.554 489.702 185.294 490.111L187.38 491.263C188.121 491.672 188.733 491.32 188.733 490.476C188.733 489.631 188.121 488.576 187.38 488.167L185.294 487.015C184.553 486.606 183.95 486.962 183.95 487.834ZM185.468 488.639C185.468 488.457 185.573 488.379 185.703 488.45L187.012 489.173C187.141 489.244 187.246 489.439 187.246 489.621C187.246 489.803 187.141 489.873 187.012 489.802L185.703 489.079C185.573 489.007 185.468 488.822 185.468 488.639ZM185.848 494.166C185.848 494.03 185.929 493.993 186.026 494.046L189.372 495.895C189.477 495.952 189.55 496.074 189.55 496.21C189.55 496.346 189.477 496.388 189.372 496.33L186.026 494.481C185.929 494.428 185.848 494.302 185.848 494.166ZM189.306 494.406L191.151 495.425V490.153L189.306 489.134V494.406ZM205.01 499.597L206.083 500.19V500.673C206.083 502.905 205.832 503.896 204.924 504.078V505.942C205.765 506.005 206.388 505.729 206.808 505.014C207.229 506.194 207.86 507.162 208.7 508.027V506.163C207.793 504.978 207.542 503.71 207.542 501.478V500.996L208.614 501.588V500.04L205.01 498.049V499.597ZM207.971 504.135L209.086 504.751V508.524L210.502 509.306V500.841L209.086 500.059V503.203L207.971 502.587V504.135ZM210.846 509.496L212.305 510.302V501.836L210.846 501.031V509.496ZM212.819 510.441L220.286 514.564V512.968L212.819 508.845V510.441ZM213.12 503.883L220.071 507.722V506.271L213.12 502.432V503.883ZM220.071 510.044L214.922 507.2V506.668L220.071 509.512V508.109L213.12 504.27V507.753L220.071 511.592V510.044Z" fill="white"/>
<path d="M246.307 482.96L245.848 482.232C245.837 482.214 245.852 482.192 245.873 482.195L250.5 482.859C250.531 482.863 250.551 482.894 250.54 482.922L250.484 483.077C250.479 483.092 250.47 483.105 250.458 483.116L247.354 485.85C247.339 485.863 247.347 485.888 247.368 485.891L249.147 486.146C249.177 486.15 249.207 486.141 249.229 486.122L249.528 485.863C249.54 485.852 249.559 485.855 249.567 485.868L250.023 486.59C250.034 486.607 250.019 486.629 249.998 486.626L245.369 485.962C245.338 485.958 245.318 485.927 245.329 485.899L245.384 485.749C245.389 485.734 245.398 485.721 245.41 485.711L248.529 482.974C248.544 482.96 248.536 482.936 248.515 482.933L246.748 482.679C246.718 482.675 246.687 482.684 246.665 482.703L246.346 482.966C246.334 482.976 246.316 482.973 246.308 482.96L246.307 482.96Z" fill="white"/>
<path d="M224.149 470.454L223.689 469.726C223.678 469.708 223.693 469.686 223.715 469.689L228.342 470.353C228.373 470.357 228.392 470.388 228.382 470.416L228.326 470.571C228.321 470.586 228.312 470.599 228.3 470.61L225.196 473.344C225.181 473.357 225.189 473.382 225.209 473.385L226.989 473.64C227.019 473.644 227.049 473.635 227.071 473.616L227.37 473.356C227.382 473.346 227.401 473.349 227.409 473.362L227.865 474.084C227.876 474.101 227.861 474.123 227.84 474.12L223.21 473.456C223.18 473.452 223.16 473.421 223.171 473.393L223.225 473.243C223.231 473.228 223.24 473.215 223.251 473.205L226.371 470.468C226.386 470.454 226.378 470.43 226.357 470.427L224.589 470.173C224.559 470.169 224.529 470.177 224.507 470.197L224.188 470.46C224.176 470.47 224.158 470.467 224.149 470.454L224.149 470.454Z" fill="white"/>
</g>
</g>
<defs>
<clipPath id="clip0_40_1074">
<rect width="320" height="540" fill="white"/>
</clipPath>
<clipPath id="clip1_40_1074">
<rect width="215" height="209" fill="white" transform="translate(134 347.136)"/>
</clipPath>
</defs>
</svg>
