<svg width="65" height="107" viewBox="0 0 65 107" fill="none" xmlns="http://www.w3.org/2000/svg">
<g clip-path="url(#clip0_4_16717)">
<path d="M7.75169 27.7095C7.52923 28.853 7.17822 29.9622 6.79755 31.0762C6.41689 32.1903 6.03128 33.2749 5.51219 34.335C4.99804 35.3804 4.45918 36.4208 3.80661 37.4073C3.16392 38.379 2.40259 39.2723 1.63631 40.1753C1.47317 40.3716 1.42868 40.6121 1.49789 40.8428C1.57699 41.1029 1.8044 41.3237 2.10102 41.4072C3.2628 41.7262 4.46412 41.9127 5.65556 42.1286C6.84699 42.3446 8.03348 42.536 9.23975 42.6439C10.446 42.7519 11.6523 42.8942 12.8586 42.8991C14.0648 42.904 15.2661 42.6685 16.4724 42.5703C17.6787 42.4722 18.8652 42.2857 20.0517 42.0844" fill="#C67D71"/>
<path d="M7.03488 27.513C6.58006 29.7755 5.79895 32.0871 4.77066 34.1582C4.2664 35.1741 3.73742 36.1802 3.09968 37.1225C2.46194 38.0648 1.71544 38.8403 1.04804 39.7237C0.449847 40.5138 0.756358 41.5886 1.64128 42.0107C2.60531 42.4671 3.85113 42.5506 4.89425 42.737C7.28701 43.1591 9.69954 43.5125 12.1319 43.6155C13.4765 43.6744 14.7767 43.4732 16.1066 43.3407C17.4365 43.2082 18.8701 43.0266 20.2445 42.7959C21.1838 42.634 20.7834 41.2156 19.849 41.3776C18.7663 41.5641 17.6836 41.7309 16.5861 41.8291C15.5035 41.9273 14.4257 42.1138 13.3381 42.1579C11.1827 42.2463 8.92338 41.942 6.79758 41.5886C5.77423 41.4168 4.74594 41.2402 3.72259 41.034C3.46552 40.9801 3.2035 40.9261 2.94642 40.8672C2.81294 40.8377 2.3779 40.7985 2.28891 40.7003C2.16037 40.5531 2.3779 40.4353 2.51138 40.2782C2.67946 40.0819 2.84261 39.8856 3.00575 39.6844C4.27134 38.1482 5.27492 36.4943 6.14007 34.7128C7.17825 32.5877 7.98902 30.227 8.45373 27.9106C8.64159 26.983 7.21285 26.5904 7.02499 27.5179L7.03488 27.513Z" fill="#333333"/>
<path d="M57.5103 27.7241C57.7328 28.8676 57.9651 30.0308 58.3458 31.1449C58.7215 32.2491 59.1615 33.3485 59.6855 34.4086C60.1997 35.4539 60.8078 36.4747 61.4554 37.4612C62.0981 38.433 62.9187 39.2918 63.685 40.1899C63.8482 40.3863 63.9124 40.612 63.8432 40.8476C63.7641 41.1077 63.5268 41.3138 63.2302 41.3924C62.0684 41.7114 60.8819 41.9469 59.6905 42.1629C58.504 42.3788 57.2928 42.4132 56.0865 42.5212C54.8852 42.634 53.6839 42.7371 52.4776 42.742C51.2713 42.7469 50.0651 42.6831 48.8637 42.585C47.6624 42.4868 46.4759 42.2758 45.2894 42.0745" fill="#C67D71"/>
<path d="M56.7934 27.9204C57.5646 31.9104 59.112 35.8514 61.7124 39.0316C61.9942 39.3752 62.2859 39.704 62.5776 40.0377C62.6863 40.1604 63.0472 40.4402 63.0769 40.5825C63.1016 40.7052 63.1412 40.5678 63.0324 40.6807C62.9681 40.7494 62.6616 40.7788 62.5677 40.8033C61.5147 41.0733 60.4419 41.2892 59.374 41.4708C58.3062 41.6524 57.184 41.6868 56.0865 41.7849C55.0038 41.8782 53.9261 41.9763 52.8384 42.0009C50.3616 42.0499 47.9194 41.7849 45.4822 41.3628C44.5478 41.2009 44.1474 42.6192 45.0867 42.7812C47.4547 43.1885 49.8228 43.4732 52.2304 43.4732C53.4366 43.4732 54.638 43.3799 55.8393 43.272C57.0258 43.164 58.2222 43.1149 59.4037 42.9431C60.5951 42.7665 61.7866 42.5162 62.9533 42.2168C63.8629 41.9861 64.8517 41.407 64.56 40.2978C64.4414 39.8463 64.0656 39.4979 63.7641 39.1543C63.3785 38.7126 62.983 38.2709 62.6171 37.8096C61.9299 36.9409 61.3565 35.9642 60.8226 34.9974C59.5224 32.6417 58.7264 30.1485 58.2172 27.5228C58.0392 26.5952 56.6056 26.9879 56.7885 27.9154L56.7934 27.9204Z" fill="#333333"/>
<path d="M24.9262 102.858C25.119 102.936 25.3415 102.985 25.5491 102.985C26.7554 102.985 27.9617 102.907 29.1729 102.902C30.3841 102.897 31.5755 102.858 32.7818 102.853C32.8609 102.053 33.0092 100.86 32.9993 99.6725C32.9894 98.421 32.851 97.1597 32.9252 96.4481C31.5261 96.4383 30.1567 96.6346 28.8219 96.6641C27.4525 96.6984 26.0979 96.507 24.7334 96.5217C23.3689 96.5364 22.0984 96.7229 20.6993 96.6641C20.6894 97.4493 20.5411 99.7216 20.5214 100.816C21.9402 100.924 23.3245 101.493 24.3626 102.465C24.5258 102.617 24.7235 102.769 24.9361 102.858H24.9262Z" fill="#FFE6D9"/>
<path d="M24.7285 103.569C25.3465 103.775 25.9941 103.721 26.6368 103.702C27.319 103.682 28.0062 103.653 28.6884 103.643C30.0529 103.618 31.4174 103.599 32.7818 103.589C33.2119 103.589 33.4838 103.25 33.5234 102.853C33.6371 101.753 33.7508 100.659 33.7409 99.5547C33.7261 98.5241 33.5877 97.4787 33.6668 96.4481C33.6964 96.0506 33.3009 95.7119 32.9252 95.7119C30.8637 95.7119 28.8417 95.9868 26.7752 95.8641C25.7568 95.8052 24.7532 95.7659 23.7348 95.8248C22.7214 95.8788 21.7129 95.9622 20.6994 95.9328C20.294 95.918 19.9677 96.2812 19.9578 96.6689C19.9282 98.0529 19.8095 99.4369 19.7799 100.821C19.77 101.248 20.1309 101.523 20.5214 101.557C21.3025 101.631 22.0688 101.847 22.756 102.225C23.4086 102.578 23.893 103.177 24.5555 103.501C25.4108 103.913 26.1622 102.647 25.302 102.229C24.9114 102.038 24.6148 101.704 24.2638 101.449C23.9128 101.194 23.5371 100.958 23.1366 100.777C22.2962 100.389 21.4311 100.178 20.5165 100.09L21.258 100.826C21.2877 99.4418 21.4063 98.0578 21.436 96.6738L20.6945 97.41C21.6733 97.4395 22.6423 97.3658 23.6211 97.3119C24.6791 97.253 25.7173 97.2824 26.7752 97.3462C28.8417 97.4689 30.8637 97.199 32.9252 97.1941L32.1837 96.4579C32.1046 97.4885 32.2479 98.529 32.2578 99.5645C32.2726 100.669 32.154 101.763 32.0403 102.863L32.7818 102.126C31.4965 102.131 30.2161 102.161 28.9307 102.175C28.288 102.185 27.6453 102.21 26.9977 102.229C26.3896 102.249 25.7074 102.357 25.124 102.161C24.2193 101.861 23.8288 103.28 24.7285 103.579V103.569Z" fill="#333333"/>
<path d="M25.5492 102.823C25.3415 102.823 25.1784 102.789 24.9856 102.71C24.7779 102.627 24.5307 102.607 24.3676 102.45C23.3344 101.479 21.9847 100.904 20.5659 100.796C20.5659 100.909 20.6005 100.968 20.6005 101.052C20.5906 101.675 20.4769 102.347 20.1803 102.843C19.7798 103.52 19.0383 103.697 18.4351 104.031C17.832 104.364 17.1547 105.13 17.2486 105.964C18.3313 106.038 19.4783 105.891 20.5659 105.94C21.6535 105.989 22.7312 106.156 23.8189 106.17C24.9065 106.185 25.9891 106.107 27.0768 106.097C28.1644 106.087 29.252 106.239 30.3396 106.205C30.8389 106.19 31.4075 106.112 31.8277 105.763C32.4605 105.238 32.5791 104.114 32.7274 103.157C32.7423 103.064 32.7769 103.079 32.7868 102.975C31.5805 102.975 30.3841 102.872 29.1729 102.877C27.9617 102.882 26.7604 102.818 25.5492 102.823Z" fill="#FCFCFC"/>
<path d="M25.5492 102.087C24.689 102.038 24.0117 101.164 23.2553 100.791C22.405 100.374 21.5102 100.149 20.5659 100.06C20.2001 100.026 19.7799 100.428 19.8244 100.796C19.8936 101.351 19.8441 102.067 19.4981 102.539C19.1965 102.951 18.6379 103.098 18.2028 103.324C17.219 103.834 16.4527 104.831 16.5071 105.969C16.5269 106.381 16.8334 106.681 17.2487 106.705C18.0644 106.749 18.8752 106.696 19.6859 106.676C20.5264 106.656 21.3569 106.73 22.1924 106.803C23.9474 106.965 25.6728 106.803 27.4278 106.838C28.8565 106.862 30.6659 107.304 31.976 106.548C33.2861 105.792 33.1378 104.379 33.4987 103.167C33.6371 102.705 33.2564 102.234 32.7818 102.234C30.3693 102.229 27.9617 102.077 25.5492 102.077C24.595 102.077 24.595 103.55 25.5492 103.55C27.9617 103.55 30.3742 103.697 32.7818 103.707L32.065 102.774C31.7783 103.741 31.9859 105.262 30.6758 105.444C29.9936 105.537 29.2718 105.459 28.5896 105.415C27.8134 105.37 27.0422 105.351 26.2611 105.375C24.7335 105.424 23.2504 105.419 21.7277 105.282C20.205 105.145 18.7466 105.307 17.2487 105.228L17.9902 105.964C17.9309 104.752 19.33 104.541 20.1061 103.977C21.0702 103.275 21.4508 101.93 21.3075 100.791L20.5659 101.528C21.5102 101.616 22.4149 101.93 23.2009 102.455C23.5816 102.71 23.8831 103.064 24.3034 103.25C24.6989 103.422 25.1191 103.53 25.5442 103.555C26.4984 103.613 26.4934 102.141 25.5442 102.082L25.5492 102.087Z" fill="#333333"/>
<path d="M19.9281 75.9631C19.9874 77.7594 19.9281 77.7594 19.9874 79.5556C20.0467 81.3519 20.0764 81.3519 20.1357 83.1481C20.1951 84.9444 20.1011 84.9493 20.1605 86.7456C20.2198 88.5418 20.2297 88.5418 20.289 90.3381C20.3483 92.1343 20.3187 92.1392 20.378 93.9355C20.4373 95.7318 20.4818 95.7318 20.5411 97.528C20.556 97.9255 20.9168 98.3231 21.3222 98.3231C23.1712 98.3231 23.1712 98.2102 25.0152 98.2102C26.8592 98.2102 26.8641 98.1709 28.7131 98.1709C30.562 98.1709 30.562 98.3525 32.411 98.3525C32.8213 98.3525 33.0883 97.9108 33.0883 97.5035C33.0883 95.6729 33.1476 95.6729 33.1476 93.8423C33.1476 92.0116 33.1624 92.0116 33.1624 90.181C33.1624 88.3504 33.0537 88.3504 33.0537 86.5198C33.0537 84.6892 33.0438 84.6892 33.0438 82.8586C33.0438 81.028 33.197 81.028 33.197 79.1974C33.197 77.3667 33.1525 77.3667 33.1525 75.5361" fill="#FCFCFC"/>
<path d="M19.1866 75.9631C19.2509 77.8869 19.2509 79.8059 19.3399 81.7297C19.4338 83.7321 19.3843 85.7345 19.4585 87.7369C19.5228 89.5577 19.5722 91.3834 19.6216 93.2042C19.6513 94.1956 19.7007 95.1869 19.7502 96.1783C19.7996 97.1697 19.6464 98.4948 20.8032 98.9512C21.614 99.2702 22.7461 99.0248 23.6112 98.9807C24.6346 98.9267 25.6629 98.9512 26.6912 98.9316C27.7195 98.912 28.7033 98.8825 29.7019 98.9316C30.6016 98.9758 31.5113 99.1475 32.416 99.0886C33.7508 99.0052 33.8249 97.7292 33.8398 96.6936C33.8497 95.8544 33.8892 95.0152 33.8942 94.1759C33.904 92.2374 33.9683 90.289 33.8546 88.3504C33.731 86.1958 33.7063 83.9677 33.8151 81.8132C33.8645 80.758 33.9535 79.7224 33.9436 78.6624C33.9337 77.6023 33.8991 76.5765 33.8991 75.5361C33.8991 74.5889 32.416 74.5889 32.416 75.5361C32.416 77.3274 32.5396 79.1237 32.3962 80.9101C32.2528 82.6966 32.3171 84.3603 32.3171 86.083C32.3171 87.9381 32.4358 89.7884 32.4209 91.6484C32.411 93.3318 32.3764 95.0152 32.3567 96.6985C32.3567 96.89 32.4358 97.3415 32.3567 97.5083C32.2627 97.6997 32.2627 97.631 31.976 97.6212C31.5459 97.6016 31.1207 97.5869 30.6906 97.5476C29.7612 97.4593 28.8367 97.4396 27.9024 97.4494C26.182 97.4642 24.4566 97.4789 22.7362 97.5672C22.5384 97.577 22.3357 97.5869 22.138 97.5918C21.9946 97.5918 21.4656 97.685 21.3519 97.6065C21.1394 97.4544 21.2432 96.4679 21.2284 96.1881C21.1789 95.29 21.1344 94.3968 21.1048 93.4987C21.0504 91.7466 21.0158 89.9945 20.9515 88.2424C20.8724 86.1664 20.9218 84.0904 20.8279 82.0193C20.7389 80.0022 20.7241 77.99 20.6598 75.9729C20.6302 75.0257 19.147 75.0257 19.1767 75.9729L19.1866 75.9631Z" fill="#333333"/>
<path d="M40.6325 102.745C40.4446 102.823 40.237 102.765 40.0343 102.769C38.828 102.769 37.6218 102.927 36.4155 102.927C35.2092 102.927 34.0524 102.779 32.8461 102.784C32.7621 101.984 32.767 100.86 32.767 99.6677C32.767 98.4163 32.6731 97.1108 32.594 96.3991C33.9931 96.3844 35.3921 96.4482 36.7269 96.4728C38.0617 96.4973 39.446 96.566 40.8154 96.5709C42.1502 96.5758 43.5641 96.4237 44.9632 96.355C44.9829 97.1402 45.0027 99.6089 45.0324 100.703C43.6135 100.821 42.2244 101.39 41.1961 102.372C41.0329 102.529 40.8451 102.657 40.6374 102.745H40.6325Z" fill="#FFE6D9"/>
<path d="M40.4346 102.038C40.1627 102.092 39.8265 102.038 39.5497 102.043C39.2283 102.053 38.907 102.073 38.5857 102.092C37.943 102.132 37.3003 102.181 36.6527 102.19C35.3821 102.21 34.1165 102.058 32.8411 102.053L33.5826 102.789C33.375 100.669 33.548 98.5292 33.3305 96.4041L32.5889 97.1403C34.6455 97.1207 36.7071 97.2041 38.7636 97.2679C40.8449 97.3317 42.8818 97.1992 44.9581 97.0961L44.2166 96.36C44.2462 97.8078 44.2462 99.2605 44.2858 100.708L45.0273 99.9721C44.1078 100.065 43.2426 100.276 42.4022 100.669C42.0018 100.856 41.631 101.081 41.275 101.346C40.9191 101.611 40.6423 101.93 40.2566 102.112C39.3964 102.519 40.1479 103.79 41.0031 103.383C41.6656 103.069 42.1402 102.475 42.7878 102.122C43.475 101.744 44.2462 101.523 45.0273 101.444C45.4179 101.405 45.7788 101.14 45.7689 100.708C45.7343 99.2605 45.7343 97.8078 45.6997 96.36C45.6898 95.9772 45.3684 95.6042 44.9581 95.6238C42.8818 95.7318 40.8449 95.8594 38.7636 95.7956C36.7071 95.7318 34.6455 95.6483 32.5889 95.668C32.2182 95.668 31.8078 96.0017 31.8474 96.4041C32.0649 98.5292 31.8919 100.669 32.0995 102.789C32.1391 103.187 32.406 103.525 32.8411 103.525C34.1956 103.53 35.5403 103.697 36.8949 103.658C37.5376 103.638 38.1803 103.584 38.8279 103.55C39.4755 103.516 40.1874 103.594 40.8301 103.457C41.7645 103.265 41.369 101.842 40.4346 102.038Z" fill="#333333"/>
<path d="M40.0342 102.784C40.2418 102.784 40.4297 102.794 40.6225 102.715C40.8301 102.632 41.0822 102.583 41.2454 102.426C42.2737 101.449 43.5838 100.831 45.0026 100.713C45.0026 100.826 44.9285 100.89 44.9334 100.973C44.9482 101.596 45.0718 102.288 45.3684 102.779C45.7738 103.451 46.5253 103.658 47.1284 103.986C47.7315 104.315 48.3297 104.885 48.2457 105.724C47.163 105.802 46.1298 105.876 45.0422 105.925C43.9595 105.979 42.8719 105.989 41.7842 106.013C40.6966 106.038 39.614 106.259 38.5263 106.259C37.4387 106.259 36.356 106.087 35.2684 106.057C34.7691 106.043 34.1709 106.141 33.7458 105.792C33.108 105.272 32.9548 104.124 32.8065 103.167C32.7916 103.074 32.8065 103 32.7916 102.892C33.9979 102.892 35.2042 102.769 36.4104 102.764C37.6167 102.759 38.823 102.784 40.0342 102.779V102.784Z" fill="#FCFCFC"/>
<path d="M40.0342 103.521C40.489 103.521 40.9141 103.427 41.3245 103.236C41.7348 103.044 42.0314 102.691 42.4022 102.431C43.1734 101.891 44.0682 101.548 45.0026 101.454C44.7653 101.145 44.528 100.831 44.2858 100.522C44.0237 101.587 44.3846 103.02 45.235 103.756C45.937 104.365 47.5486 104.595 47.4992 105.729L48.2407 104.993C46.7477 105.101 45.2547 105.199 43.7617 105.243C42.2391 105.282 40.7461 105.405 39.2283 105.508C37.7897 105.606 36.3659 105.327 34.9273 105.332C34.2846 105.332 34.0325 105.16 33.8347 104.541C33.6716 104.021 33.5579 103.447 33.5332 102.907L32.7916 103.643C33.9979 103.633 35.2042 103.525 36.4104 103.516C37.6167 103.506 38.823 103.53 40.0342 103.53C40.9883 103.53 40.9883 102.058 40.0342 102.058C38.8279 102.058 37.6216 102.033 36.4104 102.043C35.2042 102.053 33.9979 102.161 32.7916 102.171C32.406 102.171 32.0303 102.505 32.0501 102.907C32.1044 104.055 32.3368 105.621 33.3008 106.387C33.8743 106.843 34.5763 106.799 35.2734 106.809C36.1286 106.824 36.9789 106.941 37.8342 106.99C39.5349 107.084 41.2503 106.779 42.951 106.74C44.6516 106.701 46.4808 106.598 48.2457 106.47C48.661 106.441 48.9675 106.156 48.9872 105.734C49.0367 104.581 48.2753 103.746 47.2866 103.251C46.8614 103.04 46.3473 102.878 46.0556 102.48C45.7639 102.083 45.6008 101.381 45.7194 100.915C45.8233 100.492 45.5019 99.9329 45.0026 99.982C44.0633 100.075 43.1734 100.311 42.3379 100.748C41.5914 101.135 40.9043 102.048 40.0391 102.048C39.085 102.048 39.085 103.521 40.0391 103.521H40.0342Z" fill="#333333"/>
<path d="M32.2973 82.466C32.3171 84.3457 32.2281 84.3457 32.2479 86.2254C32.2677 88.1051 32.1737 88.1051 32.1935 89.9848C32.2133 91.8645 32.3171 91.8645 32.3369 93.7442C32.3566 95.6239 32.4259 95.6239 32.4456 97.5036C32.4456 97.9109 32.7175 98.1563 33.1279 98.1563C34.9768 98.1416 34.9768 98.2937 36.8258 98.2839C38.6747 98.2692 38.6747 98.2594 40.5237 98.2446C42.3726 98.2299 42.3726 98.225 44.2216 98.2152C44.622 98.2152 44.9384 97.8422 44.9532 97.4398C45.0027 95.7073 44.9434 95.7073 44.9928 93.9699C45.0422 92.2326 45.1065 92.2375 45.1559 90.505C45.2054 88.7726 45.2647 88.7726 45.3141 87.0401C45.3636 85.3077 45.1856 85.3028 45.235 83.5654C45.2845 81.828 45.3685 81.8329 45.418 80.0956C45.4674 78.3582 45.4031 78.3582 45.4476 76.6208C45.4575 76.2037 45.2103 75.8062 44.7901 75.8062C43.0301 75.8062 43.0301 75.9092 41.2751 75.9092C39.5201 75.9092 39.5152 75.8601 37.7552 75.8601C35.9952 75.8601 35.9952 75.8699 34.2353 75.8699C32.4753 75.8699 32.4753 75.8896 30.7153 75.8896" fill="#FCFCFC"/>
<path d="M31.5557 82.466C31.5706 84.6009 31.4964 86.7358 31.4569 88.8707C31.4124 91.0743 31.5458 93.3073 31.6447 95.5109C31.6645 95.9674 31.6843 96.4287 31.6942 96.8851C31.709 97.533 31.6694 98.2004 32.2577 98.6274C32.7521 98.9808 33.3651 98.8924 33.9435 98.9071C34.433 98.9219 34.9224 98.966 35.4118 98.9955C37.6563 99.1329 39.9452 98.9955 42.1897 98.9759C43.2278 98.966 44.7653 99.2801 45.4278 98.2937C45.7788 97.7685 45.7047 97.0962 45.7145 96.4974C45.7145 96.0263 45.7145 95.5551 45.7145 95.084C45.7294 92.8853 45.8678 90.6768 45.9963 88.483C46.1249 86.2646 45.8975 84.061 46.0655 81.8427C46.1496 80.7286 46.1792 79.6096 46.1743 78.4907C46.1694 77.5238 46.4907 76.076 45.6305 75.3938C45.0867 74.962 44.3204 75.0797 43.6678 75.1092C43.1389 75.1288 42.6049 75.173 42.076 75.1877C40.845 75.2172 39.614 75.1583 38.383 75.1485C35.8271 75.1239 33.2663 75.173 30.7104 75.173C29.7562 75.173 29.7562 76.6453 30.7104 76.6453C32.6829 76.6453 34.6604 76.6257 36.6329 76.6159C38.7241 76.6061 40.8203 76.7386 42.9115 76.6159C43.3613 76.5914 43.8063 76.5668 44.2561 76.5619C44.3501 76.5619 44.7307 76.5079 44.7901 76.5619C44.7011 76.4834 44.6961 76.5521 44.706 76.6404C44.7505 76.9398 44.6912 77.2932 44.6862 77.5975C44.6813 78.5839 44.6961 79.5655 44.6615 80.547C44.6269 81.4844 44.528 82.4169 44.4984 83.3543C44.4687 84.331 44.5627 85.288 44.5775 86.2597C44.6121 88.2817 44.4539 90.3528 44.3254 92.37C44.2561 93.4055 44.2314 94.441 44.2314 95.4766C44.2314 95.8987 44.2314 96.3207 44.2314 96.7428C44.2314 96.8802 44.3056 97.3857 44.1968 97.4888C44.0979 97.5869 43.3959 97.4888 43.2476 97.4888C41.3196 97.5035 39.3965 97.5281 37.4684 97.5428C36.4451 97.5526 35.4365 97.4986 34.4132 97.4446C34.1364 97.4299 33.8546 97.4201 33.5777 97.4201C33.4838 97.4201 33.2366 97.4544 33.1328 97.4201C33.2069 97.4446 33.1328 97.6066 33.1921 97.3906C33.3058 96.9587 33.1723 96.3109 33.1525 95.8594C33.0487 93.5871 32.9153 91.2902 32.9449 89.0179C32.9746 86.7456 33.0685 84.6451 33.0487 82.4611C33.0388 81.5139 31.5557 81.5139 31.5656 82.4611L31.5557 82.466Z" fill="#333333"/>
<path d="M17.6689 56.4642C17.7678 55.8507 17.9853 55.2569 18.1484 54.6434C18.4055 53.6864 18.7268 52.7343 19.152 51.8411C19.5821 50.938 20.0419 50.035 20.7488 49.3184C21.9798 48.062 23.3245 47.6596 24.7087 47.5614C26.0979 47.4633 27.5959 47.8412 29.1185 47.5222C30.3396 47.267 31.5805 47.0167 32.8412 47.0412C34.1068 47.0609 35.3674 47.2179 36.5737 47.5418C37.5179 47.7921 38.917 48.2682 40.1875 48.8718C41.5223 49.5098 42.6149 50.3196 42.8769 51.3699C43.1636 52.5183 43.6086 53.6324 43.8459 54.7906C44.0881 55.9489 44.182 57.1366 44.3798 58.2997C44.5775 59.4629 44.8692 60.6211 45.0175 61.7941C45.1708 62.9671 45.2697 64.1498 45.3784 65.3277C45.4872 66.5056 45.5515 67.6884 45.6108 68.8711C45.6701 70.0539 45.596 71.2367 45.6108 72.4195C45.6256 73.6317 45.7344 74.7163 45.4328 75.5703C45.1164 76.4684 44.4342 77.1261 43.0153 77.4205C41.992 77.6316 40.9192 77.7445 39.8266 77.7984C38.7341 77.8524 37.686 77.6954 36.6132 77.6807C35.5207 77.6659 34.438 77.7837 33.3998 77.7886C32.2281 77.7935 31.0515 77.6659 29.8799 77.6463C28.7082 77.6267 27.5316 77.6463 26.3599 77.6021C25.1883 77.558 24.0117 77.5531 22.84 77.4843C21.4459 77.4843 19.9282 77.1015 18.7911 76.2721C17.6244 75.428 16.7741 74.1323 16.6406 72.6796C16.4873 71.0208 16.2896 69.2834 16.3489 67.6197C16.3835 66.6185 16.7049 65.7498 16.868 64.778C17.1004 63.394 17.1103 62.01 17.2042 60.6309C17.2981 59.2518 17.4365 57.8629 17.659 56.4838L17.6689 56.4642Z" fill="#FCFCFC"/>
<path d="M18.3857 56.6605C18.7021 54.9477 19.2854 53.1858 20.0764 51.63C20.7784 50.246 21.7672 49.0387 23.3047 48.5577C24.773 48.0964 26.2561 48.3958 27.759 48.386C29.4794 48.3761 31.1157 47.7578 32.8411 47.7725C34.5022 47.7872 36.1089 48.1111 37.6711 48.6412C39.0455 49.1074 40.7313 49.6669 41.72 50.781C42.1353 51.2472 42.2193 51.8312 42.3924 52.4104C42.6494 53.2643 42.9411 54.1036 43.124 54.9722C43.48 56.6703 43.6283 58.4077 43.9694 60.1107C44.3155 61.8284 44.4737 63.5658 44.6319 65.313C44.7901 67.1191 44.9087 68.9349 44.8791 70.7459C44.8692 71.5214 44.8593 72.2968 44.8791 73.0722C44.8988 73.8133 44.9829 74.6476 44.7159 75.3593C44.2561 76.5715 42.8076 76.7384 41.6755 76.8905C39.9699 77.1163 38.3237 76.9543 36.6181 76.9249C34.873 76.8954 33.1575 77.0574 31.4124 76.9543C29.6524 76.8512 27.8924 76.8954 26.1325 76.8365C24.5258 76.7874 22.7955 76.9199 21.2234 76.5371C19.6315 76.1543 18.178 75.1335 17.6046 73.563C17.3129 72.7679 17.3129 71.8894 17.2387 71.0551C17.1497 70.0588 17.0756 69.0527 17.0855 68.0515C17.0954 67.1338 17.3178 66.2847 17.5057 65.3915C17.7084 64.4247 17.7924 63.4333 17.8517 62.4468C17.9655 60.5082 18.0792 58.5746 18.3807 56.6507C18.529 55.7231 17.1003 55.3256 16.952 56.2581C16.6504 58.1574 16.4972 60.0665 16.3934 61.9855C16.3439 62.918 16.2994 63.8603 16.1214 64.778C15.9385 65.7203 15.6617 66.6283 15.6172 67.5951C15.5282 69.3816 15.6864 71.276 15.9534 73.0428C16.1907 74.6035 17.1448 75.9776 18.4203 76.8905C19.7946 77.8721 21.4261 78.1469 23.0822 78.2156C25.035 78.2941 26.9927 78.3432 28.9504 78.353C30.8142 78.3628 32.673 78.5592 34.5368 78.4659C35.4613 78.4217 36.3857 78.3727 37.3102 78.4217C38.3089 78.4757 39.2976 78.5542 40.3012 78.4904C41.8832 78.3874 43.831 78.304 45.1164 77.2684C46.2089 76.3899 46.4067 75.0255 46.3918 73.7053C46.3721 71.7717 46.4165 69.838 46.3078 67.9043C46.199 66.0148 46.0458 64.1253 45.8233 62.2456C45.5909 60.2874 45.1262 58.3635 44.8593 56.4053C44.617 54.5992 44.1177 52.8962 43.5937 51.154C43.1389 49.6424 41.7348 48.7541 40.3654 48.1209C38.8625 47.4289 37.2608 46.8498 35.6294 46.5554C33.4245 46.1578 31.3382 46.31 29.158 46.7468C27.2646 47.1247 25.3415 46.5701 23.4431 46.9823C21.5546 47.3946 20.0517 48.6559 19.1075 50.3049C18.0742 52.1061 17.3376 54.2164 16.9619 56.2532C16.7888 57.1808 18.2176 57.5783 18.3906 56.6458L18.3857 56.6605Z" fill="#333333"/>
<path d="M24.8669 61.5147C24.9064 62.5208 24.8125 63.5367 24.857 64.5428C24.9015 65.5489 25.0646 66.5501 25.1042 67.5562C25.1437 68.5623 25.2525 69.5684 25.2822 70.5745C25.3267 72.1793 25.6233 73.7744 25.7024 75.3841C25.7617 76.5963 25.9249 79.0797 24.7087 79.8453C24.2044 80.1643 23.5667 80.2723 22.9685 80.2772C21.2333 80.287 19.4931 80.1447 17.7727 79.8797C16.2895 79.6539 16.512 78.5202 16.4824 77.3521C16.4725 77.0037 16.166 73.5535 15.8644 73.578C14.8756 73.6517 13.4074 73.475 11.9737 73.3965C10.54 73.3179 9.1261 73.1413 8.2659 72.5818C7.27715 71.9388 6.60481 71.0309 6.21425 69.9217C5.8237 68.8126 5.68527 67.6641 5.75943 66.5304C5.83853 65.274 6.16482 64.0765 6.58503 62.8987C7.00525 61.7208 7.54906 60.6116 8.2214 59.5466C8.89375 58.4865 9.66497 57.505 10.5103 56.5872C10.8218 56.2437 11.7117 55.1836 13.0662 54.0842C13.9116 53.3971 14.9449 52.7051 15.9682 51.9739C16.9916 51.2426 18.0693 50.7273 19.058 50.158C20.2544 49.466 21.3025 48.7004 22.2418 48.4893C23.6507 48.1752 24.5258 48.7053 24.5653 50.3445C24.595 51.5862 24.7235 52.8278 24.7334 54.0695C24.7433 55.3112 24.8817 56.5529 24.8966 57.7945C24.9114 59.0362 24.8125 60.2779 24.8669 61.5196V61.5147Z" fill="#AFAFAF"/>
<path d="M24.1253 61.5145C24.15 62.3684 24.0957 63.2224 24.1006 64.0763C24.1105 64.9303 24.2193 65.7793 24.2984 66.6284C24.4467 68.2627 24.4664 69.9068 24.595 71.5362C24.7136 73.0233 24.9361 74.4956 24.9905 75.9876C25.0251 76.9004 25.1437 78.2648 24.5208 79.0304C24.1698 79.4672 23.4876 79.5212 22.9685 79.5359C22.1033 79.5555 21.2283 79.5065 20.3632 79.4378C19.5672 79.374 18.7564 79.3151 17.9704 79.1629C17.4315 79.0599 17.2783 78.9126 17.2387 78.3777C17.1151 76.8219 17.2041 75.1974 16.7493 73.6809C16.6603 73.3913 16.5417 73.0969 16.2599 72.9398C16.0028 72.7926 15.7062 72.8515 15.4244 72.8515C15.0141 72.8515 14.6037 72.8319 14.1934 72.8073C12.6658 72.7092 11.0195 72.7386 9.54136 72.3214C6.64928 71.5018 6.1648 67.7866 6.66411 65.2984C7.84072 59.4924 12.4433 54.83 17.4216 51.9001C18.1484 51.4731 18.8998 51.0903 19.6265 50.6633C20.3533 50.2363 21.0404 49.7455 21.8018 49.402C22.2269 49.2106 22.9092 48.9701 23.3689 49.2008C23.7644 49.3971 23.799 49.9517 23.8188 50.3296C23.9127 52.1896 23.9523 54.0546 24.066 55.9146C24.1797 57.7796 24.0561 59.6397 24.1204 61.5046C24.155 62.4518 25.6381 62.4518 25.6035 61.5046C25.5392 59.6397 25.6628 57.7796 25.5491 55.9146C25.4354 54.0546 25.3959 52.1896 25.3019 50.3296C25.2426 49.186 24.8273 48.0425 23.5963 47.7284C22.2517 47.3849 20.9267 48.1456 19.8292 48.8131C18.361 49.7063 16.8037 50.467 15.3997 51.4584C13.961 52.4743 12.5076 53.4657 11.2519 54.7024C9.09642 56.8177 7.2277 59.2667 6.10053 62.0739C4.91898 65.0137 4.3109 68.7731 6.21918 71.5705C7.05467 72.7975 8.23622 73.5778 9.69461 73.8674C11.3903 74.2011 13.2145 74.26 14.935 74.314C15.0981 74.314 15.2563 74.3238 15.4194 74.3189C16.0077 74.314 15.2958 74.0195 15.3008 74.0146C15.2662 74.0294 15.286 73.8625 15.3107 74.0637C15.3206 74.1471 15.3552 74.2306 15.37 74.314C15.4639 74.7459 15.5233 75.1876 15.5727 75.6293C15.6716 76.4538 15.7259 77.2587 15.7358 78.0881C15.7606 79.4819 16.3489 80.3899 17.8023 80.6107C19.5524 80.8807 21.3865 81.0819 23.1613 80.9935C24.8323 80.9101 25.9941 80.0561 26.3203 78.4169C26.5972 77.0329 26.4785 75.5606 26.3451 74.1668C26.1374 72.0368 25.9594 69.9117 25.8507 67.7768C25.7963 66.7707 25.6628 65.7695 25.6035 64.7634C25.5392 63.6788 25.6381 62.5893 25.6035 61.5046C25.5738 60.5574 24.0907 60.5574 24.1204 61.5046L24.1253 61.5145Z" fill="#333333"/>
<path d="M22.5731 47.8218C21.6387 48.1751 20.823 48.8279 20.1704 49.5837C19.5178 50.3395 19.1421 51.2671 18.9345 52.2437C18.7911 52.9063 18.7466 53.559 18.9295 54.2117C19.3448 55.7135 20.5709 56.7344 21.876 57.5981C20.7488 58.5012 19.4882 59.6741 19.676 61.1023C19.7601 61.7501 20.1803 62.3636 20.5709 62.8936C21.5744 64.258 22.6917 65.5684 23.9276 66.7316" fill="#AFAFAF"/>
<path d="M22.3753 47.115C20.0418 48.0573 18.4697 50.1137 18.1286 52.5872C17.7875 55.0607 19.5326 56.9208 21.5002 58.2312C21.4508 57.8435 21.4013 57.4607 21.3519 57.0729C19.8836 58.2557 18.3313 59.944 19.1569 61.9513C19.5672 62.9427 20.3236 63.8064 20.996 64.631C21.7425 65.5536 22.5433 66.4223 23.4085 67.2419C24.1006 67.8946 25.1487 66.8591 24.4566 66.2015C23.1168 64.9254 21.7919 63.4973 20.8081 61.9268C20.3632 61.2151 20.2742 60.5477 20.7191 59.8164C21.1344 59.1391 21.782 58.6091 22.395 58.1134C22.7905 57.7944 22.6027 57.1956 22.2467 56.9552C20.7933 55.9834 19.32 54.6927 19.587 52.7786C19.854 50.8646 21.0058 49.245 22.7708 48.5284C23.6409 48.1751 23.2602 46.7518 22.3753 47.1101V47.115Z" fill="#333333"/>
<path d="M40.6373 61.5097C40.5928 62.6041 40.7758 63.7035 40.7263 64.7979C40.6769 65.8923 40.6769 66.9868 40.6324 68.0763C40.5928 69.1708 40.3605 70.2554 40.3308 71.3498C40.3012 72.4443 40.4495 73.5387 40.4495 74.6332C40.4495 75.7276 40.2666 76.822 40.2962 77.9165C40.2962 79.3299 41.7101 79.909 43.2328 80.017C44.7555 80.125 46.3671 79.806 47.1383 79.6048C47.346 79.5508 47.5388 79.4379 47.697 79.2956C47.9343 79.0796 48.1122 78.7606 48.1567 78.4416C48.3743 76.8368 48.7351 75.2564 48.8439 73.6614C50.5149 73.6614 52.2254 73.4847 53.6739 72.6651C54.9346 71.9535 55.953 70.8492 56.4869 69.5143C57.006 68.2088 56.9714 66.6923 56.8082 65.2985C56.6451 63.8801 56.215 62.5501 55.6119 61.2496C55.0137 59.9637 54.455 58.6239 53.6888 57.4362C53.14 56.5822 52.4479 55.6203 51.8101 54.6387C51.1724 53.6572 50.4556 52.7149 49.6398 52.0769C48.5868 51.2425 47.2471 50.5849 46.115 49.8095C45.324 49.2696 44.0633 48.7494 43.0153 48.5629C41.893 48.3666 40.8895 48.612 40.845 50.3395C40.8153 51.5812 41.0279 52.8278 41.0229 54.0694C41.0131 55.3111 40.7659 56.5528 40.751 57.7945C40.7362 59.0361 40.6818 60.2729 40.6324 61.5146L40.6373 61.5097Z" fill="#AFAFAF"/>
<path d="M39.8958 61.5097C39.8612 62.7268 40.0145 63.9341 39.97 65.1513C39.9255 66.3586 39.9552 67.5757 39.8415 68.783C39.7277 70.0002 39.5547 71.183 39.6091 72.4099C39.6635 73.6369 39.7277 74.8197 39.6388 76.0417C39.5695 77.0184 39.3619 78.1668 39.8365 79.0747C40.2122 79.7962 40.9439 80.233 41.7003 80.4833C43.4158 81.0428 45.6305 80.8268 47.3361 80.3115C47.8256 80.1643 48.2458 79.8649 48.5325 79.4428C48.8835 78.9226 48.9132 78.3189 49.0121 77.7202C49.2296 76.3705 49.4866 75.0258 49.5855 73.6614L48.844 74.3976C50.6286 74.3878 52.4677 74.1915 54.0497 73.2982C55.4438 72.513 56.571 71.2713 57.1692 69.7941C57.8613 68.0911 57.7377 66.0985 57.4065 64.3268C57.0505 62.4274 56.1903 60.6655 55.3548 58.9331C54.5243 57.2104 53.3872 55.6694 52.3293 54.0793C51.825 53.3235 51.2713 52.5726 50.6138 51.9395C49.9563 51.3064 49.2197 50.845 48.4682 50.3886C46.9604 49.4708 45.5218 48.4353 43.7865 47.974C42.6495 47.6746 41.2504 47.5911 40.5286 48.7101C40.0441 49.4561 40.0788 50.418 40.1232 51.2671C40.1776 52.3959 40.3259 53.5149 40.2666 54.6486C40.2023 55.7774 40.0293 56.8914 40.0095 58.0251C39.9898 59.1883 39.9403 60.3514 39.8909 61.5146C39.8513 62.4618 41.3345 62.4618 41.374 61.5146C41.4482 59.7331 41.4284 57.9368 41.6064 56.1651C41.6855 55.3896 41.7744 54.6191 41.7646 53.8388C41.7547 52.9014 41.6261 51.9738 41.5965 51.0413C41.5816 50.5898 41.4679 49.726 41.8783 49.3874C42.1255 49.1813 42.5259 49.2304 42.8176 49.2745C44.365 49.5003 45.5959 50.3935 46.8912 51.1738C48.2754 52.0082 49.5608 52.7983 50.5397 54.1087C51.5086 55.4044 52.4479 56.7982 53.2785 58.192C54.1189 59.5956 54.8456 61.1612 55.4092 62.6925C55.9876 64.2679 56.2744 65.9807 56.1458 67.6592C56.0222 69.2836 55.1917 70.7364 53.852 71.6836C52.3787 72.724 50.599 72.9252 48.839 72.9302C48.4188 72.9302 48.1271 73.2688 48.0975 73.6663C48.0233 74.6724 47.8602 75.6589 47.6921 76.6552C47.5635 77.4208 47.6723 78.7115 46.7627 78.9471C45.3092 79.325 43.4603 79.5753 42.0167 79.0502C41.4037 78.8244 41.0477 78.4711 41.0329 77.8134C41.0181 76.7582 41.1812 75.708 41.1861 74.6479C41.1861 73.632 41.0576 72.616 41.0675 71.6001C41.0774 70.5842 41.2603 69.5781 41.3394 68.5622C41.4333 67.3941 41.4086 66.2163 41.4531 65.0482C41.4976 63.8703 41.3394 62.7023 41.374 61.5244C41.3987 60.5772 39.9156 60.5772 39.8909 61.5244L39.8958 61.5097Z" fill="#333333"/>
<path d="M42.9906 47.9888C43.925 48.3421 44.711 48.9114 45.3587 49.6672C46.0112 50.423 46.5649 51.2525 46.7775 52.2242C46.9209 52.8868 46.8566 53.5542 46.6786 54.2021C46.2634 55.7038 44.9088 56.7148 43.6036 57.5786C44.7308 58.4817 46.0755 59.6644 45.8827 61.0877C45.7987 61.7355 45.3339 62.2754 44.9434 62.8054C43.9398 64.1698 42.778 65.4017 41.5421 66.5648" fill="#AFAFAF"/>
<path d="M42.7977 48.7004C44.3748 49.3286 45.9963 51.0267 46.115 52.7787C46.2484 54.7419 44.7159 55.9639 43.2328 56.9455C42.8768 57.181 42.689 57.7847 43.0845 58.1037C43.7074 58.6043 44.3797 59.1343 44.8148 59.8116C45.2844 60.5478 45.2201 61.1662 44.7258 61.8729C43.6629 63.4041 42.3775 64.7685 41.0229 66.0494C40.3308 66.7022 41.3789 67.7426 42.071 67.0899C42.9263 66.2801 43.7519 65.4409 44.5132 64.5427C45.1806 63.7526 45.9716 62.8839 46.3967 61.9318C47.2916 59.9294 45.5711 58.2215 44.1276 57.0583L43.9793 58.2166C45.9716 56.8964 47.8453 55.1639 47.5783 52.5579C47.336 50.1874 45.3388 48.136 43.1932 47.282C42.3083 46.9286 41.9227 48.3519 42.7977 48.7004Z" fill="#333333"/>
<path d="M41.107 48.6264C41.4185 49.6276 41.6953 50.6484 41.7102 51.6938C41.725 52.8226 41.5273 54.0446 40.8055 54.9133C40.1727 55.674 39.2037 56.1206 38.21 56.1648C37.2163 56.209 36.2029 55.9047 35.3822 55.4139C34.5418 54.9084 33.8595 54.182 33.2465 53.4115C32.6434 52.6557 32.0353 51.7429 31.5261 50.9233C31.4371 52.8815 31.0713 54.1919 29.5091 55.4139C29.1284 55.7133 28.6588 55.89 28.2039 56.0617C26.9927 56.5231 25.4799 56.263 24.5308 55.3894C23.5816 54.5158 23.191 53.1269 23.1119 51.8459C23.0328 50.565 23.2948 49.2693 23.7447 48.062" fill="#FCFCFC"/>
<path d="M40.3902 48.823C40.8054 50.1824 41.1565 51.6008 40.8598 53.0191C40.5978 54.2804 39.7228 55.262 38.388 55.4191C35.4069 55.7675 33.4986 52.7001 32.1589 50.5554C31.7634 49.9223 30.8142 50.2021 30.7746 50.9284C30.7203 52.0278 30.572 53.1615 29.8601 54.0498C29.0542 55.0608 27.6848 55.7626 26.3698 55.5074C23.1663 54.8841 23.6458 50.4916 24.4516 48.2635C24.773 47.3703 23.3442 46.9874 23.0229 47.8709C21.9056 50.9628 21.9551 56.2632 26.1523 56.9552C27.8776 57.2399 29.6623 56.5086 30.8043 55.2129C31.882 53.9958 32.1787 52.4989 32.2578 50.9235C31.798 51.0462 31.3382 51.1689 30.8735 51.2965C32.6137 54.0792 35.1399 57.5785 38.9516 56.8129C40.5385 56.4939 41.7448 55.3111 42.1946 53.7848C42.7137 52.0081 42.3479 50.1579 41.8189 48.4352C41.5421 47.5322 40.1084 47.915 40.3902 48.8279V48.823Z" fill="#333333"/>
<path d="M6.83218 20.5147C7.65778 20.5147 8.43889 20.6325 9.15572 20.9368C9.47212 19.808 9.84785 18.7135 10.3175 17.6583C10.7921 16.5884 11.3557 15.5627 11.9736 14.5861C12.5966 13.5996 13.2837 12.6524 14.0401 11.769C14.7965 10.8807 15.7309 10.1739 16.6059 9.40341C17.4809 8.63288 18.2522 7.72003 19.231 7.08202C20.2099 6.444 21.2579 5.89924 22.3258 5.40846C23.3936 4.91767 24.5307 4.65265 25.6628 4.31892C26.7949 3.98519 27.8924 3.64655 29.0641 3.47969C30.2061 3.31773 31.3777 3.38153 32.5642 3.38153C33.7507 3.38153 34.9076 3.44533 36.0495 3.6122C37.2212 3.77906 38.378 3.94593 39.4854 4.27475C40.5928 4.60357 41.7299 4.97657 42.7878 5.46244C43.8458 5.94831 44.8494 6.57651 45.8233 7.21453C46.8021 7.85254 47.7118 8.58381 48.5868 9.35433C49.4619 10.1249 50.416 10.8316 51.1773 11.7199C51.9337 12.6033 52.6308 13.5603 53.2537 14.5517C53.8766 15.5431 54.2474 16.6571 54.722 17.727C55.1966 18.797 55.6464 19.8619 55.9628 20.9907C56.6945 20.6717 57.5152 20.6079 58.3655 20.6079C59.4581 20.6079 60.5012 20.7355 61.3812 21.2459C62.2611 21.7564 62.973 22.5907 63.4971 23.4937C64.0211 24.3968 64.2633 25.3587 64.2633 26.4384C64.2633 27.5181 64.0162 28.5144 63.507 29.388C62.9829 30.291 62.3254 31.1646 61.4158 31.6898C60.5061 32.2149 59.4581 32.4799 58.3655 32.4799C57.6882 32.4799 56.9862 32.2345 56.3781 32.0235C56.1408 33.2504 55.775 34.4578 55.3647 35.6111C54.9543 36.7644 54.4946 37.9276 53.9063 39.0122C53.313 40.1066 52.6555 41.152 51.909 42.1385C51.1576 43.1249 50.332 44.0525 49.4371 44.9114C48.5423 45.7703 47.6623 46.6635 46.6439 47.38C45.6305 48.0916 44.4786 48.5972 43.3564 49.1517C42.2341 49.7063 41.1465 50.3051 39.9501 50.683C38.7735 51.056 37.5277 51.2179 36.2819 51.4093C35.0361 51.6007 33.8298 51.7283 32.5642 51.7283C31.2986 51.7283 30.0676 51.5517 28.8564 51.3701C27.6106 51.1787 26.3549 51.0658 25.1833 50.6928C24.0116 50.3198 22.8251 49.8339 21.7177 49.2842C20.6004 48.7297 19.6364 47.9199 18.6229 47.2082C17.6095 46.4966 16.6059 45.7653 15.716 44.9065C14.8212 44.0476 14.0055 43.12 13.2541 42.1336C12.5026 41.152 11.8303 40.1165 11.237 39.0269C10.6487 37.9472 10.1939 36.8037 9.77369 35.6307C9.35347 34.4578 8.94809 33.3093 8.71079 32.0873C8.12249 32.2787 7.48969 32.5241 6.83712 32.5241C5.74456 32.5241 4.79042 31.9842 3.91044 31.4738C3.00574 30.9487 2.11587 30.3499 1.59184 29.442C1.08263 28.5684 0.736572 27.5132 0.736572 26.4286C0.736572 25.344 1.0332 24.2642 1.53745 23.3858C2.06149 22.4827 2.96125 21.8398 3.86595 21.3147C4.77065 20.7895 5.73961 20.5049 6.83218 20.5049V20.5147Z" fill="#FFE6D9"/>
<path d="M6.83218 21.2507C7.57373 21.2605 8.26585 21.3685 8.95797 21.6434C9.3337 21.7906 9.76874 21.4765 9.87256 21.128C10.9305 17.4226 12.8635 13.6436 15.805 11.0572C16.5268 10.4192 17.2684 9.81064 17.9605 9.14317C18.6229 8.50025 19.2805 7.90641 20.0715 7.42544C21.7721 6.38989 23.5271 5.69789 25.4354 5.14822C26.439 4.86357 27.4277 4.54456 28.4511 4.32862C29.4596 4.11758 30.473 4.09304 31.5013 4.10286C33.5975 4.12249 35.6442 4.22555 37.7106 4.60836C41.7348 5.35926 45.1707 7.37636 48.2309 10.0119C49.0614 10.7284 49.9315 11.4008 50.6533 12.2351C51.3751 13.0694 52.0326 13.9774 52.611 14.9148C53.1696 15.8178 53.5305 16.8141 53.9458 17.7858C54.4253 18.8999 54.9049 20.0042 55.246 21.1771C55.3449 21.5256 55.7849 21.8446 56.1606 21.6924C57.6289 21.0986 59.814 21.1084 61.1735 21.9722C62.5726 22.8605 63.4625 24.588 63.5168 26.2125C63.5712 27.8959 62.8396 29.6136 61.5295 30.7081C60.8917 31.2381 60.0661 31.5375 59.2504 31.67C58.2963 31.8271 57.4756 31.6111 56.5759 31.3068C56.215 31.1841 55.7354 31.4492 55.6613 31.8221C54.8456 35.9398 53.0016 39.8906 50.1935 43.0414C48.8637 44.5334 47.3459 46.1137 45.6206 47.1541C44.7406 47.6842 43.7963 48.1013 42.8818 48.5627C41.9672 49.024 40.9784 49.559 39.96 49.9025C38.9317 50.251 37.854 50.4276 36.7812 50.5896C35.7084 50.7516 34.606 50.9135 33.5035 50.9675C31.3135 51.0755 29.1086 50.7172 26.9531 50.3491C24.8669 49.9908 22.7114 49.1516 20.9514 47.9786C19.236 46.8351 17.4661 45.6033 15.9978 44.1555C12.6559 40.8427 10.3472 36.4895 9.41774 31.8909C9.34358 31.5179 8.86404 31.2577 8.50315 31.3755C7.73688 31.6307 6.99532 31.9007 6.1796 31.7093C5.4331 31.5326 4.76076 31.1252 4.10819 30.7375C2.74866 29.9277 1.86374 28.8824 1.55228 27.3021C1.26061 25.8248 1.68577 24.0629 2.78327 22.993C3.88078 21.9231 5.3194 21.2753 6.82723 21.2458C7.78137 21.2262 7.78137 19.7539 6.82723 19.7735C4.88435 19.8078 2.93653 20.6863 1.59678 22.09C0.266918 23.4838 -0.232397 25.6138 0.0840006 27.4787C0.41523 29.4222 1.52262 30.8798 3.18866 31.9007C3.99448 32.3915 4.85963 32.9019 5.78411 33.1227C6.88656 33.3877 7.85058 33.1374 8.89865 32.789L7.98406 32.2737C8.8591 36.6122 10.9602 40.7642 13.8967 44.0818C15.365 45.7358 17.0854 46.9824 18.8602 48.2878C20.7092 49.6473 22.6669 50.6583 24.8669 51.3601C25.9841 51.7184 27.1459 51.8509 28.3027 52.0227C29.4447 52.1895 30.5818 52.376 31.7337 52.4349C34.077 52.5625 36.5044 52.1994 38.7933 51.7282C40.9834 51.2816 42.9312 50.1773 44.9136 49.2007C46.9307 48.2044 48.5176 46.8351 50.1095 45.2695C53.6986 41.7408 56.1112 37.1324 57.09 32.2148L56.1754 32.7301C57.268 33.1031 58.2716 33.2945 59.4234 33.1276C60.5061 32.9657 61.5641 32.5681 62.4193 31.8761C64.0903 30.5265 65.0642 28.3376 64.9901 26.2174C64.9209 24.1071 63.8332 22.0262 62.0782 20.8139C61.1735 20.1857 60.0958 19.9502 59.0082 19.8864C57.9206 19.8226 56.7736 19.8716 55.7601 20.279L56.6747 20.7943C56.3633 19.7244 55.9431 18.6938 55.4981 17.6729C55.0878 16.7306 54.7319 15.7589 54.2622 14.846C53.3427 13.0498 51.9733 11.3026 50.4457 9.9775C48.8785 8.61804 47.3064 7.28311 45.5514 6.16904C43.7173 5.00589 41.7694 4.17157 39.6832 3.56791C37.592 2.96425 35.3278 2.69922 33.1525 2.65505C32.06 2.63542 30.9526 2.59616 29.865 2.66487C28.7773 2.73358 27.6551 2.98388 26.5774 3.28325C24.5406 3.85747 22.5483 4.42677 20.6647 5.40343C19.7798 5.86476 18.9047 6.36045 18.1286 6.98865C17.3475 7.61685 16.6751 8.36774 15.9187 9.02539C15.0635 9.76647 14.1785 10.4683 13.4469 11.3321C12.7152 12.1958 12.0132 13.1479 11.3952 14.1197C10.0802 16.181 9.11123 18.3944 8.44383 20.7403C8.75034 20.5685 9.0519 20.3968 9.35842 20.225C8.55259 19.906 7.70227 19.7882 6.83712 19.7784C5.88298 19.7637 5.88298 21.236 6.83712 21.2507H6.83218Z" fill="#333333"/>
<path d="M38.6747 23.8521C38.6747 24.7306 39.2531 25.5453 40.1331 25.5453C41.0131 25.5453 41.6508 24.7306 41.6508 23.8521C41.6508 22.9736 41.0131 22.2178 40.1331 22.2178C39.2531 22.2178 38.6747 22.9736 38.6747 23.8521Z" fill="#333333"/>
<path d="M23.4926 23.8518C23.4926 24.7303 24.1155 25.3487 24.9954 25.3487C25.8754 25.3487 26.6813 24.7254 26.6813 23.8518C26.6813 22.9782 25.8754 22.2666 24.9954 22.2666C24.1155 22.2666 23.4926 22.9733 23.4926 23.8518Z" fill="#333333"/>
<path d="M33.9485 24.2201C33.4937 23.9306 32.9944 23.7245 32.4506 23.6803C32.2133 23.6607 31.9611 23.695 31.7387 23.7637C31.4272 23.8668 31.1899 24.0189 30.9329 24.2152C30.7944 24.3232 30.7153 24.5686 30.7153 24.7355C30.7153 24.9171 30.7944 25.133 30.9329 25.2557C31.0713 25.3784 31.2591 25.4814 31.4569 25.4716L31.6546 25.4471C31.7782 25.4127 31.887 25.3489 31.9809 25.2557L32.0106 25.2311L31.8623 25.344C31.976 25.2606 32.0897 25.1919 32.2182 25.1379L32.0402 25.2115C32.1391 25.1723 32.2429 25.1428 32.3468 25.1281L32.149 25.1526C32.2775 25.1379 32.4011 25.1379 32.5297 25.1526L32.3319 25.1281C32.5148 25.1526 32.6879 25.2066 32.8609 25.2802L32.6829 25.2066C32.8609 25.2851 33.0339 25.3784 33.1971 25.4864C33.5234 25.6925 34.0276 25.5649 34.2105 25.2213C34.4033 24.8582 34.2946 24.4361 33.9436 24.2152L33.9485 24.2201Z" fill="#333333"/>
<path d="M43.48 30.6691C43.48 32.058 43.9447 33.3831 44.8593 34.296C45.7739 35.2088 47.1087 35.729 48.5028 35.729C49.8969 35.729 51.2021 35.1744 52.1117 34.2616C53.0214 33.3537 53.5998 32.058 53.5998 30.6691C53.5998 29.2802 52.967 28.0434 52.0573 27.1306C51.1477 26.2177 49.8969 25.5601 48.5028 25.5601C47.1087 25.5601 45.8332 26.1932 44.9186 27.106C44.009 28.014 43.48 29.2851 43.48 30.674V30.6691Z" fill="#EDBBA6"/>
<path d="M11.5041 30.6691C11.5041 32.058 12.0479 33.4077 12.9575 34.3205C13.8721 35.2334 15.2317 35.8076 16.6258 35.8076C18.0199 35.8076 19.3349 35.1892 20.2495 34.2764C21.1592 33.3684 21.6041 32.058 21.6041 30.6691C21.6041 29.2802 21.1789 27.9551 20.2644 27.0472C19.3498 26.1343 18.0199 25.6484 16.6208 25.6484C15.2267 25.6484 13.9957 26.2374 13.0861 27.1502C12.1764 28.0582 11.4991 29.2802 11.4991 30.6691H11.5041Z" fill="#EDBBA6"/>
<path d="M12.8438 22.2617C11.1925 22.5268 9.50674 22.3403 8.9926 20.8826C8.87395 20.5489 8.77013 20.2152 8.77507 19.8569C8.7899 18.7281 8.91844 17.6042 9.11619 16.5C9.31888 15.3859 9.6155 14.2915 10.0159 13.251C10.4213 12.1909 10.9108 11.1701 11.5238 10.2278C12.1368 9.28549 12.9476 8.50024 13.7682 7.71499C14.5988 6.92484 15.3749 6.06597 16.3241 5.42305C17.2733 4.78503 18.3164 4.27953 19.3546 3.77893C20.3928 3.27834 21.431 2.78265 22.5186 2.41456C23.6112 2.04157 24.768 1.90415 25.8803 1.65385C26.9927 1.40356 28.1248 1.08946 29.2519 0.952037C30.4088 0.814619 31.5804 0.726278 32.7472 0.736094C33.9139 0.74591 35.0757 0.873513 36.2325 1.03056C37.3893 1.18761 38.5214 1.44773 39.6486 1.76183C40.6621 2.04648 41.6854 2.41947 42.7236 2.79737C43.7618 3.17527 44.7653 3.52864 45.7244 4.02432C46.6983 4.52492 47.6525 5.05006 48.4929 5.71261C49.452 6.46841 50.2825 7.36654 51.1131 8.27939C51.9436 9.19224 52.8187 10.0462 53.5454 11.0327C54.2869 12.0388 54.8851 13.3001 55.4932 14.5418C56.1013 15.7834 56.65 17.0349 56.8478 18.2962C57.1395 20.1465 56.6896 21.0691 55.8442 21.4176C54.9939 21.766 53.7629 21.447 52.4034 20.9317C51.3306 20.5293 50.1194 20.1367 49.096 19.5673C47.7958 18.8508 46.644 18.1588 46.0013 17.776C44.7703 17.0398 43.6283 16.1613 42.4467 15.3515C41.2652 14.5418 40.0935 13.7172 38.9416 12.8633C37.7897 12.0093 36.7021 11.0081 35.5601 10.1149C34.9076 9.6045 34.1067 8.62785 33.2168 8.61803C32.5741 8.61312 31.7584 9.56524 31.269 9.97749C30.4928 10.64 29.7018 11.2781 28.9158 11.9259C28.1297 12.5737 27.3437 13.2265 26.5527 13.8645C25.2673 14.9 24.0808 16.1662 22.6916 17.0546C21.6436 17.7269 20.556 18.3453 19.5277 19.0373C18.4845 19.7391 17.5057 20.5293 16.3983 21.0691C15.2859 21.6139 14.1044 22.0556 12.8487 22.2568L12.8438 22.2617Z" fill="#C67D71"/>
<path d="M12.646 21.55C11.9391 21.6531 11.1135 21.712 10.4411 21.4224C9.63036 21.0739 9.49687 20.1856 9.52654 19.4004C9.61058 17.2998 10.0357 15.1895 10.8119 13.2313C11.1876 12.2841 11.6523 11.3565 12.2209 10.5074C12.7746 9.68292 13.5013 8.99092 14.2132 8.30383C14.935 7.61183 15.6221 6.85603 16.428 6.24746C17.2783 5.60454 18.2571 5.12848 19.2113 4.66224C20.1654 4.19599 21.1591 3.70031 22.1775 3.31259C23.1959 2.92487 24.2341 2.72365 25.2921 2.51753C26.35 2.3114 27.3091 2.04638 28.3275 1.84025C29.3953 1.6243 30.4928 1.53106 31.5805 1.48689C35.9754 1.29548 40.2369 2.50771 44.266 4.15673C46.1941 4.94689 47.9442 6.05115 49.4026 7.5284C50.0848 8.2204 50.7324 8.95166 51.3949 9.66329C52.0573 10.3749 52.7742 11.1504 53.318 12.0141C54.0546 13.1773 58.4446 21.0739 54.7813 20.8138C53.8272 20.7451 52.9027 20.328 52.0178 20.004C51.0735 19.6605 50.1441 19.3022 49.2641 18.8164C47.6278 17.9084 46.0112 16.9661 44.4836 15.8913C42.6841 14.6202 40.84 13.4079 39.0949 12.0632C38.2446 11.4105 37.4437 10.6988 36.6132 10.0216C35.9754 9.50133 35.3723 8.91731 34.7049 8.43634C34.077 7.98482 33.2959 7.7198 32.5494 8.0339C31.8524 8.32837 31.3382 8.92712 30.7845 9.4179C29.1679 10.8559 27.4327 12.1663 25.7716 13.5552C24.9855 14.2079 24.2539 14.9196 23.4678 15.5723C22.6818 16.225 21.8018 16.7551 20.9268 17.29C19.1569 18.3746 17.5205 19.7636 15.6271 20.6322C14.6779 21.069 13.6793 21.3782 12.651 21.5549C11.7117 21.7169 12.1121 23.1352 13.0465 22.9733C15.2514 22.5954 17.1893 21.5893 18.9938 20.3132C20.8625 18.993 22.9388 17.9575 24.6889 16.4753C26.439 14.9932 28.1347 13.5208 29.8947 12.0828C30.7203 11.4056 31.5508 10.7332 32.3319 10.0068C32.5445 9.81053 32.8658 9.43262 33.1674 9.37373C33.5184 9.30502 33.9139 9.6682 34.1611 9.87433C35.8024 11.2534 37.419 12.6669 39.1493 13.9331C41.023 15.3024 42.9263 16.6667 44.8692 17.9379C46.5303 19.0274 48.3051 20.112 50.1491 20.8678C51.1477 21.2752 52.176 21.6776 53.2092 21.9868C54.0843 22.2518 55.0878 22.4579 55.9777 22.1586C57.619 21.604 57.8118 19.8077 57.6042 18.3256C57.2977 16.1514 56.1557 14.046 55.1126 12.1368C54.0694 10.2326 52.5319 8.70627 51.0637 7.12596C49.536 5.48675 47.8305 4.21563 45.8035 3.24388C43.7568 2.26232 41.4976 1.48689 39.2976 0.912672C37.0136 0.309012 34.6258 -0.0296265 32.2775 -0.000179663C31.1256 0.0145438 29.9688 0.107792 28.8268 0.26975C27.6898 0.436615 26.5824 0.750715 25.4552 0.991197C24.328 1.23168 23.191 1.39364 22.0984 1.78135C21.0256 2.16416 19.9973 2.65004 18.974 3.14572C17.9506 3.64141 16.8284 4.17146 15.8594 4.84873C14.9795 5.46221 14.2379 6.22783 13.4716 6.96891C12.7053 7.70998 11.949 8.42652 11.3013 9.26576C10.6537 10.105 10.1099 11.1307 9.6699 12.1417C8.7652 14.2325 8.25106 16.4557 8.07803 18.7231C7.99893 19.739 7.98904 20.7746 8.54768 21.6727C8.9679 22.3451 9.6699 22.7769 10.4362 22.9585C11.2964 23.1598 12.1714 23.091 13.0316 22.9634C13.9709 22.8211 13.5705 21.4028 12.6361 21.5451L12.646 21.55Z" fill="#333333"/>
<path d="M32.5495 31.3657C33.3553 31.3313 34.1809 31.1498 34.7988 30.6295C35.4168 30.1093 35.6937 29.3142 35.664 28.5143C35.6541 28.21 35.6096 27.9646 35.3575 27.7879C34.7099 27.3413 32.9548 27.5278 32.1836 27.5376C31.4767 27.5425 30.3544 27.5229 29.692 27.7585C28.5055 28.1805 29.4349 29.5694 29.9985 30.286C30.6016 31.0467 31.5706 31.405 32.5544 31.3657H32.5495Z" fill="#FCFCFC"/>
<path d="M32.5495 32.1018C33.3751 32.0626 34.2402 31.9055 34.9422 31.4393C35.6442 30.973 36.104 30.3203 36.2968 29.5301C36.4797 28.7891 36.5242 27.8026 35.8815 27.2726C35.3822 26.8603 34.6802 26.7916 34.0573 26.767C33.469 26.7425 32.8807 26.7916 32.2874 26.8014C31.6299 26.8161 30.9774 26.8014 30.3248 26.8799C29.6327 26.9683 28.8763 27.1499 28.5352 27.8222C28.2237 28.4357 28.4313 29.1228 28.723 29.697C29.0444 30.3252 29.5091 30.9387 30.0727 31.3657C30.7796 31.8957 31.6744 32.1313 32.5594 32.1067C33.5135 32.0822 33.5135 30.6099 32.5594 30.6344C32.0304 30.6491 31.5607 30.5657 31.1158 30.2958C30.9032 30.1682 30.7648 30.0307 30.5868 29.8393C30.567 29.8197 30.4731 29.697 30.572 29.8246C30.5473 29.7903 30.5225 29.7559 30.4929 29.7215C30.4187 29.6234 30.3446 29.5203 30.2754 29.4173C30.1617 29.2504 30.0677 29.0737 29.9738 28.8921C29.87 28.7007 29.9985 28.9657 29.954 28.848C29.9342 28.794 29.9145 28.7449 29.8996 28.6909C29.8897 28.6516 29.8799 28.6075 29.87 28.5682C29.8255 28.4161 29.8502 28.6762 29.87 28.524C29.8848 28.3817 29.8551 28.5289 29.8551 28.5486L29.865 28.4946C29.8848 28.4308 29.8848 28.4259 29.865 28.4799L29.8502 28.5191C29.8947 28.4504 29.8848 28.4553 29.8304 28.529C29.8354 28.529 29.959 28.4259 29.8205 28.529C29.8551 28.5044 29.8996 28.4799 29.9392 28.4602C29.8502 28.5044 29.954 28.4602 29.9738 28.4504C30.1172 28.4063 30.2605 28.3768 30.4088 28.3523C30.8389 28.2836 31.4618 28.2836 31.9661 28.2836C32.4012 28.2836 32.8362 28.2541 33.2762 28.2443C33.5184 28.2394 33.7557 28.2345 33.998 28.2443C34.1018 28.2443 34.2056 28.2541 34.3144 28.259C34.3638 28.259 34.4132 28.2688 34.4676 28.2737C34.6456 28.2885 34.4034 28.2541 34.5566 28.2885C34.6654 28.313 34.7692 28.3425 34.878 28.367C34.9126 28.3768 35.0213 28.3964 34.8681 28.3572C34.8928 28.3621 34.9422 28.3915 34.9669 28.4063C34.8631 28.3326 34.9224 28.2737 34.9521 28.4602C34.9472 28.4161 34.9472 28.3915 34.9521 28.524C34.9521 28.6173 34.9521 28.7105 34.9521 28.7989C34.9274 29.2848 34.7148 29.7952 34.3045 30.1191C33.8249 30.5019 33.1724 30.6099 32.5841 30.6344C32.1836 30.654 31.8425 30.9583 31.8425 31.3706C31.8425 31.7534 32.1836 32.1264 32.5841 32.1067L32.5495 32.1018Z" fill="#333333"/>
<path d="M8.46857 69.1757C7.41061 68.8175 6.58007 68.0469 6.13513 66.9672C5.69514 65.9022 5.48256 64.6655 5.43312 63.6986C5.38369 62.6483 5.65065 61.6668 6.06098 60.8177C6.47131 59.9687 7.11399 59.1834 7.94948 58.5601C8.54272 58.1135 9.36832 57.9614 10.0802 58.1822C10.7921 58.4031 11.3211 59.0902 11.2568 59.8264C11.1975 60.4595 10.8959 60.9257 10.451 61.387C11.1085 61.4361 11.6424 61.814 11.9292 62.403C12.2159 62.9919 11.8847 63.8213 11.237 63.944C11.7611 64.2974 12.3593 64.7489 12.5274 65.3575C12.6954 65.966 12.2505 66.7415 11.6128 66.7513C12.1813 66.9721 12.2653 67.7181 11.9786 68.2531C11.6919 68.788 11.1975 69.0972 10.6043 69.2592C9.88741 69.4555 9.17058 69.4162 8.46857 69.1757Z" fill="#FFE6D9"/>
<path d="M8.66634 68.4689C7.43041 68.0222 6.83716 66.9671 6.51087 65.7647C6.14504 64.415 6.02145 63.0163 6.50099 61.6764C6.87671 60.6262 7.77647 59.2275 8.91847 58.8888C9.43756 58.7367 10.1099 58.8103 10.4065 59.3109C10.7328 59.8606 10.2978 60.4691 9.92698 60.8667C9.45733 61.3722 9.82317 62.0494 10.451 62.1231C10.7724 62.1623 11.158 62.393 11.2618 62.7218C11.331 62.9328 11.2717 63.1733 11.0393 63.2371C10.3917 63.4138 10.3521 64.2334 10.8613 64.5819C11.1728 64.7978 11.6227 65.0677 11.766 65.4358C11.8204 65.5732 11.8451 65.9904 11.6078 66.01C10.9503 66.0738 10.5054 67.026 11.2321 67.3842C11.7018 67.6149 11.0888 68.2382 10.8218 68.3854C10.1544 68.7535 9.35351 68.6848 8.65645 68.4689C7.74186 68.1842 7.35131 69.6026 8.26095 69.8872C9.56115 70.2946 11.2173 70.1964 12.211 69.1609C13.0267 68.3118 13.1898 66.707 11.9786 66.1131C11.855 66.5695 11.7314 67.026 11.6029 67.4873C12.5719 67.3891 13.2937 66.6137 13.2937 65.6272C13.2937 64.5721 12.3988 63.8555 11.6029 63.3107L11.4249 64.6555C12.3741 64.3954 12.9328 63.404 12.7152 62.4568C12.473 61.3918 11.4694 60.7734 10.4411 60.6556C10.6142 61.0728 10.7921 61.4949 10.9652 61.912C11.949 60.847 12.4532 59.2913 11.3211 58.1183C10.2483 57.0042 8.47353 57.2103 7.34142 58.0987C6.14504 59.036 5.27989 60.3464 4.89428 61.8139C4.49878 63.3206 4.69653 64.9647 5.15135 66.4419C5.65067 68.0664 6.62952 69.3032 8.26589 69.8921C9.16565 70.216 9.55126 68.7928 8.66139 68.4738L8.66634 68.4689Z" fill="#333333"/>
<path d="M36.1633 26.414C36.2325 26.4581 36.3018 26.5023 36.366 26.5514C36.4006 26.5759 36.4303 26.6005 36.4649 26.625C36.5044 26.6545 36.5786 26.7379 36.4501 26.6152C36.5588 26.7232 36.6923 26.8115 36.806 26.9146C36.9197 27.0176 37.0285 27.1305 37.1323 27.2434C37.1867 27.3023 37.2361 27.3661 37.2905 27.4299C37.3795 27.533 37.2262 27.3416 37.2806 27.4152C37.3053 27.4495 37.33 27.479 37.3548 27.5133C37.4437 27.636 37.5278 27.7636 37.6019 27.8961C37.6415 27.9648 37.681 28.0385 37.7157 28.1072C37.7354 28.1415 37.7503 28.1808 37.7651 28.2151C37.8096 28.3035 37.7601 28.2053 37.7453 28.171C37.7948 28.3231 37.859 28.4703 37.8986 28.6225C37.9183 28.6912 37.9332 28.7599 37.948 28.8335C37.9579 28.8728 37.9628 28.912 37.9727 28.9513C37.953 28.7894 38.0024 29.0985 37.9727 28.9513C37.9974 29.1525 38.0419 29.3243 38.1903 29.4715C38.3188 29.5991 38.5314 29.6973 38.7143 29.6875C39.0752 29.6728 39.5053 29.3587 39.4558 28.9513C39.3619 28.1661 39.095 27.4201 38.6302 26.7722C38.1655 26.1244 37.5822 25.5846 36.9098 25.1478C36.5835 24.9367 36.0743 25.0741 35.8964 25.4128C35.7036 25.7809 35.8123 26.1931 36.1633 26.4189V26.414Z" fill="#D6B4A5"/>
<path d="M47.4646 64.5426C47.0839 63.4432 47.4448 62.128 48.0727 60.8225C48.6165 59.6888 49.3778 58.5698 50.332 57.7109C51.3998 56.749 52.6061 56.111 53.7481 56.0226C54.4006 55.9687 55.0483 56.2779 55.2856 56.8815C55.5229 57.4852 55.1867 58.2753 54.5391 58.3391C55.0977 58.7661 55.7107 59.0704 56.3089 59.4434C56.9071 59.8164 57.4756 60.3268 57.5053 61.0286C57.535 61.7304 56.833 62.4813 56.1903 62.2016C56.5215 62.6531 56.7242 63.0997 56.7983 63.6494C56.8725 64.1991 56.6945 64.8763 56.1408 64.9941C56.0074 65.0236 55.8541 64.9745 55.7453 65.053C55.4734 65.2493 55.5871 65.6665 55.5871 66.0002C55.5871 66.4714 55.1966 66.918 54.7269 66.9621C54.2573 67.0063 53.8123 66.8149 53.3773 66.6235C53.5256 66.8885 53.318 67.0848 53.0757 67.2812C52.8335 67.4775 52.5764 67.6149 52.2699 67.6394C51.2466 67.7229 50.1441 67.5364 49.2888 66.9818C48.4336 66.4272 47.7958 65.5045 47.4646 64.5426Z" fill="#FFE6D9"/>
<path d="M48.1814 64.3462C47.8452 63.2517 48.2753 62.0935 48.7598 61.107C49.2443 60.1205 49.8573 59.193 50.6483 58.4273C51.4146 57.6814 52.3638 57.0286 53.4316 56.8078C53.7777 56.7341 54.2721 56.6802 54.5143 57.0041C54.7022 57.2495 54.6429 57.5734 54.3413 57.6274C53.6442 57.755 53.7085 58.6384 54.1633 58.9721C54.8357 59.4678 55.6415 59.7966 56.2842 60.3267C56.5017 60.5083 56.7785 60.7684 56.7637 61.0776C56.7538 61.2739 56.6055 61.5585 56.388 61.4898C55.7947 61.3033 55.1817 62.0444 55.5525 62.5695C55.8294 62.9622 56.1062 63.4333 56.0716 63.929C56.0666 64.0124 56.0617 64.1155 56.0172 64.194C55.9925 64.2333 55.9183 64.3118 56.0024 64.2627C55.7898 64.3805 55.5278 64.302 55.2954 64.4689C54.8604 64.783 54.8258 65.2835 54.8357 65.7743C54.8505 66.4712 54.2177 66.1915 53.753 65.9903C53.2092 65.7547 52.4429 66.1522 52.6654 66.8197C52.7395 66.6087 52.7049 66.5841 52.5616 66.751C52.4726 66.8197 52.3687 66.8688 52.26 66.8982C52.0326 66.9571 51.736 66.9228 51.5036 66.9129C50.9895 66.8835 50.4654 66.7657 50.0057 66.535C49.1257 66.0982 48.5176 65.2492 48.1864 64.3462C47.865 63.4628 46.4313 63.8456 46.7576 64.7388C47.3558 66.3682 48.5176 67.7227 50.2479 68.189C51.0339 68.4049 52.0375 68.5276 52.8236 68.2675C53.6096 68.0074 54.3759 67.2859 54.0991 66.432C53.7382 66.7068 53.3723 66.9866 53.0114 67.2614C53.8667 67.6344 54.8802 67.9877 55.6909 67.3203C55.9925 67.07 56.2051 66.7313 56.2941 66.3534C56.3336 66.1915 56.3336 66.0197 56.3287 65.8528C56.3188 65.7498 56.3138 65.6516 56.3089 65.5486C55.9529 65.7105 55.8936 65.7694 56.1457 65.7302C56.917 65.7645 57.4212 64.9204 57.525 64.2725C57.6585 63.4039 57.3322 62.5352 56.8379 61.8285C56.561 62.1867 56.2792 62.5499 56.0024 62.9082C57.3817 63.3499 58.5088 61.8383 58.1924 60.577C57.8167 59.0752 56.0419 58.5255 54.9197 57.701C54.8604 58.1476 54.8011 58.5991 54.7417 59.0457C56.2446 58.7758 56.4869 56.7783 55.4586 55.8557C54.2671 54.7759 52.4182 55.4189 51.2169 56.1403C49.7684 57.009 48.6165 58.3145 47.7958 59.777C46.9752 61.2395 46.2385 63.0505 46.7576 64.7437C47.0345 65.6467 48.4682 65.2639 48.1864 64.3511L48.1814 64.3462Z" fill="#333333"/>
<path d="M52.4528 59.5712C52.4331 59.5957 52.4133 59.6252 52.3935 59.6497C52.3243 59.743 52.3935 59.6497 52.4232 59.6105C52.3836 59.6644 52.3391 59.7135 52.2996 59.7675C52.2205 59.8657 52.1364 59.9589 52.0475 60.0522C51.8695 60.2387 51.6816 60.4202 51.4839 60.5871C51.4394 60.6264 51.3899 60.6607 51.3454 60.7C51.2762 60.754 51.4888 60.5969 51.385 60.6705C51.3603 60.6902 51.3306 60.7098 51.3059 60.7294C51.2021 60.8031 51.0983 60.8718 50.9895 60.9405C50.7621 61.0779 50.5248 61.2006 50.2825 61.3037L50.4605 61.23L50.4259 61.2448C50.2381 61.3233 50.0897 61.4018 49.981 61.5834C49.887 61.7404 49.8475 61.976 49.9068 62.1527C49.9661 62.3294 50.0749 62.5012 50.2479 62.5944C50.421 62.6877 50.6385 62.7416 50.8214 62.668C51.4394 62.4128 51.9881 62.084 52.5072 61.6619C52.9818 61.2742 53.3773 60.8178 53.7382 60.327C53.847 60.1798 53.8569 59.9246 53.8124 59.7577C53.7679 59.5908 53.6344 59.3994 53.4712 59.316C53.2982 59.2276 53.0906 59.1786 52.8978 59.2424C52.705 59.3062 52.5764 59.4191 52.4528 59.581V59.5712Z" fill="#333333"/>
</g>
<defs>
<clipPath id="clip0_4_16717">
<rect width="65" height="107" fill="white"/>
</clipPath>
</defs>
</svg>
