<svg width="320" height="540" viewBox="0 0 320 540" fill="none" xmlns="http://www.w3.org/2000/svg">
<g clip-path="url(#clip0_40_962)">
<path d="M72.4355 438.043C73.4974 438.642 74.493 438.86 75.4965 438.926C76.535 438.996 77.589 438.864 78.6936 439.136C79.4792 439.331 80.2571 439.767 80.9728 440.312C81.6418 440.817 82.2252 441.483 82.7736 442.133C83.3609 442.825 83.9559 443.498 84.3371 444.168C84.8194 445.024 85.185 445.966 85.4417 446.911C85.6984 447.861 85.7529 448.857 85.7762 449.837C85.7995 450.818 85.749 451.81 85.5273 452.767C85.3561 453.511 85.0139 454.219 84.6405 454.888C84.2632 455.569 83.8509 456.238 83.2014 456.666C82.5674 457.083 81.7545 457.137 80.9961 457.079C80.2377 457.02 79.4987 456.779 79.032 456.149" fill="#333333"/>
<path d="M72.7312 437.537C73.7619 438.101 74.851 438.339 76.0178 438.362C77.1885 438.385 78.3631 438.339 79.4754 438.775C81.5563 439.596 83.1004 441.44 84.3955 443.199C85.7996 445.106 86.3052 447.514 86.3558 449.837C86.3791 451.005 86.3247 452.226 85.9707 453.347C85.6518 454.359 85.119 455.382 84.4772 456.227C83.7577 457.172 82.7931 457.651 81.6107 457.682C80.51 457.713 79.3393 457.464 78.6237 456.565C78.1608 455.982 78.9815 455.153 79.4482 455.74C80.0005 456.433 80.8484 456.55 81.6885 456.511C82.6414 456.472 83.2793 455.978 83.781 455.195C84.3255 454.347 84.7961 453.425 85.0023 452.433C85.2084 451.44 85.2162 450.335 85.1734 449.285C85.0879 447.253 84.4967 445.183 83.2209 443.569C82.0191 442.047 80.6423 440.3 78.7015 439.74C77.6085 439.424 76.4612 439.592 75.3449 439.498C74.2092 439.401 73.1513 439.094 72.1478 438.545C71.4905 438.183 72.0778 437.175 72.7351 437.537H72.7312Z" fill="#333333"/>
<path d="M60.5221 511.638C61.6228 511.63 62.6768 511.719 63.727 511.747C64.8043 511.774 65.87 511.712 66.9435 511.723C68.017 511.735 69.0827 511.684 70.1834 511.638C70.1912 512.26 70.1173 514.144 70.1328 515.011C70.1328 515.101 70.2184 515.179 70.2184 515.245C70.2262 515.739 70.3234 516.253 70.5529 516.646C70.8679 517.183 71.3619 517.443 71.8364 517.708C72.3109 517.973 72.9098 518.498 72.8359 519.163C71.9842 519.222 71.0702 519.163 70.2184 519.195C69.3627 519.23 68.5109 519.257 67.6553 519.268C66.7996 519.284 65.9478 519.362 65.0922 519.354C64.2365 519.346 63.3808 519.389 62.5252 519.362C62.1323 519.35 61.7901 519.136 61.4595 518.86C60.9616 518.443 60.8099 517.669 60.6971 516.91C60.6855 516.836 60.561 516.774 60.5532 516.689C60.491 516.054 60.4482 515.089 60.456 514.144C60.4638 513.151 60.5727 512.198 60.5182 511.634L60.5221 511.638Z" fill="#333333"/>
<path d="M60.5223 511.054C62.0975 511.054 63.6649 511.186 65.2401 511.159C66.8892 511.128 68.5344 511.124 70.1796 511.058C70.4986 511.046 70.7592 511.334 70.763 511.642C70.7708 512.241 70.7436 512.836 70.7319 513.436C70.7242 513.794 70.7164 514.152 70.7125 514.509C70.7086 514.867 70.7825 515.155 70.8136 515.498C70.8525 515.922 70.977 516.334 71.2803 516.642C71.5526 516.914 71.9104 517.066 72.2332 517.268C72.9022 517.689 73.4506 518.338 73.4195 519.167C73.4078 519.498 73.1628 519.732 72.8361 519.751C71.9649 519.802 71.0898 519.751 70.2185 519.782C69.3045 519.813 68.3905 519.837 67.4726 519.86C66.5547 519.883 65.6446 519.938 64.7267 519.942C63.8944 519.942 62.8948 520.109 62.0858 519.883C61.4013 519.693 60.7945 519.152 60.5067 518.51C60.3628 518.194 60.2772 517.864 60.2111 517.521C60.1722 517.323 60.1567 517.226 60.0905 517.066C60.0166 516.891 59.9777 516.755 59.9583 516.56C59.8727 515.7 59.8572 514.825 59.8766 513.961C59.8922 513.186 59.9972 512.408 59.9388 511.634C59.8805 510.86 61.0473 510.887 61.1057 511.634C61.164 512.381 61.0707 513.062 61.0473 513.774C61.024 514.552 61.0434 515.338 61.094 516.117C61.1018 516.237 61.2301 516.716 61.0707 516.424C61.1446 516.564 61.2107 516.595 61.2612 516.751C61.3701 517.082 61.3663 517.447 61.4752 517.786C61.7124 518.514 62.253 518.778 62.9842 518.782C64.6372 518.798 66.2825 518.708 67.9316 518.673C68.7522 518.658 69.569 518.619 70.3897 518.595C71.2064 518.572 72.0232 518.615 72.8361 518.568L72.2527 519.152C72.2838 518.393 71.2803 518.105 70.7825 517.728C70.0124 517.148 69.7829 516.397 69.6468 515.486C69.6001 515.163 69.5418 514.883 69.5457 514.552C69.5457 514.198 69.5573 513.844 69.5651 513.49C69.5807 512.871 69.604 512.253 69.6001 511.63L70.1835 512.214C68.5344 512.284 66.8892 512.288 65.244 512.315C63.6688 512.342 62.1014 512.21 60.5261 512.21C59.7755 512.21 59.7755 511.042 60.5261 511.042L60.5223 511.054Z" fill="#333333"/>
<path d="M70.9456 495.419C70.9028 496.874 71.0817 496.878 71.039 498.334C70.9962 499.789 70.8173 499.785 70.7745 501.24C70.7317 502.696 70.8873 502.7 70.8445 504.155C70.8017 505.61 70.7628 505.61 70.72 507.066C70.6772 508.521 70.7122 508.521 70.6695 509.98C70.6267 511.439 70.4828 511.432 70.44 512.891C70.3972 514.35 70.4594 514.35 70.4167 515.805C70.405 516.183 70.1561 516.584 69.8332 516.584C68.3436 516.584 68.3436 516.475 66.8579 516.475C65.3721 516.475 65.3682 516.49 63.8786 516.49C62.3889 516.49 62.3889 516.408 60.8993 516.408C60.5687 516.408 60.2575 516.171 60.2575 515.782C60.2575 514.299 60.3003 514.299 60.3003 512.817C60.3003 511.334 60.3314 511.334 60.3314 509.852C60.3314 508.369 60.2459 508.369 60.2459 506.887C60.2459 505.404 60.3626 505.404 60.3626 503.918C60.3626 502.431 60.1953 502.435 60.1953 500.952C60.1953 499.47 60.3859 499.47 60.3859 497.983C60.3859 496.497 60.2303 496.501 60.2303 495.014" fill="#95BECE"/>
<path d="M71.5291 495.419C71.5097 496.279 71.6341 497.127 71.6302 497.987C71.6263 498.847 71.463 499.723 71.393 500.598C71.323 501.474 71.3852 502.295 71.428 503.151C71.4708 504.05 71.4046 504.957 71.358 505.855C71.2646 507.63 71.3813 509.431 71.1713 511.198C71.0663 512.101 71.0079 512.992 71.0118 513.902C71.0118 514.241 71.0196 514.58 71.0196 514.914C71.0196 515.44 71.0779 516.039 70.8212 516.517C70.3428 517.397 69.281 517.183 68.4409 517.124C67.5347 517.062 66.6285 517.058 65.7222 517.066C64.816 517.074 63.9059 517.093 62.9996 517.066C62.6846 517.054 62.3735 517.035 62.0584 517.019C61.5995 517 61.0744 517.07 60.6271 516.965C59.4914 516.7 59.6703 515.443 59.6937 514.552C59.717 513.661 59.7131 512.716 59.7287 511.797C59.7403 510.933 59.7676 510.066 59.7442 509.202C59.7248 508.311 59.6548 507.427 59.6703 506.536C59.6859 505.548 59.8026 504.571 59.7792 503.583C59.7559 502.595 59.6042 501.723 59.6159 500.781C59.6275 499.84 59.8026 498.929 59.8065 497.991C59.8065 496.999 59.6548 496.018 59.6509 495.022C59.6509 494.271 60.8138 494.271 60.8177 495.022C60.8216 495.773 60.9305 496.575 60.9616 497.357C60.9927 498.139 60.9344 498.952 60.8449 499.758C60.6582 501.454 61.0161 503.135 60.9305 504.836C60.8877 505.696 60.8216 506.54 60.8371 507.404C60.8488 508.163 60.9149 508.918 60.9188 509.673C60.9305 511.33 60.8955 512.996 60.8566 514.653C60.8527 514.875 60.7282 515.712 60.876 515.821C60.9849 515.903 61.3856 515.833 61.5372 515.836C61.7589 515.84 61.9806 515.848 62.2023 515.86C63.0269 515.903 63.8475 515.914 64.6682 515.91C65.4889 515.906 66.3562 515.887 67.2002 515.899C67.9159 515.91 68.6237 515.988 69.3394 516C69.6116 516.004 69.7711 516.109 69.8333 515.809C69.88 515.595 69.845 515.319 69.8489 515.101C69.8489 514.735 69.845 514.373 69.8411 514.008C69.8372 513.163 69.8606 512.323 69.9656 511.486C70.1756 509.813 70.0939 508.112 70.16 506.427C70.1989 505.505 70.2728 504.583 70.2689 503.657C70.265 502.731 70.1523 501.82 70.2028 500.894C70.2534 499.968 70.4401 499.077 70.4556 498.155C70.4712 497.232 70.3351 496.337 70.3584 495.419C70.3778 494.668 71.5447 494.668 71.5252 495.419H71.5291Z" fill="#333333"/>
<path d="M53.8168 511.657C54.9175 511.649 55.9638 511.568 57.0139 511.591C58.0913 511.618 59.1531 511.646 60.2266 511.657C61.3 511.669 62.3619 511.684 63.4626 511.638C63.4703 512.26 63.4859 514.14 63.5014 515.008C63.5014 515.097 63.412 515.179 63.412 515.245C63.4198 515.739 63.5365 516.288 63.7698 516.681C64.0849 517.218 64.7072 517.331 65.1817 517.595C65.6562 517.86 66.1462 518.436 66.0723 519.097C65.2206 519.156 64.3532 519.183 63.5014 519.222C62.6458 519.257 61.794 519.226 60.9383 519.241C60.0827 519.257 59.2309 519.23 58.3752 519.222C57.5196 519.214 56.6639 519.288 55.8121 519.261C55.4193 519.249 55.0187 519.206 54.6842 518.926C54.1863 518.51 54.0969 517.665 53.9841 516.907C53.9724 516.833 53.8207 516.774 53.813 516.689C53.7507 516.054 53.7235 515.089 53.7313 514.144C53.7391 513.151 53.8674 512.214 53.813 511.649L53.8168 511.657Z" fill="#333333"/>
<path d="M53.8169 511.074C55.3921 511.058 56.9518 511.011 58.527 511.046C60.1722 511.085 61.8213 511.12 63.4665 511.058C63.7855 511.046 64.0461 511.334 64.0499 511.642C64.0577 512.264 64.0655 512.887 64.0694 513.509C64.0733 513.875 64.0772 514.237 64.0811 514.603C64.0849 514.945 63.9799 515.296 64.0305 515.626C64.0849 515.988 64.19 516.389 64.4933 516.615C64.7967 516.84 65.1623 516.914 65.4774 517.093C66.193 517.506 66.6986 518.261 66.6597 519.101C66.6442 519.432 66.403 519.665 66.0763 519.685C64.2405 519.802 62.4125 519.821 60.5767 519.829C59.6627 519.833 58.7448 519.794 57.8308 519.809C56.979 519.829 56.065 519.946 55.221 519.782C54.4781 519.642 53.9764 519.156 53.7158 518.459C53.5991 518.148 53.5408 517.821 53.4902 517.494C53.4358 517.148 53.2569 516.91 53.2219 516.556C53.1402 515.696 53.1363 514.821 53.1557 513.957C53.1713 513.19 53.2919 512.416 53.2335 511.649C53.1752 510.883 54.3459 510.902 54.4003 511.649C54.4548 512.354 54.3498 513.066 54.3264 513.774C54.3031 514.552 54.3148 515.338 54.3576 516.117C54.3614 516.218 54.3692 516.319 54.377 516.416C54.4003 516.599 54.3926 516.603 54.3537 516.42C54.4392 516.548 54.5015 516.599 54.552 516.747C54.6532 517.054 54.6454 517.428 54.7232 517.747C54.7893 518.019 54.871 518.338 55.1121 518.51C55.3805 518.7 55.7772 518.673 56.0922 518.677C56.9168 518.685 57.7413 518.626 58.5659 518.634C59.3904 518.642 60.2111 518.658 61.0357 518.65C62.7198 518.63 64.3961 518.619 66.0802 518.51L65.4968 519.093C65.5396 518.198 64.6295 518.031 64.011 517.677C63.2565 517.241 62.957 516.447 62.8637 515.618C62.8248 515.272 62.922 514.984 62.9181 514.65C62.9142 514.288 62.9103 513.93 62.9065 513.568C62.8987 512.922 62.8948 512.28 62.887 511.634L63.4704 512.218C61.8252 512.28 60.1761 512.241 58.5309 512.206C56.8857 512.171 55.3921 512.218 53.8208 512.233C53.0702 512.241 53.0702 511.074 53.8208 511.066L53.8169 511.074Z" fill="#333333"/>
<path d="M64.4118 495.423C64.369 496.878 64.2017 496.874 64.1589 498.33C64.1162 499.785 64.229 499.789 64.1862 501.244C64.1434 502.7 64.1162 502.7 64.0734 504.155C64.0306 505.61 64.0034 505.61 63.9606 507.066C63.9178 508.521 64.0034 508.525 63.9606 509.98C63.9178 511.435 63.9295 511.439 63.8867 512.895C63.8439 514.35 63.8672 514.354 63.8245 515.809C63.8128 516.187 63.4394 516.556 63.1166 516.556C61.6269 516.556 61.6269 516.591 60.1412 516.591C58.6554 516.591 58.6516 516.385 57.1619 516.385C55.6723 516.385 55.6723 516.478 54.1826 516.478C53.852 516.478 53.5292 516.171 53.5292 515.782C53.5292 514.299 53.5603 514.299 53.5603 512.817C53.5603 511.334 53.5992 511.334 53.5992 509.852C53.5992 508.369 53.5098 508.369 53.5098 506.887C53.5098 505.404 53.5487 505.404 53.5487 503.918C53.5487 502.431 53.6848 502.435 53.6848 500.952C53.6848 499.47 53.5137 499.47 53.5137 497.983C53.5137 496.501 53.5409 496.501 53.5409 495.014" fill="#95BECE"/>
<path d="M64.9951 495.423C64.964 496.283 64.8007 497.123 64.7579 497.98C64.7151 498.836 64.7773 499.68 64.7812 500.536C64.7929 502.303 64.6723 504.089 64.5906 505.851C64.509 507.614 64.5556 509.416 64.5167 511.198C64.4973 512.101 64.4662 513.004 64.4506 513.902C64.4467 514.222 64.4428 514.541 64.4351 514.86C64.4273 515.334 64.4934 515.914 64.2756 516.35C63.7855 517.331 62.6965 517.132 61.7786 517.152C60.8607 517.171 59.9817 517.218 59.0949 517.124C58.2315 517.035 57.403 516.949 56.5318 516.973C55.7267 516.992 54.8632 517.156 54.0659 517.047C52.8719 516.883 52.9458 515.677 52.9613 514.759C52.9769 513.84 52.9769 512.941 52.9924 512.031C53.008 511.12 53.0352 510.291 53.0236 509.42C53.0119 508.548 52.938 507.731 52.938 506.887C52.938 505.898 52.973 504.91 52.9769 503.918C52.9808 502.925 53.1169 501.945 53.113 500.952C53.1091 499.96 52.9458 499.038 52.9419 498.073C52.9341 497.053 52.9691 496.034 52.9691 495.014C52.9691 494.263 54.1359 494.263 54.1359 495.014C54.1359 496.637 54.0854 498.236 54.2332 499.851C54.3148 500.727 54.2837 501.61 54.2059 502.482C54.1281 503.353 54.1476 504.194 54.132 505.05C54.097 506.715 54.1982 508.369 54.1943 510.035C54.1904 511.7 54.1515 513.256 54.1281 514.871C54.1281 515.085 54.1243 515.299 54.1243 515.513C54.1243 515.813 54.0893 515.871 54.3732 515.895C54.7699 515.926 55.1938 515.879 55.5906 515.856C56.4462 515.805 57.3136 515.762 58.1692 515.844C59.7405 516 61.3585 516.109 62.9415 515.973C63.4121 515.934 63.2643 515.424 63.2721 515.039C63.2799 514.696 63.2838 514.354 63.2877 514.011C63.3032 513.155 63.3305 512.295 63.3499 511.439C63.3849 509.747 63.3421 508.05 63.4083 506.361C63.4783 504.54 63.5949 502.719 63.6183 500.898C63.6299 499.98 63.5522 499.069 63.5872 498.151C63.6222 497.232 63.8011 496.341 63.8322 495.427C63.8594 494.676 65.0262 494.676 64.999 495.427L64.9951 495.423Z" fill="#333333"/>
<path d="M82.7076 491.018C83.5943 491.306 84.5667 491.322 85.4962 491.236C86.4258 491.147 87.3165 490.843 88.1371 490.396C88.6194 490.131 89.1212 489.789 89.2184 489.248C89.3156 488.707 88.74 488.088 88.2499 488.333C88.7906 488.166 89.3234 487.777 89.4168 487.216C89.5101 486.656 88.9034 486.072 88.3977 486.325C88.8022 486.045 89.0784 485.504 88.9539 485.03C88.8295 484.551 88.1449 484.158 87.7521 484.458C88.3627 483.994 87.7132 483.247 87.1765 483.08C86.5036 482.87 85.7257 483.364 85.0256 483.364C85.2395 483.224 85.4068 482.963 85.3912 482.71C85.364 482.337 84.9284 482.076 84.5667 482.154C84.205 482.232 83.9249 482.547 83.6605 482.808C82.9331 483.531 82.2953 484.345 81.5874 485.088" fill="#FFE6D9"/>
<path d="M82.8629 490.458C84.0919 490.831 85.4843 490.785 86.7017 490.388C87.2424 490.213 87.8258 489.971 88.2769 489.621C88.4131 489.516 88.6114 489.36 88.6309 489.17C88.6542 488.952 88.5181 488.851 88.4014 488.894L88.0902 487.769C88.3508 487.679 88.7009 487.516 88.7981 487.232C88.8681 487.034 88.7748 486.8 88.5453 486.886C88.273 486.991 87.9619 486.792 87.8569 486.547C87.7363 486.259 87.8608 485.998 88.0941 485.819C88.2575 485.695 88.4559 485.403 88.382 485.181C88.3431 485.057 88.1564 484.886 88.0397 484.96C87.4835 485.298 86.8301 484.493 87.3318 484.041C87.4291 483.956 87.4135 483.921 87.2268 483.765C87.0557 483.625 86.8651 483.594 86.6512 483.617C86.095 483.675 85.5894 483.924 85.0254 483.944C84.3836 483.971 84.3175 483.177 84.7298 482.854C84.8426 482.769 84.8115 482.769 84.7415 482.726C84.6287 482.66 84.442 482.854 84.3759 482.913C84.1036 483.146 83.8625 483.422 83.6213 483.683C83.069 484.279 82.5517 484.905 81.9956 485.497C81.4783 486.045 80.6537 485.216 81.171 484.672C81.6883 484.127 82.1745 483.539 82.6879 482.979C83.1274 482.496 83.633 481.835 84.2786 481.625C84.8504 481.438 85.5388 481.66 85.8344 482.205C86.1806 482.835 85.8344 483.469 85.321 483.866L85.0254 482.777C85.9783 482.738 86.834 482.131 87.7558 482.71C88.5064 483.181 88.9109 484.201 88.1603 484.866L87.4524 483.948C88.1525 483.524 89.0704 483.928 89.4165 484.629C89.821 485.446 89.3387 486.321 88.6853 486.827L88.2342 485.761C89.0743 485.438 89.9572 486.185 89.9961 487.034C90.0388 487.979 89.2026 488.617 88.3975 488.894C87.6819 489.139 87.394 488.026 88.0864 487.769C88.9031 487.462 89.7355 488.201 89.7938 489.01C89.8599 489.897 89.1248 490.508 88.4208 490.898C86.6667 491.863 84.4731 492.166 82.544 491.582C81.8283 491.364 82.1317 490.236 82.8551 490.458H82.8629Z" fill="#333333"/>
<path d="M53.0038 480.644C53.3072 479.671 53.8711 478.788 54.3184 477.885C54.7657 476.982 55.2597 476.06 55.8897 475.29C56.5509 474.484 57.2822 473.78 58.1378 473.259C58.9857 472.741 59.9425 472.457 61.0004 472.317C61.9261 472.196 62.9062 472.262 64.003 472.504C65.1932 472.768 66.6167 473.122 67.8924 473.842C68.1025 473.889 67.8146 473.492 68.0286 473.469C68.3203 473.831 68.5692 474.294 68.8881 474.648C69.6738 475.2 70.3972 475.784 71.0545 476.438C71.7118 477.091 72.3925 477.761 72.9837 478.492C73.5748 479.224 74.0455 480.041 74.6211 480.788C75.1967 481.535 75.8074 482.24 76.418 482.963C76.8769 483.504 77.507 483.983 78.1177 484.36C78.7828 484.765 79.4984 485.065 80.2141 484.784C80.6108 484.629 81.0347 484.208 81.4237 484.384C81.6842 484.5 81.8087 484.843 81.9176 485.107C82.3182 486.092 82.6527 487.104 83.0533 488.088C83.4539 489.073 83.9712 490.01 84.3718 490.991C84.4574 491.201 84.4691 491.458 84.3835 491.668C84.2979 491.878 84.084 491.999 83.8779 492.092C82.9522 492.497 81.9954 492.831 81.0386 493.158C80.0779 493.485 79.1095 493.742 78.1021 493.87C77.0948 493.999 76.0835 494.018 75.0917 493.831C74.0921 493.641 73.1859 493.221 72.3575 492.625C72.867 493.007 72.1047 496.193 71.6263 496.641C71.2995 496.944 70.7861 497.022 70.3389 497.061C69.3276 497.147 68.3125 497.17 67.2974 497.209C66.2822 497.248 65.271 497.166 64.2558 497.155C63.2407 497.143 62.2295 497.127 61.2182 497.069C60.207 497.011 59.1996 496.913 58.1923 496.804C57.1032 496.688 56.0687 496.73 55.1819 496.559C54.0656 496.341 53.0894 495.979 52.4982 495.209C52.012 494.575 51.8331 493.61 51.8448 492.283C51.8525 491.298 51.8642 490.31 51.8953 489.322C51.9264 488.333 51.8992 487.341 51.9848 486.36C52.0704 485.38 52.2454 484.403 52.4282 483.43C52.5954 482.524 52.7277 481.562 53.0116 480.648L53.0038 480.644Z" fill="#FCFCFC"/>
<path d="M52.44 480.489C52.7239 479.625 53.1595 478.839 53.5834 478.041C53.9802 477.29 54.338 476.519 54.8008 475.803C55.6798 474.445 56.9128 473.161 58.3946 472.461C59.9076 471.741 61.6189 471.546 63.268 471.784C64.077 471.901 64.886 472.095 65.6717 472.325C66.1034 472.449 66.5312 472.593 66.9474 472.761C67.1536 472.842 67.3597 472.932 67.5619 473.025C67.6358 473.06 68.1492 473.255 67.947 473.263L67.4414 473.55C67.383 473.64 67.3675 474.049 67.3558 473.613C67.3558 473.512 67.3675 473.418 67.4064 473.321C67.4919 473.095 67.6475 472.998 67.8653 472.908C68.1259 472.803 68.3787 472.986 68.5226 473.177C68.721 473.434 68.8843 473.714 69.0827 473.975C69.3044 474.27 69.6 474.453 69.8917 474.675C70.4401 475.095 70.9652 475.543 71.4552 476.029C72.412 476.975 73.3338 477.94 74.1 479.049C74.909 480.22 75.7686 481.325 76.6942 482.411C77.1143 482.901 77.5771 483.321 78.1139 483.679C78.6506 484.037 79.3546 484.504 80.0236 484.228C80.5409 484.014 80.9609 483.609 81.5638 483.819C82.1316 484.018 82.3339 484.617 82.5322 485.127C83.0612 486.45 83.5085 487.796 84.1191 489.084C84.5664 490.022 85.601 491.532 84.5042 492.384C84.0452 492.742 83.3957 492.917 82.8551 493.119C82.1861 493.372 81.5132 493.614 80.8326 493.832C77.9077 494.773 74.6601 494.972 72.0464 493.127C72.2837 492.82 72.517 492.516 72.7543 492.209C73.3027 492.703 73.0849 493.769 72.9799 494.392C72.8476 495.178 72.6571 496.088 72.2292 496.777C71.5797 497.828 69.8606 497.684 68.8027 497.731C67.1808 497.801 65.5745 497.746 63.9565 497.731C62.3074 497.711 60.6699 497.633 59.0286 497.474C57.5701 497.33 56.0493 497.373 54.618 497.034C53.4551 496.758 52.261 496.197 51.7165 495.069C51.1253 493.843 51.2381 492.396 51.2576 491.077C51.2809 489.294 51.2342 487.481 51.452 485.711C51.5609 484.835 51.7204 483.967 51.8799 483.1C52.0393 482.232 52.1755 481.345 52.4322 480.489C52.65 479.773 53.774 480.076 53.5562 480.8C53.1595 482.115 52.965 483.508 52.7433 484.862C52.51 486.286 52.4944 487.699 52.4633 489.139C52.4322 490.578 52.3155 491.921 52.4438 493.291C52.5411 494.337 52.93 495.139 53.9179 495.59C55.0342 496.1 56.2593 496.092 57.4573 496.166C58.8964 496.256 60.3277 496.454 61.7706 496.516C63.2253 496.579 64.6838 496.594 66.1384 496.629C67.5931 496.664 68.9932 496.629 70.3856 496.474C70.8563 496.419 71.1519 496.353 71.3113 496.026C71.4708 495.699 71.5758 495.299 71.673 494.933C71.7819 494.512 71.8753 494.081 71.9103 493.649C71.9258 493.481 71.9375 493.306 71.922 493.139C71.9064 492.96 71.9025 493.186 71.9064 493.03C71.9103 492.917 71.9725 493.084 71.9258 493.046C71.4397 492.61 72.0853 491.742 72.6337 492.127C74.7962 493.653 77.371 493.606 79.8408 492.921C81.0387 492.586 82.2289 492.158 83.3723 491.676C83.6096 491.575 83.8119 491.547 83.8274 491.283C83.843 491.034 83.5551 490.625 83.4501 490.399C83.174 489.812 82.8862 489.228 82.6295 488.633C82.3728 488.037 82.155 487.446 81.9333 486.847C81.7116 486.248 81.5599 485.578 81.2371 485.049C81.1165 484.851 81.2448 484.948 81.1476 484.952C81.0504 484.956 80.9298 485.065 80.8481 485.107C80.6342 485.228 80.4203 485.345 80.1792 485.411C79.5841 485.574 78.9773 485.45 78.425 485.205C77.2699 484.695 76.3559 483.831 75.5508 482.882C74.7029 481.885 73.9172 480.87 73.1782 479.792C72.377 478.621 71.3969 477.597 70.3662 476.621C69.8722 476.15 69.3394 475.722 68.7871 475.321C68.2192 474.912 67.9198 474.321 67.4997 473.776C67.7175 473.866 67.9392 473.955 68.157 474.045L68.0987 474.068L68.4487 473.799C68.4682 473.515 68.4915 473.449 68.511 473.605C68.5265 473.675 68.5343 473.745 68.5343 473.815C68.5265 473.978 68.4604 474.146 68.3398 474.263C67.9937 474.593 67.6125 474.368 67.2663 474.189C66.5079 473.799 65.6911 473.539 64.8705 473.325C63.1941 472.889 61.5489 472.659 59.8531 473.146C58.2468 473.605 56.9167 474.765 55.9754 476.119C55.4892 476.819 55.1159 477.578 54.7269 478.333C54.3108 479.146 53.8324 479.928 53.5445 480.804C53.3112 481.516 52.1833 481.208 52.4205 480.492L52.44 480.489Z" fill="#333333"/>
<path d="M70.9381 472.574C71.4476 472.675 71.7899 473.146 71.9416 473.64C72.1827 474.426 72.2099 475.274 72.3811 476.08C72.5522 476.885 72.8361 477.683 72.8595 478.508C72.875 478.955 72.7739 479.407 72.6222 479.831C72.4705 480.255 72.1516 480.562 71.7315 480.71C71.1403 480.92 70.5219 480.71 69.9969 480.372C69.2851 479.909 68.6511 479.337 68.1144 478.675C67.5815 478.018 67.2276 477.243 66.9126 476.457C66.5975 475.671 66.2903 474.87 66.228 474.025" fill="#FCFCFC"/>
<path d="M71.0938 472.01C72.4824 472.364 72.6457 473.947 72.813 475.13C73.0113 476.551 73.6531 477.955 73.3536 479.403C73.2175 480.06 72.9374 480.683 72.3501 481.053C71.7784 481.411 71.0666 481.454 70.4365 481.232C69.188 480.788 68.0484 479.652 67.3211 478.57C66.8855 477.92 66.5821 477.193 66.2943 476.469C65.9754 475.671 65.7226 474.877 65.6448 474.021C65.5787 473.274 66.7455 473.278 66.8116 474.021C66.8777 474.765 67.1422 475.473 67.4184 476.161C67.679 476.811 67.9668 477.461 68.3674 478.041C68.7369 478.578 69.2192 479.049 69.7248 479.457C70.1798 479.823 70.8216 480.333 71.4517 480.185C72.1051 480.029 72.2607 479.236 72.2762 478.66C72.2957 477.979 72.074 477.317 71.9145 476.667C71.7395 475.955 71.6773 475.228 71.545 474.508C71.4556 474.014 71.3544 473.286 70.7827 473.142C70.0554 472.959 70.3626 471.831 71.0938 472.017V472.01Z" fill="#333333"/>
<path d="M64.5284 481.134C63.9023 480.745 63.2022 480.282 62.6615 479.652C62.1209 479.022 61.6736 478.337 61.3002 477.679C60.8296 476.85 60.6857 475.998 60.604 475.418C60.5885 475.301 60.4951 475.196 60.5496 475.091C60.6313 474.936 60.8296 474.967 61.0008 474.936C62.3387 474.706 63.5405 474.683 64.824 475.056C65.703 475.309 67.3016 475.142 67.9628 475.85C68.4256 476.344 68.3945 477.679 68.4645 478.302C68.5773 479.321 68.4451 480.43 67.6672 481.092C66.6832 481.928 65.6097 481.804 64.5284 481.131V481.134Z" fill="#FCFCFC"/>
<path d="M64.2368 481.64C63.385 481.111 62.6032 480.527 61.977 479.737C61.3508 478.948 60.7324 478.033 60.3824 477.056C60.2346 476.64 60.1373 476.208 60.0712 475.772C59.9973 475.305 59.834 474.838 60.3201 474.519C60.6702 474.29 61.3314 474.298 61.7359 474.255C62.2493 474.196 62.7666 474.177 63.2839 474.208C64.159 474.263 64.9796 474.547 65.847 474.636C66.5898 474.71 67.4222 474.753 68.06 475.185C68.7407 475.64 68.8807 476.43 68.9624 477.193C69.0441 477.955 69.1374 478.741 69.0479 479.496C68.9196 480.566 68.3751 481.504 67.3833 481.987C66.3254 482.504 65.2013 482.228 64.2329 481.648C63.5911 481.263 64.1745 480.251 64.8202 480.64C65.3802 480.979 66.0414 481.255 66.6949 481.018C67.3016 480.796 67.6867 480.302 67.8345 479.687C67.9706 479.127 67.8889 478.562 67.85 477.994C67.815 477.488 67.8267 476.928 67.6361 476.453C67.4766 476.056 67.0021 475.975 66.6248 475.905C66.0881 475.807 65.5397 475.796 65.003 475.706C64.3262 475.589 63.6961 475.391 62.9999 475.372C62.6227 475.36 62.2454 475.379 61.872 475.414C61.6814 475.434 61.4908 475.461 61.3003 475.488C61.1991 475.508 61.098 475.523 60.9969 475.535C60.8102 475.578 60.8413 475.523 61.0902 475.368V475.056C61.2419 475.527 61.2691 476.025 61.4131 476.5C61.5959 477.103 61.9187 477.64 62.2571 478.165C62.5954 478.691 62.9533 479.177 63.3966 479.601C63.8245 480.01 64.3145 480.333 64.8124 480.644C65.4464 481.041 64.863 482.053 64.2251 481.652L64.2368 481.64Z" fill="#333333"/>
<path d="M44.5643 455.752C44.5059 456.717 44.4165 457.674 44.4904 458.608C44.5643 459.542 44.7587 460.507 44.9688 461.429C45.1827 462.367 45.4899 463.27 45.8283 464.153C46.1667 465.036 46.614 465.885 47.0768 466.714C47.5397 467.542 47.9364 468.43 48.512 469.188C49.0876 469.947 49.7255 470.671 50.4061 471.34C51.0829 472.009 51.8219 472.632 52.5881 473.2C53.3543 473.768 54.2411 474.142 55.0812 474.593C55.9213 475.045 56.7109 475.605 57.6132 475.932C58.5 476.255 59.4607 476.379 60.4058 476.574C61.3276 476.765 62.2688 476.874 63.2334 476.932C64.1979 476.99 65.1547 477.119 66.0921 477.041C67.0528 476.963 67.9784 476.691 68.8963 476.477C69.8298 476.263 70.7283 475.955 71.6073 475.613C72.4863 475.27 73.4275 474.994 74.2559 474.527C75.0883 474.056 75.8273 473.438 76.5779 472.858C77.3325 472.274 78.0987 471.694 78.7599 471.013C79.4211 470.332 79.9384 469.519 80.5023 468.749C81.0624 467.982 81.6575 467.231 82.1086 466.387C82.5598 465.542 82.8515 464.643 83.1782 463.737C83.5049 462.83 83.7655 461.939 83.9561 460.997C84.1467 460.056 84.2634 459.137 84.3217 458.172C84.38 457.207 84.415 456.258 84.3373 455.32C84.2595 454.382 84.1661 453.406 83.96 452.483C83.7538 451.561 83.4505 450.635 83.1121 449.748C82.7737 448.861 82.3809 447.973 81.9181 447.145C81.4552 446.316 80.9029 445.522 80.3273 444.767C79.7517 444.012 79.0671 443.343 78.3865 442.674C77.7058 442.004 76.9552 441.436 76.189 440.868C75.4228 440.3 74.641 439.782 73.8009 439.331C72.9608 438.88 72.1168 438.479 71.2144 438.152C70.3276 437.829 69.4331 437.51 68.488 437.315C67.5428 437.121 66.6288 436.915 65.6643 436.856C64.6997 436.798 63.7351 436.817 62.7978 436.891C61.8371 436.969 60.8803 437.094 59.9585 437.308C59.0367 437.522 58.1577 437.961 57.2748 438.304C56.3919 438.646 55.4896 438.989 54.665 439.455C53.8405 439.922 53.0548 440.479 52.3003 441.059C51.5457 441.638 50.764 442.203 50.0989 442.888C49.4338 443.572 48.971 444.425 48.4109 445.199C47.8508 445.966 47.3374 446.755 46.8901 447.6C46.4428 448.444 46.0345 449.285 45.7116 450.191C45.3888 451.098 45.0932 451.981 44.8987 452.923C44.7043 453.865 44.6265 454.791 44.5682 455.756L44.5643 455.752Z" fill="#FFE6D9"/>
<path d="M45.1473 455.752C45.0811 456.826 44.9917 457.896 45.1084 458.97C45.2134 459.951 45.4234 460.935 45.684 461.885C46.213 463.83 47.1192 465.542 48.0565 467.313C48.9705 469.041 50.2618 470.504 51.7359 471.776C52.4943 472.43 53.2839 473.006 54.1707 473.473C54.9952 473.901 55.8042 474.344 56.6132 474.803C57.4728 475.294 58.3479 475.582 59.3163 475.772C60.3159 475.971 61.3155 476.177 62.3306 476.278C63.3458 476.379 64.3687 476.473 65.3799 476.481C66.3912 476.488 67.3363 476.251 68.3047 476.017C69.2615 475.784 70.195 475.523 71.1168 475.177C72.0152 474.838 72.9604 474.558 73.8083 474.107C74.6795 473.644 75.4418 473.002 76.2197 472.403C76.9976 471.803 77.791 471.204 78.46 470.48C79.1289 469.757 79.6346 468.943 80.2063 468.169C80.7781 467.395 81.377 466.593 81.7971 465.698C82.6372 463.916 83.24 461.92 83.5434 459.974C84.1735 455.919 83.6018 451.834 81.7815 448.152C80.0274 444.608 76.9626 441.705 73.4971 439.837C71.7391 438.887 69.8488 438.195 67.8925 437.786C65.835 437.362 63.7969 437.319 61.7122 437.584C59.7053 437.837 57.8267 438.627 55.987 439.444C54.2135 440.23 52.5799 441.456 51.1175 442.724C50.3941 443.351 49.8651 444.074 49.3361 444.864C48.7994 445.666 48.2199 446.432 47.7337 447.269C46.7302 448.989 45.9524 450.868 45.509 452.814C45.2912 453.783 45.2056 454.767 45.1434 455.756C45.0967 456.503 43.9299 456.507 43.9766 455.756C44.1127 453.592 44.525 451.549 45.3301 449.53C45.7229 448.549 46.1896 447.592 46.7264 446.678C47.2631 445.763 47.8582 444.985 48.4221 444.133C48.9861 443.281 49.5773 442.506 50.3552 441.841C51.1058 441.199 51.9109 440.596 52.7121 440.016C54.4702 438.747 56.4343 437.992 58.4335 437.191C60.4326 436.389 62.7429 436.195 64.8821 436.237C67.0096 436.28 69.1176 436.778 71.109 437.494C75.0295 438.907 78.67 441.526 81.1437 444.895C83.6562 448.316 85.0214 452.573 84.9514 456.822C84.9125 458.993 84.6286 461.149 83.9596 463.215C83.6329 464.219 83.2828 465.235 82.8394 466.196C82.396 467.157 81.7387 468.025 81.1048 468.893C80.5252 469.679 79.9963 470.511 79.339 471.235C78.6233 472.021 77.7638 472.659 76.9237 473.309C76.0835 473.959 75.3096 474.621 74.3955 475.107C73.5049 475.582 72.5286 475.877 71.5913 476.231C70.5878 476.613 69.5688 476.901 68.5264 477.158C67.488 477.411 66.4534 477.648 65.3799 477.64C63.2641 477.625 61.1638 477.309 59.0947 476.909C58.0601 476.706 57.0955 476.403 56.1737 475.889C55.3142 475.41 54.4585 474.932 53.5834 474.477C51.7281 473.512 50.1179 472.021 48.7722 470.434C48.0993 469.64 47.5354 468.815 47.0492 467.896C46.563 466.978 46.0263 466.06 45.5984 465.103C44.7467 463.192 44.1944 461.134 43.9532 459.052C43.8249 457.947 43.9143 456.849 43.9843 455.744C44.031 454.997 45.1978 454.993 45.1512 455.744L45.1473 455.752Z" fill="#333333"/>
<path d="M58.5386 462.573C58.4336 462.982 58.208 463.9 57.8424 465.029C57.6012 465.764 57.2123 466.558 56.8972 467.402C56.6016 468.2 56.3877 469.056 56.0455 469.811C55.6643 470.663 55.1665 471.391 54.762 472.013C54.093 473.041 53.529 473.589 52.9262 473.313C51.9733 472.877 51.0787 472.492 50.3786 471.85C49.6785 471.208 49.0795 470.426 48.4534 469.609C47.8972 468.881 47.4849 468.068 46.9598 467.332C46.4348 466.597 45.8163 465.935 45.3846 465.122C44.9529 464.309 44.7312 463.468 44.4045 462.639C44.0778 461.811 43.6266 461.025 43.3971 460.161C43.1677 459.297 43.121 458.398 43.0043 457.515C42.8876 456.631 42.7748 455.748 42.7826 454.857C42.7904 453.919 42.8059 452.974 42.9265 452.047C43.0471 451.121 43.3582 450.219 43.5994 449.32C43.8405 448.421 44.1089 447.518 44.4862 446.666C44.8634 445.814 45.2602 444.954 45.7813 444.176C46.3025 443.397 46.987 442.759 47.6482 442.09C48.2939 441.432 48.8851 440.677 49.6746 440.14C50.2853 439.728 50.9698 439.424 51.5804 439.008C52.3972 438.455 53.1634 437.821 54.0152 437.327C54.8825 436.825 55.8432 436.521 56.7728 436.152C57.7023 435.782 58.6086 435.342 59.5809 435.109C60.5533 434.875 61.5567 434.782 62.5485 434.685C63.5403 434.588 64.5399 434.56 65.5395 434.599C66.5391 434.638 67.5503 434.646 68.5304 434.829C69.2616 434.965 70.2534 435.245 71.358 435.607C72.2215 435.891 73.1433 436.28 74.0806 436.685C75.0179 437.09 75.8814 437.483 76.7098 437.973C77.5888 438.49 78.4251 439.055 79.0979 439.673C79.8875 440.397 80.502 441.21 80.8015 442.055C81.1165 442.946 81.0115 443.903 80.5215 444.899C80.0431 445.868 79.3274 446.685 78.4251 447.32C77.5227 447.954 76.562 448.409 75.5547 448.81C74.5473 449.211 73.4038 449.44 72.4548 449.74C71.6342 449.997 70.8407 450.331 70.0084 450.542C69.1761 450.752 68.3632 451.044 67.5231 451.226C66.683 451.409 65.8079 451.413 64.9677 451.577C64.1276 451.74 63.2953 451.962 62.4513 452.118C61.4556 452.304 60.6388 453.826 59.8065 454.472C58.7097 455.328 57.7568 456.293 56.7611 457.27C56.5511 457.484 56.3605 457.678 56.2827 457.966C56.0649 458.783 56.9906 459.577 57.6012 459.896C58.5891 460.414 58.9858 460.593 58.6708 461.908C58.6202 462.126 58.5775 462.344 58.5191 462.562L58.5386 462.573Z" fill="#333333"/>
<path d="M59.0987 462.729C58.8886 463.554 58.6708 464.375 58.4025 465.184C58.0602 466.208 57.574 467.177 57.2356 468.204C56.8973 469.231 56.5744 470.173 56.0416 471.083C55.5749 471.885 55.0654 472.811 54.3769 473.441C54.1163 473.683 53.813 473.877 53.459 473.943C52.9845 474.029 52.58 473.796 52.16 473.601C51.2071 473.161 50.3397 472.667 49.6007 471.908C48.1072 470.375 47.131 468.484 45.8319 466.803C45.1474 465.92 44.6495 465.017 44.2723 463.966C43.895 462.916 43.3816 461.888 43.0004 460.822C42.6193 459.756 42.5726 458.682 42.4404 457.604C42.2926 456.433 42.1914 455.289 42.2148 454.11C42.2614 451.83 42.8021 449.639 43.5527 447.491C43.9028 446.483 44.3539 445.487 44.8751 444.557C45.3963 443.627 46.0458 442.884 46.777 442.148C47.5121 441.409 48.185 440.576 49.0018 439.926C49.8186 439.277 50.8492 438.833 51.7244 438.206C52.5995 437.58 53.4513 436.915 54.4392 436.463C55.4271 436.012 56.45 435.669 57.4457 435.253C58.5191 434.806 59.5732 434.471 60.7283 434.307C61.8835 434.144 63.0658 434.027 64.2404 434.004C66.4535 433.961 68.6005 434.14 70.7202 434.79C72.8749 435.448 75.0685 436.331 77.0132 437.471C78.7712 438.502 80.607 439.852 81.346 441.833C82.0617 443.748 80.9649 445.849 79.5725 447.148C78.0439 448.573 75.9553 449.398 73.9678 449.935C71.8092 450.514 69.7128 451.417 67.5075 451.83C66.3563 452.048 65.2011 452.118 64.0538 452.374C63.552 452.487 62.9997 452.546 62.5135 452.709C62.1752 452.822 61.9107 453.09 61.6695 453.343C61.0939 453.95 60.6 454.585 59.9465 455.118C59.0637 455.838 58.2547 456.639 57.4457 457.437C57.1773 457.701 56.7378 457.997 56.8856 458.421C57.0139 458.791 57.399 459.095 57.7179 459.293C58.2508 459.624 58.8847 459.834 59.1998 460.418C59.5771 461.118 59.2737 462.013 59.0987 462.725C58.9236 463.437 57.7957 463.145 57.9746 462.414C58.0874 461.951 58.4569 461.137 57.9902 460.779C57.4223 460.344 56.765 460.149 56.2788 459.585C55.7538 458.978 55.4698 458.157 55.9055 457.414C56.131 457.028 56.5005 456.725 56.8156 456.413C57.2006 456.036 57.5857 455.659 57.9785 455.293C58.6436 454.674 59.4059 454.149 60.0088 453.472C60.5222 452.892 60.9967 452.23 61.6695 451.818C61.9846 451.627 62.3113 451.557 62.6691 451.483C63.2098 451.37 63.7465 451.242 64.2832 451.125C65.3645 450.892 66.4807 450.872 67.5581 450.623C69.6 450.149 71.5525 449.366 73.575 448.826C75.4419 448.328 77.4488 447.588 78.8607 446.211C79.5413 445.545 80.1092 444.693 80.3309 443.759C80.5526 442.825 80.2337 441.95 79.6891 441.179C78.5107 439.514 76.5309 438.432 74.7185 437.599C72.8049 436.72 70.8369 435.93 68.7755 435.471C67.7759 435.249 66.7569 435.23 65.7379 435.191C64.6099 435.152 63.4937 435.175 62.3735 435.288C61.2534 435.401 60.1955 435.506 59.1531 435.844C58.173 436.16 57.2395 436.611 56.2788 436.973C55.2676 437.354 54.3341 437.782 53.4435 438.401C52.6345 438.965 51.8683 439.561 51.0048 440.039C50.083 440.553 49.3518 441.129 48.6323 441.907C47.9789 442.611 47.2593 443.261 46.6448 444C45.3535 445.565 44.6807 447.643 44.1478 449.565C43.8678 450.573 43.5488 451.561 43.4555 452.608C43.3544 453.729 43.3271 454.88 43.4205 456.001C43.5061 457.044 43.6305 458.098 43.79 459.133C43.9572 460.231 44.4201 461.169 44.8479 462.176C45.2485 463.13 45.4935 464.153 46.0225 465.048C46.5515 465.943 47.2165 466.624 47.7533 467.453C48.7995 469.068 49.8652 470.982 51.5727 471.99C52.0005 472.243 52.4556 472.453 52.9106 472.659C53.2646 472.819 53.3696 472.807 53.6535 472.519C54.2797 471.877 54.7736 470.986 55.2054 470.204C55.6915 469.317 55.9444 468.352 56.2827 467.406C56.6211 466.461 57.0684 465.566 57.3679 464.608C57.5973 463.885 57.7918 463.149 57.9785 462.418C58.1652 461.686 59.2931 461.997 59.1025 462.729H59.0987Z" fill="#333333"/>
<path d="M74.5551 456.133C74.4073 456.845 74.9674 457.561 75.6752 457.709C76.3831 457.857 77.1493 457.414 77.2971 456.701C77.4449 455.989 76.9082 455.297 76.2003 455.149C75.4924 455.001 74.699 455.421 74.5512 456.133H74.5551Z" fill="#333333"/>
<path d="M81.6377 458.869C81.5638 458.787 81.486 458.709 81.4004 458.639L81.5171 458.729C81.4355 458.666 81.346 458.612 81.2527 458.569L81.3927 458.628C81.311 458.593 81.2254 458.569 81.136 458.558L81.2915 458.577C81.2099 458.569 81.1321 458.569 81.0504 458.577L81.206 458.558C81.1126 458.573 81.0232 458.596 80.9376 458.631L81.0776 458.573C81.0037 458.604 80.9376 458.639 80.8676 458.682C80.607 458.842 80.2142 458.748 80.0703 458.472C79.9264 458.196 80.0003 457.842 80.2803 457.674C80.4437 457.573 80.6265 457.491 80.8131 457.449C81.0465 457.398 81.2527 457.398 81.486 457.437C81.661 457.468 81.8361 457.542 81.9839 457.635C82.1628 457.744 82.3222 457.884 82.4623 458.04C82.5634 458.157 82.6334 458.293 82.6334 458.452C82.6334 458.596 82.5712 458.768 82.4623 458.865C82.3534 458.962 82.2056 459.044 82.05 459.036C81.8944 459.028 81.7388 458.982 81.6377 458.865V458.869Z" fill="#333333"/>
<path d="M64.042 459.721C63.8125 460.846 64.0537 461.997 64.6332 462.885C65.2166 463.776 66.1656 464.492 67.2896 464.721C68.4137 464.955 69.5533 464.659 70.4401 464.071C71.323 463.484 71.9919 462.538 72.2253 461.414C72.4587 460.289 72.2058 459.161 71.6263 458.27C71.0429 457.378 70.0978 456.744 68.9776 456.515C67.8536 456.281 66.6907 456.417 65.8039 457.005C64.9171 457.593 64.2715 458.593 64.042 459.717V459.721Z" fill="#EDBBA6"/>
<path d="M61.5958 460.491C60.7946 460.951 59.9001 461.192 58.9122 461.134C58.0176 461.079 57.2358 460.779 56.5396 460.316C55.8434 459.853 55.225 459.231 54.8438 458.456C54.4627 457.682 54.2954 456.873 54.3499 455.978C54.4043 455.083 54.7233 454.304 55.1822 453.604C55.6567 452.884 56.1974 452.16 56.9675 451.771C57.7376 451.382 58.6166 451.207 59.5111 451.261C60.5496 451.324 61.4597 451.826 62.2181 452.429" fill="#FFE6D9"/>
<path d="M61.8912 460.993C60.5027 461.76 58.8497 461.962 57.3523 461.383C55.9521 460.842 54.7541 459.768 54.1746 458.375C53.5562 456.888 53.6457 455.195 54.4041 453.775C55.1314 452.413 56.1932 451.277 57.714 450.865C59.5303 450.374 61.1872 450.884 62.6379 452.012C63.2291 452.472 62.4007 453.293 61.8134 452.837C60.5299 451.841 58.9275 451.522 57.4106 452.203C56.131 452.779 55.1081 454.441 54.9525 455.806C54.7697 457.406 55.5087 458.927 56.8389 459.807C58.2118 460.717 59.8648 460.779 61.3039 459.982C61.9612 459.62 62.5524 460.628 61.8912 460.99V460.993Z" fill="#333333"/>
<path d="M83.5824 487.43C83.6213 487.388 83.6602 487.345 83.6952 487.298C83.6057 487.427 83.7146 487.267 83.7302 487.244C83.7963 487.15 83.8546 487.053 83.9091 486.952C83.9363 486.901 83.9596 486.851 83.9869 486.8L84.0063 486.761C84.0335 486.703 84.0297 486.711 83.9985 486.784C84.0569 486.707 84.0802 486.559 84.1074 486.465C84.1308 486.376 84.193 486.228 84.1775 486.135C84.1658 486.212 84.1658 486.232 84.1697 486.185C84.1697 486.166 84.1736 486.142 84.1775 486.123C84.1813 486.068 84.1852 486.01 84.1891 485.956C84.193 485.843 84.1891 485.73 84.1813 485.617C84.1813 485.59 84.1775 485.559 84.1736 485.531C84.1852 485.617 84.1852 485.625 84.1736 485.559C84.1619 485.5 84.1541 485.446 84.1424 485.388C84.0763 485.088 84.2319 484.742 84.5508 484.668C84.8464 484.601 85.2004 484.757 85.2704 485.076C85.5193 486.228 85.1887 487.38 84.4186 488.263C84.2163 488.493 83.7963 488.485 83.594 488.263C83.3685 488.018 83.3801 487.683 83.594 487.438L83.5824 487.43Z" fill="#333333"/>
<path d="M66.7647 493.929C68.2621 493.902 68.2582 493.851 69.7556 493.824C71.253 493.797 71.253 493.956 72.7505 493.929C73.011 493.925 73.1977 493.645 73.19 493.384C73.1666 492.096 73.2755 492.096 73.2522 490.808C73.2289 489.52 73.1238 489.52 73.1005 488.232C73.0772 486.944 73.1161 486.944 73.0927 485.656C73.0888 485.395 72.8438 485.119 72.5871 485.123C71.0897 485.15 71.0936 485.271 69.5962 485.298C68.0987 485.325 68.1026 485.345 66.6052 485.372C66.3446 485.376 66.0801 485.528 66.084 485.784C66.1074 487.072 66.1035 487.072 66.1268 488.36C66.1501 489.648 66.3096 489.645 66.3329 490.933C66.3563 492.221 66.1929 492.224 66.2163 493.512C66.2202 493.773 66.508 493.933 66.7647 493.929Z" fill="#FCFCFC"/>
<path d="M68.5463 490.629C69.6704 490.61 69.6704 490.458 70.7944 490.438C70.8916 490.438 71.0783 490.411 71.0783 490.314C71.0511 488.862 70.9655 488.862 70.9383 487.407C70.9383 487.31 70.8333 487.267 70.736 487.271C69.612 487.29 69.612 487.325 68.488 487.345C68.3907 487.345 68.4141 487.356 68.4141 487.454C68.4413 488.905 68.4102 488.909 68.4374 490.361C68.4374 490.458 68.453 490.629 68.5502 490.629H68.5463Z" fill="#95BECE"/>
<path d="M74.1391 496.003C73.1123 496.236 72.0271 496.326 71.2026 495.859C71.0198 495.754 70.8136 495.656 70.7203 495.458C70.3236 494.618 70.028 493.719 69.8102 492.812C69.5924 491.905 69.5418 490.968 69.5146 490.038C69.5068 489.796 69.4601 489.543 69.5612 489.329C69.6857 489.065 69.9385 488.886 70.1874 488.753C71.3387 488.135 72.6105 487.765 73.9018 487.648C74.7886 487.567 75.7571 487.306 76.4571 488.107C76.745 488.438 76.9433 489.002 76.6866 489.329C76.4844 489.582 76.1966 489.567 75.9165 489.699C76.1616 489.746 76.3521 489.75 76.5661 489.905C76.78 490.061 76.955 490.376 76.9278 490.652C76.8889 491.057 76.4688 491.329 76.1304 491.446C76.5622 491.329 77.0056 491.664 77.0561 492.182C77.1028 492.699 76.7489 493.088 76.2977 493.01C78.3163 493.368 76.321 495.466 75.4692 495.793C75.0998 495.933 74.6097 495.898 74.143 496.007L74.1391 496.003Z" fill="#FFE6D9"/>
<path d="M74.2944 496.567C73.5282 496.734 72.7503 496.843 71.9686 496.723C71.3424 496.625 70.5489 496.334 70.2144 495.754C69.8138 495.057 69.5688 494.193 69.3627 493.423C69.1371 492.594 69.0165 491.754 68.9659 490.894C68.9193 490.108 68.7481 489.228 69.3666 488.621C69.8877 488.108 70.7278 487.823 71.4046 487.59C72.1864 487.318 72.9992 487.158 73.8238 487.076C74.4772 487.01 75.1462 486.882 75.7957 487.045C76.523 487.228 77.157 487.831 77.3359 488.567C77.4293 488.952 77.3904 489.364 77.1415 489.683C76.8614 490.038 76.4647 490.104 76.068 490.263V489.139C76.7992 489.267 77.4682 489.718 77.5071 490.536C77.5382 491.287 76.9198 491.773 76.2819 492.014L75.9707 490.89C76.7953 490.73 77.5304 491.267 77.6237 492.108C77.7093 492.894 77.1337 493.68 76.2936 493.598L76.4491 492.45C77.0053 492.563 77.5537 492.855 77.7093 493.438C77.8493 493.952 77.616 494.501 77.3243 494.913C77.0092 495.361 76.6203 495.746 76.173 496.061C75.5935 496.47 74.9595 496.435 74.2905 496.567C73.5554 496.715 73.2443 495.59 73.9794 495.442C74.4344 495.353 75.0801 495.353 75.3757 495.186C75.6674 495.022 75.9163 494.789 76.138 494.54C76.3325 494.326 76.5308 494.065 76.5814 493.781C76.5892 493.73 76.5425 493.707 76.5814 493.738C76.4569 493.641 76.3014 493.606 76.1341 493.575C75.4962 493.446 75.6324 492.365 76.2897 492.427C76.5969 492.458 76.4647 491.975 76.278 492.01C75.5351 492.154 75.2668 491.15 75.9669 490.886C76.0952 490.839 76.3325 490.73 76.3325 490.567C76.3325 490.306 75.9163 490.29 75.7529 490.259C75.119 490.147 75.2823 489.322 75.7529 489.135C76.0096 489.03 76.2897 489.084 76.173 488.765C76.0874 488.532 75.8891 488.329 75.6635 488.228C75.1618 488.006 74.5317 488.166 74.0105 488.224C73.2754 488.302 72.5597 488.438 71.8558 488.668C71.4979 488.785 71.1518 488.925 70.8134 489.088C70.5839 489.201 70.1755 489.337 70.0783 489.602C70.0239 489.75 70.09 490.034 70.0978 490.193C70.1055 490.353 70.1094 490.504 70.1172 490.66C70.1367 491.073 70.1639 491.485 70.2222 491.898C70.3311 492.664 70.5489 493.423 70.8056 494.154C70.9106 494.454 71.0157 494.925 71.2179 495.166C71.3852 495.365 71.7041 495.474 71.9491 495.536C72.6103 495.703 73.3221 495.59 73.9755 495.442C74.7067 495.279 75.0178 496.407 74.2866 496.567H74.2944Z" fill="#333333"/>
<path d="M61.1446 479.535C61.1991 480.325 61.2924 481.123 61.5258 481.87C61.7592 482.617 62.117 483.349 62.5409 484.01C62.9649 484.672 63.4588 485.306 64.0578 485.831C64.9213 486.59 65.9831 487.104 67.0565 487.501C68.0017 487.851 69.8686 487.594 70.4014 488.59C70.5064 488.788 70.5103 489.034 70.5492 489.255C70.6853 490.069 70.8176 490.882 70.9537 491.695C71.0898 492.509 71.2415 493.318 71.3777 494.131C71.4982 494.843 71.6227 495.645 71.2532 496.264C70.9148 496.824 70.1797 497.186 69.4057 497.427C68.6317 497.668 67.8383 497.875 67.2549 497.964C66.4692 498.085 65.6563 498.12 64.8629 498.112C64.0695 498.104 63.2683 497.983 62.4865 497.847C61.4636 497.668 60.4562 497.373 59.4955 496.976C58.5349 496.579 57.652 496.015 56.8119 495.407C55.9717 494.8 55.1822 494.127 54.521 493.318" fill="#FCFCFC"/>
<path d="M61.7279 479.535C61.8368 481.06 62.2219 482.422 63.0464 483.714C63.8243 484.936 64.8395 485.851 66.1424 486.485C66.6364 486.726 67.1575 486.963 67.7021 487.061C68.2038 487.15 68.7172 487.174 69.2189 487.271C69.674 487.356 70.129 487.508 70.4908 487.804C70.973 488.197 71.0508 488.707 71.1481 489.287C71.4009 490.851 71.6848 492.411 71.9454 493.975C72.1632 495.275 72.1749 496.532 70.9808 497.349C70.4519 497.711 69.8257 497.917 69.215 498.096C68.5149 498.303 67.8071 498.478 67.0798 498.575C65.5512 498.777 64.0344 498.703 62.5175 498.443C59.3165 497.898 56.2128 496.244 54.1164 493.73C53.638 493.158 54.4587 492.326 54.9409 492.905C56.7106 495.026 59.2504 496.524 61.9302 497.139C63.3226 497.458 64.7383 497.587 66.1619 497.497C67.4298 497.415 68.865 497.151 70.0046 496.571C70.518 496.31 70.868 495.987 70.9186 495.388C70.973 494.715 70.7747 494.007 70.658 493.349C70.4091 491.94 70.1913 490.528 69.9501 489.119C69.8062 488.271 68.4566 488.333 67.8032 488.248C66.7025 488.1 65.6251 487.602 64.6917 487.018C63.4548 486.244 62.498 485.135 61.7824 483.87C61.0084 482.512 60.6778 481.084 60.565 479.535C60.5106 478.784 61.6774 478.788 61.7318 479.535H61.7279Z" fill="#333333"/>
<path d="M81.0116 462.064C80.1987 462.826 79.1175 463.289 77.9934 463.095C76.9938 462.923 76.1226 462.208 75.6092 461.355C75.2203 460.709 76.2276 460.122 76.6166 460.768C76.9744 461.363 77.5461 461.818 78.2385 461.958C78.5418 462.017 78.9035 461.962 79.238 461.846C79.5725 461.729 79.9148 461.495 80.187 461.239C80.4165 461.025 80.786 461.009 81.0116 461.239C81.2372 461.468 81.2411 461.85 81.0116 462.064Z" fill="#333333"/>
<path d="M74.7069 443.81C75.4926 443.16 76.3249 442.736 77.2039 442.561C78.1335 442.374 79.1098 442.339 80.0276 442.611C80.9067 442.872 81.7429 443.39 82.4974 444.008C83.1508 444.541 83.7381 445.203 84.1737 445.931C84.621 446.682 84.7883 447.518 84.8233 448.355C84.8583 449.191 84.6988 449.942 84.1776 450.724C83.9015 451.141 83.5981 451.581 83.1158 451.725C82.5324 451.9 81.8673 451.678 81.3928 451.297C80.9183 450.915 80.6538 450.429 80.3232 449.915C79.8876 451.153 78.4641 451.826 77.1573 451.728C75.8504 451.631 74.6642 450.798 74.0419 449.647C73.4196 448.491 73.4312 447.121 73.6996 445.841C73.8591 445.074 74.0924 444.316 74.6953 443.818L74.7069 443.81Z" fill="#333333"/>
<path d="M74.2948 443.397C75.5978 442.347 77.1146 441.775 78.7987 441.833C80.4595 441.891 81.9336 442.716 83.1549 443.798C84.3645 444.868 85.189 446.23 85.3718 447.849C85.5352 449.312 85.1035 451.012 83.8939 451.958C83.2404 452.468 82.3692 452.452 81.638 452.118C80.794 451.732 80.3117 450.962 79.8333 450.207L80.899 450.067C79.8761 452.717 76.4029 452.872 74.4893 451.133C73.4119 450.156 72.9335 448.728 72.9569 447.296C72.9763 445.969 73.2564 444.32 74.2987 443.397C74.8588 442.899 75.6872 443.724 75.1233 444.222C74.3493 444.907 74.1704 446.152 74.1276 447.133C74.0848 448.219 74.3415 449.3 75.1077 450.106C75.7767 450.806 76.7218 451.223 77.698 451.137C78.5498 451.063 79.4561 450.584 79.775 449.756C79.9539 449.293 80.5568 449.168 80.8407 449.616C81.2296 450.226 81.6225 450.954 82.3809 451.153C83.1432 451.351 83.5516 450.705 83.8744 450.114C84.6134 448.748 84.24 446.966 83.3727 445.755C82.5053 444.545 81.1479 443.491 79.7089 443.125C78.1064 442.72 76.3912 443.203 75.1272 444.222C74.5476 444.689 73.7153 443.868 74.3026 443.397H74.2948Z" fill="#333333"/>
<path d="M47.2399 480.535C47.8194 479.92 48.4923 479.127 49.1029 478.197C49.6358 477.383 50.1025 476.473 50.4875 475.551C50.8882 474.593 51.2265 473.624 51.2888 472.675C51.3588 471.644 51.1293 470.671 50.5809 469.819C50.0325 468.967 49.239 468.43 48.325 468.219C47.411 468.009 46.4542 468.002 45.4858 468.235C44.5679 468.457 43.685 468.924 42.8799 469.395C41.9775 469.92 41.2736 470.605 40.7602 471.247C39.9939 472.208 39.3133 473.235 38.3954 474.056C37.8431 474.554 37.1547 474.901 36.6257 475.426C35.8828 476.161 35.6184 477.259 35.595 478.302C35.5717 479.344 35.8673 480.368 36.4818 481.193C37.1663 482.111 38.0026 482.652 38.8971 483.006C39.8578 483.384 40.8613 483.508 41.8997 483.364C42.9382 483.22 43.9028 482.924 44.8207 482.43C45.7386 481.936 46.5515 481.263 47.2399 480.531V480.535Z" fill="#333333"/>
<path d="M46.8276 480.123C47.8388 479.041 48.7101 477.862 49.3868 476.543C50.0636 475.224 50.7792 473.652 50.7131 472.115C50.6625 470.83 49.9663 469.507 48.7567 468.974C47.3682 468.363 45.6763 468.64 44.35 469.27C43.0238 469.9 41.9114 470.706 41.0052 471.869C40.1028 473.029 39.2666 474.192 38.0531 475.056C37.4969 475.453 36.9291 475.819 36.5985 476.438C36.2951 477.006 36.1823 477.671 36.1706 478.309C36.1395 479.753 36.8279 481.088 38.022 481.905C40.9196 483.889 44.6145 482.442 46.8237 480.131C47.3449 479.586 48.1694 480.411 47.6483 480.955C45.2913 483.426 41.6119 484.878 38.3331 483.407C36.8824 482.757 35.6961 481.524 35.2333 479.987C34.7938 478.527 34.9455 476.663 35.875 475.414C36.3729 474.749 37.0808 474.36 37.7264 473.862C38.3876 473.348 38.9282 472.679 39.4338 472.021C39.9395 471.364 40.3945 470.71 40.974 470.138C41.5847 469.531 42.2887 469.048 43.0432 468.636C44.6845 467.733 46.4425 467.251 48.3133 467.628C49.838 467.935 50.9737 469.013 51.5377 470.441C52.2727 472.313 51.6777 474.259 50.9192 476.014C50.1258 477.854 49.0134 479.492 47.6483 480.955C47.1349 481.504 46.3103 480.679 46.8237 480.131L46.8276 480.123Z" fill="#333333"/>
<path d="M88.0936 475.482H76.9927L78.1456 488.031C78.1456 488.708 78.5738 489.379 79.4412 489.893C81.1651 490.914 83.9486 490.914 85.6615 489.893C86.5234 489.379 86.9462 488.702 86.9407 488.031L88.0936 475.482Z" fill="#F2F2F2" stroke="#333333" stroke-width="1.5" stroke-linecap="round" stroke-linejoin="round"/>
<path d="M88.6061 473.998V475.605C88.6061 476.509 88.0102 477.408 86.8295 478.094C84.4514 479.478 80.5808 479.484 78.1804 478.094C76.9775 477.397 76.3704 476.481 76.376 475.566V473.959C76.376 474.874 76.9775 475.789 78.1804 476.487C80.5752 477.871 84.4459 477.871 86.8295 476.487C88.0102 475.8 88.6061 474.896 88.6061 473.998Z" fill="#F2F2F2" stroke="#333333" stroke-width="1.5" stroke-linecap="round" stroke-linejoin="round"/>
<path d="M86.8019 471.47C89.1967 472.854 89.2078 475.103 86.8298 476.487C84.4517 477.871 80.5811 477.877 78.1807 476.487C75.7859 475.103 75.7748 472.854 78.1529 471.464C80.5309 470.074 84.4016 470.08 86.8019 471.464V471.47Z" fill="#F2F2F2" stroke="#333333" stroke-width="1.5" stroke-linecap="round" stroke-linejoin="round"/>
<path d="M78.1031 480.385C77.6478 480.124 77.2758 479.835 76.9927 479.529L77.6367 484.692C77.8866 485.08 78.2808 485.445 78.8304 485.761C80.5904 486.759 83.2999 486.879 85.2764 486.121L85.5707 480.92C83.2221 481.716 80.1407 481.541 78.1086 480.391L78.1031 480.385Z" fill="#FD780F" stroke="#333333" stroke-width="1.5" stroke-linecap="round" stroke-linejoin="round"/>
<path d="M80.0199 482.696L79.7373 482.246C79.7305 482.235 79.7398 482.221 79.7529 482.223L82.5975 482.633C82.6164 482.636 82.6284 482.655 82.6221 482.672L82.5877 482.769C82.5844 482.778 82.5788 482.786 82.5715 482.792L80.6634 484.483C80.6539 484.492 80.6589 484.507 80.6717 484.509L81.7657 484.667C81.784 484.669 81.8026 484.664 81.8162 484.652L82.0001 484.491C82.0074 484.485 82.0188 484.487 82.0239 484.495L82.3041 484.941C82.3109 484.952 82.3017 484.965 82.2887 484.964L79.4429 484.553C79.4239 484.55 79.412 484.531 79.4183 484.514L79.4521 484.421C79.4553 484.412 79.4609 484.404 79.4681 484.397L81.3855 482.704C81.3949 482.696 81.39 482.681 81.3772 482.679L80.2906 482.522C80.2721 482.52 80.2535 482.525 80.2398 482.537L80.0439 482.699C80.0366 482.706 80.0251 482.704 80.02 482.696L80.0199 482.696Z" fill="white"/>
<path d="M87.0334 480.365C86.6746 480.573 86.2777 480.747 85.859 480.895L85.5708 486.106C85.8372 486.002 86.0873 485.882 86.3212 485.745C86.8431 485.439 87.2238 485.079 87.463 484.702L88.0937 479.529C87.8219 479.83 87.4684 480.114 87.0334 480.365Z" fill="#FD780F" stroke="#333333" stroke-width="1.5" stroke-linecap="round" stroke-linejoin="round"/>
<path d="M85.0659 472.447C85.0659 472.447 85.5741 472.609 86.0751 472.953L85.0659 472.447Z" fill="#F2F2F2"/>
<path d="M85.0659 472.447C85.0659 472.447 85.5741 472.609 86.0751 472.953" stroke="#333333" stroke-width="1.5" stroke-linecap="round" stroke-linejoin="round"/>
</g>
<defs>
<clipPath id="clip0_40_962">
<rect width="55" height="86" fill="white" transform="translate(35 434)"/>
</clipPath>
</defs>
</svg>
