<svg width="81" height="117" viewBox="0 0 81 117" fill="none" xmlns="http://www.w3.org/2000/svg">
<g clip-path="url(#clip0_4_2516)">
<path d="M7.93629 84.3142L12.5168 77.6372C24.692 85.9903 40.5414 88.9625 54.9182 85.5964C56.2155 85.2942 58.4088 84.6732 60.3918 83.6195C55.2929 83.6741 50.0348 82.6804 45.0499 80.6297C41.3309 79.0998 36.6877 75.8469 34.7932 71.2902C33.6927 68.6446 33.6743 65.909 34.7205 63.3735C36.4269 59.2576 40.9795 56.5241 46.0485 56.561C49.8195 56.5875 53.1333 57.94 56.4853 59.4404C60.5797 61.2761 64.5221 63.1907 67.7499 66.4171C69.6136 68.278 71.0057 70.448 71.8576 72.7145C76.7623 70.0748 80.4124 65.4067 81.8326 60.398C76.344 61.0825 70.589 60.5227 65.1857 58.6632C58.393 56.3235 54.2385 51.9575 53.7853 46.6983C53.5323 43.766 54.4797 40.9531 56.5196 38.5487C59.0552 35.5622 63.1834 33.5167 67.2849 33.2074C77.1335 32.458 86.7892 39.8487 89.6887 49.6556C90.428 49.2631 91.1417 48.8392 91.8271 48.3712C98.6953 43.7098 102.495 35.1559 101.073 27.5689C99.6104 19.8134 92.3743 13.5556 84.9435 13.6208L84.8676 5.53526C96.2279 5.43486 106.842 14.4617 109.024 26.0816C111.03 36.7419 105.827 48.666 96.3689 55.0833C94.5347 56.329 92.5488 57.3701 90.4611 58.2034C89.5995 67.0886 83.8274 75.6366 75.3071 80.0539C74.3564 80.5439 73.3818 80.9862 72.3753 81.3799C70.7594 87.2112 65.233 91.497 56.7618 93.4816C40.207 97.3594 21.9542 93.9341 7.93629 84.3142ZM62.7637 72.9619C62.5374 72.6838 62.2905 72.4076 62.0255 72.146C59.7711 69.8872 56.6884 68.4064 53.1795 66.8324C50.5508 65.6532 48.1929 64.6786 45.9872 64.6612C44.262 64.6479 42.6399 65.4305 42.1986 66.4826C42.04 66.8651 41.9229 67.3627 42.2692 68.1918C43.0162 69.9994 45.4288 72.0401 48.1228 73.1438C53.404 75.3114 59.0219 76.005 64.1493 75.234C63.8143 74.4555 63.3466 73.6879 62.7592 72.9656L62.7637 72.9619ZM79.12 46.6599C76.3031 43.1962 72.0764 40.9687 67.9 41.2868C65.9359 41.4381 63.8423 42.4475 62.6917 43.8007C62.0698 44.53 61.7922 45.2701 61.8515 46.0121C62.0483 48.2522 65.1865 50.1128 67.8229 51.0173C72.4555 52.6166 77.3953 52.9897 82.0007 52.2183C81.4497 50.1843 80.4409 48.284 79.12 46.6599Z" fill="#7DCC83"/>
</g>
<defs>
<clipPath id="clip0_4_2516">
<rect width="53.4694" height="118.164" fill="white" transform="translate(91.6736) rotate(50.8794)"/>
</clipPath>
</defs>
</svg>
