<svg width="306" height="95" viewBox="0 0 306 95" fill="none" xmlns="http://www.w3.org/2000/svg">
<g clip-path="url(#clip0_89_2114)">
<path d="M293.718 77.1557C293.794 77.3153 293.946 77.551 294.053 77.7411C293.657 77.2393 293.483 76.9884 293.718 77.1557Z" fill="white"/>
<path d="M298.636 84.5534C297.283 82.6983 295.162 79.7635 294.053 77.7411C295.307 79.3377 298.909 83.5346 298.636 84.5534Z" fill="white"/>
<path d="M294.539 76.0228L296.029 78.5014C294.866 77.2697 295.36 77.2925 294.539 76.0228Z" fill="white"/>
<path d="M294.539 77.3305L294.212 77.3838L293.551 75.9696L294.539 77.3305Z" fill="white"/>
<path d="M171.153 7.98318C171.426 8.15805 171.578 8.33292 171.419 8.49259L171.153 7.98318Z" fill="white"/>
<path d="M164.807 5.93036C164.221 5.81632 163.819 5.75549 163.469 5.70227C163.872 5.72508 164.206 5.7859 164.807 5.93036Z" fill="white"/>
<path d="M177.012 8.84234L175.865 8.69028C176.237 8.70548 176.64 8.7587 177.012 8.84234Z" fill="white"/>
<path d="M244.782 33.8259C245.572 34.609 246.325 35.3389 246.902 35.8787C245.017 34.9208 245.131 34.4038 244.782 33.8259Z" fill="white"/>
<path d="M134.315 1.20129L134.049 1.4674C133.73 1.38377 133.563 1.29253 134.315 1.20129Z" fill="white"/>
<path d="M163.598 1.75632C163.613 1.90077 163.545 1.99201 163.408 2.05284C163.294 2.02242 163.18 1.99201 163.066 1.9616L163.591 1.75632H163.598Z" fill="white"/>
<path d="M181.641 9.13126C181.641 9.13126 181.686 9.12366 181.709 9.11606C182.013 9.2149 182.302 9.35175 182.598 9.4658C182.097 9.39737 181.793 9.27572 181.633 9.13126H181.641Z" fill="white"/>
<path d="M124.868 1.81713C124.435 1.7411 124.01 1.63466 123.63 1.46739C124.549 1.44458 124.998 1.61185 124.868 1.81713Z" fill="white"/>
<path d="M163.302 5.69467C163.302 5.69467 163.416 5.70228 163.461 5.70988C163.401 5.70988 163.355 5.70227 163.302 5.69467Z" fill="white"/>
<path d="M173.205 3.13247C172.703 3.01082 172.24 2.88917 171.7 2.75992C172.354 2.80554 172.878 2.9728 173.205 3.13247Z" fill="white"/>
<path d="M244.782 33.8259L244.113 33.1645C244.47 33.4078 244.66 33.613 244.782 33.8259Z" fill="white"/>
<path d="M288.528 71.4914C287.942 70.7843 287.935 70.503 287.958 70.2597C288.216 70.7007 288.421 71.1188 288.528 71.4914Z" fill="white"/>
<path d="M1.03367 80.5466L0.805664 80.8355C0.889264 80.7063 0.965265 80.6151 1.03367 80.5466Z" fill="white"/>
<path d="M24.7534 54.9168C24.913 54.8484 25.0802 54.7723 25.2246 54.7495C25.0498 54.9928 24.8446 55.0308 24.7534 54.9168Z" fill="white"/>
<path d="M47.0594 30.3818C46.155 31.1573 45.0986 31.7123 44.0422 32.2141C42.9782 32.7083 41.9902 33.2481 41.1314 33.8183L41.8686 33.6587L40.0446 34.6547L40.3106 34.9892C37.4302 36.8291 34.1926 39.5738 32.855 39.8932L33.5846 40.1821L30.4305 42.0296L32.3306 41.0868C30.7953 42.4174 28.7433 43.9532 26.9877 45.2229C26.5469 45.5422 26.1289 45.8387 25.7413 46.1201C25.3689 46.4166 25.0269 46.6903 24.7229 46.926C24.1225 47.405 23.6969 47.7547 23.5373 47.8992L23.9781 47.8459C23.5753 48.3934 23.0737 48.6215 22.5037 49.0244L23.1573 48.9484C20.8621 50.9708 19.5473 52.423 18.1489 53.9056C16.7961 55.4338 15.4281 57.0684 12.8973 59.3646C11.6661 60.7635 13.7029 58.7107 13.8777 58.8399C13.3913 59.7751 11.5217 61.2881 11.0353 61.539C11.8485 61.5542 13.7105 59.3798 12.5477 61.2653C11.2557 62.1701 13.6801 60.8928 11.7117 62.7555C11.2785 62.8391 10.8301 62.9076 10.4197 63.014C9.53047 64.2533 10.6705 63.6451 9.05927 65.409C7.03006 67.2641 10.5869 62.2917 7.63046 65.561C6.93126 66.4202 6.51326 67.591 5.88245 68.914C5.27445 70.2521 4.37005 71.6587 2.97164 73.2629C1.08684 76.4334 5.06925 72.4646 1.87724 76.3802L4.21805 74.1145C3.89125 74.9128 4.50685 74.7303 3.07044 76.365C2.42444 76.7299 1.30724 77.5814 0.562434 78.5014C3.86085 75.0876 -1.20837 82.3105 2.02924 79.2617L1.02604 80.539C1.17044 80.3946 1.26164 80.3946 1.24644 80.5162L-0.00756836 82.2649C0.927235 81.2993 2.88044 78.8283 2.45484 80.3261L0.699234 82.8884C1.54284 82.4702 1.00324 83.4814 1.39084 83.5346L7.49366 76.7983C7.08326 76.92 6.16366 77.8628 6.25486 77.3153C6.89326 76.2813 7.28086 75.9544 7.64566 75.6351C8.00286 75.3081 8.35246 75.0116 8.96047 74.0384L8.04086 74.5858C8.26126 74.5326 8.49686 74.3121 8.20806 74.7151C7.86606 75.4602 7.47846 75.597 7.30366 75.4678C7.40246 74.525 9.18847 73.0044 9.84967 72.6699C11.7269 70.3966 9.65207 71.7119 9.97127 71.1341C11.5217 70.4498 13.1633 67.363 14.6301 66.2073C14.2425 66.3822 13.8853 66.5874 13.5053 66.7775C14.0069 65.7055 14.7745 64.9604 15.4813 64.3141C16.1957 63.6755 16.8949 63.1813 17.4117 62.7707L16.7809 62.8696C19.0229 60.6799 19.1901 58.6042 21.8425 57.8896L21.4169 57.9276C22.2909 56.9696 23.5449 55.4414 24.7381 54.9016C24.6545 54.7647 24.6773 54.4682 25.0345 54.0804C25.9085 53.9968 26.6305 52.7955 27.9833 51.4422C26.9573 52.1949 26.8053 51.4118 25.7033 52.1873C26.5621 50.9252 27.1929 50.6135 27.8313 50.4006C28.4697 50.1877 29.1081 50.0812 30.0809 49.3133C31.0233 48.1197 28.7813 49.8455 28.3633 49.9064C31.5478 47.7623 33.5162 43.7099 36.2446 43.2461L35.2262 44.6223C36.5942 43.9 37.2326 43.3754 37.0122 43.3906C36.655 43.7327 36.4498 43.7327 36.237 43.7403C37.0122 42.8583 37.8406 42.2501 38.6614 41.7407C39.4822 41.2237 40.2954 40.8131 41.1162 40.4102C42.7654 39.6042 44.4374 38.8515 46.2386 37.3918C45.813 37.3766 45.2278 37.6959 45.0834 37.5362C46.6642 36.0536 47.5458 37.4754 50.1526 35.1869L49.423 35.2933C50.297 34.533 51.247 34.4418 51.1634 34.5938C50.8898 34.0768 52.4478 33.1189 54.2186 31.9708C54.6594 31.6743 55.1154 31.3778 55.5638 31.0736C56.0198 30.7847 56.4758 30.5034 56.8939 30.2069C57.7223 29.6138 58.4139 28.998 58.7559 28.3822C59.6527 28.2529 61.2259 27.7131 62.7079 27.0744C64.1899 26.4358 65.5807 25.6983 66.1887 25.2573C67.7999 23.7215 64.1443 25.3866 64.5623 24.4742C66.0747 23.7443 67.1463 23.942 69.2971 22.6723C69.6011 23.2349 65.4515 25.9492 69.8063 24.2841L70.2471 23.6911C69.8291 23.942 69.2895 24.3449 68.6435 24.5578C67.2603 24.7935 69.1831 23.8203 69.3883 23.5314L73.9863 21.5546C74.5943 22.026 71.8355 23.1589 71.6303 23.4478C75.0731 21.5166 79.1467 18.9164 82.7263 17.928L82.3083 17.8215C86.8608 16.5898 84.4212 15.6243 88.3276 15.4266C90.144 14.6207 87.408 14.9704 90.2276 13.9516C91.0256 13.6779 90.638 14.0808 90.524 14.2101C94.0732 13.2597 91.8616 13.0696 95.2588 12.5754L94.3544 12.1193C98.3976 11.4274 102.813 11.5946 106.074 10.3553C105.739 9.86875 103.672 10.4922 102.737 10.3097C103.946 10.2565 105.215 9.9904 106.552 9.76991C107.89 9.55703 109.266 9.26811 110.626 8.96399C111.986 8.66747 113.339 8.36335 114.616 8.08204C115.254 7.95279 115.878 7.83114 116.478 7.7323C117.078 7.64866 117.664 7.62585 118.211 7.60305C117.01 8.26451 120.43 8.39376 117.747 9.19208C116.904 8.55343 115.718 9.32894 114.251 9.54943C114.912 9.81553 115.847 9.76991 116.888 9.57223C117.937 9.42778 119.108 9.16167 120.225 8.88036C122.459 8.32534 124.504 7.77792 124.952 8.40137L125.507 7.75511C126.176 7.7399 127.893 7.90717 126.769 8.25691C127.544 8.05923 128.327 7.93758 129.109 7.81593L131.465 7.43578C130.614 7.29892 129.277 7.06323 128.023 6.94918C126.769 6.85795 125.606 6.9796 125.097 7.35215C123.668 6.96439 126.989 6.66787 125.705 6.17367C127.354 6.38656 127.833 6.2345 128.319 6.01401C128.805 5.77832 129.299 5.45899 130.971 5.41337C129.55 6.34854 134.376 6.2269 134.255 6.62986C135.326 6.39416 137.751 6.54622 138.693 6.75911C140.601 6.78952 144.971 6.04442 148.056 6.2497C146.893 6.02161 145.047 5.72509 145.176 5.20809C146.696 5.46659 148.353 5.42097 148.641 4.81273C143.238 3.83954 146.916 6.2345 142.045 5.62626C141.429 5.29932 140.791 5.10165 139.985 4.96479C139.179 4.82033 138.207 4.7443 136.945 4.77471C138.062 4.28812 137.553 4.15887 137.994 3.64186C139.582 4.28812 141.589 4.31093 143.717 4.19688C145.845 4.11325 148.094 3.84714 150.108 4.2501C151.795 4.7443 150.511 5.59584 154.326 5.91517L151.035 6.21929C154.645 5.96839 151.871 6.68308 154.828 6.96439L153.665 6.44738C155.481 6.43218 156.15 6.53862 157.138 6.92637L155.641 6.13566C156.629 6.09004 158.453 6.07483 158.445 6.50061C158.711 6.33334 158.803 6.19648 158.818 6.07483C159 6.21169 159.464 6.28012 160.611 6.34854C159.95 6.18888 159.456 6.2497 159.456 6.02922C163.819 6.56143 160.543 5.32974 163.256 5.65667C162.838 5.44378 163.636 5.32213 164.617 5.32974C164.442 6.46259 169.792 7.16967 171.115 7.95279C171.099 7.92998 174.641 8.9944 174.641 8.9944C173.927 8.78152 174.763 8.60665 175.834 8.66747L175.66 8.64466C176.838 8.66747 174.489 7.19248 177.894 8.09724L179.65 8.7359C179.33 8.64466 179.68 8.52301 179.862 8.46979L181.671 9.08564C184.726 8.68268 186.877 10.9028 190.305 11.1613C189.324 11.0244 187.888 10.6062 188.595 10.4162C189.271 10.439 190.214 10.7887 190.677 11.07L190.54 10.9104C192.608 11.5718 194.606 12.4994 196.613 13.3129C196.218 12.7959 192.737 11.7315 194.409 11.7771C195.473 11.549 197.122 12.6135 198.224 12.986C197.996 13.2293 195.86 12.8796 197.897 13.6475C198.194 13.579 200.268 13.868 199.394 13.389C200.42 13.8527 201.69 14.3545 202.921 14.8868C204.129 15.4874 205.3 16.1032 206.143 16.6887C206.782 16.7799 205.892 16.3237 205.588 16.1717L205.414 16.2021C204.213 15.5862 205.467 15.4038 202.89 14.8031C202.989 13.7843 206.554 15.8371 208.773 16.4986L205.52 14.6054C207.093 14.8183 208.75 15.2441 210.43 15.7991C212.109 16.3617 213.834 16.9928 215.461 17.8519C217.095 18.6883 218.729 19.5246 220.302 20.3229C221.86 21.1517 223.403 21.8207 224.763 22.5582C224.322 22.4214 223.92 22.2693 223.555 22.1173C223.182 21.9804 222.848 21.8587 222.574 21.7751C222.02 21.6002 221.67 21.585 221.609 21.9804C223.296 22.8776 224.003 23.3337 224.733 23.7215C225.463 24.1169 226.2 24.4818 227.872 25.4018L227.598 25.2193C229.536 25.7515 231.588 27.6295 233.07 27.599C232.508 26.8387 230.387 26.7019 230.737 25.9112L232.88 27.0212C233.595 27.3938 234.271 27.8347 234.963 28.2301C233.929 26.968 230.737 25.9112 229.149 24.976C227.94 24.421 231.482 26.2761 230.653 26.489C226.656 24.459 225.987 23.501 224.345 21.7751C223.38 20.6271 226.375 22.1096 227.127 22.4822C228.221 23.5314 229.658 24.611 231.337 25.6375C232.173 26.1697 233.101 26.6183 234.02 27.1581C234.947 27.6903 235.928 28.1921 236.946 28.6635L239.401 29.3249C241.02 30.9596 239.637 31.4386 243.117 33.3698C242.867 33.02 242.623 32.6627 242.35 32.3433C243.209 32.6171 243.695 32.9136 244.06 33.1417C242.836 31.8567 241.385 30.6707 240.229 29.553C241.461 29.7127 242.867 30.587 244.212 31.7807C245.557 32.9896 246.925 34.3886 248.263 35.3922C248.187 35.1945 247.229 34.5178 247.077 34.1072C249.22 35.4074 251.28 36.9432 253.073 38.593C254.844 40.2657 256.471 41.8928 257.96 43.1016C259.533 43.7251 255.566 40.9652 256.585 40.9196C258.067 42.3337 260.255 43.2537 260.324 44.052C260.217 43.459 261.198 44.1129 261.798 44.6299C262.406 45.1393 262.741 45.3902 261.487 43.8467C264.428 46.0516 267.323 48.6215 270.135 51.2749C272.788 54.1033 275.417 56.962 277.872 59.7219C277.811 59.2809 277.964 59.1289 278.298 59.2353C276.52 57.4714 273.981 54.7951 273.381 53.381C274.885 54.2021 275.82 56.4982 276.345 56.6351C275.881 55.9052 274.658 54.7495 274.931 54.4226C276.831 55.563 277.242 56.886 278.283 57.9884L277.53 57.5778C278.306 58.4826 278.678 59.1669 278.936 59.6763C279.187 60.1857 279.301 60.543 279.438 60.8852C279.712 61.577 280.084 62.2157 281.87 63.9568C283.489 64.9224 282.174 63.6527 282.622 63.1965C283.223 64.2457 286.415 66.5114 286.62 67.9636L285.632 66.8079L284.583 65.7131C284.918 66.1313 285.244 66.5342 285.564 66.9296C285.868 67.3401 286.164 67.7431 286.445 68.1233C287.015 68.8912 287.524 69.5982 287.904 70.2369C287.912 70.0316 287.942 69.8415 287.699 69.4614C288.611 70.8984 290.025 72.533 290.238 73.4606L291.081 73.3998C290.2 72.8143 288.254 70.5334 288.224 69.8948C288.87 69.7275 290.519 72.3277 291.408 73.3237C289.614 70.9896 288.908 69.6363 288.208 68.4198C287.494 67.2109 286.863 66.0704 284.956 64.4206L285.374 65.1809C282.866 63.2573 281.315 60.3377 279.43 58.3457C280.054 58.8095 280.342 58.7487 280.175 58.399C279.073 57.3573 277.872 56.4298 276.763 55.4034C275.63 54.3922 274.521 53.3505 273.388 52.2861C271.184 50.0964 268.684 48.074 265.948 45.9756L264.785 44.1129L264.359 44.4322C261.631 42.4478 264.268 43.3754 262.535 42.0524C263.204 42.539 263.014 42.539 263.075 42.7443C260.316 39.9008 261.038 41.8091 259.381 40.3646C259.883 41.429 262.657 43.0484 261.418 43.0408C258.652 40.2581 253.605 36.89 253.849 35.5442C250.657 33.7651 247.328 31.431 244.083 29.2185C240.754 27.1353 237.592 25.0368 234.947 23.4858C234.096 23.3033 235.335 23.8736 234.963 23.8812C233.131 22.1553 227.477 20.6955 227.735 20.1024C226.61 19.7375 225.972 19.9428 225.614 19.958C224.376 18.962 222.696 18.1637 220.933 17.2817L222.187 18.0116L222.004 18.0268L220.226 16.9928H220.31C219.192 16.4758 218.037 15.9436 216.859 15.4038C215.681 14.864 214.488 14.3241 213.272 13.8832C210.863 12.9328 208.53 11.9444 206.538 10.8648C208.818 12.1345 205.68 11.3818 206.736 12.028C204.988 10.1805 199.721 8.71309 195.465 7.53462C195.427 7.7475 195.055 7.81593 195.503 8.12766C194.72 7.76271 193.953 7.34454 193.155 7.02521L193.421 7.35215C191.171 6.92638 188.899 6.15086 186.801 5.45899C184.704 4.78232 182.788 4.10565 181.238 4.13606C183.062 4.55423 183.024 4.80513 183.138 5.17768C179.923 4.54662 176.876 4.06003 173.151 3.10965C173.341 3.20849 173.463 3.29972 173.463 3.37575C172.961 3.33774 172.422 3.20089 171.882 3.04882C171.343 2.89676 170.795 2.76751 170.294 2.64586L170.089 3.14006C168.173 2.69908 165.627 2.69148 163.355 2.04522C162.876 2.29612 161.493 1.95399 159.874 1.70309C158.255 1.45979 156.409 1.17087 155.056 1.2317C154.03 1.06443 157.267 1.91597 154.387 1.76391C154.015 0.631057 150.648 1.58144 150.443 0.372553C149.591 0.46379 148.748 0.631057 147.904 0.798323L147.342 0.212889C145.199 1.38376 144.051 -0.220484 140.836 0.212889C141.011 0.334538 141.353 0.372553 141.193 0.46379C140.152 0.36495 137.751 0.342141 139.597 -0.00759888C139.172 0.0152102 138.48 -0.022805 137.735 0.0304163C136.991 0.0836376 136.185 0.144462 135.516 0.197683C134.171 0.319332 133.381 0.478996 134.711 0.684278C134.498 0.357347 136.907 0.440981 137.941 0.478996C137.834 1.00361 135.265 1.01881 134.673 1.63466C134.589 1.58904 134.247 1.52822 133.996 1.45979L133.654 1.80953C132.035 1.66507 130.424 1.76391 128.919 1.83234C128.167 1.87035 127.437 1.87796 126.753 1.89316C126.069 1.92357 125.423 1.90076 124.815 1.80953C124.701 1.9844 124.162 2.18968 123.067 2.31893L122.93 1.68788L119.548 2.20489L121.274 2.89676C119.442 3.26171 117.831 3.28452 116.296 3.2465C114.76 3.2465 113.309 3.28452 111.781 3.51261C111.5 4.12085 110.01 4.33374 108.285 4.57704C106.56 4.83554 104.584 5.07123 103.429 5.93038C104.227 5.80873 105.017 5.67948 105.823 5.62626C100.799 6.69068 100.206 7.61065 95.4944 8.50021C99.3096 7.07844 99.3704 7.26851 104.88 4.86595C102.053 5.85435 99.5452 6.40177 97.0828 6.94158C95.8592 7.22289 94.6356 7.46619 93.4196 7.83874C92.2188 8.2417 91.0028 8.70549 89.764 9.29852C90.1896 9.42017 91.5348 9.13886 90.3568 9.82313C89.1788 9.64066 85.5156 11.4958 86.0628 10.6215C84.5352 11.3742 84.4668 12.0356 83.5168 12.4538L77.9763 13.8527L78.1891 13.906C77.1403 14.537 76.0915 15.092 75.0427 15.609C73.9939 16.1185 72.9223 16.5594 71.9039 17.0688C69.8367 18.042 67.7391 18.8708 65.6339 19.6767C64.5775 20.0872 63.5135 20.4674 62.4571 20.9008C61.4235 21.3646 60.3899 21.8435 59.3487 22.3453C57.2738 23.3489 55.199 24.4438 53.1546 25.7591L53.489 25.9644C52.6834 26.1925 51.931 26.5042 51.1558 26.7855C52.9418 26.0632 50.677 27.5914 50.7074 27.9336L45.053 30.6022C45.0986 30.9292 45.7826 31.3093 46.9986 30.3894L47.0594 30.3818ZM122.953 2.44058L124.412 2.27331C124.701 2.19728 124.998 2.14406 125.332 2.16687L124.412 2.27331C123.675 2.47099 123.174 2.82073 122.953 2.44058ZM250.755 33.8792C251.173 34.5102 249.859 33.4002 249.433 33.1721L251.371 34.533C251.743 34.571 251.021 34.1072 250.763 33.8792H250.755ZM123.614 6.54622L122.885 7.09364L121.828 6.91117L123.614 6.55383V6.54622ZM103.702 10.5074L105.716 10.2109L105.572 10.3401L103.581 10.6291L103.702 10.5074ZM80.9783 14.2253C81.1075 14.2025 81.2291 14.1721 81.3811 14.1569C81.2519 14.1873 81.1151 14.2101 80.9783 14.2253C79.3899 14.537 79.0935 15.495 77.6039 15.2897C78.8351 14.096 80.0359 14.3241 80.9783 14.2253ZM115.885 4.2273C116.577 4.18168 116.926 4.18928 117.413 4.06763C117.018 3.86995 115.574 3.70269 116.562 3.45939C117.314 3.64946 119.67 3.37575 119.769 3.79392C117.656 3.64946 116.425 5.03322 115.878 4.2273H115.885ZM164.434 2.4862H163.917L165.772 3.01081L164.442 2.4862H164.434ZM173.151 3.94598C174.109 4.66827 176.769 5.01801 178.586 5.45139C179.148 5.06363 177.37 4.20449 175.188 3.89276C172.711 3.04882 174.124 4.45539 173.151 3.94598ZM100.617 8.61425L101.217 8.84234L100.754 9.01721L102.775 8.72069C100.343 9.93718 98.2532 9.4962 96.8776 9.70149C98.048 9.42017 101.43 9.45819 100.609 8.61425H100.617ZM191.506 7.88436C193.276 8.56103 196.37 10.0132 195.974 10.2793C196.286 9.62545 193.778 8.4926 192.957 8.30253C192.471 8.2341 192.136 8.11245 191.506 7.88436ZM191.072 9.19208C188.519 8.25691 188.42 7.88436 186.55 6.75151C189.248 7.06323 189.742 8.14286 189.34 8.44698C191.072 9.19968 190.837 8.65987 191.832 8.79672L191.072 9.19969V9.19208ZM188.808 6.56143L187.698 6.40937C186.345 6.40937 185.912 7.15447 184.293 5.93038L187.698 6.40937C188.002 6.40937 188.367 6.44738 188.808 6.56143ZM210.756 13.2369L209.791 12.6211C210.825 13.024 210.908 13.1685 210.756 13.2369L211.562 13.7539C209.183 13.1761 210.452 13.3585 210.756 13.2369ZM194.044 8.05923C193.018 7.72469 191.969 7.50421 190.928 7.22289C191.019 7.61065 193.033 7.84634 194.044 8.05923ZM209.86 13.6018C208.568 13.1837 205.216 12.0812 205.695 12.2029C206.12 11.9444 209.13 13.1153 209.86 13.6018ZM269.816 50.4082L268.296 49.0852L269.383 49.3209L269.816 50.4082ZM250.923 36.2437L251.485 36.3045L252.443 36.9812L250.923 36.2437ZM232.265 25.0748C232.409 25.0216 232.424 24.8696 232.318 24.6871C232.044 24.497 231.816 24.3069 231.74 24.1549C232.006 24.2841 232.219 24.497 232.318 24.6871C233.04 25.1889 234.248 25.6907 234.818 25.8732C234.651 25.455 233.42 24.8848 233.032 24.5122C234.081 24.6643 235.35 25.7363 236.315 26.489C237.288 27.2341 237.972 27.6523 237.843 26.565C238.481 27.1733 240.754 29.0132 239.735 28.7775C238.77 28.1617 237.326 27.3557 235.92 26.6335C235.213 26.2761 234.522 25.9188 233.891 25.6527C233.253 25.4018 232.683 25.1965 232.257 25.0748C232.12 25.1128 231.923 25.09 231.565 24.9304C231.695 24.9304 231.953 24.9912 232.257 25.0748H232.265ZM205.239 13.868C204.479 13.5486 204.16 13.3738 204.03 13.2673C203.415 12.8872 202.944 12.583 203.225 12.4006C204.798 13.1305 203.681 12.986 204.03 13.2673C204.41 13.4878 204.828 13.7007 205.239 13.868ZM200.284 12.393L202.754 13.4726L201.576 12.7275L203.4 13.6475L205.186 14.6739C202.921 14.1569 200.481 12.9784 200.284 12.4006V12.393ZM199.28 12.4462L198.87 11.8912L199.554 12.545L199.28 12.4538L199.372 12.583L195.108 11.07L199.273 12.4538L199.28 12.4462ZM153.984 3.95359C152.244 5.32974 157.936 5.14726 158.765 5.87716C158.977 5.39816 160.748 4.72149 156.333 4.55423C160.178 4.2425 158.658 5.55022 161.007 4.50861C159.175 4.44778 156.994 4.03722 156.667 3.96119L158.833 3.9992C157.663 3.05643 155.481 4.30333 153.984 3.94598V3.95359ZM130.759 4.88876L127.924 5.10165L130.614 4.9876L130.759 4.88876ZM64.1671 25.1205C64.4939 25.3257 61.6059 27.6219 60.5419 27.4774C62.1075 26.5118 63.8783 25.5766 64.1671 25.1205ZM38.6462 40.9424L41.405 39.3229C41.3594 40.3113 39.0794 40.9424 37.9394 41.9232C37.2858 41.9232 38.3954 41.4366 38.6462 40.9424ZM22.7241 54.1869L21.8881 54.7799L23.1953 54.6203L22.7165 54.1869H22.7241ZM24.4493 54.0044C24.2137 54.6887 25.9237 53.3505 26.2657 52.978L24.4493 54.0044ZM11.9397 67.6671L12.7605 66.6331L11.4761 67.0816L11.9397 67.6595V67.6671ZM12.7073 65.5382C13.2697 65.6295 13.6421 66.1465 15.5269 63.7667C15.2381 63.3257 14.6681 63.9188 15.0101 62.6947C14.2197 63.3257 13.8093 64.0708 13.4901 64.4586C14.0297 64.0252 14.4325 63.2953 14.8125 63.4018C14.1741 64.3597 13.2773 65.1124 12.7149 65.5458C12.5173 65.5078 12.2893 65.5306 11.9701 65.7891C12.0917 65.888 12.3653 65.7891 12.7149 65.5458L12.7073 65.5382ZM19.9805 57.2205C20.2161 56.8784 20.4213 56.597 20.4821 56.4298L20.7101 56.3994C20.5505 56.8327 20.2617 57.0456 19.9805 57.2205C19.7221 57.5854 19.4029 57.996 19.0761 58.4142C19.1521 58.9692 20.7937 57.6691 21.3637 57.479C20.5657 58.072 19.6841 58.399 18.9545 59.5242C19.1673 59.4938 19.1141 59.6687 19.6841 59.0756L18.4909 60.4442C16.6137 61.5086 17.8601 59.9576 19.0761 58.4218C19.0533 58.3077 19.0837 58.1329 19.2661 57.7907C19.4409 57.5246 19.7145 57.3954 19.9881 57.2281L19.9805 57.2205ZM9.24927 67.2565L9.99407 66.5798C10.4577 66.2985 10.3741 66.6635 10.5869 66.6103C9.79647 67.4694 8.58046 68.4426 9.24927 67.2565ZM55.3662 28.9904C54.8494 29.4238 56.4531 29.1273 57.6919 28.2909L57.3195 29.2337C57.0763 28.8764 54.4694 30.3589 54.1882 30.549C53.4434 30.3361 54.5302 29.8724 55.3662 28.998V28.9904ZM120.886 5.66427C121.547 6.38656 125.256 5.34494 126.123 5.42858C124.177 5.89996 119.746 6.7515 120.886 5.66427ZM127.422 4.36415C128.471 4.28812 128.76 4.18168 128.691 4.59984C129.216 4.7291 130.021 4.44018 130.546 4.56183C128.555 5.09404 128.608 4.43258 127.415 4.36415C127.141 4.39456 126.837 4.42497 126.442 4.47059C126.86 4.38696 127.149 4.35655 127.415 4.36415H127.422ZM87.6056 13.6627L86.078 13.5486C85.394 13.8071 84.7024 14.0428 84.0336 14.3165C85.2192 14.0808 86.42 13.8832 87.6056 13.6627ZM65.5655 21.8359C65.8847 22.0792 63.6047 23.1285 63.0879 23.2729C63.4223 23.5694 64.9043 22.7787 66.1431 22.2541C66.3179 22.2161 66.5763 22.1173 66.9639 21.9272C66.7131 22.0108 66.4471 22.1249 66.1431 22.2541C65.6415 22.3758 65.8543 22.0184 65.7859 21.874L66.3331 21.471L64.6003 22.1629L65.5731 21.8359H65.5655ZM30.4989 43.8619C29.5489 45.0784 29.3285 45.0936 28.4545 45.6335C28.5989 45.2989 29.6173 44.4094 30.4989 43.8619ZM76.7679 16.2857C74.5031 17.449 78.1587 16.453 76.7071 17.2817L77.9155 16.7419C76.1143 17.9964 76.2967 16.8483 74.9439 17.5478L75.8483 17.084C76.4183 16.3846 74.2903 17.3958 73.9787 17.1601C75.0047 16.5518 77.6723 15.8219 76.7679 16.2857ZM28.4545 45.1393C26.7901 47.0704 26.5089 46.0516 25.3309 47.0248C26.5773 45.3902 26.9269 46.2417 28.4545 45.1393ZM61.6743 21.8968L61.7731 21.7447L59.8503 22.5126L59.7515 22.6647L61.6743 21.8892V21.8968Z" fill="white"/>
<path d="M28.9789 50.545C28.5685 50.9936 28.2645 51.2597 27.9985 51.4574C28.2949 51.1533 28.6217 50.8491 28.9789 50.545Z" fill="white"/>
<path d="M133.76 6.89596C133.806 6.77431 134.011 6.69828 134.3 6.62985C134.27 6.69828 134.14 6.78191 133.76 6.89596Z" fill="white"/>
<path d="M138.556 6.76669C138.617 6.76669 138.685 6.76669 138.739 6.76669C138.784 6.7743 138.845 6.7895 138.891 6.80471L138.556 6.76669Z" fill="white"/>
<path d="M287.159 70.7235C287.395 71.8792 286.46 70.0164 285.928 69.3701C286.46 70.0088 286.962 70.0088 287.159 70.7235Z" fill="white"/>
<path d="M283.565 65.1581C283.785 65.6295 284.18 66.2149 284.735 66.8764C284.355 66.4886 283.998 66.0248 283.565 65.1581Z" fill="white"/>
<path d="M286.916 69.3473C286.004 68.4426 285.313 67.5682 284.735 66.8763C285.336 67.4694 285.913 67.9104 286.916 69.3473Z" fill="white"/>
<path d="M270.964 52.7271C271.488 53.6851 273.046 54.9168 273.046 54.9168C269.695 52.1797 273.244 55.9812 273.32 56.4146C271.458 54.4834 271.739 54.1641 270.964 52.7271Z" fill="white"/>
<path d="M266.753 48.8267C267.095 49.108 267.43 49.3741 267.719 49.549C267.339 49.3437 267.035 49.0928 266.753 48.8267Z" fill="white"/>
<path d="M265.309 48.0436C264.215 47.0172 264.055 46.3785 263.713 45.7095C265.287 46.6675 265.781 47.8839 266.753 48.8267C265.933 48.1501 265.165 47.4506 265.309 48.0436Z" fill="white"/>
<path d="M225.888 24.6947C226.177 24.8848 226.906 25.2497 226.83 25.4474L224.611 24.3449C223.775 23.7823 225.424 24.5046 225.888 24.6871V24.6947Z" fill="white"/>
<path d="M217.969 19.958C216.152 19.1369 216.89 20.0568 216.016 19.5474L216.396 18.9164L217.969 19.958Z" fill="white"/>
<path d="M220.454 17.0004L220.978 17.3045C220.773 17.2057 220.576 17.1144 220.355 17.008H220.454V17.0004Z" fill="white"/>
<path d="M208.803 17.0992L209.806 18.3233C208.317 17.563 208.514 16.9472 208.803 17.0992Z" fill="white"/>
<path d="M201.492 15.1073L202.526 15.6775L199.113 14.4154L201.492 15.1073Z" fill="white"/>
<path d="M192.866 12.1421L192.516 12.2181L190.137 11.4502C191.049 11.6859 191.969 11.8684 192.866 12.1497V12.1421Z" fill="white"/>
<path d="M94.8028 13.6779C94.2176 13.0848 98.162 12.2789 99.2336 11.8075C98.7092 12.872 96.0568 12.3321 94.8028 13.6779Z" fill="white"/>
<path d="M31.4641 48.1121L34.5345 45.8387C32.4065 47.9068 33.8961 46.3558 31.4641 48.1121Z" fill="white"/>
<path d="M281.079 28.8079C281.087 28.7395 281.072 28.6407 281.072 28.557C281.171 28.7699 281.201 28.8764 281.079 28.8079Z" fill="white"/>
<path d="M280.358 25.6223C280.639 26.413 281.072 27.6751 281.072 28.557C280.753 27.8804 279.666 26.1317 280.358 25.6223Z" fill="white"/>
<path d="M279.871 29.3781L279.765 28.3137C280.175 28.8231 279.765 28.8383 279.871 29.3781Z" fill="white"/>
<path d="M280.479 28.7699L280.775 28.7243L280.684 29.3478L280.479 28.7699Z" fill="white"/>
<path d="M301.258 80.1589C301.364 80.06 301.493 80.0144 301.744 80.1741L301.258 80.1589Z" fill="white"/>
<path d="M300.566 82.3561C300.589 82.5614 300.619 82.7135 300.65 82.8503C300.558 82.6527 300.551 82.5462 300.566 82.3561Z" fill="white"/>
<path d="M300.026 76.9732L300.285 77.5891C300.171 77.3914 300.08 77.1785 300.026 76.9732Z" fill="white"/>
<path d="M289.994 51.2445C290.07 50.7959 290.139 50.3701 290.169 50.0584C290.64 50.7199 290.192 50.9404 289.994 51.2445Z" fill="white"/>
<path d="M294.266 79.2389L294.524 79.6875C294.364 79.4594 294.235 79.2541 294.266 79.2389Z" fill="white"/>
<path d="M295.048 78.6687C295.246 78.8207 295.398 78.9348 295.512 79.0336C295.489 79.0336 295.474 79.0336 295.444 79.0184L295.048 78.6687Z" fill="white"/>
<path d="M298.765 74.8139V74.4186C298.871 74.5782 298.863 74.7075 298.765 74.8139Z" fill="white"/>
<path d="M293.361 78.2581C293.262 78.0376 293.156 77.7791 293.042 77.4446C293.11 77.6118 293.262 77.9844 293.361 78.2581Z" fill="white"/>
<path d="M300.672 82.9188C300.672 82.9188 300.65 82.8655 300.65 82.8503C300.657 82.8808 300.665 82.896 300.672 82.9188Z" fill="white"/>
<path d="M294.98 77.6575C294.957 77.7107 294.942 77.7639 294.896 77.8019C294.798 77.6955 294.866 77.6651 294.98 77.6575Z" fill="white"/>
<path d="M289.994 51.2445C289.971 51.3738 289.949 51.4954 289.933 51.6247C289.888 51.4726 289.926 51.3586 289.994 51.2445Z" fill="white"/>
<path d="M282.508 31.2865C282.622 31.6059 282.485 31.7351 282.341 31.8492C282.356 31.6439 282.402 31.4538 282.508 31.2865Z" fill="white"/>
<path d="M243.642 69.7047H243.512C243.566 69.6819 243.611 69.6895 243.642 69.7047Z" fill="white"/>
<path d="M256.212 71.3394C256.265 71.4002 256.319 71.4686 256.349 71.5598C256.235 71.6055 256.189 71.4838 256.212 71.3394Z" fill="white"/>
<path d="M269.148 68.1233C268.22 68.2069 267.536 67.2717 266.792 67.074L266.974 67.4238L266.282 67.0056L266.191 67.4238C264.998 66.9372 263.364 67.0208 263.052 66.2453V66.9524C262.657 66.6787 262.254 66.3822 261.851 66.1313C262.079 66.3213 262.292 66.5418 262.513 66.7471C261.015 66.5722 258.827 65.7055 258.507 65.6447L258.599 65.9184C258.333 66.0096 258.165 65.8043 257.922 65.6827L258.059 66.0932C255.825 65.5838 255.103 66.405 252.633 65.7511C251.941 65.7739 252.997 65.9108 252.99 66.1313C252.587 66.3974 251.736 66.0172 251.561 65.8271C251.705 66.443 252.777 66.3669 251.926 66.7623C251.386 66.4126 252.26 67.3554 251.28 67.1349L250.961 66.3289C250.391 66.405 250.801 66.9144 249.927 66.7547C248.947 66.3213 251.227 66.0096 249.608 65.7359C248.779 65.7359 247.791 67.4466 246.249 66.9752C244.888 67.3325 246.91 68.1917 245.071 67.9332L246.233 68.4806C245.922 68.6859 246.104 69.0812 245.314 68.8912C245.071 68.587 244.584 68.1841 244.159 68.1309C245.861 68.7695 242.646 68.952 244.227 69.7655L243.642 69.7199C243.718 69.7503 243.733 69.8263 243.695 69.8872L242.912 69.91C243.391 70.0924 244.531 70.2065 243.999 70.7539L242.882 70.8527C243.178 71.2861 242.768 71.4534 242.836 71.7955L246.059 72.7307C245.945 72.4722 245.481 72.2897 245.663 72.0388C246.537 71.8411 246.355 72.5254 247.183 72.1985L246.841 71.8487C246.902 71.978 247.016 72.0236 246.834 72.0616C246.537 72.2745 246.423 72.0084 246.431 71.7955C246.735 71.3774 247.548 71.6891 247.776 72.0008C248.84 71.978 248.042 71.2329 248.278 71.1112C248.787 71.8183 250.056 71.2177 250.687 71.6207L250.307 71.1112C251.166 70.6323 251.857 71.1721 252.306 71.385L252.161 70.982C253.279 71.1721 254.008 69.948 254.7 71.385L254.616 71.1189C255.095 71.0276 255.84 70.8832 256.22 71.3545C256.25 71.1949 256.364 71.0124 256.554 70.9972C256.729 71.5598 257.261 71.2481 257.96 71.2709C257.527 71.058 257.785 70.4118 257.329 70.1685C258.507 69.6591 258.181 71.0808 259.062 71.2253C259.655 70.9744 258.652 70.7691 258.568 70.4954C259.868 71.0884 261.715 69.4158 262.3 70.982L261.623 71.2709C262.102 71.6815 262.391 71.7499 262.353 71.6054C262.171 71.6054 262.14 71.4686 262.102 71.3317C263.896 71.0276 264.428 72.898 266.115 73.0044C266.054 72.7307 265.842 72.5938 265.887 72.381C266.716 72.2897 266.282 73.8407 267.612 73.6735L267.46 73.3161C267.909 73.2629 268.091 73.7571 268.008 73.8255C268.357 72.7231 270.516 74.6162 271.815 73.4226C272.21 74.2361 273.7 75.2853 274.323 75.1333C275.288 74.7379 273.928 74.1829 274.414 73.6735C275 73.8712 275.083 74.5782 276.01 74.6695C275.798 75.2777 273.882 75.3081 275.349 76.2129L275.691 75.9696C275.509 75.9544 275.235 76 275.038 75.8403C274.711 75.3233 275.463 75.5286 275.63 75.407C276.185 75.6579 276.725 75.9468 277.257 76.2357C277.128 76.9276 276.185 76.3649 276.018 76.4866C277.386 76.8896 279.37 76.6082 280.434 77.5358L280.418 77.2545C281.748 78.471 281.84 76.517 282.63 78.0832C283.36 78.2201 282.698 77.3153 283.709 77.7183C283.99 77.8475 283.709 77.9996 283.633 78.0604C284.743 78.8435 284.454 77.7107 285.298 78.8207L285.381 78.0452C286.491 79.1781 287.274 80.9876 288.528 81.3069C288.733 80.7671 288.011 80.463 287.927 79.9384C288.467 80.7671 289.341 81.3145 290.238 81.7859C291.347 82.3637 292.35 82.8656 293.217 83.7551C292.974 83.8844 293.179 84.3481 293.361 84.7815C293.528 85.2073 293.658 85.6026 292.951 85.3746C292.761 84.8195 292.533 84.599 292.244 84.4318C291.955 84.2569 291.598 84.1505 291.248 83.9072C291.636 85.0248 293.126 85.8383 294.243 86.2869C295.39 86.7811 296.211 86.994 296.865 88.3549C296.88 88.1497 296.888 87.9292 296.88 87.7011C297.26 88.0812 298.56 89.6171 298.02 89.4042C298.879 89.9364 299.677 90.4078 300.437 90.8411C299.692 89.9896 298.636 88.7351 297.845 87.8684C297.047 86.994 296.492 86.477 296.401 86.7735C295.9 86.0436 296.09 86.0664 296.234 86.036C296.394 86.0208 296.508 85.9524 296.036 85.1921C296.986 86.4542 297.184 86.477 297.192 86.2413C297.222 86.0208 297.116 85.5722 297.822 86.2033C298.02 86.8876 298.62 87.6707 299.38 88.5526C300.125 89.4118 300.984 90.3013 301.242 90.7651C301.417 90.8031 301.949 91.2973 302.61 91.9588C303.264 92.6127 304.047 93.4566 304.594 94.08C305.05 94.483 305.514 94.7643 305.977 95.0228C305.802 94.4982 305.643 93.9812 305.605 93.6695V93.5782C305.605 93.5326 305.552 93.411 305.552 93.411C305.498 93.2589 305.445 93.1145 305.392 92.97C305.301 92.6963 305.248 92.4758 305.24 92.3161C304.966 92.3389 304.723 92.5366 303.568 90.9552C303.614 91.0008 303.674 91.0616 303.705 91.0844C303.766 91.0464 303.773 91.0084 303.781 90.9628C303.781 90.8716 303.743 90.7271 303.652 90.5294C303.477 90.1417 303.127 89.5866 302.557 88.8643C302.246 88.8111 302.246 88.9632 302.443 89.3205C302.542 89.4954 302.679 89.7235 302.854 89.9668C302.998 90.1721 303.158 90.3926 303.325 90.6283C303.674 91.1149 304.054 91.6319 304.229 91.9588C304.404 92.2857 304.412 92.4682 303.872 92.012C303.644 91.7383 303.431 91.4874 303.226 91.2517C301.653 89.3661 300.87 88.5526 299.783 87.4882C299.631 87.1004 299.373 86.6975 299.145 86.3325C298.955 86.036 298.757 85.7319 298.453 85.2529C298.909 85.8307 299.297 86.2869 299.631 86.6519C299.806 86.8343 299.966 87.0092 300.125 87.1765C300.285 87.3438 300.437 87.4882 300.566 87.6022C300.824 87.8303 300.999 87.952 301.159 88.0432L301.394 88.1801C301.455 88.2029 301.622 88.3778 301.493 88.1345C301.242 87.5262 301.098 87.0624 301.356 87.07C301.873 87.2829 303.659 89.7007 303.287 88.1269L304.609 90.6207C303.279 87.9672 305.202 91.0312 304.89 89.6323C304.708 89.5866 304.526 89.5258 304.336 89.4498C303.849 88.3169 303.872 88.1345 304.222 88.104C303.933 88.0204 303.644 87.8988 303.34 87.7543C303.021 87.1081 302.58 86.0968 303.234 86.6975C302.914 86.3097 302.686 86.074 302.496 85.8916C302.648 85.9752 302.686 85.8459 302.458 85.2377C302.451 85.4658 302.603 85.7623 302.276 85.481C301.812 83.603 300.946 84.0136 300.642 82.9188C300.467 82.9188 300.057 82.3638 299.806 81.9076C301.432 83.1317 300.748 80.6759 301.242 80.1665C301.189 79.581 301.128 78.95 301.06 78.2809C301.098 78.6839 300.596 78.1593 300.27 77.5966L300.308 77.6879C299.92 77.0948 299.183 78.2277 298.985 76.6311L299.023 75.7111C299.038 75.8784 298.81 75.7567 298.704 75.7035C298.704 75.3994 298.689 75.0192 298.719 74.7987C297.366 74.1297 298.628 72.6927 297.731 71.6663C297.936 71.978 298.035 72.533 297.632 72.419C297.427 72.2289 297.427 71.8411 297.526 71.6054L297.427 71.7043L297.313 69.2029C297.017 69.5146 297.42 70.7919 296.819 70.3662C296.211 70.1989 296.508 69.3702 296.409 68.9444C296.713 68.8988 297.222 69.5678 297.116 68.7543C296.941 68.7087 296.401 68.0852 296.318 68.4958C296.34 67.6214 296.128 66.4278 296.394 65.561C296.196 65.3862 296.196 65.7739 296.196 65.9032L296.295 65.9336C296.295 66.4582 295.588 66.2529 296.204 67.074C295.299 67.4694 295.489 65.8347 295.086 65.0744L294.896 66.5798C292.875 64.8539 293.255 61.4478 292.54 59.2961C293.05 59.8283 292.951 60.4518 293.658 60.1249C293.551 58.6727 293.452 58.9008 293.141 57.517V57.6463C292.533 57.0836 292.928 55.8976 292.122 55.6695C291.826 56.1028 292.837 56.5134 292.031 56.8099L291.522 55.1068C291.218 55.7987 292.031 56.8099 292.138 57.4866C292.343 57.9352 291.932 56.521 292.54 56.559C293.05 58.1329 292.654 58.6727 292.153 59.7067C291.75 60.3682 291.34 59.2201 291.241 58.9312C291.742 57.6463 291.628 56.0572 290.716 54.6279L289.804 53.9892C290.101 53.0312 291.309 52.978 290.694 51.6323L290.397 52.2025C290.116 51.9592 289.994 51.7767 289.949 51.6323C289.82 52.3469 289.66 53.1149 289.5 53.7763C288.292 53.3049 289.189 51.3433 288.976 50.1192C288.877 50.2181 288.976 50.6363 288.778 50.8415C287.958 49.1841 288.459 46.9868 288.148 45.5954C287.54 45.1697 288.254 46.8043 287.555 46.7359C287.555 45.9528 286.742 45.3369 287.243 44.9568C286.544 45.5422 286.628 43.3601 286.339 44.9644C285.115 42.5466 284.902 39.4978 284.477 36.7759C284.279 36.9812 284.074 37.0496 283.876 37.004C284.18 37.8707 284.393 39.2241 283.99 39.9008C283.382 39.475 284.082 38.3649 283.778 38.2813C283.679 38.6387 283.884 39.2165 283.481 39.3685C282.774 38.7831 283.276 38.1445 283.17 37.597L283.474 37.8099C283.466 35.9928 284.576 36.4262 283.762 34.7687C283.056 34.3125 283.36 34.9132 282.752 35.1337C282.85 34.6471 281.733 33.5598 282.235 32.9136L282.645 33.9476C282.562 33.1569 282.326 32.465 282.364 31.8796C282.25 31.9784 282.128 32.062 282.136 32.2369C282.136 31.583 281.824 30.8531 282.136 30.4198L281.429 30.4806C281.84 30.7315 282.242 31.7503 281.946 32.0544C281.338 32.1533 281.338 30.9748 281.133 30.5338C281.65 32.6247 280.646 32.9972 281.657 34.571L281.756 34.2137C282.615 35.1108 282.182 36.4946 282.524 37.4298C282.303 37.2093 282.045 37.2397 281.976 37.3994C283.192 39.3001 283.512 41.467 284.629 43.7251L284.234 44.6603L284.735 44.5386C285.343 45.6183 284.135 45.0252 284.439 45.7551C284.34 45.4738 284.439 45.4966 284.538 45.3978C284.446 46.9336 285.244 45.9908 285.351 46.7967C285.754 46.2569 285.039 45.2837 285.852 45.3826C285.761 46.9108 286.78 48.8876 285.67 49.4882C286.992 51.8147 287.312 55.1449 287.927 57.2737C288.231 57.4866 288.026 57.038 288.231 57.0912C287.836 58.1481 289.66 59.6991 289.052 59.9196C289.356 60.2617 289.858 60.2769 290.063 60.3301C289.956 60.9612 290.025 61.6455 290.177 62.3449V61.7975L290.276 61.8203V62.6034C290.633 64.3293 291.446 66.2149 291.317 67.9636C291.416 66.9524 292.122 67.9332 292.221 67.439C291.522 68.5414 292.138 70.4042 292.746 71.8716C292.943 71.7955 293.148 71.8563 293.247 71.6207L293.148 72.6319L293.354 72.4342C293.711 73.1869 293.764 74.0764 293.832 74.89C293.863 75.3005 293.901 75.6807 293.984 76.0228C294.053 76.3345 294.22 76.7527 294.326 76.7071C294.342 76.6539 294.364 76.6082 294.357 76.4714C294.364 76.365 294.387 76.2889 294.425 76.2281C294.501 76.1064 294.623 76.038 294.775 75.9544L294.912 76.3726L294.972 76.593C295.01 76.7223 295.041 76.8515 295.056 76.9808C295.094 77.2393 295.102 77.5054 295.01 77.7031C295.079 77.7031 295.155 77.7031 295.246 77.7259C295.406 77.916 295.162 77.9996 295.056 78.0452L295.71 78.3569C295.512 78.5014 296.014 79.1629 295.55 79.0716C295.976 79.4442 295.869 79.543 295.687 79.5278C295.504 79.5278 295.231 79.3758 295.474 79.7255C295.39 79.6723 295.611 79.8699 295.862 80.098C296.105 80.3261 296.378 80.5922 296.432 80.7975C295.512 79.8395 295.535 79.9232 295.542 79.9992C295.542 80.0676 295.542 80.1208 294.471 78.874C294.752 79.2313 295.033 79.619 295.33 80.0372L294.243 78.7067C296.333 81.459 293.551 77.916 293.794 78.2505C293.81 78.2733 293.825 78.3037 293.84 78.3265C294.053 78.6154 294.121 78.7143 294.273 78.9196C294 78.5926 293.825 78.3722 293.407 77.7487C293.369 77.7259 292.928 77.1176 293.756 78.3874C293.331 77.7107 293.756 78.3341 294 78.6383C294.729 79.7103 294.281 79.1705 294.896 80.2197C294.828 80.1209 294.684 79.908 294.554 79.7331L294.889 80.3109C294.395 79.6495 294.228 79.4974 294.038 79.2997C293.863 79.1173 293.665 78.8968 293.392 78.3037C293.475 78.5394 293.498 78.6991 293.407 78.5926L293.118 77.6727L293.027 77.6347C293.11 78.0452 293.224 78.4786 293.369 78.9272C293.217 78.9424 293.004 78.5546 292.913 78.2049C292.814 77.8399 292.829 77.4978 292.829 77.4066C292.738 77.6651 292.677 77.7563 292.632 77.7639C292.601 77.7639 292.616 77.7639 292.563 77.7107C292.449 77.6195 292.328 77.5206 292.198 77.4218C291.689 77.0112 291.119 76.517 290.45 76.7147C290.671 76.9352 290.884 77.1709 291.096 77.399C289.516 76.3117 288.93 76.7831 287.524 75.6351C289.029 76.0076 288.938 76.1825 291.302 76.4334C290.215 76.0988 289.432 75.5514 288.657 74.9964C287.882 74.449 287.114 73.932 286.05 73.8027C286.065 74.0916 286.453 74.449 285.89 74.4794C285.769 73.8103 284.15 73.7039 284.697 73.2401C284.036 73.1793 283.686 73.6811 283.306 73.605C282.782 73.0576 282.235 72.5634 281.68 72.054V72.1985C279.734 72.2289 278.321 71.3165 276.846 70.4574C276.117 70.0088 275.395 69.5374 274.62 69.1421C273.852 68.7315 273.031 68.4198 272.112 68.3361L272.081 68.6859L271.359 67.9484C271.944 68.473 270.941 68.2753 270.804 68.549L268.783 67.1805C268.654 67.4542 268.608 68.1537 269.186 68.1841L269.148 68.1233ZM293.399 78.6611L293.536 78.8055C293.536 78.8055 293.559 78.7751 293.627 78.8968L293.536 78.8055C293.528 78.8968 293.589 79.2389 293.399 78.6611ZM286.339 50.5526C286.536 50.2181 286.544 50.872 286.643 51.024L286.438 50.1877C286.232 50.1345 286.339 50.4234 286.339 50.5526ZM295.261 84.6751C295.231 84.8347 295.193 84.9868 295.14 85.1313L294.608 84.3786L295.254 84.6751H295.261ZM288.018 80.4402C288.201 80.6303 288.383 80.8051 288.558 81.0028L288.467 81.0484L287.935 80.4934L288.026 80.4402H288.018ZM281.976 73.6963C282.014 73.7343 282.045 73.7723 282.075 73.8331C282.037 73.8027 281.999 73.7495 281.976 73.6963C281.551 73.1869 281.034 73.8103 280.882 72.9436C281.68 72.571 281.771 73.3313 281.976 73.6963ZM292.791 79.1097C292.875 79.2541 292.928 79.3377 292.989 79.3225C292.913 78.9804 292.806 78.4786 292.898 78.4254C292.951 78.7979 293.217 79.0488 293.316 79.6114C293.133 79.2313 293.065 79.4062 292.966 79.4974C292.875 79.5962 292.784 79.6267 292.791 79.1097ZM295.915 79.2161L296.006 79.3453C296.128 79.3606 296.249 79.3529 296.356 79.3377C296.211 79.3073 296.067 79.2693 295.915 79.2161ZM295.938 77.9312C296.515 77.9084 296.173 77.2165 296.158 76.7831C295.641 76.7451 295.2 77.1329 295.36 77.4674C295.018 77.7715 296.264 77.8475 295.938 77.9388V77.9312ZM288.436 77.6803V78.106L288.246 78.068L288.794 78.6307C287.676 78.6535 287.509 77.4598 287.129 77.0796C287.509 77.3153 288.148 78.6915 288.429 77.6803H288.436ZM294.425 72.6851C294.524 71.9324 294.516 70.6399 294.919 70.6171C294.212 70.8147 294.22 71.8563 294.319 72.1453C294.418 72.2973 294.418 72.4342 294.418 72.6851H294.425ZM295.74 72.2745C295.74 73.3161 295.444 73.491 295.048 74.4262C294.44 73.605 295.238 73.0424 295.649 73.0272C295.748 72.2745 295.345 72.5482 295.14 72.2365L295.748 72.2745H295.74ZM294.136 73.9092L294.364 74.2589C294.805 74.6086 295.618 74.4338 295.056 75.3309L294.364 74.2589C294.266 74.1829 294.182 74.0688 294.136 73.9092ZM291.484 66.0476L291.378 66.5114C291.271 66.1237 291.362 66.0476 291.484 66.0476L291.575 65.6599C292.107 66.405 291.727 66.0628 291.484 66.0476ZM293.726 71.9704L294.038 73.0956C294.342 72.9208 293.931 72.2897 293.726 71.9704ZM292.183 66.0856C292.388 66.5342 292.898 67.7127 292.799 67.5606C292.396 67.5758 292.084 66.4506 292.183 66.0856ZM284.796 41.4138L285.001 42.1209L284.393 41.9536L284.796 41.4138ZM287.965 49.4426L287.661 49.3513L287.562 48.9332L287.965 49.435V49.4426ZM290.58 56.9544C290.458 56.9544 290.336 57.0228 290.245 57.1217C290.245 57.2509 290.215 57.3726 290.131 57.4562C290.093 57.3573 290.154 57.2205 290.245 57.1217C290.245 56.7795 290.04 56.3537 289.82 56.2017C289.622 56.407 289.82 56.8555 289.728 57.0912C288.915 56.597 290.116 54.4606 288.611 55.4718C288.71 55.1144 288.801 53.9664 289.212 54.2097C289.386 55.0308 290.078 56.4602 290.587 56.9544C290.686 56.9544 290.777 57 290.838 57.1293C290.762 57.114 290.678 57.038 290.587 56.9544H290.58ZM294.41 66.9676C294.463 67.2641 294.456 67.4086 294.425 67.4846C294.387 67.7735 294.266 68.0168 294.015 68.0244C294.015 67.3629 294.326 67.6747 294.425 67.4846C294.448 67.3097 294.448 67.1273 294.41 66.9676ZM295.124 68.7239V67.6823L294.919 68.2753L295.117 66.6407C295.725 67.3325 295.527 68.4426 295.124 68.7239ZM295.558 68.9444L295.231 69.2713L295.535 68.8379L295.558 68.9444L295.634 68.8684L295.945 70.5106L295.558 68.9368V68.9444ZM300.102 84.7815C302.762 88.0812 301.28 85.0476 302.215 85.6331C301.425 84.8119 300.072 83.1849 300.65 84.8195C300.026 83.7399 300.323 83.8996 300.49 83.93C300.665 83.9908 300.695 83.93 299.654 82.7515C300.019 83.5346 299.692 83.7323 299.654 83.7475L299.335 82.9796C298.704 82.531 298.947 82.896 299.335 83.4662C299.722 84.0212 300.262 84.7891 300.102 84.7815ZM297.146 84.9336L296.249 84.3025L297.199 85.0856L297.146 84.9336ZM274.11 73.9244C274.065 74.2665 272.621 74.4186 272.522 73.7039C273.183 73.8331 273.86 74.1145 274.11 73.9244ZM263.592 70.8147L264.656 71.3545C264.261 72.0616 263.653 71.0884 263.098 71.096C262.999 70.6779 263.356 71.02 263.592 70.8071V70.8147ZM256.159 69.4082L255.809 69.2257L256.083 70.0544L256.159 69.4158V69.4082ZM256.509 70.503C256.227 70.8071 256.98 71.096 257.17 71.0884L256.509 70.503ZM249.76 70.4042H250.239L249.859 69.6819L249.76 70.4042ZM250.581 69.6819C250.649 70.1837 250.55 70.8375 251.667 70.6171C251.766 70.1076 251.462 70.0848 251.933 69.5222C251.584 69.3626 251.265 69.545 251.082 69.5754C251.318 69.6819 251.637 69.4994 251.667 69.8415C251.242 69.9936 250.824 69.8872 250.588 69.6819C250.565 69.507 250.52 69.3473 250.375 69.2485C250.368 69.4082 250.451 69.5602 250.588 69.6819H250.581ZM254.631 69.5526C254.783 69.507 254.92 69.4538 254.989 69.3702L255.042 69.507C254.859 69.7123 254.738 69.6515 254.631 69.5526C254.464 69.6059 254.267 69.6439 254.069 69.6819C253.894 70.1 254.609 70.4726 254.776 70.7311C254.434 70.5714 254.175 70.1152 253.674 70.3281C253.719 70.465 253.651 70.541 253.947 70.5638L253.286 70.5942C252.61 69.9176 253.339 69.8035 254.069 69.6819C254.099 69.5906 254.168 69.4918 254.312 69.4006C254.434 69.3473 254.525 69.469 254.624 69.5602L254.631 69.5526ZM249.395 68.0396L249.752 68.1993C249.927 68.3894 249.798 68.549 249.851 68.6859C249.433 68.5946 248.893 68.2677 249.395 68.0396ZM271.048 71.9932C270.774 72.054 271.162 72.6927 271.732 72.7231L271.26 73.2553C271.374 72.8447 270.31 72.5862 270.204 72.5102C270.189 71.8868 270.523 72.2441 271.055 71.9932H271.048ZM293.969 82.3333C294.144 82.9112 294.524 83.2305 294.881 83.4662C295.238 83.7019 295.542 83.8235 295.748 84.0896C295.269 83.9908 293.756 83.2457 293.969 82.3333ZM295.565 82.972C295.839 83.1621 295.846 83.086 296.15 83.7475C296.432 84.1277 296.477 83.9072 296.766 84.2949C296.492 84.523 295.968 83.4434 295.565 82.9796C295.497 82.9264 295.413 82.8656 295.299 82.7667C295.39 82.7971 295.474 82.8808 295.565 82.9796V82.972ZM283.428 76.2965L283.208 75.5362L282.455 75.2473L283.428 76.2965ZM275.82 72.054C275.767 72.3962 274.893 72.0996 274.764 71.8792C274.673 72.3277 275.273 72.4722 275.722 72.6851C275.767 72.7383 275.858 72.7991 276.01 72.8447C275.927 72.7839 275.836 72.7307 275.722 72.6851C275.585 72.5254 275.782 72.3505 275.836 72.1985L276.117 72.1529L275.509 71.8107L275.82 72.054ZM261.183 67.4998C260.567 67.7507 260.529 67.6139 260.179 67.4314C260.331 67.2793 260.833 67.3173 261.183 67.4998ZM280.266 73.3389C279.316 73.1945 280.426 74.1373 279.772 74.1145L280.244 74.2513C279.332 74.3958 279.917 73.567 279.347 73.4834L279.727 73.5442C280.168 73.2553 279.309 73.0576 279.37 72.7079C279.841 72.7079 280.654 73.3998 280.274 73.3389H280.266ZM260.362 67.0664C259.366 67.3401 259.685 66.481 259.138 66.3061C259.944 66.04 259.693 66.8307 260.362 67.0664ZM275.159 70.0164L275.243 69.9556L274.604 69.469L274.521 69.5298L275.167 70.0164H275.159Z" fill="white"/>
<path d="M258.431 71.3241C258.203 71.3393 258.067 71.3089 257.953 71.2557C258.105 71.2557 258.272 71.2785 258.431 71.3241Z" fill="white"/>
<path d="M301.288 91.0388C301.151 90.7803 301.174 90.7195 301.265 90.7423C301.349 90.8944 301.387 91.016 301.288 91.0388Z" fill="white"/>
<path d="M304.503 93.966C304.503 93.966 304.579 94.0268 304.617 94.0572C304.67 94.1181 304.731 94.1865 304.784 94.2473L304.503 93.966Z" fill="white"/>
<path d="M283.215 31.6134C283.618 31.0736 283.42 31.9328 283.519 32.2217C283.42 31.9328 283.01 31.948 283.215 31.6134Z" fill="white"/>
<path d="M283.124 34.1909C283.223 33.9628 283.238 33.6891 283.185 33.3698C283.268 33.5522 283.284 33.7727 283.124 34.1909Z" fill="white"/>
<path d="M282.713 32.2521C282.972 32.6551 283.124 33.0352 283.185 33.3698C283.063 33.0884 282.774 32.906 282.713 32.2521Z" fill="white"/>
<path d="M285.373 40.2733C285.571 39.8019 285.168 39.1785 285.168 39.1785C285.981 40.5774 285.67 38.6691 285.867 38.4638C286.073 39.437 285.67 39.5814 285.373 40.2809V40.2733Z" fill="white"/>
<path d="M285.898 42.3185C285.845 42.1665 285.776 42.022 285.693 41.9232C285.822 42.0372 285.875 42.1741 285.898 42.3185Z" fill="white"/>
<path d="M286.4 42.7671C286.498 43.3145 286.202 43.6187 286.004 43.9532C285.526 43.4134 285.966 42.8127 285.898 42.3185C286.035 42.6835 286.118 43.056 286.4 42.7671Z" fill="white"/>
<path d="M293.642 58.1709C293.642 58.0416 293.536 57.7527 293.741 57.6767L294.045 58.5434C294.045 58.9312 293.741 58.3305 293.642 58.1709Z" fill="white"/>
<path d="M293.756 61.7215C293.961 62.4286 294.364 61.8888 294.364 62.2765L293.657 62.4742L293.756 61.7215Z" fill="white"/>
<path d="M290.131 62.5274V62.2993C290.146 62.3829 290.169 62.459 290.184 62.5426L290.131 62.5274Z" fill="white"/>
<path d="M295.588 64.8311L296.188 64.086C296.188 64.7399 295.588 64.9528 295.588 64.8311Z" fill="white"/>
<path d="M297.017 67.3021L297.116 66.8079L297.321 68.1689L297.017 67.3021Z" fill="white"/>
<path d="M297.739 70.6246L297.936 70.6779L298.043 71.6206L297.739 70.6246Z" fill="white"/>
<path d="M284.674 79.4518C284.849 78.7751 286.027 79.6951 286.483 79.7255C285.837 80.3642 285.571 78.9348 284.674 79.4518Z" fill="white"/>
<path d="M259.731 71.2253C260.179 71.3545 260.62 71.4762 261.061 71.613C259.951 71.6891 260.765 71.5598 259.731 71.2253Z" fill="white"/>
</g>
<defs>
<clipPath id="clip0_89_2114">
<rect width="306" height="95" fill="white"/>
</clipPath>
</defs>
</svg>
