<svg width="44" height="47" viewBox="0 0 44 47" fill="none" xmlns="http://www.w3.org/2000/svg">
<g opacity="0.2" clip-path="url(#clip0_89_371)">
<path d="M5.79359 19.4479C5.70556 19.3146 5.51408 19.5874 5.4581 19.6104C5.70053 19.7435 5.85381 19.3856 5.79359 19.4479Z" fill="white"/>
<path d="M8.1711 20.773L8.03969 20.8291L8.54534 20.8746L8.1711 20.773Z" fill="white"/>
<path d="M9.89617 22.4939C10.1197 21.9387 9.20296 21.9345 9.03608 21.4839L9.08028 21.3435L8.61996 21.5154C9.04691 21.8367 9.74024 22.1118 9.8985 22.4865L9.89617 22.4939Z" fill="white"/>
<path d="M9.98213 24.2596C10.0718 24.0522 10.3093 24.33 9.81348 23.9953C9.81895 24.0295 9.81197 24.0517 9.81239 24.0762C9.84976 24.1123 9.89959 24.1605 9.98213 24.2596Z" fill="white"/>
<path d="M9.8125 24.0761C9.62099 23.9103 9.8069 24.3262 9.8125 24.0761V24.0761Z" fill="white"/>
<path d="M10.7465 24.8251L10.3723 24.7236C10.3281 24.864 10.5232 25.096 10.3808 25.0837C10.7022 25.2499 10.7367 25.1145 10.7465 24.8251Z" fill="white"/>
<path d="M11.2602 24.7675L11.0754 24.7093C11.0592 24.761 11.0845 24.8096 11.2602 24.7675Z" fill="white"/>
<path d="M10.6907 24.5638L11.0778 24.7019C11.108 24.6058 11.2308 24.4738 10.9147 24.6262C11.0504 24.5308 10.8848 24.5924 10.693 24.5564L10.6907 24.5638Z" fill="white"/>
<path d="M10.6016 24.357C10.5488 24.1373 10.4323 23.9138 10.8066 24.0153C10.2924 23.6098 10.0851 23.9588 10.6016 24.357Z" fill="white"/>
<path d="M10.3932 22.1792L10.3245 21.8813L10.0397 21.8567C10.1821 21.869 10.2801 22.3061 10.3955 22.1718L10.3932 22.1792Z" fill="white"/>
<path d="M11.8428 26.3238C11.9373 26.256 12.0721 26.1116 12.1731 25.9971C12.1731 25.9971 12.0269 26.0486 11.9895 26.0125C12.0188 26.1517 11.9633 26.1992 11.8354 26.3214L11.8428 26.3238Z" fill="white"/>
<path d="M12.1805 25.9995C12.1805 25.9995 12.4274 25.9635 12.4348 25.9658C12.362 25.8616 12.2745 25.9072 12.1805 25.9995Z" fill="white"/>
<path d="M11.734 24.3722L10.9942 24.245L11.8212 24.4566L11.734 24.3722Z" fill="white"/>
<path d="M11.9561 26.5057C11.9561 26.5057 11.8876 26.5166 11.8169 26.535C11.7461 26.5533 11.6753 26.5717 11.6753 26.5717C11.68 26.5569 12.1054 26.4958 12.1008 26.5106L11.9611 26.5154L11.9561 26.5057Z" fill="white"/>
<path d="M11.9832 26.6523C11.7548 26.6292 11.5934 26.6515 11.4631 26.6267L11.5149 26.643L11.5639 26.6422L11.5997 26.7347C11.6582 26.8587 11.7361 26.9726 11.8066 27.0842C11.7754 26.9768 11.771 26.8617 11.8059 26.7508C11.8315 26.6695 11.8439 26.6816 11.8708 26.6738C11.905 26.6683 11.9415 26.6554 11.9832 26.6523Z" fill="white"/>
<path d="M12.0064 27.4558C11.9678 27.3461 11.8922 27.2249 11.8042 27.0915C11.8405 27.2086 11.8989 27.3326 12.0064 27.4558Z" fill="white"/>
<path d="M12.5509 26.1648C12.4903 26.2026 12.3153 26.2938 12.2699 26.3607C12.2699 26.3607 12.3476 26.3202 12.4304 26.2894C12.5082 26.2489 12.5859 26.2083 12.5859 26.2083L12.5509 26.1648Z" fill="white"/>
<path d="M12.5881 26.2009C12.5881 26.2009 12.6084 26.2398 12.6209 26.2518L12.6022 26.311C12.6022 26.311 12.6139 26.274 12.6209 26.2518L12.5955 26.2033L12.5881 26.2009Z" fill="white"/>
<path d="M12.5383 26.1528L12.5457 26.1551C12.5457 26.1551 12.5846 26.1348 12.5383 26.1528Z" fill="white"/>
<path d="M12.2198 25.2807C12.5045 25.3053 12.9756 25.4861 12.8519 24.976C12.5758 25.0272 12.6468 25.3176 12.2198 25.2807Z" fill="white"/>
<path d="M12.8823 25.9117L12.8032 25.7243C12.7379 25.7769 12.6439 25.8691 12.5315 25.8906C12.5241 25.8883 12.8699 25.8996 12.875 25.9094L12.8823 25.9117Z" fill="white"/>
<path d="M13.0542 25.9333L12.8823 25.9117L12.903 25.9751L13.0542 25.9333Z" fill="white"/>
<path d="M12.4149 26.8288C12.5333 27.0205 12.5145 27.2095 12.5057 27.418C12.6004 27.2203 12.6814 26.9371 12.7035 26.7897C12.6027 26.7742 12.4296 26.6791 12.4149 26.8288Z" fill="white"/>
<path d="M12.5543 26.5152L12.5764 26.5222C12.5764 26.5222 12.613 26.5093 12.5543 26.5152Z" fill="white"/>
<path d="M12.195 29.4893L12.2584 29.4686L12.1992 29.45L12.195 29.4893Z" fill="white"/>
<path d="M12.7697 26.7861C12.847 26.7211 12.7676 26.6636 12.6738 26.6259C12.6992 26.6745 12.7124 26.7356 12.7012 26.797C12.7456 26.811 12.7751 26.8203 12.7697 26.7861Z" fill="white"/>
<path d="M12.068 28.0601C12.15 27.9803 12.2269 27.8908 12.289 27.7966C12.1701 27.8648 11.9839 28.0174 12.068 28.0601Z" fill="white"/>
<path d="M12.4766 26.5557L12.4618 26.5511C12.3911 26.5694 12.4253 26.564 12.4766 26.5557Z" fill="white"/>
<path d="M12.4765 26.5557C12.5185 26.5771 12.6022 26.5953 12.6738 26.626C12.6535 26.5871 12.6235 26.5533 12.5764 26.5222C12.5496 26.53 12.5131 26.5429 12.4788 26.5484L12.4765 26.5557Z" fill="white"/>
<path d="M14.1963 30.436C13.896 30.3577 13.6843 29.8686 14.0659 29.5338C13.8948 29.1225 12.8572 29.2183 12.2535 29.4589C12.3815 29.491 12.5067 29.5061 12.6265 29.9256C12.8158 29.8146 13.1473 29.1228 13.3717 29.494C13.4468 30.0295 13.2021 29.9037 13.0024 30.1252C13.4184 29.9393 13.4427 30.9462 14.0286 30.8138C14.0286 30.8138 13.9974 30.7065 13.9611 30.5894C13.9323 30.4747 13.8983 30.3503 13.8983 30.3503C13.9843 30.3611 14.0999 30.5356 14.1986 30.4286L14.1963 30.436Z" fill="white"/>
<path d="M12.4005 28.7334L12.3878 28.567C12.3075 28.7448 12.1672 28.855 11.8913 29.0606C11.9965 29.3456 12.1032 29.4197 12.197 29.4574L12.3627 28.6728L12.4005 28.7334Z" fill="white"/>
<path d="M12.4933 27.8446C12.805 28.0158 12.8879 28.4237 13.277 28.2456C13.3279 27.7742 13.0526 27.8744 12.952 27.5747C12.9208 28.3448 12.8009 27.3321 12.5326 27.8489C12.5006 27.6925 12.5032 27.5552 12.5108 27.4277C12.4542 27.5561 12.3827 27.6798 12.2965 27.7989L12.3182 27.7814C12.3668 27.7561 12.3937 27.7483 12.3599 27.7782C12.3599 27.7782 12.3575 27.7856 12.3626 27.7953C12.407 27.8093 12.4439 27.8209 12.4836 27.8497C12.3842 28.0621 12.3957 27.8708 12.3626 27.7953C12.3478 27.7907 12.333 27.786 12.3109 27.7791L12.3781 28.572C12.4515 28.4164 12.4727 28.2199 12.4836 27.8497L12.4933 27.8446Z" fill="white"/>
<path d="M13.6472 24.7469C13.6472 24.7469 13.6235 24.7963 13.6017 24.8138C13.6655 24.8177 13.6997 24.8122 13.6472 24.7469Z" fill="white"/>
<path d="M13.6895 25.0771C13.6109 25.0686 13.4795 25.1247 13.4012 24.9863C13.3789 24.8249 13.5244 24.8789 13.6041 24.8065C13.4566 24.7844 13.196 24.7349 13.2772 25.0448L13.341 25.0486C13.4435 25.3165 13.2592 25.7215 13.1903 25.708C13.4223 25.5129 13.5817 25.3681 13.6992 25.072L13.6895 25.0771Z" fill="white"/>
<path d="M13.5364 26.4668C13.5364 26.4668 13.6344 26.9039 13.6298 26.9187C13.6274 26.9261 13.9594 26.6975 13.9543 26.6877L13.7804 26.698C13.8934 26.4167 13.6667 26.4916 13.5364 26.4668Z" fill="white"/>
<path d="M12.0171 29.5388L11.679 29.3999L12.1177 29.8386L12.0171 29.5388Z" fill="white"/>
<path d="M11.9063 30.5358L11.6059 30.4575L11.735 30.8475L11.9063 30.5358Z" fill="white"/>
<path d="M33.7086 19.5739L33.6125 19.5436C33.6125 19.5436 33.6694 19.5696 33.7086 19.5739Z" fill="white"/>
<path d="M33.3154 19.9457L33.5141 19.9595C33.4157 19.9366 33.3348 19.9355 33.3154 19.9457Z" fill="white"/>
<path d="M25.3702 34.8385C25.4869 35.2164 25.5621 35.7519 25.6889 35.4262L25.7641 35.0843C25.5626 35.0534 25.4555 34.9547 25.3726 34.8311L25.3702 34.8385Z" fill="white"/>
<path d="M30.9114 28.8485C30.9114 28.8485 30.8511 28.9108 30.8247 28.9431C30.9504 28.9826 31.064 29.0346 31.1725 29.0769C31.0955 29.012 31.0083 28.9277 30.9114 28.8485Z" fill="white"/>
<path d="M29.5052 28.877L29.6604 28.4872C29.5982 28.5814 29.5439 28.7024 29.5052 28.877Z" fill="white"/>
<path d="M31.8682 19.149L31.6161 19.4596C31.788 19.4812 31.839 19.4485 31.8354 19.3823C31.8466 19.3209 31.8574 19.2349 31.8682 19.149Z" fill="white"/>
<path d="M14.8779 37.3041C15.1622 37.3042 15.4305 37.2262 15.6739 37.1241C15.2888 37.1085 15.0938 36.8765 14.8779 37.3041Z" fill="white"/>
<path d="M39.2198 19.0743C39.257 18.956 39.1878 18.918 39.068 18.9372C39.0331 19.048 39.0612 19.1137 39.2198 19.0743Z" fill="white"/>
<path d="M16.6943 36.5922C16.6306 36.5884 16.5718 36.5943 16.5131 36.6002C16.2566 36.7956 15.9853 36.9865 15.6739 37.1241C15.9513 37.1464 16.3319 37.0468 16.692 36.5996L16.6943 36.5922Z" fill="white"/>
<path d="M17.9261 18.1727C17.8891 18.1611 17.8475 18.1643 17.8105 18.1526C17.8211 18.1966 17.8627 18.1934 17.9261 18.1727Z" fill="white"/>
<path d="M9.05013 16.1996C9.12555 16.1665 9.24533 16.1473 9.36742 16.1207C9.30829 16.1021 9.21069 16.1283 9.05013 16.1996Z" fill="white"/>
<path d="M10.9056 36.1675C10.9279 35.8902 10.8686 36.1559 10.9056 36.1675V36.1675Z" fill="white"/>
<path d="M12.6215 33.7099C12.6585 33.7215 12.7051 33.7281 12.7972 33.6677C12.7098 33.7133 12.6585 33.7215 12.6215 33.7099Z" fill="white"/>
<path d="M18.3025 33.4182L18.3173 33.4229C18.243 33.3751 18.2554 33.3872 18.3025 33.4182Z" fill="white"/>
<path d="M11.1503 35.5703C11.0867 35.7209 11.0281 35.8812 10.9769 36.0438C11.0123 35.9574 11.0759 35.8069 11.1503 35.5703Z" fill="white"/>
<path d="M10.953 35.7844C10.9879 35.6735 11.0084 35.5825 11.029 35.4915C10.9679 35.5048 10.9225 35.5717 10.953 35.7844Z" fill="white"/>
<path d="M10.863 36.5604C10.8823 36.3959 10.921 36.2212 10.9768 36.0438C10.9438 36.1228 10.9128 36.1699 10.9054 36.1676C10.8946 36.2535 10.8842 36.364 10.863 36.5604Z" fill="white"/>
<path d="M23.409 10.7671C23.409 10.7671 23.4132 10.7278 23.4128 10.7033C23.2989 10.7812 23.3261 10.7979 23.409 10.7671Z" fill="white"/>
<path d="M29.2588 32.8859L29.2615 32.903L29.2791 32.9248L29.2588 32.8859Z" fill="white"/>
<path d="M29.3062 32.6327C29.5712 33.236 29.4194 33.0989 29.2769 32.9322L29.6692 33.6731C29.8839 34.0494 30.0985 34.4256 30.0985 34.4256C30.0985 34.4256 29.9395 34.0019 29.7407 33.5493C29.547 33.1065 29.3062 32.6327 29.3062 32.6327Z" fill="white"/>
<path d="M33.3653 19.1164C33.3653 19.1164 33.0264 19.3672 33.0093 19.3699C32.0618 19.7217 32.3759 19.6012 31.7443 19.9304C32.4537 19.5607 32.6294 19.5185 32.7543 19.509C32.8791 19.4996 32.9211 19.5209 33.6136 19.3083C33.7672 19.2592 33.9379 19.2073 34.1428 19.1499L33.6195 19.367C33.6195 19.367 33.5363 19.3733 33.5752 19.3531C33.0103 19.5734 33.3859 19.4641 33.7961 19.3739C34.216 19.2786 34.6854 19.207 34.4137 19.3733C34.1781 19.5022 33.8756 19.5858 33.7088 19.5739C33.7134 19.5591 33.9776 19.6747 33.9656 19.6872C33.8808 19.7499 33.6113 19.7544 33.6914 19.7065L33.5536 19.9637L33.5166 19.9521C33.706 19.9955 33.9411 20.1263 34.0135 20.206C33.7328 20.272 33.9193 20.1438 33.7307 20.1494C33.733 20.1421 33.8597 20.385 33.8499 20.3901C33.4676 20.3916 33.2998 20.1763 33.4405 20.0906C32.7027 20.0859 32.7984 20.0916 32.8902 20.1611C33.0015 20.2205 33.0997 20.3733 32.673 20.3609C32.673 20.3609 32.641 20.2045 32.6313 20.2096C32.3804 20.155 32.25 20.1302 32.0976 20.0985C32.0236 20.0752 31.9626 20.0885 31.8112 19.9759C31.8883 20.0407 32.0937 20.1623 32.3404 20.2562C32.5871 20.35 32.8726 20.4237 32.9093 20.5652C32.7919 20.577 32.7211 20.5953 32.796 20.822C32.6543 20.7043 32.5827 20.6736 32.5364 20.6916C32.4805 20.7146 32.3655 20.8734 32.2621 20.9952L31.9227 20.6284C31.7597 20.9914 31.9609 21.1522 31.9686 21.4633C31.6421 21.7262 31.3102 21.5161 31.0109 21.3569C30.4886 21.7774 31.7725 21.4666 31.2854 22.0851C31.0254 22.2145 30.8591 22.3815 30.7305 22.6091C30.6637 22.7181 30.6071 22.8465 30.5555 22.9846C30.5322 23.0585 30.5016 23.1301 30.4709 23.2017C30.4476 23.2756 30.4221 23.3569 30.3432 23.4784C29.7994 23.7865 30.1866 23.2016 29.9327 23.2598C29.9304 23.2672 29.8528 23.9008 29.8648 23.8883C29.7657 23.9709 29.6906 23.8741 29.6579 23.8232C29.4758 24.2209 30.0479 24.1328 29.7306 24.6504C29.9073 24.8116 29.6297 24.9192 29.2161 25.0977C29.0573 25.4215 28.8786 26.0151 29.308 26.4834C29.1962 26.6838 28.9828 26.381 28.8001 26.4454C29.1067 27.0456 29.2186 27.2839 29.3256 27.3826C29.4381 27.5155 29.565 27.6285 29.8881 27.8927L29.6553 28.4775C29.959 28.0287 30.4736 28.4588 30.899 28.8364C31.0579 28.6671 31.1927 28.5227 31.2526 28.4359L31.6312 29.0913C31.5667 29.1928 31.387 29.1444 31.1602 29.0649C31.2124 29.1057 31.2571 29.1441 31.2968 29.1729C31.1594 29.4546 30.854 29.3666 30.5552 29.2319C30.6418 29.1373 30.7308 29.0353 30.8198 28.9333C30.4941 28.8065 30.137 28.7022 29.859 28.7853C29.9208 28.821 29.9859 28.8984 30.0291 28.9932C29.9404 28.9653 29.8665 28.942 29.8156 28.9747C29.7647 29.0075 29.8857 29.0618 30.0343 29.1573L29.5165 29.4087L29.7421 29.4147L29.5501 30.386C29.6272 30.4509 29.7195 30.5449 29.8008 30.5705C29.8821 30.5961 29.9661 30.6388 30.0576 30.6838C30.2331 30.7716 30.4164 30.8861 30.5903 31.0303C30.9457 31.3208 31.2818 31.7759 31.4923 32.3459C31.0069 31.9007 30.7581 31.9686 30.2339 31.698C30.4969 31.7401 30.4154 31.5601 30.2827 31.3884C30.1448 31.2069 29.963 31.0359 29.9924 30.8908C29.9607 31.0433 29.7144 30.9739 29.6304 30.9312C29.6304 30.9312 29.7647 31.0466 29.9095 31.2059C30.0493 31.3555 30.1996 31.5491 30.1996 31.5491C29.77 31.3651 29.8977 31.5272 29.7364 31.5495C30.5752 31.8785 30.3761 32.2789 30.6978 32.7539C30.3973 32.5212 30.0785 32.2177 30.1071 32.0236C29.7966 31.9259 30.0605 32.1715 30.3677 32.5119C30.6625 32.8402 30.9806 33.2491 30.7118 33.1482C30.6907 33.0603 30.7373 33.0669 30.5653 32.8909C30.8718 33.3367 30.7238 33.5745 30.4274 33.1481L30.4091 33.0773C30.3921 33.2345 30.4286 33.5059 30.5678 33.9153C30.3866 33.9233 30.3012 34.0914 30.5871 34.6282C30.5065 34.4972 29.8801 33.3901 29.7538 33.1717C29.7538 33.1717 30.1747 34.0028 30.336 34.7035C30.5245 35.4209 30.4558 36.0004 30.4558 36.0004C30.3516 35.6346 29.9717 34.9057 29.7012 34.2681C29.4233 33.6282 29.2275 33.0629 29.2542 32.9007C29.1094 32.7414 28.9914 32.5742 28.9161 32.7618C28.9893 32.8904 29.4878 33.9653 29.4023 33.979C29.1124 33.506 29.0267 33.3653 28.9434 33.2172C28.8678 33.0959 28.7728 32.9848 28.5822 32.5836C28.7007 32.7752 28.809 33.8248 28.5514 33.6625C28.5637 33.5201 28.4384 32.6277 28.4811 32.5436C28.4811 32.5436 28.4284 32.7626 28.3286 32.9506C28.2265 33.1459 28.0773 33.3102 28.0773 33.3102C28.2153 33.2074 28.1326 32.5152 28.1105 32.2239C28.1138 32.4199 27.8409 32.074 27.7386 32.1149C27.7386 32.1149 27.8093 32.3809 27.8166 32.3832C27.7221 32.2966 27.6319 32.3251 27.5152 32.3858C27.3838 32.442 27.1964 32.5211 27.0363 32.6169C26.7086 32.8063 26.3763 33.0104 26.0124 32.7984C26.187 32.6827 26.7354 31.921 26.4045 31.6301C26.0299 31.9427 24.6706 33.1641 23.8515 33.1337L23.8368 32.8448C23.8368 32.8448 23.675 32.8426 23.5183 32.8501C23.3911 32.867 23.2912 32.9005 23.2912 32.9005C23.4776 32.618 24.051 32.3191 24.5976 32.0281C25.1441 31.737 25.7156 31.4701 26.0787 31.3488C25.8871 31.0285 26.1348 31.0415 25.7002 30.8478C25.6611 30.5593 26.0913 30.6378 26.222 30.6871L25.307 30.0579C25.2007 30.2925 24.9857 30.3304 24.7037 30.3229C24.3451 30.275 24.0234 30.2388 23.9855 30.4625C23.9855 30.4625 24.0936 30.4803 24.2558 30.5069C24.418 30.5336 24.6837 30.5929 24.8183 30.5784C25.1469 30.5924 25.4756 30.6065 25.4756 30.6065C25.2754 31.0878 24.2406 31.6395 23.4257 31.1312C23.2437 30.8058 23.8134 30.2864 23.8669 30.1164C23.6652 30.2154 22.8303 29.977 22.7415 29.7947C22.7415 29.7947 22.8538 29.7732 22.9662 29.7517C23.086 29.7325 23.2058 29.7134 23.2058 29.7134C22.9819 29.5211 22.7684 29.5026 22.5848 29.5179C22.2624 29.8714 22.0333 30.238 21.5416 30.1482C21.3223 30.2254 20.5667 29.8901 20.6381 30.2051C21.3272 30.5194 21.8478 32.3243 21.9046 32.789C21.8653 32.7848 21.7217 32.699 21.3857 32.6826C21.0811 32.6436 20.7419 32.5856 20.5812 32.5025C20.101 32.2214 20.4681 31.3133 20.0645 31.0725C20.1207 31.2039 20.0559 31.4354 20.0229 31.5144C19.802 31.4936 19.8907 31.0828 19.5518 31.3336C19.7343 31.8378 18.7855 31.6773 19.5845 31.8232C19.2982 32.1393 19.1549 31.9236 18.7397 32.1585C19.0305 32.3962 18.8902 33.3838 18.6016 33.7073C18.5625 33.5732 18.4014 33.4656 18.322 33.4081C17.5581 33.7445 17.1648 33.6776 16.5744 33.9791C16.5233 33.8575 16.2969 33.8025 16.4506 33.469C16.3624 33.62 16.2468 33.8842 16.0672 33.9901C15.9202 33.5539 16.4376 33.7168 16.3764 33.1369C16.285 33.5306 15.8691 33.8709 15.5156 34.2715C15.3252 34.9021 16.098 34.0729 16.3447 33.7281C16.2731 34.1362 16.0849 34.605 15.7381 35.1133C15.401 35.6165 14.8904 36.1544 14.3223 36.6174C13.4482 37.2522 14.3168 36.1445 14.1143 36.3489C13.5836 36.5637 13.1018 37.0619 12.6029 37.563C12.1138 38.0589 11.6343 38.5498 11.2517 38.6812C11.2885 38.5385 11.349 38.3463 11.4332 38.1047C12.0399 36.8739 12.4808 36.7121 12.8796 36.0902C12.9104 36.173 12.8931 36.3057 12.8419 36.4683C13.0301 36.4382 13.0051 36.6984 13.2818 36.5418C13.2818 36.5418 13.0643 36.4327 13.074 36.4276C13.4043 36.101 13.8155 35.7755 13.8712 35.8824C13.8924 35.686 13.588 35.8014 13.1942 35.9943C13.311 35.3649 13.4087 34.6157 13.7157 33.9243C13.5714 33.9439 13.4441 33.8063 13.2336 34.1138L13.2572 34.3487C12.8106 35.0449 12.8044 34.2386 12.5521 34.8335C12.3478 34.6311 12.0235 34.2934 12.3466 33.3959L12.8934 32.9749C12.7356 33.0634 12.5144 33.6112 12.6409 33.6997C12.5467 33.6376 12.768 33.2442 12.9245 32.9278C13.0832 32.6041 13.1794 32.3501 12.8726 32.3184L12.6597 32.6333C12.5498 32.8018 12.4399 32.9703 12.4399 32.9703C12.2571 32.5959 11.8419 31.9534 12.1177 31.1547C11.5829 31.5632 12.1521 31.3036 11.4919 31.9814C11.886 31.6586 11.7967 32.1748 11.7259 32.6318C11.6505 33.1037 11.5937 33.5164 12.0331 32.9723C11.6481 33.3954 11.5305 33.6915 11.4328 34.0019C11.3328 34.3198 11.235 34.6302 10.8634 35.2688C11.0422 35.1138 11.2491 34.7403 11.0511 35.4985C11.1025 35.4903 11.1542 35.5065 11.1912 35.5182C11.1842 35.5403 11.1795 35.5551 11.1725 35.5773L11.1912 35.5182C11.1912 35.5182 11.2281 35.5298 11.2129 35.5006C11.3169 35.2734 11.4288 35.073 11.5395 34.9535C11.9047 34.9547 11.7488 35.8887 11.9266 35.969C11.7894 36.4051 11.7319 36.0458 11.5008 36.4443C11.4985 36.4517 11.7627 36.5673 11.765 36.5599C11.3369 37.0426 10.9061 38.3856 10.7923 37.7405L10.6453 38.6204C10.4195 39.183 10.2532 39.7887 10.2104 40.157C10.3779 40.0635 10.5525 39.9478 10.7242 39.8151C11.0244 39.7389 12.0778 38.6894 11.4682 39.3099L12.8662 38.3526L12.8022 38.4787C13.3736 38.2117 14.0755 37.6852 14.706 37.2825C15.3462 36.8747 15.9001 36.586 16.55 36.6118C16.9565 36.3011 17.3386 35.9907 18.0061 35.754L18.2086 35.9883C18.4628 35.8002 18.8772 35.6707 19.2718 35.5268C19.5304 35.4539 19.7081 35.3798 19.7052 35.2083C20.4104 35.7552 21.2879 34.5935 21.8957 34.4435L21.7328 34.0835C21.8276 34.0403 21.9174 33.9873 22.0072 33.9343C22.0799 33.8841 22.2206 33.7984 22.2128 33.7716C22.2652 33.6824 22.3126 33.5836 22.372 33.4723L22.2853 33.1282C22.3411 32.9508 22.4877 32.9238 22.6204 32.9412C22.7804 33.1297 22.9043 33.3555 23.0572 33.4118C22.9955 33.5305 22.9503 33.4675 22.9167 33.3676C22.9551 33.6071 22.9859 33.6899 23.0575 33.7206C23.0575 33.7206 23.2201 33.7718 23.3208 33.7872C23.4364 33.8073 23.5542 33.8201 23.6647 33.8305C24.1311 33.8716 24.6044 33.8906 24.8175 34.3233C25.045 34.2974 25.1521 34.3961 25.2304 34.5345C25.2156 34.5298 25.2008 34.5252 25.1837 34.5279C25.1985 34.5326 25.2234 34.5567 25.253 34.566C25.306 34.6558 25.3469 34.758 25.4073 34.8501C25.3761 34.7428 25.3351 34.6406 25.2876 34.585C25.4234 34.644 25.6401 34.7041 25.8758 34.7295L25.7914 35.101C25.7914 35.101 25.8209 35.1103 25.8431 35.1173C25.9767 35.3381 26.0795 35.0373 26.1014 34.7355C26.2313 34.7358 26.3386 34.7046 26.4926 34.6799C26.4785 35.0086 26.7049 35.0636 26.9216 35.1237C27.1457 35.1861 27.3476 35.2415 27.46 35.6587C27.7235 35.441 29.0201 36.1741 29.0174 35.434C29.0413 35.539 29.1261 35.6307 28.9829 35.5694C29.2834 35.802 29.6185 36.0537 29.8078 35.9427L30.1258 36.6359C30.1258 36.6359 30.2366 36.5164 30.3201 36.3802C30.4035 36.244 30.4598 36.0911 30.4598 36.0911C30.9893 36.6802 31.3311 37.0396 31.1229 37.3397C31.4759 37.1989 31.6109 37.2089 31.7533 37.2212C31.8808 37.2289 32.0232 37.2412 32.1291 36.9821L32.4018 37.4578C32.7006 37.5925 32.6632 37.1177 33.1277 37.6295C33.2897 37.786 33.4613 37.9376 33.6524 38.0789C33.7657 37.8221 33.6155 36.9056 33.4746 35.9595C33.3384 34.9986 33.2141 34.0252 33.3262 33.2562C32.8571 33.1979 32.9328 33.0349 33.0271 32.8127C33.1214 32.5905 33.2214 32.2727 32.844 32.1295C33.0517 32.0893 33.1304 31.8135 33.3847 32.2185C33.1839 31.6435 33.2069 31.2607 33.1859 30.8886C33.1705 30.705 33.1552 30.5214 33.0862 30.3535C33.0219 30.1708 32.9186 30.0083 32.7533 29.94C32.9523 29.8239 33.0859 30.0447 33.1971 29.9497C33.1398 29.8992 32.9806 29.7597 33.0894 29.6721C33.2006 29.5771 33.2867 29.7423 33.3937 29.841C33.2472 29.1449 32.5861 29.1806 31.9619 29.2278C32.193 28.8294 32.1263 28.654 31.682 28.4654C31.8607 28.3105 32.0332 28.0723 32.1775 28.4914C32.166 28.2441 32.225 26.9466 31.7358 27.0038C31.8415 26.8746 31.7262 26.7246 31.6643 26.6888C31.6336 26.3217 31.6799 26.3038 31.5734 25.9453L31.5011 26.02C31.2665 25.9137 31.1719 25.8271 31.1485 25.7466C31.213 25.645 31.4941 25.6035 31.5966 25.4327L31.6414 25.4711C32.085 25.3264 32.0791 25.2677 32.0997 25.1767C32.1058 25.1055 32.1532 25.0067 32.6819 24.8238L32.3791 24.5985C31.8784 23.9697 33.3348 24.2981 33.5229 23.6749L33.2214 23.6775C33.2463 23.2629 34.6182 23.8084 34.9097 23.6564C35.0078 23.6548 34.9099 23.8108 34.8773 23.9143C35.3408 23.784 35.268 23.6798 35.1333 23.5399C35.0659 23.47 34.9764 23.3931 34.9308 23.3056C34.8899 23.2033 34.847 23.133 35.0055 22.9392C35.3323 22.9851 35.32 23.5662 35.8586 23.0939C36.0732 23.0315 36.273 22.5257 36.488 22.0491C36.7128 21.5674 36.9578 21.1245 37.5782 20.8568C37.1855 20.9687 36.8313 21.036 36.941 20.7131C37.1088 20.4897 37.6507 20.2134 38.1405 19.8964C38.6205 19.5844 39.0313 19.2343 38.7274 19.0899C38.8708 19.0214 38.9805 18.9827 39.066 18.9691C39.161 18.6415 39.7367 17.8965 39.249 17.8974C40.1603 17.5831 40.5909 17.2474 40.8115 16.9594C40.262 16.9245 39.4367 16.9654 38.961 16.9537C38.4854 16.9421 38.3149 16.8641 38.947 16.5594L37.3387 16.3781L37.5307 16.2842C36.6251 16.0642 35.9567 16.2519 35.3988 16.45C35.2672 16.3517 35.511 16.2741 35.5911 16.2262C34.4395 15.8068 34.0692 15.7959 32.8285 16.2016L32.8219 15.8095C32.7345 15.8551 32.5672 15.8187 32.37 15.7485C32.2217 15.6775 32.0365 15.5948 31.8241 15.4954C31.4042 15.3064 30.8988 15.1311 30.3891 15.2794C30.4031 15.235 30.4337 15.1635 30.5189 15.1253C30.2455 15.1936 29.9604 15.1445 29.6744 15.0463C29.4056 14.9455 29.055 14.7945 29.0316 14.714C28.8448 14.5333 28.7875 14.4828 28.2409 15.0582L28.195 15.1006C28.195 15.1006 27.757 14.9952 27.7469 14.9758C27.8502 15.2927 27.7395 15.4122 27.5836 15.4687C27.4254 15.5327 27.2192 15.5165 27.2136 15.7666C27.0988 15.6411 27.0744 15.3572 27.1228 15.1775C27.1713 14.9978 27.2824 14.9027 27.3875 15.0333L27.3573 15.1294C27.6753 14.9452 27.6323 14.7204 27.5703 14.5303C27.493 14.311 27.3305 13.9755 27.5693 13.8882C27.1419 13.1037 26.8116 12.2686 26.5013 11.4479C26.4471 11.2846 26.2842 10.9246 26.1641 10.635C26.0339 10.3259 25.9014 10.0242 25.7689 9.72254C25.4988 9.10946 25.2139 8.49173 24.9197 7.90357L24.8341 8.35597C24.7889 8.57731 24.7436 8.79865 24.7436 8.79865L24.3878 8.04486C24.3524 7.69253 24.4445 7.19346 24.7267 7.79408C24.7283 7.45338 24.5636 7.27968 24.4111 7.24794C24.2512 7.21386 24.1059 7.31434 24.0803 7.39565C23.8607 6.72536 23.9558 6.55219 24.1176 6.55437C24.272 6.55423 24.4806 6.71738 24.3941 6.52766L24.1296 6.10321L24.1625 6.30853C23.8824 6.26913 23.798 6.64063 23.4753 5.96226C23.2912 5.35999 23.4368 5.12961 23.3549 4.92511C23.3611 4.85393 23.3349 4.75634 23.2201 4.63083L22.694 3.51472L22.8679 4.82057C22.6381 4.85384 22.4287 3.91868 22.6226 5.3933C22.5831 5.08025 22.524 4.77733 22.4405 4.47483C22.201 4.51317 21.7902 5.30191 21.4347 6.01865C21.0768 6.74277 20.7888 7.39955 20.6593 7.42379C20.5074 8.44836 20.2582 8.93047 19.8866 9.56905C20.0347 9.48568 20.3824 9.90383 20.0982 10.3424C19.7923 9.79122 19.5867 9.95398 19.342 10.2669C19.0973 10.5798 18.8422 11.0032 18.3732 11.0993C18.9437 11.0677 17.844 12.4195 18.7185 12.2479C18.4617 12.5733 18.3605 12.0946 18.0006 12.2575C17.9676 12.7752 17.6639 13.2239 17.3283 13.6707C17.2444 13.7824 17.1581 13.9015 17.0669 14.0109C16.9853 14.1152 16.8777 14.2763 16.8462 14.2989C16.7475 14.406 16.6831 14.5075 16.6439 14.6577C16.7366 14.7762 16.9506 14.8192 17.0267 15.1194C16.8765 15.0802 16.7384 15.0286 16.705 15.0831C16.5855 14.9724 16.4734 14.864 16.3687 14.7579C16.3283 14.8346 16.6607 15.5079 16.22 15.1011C16.2929 15.2053 16.4229 15.3599 16.3405 15.4152C16.2347 15.39 16.1339 15.3746 16.0406 15.3614L15.908 15.3441L15.6874 15.3478C15.3911 15.3601 15.1025 15.3993 14.8117 15.4458C14.2276 15.5464 13.6467 15.6885 13.063 15.8135C11.8934 16.0709 10.7128 16.2599 9.44332 15.8278C9.79978 16.0375 9.59487 16.0949 9.35806 16.1503C9.52534 16.1867 9.40777 16.4828 9.47445 16.6581L8.41003 16.3231C8.31835 16.8467 7.37412 16.517 7.35321 17.0222L7.6475 16.8874C7.3323 17.5275 8.4319 18.0604 8.49094 18.802C8.84145 18.0756 9.86145 19.5584 10.4687 18.5065C10.6571 18.6308 10.3628 18.7656 10.4855 18.918C10.6267 18.5725 10.8456 18.4708 11.2952 18.5392L11.2673 18.6279C12.4513 18.3506 13.0139 18.5764 14.4008 18.558L14.2406 18.2151C14.5421 18.2125 14.6223 18.319 14.7728 18.3826C15.0126 17.7757 13.9511 18.4896 14.1582 17.8317C14.409 18.1706 14.9223 18.0885 15.4236 18.0188C15.6705 17.9828 15.9225 17.9565 16.1263 17.98C16.2368 17.9904 16.306 18.0284 16.422 18.0731C16.5402 18.1103 16.6395 18.1821 16.7146 18.2789C17.4162 18.1666 16.4117 17.8992 17.079 17.7924L17.337 17.9792L17.3931 17.6719C17.8314 17.6474 18.2128 17.8812 18.3456 18.053C18.2157 18.0527 18.0458 18.1536 17.9288 18.1899C18.2509 18.2506 18.6273 18.1904 18.9469 18.1041C19.1328 17.6427 19.2525 17.1848 19.3493 17.1096L18.9266 17.6265C19.7988 15.4232 20.5592 14.582 20.7154 13.2339L20.5194 13.2372C20.58 12.7607 20.7148 12.6163 20.857 12.4742C20.9709 12.3963 21.0977 12.3549 21.1709 12.0449L21.1962 12.0935C21.1116 11.8719 21.137 11.6362 21.2302 11.4949C21.304 11.8025 21.6002 11.6357 21.6605 12.0121C21.6543 11.6446 21.6542 11.4902 21.6147 11.3316C21.5873 11.1605 21.5086 10.9976 21.4637 10.366L21.6401 10.6572C21.6 10.1652 21.5524 9.95523 21.7013 9.48215C21.6677 9.82094 21.7406 9.9251 21.7994 10.0736C21.8606 10.2147 21.9176 10.3951 21.9164 10.7603C22.1484 11.004 22.164 10.6189 22.2258 10.2159C22.2807 9.83514 22.3582 9.48581 22.4294 10.3694C22.5384 8.39704 22.1622 9.92781 22.22 9.43421C22.1015 9.08818 22.2863 7.98463 22.422 7.88921C22.4266 7.87443 22.4437 7.87169 22.4488 7.88141C22.5097 8.15243 22.5523 8.7914 22.5988 9.36657C22.6406 9.95653 22.6737 10.4707 22.7645 10.6211C22.7466 10.5748 22.7362 10.6853 22.7182 10.639C22.7385 11.1166 22.9257 10.4444 22.9229 11.1503C23.1378 10.5192 23.0227 11.401 23.2833 10.5731C23.2833 10.5731 23.0073 10.3401 23.0124 10.3498C23.0979 10.3361 23.2292 10.1255 23.3828 10.0764C23.5313 10.0175 23.6975 10.1348 23.7321 10.5926C23.6431 10.6945 23.4872 10.7511 23.4044 10.7819C23.3783 11.123 23.5924 10.8817 23.5589 11.2204C23.3705 11.5349 23.3032 11.4649 23.2253 11.351C23.1548 11.2395 23.0636 11.0646 22.9332 11.3241C22.8671 11.7664 23.304 11.0752 22.9667 11.8627C23.1864 11.3713 23.2379 11.5175 23.2551 11.6692C23.2849 11.8329 23.2776 11.9849 23.5544 11.8283L23.3023 12.1389C23.3582 12.1159 23.5165 12.052 23.5473 12.1348C23.5422 12.1251 23.1473 12.3989 23.1575 12.4183C23.3347 12.3198 23.3177 12.4769 23.2662 12.615C23.2196 12.7628 23.1186 12.8773 23.2485 12.8776C23.1854 12.7683 23.2623 12.6788 23.3859 12.5958C23.5045 12.5032 23.6701 12.4416 23.7333 12.2665C23.9033 12.32 23.959 12.4269 23.9362 12.5253C23.9336 12.6626 23.8626 12.8109 23.7791 12.9471C23.6148 13.2366 23.4242 13.5584 23.7934 14.0889C23.6637 13.9588 23.6912 13.4069 23.9636 13.5738C24.007 13.8231 24.0327 14.1805 23.931 14.4003C24.3867 15.1206 24.208 14.1138 24.5718 14.3258C24.3051 14.7862 24.9272 14.6164 25.2258 14.881L24.8953 15.0532C25.0113 15.5365 25.2166 15.5037 25.4072 15.4661C25.5926 15.4189 25.7781 15.3717 25.9331 15.9891C25.9432 16.0086 25.2535 15.7996 25.241 15.7875L25.6767 16.339L25.2646 16.4611C25.8687 16.9681 25.914 17.1855 26.1741 17.9335C26.1963 17.9405 26.2259 17.9498 26.2554 17.9591C26.2509 17.6896 26.7943 17.3569 27.3715 17.433C27.6849 17.7022 26.9697 17.729 27.8853 17.8141C27.6214 18.0072 27.221 18.2468 26.9768 17.8612C26.8781 17.9682 26.6417 18.0482 26.5283 18.1506C26.9233 18.4699 27.8365 18.408 28.1928 18.4633C28.0597 18.4214 27.8924 18.385 27.8251 18.315C27.8251 18.315 28.2062 18.24 28.5923 18.1747C28.8555 18.0869 29.0818 17.9875 29.0818 17.9875C29.1947 18.145 29.0739 18.245 28.9479 18.3354C29.1315 18.32 29.276 18.1705 29.5409 18.1808C29.4257 18.4695 29.3917 18.7838 29.0083 18.8662L29.8922 18.6651C29.9289 18.8066 30.262 19.0902 30.1361 19.1805C30.5544 19.4259 31.3842 18.7772 31.9018 19.0945C31.9204 19.0353 31.9514 18.9882 32.0047 18.9481C32.0961 18.9932 32.1398 19.1125 32.185 19.1755C32.2399 19.2334 32.2963 19.2349 32.5777 19.0635C32.5998 19.0705 32.2036 19.5551 32.1791 19.5555C32.2763 19.5048 32.443 19.3623 32.5922 19.1981C32.7488 19.0361 32.8906 18.8695 33.2009 18.8128C33.6869 18.714 32.7567 19.2173 32.6413 19.3516C32.8454 19.2453 33.1883 19.0851 33.4566 19.007C33.7249 18.929 33.9209 18.9257 33.6519 19.1091C33.4105 19.1794 33.4901 19.107 33.363 19.1238L33.3653 19.1164ZM32.9315 20.5722C32.9081 20.4917 32.7239 20.3281 32.9748 20.3827C33.3706 20.5967 33.1053 20.5619 32.9315 20.5722ZM30.361 29.9263C30.2225 29.8502 30.2639 29.6927 30.3711 29.507C30.4245 29.6213 30.4293 29.761 30.361 29.9263ZM10.7973 38.9119C10.7973 38.9119 10.8047 38.9142 10.8167 38.9018C10.5615 39.6095 10.66 39.348 10.7973 38.9119ZM11.1376 37.7273C11.0859 37.711 11.0187 37.7955 10.9496 37.9118C11.0537 37.839 11.0325 38.0354 10.9612 38.3136C11.0971 38.0883 11.1965 37.8758 11.1302 37.725L11.1376 37.7273ZM23.2885 5.05858L23.348 5.386C23.1495 5.24228 23.2167 5.15782 23.2885 5.05858Z" fill="white"/>
<path d="M29.667 28.8792C29.7225 28.8317 29.7933 28.8134 29.8567 28.7927C29.7874 28.7546 29.7116 28.7633 29.667 28.8792Z" fill="white"/>
<path d="M19.7476 31.0215C19.8798 31.0143 19.9759 31.0446 20.0451 31.0826C20.007 30.9975 19.9229 30.9548 19.7476 31.0215Z" fill="white"/>
<path d="M11.1859 33.1605L11.1888 33.7707C11.2204 33.4638 11.3257 33.3101 11.4083 33.1249C11.3111 33.1756 11.155 33.362 11.1785 33.1582L11.1859 33.1605Z" fill="white"/>
<path d="M14.1799 28.8873C14.1421 28.8266 14.1926 28.7694 14.1548 28.7088L13.9806 28.6946C13.9551 28.9303 14.0685 29.1122 14.1799 28.8873Z" fill="white"/>
<path d="M12.6024 32.1441C12.9406 31.9987 12.875 31.7424 12.8669 31.4068C12.8599 31.429 12.8627 31.4461 12.8557 31.4683C12.4138 31.4267 12.5037 31.8124 12.6024 32.1441Z" fill="white"/>
<path d="M12.8658 31.3333C12.8665 31.2279 12.8769 31.1174 12.9095 31.014C12.7348 30.9752 12.8505 31.1498 12.8658 31.3333Z" fill="white"/>
<path d="M11.066 36.8192C11.1932 36.5181 10.6039 37.1775 10.7732 36.8977C10.552 37.0068 10.6417 37.2381 10.7798 37.2897C10.9202 37.3339 11.1072 37.2303 11.0609 36.8095L11.066 36.8192Z" fill="white"/>
<path d="M13.7328 31.5981L13.3099 31.8062C13.3099 31.8062 13.3838 31.8295 13.4624 31.838C13.5386 31.8538 13.6172 31.8623 13.6172 31.8623L13.7351 31.5907L13.7328 31.5981Z" fill="white"/>
<path d="M13.0865 33.9618L13.2758 33.4121C13.2008 33.4697 13.1685 33.4433 13.1432 33.3947C13.082 33.6923 12.9513 34.0818 13.0791 33.9595L13.0865 33.9618Z" fill="white"/>
<path d="M13.1455 33.3873C13.1772 33.2349 13.1872 33.0999 13.1277 33.0568C13.1192 33.1353 13.105 33.3096 13.1455 33.3873Z" fill="white"/>
<path d="M13.7712 32.122L13.6636 32.2831L13.5904 32.5931L13.7712 32.122Z" fill="white"/>
<path d="M14.6388 35.7665L15.1615 35.3705C15.2756 35.1627 15.2036 35.1075 15.0175 35.2602C14.8613 35.4466 14.6557 35.6094 14.6411 35.7591L14.6388 35.7665Z" fill="white"/>
<path d="M14.3808 34.7023C14.3774 34.7906 14.299 34.9365 14.2186 35.1143L14.7223 34.3142L14.3831 34.6949L14.3808 34.7023Z" fill="white"/>
<path d="M15.387 34.0604C15.5229 33.8351 16.014 33.3072 15.672 33.5164C15.5676 33.7191 15.1906 34.0392 15.387 34.0604Z" fill="white"/>
<path d="M20.9944 31.8608L20.8852 31.9239L21.2596 32.6185L20.9944 31.8608Z" fill="white"/>
<path d="M27.5555 31.4318C27.1491 31.0195 27.2187 31.8051 26.883 31.3745C26.6863 31.4832 27.161 31.7301 26.9713 31.8166C27.3606 31.7929 27.4666 31.9725 27.5629 31.4341L27.5555 31.4318Z" fill="white"/>
<path d="M26.964 31.8143C26.9053 31.8201 26.8369 31.8311 26.7587 31.8471C26.8641 31.8478 26.9252 31.8345 26.964 31.8143Z" fill="white"/>
<path d="M7.69363 15.992L7.312 15.8882L7.5829 16.1115L7.69363 15.992Z" fill="white"/>
<path d="M7.11956 16.6806L6.95459 16.1981L6.81815 16.6832C6.89357 16.6501 7.03702 16.5815 7.11956 16.6806Z" fill="white"/>
<path d="M31.857 20.2177L31.9224 20.3196C32.0508 20.3762 32.1522 20.2863 32.1623 20.3057C32.1623 20.3057 32.1028 20.2626 32.0409 20.2269C31.9596 20.2013 31.8472 20.2228 31.8496 20.2154L31.857 20.2177Z" fill="white"/>
<path d="M32.9357 19.6555L32.9066 19.6707L33.7631 19.4528L32.9357 19.6555Z" fill="white"/>
<path d="M31.8289 19.8677C31.8289 19.8677 31.9381 19.8046 31.9261 19.8171C31.8242 19.8825 32.4655 19.3938 31.8289 19.8677Z" fill="white"/>
</g>
<defs>
<clipPath id="clip0_89_371">
<rect width="32.9189" height="38.7386" fill="white" transform="translate(11.6304) rotate(17.4712)"/>
</clipPath>
</defs>
</svg>
