<svg width="43" height="50" viewBox="0 0 43 50" fill="none" xmlns="http://www.w3.org/2000/svg">
<g clip-path="url(#clip0_89_289)">
<path d="M0.35 26.2C0.19 26.07 0.06 26.48 0 26.53C0.35 26.6 0.4 26.1 0.35 26.2Z" fill="#FFF280"/>
<path d="M3.7899 26.91L3.6499 27.03L4.2899 26.89L3.7899 26.91Z" fill="#FFF280"/>
<path d="M6.57988 28.36C6.63988 27.59 5.50988 27.94 5.12988 27.45V27.26L4.62988 27.65C5.27988 27.88 6.23988 27.95 6.57988 28.35V28.36Z" fill="#FFF280"/>
<path d="M7.37006 30.5C7.40006 30.21 7.80006 30.46 7.06006 30.24C7.08006 30.28 7.08006 30.31 7.09006 30.34C7.15006 30.37 7.23006 30.41 7.37006 30.5Z" fill="#FFF280"/>
<path d="M7.09006 30.34C6.79006 30.21 7.18006 30.65 7.09006 30.34V30.34Z" fill="#FFF280"/>
<path d="M8.53003 30.9L8.03003 30.92C8.03003 31.11 8.36003 31.32 8.18003 31.36C8.64003 31.44 8.63003 31.26 8.53003 30.9Z" fill="#FFF280"/>
<path d="M9.13989 30.63H8.88989C8.88989 30.7 8.93989 30.75 9.13989 30.63Z" fill="#FFF280"/>
<path d="M8.36011 30.6L8.89011 30.62C8.89011 30.49 8.99011 30.28 8.66011 30.59C8.79011 30.42 8.61011 30.56 8.36011 30.59V30.6Z" fill="#FFF280"/>
<path d="M8.16994 30.38C8.01994 30.13 7.78994 29.9 8.28994 29.88C7.49994 29.58 7.37994 30.09 8.16994 30.38Z" fill="#FFF280"/>
<path d="M7.07001 27.78L6.87001 27.44L6.51001 27.52C6.69001 27.48 6.98001 27.98 7.07001 27.77V27.78Z" fill="#FFF280"/>
<path d="M10.46 32.32C10.55 32.2 10.66 31.97 10.74 31.79C10.74 31.79 10.58 31.91 10.52 31.88C10.61 32.04 10.56 32.12 10.45 32.32H10.46Z" fill="#FFF280"/>
<path d="M10.75 31.79C10.75 31.79 11.04 31.65 11.05 31.65C10.92 31.55 10.83 31.64 10.75 31.79Z" fill="#FFF280"/>
<path d="M9.57011 29.96L8.61011 30.09L9.71011 30.03L9.57011 29.96Z" fill="#FFF280"/>
<path d="M10.6701 32.5C10.6701 32.5 10.5901 32.54 10.5101 32.59C10.4301 32.64 10.3501 32.69 10.3501 32.69C10.3501 32.67 10.8501 32.43 10.8501 32.45L10.6801 32.51L10.6701 32.5Z" fill="#FFF280"/>
<path d="M10.7601 32.67C10.4701 32.73 10.2801 32.82 10.1101 32.84H10.1801L10.2401 32.82L10.3201 32.92C10.4401 33.05 10.5801 33.16 10.7101 33.27C10.6301 33.15 10.5801 33.01 10.5801 32.86C10.5801 32.75 10.6001 32.76 10.6301 32.74C10.6701 32.72 10.7101 32.69 10.7601 32.67Z" fill="#FFF280"/>
<path d="M11.1 33.65C11.01 33.53 10.87 33.41 10.71 33.28C10.8 33.41 10.92 33.54 11.1 33.65Z" fill="#FFF280"/>
<path d="M11.27 31.85C11.21 31.92 11.03 32.1 11 32.2C11 32.2 11.08 32.12 11.17 32.05C11.25 31.97 11.33 31.89 11.33 31.89L11.27 31.85Z" fill="#FFF280"/>
<path d="M11.3301 31.88C11.3301 31.88 11.3701 31.92 11.3901 31.93V32.01C11.3901 32.01 11.3901 31.96 11.3901 31.93L11.3401 31.88H11.3301Z" fill="#FFF280"/>
<path d="M11.25 31.84H11.26C11.26 31.84 11.3 31.8 11.25 31.84Z" fill="#FFF280"/>
<path d="M10.52 30.89C10.88 30.81 11.53 30.85 11.18 30.27C10.86 30.44 11.06 30.77 10.52 30.89Z" fill="#FFF280"/>
<path d="M11.5801 31.41L11.4101 31.21C11.3501 31.3 11.2701 31.45 11.1401 31.52C11.1301 31.52 11.5601 31.4 11.5701 31.41H11.5801Z" fill="#FFF280"/>
<path d="M11.8001 31.37L11.5801 31.41L11.6301 31.48L11.8001 31.37Z" fill="#FFF280"/>
<path d="M11.36 32.72C11.58 32.91 11.63 33.15 11.7 33.41C11.74 33.13 11.73 32.75 11.7 32.56C11.57 32.58 11.32 32.53 11.36 32.72Z" fill="#FFF280"/>
<path d="M11.4099 32.28H11.4399C11.4399 32.28 11.4799 32.25 11.4099 32.28Z" fill="#FFF280"/>
<path d="M12.1201 36.08L12.1901 36.03H12.1101L12.1201 36.08Z" fill="#FFF280"/>
<path d="M11.7801 32.53C11.8501 32.42 11.7301 32.38 11.6001 32.37C11.6501 32.42 11.6901 32.49 11.7001 32.57C11.7601 32.57 11.8001 32.57 11.7801 32.53Z" fill="#FFF280"/>
<path d="M11.4099 34.37C11.4799 34.24 11.5399 34.1 11.5799 33.96C11.4599 34.09 11.2899 34.35 11.4099 34.37Z" fill="#FFF280"/>
<path d="M11.3299 32.36H11.3099C11.2299 32.41 11.2699 32.39 11.3299 32.36Z" fill="#FFF280"/>
<path d="M11.3301 32.36C11.3901 32.37 11.5001 32.36 11.6001 32.37C11.5601 32.33 11.5101 32.3 11.4401 32.28C11.4101 32.3 11.3701 32.33 11.3301 32.35V32.36Z" fill="#FFF280"/>
<path d="M14.9499 36.47C14.5499 36.49 14.0999 35.97 14.4399 35.41C14.0699 34.97 12.8299 35.49 12.1799 36.02C12.3499 36.01 12.5099 35.98 12.8199 36.45C13.0099 36.24 13.1499 35.26 13.5699 35.63C13.8699 36.26 13.5199 36.2 13.3599 36.55C13.7999 36.16 14.2199 37.39 14.8899 37C14.8899 37 14.8099 36.88 14.7199 36.75C14.6399 36.62 14.5499 36.48 14.5499 36.48C14.6599 36.46 14.8699 36.63 14.9499 36.46V36.47Z" fill="#FFF280"/>
<path d="M12.0801 35.07L12.0001 34.87C11.9701 35.12 11.8401 35.31 11.5801 35.67C11.8201 35.98 11.9801 36.03 12.1101 36.04L12.0101 35.01L12.0801 35.07Z" fill="#FFF280"/>
<path d="M11.8501 33.94C12.3001 34.03 12.5601 34.5 12.9701 34.13C12.8501 33.53 12.5501 33.76 12.3101 33.43C12.5701 34.39 12.0301 33.19 11.9001 33.93C11.8001 33.75 11.7501 33.58 11.7101 33.42C11.6901 33.6 11.6501 33.78 11.5901 33.96L11.6101 33.93C11.6601 33.88 11.6901 33.86 11.6601 33.91C11.6601 33.91 11.6601 33.92 11.6701 33.93C11.7301 33.93 11.7801 33.93 11.8401 33.95C11.8001 34.25 11.7401 34.01 11.6701 33.93C11.6501 33.93 11.6301 33.93 11.6001 33.93L11.9901 34.88C12.0201 34.66 11.9701 34.41 11.8401 33.95L11.8501 33.94Z" fill="#FFF280"/>
<path d="M12.07 29.68C12.07 29.68 12.06 29.75 12.04 29.78C12.12 29.76 12.16 29.74 12.07 29.68Z" fill="#FFF280"/>
<path d="M12.25 30.07C12.15 30.09 12.01 30.21 11.86 30.07C11.77 29.88 11.97 29.89 12.04 29.77C11.85 29.8 11.51 29.84 11.73 30.19L11.81 30.17C12.04 30.46 11.97 31.03 11.88 31.04C12.09 30.71 12.23 30.47 12.26 30.06L12.25 30.07Z" fill="#FFF280"/>
<path d="M12.6001 31.84C12.6001 31.84 12.8901 32.34 12.8901 32.36C12.8901 32.37 13.2101 31.96 13.2001 31.95L12.9901 32.03C13.0201 31.64 12.7701 31.82 12.6001 31.84Z" fill="#FFF280"/>
<path d="M11.92 36.21L11.45 36.17L12.16 36.54L11.92 36.21Z" fill="#FFF280"/>
<path d="M12.17 37.48L11.77 37.5L12.08 37.93L12.17 37.48Z" fill="#FFF280"/>
<path d="M34.7599 15.54H34.6299C34.6299 15.54 34.7099 15.55 34.7599 15.54Z" fill="#FFF280"/>
<path d="M34.4199 16.15L34.6699 16.09C34.5399 16.1 34.4399 16.13 34.4199 16.15Z" fill="#FFF280"/>
<path d="M30.4099 37.56C30.6999 37.98 30.9999 38.61 31.0299 38.16L30.9899 37.71C30.7299 37.75 30.5599 37.67 30.4099 37.55V37.56Z" fill="#FFF280"/>
<path d="M34.9101 28.04C34.9101 28.04 34.8601 28.14 34.8401 28.19C35.0101 28.19 35.1701 28.21 35.3201 28.22C35.2001 28.17 35.0601 28.1 34.9101 28.04Z" fill="#FFF280"/>
<path d="M33.19 28.62L33.23 28.08C33.19 28.22 33.17 28.39 33.19 28.62Z" fill="#FFF280"/>
<path d="M32.3299 15.73L32.1399 16.21C32.3599 16.17 32.4099 16.11 32.3799 16.03C32.3699 15.95 32.3499 15.84 32.3299 15.73Z" fill="#FFF280"/>
<path d="M18.45 44.66C18.8 44.55 19.1 44.35 19.36 44.13C18.88 44.26 18.55 44.05 18.45 44.66Z" fill="#FFF280"/>
<path d="M41.3501 12.79C41.3501 12.63 41.2501 12.61 41.1101 12.68C41.1101 12.83 41.1701 12.9 41.3501 12.79Z" fill="#FFF280"/>
<path d="M20.4101 43.08C20.3301 43.1 20.2601 43.13 20.1901 43.16C19.9501 43.5 19.6901 43.84 19.3601 44.13C19.7101 44.05 20.1401 43.78 20.4101 43.09V43.08Z" fill="#FFF280"/>
<path d="M14.7899 19.93C14.7399 19.93 14.6899 19.95 14.6399 19.95C14.6699 20 14.7199 19.98 14.7899 19.93Z" fill="#FFF280"/>
<path d="M3.1001 20.94C3.1801 20.87 3.3201 20.8 3.4601 20.72C3.3801 20.72 3.2701 20.79 3.1001 20.94Z" fill="#FFF280"/>
<path d="M13.1199 44.8C13.0399 44.45 13.0699 44.8 13.1199 44.8V44.8Z" fill="#FFF280"/>
<path d="M14.28 41.11C14.33 41.11 14.39 41.1 14.48 40.99C14.39 41.08 14.33 41.11 14.28 41.11Z" fill="#FFF280"/>
<path d="M21.16 38.55H21.18C21.07 38.52 21.09 38.53 21.16 38.55Z" fill="#FFF280"/>
<path d="M13.1899 43.97C13.1699 44.18 13.1599 44.4 13.1599 44.62C13.1699 44.5 13.1899 44.29 13.1899 43.97Z" fill="#FFF280"/>
<path d="M13.03 44.31C13.03 44.16 13.02 44.04 13.01 43.92C12.94 43.96 12.91 44.06 13.03 44.31Z" fill="#FFF280"/>
<path d="M13.2201 45.3C13.1801 45.09 13.1601 44.86 13.1601 44.62C13.1501 44.73 13.1301 44.8 13.1201 44.8C13.1401 44.91 13.1701 45.05 13.2201 45.3Z" fill="#FFF280"/>
<path d="M18.6699 8.68999C18.6699 8.68999 18.6599 8.63999 18.6499 8.60999C18.5399 8.74999 18.5799 8.75999 18.6699 8.68999Z" fill="#FFF280"/>
<path d="M34.4399 33.65L34.4499 33.67L34.4799 33.69L34.4399 33.65Z" fill="#FFF280"/>
<path d="M34.3999 33.32C34.9599 33.96 34.7199 33.85 34.4799 33.7L35.2499 34.46C35.6599 34.84 36.0699 35.22 36.0699 35.22C36.0699 35.22 35.7099 34.76 35.2899 34.28C34.8799 33.81 34.3999 33.32 34.3999 33.32Z" fill="#FFF280"/>
<path d="M34.1599 15.11C34.1599 15.11 33.8399 15.55 33.8199 15.56C32.7899 16.36 33.1299 16.09 32.4799 16.74C33.2099 16.01 33.4099 15.89 33.5599 15.83C33.7099 15.77 33.7699 15.78 34.5399 15.25C34.7099 15.13 34.8999 15 35.1299 14.85L34.5699 15.32C34.5699 15.32 34.4699 15.36 34.5099 15.32C33.8999 15.81 34.3199 15.53 34.7899 15.26C35.2699 14.98 35.8199 14.71 35.5499 15.02C35.3099 15.27 34.9699 15.49 34.7599 15.54C34.7599 15.52 35.1299 15.56 35.1199 15.58C35.0399 15.69 34.7099 15.8 34.7899 15.71L34.7199 16.08H34.6699C34.9199 16.06 35.2599 16.13 35.3799 16.2C35.0599 16.39 35.2399 16.16 35.0099 16.24C35.0099 16.23 35.2599 16.48 35.2499 16.49C34.7799 16.64 34.4899 16.44 34.6299 16.28C33.7199 16.56 33.8399 16.53 33.9799 16.58C34.1399 16.61 34.3199 16.76 33.7899 16.91C33.7899 16.91 33.6899 16.73 33.6799 16.74C33.3499 16.77 33.1799 16.79 32.9799 16.81C32.8799 16.81 32.8099 16.85 32.5799 16.77C32.6999 16.82 32.9999 16.89 33.3399 16.91C33.6799 16.93 34.0599 16.91 34.1599 17.07C34.0199 17.13 33.9399 17.18 34.1199 17.43C33.8999 17.34 33.7999 17.33 33.7499 17.37C33.6899 17.42 33.6099 17.66 33.5299 17.85L32.9699 17.53C32.9099 18.04 33.2199 18.16 33.3499 18.54C33.0499 18.99 32.5599 18.86 32.1299 18.78C31.6499 19.5 33.1099 18.62 32.7499 19.57C32.4799 19.83 32.3399 20.1 32.2699 20.43C32.2299 20.59 32.2099 20.77 32.1999 20.96C32.1999 21.06 32.1899 21.16 32.1799 21.26C32.1799 21.36 32.1799 21.47 32.1299 21.65C31.5799 22.24 31.8299 21.37 31.5399 21.54C31.5399 21.55 31.6899 22.36 31.6999 22.34C31.6099 22.48 31.4799 22.39 31.4199 22.34C31.3499 22.9 32.0199 22.57 31.8299 23.33C32.1099 23.46 31.8099 23.7 31.3699 24.08C31.2999 24.54 31.3099 25.34 32.0199 25.75C31.9599 26.04 31.5799 25.75 31.3799 25.9C31.9899 26.52 32.2199 26.77 32.3899 26.85C32.5799 26.97 32.7799 27.06 33.2799 27.26L33.2199 28.07C33.4199 27.4 34.2199 27.73 34.8899 28.03C35.0199 27.76 35.1299 27.53 35.1699 27.4L35.8899 28.06C35.8499 28.21 35.6099 28.22 35.2999 28.21C35.3799 28.24 35.4499 28.27 35.5099 28.29C35.4499 28.69 35.0399 28.7 34.6199 28.65C34.6899 28.5 34.7599 28.34 34.8299 28.18C34.3799 28.15 33.8999 28.16 33.5899 28.37C33.6799 28.39 33.7899 28.46 33.8799 28.56C33.7599 28.56 33.6599 28.56 33.6099 28.62C33.5599 28.68 33.7299 28.7 33.9499 28.76L33.4099 29.27L33.6899 29.19L33.8299 30.46C33.9499 30.51 34.0999 30.59 34.2099 30.59C34.3199 30.59 34.4399 30.61 34.5699 30.63C34.8199 30.67 35.0899 30.74 35.3599 30.85C35.9099 31.07 36.4999 31.5 36.9799 32.12C36.2099 31.76 35.9299 31.94 35.1799 31.81C35.5199 31.76 35.3499 31.57 35.1199 31.41C34.8799 31.24 34.5899 31.1 34.5699 30.91C34.5899 31.11 34.2599 31.12 34.1399 31.1C34.1399 31.1 34.3499 31.19 34.5899 31.33C34.8199 31.46 35.0799 31.64 35.0799 31.64C34.4799 31.58 34.6999 31.73 34.5099 31.82C35.6699 31.9 35.5799 32.47 36.1599 32.93C35.6999 32.76 35.1899 32.51 35.1499 32.26C34.7299 32.26 35.1499 32.46 35.6599 32.76C36.1499 33.05 36.6999 33.43 36.3299 33.41C36.2699 33.31 36.3299 33.3 36.0499 33.15C36.5999 33.58 36.5099 33.93 35.9799 33.52L35.9299 33.44C35.9699 33.64 36.1199 33.96 36.4499 34.41C36.2299 34.49 36.1899 34.73 36.7499 35.28C36.5999 35.15 35.3999 34.03 35.1599 33.81C35.1599 33.81 35.9999 34.67 36.4699 35.47C36.9799 36.28 37.1199 37.02 37.1199 37.02C36.8499 36.61 36.0999 35.86 35.5199 35.18C34.9299 34.5 34.4699 33.88 34.4399 33.67C34.1999 33.53 33.9899 33.37 33.9699 33.63C34.1099 33.76 35.1399 34.89 35.0399 34.94C34.4999 34.47 34.3399 34.33 34.1799 34.18C34.0399 34.06 33.8799 33.96 33.4899 33.54C33.7099 33.73 34.2499 34.98 33.8699 34.88C33.8299 34.7 33.3299 33.65 33.3499 33.53C33.3499 33.53 33.3699 33.82 33.3199 34.09C33.2699 34.37 33.1499 34.63 33.1499 34.63C33.2799 34.45 32.9099 33.63 32.7699 33.28C32.8499 33.52 32.3799 33.2 32.2699 33.29C32.2699 33.29 32.4599 33.59 32.4699 33.59C32.3199 33.52 32.2199 33.59 32.0999 33.71C31.9599 33.83 31.7599 34 31.5999 34.18C31.2699 34.54 30.9399 34.92 30.4099 34.8C30.5799 34.59 30.9599 33.44 30.4399 33.21C30.0999 33.74 28.8999 35.77 27.8799 36.05L27.7499 35.7C27.7499 35.7 27.5499 35.76 27.3599 35.83C27.2099 35.9 27.0999 35.98 27.0999 35.98C27.2199 35.56 27.8099 34.97 28.3699 34.4C28.9299 33.83 29.5299 33.28 29.9299 32.99C29.5699 32.67 29.8799 32.59 29.2699 32.52C29.1099 32.18 29.6699 32.11 29.8499 32.12L28.4799 31.7C28.4399 32.03 28.1899 32.16 27.8399 32.26C27.3799 32.34 26.9699 32.42 27.0099 32.71C27.0099 32.71 27.1499 32.69 27.3599 32.66C27.5699 32.63 27.9199 32.6 28.0799 32.53C28.4899 32.42 28.8999 32.31 28.8999 32.31C28.8399 32.98 27.7799 34.06 26.5799 33.75C26.2299 33.42 26.7299 32.56 26.7299 32.33C26.5199 32.53 25.3999 32.56 25.2199 32.37C25.2199 32.37 25.3499 32.3 25.4799 32.23C25.6199 32.16 25.7599 32.09 25.7599 32.09C25.4099 31.94 25.1399 32 24.9199 32.09C24.6599 32.65 24.5199 33.19 23.8799 33.27C23.6399 33.45 22.5799 33.33 22.7899 33.69C23.7599 33.81 25.0999 35.83 25.3499 36.38C25.2999 36.39 25.0899 36.34 24.6699 36.45C24.2799 36.52 23.8399 36.58 23.6099 36.54C22.9099 36.38 23.0099 35.12 22.4199 34.98C22.5399 35.12 22.5499 35.43 22.5399 35.54C22.2599 35.6 22.2099 35.06 21.8899 35.5C22.3099 36.05 21.0799 36.22 22.1199 36.09C21.8899 36.59 21.6299 36.38 21.2099 36.83C21.6599 37.01 21.8699 38.28 21.6399 38.79C21.5399 38.64 21.2999 38.57 21.1799 38.53C20.3699 39.24 19.8599 39.31 19.2499 39.91C19.1399 39.78 18.8399 39.8 18.8999 39.33C18.8499 39.55 18.8099 39.92 18.6299 40.12C18.2799 39.64 18.9799 39.64 18.6799 38.95C18.7199 39.47 18.3399 40.05 18.0599 40.68C18.0699 41.53 18.6999 40.21 18.8699 39.69C18.9399 40.22 18.8899 40.87 18.6599 41.63C18.4399 42.38 18.0199 43.24 17.4999 44.03C16.6699 45.15 17.3099 43.45 17.1399 43.78C16.5699 44.25 16.1699 45.05 15.7499 45.86C15.3399 46.66 14.9399 47.45 14.5199 47.76C14.5099 47.57 14.5099 47.31 14.5199 46.98C14.7899 45.23 15.2699 44.86 15.5199 43.94C15.5899 44.03 15.6199 44.2 15.6199 44.42C15.8399 44.31 15.9099 44.64 16.1899 44.34C16.1899 44.34 15.8799 44.29 15.8899 44.28C16.1699 43.75 16.5499 43.19 16.6599 43.3C16.6099 43.05 16.2799 43.31 15.8699 43.7C15.7699 42.88 15.5999 41.92 15.7099 40.95C15.5399 41.03 15.3299 40.91 15.1899 41.37L15.3099 41.65C15.0299 42.68 14.7099 41.69 14.6299 42.52C14.2999 42.35 13.7699 42.06 13.8199 40.83L14.3299 40.1C14.1699 40.27 14.1099 41.03 14.2999 41.09C14.1599 41.05 14.2799 40.48 14.3499 40.03C14.4199 39.57 14.4399 39.22 14.0499 39.3L13.9099 39.77C13.8399 40.02 13.7699 40.27 13.7699 40.27C13.3999 39.88 12.6399 39.25 12.6699 38.16C12.1699 38.87 12.7699 38.33 12.2199 39.42C12.5799 38.87 12.6699 39.54 12.7599 40.13C12.8499 40.74 12.9399 41.27 13.2699 40.43C12.9599 41.1 12.9299 41.51 12.9299 41.93C12.9299 42.36 12.9299 42.78 12.7199 43.71C12.8799 43.45 12.9899 42.91 13.0399 43.92C13.0999 43.89 13.1699 43.89 13.2199 43.89C13.2199 43.92 13.2199 43.94 13.2199 43.97V43.89C13.2199 43.89 13.2699 43.89 13.2399 43.86C13.2799 43.54 13.3399 43.25 13.4299 43.06C13.8799 42.92 14.0499 44.13 14.2999 44.16C14.2999 44.75 14.0899 44.33 13.9599 44.91C13.9599 44.92 14.3299 44.96 14.3299 44.95C13.9899 45.71 13.9799 47.53 13.5899 46.78L13.7499 47.92C13.6899 48.7 13.7199 49.51 13.8099 49.98C13.9799 49.8 14.1499 49.59 14.3099 49.36C14.6499 49.15 15.5399 47.45 15.0299 48.45L16.3799 46.73L16.3499 46.91C16.9499 46.36 17.6099 45.44 18.2299 44.7C18.8599 43.95 19.4299 43.38 20.2399 43.16C20.6199 42.62 20.9699 42.09 21.6999 41.54L22.0399 41.75C22.2799 41.42 22.7399 41.1 23.1699 40.77C23.4599 40.58 23.6499 40.42 23.5799 40.21C24.6599 40.61 25.2899 38.84 25.9799 38.42L25.6399 38.04C25.7399 37.95 25.8299 37.85 25.9199 37.75C25.9899 37.66 26.1299 37.5 26.1099 37.47C26.1399 37.34 26.1599 37.2 26.1899 37.04L25.9499 36.65C25.9499 36.41 26.1199 36.32 26.2899 36.29C26.5599 36.46 26.7999 36.69 27.0099 36.7C26.9799 36.87 26.8999 36.81 26.8199 36.7C26.9599 36.98 27.0299 37.07 27.1299 37.08C27.1299 37.08 27.3499 37.08 27.4799 37.06C27.6299 37.04 27.7799 37.01 27.9199 36.98C28.5099 36.85 29.0999 36.69 29.5299 37.14C29.7999 37.02 29.9699 37.1 30.1199 37.24C30.0999 37.24 30.0799 37.24 30.0599 37.25C30.0799 37.25 30.1199 37.27 30.1599 37.27C30.2599 37.36 30.3499 37.47 30.4599 37.56C30.3799 37.44 30.2899 37.33 30.2099 37.28C30.3999 37.3 30.6899 37.29 30.9899 37.23L31.0299 37.72C31.0299 37.72 31.0699 37.72 31.0999 37.72C31.3499 37.94 31.3599 37.53 31.2699 37.15C31.4299 37.1 31.5499 37.02 31.7299 36.93C31.8399 37.34 32.1399 37.32 32.4299 37.31C32.7299 37.3 32.9999 37.29 33.2999 37.76C33.5399 37.39 35.4199 37.79 35.1299 36.88C35.1999 37 35.3399 37.08 35.1399 37.06C35.5999 37.23 36.1099 37.41 36.2999 37.2L36.9599 37.93C36.9599 37.93 37.0499 37.74 37.0999 37.54C37.1499 37.34 37.1599 37.13 37.1599 37.13C38.0399 37.65 38.5999 37.96 38.4599 38.41C38.8399 38.1 39.0099 38.06 39.1899 38.02C39.3499 37.98 39.5299 37.94 39.5599 37.58L40.0799 38.06C40.4999 38.11 40.2699 37.54 41.0399 37.99C41.2999 38.12 41.5699 38.24 41.8599 38.34C41.8999 37.98 41.3599 36.91 40.8199 35.8C40.2799 34.67 39.7499 33.52 39.5899 32.53C38.9899 32.64 39.0199 32.41 39.0499 32.1C39.0799 31.79 39.0799 31.36 38.5599 31.33C38.7999 31.2 38.7899 30.83 39.2599 31.23C38.7899 30.6 38.6699 30.12 38.4999 29.67C38.4099 29.45 38.3199 29.23 38.1699 29.05C38.0199 28.85 37.8299 28.69 37.5999 28.67C37.7999 28.45 38.0499 28.67 38.1499 28.51C38.0599 28.47 37.8099 28.36 37.9099 28.21C38.0099 28.05 38.1799 28.22 38.3499 28.3C37.8999 27.5 37.0999 27.8 36.3499 28.1C36.4799 27.52 36.3299 27.33 35.7099 27.27C35.8699 27.01 35.9899 26.65 36.3299 27.11C36.2199 26.81 35.7899 25.19 35.2099 25.45C35.2899 25.25 35.0899 25.11 34.9999 25.09C34.8199 24.65 34.8699 24.61 34.5999 24.21L34.5399 24.33C34.2099 24.29 34.0599 24.22 33.9999 24.13C34.0399 23.98 34.3699 23.82 34.4299 23.57L34.4999 23.6C34.9899 23.25 34.9599 23.18 34.9499 23.06C34.9299 22.97 34.9499 22.83 35.5299 22.4L35.0699 22.24C34.2099 21.66 36.1299 21.5 36.1199 20.66L35.7499 20.78C35.6199 20.26 37.5199 20.4 37.8199 20.1C37.9399 20.06 37.8799 20.29 37.8799 20.43C38.3999 20.09 38.2699 19.99 38.0499 19.87C37.9399 19.81 37.7999 19.75 37.7099 19.66C37.6199 19.55 37.5399 19.48 37.6599 19.18C38.0799 19.11 38.2899 19.83 38.7699 19.04C39.0099 18.88 39.0599 18.18 39.1399 17.51C39.2299 16.83 39.3599 16.19 40.0199 15.62C39.5799 15.91 39.1699 16.13 39.1799 15.69C39.2999 15.35 39.8599 14.8 40.3399 14.22C40.8099 13.65 41.1799 13.06 40.7499 13C40.8999 12.86 41.0199 12.77 41.1199 12.72C41.1099 12.28 41.5299 11.14 40.9299 11.33C41.9299 10.59 42.3299 10.01 42.4899 9.56998C41.7999 9.73998 40.7999 10.11 40.2099 10.28C39.6199 10.45 39.3799 10.42 40.0399 9.79998L37.9899 10.2L38.1899 10.01C36.9899 10.09 36.2399 10.58 35.6299 11.04C35.4299 10.97 35.6999 10.78 35.7799 10.69C34.1999 10.62 33.7399 10.75 32.3699 11.73L32.2099 11.25C32.1199 11.34 31.8999 11.36 31.6299 11.35C31.4199 11.32 31.1599 11.29 30.8599 11.25C30.2699 11.18 29.5799 11.16 29.0099 11.54C29.0099 11.48 29.0199 11.38 29.1099 11.3C28.7999 11.49 28.4299 11.54 28.0399 11.53C27.6699 11.51 27.1799 11.46 27.1199 11.37C26.8199 11.22 26.7299 11.18 26.2799 12.1L26.2399 12.17C26.2399 12.17 25.6599 12.21 25.6399 12.19C25.8899 12.54 25.7999 12.73 25.6299 12.86C25.4599 13 25.1999 13.06 25.2899 13.37C25.0999 13.26 24.9599 12.92 24.9499 12.68C24.9399 12.44 25.0399 12.28 25.2199 12.4V12.53C25.5399 12.18 25.3999 11.92 25.2499 11.71C25.0699 11.47 24.7399 11.12 24.9999 10.92C24.1699 10.12 23.4399 9.21998 22.7399 8.32998C22.6099 8.14998 22.2699 7.76998 22.0099 7.45998C21.7299 7.12998 21.4499 6.80998 21.1699 6.48998C20.5999 5.83998 20.0099 5.18998 19.4199 4.57998L19.4899 5.16998C19.5199 5.45998 19.5499 5.74998 19.5499 5.74998L18.8199 4.95998C18.6399 4.53998 18.5599 3.88998 19.1399 4.51998C19.0099 4.09998 18.7399 3.94998 18.5399 3.96998C18.3299 3.98998 18.1899 4.16998 18.1899 4.27998C17.6599 3.53998 17.7099 3.28998 17.9099 3.22998C18.0999 3.16998 18.4199 3.28998 18.2399 3.08998L17.7499 2.66998L17.8699 2.90998C17.5099 2.96998 17.5499 3.45998 16.8899 2.74998C16.4299 2.07998 16.5199 1.73998 16.3399 1.51998C16.3199 1.42998 16.2499 1.31998 16.0599 1.20998L14.9799 0.039978L15.6999 1.57998C15.4299 1.70998 14.8099 0.639978 15.6199 2.37998C15.4499 2.00998 15.2599 1.65998 15.0399 1.31998C14.7599 1.45998 14.5599 2.58998 14.3999 3.60998C14.2399 4.63998 14.1399 5.55998 13.9899 5.63998C14.1999 6.95998 14.0799 7.64998 13.8699 8.57998C14.0199 8.41998 14.6099 8.79998 14.4299 9.44998C13.8399 8.88998 13.6499 9.16998 13.4699 9.64998C13.2899 10.13 13.1399 10.75 12.5999 11.05C13.2899 10.79 12.4599 12.88 13.4699 12.33C13.2799 12.83 12.9699 12.28 12.5899 12.62C12.7499 13.27 12.5499 13.94 12.3099 14.62C12.2499 14.79 12.1899 14.97 12.1199 15.14C12.0599 15.3 11.9899 15.54 11.9599 15.58C11.8799 15.75 11.8399 15.9 11.8499 16.1C12.0099 16.21 12.2899 16.18 12.4999 16.52C12.2999 16.53 12.1099 16.52 12.0899 16.6C11.8999 16.51 11.7199 16.42 11.5499 16.33C11.5299 16.44 12.1999 17.14 11.4999 16.81C11.6299 16.91 11.8499 17.05 11.7699 17.15C11.6299 17.16 11.4999 17.18 11.3799 17.2L11.2099 17.23L10.9399 17.32C10.5799 17.45 10.2399 17.61 9.89991 17.78C9.21991 18.13 8.55991 18.53 7.88991 18.91C6.54991 19.68 5.16991 20.37 3.43991 20.33C3.95991 20.45 3.72991 20.6 3.45991 20.76C3.67991 20.74 3.64991 21.15 3.79991 21.34H2.35991C2.44991 22.02 1.15991 21.98 1.32991 22.61L1.63991 22.33C1.49991 23.24 3.05991 23.47 3.41991 24.36C3.56991 23.33 5.39991 24.76 5.73991 23.23C6.01991 23.31 5.70991 23.59 5.91991 23.73C5.95991 23.25 6.18991 23.04 6.76991 22.95V23.07C8.11991 22.27 8.89991 22.33 10.5999 21.77L10.2699 21.41C10.6399 21.29 10.7799 21.39 10.9899 21.41C11.0499 20.57 10.0199 21.86 10.0199 20.97C10.4599 21.29 11.0599 20.99 11.6499 20.71C11.9399 20.57 12.2399 20.44 12.4999 20.39C12.6399 20.36 12.7399 20.38 12.8999 20.39C13.0599 20.39 13.2099 20.44 13.3399 20.53C14.1599 20.12 12.8199 20.18 13.5999 19.79L13.9899 19.92L13.9399 19.52C14.4699 19.32 15.0299 19.46 15.2599 19.62C15.0999 19.67 14.9299 19.86 14.7999 19.95C15.2199 19.9 15.6599 19.68 16.0199 19.45C16.0699 18.81 16.0399 18.2 16.1299 18.07L15.8099 18.87C16.0299 15.82 16.6399 14.49 16.3099 12.77L16.0699 12.85C15.9599 12.24 16.0699 12.01 16.1899 11.78C16.2999 11.64 16.4399 11.54 16.4099 11.13L16.4599 11.18C16.2699 10.94 16.2099 10.64 16.2699 10.43C16.4799 10.78 16.7799 10.46 16.9999 10.9C16.8499 10.45 16.7899 10.26 16.6799 10.08C16.5799 9.87998 16.4199 9.70998 16.1199 8.94998L16.4499 9.23998C16.2099 8.64998 16.0699 8.40998 16.0699 7.76998C16.1599 8.19998 16.2899 8.29998 16.4199 8.45998C16.5499 8.60998 16.6899 8.80998 16.8299 9.25998C17.2099 9.46998 17.0799 8.98998 16.9999 8.46998C16.9199 7.97998 16.8799 7.51998 17.3099 8.57998C16.6799 6.10998 16.8099 8.13998 16.6899 7.50998C16.4099 7.12998 16.2099 5.69998 16.3399 5.52998C16.3399 5.50998 16.3599 5.49998 16.3699 5.50998C16.5499 5.81998 16.8499 6.58998 17.1299 7.27998C17.4099 7.98998 17.6499 8.60998 17.8199 8.75998C17.7799 8.70998 17.8099 8.84998 17.7699 8.79998C17.9799 9.37998 17.9499 8.47998 18.2199 9.34998C18.2399 8.48998 18.4399 9.61998 18.4399 8.49998C18.4399 8.49998 18.0099 8.31998 18.0199 8.32998C18.1199 8.27998 18.1999 7.96998 18.3699 7.84998C18.5299 7.71998 18.7799 7.79998 18.9999 8.34998C18.9299 8.50998 18.7599 8.63998 18.6699 8.70998C18.7699 9.13998 18.9399 8.75998 19.0299 9.18998C18.9199 9.64998 18.8099 9.58998 18.6699 9.47998C18.5399 9.36998 18.3599 9.18998 18.2999 9.55998C18.3899 10.13 18.6599 9.10998 18.5499 10.21C18.6299 9.51998 18.7499 9.67998 18.8299 9.85998C18.9299 10.05 18.9799 10.24 19.2599 9.93998L19.0699 10.42C19.1299 10.37 19.2999 10.23 19.3699 10.32C19.3599 10.31 18.9799 10.8 18.9999 10.82C19.1799 10.63 19.2199 10.83 19.2099 11.02C19.2099 11.22 19.1299 11.4 19.2899 11.35C19.1699 11.24 19.2299 11.1 19.3499 10.95C19.4599 10.79 19.6399 10.65 19.6499 10.41C19.8799 10.41 19.9899 10.52 19.9999 10.65C20.0499 10.82 20.0199 11.03 19.9699 11.23C19.8799 11.65 19.7699 12.12 20.4299 12.63C20.2199 12.52 20.0399 11.83 20.4399 11.93C20.5899 12.22 20.7599 12.65 20.7199 12.96C21.5599 13.67 20.9499 12.5 21.4799 12.62C21.3299 13.29 22.0299 12.84 22.4999 13.05L22.1599 13.39C22.4899 13.94 22.7299 13.82 22.9499 13.7C23.1599 13.57 23.3699 13.44 23.7999 14.14C23.8199 14.16 22.8899 14.17 22.8699 14.16L23.6199 14.67L23.1599 14.98C24.0999 15.37 24.2399 15.62 24.8499 16.44C24.8799 16.44 24.9199 16.44 24.9599 16.44C24.8499 16.11 25.3899 15.49 26.1299 15.36C26.6199 15.57 25.7499 15.88 26.9099 15.63C26.6599 15.97 26.2599 16.42 25.8099 16.04C25.7299 16.21 25.4699 16.4 25.3699 16.57C25.9799 16.81 27.0799 16.38 27.5399 16.31C27.3599 16.31 27.1399 16.33 27.0299 16.27C27.0299 16.27 27.4699 16.03 27.9199 15.8C28.2099 15.59 28.4499 15.38 28.4499 15.38C28.6499 15.53 28.5399 15.7 28.4199 15.86C28.6399 15.77 28.7599 15.53 29.0899 15.44C29.0599 15.84 29.1399 16.24 28.6999 16.49L29.7099 15.9C29.8099 16.06 30.3299 16.28 30.2099 16.44C30.8199 16.58 31.5899 15.46 32.3499 15.65C32.3499 15.57 32.3699 15.5 32.4199 15.43C32.5499 15.45 32.6499 15.58 32.7299 15.64C32.8199 15.69 32.8899 15.67 33.1699 15.35C33.1999 15.35 32.8999 16.1 32.8699 16.11C32.9699 16.01 33.1199 15.77 33.2399 15.51C33.3699 15.25 33.4799 14.99 33.8399 14.8C34.3999 14.49 33.4499 15.47 33.3599 15.68C33.5699 15.47 33.9299 15.14 34.2299 14.94C34.5299 14.74 34.7699 14.66 34.5099 14.99C34.2399 15.17 34.3099 15.05 34.1599 15.12V15.11ZM34.1899 17.07C34.1299 16.98 33.8399 16.85 34.1699 16.82C34.7399 16.93 34.3999 16.99 34.1899 17.07ZM34.6499 29.58C34.4499 29.54 34.4399 29.33 34.4999 29.06C34.6099 29.18 34.6699 29.35 34.6499 29.58ZM14.0499 48.22C14.0499 48.22 14.0599 48.22 14.0699 48.2C14.0299 49.17 14.0499 48.81 14.0499 48.22ZM14.0099 46.63C13.9399 46.63 13.8899 46.76 13.8499 46.93C13.9499 46.8 13.9999 47.05 14.0199 47.42C14.0999 47.09 14.1399 46.79 13.9999 46.63H14.0099ZM16.3099 1.70998L16.5099 2.08998C16.2099 1.98998 16.2599 1.85998 16.3099 1.70998Z" fill="#FFF280"/>
<path d="M33.3899 28.56C33.4399 28.48 33.5199 28.43 33.5899 28.38C33.4899 28.36 33.3999 28.4 33.3899 28.56Z" fill="#FFF280"/>
<path d="M22.01 35.04C22.17 34.98 22.3 34.98 22.4 35C22.32 34.91 22.2 34.89 22.01 35.04Z" fill="#FFF280"/>
<path d="M12.3 40.99L12.54 41.74C12.46 41.35 12.53 41.12 12.56 40.86C12.46 40.96 12.34 41.25 12.29 40.99H12.3Z" fill="#FFF280"/>
<path d="M14.33 34.57C14.26 34.51 14.3 34.42 14.23 34.36L14.01 34.41C14.07 34.71 14.28 34.89 14.33 34.57Z" fill="#FFF280"/>
<path d="M13.6501 39.19C14.0101 38.88 13.8301 38.59 13.6901 38.18C13.6901 38.21 13.7001 38.23 13.7001 38.26C13.1401 38.38 13.4001 38.82 13.6501 39.19Z" fill="#FFF280"/>
<path d="M13.6599 38.09C13.6199 37.96 13.5899 37.82 13.5899 37.68C13.3599 37.7 13.5699 37.87 13.6599 38.09Z" fill="#FFF280"/>
<path d="M13.5701 45.54C13.6101 45.12 13.1401 46.16 13.2401 45.75C13.0101 45.97 13.2101 46.22 13.4001 46.23C13.5901 46.23 13.7801 46.03 13.5601 45.53L13.5701 45.54Z" fill="#FFF280"/>
<path d="M14.8299 38.08L14.3899 38.5C14.3899 38.5 14.4899 38.5 14.5899 38.48C14.6899 38.47 14.7899 38.45 14.7899 38.45L14.8299 38.07V38.08Z" fill="#FFF280"/>
<path d="M14.95 41.24L14.97 40.49C14.9 40.59 14.85 40.57 14.8 40.52C14.84 40.91 14.83 41.44 14.94 41.24H14.95Z" fill="#FFF280"/>
<path d="M14.7999 40.51C14.7799 40.31 14.7399 40.14 14.6499 40.11C14.6699 40.21 14.7199 40.43 14.7999 40.51Z" fill="#FFF280"/>
<path d="M15.08 38.71L15.01 38.95L15.04 39.36L15.08 38.71Z" fill="#FFF280"/>
<path d="M17.5601 42.86L18.0501 42.17C18.1101 41.87 18.0001 41.83 17.8301 42.09C17.7101 42.38 17.5201 42.66 17.5601 42.85V42.86Z" fill="#FFF280"/>
<path d="M16.83 41.65C16.86 41.76 16.82 41.97 16.79 42.22L17.1 41.04L16.83 41.64V41.65Z" fill="#FFF280"/>
<path d="M17.8201 40.47C17.9001 40.14 18.3001 39.3 17.9601 39.69C17.9101 39.98 17.5701 40.52 17.8201 40.47Z" fill="#FFF280"/>
<path d="M23.87 35.59L23.76 35.71L24.49 36.42L23.87 35.59Z" fill="#FFF280"/>
<path d="M31.7801 32.52C31.1201 32.17 31.5101 33.11 30.9301 32.71C30.7301 32.92 31.4101 33.04 31.2101 33.22C31.6801 33.04 31.8801 33.22 31.7901 32.52H31.7801Z" fill="#FFF280"/>
<path d="M31.2 33.22C31.13 33.25 31.05 33.29 30.96 33.34C31.09 33.3 31.16 33.26 31.2 33.22Z" fill="#FFF280"/>
<path d="M1.35009 21.21L0.840088 21.23L1.26009 21.4L1.35009 21.21Z" fill="#FFF280"/>
<path d="M0.91002 22.28L0.52002 21.75L0.54002 22.4C0.62002 22.33 0.77002 22.19 0.91002 22.28Z" fill="#FFF280"/>
<path d="M32.73 17.05L32.85 17.15C33.03 17.17 33.12 17.02 33.14 17.04C33.14 17.04 33.05 17.01 32.96 16.99C32.85 16.99 32.72 17.06 32.72 17.05H32.73Z" fill="#FFF280"/>
<path d="M33.8401 15.94L33.8101 15.97L34.7801 15.37L33.8401 15.94Z" fill="#FFF280"/>
<path d="M32.5601 16.63C32.5601 16.63 32.6701 16.51 32.6601 16.53C32.5601 16.65 33.1601 15.8 32.5601 16.63Z" fill="#FFF280"/>
</g>
<defs>
<clipPath id="clip0_89_289">
<rect width="42.48" height="49.99" fill="white"/>
</clipPath>
</defs>
</svg>
