<svg width="78" height="70" viewBox="0 0 78 70" fill="none" xmlns="http://www.w3.org/2000/svg">
<g clip-path="url(#clip0_89_453)">
<path d="M32.9491 60.9026C32.7319 61.0504 33.1884 61.3577 33.2281 61.449C33.4402 61.0478 32.8444 60.8053 32.9491 60.9026Z" fill="white"/>
<path d="M35.0609 56.967L35.1577 57.1812L35.2165 56.3502L35.0609 56.967Z" fill="white"/>
<path d="M37.8467 54.0924C36.923 53.7397 36.9454 55.2442 36.2068 55.5295L35.9736 55.4606L36.2721 56.2117C36.7888 55.5028 37.2208 54.358 37.8345 54.0887L37.8467 54.0924Z" fill="white"/>
<path d="M40.7588 53.9063C40.4136 53.7644 40.8647 53.3676 40.3279 54.1898C40.3842 54.1799 40.421 54.1908 40.4615 54.1895C40.5199 54.1272 40.5979 54.0442 40.7588 53.9063Z" fill="white"/>
<path d="M40.4615 54.1895C40.1938 54.508 40.8745 54.1923 40.4615 54.1895V54.1895Z" fill="white"/>
<path d="M41.668 52.6374L41.5123 53.2542C41.7456 53.3232 42.1224 52.9972 42.1066 53.2311C42.3706 52.6994 42.1461 52.6462 41.668 52.6374Z" fill="white"/>
<path d="M41.5564 51.7958L41.4663 52.1006C41.5522 52.126 41.6317 52.0832 41.5564 51.7958Z" fill="white"/>
<path d="M41.2385 52.7357L41.4541 52.0969C41.2945 52.0497 41.0727 51.8516 41.3343 52.3664C41.1725 52.1462 41.2795 52.4165 41.2262 52.7321L41.2385 52.7357Z" fill="white"/>
<path d="M40.8998 52.8875C40.5389 52.9796 40.1736 53.1764 40.3293 52.5597C39.6762 53.4138 40.259 53.7452 40.8998 52.8875Z" fill="white"/>
<path d="M37.3113 53.2845L36.8218 53.4048L36.7902 53.8727C36.806 53.6388 37.5244 53.4668 37.299 53.2809L37.3113 53.2845Z" fill="white"/>
<path d="M44.1072 50.8003C43.9923 50.647 43.7496 50.4294 43.5574 50.2665C43.5574 50.2665 43.6471 50.5051 43.5886 50.5674C43.8175 50.5158 43.8977 50.6058 44.1036 50.8125L44.1072 50.8003Z" fill="white"/>
<path d="M43.561 50.2543C43.561 50.2543 43.4937 49.85 43.4973 49.8378C43.3276 49.96 43.4057 50.1024 43.561 50.2543Z" fill="white"/>
<path d="M40.8889 51.0284L40.7024 52.2459L41.0253 50.8832L40.8889 51.0284Z" fill="white"/>
<path d="M44.4038 50.6096C44.4038 50.6096 44.424 50.7217 44.4566 50.8374C44.4891 50.953 44.5217 51.0687 44.5217 51.0687C44.4971 51.0614 44.3827 50.3648 44.4073 50.3721L44.4197 50.6011L44.4038 50.6096Z" fill="white"/>
<path d="M44.645 50.5617C44.6141 50.9369 44.6561 51.2012 44.6194 51.4157L44.6446 51.3304L44.6417 51.25L44.7933 51.1888C44.9961 51.0897 45.1816 50.959 45.3636 50.8404C45.1874 50.8944 44.9975 50.9045 44.8133 50.8501C44.6783 50.8101 44.6978 50.7894 44.684 50.7455C44.6739 50.6895 44.6515 50.6299 44.645 50.5617Z" fill="white"/>
<path d="M45.9707 50.503C45.7909 50.5691 45.5931 50.6962 45.3759 50.8441C45.5679 50.7815 45.7708 50.6825 45.9707 50.503Z" fill="white"/>
<path d="M43.8221 49.6422C43.8864 49.7408 44.0425 50.0256 44.1544 50.0984C44.1544 50.0984 44.085 49.9719 44.0316 49.8368C43.9622 49.7102 43.8928 49.5836 43.8928 49.5836L43.8221 49.6422Z" fill="white"/>
<path d="M43.8805 49.58C43.8805 49.58 43.944 49.5458 43.9635 49.525L44.0617 49.5541C44.0617 49.5541 44.0003 49.5359 43.9635 49.525L43.8841 49.5678L43.8805 49.58Z" fill="white"/>
<path d="M43.8026 49.663L43.8062 49.6508C43.8062 49.6508 43.7715 49.5875 43.8026 49.663Z" fill="white"/>
<path d="M42.3731 50.208C42.4047 49.7401 42.6881 48.9623 41.8499 49.1784C41.9432 49.6302 42.4204 49.5062 42.3731 50.208Z" fill="white"/>
<path d="M43.3936 49.1046L43.0868 49.2393C43.1756 49.3451 43.331 49.4971 43.37 49.6809C43.3664 49.6931 43.3741 49.1254 43.39 49.1168L43.3936 49.1046Z" fill="white"/>
<path d="M43.4239 48.8219L43.3937 49.1046L43.4977 49.0691L43.4239 48.8219Z" fill="white"/>
<path d="M44.9226 49.8484C45.2352 49.6492 45.5478 49.6754 45.8923 49.6844C45.5629 49.534 45.0928 49.4083 44.8487 49.3758C44.8264 49.5416 44.6749 49.8282 44.9226 49.8484Z" fill="white"/>
<path d="M44.4005 49.6277L44.4113 49.5911C44.4113 49.5911 44.3889 49.5315 44.4005 49.6277Z" fill="white"/>
<path d="M49.3217 50.1418L49.2856 50.0383L49.2567 50.1358L49.3217 50.1418Z" fill="white"/>
<path d="M44.8408 49.2674C44.731 49.1422 44.6386 49.2739 44.5795 49.4288C44.6589 49.386 44.7592 49.3626 44.8611 49.3795C44.8827 49.3063 44.8971 49.2576 44.8408 49.2674Z" fill="white"/>
<path d="M46.9664 50.3865C46.832 50.254 46.6818 50.13 46.5243 50.0304C46.6406 50.2239 46.8986 50.5255 46.9664 50.3865Z" fill="white"/>
<path d="M44.4699 49.7543L44.4627 49.7786C44.4952 49.8943 44.4851 49.8383 44.4699 49.7543Z" fill="white"/>
<path d="M44.4698 49.7543C44.5037 49.6848 44.5311 49.547 44.5794 49.4288C44.5159 49.463 44.461 49.5131 44.4112 49.5911C44.425 49.635 44.4474 49.6946 44.4575 49.7506L44.4698 49.7543Z" fill="white"/>
<path d="M50.8206 46.8336C50.701 47.3285 49.9004 47.6882 49.3354 47.0705C48.6618 47.3618 48.8533 49.0621 49.2696 50.0469C49.3186 49.836 49.3395 49.6301 50.0282 49.4228C49.8389 49.115 48.6862 48.5885 49.2919 48.2109C50.1735 48.0739 49.9737 48.4788 50.3457 48.8009C50.0255 48.1229 51.687 48.0575 51.4497 47.0992C51.4497 47.0992 51.2735 47.1531 51.0815 47.2156C50.893 47.266 50.6887 47.3248 50.6887 47.3248C50.7038 47.1835 50.9882 46.9892 50.8083 46.83L50.8206 46.8336Z" fill="white"/>
<path d="M48.0673 49.8239L47.7929 49.8488C48.089 49.9761 48.2754 50.2036 48.6236 50.6512C49.0907 50.4712 49.2098 50.2943 49.2689 50.1395L47.9684 49.8874L48.0673 49.8239Z" fill="white"/>
<path d="M46.5971 49.694C46.8698 49.1781 47.5406 49.0318 47.2341 48.3977C46.4542 48.3261 46.6285 48.7753 46.1368 48.9481C47.4091 48.9797 45.7412 49.2023 46.6029 49.6294C46.3458 49.686 46.1191 49.6852 45.9082 49.6759C46.122 49.7656 46.3286 49.8797 46.528 50.0182L46.4983 49.9829C46.455 49.9038 46.4412 49.86 46.4918 49.9147C46.4918 49.9147 46.5041 49.9183 46.52 49.9098C46.5416 49.8366 46.5596 49.7757 46.6058 49.7098C46.9597 49.8675 46.6434 49.8535 46.52 49.9098C46.5127 49.9342 46.5055 49.9585 46.4947 49.9951L47.8016 49.8646C47.5423 49.7482 47.2174 49.7183 46.6058 49.7098L46.5971 49.694Z" fill="white"/>
<path d="M41.4464 47.8793C41.4464 47.8793 41.5287 47.9169 41.5583 47.9521C41.5626 47.8474 41.5525 47.7913 41.4464 47.8793Z" fill="white"/>
<path d="M41.99 47.8014C41.9785 47.9306 42.0754 48.1448 41.8494 48.2768C41.5837 48.3176 41.6681 48.0774 41.546 47.9485C41.5143 48.191 41.4409 48.62 41.9499 48.4789L41.9542 48.3741C42.3931 48.199 43.0677 48.4913 43.0475 48.6046C42.7181 48.2288 42.4739 47.971 41.9813 47.7856L41.99 47.8014Z" fill="white"/>
<path d="M44.2892 48.0174C44.2892 48.0174 45.0076 47.8454 45.0321 47.8526C45.0444 47.8563 44.6564 47.3173 44.6405 47.3259L44.663 47.6109C44.1951 47.4328 44.3259 47.8029 44.2892 48.0174Z" fill="white"/>
<path d="M49.4092 50.4328L49.1907 50.9912L49.9009 50.26L49.4092 50.4328Z" fill="white"/>
<path d="M51.0585 50.5891L50.9389 51.084L51.5785 50.8622L51.0585 50.5891Z" fill="white"/>
<path d="M32.2659 15.0865L32.219 15.245C32.219 15.245 32.2601 15.1511 32.2659 15.0865Z" fill="white"/>
<path d="M32.8921 15.7225L32.9086 15.3959C32.874 15.558 32.8748 15.6908 32.8921 15.7225Z" fill="white"/>
<path d="M57.7318 28.3835C58.3519 28.1825 59.2335 28.0455 58.6919 27.8456L58.125 27.7309C58.0804 28.0624 57.9209 28.2406 57.7195 28.3799L57.7318 28.3835Z" fill="white"/>
<path d="M47.6662 19.4418C47.6662 19.4418 47.771 19.539 47.8251 19.5816C47.8864 19.3743 47.9687 19.1865 48.035 19.0073C47.9304 19.1355 47.794 19.2807 47.6662 19.4418Z" fill="white"/>
<path d="M47.7582 21.749L47.1097 21.5042C47.2671 21.6038 47.4686 21.6899 47.7582 21.749Z" fill="white"/>
<path d="M31.6232 18.1177L32.144 18.5236C32.1742 18.2409 32.1185 18.1581 32.0095 18.1657C31.9077 18.1488 31.7654 18.1332 31.6232 18.1177Z" fill="white"/>
<path d="M62.1371 45.5404C62.1282 45.0739 61.9909 44.6355 61.8145 44.2387C61.8011 44.871 61.4243 45.1971 62.1371 45.5404Z" fill="white"/>
<path d="M31.2651 6.05492C31.0687 5.99683 31.0081 6.11147 31.0436 6.30754C31.2277 6.362 31.3353 6.31427 31.2651 6.05492Z" fill="white"/>
<path d="M60.9039 42.5776C60.8996 42.6824 60.9112 42.7786 60.9228 42.8748C61.2537 43.2908 61.5774 43.7312 61.8145 44.2387C61.8424 43.783 61.666 43.1609 60.9162 42.5812L60.9039 42.5776Z" fill="white"/>
<path d="M30.4568 41.0238C30.4388 41.0848 30.4453 41.153 30.4273 41.2139C30.4995 41.1955 30.4929 41.1273 30.4568 41.0238Z" fill="white"/>
<path d="M27.4827 55.6407C27.4256 55.5177 27.3902 55.3217 27.3424 55.1219C27.3136 55.2195 27.3599 55.379 27.4827 55.6407Z" fill="white"/>
<path d="M60.3877 52.0886C59.9292 52.059 60.3697 52.1495 60.3877 52.0886V52.0886Z" fill="white"/>
<path d="M56.2756 49.3349C56.2936 49.2739 56.303 49.1972 56.2004 49.0475C56.2784 49.1899 56.2936 49.2739 56.2756 49.3349Z" fill="white"/>
<path d="M55.6128 40.0187L55.62 39.9943C55.5435 40.1175 55.563 40.0968 55.6128 40.0187Z" fill="white"/>
<path d="M59.394 51.7019C59.6446 51.8025 59.9111 51.8946 60.1812 51.9744C60.0375 51.9187 59.7869 51.8181 59.394 51.7019Z" fill="white"/>
<path d="M59.7537 52.0204C59.5696 51.9659 59.4186 51.9346 59.2677 51.9032C59.2916 52.003 59.4035 52.0759 59.7537 52.0204Z" fill="white"/>
<path d="M61.0376 52.1482C60.7654 52.1207 60.4758 52.0616 60.1812 51.9744C60.3126 52.0266 60.3913 52.0764 60.3877 52.0885C60.53 52.1041 60.7127 52.1184 61.0376 52.1482Z" fill="white"/>
<path d="M18.0561 32.2135C18.0561 32.2135 17.9911 32.2075 17.9507 32.2088C18.0829 32.3937 18.1096 32.3486 18.0561 32.2135Z" fill="white"/>
<path d="M54.3842 22.0514L54.4123 22.0465L54.4477 22.0172L54.3842 22.0514Z" fill="white"/>
<path d="M53.9646 21.9803C54.9522 21.5301 54.7306 21.7827 54.46 22.0208L55.6706 21.3581C56.2849 20.9962 56.8992 20.6344 56.8992 20.6344C56.8992 20.6344 56.2047 20.9062 55.464 21.244C54.7392 21.5731 53.9646 21.9803 53.9646 21.9803Z" fill="white"/>
<path d="M31.5216 15.6618C31.5216 15.6618 31.9465 16.2117 31.9515 16.2397C32.5624 17.7857 32.3535 17.2732 32.9172 18.3015C32.2841 17.1466 32.2089 16.8593 32.1893 16.6546C32.1697 16.45 32.2036 16.3805 31.8305 15.2494C31.7444 14.9987 31.6533 14.7198 31.5521 14.385L31.9272 15.2383C31.9272 15.2383 31.9403 15.3747 31.9056 15.3114C32.2873 16.2329 32.0949 15.6193 31.9329 14.9483C31.7621 14.2616 31.6289 13.4931 31.9122 13.9348C32.1326 14.3181 32.2801 14.8124 32.2658 15.0866C32.2413 15.0793 32.4237 14.6428 32.4447 14.6622C32.5509 14.7997 32.567 15.2419 32.4853 15.1117L32.9144 15.3314L32.8963 15.3923C32.9619 15.0803 33.1704 14.6912 33.2996 14.5704C33.4175 15.0294 33.2 14.7265 33.2153 15.0359C33.2031 15.0323 33.6001 14.8183 33.6088 14.8341C33.6235 15.4615 33.2734 15.7424 33.1275 15.5137C33.1432 16.7246 33.1496 16.5675 33.2615 16.4149C33.356 16.2308 33.605 16.0658 33.5981 16.7664C33.5981 16.7664 33.3411 16.8229 33.3497 16.8387C33.2676 17.2519 33.2309 17.4664 33.1834 17.7174C33.1473 17.8393 33.1712 17.9392 32.9901 18.1905C33.0947 18.0624 33.2888 17.7221 33.4359 17.3149C33.583 16.9077 33.6954 16.4372 33.9279 16.3734C33.9511 16.5659 33.9837 16.6815 34.3555 16.5529C34.1657 16.7884 34.1173 16.9067 34.1484 16.9821C34.1882 17.0734 34.454 17.2581 34.6584 17.4246L34.0637 17.991C34.6682 18.2493 34.9273 17.915 35.4407 17.8945C35.885 18.4236 35.5487 18.9737 35.2955 19.4688C36.0064 20.3153 35.4524 18.2161 36.4889 18.9998C36.7108 19.4234 36.9918 19.692 37.3717 19.8972C37.5537 20.004 37.7675 20.0937 37.9971 20.1749C38.1199 20.2112 38.2391 20.2597 38.3582 20.3082C38.481 20.3445 38.6161 20.3844 38.819 20.5107C39.3451 21.3954 38.3671 20.7748 38.4713 21.19C38.4836 21.1937 39.5321 21.3049 39.5111 21.2854C39.6506 21.446 39.4932 21.5718 39.4102 21.6267C40.0725 21.9154 39.9089 20.9788 40.7734 21.4864C41.034 21.1922 41.2205 21.6451 41.5284 22.3194C42.0679 22.5717 43.0537 22.85 43.813 22.1333C44.1474 22.3118 43.6543 22.6697 43.7664 22.968C44.7475 22.4495 45.1373 22.2598 45.2968 22.0817C45.5126 21.8936 45.6952 21.6825 46.121 21.1456L47.0938 21.5128C46.3433 21.0258 47.0368 20.1704 47.6467 19.4625C47.3621 19.206 47.1193 18.9885 46.9742 18.8925L48.044 18.2544C48.2137 18.3576 48.1395 18.6538 48.0155 19.0281C48.0811 18.9415 48.1432 18.867 48.1894 18.8012C48.6588 19.0195 48.5233 19.5229 48.3105 20.0168C48.1516 19.877 47.9804 19.7336 47.8092 19.5901C47.6102 20.1278 47.4494 20.7166 47.5955 21.1707C47.6525 21.0682 47.7781 20.9596 47.9333 20.8862C47.89 21.0324 47.854 21.1543 47.9096 21.2371C47.9653 21.3198 48.0511 21.1198 48.2041 20.8734L48.6355 21.7168L48.6382 21.3465L50.2479 21.6369C50.3525 21.5088 50.5048 21.355 50.5445 21.2209C50.5841 21.0868 50.6519 20.9478 50.7233 20.7965C50.8626 20.5063 51.0458 20.2026 51.2782 19.9134C51.7466 19.3228 52.4872 18.7597 53.4214 18.3997C52.7018 19.2076 52.8219 19.6143 52.3919 20.4813C52.4531 20.0487 52.1586 20.187 51.8792 20.4093C51.584 20.6401 51.3076 20.9428 51.0671 20.8982C51.3199 20.9464 51.2132 21.3523 51.1454 21.4913C51.1454 21.4913 51.3316 21.268 51.59 21.0263C51.8325 20.7931 52.1472 20.5415 52.1472 20.5415C51.8572 21.2511 52.1207 21.0374 52.1627 21.3017C52.6791 19.9167 53.3464 20.2334 54.1202 19.6933C53.7457 20.1924 53.2549 20.7233 52.9336 20.6813C52.7822 21.1933 53.1791 20.7539 53.7313 20.2411C54.2639 19.7491 54.9287 19.2166 54.7708 19.6604C54.6264 19.6972 54.6358 19.6204 54.3507 19.9073C55.0768 19.393 55.4741 19.6297 54.7797 20.127L54.6634 20.1589C54.9234 20.1827 55.3703 20.116 56.0418 19.8771C56.0607 20.1744 56.3409 20.3103 57.218 19.8273C57.0043 19.9629 55.1967 21.0191 54.8401 21.2318C54.8401 21.2318 56.1987 20.5201 57.3503 20.2376C58.5286 19.91 59.4876 20.008 59.4876 20.008C58.8869 20.1882 57.6958 20.8302 56.6518 21.2904C55.6043 21.7627 54.6773 22.0983 54.4087 22.0587C54.1503 22.3004 53.8782 22.4983 54.1902 22.6171C54.4002 22.4936 56.1588 21.6483 56.1842 21.7883C55.4125 22.276 55.1829 22.4202 54.9411 22.5608C54.7433 22.6879 54.5629 22.8466 53.9067 23.1695C54.2192 22.9703 55.9485 22.7659 55.6888 23.1928C55.4533 23.1762 53.984 23.4045 53.8439 23.3366C53.8439 23.3366 54.2071 23.4175 54.5206 23.5764C54.8463 23.739 55.1223 23.9797 55.1223 23.9797C54.9482 23.7559 53.8081 23.9092 53.3279 23.9528C53.6514 23.9424 53.0891 24.3992 53.1599 24.566C53.1599 24.566 53.5967 24.4433 53.6003 24.4311C53.4603 24.5885 53.5102 24.7358 53.6143 24.9257C53.7112 25.1399 53.8478 25.4454 54.0111 25.7058C54.3341 26.2388 54.6817 26.779 54.3433 27.3815C54.1468 27.098 52.8719 26.2173 52.4021 26.7677C52.9302 27.3746 54.9898 29.5744 54.9659 30.9194L54.4894 30.9508C54.4894 30.9508 54.4909 31.2164 54.5084 31.4734C54.5402 31.6817 54.5988 31.8448 54.5988 31.8448C54.1264 31.5461 53.6148 30.6126 53.1168 29.7231C52.6189 28.8335 52.16 27.9024 51.9481 27.3095C51.4255 27.6322 51.439 27.2252 51.1332 27.9434C50.6581 28.015 50.774 27.307 50.8512 27.0912L49.8417 28.6087C50.2324 28.7773 50.3019 29.1293 50.2985 29.5922C50.2309 30.182 50.1813 30.7108 50.5518 30.7674C50.5518 30.7674 50.5777 30.5894 50.6166 30.3226C50.6554 30.0557 50.7448 29.6181 50.7165 29.3977C50.7292 28.8579 50.742 28.3182 50.742 28.3182C51.5429 28.6346 52.4867 30.3188 51.6736 31.6691C51.1423 31.9759 50.2667 31.0542 49.9843 30.9707C50.1542 31.2993 49.7873 32.6755 49.4891 32.8259C49.4891 32.8259 49.45 32.6421 49.411 32.4582C49.3755 32.2621 49.34 32.066 49.34 32.066C49.0297 32.4382 49.006 32.7891 49.0372 33.09C49.631 33.6102 50.2435 33.9769 50.111 34.7861C50.2455 35.1441 49.716 36.3926 50.2337 36.2673C50.7307 35.1285 53.6937 34.2284 54.4591 34.1233C54.4533 34.1879 54.3162 34.4257 54.2999 34.9776C54.2452 35.4784 54.1603 36.0366 54.0283 36.3024C53.5795 37.0977 52.0686 36.5183 51.6841 37.1867C51.8992 37.0913 52.2834 37.1916 52.4149 37.2437C52.3876 37.6068 51.7066 37.4717 52.1314 38.0216C52.9581 37.7093 52.7234 39.2703 52.9387 37.9554C53.4696 38.4173 53.1181 38.658 53.5192 39.3333C53.9024 38.8501 55.5372 39.0552 56.0805 39.5207C55.8603 39.5882 55.6878 39.8553 55.5954 39.9871C56.1751 41.2322 56.0772 41.8794 56.5939 42.8408C56.3947 42.9277 56.3111 43.3006 55.7557 43.0569C56.0078 43.1977 56.4476 43.3808 56.6283 43.6728C55.9128 43.9252 56.1651 43.0719 55.2099 43.1871C55.8627 43.3271 56.4378 44.0009 57.1103 44.5709C58.1575 44.8673 56.764 43.6201 56.1869 43.2241C56.8628 43.3312 57.6428 43.6281 58.4929 44.1844C59.3344 44.7249 60.2388 45.5491 61.0212 46.4698C62.0971 47.8882 60.2407 46.4908 60.5845 46.8179C60.9561 47.6833 61.7941 48.4614 62.6371 49.2674C63.4715 50.0577 64.2972 50.8321 64.5264 51.4566C64.2895 51.3998 63.9703 51.3054 63.5687 51.1734C61.5176 50.2089 61.2364 49.4895 60.197 48.8507C60.3327 48.7981 60.5523 48.8232 60.8224 48.9031C60.7666 48.595 61.197 48.6295 60.9296 48.1792C60.9296 48.1792 60.7565 48.539 60.7478 48.5231C60.1981 47.9894 59.6475 47.3229 59.8222 47.2287C59.4973 47.1989 59.6975 47.6956 60.0285 48.337C58.9858 48.1612 57.7459 48.0199 56.5947 47.5336C56.6316 47.7699 56.4086 47.9823 56.9229 48.32L57.3099 48.2754C58.4735 48.9906 57.1427 49.0213 58.1329 49.4201C57.8052 49.7607 57.2581 50.3015 55.7661 49.794L55.0537 48.9073C55.2047 49.164 56.1161 49.5131 56.2583 49.3032C56.1587 49.4594 55.5022 49.1062 54.9749 48.8575C54.4354 48.6051 54.0129 48.4537 53.9706 48.9581L54.4971 49.2994C54.7788 49.4755 55.0605 49.6516 55.0605 49.6516C54.4483 49.9611 53.4009 50.6588 52.0735 50.2265C52.765 51.0938 52.3183 50.1663 53.4582 51.2325C52.9128 50.594 53.7678 50.7275 54.5246 50.832C55.3059 50.9437 55.989 51.0264 55.0767 50.3192C55.7875 50.9403 56.2801 51.1258 56.7957 51.2782C57.3236 51.4343 57.8392 51.5868 58.9053 52.1805C58.6438 51.891 58.0205 51.5609 59.2785 51.8666C59.2633 51.7826 59.2885 51.6972 59.3065 51.6363C59.3434 51.6472 59.3679 51.6545 59.4048 51.6653L59.3065 51.6363C59.3065 51.6363 59.3246 51.5753 59.2769 51.601C58.8985 51.4361 58.5641 51.2577 58.3632 51.079C58.3536 50.4796 59.9004 50.7117 60.0273 50.4178C60.7517 50.632 60.1603 50.7355 60.8255 51.1045C60.8378 51.1082 61.0203 50.6717 61.008 50.668C61.8185 51.3584 64.0493 52.0313 62.988 52.2345L64.4452 52.4533C65.3812 52.8096 66.3865 53.0671 66.9959 53.128C66.8362 52.8555 66.6397 52.572 66.415 52.2935C66.2797 51.8028 64.5135 50.1007 65.5573 51.0854L63.9323 48.8153L64.1425 48.9172C63.6835 47.9861 62.792 46.8476 62.107 45.8232C61.4133 44.7829 60.919 43.8811 60.9408 42.8139C60.4149 42.1546 59.8904 41.5355 59.4783 40.446L59.8586 40.1078C59.54 39.6954 59.313 39.0185 59.0628 38.3745C58.9341 37.952 58.8062 37.6623 58.5231 37.6714C59.4035 36.5001 57.4576 35.0895 57.1907 34.0959L56.6016 34.3724C56.5271 34.2179 56.4368 34.0718 56.3465 33.9258C56.2612 33.8078 56.1153 33.5791 56.0712 33.5926C55.9224 33.5088 55.7578 33.4336 55.5721 33.3389L55.0068 33.4899C54.7122 33.4028 54.663 33.1629 54.6874 32.9447C54.9935 32.6773 55.3623 32.4683 55.4503 32.2159C55.6482 32.3142 55.5457 32.3899 55.3818 32.4475C55.776 32.3785 55.9118 32.3259 55.9601 32.2076C55.9601 32.2076 56.0394 31.9394 56.0617 31.7737C56.0912 31.5836 56.1085 31.3898 56.1221 31.2083C56.1752 30.4419 56.1914 29.6646 56.8989 29.3038C56.8489 28.9311 57.0084 28.7529 57.2344 28.6209C57.2271 28.6452 57.2199 28.6696 57.225 28.6976C57.2322 28.6732 57.2712 28.6317 57.2856 28.583C57.4321 28.4938 57.5996 28.424 57.7498 28.3226C57.5736 28.3765 57.4061 28.4463 57.3159 28.5257C57.4089 28.3013 57.5012 27.9442 57.5357 27.5567L58.1517 27.6858C58.1517 27.6858 58.1661 27.6371 58.1769 27.6005C58.5371 27.3756 58.0374 27.2146 57.5384 27.1863C57.5347 26.9731 57.4797 26.7978 57.4341 26.5457C57.9771 26.5605 58.0607 26.1875 58.153 25.8304C58.2488 25.461 58.3339 25.1283 59.0191 24.9332C58.6513 24.5063 59.8201 22.3598 58.5984 22.3829C58.7709 22.3412 58.9196 22.1996 58.8229 22.4361C59.1975 21.9371 59.6023 21.3807 59.413 21.0729L60.5471 20.5334C60.5471 20.5334 60.3463 20.3547 60.1188 20.2211C59.8913 20.0876 59.637 19.9991 59.637 19.9991C60.5927 19.1152 61.1751 18.5451 61.6771 18.8791C61.4335 18.3034 61.4457 18.0816 61.4615 17.8477C61.47 17.6381 61.4858 17.4042 61.0547 17.2369L61.8314 16.7773C62.0442 16.2834 61.2615 16.3569 62.0915 15.5816C62.3448 15.3119 62.5895 15.0263 62.8168 14.7091C62.3892 14.5296 60.8809 14.7994 59.3235 15.0547C57.7416 15.3027 56.1387 15.5313 54.8656 15.3669C54.7843 16.1383 54.5128 16.0182 54.143 15.8691C53.7732 15.72 53.2453 15.5639 53.021 16.1868C52.948 15.8471 52.4901 15.725 53.1506 15.2972C52.2077 15.6415 51.5752 15.6135 50.9614 15.6573C50.6589 15.6872 50.3563 15.717 50.0813 15.8345C49.7817 15.9448 49.5168 16.1183 49.4093 16.3914C49.2113 16.0677 49.5715 15.8428 49.4111 15.6628C49.3296 15.758 49.1044 16.0229 48.9563 15.8465C48.7959 15.6665 49.0659 15.521 49.2254 15.3428C48.081 15.6009 48.161 16.685 48.2589 17.7082C47.5937 17.3392 47.3064 17.453 47.0092 18.187C46.7477 17.8976 46.349 17.6206 47.0363 17.3732C46.6283 17.3983 44.4844 17.3344 44.5946 18.1358C44.3779 17.9657 44.1339 18.1586 44.0769 18.2611C43.4718 18.3208 43.4407 18.2453 42.8523 18.4292L42.978 18.5459C42.8099 18.9337 42.6699 19.0911 42.5378 19.1316C42.3681 19.0284 42.2906 18.568 42.0053 18.4041L42.0674 18.3297C41.8143 17.6053 41.7176 17.6164 41.5666 17.5851C41.4489 17.5768 41.2843 17.5016 40.9654 16.6384L40.6032 17.1411C39.5811 17.9789 40.0768 15.5803 39.0419 15.2875L39.0558 15.7821C38.3706 15.7518 39.2274 13.4865 38.9672 13.0119C38.9613 12.8511 39.2221 13.0077 39.394 13.0586C39.164 12.3012 38.9944 12.4234 38.7677 12.648C38.6544 12.7603 38.5303 12.9092 38.3874 12.9862C38.2199 13.056 38.1051 13.1281 37.78 12.8729C37.8455 12.3355 38.8051 12.3409 38.0083 11.469C37.8984 11.1184 37.057 10.8033 36.2633 10.4625C35.4609 10.1059 34.722 9.71511 34.2601 8.70363C34.4576 9.34528 34.5799 9.92494 34.0433 9.75301C33.6691 9.48329 33.1957 8.60097 32.6567 7.80529C32.1263 7.02542 31.5354 6.36019 31.3067 6.86257C31.1889 6.6289 31.1217 6.44994 31.0963 6.30989C30.5525 6.16234 29.3043 5.23648 29.3213 6.03687C28.7733 4.54921 28.2054 3.85103 27.7229 3.49625C27.6829 4.39908 27.7767 5.75242 27.7727 6.53335C27.7687 7.31428 27.6454 7.59595 27.1221 6.56632L26.8742 9.21049L26.7131 8.89772C26.3787 10.3896 26.7099 11.4817 27.0548 12.3923C26.8967 12.6107 26.7608 12.2126 26.6791 12.0824C26.0237 13.983 26.0174 14.5909 26.7267 16.6168L26.0798 16.6375C26.1578 16.7799 26.1031 17.0554 25.9935 17.3809C25.8809 17.626 25.7504 17.932 25.5931 18.2832C25.2945 18.977 25.0212 19.8108 25.2823 20.6436C25.2086 20.6219 25.0895 20.5734 25.0237 20.4346C25.1452 20.8815 25.0732 21.3507 24.9203 21.8224C24.7624 22.2662 24.5244 22.8454 24.3923 22.8858C24.1 23.1971 24.0184 23.2923 24.9857 24.1748L25.0572 24.249C25.0572 24.249 24.8972 24.9705 24.8655 24.9877C25.3853 24.81 25.5861 24.9887 25.6844 25.2431C25.795 25.5012 25.775 25.8399 26.188 25.8427C25.9845 26.0344 25.5166 26.0816 25.2183 26.0067C24.9201 25.9317 24.7597 25.7517 24.9719 25.5759L25.1315 25.6231C24.8172 25.1059 24.4475 25.1822 24.1356 25.2888C23.7761 25.4211 23.2274 25.6963 23.0756 25.3068C21.7942 26.0281 20.4262 26.5912 19.0812 27.1214C18.8133 27.2145 18.2242 27.491 17.7499 27.6954C17.2439 27.917 16.7501 28.1421 16.2563 28.3672C15.2528 28.8261 14.2421 29.3093 13.2805 29.8071L14.0301 29.936C14.3969 30.0047 14.7638 30.0734 14.7638 30.0734L13.5308 30.6764C12.9502 30.7434 12.1234 30.6049 13.1059 30.1266C12.5434 30.1326 12.2619 30.4073 12.2144 30.6583C12.1633 30.9216 12.3338 31.1576 12.4688 31.1975C11.3693 31.575 11.0804 31.4233 11.0788 31.1577C11.0736 30.9043 11.3363 30.5578 11.0259 30.7046L10.3336 31.1494L10.6715 31.0903C10.6154 31.5509 11.2314 31.68 10.1218 32.2268C9.13344 32.5443 8.74846 32.3111 8.41348 32.4507C8.29578 32.4424 8.1355 32.4878 7.93196 32.6795L6.10624 33.5712L8.25644 33.2526C8.31871 33.629 6.78158 33.9963 9.20976 33.6406C8.69423 33.7135 8.19605 33.818 7.69932 33.9628C7.77027 34.3549 9.08548 35.009 10.2801 35.5743C11.4869 36.1433 12.5804 36.5992 12.6245 36.8111C14.3208 37.0343 15.1246 37.4311 16.1907 38.0248C16.0483 37.7838 16.7275 37.2026 17.4607 37.658C16.5605 38.1739 16.8357 38.5071 17.3601 38.9008C17.8845 39.2945 18.5917 39.7024 18.7653 40.4696C18.6948 39.5341 20.9615 41.3046 20.6504 39.8738C21.1957 40.2869 20.4088 40.4651 20.6892 41.0518C21.5449 41.0927 22.2953 41.5798 23.0437 42.1192C23.2307 42.2541 23.4301 42.3926 23.6136 42.5396C23.7884 42.6708 24.0578 42.8433 24.0961 42.8944C24.276 43.0536 24.4457 43.1568 24.6948 43.2173C24.8876 43.0621 24.9517 42.7099 25.4448 42.5774C25.385 42.8248 25.3042 43.0528 25.3952 43.1062C25.2162 43.3052 25.0408 43.4919 24.8691 43.6665C24.9969 43.7308 26.0978 43.1682 25.4403 43.9017C25.61 43.7795 25.8612 43.5621 25.9551 43.696C25.9169 43.8703 25.8946 44.036 25.8759 44.1895L25.8514 44.4077L25.8646 44.7695C25.8944 45.2555 25.9683 45.7281 26.0545 46.2042C26.239 47.1602 26.4922 48.11 26.7172 49.0647C27.1795 50.9777 27.5292 52.9104 26.8564 55.0048C27.1912 54.4145 27.2924 54.7493 27.3915 55.1365C27.4463 54.8611 27.9388 55.0465 28.2262 54.9326L27.7071 56.688C28.5744 56.8251 28.0603 58.3831 28.895 58.4046L28.663 57.9251C29.7297 58.4261 30.5744 56.608 31.7969 56.4922C30.5864 55.9354 33.0017 54.2238 31.2459 53.2539C31.445 52.9416 31.677 53.4212 31.9246 53.216C31.3497 52.993 31.1748 52.6364 31.2734 51.8967L31.4207 51.9402C30.9252 50.0041 31.28 49.0751 31.2053 46.7995L30.6444 47.0711C30.6304 46.5765 30.8037 46.4421 30.9039 46.1934C29.8943 45.8153 31.1067 47.5392 30.0141 47.2161C30.5656 46.7959 30.4135 45.9556 30.2825 45.1347C30.2151 44.7304 30.1637 44.3175 30.196 43.9824C30.2096 43.8008 30.2702 43.6862 30.3402 43.4948C30.3979 43.2997 30.5133 43.135 30.6707 43.0092C30.4629 41.8608 30.0535 43.5161 29.8559 42.4236L30.1561 41.9954L29.647 41.9112C29.5925 41.1925 29.9662 40.5607 30.2456 40.3384C30.2493 40.5516 30.4213 40.8278 30.4849 41.0189C30.5749 40.4888 30.4634 39.8726 30.3108 39.3502C29.5431 39.0569 28.7834 38.872 28.6562 38.7151L29.5231 39.3956C25.8579 38.0202 24.4449 36.7937 22.2143 36.5715L22.226 36.8932C21.4375 36.8058 21.1947 36.5882 20.9556 36.3584C20.8234 36.1735 20.7511 35.9665 20.2369 35.8543L20.3163 35.8115C19.9532 35.9559 19.5633 35.9202 19.3271 35.7708C19.8325 35.6419 19.5477 35.16 20.1672 35.0515C19.5607 35.071 19.3058 35.0752 19.0452 35.1439C18.7636 35.1932 18.4972 35.3265 17.456 35.4163L17.931 35.1193C17.1201 35.1977 16.775 35.2812 15.9893 35.0489C16.5496 35.0953 16.7193 34.9731 16.9626 34.8727C17.1936 34.7687 17.4896 34.6707 18.0925 34.6634C18.4873 34.2764 17.8512 34.2606 17.1839 34.1693C16.5535 34.089 15.9744 33.9707 17.4307 33.8314C14.1712 33.7026 16.7103 34.2811 15.8936 34.1987C15.3261 34.4021 13.4984 34.1267 13.3366 33.9065C13.312 33.8993 13.3069 33.8712 13.3228 33.8627C13.7683 33.7558 14.8218 33.6697 15.7698 33.5788C16.7424 33.4953 17.5901 33.4278 17.8355 33.275C17.7597 33.3056 17.9424 33.3199 17.8666 33.3505C18.6544 33.3051 17.5387 33.0149 18.7041 33.0016C17.6555 32.665 19.1149 32.8315 17.7398 32.4249C17.7398 32.4249 17.3638 32.8837 17.3797 32.8751C17.3544 32.7351 17.0026 32.525 16.9166 32.2742C16.8147 32.032 17.003 31.7563 17.7576 31.6878C17.9288 31.8312 18.0271 32.0856 18.0806 32.2207C18.6445 32.2549 18.2393 31.9097 18.7996 31.9561C19.3247 32.2572 19.2114 32.3695 19.0259 32.5003C18.844 32.6188 18.5581 32.7729 18.9907 32.9803C19.723 33.0776 18.568 32.3781 19.8789 32.9116C19.0606 32.5636 19.3003 32.4754 19.5501 32.4432C19.8194 32.3903 20.0707 32.3983 19.8033 31.9481L20.3241 32.3539C20.2844 32.2626 20.1738 32.0046 20.3095 31.9519C20.2936 31.9605 20.7582 32.6016 20.79 32.5845C20.6216 32.2961 20.8816 32.3199 21.1112 32.4011C21.3568 32.4737 21.5489 32.6366 21.5452 32.4234C21.3669 32.5297 21.2166 32.4058 21.0757 32.205C20.919 32.0128 20.812 31.7426 20.5209 31.6433C20.6038 31.3629 20.7785 31.2688 20.9417 31.3038C21.1685 31.3045 21.4155 31.4173 21.643 31.5509C22.1262 31.8131 22.6636 32.1178 23.5276 31.4984C23.3168 31.7145 22.4048 31.6834 22.6718 31.2321C23.0819 31.1545 23.6711 31.1034 24.0373 31.2647C25.2117 30.4985 23.5554 30.8173 23.8938 30.2148C24.6623 30.6409 24.3622 29.6243 24.7894 29.1276L25.0843 29.6655C25.8785 29.4629 25.8177 29.1267 25.7496 28.815C25.6657 28.5118 25.5818 28.2086 26.5962 27.9386C26.628 27.9215 26.305 29.0588 26.2855 29.0795L27.182 28.3504L27.3968 29.0237C28.2144 28.0194 28.5718 27.9395 29.7984 27.4936C29.8093 27.4571 29.8237 27.4083 29.8381 27.3595C29.3933 27.3738 28.8268 26.4905 28.9339 25.5412C29.3684 25.0201 29.4354 26.1932 29.5466 24.6884C29.8739 25.1166 30.2822 25.7676 29.6534 26.1782C29.8333 26.3374 29.9728 26.7233 30.1455 26.9069C30.66 26.2505 30.5286 24.7535 30.6085 24.1673C30.5436 24.3867 30.4889 24.6622 30.3756 24.7745C30.3756 24.7745 30.2395 24.151 30.1194 23.5189C29.9661 23.0892 29.7948 22.7204 29.7948 22.7204C30.051 22.531 30.2201 22.7268 30.3733 22.9312C30.3421 22.6304 30.0907 22.3969 30.0992 21.962C30.5794 22.1438 31.0993 22.1915 31.2477 22.8186L30.8874 21.3732C31.1199 21.3094 31.5774 20.7554 31.7306 20.9598C32.1224 20.267 31.0249 18.9218 31.5321 18.0643C31.4339 18.0352 31.3552 17.9855 31.2873 17.8991C31.3587 17.7479 31.5543 17.6732 31.6568 17.5974C31.7507 17.5059 31.7513 17.4133 31.4594 16.9558C31.4702 16.9192 32.2828 17.5572 32.2843 17.5974C32.1976 17.4392 31.957 17.1692 31.6811 16.9285C31.4087 16.6757 31.1292 16.4472 31.0257 15.9394C30.847 15.1442 31.7077 16.658 31.933 16.844C31.7509 16.5118 31.4755 15.9531 31.3381 15.5148C31.2007 15.0765 31.189 14.7549 31.5005 15.1916C31.6241 15.5861 31.502 15.4572 31.5339 15.6655L31.5216 15.6618ZM33.9387 16.3368C33.8066 16.3773 33.5425 16.6836 33.6246 16.2705C33.9651 15.6156 33.9162 16.0518 33.9387 16.3368ZM49.4631 20.3178C49.3419 20.5471 49.0805 20.4831 48.7706 20.3119C48.9576 20.2214 49.1879 20.2099 49.4631 20.3178ZM64.9217 52.1965C64.9217 52.1965 64.9253 52.1843 64.9043 52.1649C66.0808 52.5658 65.646 52.4107 64.9217 52.1965ZM62.9552 51.668C62.93 51.7534 63.0716 51.8615 63.2658 51.972C63.1423 51.8029 63.4672 51.8327 63.9287 51.9427C63.5524 51.7253 63.1985 51.5677 62.9516 51.6802L62.9552 51.668ZM8.63593 32.5562L9.17455 32.4504C8.94364 32.7798 8.80206 32.6717 8.63593 32.5562Z" fill="white"/>
<path d="M47.7567 21.4835C47.6765 21.3935 47.644 21.2778 47.6078 21.1743C47.5472 21.2889 47.5639 21.4132 47.7567 21.4835Z" fill="white"/>
<path d="M51.61 37.7083C51.594 37.4914 51.6408 37.333 51.7014 37.2183C51.5621 37.2832 51.4943 37.4222 51.61 37.7083Z" fill="white"/>
<path d="M55.4146 51.7049L56.4218 51.6847C55.9142 51.6406 55.6571 51.4718 55.3487 51.3408C55.4354 51.499 55.7482 51.7506 55.4109 51.7171L55.4146 51.7049Z" fill="white"/>
<path d="M48.2645 46.8996C48.1656 46.9631 48.0696 46.8817 47.9707 46.9453L47.9527 47.2316C48.3427 47.2674 48.6394 47.0767 48.2645 46.8996Z" fill="white"/>
<path d="M53.6913 49.4058C53.4405 48.8544 53.0196 48.9685 52.4658 48.9904C52.5026 49.0013 52.5308 48.9963 52.5676 49.0072C52.5131 49.7334 53.147 49.5762 53.6913 49.4058Z" fill="white"/>
<path d="M52.3444 48.9943C52.1704 48.9958 51.9877 48.9816 51.8158 48.9307C51.7575 49.2184 52.0419 49.0241 52.3444 48.9943Z" fill="white"/>
<path d="M61.4584 51.8087C60.9572 51.6074 62.0646 52.5579 61.5973 52.2872C61.7845 52.6474 62.1635 52.4944 62.2443 52.2664C62.3128 52.0348 62.1357 51.7306 61.4425 51.8172L61.4584 51.8087Z" fill="white"/>
<path d="M52.754 47.5644L53.111 48.2532C53.111 48.2532 53.1471 48.1313 53.1586 48.0022C53.1824 47.8766 53.1938 47.7475 53.1938 47.7475L52.7417 47.5607L52.754 47.5644Z" fill="white"/>
<path d="M56.6768 48.5653L55.7632 48.2687C55.8607 48.3903 55.8181 48.444 55.7387 48.4868C56.232 48.5796 56.879 48.7842 56.6731 48.5775L56.6768 48.5653Z" fill="white"/>
<path d="M55.7264 48.4832C55.4737 48.435 55.2505 48.422 55.1813 48.5208C55.3113 48.5327 55.5994 48.5517 55.7264 48.4832Z" fill="white"/>
<path d="M53.6175 47.4883L53.8869 47.6608L54.4011 47.7731L53.6175 47.4883Z" fill="white"/>
<path d="M59.6065 45.9719L58.936 45.1241C58.5893 44.942 58.5005 45.0616 58.7585 45.3632C59.0712 45.6148 59.3465 45.948 59.5942 45.9682L59.6065 45.9719Z" fill="white"/>
<path d="M57.8578 46.4225C58.0037 46.4258 58.2471 46.5508 58.5432 46.6782L57.2062 45.8719L57.8455 46.4188L57.8578 46.4225Z" fill="white"/>
<path d="M56.766 44.7873C56.3897 44.5699 55.5026 43.7774 55.8588 44.3334C56.1968 44.4997 56.7372 45.1102 56.766 44.7873Z" fill="white"/>
<path d="M52.9557 35.6406L53.0633 35.8182L54.1982 35.1861L52.9557 35.6406Z" fill="white"/>
<path d="M52.0379 24.8837C51.3703 25.5612 52.665 25.427 51.9648 25.9889C52.1505 26.3089 52.543 25.5235 52.6919 25.8327C52.6403 25.1944 52.9334 25.0159 52.0415 24.8715L52.0379 24.8837Z" fill="white"/>
<path d="M52.6883 25.8449C52.6999 25.9411 52.7202 26.0532 52.7491 26.181C52.7469 26.008 52.723 25.9082 52.6883 25.8449Z" fill="white"/>
<path d="M27.1835 57.872L27.0242 58.5009L27.3843 58.0506L27.1835 57.872Z" fill="white"/>
<path d="M28.3385 58.7968L27.5472 59.0798L28.3525 59.2914C28.2954 59.1684 28.1775 58.9348 28.3385 58.7968Z" fill="white"/>
<path d="M33.3879 18.1093L33.554 17.9994C33.6434 17.7872 33.4917 17.623 33.5235 17.6059C33.5235 17.6059 33.4542 17.7047 33.3972 17.8072C33.3575 17.9413 33.3966 18.1251 33.3843 18.1215L33.3879 18.1093Z" fill="white"/>
<path d="M32.4253 16.3532L32.4513 16.4007L32.0644 15.0004L32.4253 16.3532Z" fill="white"/>
<path d="M32.811 18.1641C32.811 18.1641 32.7033 17.9864 32.7243 18.0059C32.8356 18.1713 32.0083 17.1313 32.811 18.1641Z" fill="white"/>
</g>
<defs>
<clipPath id="clip0_89_453">
<rect width="54" height="64" fill="white" transform="translate(0.657227 51.8174) rotate(-73.5264)"/>
</clipPath>
</defs>
</svg>
