<svg width="139" height="221" viewBox="0 0 139 221" fill="none" xmlns="http://www.w3.org/2000/svg">
<g clip-path="url(#clip0_89_535)">
<path d="M54.9749 37.2923C54.8742 37.2157 54.7091 37.1229 54.5829 37.0342C54.9951 37.1889 55.1884 37.283 54.9749 37.2923Z" fill="white"/>
<path d="M49.4633 34.4786C50.9269 35.1078 53.2416 36.1217 54.5828 37.0342C53.2562 36.542 49.5756 35.4429 49.4633 34.4786Z" fill="white"/>
<path d="M54.6787 38.6566L52.9669 37.6283C54.1177 37.8881 53.763 38.1646 54.6787 38.6566Z" fill="white"/>
<path d="M54.3381 37.6465L54.5585 37.4049L55.3988 38.1064L54.3381 37.6465Z" fill="white"/>
<path d="M111.564 111.626C111.759 111.464 111.945 111.38 112.088 111.541L111.564 111.626Z" fill="white"/>
<path d="M108.508 115.53C108.29 115.898 108.152 116.155 108.039 116.377C108.13 116.103 108.262 115.897 108.508 115.53Z" fill="white"/>
<path d="M112.663 107.352L112.496 108.201C112.521 107.922 112.572 107.626 112.663 107.352Z" fill="white"/>
<path d="M94.7528 60.0686C94.365 59.3607 93.9638 58.7064 93.6364 58.2362C94.9319 59.0574 94.6442 59.5676 94.7528 60.0686Z" fill="white"/>
<path d="M93.7525 131.156L93.8424 131.458C93.6261 131.57 93.481 131.602 93.7525 131.156Z" fill="white"/>
<path d="M104.306 114.78C104.443 114.826 104.52 114.908 104.563 115.01C104.514 115.066 104.474 115.136 104.415 115.19C104.387 115.051 104.341 114.914 104.313 114.776L104.306 114.78Z" fill="white"/>
<path d="M112.822 103.916C112.822 103.916 112.809 103.878 112.801 103.865L113.059 103.199C113.049 103.579 112.969 103.81 112.822 103.916Z" fill="white"/>
<path d="M89.8015 136.354C89.5261 136.519 89.2238 136.655 88.8894 136.736C89.3422 136.273 89.7022 136.158 89.8015 136.354Z" fill="white"/>
<path d="M107.994 116.486C107.994 116.486 108.024 116.414 108.039 116.377C108.017 116.418 108.009 116.45 107.994 116.486Z" fill="white"/>
<path d="M106.86 109.078C106.71 109.377 106.573 109.651 106.415 109.965C106.495 109.552 106.68 109.249 106.86 109.078Z" fill="white"/>
<path d="M94.7527 60.0686C94.8695 60.2634 94.9728 60.4663 95.0895 60.6611C94.8761 60.442 94.7916 60.2553 94.7527 60.0686Z" fill="white"/>
<path d="M60.0732 38.9751C60.6586 39.2359 60.7216 39.4629 60.7591 39.6778C60.4719 39.4574 60.2329 39.2263 60.0732 38.9751Z" fill="white"/>
<path d="M132.683 200.489L132.911 200.398C132.824 200.45 132.745 200.47 132.683 200.489Z" fill="white"/>
<path d="M109.785 201.02C109.697 200.935 109.599 200.848 109.546 200.743C109.753 200.738 109.826 200.876 109.785 201.02Z" fill="white"/>
<path d="M87.6094 193.403C88.992 194.537 89.6639 196.389 90.7914 197.494L90.6265 196.899L91.5673 198.179L91.8508 197.845C93.6454 199.727 96.4944 201.252 96.9492 202.285L97.0704 201.527C97.7429 202.147 98.3926 202.835 99.1215 203.411C98.7309 203.034 98.3658 202.623 98.0115 202.214C98.6761 202.592 99.4239 203.002 100.184 203.432C100.932 203.888 101.712 204.306 102.435 204.675C103.856 205.477 105.079 205.994 105.38 206.115L105.209 205.77C105.725 205.808 106.03 206.118 106.501 206.356C106.408 206.202 106.325 206.033 106.249 205.859C107.327 206.226 108.239 206.438 109.053 206.607C109.877 206.734 110.62 206.8 111.368 206.891C112.873 207.011 114.419 207.153 116.907 207.542C118.274 207.554 116.159 207.361 116.155 207.126C116.916 206.916 118.633 207.238 119.016 207.42C118.624 206.796 116.556 206.94 118.143 206.482C119.243 206.809 117.41 205.899 119.34 206.057C119.592 206.326 119.849 206.601 120.11 206.855C121.202 206.666 120.319 206.228 122.033 206.223C124.036 206.474 119.648 207.241 122.869 207.192C123.675 207.074 124.477 206.539 125.426 206.006C126.375 205.411 127.478 204.95 128.99 204.747C130.211 204.225 129.784 204.016 129.518 203.846C129.247 203.653 129.138 203.608 130.839 203.155C130.08 203.245 129.304 203.244 128.54 203.264C129.042 202.899 128.6 202.634 130.067 202.385C130.601 202.531 131.609 202.612 132.406 202.389C130.749 202.625 131.368 202.181 131.976 201.716C132.58 201.217 133.151 200.692 131.658 200.866C132.004 200.759 132.338 200.614 132.676 200.493C132.544 200.517 132.48 200.455 132.523 200.375L133.826 199.777C132.93 199.957 130.991 200.682 131.676 199.769L133.483 198.869C132.807 198.671 133.409 198.228 133.153 197.952C131.279 198.436 129.419 198.866 127.518 199.001C127.794 199.201 128.641 199.168 128.41 199.498C126.969 200.079 127.106 199.394 125.764 199.989L126.46 200.22C126.321 200.111 126.11 200.11 126.411 200.002C126.865 199.694 127.125 199.867 127.183 200.087C126.796 200.675 125.252 200.597 124.79 200.39C122.931 200.7 124.514 201.24 124.118 201.431C123.57 201.112 122.793 201.231 121.972 201.339C121.153 201.419 120.305 201.589 119.705 201.41C119.957 201.588 120.217 201.715 120.481 201.867C119.749 202.215 119.033 202.178 118.41 202.113C117.783 202.042 117.245 201.844 116.82 201.715L117.13 202.141C115.097 201.917 113.825 203.054 112.504 201.398L112.668 201.702C111.822 201.616 110.44 201.686 109.774 201.017C109.712 201.173 109.513 201.328 109.165 201.281C108.864 200.64 107.895 200.792 106.669 200.422C107.414 200.843 106.924 201.41 107.729 201.886C105.591 201.853 106.231 200.575 104.729 199.896C103.669 199.819 105.392 200.621 105.519 200.956C104.398 200.258 103 200.119 101.792 199.748C100.554 199.449 99.52 198.927 99.1929 197.909L100.379 198.121C99.6606 197.318 99.2001 197.038 99.2309 197.211C99.5397 197.345 99.5597 197.516 99.5905 197.689C98.8171 197.45 98.2613 197.025 97.762 196.603C97.2626 196.181 96.864 195.699 96.5111 195.171C96.1554 194.653 95.7837 194.155 95.3958 193.63C95.0107 193.094 94.5678 192.583 93.965 192.095C93.942 192.438 94.1916 192.809 94.0532 192.974C93.4289 192.572 93.4467 192.068 93.3731 191.519C93.3089 190.955 93.1091 190.408 92.207 189.68L92.2416 190.225C91.6349 189.73 91.6325 189.011 91.7682 189.039C91.2711 189.382 90.5262 188.414 89.7372 187.234C89.3144 186.666 88.9173 186.018 88.4757 185.48C88.0274 184.945 87.5348 184.519 87.0138 184.32C87.0414 182.98 86.2077 179.837 85.6266 178.989C84.4857 177.847 85.2928 180.458 84.4952 180.178C84.1292 179.065 84.4935 178.317 83.8591 176.725C84.4864 176.568 86.0185 179.521 85.5648 176.433L85.1044 176.107C85.2291 176.406 85.48 176.794 85.508 177.252C85.3651 178.233 84.9401 176.853 84.7173 176.695C84.4613 175.597 84.3196 174.477 84.1711 173.361C84.8213 172.999 85.0392 174.977 85.2553 175.14C85.0945 174.506 84.8692 173.856 84.6211 173.183C84.3797 172.506 84.1894 171.807 83.9816 171.11C83.7563 170.414 83.6667 169.701 83.5825 169.012C83.4915 168.327 83.5106 167.658 83.6426 167.041L83.3725 167.276C83.5301 166.487 83.5263 165.978 83.4593 165.608C83.4139 165.242 83.2851 165.027 83.171 164.822C82.955 164.431 82.7564 164.084 83.4729 162.888C83.4924 161.534 82.6561 163.277 82.911 161.235C82.9932 160.656 83.2052 161.04 83.2777 161.161C84.0351 158.753 82.8674 159.928 84.0261 157.809L83.1853 158.112C84.3631 155.462 86.6473 153.271 87.3133 151.001C86.7359 150.89 86.1953 152.273 85.5531 152.649C87.6778 150.024 89.0794 145.661 91.118 143.334C91.0691 144.349 92.8346 142.725 92.185 144.566C91.2959 144.606 91.2725 145.633 90.6866 146.469C91.8256 146.16 92.4495 144.581 93.1325 143.131C93.7833 141.673 94.3575 140.316 95.1014 140.491L94.8667 139.81C95.1959 139.475 96.2076 138.741 95.9117 139.512C96.4158 138.525 96.9374 137.537 97.4765 136.547C96.4353 137.263 94.2455 138.758 94.3282 139.749C93.2845 140.201 94.7547 138.389 93.7003 138.701C95.7557 137.378 94.1146 137.321 95.6103 135.52C95.7023 136.862 97.8564 134.257 98.1262 134.57C98.4301 133.858 99.72 132.674 100.323 132.294C101.155 131.23 102.359 128.272 103.778 126.572C103.115 127.143 102.106 128.049 101.712 127.665C102.563 126.953 103.174 125.93 102.767 125.434C99.7815 128.009 103.295 127.245 100.778 129.703C99.724 130.015 99.0589 130.688 97.8818 132.014C98.0071 131.126 97.6565 131.318 97.446 130.769C99.9001 129.836 100.721 126.24 102.824 124.25C103.825 123.467 104.165 124.752 105.691 122.468C105.418 123.216 105.172 123.993 104.873 124.729C105.86 122.293 105.557 124.438 106.801 122.661L105.955 123.168C106.534 121.971 106.844 121.604 107.525 121.141L106.313 121.739C106.605 121.099 107.135 119.896 107.528 120.08C107.453 119.833 107.352 119.71 107.242 119.648C107.413 119.583 107.638 119.32 108.003 118.572C107.699 118.964 107.581 119.299 107.381 119.209C108.984 116.477 107.016 118.205 107.942 116.49C107.663 116.694 107.691 116.102 107.882 115.43C108.409 115.699 109.097 114.958 109.786 114.052C110.49 113.156 111.028 112.012 111.529 111.629C111.946 110.832 112.432 110.029 112.781 109.163C112.553 109.682 112.393 109.003 112.462 108.204L112.436 108.329C112.467 107.452 110.956 108.997 111.904 106.603C112.122 106.189 112.365 105.788 112.529 105.361C112.448 105.592 112.309 105.328 112.242 105.186L112.766 103.867C112.572 103.299 112.575 102.786 112.616 102.277C112.648 101.765 112.778 101.267 112.925 100.75C113.071 100.233 113.249 99.707 113.339 99.1417C113.401 98.575 113.402 97.9814 113.26 97.3635C113.364 98.0861 113.287 99.1913 112.927 98.713C112.785 98.2322 112.905 97.503 113.08 97.1244L112.949 97.2573L113.118 96.0608L113.195 94.8642C113.236 94.0638 113.314 93.25 113.323 92.4415C113.001 92.8805 113.187 95.5357 112.646 94.3898C112.351 94.0647 112.312 93.5584 112.338 93.0225C112.357 92.4907 112.402 91.9253 112.359 91.5036C112.682 91.5562 113.207 93.0861 113.112 91.4812C112.927 91.3092 112.368 89.8732 112.263 90.6118C112.311 89.7792 112.2 88.7867 112.122 87.8022C112.08 87.3067 112.05 86.8138 112.042 86.3437C112.017 85.875 111.994 85.4412 112.017 85.0531C111.747 84.6487 111.842 85.3861 111.878 85.6292L111.998 85.7219C112.12 86.7171 111.287 86.0747 112.056 87.8599C111.579 88.0544 111.354 87.4043 111.18 86.5044C110.95 85.6193 110.751 84.479 110.436 83.7093L110.557 86.4396C109.254 84.5091 108.487 82.1021 107.606 79.6721C107.394 79.0596 107.182 78.4471 106.974 77.8413C106.735 77.2449 106.501 76.6552 106.274 76.079C105.83 74.9117 105.288 73.8397 104.731 72.8953C105.664 73.8426 105.96 74.9158 106.563 74.3991C106.03 73.1122 105.76 72.5708 105.47 72.0416C105.194 71.5042 104.861 71.0098 104.148 69.8209L104.246 70.0452C103.147 69.0791 102.603 67.0589 101.465 66.7454C101.488 67.4988 103.007 68.1134 102.315 68.665C101.633 67.7407 100.994 66.7814 100.276 65.888C100.436 66.4588 100.915 67.1668 101.48 67.8507C102.038 68.5386 102.659 69.2252 102.964 69.8095C103.541 70.5592 101.986 68.1773 102.698 68.2072C104.535 70.8767 104.456 71.8275 104.532 73.5989C104.478 74.727 103.304 72.7374 102.975 72.2497C102.646 70.1008 101.3 67.3376 98.9039 65.2131C98.3548 64.9214 97.8392 64.6095 97.278 64.3433C96.6624 62.8133 98.0418 62.434 95.9169 60.503L96.185 61.4379C95.6036 61.1381 95.2653 60.8935 95.0559 60.6812C95.6946 61.7774 96.2674 63.0226 96.7168 64.0771C94.9174 63.6034 93.9723 60.4268 92.3133 58.7096C92.3199 58.8882 92.9011 59.462 92.9076 59.8232C90.208 57.6341 88.0784 54.4461 85.9601 52.6937C85.3585 52.543 85.7813 52.9287 86.2337 53.3788C86.6874 53.8464 87.1706 54.3785 86.7461 54.4776C85.7851 53.392 84.1026 52.9761 84.1621 52.2375C84.1763 53.2971 81.4408 50.454 83.2137 52.6507C78.8275 50.0846 74.4096 46.5973 70.0384 43.7667C70.1389 44.1172 70.0381 44.3146 69.7614 44.3709C70.5334 44.7755 71.4571 45.3266 72.2532 45.9085C73.0398 46.5052 73.7083 47.118 73.9753 47.6244C72.7654 47.464 71.9134 45.7835 71.485 45.8759C71.9024 46.3287 72.908 46.8946 72.7171 47.292C71.1916 47.0012 70.7758 46.0179 69.8965 45.4493L70.5021 45.5155C67.8871 43.4674 69.6035 43.3152 66.3851 41.9665C65.0099 41.8959 66.2049 42.3666 65.9279 42.9708C65.3064 42.3755 62.6274 41.8813 62.1445 40.8926L64.0672 41.7397C62.8186 40.9359 61.5552 40.351 60.7229 39.7087C60.7604 39.8779 60.7805 40.0485 61.0369 40.2326C60.0609 39.5485 58.6752 38.973 58.3062 38.3268L57.7097 38.8395C58.4752 38.8372 60.3993 39.6561 60.5575 40.1638C60.1167 40.6471 58.358 39.4187 57.5001 39.0838C61.1305 40.9525 60.6989 41.9689 64.0007 43.0302L63.5766 42.5814C65.7385 43.0204 67.3183 44.8034 68.9831 45.6315C68.4514 45.5211 68.2337 45.7063 68.3974 45.9186C72.3155 47.3227 75.6543 49.6492 79.7653 51.878L80.5543 53.2402L80.9211 52.8469C82.9525 53.921 80.922 53.7319 82.1518 54.5195C81.6953 54.1997 81.8243 54.1863 81.8109 54.0117C83.6122 56.0271 83.288 54.4503 84.4035 55.4434C84.1649 54.573 82.1885 53.6211 83.1677 53.3812C85.0226 55.3644 88.4474 57.6668 87.9109 58.9195C89.9676 60.234 91.9059 62.1582 93.6306 64.0916C95.3002 66.0855 96.7643 68.1021 97.9185 69.7384C98.4259 70.0368 97.8542 69.357 98.1187 69.4175C98.5234 71.083 101.622 73.4806 101.083 73.8765C101.628 74.4354 102.209 74.4612 102.473 74.55C102.604 75.0738 102.786 75.6219 103.018 76.1766C103.224 76.7475 103.458 77.3372 103.721 77.9283L103.44 77.0015L103.57 77.0512L103.965 78.3662L103.904 78.3393C105.199 81.2784 106.695 84.7186 106.777 87.6732C106.7 85.9756 107.672 87.8577 107.69 87.0344C107.408 87.8884 107.396 89.1642 107.615 90.5489C107.708 91.9538 108.039 93.4809 108.17 94.8723C108.389 94.8415 108.583 95.0444 108.732 94.6994L108.442 96.3618L108.694 96.1283C108.809 97.5841 108.65 99.1311 108.293 100.486C108.04 101.861 107.65 103.053 107.753 104.033C108.055 102.893 108.278 102.914 108.645 102.84C108.354 104.914 107.86 106.862 106.851 109.11C106.952 109.004 107.053 108.943 107.132 108.969C107.006 109.611 106.5 110.261 106.166 110.845L106.636 111.111C106.474 111.39 106.344 111.706 106.2 112.029C106.049 112.357 105.885 112.692 105.729 113.042C105.407 113.737 105.057 114.449 104.559 115.049C104.705 115.445 104.135 116.216 103.495 117.083C103.17 117.515 102.826 117.977 102.513 118.429C102.178 118.876 101.889 119.323 101.717 119.737C101.259 120.267 102.997 118.75 102.003 120.396C100.884 120.053 100.715 122.528 99.5577 121.999L99.0384 123.661L98.3199 123.635C98.5271 125.474 96.678 125.176 95.8 127.154C95.9706 127.134 96.1372 126.97 96.1479 127.11C95.6628 127.61 94.6656 128.902 95.1175 127.691C94.467 128.646 91.9876 131.73 93.5379 130.646C93.1727 130.554 94.3377 129.39 94.8469 128.884C95.2335 129.255 94.0698 130.573 94.2978 131.258C94.2212 131.268 94.0143 131.41 93.8491 131.5L93.9738 131.891C92.2419 133.358 91.3235 135.451 89.8041 136.389C89.8873 136.558 89.777 136.953 89.3214 137.564L88.7481 137.232L87.4672 139.268L88.8816 138.841C87.6233 141.129 85.7654 142.187 84.5115 144.025C84.8523 144.533 84.273 145.455 83.5916 146.512C83.2569 147.05 82.8739 147.599 82.6237 148.187C82.3777 148.782 82.2189 149.37 82.2468 149.92L83.2159 148.444C82.381 150.113 82.0528 151.15 81.7393 152.15C81.485 153.188 81.2159 154.171 80.4777 155.773C81.1212 152.84 81.1857 152.856 82.1226 148.524C81.789 149.582 81.4004 150.518 80.9944 151.41C80.6111 152.324 80.2494 153.198 79.8837 154.065C79.0864 155.767 78.6516 157.616 78.4572 159.668C78.7809 159.446 79.1857 158.492 79.2147 159.515C78.465 160.183 78.6325 163.342 78.0527 162.649C78.1742 163.964 78.7704 164.227 78.8049 165.001C78.591 165.695 78.5006 166.397 78.3445 167.112C78.195 167.822 78.0604 168.542 77.9821 169.264L78.1084 169.125C79.0533 172.712 79.3901 175.971 79.998 179.331C80.6275 182.651 81.5765 186.063 83.7452 189.072L83.975 188.77C84.1211 189.395 84.294 190.003 84.5018 190.609C83.9949 189.215 85.2188 190.891 85.5385 190.8L86.0281 191.876L86.5889 192.919C86.9754 193.609 87.3228 194.341 87.7737 195.002C88.0934 194.865 88.3999 194.234 87.604 193.424L87.6094 193.403ZM89.324 137.69L89.9288 136.871C90.0162 136.682 90.1291 136.505 90.3105 136.35L89.9288 136.871C89.7096 137.359 89.7309 137.821 89.324 137.69ZM89.9488 60.1722C89.8054 59.6282 90.5154 60.5539 90.7893 60.7367L89.6604 59.6147C89.3784 59.6011 89.8079 59.9828 89.9556 60.1682L89.9488 60.1722ZM92.9381 139.988L93.017 140.699L92.3453 141.101L92.9448 139.984L92.9381 139.988ZM86.2208 152.285L87.0057 151.112L87.0446 151.253L86.265 152.405L86.2235 152.275L86.2208 152.285ZM79.4269 167.257C79.4511 167.161 79.4726 167.075 79.517 166.966C79.4995 167.059 79.4685 167.159 79.4269 167.257C79.0784 168.443 79.9471 168.872 79.2227 169.872C78.482 168.727 79.1337 167.926 79.4269 167.257ZM87.2507 142.411C87.5732 142.035 87.7277 141.851 87.8635 141.514C87.5116 141.597 86.6759 142.244 86.9583 141.573C87.4554 141.275 88.4351 139.939 88.8164 140.149C87.6287 141.107 88.1745 142.642 87.2399 142.408L87.2507 142.411ZM105.14 114.527L105.046 114.857L105.862 113.857L105.14 114.527ZM107.677 109.3C107.872 109.183 108.043 108.98 108.207 108.736C108.345 108.479 108.466 108.179 108.582 107.854C108.802 107.201 108.996 106.473 109.207 105.881C108.807 105.473 107.955 106.549 107.661 107.931C106.804 109.412 108.201 108.757 107.671 109.304L107.677 109.3ZM83.0322 152.891L83.5185 152.681L83.4498 153.024C83.673 152.589 83.97 152.201 84.2334 151.787C84.0852 152.743 83.733 153.466 83.3177 154.052C82.8957 154.643 82.4321 155.104 82.1915 155.54C82.5088 154.729 84.1617 152.871 83.039 152.887L83.0322 152.891ZM109.718 97.2126C109.792 96.8943 109.886 96.5184 109.977 96.1357C110.045 95.7476 110.11 95.3528 110.171 94.9969C110.309 94.2839 110.468 93.7414 110.675 93.8274C109.924 93.8391 109.741 95.6655 109.786 96.2134C109.831 96.5331 109.794 96.7748 109.718 97.2126ZM111.136 97.2483C110.976 98.1842 110.813 98.6743 110.597 99.1053C110.363 99.5376 110.061 99.9014 109.672 100.563C109.505 98.7918 110.389 98.3169 110.809 98.5306C111.14 97.255 110.657 97.4991 110.556 96.8289L111.136 97.2483ZM109.046 99.1219L109.1 99.8378C109.355 100.689 110.188 100.966 109.258 102.081L109.1 99.8378C109.04 99.6457 109.019 99.412 109.046 99.1219ZM106.68 84.4809C106.69 84.7401 106.664 85.0019 106.663 85.2585C106.483 84.5627 106.545 84.4526 106.68 84.4809L106.666 83.8322C107.483 85.2414 106.936 84.5562 106.68 84.4809ZM109.194 95.5913C109.258 96.2924 109.192 96.9894 109.189 97.685C109.517 97.5617 109.388 96.2508 109.194 95.5913ZM107.461 84.7163C107.768 85.5639 108.583 87.7776 108.417 87.4847C107.994 87.373 107.42 85.3341 107.461 84.7163ZM76.9399 48.9609C77.3306 49.2015 77.7253 49.4488 78.1106 49.7109L77.2685 49.8139L76.9399 48.9609ZM90.471 58.0425L90.0346 58.0302L89.4346 57.486L90.471 58.0425ZM100.769 68.9798C100.629 68.9905 100.54 69.1166 100.511 69.2805C100.607 69.4873 100.676 69.6929 100.641 69.8325C100.516 69.6699 100.478 69.455 100.511 69.2805C100.244 68.7284 99.6545 68.0499 99.2826 67.8254C99.222 68.1812 99.8098 68.888 99.8848 69.2721C98.6255 68.557 98.0995 65.0287 97.2659 66.852C97.1667 66.5645 96.893 65.9708 96.7254 65.4779C96.5417 65.0037 96.468 64.637 96.8198 64.7822C97.3124 65.3909 98.0358 66.2628 98.7982 67.0475C99.5606 67.8322 100.256 68.6115 100.762 68.9838C100.881 68.9852 101.016 69.0417 101.197 69.2526C101.1 69.2284 100.934 69.1182 100.762 68.9838L100.769 68.9798ZM110.097 86.9524C110.183 87.5219 110.192 87.7811 110.162 87.8992C110.149 88.4096 110.036 88.8151 109.759 88.7344C109.699 87.5377 110.071 88.2188 110.162 87.8992C110.166 87.5863 110.152 87.2573 110.097 86.9524ZM111 90.4554C111.025 89.8108 110.977 89.1822 110.938 88.5389L110.777 89.5488L110.825 86.5982C111.556 88.1229 111.473 90.1172 110.99 90.4527L111 90.4554ZM111.45 91.0532L111.091 91.5056L111.427 90.8478L111.45 91.0532L111.533 90.9485C111.625 92.0163 111.738 93.0719 111.714 94.1449C111.705 93.1095 111.574 92.0834 111.45 91.0532ZM103.822 121.726C104.491 123.497 106.188 119.87 107.057 119.613C106.663 119.247 106.578 117.855 105.106 120.563C105.954 118.001 106.752 119.531 106.39 117.557C105.879 118.73 104.853 119.912 104.675 120.073C104.92 119.643 105.12 119.185 105.342 118.733C104.172 119.051 104.62 120.955 103.829 121.722L103.822 121.726ZM95.096 135.317L93.955 136.932L95.1067 135.457L95.096 135.317ZM85 180.487C85.301 180.243 86.7745 182.29 86.4625 183.08C85.8278 181.99 85.3907 180.682 85 180.487ZM97.0956 196.984C96.5453 196.492 96.0728 195.917 95.5789 195.382C95.998 195.213 96.3591 195.527 96.7295 195.962C97.1027 196.386 97.5268 196.881 97.9779 197.131C98.0327 197.664 97.5375 196.975 97.0997 196.991L97.0956 196.984ZM109.919 203.103L110.569 203.38C110.384 203.071 110.214 202.771 110.049 202.45L109.919 203.103ZM109.281 201.824C109.783 201.596 108.444 201.038 108.103 200.987L109.281 201.824ZM121.645 202.484L120.773 202.569L121.6 203.232L121.641 202.478L121.645 202.484ZM120.269 203.373C120.045 202.877 120.132 202.214 118.12 202.497C118.009 203.029 118.579 203.035 117.782 203.64C118.46 203.781 119.027 203.569 119.368 203.529C118.908 203.431 118.352 203.646 118.24 203.292C119.009 203.097 119.79 203.213 120.272 203.362C120.349 203.535 120.469 203.691 120.738 203.758C120.726 203.601 120.546 203.453 120.272 203.362L120.269 203.373ZM112.737 203.341C112.451 203.366 112.209 203.374 112.084 203.44L111.987 203.278C112.308 203.113 112.531 203.226 112.737 203.341C113.051 203.317 113.406 203.314 113.767 203.308C114.054 202.889 112.708 202.409 112.411 202.066C113.029 202.335 113.54 202.823 114.451 202.697C114.358 202.542 114.472 202.474 113.926 202.4L115.137 202.486C116.457 203.211 115.111 203.342 113.767 203.308C113.71 203.396 113.597 203.482 113.326 203.562C113.107 203.593 112.925 203.456 112.73 203.345L112.737 203.341ZM122.806 204.802C122.569 204.788 122.332 204.757 122.101 204.722C121.73 204.561 121.948 204.375 121.819 204.252C122.626 204.289 123.714 204.413 122.816 204.804L122.806 204.802ZM87.0823 186.872C87.4273 187.203 87.35 186.008 86.7112 185.186L87.5693 185.338C87.1998 185.56 88.2572 187.354 88.3739 187.549C88.0606 188.184 87.8166 187.381 87.0783 186.865L87.0823 186.872ZM90.8708 140.789C91.3288 140.853 91.8031 140.258 92.2306 139.6C92.6727 138.952 93.068 138.24 93.3205 138.052C92.6806 139.285 91.1844 142.044 90.8776 140.785L90.8708 140.789ZM93.1251 136.736C93.5431 136.138 93.5929 135.917 93.8936 136.221C94.2294 136.019 94.3775 135.428 94.7241 135.23C94.2251 136.606 93.7271 136.156 93.1251 136.736C93.0176 136.892 92.894 137.066 92.7206 137.28C92.8658 137.019 93.0015 136.865 93.1251 136.736ZM81.5122 162.739C81.2475 163.044 81.0391 163.351 80.8066 163.664L80.7333 165.233C80.9956 164.391 81.223 163.552 81.5122 162.739ZM82.1118 179.461C82.4141 179.234 82.9799 180.94 82.9622 181.352C83.3384 181.081 82.916 179.965 82.6452 179.041C82.6426 178.915 82.5956 178.715 82.5072 178.43C82.5218 178.622 82.5862 178.821 82.6452 179.041C82.6597 179.416 82.3523 179.253 82.1978 179.3L81.9133 178.886L82.2242 180.197L82.1118 179.461ZM100.563 202.465C101.702 202.659 101.747 202.842 102.38 203.257C102.08 203.336 101.162 202.946 100.563 202.465ZM79.8978 170.663C80.3065 172.473 80.504 169.725 80.8498 170.896L80.7389 169.949C81.3129 171.44 80.3206 171.095 80.5752 172.175L80.3903 171.455C79.8721 170.925 80.2325 172.608 79.8994 172.799C79.7478 172.378 79.6999 171.658 79.7095 171.141C79.7259 170.62 79.8308 170.293 79.8978 170.663ZM101.999 203.522C103.882 203.845 103.195 204.603 104.233 205.086C102.685 204.909 103.216 204.18 101.999 203.522ZM81.3232 182.472L81.1943 182.394L81.5427 183.919L81.6716 183.997L81.3232 182.472Z" fill="white"/>
<path d="M105.835 200.127C106.236 200.216 106.485 200.313 106.676 200.418C106.403 200.344 106.119 200.25 105.835 200.127Z" fill="white"/>
<path d="M98.1259 135.026C98.0481 134.927 98.0817 134.77 98.1651 134.574C98.2013 134.634 98.2106 134.756 98.1259 135.026Z" fill="white"/>
<path d="M100.279 132.403C100.304 132.37 100.326 132.329 100.351 132.296C100.378 132.28 100.419 132.255 100.452 132.235L100.279 132.403Z" fill="white"/>
<path d="M61.2417 38.8682C60.8205 38.0434 61.9145 39.0767 62.4462 39.3241C61.9145 39.0767 61.545 39.3438 61.2417 38.8682Z" fill="white"/>
<path d="M64.9871 41.6904C64.7496 41.3855 64.3562 41.0643 63.8313 40.7672C64.1831 40.9124 64.5241 41.1463 64.9871 41.6904Z" fill="white"/>
<path d="M61.7179 39.8609C62.5746 40.1327 63.2902 40.4433 63.838 40.7632C63.2902 40.5346 62.7516 40.5195 61.7179 39.8609Z" fill="white"/>
<path d="M75.9899 47.2843C75.5484 46.6086 74.238 46.0976 74.238 46.0976C77.0469 47.2809 74.0276 45.2286 73.9297 44.8672C75.526 45.9008 75.3297 46.2741 75.9926 47.2736L75.9899 47.2843Z" fill="white"/>
<path d="M79.3234 49.4953C79.0616 49.3327 78.8011 49.1875 78.5809 49.1095C78.875 49.1889 79.114 49.3287 79.3234 49.4953Z" fill="white"/>
<path d="M80.4607 49.8088C81.3024 50.4364 81.3867 50.9884 81.6188 51.4976C80.4171 51.0309 80.0778 50.0839 79.3274 49.502C79.9611 49.8891 80.5518 50.3111 80.4607 49.8088Z" fill="white"/>
<path d="M105.277 70.9429C105.175 70.7118 104.843 70.2175 105.008 70.0819C105.351 70.579 105.692 71.0868 106 71.6148C106.264 72.3146 105.516 71.2197 105.271 70.9469L105.277 70.9429Z" fill="white"/>
<path d="M107.617 77.2548C108.192 78.5632 108.392 77.6487 108.573 78.3619L107.857 78.5992C107.781 78.152 107.707 77.694 107.613 77.2481L107.617 77.2548Z" fill="white"/>
<path d="M103.857 78.2762L103.736 77.892C103.799 78.0277 103.858 78.1566 103.918 78.3031L103.846 78.2735L103.857 78.2762Z" fill="white"/>
<path d="M110.965 83.3738C111.137 82.9603 111.261 82.5574 111.405 82.1425C111.657 83.3702 110.98 83.6115 110.965 83.3738Z" fill="white"/>
<path d="M113.001 88.5991L113.051 87.6926C113.184 88.5992 113.325 89.491 113.364 90.4083C113.265 89.8012 113.155 89.1914 113.001 88.5991Z" fill="white"/>
<path d="M113.56 95.3667L113.76 95.5937C113.758 96.2155 113.648 96.8386 113.601 97.4604C113.593 96.762 113.638 96.0597 113.56 95.3667Z" fill="white"/>
<path d="M84.7899 158.566C84.4205 158.604 84.4638 157.976 84.6012 157.245C84.7842 156.515 85.115 155.696 85.1542 155.289C85.8185 156.078 84.1325 157.271 84.7939 158.572L84.7899 158.566Z" fill="white"/>
<path d="M103.581 199.488C102.838 199.057 102.119 198.602 101.39 198.163C103.271 198.834 101.867 198.425 103.581 199.488Z" fill="white"/>
<path d="M80.2091 68.5836C80.197 68.6547 80.2184 68.7514 80.2144 68.836C80.1178 68.6292 80.0816 68.5231 80.2091 68.5836Z" fill="white"/>
<path d="M80.7407 71.7251C80.502 70.946 80.2408 69.6875 80.2171 68.8253C80.5713 69.4621 81.4809 71.2997 80.7407 71.7251Z" fill="white"/>
<path d="M81.4571 68L81.568 69.0839C81.1492 68.5679 81.5629 68.5574 81.4571 68Z" fill="white"/>
<path d="M80.8363 68.6094L80.5207 68.6616L80.6271 68.0318L80.8363 68.6094Z" fill="white"/>
<path d="M42.8263 34.5395C42.8531 34.7061 42.8302 34.8659 42.6971 35.0095L42.8263 34.5395Z" fill="white"/>
<path d="M41.4658 32.1779C41.3074 32.0354 41.188 31.9427 41.0806 31.8701C41.2175 31.9159 41.3088 32.0072 41.4658 32.1779Z" fill="white"/>
<path d="M44.7221 35.494L44.3435 35.3193C44.4791 35.3475 44.6134 35.404 44.7221 35.494Z" fill="white"/>
<path d="M66.1499 50.0592C66.2772 50.485 66.3925 50.8906 66.4783 51.1861C65.7869 50.8245 66.0933 50.4217 66.1499 50.0592Z" fill="white"/>
<path d="M45.4969 35.751L45.6743 35.5442C45.7481 35.6826 45.7682 35.8075 45.4969 35.751Z" fill="white"/>
<path d="M42.929 28.2517C42.8725 28.386 42.8013 28.4652 42.7207 28.5135C42.6965 28.4732 42.6589 28.441 42.6348 28.4007L42.9222 28.2558L42.929 28.2517Z" fill="white"/>
<path d="M46.3872 35.9112L46.6275 36.2055C46.4475 36.149 46.3737 36.0563 46.3872 35.9112Z" fill="white"/>
<path d="M48.6858 37.0808C48.7904 37.2555 48.887 37.4624 48.946 37.7283C48.66 37.5254 48.5756 37.2473 48.6858 37.0808Z" fill="white"/>
<path d="M41.0295 31.8459C41.0295 31.8459 41.0663 31.8609 41.0813 31.8705C41.0595 31.865 41.0514 31.8514 41.0295 31.8459Z" fill="white"/>
<path d="M45.8705 30.2046C45.7309 30.0783 45.5993 29.9654 45.4476 29.819C45.6813 29.8889 45.8128 30.0475 45.8705 30.2046Z" fill="white"/>
<path d="M66.1498 50.0592C66.1163 49.9423 66.0787 49.8187 66.0412 49.6952C66.1512 49.8027 66.1606 49.9249 66.1498 50.0592Z" fill="white"/>
<path d="M78.7049 66.2258C78.5735 65.9303 78.7065 65.7867 78.8476 65.6565C78.8421 65.8606 78.8071 66.0459 78.7049 66.2258Z" fill="white"/>
<path d="M101.342 30.1008L101.45 30.0364C101.415 30.0847 101.377 30.0981 101.342 30.1008Z" fill="white"/>
<path d="M89.8311 33.8497C89.7612 33.8094 89.6914 33.7691 89.6297 33.6965C89.7143 33.6093 89.7989 33.7047 89.8311 33.8497Z" fill="white"/>
<path d="M78.8845 41.268C79.7415 40.9005 80.6772 41.563 81.4495 41.5567L81.1676 41.2692L81.9598 41.4791L81.9158 41.0399C83.2036 41.1628 84.7269 40.5055 85.2798 41.1693L85.0412 40.4815C85.5084 40.6215 85.9798 40.7224 86.4632 40.8435L85.628 40.4859C86.3722 40.2956 87.3351 40.2571 88.153 40.2508C88.9682 40.2096 89.6531 40.21 89.8156 40.1765L89.6223 39.9454C89.84 39.7602 90.0682 39.8973 90.3409 39.9256L90.0617 39.5817C91.202 39.4278 91.8616 39.0051 92.5668 38.6738C93.2721 38.3425 93.9948 38.0098 95.2747 37.7996C95.9115 37.491 94.8638 37.7994 94.7914 37.5872C95.0548 37.1737 95.9936 37.1862 96.2406 37.2938C95.8393 36.7765 94.8976 37.277 95.4997 36.5601C96.1402 36.6693 94.9479 36.1422 95.9338 35.9439L96.57 36.5486C97.047 36.2172 96.4629 35.9281 97.3078 35.6774C98.3822 35.6269 96.4651 36.9676 98.05 36.4742C98.8251 36.1375 98.9242 34.1244 100.505 33.8526C101.525 32.9037 99.3464 33.0771 101.059 32.4159C100.644 32.4547 100.221 32.48 99.7926 32.4811C99.9566 32.1454 99.6251 31.8968 100.381 31.681C100.73 31.8369 101.343 31.9447 101.734 31.7743C99.9849 32.0554 102.568 30.2881 100.841 30.3463L101.349 30.0968C101.272 30.1061 101.219 30.047 101.22 29.9731L101.846 29.5706C101.353 29.6469 100.377 30.1043 100.53 29.355L101.381 28.7175C100.916 28.4756 101.15 28.1346 100.922 27.8605C99.8889 28.0869 98.9124 28.3617 97.8957 28.5237C98.1172 28.7104 98.5859 28.6852 98.5603 28.9927C97.9315 29.543 97.7586 28.8432 97.2318 29.4876L97.6843 29.6637C97.5715 29.567 97.46 29.579 97.5917 29.4636C97.7329 29.1507 97.9544 29.3375 98.0537 29.5337C98.0051 30.0467 97.1737 30.1067 96.8434 29.9212C95.9689 30.3813 96.98 30.7431 96.8348 30.9579C96.0629 30.462 95.274 31.5829 94.5716 31.4926L95.1114 31.7991C94.6006 32.6529 93.7506 32.3772 93.2819 32.3568L93.5732 32.6752C92.5363 32.9406 92.3623 34.3869 91.1851 33.23L91.3676 33.4584C90.9713 33.6959 90.3734 34.1455 89.8592 33.8511C89.882 34.0109 89.8644 34.2405 89.6951 34.3237C89.3355 33.8454 88.9726 34.3368 88.3332 34.5647C88.7938 34.6174 88.7921 35.3305 89.2997 35.4006C88.4142 36.3147 88.1988 34.8279 87.3553 35.0047C86.9052 35.4571 87.8803 35.3018 88.0561 35.5342C86.6809 35.418 85.5194 37.593 84.4739 36.3207C84.6472 36.1529 84.8273 35.9811 84.9966 35.8066C84.4246 35.5834 84.1345 35.602 84.211 35.7296C84.3749 35.6679 84.4514 35.7956 84.5305 35.9124C82.9762 36.8074 81.8987 35.1617 80.3044 35.5329C80.4399 35.7894 80.6802 35.8554 80.7043 36.0783C79.9588 36.3881 79.9072 34.794 78.7171 35.3521L78.9613 35.653C78.5651 35.8449 78.251 35.4123 78.3034 35.3169C78.3031 35.9105 77.6572 35.9142 76.9091 35.9608C76.1557 35.9833 75.3069 36.0446 74.8566 36.8166C74.2633 36.177 72.5822 35.5503 72.0328 35.8978C71.2347 36.577 72.6608 36.7174 72.3382 37.3672C71.7325 37.3468 71.467 36.6751 70.5617 36.8251C70.6024 36.1617 72.3875 35.6214 70.7748 35.1088L70.5195 35.4445C70.6927 35.4137 70.9399 35.2929 71.1695 35.4018C71.6165 35.8278 70.8537 35.8193 70.73 35.9938L68.9722 35.6505C68.9108 34.9387 69.9488 35.193 70.0725 35.0185C68.6811 35.0581 66.8663 35.8992 65.6257 35.2458L65.7102 35.5239C64.1367 34.6958 64.5519 36.6836 63.3963 35.3494C62.6711 35.4189 63.5329 36.1257 62.4599 36.011C62.1578 35.9638 62.3822 35.7289 62.4467 35.6538C61.1926 35.1911 61.7561 36.2228 60.6755 35.3641L60.7986 36.1485C59.448 35.3876 58.2441 33.7902 56.9629 33.8459C56.9089 34.4261 57.6757 34.5326 57.8889 35.0255C56.454 33.667 53.9505 33.9988 52.5718 33.0539C53.1454 32.701 52.1602 31.7578 53.2145 31.628C53.2745 32.4137 53.8441 32.0541 54.3409 32.2585C53.9215 30.4922 50.6733 32.1102 50.8057 30.6706L50.4321 31.1592C50.224 31.01 49.7757 30.4296 50.2243 30.3708L48.4933 30.2396C48.9321 30.8348 49.8621 32.1581 50.4251 31.6655C50.7228 32.3909 49.6393 31.8625 49.8578 32.6537C49.0218 31.411 49.0613 32.848 47.9725 32.2954C48.7316 31.6579 47.1715 30.8674 47.3503 30.4955C46.938 30.5235 46.2332 29.896 46.0145 29.5158C45.3955 29.2294 43.698 29.3521 42.7703 28.7029C43.0669 29.0912 43.5689 29.6394 43.339 30.1241C42.931 29.6565 42.3751 29.4602 42.0619 30.0039C43.4899 31.7317 43.1288 28.8898 44.5181 30.1569C44.6923 30.9655 45.0923 31.2827 45.8844 31.7665C45.3632 32.0241 45.4853 32.2431 45.1654 32.6539C44.5849 30.8929 42.4666 31.5781 41.366 30.3661C40.9567 29.7441 41.7105 29.0368 40.5196 28.3902L41.7632 28.3935C40.4364 28.3122 41.6359 27.8764 40.7485 27.3401L40.9456 27.9432C40.5521 27.8503 40.3225 27.7414 40.2004 27.5681L38.1554 32.0163C38.2158 32.1171 38.2856 32.2487 38.3338 32.4206C38.3044 32.2192 38.2642 32.015 38.2455 31.8163L40.0996 27.7655C40.1103 27.8595 40.1277 27.9495 40.1532 28.0529C40.1035 28.0461 40.0498 28.0327 39.9893 28.0233L38.3692 31.5504C38.6915 31.6312 39.1184 31.8409 38.9504 32.1698C39.113 32.045 39.203 31.9363 39.2608 31.8195C39.2647 31.9632 39.3708 32.1096 39.7454 32.2777C39.5695 32.0909 39.4017 32.0546 39.4918 31.8545C40.7953 32.7349 40.1877 31.3096 41.0214 31.8325C40.9692 31.6082 41.3157 31.5466 41.6702 31.6354C41.0949 32.6558 42.7072 33.7162 42.8196 34.5436C42.825 34.5221 43.7175 35.5848 43.7175 35.5848C43.539 35.3632 43.9473 35.2371 44.3368 35.3233L44.2817 35.2924C44.7356 35.349 44.5013 33.9374 45.4087 34.8726L45.7911 35.5107C45.7133 35.4113 45.9027 35.3161 46.0048 35.2731L46.4248 35.8978C47.8875 35.5051 47.7656 37.4497 49.0736 37.6518C48.7312 37.5375 48.3244 37.1787 48.7046 37.0057C48.9759 37.0165 49.2067 37.3255 49.271 37.57L49.2953 37.4277C49.8201 38.0444 50.3354 38.6758 50.8401 39.3046C50.9021 38.8749 49.8402 38.1236 50.5668 38.0716C51.1511 37.8127 51.3951 38.6616 51.7172 38.925C51.4955 39.1492 50.7046 38.9567 51.2603 39.5184C51.4229 39.4392 52.2111 39.5968 52.0555 39.2153C52.5319 39.934 53.3802 40.7402 53.6323 41.6026C53.8901 41.6215 53.6767 41.3112 53.6056 41.2077L53.5103 41.2466C53.215 40.8301 53.9135 40.5485 52.9548 40.274C53.4736 39.3879 54.2263 40.8266 54.9849 41.1937L54.3141 39.8611C56.9704 40.0129 58.4931 43.0717 60.1805 44.4706C59.4795 44.3064 59.2462 43.7341 58.8161 44.4027C59.6347 45.5554 59.6053 45.3083 60.5515 46.2932L60.4871 46.1857C61.2848 46.3285 61.5004 47.5413 62.3143 47.3C62.3724 46.7723 61.2912 46.9637 61.8502 46.2818C62.2663 46.6715 62.6959 47.0531 63.1026 47.4576C63.0546 46.692 61.8435 46.2858 61.4274 45.7592C61.0381 45.4904 62.0717 46.4686 61.525 46.7597C60.3343 45.7022 60.4004 45.0509 60.3084 43.8918C60.3115 43.1048 61.2539 43.8547 61.4928 44.0402C61.7137 45.4142 62.5792 46.6757 64.036 47.446L65.1425 47.5406C65.3193 48.521 64.2526 49.1785 65.3789 50.0373L65.4075 49.3994C65.7647 49.4775 65.958 49.5716 66.0614 49.6831C65.8724 49.0021 65.67 48.2378 65.5212 47.5784C66.8146 47.4058 66.9088 49.5586 67.5825 50.5609C67.6282 50.4239 67.3611 50.1001 67.4593 49.8221C68.9172 50.9295 69.3176 53.1363 70.0812 54.258C70.7983 54.4035 69.558 53.2022 70.2323 52.9716C70.5287 53.6795 71.4928 53.9324 71.1581 54.4708C71.6192 53.6559 72.299 55.7043 72.0192 54.11C74.0274 55.8918 75.1526 58.7597 76.0874 61.2487C76.2473 60.9977 76.4354 60.885 76.6462 60.8864C76.1564 60.1301 75.6468 58.8835 75.8553 58.1195C76.5764 58.3629 76.1406 59.6466 76.4562 59.64C76.4698 59.2667 76.1357 58.7548 76.4957 58.5025C77.3403 58.8911 77.0014 59.6511 77.2295 60.1535L76.875 60.019C77.2702 61.7906 76.0415 61.614 77.1541 63.0287C77.9329 63.338 77.545 62.8127 78.1133 62.4813C78.0875 62.9715 79.3521 63.8934 78.9247 64.5969L78.3813 63.6445C78.5595 64.4141 78.8962 65.0522 78.8811 65.6364C78.9886 65.5263 79.1042 65.4297 79.0909 65.2551C79.1335 65.9051 79.4917 66.5942 79.2027 67.0413L79.932 66.9329C79.497 66.7097 79.0234 65.7519 79.3177 65.4204C79.9275 65.2649 80.0142 66.4454 80.2396 66.8673C79.5893 64.8377 80.5888 64.3117 79.3298 62.866L79.2745 63.2461C78.312 62.4626 78.4605 61.0499 77.9439 60.1726C78.2097 60.342 78.4636 60.2629 78.4919 60.0816C76.8516 58.4718 75.9677 56.418 74.1126 54.6631L74.1843 53.625L73.7437 53.9256C72.7731 53.1287 74.1483 53.2449 73.5912 52.6658C73.7912 52.8928 73.6905 52.9076 73.6273 53.0459C73.1486 51.5616 72.7344 52.7593 72.3318 52.042C72.1542 52.7053 73.1866 53.3464 72.378 53.5663C71.9343 52.0794 70.1717 50.7073 70.9632 49.6669C68.7643 48.0998 66.9299 45.2826 65.3044 43.7279C64.923 43.7009 65.3311 43.9858 65.1283 44.0434C64.9462 42.9018 62.5465 42.5232 62.9577 42.0211C62.5159 41.8933 62.0659 42.163 61.8671 42.2273C61.6351 41.6269 61.207 41.0801 60.6942 40.5749L60.9934 41.0437L60.894 41.0759L60.4714 40.4163C59.2365 39.1479 57.4791 38.0739 56.5734 36.5626C57.0805 37.4546 55.9244 37.0793 56.1323 37.5481C56.0793 36.2104 54.4643 35.0694 53.0694 34.2803C52.9538 34.4683 52.7563 34.5501 52.8139 34.7986L52.2772 33.9334L52.2394 34.2208C50.7505 33.4881 49.8463 31.5376 48.6377 31.3946C49.1505 31.8542 49.0349 32.0422 48.9098 32.3819C47.9163 31.7448 46.9658 31.1641 45.9295 30.1966C45.9577 30.2893 45.9644 30.3766 45.924 30.4464C45.5615 30.3442 45.3133 29.8995 45.0556 29.6066L44.7518 30.0442C44.2525 29.4853 43.3273 29.282 42.7798 28.5055C42.2827 28.8034 41.538 27.5607 40.6157 27.0271L38.0477 32.6287C38.245 32.7295 38.382 32.7752 38.5458 32.8049C38.8505 33.0696 37.997 31.9195 38.9825 32.3606C38.6999 33.4885 40.2527 32.8957 39.8828 34.076L40.9115 33.9799L40.891 34.6312C42.0263 33.8139 41.8414 35.5315 43.0769 35.5671C43.0622 35.4207 42.9575 35.3373 43.0408 35.2783C43.3576 35.5175 44.1579 35.8778 43.4125 35.9594C44.0006 36.1638 45.9394 37.0834 45.2334 36.1645C45.1903 36.519 44.4533 35.9747 44.1391 35.7247C44.3516 35.2414 45.1719 35.7266 45.571 35.2501C45.5831 35.3159 45.6663 35.4395 45.7307 35.547L45.9591 35.2731C46.8853 36.1788 48.1383 36.1217 48.7449 37.0728C48.8389 36.9251 49.0659 36.8621 49.4459 37.0087L49.2844 37.6533L50.4889 37.9722L50.1846 36.8856C51.5396 37.0595 52.1836 38.3625 53.2416 38.7875C53.7766 37.7913 55.2784 39.7031 56.4472 38.957L55.6551 38.4731C57.4356 39.0677 57.8549 38.4877 59.4916 39.1775C57.9673 39.2694 58.0131 39.0411 55.707 39.4737C57.9242 39.4869 59.2692 40.8629 61.3576 40.5698C61.2692 40.2851 60.8046 40.0431 61.3312 39.8554C61.6209 40.476 63.179 40.1357 62.7865 40.7452C63.4339 40.622 63.6303 40.0204 64.0171 39.9803L65.9652 41.0678L65.9196 40.9308C67.7705 40.3785 69.3617 40.7943 70.9932 41.2773C72.6206 41.7535 74.2896 42.3144 76.1015 41.9864L76.0359 41.6331L76.9367 42.1614C76.2251 41.8118 77.2472 41.7197 77.293 41.4001L79.6241 42.1212C79.6632 41.8056 79.501 41.1085 78.9436 41.26L78.8845 41.268ZM49.4728 36.947L48.9733 36.7533C48.8645 36.7546 48.7504 36.7317 48.6551 36.6336L48.9733 36.7533C49.2607 36.7454 49.5254 36.532 49.4728 36.947ZM69.7831 48.9773C69.7467 49.3735 69.4555 48.781 69.2971 48.6843L69.8434 49.352C70.0583 49.3145 69.8341 49.0928 69.7724 48.9746L69.7831 48.9773ZM50.6044 32.8179L50.9995 32.4716L51.2571 32.9015L50.6044 32.8179ZM57.669 34.5366L57.0165 34.1333L57.0917 34.0609L57.7402 34.4574L57.669 34.5366ZM65.1441 39.4692C65.0998 39.441 65.0555 39.4128 65.0166 39.3631C65.0568 39.3846 65.1092 39.4262 65.1441 39.4692C65.6797 39.8603 66.0091 39.1151 66.3767 39.9265C65.7197 40.5211 65.4313 39.781 65.1441 39.4692ZM52.1897 36.9256C51.9682 36.7844 51.8608 36.7118 51.6741 36.705C51.7317 36.9992 52.1209 37.4963 51.7381 37.4974C51.5664 37.1347 50.7568 36.8348 50.8644 36.4051C51.459 37.0622 52.2842 36.0016 52.1897 36.9256ZM42.887 28.989L42.7003 28.9366L43.1351 29.5707L42.887 28.989ZM45.4524 30.939C45.4937 31.6173 46.3852 32.0233 46.894 32.4762C47.297 32.1433 46.9913 31.3132 46.2824 30.9529C45.6946 30.1092 45.6026 31.4333 45.4524 30.939ZM57.975 37.3933L57.8691 36.9729L58.0545 36.9622L57.3912 36.5563C58.4403 36.2197 58.9097 37.3535 59.3649 37.6102C58.9419 37.4985 57.9836 36.3108 57.975 37.3933ZM51.0856 34.7023C51.476 35.3539 52.2464 36.3803 51.9306 36.6609C52.3835 36.0608 51.7581 35.2305 51.4963 35.0679C51.3231 35.0073 51.2345 34.9052 51.0856 34.7023ZM50.2899 35.873C49.6618 35.0535 49.795 34.7272 49.5296 33.7359C50.5246 33.9795 50.2259 34.9436 49.9169 35.2201C50.2939 35.8797 50.45 35.3936 50.7964 35.5147L50.2899 35.873ZM50.5718 33.5404L50.1757 33.4126C49.6076 33.4244 49.0728 34.101 48.9619 33.0171L50.1757 33.4126C50.3087 33.406 50.4376 33.4383 50.5718 33.5404ZM57.4172 38.2296L57.2388 37.7797C57.5463 38.0336 57.5166 38.1518 57.4172 38.2296L57.5621 38.6084C56.6933 38.3166 57.2103 38.3719 57.4172 38.2296ZM52.0981 34.8076L51.1597 34.1101C51.0239 34.4471 51.7302 34.6812 52.0981 34.8076ZM56.818 38.6161C56.3884 38.3715 55.2983 37.7101 55.4688 37.7814C55.7899 37.5251 56.696 38.2602 56.818 38.6161ZM74.5976 56.9195C74.4661 56.7153 74.3413 56.5071 74.1963 56.3109L74.8329 56.2764L74.6016 56.9262L74.5976 56.9195ZM68.7562 50.7065L69.0785 50.6503L69.3429 50.9848L68.7602 50.7132L68.7562 50.7065ZM63.0218 45.388C63.1292 45.3236 63.2045 45.2054 63.2328 45.0698C63.1684 44.9623 63.1375 44.8347 63.1712 44.7233C63.2571 44.7905 63.2678 44.9302 63.2328 45.0698C63.3924 45.3667 63.7912 45.6207 64.0624 45.6316C64.1391 45.3483 63.7283 45.0741 63.7123 44.8189C64.6847 44.8114 64.6296 47.3093 65.49 45.6525C65.5744 46.0219 66.0305 47.0723 65.5484 47.06C65.0088 46.4339 63.7173 45.528 63.0218 45.388C62.9344 45.4403 62.8297 45.4483 62.7115 45.3731C62.7868 45.3462 62.8969 45.3624 63.0218 45.388ZM54.4782 39.2515C54.2621 39.0432 54.187 38.933 54.1736 38.8497C54.0421 38.5999 53.9926 38.3192 54.1981 38.1595C54.5793 38.6888 54.1361 38.6348 54.1736 38.8497C54.2554 39.0015 54.3547 39.152 54.4782 39.2515ZM52.8873 38.2877L53.4845 39.1166L53.3089 38.5189L54.075 39.9496C53.1901 39.7678 52.7165 38.7644 52.8806 38.2917L52.8873 38.2877ZM52.4132 38.3801L52.49 37.9141L52.4924 38.4513L52.4132 38.3801L52.397 38.4902L51.1889 37.3884L52.4172 38.3868L52.4132 38.3801ZM39.8982 30.3237C40.5754 29.6257 40.0881 29.2239 39.6303 28.8409L38.7577 30.7515C39.045 31.0176 39.3578 31.2958 39.3361 31.61C39.621 31.2019 40.5305 30.7847 39.1073 30.0856C40.5563 30.2489 39.4236 31.3294 40.7266 30.5941C40.1023 30.3749 39.5708 29.6709 39.4795 29.5795L40.2019 29.8861C40.2156 29.3301 39.8369 29.338 39.4286 29.3727L39.0347 30.2387C39.3785 30.1878 39.7264 30.098 39.9049 30.3197L39.8982 30.3237ZM47.858 32.8661L48.8248 33.1997L47.9373 32.8004L47.858 32.8661ZM72.568 37.0195C72.5199 36.6649 73.839 36.0935 74.126 36.7705C73.4706 36.8346 72.7521 36.7631 72.568 37.0195ZM83.316 36.8868L82.1611 36.7116C82.3093 35.8925 83.167 36.6383 83.6895 36.4438C83.915 36.82 83.4732 36.6008 83.3227 36.8828L83.316 36.8868ZM90.6197 35.6685L91.0052 35.7023L90.4482 35.0319L90.6197 35.6685ZM89.8977 34.7684C90.0362 34.3749 89.256 34.3678 89.0934 34.447L89.8977 34.7684ZM95.8619 32.1983L95.4602 32.4117L96.0992 32.9143L95.8686 32.1943L95.8619 32.1983ZM95.4705 33.2363C95.1834 32.7875 95.0212 32.1818 94.1278 32.8085C94.2551 33.3256 94.5358 33.2304 94.3514 33.9434C94.7315 33.953 94.9371 33.6563 95.0876 33.557C94.8311 33.5555 94.6322 33.8482 94.4578 33.5419C94.7789 33.2399 95.1764 33.1569 95.4705 33.2363C95.5631 33.3907 95.6785 33.5224 95.8383 33.5453C95.778 33.3989 95.6397 33.2901 95.4705 33.2363ZM91.9241 34.9507C91.8019 35.0514 91.7038 35.1467 91.6661 35.2514L91.5695 35.1359C91.6516 34.8767 91.7899 34.8942 91.9241 34.9507C92.0598 34.842 92.217 34.7387 92.385 34.638C92.3744 34.1787 91.5862 34.0669 91.3325 33.872C91.7004 33.9071 92.1139 34.2619 92.474 33.8726C92.3814 33.7638 92.4164 33.6698 92.1343 33.7475C92.3317 33.6657 92.5171 33.5637 92.7065 33.4685C93.5779 33.8409 92.9841 34.2516 92.3742 34.6354C92.3782 34.7334 92.3553 34.8475 92.2612 34.9952C92.1698 35.0865 92.041 35.0085 91.9174 34.9547L91.9241 34.9507ZM97.2145 34.2269L96.8291 34.2388C96.5901 34.1447 96.6372 33.9339 96.5312 33.8331C96.9368 33.7178 97.5612 33.8001 97.2145 34.2269ZM75.9706 38.0205C76.2097 37.8863 75.6634 37.3555 75.1288 37.4842L75.426 36.8222C75.4352 37.2641 76.5069 37.2244 76.6264 37.2714C76.8141 37.8893 76.4006 37.6259 75.9773 38.0164L75.9706 38.0205ZM51.1314 34.3371C51.1614 33.4883 49.7083 33.5923 49.4747 33.2941C50.2107 33.3186 51.8168 33.5612 51.1314 34.3371ZM48.7357 34.0108C48.3759 33.8978 48.2523 33.9354 48.4123 33.5473C48.2835 33.3324 47.9383 33.4571 47.8122 33.2314C48.6234 33.0922 48.38 33.7219 48.7357 34.0108C48.8257 34.0391 48.9344 34.0834 49.062 34.1439C48.9062 34.1277 48.8109 34.0753 48.7357 34.0108ZM63.1052 37.3315L63.5158 38.0166L64.3001 38.0761C63.8987 37.8328 63.504 37.5855 63.1052 37.3315ZM71.4347 39.3785C71.3932 39.0199 72.3024 39.0594 72.4849 39.2421C72.4529 38.7774 71.8405 38.8066 71.3571 38.7312C71.294 38.6868 71.2 38.6519 71.0415 38.6464C71.1328 38.6921 71.2362 38.7123 71.3571 38.7312C71.5316 38.8548 71.3905 39.0763 71.3823 39.2455L71.1312 39.3596L71.7972 39.5264L71.4347 39.3785ZM86.6265 39.3032C87.1196 38.8616 87.2028 38.9852 87.5976 39.0499C87.5102 39.2392 87.0213 39.3679 86.6265 39.3032ZM66.8645 39.3694C67.81 39.241 66.509 38.6239 67.1322 38.4604L66.6474 38.4588C67.4736 38.055 67.1413 39.0392 67.7081 38.9643L67.3293 39.0178C66.992 39.4299 67.8596 39.3847 67.8903 39.7406C67.4404 39.8733 66.4857 39.4229 66.8645 39.3694ZM87.545 39.4649C88.3887 38.8771 88.3882 39.7903 88.9697 39.7705C88.302 40.3167 88.2595 39.484 87.545 39.4649ZM72.6061 41.1962L72.5456 41.2781L73.2882 41.5726L73.3554 41.4867L72.6061 41.1962Z" fill="white"/>
<path d="M87.839 34.6692C88.0351 34.57 88.1708 34.5526 88.2943 34.5607C88.1506 34.6103 88.0028 34.6532 87.839 34.6692Z" fill="white"/>
<path d="M47.5988 30.3466C47.5437 30.4526 47.4483 30.4915 47.3435 30.4995C47.3772 30.4337 47.447 30.3828 47.5988 30.3466Z" fill="white"/>
<path d="M46.0655 29.54L46.0038 29.5131C46.0038 29.5131 45.9796 29.4728 45.9675 29.4526L46.0682 29.5292L46.0655 29.54Z" fill="white"/>
<path d="M77.9772 65.9864C77.5955 66.5529 77.7625 65.7043 77.6337 65.4437C77.7625 65.7043 78.1587 65.6494 77.9772 65.9864Z" fill="white"/>
<path d="M77.8106 63.4844C77.7406 63.718 77.7512 63.9947 77.8478 64.2928C77.7471 64.1249 77.7029 63.914 77.8106 63.4844Z" fill="white"/>
<path d="M78.4448 65.3044C78.1469 64.9443 77.9416 64.6018 77.841 64.2969C77.994 64.5521 78.3162 64.6785 78.4448 65.3044Z" fill="white"/>
<path d="M74.3363 58.1898C74.2622 58.6907 74.8287 59.1638 74.8287 59.1638C73.6689 58.0968 74.4725 59.7881 74.2991 60.0472C73.8926 59.1861 74.2191 58.9539 74.3296 58.1939L74.3363 58.1898Z" fill="white"/>
<path d="M73.2575 56.4353C73.3582 56.5576 73.4615 56.6691 73.5824 56.7337C73.4159 56.6691 73.3233 56.5603 73.2575 56.4353Z" fill="white"/>
<path d="M72.6278 56.1919C72.3635 55.7204 72.5544 55.323 72.6338 54.9376C73.2635 55.2723 73.0308 55.9961 73.2575 56.4353C73.0173 56.1411 72.8173 55.8227 72.6278 56.1919Z" fill="white"/>
<path d="M59.762 46.0269C59.8264 46.1344 60.0547 46.3171 59.9203 46.4889L59.2289 45.9447C59.0357 45.6223 59.5875 45.9489 59.762 46.0269Z" fill="white"/>
<path d="M57.8713 43.1613C57.3303 42.7004 57.2803 43.3786 57.0763 43.0534L57.5628 42.4789L57.878 43.1573L57.8713 43.1613Z" fill="white"/>
<path d="M60.5224 40.3948L60.6391 40.5896C60.5854 40.5305 60.5317 40.4714 60.4673 40.4096L60.5224 40.3948Z" fill="white"/>
<path d="M54.6905 41.7079L54.5987 42.6667C54.243 42.1495 54.6301 41.6071 54.6905 41.7079Z" fill="white"/>
<path d="M52.1622 40.612L52.354 41.054L51.4292 40.1201L52.1622 40.612Z" fill="white"/>
<path d="M49.6937 38.4579L49.4962 38.5397L48.856 37.8827L49.6937 38.4579Z" fill="white"/>
<path d="M61.1084 34.5478C61.1174 35.2636 59.7586 34.7176 59.3167 34.8181C59.767 34.0005 60.3841 35.3196 61.1084 34.5478Z" fill="white"/>
<path d="M86.6998 35.2058L85.3474 35.2494C86.3334 34.8229 85.6321 35.2066 86.6998 35.2058Z" fill="white"/>
</g>
<defs>
<clipPath id="clip0_89_535">
<rect width="97.7134" height="197.933" fill="white" transform="translate(0.785156 50.8696) rotate(-30.9337)"/>
</clipPath>
</defs>
</svg>
