<svg width="524" height="431" viewBox="0 0 524 431" fill="none" xmlns="http://www.w3.org/2000/svg">
<path d="M62.4566 78.8251L1.15629 4.52071C-0.334117 2.72009 0.962835 0 3.32426 0H515.985C519.391 0 521.985 3.08404 521.308 6.41711L517.669 24.7873C517.32 26.5304 516.546 28.1395 515.423 29.5187L221.369 386.406C219.917 388.168 221.175 390.793 223.478 390.793H420.637C423.947 390.793 427.083 389.318 429.193 386.789L457.588 352.845C458.711 351.504 460.782 351.524 461.885 352.845L522.663 426.518C524.134 428.318 522.856 431 520.514 431H7.64066C4.21467 431 1.64021 427.897 2.31766 424.583L5.91788 406.768C6.26629 405.044 7.04055 403.435 8.14384 402.094L303.786 44.6133C305.238 42.851 303.98 40.2267 301.676 40.2267H105.853C102.523 40.2267 99.3683 41.6825 97.2585 44.211L66.7923 78.8443C65.6503 80.1852 63.5792 80.166 62.4759 78.8251H62.4566Z" fill="#FD780F"/>
</svg>
