<svg width="168" height="46" viewBox="0 0 168 46" fill="none" xmlns="http://www.w3.org/2000/svg">
<path d="M0 34.6488L12.5989 33.5466V19.1138L21.5453 18.3311V32.7638L39.0728 31.2304V38.6064L0 42.0248V34.6488ZM28.1154 9.87561L2.00671 12.1598V4.78385L37.0618 1.71692V26.3639L28.1154 27.1466V9.87561Z" fill="white"/>
<path d="M44.0273 4.77825L68.7652 2.61396V24.1941L55.3456 25.3682L53.3389 20.6868L52.9737 20.7187V25.5757L44.0273 26.3584V4.77825ZM48.4102 28.8132L57.3566 28.0305V36.2777L81.9098 34.1296V41.3676L48.4102 44.2984V28.8132ZM59.8188 17.7345V10.6346L52.9737 11.2335V18.3334L59.8188 17.7345ZM72.465 1.6907L81.4114 0.907994V29.4975L72.465 30.2802V1.6907Z" fill="white"/>
<path d="M85.583 7.84512L92.0629 7.27821V2.83536L99.6385 2.17258V6.61542L106.075 6.05226V13.2902L85.583 15.1305V7.84512ZM88.9131 36.2123C87.1772 34.3023 86.3134 31.5612 86.3134 27.9854C86.3134 24.4095 87.1814 21.4695 88.9131 19.2561C90.6491 17.0424 93.034 15.8029 96.0806 15.5363C99.1272 15.2698 101.465 16.0962 103.201 18.0061C104.937 19.9161 105.805 22.6741 105.805 26.2801C105.805 29.8861 104.937 32.7485 103.201 34.9623C101.469 37.1756 99.0928 38.4144 96.0806 38.6779C93.0684 38.9415 90.6491 38.1222 88.9131 36.2123ZM97.7221 30.5631C98.1174 29.6442 98.315 28.4364 98.315 26.9397C98.315 25.4429 98.1174 24.2222 97.7221 23.3726C97.3267 22.5229 96.7767 22.1267 96.0806 22.1876C95.3845 22.2486 94.8344 22.741 94.4391 23.6598C94.0438 24.5786 93.8461 25.8037 93.8461 27.3307C93.8461 28.8576 94.0438 30.0006 94.4391 30.8503C94.8344 31.7 95.3802 32.0965 96.0806 32.0352C96.781 31.974 97.3267 31.4819 97.7221 30.5631ZM107.352 2.27418L114.975 1.60727V14.9876L116.848 14.8236V1.44335L124.471 0.776436V41.7369L116.848 42.4038V22.1996L114.975 22.3635V42.5677L107.352 43.2346V2.27418Z" fill="white"/>
<path d="M158.594 18.9224L152.617 19.4454V21.326L143.67 22.1087V10.195L129.658 11.4209V4.77825L152.617 2.7696V4.87455L158.594 4.35162V1.64709L167.54 0.864385V20.5207L158.594 21.3034V18.9224ZM134.359 24.7997L167.54 21.8967V34.5869L143.49 36.691V38.2956L168 36.1512V42.1081L134.543 45.0352V32.2544L158.598 30.1499V28.5453L134.363 30.6656V24.7994L134.359 24.7997ZM158.594 12.6464V10.632L152.617 11.1549V13.1693L158.594 12.6464Z" fill="white"/>
</svg>
