<svg width="700" height="310" viewBox="0 0 700 310" fill="none" xmlns="http://www.w3.org/2000/svg">
<g clip-path="url(#clip0_89_83)">
<path d="M550.288 205.562H564.663L566.438 185.214C563.219 182.821 560.882 179.876 559.405 176.38C557.927 172.884 557.376 168.98 557.762 164.668C558.258 158.989 560.265 154.004 563.792 149.714C567.32 145.435 572.214 142.115 578.476 139.744C584.737 137.384 592.09 136.204 600.512 136.204C608.934 136.204 616.066 137.384 621.92 139.744C627.773 142.104 632.083 145.435 634.861 149.714C637.639 153.993 638.775 158.978 638.279 164.668C637.893 169.058 636.625 173.006 634.464 176.535C632.304 180.064 629.338 183.064 625.568 185.523L623.816 205.562H638.19L636.746 222.104H548.833L550.277 205.562H550.288ZM612.142 173.557C615.956 171.396 618.028 168.44 618.359 164.668C618.69 160.897 617.135 157.919 613.696 155.724C610.257 153.53 605.395 152.438 599.09 152.438C592.784 152.438 587.735 153.53 583.91 155.724C580.085 157.919 578.013 160.897 577.682 164.668C577.351 168.44 578.905 171.396 582.345 173.557C585.784 175.719 590.657 176.789 596.951 176.789C603.246 176.789 608.305 175.708 612.131 173.557H612.142ZM603.587 205.562L604.734 192.515C600.732 192.857 597.668 193.033 595.551 193.033C592.2 193.033 589.025 192.824 586.049 192.416L584.902 205.562H603.598H603.587Z" fill="url(#paint0_linear_89_83)"/>
<path d="M291.354 99.2812C287.077 92.5318 285.534 82.485 286.702 69.1296C287.871 55.7743 291.178 45.7164 296.635 38.978C302.08 32.2287 309.598 28.854 319.189 28.854C328.78 28.854 335.68 32.2287 339.924 38.978C344.157 45.7274 345.69 55.7743 344.532 69.1296C343.364 82.485 340.068 92.5428 334.655 99.2812C329.243 106.031 321.735 109.405 312.156 109.405C302.576 109.405 295.643 106.031 291.376 99.2812H291.354ZM324.392 69.1296C325.77 53.3811 323.543 45.4958 317.734 45.4958C311.924 45.4958 308.209 53.3701 306.832 69.1296C305.454 84.8891 307.713 92.7634 313.6 92.7634C319.487 92.7634 323.014 84.8891 324.392 69.1296ZM355.545 28.854H375.674L367.583 121.426H347.454L355.545 28.854Z" fill="white"/>
<path d="M5.47874 118.261H45.9795L44.0504 140.351H29.2787L27.6693 158.779H46.2331L49.7717 118.261H91.7386L89.8095 140.351H73.5827L71.9732 158.779H85.5654L86.9433 142.987H98.926L101.252 116.364H126.981L121.37 180.571H95.641L97.085 164.04H88.1669L86.7008 180.858H44.3039L45.6378 165.65H44.326L37.4362 180.858H0L5.47874 118.25V118.261ZM14.5402 186.857H120.83L117.479 225.181H40.4236L40.0378 229.57H118.548L116.928 248.142H9.75591L13.1402 209.377H90.1953L90.5701 205.131H12.9307L14.5291 186.846L14.5402 186.857Z" fill="url(#paint1_linear_89_83)"/>
<path d="M505.753 209.554H471.866L473.31 193.011H561.224L559.78 209.554H525.992L523.578 237.191H503.35L505.764 209.554H505.753ZM481.92 146.262H560.794L557.145 187.971H537.115L539.32 162.794H480.476L481.92 146.251V146.262Z" fill="url(#paint2_linear_89_83)"/>
<path d="M233.546 210.072L258.835 176.888L260.323 159.838H242.244L243.688 143.295H299.964L298.52 159.838H280.441L278.953 176.888L298.442 210.072L282.139 220.351L267.378 194.258L248.042 220.351L233.535 210.072H233.546ZM308.816 140.924H328.945L320.853 233.496H300.724L308.816 140.924Z" fill="url(#paint3_linear_89_83)"/>
<path d="M401.403 138.884H453.159L451.715 155.427H420.088L416.406 197.555H450.403L448.959 214.098H394.833L401.414 138.884H401.403ZM463.334 136.524H483.463L480.839 166.521H489.162L487.718 183.064H479.395L475.438 228.368H455.309L463.345 136.513L463.334 136.524Z" fill="url(#paint4_linear_89_83)"/>
<path d="M312.718 183.053L337.389 161.68L338.811 145.446H358.94L357.518 161.68L368.145 172.874L368.619 167.426H383.203L383.501 164.04H367.891L369.093 150.277H384.702L385.143 145.248H405.272L400.984 194.258H380.855L382.001 181.211H375.938L377.724 183.064L365.246 195.394L346.219 175.774L323.036 195.394L312.718 183.064V183.053ZM330.731 209.664L331.712 198.47H351.841L350.86 209.664L359.293 217.781L369.137 209.664L370.118 198.47H390.247L389.266 209.664L403.762 224.762L390.666 237.092L378.011 223.218L360.979 237.092H354.2L339.594 223.218L324.513 237.092L313.578 224.762L330.709 209.664H330.731Z" fill="white"/>
<path d="M663.479 192.868C663.765 189.648 664.504 186.758 665.727 184.189C666.94 181.619 668.803 178.961 671.305 176.226L674.249 173.149C676.509 170.822 678.074 168.97 678.945 167.602C679.816 166.234 680.323 164.724 680.466 163.08C680.631 161.161 680.058 159.54 678.735 158.195C677.413 156.86 675.66 156.188 673.466 156.188C670.589 156.188 668.219 157.302 666.345 159.529C664.471 161.757 663.368 164.757 663.038 168.517H644.959C645.753 159.408 648.762 152.427 653.976 147.552C659.19 142.689 666.146 140.263 674.844 140.263C683.542 140.263 689.528 142.082 694.036 145.711C698.545 149.339 700.518 154.346 699.967 160.709C699.691 163.863 698.809 166.665 697.332 169.135C695.844 171.605 693.386 174.517 689.946 177.869C688.833 178.895 687.852 179.888 687.014 180.847C685.261 182.898 683.961 184.773 683.134 186.449C682.307 188.126 681.646 190.199 681.15 192.669C680.863 194.313 680.664 195.824 680.554 197.191H663.093L663.468 192.879L663.479 192.868ZM662.905 221.795C661.087 219.843 660.304 217.461 660.557 214.66C660.811 211.859 662.001 209.488 664.151 207.569C666.301 205.65 668.825 204.69 671.691 204.69C674.557 204.69 676.773 205.65 678.526 207.569C680.279 209.488 681.028 211.848 680.786 214.66C680.543 217.472 679.375 219.843 677.291 221.795C675.208 223.747 672.761 224.729 669.95 224.729C667.138 224.729 664.724 223.758 662.916 221.795H662.905Z" fill="white"/>
<path d="M222.986 279.154L235.002 141.762H206.34L202.603 184.475H189.739C188.912 156 176.951 141.762 153.857 141.762C140.507 141.762 129.991 146.571 122.329 156.165C114.668 165.771 110.005 180.086 108.34 199.099C106.676 218.112 108.836 232.427 114.822 242.032C120.808 251.638 130.476 256.435 143.825 256.435C156.105 256.435 165.961 252.388 173.402 244.293C180.831 236.198 185.737 224.155 188.107 208.164H200.531L194.324 279.143H173.424L205.635 309.824L243.214 279.143H222.986V279.154ZM155.411 224.266C152.876 229.923 149.701 232.746 145.898 232.746C142.094 232.746 139.416 229.923 137.872 224.266C136.329 218.509 136.042 210.127 137.002 199.11C137.972 187.993 139.735 179.612 142.271 173.954C144.817 168.297 147.981 165.473 151.784 165.473C155.587 165.473 158.266 168.308 159.809 173.954C161.231 179.998 161.474 188.39 160.537 199.11C159.6 209.841 157.891 218.222 155.411 224.266Z" fill="url(#paint5_linear_89_83)"/>
</g>
<defs>
<linearGradient id="paint0_linear_89_83" x1="548.844" y1="179.16" x2="638.4" y2="179.16" gradientUnits="userSpaceOnUse">
<stop stop-color="#9C9D9D"/>
<stop offset="0.28" stop-color="white"/>
</linearGradient>
<linearGradient id="paint1_linear_89_83" x1="15.9291" y1="182.259" x2="138.743" y2="182.259" gradientUnits="userSpaceOnUse">
<stop offset="0.19" stop-color="#E94643"/>
<stop offset="1" stop-color="#B13130"/>
</linearGradient>
<linearGradient id="paint2_linear_89_83" x1="471.855" y1="191.732" x2="561.213" y2="191.732" gradientUnits="userSpaceOnUse">
<stop stop-color="#9C9D9D"/>
<stop offset="0.28" stop-color="white"/>
</linearGradient>
<linearGradient id="paint3_linear_89_83" x1="283.991" y1="179.7" x2="373.892" y2="201.607" gradientUnits="userSpaceOnUse">
<stop offset="0.16" stop-color="white"/>
<stop offset="0.8" stop-color="#969797"/>
</linearGradient>
<linearGradient id="paint4_linear_89_83" x1="430.583" y1="182.446" x2="351.279" y2="182.446" gradientUnits="userSpaceOnUse">
<stop offset="0.13" stop-color="white"/>
<stop offset="0.78" stop-color="#969797"/>
</linearGradient>
<linearGradient id="paint5_linear_89_83" x1="196.805" y1="225.799" x2="196.805" y2="367.734" gradientUnits="userSpaceOnUse">
<stop stop-color="#E94643"/>
<stop offset="1" stop-color="#FFD900"/>
</linearGradient>
<clipPath id="clip0_89_83">
<rect width="700" height="310" fill="white"/>
</clipPath>
</defs>
</svg>
