<svg width="120" height="120" viewBox="0 0 120 120" fill="none" xmlns="http://www.w3.org/2000/svg">
<rect width="120" height="120" rx="60" fill="url(#paint0_linear_27_746)"/>
<g opacity="0.3">
<path d="M8.48961 93.6833H110.511L116.667 119H2.3335L8.48961 93.6833Z" fill="#90C661"/>
<g clip-path="url(#clip0_27_746)">
<path d="M93.2066 40.601H25.1807V104.37H93.2066V40.601Z" fill="#7CE5E3"/>
<path d="M94.4026 38H23.9846V41.0153H94.4026V38Z" fill="#18C2C6"/>
<path d="M87.7017 66.3334H97.2857V69.034C94.6387 70.6662 90.3487 70.6662 87.7017 69.034V66.3334Z" fill="#5034D6"/>
<path d="M78.1177 66.3334H87.7017V69.034C85.0547 70.6662 80.7647 70.6662 78.1177 69.034V66.3334Z" fill="#6D5BF4"/>
<path d="M68.5273 66.3334H78.1145V69.034C75.4675 70.6662 71.1775 70.6662 68.5273 69.034V66.3334Z" fill="#5034D6"/>
<path d="M58.9434 66.3334H68.5274V69.034C65.8804 70.6662 61.5904 70.6662 58.9434 69.034V66.3334Z" fill="#6D5BF4"/>
<path d="M49.6238 66.3334H59.2078V69.034C56.5608 70.6662 52.2708 70.6662 49.6238 69.034V66.3334Z" fill="#5034D6"/>
<path d="M40.0398 66.3334H49.6238V69.034C46.9768 70.6662 42.6868 70.6662 40.0398 69.034V66.3334Z" fill="#6D5BF4"/>
<path d="M30.4495 66.3334H40.0335V69.034C37.3896 70.6662 33.0965 70.6662 30.4495 69.034V66.3334Z" fill="#5034D6"/>
<path d="M84.2648 57.5524L87.6388 66.3334H78.0171L75.4487 57.5524H84.2648Z" fill="#7869FE"/>
<path d="M75.4486 57.5524L78.0169 66.3334H68.4172L66.9253 57.5524H75.4486Z" fill="#563EDD"/>
<path d="M66.9254 57.5524L68.4173 66.3334H59.0442V57.5524H66.9254Z" fill="#7869FE"/>
<path d="M93.3734 57.5524L97.2857 66.3334H87.6387L84.2646 57.5524H93.3734Z" fill="#563EDD"/>
<path d="M59.0443 57.5524V66.3334H49.6743L51.1662 57.5524H59.0443Z" fill="#563EDD"/>
<path d="M42.6427 57.5524L40.0712 66.3334H30.4495L33.8267 57.5524H42.6427Z" fill="#563EDD"/>
<path d="M20.9033 66.3334H30.4873V69.034C27.8435 70.6662 23.5503 70.6662 20.9033 69.034V66.3334Z" fill="#6D5BF4"/>
<path d="M33.8582 57.5524L30.5251 66.3334H20.9033L25.5521 57.5524H33.8582Z" fill="#7869FE"/>
<path d="M51.1661 57.5524L49.6742 66.3334H40.0713L42.6428 57.5524H51.1661Z" fill="#7869FE"/>
<path d="M43.6657 75.0988H64.3917V99.5354H59.1543H30.3394V75.0988H43.6657Z" fill="#18C2C6"/>
<path d="M43.908 76.2451H63.2869V98.3891H58.3894H31.4409V76.2451H43.908Z" fill="#F2F4FF"/>
<path d="M63.1674 77.8306L51.2102 92.8601" stroke="#C2E2EC" stroke-linecap="round" stroke-linejoin="round"/>
<path d="M56.9479 80.3163L44.9907 95.3458" stroke="#C2E2EC" stroke-linecap="round" stroke-linejoin="round"/>
<path d="M88.9575 75.0988H68.9082V104.37H88.9575V75.0988Z" fill="#18C2C6"/>
<path d="M87.6608 76.3852H70.2019V104.37H87.6608V76.3852Z" fill="#F2F4FF"/>
<path d="M78.908 76.4044L78.908 104.491" stroke="#C2E2EC" stroke-linecap="round" stroke-linejoin="round"/>
<path d="M77.2805 87.5709C76.972 87.5709 76.7202 87.8201 76.7202 88.1254V92.0315C76.7202 92.3368 76.972 92.586 77.2805 92.586C77.5889 92.586 77.8407 92.3368 77.8407 92.0315V88.1254C77.8407 87.8201 77.5889 87.5709 77.2805 87.5709Z" fill="#563EDD"/>
<path d="M80.51 87.5709C80.2015 87.5709 79.9497 87.8201 79.9497 88.1254V92.0315C79.9497 92.3368 80.2015 92.586 80.51 92.586C80.8184 92.586 81.0702 92.3368 81.0702 92.0315V88.1254C81.0702 87.8201 80.8184 87.5709 80.51 87.5709Z" fill="#563EDD"/>
<path d="M87.6986 44.7812H30.3425V53.7678H87.6986V44.7812Z" fill="#18C2C6"/>
<path d="M38.4443 53.5959C37.8736 53.5959 37.3403 53.5186 36.8443 53.3639C36.3536 53.2039 35.9296 52.9666 35.5723 52.6519L36.5723 51.4599C36.8763 51.6946 37.1963 51.8626 37.5323 51.9639C37.8683 52.0652 38.2016 52.1159 38.5323 52.1159C38.703 52.1159 38.8256 52.0946 38.9003 52.0519C38.975 52.0092 39.0123 51.9506 39.0123 51.8759V51.8599C39.0123 51.7799 38.9563 51.7132 38.8443 51.6599C38.7376 51.6066 38.535 51.5506 38.2363 51.4919C37.9216 51.4279 37.6203 51.3532 37.3323 51.2679C37.0496 51.1826 36.799 51.0732 36.5803 50.9399C36.367 50.8066 36.1963 50.6412 36.0683 50.4439C35.9403 50.2412 35.8763 49.9906 35.8763 49.6919V49.6759C35.8763 49.4092 35.927 49.1612 36.0283 48.9319C36.135 48.7026 36.287 48.5026 36.4843 48.3319C36.687 48.1612 36.935 48.0279 37.2283 47.9319C37.527 47.8359 37.8683 47.7879 38.2523 47.7879C38.7963 47.7879 39.271 47.8519 39.6763 47.9799C40.087 48.1079 40.455 48.2999 40.7803 48.5559L39.8683 49.8199C39.6016 49.6279 39.319 49.4892 39.0203 49.4039C38.727 49.3132 38.4496 49.2679 38.1883 49.2679C38.0496 49.2679 37.9456 49.2892 37.8763 49.3319C37.8123 49.3746 37.7803 49.4306 37.7803 49.4999V49.5159C37.7803 49.5532 37.791 49.5879 37.8123 49.6199C37.8336 49.6519 37.871 49.6839 37.9243 49.7159C37.983 49.7426 38.0603 49.7692 38.1563 49.7959C38.2523 49.8226 38.375 49.8492 38.5243 49.8759C38.8816 49.9399 39.207 50.0172 39.5003 50.1079C39.7936 50.1986 40.0443 50.3159 40.2523 50.4599C40.4656 50.5986 40.6283 50.7666 40.7403 50.9639C40.8576 51.1612 40.9163 51.4012 40.9163 51.6839V51.6999C40.9163 51.9932 40.8576 52.2572 40.7403 52.4919C40.623 52.7266 40.4576 52.9266 40.2443 53.0919C40.031 53.2519 39.7696 53.3772 39.4603 53.4679C39.1563 53.5532 38.8176 53.5959 38.4443 53.5959ZM43.4608 53.6039C43.1301 53.6039 42.8235 53.5426 42.5408 53.4199C42.2581 53.2972 42.0155 53.1319 41.8128 52.9239C41.6101 52.7159 41.4501 52.4759 41.3328 52.2039C41.2208 51.9266 41.1648 51.6359 41.1648 51.3319V51.3159C41.1648 51.0119 41.2208 50.7212 41.3328 50.4439C41.4501 50.1666 41.6128 49.9239 41.8208 49.7159C42.0288 49.5026 42.2795 49.3346 42.5728 49.2119C42.8661 49.0892 43.1915 49.0279 43.5488 49.0279C44.0341 49.0279 44.4421 49.1399 44.7728 49.3639C45.1035 49.5879 45.3541 49.8786 45.5248 50.2359L44.2208 50.9719C44.1461 50.8332 44.0581 50.7266 43.9568 50.6519C43.8555 50.5719 43.7301 50.5319 43.5808 50.5319C43.3888 50.5319 43.2288 50.6066 43.1008 50.7559C42.9728 50.8999 42.9088 51.0812 42.9088 51.2999V51.3159C42.9088 51.5452 42.9701 51.7346 43.0928 51.8839C43.2208 52.0279 43.3755 52.0999 43.5568 52.0999C43.7168 52.0999 43.8475 52.0626 43.9488 51.9879C44.0501 51.9079 44.1461 51.7986 44.2368 51.6599L45.5568 52.4119C45.3595 52.7799 45.0901 53.0706 44.7488 53.2839C44.4128 53.4972 43.9835 53.6039 43.4608 53.6039ZM45.8399 49.1239H47.6559V50.0039C47.7785 49.7106 47.9465 49.4759 48.1599 49.2999C48.3732 49.1239 48.6612 49.0439 49.0239 49.0599V50.9879H48.8319C48.4479 50.9879 48.1545 51.0999 47.9519 51.3239C47.7545 51.5426 47.6559 51.8946 47.6559 52.3799V53.4919H45.8399V49.1239ZM52.0601 50.9319C52.0387 50.7239 51.9721 50.5639 51.8601 50.4519C51.7481 50.3346 51.6121 50.2759 51.4521 50.2759C51.2974 50.2759 51.1694 50.3346 51.0681 50.4519C50.9667 50.5692 50.9027 50.7292 50.8761 50.9319H52.0601ZM51.5961 53.5959C51.2387 53.5959 50.9107 53.5426 50.6121 53.4359C50.3187 53.3239 50.0654 53.1692 49.8521 52.9719C49.6441 52.7746 49.4814 52.5372 49.3641 52.2599C49.2521 51.9826 49.1961 51.6732 49.1961 51.3319V51.3159C49.1961 50.9906 49.2521 50.6892 49.3641 50.4119C49.4761 50.1292 49.6307 49.8866 49.8281 49.6839C50.0254 49.4759 50.2601 49.3132 50.5321 49.1959C50.8094 49.0786 51.1134 49.0199 51.4441 49.0199C51.8334 49.0199 52.1694 49.0839 52.4521 49.2119C52.7401 49.3346 52.9774 49.5052 53.1641 49.7239C53.3507 49.9426 53.4894 50.1986 53.5801 50.4919C53.6707 50.7852 53.7161 51.0972 53.7161 51.4279C53.7161 51.4759 53.7161 51.5266 53.7161 51.5799C53.7161 51.6332 53.7134 51.6839 53.7081 51.7319H50.9001C50.9641 51.9239 51.0681 52.0706 51.2121 52.1719C51.3561 52.2679 51.5267 52.3159 51.7241 52.3159C51.8894 52.3159 52.0414 52.2786 52.1801 52.2039C52.3241 52.1292 52.4681 52.0172 52.6121 51.8679L53.5881 52.6439C53.3694 52.9266 53.1001 53.1559 52.7801 53.3319C52.4654 53.5079 52.0707 53.5959 51.5961 53.5959ZM56.8413 50.9319C56.82 50.7239 56.7533 50.5639 56.6413 50.4519C56.5293 50.3346 56.3933 50.2759 56.2333 50.2759C56.0786 50.2759 55.9506 50.3346 55.8493 50.4519C55.748 50.5692 55.684 50.7292 55.6573 50.9319H56.8413ZM56.3773 53.5959C56.02 53.5959 55.692 53.5426 55.3933 53.4359C55.1 53.3239 54.8466 53.1692 54.6333 52.9719C54.4253 52.7746 54.2626 52.5372 54.1453 52.2599C54.0333 51.9826 53.9773 51.6732 53.9773 51.3319V51.3159C53.9773 50.9906 54.0333 50.6892 54.1453 50.4119C54.2573 50.1292 54.412 49.8866 54.6093 49.6839C54.8066 49.4759 55.0413 49.3132 55.3133 49.1959C55.5906 49.0786 55.8946 49.0199 56.2253 49.0199C56.6146 49.0199 56.9506 49.0839 57.2333 49.2119C57.5213 49.3346 57.7586 49.5052 57.9453 49.7239C58.132 49.9426 58.2706 50.1986 58.3613 50.4919C58.452 50.7852 58.4973 51.0972 58.4973 51.4279C58.4973 51.4759 58.4973 51.5266 58.4973 51.5799C58.4973 51.6332 58.4946 51.6839 58.4893 51.7319H55.6813C55.7453 51.9239 55.8493 52.0706 55.9933 52.1719C56.1373 52.2679 56.308 52.3159 56.5053 52.3159C56.6706 52.3159 56.8226 52.2786 56.9613 52.2039C57.1053 52.1292 57.2493 52.0172 57.3933 51.8679L58.3693 52.6439C58.1506 52.9266 57.8813 53.1559 57.5613 53.3319C57.2466 53.5079 56.852 53.5959 56.3773 53.5959ZM58.8946 49.1239H60.7106V49.7319C60.7799 49.6412 60.8599 49.5532 60.9506 49.4679C61.0412 49.3826 61.1426 49.3079 61.2546 49.2439C61.3666 49.1746 61.4866 49.1212 61.6146 49.0839C61.7479 49.0412 61.8919 49.0199 62.0466 49.0199C62.5106 49.0199 62.8759 49.1612 63.1426 49.4439C63.4092 49.7266 63.5426 50.1159 63.5426 50.6119V53.4919H61.7266V51.1959C61.7266 51.0092 61.6786 50.8652 61.5826 50.7639C61.4866 50.6572 61.3692 50.6039 61.2306 50.6039C61.0919 50.6039 60.9692 50.6572 60.8626 50.7639C60.7612 50.8652 60.7106 51.0092 60.7106 51.1959V53.4919H58.8946V49.1239ZM69.1461 53.6119C68.7087 53.6119 68.2981 53.5426 67.9141 53.4039C67.5354 53.2652 67.2021 53.0679 66.9141 52.8119C66.6314 52.5559 66.4074 52.2492 66.2421 51.8919C66.0821 51.5346 66.0021 51.1399 66.0021 50.7079V50.6919C66.0021 50.2759 66.0794 49.8892 66.2341 49.5319C66.3887 49.1746 66.6047 48.8652 66.8821 48.6039C67.1594 48.3426 67.4847 48.1399 67.8581 47.9959C68.2367 47.8466 68.6474 47.7719 69.0901 47.7719C69.5754 47.7719 70.0101 47.8466 70.3941 47.9959C70.7834 48.1452 71.1301 48.3532 71.4341 48.6199L70.3861 49.8839C70.1994 49.7292 70.0047 49.6092 69.8021 49.5239C69.5994 49.4386 69.3807 49.3959 69.1461 49.3959C68.9647 49.3959 68.7967 49.4306 68.6421 49.4999C68.4874 49.5639 68.3541 49.6546 68.2421 49.7719C68.1301 49.8892 68.0421 50.0279 67.9781 50.1879C67.9194 50.3479 67.8901 50.5239 67.8901 50.7159V50.7319C67.8901 50.9292 67.9221 51.1106 67.9861 51.2759C68.0554 51.4412 68.1487 51.5826 68.2661 51.6999C68.3834 51.8172 68.5221 51.9079 68.6821 51.9719C68.8474 52.0359 69.0287 52.0679 69.2261 52.0679C69.3861 52.0679 69.5141 52.0572 69.6101 52.0359C69.7061 52.0146 69.7914 51.9826 69.8661 51.9399V51.3799H68.9061V50.1799H71.6181V52.7719C71.3141 53.0226 70.9541 53.2252 70.5381 53.3799C70.1221 53.5346 69.6581 53.6119 69.1461 53.6119ZM74.4413 52.0839C74.644 52.0839 74.812 52.0092 74.9453 51.8599C75.0786 51.7106 75.1453 51.5319 75.1453 51.3239V51.3079C75.1453 51.0892 75.076 50.9052 74.9373 50.7559C74.7986 50.6066 74.628 50.5319 74.4253 50.5319C74.2226 50.5319 74.0546 50.6066 73.9213 50.7559C73.788 50.9052 73.7213 51.0839 73.7213 51.2919V51.3079C73.7213 51.5266 73.7906 51.7106 73.9293 51.8599C74.068 52.0092 74.2386 52.0839 74.4413 52.0839ZM74.4253 53.5959C74.068 53.5959 73.7373 53.5372 73.4333 53.4199C73.1346 53.2972 72.876 53.1319 72.6573 52.9239C72.444 52.7159 72.276 52.4759 72.1533 52.2039C72.036 51.9266 71.9773 51.6332 71.9773 51.3239V51.3079C71.9773 50.9986 72.0386 50.7052 72.1613 50.4279C72.284 50.1506 72.452 49.9079 72.6653 49.6999C72.884 49.4919 73.1426 49.3266 73.4413 49.2039C73.7453 49.0812 74.0786 49.0199 74.4413 49.0199C74.7986 49.0199 75.1266 49.0812 75.4253 49.2039C75.7293 49.3212 75.988 49.4839 76.2013 49.6919C76.42 49.8999 76.588 50.1426 76.7053 50.4199C76.828 50.6919 76.8893 50.9826 76.8893 51.2919V51.3079C76.8893 51.6172 76.828 51.9106 76.7053 52.1879C76.5826 52.4652 76.412 52.7079 76.1933 52.9159C75.98 53.1239 75.7213 53.2892 75.4173 53.4119C75.1133 53.5346 74.7826 53.5959 74.4253 53.5959ZM77.3168 47.6519H79.1328V53.4919H77.3168V47.6519ZM80.0274 50.5239H79.5154V49.1239H80.0274C80.0381 48.8839 80.0701 48.6732 80.1234 48.4919C80.1821 48.3106 80.2808 48.1506 80.4194 48.0119C80.5688 47.8626 80.7421 47.7559 80.9394 47.6919C81.1421 47.6279 81.3954 47.5959 81.6994 47.5959C81.9714 47.5959 82.1928 47.6066 82.3634 47.6279C82.5394 47.6492 82.6888 47.6786 82.8114 47.7159V48.8519C82.7208 48.8306 82.6301 48.8146 82.5394 48.8039C82.4488 48.7932 82.3448 48.7879 82.2274 48.7879C81.9448 48.7879 81.8034 48.9052 81.8034 49.1399V49.1719H82.8114V50.5239H81.8434V53.4919H80.0274V50.5239Z" fill="white"/>
</g>
<path d="M34.3488 21L36.0394 24.4255L39.8197 24.9748L37.0843 27.6412L37.73 31.4062L34.3488 29.6286L30.9677 31.4062L31.6134 27.6412L28.878 24.9748L32.6582 24.4255L34.3488 21Z" fill="#FE4C4C"/>
<path d="M59.7387 21L61.4293 24.4255L65.2096 24.9748L62.4742 27.6412L63.1199 31.4062L59.7387 29.6286L56.3576 31.4062L57.0033 27.6412L54.2679 24.9748L58.0481 24.4255L59.7387 21Z" fill="#D9D9D9"/>
<path d="M47.0437 21L48.7342 24.4255L52.5145 24.9748L49.7791 27.6412L50.4248 31.4062L47.0437 29.6286L43.6625 31.4062L44.3082 27.6412L41.5728 24.9748L45.3531 24.4255L47.0437 21Z" fill="#D9D9D9"/>
<path d="M72.4338 21L74.1244 24.4255L77.9047 24.9748L75.1692 27.6412L75.815 31.4062L72.4338 29.6286L69.0526 31.4062L69.6984 27.6412L66.9629 24.9748L70.7432 24.4255L72.4338 21Z" fill="#D9D9D9"/>
<path d="M85.1286 21L86.8192 24.4255L90.5995 24.9748L87.864 27.6412L88.5098 31.4062L85.1286 29.6286L81.7474 31.4062L82.3932 27.6412L79.6578 24.9748L83.438 24.4255L85.1286 21Z" fill="#D9D9D9"/>
<g clip-path="url(#clip1_27_746)">
<path d="M33.8584 85.8514C33.8584 85.8514 36.7285 89.3141 33.1721 92.7298C30.0119 95.7651 22.7716 92.8815 20.5224 98.2627C20.481 98.3589 20.3411 98.3249 20.3506 98.2185C20.5719 96.0305 21.0864 89.8534 27.3249 84.1452C29.2081 82.4225 34.1238 81.3907 33.8584 85.8514Z" fill="#C1652E"/>
<path d="M26.7033 88.1335C29.5572 86.0411 32.1075 85.6971 33.8589 85.8265C34.1032 81.3968 29.2016 82.4277 27.3246 84.1456C21.0861 89.8538 20.5717 96.0309 20.3499 98.2217C20.344 98.2634 20.3674 98.2951 20.3958 98.3104C21.4878 92.6716 24.1474 90.0074 26.7005 88.1331L26.7033 88.1335Z" fill="#B5602E"/>
<path d="M36.2294 86.5168C35.8695 86.3467 35.4667 86.2243 35.0712 86.1286C34.6699 86.0348 34.2612 85.974 33.8512 85.9413C33.0281 85.8784 32.1967 85.9334 31.3842 86.0903C29.753 86.4088 28.2201 87.1522 26.8552 88.1236C25.4875 89.0946 24.2237 90.2362 23.2234 91.5995C22.2157 92.956 21.4883 94.5138 20.9752 96.1304C20.9697 96.1495 20.9486 96.1607 20.9299 96.1552C20.9112 96.1497 20.9004 96.1283 20.9058 96.1092C21.4065 94.4824 22.125 92.9091 23.1304 91.5296C24.128 90.1461 25.3954 88.9795 26.763 87.9887C28.1314 86.9923 29.6819 86.223 31.3444 85.8805C32.1725 85.7117 33.025 85.6456 33.8683 85.7028C34.29 85.7315 34.7101 85.791 35.1254 85.884C35.5404 85.9797 35.944 86.0964 36.3436 86.2807C36.4063 86.3094 36.4342 86.3871 36.4057 86.4511C36.3771 86.515 36.3007 86.5439 36.238 86.5151L36.2298 86.514L36.2294 86.5168Z" fill="#AD592E"/>
<path d="M32.5696 85.9523C32.6008 86.6739 32.5058 87.3832 32.3566 88.082C32.205 88.7776 31.9861 89.458 31.7146 90.1168C31.6442 90.2797 31.5683 90.4418 31.4955 90.6016C31.4592 90.6815 31.4224 90.7641 31.3833 90.8436L31.2582 91.0781C31.175 91.2336 31.094 91.3922 31.0053 91.5468L30.7267 92.0005L30.5888 92.2275L30.4356 92.4439L30.1317 92.8798C29.9216 93.1647 29.6939 93.4357 29.4737 93.7134C29.4604 93.7285 29.4378 93.731 29.4226 93.7203C29.4078 93.7069 29.4055 93.6839 29.416 93.6684C29.6312 93.3871 29.8589 93.1161 30.0659 92.8337L30.3667 92.4001L30.5171 92.1834L30.6523 91.9559L30.9251 91.5043C31.0111 91.3492 31.0889 91.193 31.1721 91.0376L31.2945 90.8027C31.3336 90.7232 31.3673 90.6429 31.4036 90.563C31.4736 90.4029 31.5495 90.2408 31.6195 90.0806C31.8848 89.4266 32.0975 88.751 32.2428 88.0602C32.385 87.3717 32.4746 86.6616 32.4394 85.9678L32.4402 85.9623C32.4368 85.9278 32.4633 85.8975 32.4999 85.8942C32.5335 85.8933 32.563 85.9202 32.5665 85.9547L32.5696 85.9523Z" fill="#AD592E"/>
<path d="M29.825 86.5097C29.8617 87.1725 29.7835 87.8219 29.6566 88.4615C29.5243 89.1003 29.33 89.7247 29.0854 90.3306C29.0224 90.4804 28.954 90.6294 28.8859 90.7757C28.8531 90.8504 28.8202 90.9251 28.785 90.9966L28.6709 91.2128C28.5951 91.3552 28.5216 91.5006 28.443 91.6425L28.1894 92.0573L28.0624 92.266L27.9229 92.4645L27.6436 92.8642C27.4507 93.126 27.2406 93.3711 27.0403 93.6261C27.027 93.6413 27.0044 93.6437 26.9892 93.6331C26.9744 93.6196 26.9721 93.5966 26.9826 93.5811C27.1807 93.3229 27.388 93.0774 27.5778 92.818L27.8513 92.4203L27.988 92.2214L28.1119 92.0151L28.36 91.5996C28.4386 91.4577 28.509 91.3146 28.5848 91.1723L28.6958 90.9584C28.731 90.8869 28.7612 90.8118 28.794 90.7371C28.8593 90.5905 28.9274 90.4442 28.9877 90.294C29.226 89.6929 29.414 89.0733 29.5397 88.4421C29.6627 87.8104 29.7355 87.1603 29.6948 86.5252L29.6955 86.5197C29.6921 86.4852 29.7186 86.4549 29.7526 86.4512C29.7865 86.4475 29.816 86.4744 29.8191 86.5117L29.825 86.5097Z" fill="#AD592E"/>
<path d="M26.9602 87.9911C27.0108 88.3016 27.0123 88.6051 26.9997 88.9094L26.9869 89.1372L26.9604 89.3631C26.9473 89.5143 26.9175 89.6659 26.8907 89.8152C26.7807 90.4147 26.595 90.9978 26.3626 91.5572L26.1784 91.9733C26.117 92.1119 26.04 92.2427 25.9708 92.3775C25.8374 92.6505 25.671 92.9019 25.5143 93.1631C25.44 93.2943 25.3451 93.414 25.2608 93.5381L24.9994 93.9092C24.8155 94.1468 24.621 94.3799 24.4343 94.6171C24.4211 94.6322 24.3984 94.6347 24.3837 94.6212C24.3689 94.6078 24.3666 94.5848 24.3798 94.5697C24.5665 94.3325 24.7555 94.0986 24.9367 93.8607L25.1922 93.4916C25.2766 93.3675 25.3688 93.2473 25.4403 93.1158C25.5939 92.8569 25.7576 92.6052 25.8878 92.3345C25.9543 92.1994 26.0309 92.0714 26.0896 91.9323L26.2707 91.5187C26.4945 90.9608 26.6735 90.3853 26.7797 89.7938C26.8006 89.6465 26.8328 89.498 26.8427 89.3492L26.8661 89.1258L26.8785 88.9008C26.8899 88.6047 26.883 88.3005 26.8347 88.013L26.8355 88.0075C26.8293 87.9726 26.8508 87.9388 26.8851 87.9323C26.9194 87.9258 26.9521 87.9503 26.9583 87.9852L26.9602 87.9911Z" fill="#AD592E"/>
<path d="M23.7067 90.8999C23.7674 90.9822 23.793 91.0567 23.8201 91.1399C23.8341 91.1787 23.8422 91.2195 23.8503 91.2604C23.8585 91.3012 23.8666 91.342 23.872 91.3825C23.8986 91.5478 23.8976 91.7121 23.8915 91.8728C23.8758 92.1994 23.8164 92.5198 23.7442 92.8326C23.6638 93.1444 23.5698 93.4542 23.4602 93.7561C23.4026 93.9067 23.3506 94.058 23.2876 94.2078L23.1021 94.652C23.0939 94.6707 23.0733 94.6791 23.0549 94.6708C23.0366 94.6626 23.0285 94.6416 23.0367 94.6229L23.214 94.1775C23.2738 94.0301 23.3232 93.8784 23.378 93.7274C23.4821 93.4247 23.5699 93.1197 23.6445 92.81C23.7108 92.4991 23.7667 92.1839 23.7781 91.868C23.781 91.7097 23.7782 91.5534 23.7527 91.3996C23.7469 91.3619 23.7411 91.3242 23.7299 91.2858C23.7214 91.2477 23.7128 91.2097 23.7008 91.1768C23.6803 91.1059 23.6437 91.0298 23.6111 90.9855L23.6041 90.976C23.5831 90.9475 23.5886 90.9086 23.6167 90.8871C23.6448 90.8656 23.683 90.871 23.704 90.8995L23.7067 90.8999Z" fill="#AD592E"/>
<path d="M32.3894 85.8105C32.1771 85.5026 31.8899 85.2323 31.5956 84.9921C31.2958 84.7512 30.975 84.5413 30.6401 84.3521L30.3866 84.2169C30.3009 84.1736 30.2149 84.133 30.1261 84.0921C29.9547 84.0054 29.7747 83.9402 29.5963 83.8639C29.4172 83.7931 29.2333 83.7358 29.0533 83.6706L28.5005 83.5072C28.4818 83.5017 28.4709 83.4803 28.4764 83.4612C28.4819 83.4422 28.5003 83.4306 28.5217 83.4365L29.0807 83.5951C29.2638 83.658 29.4504 83.7156 29.63 83.7836C29.8088 83.8572 29.9915 83.9227 30.1687 84.0074C30.2575 84.0483 30.3467 84.0865 30.4323 84.1298L30.6913 84.2658C31.0321 84.453 31.3615 84.6613 31.6694 84.9034C31.9742 85.1479 32.2649 85.413 32.499 85.7439C32.52 85.7724 32.5141 85.814 32.4864 85.8328C32.4583 85.8543 32.4174 85.8485 32.3991 85.8204L32.3945 85.8141L32.3894 85.8105Z" fill="#AD592E"/>
<path d="M29.7677 86.5016C29.4967 86.2931 29.1836 86.1268 28.8592 86.0014C28.5347 85.876 28.1981 85.7772 27.8513 85.7309C27.5072 85.6849 27.1572 85.6608 26.8076 85.6934C26.6318 85.6968 26.4595 85.7347 26.2868 85.7556C26.1129 85.7847 25.9448 85.8318 25.7725 85.8697L25.7698 85.8693C25.7495 85.8749 25.7316 85.8639 25.7262 85.8433C25.7235 85.823 25.7317 85.8044 25.7547 85.7991C25.9274 85.7584 26.0986 85.709 26.2729 85.677C26.4491 85.651 26.6241 85.6135 26.8007 85.6045C27.1539 85.5668 27.5128 85.5865 27.8659 85.6281C28.2185 85.6724 28.5641 85.7668 28.8999 85.8909C29.2353 86.0179 29.5519 86.179 29.8462 86.3993C29.8738 86.4203 29.8792 86.4607 29.8585 86.4889C29.8378 86.5172 29.798 86.5229 29.7704 86.502L29.7649 86.5012L29.7677 86.5016Z" fill="#AD592E"/>
<path d="M26.8797 88.0676C26.623 87.9943 26.3393 87.9739 26.0665 87.9749C25.7905 87.9783 25.513 88.0126 25.2412 88.0648C24.9687 88.1225 24.6988 88.2004 24.4372 88.2994C24.3054 88.3459 24.1798 88.4074 24.0499 88.4599C23.922 88.5182 23.7987 88.583 23.6731 88.6445C23.6551 88.6533 23.6337 88.6474 23.6252 88.6292C23.6166 88.611 23.6252 88.5895 23.6405 88.5804C23.7664 88.516 23.8928 88.4489 24.0184 88.3874C24.1487 88.3322 24.2747 88.2678 24.4096 88.2189C24.6748 88.1148 24.9454 88.0313 25.2215 87.9684C25.4999 87.9087 25.7809 87.8692 26.0659 87.8615C26.3504 87.8565 26.6353 87.8685 26.9193 87.9457C26.9544 87.9535 26.9715 87.9899 26.964 88.0229C26.9565 88.0558 26.9203 88.0762 26.8879 88.0688L26.8825 88.068L26.8797 88.0676Z" fill="#AD592E"/>
<path d="M23.6417 91.004C23.4855 90.9677 23.3035 90.9759 23.1362 91.0174C22.9666 91.0557 22.8055 91.132 22.6533 91.2238C22.5016 91.3128 22.3673 91.4355 22.2385 91.559C22.1764 91.6239 22.1167 91.6919 22.0569 91.76L21.8929 91.9748C21.8792 91.9927 21.8594 91.9956 21.8414 91.9845C21.8263 91.9739 21.824 91.9509 21.8345 91.9354L21.997 91.7118C22.0571 91.641 22.1145 91.5697 22.177 91.5021C22.307 91.3703 22.4421 91.242 22.6008 91.1427C22.7573 91.0402 22.9274 90.9594 23.1095 90.9115C23.2912 90.8664 23.4779 90.8447 23.675 90.8869C23.7105 90.8919 23.7303 90.9287 23.7229 90.9617C23.7177 90.9978 23.6814 91.0182 23.6491 91.0108L23.6409 91.0096L23.6417 91.004Z" fill="#AD592E"/>
</g>
<g clip-path="url(#clip2_27_746)">
<path d="M40.4628 87.1197C46.2793 87.3097 52.1269 86.5991 57.7222 85.0258C60.4578 84.2543 63.1352 83.2777 65.7194 82.111C66.9728 81.5448 68.2804 80.9747 69.4251 80.2147C70.4766 79.5155 71.3808 78.5578 71.598 77.2923C71.6912 76.7679 71.664 76.2245 71.47 75.7228C71.3575 75.4302 71.2411 75.1946 70.9345 75.0654C70.628 74.9362 70.2982 74.883 69.9916 74.8222C68.9013 74.6056 67.6247 74.6056 66.8176 75.4758C66.0881 76.2587 66.1346 77.3797 66.6197 78.269C67.1823 79.295 68.2183 79.8575 69.3824 79.9525C70.7677 80.0703 72.1219 79.5535 73.3907 79.0822C74.6596 78.611 76.0448 78.0638 77.3525 77.5165C79.9872 76.4145 82.5714 75.2022 85.0975 73.8835C90.7006 70.9574 96.0049 67.4992 100.948 63.5926C101.53 63.1327 100.704 62.3309 100.126 62.7869C95.5975 66.3667 90.7433 69.5513 85.6446 72.2988C83.1108 73.6631 80.5149 74.921 77.8724 76.0649C76.5299 76.6463 75.1756 77.1935 73.8059 77.7142C72.4362 78.2348 71.0742 78.8694 69.6385 78.8314C68.5482 78.801 67.2017 77.9612 67.4345 76.7185C67.6906 75.3542 69.7588 75.9091 70.6319 76.1675L70.2826 75.9053C70.756 76.7717 70.368 77.8168 69.7278 78.4932C69.0448 79.2152 68.1368 79.6713 67.256 80.1159C65.2538 81.1268 63.1895 82.0122 61.0709 82.7646C56.8763 84.2581 52.4955 85.2652 48.0565 85.7212C45.5343 85.9796 42.9966 86.067 40.4628 85.9834C39.7139 85.9606 39.7139 87.1007 40.4628 87.1235V87.1197Z" fill="#D9D9D9"/>
</g>
</g>
<g clip-path="url(#clip3_27_746)">
<path d="M30 61.2825H46.5518L52.4139 70.4427L74.138 36H90L61.0347 84H43.7931L30 61.2825Z" fill="white"/>
</g>
<defs>
<linearGradient id="paint0_linear_27_746" x1="60" y1="0" x2="60" y2="120" gradientUnits="userSpaceOnUse">
<stop stop-color="#FF3535"/>
<stop offset="1" stop-color="#FFC86F"/>
</linearGradient>
<clipPath id="clip0_27_746">
<rect width="76.3824" height="66.4912" fill="white" transform="translate(20.9033 38)"/>
</clipPath>
<clipPath id="clip1_27_746">
<rect width="14.2874" height="17.0349" fill="white" transform="translate(22.6926 81.4333) rotate(8.0732)"/>
</clipPath>
<clipPath id="clip2_27_746">
<rect width="61.25" height="24.5" fill="white" transform="translate(39.9001 62.65)"/>
</clipPath>
<clipPath id="clip3_27_746">
<rect width="60" height="48" fill="white" transform="translate(30 36)"/>
</clipPath>
</defs>
</svg>
