<svg width="700" height="310" viewBox="0 0 700 310" fill="none" xmlns="http://www.w3.org/2000/svg">
<path d="M180.273 99.9788L249.804 89.8042L249.903 86.1999L179.882 96.446L180.267 82.9017L215.522 77.7428L215.552 72.4159L175.558 78.2682L175.967 63.7243L280.03 48.4969L279.621 63.0408L239.504 68.911L239.474 74.2379L274.118 69.1686L273.258 99.4867L203.726 109.661L203.624 113.391L274.858 102.967L274.473 116.511L179.41 130.422L180.273 99.9788ZM216.745 34.3816L216.832 31.277L182.912 36.2405L183.343 20.8322L217.263 15.8688L217.43 9.9095L241.26 6.42254L241.092 12.3818L275.012 7.41833L274.581 22.8266L240.661 27.79L240.574 30.8946L276.478 32.8207L272.279 48.6558L228.404 46.288L184.024 61.5701L180.446 46.873L216.755 34.3801L216.745 34.3816Z" fill="url(#paint0_linear_89_13)"/>
<defs>
<linearGradient id="paint0_linear_89_13" x1="225.926" y1="31.2349" x2="240.887" y2="133.473" gradientUnits="userSpaceOnUse">
<stop stop-color="#FFFB5F"/>
<stop offset="1" stop-color="#FF7C00"/>
</linearGradient>
</defs>
</svg>
