<svg width="120" height="120" viewBox="0 0 120 120" fill="none" xmlns="http://www.w3.org/2000/svg">
<rect x="1.5" y="1.5" width="117" height="117" rx="58.5" fill="#F5F5F5"/>
<rect x="1.5" y="1.5" width="117" height="117" rx="58.5" stroke="#E8E8E8" stroke-width="3"/>
<g opacity="0.5">
<path d="M8.48961 93.6833H110.511L116.667 119H2.3335L8.48961 93.6833Z" fill="#90C661"/>
<g clip-path="url(#clip0_54_4043)">
<path d="M93.2066 40.601H25.1807V104.37H93.2066V40.601Z" fill="#7CE5E3"/>
<path d="M94.4026 38H23.9846V41.0152H94.4026V38Z" fill="#18C2C6"/>
<path d="M87.7017 66.3333H97.2857V69.034C94.6387 70.6662 90.3487 70.6662 87.7017 69.034V66.3333Z" fill="#5034D6"/>
<path d="M78.1177 66.3333H87.7017V69.034C85.0547 70.6662 80.7647 70.6662 78.1177 69.034V66.3333Z" fill="#6D5BF4"/>
<path d="M68.5273 66.3333H78.1145V69.034C75.4675 70.6662 71.1775 70.6662 68.5273 69.034V66.3333Z" fill="#5034D6"/>
<path d="M58.9434 66.3333H68.5274V69.034C65.8804 70.6662 61.5904 70.6662 58.9434 69.034V66.3333Z" fill="#6D5BF4"/>
<path d="M49.6238 66.3333H59.2078V69.034C56.5608 70.6662 52.2708 70.6662 49.6238 69.034V66.3333Z" fill="#5034D6"/>
<path d="M40.0398 66.3333H49.6238V69.034C46.9768 70.6662 42.6868 70.6662 40.0398 69.034V66.3333Z" fill="#6D5BF4"/>
<path d="M30.4495 66.3333H40.0335V69.034C37.3896 70.6662 33.0965 70.6662 30.4495 69.034V66.3333Z" fill="#5034D6"/>
<path d="M84.2648 57.5524L87.6388 66.3333H78.0171L75.4487 57.5524H84.2648Z" fill="#7869FE"/>
<path d="M75.4486 57.5524L78.0169 66.3333H68.4172L66.9253 57.5524H75.4486Z" fill="#563EDD"/>
<path d="M66.9254 57.5524L68.4173 66.3333H59.0442V57.5524H66.9254Z" fill="#7869FE"/>
<path d="M93.3734 57.5524L97.2857 66.3333H87.6387L84.2646 57.5524H93.3734Z" fill="#563EDD"/>
<path d="M59.0443 57.5524V66.3333H49.6743L51.1662 57.5524H59.0443Z" fill="#563EDD"/>
<path d="M42.6427 57.5524L40.0712 66.3333H30.4495L33.8267 57.5524H42.6427Z" fill="#563EDD"/>
<path d="M20.9033 66.3333H30.4873V69.034C27.8435 70.6662 23.5503 70.6662 20.9033 69.034V66.3333Z" fill="#6D5BF4"/>
<path d="M33.8582 57.5524L30.5251 66.3333H20.9033L25.5521 57.5524H33.8582Z" fill="#7869FE"/>
<path d="M51.1661 57.5524L49.6742 66.3333H40.0713L42.6428 57.5524H51.1661Z" fill="#7869FE"/>
<path d="M43.6657 75.0988H64.3917V99.5353H59.1543H30.3394V75.0988H43.6657Z" fill="#18C2C6"/>
<path d="M43.908 76.2451H63.2869V98.3891H58.3894H31.4409V76.2451H43.908Z" fill="#F2F4FF"/>
<path d="M63.1674 77.8305L51.2102 92.86" stroke="#C2E2EC" stroke-linecap="round" stroke-linejoin="round"/>
<path d="M56.9479 80.3163L44.9907 95.3458" stroke="#C2E2EC" stroke-linecap="round" stroke-linejoin="round"/>
<path d="M88.9575 75.0988H68.9082V104.37H88.9575V75.0988Z" fill="#18C2C6"/>
<path d="M87.6608 76.3852H70.2019V104.37H87.6608V76.3852Z" fill="#F2F4FF"/>
<path d="M78.908 76.4044L78.908 104.491" stroke="#C2E2EC" stroke-linecap="round" stroke-linejoin="round"/>
<path d="M77.2805 87.5709C76.972 87.5709 76.7202 87.8201 76.7202 88.1254V92.0315C76.7202 92.3368 76.972 92.586 77.2805 92.586C77.5889 92.586 77.8407 92.3368 77.8407 92.0315V88.1254C77.8407 87.8201 77.5889 87.5709 77.2805 87.5709Z" fill="#563EDD"/>
<path d="M80.51 87.5709C80.2015 87.5709 79.9497 87.8201 79.9497 88.1254V92.0315C79.9497 92.3368 80.2015 92.586 80.51 92.586C80.8184 92.586 81.0702 92.3368 81.0702 92.0315V88.1254C81.0702 87.8201 80.8184 87.5709 80.51 87.5709Z" fill="#563EDD"/>
<path d="M87.6986 44.7812H30.3425V53.7677H87.6986V44.7812Z" fill="#18C2C6"/>
<path d="M38.4443 53.5959C37.8736 53.5959 37.3403 53.5185 36.8443 53.3639C36.3536 53.2039 35.9296 52.9665 35.5723 52.6519L36.5723 51.4599C36.8763 51.6945 37.1963 51.8625 37.5323 51.9639C37.8683 52.0652 38.2016 52.1159 38.5323 52.1159C38.703 52.1159 38.8256 52.0945 38.9003 52.0519C38.975 52.0092 39.0123 51.9505 39.0123 51.8759V51.8599C39.0123 51.7799 38.9563 51.7132 38.8443 51.6599C38.7376 51.6065 38.535 51.5505 38.2363 51.4919C37.9216 51.4279 37.6203 51.3532 37.3323 51.2679C37.0496 51.1825 36.799 51.0732 36.5803 50.9399C36.367 50.8065 36.1963 50.6412 36.0683 50.4439C35.9403 50.2412 35.8763 49.9905 35.8763 49.6919V49.6759C35.8763 49.4092 35.927 49.1612 36.0283 48.9319C36.135 48.7025 36.287 48.5025 36.4843 48.3319C36.687 48.1612 36.935 48.0279 37.2283 47.9319C37.527 47.8359 37.8683 47.7879 38.2523 47.7879C38.7963 47.7879 39.271 47.8519 39.6763 47.9799C40.087 48.1079 40.455 48.2999 40.7803 48.5559L39.8683 49.8199C39.6016 49.6279 39.319 49.4892 39.0203 49.4039C38.727 49.3132 38.4496 49.2679 38.1883 49.2679C38.0496 49.2679 37.9456 49.2892 37.8763 49.3319C37.8123 49.3745 37.7803 49.4305 37.7803 49.4999V49.5159C37.7803 49.5532 37.791 49.5879 37.8123 49.6199C37.8336 49.6519 37.871 49.6839 37.9243 49.7159C37.983 49.7425 38.0603 49.7692 38.1563 49.7959C38.2523 49.8225 38.375 49.8492 38.5243 49.8759C38.8816 49.9399 39.207 50.0172 39.5003 50.1079C39.7936 50.1985 40.0443 50.3159 40.2523 50.4599C40.4656 50.5985 40.6283 50.7665 40.7403 50.9639C40.8576 51.1612 40.9163 51.4012 40.9163 51.6839V51.6999C40.9163 51.9932 40.8576 52.2572 40.7403 52.4919C40.623 52.7265 40.4576 52.9265 40.2443 53.0919C40.031 53.2519 39.7696 53.3772 39.4603 53.4679C39.1563 53.5532 38.8176 53.5959 38.4443 53.5959ZM43.4608 53.6039C43.1301 53.6039 42.8235 53.5425 42.5408 53.4199C42.2581 53.2972 42.0155 53.1319 41.8128 52.9239C41.6101 52.7159 41.4501 52.4759 41.3328 52.2039C41.2208 51.9265 41.1648 51.6359 41.1648 51.3319V51.3159C41.1648 51.0119 41.2208 50.7212 41.3328 50.4439C41.4501 50.1665 41.6128 49.9239 41.8208 49.7159C42.0288 49.5025 42.2795 49.3345 42.5728 49.2119C42.8661 49.0892 43.1915 49.0279 43.5488 49.0279C44.0341 49.0279 44.4421 49.1399 44.7728 49.3639C45.1035 49.5879 45.3541 49.8785 45.5248 50.2359L44.2208 50.9719C44.1461 50.8332 44.0581 50.7265 43.9568 50.6519C43.8555 50.5719 43.7301 50.5319 43.5808 50.5319C43.3888 50.5319 43.2288 50.6065 43.1008 50.7559C42.9728 50.8999 42.9088 51.0812 42.9088 51.2999V51.3159C42.9088 51.5452 42.9701 51.7345 43.0928 51.8839C43.2208 52.0279 43.3755 52.0999 43.5568 52.0999C43.7168 52.0999 43.8475 52.0625 43.9488 51.9879C44.0501 51.9079 44.1461 51.7985 44.2368 51.6599L45.5568 52.4119C45.3595 52.7799 45.0901 53.0705 44.7488 53.2839C44.4128 53.4972 43.9835 53.6039 43.4608 53.6039ZM45.8399 49.1239H47.6559V50.0039C47.7785 49.7105 47.9465 49.4759 48.1599 49.2999C48.3732 49.1239 48.6612 49.0439 49.0239 49.0599V50.9879H48.8319C48.4479 50.9879 48.1545 51.0999 47.9519 51.3239C47.7545 51.5425 47.6559 51.8945 47.6559 52.3799V53.4919H45.8399V49.1239ZM52.0601 50.9319C52.0387 50.7239 51.9721 50.5639 51.8601 50.4519C51.7481 50.3345 51.6121 50.2759 51.4521 50.2759C51.2974 50.2759 51.1694 50.3345 51.0681 50.4519C50.9667 50.5692 50.9027 50.7292 50.8761 50.9319H52.0601ZM51.5961 53.5959C51.2387 53.5959 50.9107 53.5425 50.6121 53.4359C50.3187 53.3239 50.0654 53.1692 49.8521 52.9719C49.6441 52.7745 49.4814 52.5372 49.3641 52.2599C49.2521 51.9825 49.1961 51.6732 49.1961 51.3319V51.3159C49.1961 50.9905 49.2521 50.6892 49.3641 50.4119C49.4761 50.1292 49.6307 49.8865 49.8281 49.6839C50.0254 49.4759 50.2601 49.3132 50.5321 49.1959C50.8094 49.0785 51.1134 49.0199 51.4441 49.0199C51.8334 49.0199 52.1694 49.0839 52.4521 49.2119C52.7401 49.3345 52.9774 49.5052 53.1641 49.7239C53.3507 49.9425 53.4894 50.1985 53.5801 50.4919C53.6707 50.7852 53.7161 51.0972 53.7161 51.4279C53.7161 51.4759 53.7161 51.5265 53.7161 51.5799C53.7161 51.6332 53.7134 51.6839 53.7081 51.7319H50.9001C50.9641 51.9239 51.0681 52.0705 51.2121 52.1719C51.3561 52.2679 51.5267 52.3159 51.7241 52.3159C51.8894 52.3159 52.0414 52.2785 52.1801 52.2039C52.3241 52.1292 52.4681 52.0172 52.6121 51.8679L53.5881 52.6439C53.3694 52.9265 53.1001 53.1559 52.7801 53.3319C52.4654 53.5079 52.0707 53.5959 51.5961 53.5959ZM56.8413 50.9319C56.82 50.7239 56.7533 50.5639 56.6413 50.4519C56.5293 50.3345 56.3933 50.2759 56.2333 50.2759C56.0786 50.2759 55.9506 50.3345 55.8493 50.4519C55.748 50.5692 55.684 50.7292 55.6573 50.9319H56.8413ZM56.3773 53.5959C56.02 53.5959 55.692 53.5425 55.3933 53.4359C55.1 53.3239 54.8466 53.1692 54.6333 52.9719C54.4253 52.7745 54.2626 52.5372 54.1453 52.2599C54.0333 51.9825 53.9773 51.6732 53.9773 51.3319V51.3159C53.9773 50.9905 54.0333 50.6892 54.1453 50.4119C54.2573 50.1292 54.412 49.8865 54.6093 49.6839C54.8066 49.4759 55.0413 49.3132 55.3133 49.1959C55.5906 49.0785 55.8946 49.0199 56.2253 49.0199C56.6146 49.0199 56.9506 49.0839 57.2333 49.2119C57.5213 49.3345 57.7586 49.5052 57.9453 49.7239C58.132 49.9425 58.2706 50.1985 58.3613 50.4919C58.452 50.7852 58.4973 51.0972 58.4973 51.4279C58.4973 51.4759 58.4973 51.5265 58.4973 51.5799C58.4973 51.6332 58.4946 51.6839 58.4893 51.7319H55.6813C55.7453 51.9239 55.8493 52.0705 55.9933 52.1719C56.1373 52.2679 56.308 52.3159 56.5053 52.3159C56.6706 52.3159 56.8226 52.2785 56.9613 52.2039C57.1053 52.1292 57.2493 52.0172 57.3933 51.8679L58.3693 52.6439C58.1506 52.9265 57.8813 53.1559 57.5613 53.3319C57.2466 53.5079 56.852 53.5959 56.3773 53.5959ZM58.8946 49.1239H60.7106V49.7319C60.7799 49.6412 60.8599 49.5532 60.9506 49.4679C61.0412 49.3825 61.1426 49.3079 61.2546 49.2439C61.3666 49.1745 61.4866 49.1212 61.6146 49.0839C61.7479 49.0412 61.8919 49.0199 62.0466 49.0199C62.5106 49.0199 62.8759 49.1612 63.1426 49.4439C63.4092 49.7265 63.5426 50.1159 63.5426 50.6119V53.4919H61.7266V51.1959C61.7266 51.0092 61.6786 50.8652 61.5826 50.7639C61.4866 50.6572 61.3692 50.6039 61.2306 50.6039C61.0919 50.6039 60.9692 50.6572 60.8626 50.7639C60.7612 50.8652 60.7106 51.0092 60.7106 51.1959V53.4919H58.8946V49.1239ZM69.1461 53.6119C68.7087 53.6119 68.2981 53.5425 67.9141 53.4039C67.5354 53.2652 67.2021 53.0679 66.9141 52.8119C66.6314 52.5559 66.4074 52.2492 66.2421 51.8919C66.0821 51.5345 66.0021 51.1399 66.0021 50.7079V50.6919C66.0021 50.2759 66.0794 49.8892 66.2341 49.5319C66.3887 49.1745 66.6047 48.8652 66.8821 48.6039C67.1594 48.3425 67.4847 48.1399 67.8581 47.9959C68.2367 47.8465 68.6474 47.7719 69.0901 47.7719C69.5754 47.7719 70.0101 47.8465 70.3941 47.9959C70.7834 48.1452 71.1301 48.3532 71.4341 48.6199L70.3861 49.8839C70.1994 49.7292 70.0047 49.6092 69.8021 49.5239C69.5994 49.4385 69.3807 49.3959 69.1461 49.3959C68.9647 49.3959 68.7967 49.4305 68.6421 49.4999C68.4874 49.5639 68.3541 49.6545 68.2421 49.7719C68.1301 49.8892 68.0421 50.0279 67.9781 50.1879C67.9194 50.3479 67.8901 50.5239 67.8901 50.7159V50.7319C67.8901 50.9292 67.9221 51.1105 67.9861 51.2759C68.0554 51.4412 68.1487 51.5825 68.2661 51.6999C68.3834 51.8172 68.5221 51.9079 68.6821 51.9719C68.8474 52.0359 69.0287 52.0679 69.2261 52.0679C69.3861 52.0679 69.5141 52.0572 69.6101 52.0359C69.7061 52.0145 69.7914 51.9825 69.8661 51.9399V51.3799H68.9061V50.1799H71.6181V52.7719C71.3141 53.0225 70.9541 53.2252 70.5381 53.3799C70.1221 53.5345 69.6581 53.6119 69.1461 53.6119ZM74.4413 52.0839C74.644 52.0839 74.812 52.0092 74.9453 51.8599C75.0786 51.7105 75.1453 51.5319 75.1453 51.3239V51.3079C75.1453 51.0892 75.076 50.9052 74.9373 50.7559C74.7986 50.6065 74.628 50.5319 74.4253 50.5319C74.2226 50.5319 74.0546 50.6065 73.9213 50.7559C73.788 50.9052 73.7213 51.0839 73.7213 51.2919V51.3079C73.7213 51.5265 73.7906 51.7105 73.9293 51.8599C74.068 52.0092 74.2386 52.0839 74.4413 52.0839ZM74.4253 53.5959C74.068 53.5959 73.7373 53.5372 73.4333 53.4199C73.1346 53.2972 72.876 53.1319 72.6573 52.9239C72.444 52.7159 72.276 52.4759 72.1533 52.2039C72.036 51.9265 71.9773 51.6332 71.9773 51.3239V51.3079C71.9773 50.9985 72.0386 50.7052 72.1613 50.4279C72.284 50.1505 72.452 49.9079 72.6653 49.6999C72.884 49.4919 73.1426 49.3265 73.4413 49.2039C73.7453 49.0812 74.0786 49.0199 74.4413 49.0199C74.7986 49.0199 75.1266 49.0812 75.4253 49.2039C75.7293 49.3212 75.988 49.4839 76.2013 49.6919C76.42 49.8999 76.588 50.1425 76.7053 50.4199C76.828 50.6919 76.8893 50.9825 76.8893 51.2919V51.3079C76.8893 51.6172 76.828 51.9105 76.7053 52.1879C76.5826 52.4652 76.412 52.7079 76.1933 52.9159C75.98 53.1239 75.7213 53.2892 75.4173 53.4119C75.1133 53.5345 74.7826 53.5959 74.4253 53.5959ZM77.3168 47.6519H79.1328V53.4919H77.3168V47.6519ZM80.0274 50.5239H79.5154V49.1239H80.0274C80.0381 48.8839 80.0701 48.6732 80.1234 48.4919C80.1821 48.3105 80.2808 48.1505 80.4194 48.0119C80.5688 47.8625 80.7421 47.7559 80.9394 47.6919C81.1421 47.6279 81.3954 47.5959 81.6994 47.5959C81.9714 47.5959 82.1928 47.6065 82.3634 47.6279C82.5394 47.6492 82.6888 47.6785 82.8114 47.7159V48.8519C82.7208 48.8305 82.6301 48.8145 82.5394 48.8039C82.4488 48.7932 82.3448 48.7879 82.2274 48.7879C81.9448 48.7879 81.8034 48.9052 81.8034 49.1399V49.1719H82.8114V50.5239H81.8434V53.4919H80.0274V50.5239Z" fill="white"/>
</g>
<path d="M34.3488 21L36.0394 24.4255L39.8197 24.9748L37.0843 27.6412L37.73 31.4062L34.3488 29.6286L30.9677 31.4062L31.6134 27.6412L28.878 24.9748L32.6582 24.4255L34.3488 21Z" fill="#FE4C4C"/>
<path d="M59.7387 21L61.4293 24.4255L65.2096 24.9748L62.4742 27.6412L63.1199 31.4062L59.7387 29.6286L56.3576 31.4062L57.0033 27.6412L54.2679 24.9748L58.0481 24.4255L59.7387 21Z" fill="#D9D9D9"/>
<path d="M47.0437 21L48.7342 24.4255L52.5145 24.9748L49.7791 27.6412L50.4248 31.4062L47.0437 29.6286L43.6625 31.4062L44.3082 27.6412L41.5728 24.9748L45.3531 24.4255L47.0437 21Z" fill="#D9D9D9"/>
<path d="M72.4338 21L74.1244 24.4255L77.9047 24.9748L75.1692 27.6412L75.815 31.4062L72.4338 29.6286L69.0526 31.4062L69.6984 27.6412L66.9629 24.9748L70.7432 24.4255L72.4338 21Z" fill="#D9D9D9"/>
<path d="M85.1286 21L86.8192 24.4255L90.5995 24.9748L87.864 27.6412L88.5098 31.4062L85.1286 29.6286L81.7474 31.4062L82.3932 27.6412L79.6578 24.9748L83.438 24.4255L85.1286 21Z" fill="#D9D9D9"/>
<g clip-path="url(#clip1_54_4043)">
<path d="M33.8584 85.8514C33.8584 85.8514 36.7285 89.3141 33.1721 92.7298C30.0119 95.7651 22.7716 92.8816 20.5224 98.2627C20.481 98.3589 20.3411 98.3249 20.3506 98.2185C20.5719 96.0305 21.0864 89.8534 27.3249 84.1452C29.2081 82.4225 34.1238 81.3907 33.8584 85.8514Z" fill="#C1652E"/>
<path d="M26.7033 88.1335C29.5572 86.0412 32.1075 85.6971 33.8589 85.8265C34.1032 81.3968 29.2016 82.4277 27.3246 84.1457C21.0861 89.8538 20.5717 96.0309 20.3499 98.2217C20.344 98.2634 20.3674 98.2951 20.3958 98.3104C21.4878 92.6716 24.1474 90.0074 26.7005 88.1332L26.7033 88.1335Z" fill="#B5602E"/>
<path d="M36.2294 86.5168C35.8695 86.3467 35.4667 86.2244 35.0712 86.1286C34.6699 86.0348 34.2612 85.974 33.8512 85.9414C33.0281 85.8785 32.1967 85.9334 31.3842 86.0903C29.753 86.4088 28.2201 87.1523 26.8552 88.1237C25.4875 89.0946 24.2237 90.2363 23.2234 91.5995C22.2157 92.956 21.4883 94.5139 20.9752 96.1304C20.9697 96.1495 20.9486 96.1607 20.9299 96.1552C20.9112 96.1497 20.9004 96.1283 20.9058 96.1093C21.4065 94.4824 22.125 92.9091 23.1304 91.5296C24.128 90.1461 25.3954 88.9795 26.763 87.9887C28.1314 86.9923 29.6819 86.223 31.3444 85.8806C32.1725 85.7117 33.025 85.6456 33.8683 85.7029C34.29 85.7315 34.7101 85.7911 35.1254 85.884C35.5404 85.9797 35.944 86.0965 36.3436 86.2807C36.4063 86.3094 36.4342 86.3871 36.4057 86.4511C36.3771 86.5151 36.3007 86.5439 36.238 86.5152L36.2298 86.514L36.2294 86.5168Z" fill="#AD592E"/>
<path d="M32.5696 85.9523C32.6008 86.6739 32.5058 87.3832 32.3566 88.082C32.205 88.7776 31.9861 89.458 31.7146 90.1168C31.6442 90.2797 31.5683 90.4419 31.4955 90.6016C31.4592 90.6815 31.4224 90.7641 31.3833 90.8436L31.2582 91.0781C31.175 91.2336 31.094 91.3922 31.0053 91.5468L30.7267 92.0005L30.5888 92.2275L30.4356 92.4439L30.1317 92.8798C29.9216 93.1647 29.6939 93.4357 29.4737 93.7134C29.4604 93.7285 29.4378 93.731 29.4226 93.7203C29.4078 93.7069 29.4055 93.6839 29.416 93.6684C29.6312 93.3871 29.8589 93.1161 30.0659 92.8337L30.3667 92.4001L30.5171 92.1834L30.6523 91.9559L30.9251 91.5043C31.0111 91.3492 31.0889 91.193 31.1721 91.0376L31.2945 90.8027C31.3336 90.7232 31.3673 90.6429 31.4036 90.5631C31.4736 90.4029 31.5495 90.2408 31.6195 90.0806C31.8848 89.4266 32.0975 88.751 32.2428 88.0602C32.385 87.3717 32.4746 86.6616 32.4394 85.9678L32.4402 85.9623C32.4368 85.9278 32.4633 85.8975 32.4999 85.8942C32.5335 85.8933 32.563 85.9202 32.5665 85.9547L32.5696 85.9523Z" fill="#AD592E"/>
<path d="M29.825 86.5097C29.8617 87.1725 29.7835 87.8219 29.6566 88.4615C29.5243 89.1003 29.33 89.7247 29.0854 90.3306C29.0224 90.4804 28.954 90.6294 28.8859 90.7757C28.8531 90.8504 28.8202 90.9251 28.785 90.9966L28.6709 91.2129C28.5951 91.3552 28.5216 91.5006 28.443 91.6425L28.1894 92.0573L28.0624 92.266L27.9229 92.4645L27.6436 92.8642C27.4507 93.126 27.2406 93.3711 27.0403 93.6261C27.027 93.6413 27.0044 93.6437 26.9892 93.6331C26.9744 93.6196 26.9721 93.5966 26.9826 93.5811C27.1807 93.3229 27.388 93.0774 27.5778 92.818L27.8513 92.4203L27.988 92.2214L28.1119 92.0151L28.36 91.5996C28.4386 91.4577 28.509 91.3146 28.5848 91.1723L28.6958 90.9584C28.731 90.8869 28.7612 90.8118 28.794 90.7371C28.8593 90.5905 28.9274 90.4442 28.9877 90.294C29.226 89.6929 29.414 89.0733 29.5397 88.4421C29.6627 87.8104 29.7355 87.1603 29.6948 86.5252L29.6955 86.5197C29.6921 86.4852 29.7186 86.4549 29.7526 86.4512C29.7865 86.4476 29.816 86.4744 29.8191 86.5117L29.825 86.5097Z" fill="#AD592E"/>
<path d="M26.9602 87.9911C27.0108 88.3016 27.0123 88.6051 26.9997 88.9094L26.9869 89.1372L26.9604 89.3631C26.9473 89.5143 26.9175 89.6659 26.8907 89.8152C26.7807 90.4147 26.595 90.9978 26.3626 91.5572L26.1784 91.9733C26.117 92.1119 26.04 92.2427 25.9708 92.3775C25.8374 92.6505 25.671 92.9019 25.5143 93.1631C25.44 93.2943 25.3451 93.414 25.2608 93.5381L24.9994 93.9092C24.8155 94.1468 24.621 94.3799 24.4343 94.6171C24.4211 94.6322 24.3984 94.6347 24.3837 94.6212C24.3689 94.6078 24.3666 94.5848 24.3798 94.5697C24.5665 94.3325 24.7555 94.0986 24.9367 93.8607L25.1922 93.4916C25.2766 93.3675 25.3688 93.2473 25.4403 93.1158C25.5939 92.8569 25.7576 92.6052 25.8878 92.3345C25.9543 92.1994 26.0309 92.0714 26.0896 91.9323L26.2707 91.5187C26.4945 90.9608 26.6735 90.3853 26.7797 89.7938C26.8006 89.6465 26.8328 89.498 26.8427 89.3492L26.8661 89.1258L26.8785 88.9008C26.8899 88.6047 26.883 88.3005 26.8347 88.013L26.8355 88.0075C26.8293 87.9726 26.8508 87.9388 26.8851 87.9323C26.9194 87.9258 26.9521 87.9503 26.9583 87.9852L26.9602 87.9911Z" fill="#AD592E"/>
<path d="M23.7067 90.8999C23.7674 90.9822 23.793 91.0567 23.8201 91.1399C23.8341 91.1787 23.8422 91.2195 23.8503 91.2604C23.8585 91.3012 23.8666 91.342 23.872 91.3825C23.8986 91.5478 23.8976 91.7121 23.8915 91.8728C23.8758 92.1994 23.8164 92.5198 23.7442 92.8326C23.6638 93.1444 23.5698 93.4542 23.4602 93.7561C23.4026 93.9067 23.3506 94.058 23.2876 94.2078L23.1021 94.652C23.0939 94.6707 23.0733 94.6791 23.0549 94.6708C23.0366 94.6626 23.0285 94.6416 23.0367 94.6229L23.214 94.1775C23.2738 94.0301 23.3232 93.8784 23.378 93.7274C23.4821 93.4247 23.5699 93.1197 23.6445 92.81C23.7108 92.4991 23.7667 92.1839 23.7781 91.868C23.781 91.7097 23.7782 91.5534 23.7527 91.3996C23.7469 91.3619 23.7411 91.3243 23.7299 91.2858C23.7214 91.2478 23.7128 91.2097 23.7008 91.1768C23.6803 91.1059 23.6437 91.0298 23.6111 90.9855L23.6041 90.976C23.5831 90.9475 23.5886 90.9086 23.6167 90.8871C23.6448 90.8656 23.683 90.871 23.704 90.8995L23.7067 90.8999Z" fill="#AD592E"/>
<path d="M32.3894 85.8105C32.1771 85.5026 31.8899 85.2323 31.5956 84.9921C31.2958 84.7512 30.975 84.5413 30.6401 84.3521L30.3866 84.2169C30.3009 84.1736 30.2149 84.133 30.1261 84.0921C29.9547 84.0054 29.7747 83.9402 29.5963 83.8639C29.4172 83.7931 29.2333 83.7359 29.0533 83.6706L28.5005 83.5072C28.4818 83.5017 28.4709 83.4803 28.4764 83.4613C28.4819 83.4422 28.5003 83.4306 28.5217 83.4365L29.0807 83.5952C29.2638 83.658 29.4504 83.7156 29.63 83.7836C29.8088 83.8572 29.9915 83.9228 30.1687 84.0074C30.2575 84.0484 30.3467 84.0865 30.4323 84.1299L30.6913 84.2658C31.0321 84.453 31.3615 84.6613 31.6694 84.9034C31.9742 85.1479 32.2649 85.4131 32.499 85.7439C32.52 85.7724 32.5141 85.8141 32.4864 85.8328C32.4583 85.8543 32.4174 85.8485 32.3991 85.8204L32.3945 85.8141L32.3894 85.8105Z" fill="#AD592E"/>
<path d="M29.7677 86.5016C29.4967 86.2931 29.1836 86.1268 28.8592 86.0014C28.5347 85.876 28.1981 85.7772 27.8513 85.7309C27.5072 85.6849 27.1572 85.6608 26.8076 85.6934C26.6318 85.6968 26.4595 85.7347 26.2868 85.7556C26.1129 85.7847 25.9448 85.8318 25.7725 85.8697L25.7698 85.8693C25.7495 85.8749 25.7316 85.8639 25.7262 85.8433C25.7235 85.8231 25.7317 85.8044 25.7547 85.7991C25.9274 85.7584 26.0986 85.709 26.2729 85.6771C26.4491 85.651 26.6241 85.6135 26.8007 85.6045C27.1539 85.5668 27.5128 85.5865 27.8659 85.6281C28.2185 85.6724 28.5641 85.7668 28.8999 85.8909C29.2353 86.0179 29.5519 86.179 29.8462 86.3993C29.8738 86.4203 29.8792 86.4607 29.8585 86.4889C29.8378 86.5172 29.798 86.5229 29.7704 86.502L29.7649 86.5012L29.7677 86.5016Z" fill="#AD592E"/>
<path d="M26.8797 88.0676C26.623 87.9944 26.3393 87.9739 26.0665 87.9749C25.7905 87.9783 25.513 88.0126 25.2412 88.0648C24.9687 88.1225 24.6988 88.2005 24.4372 88.2994C24.3054 88.3459 24.1798 88.4074 24.0499 88.4599C23.922 88.5183 23.7987 88.583 23.6731 88.6445C23.6551 88.6533 23.6337 88.6475 23.6252 88.6292C23.6166 88.611 23.6252 88.5896 23.6405 88.5804C23.7664 88.516 23.8928 88.4489 24.0184 88.3874C24.1487 88.3322 24.2747 88.2678 24.4096 88.219C24.6748 88.1148 24.9454 88.0313 25.2215 87.9685C25.4999 87.9087 25.7809 87.8692 26.0659 87.8615C26.3504 87.8565 26.6353 87.8685 26.9193 87.9457C26.9544 87.9535 26.9715 87.9899 26.964 88.0229C26.9565 88.0558 26.9203 88.0762 26.8879 88.0688L26.8825 88.068L26.8797 88.0676Z" fill="#AD592E"/>
<path d="M23.6417 91.0041C23.4855 90.9677 23.3035 90.9759 23.1362 91.0174C22.9666 91.0557 22.8055 91.1321 22.6533 91.2239C22.5016 91.3129 22.3673 91.4356 22.2385 91.559C22.1764 91.6239 22.1167 91.692 22.0569 91.76L21.8929 91.9749C21.8792 91.9928 21.8594 91.9956 21.8414 91.9846C21.8263 91.9739 21.824 91.9509 21.8345 91.9354L21.997 91.7118C22.0571 91.641 22.1145 91.5698 22.177 91.5021C22.307 91.3703 22.4421 91.2421 22.6008 91.1427C22.7573 91.0402 22.9274 90.9594 23.1095 90.9116C23.2912 90.8665 23.4779 90.8448 23.675 90.8869C23.7105 90.8919 23.7303 90.9288 23.7229 90.9617C23.7177 90.9978 23.6814 91.0182 23.6491 91.0108L23.6409 91.0096L23.6417 91.0041Z" fill="#AD592E"/>
</g>
<g clip-path="url(#clip2_54_4043)">
<path d="M40.4628 87.1197C46.2793 87.3097 52.1269 86.5991 57.7222 85.0258C60.4578 84.2543 63.1352 83.2777 65.7194 82.111C66.9728 81.5448 68.2804 80.9748 69.4251 80.2147C70.4766 79.5155 71.3808 78.5578 71.598 77.2923C71.6912 76.7679 71.664 76.2245 71.47 75.7229C71.3575 75.4302 71.2411 75.1946 70.9345 75.0654C70.628 74.9362 70.2982 74.883 69.9916 74.8222C68.9013 74.6056 67.6247 74.6056 66.8176 75.4758C66.0881 76.2587 66.1346 77.3797 66.6197 78.269C67.1823 79.2951 68.2183 79.8575 69.3824 79.9525C70.7677 80.0703 72.1219 79.5535 73.3907 79.0822C74.6596 78.611 76.0448 78.0638 77.3525 77.5166C79.9872 76.4145 82.5714 75.2022 85.0975 73.8835C90.7006 70.9574 96.0049 67.4992 100.948 63.5926C101.53 63.1327 100.704 62.3309 100.126 62.7869C95.5975 66.3667 90.7433 69.5513 85.6446 72.2989C83.1108 73.6631 80.5149 74.921 77.8724 76.0649C76.5299 76.6463 75.1756 77.1935 73.8059 77.7142C72.4362 78.2348 71.0742 78.8694 69.6385 78.8314C68.5482 78.801 67.2017 77.9612 67.4345 76.7185C67.6906 75.3542 69.7588 75.9091 70.6319 76.1675L70.2826 75.9053C70.756 76.7717 70.368 77.8168 69.7278 78.4932C69.0448 79.2153 68.1368 79.6713 67.256 80.1159C65.2538 81.1268 63.1895 82.0122 61.0709 82.7647C56.8763 84.2581 52.4955 85.2652 48.0565 85.7212C45.5343 85.9796 42.9966 86.067 40.4628 85.9834C39.7139 85.9606 39.7139 87.1007 40.4628 87.1235V87.1197Z" fill="#D9D9D9"/>
</g>
</g>
<mask id="path-49-outside-1_54_4043" maskUnits="userSpaceOnUse" x="17" y="44.0663" width="84.6935" height="37.9337" fill="black">
<rect fill="white" x="17" y="44.0663" width="84.6935" height="37.9337"/>
<path d="M19.8159 60.5269L36.1114 57.6536V69.513L32.4184 70.1641V61.6798L19.8159 63.9019V60.5269ZM18.3618 75.9474L24.8246 74.8078V68.1047L28.5176 67.4535V74.1566L37.6117 72.5531V75.9281L18.3618 79.3224V75.9474ZM51.5991 54.618V65.1414L40.5892 67.0828V56.5593L51.5991 54.618ZM41.5356 68.6268L45.2286 67.9757V71.585L58.0849 69.3181V72.6228L41.5356 75.5409V68.6268ZM47.906 62.5114V58.5504L44.2823 59.1894V63.1503L47.906 62.5114ZM54.0919 53.8972L57.7849 53.246V66.7929L54.0919 67.4441V53.8972ZM60.8778 54.5757L63.9015 54.0425V51.9097L67.4791 51.2789V53.4117L70.4566 52.8867V56.121L60.8778 57.81V54.5757ZM61.4779 63.4698C61.4779 61.9855 61.8549 60.7549 62.6089 59.7782C63.3629 58.8015 64.3554 58.2047 65.5864 57.9876L65.9326 57.9265C67.1636 57.7095 68.1561 57.9564 68.9101 58.6672C69.6641 59.378 70.0411 60.4755 70.0411 61.9599V65.5693C70.0411 67.0537 69.6641 68.2842 68.9101 69.2609C68.1561 70.2376 67.1636 70.8345 65.9326 71.0515L65.5864 71.1126C64.3554 71.3297 63.3629 71.0828 62.6089 70.372C61.8549 69.6612 61.4779 68.5636 61.4779 67.0792V63.4698ZM64.7786 66.7082C64.7786 67.1457 64.8632 67.4589 65.0325 67.6478C65.2171 67.834 65.4479 67.9026 65.7249 67.8538L65.7941 67.8416C66.0711 67.7927 66.2942 67.644 66.4635 67.3954C66.6482 67.1441 66.7405 66.7997 66.7405 66.3622V62.2841C66.7405 61.8466 66.6482 61.5348 66.4635 61.3486C66.2942 61.1597 66.0711 61.0896 65.7941 61.1385L65.7249 61.1507C65.094 61.2619 64.7786 61.755 64.7786 62.63V66.7082ZM71.2644 50.963L74.5651 50.381V57.4357L75.8807 57.2037V50.0552L79.2275 49.4651V69.176L75.8807 69.7662V60.4849L74.5651 60.7169V69.7638L71.2644 70.3458V50.963ZM82.9667 49.0636L93.6073 47.1874V56.2108L89.9142 56.862V51.0026L82.9667 52.2277V49.0636ZM83.9131 59.0452L100.255 56.1637V61.9996L87.7446 64.2055V64.9555L100.601 62.6886V65.3605L84.0516 68.2786V62.4426L96.5617 60.2368V59.4868L83.9131 61.717V59.0452ZM94.2074 52.2613L96.6079 51.838V50.502L94.2074 50.9253V48.3003L96.6079 47.877V46.4005L100.255 45.7574V55.2965L96.6079 55.9395V54.463L94.2074 54.8863V52.2613Z"/>
</mask>
<path d="M19.8159 60.5269L36.1114 57.6536V69.513L32.4184 70.1641V61.6798L19.8159 63.9019V60.5269ZM18.3618 75.9474L24.8246 74.8078V68.1047L28.5176 67.4535V74.1566L37.6117 72.5531V75.9281L18.3618 79.3224V75.9474ZM51.5991 54.618V65.1414L40.5892 67.0828V56.5593L51.5991 54.618ZM41.5356 68.6268L45.2286 67.9757V71.585L58.0849 69.3181V72.6228L41.5356 75.5409V68.6268ZM47.906 62.5114V58.5504L44.2823 59.1894V63.1503L47.906 62.5114ZM54.0919 53.8972L57.7849 53.246V66.7929L54.0919 67.4441V53.8972ZM60.8778 54.5757L63.9015 54.0425V51.9097L67.4791 51.2789V53.4117L70.4566 52.8867V56.121L60.8778 57.81V54.5757ZM61.4779 63.4698C61.4779 61.9855 61.8549 60.7549 62.6089 59.7782C63.3629 58.8015 64.3554 58.2047 65.5864 57.9876L65.9326 57.9265C67.1636 57.7095 68.1561 57.9564 68.9101 58.6672C69.6641 59.378 70.0411 60.4755 70.0411 61.9599V65.5693C70.0411 67.0537 69.6641 68.2842 68.9101 69.2609C68.1561 70.2376 67.1636 70.8345 65.9326 71.0515L65.5864 71.1126C64.3554 71.3297 63.3629 71.0828 62.6089 70.372C61.8549 69.6612 61.4779 68.5636 61.4779 67.0792V63.4698ZM64.7786 66.7082C64.7786 67.1457 64.8632 67.4589 65.0325 67.6478C65.2171 67.834 65.4479 67.9026 65.7249 67.8538L65.7941 67.8416C66.0711 67.7927 66.2942 67.644 66.4635 67.3954C66.6482 67.1441 66.7405 66.7997 66.7405 66.3622V62.2841C66.7405 61.8466 66.6482 61.5348 66.4635 61.3486C66.2942 61.1597 66.0711 61.0896 65.7941 61.1385L65.7249 61.1507C65.094 61.2619 64.7786 61.755 64.7786 62.63V66.7082ZM71.2644 50.963L74.5651 50.381V57.4357L75.8807 57.2037V50.0552L79.2275 49.4651V69.176L75.8807 69.7662V60.4849L74.5651 60.7169V69.7638L71.2644 70.3458V50.963ZM82.9667 49.0636L93.6073 47.1874V56.2108L89.9142 56.862V51.0026L82.9667 52.2277V49.0636ZM83.9131 59.0452L100.255 56.1637V61.9996L87.7446 64.2055V64.9555L100.601 62.6886V65.3605L84.0516 68.2786V62.4426L96.5617 60.2368V59.4868L83.9131 61.717V59.0452ZM94.2074 52.2613L96.6079 51.838V50.502L94.2074 50.9253V48.3003L96.6079 47.877V46.4005L100.255 45.7574V55.2965L96.6079 55.9395V54.463L94.2074 54.8863V52.2613Z" fill="#FF4242"/>
<path d="M19.8159 60.5269V59.5269L18.8311 59.7006V60.7006L19.8159 60.5269ZM36.1114 57.6536L37.0962 57.4799V56.4799L36.1114 56.6536V57.6536ZM36.1114 69.513V70.513L37.0962 70.3393V69.3393L36.1114 69.513ZM32.4184 70.1641L31.4336 70.3378V71.3378L32.4184 71.1641V70.1641ZM32.4184 61.6798L33.4032 61.5061V60.5061L32.4184 60.6798V61.6798ZM19.8159 63.9019L18.8311 64.0756V65.0756L19.8159 64.9019V63.9019ZM18.3618 75.9474V74.9474L17.377 75.121V76.121L18.3618 75.9474ZM24.8246 74.8078V75.8078L25.8094 75.6342V74.6342L24.8246 74.8078ZM24.8246 68.1047V67.1047L23.8398 67.2783V68.2783L24.8246 68.1047ZM28.5176 67.4535L29.5024 67.2799V66.2799L28.5176 66.4535V67.4535ZM28.5176 74.1566L27.5328 74.3303V75.3303L28.5176 75.1566V74.1566ZM37.6117 72.5531L38.5965 72.3794V71.3794L37.6117 71.5531V72.5531ZM37.6117 75.9281V76.9281L38.5965 76.7544V75.7544L37.6117 75.9281ZM18.3618 79.3224L17.377 79.496V80.496L18.3618 80.3224V79.3224ZM19.8159 61.5269L36.1114 58.6536V56.6536L19.8159 59.5269V61.5269ZM35.1266 57.8272V69.6866L37.0962 69.3393V57.4799L35.1266 57.8272ZM36.1114 68.513L32.4184 69.1641V71.1641L36.1114 70.513V68.513ZM33.4032 69.9905V61.5061L31.4336 61.8534V70.3378L33.4032 69.9905ZM32.4184 60.6798L19.8159 62.9019V64.9019L32.4184 62.6798V60.6798ZM20.8007 63.7283V60.3533L18.8311 60.7006V64.0756L20.8007 63.7283ZM18.3618 76.9474L24.8246 75.8078V73.8078L18.3618 74.9474V76.9474ZM25.8094 74.6342V67.931L23.8398 68.2783V74.9815L25.8094 74.6342ZM24.8246 69.1047L28.5176 68.4535V66.4535L24.8246 67.1047V69.1047ZM27.5328 67.6272V74.3303L29.5024 73.983V67.2799L27.5328 67.6272ZM28.5176 75.1566L37.6117 73.5531V71.5531L28.5176 73.1566V75.1566ZM36.6269 72.7267V76.1017L38.5965 75.7544V72.3794L36.6269 72.7267ZM37.6117 74.9281L18.3618 78.3224V80.3224L37.6117 76.9281V74.9281ZM19.3466 79.1487V75.7737L17.377 76.121V79.496L19.3466 79.1487ZM51.5991 54.618L52.5839 54.4444V53.4444L51.5991 53.618V54.618ZM51.5991 65.1414V66.1414L52.5839 65.9678V64.9678L51.5991 65.1414ZM40.5892 67.0828L39.6044 67.2564V68.2564L40.5892 68.0828V67.0828ZM40.5892 56.5593V55.5593L39.6044 55.733V56.733L40.5892 56.5593ZM41.5356 68.6268V67.6268L40.5508 67.8005V68.8005L41.5356 68.6268ZM45.2286 67.9757L46.2134 67.802V66.802L45.2286 66.9757V67.9757ZM45.2286 71.585L44.2438 71.7587V72.7587L45.2286 72.585V71.585ZM58.0849 69.3181L59.0698 69.1445V68.1445L58.0849 68.3181V69.3181ZM58.0849 72.6228V73.6228L59.0698 73.4492V72.4492L58.0849 72.6228ZM41.5356 75.5409L40.5508 75.7146V76.7146L41.5356 76.5409V75.5409ZM47.906 62.5114V63.5114L48.8908 63.3377V62.3377L47.906 62.5114ZM47.906 58.5504L48.8908 58.3768V57.3768L47.906 57.5504V58.5504ZM44.2823 59.1894V58.1894L43.2974 58.3631V59.3631L44.2823 59.1894ZM44.2823 63.1503L43.2974 63.324V64.324L44.2823 64.1503V63.1503ZM54.0919 53.8972V52.8972L53.1071 53.0709V54.0709L54.0919 53.8972ZM57.7849 53.246L58.7697 53.0724V52.0724L57.7849 52.246V53.246ZM57.7849 66.7929V67.7929L58.7697 67.6192V66.6192L57.7849 66.7929ZM54.0919 67.4441L53.1071 67.6177V68.6177L54.0919 68.4441V67.4441ZM50.6143 54.7916V65.3151L52.5839 64.9678V54.4444L50.6143 54.7916ZM51.5991 64.1414L40.5892 66.0828V68.0828L51.5991 66.1414V64.1414ZM41.574 66.9091V56.3857L39.6044 56.733V67.2564L41.574 66.9091ZM40.5892 57.5593L51.5991 55.618V53.618L40.5892 55.5593V57.5593ZM41.5356 69.6268L45.2286 68.9757V66.9757L41.5356 67.6268V69.6268ZM44.2438 68.1493V71.7587L46.2134 71.4114V67.802L44.2438 68.1493ZM45.2286 72.585L58.0849 70.3181V68.3181L45.2286 70.585V72.585ZM57.1001 69.4918V72.7965L59.0698 72.4492V69.1445L57.1001 69.4918ZM58.0849 71.6228L41.5356 74.5409V76.5409L58.0849 73.6228V71.6228ZM42.5204 75.3673V68.4532L40.5508 68.8005V75.7146L42.5204 75.3673ZM48.8908 62.3377V58.3768L46.9212 58.7241V62.685L48.8908 62.3377ZM47.906 57.5504L44.2823 58.1894V60.1894L47.906 59.5504V57.5504ZM43.2974 59.3631V63.324L45.2671 62.9767V59.0158L43.2974 59.3631ZM44.2823 64.1503L47.906 63.5114V61.5114L44.2823 62.1503V64.1503ZM54.0919 54.8972L57.7849 54.246V52.246L54.0919 52.8972V54.8972ZM56.8001 53.4197V66.9665L58.7697 66.6192V53.0724L56.8001 53.4197ZM57.7849 65.7929L54.0919 66.4441V68.4441L57.7849 67.7929V65.7929ZM55.0767 67.2704V53.7236L53.1071 54.0709V67.6177L55.0767 67.2704ZM60.8778 54.5757V53.5757L59.893 53.7493V54.7493L60.8778 54.5757ZM63.9015 54.0425V55.0425L64.8863 54.8689V53.8689L63.9015 54.0425ZM63.9015 51.9097V50.9097L62.9167 51.0833V52.0833L63.9015 51.9097ZM67.4791 51.2789L68.4639 51.1052V50.1052L67.4791 50.2789V51.2789ZM67.4791 53.4117L66.4943 53.5853V54.5853L67.4791 54.4117V53.4117ZM70.4566 52.8867L71.4414 52.713V51.713L70.4566 51.8867V52.8867ZM70.4566 56.121V57.121L71.4414 56.9474V55.9474L70.4566 56.121ZM60.8778 57.81L59.893 57.9837V58.9837L60.8778 58.81V57.81ZM65.0325 67.6478L64.2581 68.4021L64.2711 68.4166L64.2847 68.4304L65.0325 67.6478ZM66.4635 67.3954L65.7158 66.8765L65.7021 66.8951L65.6891 66.9142L66.4635 67.3954ZM66.4635 61.3486L65.6891 62.1029L65.7021 62.1174L65.7158 62.1312L66.4635 61.3486ZM71.2644 50.963V49.963L70.2796 50.1366V51.1366L71.2644 50.963ZM74.5651 50.381L75.5499 50.2073V49.2073L74.5651 49.381V50.381ZM74.5651 57.4357L73.5803 57.6093V58.6093L74.5651 58.4357V57.4357ZM75.8807 57.2037V58.2037L76.8655 58.03V57.03L75.8807 57.2037ZM75.8807 50.0552V49.0552L74.8959 49.2289V50.2289L75.8807 50.0552ZM79.2275 49.4651L80.2123 49.2915V48.2915L79.2275 48.4651V49.4651ZM79.2275 69.176V70.176L80.2123 70.0024V69.0024L79.2275 69.176ZM75.8807 69.7662L74.8959 69.9398V70.9398L75.8807 70.7662V69.7662ZM75.8807 60.4849L76.8655 60.3113V59.3113L75.8807 59.4849V60.4849ZM74.5651 60.7169V59.7169L73.5803 59.8906V60.8906L74.5651 60.7169ZM74.5651 69.7638V70.7638L75.5499 70.5901V69.5901L74.5651 69.7638ZM71.2644 70.3458L70.2796 70.5194V71.5194L71.2644 71.3458V70.3458ZM60.8778 55.5757L63.9015 55.0425V53.0425L60.8778 53.5757V55.5757ZM64.8863 53.8689V51.736L62.9167 52.0833V54.2162L64.8863 53.8689ZM63.9015 52.9097L67.4791 52.2789V50.2789L63.9015 50.9097V52.9097ZM66.4943 51.4525V53.5853L68.4639 53.238V51.1052L66.4943 51.4525ZM67.4791 54.4117L70.4566 53.8867V51.8867L67.4791 52.4117V54.4117ZM69.4718 53.0603V56.2947L71.4414 55.9474V52.713L69.4718 53.0603ZM70.4566 55.121L60.8778 56.81V58.81L70.4566 57.121V55.121ZM61.8626 57.6364V54.402L59.893 54.7493V57.9837L61.8626 57.6364ZM62.4627 63.2962C62.4627 61.983 62.7935 61.0273 63.3382 60.3216L61.8796 59.2348C60.9164 60.4826 60.4931 61.9879 60.4931 63.6435L62.4627 63.2962ZM63.3382 60.3216C63.8862 59.6118 64.6031 59.161 65.5864 58.9876V56.9876C64.1078 57.2483 62.8396 57.9913 61.8796 59.2348L63.3382 60.3216ZM65.5864 58.9876L65.9326 58.9265V56.9265L65.5864 56.9876V58.9876ZM65.9326 58.9265C66.916 58.7531 67.6328 58.9511 68.1808 59.4677L69.6394 57.8666C68.6795 56.9616 67.4113 56.6658 65.9326 56.9265V58.9265ZM68.1808 59.4677C68.7256 59.9813 69.0563 60.8204 69.0563 62.1336L71.0259 61.7863C71.0259 60.1307 70.6027 58.7746 69.6394 57.8666L68.1808 59.4677ZM69.0563 62.1336V65.7429L71.0259 65.3956V61.7863L69.0563 62.1336ZM69.0563 65.7429C69.0563 67.0561 68.7256 68.0118 68.1808 68.7175L69.6394 69.8043C70.6027 68.5566 71.0259 67.0512 71.0259 65.3956L69.0563 65.7429ZM68.1808 68.7175C67.6328 69.4274 66.916 69.8781 65.9326 70.0515V72.0515C67.4113 71.7908 68.6795 71.0478 69.6394 69.8043L68.1808 68.7175ZM65.9326 70.0515L65.5864 70.1126V72.1126L65.9326 72.0515V70.0515ZM65.5864 70.1126C64.6031 70.286 63.8862 70.088 63.3382 69.5714L61.8796 71.1726C62.8396 72.0776 64.1078 72.3733 65.5864 72.1126V70.1126ZM63.3382 69.5714C62.7935 69.0578 62.4627 68.2187 62.4627 66.9056L60.4931 67.2529C60.4931 68.9085 60.9164 70.2645 61.8796 71.1726L63.3382 69.5714ZM62.4627 66.9056V63.2962L60.4931 63.6435V67.2529L62.4627 66.9056ZM63.7938 66.8818C63.7938 67.423 63.8939 67.9957 64.2581 68.4021L65.8068 66.8934C65.8218 66.9101 65.8101 66.907 65.7947 66.8498C65.7789 66.7911 65.7634 66.6911 65.7634 66.5345L63.7938 66.8818ZM64.2847 68.4304C64.6512 68.8 65.1525 68.9547 65.7249 68.8538V66.8538C65.7198 66.8547 65.7221 66.8538 65.7302 66.8541C65.7385 66.8544 65.7492 66.8559 65.7605 66.8593C65.7718 66.8627 65.7799 66.8668 65.7842 66.8694C65.7883 66.8719 65.7867 66.8717 65.7802 66.8651L64.2847 68.4304ZM65.7249 68.8538L65.7941 68.8416V66.8416L65.7249 66.8538V68.8538ZM65.7941 68.8416C66.3694 68.7401 66.8795 68.403 67.2379 67.8767L65.6891 66.9142C65.6873 66.9169 65.6906 66.9115 65.7004 66.9016C65.7105 66.8914 65.7243 66.8796 65.7411 66.8684C65.7781 66.8437 65.802 66.8402 65.7941 66.8416V68.8416ZM67.2112 67.9144C67.611 67.3704 67.7253 66.7457 67.7253 66.1886L65.7557 66.5359C65.7557 66.6864 65.7394 66.7845 65.7243 66.8409C65.71 66.8943 65.7004 66.8975 65.7158 66.8765L67.2112 67.9144ZM67.7253 66.1886V62.1104L65.7557 62.4577V66.5359L67.7253 66.1886ZM67.7253 62.1104C67.7253 61.5533 67.611 60.969 67.2112 60.5659L65.7158 62.1312C65.7004 62.1156 65.71 62.1155 65.7243 62.1638C65.7394 62.2148 65.7557 62.3072 65.7557 62.4577L67.7253 62.1104ZM67.2379 60.5942C66.8795 60.1943 66.3694 60.037 65.7941 60.1385V62.1385C65.802 62.1371 65.7781 62.142 65.7411 62.1304C65.7243 62.1251 65.7105 62.1181 65.7004 62.1115C65.6906 62.105 65.6873 62.1008 65.6891 62.1029L67.2379 60.5942ZM65.7941 60.1385L65.7249 60.1507V62.1507L65.7941 62.1385V60.1385ZM65.7249 60.1507C65.1601 60.2503 64.5989 60.5619 64.2205 61.1533C63.8841 61.6793 63.7938 62.2737 63.7938 62.8037L65.7634 62.4564C65.7634 62.2954 65.7782 62.1842 65.7944 62.1138C65.8105 62.0441 65.8235 62.033 65.8098 62.0546C65.7917 62.0828 65.7586 62.1185 65.7189 62.1439C65.6848 62.1657 65.6785 62.1589 65.7249 62.1507V60.1507ZM63.7938 62.8037V66.8818L65.7634 66.5345V62.4564L63.7938 62.8037ZM71.2644 51.963L74.5651 51.381V49.381L71.2644 49.963V51.963ZM73.5803 50.5546V57.6093L75.5499 57.262V50.2073L73.5803 50.5546ZM74.5651 58.4357L75.8807 58.2037V56.2037L74.5651 56.4357V58.4357ZM76.8655 57.03V49.8816L74.8959 50.2289V57.3773L76.8655 57.03ZM75.8807 51.0552L79.2275 50.4651V48.4651L75.8807 49.0552V51.0552ZM78.2427 49.6388V69.3497L80.2123 69.0024V49.2915L78.2427 49.6388ZM79.2275 68.176L75.8807 68.7662V70.7662L79.2275 70.176V68.176ZM76.8655 69.5925V60.3113L74.8959 60.6586V69.9398L76.8655 69.5925ZM75.8807 59.4849L74.5651 59.7169V61.7169L75.8807 61.4849V59.4849ZM73.5803 60.8906V69.9374L75.5499 69.5901V60.5433L73.5803 60.8906ZM74.5651 68.7638L71.2644 69.3458V71.3458L74.5651 70.7638V68.7638ZM72.2493 70.1721V50.7893L70.2796 51.1366V70.5194L72.2493 70.1721ZM82.9667 49.0636V48.0636L81.9819 48.2372V49.2372L82.9667 49.0636ZM93.6073 47.1874L94.5921 47.0137V46.0137L93.6073 46.1874V47.1874ZM93.6073 56.2108V57.2108L94.5921 57.0372V56.0372L93.6073 56.2108ZM89.9142 56.862L88.9294 57.0356V58.0356L89.9142 57.862V56.862ZM89.9142 51.0026L90.8991 50.829V49.829L89.9142 50.0026V51.0026ZM82.9667 52.2277L81.9819 52.4013V53.4013L82.9667 53.2277V52.2277ZM83.9131 59.0452V58.0452L82.9283 58.2188V59.2188L83.9131 59.0452ZM100.255 56.1637L101.24 55.99V54.99L100.255 55.1637V56.1637ZM100.255 61.9996V62.9996L101.24 62.826V61.826L100.255 61.9996ZM87.7446 64.2055V63.2055L86.7598 63.3792V64.3792L87.7446 64.2055ZM87.7446 64.9555L86.7598 65.1292V66.1292L87.7446 65.9555V64.9555ZM100.601 62.6886L101.586 62.5149V61.5149L100.601 61.6886V62.6886ZM100.601 65.3605V66.3605L101.586 66.1868V65.1868L100.601 65.3605ZM84.0516 68.2786L83.0668 68.4522V69.4522L84.0516 69.2786V68.2786ZM84.0516 62.4426V61.4426L83.0668 61.6163V62.6163L84.0516 62.4426ZM96.5617 60.2368V61.2368L97.5465 61.0631V60.0631L96.5617 60.2368ZM96.5617 59.4868L97.5465 59.3131V58.3131L96.5617 58.4868V59.4868ZM83.9131 61.717L82.9283 61.8907V62.8907L83.9131 62.717V61.717ZM94.2074 52.2613V51.2613L93.2226 51.4349V52.4349L94.2074 52.2613ZM96.6079 51.838V52.838L97.5927 52.6643V51.6643L96.6079 51.838ZM96.6079 50.502L97.5927 50.3284V49.3284L96.6079 49.502V50.502ZM94.2074 50.9253L93.2226 51.099V52.099L94.2074 51.9253V50.9253ZM94.2074 48.3003V47.3003L93.2226 47.474V48.474L94.2074 48.3003ZM96.6079 47.877V48.877L97.5927 48.7034V47.7034L96.6079 47.877ZM96.6079 46.4005V45.4005L95.6231 45.5741V46.5741L96.6079 46.4005ZM100.255 45.7574L101.24 45.5838V44.5838L100.255 44.7574V45.7574ZM100.255 55.2965V56.2965L101.24 56.1229V55.1229L100.255 55.2965ZM96.6079 55.9395L95.6231 56.1132V57.1132L96.6079 56.9395V55.9395ZM96.6079 54.463L97.5927 54.2893V53.2893L96.6079 53.463V54.463ZM94.2074 54.8863L93.2226 55.0599V56.0599L94.2074 55.8863V54.8863ZM82.9667 50.0636L93.6073 48.1874V46.1874L82.9667 48.0636V50.0636ZM92.6225 47.361V56.3845L94.5921 56.0372V47.0137L92.6225 47.361ZM93.6073 55.2108L89.9142 55.862V57.862L93.6073 57.2108V55.2108ZM90.8991 56.6884V50.829L88.9294 51.1763V57.0356L90.8991 56.6884ZM89.9142 50.0026L82.9667 51.2277V53.2277L89.9142 52.0026V50.0026ZM83.9515 52.054V48.8899L81.9819 49.2372V52.4013L83.9515 52.054ZM83.9131 60.0452L100.255 57.1637V55.1637L83.9131 58.0452V60.0452ZM99.2699 56.3373V62.1733L101.24 61.826V55.99L99.2699 56.3373ZM100.255 60.9996L87.7446 63.2055V65.2055L100.255 62.9996V60.9996ZM86.7598 64.3792V65.1292L88.7294 64.7819V64.0319L86.7598 64.3792ZM87.7446 65.9555L100.601 63.6886V61.6886L87.7446 63.9555V65.9555ZM99.6161 62.8622V65.5341L101.586 65.1868V62.5149L99.6161 62.8622ZM100.601 64.3605L84.0516 67.2786V69.2786L100.601 66.3605V64.3605ZM85.0364 68.1049V62.269L83.0668 62.6163V68.4522L85.0364 68.1049ZM84.0516 63.4426L96.5617 61.2368V59.2368L84.0516 61.4426V63.4426ZM97.5465 60.0631V59.3131L95.5769 59.6604V60.4104L97.5465 60.0631ZM96.5617 58.4868L83.9131 60.717V62.717L96.5617 60.4868V58.4868ZM84.8979 61.5434V58.8715L82.9283 59.2188V61.8907L84.8979 61.5434ZM94.2074 53.2613L96.6079 52.838V50.838L94.2074 51.2613V53.2613ZM97.5927 51.6643V50.3284L95.6231 50.6757V52.0116L97.5927 51.6643ZM96.6079 49.502L94.2074 49.9253V51.9253L96.6079 51.502V49.502ZM95.1922 50.7517V48.1267L93.2226 48.474V51.099L95.1922 50.7517ZM94.2074 49.3003L96.6079 48.877V46.877L94.2074 47.3003V49.3003ZM97.5927 47.7034V46.2268L95.6231 46.5741V48.0507L97.5927 47.7034ZM96.6079 47.4005L100.255 46.7574V44.7574L96.6079 45.4005V47.4005ZM99.2699 45.9311V55.4702L101.24 55.1229V45.5838L99.2699 45.9311ZM100.255 54.2965L96.6079 54.9395V56.9395L100.255 56.2965V54.2965ZM97.5927 55.7659V54.2893L95.6231 54.6366V56.1132L97.5927 55.7659ZM96.6079 53.463L94.2074 53.8863V55.8863L96.6079 55.463V53.463ZM95.1922 54.7126V52.0876L93.2226 52.4349V55.0599L95.1922 54.7126Z" fill="white" fill-opacity="0.7" mask="url(#path-49-outside-1_54_4043)"/>
<g clip-path="url(#clip3_54_4043)">
<path d="M98.4381 73.08C93.3226 89.8673 77.8725 102.067 59.6034 102.067C46.0308 102.067 34.0147 95.3309 26.6353 84.9875" stroke="#FF4242" stroke-width="4" stroke-miterlimit="10"/>
<path d="M20.5674 49.4851C25.4707 32.3508 41.0895 19.8208 59.6035 19.8208C72.7407 19.8208 84.4194 26.1271 91.8478 35.9197" stroke="#FF4242" stroke-width="4" stroke-miterlimit="10"/>
</g>
<defs>
<clipPath id="clip0_54_4043">
<rect width="76.3824" height="66.4912" fill="white" transform="translate(20.9033 38)"/>
</clipPath>
<clipPath id="clip1_54_4043">
<rect width="14.2874" height="17.0349" fill="white" transform="translate(22.6926 81.4333) rotate(8.0732)"/>
</clipPath>
<clipPath id="clip2_54_4043">
<rect width="61.25" height="24.5" fill="white" transform="translate(39.9001 62.65)"/>
</clipPath>
<clipPath id="clip3_54_4043">
<rect width="81" height="94" fill="white" transform="translate(19 15)"/>
</clipPath>
</defs>
</svg>
