<svg width="700" height="310" viewBox="0 0 700 310" fill="none" xmlns="http://www.w3.org/2000/svg">
<path d="M404.743 112.504H432.986L431.255 117.82H403.013L404.743 112.504ZM422.646 100.88L409.417 109.493L407.246 105.005L420.97 96.0607L422.767 90.5134H429.238L427.441 96.0607L435.356 105.005L430.318 109.559L422.646 100.88Z" fill="#FFCD4B"/>
<path d="M435.764 112.504H464.006L462.276 117.82H434.033L435.764 112.504ZM459.608 101.674H459.443L457.227 105.038H440.195L441.827 100.02H460.137L461.427 96.0607H442.554L444.274 90.7781H469.617L463.588 109.328H457.117L459.608 101.674Z" fill="#FFCD4B"/>
<path d="M472.594 96.7556H483.452L483.882 95.4322H472.858L474.413 90.6459H491.907L488.424 101.376H478.888L478.833 98.3106H478.569L477.124 102.766H488.942L487.376 107.585H469.099L472.616 96.7556H472.594ZM471.723 109.306H478.161L476.529 114.324H494.288L492.635 119.408H468.449L471.734 109.306H471.723ZM495.313 90.2268H501.784L494.972 111.192H488.501L495.313 90.2268Z" fill="#FFCD4B"/>
<path d="M501.85 100.031H510.956L512.025 96.7335H518.496L517.427 100.031H530.104L528.693 104.387H500.45L501.861 100.031H501.85ZM499.811 110.795H518.684L519.047 109.67H500.043L501.41 105.479H526.885L523.953 114.489H505.08L504.695 115.68H524.03L522.641 119.97H496.835L499.811 110.795ZM506.315 90.7561H531.394L528.803 98.7406H522.365L523.446 95.4101H504.805L506.315 90.7561Z" fill="#FFCD4B"/>
<path d="M528.814 112.504H557.057L555.326 117.82H527.083L528.814 112.504ZM532.772 103.163H539.772L539.871 102.865L536.817 101.707L538.107 96.0937H535.373L537.104 90.7781H562.91L561.18 96.0937H557.917L555.624 103.163H559.184L557.498 108.346H531.096L532.783 103.163H532.772ZM542.836 103.163H549.34L551.633 96.0937H544.402L542.836 103.163Z" fill="#FFCD4B"/>
<path d="M566.184 112.57L577.55 99.4354L580.339 90.8553H586.81L584.021 99.4354L586.843 112.57L580.78 115.603L578.895 105.269L570.296 115.603L566.195 112.57H566.184ZM595.32 90.2157H601.791L598.66 99.8545H601.328L599.597 105.17H596.929L592.2 119.728H585.729L595.32 90.2157Z" fill="#FFCD4B"/>
<path d="M601.228 102.204L609.794 97.2519L610.235 95.8954H604.425L606.134 90.6459H624.18L622.482 95.8623H616.706L616.254 97.2519L621.821 101.542L617.389 106.03L611.635 101.509L602.761 106.692L601.217 102.204H601.228ZM602.562 118.415C600.809 117.29 600.28 115.68 600.975 113.563C601.669 111.445 603.246 109.835 605.715 108.71C608.195 107.585 611.414 107.023 615.372 107.023C619.329 107.023 622.184 107.585 623.937 108.71C625.679 109.835 626.219 111.445 625.524 113.563C624.83 115.68 623.254 117.29 620.784 118.415C618.304 119.54 615.085 120.103 611.128 120.103C607.17 120.103 604.315 119.54 602.562 118.415ZM617.157 114.721C618.26 114.456 618.888 114.07 619.054 113.563C619.219 113.056 618.844 112.659 617.918 112.372C616.992 112.107 615.603 111.975 613.762 111.975C611.921 111.975 610.499 112.107 609.375 112.372C608.239 112.681 607.6 113.078 607.435 113.563C607.269 114.048 607.666 114.456 608.614 114.721C609.463 115.008 610.841 115.151 612.737 115.151C614.633 115.151 616.132 115.008 617.169 114.721H617.157ZM626.329 90.2268H632.8L631.158 95.2778H633.825L632.095 100.593H629.427L627.454 106.67H620.983L626.318 90.2268H626.329Z" fill="#FFCD4B"/>
<path d="M637.717 90.6459H644.187L641.31 99.4906H652.731L651.033 104.707H633.153L637.717 90.6459ZM635.17 107.321H659.025L654.991 119.739H631.135L635.17 107.321ZM650.217 114.522L650.857 112.537L639.921 112.57L639.293 114.522H650.217ZM658.11 90.2268H664.581L659.455 106.008H652.984L658.11 90.2268Z" fill="#FFCD4B"/>
<path d="M674.05 106.494C673.455 105.876 672.959 105.457 672.551 105.225C672.143 104.994 671.68 104.883 671.184 104.883C669.663 104.883 668.307 106.03 667.094 108.313L662.42 106.328C663.534 104.189 664.945 102.545 666.654 101.376C668.362 100.207 670.203 99.6229 672.187 99.6229C673.29 99.6229 674.293 99.7994 675.197 100.152C676.101 100.505 677.016 101.046 677.92 101.773C678.625 102.369 679.187 102.788 679.606 103.031C680.025 103.273 680.455 103.395 680.885 103.395C682.539 103.395 683.806 102.369 684.688 100.329L689.362 102.314C688.304 104.365 686.915 105.931 685.195 107.023C683.476 108.115 681.58 108.655 679.485 108.655C677.391 108.655 675.539 107.938 674.039 106.505L674.05 106.494Z" fill="#FFCD4B"/>
</svg>
