<svg width="120" height="120" viewBox="0 0 120 120" fill="none" xmlns="http://www.w3.org/2000/svg">
<rect x="1.5" y="1.5" width="117" height="117" rx="58.5" fill="#F5F5F5"/>
<rect x="1.5" y="1.5" width="117" height="117" rx="58.5" stroke="#E8E8E8" stroke-width="3"/>
<path d="M8.48949 93.6833H110.511L116.667 119H2.33337L8.48949 93.6833Z" fill="#90C661"/>
<g clip-path="url(#clip0_333_1413)">
<path d="M93.2064 40.601H25.1804V104.37H93.2064V40.601Z" fill="#7CE5E3"/>
<path d="M94.4024 38H23.9844V41.0153H94.4024V38Z" fill="#18C2C6"/>
<path d="M87.7015 66.3334H97.2855V69.034C94.6385 70.6662 90.3485 70.6662 87.7015 69.034V66.3334Z" fill="#5034D6"/>
<path d="M78.1176 66.3334H87.7016V69.034C85.0545 70.6662 80.7646 70.6662 78.1176 69.034V66.3334Z" fill="#6D5BF4"/>
<path d="M68.5272 66.3334H78.1144V69.034C75.4674 70.6662 71.1774 70.6662 68.5272 69.034V66.3334Z" fill="#5034D6"/>
<path d="M58.9432 66.3334H68.5272V69.034C65.8802 70.6662 61.5902 70.6662 58.9432 69.034V66.3334Z" fill="#6D5BF4"/>
<path d="M49.6237 66.3334H59.2077V69.034C56.5606 70.6662 52.2707 70.6662 49.6237 69.034V66.3334Z" fill="#5034D6"/>
<path d="M40.0396 66.3334H49.6236V69.034C46.9765 70.6662 42.6866 70.6662 40.0396 69.034V66.3334Z" fill="#6D5BF4"/>
<path d="M30.4493 66.3334H40.0333V69.034C37.3895 70.6662 33.0964 70.6662 30.4493 69.034V66.3334Z" fill="#5034D6"/>
<path d="M84.2645 57.5524L87.6386 66.3334H78.0168L75.4485 57.5524H84.2645Z" fill="#7869FE"/>
<path d="M75.4485 57.5524L78.0168 66.3334H68.4171L66.9252 57.5524H75.4485Z" fill="#563EDD"/>
<path d="M66.9252 57.5524L68.4171 66.3334H59.0439V57.5524H66.9252Z" fill="#7869FE"/>
<path d="M93.3733 57.5524L97.2855 66.3334H87.6386L84.2645 57.5524H93.3733Z" fill="#563EDD"/>
<path d="M59.0439 57.5524V66.3334H49.674L51.1658 57.5524H59.0439Z" fill="#563EDD"/>
<path d="M42.6426 57.5524L40.0711 66.3334H30.4493L33.8266 57.5524H42.6426Z" fill="#563EDD"/>
<path d="M20.9031 66.3334H30.4871V69.034C27.8432 70.6662 23.5501 70.6662 20.9031 69.034V66.3334Z" fill="#6D5BF4"/>
<path d="M33.858 57.5524L30.5248 66.3334H20.9031L25.5519 57.5524H33.858Z" fill="#7869FE"/>
<path d="M51.1658 57.5524L49.6739 66.3334H40.071L42.6425 57.5524H51.1658Z" fill="#7869FE"/>
<path d="M43.6654 75.0988H64.3914V99.5354H59.1541H30.3391V75.0988H43.6654Z" fill="#18C2C6"/>
<path d="M43.9079 76.2451H63.2868V98.3891H58.3893H31.4408V76.2451H43.9079Z" fill="#F2F4FF"/>
<path d="M63.1671 77.8306L51.21 92.8601" stroke="#C2E2EC" stroke-linecap="round" stroke-linejoin="round"/>
<path d="M56.9478 80.3163L44.9906 95.3458" stroke="#C2E2EC" stroke-linecap="round" stroke-linejoin="round"/>
<path d="M88.9574 75.0988H68.9081V104.37H88.9574V75.0988Z" fill="#18C2C6"/>
<path d="M87.6606 76.3852H70.2017V104.37H87.6606V76.3852Z" fill="#F2F4FF"/>
<path d="M78.9078 76.4044L78.9078 104.491" stroke="#C2E2EC" stroke-linecap="round" stroke-linejoin="round"/>
<path d="M77.2803 87.5709C76.9719 87.5709 76.7201 87.8201 76.7201 88.1254V92.0315C76.7201 92.3368 76.9719 92.586 77.2803 92.586C77.5888 92.586 77.8406 92.3368 77.8406 92.0315V88.1254C77.8406 87.8201 77.5888 87.5709 77.2803 87.5709Z" fill="#563EDD"/>
<path d="M80.5096 87.5709C80.2011 87.5709 79.9493 87.8201 79.9493 88.1254V92.0315C79.9493 92.3368 80.2011 92.586 80.5096 92.586C80.818 92.586 81.0698 92.3368 81.0698 92.0315V88.1254C81.0698 87.8201 80.818 87.5709 80.5096 87.5709Z" fill="#563EDD"/>
<path d="M87.6984 44.7812H30.3423V53.7678H87.6984V44.7812Z" fill="#18C2C6"/>
<path d="M38.4439 53.5959C37.8733 53.5959 37.3399 53.5186 36.8439 53.3639C36.3533 53.2039 35.9293 52.9666 35.5719 52.6519L36.5719 51.4599C36.8759 51.6946 37.1959 51.8626 37.5319 51.9639C37.8679 52.0652 38.2013 52.1159 38.5319 52.1159C38.7026 52.1159 38.8253 52.0946 38.8999 52.0519C38.9746 52.0092 39.0119 51.9506 39.0119 51.8759V51.8599C39.0119 51.7799 38.9559 51.7132 38.8439 51.6599C38.7373 51.6066 38.5346 51.5506 38.2359 51.4919C37.9213 51.4279 37.6199 51.3532 37.3319 51.2679C37.0493 51.1826 36.7986 51.0732 36.5799 50.9399C36.3666 50.8066 36.1959 50.6412 36.0679 50.4439C35.9399 50.2412 35.8759 49.9906 35.8759 49.6919V49.6759C35.8759 49.4092 35.9266 49.1612 36.0279 48.9319C36.1346 48.7026 36.2866 48.5026 36.4839 48.3319C36.6866 48.1612 36.9346 48.0279 37.2279 47.9319C37.5266 47.8359 37.8679 47.7879 38.2519 47.7879C38.7959 47.7879 39.2706 47.8519 39.6759 47.9799C40.0866 48.1079 40.4546 48.2999 40.7799 48.5559L39.8679 49.8199C39.6013 49.6279 39.3186 49.4892 39.0199 49.4039C38.7266 49.3132 38.4493 49.2679 38.1879 49.2679C38.0493 49.2679 37.9453 49.2892 37.8759 49.3319C37.8119 49.3746 37.7799 49.4306 37.7799 49.4999V49.5159C37.7799 49.5532 37.7906 49.5879 37.8119 49.6199C37.8333 49.6519 37.8706 49.6839 37.9239 49.7159C37.9826 49.7426 38.0599 49.7692 38.1559 49.7959C38.2519 49.8226 38.3746 49.8492 38.5239 49.8759C38.8813 49.9399 39.2066 50.0172 39.4999 50.1079C39.7933 50.1986 40.0439 50.3159 40.2519 50.4599C40.4653 50.5986 40.6279 50.7666 40.7399 50.9639C40.8573 51.1612 40.9159 51.4012 40.9159 51.6839V51.6999C40.9159 51.9932 40.8573 52.2572 40.7399 52.4919C40.6226 52.7266 40.4573 52.9266 40.2439 53.0919C40.0306 53.2519 39.7693 53.3772 39.4599 53.4679C39.1559 53.5532 38.8173 53.5959 38.4439 53.5959ZM43.4604 53.6039C43.1298 53.6039 42.8231 53.5426 42.5404 53.4199C42.2578 53.2972 42.0151 53.1319 41.8124 52.9239C41.6098 52.7159 41.4498 52.4759 41.3324 52.2039C41.2204 51.9266 41.1644 51.6359 41.1644 51.3319V51.3159C41.1644 51.0119 41.2204 50.7212 41.3324 50.4439C41.4498 50.1666 41.6124 49.9239 41.8204 49.7159C42.0284 49.5026 42.2791 49.3346 42.5724 49.2119C42.8658 49.0892 43.1911 49.0279 43.5484 49.0279C44.0338 49.0279 44.4418 49.1399 44.7724 49.3639C45.1031 49.5879 45.3538 49.8786 45.5244 50.2359L44.2204 50.9719C44.1458 50.8332 44.0578 50.7266 43.9564 50.6519C43.8551 50.5719 43.7298 50.5319 43.5804 50.5319C43.3884 50.5319 43.2284 50.6066 43.1004 50.7559C42.9724 50.8999 42.9084 51.0812 42.9084 51.2999V51.3159C42.9084 51.5452 42.9698 51.7346 43.0924 51.8839C43.2204 52.0279 43.3751 52.0999 43.5564 52.0999C43.7164 52.0999 43.8471 52.0626 43.9484 51.9879C44.0498 51.9079 44.1458 51.7986 44.2364 51.6599L45.5564 52.4119C45.3591 52.7799 45.0898 53.0706 44.7484 53.2839C44.4124 53.4972 43.9831 53.6039 43.4604 53.6039ZM45.8395 49.1239H47.6555V50.0039C47.7782 49.7106 47.9462 49.4759 48.1595 49.2999C48.3728 49.1239 48.6608 49.0439 49.0235 49.0599V50.9879H48.8315C48.4475 50.9879 48.1542 51.0999 47.9515 51.3239C47.7542 51.5426 47.6555 51.8946 47.6555 52.3799V53.4919H45.8395V49.1239ZM52.0597 50.9319C52.0384 50.7239 51.9717 50.5639 51.8597 50.4519C51.7477 50.3346 51.6117 50.2759 51.4517 50.2759C51.297 50.2759 51.169 50.3346 51.0677 50.4519C50.9664 50.5692 50.9024 50.7292 50.8757 50.9319H52.0597ZM51.5957 53.5959C51.2384 53.5959 50.9104 53.5426 50.6117 53.4359C50.3184 53.3239 50.065 53.1692 49.8517 52.9719C49.6437 52.7746 49.481 52.5372 49.3637 52.2599C49.2517 51.9826 49.1957 51.6732 49.1957 51.3319V51.3159C49.1957 50.9906 49.2517 50.6892 49.3637 50.4119C49.4757 50.1292 49.6304 49.8866 49.8277 49.6839C50.025 49.4759 50.2597 49.3132 50.5317 49.1959C50.809 49.0786 51.113 49.0199 51.4437 49.0199C51.833 49.0199 52.169 49.0839 52.4517 49.2119C52.7397 49.3346 52.977 49.5052 53.1637 49.7239C53.3504 49.9426 53.489 50.1986 53.5797 50.4919C53.6704 50.7852 53.7157 51.0972 53.7157 51.4279C53.7157 51.4759 53.7157 51.5266 53.7157 51.5799C53.7157 51.6332 53.713 51.6839 53.7077 51.7319H50.8997C50.9637 51.9239 51.0677 52.0706 51.2117 52.1719C51.3557 52.2679 51.5264 52.3159 51.7237 52.3159C51.889 52.3159 52.041 52.2786 52.1797 52.2039C52.3237 52.1292 52.4677 52.0172 52.6117 51.8679L53.5877 52.6439C53.369 52.9266 53.0997 53.1559 52.7797 53.3319C52.465 53.5079 52.0704 53.5959 51.5957 53.5959ZM56.8409 50.9319C56.8196 50.7239 56.7529 50.5639 56.6409 50.4519C56.5289 50.3346 56.3929 50.2759 56.2329 50.2759C56.0783 50.2759 55.9503 50.3346 55.8489 50.4519C55.7476 50.5692 55.6836 50.7292 55.6569 50.9319H56.8409ZM56.3769 53.5959C56.0196 53.5959 55.6916 53.5426 55.3929 53.4359C55.0996 53.3239 54.8463 53.1692 54.6329 52.9719C54.4249 52.7746 54.2623 52.5372 54.1449 52.2599C54.0329 51.9826 53.9769 51.6732 53.9769 51.3319V51.3159C53.9769 50.9906 54.0329 50.6892 54.1449 50.4119C54.2569 50.1292 54.4116 49.8866 54.6089 49.6839C54.8063 49.4759 55.0409 49.3132 55.3129 49.1959C55.5903 49.0786 55.8943 49.0199 56.2249 49.0199C56.6143 49.0199 56.9503 49.0839 57.2329 49.2119C57.5209 49.3346 57.7583 49.5052 57.9449 49.7239C58.1316 49.9426 58.2703 50.1986 58.3609 50.4919C58.4516 50.7852 58.4969 51.0972 58.4969 51.4279C58.4969 51.4759 58.4969 51.5266 58.4969 51.5799C58.4969 51.6332 58.4943 51.6839 58.4889 51.7319H55.6809C55.7449 51.9239 55.8489 52.0706 55.9929 52.1719C56.1369 52.2679 56.3076 52.3159 56.5049 52.3159C56.6703 52.3159 56.8223 52.2786 56.9609 52.2039C57.1049 52.1292 57.2489 52.0172 57.3929 51.8679L58.3689 52.6439C58.1503 52.9266 57.8809 53.1559 57.5609 53.3319C57.2463 53.5079 56.8516 53.5959 56.3769 53.5959ZM58.8942 49.1239H60.7102V49.7319C60.7795 49.6412 60.8595 49.5532 60.9502 49.4679C61.0409 49.3826 61.1422 49.3079 61.2542 49.2439C61.3662 49.1746 61.4862 49.1212 61.6142 49.0839C61.7475 49.0412 61.8915 49.0199 62.0462 49.0199C62.5102 49.0199 62.8755 49.1612 63.1422 49.4439C63.4089 49.7266 63.5422 50.1159 63.5422 50.6119V53.4919H61.7262V51.1959C61.7262 51.0092 61.6782 50.8652 61.5822 50.7639C61.4862 50.6572 61.3689 50.6039 61.2302 50.6039C61.0915 50.6039 60.9689 50.6572 60.8622 50.7639C60.7609 50.8652 60.7102 51.0092 60.7102 51.1959V53.4919H58.8942V49.1239ZM69.1457 53.6119C68.7084 53.6119 68.2977 53.5426 67.9137 53.4039C67.535 53.2652 67.2017 53.0679 66.9137 52.8119C66.631 52.5559 66.407 52.2492 66.2417 51.8919C66.0817 51.5346 66.0017 51.1399 66.0017 50.7079V50.6919C66.0017 50.2759 66.079 49.8892 66.2337 49.5319C66.3884 49.1746 66.6044 48.8652 66.8817 48.6039C67.159 48.3426 67.4844 48.1399 67.8577 47.9959C68.2364 47.8466 68.647 47.7719 69.0897 47.7719C69.575 47.7719 70.0097 47.8466 70.3937 47.9959C70.783 48.1452 71.1297 48.3532 71.4337 48.6199L70.3857 49.8839C70.199 49.7292 70.0044 49.6092 69.8017 49.5239C69.599 49.4386 69.3804 49.3959 69.1457 49.3959C68.9644 49.3959 68.7964 49.4306 68.6417 49.4999C68.487 49.5639 68.3537 49.6546 68.2417 49.7719C68.1297 49.8892 68.0417 50.0279 67.9777 50.1879C67.919 50.3479 67.8897 50.5239 67.8897 50.7159V50.7319C67.8897 50.9292 67.9217 51.1106 67.9857 51.2759C68.055 51.4412 68.1484 51.5826 68.2657 51.6999C68.383 51.8172 68.5217 51.9079 68.6817 51.9719C68.847 52.0359 69.0284 52.0679 69.2257 52.0679C69.3857 52.0679 69.5137 52.0572 69.6097 52.0359C69.7057 52.0146 69.791 51.9826 69.8657 51.9399V51.3799H68.9057V50.1799H71.6177V52.7719C71.3137 53.0226 70.9537 53.2252 70.5377 53.3799C70.1217 53.5346 69.6577 53.6119 69.1457 53.6119ZM74.4409 52.0839C74.6436 52.0839 74.8116 52.0092 74.9449 51.8599C75.0783 51.7106 75.1449 51.5319 75.1449 51.3239V51.3079C75.1449 51.0892 75.0756 50.9052 74.9369 50.7559C74.7983 50.6066 74.6276 50.5319 74.4249 50.5319C74.2223 50.5319 74.0543 50.6066 73.9209 50.7559C73.7876 50.9052 73.7209 51.0839 73.7209 51.2919V51.3079C73.7209 51.5266 73.7903 51.7106 73.9289 51.8599C74.0676 52.0092 74.2383 52.0839 74.4409 52.0839ZM74.4249 53.5959C74.0676 53.5959 73.7369 53.5372 73.4329 53.4199C73.1343 53.2972 72.8756 53.1319 72.6569 52.9239C72.4436 52.7159 72.2756 52.4759 72.1529 52.2039C72.0356 51.9266 71.9769 51.6332 71.9769 51.3239V51.3079C71.9769 50.9986 72.0383 50.7052 72.1609 50.4279C72.2836 50.1506 72.4516 49.9079 72.6649 49.6999C72.8836 49.4919 73.1423 49.3266 73.4409 49.2039C73.7449 49.0812 74.0783 49.0199 74.4409 49.0199C74.7983 49.0199 75.1263 49.0812 75.4249 49.2039C75.7289 49.3212 75.9876 49.4839 76.2009 49.6919C76.4196 49.8999 76.5876 50.1426 76.7049 50.4199C76.8276 50.6919 76.8889 50.9826 76.8889 51.2919V51.3079C76.8889 51.6172 76.8276 51.9106 76.7049 52.1879C76.5823 52.4652 76.4116 52.7079 76.1929 52.9159C75.9796 53.1239 75.7209 53.2892 75.4169 53.4119C75.1129 53.5346 74.7823 53.5959 74.4249 53.5959ZM77.3164 47.6519H79.1324V53.4919H77.3164V47.6519ZM80.0271 50.5239H79.5151V49.1239H80.0271C80.0377 48.8839 80.0697 48.6732 80.1231 48.4919C80.1817 48.3106 80.2804 48.1506 80.4191 48.0119C80.5684 47.8626 80.7417 47.7559 80.9391 47.6919C81.1417 47.6279 81.3951 47.5959 81.6991 47.5959C81.9711 47.5959 82.1924 47.6066 82.3631 47.6279C82.5391 47.6492 82.6884 47.6786 82.8111 47.7159V48.8519C82.7204 48.8306 82.6297 48.8146 82.5391 48.8039C82.4484 48.7932 82.3444 48.7879 82.2271 48.7879C81.9444 48.7879 81.8031 48.9052 81.8031 49.1399V49.1719H82.8111V50.5239H81.8431V53.4919H80.0271V50.5239Z" fill="white"/>
</g>
<path d="M34.3487 21L36.0393 24.4255L39.8196 24.9748L37.0841 27.6412L37.7299 31.4062L34.3487 29.6286L30.9675 31.4062L31.6133 27.6412L28.8779 24.9748L32.6581 24.4255L34.3487 21Z" fill="#FE4C4C"/>
<path d="M59.7386 21L61.4292 24.4255L65.2095 24.9748L62.474 27.6412L63.1198 31.4062L59.7386 29.6286L56.3574 31.4062L57.0032 27.6412L54.2677 24.9748L58.048 24.4255L59.7386 21Z" fill="#D9D9D9"/>
<path d="M47.0437 21L48.7342 24.4255L52.5145 24.9748L49.7791 27.6412L50.4248 31.4062L47.0437 29.6286L43.6625 31.4062L44.3082 27.6412L41.5728 24.9748L45.3531 24.4255L47.0437 21Z" fill="#D9D9D9"/>
<path d="M72.4336 21L74.1241 24.4255L77.9044 24.9748L75.169 27.6412L75.8147 31.4062L72.4336 29.6286L69.0524 31.4062L69.6981 27.6412L66.9627 24.9748L70.743 24.4255L72.4336 21Z" fill="#D9D9D9"/>
<path d="M85.1285 21L86.8191 24.4255L90.5994 24.9748L87.8639 27.6412L88.5097 31.4062L85.1285 29.6286L81.7473 31.4062L82.3931 27.6412L79.6576 24.9748L83.4379 24.4255L85.1285 21Z" fill="#D9D9D9"/>
<g clip-path="url(#clip1_333_1413)">
<path d="M33.8581 85.8514C33.8581 85.8514 36.7283 89.3141 33.1719 92.7298C30.0116 95.7651 22.7714 92.8815 20.5222 98.2627C20.4807 98.3589 20.3409 98.3249 20.3504 98.2185C20.5717 96.0305 21.0862 89.8534 27.3246 84.1452C29.2079 82.4225 34.1236 81.3907 33.8581 85.8514Z" fill="#C1652E"/>
<path d="M26.703 88.1335C29.557 86.0411 32.1073 85.6971 33.8587 85.8265C34.103 81.3968 29.2014 82.4277 27.3243 84.1456C21.0859 89.8538 20.5714 96.0309 20.3497 98.2217C20.3438 98.2634 20.3671 98.2951 20.3956 98.3104C21.4876 92.6716 24.1472 90.0074 26.7003 88.1331L26.703 88.1335Z" fill="#B5602E"/>
<path d="M36.2291 86.5168C35.8693 86.3467 35.4665 86.2243 35.071 86.1286C34.6697 86.0348 34.2609 85.974 33.851 85.9413C33.0279 85.8784 32.1965 85.9334 31.384 86.0903C29.7527 86.4088 28.2198 87.1523 26.8549 88.1236C25.4873 89.0946 24.2235 90.2362 23.2232 91.5995C22.2155 92.956 21.4881 94.5138 20.9749 96.1304C20.9695 96.1495 20.9484 96.1607 20.9297 96.1552C20.911 96.1497 20.9001 96.1283 20.9056 96.1092C21.4063 94.4824 22.1247 92.9091 23.1301 91.5296C24.1277 90.1461 25.3951 88.9795 26.7628 87.9887C28.1312 86.9923 29.6817 86.223 31.3442 85.8805C32.1723 85.7117 33.0248 85.6456 33.8681 85.7028C34.2898 85.7315 34.7098 85.791 35.1252 85.884C35.5401 85.9797 35.9437 86.0964 36.3433 86.2807C36.406 86.3094 36.434 86.3871 36.4054 86.4511C36.3769 86.515 36.3004 86.5439 36.2377 86.5151L36.2295 86.514L36.2291 86.5168Z" fill="#AD592E"/>
<path d="M32.5695 85.9523C32.6007 86.6739 32.5057 87.3832 32.3565 88.082C32.2049 88.7776 31.986 89.458 31.7145 90.1168C31.644 90.2797 31.5682 90.4419 31.4954 90.6016C31.4591 90.6815 31.4223 90.7641 31.3832 90.8436L31.2581 91.0781C31.1748 91.2336 31.0939 91.3922 31.0052 91.5468L30.7266 92.0005L30.5886 92.2275L30.4355 92.4439L30.1316 92.8798C29.9215 93.1647 29.6938 93.4357 29.4735 93.7134C29.4603 93.7285 29.4377 93.731 29.4225 93.7203C29.4077 93.7069 29.4054 93.6839 29.4159 93.6684C29.6311 93.3871 29.8588 93.1161 30.0658 92.8337L30.3666 92.4001L30.517 92.1834L30.6522 91.9559L30.925 91.5043C31.011 91.3492 31.0888 91.193 31.172 91.0376L31.2944 90.8027C31.3335 90.7232 31.3671 90.6429 31.4035 90.5631C31.4735 90.4029 31.5494 90.2408 31.6194 90.0806C31.8847 89.4266 32.0974 88.751 32.2427 88.0602C32.3849 87.3717 32.4745 86.6616 32.4393 85.9678L32.4401 85.9623C32.4366 85.9278 32.4632 85.8975 32.4998 85.8942C32.5333 85.8933 32.5629 85.9202 32.5664 85.9547L32.5695 85.9523Z" fill="#AD592E"/>
<path d="M29.8247 86.5097C29.8615 87.1725 29.7833 87.8219 29.6564 88.4615C29.524 89.1003 29.3297 89.7247 29.0852 90.3306C29.0222 90.4804 28.9538 90.6294 28.8857 90.7757C28.8528 90.8504 28.82 90.9251 28.7848 90.9966L28.6707 91.2128C28.5948 91.3551 28.5213 91.5006 28.4427 91.6425L28.1891 92.0573L28.0621 92.266L27.9227 92.4645L27.6434 92.8642C27.4504 93.126 27.2404 93.3711 27.04 93.6261C27.0267 93.6413 27.0041 93.6437 26.9889 93.6331C26.9742 93.6196 26.9719 93.5966 26.9824 93.5811C27.1804 93.3229 27.3878 93.0774 27.5776 92.818L27.851 92.4203L27.9878 92.2214L28.1116 92.0151L28.3598 91.5996C28.4384 91.4577 28.5087 91.3146 28.5846 91.1723L28.6956 90.9584C28.7308 90.8869 28.7609 90.8118 28.7938 90.7371C28.8591 90.5905 28.9271 90.4442 28.9874 90.294C29.2257 89.6929 29.4138 89.0733 29.5395 88.4421C29.6625 87.8104 29.7352 87.1603 29.6945 86.5252L29.6953 86.5197C29.6918 86.4852 29.7184 86.4549 29.7523 86.4512C29.7862 86.4475 29.8158 86.4744 29.8189 86.5117L29.8247 86.5097Z" fill="#AD592E"/>
<path d="M26.96 87.9911C27.0106 88.3016 27.012 88.6051 26.9995 88.9094L26.9866 89.1372L26.9602 89.3631C26.9471 89.5143 26.9172 89.6659 26.8905 89.8152C26.7804 90.4147 26.5947 90.9978 26.3623 91.5572L26.1781 91.9733C26.1167 92.1119 26.0397 92.2427 25.9705 92.3775C25.8372 92.6505 25.6708 92.9019 25.5141 93.1631C25.4398 93.2943 25.3449 93.414 25.2605 93.5381L24.9992 93.9092C24.8152 94.1468 24.6208 94.3799 24.4341 94.6171C24.4208 94.6322 24.3982 94.6347 24.3834 94.6212C24.3686 94.6078 24.3663 94.5848 24.3796 94.5697C24.5663 94.3325 24.7553 94.0986 24.9365 93.8607L25.192 93.4916C25.2764 93.3675 25.3685 93.2473 25.4401 93.1158C25.5937 92.8569 25.7574 92.6052 25.8876 92.3345C25.954 92.1994 26.0306 92.0714 26.0893 91.9323L26.2704 91.5187C26.4942 90.9608 26.6733 90.3853 26.7794 89.7938C26.8003 89.6465 26.8325 89.498 26.8425 89.3492L26.8658 89.1258L26.8783 88.9008C26.8897 88.6047 26.8827 88.3005 26.8345 88.013L26.8353 88.0075C26.8291 87.9726 26.8506 87.9388 26.8849 87.9323C26.9192 87.9258 26.9519 87.9503 26.9581 87.9852L26.96 87.9911Z" fill="#AD592E"/>
<path d="M23.7065 90.8999C23.7671 90.9822 23.7927 91.0567 23.8199 91.1399C23.8339 91.1787 23.842 91.2195 23.8501 91.2604C23.8582 91.3012 23.8663 91.342 23.8717 91.3825C23.8984 91.5478 23.8973 91.7121 23.8912 91.8728C23.8755 92.1994 23.8162 92.5197 23.744 92.8326C23.6636 93.1444 23.5695 93.4542 23.4599 93.7561C23.4024 93.9067 23.3503 94.058 23.2873 94.2078L23.1019 94.652C23.0937 94.6707 23.073 94.6791 23.0547 94.6708C23.0364 94.6626 23.0282 94.6416 23.0365 94.6229L23.2137 94.1775C23.2736 94.0301 23.3229 93.8784 23.3777 93.7274C23.4819 93.4247 23.5697 93.1197 23.6442 92.81C23.7106 92.4991 23.7664 92.1839 23.7778 91.868C23.7808 91.7097 23.7779 91.5534 23.7524 91.3996C23.7467 91.3619 23.7409 91.3242 23.7296 91.2858C23.7211 91.2477 23.7126 91.2097 23.7006 91.1768C23.68 91.1059 23.6435 91.0298 23.6108 90.9855L23.6038 90.976C23.5828 90.9475 23.5883 90.9086 23.6164 90.8871C23.6445 90.8656 23.6827 90.871 23.7037 90.8995L23.7065 90.8999Z" fill="#AD592E"/>
<path d="M32.3893 85.8105C32.1769 85.5026 31.8897 85.2323 31.5955 84.9921C31.2957 84.7512 30.9749 84.5413 30.64 84.3521L30.3865 84.2169C30.3008 84.1736 30.2147 84.133 30.1259 84.0921C29.9546 84.0054 29.7746 83.9402 29.5962 83.8639C29.417 83.7931 29.2332 83.7358 29.0532 83.6706L28.5004 83.5072C28.4817 83.5017 28.4708 83.4803 28.4763 83.4612C28.4818 83.4422 28.5001 83.4306 28.5216 83.4365L29.0806 83.5951C29.2637 83.658 29.4503 83.7156 29.6299 83.7836C29.8087 83.8571 29.9913 83.9227 30.1685 84.0074C30.2573 84.0483 30.3465 84.0865 30.4322 84.1298L30.6912 84.2658C31.0319 84.453 31.3613 84.6613 31.6693 84.9034C31.9741 85.1479 32.2648 85.413 32.4989 85.7439C32.5199 85.7724 32.514 85.814 32.4863 85.8328C32.4582 85.8543 32.4173 85.8485 32.399 85.8204L32.3943 85.8141L32.3893 85.8105Z" fill="#AD592E"/>
<path d="M29.7674 86.5016C29.4965 86.2931 29.1834 86.1268 28.8589 86.0014C28.5344 85.876 28.1979 85.7772 27.851 85.7309C27.507 85.6849 27.157 85.6608 26.8073 85.6934C26.6316 85.6968 26.4592 85.7347 26.2865 85.7556C26.1126 85.7847 25.9446 85.8318 25.7723 85.8697L25.7695 85.8693C25.7493 85.8749 25.7313 85.8639 25.7259 85.8433C25.7232 85.823 25.7314 85.8044 25.7544 85.7991C25.9272 85.7584 26.0983 85.709 26.2726 85.677C26.4488 85.651 26.6239 85.6135 26.8005 85.6045C27.1536 85.5667 27.5126 85.5865 27.8656 85.6281C28.2183 85.6724 28.5639 85.7668 28.8996 85.8909C29.235 86.0179 29.5516 86.179 29.8459 86.3993C29.8736 86.4202 29.879 86.4607 29.8583 86.4889C29.8376 86.5172 29.7978 86.5229 29.7702 86.502L29.7647 86.5012L29.7674 86.5016Z" fill="#AD592E"/>
<path d="M26.8796 88.0676C26.6229 87.9943 26.3392 87.9739 26.0663 87.9749C25.7904 87.9783 25.5128 88.0126 25.2411 88.0648C24.9686 88.1225 24.6987 88.2004 24.437 88.2994C24.3052 88.3459 24.1796 88.4074 24.0498 88.4599C23.9218 88.5182 23.7986 88.583 23.673 88.6445C23.655 88.6533 23.6336 88.6474 23.6251 88.6292C23.6165 88.611 23.6251 88.5895 23.6403 88.5804C23.7663 88.516 23.8927 88.4489 24.0183 88.3874C24.1486 88.3322 24.2746 88.2678 24.4095 88.2189C24.6747 88.1148 24.9453 88.0313 25.2214 87.9684C25.4997 87.9087 25.7808 87.8692 26.0657 87.8615C26.3503 87.8565 26.6352 87.8685 26.9192 87.9457C26.9542 87.9535 26.9713 87.9899 26.9639 88.0229C26.9564 88.0558 26.9201 88.0762 26.8878 88.0688L26.8823 88.068L26.8796 88.0676Z" fill="#AD592E"/>
<path d="M23.6416 91.004C23.4854 90.9677 23.3033 90.9759 23.1361 91.0174C22.9665 91.0557 22.8054 91.132 22.6532 91.2238C22.5015 91.3128 22.3672 91.4355 22.2384 91.559C22.1763 91.6239 22.1166 91.6919 22.0568 91.76L21.8928 91.9748C21.8791 91.9927 21.8592 91.9956 21.8413 91.9845C21.8261 91.9739 21.8238 91.9509 21.8344 91.9354L21.9969 91.7118C22.057 91.641 22.1144 91.5697 22.1769 91.5021C22.3069 91.3703 22.4419 91.242 22.6007 91.1427C22.7572 91.0402 22.9272 90.9594 23.1093 90.9115C23.291 90.8664 23.4778 90.8447 23.6749 90.8869C23.7104 90.8919 23.7302 90.9287 23.7227 90.9617C23.7176 90.9978 23.6813 91.0182 23.649 91.0108L23.6408 91.0096L23.6416 91.004Z" fill="#AD592E"/>
</g>
<g clip-path="url(#clip2_333_1413)">
<path d="M40.4628 87.1197C46.2793 87.3097 52.1269 86.5991 57.7222 85.0258C60.4578 84.2543 63.1352 83.2777 65.7194 82.111C66.9728 81.5448 68.2804 80.9747 69.4251 80.2147C70.4766 79.5155 71.3808 78.5578 71.598 77.2923C71.6912 76.7679 71.664 76.2245 71.47 75.7228C71.3575 75.4302 71.2411 75.1946 70.9345 75.0654C70.628 74.9362 70.2982 74.883 69.9916 74.8222C68.9013 74.6056 67.6247 74.6056 66.8176 75.4758C66.0881 76.2587 66.1346 77.3797 66.6197 78.269C67.1823 79.295 68.2183 79.8575 69.3824 79.9525C70.7677 80.0703 72.1219 79.5535 73.3907 79.0822C74.6596 78.611 76.0448 78.0638 77.3525 77.5165C79.9872 76.4145 82.5714 75.2022 85.0975 73.8835C90.7006 70.9574 96.0049 67.4992 100.948 63.5926C101.53 63.1327 100.704 62.3309 100.126 62.7869C95.5975 66.3667 90.7433 69.5513 85.6446 72.2988C83.1108 73.6631 80.5149 74.921 77.8724 76.0649C76.5299 76.6463 75.1756 77.1935 73.8059 77.7142C72.4362 78.2348 71.0742 78.8694 69.6385 78.8314C68.5482 78.801 67.2017 77.9612 67.4345 76.7185C67.6906 75.3542 69.7588 75.9091 70.6319 76.1675L70.2826 75.9053C70.756 76.7717 70.368 77.8168 69.7278 78.4932C69.0448 79.2152 68.1368 79.6713 67.256 80.1159C65.2538 81.1268 63.1895 82.0122 61.0709 82.7646C56.8763 84.2581 52.4955 85.2652 48.0565 85.7212C45.5343 85.9796 42.9966 86.067 40.4628 85.9834C39.7139 85.9606 39.7139 87.1007 40.4628 87.1235V87.1197Z" fill="#D9D9D9"/>
</g>
<defs>
<clipPath id="clip0_333_1413">
<rect width="76.3824" height="66.4912" fill="white" transform="translate(20.9031 38)"/>
</clipPath>
<clipPath id="clip1_333_1413">
<rect width="14.2874" height="17.0349" fill="white" transform="translate(22.6924 81.4333) rotate(8.0732)"/>
</clipPath>
<clipPath id="clip2_333_1413">
<rect width="61.25" height="24.5" fill="white" transform="translate(39.9 62.65)"/>
</clipPath>
</defs>
</svg>
