<svg width="120" height="120" viewBox="0 0 120 120" fill="none" xmlns="http://www.w3.org/2000/svg">
<g clip-path="url(#clip0_333_1415)">
<rect width="120" height="120" rx="60" fill="#F5F5F5"/>
<rect x="4" y="94" width="132" height="30" fill="#D9D9D9"/>
<g style="mix-blend-mode:multiply">
<path d="M76.2854 30.2473V58.6487L119.805 63V28.4241L76.2854 30.2473Z" fill="#EDEDED"/>
</g>
<g style="mix-blend-mode:multiply">
<path d="M62 19.1936V54.4002L114.418 58.6416V17L62 19.1936Z" fill="#C3DDDC"/>
</g>
<path opacity="0.4" d="M70.6716 49.2079V31.8387L76.2855 31.5257V49.6714L70.6716 49.2079Z" fill="#F7F9F9"/>
<path opacity="0.4" d="M82.5967 50.0036L82.8264 25.7623L88.4429 25.1721L88.2105 50.4672L82.5967 50.0036Z" fill="#F7F9F9"/>
<path opacity="0.4" d="M93.3752 50.9044L93.4096 35.8626L99.0208 35.7455L98.9891 51.368L93.3752 50.9044Z" fill="#F7F9F9"/>
<g style="mix-blend-mode:multiply">
<path d="M107.294 51.6691L100.545 51.184V42.7969L106.935 42.9259C106.935 42.9259 106.938 42.9259 106.94 42.9259C106.988 42.9259 107.027 42.8901 107.03 42.8447C107.033 42.7993 106.996 42.7611 106.945 42.7611L100.542 42.632V33.9917L106.938 33.7909C106.988 33.7909 107.027 33.7503 107.027 33.7049C107.027 33.6595 106.988 33.6237 106.938 33.6261L100.539 33.8268V26.4098L107.26 25.9558C107.31 25.9534 107.349 25.9128 107.347 25.8674C107.347 25.822 107.31 25.7862 107.252 25.7909L100.537 26.2449V20.9713C100.537 20.9259 100.495 20.8901 100.444 20.8925C100.394 20.8925 100.355 20.9331 100.355 20.9785V26.2593L90.7455 26.9092V21.7742C90.7455 21.7288 90.7033 21.693 90.6531 21.6954C90.6029 21.6954 90.5633 21.736 90.5633 21.7814V26.9235L81.6144 27.5281V22.558C81.6144 22.5126 81.5722 22.4767 81.522 22.4791C81.4718 22.4815 81.4322 22.5197 81.4322 22.5651V27.5424L74.2261 28.0299V23.5042C74.2261 23.4588 74.1839 23.4229 74.1337 23.4253C74.0835 23.4253 74.0439 23.466 74.0439 23.5114V28.0442L68.0208 28.4504V23.6738C68.0208 23.5376 67.8993 23.4301 67.7488 23.4349C67.5983 23.4397 67.4768 23.5544 67.4768 23.6906L67.4847 49.0932C67.4847 49.2175 67.5877 49.3202 67.725 49.3298L107.236 52.1685C107.236 52.1685 107.257 52.1685 107.268 52.1685C107.405 52.1637 107.521 52.0681 107.537 51.9415C107.553 51.8053 107.447 51.6858 107.299 51.6762L107.294 51.6691ZM100.365 51.1721L90.7534 50.4815V42.601L100.362 42.7945V51.1721H100.365ZM68.0208 35.0191L74.0466 34.828V42.0992L68.0234 41.9773V35.0167L68.0208 35.0191ZM74.2261 34.8232L81.4349 34.5962V42.2497L74.2288 42.104V34.8232H74.2261ZM81.6144 34.589L90.566 34.3071V42.4337L81.6171 42.2545V34.5914L81.6144 34.589ZM81.4375 42.4146V49.8124L74.2314 49.2939V42.2688L81.4375 42.4146ZM81.6171 42.4194L90.5686 42.5986V50.4695L81.6197 49.8268V42.4194H81.6171ZM100.36 42.632L90.7482 42.4385V34.3023L100.357 33.9988V42.6296L100.36 42.632ZM100.355 26.4265V33.8363L90.7455 34.1398V27.0765L100.355 26.4265ZM90.5633 27.0884V34.147L81.6144 34.4289V27.693L90.5633 27.0884ZM81.4322 27.7049V34.4337L74.2261 34.6607V28.1924L81.4322 27.7049ZM74.0439 28.2043V34.6679L68.0208 34.859V28.6129L74.0439 28.2067V28.2043ZM68.0234 42.147L74.0492 42.2688V49.2844L68.026 48.8519V42.147H68.0234Z" fill="#8FB0B5"/>
</g>
<path d="M104.696 42.0705L104.154 46.0203C104.136 46.1494 104.051 46.264 103.927 46.3262C103.803 46.3907 103.65 46.3955 103.521 46.3429L99.3828 44.6726C99.1531 44.5795 99.0527 44.3381 99.1531 44.1302C99.256 43.9223 99.5227 43.8316 99.7525 43.9224L102.805 45.1529L96.4887 36.7324L93.3148 43.6165C93.2514 43.7527 93.1114 43.8483 92.9477 43.865C92.784 43.8817 92.6256 43.8172 92.5279 43.6977L81.4639 29.8746L78.1948 35.1505C78.1209 35.27 77.9862 35.3489 77.8331 35.3584C77.6799 35.3704 77.5347 35.3106 77.4423 35.2007L70.7669 27.4588C70.6138 27.2796 70.6481 27.0215 70.8461 26.8829C70.928 26.8256 71.0283 26.7969 71.1234 26.7969C71.2581 26.7969 71.3927 26.8519 71.4799 26.9546L77.7354 34.2091L81.0176 28.9116C81.0942 28.7897 81.2315 28.7109 81.3873 28.7037C81.5431 28.6965 81.691 28.7587 81.7807 28.8734L92.7866 42.6249L95.9712 35.7169C96.0345 35.5783 96.1771 35.4827 96.3435 35.466C96.5098 35.4492 96.6709 35.5185 96.7633 35.6428L103.439 44.5436L103.793 41.963C103.822 41.7551 104.017 41.6045 104.241 41.6045C104.26 41.6045 104.278 41.6045 104.297 41.6069C104.545 41.6356 104.722 41.8387 104.69 42.0633L104.696 42.0705Z" fill="#F7F9F9"/>
<path d="M111.973 38.4409C111.931 38.3955 111.878 38.3596 111.809 38.3357C111.688 38.2927 111.556 38.3214 111.442 38.3668C111.358 38.4002 111.279 38.448 111.215 38.5078C111.075 38.6392 111.001 38.8423 111.078 39.0191C111.12 39.1147 111.189 39.2007 111.294 39.2485C111.323 39.2628 111.358 39.27 111.389 39.2796C111.45 39.3106 111.519 39.3274 111.588 39.3274C111.664 39.3369 111.743 39.3345 111.817 39.3106C111.999 39.2533 112.155 39.1099 112.192 38.9331C112.232 38.7443 112.153 38.5484 111.973 38.4456V38.4409Z" fill="#F7F9F9"/>
<path d="M111.973 41.7192C111.931 41.6738 111.878 41.638 111.809 41.6141C111.688 41.5711 111.556 41.5998 111.442 41.6452C111.358 41.6786 111.279 41.7264 111.215 41.7861C111.075 41.9176 111.001 42.1207 111.078 42.2975C111.12 42.3931 111.189 42.4791 111.294 42.5269C111.323 42.5412 111.358 42.5484 111.389 42.5579C111.45 42.589 111.519 42.6057 111.588 42.6057C111.664 42.6153 111.743 42.6129 111.817 42.589C111.999 42.5317 112.155 42.3883 112.192 42.2115C112.232 42.0227 112.153 41.8268 111.973 41.724V41.7192Z" fill="#F7F9F9"/>
<path d="M111.973 44.9976C111.931 44.9522 111.878 44.9164 111.809 44.8925C111.688 44.8495 111.556 44.8781 111.442 44.9235C111.358 44.957 111.279 45.0048 111.215 45.0645C111.075 45.1959 111.001 45.3991 111.078 45.5759C111.12 45.6715 111.189 45.7575 111.294 45.8053C111.323 45.8196 111.358 45.8268 111.389 45.8363C111.45 45.8674 111.519 45.8841 111.588 45.8841C111.664 45.8937 111.743 45.8913 111.817 45.8674C111.999 45.81 112.155 45.6667 112.192 45.4899C112.232 45.3011 112.153 45.1051 111.973 45.0024V44.9976Z" fill="#F7F9F9"/>
<path d="M111.973 48.276C111.931 48.2306 111.878 48.1948 111.809 48.1709C111.688 48.1278 111.556 48.1565 111.442 48.2019C111.358 48.2354 111.279 48.2832 111.215 48.3429C111.075 48.4743 111.001 48.6774 111.078 48.8542C111.12 48.9498 111.189 49.0358 111.294 49.0836C111.323 49.098 111.358 49.1051 111.389 49.1147C111.45 49.1458 111.519 49.1625 111.588 49.1625C111.664 49.1721 111.743 49.1697 111.817 49.1458C111.999 49.0884 112.155 48.9451 112.192 48.7682C112.232 48.5795 112.153 48.3835 111.973 48.2808V48.276Z" fill="#F7F9F9"/>
<path d="M111.973 51.5544C111.931 51.509 111.878 51.4731 111.809 51.4492C111.688 51.4062 111.556 51.4349 111.442 51.4803C111.358 51.5137 111.279 51.5615 111.215 51.6213C111.075 51.7527 111.001 51.9558 111.078 52.1326C111.12 52.2282 111.189 52.3142 111.294 52.362C111.323 52.3763 111.358 52.3835 111.389 52.3931C111.45 52.4241 111.519 52.4409 111.588 52.4409C111.664 52.4504 111.743 52.448 111.817 52.4241C111.999 52.3668 112.155 52.2234 112.192 52.0466C112.232 51.8578 112.153 51.6619 111.973 51.5568V51.5544Z" fill="#F7F9F9"/>
<g style="mix-blend-mode:multiply">
<path d="M34 39.6536V66.8645L0 65.0122V34L34 39.6536Z" fill="#C3DDDC"/>
</g>
<path d="M17.6786 42.5842C22.9278 43.2966 27.1814 47.7629 27.1814 52.5563C27.1814 52.8307 27.166 53.0999 27.139 53.3655L17.6786 52.0796V42.5825V42.5842Z" fill="#F7F9F9"/>
<path d="M17.679 52.0796V59.9461C12.7321 59.2742 8.66916 55.267 8.21857 50.7937L17.679 52.0796Z" fill="#F7F9F9"/>
<g style="mix-blend-mode:multiply">
<path d="M28.1905 49.9195C28.5178 50.215 28.8433 50.5088 29.1706 50.8025C28.8741 49.2792 28.2232 47.7752 27.2701 46.4119C26.2919 45.0152 24.994 43.7909 23.5094 42.8446C22.7141 42.3362 21.8669 41.914 20.9907 41.5798C21.139 41.7363 21.2738 41.9017 21.3932 42.0776C21.4779 42.2025 21.2757 42.2817 21.191 42.1585C20.9985 41.8736 20.7578 41.6079 20.4843 41.3828C20.4015 41.3159 20.4131 41.2121 20.5113 41.191C20.8945 41.1154 21.2911 41.0714 21.6917 41.0591C21.7533 41.0573 21.8168 41.0925 21.8361 41.1523C21.8515 41.2069 21.8168 41.2702 21.7552 41.272C21.4818 41.2807 21.2141 41.3036 20.9484 41.3423C22.6025 41.958 24.1526 42.8956 25.4658 44.0724C26.8041 45.2721 27.8747 46.7215 28.5833 48.2713C28.9318 49.0329 29.1937 49.8157 29.3613 50.6055C29.4537 50.4085 29.5634 50.2185 29.6905 50.0426C29.7676 49.9353 29.9697 50.0708 29.8927 50.1781C29.6886 50.463 29.5288 50.7726 29.419 51.1069C29.394 51.186 29.29 51.1878 29.2245 51.128C28.8259 50.7674 28.4254 50.4068 28.0268 50.0479C27.9113 49.9441 28.0769 49.8157 28.1924 49.9195H28.1905ZM20.7789 41.3705C20.7789 41.3705 20.7828 41.374 20.7866 41.3757C20.7866 41.3722 20.7886 41.3705 20.7905 41.3687C20.7866 41.3687 20.7828 41.3687 20.7789 41.3705Z" fill="#8FB0B5"/>
<path d="M28.1018 44.5895C27.8611 44.2113 27.5992 43.8437 27.3162 43.4884C27.2757 43.4391 27.268 43.374 27.3162 43.3371C27.3566 43.3054 27.4413 43.3089 27.4818 43.36C27.7764 43.7311 28.0517 44.1164 28.3021 44.5104C28.3829 44.637 28.1808 44.7162 28.0999 44.5913L28.1018 44.5895Z" fill="#8FB0B5"/>
<path d="M28.5738 43.9334C28.5738 43.9334 28.5738 43.9352 28.5738 43.9369C28.57 43.944 28.5661 43.9545 28.5623 43.9616C28.5623 43.9616 28.5623 43.9616 28.5623 43.9633C28.5565 43.9704 28.5488 43.9774 28.543 43.9844C28.543 43.9844 28.543 43.9844 28.5411 43.9862C28.5411 43.9862 28.5411 43.9862 28.5392 43.9879C28.5315 43.9932 28.5218 43.9985 28.5141 44.002C28.5122 44.002 28.5103 44.002 28.5064 44.0038C28.4968 44.0073 28.4852 44.0091 28.4756 44.0108C28.4756 44.0108 28.4737 44.0108 28.4718 44.0108C28.4409 44.0126 28.4255 44.0108 28.3967 44.0003C28.3947 44.0003 28.3928 44.0003 28.389 43.9985C28.3813 43.995 28.3639 43.9879 28.3543 43.9792C28.3447 43.9721 28.337 43.9651 28.3293 43.958C28.3293 43.958 28.3273 43.9563 28.3254 43.9545C28.3158 43.9457 28.3081 43.9334 28.3023 43.9246C28.2965 43.9158 28.2927 43.9053 28.2869 43.8965C28.2831 43.8859 28.2773 43.8754 28.2753 43.8648C28.2753 43.8578 28.2715 43.8507 28.2715 43.8437C28.2715 43.8349 28.2696 43.8244 28.2676 43.8156C28.2676 43.8015 28.2696 43.7874 28.2773 43.7751C28.2792 43.7663 28.285 43.7593 28.2927 43.754C28.3004 43.7434 28.3119 43.7364 28.3254 43.7311C28.335 43.7294 28.3447 43.7258 28.3524 43.7241C28.362 43.7241 28.3736 43.7241 28.3832 43.7241C28.3986 43.7241 28.414 43.7311 28.4275 43.7399C28.4429 43.747 28.4544 43.7558 28.4641 43.7663C28.466 43.7681 28.4679 43.7698 28.4698 43.7733C28.4775 43.7733 28.4872 43.7733 28.4949 43.7769C28.5045 43.7821 28.5141 43.7874 28.5218 43.7909C28.5392 43.8032 28.5526 43.8173 28.5642 43.8349C28.568 43.8419 28.5738 43.856 28.5757 43.8631C28.5757 43.8631 28.5757 43.8648 28.5757 43.8666C28.5757 43.8736 28.5796 43.8894 28.5796 43.8965C28.5796 43.8965 28.5796 43.8982 28.5796 43.9C28.5796 43.9053 28.5777 43.9229 28.5757 43.9281L28.5738 43.9334Z" fill="#8FB0B5"/>
<path d="M27.3105 44.0003C27.3317 43.9985 27.3509 44.0003 27.3721 44.0091C27.3817 44.0143 27.3914 44.0196 27.3991 44.0231C27.4164 44.0354 27.4299 44.0495 27.4414 44.0671C27.4645 44.1023 27.4877 44.1357 27.5088 44.1709C27.5165 44.185 27.5223 44.1973 27.5223 44.2131C27.5262 44.2272 27.5242 44.2412 27.5204 44.2553C27.5165 44.2641 27.5127 44.2711 27.5088 44.2799C27.5011 44.2905 27.4915 44.2993 27.478 44.3063C27.4703 44.3116 27.4626 44.3151 27.453 44.3169C27.4395 44.3222 27.4241 44.3222 27.4087 44.3204C27.3991 44.3169 27.3875 44.3151 27.3779 44.3116C27.3586 44.3046 27.3413 44.2923 27.3259 44.2764C27.3009 44.2448 27.2739 44.2131 27.2489 44.1797C27.2373 44.1691 27.2296 44.1568 27.2238 44.1427C27.2161 44.1287 27.2123 44.1146 27.2142 44.1005C27.2142 44.0864 27.2161 44.0724 27.2238 44.0601C27.2277 44.0477 27.2373 44.0372 27.2489 44.0284C27.2527 44.0266 27.2566 44.0231 27.2604 44.0214C27.2662 44.0161 27.272 44.0108 27.2816 44.0073C27.2912 44.0055 27.3009 44.002 27.3086 44.0003H27.3105Z" fill="#8FB0B5"/>
<path d="M10.1383 50.8694C9.90721 50.6636 10.2384 50.4085 10.4676 50.6126C11.8251 51.8228 13.2269 53.1069 13.9721 54.6883C14.1608 54.3066 14.3977 53.9513 14.6884 53.6346C14.7635 53.552 14.8906 53.5238 15.0081 53.6012C15.1082 53.6681 15.1679 53.8211 15.0909 53.9038C14.7 54.3312 14.4015 54.822 14.207 55.3673C14.1377 55.5643 13.8296 55.5151 13.7564 55.3057C13.1364 53.5414 11.5825 52.157 10.1364 50.8676L10.1383 50.8694Z" fill="#8FB0B5"/>
<path d="M6.96499 54.2802C6.96499 54.2802 6.96884 54.2749 6.97076 54.2732C7.0112 54.1817 7.05164 54.092 7.09785 54.004C7.18258 53.844 7.28078 53.6839 7.30004 53.4957C7.31159 53.3866 7.44638 53.3778 7.51763 53.471C7.73137 53.7542 7.98362 54.0181 8.2609 54.2521C8.31097 54.2943 8.30134 54.3717 8.2609 54.4033C8.21276 54.442 8.14537 54.4227 8.0953 54.3805C7.922 54.2327 7.76218 54.0744 7.61198 53.909C7.95859 55.8299 9.13704 57.6928 10.8566 59.0033C11.3052 59.3445 11.7866 59.6471 12.2892 59.9039C12.2083 59.8054 12.1217 59.7104 12.037 59.6154C11.8675 59.4272 11.6981 59.2372 11.5286 59.049C11.4266 58.9347 11.5902 58.8063 11.6942 58.9206C11.8714 59.1176 12.0485 59.3164 12.2257 59.5134C12.3855 59.6911 12.5453 59.8687 12.6743 60.0658C12.7148 60.1273 12.6743 60.2065 12.605 60.2135C12.3335 60.2364 12.0793 60.3015 11.8425 60.4053C11.6345 60.4985 11.4131 60.6111 11.1531 60.5477C11.0896 60.5319 11.0376 60.4879 11.0357 60.4246C11.0357 60.3718 11.0896 60.3191 11.1531 60.3331C11.3996 60.3929 11.5999 60.254 11.7982 60.1731C11.9118 60.1273 12.0293 60.0904 12.1506 60.0605C10.1653 59.0209 8.5844 57.3304 7.80454 55.3814C7.61776 54.9135 7.48297 54.4368 7.39439 53.9583C7.37514 53.9988 7.35395 54.0375 7.33277 54.0779C7.29041 54.1571 7.24612 54.238 7.21146 54.3224C7.19991 54.3506 7.18835 54.3822 7.17102 54.4086C7.17102 54.4121 7.17102 54.4174 7.17102 54.4086C7.17102 54.4086 7.17102 54.4104 7.1691 54.4121C7.1691 54.4192 7.1691 54.4315 7.1691 54.4332C7.1614 54.4895 7.12096 54.5335 7.05164 54.5247C6.99387 54.5177 6.9284 54.4596 6.93418 54.4016C6.93803 54.3682 6.93995 54.3312 6.95343 54.2996C6.95728 54.2925 6.96114 54.2872 6.96499 54.2802ZM7.1691 54.4069C7.1691 54.4069 7.1691 54.4069 7.1691 54.4086C7.1691 54.4086 7.1691 54.4086 7.1691 54.4069Z" fill="#8FB0B5"/>
<path d="M16.9758 39.5129V51.2071L5.12195 49.5958C5.08729 49.2598 5.06803 48.9239 5.06803 48.5844C5.06803 42.681 10.4 38.6193 16.9758 39.5129Z" fill="#8FB0B5"/>
<path d="M17.6729 61.3639V52.0796L28.6506 53.5713C28.1288 58.7078 23.415 62.1432 17.6729 61.3639Z" fill="#8FB0B5"/>
</g>
<path d="M32.2401 62.0095C30.5725 61.8248 28.8973 61.7052 27.2162 61.6524C27.0275 61.6471 27.0141 61.3763 27.2047 61.3833C28.9108 61.4378 30.613 61.5592 32.3056 61.7474C32.4943 61.7685 32.4249 62.0306 32.2382 62.0095H32.2401Z" fill="#F7F9F9"/>
<path d="M25.5409 63.0192C25.3542 63.0069 25.3388 62.7378 25.5294 62.7501C27.8074 62.9014 30.0872 63.0526 32.3652 63.2039C32.552 63.2162 32.5674 63.4871 32.3768 63.4731C30.0988 63.3218 27.8189 63.1705 25.5409 63.0192Z" fill="#F7F9F9"/>
<path d="M24.1949 62.9823L23.2726 62.9084C23.1955 62.9031 23.1185 62.8591 23.1185 62.7782C23.1185 62.7131 23.1782 62.6322 23.261 62.6375C23.5691 62.6621 23.8753 62.6868 24.1834 62.7114C24.2604 62.7167 24.3374 62.7606 24.3374 62.8416C24.3374 62.9066 24.2777 62.9876 24.1949 62.9823Z" fill="#F7F9F9"/>
<path d="M30.3916 64.525C31.0425 64.5602 31.6914 64.6077 32.3384 64.6692C32.4173 64.6763 32.4655 64.766 32.4481 64.8311C32.4289 64.9102 32.3499 64.9401 32.271 64.9313C31.649 64.8715 31.0271 64.8258 30.4032 64.7924C30.3242 64.7888 30.253 64.7413 30.2491 64.6622C30.2453 64.5953 30.3107 64.5179 30.3916 64.5215V64.525Z" fill="#F7F9F9"/>
<path d="M17.3879 64.0342C19.248 64.0852 21.1062 64.1732 22.9625 64.2629C24.5915 64.342 26.2205 64.4282 27.8477 64.5197C28.1712 64.5373 28.4966 64.5566 28.8201 64.5742C29.0088 64.5848 29.0223 64.8557 28.8316 64.8434C27.9035 64.7906 26.9754 64.7396 26.0472 64.6903C24.1582 64.5901 22.2712 64.4951 20.3822 64.4124C19.3886 64.3702 18.3931 64.3297 17.3975 64.3033C17.2088 64.2981 17.1953 64.0289 17.386 64.0342H17.3879Z" fill="#F7F9F9"/>
<path d="M8.28391 37.3563C6.08682 37.015 3.89166 36.6755 1.69457 36.3343C1.50779 36.3044 1.57904 36.0423 1.76582 36.0722C3.96291 36.4134 6.15807 36.7529 8.35516 37.0942C8.54194 37.1241 8.47069 37.3862 8.28391 37.3563Z" fill="#F7F9F9"/>
<path d="M5.60911 38.5736C4.31127 38.3607 3.01342 38.1496 1.71558 37.9368C1.5288 37.9069 1.60005 37.6448 1.78683 37.6747C3.08467 37.8875 4.38251 38.0986 5.68035 38.3115C5.86713 38.3414 5.79589 38.6035 5.60911 38.5736Z" fill="#F7F9F9"/>
<path d="M4.70066 39.8454C3.72824 39.6589 2.75582 39.4707 1.7834 39.2842C1.59662 39.249 1.66787 38.9869 1.85465 39.0221C2.82707 39.2086 3.79949 39.3968 4.77191 39.5833C4.95869 39.6184 4.88744 39.8805 4.70066 39.8454Z" fill="#F7F9F9"/>
<path d="M6.12916 40.2007C5.99437 40.1673 5.85958 40.1338 5.72286 40.1004C5.68628 40.0916 5.65354 40.0705 5.63236 40.0406C5.6131 40.0125 5.60348 39.9702 5.61503 39.9368C5.63621 39.8682 5.71324 39.819 5.79411 39.8383C5.9289 39.8717 6.06369 39.9052 6.20041 39.9386C6.23699 39.9474 6.26973 39.9685 6.29091 39.9984C6.31017 40.0265 6.31979 40.0688 6.30824 40.1022C6.28706 40.1708 6.21003 40.22 6.12916 40.2007Z" fill="#F7F9F9"/>
<path d="M5.12009 41.3476C4.00518 41.1295 2.8922 40.9113 1.77728 40.6932C1.5905 40.6563 1.66175 40.3942 1.84853 40.4311C2.96344 40.6492 4.07643 40.8674 5.19134 41.0855C5.37812 41.1224 5.30688 41.3845 5.12009 41.3476Z" fill="#F7F9F9"/>
<rect x="47.4106" y="86.6342" width="25.7073" height="12.8536" fill="#E9E9E9"/>
<rect x="41.7026" y="97.2195" width="37.8048" height="3.78048" fill="white"/>
<rect x="26.0784" y="40.5" width="68.2891" height="48.4146" rx="3.5" fill="#2B2B41" stroke="white" stroke-width="3"/>
<path fill-rule="evenodd" clip-rule="evenodd" d="M70.5659 56.4769H47.8477V64.2125L42.8442 64.2125L59.1264 73.9213L75.4086 64.2125L70.5659 64.2125V56.4769Z" fill="#FF4242"/>
</g>
<rect x="1.5" y="1.5" width="117" height="117" rx="58.5" stroke="#E8E8E8" stroke-width="3"/>
<defs>
<clipPath id="clip0_333_1415">
<rect width="120" height="120" rx="60" fill="white"/>
</clipPath>
</defs>
</svg>
