<svg width="120" height="120" viewBox="0 0 120 120" fill="none" xmlns="http://www.w3.org/2000/svg">
<g clip-path="url(#clip0_54_3626)">
<rect width="120" height="120" rx="60" fill="#F5F5F5"/>
<rect opacity="0.5" x="-8" y="89" width="137" height="44" fill="#D9D9D9"/>
<g opacity="0.5">
<mask id="mask0_54_3626" style="mask-type:luminance" maskUnits="userSpaceOnUse" x="24" y="36" width="70" height="50">
<path d="M93.9239 36.4453H24.6497V85.1751H93.9239V36.4453Z" fill="white"/>
</mask>
<g mask="url(#mask0_54_3626)">
<mask id="mask1_54_3626" style="mask-type:luminance" maskUnits="userSpaceOnUse" x="23" y="35" width="73" height="52">
<path d="M95.314 35.4232H23.3853V86.3971H95.314V35.4232Z" fill="white"/>
</mask>
<g mask="url(#mask1_54_3626)">
<path d="M108.798 35.4232H23.3853V86.2929H108.798V35.4232Z" fill="#C0F8FF"/>
<path opacity="0.56" d="M27.6982 39.8377C27.6738 41.0184 28.3022 42.1916 29.2974 42.8238C30.2925 43.456 31.6195 43.5248 32.6744 42.9993C32.2156 44.7892 33.468 46.6624 35.0971 47.53C36.7256 48.3975 38.6383 48.4972 40.4813 48.579C42.3666 48.6623 44.2514 48.7455 46.1367 48.8293C46.7144 48.8547 47.2971 48.8812 47.8564 49.0282C48.5878 49.2212 49.2486 49.6121 49.9168 49.9666C51.1055 50.5973 52.346 51.1233 53.5849 51.6483C54.494 52.0337 55.4031 52.4192 56.3121 52.8046C57.0222 53.1057 57.7551 53.4119 58.5263 53.4223C60.0066 53.4423 61.3963 52.1988 61.5431 50.7229C61.6899 49.2466 60.5733 47.7528 59.1179 47.4796C59.516 47.4263 59.9146 47.3724 60.3126 47.3191C60.9804 46.2421 60.9903 44.7897 60.3375 43.7038C59.6847 42.6179 58.3994 41.9473 57.1371 42.0345C58.2875 40.2745 59.4712 38.4232 59.6762 36.3296C59.8812 34.236 58.7522 31.8488 56.7042 31.3851L22.3726 34.3153C21.8979 35.8066 22.3035 37.5447 23.3892 38.6705C24.4749 39.7963 26.194 40.262 27.6977 39.8377H27.6982Z" fill="url(#paint0_linear_54_3626)"/>
<path opacity="0.56" d="M105.896 48.9221C105.741 46.3049 104.03 43.8399 101.635 42.7834C99.2402 41.7269 96.2707 42.1278 94.2396 43.7806C92.4125 42.7874 90.1068 42.7345 88.2364 43.6425C86.3655 44.5504 84.9783 46.3967 84.6235 48.4489C81.2977 48.588 78.3491 51.605 78.28 54.9395C76.0503 54.601 73.45 54.3756 71.8573 55.9761C70.8168 57.0212 70.5193 58.7363 71.1472 60.072C70.1516 59.9584 69.1385 59.8447 68.1538 60.0307C67.397 60.1733 66.6497 60.5218 66.1317 61.0787C63.2691 60.0017 60.0941 59.557 57.0525 59.8831C56.9355 58.2911 55.5458 56.7709 53.7292 56.2478C51.9125 55.7248 49.7944 56.2349 48.6639 57.4674C48.8788 56.1636 48.0305 54.7421 46.6363 54.068C45.2416 53.3939 43.3966 53.5141 42.2238 54.3552C41.7182 53.0155 40.3519 51.9001 38.7447 51.5157C37.1381 51.1313 35.3468 51.4913 34.185 52.4321C32.4972 50.5385 29.8496 49.2561 27.0995 49.0008C24.8968 48.7964 22.6582 49.2541 20.85 50.2438C20.0718 54.3148 19.2936 58.3858 18.5154 62.4573C35.2075 64.5464 51.9001 66.6355 68.5922 68.7246C69.4376 68.8303 70.2999 68.936 71.1303 68.8183C71.9613 68.7002 72.7703 68.3192 73.1127 67.6795C73.6575 66.6619 72.8678 65.4703 71.9339 64.5853L105.895 65.7216V48.9221H105.896Z" fill="url(#paint1_linear_54_3626)"/>
<path d="M101.387 62.5924C99.4298 60.2495 95.5975 59.187 92.0234 59.3216C88.4494 59.4568 85.0718 60.6075 81.8924 61.8919C78.7129 63.1762 75.6035 64.6232 72.1782 65.4329C81.8924 64.669 91.6523 64.2622 101.415 64.2138" fill="#6DBCCA"/>
<path d="M39.6941 59.8038C43.3702 59.202 47.0686 60.4998 50.5293 61.8804C53.9899 63.2605 57.552 64.7718 61.2734 64.6137C53.5963 64.7743 45.9163 64.7932 38.2387 64.67C36.1071 64.6356 33.8138 64.8097 31.7085 64.5075C31.2194 62.4882 32.6743 62.6602 34.072 61.9627C35.7155 61.1425 37.7879 59.8043 39.6946 59.8043L39.6941 59.8038Z" fill="#64B0C2"/>
<path d="M45.0454 61.4317C45.0927 61.3569 45.1255 61.2756 45.1419 61.1889C45.1554 61.1176 45.1469 61.0493 45.1165 60.9815C45.0912 60.9246 45.0101 60.9156 45.0026 60.8598C44.9951 60.8045 45.0155 60.7451 45.0006 60.6868C44.9797 60.605 44.9389 60.5621 44.8663 60.5631C44.825 60.5636 44.8145 60.5472 44.8046 60.5123C44.7876 60.4534 44.7608 60.3981 44.6961 60.3757C44.5618 60.3283 44.4125 60.3802 44.3344 60.5013C44.2911 60.5691 44.2647 60.6439 44.2503 60.7222C44.2448 60.7516 44.2353 60.7661 44.2045 60.7691C44.1483 60.7745 44.1095 60.8084 44.0776 60.8523C43.993 60.97 43.989 61.0931 44.0607 61.2163C44.0841 61.2567 44.0826 61.2806 44.0537 61.318C43.9438 61.4621 43.9318 61.6211 44.006 61.7842C44.0741 61.9333 44.204 61.9836 44.3582 61.9881C44.3667 61.9881 44.3747 61.9896 44.3826 61.9901L44.3692 62.3795C44.3667 62.4503 44.4234 62.5086 44.4941 62.5086H44.5573C44.6279 62.5086 44.6847 62.4498 44.6822 62.3795L44.6727 62.0968C44.6921 62.0978 44.7125 62.0958 44.7334 62.0918C44.7369 62.0893 44.7409 62.0883 44.7454 62.0883C44.7702 62.0634 44.7991 62.0405 44.8095 62.0056C44.822 61.9642 44.8419 61.9597 44.8832 61.9712C44.9946 62.0026 45.0927 61.9607 45.132 61.8714C45.1867 61.7483 45.1514 61.5753 45.0489 61.487C45.0225 61.4646 45.0315 61.4516 45.0444 61.4312L45.0454 61.4317Z" fill="#48806D"/>
<path d="M46.587 61.5758C46.5606 61.5533 46.5696 61.5404 46.5825 61.5199C46.6298 61.4451 46.6626 61.3639 46.679 61.2771C46.6925 61.2058 46.684 61.1375 46.6537 61.0697C46.6283 61.0129 46.5472 61.0039 46.5397 60.9481C46.5322 60.8927 46.5526 60.8334 46.5377 60.775C46.5168 60.6933 46.476 60.6504 46.4034 60.6514C46.3621 60.6519 46.3516 60.6354 46.3417 60.6005C46.3248 60.5417 46.2979 60.4864 46.2332 60.4639C46.0989 60.4166 45.9496 60.4684 45.8715 60.5896C45.8282 60.6574 45.8018 60.7322 45.7874 60.8104C45.7819 60.8399 45.7725 60.8543 45.7416 60.8573C45.6854 60.8628 45.6466 60.8967 45.6147 60.9406C45.5301 61.0582 45.5262 61.1814 45.5978 61.3045C45.6212 61.3449 45.6197 61.3689 45.5908 61.4063C45.4809 61.5504 45.4689 61.7094 45.5431 61.8724C45.6112 62.0215 45.7411 62.0719 45.8954 62.0764C45.9038 62.0764 45.9118 62.0779 45.9197 62.0784L45.9063 62.4678C45.9038 62.5386 45.9605 62.5969 46.0312 62.5969H46.0944C46.165 62.5969 46.2218 62.5381 46.2193 62.4678L46.2098 62.1851C46.2292 62.1861 46.2496 62.1841 46.2705 62.1801C46.274 62.1776 46.278 62.1766 46.2825 62.1766C46.3073 62.1517 46.3362 62.1287 46.3467 62.0938C46.3591 62.0524 46.379 62.0479 46.4203 62.0594C46.5317 62.0908 46.6298 62.0489 46.6691 61.9597C46.7238 61.8365 46.6885 61.6635 46.586 61.5753L46.587 61.5758Z" fill="#48806D"/>
<path d="M20.4021 60.0461C22.7282 56.8122 27.1367 55.2462 30.9765 56.2897C32.8141 56.7893 34.462 57.8069 36.0806 58.8121C39.1228 60.7008 42.165 62.5899 45.2071 64.4786C36.5339 63.5308 27.8607 62.5829 19.1875 61.6351" fill="#80C4CF"/>
<path d="M23.7981 60.4714L94.9561 65.1357V66.3618H23.7981V60.4714Z" fill="#5CA287"/>
<path d="M94.6755 61.2078L62.1133 66.1444H95.0258L94.6755 61.2078Z" fill="#48806D"/>
<path d="M23.3853 65.8861L97.1585 66.3777L95.7752 76.7778L23.7982 74.952L23.3853 65.8861Z" fill="#7CDAEB"/>
<path d="M95.2433 67.688C95.2433 67.688 28.6296 71.3706 22.5642 70.3181V84.162H91.7319L99.9255 85.4394L95.2433 67.688Z" fill="#61AA9C"/>
<path d="M95.7752 87.9253H23.3853V73.5684L95.7752 77.0879V87.9253Z" fill="#90C661"/>
<path d="M29.1728 71.5172C29.0614 71.5556 28.9544 71.6074 28.8564 71.6732C28.824 71.6952 28.8066 71.7401 28.8295 71.7755C28.8504 71.8079 28.8967 71.8253 28.9315 71.8024C28.9773 71.772 29.0246 71.744 29.0733 71.7196C29.0853 71.7136 29.0977 71.7077 29.1097 71.7022C29.1161 71.6992 29.1226 71.6962 29.1296 71.6932C29.133 71.6917 29.136 71.6902 29.1395 71.6887C29.1305 71.6922 29.1291 71.6932 29.134 71.6912C29.1599 71.6807 29.1858 71.6708 29.2122 71.6613C29.249 71.6488 29.2773 71.6094 29.2644 71.569C29.2525 71.5326 29.2122 71.5032 29.1723 71.5167L29.1728 71.5172Z" fill="#529181"/>
<path d="M29.5759 71.5556C29.453 71.587 29.3425 71.6523 29.2355 71.7176C29.2022 71.7381 29.1868 71.7854 29.2087 71.8198C29.2301 71.8532 29.2749 71.8682 29.3107 71.8468C29.3609 71.8158 29.4117 71.7854 29.4644 71.7585C29.4774 71.752 29.4903 71.7455 29.5032 71.7396C29.5102 71.7366 29.5172 71.7326 29.5241 71.7301C29.5062 71.7361 29.5266 71.7291 29.5301 71.7276C29.558 71.7166 29.5863 71.7071 29.6152 71.6997C29.653 71.6902 29.6794 71.6458 29.6674 71.6074C29.655 71.568 29.6162 71.5446 29.5754 71.5551L29.5759 71.5556Z" fill="#529181"/>
<path d="M29.9128 71.6319C29.8083 71.6712 29.7058 71.7166 29.6068 71.769C29.5719 71.7874 29.559 71.8383 29.5799 71.8712C29.6028 71.9066 29.6451 71.9175 29.6819 71.8981C29.7277 71.8742 29.7739 71.8512 29.8212 71.8298C29.8327 71.8248 29.8446 71.8193 29.856 71.8143C29.86 71.8128 29.8789 71.8039 29.8605 71.8123C29.8665 71.8099 29.8725 71.8074 29.8779 71.8049C29.9023 71.7949 29.9267 71.7854 29.9516 71.7759C29.97 71.769 29.9859 71.7595 29.9964 71.7415C30.0058 71.7256 30.0098 71.7017 30.0038 71.6837C29.9924 71.6478 29.9511 71.6169 29.9118 71.6314L29.9128 71.6319Z" fill="#529181"/>
<path d="M33.8883 74.4494C33.7704 74.5172 33.6619 74.602 33.5674 74.6997C33.54 74.7276 33.5375 74.778 33.5674 74.8054C33.5967 74.8323 33.644 74.8353 33.6729 74.8054C33.7171 74.759 33.7649 74.7166 33.8152 74.6768C33.8231 74.6703 33.8047 74.6847 33.8127 74.6788C33.8157 74.6768 33.8186 74.6743 33.8211 74.6723C33.8276 74.6673 33.8341 74.6628 33.8405 74.6578C33.8535 74.6483 33.8669 74.6389 33.8803 74.6299C33.9072 74.6119 33.9351 74.595 33.9629 74.5785C33.9968 74.5591 34.0112 74.5097 33.9898 74.4763C33.9679 74.4419 33.9241 74.4285 33.8878 74.4494H33.8883Z" fill="#529181"/>
<path d="M34.2063 74.4823C34.1276 74.5257 34.0485 74.5691 33.9699 74.6129C33.9356 74.6319 33.9216 74.6817 33.943 74.7151C33.9654 74.75 34.0087 74.762 34.045 74.7421C34.1237 74.6987 34.2028 74.6553 34.2814 74.6114C34.3157 74.5925 34.3297 74.5426 34.3083 74.5092C34.2859 74.4743 34.2426 74.4624 34.2063 74.4823Z" fill="#529181"/>
<path d="M40.2986 72.3084C40.1553 72.3693 40.0344 72.473 39.9458 72.6006C39.9234 72.633 39.9389 72.6849 39.9727 72.7028C40.011 72.7228 40.0508 72.7103 40.0747 72.6759C40.0797 72.6689 40.0846 72.6614 40.0901 72.6545C40.0916 72.6525 40.1006 72.64 40.0936 72.6495C40.0866 72.659 40.0971 72.6455 40.0976 72.6445C40.1085 72.631 40.12 72.6176 40.1319 72.6046C40.1553 72.5797 40.1802 72.5562 40.207 72.5348C40.21 72.5323 40.215 72.5298 40.2175 72.5268C40.2145 72.5303 40.207 72.5348 40.215 72.5288C40.222 72.5238 40.2289 72.5183 40.2364 72.5134C40.2508 72.5034 40.2653 72.4939 40.2807 72.4849C40.3105 72.467 40.3419 72.451 40.3742 72.4376C40.3902 72.4306 40.4041 72.4087 40.4086 72.3927C40.4135 72.3748 40.411 72.3508 40.4011 72.3349C40.3906 72.3189 40.3757 72.305 40.3563 72.3005C40.3354 72.2955 40.3185 72.2995 40.2986 72.3079V72.3084Z" fill="#529181"/>
<path d="M40.6231 72.4675C40.453 72.4999 40.3002 72.6101 40.2116 72.7587C40.1917 72.7921 40.2032 72.8424 40.2385 72.8609C40.2743 72.8798 40.3191 72.8699 40.3405 72.834C40.35 72.818 40.3604 72.8026 40.3714 72.7876C40.3659 72.7941 40.3793 72.7761 40.3714 72.7876C40.3743 72.7841 40.3773 72.7806 40.3803 72.7766C40.3863 72.7697 40.3923 72.7627 40.3987 72.7557C40.4112 72.7422 40.4246 72.7293 40.4385 72.7173C40.444 72.7123 40.453 72.7018 40.4599 72.6994C40.452 72.7053 40.4525 72.7018 40.4599 72.6994C40.4639 72.6969 40.4674 72.6939 40.4714 72.6914C40.4868 72.6809 40.5022 72.6709 40.5186 72.662C40.5266 72.6575 40.5351 72.653 40.5435 72.649C40.547 72.6475 40.55 72.646 40.5535 72.644C40.554 72.644 40.5704 72.6365 40.5599 72.641C40.5495 72.6455 40.5644 72.6395 40.5664 72.6385C40.5709 72.637 40.5749 72.635 40.5793 72.6335C40.5878 72.6305 40.5968 72.6276 40.6057 72.6246C40.6241 72.6191 40.643 72.6146 40.6624 72.6106C40.7008 72.6031 40.7261 72.5548 40.7147 72.5184C40.7012 72.477 40.6639 72.4585 40.6226 72.466L40.6231 72.4675Z" fill="#529181"/>
<path d="M45.1977 71.4205C45.1245 71.4454 45.0544 71.4793 44.9907 71.5227C44.9743 71.5336 44.9618 71.5481 44.9563 71.5675C44.9514 71.5855 44.9539 71.6094 44.9638 71.6254C44.9743 71.6413 44.9892 71.6553 45.0086 71.6598C45.0275 71.6643 45.0494 71.6633 45.0663 71.6523C45.1091 71.6234 45.1539 71.599 45.2012 71.5785C45.1952 71.581 45.1892 71.5835 45.1832 71.586C45.2012 71.5785 45.2191 71.5715 45.2375 71.565C45.2559 71.5586 45.2718 71.5481 45.2823 71.5306C45.2917 71.5147 45.2957 71.4908 45.2897 71.4728C45.2837 71.4549 45.2728 71.4374 45.2554 71.4279C45.2385 71.419 45.2171 71.414 45.1977 71.4205Z" fill="#529181"/>
<path d="M45.5431 71.4574C45.463 71.5032 45.3859 71.5536 45.3117 71.6079C45.2953 71.6199 45.2829 71.6324 45.2774 71.6528C45.2724 71.6708 45.2749 71.6947 45.2849 71.7106C45.2953 71.7266 45.3102 71.7406 45.3296 71.745C45.348 71.749 45.3714 71.749 45.3874 71.7376C45.4615 71.6832 45.5386 71.6329 45.6187 71.587C45.6526 71.5675 45.667 71.5182 45.6456 71.4848C45.6237 71.4504 45.5799 71.4369 45.5436 71.4579L45.5431 71.4574Z" fill="#529181"/>
<path d="M45.866 71.5112C45.8029 71.5581 45.7397 71.6054 45.6765 71.6523C45.6605 71.6643 45.6476 71.6767 45.6421 71.6972C45.6372 71.7151 45.6396 71.7391 45.6496 71.755C45.66 71.771 45.675 71.7849 45.6944 71.7894C45.7128 71.7934 45.7362 71.7934 45.7521 71.7819C45.8153 71.7351 45.8785 71.6877 45.9417 71.6408C45.9576 71.6289 45.9705 71.6164 45.976 71.596C45.981 71.578 45.9785 71.5541 45.9685 71.5381C45.9581 71.5222 45.9432 71.5082 45.9238 71.5037C45.9054 71.4997 45.882 71.4997 45.866 71.5112Z" fill="#529181"/>
<path d="M46.3899 75.119C46.3671 75.1394 46.3437 75.1599 46.3198 75.1793C46.3073 75.1893 46.2954 75.1993 46.283 75.2093C46.277 75.2137 46.2715 75.2187 46.2655 75.2232C46.2626 75.2257 46.2596 75.2277 46.2566 75.2302C46.2631 75.2252 46.2641 75.2247 46.2566 75.2302C46.2068 75.2681 46.1556 75.304 46.1033 75.3379C46.0705 75.3593 46.0541 75.4052 46.0765 75.4401C46.0974 75.473 46.1436 75.4895 46.1785 75.467C46.2904 75.3947 46.3964 75.313 46.4959 75.2242C46.5253 75.1983 46.5243 75.1449 46.4959 75.1185C46.4646 75.0901 46.4213 75.0906 46.3904 75.1185L46.3899 75.119Z" fill="#529181"/>
<path d="M46.8119 75.2775C46.7213 75.3134 46.6307 75.3488 46.5402 75.3847C46.5213 75.3922 46.5063 75.4012 46.4954 75.4191C46.4859 75.4351 46.482 75.459 46.4879 75.477C46.4994 75.5124 46.5407 75.5448 46.58 75.5293C46.6705 75.4934 46.7611 75.458 46.8517 75.4221C46.8706 75.4147 46.886 75.4057 46.8964 75.3877C46.9059 75.3718 46.9099 75.3478 46.9039 75.3299C46.8925 75.2945 46.8512 75.2621 46.8119 75.2775Z" fill="#529181"/>
<path d="M60.2399 70.5275L60.0981 70.6461C60.0841 70.6576 60.0762 70.6815 60.0762 70.699C60.0762 70.7174 60.0841 70.7394 60.0981 70.7518C60.1125 70.7648 60.1309 70.7748 60.1508 70.7738C60.1573 70.7728 60.1642 70.7718 60.1707 70.7713C60.1831 70.7678 60.1941 70.7613 60.2036 70.7518C60.2508 70.7124 60.2981 70.6731 60.3454 70.6332C60.3593 70.6217 60.3673 70.5978 60.3673 70.5803C60.3673 70.5619 60.3593 70.5399 60.3454 70.5275C60.3309 70.5145 60.3125 70.5045 60.2926 70.5055C60.2861 70.5065 60.2792 70.5075 60.2727 70.508C60.2603 70.5115 60.2493 70.518 60.2399 70.5275Z" fill="#529181"/>
<path d="M60.8475 70.5768C60.7664 70.6332 60.6892 70.6955 60.6181 70.7643C60.5897 70.7917 60.5887 70.8431 60.6181 70.87C60.6484 70.8979 60.6937 70.8989 60.7236 70.87C60.7684 70.8266 60.8151 70.7863 60.8644 70.7479L60.8495 70.7593C60.8733 70.7409 60.8982 70.7229 60.9231 70.7055C60.9395 70.694 60.952 70.6806 60.9574 70.6606C60.9624 70.6427 60.9599 70.6187 60.95 70.6028C60.9296 70.5709 60.8823 70.5519 60.848 70.5759L60.8475 70.5768Z" fill="#529181"/>
<path d="M59.8156 70.4876C59.7201 70.5345 59.632 70.5963 59.5539 70.6691C59.525 70.696 59.525 70.7484 59.5539 70.7748C59.5847 70.8032 59.629 70.8032 59.6594 70.7748C59.6773 70.7578 59.6962 70.7419 59.7151 70.7264C59.7196 70.7229 59.724 70.7189 59.7285 70.7154C59.726 70.7169 59.7156 70.7249 59.7235 70.7189C59.7265 70.7169 59.7295 70.7144 59.7325 70.7125C59.7424 70.705 59.7524 70.698 59.7628 70.691C59.8037 70.6631 59.8464 70.6382 59.8907 70.6167C59.9261 70.5993 59.938 70.5464 59.9176 70.5145C59.8942 70.4786 59.8529 70.4691 59.8156 70.4876Z" fill="#529181"/>
<path d="M62.8049 74.9221C62.7731 74.9535 62.7417 74.9849 62.7099 75.0163C62.6964 75.0298 62.688 75.0502 62.688 75.0691C62.688 75.0796 62.69 75.0891 62.6945 75.0981C62.6974 75.1075 62.7024 75.1155 62.7099 75.122C62.7243 75.135 62.7427 75.1449 62.7626 75.1439C62.7825 75.1429 62.8009 75.1365 62.8154 75.122C62.8472 75.0906 62.8786 75.0592 62.9104 75.0278C62.9238 75.0143 62.9323 74.9939 62.9323 74.9749C62.9323 74.9644 62.9303 74.955 62.9258 74.946C62.9228 74.9365 62.9179 74.9285 62.9104 74.9221C62.896 74.9091 62.8776 74.8991 62.8577 74.9001C62.8378 74.9011 62.8193 74.9076 62.8049 74.9221Z" fill="#529181"/>
<path d="M63.1398 74.946C63.0866 74.9809 63.0418 75.0263 63.0085 75.0811C62.9985 75.0976 62.996 75.1205 63.001 75.1389C63.006 75.1564 63.0189 75.1753 63.0354 75.1838C63.0528 75.1928 63.0737 75.1978 63.0931 75.1913C63.112 75.1853 63.1274 75.1738 63.1379 75.1569C63.1443 75.1464 63.1508 75.1369 63.1583 75.127C63.1543 75.132 63.1503 75.1369 63.1468 75.1419C63.1647 75.1185 63.1856 75.0975 63.209 75.0791L63.1941 75.0906C63.201 75.0851 63.2085 75.0796 63.216 75.0746C63.2324 75.0636 63.2448 75.0492 63.2503 75.0297C63.2533 75.0198 63.2538 75.0098 63.2518 74.9998C63.2518 74.9899 63.2483 74.9804 63.2428 74.9719C63.2324 74.956 63.2175 74.942 63.1981 74.9375C63.1792 74.933 63.1573 74.934 63.1403 74.945L63.1398 74.946Z" fill="#529181"/>
<path d="M63.495 75.0063C63.4661 75.0223 63.4397 75.0417 63.4149 75.0632C63.394 75.0806 63.3755 75.1005 63.3586 75.122C63.3512 75.129 63.3462 75.1369 63.3432 75.1459C63.3387 75.1549 63.3362 75.1644 63.3367 75.1748C63.3367 75.1933 63.3447 75.2152 63.3586 75.2277C63.3731 75.2407 63.3915 75.2506 63.4114 75.2496C63.4178 75.2486 63.4248 75.2476 63.4313 75.2471C63.4437 75.2436 63.4547 75.2372 63.4641 75.2277C63.4845 75.2013 63.5084 75.1778 63.5348 75.1574L63.5198 75.1689C63.5358 75.1564 63.5532 75.1454 63.5711 75.1354C63.5875 75.1265 63.6004 75.1085 63.6054 75.0906C63.6104 75.0726 63.6079 75.0487 63.598 75.0327C63.5875 75.0168 63.5726 75.0028 63.5532 74.9983C63.5333 74.9938 63.5139 74.9958 63.4955 75.0058L63.495 75.0063Z" fill="#529181"/>
<path d="M74.654 70.2208C74.5679 70.3016 74.5052 70.4093 74.4779 70.5245C74.4689 70.5624 74.4898 70.6073 74.5301 70.6167C74.5684 70.6257 74.6122 70.6053 74.6222 70.5644C74.6282 70.5394 74.6356 70.5145 74.6451 70.4906C74.6461 70.4881 74.65 70.4781 74.6451 70.4891C74.6401 70.5011 74.6461 70.4876 74.6466 70.4861C74.649 70.4806 74.6515 70.4756 74.654 70.4701C74.66 70.4582 74.666 70.4467 74.6724 70.4352C74.6789 70.4243 74.6854 70.4138 74.6923 70.4033C74.6958 70.3978 74.6998 70.3924 74.7038 70.3869C74.7053 70.3844 74.7073 70.3824 74.7093 70.3799C74.7078 70.3824 74.6993 70.3924 74.7058 70.3844C74.7227 70.3639 74.7401 70.3445 74.7595 70.3261C74.7879 70.2991 74.7884 70.2468 74.7595 70.2203C74.7287 70.1924 74.6844 70.1919 74.654 70.2203V70.2208Z" fill="#529181"/>
<path d="M74.9641 70.2567C74.9213 70.2772 74.8815 70.3076 74.8491 70.342C74.8312 70.3609 74.8148 70.3824 74.8009 70.4043C74.7859 70.4273 74.775 70.4522 74.7645 70.4776C74.7576 70.4946 74.7635 70.5205 74.772 70.5355C74.781 70.5509 74.7989 70.5659 74.8168 70.5699C74.8357 70.5743 74.8571 70.5734 74.8745 70.5624L74.8894 70.5509C74.8989 70.5414 74.9049 70.5305 74.9088 70.518C74.9093 70.5165 74.9103 70.5145 74.9108 70.513C74.9083 70.519 74.9058 70.525 74.9034 70.531C74.9143 70.505 74.9287 70.4806 74.9457 70.4582C74.9417 70.4632 74.9377 70.4681 74.9342 70.4731C74.9521 70.4502 74.9725 70.4293 74.9954 70.4113L74.9805 70.4228C74.9994 70.4083 75.0193 70.3958 75.0402 70.3859C75.0561 70.3779 75.07 70.358 75.0745 70.341C75.0795 70.3231 75.077 70.2991 75.0671 70.2832C75.0566 70.2672 75.0417 70.2533 75.0223 70.2488C75.0019 70.2443 74.9835 70.2473 74.9646 70.2562L74.9641 70.2567Z" fill="#529181"/>
<path d="M75.302 70.3221C75.2762 70.333 75.2513 70.344 75.2279 70.3594C75.205 70.3744 75.1836 70.3914 75.1637 70.4098C75.1279 70.4437 75.0975 70.4851 75.0761 70.5295C75.0672 70.5479 75.0632 70.5669 75.0687 70.5873C75.0736 70.6048 75.0866 70.6237 75.103 70.6322C75.1204 70.6412 75.1413 70.6461 75.1607 70.6397C75.1781 70.6342 75.197 70.6227 75.2055 70.6053C75.2164 70.5823 75.2294 70.5614 75.2448 70.5414C75.2408 70.5464 75.2368 70.5514 75.2334 70.5564C75.2518 70.533 75.2727 70.512 75.2961 70.4936C75.2911 70.4976 75.2861 70.5015 75.2811 70.505C75.3045 70.4871 75.3304 70.4716 75.3578 70.4597C75.3518 70.4622 75.3458 70.4646 75.3398 70.4671C75.3408 70.4671 75.3413 70.4666 75.3423 70.4661C75.3523 70.4637 75.3607 70.4592 75.3677 70.4527C75.3757 70.4472 75.3821 70.4402 75.3871 70.4317C75.3966 70.4158 75.4005 70.3919 75.3946 70.3739C75.3886 70.356 75.3777 70.3385 75.3602 70.329C75.3438 70.3206 75.3209 70.3141 75.3025 70.3216L75.302 70.3221Z" fill="#529181"/>
<path d="M86.595 73.2289C86.5059 73.3041 86.4407 73.4024 86.3994 73.5111C86.393 73.528 86.3979 73.5534 86.4069 73.5689C86.4158 73.5844 86.4338 73.5993 86.4517 73.6033C86.4706 73.6078 86.4925 73.6068 86.5094 73.5958C86.5268 73.5849 86.5363 73.5704 86.5437 73.551C86.5467 73.5435 86.5497 73.5355 86.5527 73.528C86.5502 73.534 86.5477 73.54 86.5452 73.546C86.5636 73.5031 86.5865 73.4622 86.6144 73.4248C86.6159 73.4228 86.6179 73.4203 86.6193 73.4183C86.6253 73.4103 86.6164 73.4218 86.6154 73.4238C86.6174 73.4193 86.6223 73.4148 86.6258 73.4108C86.6333 73.4019 86.6407 73.3934 86.6487 73.3844C86.6651 73.367 86.6825 73.3505 86.701 73.3351C86.7149 73.3231 86.7228 73.2997 86.7228 73.2822C86.7228 73.2648 86.7149 73.2418 86.701 73.2294C86.6691 73.1999 86.6273 73.2024 86.5955 73.2294L86.595 73.2289Z" fill="#529181"/>
<path d="M87.1437 73.2648C87.1073 73.2682 87.074 73.2772 87.0422 73.2957C87.0173 73.3101 86.9944 73.3296 86.9765 73.352C86.9546 73.3794 86.9377 73.4083 86.9272 73.4428C86.9163 73.4782 86.9168 73.5131 86.9222 73.5494C86.9247 73.5664 86.9421 73.5858 86.9566 73.5943C86.9725 73.6038 86.9964 73.6078 87.0143 73.6018C87.0322 73.5958 87.0496 73.5848 87.0591 73.5674C87.0616 73.5614 87.064 73.5554 87.0665 73.5494C87.07 73.536 87.07 73.523 87.0665 73.5096V73.5071C87.067 73.5136 87.068 73.5205 87.069 73.527C87.0675 73.514 87.0675 73.5011 87.069 73.4881C87.068 73.4946 87.067 73.5016 87.0665 73.5081C87.0685 73.4936 87.0725 73.4791 87.078 73.4657C87.0755 73.4717 87.073 73.4777 87.0705 73.4836C87.0765 73.4692 87.0845 73.4557 87.0944 73.4432C87.0904 73.4482 87.0864 73.4532 87.083 73.4582C87.0929 73.4457 87.1039 73.4348 87.1163 73.4253L87.1014 73.4368C87.1123 73.4283 87.1243 73.4213 87.1372 73.4158C87.1312 73.4183 87.1253 73.4208 87.1193 73.4233C87.1322 73.4178 87.1456 73.4143 87.1591 73.4123C87.1526 73.4133 87.1457 73.4143 87.1392 73.4148C87.1407 73.4148 87.1427 73.4148 87.1442 73.4143C87.1646 73.4123 87.182 73.4074 87.1969 73.3924C87.2098 73.3794 87.2198 73.358 87.2188 73.3395C87.2178 73.3201 87.2118 73.3002 87.1969 73.2867C87.183 73.2742 87.1636 73.2628 87.1442 73.2648H87.1437Z" fill="#529181"/>
<path d="M87.5309 73.2393C87.4155 73.3126 87.3424 73.4407 87.3394 73.5779C87.3384 73.6167 87.3742 73.6546 87.414 73.6526C87.4553 73.6506 87.4877 73.6197 87.4886 73.5779C87.4886 73.5709 87.4886 73.5639 87.4896 73.5569C87.4896 73.5539 87.4901 73.5514 87.4906 73.5484C87.4921 73.5355 87.4882 73.5634 87.4896 73.5539C87.4916 73.5415 87.4941 73.5295 87.4976 73.5175C87.5011 73.5056 87.5041 73.4916 87.51 73.4801C87.5076 73.4846 87.5031 73.4956 87.5081 73.4846C87.509 73.4821 87.5105 73.4796 87.5115 73.4771C87.5145 73.4712 87.518 73.4647 87.521 73.4587C87.527 73.4477 87.5339 73.4373 87.5409 73.4273C87.5479 73.4178 87.5414 73.4273 87.5379 73.4308C87.5399 73.4288 87.5414 73.4263 87.5429 73.4243C87.5474 73.4188 87.5518 73.4138 87.5563 73.4088C87.5648 73.3999 87.5737 73.3914 87.5832 73.3829C87.5857 73.3809 87.5887 73.3784 87.5912 73.3764C87.5981 73.3709 87.5752 73.3879 87.5877 73.3794C87.5931 73.3754 87.5991 73.3714 87.6051 73.3679C87.6379 73.347 87.6543 73.3006 87.6319 73.2657C87.6106 73.2328 87.5653 73.2164 87.53 73.2388L87.5309 73.2393Z" fill="#529181"/>
<path d="M91.2626 70.5569C91.2074 70.5694 91.1571 70.5978 91.1143 70.6347C91.071 70.6721 91.0407 70.7204 91.0203 70.7733C91.0138 70.7902 91.0188 70.8157 91.0277 70.8311C91.0367 70.8466 91.0546 70.8615 91.0725 70.8655C91.0914 70.87 91.1133 70.869 91.1302 70.858L91.1452 70.8466C91.1546 70.8371 91.1606 70.8261 91.1646 70.8137C91.1656 70.8112 91.1666 70.8087 91.1676 70.8057C91.1651 70.8117 91.1626 70.8177 91.1601 70.8236C91.169 70.8027 91.1805 70.7837 91.1944 70.7658C91.1904 70.7708 91.1865 70.7758 91.183 70.7808C91.1974 70.7623 91.2143 70.7459 91.2327 70.7314C91.2278 70.7354 91.2228 70.7394 91.2178 70.7429C91.2357 70.7294 91.2551 70.7179 91.276 70.709C91.2701 70.7115 91.2641 70.7139 91.2581 70.7164C91.273 70.7105 91.288 70.7055 91.3034 70.702C91.3417 70.6935 91.3676 70.6471 91.3556 70.6097C91.3427 70.5698 91.3049 70.5484 91.2636 70.5574L91.2626 70.5569Z" fill="#529181"/>
<path d="M91.5915 70.5614C91.5288 70.5828 91.477 70.6247 91.4427 70.6815C91.4273 70.7065 91.4158 70.7354 91.4094 70.7638C91.4014 70.8007 91.4019 70.8341 91.4074 70.8715C91.4099 70.889 91.4273 70.9079 91.4417 70.9164C91.4576 70.9259 91.4815 70.9298 91.4994 70.9239C91.5173 70.9179 91.5348 70.9069 91.5442 70.8895C91.5542 70.8705 91.5552 70.8531 91.5517 70.8316C91.5517 70.8296 91.5512 70.8276 91.5507 70.8256C91.5517 70.8321 91.5527 70.8391 91.5532 70.8456C91.5512 70.8296 91.5517 70.8132 91.5532 70.7972C91.5522 70.8037 91.5512 70.8107 91.5507 70.8172C91.5532 70.8002 91.5576 70.7838 91.5641 70.7678C91.5616 70.7738 91.5591 70.7798 91.5566 70.7858C91.5636 70.7688 91.5731 70.7533 91.584 70.7384C91.58 70.7434 91.5761 70.7484 91.5726 70.7533C91.5835 70.7389 91.5965 70.7259 91.6109 70.715C91.6059 70.7189 91.6009 70.7229 91.596 70.7264C91.6079 70.7174 91.6208 70.7095 91.6348 70.7035C91.6288 70.706 91.6228 70.7085 91.6169 70.711C91.6213 70.709 91.6263 70.707 91.6308 70.7055C91.6492 70.699 91.6651 70.6885 91.6756 70.6711C91.685 70.6551 91.689 70.6312 91.683 70.6132C91.6711 70.5763 91.6308 70.5474 91.591 70.5609L91.5915 70.5614Z" fill="#529181"/>
<path d="M91.831 70.6083C91.7608 70.6716 91.7106 70.7628 91.6976 70.8566C91.6947 70.8775 91.6942 70.8954 91.7051 70.9144C91.7141 70.9298 91.732 70.9448 91.7499 70.9488C91.7688 70.9533 91.7907 70.9523 91.8076 70.9413C91.8225 70.9313 91.8394 70.9154 91.8419 70.8964C91.8459 70.8655 91.8544 70.8356 91.8663 70.8067C91.8638 70.8127 91.8613 70.8187 91.8589 70.8246C91.8708 70.7972 91.8857 70.7713 91.9041 70.7469L91.8927 70.7618C91.9061 70.7444 91.921 70.7284 91.9375 70.714C91.9668 70.6875 91.9658 70.6347 91.9375 70.6083C91.9061 70.5798 91.8628 70.5803 91.832 70.6083H91.831Z" fill="#529181"/>
<g style="mix-blend-mode:multiply">
<path d="M38.0969 79.2668C37.9784 79.3431 37.869 79.4348 37.7739 79.539C37.7476 79.5679 37.7431 79.6168 37.7739 79.6447C37.8028 79.6711 37.8516 79.6756 37.8794 79.6447C37.9242 79.5953 37.972 79.549 38.0227 79.5061C38.0352 79.4956 38.0481 79.4852 38.0605 79.4747C38.0635 79.4722 38.0665 79.4702 38.069 79.4677C38.058 79.4762 38.076 79.4617 38.069 79.4677C38.0755 79.4627 38.0819 79.4577 38.0889 79.4528C38.1158 79.4328 38.1436 79.4139 38.172 79.3954C38.2048 79.3745 38.2213 79.3281 38.1989 79.2932C38.178 79.2603 38.1317 79.2438 38.0969 79.2663V79.2668Z" fill="#65B261"/>
</g>
<g style="mix-blend-mode:multiply">
<path d="M38.3478 79.3421C38.2542 79.3904 38.1681 79.4562 38.097 79.5345C38.0706 79.5634 38.0666 79.6123 38.097 79.6402C38.1258 79.6667 38.1746 79.6711 38.2025 79.6402C38.2353 79.6043 38.2706 79.5714 38.3089 79.542C38.304 79.546 38.299 79.55 38.294 79.5535C38.3343 79.5221 38.3776 79.4946 38.4229 79.4712C38.4577 79.4533 38.4707 79.4014 38.4498 79.369C38.4269 79.3336 38.3846 79.3231 38.3478 79.3421Z" fill="#65B261"/>
</g>
<g style="mix-blend-mode:multiply">
<path d="M38.8153 79.3555C38.7153 79.4143 38.6233 79.4886 38.5457 79.5744C38.5193 79.6033 38.5148 79.6522 38.5457 79.6801C38.5745 79.7065 38.6233 79.711 38.6511 79.6801C38.6875 79.6397 38.7268 79.6023 38.7691 79.5679C38.774 79.5639 38.7795 79.5594 38.7845 79.5554C38.7925 79.5495 38.7825 79.5574 38.78 79.5589C38.783 79.5569 38.786 79.5545 38.789 79.5525C38.7994 79.5445 38.8104 79.5365 38.8213 79.529C38.8437 79.5136 38.8671 79.4986 38.891 79.4846C38.9248 79.4647 38.9397 79.4163 38.9178 79.3824C38.896 79.3485 38.8517 79.3346 38.8158 79.3555H38.8153Z" fill="#65B261"/>
</g>
<g style="mix-blend-mode:multiply">
<path d="M43.6149 84.0921C43.488 84.2098 43.3617 84.328 43.2348 84.4456C43.2059 84.4721 43.2059 84.5249 43.2348 84.5513C43.2656 84.5798 43.3099 84.5798 43.3403 84.5513C43.4671 84.4337 43.5935 84.3155 43.7204 84.1978C43.7493 84.1714 43.7493 84.1186 43.7204 84.0921C43.6896 84.0637 43.6453 84.0637 43.6149 84.0921Z" fill="#65B261"/>
</g>
<g style="mix-blend-mode:multiply">
<path d="M43.9478 84.2123C43.8612 84.315 43.7742 84.4177 43.6876 84.5199C43.6622 84.5498 43.6562 84.5967 43.6876 84.6256C43.7155 84.6511 43.7662 84.6575 43.7931 84.6256C43.8797 84.5229 43.9667 84.4202 44.0533 84.318C44.0787 84.2881 44.0847 84.2412 44.0533 84.2123C44.0254 84.1869 43.9747 84.1804 43.9478 84.2123Z" fill="#65B261"/>
</g>
<g style="mix-blend-mode:multiply">
<path d="M44.252 84.3519C44.2206 84.3918 44.1893 84.4312 44.1579 84.4711C44.1505 84.478 44.1455 84.486 44.1425 84.495C44.138 84.504 44.1356 84.5134 44.136 84.5239C44.136 84.5424 44.144 84.5643 44.1579 84.5768C44.1724 84.5897 44.1908 84.5997 44.2107 84.5987C44.2291 84.5977 44.2515 84.5922 44.2634 84.5768C44.2948 84.5369 44.3261 84.4975 44.3575 84.4576C44.3649 84.4506 44.3699 84.4426 44.3729 84.4337C44.3774 84.4247 44.3799 84.4152 44.3794 84.4048C44.3794 84.3863 44.3714 84.3644 44.3575 84.3519C44.343 84.3389 44.3246 84.329 44.3047 84.33C44.2863 84.331 44.2639 84.3364 44.252 84.3519Z" fill="#65B261"/>
</g>
<g style="mix-blend-mode:multiply">
<path d="M27.7245 77.8613C27.5977 77.9789 27.4713 78.0971 27.3444 78.2148C27.3155 78.2412 27.3155 78.294 27.3444 78.3205C27.3752 78.3489 27.4195 78.3489 27.4499 78.3205C27.5768 78.2028 27.7031 78.0846 27.83 77.967C27.8589 77.9405 27.8589 77.8877 27.83 77.8613C27.7992 77.8328 27.7549 77.8328 27.7245 77.8613Z" fill="#65B261"/>
</g>
<g style="mix-blend-mode:multiply">
<path d="M28.057 77.9809L27.7967 78.2886C27.7713 78.3185 27.7654 78.3653 27.7967 78.3943C27.8246 78.4197 27.8753 78.4262 27.9022 78.3943L28.1624 78.0866C28.1878 78.0567 28.1938 78.0098 28.1624 77.9809C28.1346 77.9555 28.0838 77.949 28.057 77.9809Z" fill="#65B261"/>
</g>
<g style="mix-blend-mode:multiply">
<path d="M28.3614 78.121C28.33 78.1609 28.2987 78.2003 28.2673 78.2402C28.2599 78.2472 28.2549 78.2551 28.2519 78.2641C28.2474 78.2731 28.2449 78.2825 28.2454 78.293C28.2454 78.3115 28.2534 78.3334 28.2673 78.3459C28.2817 78.3588 28.3002 78.3688 28.3201 78.3678C28.3385 78.3668 28.3609 78.3613 28.3728 78.3459C28.4042 78.306 28.4355 78.2666 28.4668 78.2267C28.4743 78.2197 28.4793 78.2118 28.4823 78.2028C28.4867 78.1938 28.4892 78.1843 28.4887 78.1739C28.4887 78.1554 28.4808 78.1335 28.4668 78.121C28.4524 78.108 28.434 78.0981 28.4141 78.0991C28.3957 78.1001 28.3733 78.1055 28.3614 78.121Z" fill="#65B261"/>
</g>
<g style="mix-blend-mode:multiply">
<path d="M31.9394 83.0017C31.8125 83.1194 31.6861 83.2376 31.5592 83.3552C31.5304 83.3816 31.5304 83.4345 31.5592 83.4609C31.5901 83.4893 31.6344 83.4893 31.6647 83.4609C31.7916 83.3433 31.918 83.2251 32.0449 83.1074C32.0737 83.081 32.0737 83.0281 32.0449 83.0017C32.014 82.9733 31.9697 82.9733 31.9394 83.0017Z" fill="#65B261"/>
</g>
<g style="mix-blend-mode:multiply">
<path d="M32.2718 83.1219C32.1852 83.2246 32.0981 83.3273 32.0116 83.4295C31.9862 83.4594 31.9802 83.5063 32.0116 83.5352C32.0394 83.5606 32.0902 83.5671 32.117 83.5352C32.2036 83.4325 32.2907 83.3298 32.3773 83.2276C32.4027 83.1977 32.4086 83.1508 32.3773 83.1219C32.3494 83.0965 32.2987 83.09 32.2718 83.1219Z" fill="#65B261"/>
</g>
<g style="mix-blend-mode:multiply">
<path d="M32.5757 83.2615C32.5444 83.3014 32.513 83.3408 32.4817 83.3807C32.4742 83.3877 32.4692 83.3956 32.4662 83.4046C32.4618 83.4136 32.4593 83.4231 32.4598 83.4335C32.4598 83.452 32.4677 83.4739 32.4817 83.4864C32.4961 83.4993 32.5145 83.5093 32.5344 83.5083C32.5528 83.5073 32.5752 83.5018 32.5872 83.4864C32.6185 83.4465 32.6499 83.4071 32.6812 83.3672C32.6887 83.3602 32.6936 83.3523 32.6966 83.3433C32.7011 83.3343 32.7036 83.3248 32.7031 83.3144C32.7031 83.2959 32.6951 83.274 32.6812 83.2615C32.6668 83.2485 32.6484 83.2386 32.6285 83.2396C32.61 83.2406 32.5877 83.246 32.5757 83.2615Z" fill="#65B261"/>
</g>
<g style="mix-blend-mode:multiply">
<path d="M84.3876 77.2425C84.2608 77.3602 84.1344 77.4783 84.0075 77.596C83.9786 77.6224 83.9786 77.6753 84.0075 77.7017C84.0383 77.7301 84.0826 77.7301 84.113 77.7017C84.2399 77.584 84.3662 77.4659 84.4931 77.3482C84.522 77.3218 84.522 77.2689 84.4931 77.2425C84.4623 77.2141 84.418 77.2141 84.3876 77.2425Z" fill="#65B261"/>
</g>
<g style="mix-blend-mode:multiply">
<path d="M84.72 77.3622C84.6335 77.4649 84.5464 77.5676 84.4598 77.6698C84.4344 77.6997 84.4285 77.7466 84.4598 77.7755C84.4877 77.8009 84.5384 77.8074 84.5653 77.7755C84.6519 77.6728 84.739 77.5701 84.8255 77.4679C84.8509 77.438 84.8569 77.3911 84.8255 77.3622C84.7977 77.3367 84.7469 77.3303 84.72 77.3622Z" fill="#65B261"/>
</g>
<g style="mix-blend-mode:multiply">
<path d="M85.0247 77.5023C84.9933 77.5421 84.962 77.5815 84.9307 77.6214C84.9232 77.6284 84.9182 77.6364 84.9152 77.6454C84.9107 77.6543 84.9083 77.6638 84.9088 77.6743C84.9088 77.6927 84.9167 77.7147 84.9307 77.7271C84.9451 77.7401 84.9635 77.7501 84.9834 77.7491C85.0018 77.7481 85.0242 77.7426 85.0361 77.7271C85.0675 77.6872 85.0988 77.6479 85.1302 77.608C85.1376 77.601 85.1426 77.593 85.1456 77.584C85.1501 77.5751 85.1526 77.5656 85.1521 77.5551C85.1521 77.5367 85.1441 77.5147 85.1302 77.5023C85.1157 77.4893 85.0973 77.4793 85.0774 77.4803C85.059 77.4813 85.0366 77.4868 85.0247 77.5023Z" fill="#65B261"/>
</g>
<g style="mix-blend-mode:multiply">
<path d="M84.0693 84.152C83.9424 84.2697 83.816 84.3878 83.6891 84.5055C83.6603 84.5319 83.6603 84.5848 83.6891 84.6112C83.72 84.6396 83.7643 84.6396 83.7946 84.6112C83.9215 84.4935 84.0479 84.3754 84.1748 84.2577C84.2036 84.2313 84.2036 84.1784 84.1748 84.152C84.1439 84.1236 84.0996 84.1236 84.0693 84.152Z" fill="#65B261"/>
</g>
<g style="mix-blend-mode:multiply">
<path d="M84.4022 84.2721L84.1419 84.5798C84.1166 84.6097 84.1106 84.6566 84.1419 84.6855C84.1698 84.7109 84.2206 84.7174 84.2474 84.6855L84.5077 84.3779C84.533 84.3479 84.539 84.3011 84.5077 84.2721C84.4798 84.2467 84.429 84.2402 84.4022 84.2721Z" fill="#65B261"/>
</g>
<g style="mix-blend-mode:multiply">
<path d="M84.7061 84.4117C84.6747 84.4516 84.6434 84.491 84.612 84.5309C84.6046 84.5379 84.5996 84.5459 84.5966 84.5548C84.5921 84.5638 84.5897 84.5733 84.5902 84.5838C84.5902 84.6022 84.5981 84.6242 84.612 84.6366C84.6265 84.6496 84.6449 84.6595 84.6648 84.6585C84.6832 84.6576 84.7056 84.6521 84.7175 84.6366C84.7489 84.5967 84.7802 84.5573 84.8116 84.5175C84.819 84.5105 84.824 84.5025 84.827 84.4935C84.8315 84.4845 84.834 84.4751 84.8335 84.4646C84.8335 84.4461 84.8255 84.4242 84.8116 84.4117C84.7971 84.3988 84.7787 84.3888 84.7588 84.3898C84.7404 84.3908 84.718 84.3963 84.7061 84.4117Z" fill="#65B261"/>
</g>
<g style="mix-blend-mode:multiply">
<path d="M58.5983 83.7975C58.4933 83.8698 58.4028 83.9565 58.3256 84.0577C58.3147 84.0722 58.3137 84.0991 58.3182 84.1156C58.3231 84.133 58.3361 84.152 58.3525 84.1604C58.3699 84.1694 58.3908 84.1744 58.4102 84.1679C58.4301 84.1614 58.4421 84.15 58.455 84.1335C58.4406 84.1525 58.4555 84.133 58.459 84.1285C58.4635 84.1231 58.4679 84.1176 58.4724 84.1121C58.4809 84.1016 58.4898 84.0916 58.4988 84.0817C58.5172 84.0612 58.5366 84.0413 58.5565 84.0223C58.5759 84.0039 58.5963 83.9859 58.6172 83.969C58.6227 83.9645 58.6282 83.96 58.6336 83.9555C58.6292 83.959 58.6212 83.965 58.6302 83.958C58.6331 83.956 58.6356 83.9535 58.6386 83.9515C58.6501 83.9431 58.6615 83.9351 58.6734 83.9266C58.6899 83.9156 58.7023 83.9012 58.7078 83.8817C58.7127 83.8638 58.7103 83.8399 58.7003 83.8239C58.6799 83.792 58.6326 83.7735 58.5983 83.797V83.7975Z" fill="#65B261"/>
</g>
<g style="mix-blend-mode:multiply">
<path d="M58.8088 83.8493C58.7242 83.9162 58.6535 84.0029 58.6048 84.0991C58.5874 84.134 58.5943 84.1819 58.6316 84.2013C58.6655 84.2193 58.7147 84.2118 58.7336 84.1744C58.7536 84.1345 58.7774 84.0971 58.8043 84.0617L58.7929 84.0767C58.8282 84.0313 58.869 83.9904 58.9143 83.9545C58.9282 83.9436 58.9362 83.9187 58.9362 83.9017C58.9362 83.8833 58.9282 83.8613 58.9143 83.8488C58.8998 83.8359 58.8814 83.8259 58.8615 83.8269C58.8406 83.8279 58.8252 83.8359 58.8088 83.8488V83.8493Z" fill="#65B261"/>
</g>
<g style="mix-blend-mode:multiply">
<path d="M59.2014 83.8867C59.1308 83.9386 59.0616 83.9919 58.9944 84.0483C58.9641 84.0737 58.9332 84.0996 58.9039 84.1265C58.8705 84.1574 58.8457 84.1918 58.8283 84.2337C58.8213 84.2502 58.8273 84.2766 58.8357 84.2916C58.8447 84.307 58.8626 84.322 58.8805 84.326C58.9238 84.3359 58.9561 84.3125 58.9726 84.2736C58.9706 84.2781 58.9671 84.2846 58.9716 84.2771C58.974 84.2731 58.976 84.2696 58.9785 84.2656C58.9795 84.2641 58.987 84.2542 58.9805 84.2622C58.9735 84.2711 58.9835 84.2592 58.985 84.2572C58.9954 84.2457 59.0064 84.2352 59.0178 84.2248C59.0467 84.1993 59.0755 84.1744 59.1054 84.1495C59.1343 84.125 59.1641 84.1016 59.194 84.0782C59.1975 84.0757 59.2009 84.0727 59.2044 84.0702C59.196 84.0767 59.2024 84.0717 59.2074 84.0682C59.2144 84.0627 59.2213 84.0577 59.2283 84.0522C59.2447 84.0398 59.2611 84.0278 59.2781 84.0153C59.3094 83.9924 59.3283 83.9495 59.3049 83.9131C59.285 83.8817 59.2368 83.8618 59.2029 83.8862L59.2014 83.8867Z" fill="#65B261"/>
</g>
<g style="mix-blend-mode:multiply">
<path d="M75.3971 84.4905C75.2906 84.496 75.1871 84.5419 75.1155 84.6217C75.0891 84.6506 75.0846 84.6989 75.1155 84.7274C75.1438 84.7538 75.1931 84.7583 75.221 84.7274C75.2339 84.7129 75.2483 84.6994 75.2638 84.6875C75.2588 84.6915 75.2538 84.6955 75.2488 84.6989C75.2722 84.681 75.2976 84.666 75.325 84.6546C75.319 84.6571 75.313 84.6596 75.307 84.6621C75.3329 84.6511 75.3603 84.6436 75.3882 84.6396C75.3817 84.6406 75.3747 84.6416 75.3682 84.6421C75.3777 84.6406 75.3877 84.6401 75.3976 84.6396C75.4364 84.6376 75.4742 84.6067 75.4722 84.5648C75.4707 84.5259 75.4394 84.488 75.3976 84.49L75.3971 84.4905Z" fill="#65B261"/>
</g>
<g style="mix-blend-mode:multiply">
<path d="M75.7653 84.5284C75.7513 84.6137 75.7314 84.698 75.7056 84.7802C75.6936 84.8176 75.7195 84.8635 75.7578 84.8725C75.7986 84.8819 75.8369 84.86 75.8499 84.8201C75.8757 84.7378 75.8961 84.6536 75.9096 84.5683C75.9131 84.5479 75.9131 84.5294 75.9021 84.5105C75.8932 84.495 75.8752 84.4801 75.8573 84.4761C75.8384 84.4716 75.817 84.4726 75.7996 84.4836C75.7842 84.4935 75.7683 84.5095 75.7653 84.5284Z" fill="#65B261"/>
</g>
<g style="mix-blend-mode:multiply">
<path d="M73.2824 78.4232C73.1759 78.4287 73.0724 78.4745 73.0007 78.5543C72.9744 78.5832 72.9699 78.6316 73.0007 78.66C73.0291 78.6864 73.0784 78.6909 73.1062 78.66C73.1192 78.6456 73.1336 78.6321 73.149 78.6201C73.144 78.6241 73.1391 78.6281 73.1341 78.6316C73.1575 78.6136 73.1828 78.5987 73.2102 78.5872C73.2042 78.5897 73.1983 78.5922 73.1923 78.5947C73.2182 78.5837 73.2455 78.5762 73.2734 78.5723C73.2669 78.5733 73.26 78.5743 73.2535 78.5748C73.2635 78.5733 73.2729 78.5728 73.2829 78.5723C73.3217 78.5703 73.3595 78.5394 73.3575 78.4975C73.356 78.4586 73.3247 78.4207 73.2829 78.4227L73.2824 78.4232Z" fill="#65B261"/>
</g>
<g style="mix-blend-mode:multiply">
<path d="M73.65 78.461C73.6366 78.5463 73.6162 78.6306 73.5903 78.7128C73.5784 78.7502 73.6043 78.7961 73.6426 78.8051C73.6834 78.8145 73.7217 78.7926 73.7346 78.7527C73.7605 78.6705 73.7809 78.5862 73.7943 78.5009C73.7978 78.4805 73.7978 78.462 73.7869 78.4431C73.7779 78.4276 73.76 78.4127 73.7421 78.4087C73.7232 78.4042 73.7018 78.4052 73.6844 78.4162C73.669 78.4261 73.653 78.4421 73.65 78.461Z" fill="#65B261"/>
</g>
<g style="mix-blend-mode:multiply">
<path d="M58.7951 77.5397C58.6886 77.5452 58.5851 77.591 58.5134 77.6708C58.4871 77.6997 58.4826 77.7481 58.5134 77.7765C58.5418 77.8029 58.5911 77.8074 58.6189 77.7765C58.6319 77.762 58.6463 77.7486 58.6617 77.7366C58.6567 77.7406 58.6518 77.7446 58.6468 77.7481C58.6702 77.7301 58.6955 77.7152 58.7229 77.7037C58.7169 77.7062 58.711 77.7087 58.705 77.7112C58.7309 77.7002 58.7582 77.6927 58.7861 77.6887C58.7796 77.6897 58.7727 77.6907 58.7662 77.6912C58.7762 77.6897 58.7856 77.6892 58.7956 77.6887C58.8344 77.6868 58.8722 77.6558 58.8702 77.614C58.8687 77.5751 58.8374 77.5372 58.7956 77.5392L58.7951 77.5397Z" fill="#65B261"/>
</g>
<g style="mix-blend-mode:multiply">
<path d="M59.1632 77.5776C59.1498 77.6628 59.1294 77.7471 59.1035 77.8294C59.0916 77.8667 59.1175 77.9126 59.1558 77.9216C59.1966 77.9311 59.2349 77.9091 59.2478 77.8692C59.2737 77.787 59.2941 77.7027 59.3075 77.6175C59.311 77.597 59.311 77.5786 59.3001 77.5596C59.2911 77.5442 59.2732 77.5292 59.2553 77.5252C59.2364 77.5207 59.215 77.5217 59.1976 77.5327C59.1821 77.5427 59.1662 77.5586 59.1632 77.5776Z" fill="#65B261"/>
</g>
<g style="mix-blend-mode:multiply">
<path d="M85.6252 80.8668C85.6496 80.8992 85.6695 80.9341 85.6854 80.9715C85.683 80.9655 85.6805 80.9595 85.678 80.9535C85.6949 80.9944 85.7068 81.0373 85.7128 81.0817C85.7118 81.0752 85.7108 81.0682 85.7103 81.0617C85.7103 81.0632 85.7103 81.0642 85.7108 81.0657C85.7133 81.0862 85.7173 81.1031 85.7327 81.1186C85.7457 81.1315 85.767 81.1415 85.7855 81.1405C85.8049 81.1395 85.8248 81.1335 85.8382 81.1186C85.8506 81.1051 85.8626 81.0847 85.8601 81.0657C85.8536 81.0158 85.8442 80.968 85.8253 80.9211C85.8064 80.8748 85.7845 80.8314 85.7546 80.791C85.7427 80.775 85.7302 80.7621 85.7098 80.7566C85.6919 80.7516 85.668 80.7541 85.6521 80.7641C85.6362 80.7745 85.6222 80.7895 85.6178 80.8089C85.6138 80.8274 85.6133 80.8508 85.6252 80.8668Z" fill="#65B261"/>
</g>
<path d="M32.839 74.1241C32.8838 73.8479 32.6966 73.5877 32.421 73.5429C32.1454 73.4981 31.8857 73.6856 31.841 73.9617C31.7963 74.2379 31.9834 74.4981 32.259 74.5429C32.5346 74.5878 32.7943 74.4002 32.839 74.1241Z" fill="white"/>
<path d="M32.5758 73.7748C32.5758 73.8197 32.5395 73.8561 32.4947 73.8561C32.4499 73.8561 32.4136 73.8197 32.4136 73.7748C32.4136 73.7299 32.4499 73.6935 32.4947 73.6935C32.5395 73.6935 32.5758 73.7299 32.5758 73.7748Z" fill="#E8E8E8"/>
<path d="M32.2784 74.0186C32.3232 74.0186 32.3595 73.9822 32.3595 73.9373C32.3595 73.8925 32.3232 73.8561 32.2784 73.8561C32.2336 73.8561 32.1973 73.8925 32.1973 73.9373C32.1973 73.9822 32.2336 74.0186 32.2784 74.0186Z" fill="#E8E8E8"/>
<path d="M32.5892 74.0406C32.5892 74.0854 32.5529 74.1218 32.5081 74.1218C32.4633 74.1218 32.427 74.0854 32.427 74.0406C32.427 73.9957 32.4633 73.9593 32.5081 73.9593C32.5529 73.9593 32.5892 73.9957 32.5892 74.0406Z" fill="#E8E8E8"/>
<path d="M42.7825 81.4252C43.239 81.4252 43.609 81.0544 43.609 80.597C43.609 80.1396 43.239 79.7689 42.7825 79.7689C42.3261 79.7689 41.9561 80.1396 41.9561 80.597C41.9561 81.0544 42.3261 81.4252 42.7825 81.4252Z" fill="white"/>
<path d="M43.0359 80.2954C43.1093 80.2954 43.1688 80.2358 43.1688 80.1622C43.1688 80.0887 43.1093 80.0291 43.0359 80.0291C42.9626 80.0291 42.9031 80.0887 42.9031 80.1622C42.9031 80.2358 42.9626 80.2954 43.0359 80.2954Z" fill="#E8E8E8"/>
<path d="M42.8143 80.428C42.8143 80.5013 42.7551 80.5611 42.6814 80.5611C42.6078 80.5611 42.5486 80.5018 42.5486 80.428C42.5486 80.3542 42.6078 80.2949 42.6814 80.2949C42.7551 80.2949 42.8143 80.3542 42.8143 80.428Z" fill="#E8E8E8"/>
<path d="M43.1905 80.597C43.1905 80.6703 43.1313 80.7301 43.0577 80.7301C42.984 80.7301 42.9248 80.6708 42.9248 80.597C42.9248 80.5232 42.984 80.4639 43.0577 80.4639C43.1313 80.4639 43.1905 80.5232 43.1905 80.597Z" fill="#E8E8E8"/>
<path d="M78.5696 77.056C79.0261 77.056 79.3961 76.6853 79.3961 76.2279C79.3961 75.7705 79.0261 75.3997 78.5696 75.3997C78.1132 75.3997 77.7432 75.7705 77.7432 76.2279C77.7432 76.6853 78.1132 77.056 78.5696 77.056Z" fill="white"/>
<path d="M78.8228 75.9257C78.8962 75.9257 78.9556 75.8661 78.9556 75.7926C78.9556 75.7191 78.8962 75.6595 78.8228 75.6595C78.7494 75.6595 78.6899 75.7191 78.6899 75.7926C78.6899 75.8661 78.7494 75.9257 78.8228 75.9257Z" fill="#E8E8E8"/>
<path d="M78.469 76.192C78.5424 76.192 78.6019 76.1324 78.6019 76.0588C78.6019 75.9853 78.5424 75.9257 78.469 75.9257C78.3957 75.9257 78.3362 75.9853 78.3362 76.0588C78.3362 76.1324 78.3957 76.192 78.469 76.192Z" fill="#E8E8E8"/>
<path d="M78.8453 76.361C78.9186 76.361 78.9781 76.3014 78.9781 76.2279C78.9781 76.1544 78.9186 76.0948 78.8453 76.0948C78.7719 76.0948 78.7124 76.1544 78.7124 76.2279C78.7124 76.3014 78.7719 76.361 78.8453 76.361Z" fill="#E8E8E8"/>
<path d="M89.5296 83.2525C89.986 83.2525 90.3561 82.8817 90.3561 82.4244C90.3561 81.967 89.986 81.5962 89.5296 81.5962C89.0731 81.5962 88.7031 81.967 88.7031 82.4244C88.7031 82.8817 89.0731 83.2525 89.5296 83.2525Z" fill="white"/>
<path d="M89.7832 82.1227C89.8566 82.1227 89.9161 82.0631 89.9161 81.9896C89.9161 81.9161 89.8566 81.8565 89.7832 81.8565C89.7099 81.8565 89.6504 81.9161 89.6504 81.9896C89.6504 82.0631 89.7099 82.1227 89.7832 82.1227Z" fill="#E8E8E8"/>
<path d="M89.4295 82.3884C89.5029 82.3884 89.5623 82.3288 89.5623 82.2553C89.5623 82.1818 89.5029 82.1222 89.4295 82.1222C89.3561 82.1222 89.2966 82.1818 89.2966 82.2553C89.2966 82.3288 89.3561 82.3884 89.4295 82.3884Z" fill="#E8E8E8"/>
<path d="M89.9381 82.4244C89.9381 82.4976 89.8789 82.5575 89.8052 82.5575C89.7316 82.5575 89.6724 82.4981 89.6724 82.4244C89.6724 82.3506 89.7316 82.2912 89.8052 82.2912C89.8789 82.2912 89.9381 82.3506 89.9381 82.4244Z" fill="#E8E8E8"/>
<path d="M39.7833 70.5534C39.9229 70.5534 40.0361 70.44 40.0361 70.3001C40.0361 70.1602 39.9229 70.0468 39.7833 70.0468C39.6437 70.0468 39.5305 70.1602 39.5305 70.3001C39.5305 70.44 39.6437 70.5534 39.7833 70.5534Z" fill="white"/>
<path d="M39.8614 70.2091C39.8843 70.2091 39.9028 70.1905 39.9028 70.1676C39.9028 70.1447 39.8843 70.1261 39.8614 70.1261C39.8386 70.1261 39.8201 70.1447 39.8201 70.1676C39.8201 70.1905 39.8386 70.2091 39.8614 70.2091Z" fill="#E8E8E8"/>
<path d="M39.7533 70.2903C39.7762 70.2903 39.7947 70.2718 39.7947 70.2489C39.7947 70.226 39.7762 70.2074 39.7533 70.2074C39.7304 70.2074 39.7119 70.226 39.7119 70.2489C39.7119 70.2718 39.7304 70.2903 39.7533 70.2903Z" fill="#E8E8E8"/>
<path d="M39.8683 70.3422C39.8911 70.3422 39.9097 70.3236 39.9097 70.3007C39.9097 70.2778 39.8911 70.2592 39.8683 70.2592C39.8454 70.2592 39.8269 70.2778 39.8269 70.3007C39.8269 70.3236 39.8454 70.3422 39.8683 70.3422Z" fill="#E8E8E8"/>
<path d="M64.9871 72.4326C65.1267 72.4326 65.2399 72.3192 65.2399 72.1793C65.2399 72.0394 65.1267 71.926 64.9871 71.926C64.8475 71.926 64.7344 72.0394 64.7344 72.1793C64.7344 72.3192 64.8475 72.4326 64.9871 72.4326Z" fill="white"/>
<path d="M65.0651 72.0882C65.0879 72.0882 65.1064 72.0697 65.1064 72.0468C65.1064 72.0239 65.0879 72.0053 65.0651 72.0053C65.0422 72.0053 65.0237 72.0239 65.0237 72.0468C65.0237 72.0697 65.0422 72.0882 65.0651 72.0882Z" fill="#E8E8E8"/>
<path d="M64.9983 72.128C64.9983 72.1508 64.9801 72.1695 64.9569 72.1695C64.9337 72.1695 64.9155 72.1513 64.9155 72.128C64.9155 72.1048 64.9337 72.0866 64.9569 72.0866C64.9801 72.0866 64.9983 72.1048 64.9983 72.128Z" fill="#E8E8E8"/>
<path d="M65.0719 72.2214C65.0948 72.2214 65.1133 72.2028 65.1133 72.1799C65.1133 72.157 65.0948 72.1384 65.0719 72.1384C65.049 72.1384 65.0305 72.157 65.0305 72.1799C65.0305 72.2028 65.049 72.2214 65.0719 72.2214Z" fill="#E8E8E8"/>
<path d="M90.6092 68.8472C90.7488 68.8472 90.862 68.7338 90.862 68.5939C90.862 68.4541 90.7488 68.3407 90.6092 68.3407C90.4696 68.3407 90.3564 68.4541 90.3564 68.5939C90.3564 68.7338 90.4696 68.8472 90.6092 68.8472Z" fill="white"/>
<path d="M90.7285 68.4614C90.7285 68.4841 90.7103 68.5029 90.6871 68.5029C90.6639 68.5029 90.6458 68.4841 90.6458 68.4614C90.6458 68.4386 90.6639 68.4199 90.6871 68.4199C90.7103 68.4199 90.7285 68.4386 90.7285 68.4614Z" fill="#E8E8E8"/>
<path d="M90.579 68.5842C90.6018 68.5842 90.6204 68.5656 90.6204 68.5427C90.6204 68.5198 90.6018 68.5012 90.579 68.5012C90.5561 68.5012 90.5376 68.5198 90.5376 68.5427C90.5376 68.5656 90.5561 68.5842 90.579 68.5842Z" fill="#E8E8E8"/>
<path d="M90.7354 68.5945C90.7354 68.6173 90.7172 68.636 90.694 68.636C90.6708 68.636 90.6526 68.6173 90.6526 68.5945C90.6526 68.5718 90.6708 68.5531 90.694 68.5531C90.7172 68.5531 90.7354 68.5718 90.7354 68.5945Z" fill="#E8E8E8"/>
<path d="M63.0551 66.5871H62.2222V66.637H63.0551V66.5871Z" fill="white"/>
<path d="M63.4328 66.7646H63.0552V66.8145H63.4328V66.7646Z" fill="white"/>
<path d="M62.6068 66.8623H62.2222V66.9122H62.6068V66.8623Z" fill="white"/>
<path d="M61.5554 66.7292H61.0723V66.7791H61.5554V66.7292Z" fill="white"/>
<path d="M64.546 67.0728H64.0549V67.1226H64.546V67.0728Z" fill="white"/>
<path d="M64.938 66.4181H64.5459V66.4679H64.938V66.4181Z" fill="white"/>
<path d="M65.138 66.7292H64.938V66.7791H65.138V66.7292Z" fill="white"/>
<path d="M65.5212 67.0045H65.2212V67.0543H65.5212V67.0045Z" fill="white"/>
<path d="M56.7321 66.5871H55.8992V66.637H56.7321V66.5871Z" fill="white"/>
<path d="M57.1096 66.7646H56.7319V66.8145H57.1096V66.7646Z" fill="white"/>
<path d="M56.2838 66.8623H55.8992V66.9122H56.2838V66.8623Z" fill="white"/>
<path d="M55.2324 66.7292H54.7493V66.7791H55.2324V66.7292Z" fill="white"/>
<path d="M58.2228 67.0728H57.7317V67.1226H58.2228V67.0728Z" fill="white"/>
<path d="M58.6147 66.4181H58.2227V66.4679H58.6147V66.4181Z" fill="white"/>
<path d="M58.8148 66.7292H58.6147V66.7791H58.8148V66.7292Z" fill="white"/>
<path d="M59.198 67.0045H58.8979V67.0543H59.198V67.0045Z" fill="white"/>
<path d="M59.922 67.8246H59.0891V67.8745H59.922V67.8246Z" fill="white"/>
<path d="M60.3 68.0026H59.9224V68.0525H60.3V68.0026Z" fill="white"/>
<path d="M59.4737 68.1003H59.0891V68.1502H59.4737V68.1003Z" fill="white"/>
<path d="M58.4228 67.9667H57.9397V68.0166H58.4228V67.9667Z" fill="white"/>
<path d="M61.4132 68.3107H60.9221V68.3606H61.4132V68.3107Z" fill="white"/>
<path d="M61.8052 67.6556H61.4131V67.7055H61.8052V67.6556Z" fill="white"/>
<path d="M62.0047 67.9667H61.8047V68.0166H62.0047V67.9667Z" fill="white"/>
<path d="M62.3884 68.2424H62.0884V68.2923H62.3884V68.2424Z" fill="white"/>
<path d="M51.1885 66.0257C35.7587 60.085 23.6956 58.9352 23.6956 58.9352L23.7981 69.268C44.1861 70.7279 42.463 67.706 42.463 67.706C54.5939 67.7104 51.189 66.0262 51.189 66.0262L51.1885 66.0257Z" fill="#48806D"/>
<path d="M32.849 51.9086L29.981 53.1695L32.849 53.9089V51.9086Z" fill="#599DD4"/>
<path d="M32.9424 51.583C32.9424 51.5317 32.9006 51.4898 32.8494 51.4898C32.7981 51.4898 32.7563 51.5317 32.7563 51.583V61.1629C32.825 61.1704 32.8877 61.1814 32.9424 61.1944V51.583Z" fill="white"/>
<path d="M32.5063 61.15C32.1405 61.15 31.8445 61.2308 31.8445 61.33C31.8445 61.4292 32.1405 61.51 32.5063 61.51C32.5948 61.51 32.6789 61.505 32.756 61.4965V61.1635C32.6789 61.155 32.5948 61.15 32.5063 61.15Z" fill="#2F3030"/>
<path d="M33.168 61.3295C33.168 61.2756 33.0805 61.2273 32.9426 61.1944V61.4646C33.0805 61.4317 33.168 61.3833 33.168 61.3295Z" fill="#487F71"/>
<path d="M32.7559 61.1629V61.496C32.8245 61.4885 32.8872 61.4775 32.942 61.4646V61.1943C32.8872 61.1814 32.8245 61.1704 32.7559 61.1629Z" fill="white"/>
<path d="M40.326 61.7319H40.2335C40.13 61.7319 40.0474 61.6461 40.0509 61.5424L40.0852 60.5337C40.0887 60.435 40.1693 60.3572 40.2678 60.3572H40.2917C40.3902 60.3572 40.4708 60.4355 40.4743 60.5337L40.5087 61.5424C40.5121 61.6461 40.4295 61.7319 40.326 61.7319Z" fill="#755030"/>
<path d="M40.0702 60.973C40.0582 60.972 40.0458 60.9705 40.0338 60.97C39.8084 60.9635 39.6179 60.8902 39.5183 60.6718C39.4094 60.4335 39.4268 60.2002 39.588 59.9893C39.6303 59.9339 39.6323 59.8995 39.598 59.8402C39.493 59.6597 39.4984 59.4792 39.6223 59.3072C39.6681 59.2434 39.7258 59.1935 39.8079 59.1855C39.8527 59.181 39.8666 59.1596 39.8746 59.1167C39.8955 59.002 39.9343 58.8924 39.998 58.7936C40.1125 58.6161 40.3304 58.5403 40.5274 58.6097C40.6215 58.6426 40.6613 58.7228 40.6857 58.8096C40.7001 58.8609 40.7155 58.8849 40.7757 58.8839C40.8817 58.8824 40.9414 58.9457 40.9723 59.0654C40.9942 59.1506 40.9643 59.2379 40.9752 59.3186C40.9862 59.4009 41.1051 59.4134 41.1424 59.4966C41.1867 59.5959 41.1996 59.6956 41.1797 59.8003C41.1554 59.9274 41.1076 60.0461 41.0384 60.1558C41.0195 60.1852 41.0066 60.2041 41.0449 60.2371C41.1947 60.3657 41.2464 60.619 41.1663 60.7995C41.1086 60.9296 40.9653 60.9914 40.8021 60.9451C40.7419 60.9281 40.713 60.9351 40.6946 60.9949C40.6787 61.0458 40.6369 61.0797 40.6006 61.1161C40.5946 61.1161 40.5886 61.1176 40.5837 61.1211C40.4528 61.148 40.3448 61.1071 40.2607 61.0059C40.2194 60.9565 40.1746 60.9426 40.1174 60.972C40.108 60.972 40.0985 60.972 40.0891 60.9725C40.0831 60.9725 40.0771 60.9725 40.0712 60.9725L40.0702 60.973Z" fill="#48806D"/>
<path d="M93.1151 62.2748H92.9892C92.8489 62.2748 92.7359 62.1581 92.7409 62.0175L92.7876 60.6459C92.7921 60.5118 92.9021 60.4056 93.0359 60.4056H93.0683C93.2021 60.4056 93.3121 60.5118 93.3166 60.6459L93.3633 62.0175C93.3683 62.1581 93.2554 62.2748 93.1151 62.2748Z" fill="#755030"/>
<path d="M92.7677 61.2427C92.7513 61.2412 92.7349 61.2392 92.7185 61.2387C92.4119 61.2302 92.1527 61.1305 92.0174 60.8334C91.8691 60.5088 91.893 60.1922 92.1119 59.905C92.1691 59.8297 92.1726 59.7828 92.1253 59.7021C91.9825 59.4568 91.99 59.2115 92.1587 58.9776C92.2214 58.8909 92.2995 58.8226 92.4109 58.8121C92.4721 58.8061 92.4911 58.7767 92.5015 58.7183C92.5304 58.5623 92.5826 58.4132 92.6692 58.2786C92.8249 58.0373 93.1215 57.9341 93.3892 58.0283C93.5171 58.0732 93.5713 58.1824 93.6046 58.3C93.6245 58.3698 93.6449 58.4022 93.727 58.4012C93.8713 58.3992 93.9524 58.485 93.9942 58.648C94.0241 58.7642 93.9833 58.8824 93.9982 58.9931C94.0131 59.1048 94.1748 59.1222 94.2251 59.2354C94.2853 59.3705 94.3032 59.5061 94.2759 59.6482C94.243 59.8212 94.1778 59.9828 94.0838 60.1319C94.0584 60.1722 94.0405 60.1977 94.0927 60.2425C94.2968 60.4175 94.3664 60.7621 94.2579 61.0074C94.1798 61.1844 93.9848 61.2681 93.7629 61.2053C93.6813 61.1824 93.6414 61.1914 93.6166 61.2736C93.5952 61.3429 93.538 61.3888 93.4887 61.4387C93.4802 61.4387 93.4723 61.4412 93.4653 61.4456C93.2872 61.482 93.1404 61.4267 93.0259 61.2891C92.9697 61.2218 92.909 61.2028 92.8309 61.2432C92.818 61.2432 92.805 61.2437 92.7926 61.2442C92.7846 61.2442 92.7762 61.2442 92.7682 61.2442L92.7677 61.2427Z" fill="#3A666B"/>
<path d="M90.1122 62.2748H90.0191C89.9156 62.2748 89.833 62.189 89.8365 62.0853L89.8714 61.0757C89.8748 60.977 89.9555 60.8987 90.054 60.8987H90.0779C90.1764 60.8987 90.257 60.977 90.2605 61.0757L90.2948 62.0853C90.2983 62.189 90.2157 62.2748 90.1122 62.2748Z" fill="#755030"/>
<path d="M89.8565 61.515C89.8446 61.514 89.8322 61.5125 89.8202 61.512C89.5943 61.5055 89.4038 61.4322 89.3042 61.2133C89.1953 60.9745 89.2127 60.7411 89.3739 60.5302C89.4162 60.4749 89.4187 60.4405 89.3838 60.3812C89.2789 60.2007 89.2843 60.0197 89.4082 59.8477C89.4545 59.7839 89.5117 59.7335 89.5938 59.7255C89.6386 59.721 89.6525 59.6996 89.6605 59.6567C89.6819 59.542 89.7202 59.4318 89.7839 59.3331C89.8983 59.1551 90.1168 59.0793 90.3138 59.1486C90.4079 59.1821 90.4482 59.2623 90.4725 59.3486C90.487 59.3999 90.5024 59.4239 90.5626 59.4234C90.6686 59.4219 90.7283 59.4852 90.7591 59.6049C90.781 59.6906 90.7512 59.7774 90.7621 59.8586C90.7731 59.9409 90.892 59.9534 90.9293 60.0371C90.9736 60.1369 90.9865 60.2361 90.9666 60.3413C90.9422 60.4689 90.8945 60.5876 90.8253 60.6973C90.8064 60.7267 90.7935 60.7456 90.8318 60.7785C90.9821 60.9077 91.0333 61.161 90.9537 61.3414C90.896 61.4716 90.7527 61.5334 90.589 61.487C90.5288 61.4701 90.4999 61.4771 90.481 61.5374C90.4651 61.5883 90.4233 61.6222 90.3865 61.6586C90.3805 61.6586 90.3745 61.66 90.3695 61.6635C90.2387 61.6905 90.1307 61.6496 90.0461 61.5484C90.0048 61.499 89.96 61.4845 89.9028 61.5145C89.8934 61.5145 89.8839 61.5145 89.8745 61.515C89.8685 61.515 89.8625 61.515 89.8565 61.515Z" fill="#3A666B"/>
</g>
</g>
<rect x="35.9893" y="54.0839" width="46.6723" height="15.4075" transform="rotate(-2.59326 35.9893 54.0839)" fill="#FF4242"/>
<path d="M42.1457 58.1849L48.1095 57.9148L48.1964 59.8329L44.5302 59.9989L44.5623 60.7082L47.9788 60.5534L48.0553 62.2417L44.6388 62.3965L44.6732 63.1557L48.3893 62.9874L48.4762 64.9054L42.4624 65.1778L42.1457 58.1849ZM52.2865 61.0591C52.5662 61.0464 52.7833 60.9765 52.9377 60.8494C53.0921 60.7223 53.1644 60.5521 53.1548 60.339L53.1539 60.3191C53.1436 60.0926 53.0562 59.9297 52.8915 59.8304C52.7265 59.7244 52.5075 59.6776 52.2345 59.69L51.2155 59.7362L51.2775 61.1048L52.2865 61.0591ZM48.7892 57.884L52.2057 57.7293C52.8318 57.7009 53.3479 57.751 53.7541 57.8794C54.1667 58.0009 54.5018 58.1792 54.7594 58.4145C54.9821 58.6179 55.1528 58.8504 55.2714 59.112C55.3901 59.3736 55.4575 59.6842 55.4738 60.0438L55.4747 60.0638C55.4979 60.5766 55.3943 61.0151 55.1639 61.3792C54.9335 61.7433 54.6098 62.0383 54.1929 62.264L55.929 64.5678L53.2617 64.6887L51.8526 62.7504L51.8326 62.7513L51.3531 62.773L51.4436 64.771L49.106 64.8769L48.7892 57.884ZM59.4276 60.7356C59.7073 60.723 59.9244 60.6531 60.0788 60.5259C60.2332 60.3988 60.3056 60.2287 60.2959 60.0156L60.295 59.9956C60.2847 59.7692 60.1973 59.6063 60.0326 59.507C59.8677 59.401 59.6487 59.3542 59.3756 59.3666L58.3566 59.4127L58.4186 60.7813L59.4276 60.7356ZM55.9304 57.5606L59.3469 57.4059C59.9729 57.3775 60.489 57.4275 60.8952 57.556C61.3078 57.6774 61.6429 57.8558 61.9005 58.091C62.1232 58.2945 62.2939 58.527 62.4126 58.7886C62.5312 59.0501 62.5986 59.3607 62.6149 59.7204L62.6158 59.7404C62.6391 60.2532 62.5355 60.6916 62.305 61.0558C62.0746 61.4199 61.7509 61.7148 61.3341 61.9406L63.0701 64.2444L60.4028 64.3652L58.9937 62.427L58.9737 62.4279L58.4942 62.4496L58.5847 64.4476L56.2471 64.5534L55.9304 57.5606ZM66.9676 62.1459C67.1873 62.136 67.3852 62.0836 67.5611 61.9889C67.737 61.8942 67.885 61.774 68.0052 61.6284C68.1251 61.4762 68.2141 61.3053 68.2723 61.1158C68.3304 60.9263 68.3548 60.7284 68.3455 60.5219L68.3446 60.5019C68.3352 60.2955 68.2897 60.1007 68.208 59.9175C68.1327 59.7274 68.0284 59.5619 67.8952 59.4212C67.7621 59.2804 67.6036 59.1708 67.4199 59.0923C67.2361 59.0139 67.031 58.9798 66.8046 58.9901C66.5848 59 66.387 59.0524 66.2111 59.1471C66.0352 59.2418 65.8873 59.3653 65.7674 59.5175C65.6472 59.6631 65.558 59.8307 65.4999 60.0201C65.4417 60.2096 65.4173 60.4076 65.4267 60.6141L65.4276 60.634C65.4369 60.8405 65.4793 61.0388 65.5546 61.2289C65.6363 61.4121 65.7438 61.574 65.8769 61.7148C66.0101 61.8556 66.1686 61.9652 66.3523 62.0437C66.536 62.1221 66.7411 62.1562 66.9676 62.1459ZM67.0412 64.2147C66.5018 64.2391 65.9948 64.1687 65.5201 64.0033C65.0521 63.8376 64.6376 63.5995 64.2765 63.2888C63.9221 62.9779 63.6383 62.607 63.4253 62.1762C63.212 61.7388 63.0938 61.267 63.0709 60.7608L63.07 60.7408C63.0471 60.2347 63.1222 59.7575 63.2955 59.3092C63.475 58.8539 63.7273 58.4554 64.0521 58.1137C64.3834 57.765 64.7779 57.4869 65.2356 57.2793C65.693 57.065 66.1915 56.9457 66.7309 56.9213C67.2704 56.8968 67.7741 56.9675 68.2421 57.1331C68.7167 57.2985 69.1312 57.5366 69.4857 57.8476C69.8468 58.1582 70.134 58.5323 70.3473 58.9697C70.5604 59.4005 70.6783 59.869 70.7013 60.3752L70.7022 60.3952C70.7251 60.9013 70.6468 61.382 70.4672 61.8373C70.294 62.2856 70.0417 62.684 69.7105 63.0327C69.3856 63.3744 68.9945 63.6524 68.537 63.8667C68.0793 64.0743 67.5807 64.1903 67.0412 64.2147ZM74.6756 60.045C74.9553 60.0323 75.1724 59.9624 75.3268 59.8353C75.4812 59.7082 75.5536 59.5381 75.5439 59.325L75.543 59.305C75.5328 59.0786 75.4453 58.9157 75.2807 58.8164C75.1157 58.7104 74.8967 58.6636 74.6236 58.676L73.6047 58.7221L73.6667 60.0907L74.6756 60.045ZM71.1784 56.87L74.5949 56.7153C75.2209 56.6869 75.737 56.7369 76.1433 56.8654C76.5559 56.9868 76.8909 57.1652 77.1485 57.4004C77.3713 57.6039 77.542 57.8364 77.6606 58.098C77.7792 58.3595 77.8467 58.6701 77.863 59.0298L77.8639 59.0497C77.8871 59.5625 77.7835 60.001 77.5531 60.3651C77.3226 60.7293 76.999 61.0242 76.5821 61.25L78.3181 63.5538L75.6509 63.6746L74.2417 61.7364L74.2217 61.7373L73.7422 61.759L73.8327 63.757L71.4951 63.8628L71.1784 56.87Z" fill="white"/>
<path d="M84.1165 40.8034L84.5725 36.4717H82.0646L82.7486 40.1195L80.9247 42.3993L78.8728 46.0471L79.5568 49.2389V46.9591L81.3807 43.3113L84.1165 40.8034Z" fill="#6B5959"/>
<rect x="16.8604" y="31.912" width="84.8111" height="4.55973" fill="#3F7FB4"/>
<path d="M16.8604 31.912L24.6119 36.4717V85.2608L16.8604 94.3803V31.912Z" fill="#599DD4"/>
<path d="M101.672 31.912L93.9201 36.4717V85.2608L101.672 94.3803V31.912Z" fill="#599DD4"/>
<path d="M24.5704 84.8049H93.9613L101.671 93.9243H16.8604L24.5704 84.8049Z" fill="#89BA5F"/>
<rect x="16.8604" y="93.9243" width="84.8111" height="1.82389" fill="#78A353"/>
<path d="M25.7518 88.9086L21.876 87.9967L20.5081 89.5926H23.0159L23.9279 91.1885L23.6999 89.5926L25.7518 90.5045L30.9954 88.9086L26.6637 89.5926L25.7518 88.9086Z" fill="#6B5959"/>
</g>
<mask id="path-147-outside-1_54_3626" maskUnits="userSpaceOnUse" x="17" y="44.0663" width="84.6935" height="37.9337" fill="black">
<rect fill="white" x="17" y="44.0663" width="84.6935" height="37.9337"/>
<path d="M19.8159 60.5269L36.1114 57.6536V69.513L32.4184 70.1641V61.6798L19.8159 63.9019V60.5269ZM18.3618 75.9474L24.8246 74.8078V68.1047L28.5176 67.4535V74.1566L37.6117 72.5531V75.9281L18.3618 79.3224V75.9474ZM51.5991 54.618V65.1414L40.5892 67.0828V56.5593L51.5991 54.618ZM41.5356 68.6268L45.2286 67.9757V71.585L58.0849 69.3181V72.6228L41.5356 75.5409V68.6268ZM47.906 62.5114V58.5504L44.2823 59.1894V63.1503L47.906 62.5114ZM54.0919 53.8972L57.7849 53.246V66.7929L54.0919 67.4441V53.8972ZM60.8778 54.5757L63.9015 54.0425V51.9097L67.4791 51.2789V53.4117L70.4566 52.8867V56.121L60.8778 57.81V54.5757ZM61.4779 63.4698C61.4779 61.9855 61.8549 60.7549 62.6089 59.7782C63.3629 58.8015 64.3554 58.2047 65.5864 57.9876L65.9326 57.9265C67.1636 57.7095 68.1561 57.9564 68.9101 58.6672C69.6641 59.378 70.0411 60.4755 70.0411 61.9599V65.5693C70.0411 67.0537 69.6641 68.2842 68.9101 69.2609C68.1561 70.2376 67.1636 70.8345 65.9326 71.0515L65.5864 71.1126C64.3554 71.3297 63.3629 71.0828 62.6089 70.372C61.8549 69.6612 61.4779 68.5636 61.4779 67.0792V63.4698ZM64.7786 66.7082C64.7786 67.1457 64.8632 67.4589 65.0325 67.6478C65.2171 67.834 65.4479 67.9026 65.7249 67.8538L65.7941 67.8416C66.0711 67.7927 66.2942 67.644 66.4635 67.3954C66.6482 67.1441 66.7405 66.7997 66.7405 66.3622V62.2841C66.7405 61.8466 66.6482 61.5348 66.4635 61.3486C66.2942 61.1597 66.0711 61.0896 65.7941 61.1385L65.7249 61.1507C65.094 61.2619 64.7786 61.755 64.7786 62.63V66.7082ZM71.2644 50.963L74.5651 50.381V57.4357L75.8807 57.2037V50.0552L79.2275 49.4651V69.176L75.8807 69.7662V60.4849L74.5651 60.7169V69.7638L71.2644 70.3458V50.963ZM82.9667 49.0636L93.6073 47.1874V56.2108L89.9142 56.862V51.0026L82.9667 52.2277V49.0636ZM83.9131 59.0452L100.255 56.1637V61.9996L87.7446 64.2055V64.9555L100.601 62.6886V65.3605L84.0516 68.2786V62.4426L96.5617 60.2368V59.4868L83.9131 61.717V59.0452ZM94.2074 52.2613L96.6079 51.838V50.502L94.2074 50.9253V48.3003L96.6079 47.877V46.4005L100.255 45.7574V55.2965L96.6079 55.9395V54.463L94.2074 54.8863V52.2613Z"/>
</mask>
<path d="M19.8159 60.5269L36.1114 57.6536V69.513L32.4184 70.1641V61.6798L19.8159 63.9019V60.5269ZM18.3618 75.9474L24.8246 74.8078V68.1047L28.5176 67.4535V74.1566L37.6117 72.5531V75.9281L18.3618 79.3224V75.9474ZM51.5991 54.618V65.1414L40.5892 67.0828V56.5593L51.5991 54.618ZM41.5356 68.6268L45.2286 67.9757V71.585L58.0849 69.3181V72.6228L41.5356 75.5409V68.6268ZM47.906 62.5114V58.5504L44.2823 59.1894V63.1503L47.906 62.5114ZM54.0919 53.8972L57.7849 53.246V66.7929L54.0919 67.4441V53.8972ZM60.8778 54.5757L63.9015 54.0425V51.9097L67.4791 51.2789V53.4117L70.4566 52.8867V56.121L60.8778 57.81V54.5757ZM61.4779 63.4698C61.4779 61.9855 61.8549 60.7549 62.6089 59.7782C63.3629 58.8015 64.3554 58.2047 65.5864 57.9876L65.9326 57.9265C67.1636 57.7095 68.1561 57.9564 68.9101 58.6672C69.6641 59.378 70.0411 60.4755 70.0411 61.9599V65.5693C70.0411 67.0537 69.6641 68.2842 68.9101 69.2609C68.1561 70.2376 67.1636 70.8345 65.9326 71.0515L65.5864 71.1126C64.3554 71.3297 63.3629 71.0828 62.6089 70.372C61.8549 69.6612 61.4779 68.5636 61.4779 67.0792V63.4698ZM64.7786 66.7082C64.7786 67.1457 64.8632 67.4589 65.0325 67.6478C65.2171 67.834 65.4479 67.9026 65.7249 67.8538L65.7941 67.8416C66.0711 67.7927 66.2942 67.644 66.4635 67.3954C66.6482 67.1441 66.7405 66.7997 66.7405 66.3622V62.2841C66.7405 61.8466 66.6482 61.5348 66.4635 61.3486C66.2942 61.1597 66.0711 61.0896 65.7941 61.1385L65.7249 61.1507C65.094 61.2619 64.7786 61.755 64.7786 62.63V66.7082ZM71.2644 50.963L74.5651 50.381V57.4357L75.8807 57.2037V50.0552L79.2275 49.4651V69.176L75.8807 69.7662V60.4849L74.5651 60.7169V69.7638L71.2644 70.3458V50.963ZM82.9667 49.0636L93.6073 47.1874V56.2108L89.9142 56.862V51.0026L82.9667 52.2277V49.0636ZM83.9131 59.0452L100.255 56.1637V61.9996L87.7446 64.2055V64.9555L100.601 62.6886V65.3605L84.0516 68.2786V62.4426L96.5617 60.2368V59.4868L83.9131 61.717V59.0452ZM94.2074 52.2613L96.6079 51.838V50.502L94.2074 50.9253V48.3003L96.6079 47.877V46.4005L100.255 45.7574V55.2965L96.6079 55.9395V54.463L94.2074 54.8863V52.2613Z" fill="#FF4242"/>
<path d="M19.8159 60.5269V59.5269L18.8311 59.7006V60.7006L19.8159 60.5269ZM36.1114 57.6536L37.0962 57.4799V56.4799L36.1114 56.6536V57.6536ZM36.1114 69.513V70.513L37.0962 70.3393V69.3393L36.1114 69.513ZM32.4184 70.1641L31.4336 70.3378V71.3378L32.4184 71.1641V70.1641ZM32.4184 61.6798L33.4032 61.5061V60.5061L32.4184 60.6798V61.6798ZM19.8159 63.9019L18.8311 64.0756V65.0756L19.8159 64.9019V63.9019ZM18.3618 75.9474V74.9474L17.377 75.121V76.121L18.3618 75.9474ZM24.8246 74.8078V75.8078L25.8094 75.6342V74.6342L24.8246 74.8078ZM24.8246 68.1047V67.1047L23.8398 67.2783V68.2783L24.8246 68.1047ZM28.5176 67.4535L29.5024 67.2799V66.2799L28.5176 66.4535V67.4535ZM28.5176 74.1566L27.5328 74.3303V75.3303L28.5176 75.1566V74.1566ZM37.6117 72.5531L38.5965 72.3794V71.3794L37.6117 71.5531V72.5531ZM37.6117 75.9281V76.9281L38.5965 76.7544V75.7544L37.6117 75.9281ZM18.3618 79.3224L17.377 79.496V80.496L18.3618 80.3224V79.3224ZM19.8159 61.5269L36.1114 58.6536V56.6536L19.8159 59.5269V61.5269ZM35.1266 57.8272V69.6866L37.0962 69.3393V57.4799L35.1266 57.8272ZM36.1114 68.513L32.4184 69.1641V71.1641L36.1114 70.513V68.513ZM33.4032 69.9905V61.5061L31.4336 61.8534V70.3378L33.4032 69.9905ZM32.4184 60.6798L19.8159 62.9019V64.9019L32.4184 62.6798V60.6798ZM20.8007 63.7283V60.3533L18.8311 60.7006V64.0756L20.8007 63.7283ZM18.3618 76.9474L24.8246 75.8078V73.8078L18.3618 74.9474V76.9474ZM25.8094 74.6342V67.931L23.8398 68.2783V74.9815L25.8094 74.6342ZM24.8246 69.1047L28.5176 68.4535V66.4535L24.8246 67.1047V69.1047ZM27.5328 67.6272V74.3303L29.5024 73.983V67.2799L27.5328 67.6272ZM28.5176 75.1566L37.6117 73.5531V71.5531L28.5176 73.1566V75.1566ZM36.6269 72.7267V76.1017L38.5965 75.7544V72.3794L36.6269 72.7267ZM37.6117 74.9281L18.3618 78.3224V80.3224L37.6117 76.9281V74.9281ZM19.3466 79.1487V75.7737L17.377 76.121V79.496L19.3466 79.1487ZM51.5991 54.618L52.5839 54.4444V53.4444L51.5991 53.618V54.618ZM51.5991 65.1414V66.1414L52.5839 65.9678V64.9678L51.5991 65.1414ZM40.5892 67.0828L39.6044 67.2564V68.2564L40.5892 68.0828V67.0828ZM40.5892 56.5593V55.5593L39.6044 55.733V56.733L40.5892 56.5593ZM41.5356 68.6268V67.6268L40.5508 67.8005V68.8005L41.5356 68.6268ZM45.2286 67.9757L46.2134 67.802V66.802L45.2286 66.9757V67.9757ZM45.2286 71.585L44.2438 71.7587V72.7587L45.2286 72.585V71.585ZM58.0849 69.3181L59.0698 69.1445V68.1445L58.0849 68.3181V69.3181ZM58.0849 72.6228V73.6228L59.0698 73.4492V72.4492L58.0849 72.6228ZM41.5356 75.5409L40.5508 75.7146V76.7146L41.5356 76.5409V75.5409ZM47.906 62.5114V63.5114L48.8908 63.3377V62.3377L47.906 62.5114ZM47.906 58.5504L48.8908 58.3768V57.3768L47.906 57.5504V58.5504ZM44.2823 59.1894V58.1894L43.2974 58.3631V59.3631L44.2823 59.1894ZM44.2823 63.1503L43.2974 63.324V64.324L44.2823 64.1503V63.1503ZM54.0919 53.8972V52.8972L53.1071 53.0709V54.0709L54.0919 53.8972ZM57.7849 53.246L58.7697 53.0724V52.0724L57.7849 52.246V53.246ZM57.7849 66.7929V67.7929L58.7697 67.6192V66.6192L57.7849 66.7929ZM54.0919 67.4441L53.1071 67.6177V68.6177L54.0919 68.4441V67.4441ZM50.6143 54.7916V65.3151L52.5839 64.9678V54.4444L50.6143 54.7916ZM51.5991 64.1414L40.5892 66.0828V68.0828L51.5991 66.1414V64.1414ZM41.574 66.9091V56.3857L39.6044 56.733V67.2564L41.574 66.9091ZM40.5892 57.5593L51.5991 55.618V53.618L40.5892 55.5593V57.5593ZM41.5356 69.6268L45.2286 68.9757V66.9757L41.5356 67.6268V69.6268ZM44.2438 68.1493V71.7587L46.2134 71.4114V67.802L44.2438 68.1493ZM45.2286 72.585L58.0849 70.3181V68.3181L45.2286 70.585V72.585ZM57.1001 69.4918V72.7965L59.0698 72.4492V69.1445L57.1001 69.4918ZM58.0849 71.6228L41.5356 74.5409V76.5409L58.0849 73.6228V71.6228ZM42.5204 75.3673V68.4532L40.5508 68.8005V75.7146L42.5204 75.3673ZM48.8908 62.3377V58.3768L46.9212 58.7241V62.685L48.8908 62.3377ZM47.906 57.5504L44.2823 58.1894V60.1894L47.906 59.5504V57.5504ZM43.2974 59.3631V63.324L45.2671 62.9767V59.0158L43.2974 59.3631ZM44.2823 64.1503L47.906 63.5114V61.5114L44.2823 62.1503V64.1503ZM54.0919 54.8972L57.7849 54.246V52.246L54.0919 52.8972V54.8972ZM56.8001 53.4197V66.9665L58.7697 66.6192V53.0724L56.8001 53.4197ZM57.7849 65.7929L54.0919 66.4441V68.4441L57.7849 67.7929V65.7929ZM55.0767 67.2704V53.7236L53.1071 54.0709V67.6177L55.0767 67.2704ZM60.8778 54.5757V53.5757L59.893 53.7493V54.7493L60.8778 54.5757ZM63.9015 54.0425V55.0425L64.8863 54.8689V53.8689L63.9015 54.0425ZM63.9015 51.9097V50.9097L62.9167 51.0833V52.0833L63.9015 51.9097ZM67.4791 51.2789L68.4639 51.1052V50.1052L67.4791 50.2789V51.2789ZM67.4791 53.4117L66.4943 53.5853V54.5853L67.4791 54.4117V53.4117ZM70.4566 52.8867L71.4414 52.713V51.713L70.4566 51.8867V52.8867ZM70.4566 56.121V57.121L71.4414 56.9474V55.9474L70.4566 56.121ZM60.8778 57.81L59.893 57.9837V58.9837L60.8778 58.81V57.81ZM65.0325 67.6478L64.2581 68.4021L64.2711 68.4166L64.2847 68.4304L65.0325 67.6478ZM66.4635 67.3954L65.7158 66.8765L65.7021 66.8951L65.6891 66.9142L66.4635 67.3954ZM66.4635 61.3486L65.6891 62.1029L65.7021 62.1174L65.7158 62.1312L66.4635 61.3486ZM71.2644 50.963V49.963L70.2796 50.1366V51.1366L71.2644 50.963ZM74.5651 50.381L75.5499 50.2073V49.2073L74.5651 49.381V50.381ZM74.5651 57.4357L73.5803 57.6093V58.6093L74.5651 58.4357V57.4357ZM75.8807 57.2037V58.2037L76.8655 58.03V57.03L75.8807 57.2037ZM75.8807 50.0552V49.0552L74.8959 49.2289V50.2289L75.8807 50.0552ZM79.2275 49.4651L80.2123 49.2915V48.2915L79.2275 48.4651V49.4651ZM79.2275 69.176V70.176L80.2123 70.0024V69.0024L79.2275 69.176ZM75.8807 69.7662L74.8959 69.9398V70.9398L75.8807 70.7662V69.7662ZM75.8807 60.4849L76.8655 60.3113V59.3113L75.8807 59.4849V60.4849ZM74.5651 60.7169V59.7169L73.5803 59.8906V60.8906L74.5651 60.7169ZM74.5651 69.7638V70.7638L75.5499 70.5901V69.5901L74.5651 69.7638ZM71.2644 70.3458L70.2796 70.5194V71.5194L71.2644 71.3458V70.3458ZM60.8778 55.5757L63.9015 55.0425V53.0425L60.8778 53.5757V55.5757ZM64.8863 53.8689V51.736L62.9167 52.0833V54.2162L64.8863 53.8689ZM63.9015 52.9097L67.4791 52.2789V50.2789L63.9015 50.9097V52.9097ZM66.4943 51.4525V53.5853L68.4639 53.238V51.1052L66.4943 51.4525ZM67.4791 54.4117L70.4566 53.8867V51.8867L67.4791 52.4117V54.4117ZM69.4718 53.0603V56.2947L71.4414 55.9474V52.713L69.4718 53.0603ZM70.4566 55.121L60.8778 56.81V58.81L70.4566 57.121V55.121ZM61.8626 57.6364V54.402L59.893 54.7493V57.9837L61.8626 57.6364ZM62.4627 63.2962C62.4627 61.983 62.7935 61.0273 63.3382 60.3216L61.8796 59.2348C60.9164 60.4826 60.4931 61.9879 60.4931 63.6435L62.4627 63.2962ZM63.3382 60.3216C63.8862 59.6118 64.6031 59.161 65.5864 58.9876V56.9876C64.1078 57.2483 62.8396 57.9913 61.8796 59.2348L63.3382 60.3216ZM65.5864 58.9876L65.9326 58.9265V56.9265L65.5864 56.9876V58.9876ZM65.9326 58.9265C66.916 58.7531 67.6328 58.9511 68.1808 59.4677L69.6394 57.8666C68.6795 56.9616 67.4113 56.6658 65.9326 56.9265V58.9265ZM68.1808 59.4677C68.7256 59.9813 69.0563 60.8204 69.0563 62.1336L71.0259 61.7863C71.0259 60.1307 70.6027 58.7746 69.6394 57.8666L68.1808 59.4677ZM69.0563 62.1336V65.7429L71.0259 65.3956V61.7863L69.0563 62.1336ZM69.0563 65.7429C69.0563 67.0561 68.7256 68.0118 68.1808 68.7175L69.6394 69.8043C70.6027 68.5566 71.0259 67.0512 71.0259 65.3956L69.0563 65.7429ZM68.1808 68.7175C67.6328 69.4274 66.916 69.8781 65.9326 70.0515V72.0515C67.4113 71.7908 68.6795 71.0478 69.6394 69.8043L68.1808 68.7175ZM65.9326 70.0515L65.5864 70.1126V72.1126L65.9326 72.0515V70.0515ZM65.5864 70.1126C64.6031 70.286 63.8862 70.088 63.3382 69.5714L61.8796 71.1726C62.8396 72.0776 64.1078 72.3733 65.5864 72.1126V70.1126ZM63.3382 69.5714C62.7935 69.0578 62.4627 68.2187 62.4627 66.9056L60.4931 67.2529C60.4931 68.9085 60.9164 70.2645 61.8796 71.1726L63.3382 69.5714ZM62.4627 66.9056V63.2962L60.4931 63.6435V67.2529L62.4627 66.9056ZM63.7938 66.8818C63.7938 67.423 63.8939 67.9957 64.2581 68.4021L65.8068 66.8934C65.8218 66.9101 65.8101 66.907 65.7947 66.8498C65.7789 66.7911 65.7634 66.6911 65.7634 66.5345L63.7938 66.8818ZM64.2847 68.4304C64.6512 68.8 65.1525 68.9547 65.7249 68.8538V66.8538C65.7198 66.8547 65.7221 66.8538 65.7302 66.8541C65.7385 66.8544 65.7492 66.8559 65.7605 66.8593C65.7718 66.8627 65.7799 66.8668 65.7842 66.8694C65.7883 66.8719 65.7867 66.8717 65.7802 66.8651L64.2847 68.4304ZM65.7249 68.8538L65.7941 68.8416V66.8416L65.7249 66.8538V68.8538ZM65.7941 68.8416C66.3694 68.7401 66.8795 68.403 67.2379 67.8767L65.6891 66.9142C65.6873 66.9169 65.6906 66.9115 65.7004 66.9016C65.7105 66.8914 65.7243 66.8796 65.7411 66.8684C65.7781 66.8437 65.802 66.8402 65.7941 66.8416V68.8416ZM67.2112 67.9144C67.611 67.3704 67.7253 66.7457 67.7253 66.1886L65.7557 66.5359C65.7557 66.6864 65.7394 66.7845 65.7243 66.8409C65.71 66.8943 65.7004 66.8975 65.7158 66.8765L67.2112 67.9144ZM67.7253 66.1886V62.1104L65.7557 62.4577V66.5359L67.7253 66.1886ZM67.7253 62.1104C67.7253 61.5533 67.611 60.969 67.2112 60.5659L65.7158 62.1312C65.7004 62.1156 65.71 62.1155 65.7243 62.1638C65.7394 62.2148 65.7557 62.3072 65.7557 62.4577L67.7253 62.1104ZM67.2379 60.5942C66.8795 60.1943 66.3694 60.037 65.7941 60.1385V62.1385C65.802 62.1371 65.7781 62.142 65.7411 62.1304C65.7243 62.1251 65.7105 62.1181 65.7004 62.1115C65.6906 62.105 65.6873 62.1008 65.6891 62.1029L67.2379 60.5942ZM65.7941 60.1385L65.7249 60.1507V62.1507L65.7941 62.1385V60.1385ZM65.7249 60.1507C65.1601 60.2503 64.5989 60.5619 64.2205 61.1533C63.8841 61.6793 63.7938 62.2737 63.7938 62.8037L65.7634 62.4564C65.7634 62.2954 65.7782 62.1842 65.7944 62.1138C65.8105 62.0441 65.8235 62.033 65.8098 62.0546C65.7917 62.0828 65.7586 62.1185 65.7189 62.1439C65.6848 62.1657 65.6785 62.1589 65.7249 62.1507V60.1507ZM63.7938 62.8037V66.8818L65.7634 66.5345V62.4564L63.7938 62.8037ZM71.2644 51.963L74.5651 51.381V49.381L71.2644 49.963V51.963ZM73.5803 50.5546V57.6093L75.5499 57.262V50.2073L73.5803 50.5546ZM74.5651 58.4357L75.8807 58.2037V56.2037L74.5651 56.4357V58.4357ZM76.8655 57.03V49.8816L74.8959 50.2289V57.3773L76.8655 57.03ZM75.8807 51.0552L79.2275 50.4651V48.4651L75.8807 49.0552V51.0552ZM78.2427 49.6388V69.3497L80.2123 69.0024V49.2915L78.2427 49.6388ZM79.2275 68.176L75.8807 68.7662V70.7662L79.2275 70.176V68.176ZM76.8655 69.5925V60.3113L74.8959 60.6586V69.9398L76.8655 69.5925ZM75.8807 59.4849L74.5651 59.7169V61.7169L75.8807 61.4849V59.4849ZM73.5803 60.8906V69.9374L75.5499 69.5901V60.5433L73.5803 60.8906ZM74.5651 68.7638L71.2644 69.3458V71.3458L74.5651 70.7638V68.7638ZM72.2493 70.1721V50.7893L70.2796 51.1366V70.5194L72.2493 70.1721ZM82.9667 49.0636V48.0636L81.9819 48.2372V49.2372L82.9667 49.0636ZM93.6073 47.1874L94.5921 47.0137V46.0137L93.6073 46.1874V47.1874ZM93.6073 56.2108V57.2108L94.5921 57.0372V56.0372L93.6073 56.2108ZM89.9142 56.862L88.9294 57.0356V58.0356L89.9142 57.862V56.862ZM89.9142 51.0026L90.8991 50.829V49.829L89.9142 50.0026V51.0026ZM82.9667 52.2277L81.9819 52.4013V53.4013L82.9667 53.2277V52.2277ZM83.9131 59.0452V58.0452L82.9283 58.2188V59.2188L83.9131 59.0452ZM100.255 56.1637L101.24 55.99V54.99L100.255 55.1637V56.1637ZM100.255 61.9996V62.9996L101.24 62.826V61.826L100.255 61.9996ZM87.7446 64.2055V63.2055L86.7598 63.3792V64.3792L87.7446 64.2055ZM87.7446 64.9555L86.7598 65.1292V66.1292L87.7446 65.9555V64.9555ZM100.601 62.6886L101.586 62.5149V61.5149L100.601 61.6886V62.6886ZM100.601 65.3605V66.3605L101.586 66.1868V65.1868L100.601 65.3605ZM84.0516 68.2786L83.0668 68.4522V69.4522L84.0516 69.2786V68.2786ZM84.0516 62.4426V61.4426L83.0668 61.6163V62.6163L84.0516 62.4426ZM96.5617 60.2368V61.2368L97.5465 61.0631V60.0631L96.5617 60.2368ZM96.5617 59.4868L97.5465 59.3131V58.3131L96.5617 58.4868V59.4868ZM83.9131 61.717L82.9283 61.8907V62.8907L83.9131 62.717V61.717ZM94.2074 52.2613V51.2613L93.2226 51.4349V52.4349L94.2074 52.2613ZM96.6079 51.838V52.838L97.5927 52.6643V51.6643L96.6079 51.838ZM96.6079 50.502L97.5927 50.3284V49.3284L96.6079 49.502V50.502ZM94.2074 50.9253L93.2226 51.099V52.099L94.2074 51.9253V50.9253ZM94.2074 48.3003V47.3003L93.2226 47.474V48.474L94.2074 48.3003ZM96.6079 47.877V48.877L97.5927 48.7034V47.7034L96.6079 47.877ZM96.6079 46.4005V45.4005L95.6231 45.5741V46.5741L96.6079 46.4005ZM100.255 45.7574L101.24 45.5838V44.5838L100.255 44.7574V45.7574ZM100.255 55.2965V56.2965L101.24 56.1229V55.1229L100.255 55.2965ZM96.6079 55.9395L95.6231 56.1132V57.1132L96.6079 56.9395V55.9395ZM96.6079 54.463L97.5927 54.2893V53.2893L96.6079 53.463V54.463ZM94.2074 54.8863L93.2226 55.0599V56.0599L94.2074 55.8863V54.8863ZM82.9667 50.0636L93.6073 48.1874V46.1874L82.9667 48.0636V50.0636ZM92.6225 47.361V56.3845L94.5921 56.0372V47.0137L92.6225 47.361ZM93.6073 55.2108L89.9142 55.862V57.862L93.6073 57.2108V55.2108ZM90.8991 56.6884V50.829L88.9294 51.1763V57.0356L90.8991 56.6884ZM89.9142 50.0026L82.9667 51.2277V53.2277L89.9142 52.0026V50.0026ZM83.9515 52.054V48.8899L81.9819 49.2372V52.4013L83.9515 52.054ZM83.9131 60.0452L100.255 57.1637V55.1637L83.9131 58.0452V60.0452ZM99.2699 56.3373V62.1733L101.24 61.826V55.99L99.2699 56.3373ZM100.255 60.9996L87.7446 63.2055V65.2055L100.255 62.9996V60.9996ZM86.7598 64.3792V65.1292L88.7294 64.7819V64.0319L86.7598 64.3792ZM87.7446 65.9555L100.601 63.6886V61.6886L87.7446 63.9555V65.9555ZM99.6161 62.8622V65.5341L101.586 65.1868V62.5149L99.6161 62.8622ZM100.601 64.3605L84.0516 67.2786V69.2786L100.601 66.3605V64.3605ZM85.0364 68.1049V62.269L83.0668 62.6163V68.4522L85.0364 68.1049ZM84.0516 63.4426L96.5617 61.2368V59.2368L84.0516 61.4426V63.4426ZM97.5465 60.0631V59.3131L95.5769 59.6604V60.4104L97.5465 60.0631ZM96.5617 58.4868L83.9131 60.717V62.717L96.5617 60.4868V58.4868ZM84.8979 61.5434V58.8715L82.9283 59.2188V61.8907L84.8979 61.5434ZM94.2074 53.2613L96.6079 52.838V50.838L94.2074 51.2613V53.2613ZM97.5927 51.6643V50.3284L95.6231 50.6757V52.0116L97.5927 51.6643ZM96.6079 49.502L94.2074 49.9253V51.9253L96.6079 51.502V49.502ZM95.1922 50.7517V48.1267L93.2226 48.474V51.099L95.1922 50.7517ZM94.2074 49.3003L96.6079 48.877V46.877L94.2074 47.3003V49.3003ZM97.5927 47.7034V46.2268L95.6231 46.5741V48.0507L97.5927 47.7034ZM96.6079 47.4005L100.255 46.7574V44.7574L96.6079 45.4005V47.4005ZM99.2699 45.9311V55.4702L101.24 55.1229V45.5838L99.2699 45.9311ZM100.255 54.2965L96.6079 54.9395V56.9395L100.255 56.2965V54.2965ZM97.5927 55.7659V54.2893L95.6231 54.6366V56.1132L97.5927 55.7659ZM96.6079 53.463L94.2074 53.8863V55.8863L96.6079 55.463V53.463ZM95.1922 54.7126V52.0876L93.2226 52.4349V55.0599L95.1922 54.7126Z" fill="white" fill-opacity="0.7" mask="url(#path-147-outside-1_54_3626)"/>
<g clip-path="url(#clip1_54_3626)">
<path d="M98.4381 73.08C93.3226 89.8673 77.8725 102.067 59.6034 102.067C46.0308 102.067 34.0147 95.3309 26.6353 84.9875" stroke="#FF4242" stroke-width="4" stroke-miterlimit="10"/>
<path d="M20.5674 49.4851C25.4707 32.3508 41.0895 19.8208 59.6035 19.8208C72.7407 19.8208 84.4194 26.1271 91.8478 35.9197" stroke="#FF4242" stroke-width="4" stroke-miterlimit="10"/>
</g>
</g>
<rect x="1.5" y="1.5" width="117" height="117" rx="58.5" stroke="#E8E8E8" stroke-width="3"/>
<defs>
<linearGradient id="paint0_linear_54_3626" x1="42.4268" y1="50.8386" x2="41.5006" y2="38.0436" gradientUnits="userSpaceOnUse">
<stop stop-color="white"/>
<stop offset="1" stop-color="white"/>
</linearGradient>
<linearGradient id="paint1_linear_54_3626" x1="62.2193" y1="60.5053" x2="62.2902" y2="41.5255" gradientUnits="userSpaceOnUse">
<stop stop-color="white"/>
<stop offset="1" stop-color="white"/>
</linearGradient>
<clipPath id="clip0_54_3626">
<rect width="120" height="120" rx="60" fill="white"/>
</clipPath>
<clipPath id="clip1_54_3626">
<rect width="81" height="94" fill="white" transform="translate(19 15)"/>
</clipPath>
</defs>
</svg>
