<svg width="1636" height="1668" viewBox="0 0 1636 1668" fill="none" xmlns="http://www.w3.org/2000/svg">
<g clip-path="url(#clip0_350_3002)">
<path d="M1176.68 1160.49C1176.68 1160.49 1234.98 1211.6 1305.28 1276.4C1375.59 1341.2 1432 1394.36 1431.28 1395.14C1430.56 1395.92 1372.99 1344.03 1302.68 1279.23C1232.37 1214.43 1176.68 1160.49 1176.68 1160.49Z" fill="url(#paint0_linear_350_3002)"/>
<path d="M379.709 670.916C379.709 670.916 306.907 644.308 217.964 609.276C129.024 574.245 57.2384 545.049 57.6256 544.06C58.0128 543.072 130.428 570.669 219.371 605.7C308.31 640.732 379.709 670.916 379.709 670.916Z" fill="url(#paint1_linear_350_3002)"/>
<path d="M1114.16 1329.14C1113.26 1329.68 1072.56 1263.69 1023.27 1181.75C973.982 1099.8 935.671 1032.37 935.671 1032.37C935.671 1032.37 977.273 1097.82 1026.56 1179.76C1075.85 1261.71 1115.07 1328.59 1114.16 1329.14Z" fill="url(#paint2_linear_350_3002)"/>
<path d="M884.442 527.618C884.442 527.618 900.998 451.849 923.721 358.943C946.444 266.037 965.698 190.929 966.731 191.18C967.759 191.43 950.175 266.949 927.452 359.855C904.729 452.761 884.442 527.618 884.442 527.618Z" fill="url(#paint3_linear_350_3002)"/>
<path d="M1278.35 1330.94C1277.57 1331.67 1224.2 1275.45 1159.14 1205.39C1094.07 1135.32 1042.73 1077.22 1042.73 1077.22C1042.73 1077.22 1096.88 1132.71 1161.95 1202.77C1227.01 1272.83 1279.13 1330.22 1278.35 1330.94Z" fill="url(#paint4_linear_350_3002)"/>
<path d="M483.829 620.395C483.829 620.395 418.682 578.378 339.648 524.583C260.614 470.793 197.028 426.475 197.625 425.595C198.221 424.716 262.772 467.613 341.806 521.407C420.839 575.197 483.829 620.395 483.829 620.395Z" fill="url(#paint5_linear_350_3002)"/>
<path d="M824.937 1300.02C825.998 1300 828.446 1377.51 830.41 1473.13C832.374 1568.76 833.104 1646.29 832.043 1646.32C830.983 1646.34 828.535 1568.84 826.57 1473.21C824.606 1377.59 823.876 1300.05 824.937 1300.02Z" fill="url(#paint6_linear_350_3002)"/>
<path d="M727.71 341.5C727.71 341.5 712.872 265.375 696.905 171.073C680.937 76.7665 668.838 0.177644 669.882 6.51908e-05C670.927 -0.177513 684.72 76.1248 700.688 170.427C716.655 264.729 727.706 341.496 727.706 341.496L727.71 341.5Z" fill="url(#paint7_linear_350_3002)"/>
<path d="M1173.13 564.207C1173.13 564.207 1232.83 514.748 1307.95 455.598C1383.06 396.448 1444.49 349.176 1445.14 350.011C1445.8 350.847 1385.44 399.471 1310.32 458.621C1235.21 517.771 1173.13 564.207 1173.13 564.207Z" fill="url(#paint8_linear_350_3002)"/>
<path d="M403.489 725.078C403.489 725.078 328.355 706.024 236.315 680.235C144.27 654.45 69.8866 632.717 70.1729 631.695C70.4593 630.674 145.307 650.749 237.347 676.538C329.392 702.323 403.489 725.078 403.489 725.078Z" fill="url(#paint9_linear_350_3002)"/>
<path d="M1302.35 1211.26C1301.7 1212.1 1239.98 1165.2 1164.5 1106.52C1089.02 1047.84 1029.01 998.75 1029.01 998.75C1029.01 998.75 1091.38 1044.8 1166.86 1103.49C1242.34 1162.17 1303 1210.42 1302.35 1211.26Z" fill="url(#paint10_linear_350_3002)"/>
<path d="M752.465 1321C753.518 1321.12 744.875 1398.18 733.163 1493.11C721.45 1588.03 711.105 1664.88 710.053 1664.75C709 1664.62 717.643 1587.56 729.355 1492.64C741.068 1397.71 751.413 1320.87 752.465 1321Z" fill="url(#paint11_linear_350_3002)"/>
<path d="M750.001 1382.27C748.949 1382.15 757.071 1305.03 768.146 1210.03C779.221 1115.03 790.107 1038.23 790.107 1038.23C790.107 1038.23 783.037 1115.47 771.962 1210.47C760.887 1305.47 751.054 1382.39 750.001 1382.27Z" fill="url(#paint12_linear_350_3002)"/>
<path d="M1280.78 910.663C1280.78 910.663 1357.58 921.1 1451.95 936.315C1546.31 951.531 1622.67 964.712 1622.51 965.761C1622.34 966.81 1545.7 955.324 1451.34 940.109C1356.97 924.894 1280.78 910.663 1280.78 910.663Z" fill="url(#paint13_linear_350_3002)"/>
<path d="M1478.68 852.571C1478.65 853.633 1401.17 852.664 1305.62 850.408C1210.06 848.152 1132.64 844.407 1132.64 844.407C1132.64 844.407 1210.15 844.314 1305.71 846.57C1401.26 848.826 1478.7 851.51 1478.68 852.571Z" fill="url(#paint14_linear_350_3002)"/>
<path d="M248.479 571.081C248.934 570.124 319.297 602.605 405.638 643.634C491.98 684.662 561.149 719.657 561.149 719.657C561.149 719.657 490.331 688.133 403.989 647.104C317.647 606.076 248.023 572.041 248.479 571.081Z" fill="url(#paint15_linear_350_3002)"/>
<path d="M159.003 714.572C159.201 713.531 235.512 726.995 329.452 744.648C423.392 762.301 499.191 778.497 499.191 778.497C499.191 778.497 422.682 766.074 328.742 748.421C234.802 730.768 158.809 715.614 159.003 714.572Z" fill="url(#paint16_linear_350_3002)"/>
<path d="M344.08 887.772C344.08 887.772 267.265 898.112 172.248 908.508C77.2348 918.905 0.11685 926.48 -0.000110954 925.423C-0.117072 924.369 76.8153 915.083 171.832 904.686C266.849 894.29 344.08 887.768 344.08 887.768V887.772Z" fill="url(#paint17_linear_350_3002)"/>
<path d="M686.35 218.47C687.386 218.256 703.789 294.042 722.987 387.739C742.185 481.436 755.861 557.779 755.861 557.779C755.861 557.779 738.422 482.207 719.224 388.51C700.03 294.813 685.309 218.684 686.35 218.47Z" fill="url(#paint18_linear_350_3002)"/>
<path d="M873.109 369.246C873.109 369.246 880.369 292.028 891.67 197.052C902.975 102.075 912.993 25.1838 914.046 25.3129C915.098 25.438 906.786 102.531 895.485 197.508C884.18 292.484 873.109 369.246 873.109 369.246Z" fill="url(#paint19_linear_350_3002)"/>
<path d="M351.929 1043.42C351.929 1043.42 282.325 1077.55 195.479 1117.49C108.629 1157.43 37.8674 1189.03 37.4237 1188.07C36.9801 1187.1 107.028 1153.94 193.874 1114C280.724 1074.06 351.929 1043.42 351.929 1043.42Z" fill="url(#paint20_linear_350_3002)"/>
<path d="M549.844 467.278C548.973 467.883 503.946 404.778 449.269 326.325C394.596 247.872 350.977 183.782 351.844 183.176C352.715 182.571 397.741 245.676 452.419 324.129C507.092 402.583 550.711 466.673 549.844 467.278Z" fill="url(#paint21_linear_350_3002)"/>
<path d="M1177.36 690.143C1177.36 690.143 1248.03 658.308 1336.14 621.222C1424.24 584.137 1496 554.865 1496.41 555.845C1496.82 556.822 1425.74 587.68 1337.63 624.766C1249.53 661.852 1177.36 690.143 1177.36 690.143Z" fill="url(#paint22_linear_350_3002)"/>
<path d="M379.189 596.955C379.189 596.955 310.871 560.317 227.772 513.065C144.669 465.813 77.727 426.758 78.2513 425.834C78.7757 424.909 146.569 462.471 229.668 509.723C312.771 556.979 379.189 596.955 379.189 596.955Z" fill="url(#paint23_linear_350_3002)"/>
<path d="M976.68 1353.81C975.668 1354.13 951.969 1280.3 923.749 1188.91C895.529 1097.53 874.489 1022.88 874.489 1022.88C874.489 1022.88 899.2 1096.39 927.42 1187.78C955.64 1279.16 977.693 1353.5 976.68 1353.81Z" fill="url(#paint24_linear_350_3002)"/>
<path d="M359.745 956.071C359.745 956.071 285.414 978.046 193.103 1002.86C100.797 1027.68 25.7436 1046.97 25.4654 1045.95C25.1911 1044.92 99.7964 1023.97 192.107 999.154C284.414 974.337 359.745 956.071 359.745 956.071Z" fill="url(#paint25_linear_350_3002)"/>
<path d="M815.149 1403.14C814.088 1403.14 813.188 1325.6 813.14 1229.95C813.092 1134.31 814.971 1056.77 814.971 1056.77C814.971 1056.77 816.931 1134.31 816.98 1229.95C817.028 1325.6 816.209 1403.14 815.149 1403.14Z" fill="url(#paint26_linear_350_3002)"/>
<path d="M1010.32 526.238C1010.32 526.238 1048.95 458.996 1098.62 377.282C1148.29 295.568 1189.3 229.771 1190.2 230.32C1191.11 230.872 1151.57 297.561 1101.9 379.276C1052.23 460.99 1010.32 526.238 1010.32 526.238Z" fill="url(#paint27_linear_350_3002)"/>
<path d="M1020.38 558.832C1020.38 558.832 1064.24 494.883 1120.27 417.39C1176.29 339.898 1222.4 277.58 1223.26 278.201C1224.12 278.823 1179.4 342.15 1123.38 419.643C1067.35 497.135 1020.38 558.832 1020.38 558.832Z" fill="url(#paint28_linear_350_3002)"/>
<path d="M867.454 1513.24C866.398 1513.32 859.634 1436.07 852.346 1340.7C845.058 1245.33 841.065 1167.88 841.065 1167.88C841.065 1167.88 848.886 1245.04 856.174 1340.41C863.462 1435.78 868.511 1513.16 867.454 1513.24Z" fill="url(#paint29_linear_350_3002)"/>
<path d="M218.665 825.123C218.682 824.061 296.171 824.396 391.74 825.874C487.31 827.347 564.754 830.466 564.754 830.466C564.754 830.466 487.249 831.193 391.68 829.716C296.11 828.243 218.645 826.184 218.665 825.123Z" fill="url(#paint30_linear_350_3002)"/>
<path d="M606.554 1277.02C607.518 1277.46 575.845 1348.23 535.82 1435.09C495.791 1521.95 462.562 1591.99 461.598 1591.55C460.634 1591.1 492.303 1520.34 532.332 1433.48C572.361 1346.62 605.59 1276.58 606.554 1277.02Z" fill="url(#paint31_linear_350_3002)"/>
<path d="M1241.05 829.76C1241.05 829.76 1318.49 826.54 1414.06 824.933C1509.63 823.327 1587.11 822.887 1587.13 823.949C1587.15 825.01 1509.69 827.169 1414.12 828.776C1318.55 830.382 1241.05 829.76 1241.05 829.76Z" fill="url(#paint32_linear_350_3002)"/>
<path d="M599.722 1441.05C598.721 1440.7 623.667 1367.29 655.436 1277.08C687.205 1186.87 714.771 1114.38 714.771 1114.38C714.771 1114.38 690.827 1188.15 659.057 1278.36C627.288 1368.57 600.722 1441.41 599.722 1441.05Z" fill="url(#paint33_linear_350_3002)"/>
<path d="M1019.47 1423.57C1018.47 1423.91 992.382 1350.9 961.205 1260.48C930.029 1170.07 906.568 1096.14 906.568 1096.14C906.568 1096.14 933.659 1168.81 964.835 1259.23C996.011 1349.65 1020.48 1423.22 1019.47 1423.57Z" fill="url(#paint34_linear_350_3002)"/>
<path d="M268.305 1042.68C267.926 1041.68 340.031 1013.28 429.353 979.233C518.676 945.186 591.764 919.377 591.764 919.377C591.764 919.377 520.039 948.774 430.716 982.821C341.394 1016.87 268.681 1043.67 268.305 1042.68Z" fill="url(#paint35_linear_350_3002)"/>
<path d="M476.045 451.433C475.238 452.123 424.183 393.793 362.004 321.151C299.825 248.509 250.072 189.061 250.878 188.371C251.685 187.68 302.741 246.011 364.92 318.653C427.099 391.294 476.852 450.743 476.045 451.433Z" fill="url(#paint36_linear_350_3002)"/>
<path d="M656.98 1300.49C657.989 1300.83 634.463 1374.71 604.437 1465.51C574.414 1556.32 549.255 1629.66 548.251 1629.32C547.246 1628.99 570.768 1555.11 600.795 1464.31C630.817 1373.5 655.976 1300.16 656.98 1300.49Z" fill="url(#paint37_linear_350_3002)"/>
<path d="M444.026 976.158C444.409 977.147 372.522 1006.09 283.462 1040.81C194.398 1075.53 121.89 1102.88 121.503 1101.89C121.12 1100.9 193.007 1071.95 282.067 1037.23C371.131 1002.51 443.639 975.169 444.026 976.158Z" fill="url(#paint38_linear_350_3002)"/>
<path d="M1060.08 1145.06C1060.08 1145.06 1108.88 1205.31 1167.2 1281.09C1225.53 1356.87 1272.13 1418.82 1271.29 1419.47C1270.45 1420.11 1222.49 1359.21 1164.16 1283.43C1105.84 1207.66 1060.08 1145.06 1060.08 1145.06Z" fill="url(#paint39_linear_350_3002)"/>
<path d="M1222.36 1123.18C1222.36 1123.18 1286.25 1167.11 1363.66 1223.21C1441.07 1279.32 1503.32 1325.5 1502.7 1326.35C1502.08 1327.21 1438.82 1282.43 1361.4 1226.33C1283.99 1170.22 1222.36 1123.18 1222.36 1123.18Z" fill="url(#paint40_linear_350_3002)"/>
<path d="M744.552 1487.6C743.5 1487.49 750.832 1410.3 760.935 1315.19C771.034 1220.08 781.133 1143.18 781.133 1143.18C781.133 1143.18 774.853 1220.49 764.75 1315.6C754.647 1410.7 745.605 1487.72 744.552 1487.6Z" fill="url(#paint41_linear_350_3002)"/>
<path d="M711.485 1259.06C712.517 1259.31 695.57 1334.97 673.637 1428.07C651.701 1521.16 633.084 1596.43 632.052 1596.19C631.019 1595.94 647.966 1520.28 669.899 1427.18C691.835 1334.09 710.452 1258.82 711.485 1259.06Z" fill="url(#paint42_linear_350_3002)"/>
<path d="M642.788 1366.56C641.779 1366.24 664.631 1292.14 693.831 1201.07C723.031 1110 748.529 1036.75 748.529 1036.75C748.529 1036.75 726.685 1111.17 697.485 1202.24C668.285 1293.32 643.796 1366.88 642.788 1366.56Z" fill="url(#paint43_linear_350_3002)"/>
<path d="M1136.62 1011.33C1136.62 1011.33 1205 1047.84 1288.19 1094.93C1371.38 1142.03 1438.4 1180.95 1437.88 1181.88C1437.36 1182.8 1369.49 1145.37 1286.3 1098.28C1203.11 1051.18 1136.62 1011.33 1136.62 1011.33Z" fill="url(#paint44_linear_350_3002)"/>
<path d="M479.429 1133.91C479.429 1133.91 423.667 1187.78 353.276 1252.49C282.885 1317.19 225.243 1369.01 224.526 1368.24C223.808 1367.45 280.288 1314.36 350.679 1249.66C421.069 1184.95 479.429 1133.91 479.429 1133.91Z" fill="url(#paint45_linear_350_3002)"/>
<path d="M1297.53 735.833C1297.53 735.833 1372.89 717.736 1466.36 697.727C1559.83 677.717 1635.78 662.34 1636 663.377C1636.22 664.414 1560.63 681.474 1467.16 701.484C1373.7 721.49 1297.53 735.833 1297.53 735.833Z" fill="url(#paint46_linear_350_3002)"/>
<path d="M1387.07 916.713C1386.92 917.763 1310.07 907.842 1215.42 894.556C1120.76 881.27 1044.3 868.594 1044.3 868.594C1044.3 868.594 1121.3 877.464 1215.95 890.751C1310.61 904.037 1387.22 915.66 1387.07 916.713Z" fill="url(#paint47_linear_350_3002)"/>
<path d="M599.714 376.075C598.75 376.515 565.855 306.307 526.242 219.261C486.632 132.215 455.303 61.2928 456.267 60.8529C457.23 60.413 490.125 130.621 529.738 217.667C569.348 304.713 600.678 375.635 599.714 376.075Z" fill="url(#paint48_linear_350_3002)"/>
<path d="M1275.48 675.836C1275.48 675.836 1347.74 647.771 1437.67 615.383C1527.61 582.991 1600.81 557.544 1601.17 558.541C1601.52 559.538 1528.91 586.607 1438.98 618.995C1349.04 651.387 1275.48 675.836 1275.48 675.836Z" fill="url(#paint49_linear_350_3002)"/>
<path d="M581.758 184.347C582.758 183.992 609.413 256.803 641.296 346.972C673.178 437.142 698.211 510.526 697.211 510.878C696.211 511.233 669.556 438.421 637.674 348.252C605.792 258.082 580.758 184.698 581.758 184.347Z" fill="url(#paint50_linear_350_3002)"/>
<path d="M976.854 1305.65C977.858 1305.31 1003.35 1378.54 1033.79 1469.2C1064.24 1559.87 1088.1 1633.64 1087.1 1633.98C1086.09 1634.32 1060.6 1561.09 1030.16 1470.43C999.714 1379.76 975.85 1305.99 976.854 1305.65Z" fill="url(#paint51_linear_350_3002)"/>
<path d="M361.1 801.424C361.1 801.424 283.692 797.501 188.381 790.301C93.0692 783.101 15.8706 776.406 15.9512 775.349C16.0319 774.291 93.3595 779.271 188.671 786.471C283.982 793.671 361.1 801.424 361.1 801.424Z" fill="url(#paint52_linear_350_3002)"/>
<path d="M186.295 960.051C186.09 959.009 261.941 943.156 355.716 924.64C449.491 906.123 525.879 892.999 525.879 892.999C525.879 892.999 450.233 909.893 356.458 928.409C262.683 946.926 186.501 961.092 186.295 960.051Z" fill="url(#paint53_linear_350_3002)"/>
<path d="M426.974 853.693C426.974 853.693 349.646 858.976 254.153 863.129C158.66 867.282 81.2116 869.788 81.1673 868.727C81.1229 867.665 158.495 863.444 253.988 859.291C349.481 855.138 426.974 853.693 426.974 853.693Z" fill="url(#paint54_linear_350_3002)"/>
<path d="M1228.09 766.926C1228.09 766.926 1304.11 751.811 1398.29 735.506C1492.47 719.197 1568.97 706.827 1569.15 707.873C1569.33 708.918 1493.13 722.987 1398.95 739.292C1304.77 755.601 1228.09 766.926 1228.09 766.926Z" fill="url(#paint55_linear_350_3002)"/>
<path d="M1020.05 294.732C1021.05 295.103 994.692 368.024 961.189 457.6C927.686 547.18 898.728 619.124 898.728 619.124C898.728 619.124 924.088 545.832 957.592 456.256C991.095 366.676 1019.06 294.361 1020.05 294.732Z" fill="url(#paint56_linear_350_3002)"/>
<path d="M1222.78 940.178C1222.78 940.178 1298.24 957.863 1390.74 981.97C1483.23 1006.08 1558 1026.45 1557.73 1027.48C1557.47 1028.5 1482.26 1009.79 1389.77 985.687C1297.28 961.58 1222.78 940.178 1222.78 940.178Z" fill="url(#paint57_linear_350_3002)"/>
<path d="M908.581 1223.5C908.581 1223.5 928.004 1298.58 949.662 1391.74C971.316 1484.9 988.038 1560.62 987.001 1560.86C985.969 1561.1 967.578 1485.78 945.92 1392.62C924.266 1299.46 908.581 1223.5 908.581 1223.5Z" fill="url(#paint58_linear_350_3002)"/>
<path d="M1027.98 1189.74C1028.9 1189.21 1068.83 1255.66 1117.16 1338.18C1165.5 1420.69 1203.95 1488.01 1203.03 1488.55C1202.12 1489.09 1162.19 1422.63 1113.85 1340.12C1065.51 1257.6 1027.07 1190.28 1027.98 1189.74Z" fill="url(#paint59_linear_350_3002)"/>
<path d="M631.781 1120.52C631.781 1120.52 592.684 1187.49 542.439 1268.86C492.194 1350.22 450.733 1415.73 449.834 1415.17C448.93 1414.62 488.931 1348.2 539.176 1266.84C589.421 1185.47 631.781 1120.52 631.781 1120.52Z" fill="url(#paint60_linear_350_3002)"/>
<path d="M1049.67 208.271C1050.67 208.639 1024.59 281.66 991.426 371.361C958.261 461.067 930.57 533.486 929.577 533.119C928.581 532.752 954.664 459.731 987.824 370.029C1020.99 280.324 1048.68 207.904 1049.67 208.271Z" fill="url(#paint61_linear_350_3002)"/>
<path d="M268.648 1159.85C268.104 1158.94 334.066 1118.25 415.983 1068.97C497.901 1019.68 565.299 981.38 565.299 981.38C565.299 981.38 499.881 1022.98 417.964 1072.26C336.046 1121.54 269.197 1160.75 268.648 1159.85Z" fill="url(#paint62_linear_350_3002)"/>
<path d="M796.927 1231.48C797.988 1231.53 795.551 1309.03 791.486 1404.59C787.421 1500.15 783.267 1577.58 782.21 1577.54C781.149 1577.49 783.585 1499.99 787.651 1404.43C791.716 1308.87 795.87 1231.44 796.927 1231.48Z" fill="url(#paint63_linear_350_3002)"/>
<path d="M614.681 467.326C613.741 467.819 576.918 399.592 532.433 314.94C487.947 230.283 452.641 161.257 453.58 160.765C454.52 160.273 491.343 228.499 535.829 313.152C580.314 397.808 615.62 466.834 614.681 467.326Z" fill="url(#paint64_linear_350_3002)"/>
<path d="M732.832 429.353C732.832 429.353 716.28 353.583 698.187 259.664C680.094 165.745 666.273 89.4512 667.313 89.2494C668.354 89.0476 683.865 165.019 701.958 258.938C720.051 352.857 732.832 429.353 732.832 429.353Z" fill="url(#paint65_linear_350_3002)"/>
<path d="M498.078 519.393C498.078 519.393 441.497 466.386 373.361 399.306C305.225 332.229 250.592 277.236 251.334 276.482C252.076 275.727 307.915 329.489 376.051 396.565C444.187 463.641 498.078 519.389 498.078 519.389V519.393Z" fill="url(#paint66_linear_350_3002)"/>
<path d="M481.01 1069.96C481.01 1069.96 419.395 1117.01 342.003 1173.14C264.611 1229.27 201.367 1274.07 200.746 1273.22C200.125 1272.36 262.361 1226.16 339.753 1170.03C417.145 1113.9 481.01 1069.96 481.01 1069.96Z" fill="url(#paint67_linear_350_3002)"/>
<path d="M411.551 1273.89C410.769 1273.17 462.373 1215.33 526.819 1144.69C591.26 1074.05 644.921 1018.09 644.921 1018.09C644.921 1018.09 594.1 1076.65 529.654 1147.28C465.212 1217.92 412.337 1274.61 411.551 1273.89Z" fill="url(#paint68_linear_350_3002)"/>
<path d="M565.15 1154.12C565.15 1154.12 519.781 1217 461.929 1293.14C404.078 1369.28 356.498 1430.48 355.651 1429.84C354.809 1429.2 401.02 1366.96 458.872 1290.82C516.724 1214.68 565.15 1154.12 565.15 1154.12Z" fill="url(#paint69_linear_350_3002)"/>
<path d="M571.276 1116.82C571.276 1116.82 522.918 1177.44 461.457 1250.69C399.992 1323.93 349.509 1382.76 348.698 1382.08C347.888 1381.4 397.056 1321.46 458.517 1248.22C519.982 1174.97 571.276 1116.82 571.276 1116.82Z" fill="url(#paint70_linear_350_3002)"/>
<path d="M778.039 457.725C778.039 457.725 769.07 380.684 760.358 285.437C751.651 190.191 745.448 112.896 746.5 112.799C747.557 112.702 755.47 189.84 764.182 285.086C772.889 380.333 778.039 457.725 778.039 457.725Z" fill="url(#paint71_linear_350_3002)"/>
<path d="M515.009 1418.47C514.066 1417.99 548.553 1348.55 592.043 1263.38C635.532 1178.21 672.496 1110.03 672.496 1110.03C672.496 1110.03 638.952 1179.95 595.463 1265.13C551.973 1350.3 515.953 1418.95 515.009 1418.47Z" fill="url(#paint72_linear_350_3002)"/>
<path d="M1273.5 1041.45C1273.5 1041.45 1344.7 1072.08 1431.55 1112.02C1518.4 1151.96 1588.45 1185.12 1588.01 1186.09C1587.56 1187.05 1516.8 1155.46 1429.95 1115.51C1343.1 1075.57 1273.5 1041.45 1273.5 1041.45Z" fill="url(#paint73_linear_350_3002)"/>
<path d="M1414.62 1021.96C1414.3 1022.97 1340.07 1000.72 1248.81 972.267C1157.56 943.81 1084.16 918.909 1084.16 918.909C1084.16 918.909 1158.7 940.141 1249.96 968.598C1341.21 997.055 1414.93 1020.94 1414.62 1021.96Z" fill="url(#paint74_linear_350_3002)"/>
<path d="M980.834 1202.53C980.834 1202.53 1013.78 1272.74 1052.26 1360.29C1090.73 1447.85 1121.14 1519.17 1120.17 1519.6C1119.2 1520.02 1087.22 1449.39 1048.74 1361.84C1010.27 1274.28 980.834 1202.53 980.834 1202.53Z" fill="url(#paint75_linear_350_3002)"/>
<path d="M1198.99 1025.38C1198.99 1025.38 1268.92 1058.82 1354.11 1102.19C1439.31 1145.56 1507.98 1181.47 1507.5 1182.42C1507.02 1183.36 1437.56 1148.98 1352.37 1105.61C1267.18 1062.25 1198.99 1025.38 1198.99 1025.38Z" fill="url(#paint76_linear_350_3002)"/>
<path d="M1347.66 1223.49C1347.03 1224.35 1284.05 1179.18 1206.98 1122.6C1129.91 1066.03 1068.57 1018.62 1068.57 1018.62C1068.57 1018.62 1132.18 1062.93 1209.25 1119.51C1286.32 1176.08 1348.28 1222.64 1347.66 1223.49Z" fill="url(#paint77_linear_350_3002)"/>
<path d="M863.212 195.199C864.268 195.276 859.558 272.672 852.685 368.072C845.817 463.472 838.331 540.67 838.331 540.67C838.331 540.67 841.985 463.198 848.858 367.798C855.726 272.398 862.155 195.123 863.212 195.199Z" fill="url(#paint78_linear_350_3002)"/>
<path d="M1439.61 761.368C1439.74 762.422 1362.92 772.624 1268.04 784.163C1173.16 795.702 1096.01 803.144 1096.01 803.144C1096.01 803.144 1172.69 791.888 1267.58 780.349C1362.46 768.81 1439.48 760.315 1439.61 761.368Z" fill="url(#paint79_linear_350_3002)"/>
<path d="M818.972 352.142C817.911 352.134 817.673 274.593 818.44 178.951C819.206 83.3085 820.686 5.77928 821.747 5.78735C822.808 5.79543 823.046 83.3367 822.279 178.979C821.513 274.621 820.033 352.15 818.972 352.142Z" fill="url(#paint80_linear_350_3002)"/>
<path d="M304.983 1253.19C304.309 1252.37 363.524 1202.36 437.242 1141.48C510.964 1080.6 571.945 1032.73 571.945 1032.73C571.945 1032.73 513.404 1083.56 439.686 1144.44C365.964 1205.32 305.657 1254.01 304.983 1253.19Z" fill="url(#paint81_linear_350_3002)"/>
<path d="M1092.82 1261.55C1093.71 1260.98 1136.15 1325.86 1187.6 1406.47C1239.06 1487.07 1280.05 1552.88 1279.15 1553.45C1278.26 1554.02 1235.82 1489.14 1184.37 1408.53C1132.91 1327.93 1091.92 1262.12 1092.82 1261.55Z" fill="url(#paint82_linear_350_3002)"/>
<path d="M906.907 1327.17C907.951 1326.98 922.596 1403.13 939.62 1497.24C956.644 1591.36 969.598 1667.81 968.554 1668C967.509 1668.19 952.865 1592.04 935.841 1497.93C918.817 1403.81 905.862 1327.36 906.907 1327.17Z" fill="url(#paint83_linear_350_3002)"/>
</g>
<defs>
<linearGradient id="paint0_linear_350_3002" x1="1303.98" y1="1160.49" x2="1303.98" y2="1395.15" gradientUnits="userSpaceOnUse">
<stop stop-color="#374259"/>
<stop offset="1" stop-color="#1B212D"/>
</linearGradient>
<linearGradient id="paint1_linear_350_3002" x1="218.667" y1="544.035" x2="218.667" y2="670.916" gradientUnits="userSpaceOnUse">
<stop stop-color="#374259"/>
<stop offset="1" stop-color="#1B212D"/>
</linearGradient>
<linearGradient id="paint2_linear_350_3002" x1="1024.92" y1="1032.37" x2="1024.92" y2="1329.14" gradientUnits="userSpaceOnUse">
<stop stop-color="#374259"/>
<stop offset="1" stop-color="#1B212D"/>
</linearGradient>
<linearGradient id="paint3_linear_350_3002" x1="925.608" y1="191.179" x2="925.608" y2="527.618" gradientUnits="userSpaceOnUse">
<stop stop-color="#374259"/>
<stop offset="1" stop-color="#1B212D"/>
</linearGradient>
<linearGradient id="paint4_linear_350_3002" x1="1160.55" y1="1077.22" x2="1160.55" y2="1330.95" gradientUnits="userSpaceOnUse">
<stop stop-color="#374259"/>
<stop offset="1" stop-color="#1B212D"/>
</linearGradient>
<linearGradient id="paint5_linear_350_3002" x1="340.725" y1="425.582" x2="340.725" y2="620.395" gradientUnits="userSpaceOnUse">
<stop stop-color="#374259"/>
<stop offset="1" stop-color="#1B212D"/>
</linearGradient>
<linearGradient id="paint6_linear_350_3002" x1="828.49" y1="1300.02" x2="828.49" y2="1646.32" gradientUnits="userSpaceOnUse">
<stop stop-color="#374259"/>
<stop offset="1" stop-color="#1B212D"/>
</linearGradient>
<linearGradient id="paint7_linear_350_3002" x1="698.765" y1="-0.000244141" x2="698.765" y2="341.5" gradientUnits="userSpaceOnUse">
<stop stop-color="#374259"/>
<stop offset="1" stop-color="#1B212D"/>
</linearGradient>
<linearGradient id="paint8_linear_350_3002" x1="1309.14" y1="350" x2="1309.14" y2="564.207" gradientUnits="userSpaceOnUse">
<stop stop-color="#374259"/>
<stop offset="1" stop-color="#1B212D"/>
</linearGradient>
<linearGradient id="paint9_linear_350_3002" x1="236.83" y1="631.658" x2="236.83" y2="725.078" gradientUnits="userSpaceOnUse">
<stop stop-color="#374259"/>
<stop offset="1" stop-color="#1B212D"/>
</linearGradient>
<linearGradient id="paint10_linear_350_3002" x1="1165.68" y1="998.75" x2="1165.68" y2="1211.27" gradientUnits="userSpaceOnUse">
<stop stop-color="#374259"/>
<stop offset="1" stop-color="#1B212D"/>
</linearGradient>
<linearGradient id="paint11_linear_350_3002" x1="731.259" y1="1320.99" x2="731.259" y2="1664.75" gradientUnits="userSpaceOnUse">
<stop stop-color="#374259"/>
<stop offset="1" stop-color="#1B212D"/>
</linearGradient>
<linearGradient id="paint12_linear_350_3002" x1="770.008" y1="1038.23" x2="770.008" y2="1382.27" gradientUnits="userSpaceOnUse">
<stop stop-color="#374259"/>
<stop offset="1" stop-color="#1B212D"/>
</linearGradient>
<linearGradient id="paint13_linear_350_3002" x1="1451.64" y1="910.663" x2="1451.64" y2="965.828" gradientUnits="userSpaceOnUse">
<stop stop-color="#374259"/>
<stop offset="1" stop-color="#1B212D"/>
</linearGradient>
<linearGradient id="paint14_linear_350_3002" x1="1305.66" y1="844.406" x2="1305.66" y2="853.002" gradientUnits="userSpaceOnUse">
<stop stop-color="#374259"/>
<stop offset="1" stop-color="#1B212D"/>
</linearGradient>
<linearGradient id="paint15_linear_350_3002" x1="404.812" y1="571.06" x2="404.812" y2="719.657" gradientUnits="userSpaceOnUse">
<stop stop-color="#374259"/>
<stop offset="1" stop-color="#1B212D"/>
</linearGradient>
<linearGradient id="paint16_linear_350_3002" x1="329.097" y1="714.516" x2="329.097" y2="778.497" gradientUnits="userSpaceOnUse">
<stop stop-color="#374259"/>
<stop offset="1" stop-color="#1B212D"/>
</linearGradient>
<linearGradient id="paint17_linear_350_3002" x1="172.04" y1="887.768" x2="172.04" y2="925.521" gradientUnits="userSpaceOnUse">
<stop stop-color="#374259"/>
<stop offset="1" stop-color="#1B212D"/>
</linearGradient>
<linearGradient id="paint18_linear_350_3002" x1="721.08" y1="218.47" x2="721.08" y2="557.779" gradientUnits="userSpaceOnUse">
<stop stop-color="#374259"/>
<stop offset="1" stop-color="#1B212D"/>
</linearGradient>
<linearGradient id="paint19_linear_350_3002" x1="893.622" y1="25.3127" x2="893.622" y2="369.246" gradientUnits="userSpaceOnUse">
<stop stop-color="#374259"/>
<stop offset="1" stop-color="#1B212D"/>
</linearGradient>
<linearGradient id="paint20_linear_350_3002" x1="194.675" y1="1043.42" x2="194.675" y2="1188.09" gradientUnits="userSpaceOnUse">
<stop stop-color="#374259"/>
<stop offset="1" stop-color="#1B212D"/>
</linearGradient>
<linearGradient id="paint21_linear_350_3002" x1="450.844" y1="183.172" x2="450.844" y2="467.282" gradientUnits="userSpaceOnUse">
<stop stop-color="#374259"/>
<stop offset="1" stop-color="#1B212D"/>
</linearGradient>
<linearGradient id="paint22_linear_350_3002" x1="1336.89" y1="555.821" x2="1336.89" y2="690.143" gradientUnits="userSpaceOnUse">
<stop stop-color="#374259"/>
<stop offset="1" stop-color="#1B212D"/>
</linearGradient>
<linearGradient id="paint23_linear_350_3002" x1="228.719" y1="425.817" x2="228.719" y2="596.955" gradientUnits="userSpaceOnUse">
<stop stop-color="#374259"/>
<stop offset="1" stop-color="#1B212D"/>
</linearGradient>
<linearGradient id="paint24_linear_350_3002" x1="925.601" y1="1022.88" x2="925.601" y2="1353.81" gradientUnits="userSpaceOnUse">
<stop stop-color="#374259"/>
<stop offset="1" stop-color="#1B212D"/>
</linearGradient>
<linearGradient id="paint25_linear_350_3002" x1="192.605" y1="956.071" x2="192.605" y2="1045.99" gradientUnits="userSpaceOnUse">
<stop stop-color="#374259"/>
<stop offset="1" stop-color="#1B212D"/>
</linearGradient>
<linearGradient id="paint26_linear_350_3002" x1="815.06" y1="1056.77" x2="815.06" y2="1403.14" gradientUnits="userSpaceOnUse">
<stop stop-color="#374259"/>
<stop offset="1" stop-color="#1B212D"/>
</linearGradient>
<linearGradient id="paint27_linear_350_3002" x1="1100.27" y1="230.316" x2="1100.27" y2="526.238" gradientUnits="userSpaceOnUse">
<stop stop-color="#374259"/>
<stop offset="1" stop-color="#1B212D"/>
</linearGradient>
<linearGradient id="paint28_linear_350_3002" x1="1121.83" y1="278.197" x2="1121.83" y2="558.832" gradientUnits="userSpaceOnUse">
<stop stop-color="#374259"/>
<stop offset="1" stop-color="#1B212D"/>
</linearGradient>
<linearGradient id="paint29_linear_350_3002" x1="854.33" y1="1167.88" x2="854.33" y2="1513.24" gradientUnits="userSpaceOnUse">
<stop stop-color="#374259"/>
<stop offset="1" stop-color="#1B212D"/>
</linearGradient>
<linearGradient id="paint30_linear_350_3002" x1="391.71" y1="824.503" x2="391.71" y2="830.645" gradientUnits="userSpaceOnUse">
<stop stop-color="#374259"/>
<stop offset="1" stop-color="#1B212D"/>
</linearGradient>
<linearGradient id="paint31_linear_350_3002" x1="534.076" y1="1277.02" x2="534.076" y2="1591.55" gradientUnits="userSpaceOnUse">
<stop stop-color="#374259"/>
<stop offset="1" stop-color="#1B212D"/>
</linearGradient>
<linearGradient id="paint32_linear_350_3002" x1="1414.09" y1="823.37" x2="1414.09" y2="829.879" gradientUnits="userSpaceOnUse">
<stop stop-color="#374259"/>
<stop offset="1" stop-color="#1B212D"/>
</linearGradient>
<linearGradient id="paint33_linear_350_3002" x1="657.232" y1="1114.38" x2="657.232" y2="1441.06" gradientUnits="userSpaceOnUse">
<stop stop-color="#374259"/>
<stop offset="1" stop-color="#1B212D"/>
</linearGradient>
<linearGradient id="paint34_linear_350_3002" x1="963.035" y1="1096.14" x2="963.035" y2="1423.57" gradientUnits="userSpaceOnUse">
<stop stop-color="#374259"/>
<stop offset="1" stop-color="#1B212D"/>
</linearGradient>
<linearGradient id="paint35_linear_350_3002" x1="430.034" y1="919.377" x2="430.034" y2="1042.7" gradientUnits="userSpaceOnUse">
<stop stop-color="#374259"/>
<stop offset="1" stop-color="#1B212D"/>
</linearGradient>
<linearGradient id="paint36_linear_350_3002" x1="363.462" y1="188.365" x2="363.462" y2="451.439" gradientUnits="userSpaceOnUse">
<stop stop-color="#374259"/>
<stop offset="1" stop-color="#1B212D"/>
</linearGradient>
<linearGradient id="paint37_linear_350_3002" x1="602.616" y1="1300.49" x2="602.616" y2="1629.33" gradientUnits="userSpaceOnUse">
<stop stop-color="#374259"/>
<stop offset="1" stop-color="#1B212D"/>
</linearGradient>
<linearGradient id="paint38_linear_350_3002" x1="282.764" y1="976.132" x2="282.764" y2="1101.91" gradientUnits="userSpaceOnUse">
<stop stop-color="#374259"/>
<stop offset="1" stop-color="#1B212D"/>
</linearGradient>
<linearGradient id="paint39_linear_350_3002" x1="1165.69" y1="1145.06" x2="1165.69" y2="1419.47" gradientUnits="userSpaceOnUse">
<stop stop-color="#374259"/>
<stop offset="1" stop-color="#1B212D"/>
</linearGradient>
<linearGradient id="paint40_linear_350_3002" x1="1362.53" y1="1123.18" x2="1362.53" y2="1326.37" gradientUnits="userSpaceOnUse">
<stop stop-color="#374259"/>
<stop offset="1" stop-color="#1B212D"/>
</linearGradient>
<linearGradient id="paint41_linear_350_3002" x1="762.792" y1="1143.18" x2="762.792" y2="1487.6" gradientUnits="userSpaceOnUse">
<stop stop-color="#374259"/>
<stop offset="1" stop-color="#1B212D"/>
</linearGradient>
<linearGradient id="paint42_linear_350_3002" x1="671.768" y1="1259.06" x2="671.768" y2="1596.19" gradientUnits="userSpaceOnUse">
<stop stop-color="#374259"/>
<stop offset="1" stop-color="#1B212D"/>
</linearGradient>
<linearGradient id="paint43_linear_350_3002" x1="695.642" y1="1036.75" x2="695.642" y2="1366.56" gradientUnits="userSpaceOnUse">
<stop stop-color="#374259"/>
<stop offset="1" stop-color="#1B212D"/>
</linearGradient>
<linearGradient id="paint44_linear_350_3002" x1="1287.25" y1="1011.33" x2="1287.25" y2="1181.9" gradientUnits="userSpaceOnUse">
<stop stop-color="#374259"/>
<stop offset="1" stop-color="#1B212D"/>
</linearGradient>
<linearGradient id="paint45_linear_350_3002" x1="351.974" y1="1133.91" x2="351.974" y2="1368.24" gradientUnits="userSpaceOnUse">
<stop stop-color="#374259"/>
<stop offset="1" stop-color="#1B212D"/>
</linearGradient>
<linearGradient id="paint46_linear_350_3002" x1="1466.76" y1="663.328" x2="1466.76" y2="735.833" gradientUnits="userSpaceOnUse">
<stop stop-color="#374259"/>
<stop offset="1" stop-color="#1B212D"/>
</linearGradient>
<linearGradient id="paint47_linear_350_3002" x1="1215.69" y1="868.594" x2="1215.69" y2="916.789" gradientUnits="userSpaceOnUse">
<stop stop-color="#374259"/>
<stop offset="1" stop-color="#1B212D"/>
</linearGradient>
<linearGradient id="paint48_linear_350_3002" x1="527.99" y1="60.8508" x2="527.99" y2="376.077" gradientUnits="userSpaceOnUse">
<stop stop-color="#374259"/>
<stop offset="1" stop-color="#1B212D"/>
</linearGradient>
<linearGradient id="paint49_linear_350_3002" x1="1438.33" y1="558.513" x2="1438.33" y2="675.836" gradientUnits="userSpaceOnUse">
<stop stop-color="#374259"/>
<stop offset="1" stop-color="#1B212D"/>
</linearGradient>
<linearGradient id="paint50_linear_350_3002" x1="639.485" y1="184.345" x2="639.485" y2="510.879" gradientUnits="userSpaceOnUse">
<stop stop-color="#374259"/>
<stop offset="1" stop-color="#1B212D"/>
</linearGradient>
<linearGradient id="paint51_linear_350_3002" x1="1031.97" y1="1305.65" x2="1031.97" y2="1633.98" gradientUnits="userSpaceOnUse">
<stop stop-color="#374259"/>
<stop offset="1" stop-color="#1B212D"/>
</linearGradient>
<linearGradient id="paint52_linear_350_3002" x1="188.526" y1="775.207" x2="188.526" y2="801.424" gradientUnits="userSpaceOnUse">
<stop stop-color="#374259"/>
<stop offset="1" stop-color="#1B212D"/>
</linearGradient>
<linearGradient id="paint53_linear_350_3002" x1="356.087" y1="892.999" x2="356.087" y2="960.105" gradientUnits="userSpaceOnUse">
<stop stop-color="#374259"/>
<stop offset="1" stop-color="#1B212D"/>
</linearGradient>
<linearGradient id="paint54_linear_350_3002" x1="254.071" y1="853.693" x2="254.071" y2="868.97" gradientUnits="userSpaceOnUse">
<stop stop-color="#374259"/>
<stop offset="1" stop-color="#1B212D"/>
</linearGradient>
<linearGradient id="paint55_linear_350_3002" x1="1398.62" y1="707.811" x2="1398.62" y2="766.926" gradientUnits="userSpaceOnUse">
<stop stop-color="#374259"/>
<stop offset="1" stop-color="#1B212D"/>
</linearGradient>
<linearGradient id="paint56_linear_350_3002" x1="959.404" y1="294.731" x2="959.404" y2="619.124" gradientUnits="userSpaceOnUse">
<stop stop-color="#374259"/>
<stop offset="1" stop-color="#1B212D"/>
</linearGradient>
<linearGradient id="paint57_linear_350_3002" x1="1390.25" y1="940.178" x2="1390.25" y2="1027.52" gradientUnits="userSpaceOnUse">
<stop stop-color="#374259"/>
<stop offset="1" stop-color="#1B212D"/>
</linearGradient>
<linearGradient id="paint58_linear_350_3002" x1="947.814" y1="1223.5" x2="947.814" y2="1560.86" gradientUnits="userSpaceOnUse">
<stop stop-color="#374259"/>
<stop offset="1" stop-color="#1B212D"/>
</linearGradient>
<linearGradient id="paint59_linear_350_3002" x1="1115.51" y1="1189.74" x2="1115.51" y2="1488.55" gradientUnits="userSpaceOnUse">
<stop stop-color="#374259"/>
<stop offset="1" stop-color="#1B212D"/>
</linearGradient>
<linearGradient id="paint60_linear_350_3002" x1="540.8" y1="1120.52" x2="540.8" y2="1415.18" gradientUnits="userSpaceOnUse">
<stop stop-color="#374259"/>
<stop offset="1" stop-color="#1B212D"/>
</linearGradient>
<linearGradient id="paint61_linear_350_3002" x1="989.625" y1="208.27" x2="989.625" y2="533.121" gradientUnits="userSpaceOnUse">
<stop stop-color="#374259"/>
<stop offset="1" stop-color="#1B212D"/>
</linearGradient>
<linearGradient id="paint62_linear_350_3002" x1="416.972" y1="981.38" x2="416.972" y2="1159.86" gradientUnits="userSpaceOnUse">
<stop stop-color="#374259"/>
<stop offset="1" stop-color="#1B212D"/>
</linearGradient>
<linearGradient id="paint63_linear_350_3002" x1="789.568" y1="1231.48" x2="789.568" y2="1577.54" gradientUnits="userSpaceOnUse">
<stop stop-color="#374259"/>
<stop offset="1" stop-color="#1B212D"/>
</linearGradient>
<linearGradient id="paint64_linear_350_3002" x1="534.131" y1="160.762" x2="534.131" y2="467.329" gradientUnits="userSpaceOnUse">
<stop stop-color="#374259"/>
<stop offset="1" stop-color="#1B212D"/>
</linearGradient>
<linearGradient id="paint65_linear_350_3002" x1="700.045" y1="89.249" x2="700.045" y2="429.353" gradientUnits="userSpaceOnUse">
<stop stop-color="#374259"/>
<stop offset="1" stop-color="#1B212D"/>
</linearGradient>
<linearGradient id="paint66_linear_350_3002" x1="374.702" y1="276.474" x2="374.702" y2="519.393" gradientUnits="userSpaceOnUse">
<stop stop-color="#374259"/>
<stop offset="1" stop-color="#1B212D"/>
</linearGradient>
<linearGradient id="paint67_linear_350_3002" x1="340.876" y1="1069.96" x2="340.876" y2="1273.23" gradientUnits="userSpaceOnUse">
<stop stop-color="#374259"/>
<stop offset="1" stop-color="#1B212D"/>
</linearGradient>
<linearGradient id="paint68_linear_350_3002" x1="528.232" y1="1018.09" x2="528.232" y2="1273.9" gradientUnits="userSpaceOnUse">
<stop stop-color="#374259"/>
<stop offset="1" stop-color="#1B212D"/>
</linearGradient>
<linearGradient id="paint69_linear_350_3002" x1="460.395" y1="1154.12" x2="460.395" y2="1429.85" gradientUnits="userSpaceOnUse">
<stop stop-color="#374259"/>
<stop offset="1" stop-color="#1B212D"/>
</linearGradient>
<linearGradient id="paint70_linear_350_3002" x1="459.982" y1="1116.82" x2="459.982" y2="1382.08" gradientUnits="userSpaceOnUse">
<stop stop-color="#374259"/>
<stop offset="1" stop-color="#1B212D"/>
</linearGradient>
<linearGradient id="paint71_linear_350_3002" x1="762.212" y1="112.799" x2="762.212" y2="457.725" gradientUnits="userSpaceOnUse">
<stop stop-color="#374259"/>
<stop offset="1" stop-color="#1B212D"/>
</linearGradient>
<linearGradient id="paint72_linear_350_3002" x1="593.743" y1="1110.03" x2="593.743" y2="1418.48" gradientUnits="userSpaceOnUse">
<stop stop-color="#374259"/>
<stop offset="1" stop-color="#1B212D"/>
</linearGradient>
<linearGradient id="paint73_linear_350_3002" x1="1430.75" y1="1041.45" x2="1430.75" y2="1186.11" gradientUnits="userSpaceOnUse">
<stop stop-color="#374259"/>
<stop offset="1" stop-color="#1B212D"/>
</linearGradient>
<linearGradient id="paint74_linear_350_3002" x1="1249.39" y1="918.909" x2="1249.39" y2="1021.99" gradientUnits="userSpaceOnUse">
<stop stop-color="#374259"/>
<stop offset="1" stop-color="#1B212D"/>
</linearGradient>
<linearGradient id="paint75_linear_350_3002" x1="1050.51" y1="1202.53" x2="1050.51" y2="1519.6" gradientUnits="userSpaceOnUse">
<stop stop-color="#374259"/>
<stop offset="1" stop-color="#1B212D"/>
</linearGradient>
<linearGradient id="paint76_linear_350_3002" x1="1353.25" y1="1025.38" x2="1353.25" y2="1182.44" gradientUnits="userSpaceOnUse">
<stop stop-color="#374259"/>
<stop offset="1" stop-color="#1B212D"/>
</linearGradient>
<linearGradient id="paint77_linear_350_3002" x1="1208.12" y1="1018.62" x2="1208.12" y2="1223.5" gradientUnits="userSpaceOnUse">
<stop stop-color="#374259"/>
<stop offset="1" stop-color="#1B212D"/>
</linearGradient>
<linearGradient id="paint78_linear_350_3002" x1="850.846" y1="195.199" x2="850.846" y2="540.67" gradientUnits="userSpaceOnUse">
<stop stop-color="#374259"/>
<stop offset="1" stop-color="#1B212D"/>
</linearGradient>
<linearGradient id="paint79_linear_350_3002" x1="1267.81" y1="761.28" x2="1267.81" y2="803.144" gradientUnits="userSpaceOnUse">
<stop stop-color="#374259"/>
<stop offset="1" stop-color="#1B212D"/>
</linearGradient>
<linearGradient id="paint80_linear_350_3002" x1="820.359" y1="5.78735" x2="820.359" y2="352.142" gradientUnits="userSpaceOnUse">
<stop stop-color="#374259"/>
<stop offset="1" stop-color="#1B212D"/>
</linearGradient>
<linearGradient id="paint81_linear_350_3002" x1="438.461" y1="1032.73" x2="438.461" y2="1253.2" gradientUnits="userSpaceOnUse">
<stop stop-color="#374259"/>
<stop offset="1" stop-color="#1B212D"/>
</linearGradient>
<linearGradient id="paint82_linear_350_3002" x1="1185.98" y1="1261.55" x2="1185.98" y2="1553.45" gradientUnits="userSpaceOnUse">
<stop stop-color="#374259"/>
<stop offset="1" stop-color="#1B212D"/>
</linearGradient>
<linearGradient id="paint83_linear_350_3002" x1="937.73" y1="1327.17" x2="937.73" y2="1668" gradientUnits="userSpaceOnUse">
<stop stop-color="#374259"/>
<stop offset="1" stop-color="#1B212D"/>
</linearGradient>
<clipPath id="clip0_350_3002">
<rect width="1636" height="1668" fill="white"/>
</clipPath>
</defs>
</svg>
