<svg width="120" height="120" viewBox="0 0 120 120" fill="none" xmlns="http://www.w3.org/2000/svg">
<g clip-path="url(#clip0_54_3885)">
<rect width="120" height="120" rx="60" fill="#F5F5F5"/>
<rect opacity="0.5" x="4" y="94" width="132" height="30" fill="#D9D9D9"/>
<g opacity="0.5">
<g style="mix-blend-mode:multiply">
<path d="M76.2854 30.2473V58.6487L119.805 63V28.4241L76.2854 30.2473Z" fill="#EDEDED"/>
</g>
<g style="mix-blend-mode:multiply">
<path d="M62 19.1936V54.4002L114.418 58.6416V17L62 19.1936Z" fill="#C3DDDC"/>
</g>
<path opacity="0.4" d="M70.6716 49.2079V31.8387L76.2855 31.5257V49.6715L70.6716 49.2079Z" fill="#F7F9F9"/>
<path opacity="0.4" d="M82.5967 50.0036L82.8264 25.7623L88.4429 25.1721L88.2105 50.4672L82.5967 50.0036Z" fill="#F7F9F9"/>
<path opacity="0.4" d="M93.3752 50.9044L93.4096 35.8626L99.0208 35.7455L98.9891 51.368L93.3752 50.9044Z" fill="#F7F9F9"/>
<g style="mix-blend-mode:multiply">
<path d="M107.294 51.6691L100.545 51.184V42.7969L106.935 42.926C106.935 42.926 106.938 42.926 106.94 42.926C106.988 42.926 107.027 42.8901 107.03 42.8447C107.033 42.7993 106.996 42.7611 106.945 42.7611L100.542 42.632V33.9917L106.938 33.791C106.988 33.791 107.027 33.7503 107.027 33.7049C107.027 33.6595 106.988 33.6237 106.938 33.6261L100.539 33.8268V26.4098L107.26 25.9558C107.31 25.9534 107.349 25.9128 107.347 25.8674C107.347 25.822 107.31 25.7862 107.252 25.791L100.537 26.245V20.9714C100.537 20.926 100.495 20.8901 100.444 20.8925C100.394 20.8925 100.355 20.9331 100.355 20.9785V26.2593L90.7455 26.9092V21.7742C90.7455 21.7288 90.7033 21.693 90.6531 21.6954C90.6029 21.6954 90.5633 21.736 90.5633 21.7814V26.9236L81.6144 27.5281V22.558C81.6144 22.5126 81.5722 22.4767 81.522 22.4791C81.4718 22.4815 81.4322 22.5197 81.4322 22.5651V27.5424L74.2261 28.0299V23.5042C74.2261 23.4588 74.1839 23.423 74.1337 23.4254C74.0835 23.4254 74.0439 23.466 74.0439 23.5114V28.0442L68.0208 28.4505V23.6739C68.0208 23.5377 67.8993 23.4301 67.7488 23.4349C67.5983 23.4397 67.4768 23.5544 67.4768 23.6906L67.4847 49.0932C67.4847 49.2175 67.5877 49.3202 67.725 49.3298L107.236 52.1685C107.236 52.1685 107.257 52.1685 107.268 52.1685C107.405 52.1637 107.521 52.0681 107.537 51.9415C107.553 51.8053 107.447 51.6858 107.299 51.6763L107.294 51.6691ZM100.365 51.1721L90.7534 50.4815V42.601L100.362 42.7945V51.1721H100.365ZM68.0208 35.0191L74.0466 34.828V42.0992L68.0234 41.9773V35.0168L68.0208 35.0191ZM74.2261 34.8232L81.4349 34.5962V42.2497L74.2288 42.104V34.8232H74.2261ZM81.6144 34.589L90.566 34.3071V42.4337L81.6171 42.2545V34.5914L81.6144 34.589ZM81.4375 42.4146V49.8125L74.2314 49.2939V42.2689L81.4375 42.4146ZM81.6171 42.4194L90.5686 42.5986V50.4696L81.6197 49.8268V42.4194H81.6171ZM100.36 42.632L90.7482 42.4385V34.3023L100.357 33.9988V42.6297L100.36 42.632ZM100.355 26.4266V33.8364L90.7455 34.1398V27.0765L100.355 26.4266ZM90.5633 27.0884V34.147L81.6144 34.4289V27.693L90.5633 27.0884ZM81.4322 27.7049V34.4337L74.2261 34.6607V28.1924L81.4322 27.7049ZM74.0439 28.2043V34.6679L68.0208 34.8591V28.6129L74.0439 28.2067V28.2043ZM68.0234 42.147L74.0492 42.2689V49.2844L68.026 48.8519V42.147H68.0234Z" fill="#8FB0B5"/>
</g>
<path d="M104.696 42.0705L104.154 46.0203C104.136 46.1493 104.051 46.264 103.927 46.3262C103.803 46.3907 103.65 46.3954 103.521 46.3429L99.3828 44.6726C99.1531 44.5794 99.0527 44.3381 99.1531 44.1302C99.256 43.9223 99.5227 43.8315 99.7525 43.9223L102.805 45.1529L96.4887 36.7324L93.3148 43.6165C93.2514 43.7527 93.1114 43.8482 92.9477 43.865C92.784 43.8817 92.6256 43.8172 92.5279 43.6977L81.4639 29.8745L78.1948 35.1505C78.1209 35.27 77.9862 35.3489 77.8331 35.3584C77.6799 35.3704 77.5347 35.3106 77.4423 35.2007L70.7669 27.4588C70.6138 27.2796 70.6481 27.0215 70.8461 26.8829C70.928 26.8255 71.0283 26.7969 71.1234 26.7969C71.2581 26.7969 71.3927 26.8518 71.4799 26.9546L77.7354 34.2091L81.0176 28.9116C81.0942 28.7897 81.2315 28.7109 81.3873 28.7037C81.5431 28.6965 81.691 28.7586 81.7807 28.8733L92.7866 42.6248L95.9712 35.7168C96.0345 35.5782 96.1771 35.4827 96.3435 35.4659C96.5098 35.4492 96.6709 35.5185 96.7633 35.6428L103.439 44.5436L103.793 41.9629C103.822 41.7551 104.017 41.6045 104.241 41.6045C104.26 41.6045 104.278 41.6045 104.297 41.6069C104.545 41.6356 104.722 41.8387 104.69 42.0633L104.696 42.0705Z" fill="#F7F9F9"/>
<path d="M111.973 38.4408C111.931 38.3954 111.878 38.3596 111.809 38.3357C111.688 38.2927 111.556 38.3214 111.442 38.3668C111.358 38.4002 111.279 38.448 111.215 38.5077C111.075 38.6392 111.001 38.8423 111.078 39.0191C111.12 39.1147 111.189 39.2007 111.294 39.2485C111.323 39.2628 111.358 39.27 111.389 39.2795C111.45 39.3106 111.519 39.3273 111.588 39.3273C111.664 39.3369 111.743 39.3345 111.817 39.3106C111.999 39.2532 112.155 39.1099 112.192 38.9331C112.232 38.7443 112.153 38.5484 111.973 38.4456V38.4408Z" fill="#F7F9F9"/>
<path d="M111.973 41.7193C111.931 41.6739 111.878 41.638 111.809 41.6141C111.688 41.5711 111.556 41.5998 111.442 41.6452C111.358 41.6786 111.279 41.7264 111.215 41.7862C111.075 41.9176 111.001 42.1207 111.078 42.2975C111.12 42.3931 111.189 42.4791 111.294 42.5269C111.323 42.5413 111.358 42.5484 111.389 42.558C111.45 42.589 111.519 42.6058 111.588 42.6058C111.664 42.6153 111.743 42.6129 111.817 42.589C111.999 42.5317 112.155 42.3883 112.192 42.2115C112.232 42.0227 112.153 41.8268 111.973 41.724V41.7193Z" fill="#F7F9F9"/>
<path d="M111.973 44.9977C111.931 44.9523 111.878 44.9164 111.809 44.8925C111.688 44.8495 111.556 44.8782 111.442 44.9236C111.358 44.957 111.279 45.0048 111.215 45.0646C111.075 45.196 111.001 45.3991 111.078 45.5759C111.12 45.6715 111.189 45.7575 111.294 45.8053C111.323 45.8196 111.358 45.8268 111.389 45.8364C111.45 45.8674 111.519 45.8841 111.588 45.8841C111.664 45.8937 111.743 45.8913 111.817 45.8674C111.999 45.8101 112.155 45.6667 112.192 45.4899C112.232 45.3011 112.153 45.1052 111.973 45.0024V44.9977Z" fill="#F7F9F9"/>
<path d="M111.973 48.276C111.931 48.2306 111.878 48.1947 111.809 48.1708C111.688 48.1278 111.556 48.1565 111.442 48.2019C111.358 48.2354 111.279 48.2831 111.215 48.3429C111.075 48.4743 111.001 48.6774 111.078 48.8542C111.12 48.9498 111.189 49.0358 111.294 49.0836C111.323 49.0979 111.358 49.1051 111.389 49.1147C111.45 49.1457 111.519 49.1625 111.588 49.1625C111.664 49.172 111.743 49.1696 111.817 49.1457C111.999 49.0884 112.155 48.945 112.192 48.7682C112.232 48.5794 112.153 48.3835 111.973 48.2807V48.276Z" fill="#F7F9F9"/>
<path d="M111.973 51.5544C111.931 51.509 111.878 51.4731 111.809 51.4492C111.688 51.4062 111.556 51.4349 111.442 51.4803C111.358 51.5137 111.279 51.5615 111.215 51.6213C111.075 51.7527 111.001 51.9558 111.078 52.1326C111.12 52.2282 111.189 52.3142 111.294 52.362C111.323 52.3763 111.358 52.3835 111.389 52.3931C111.45 52.4241 111.519 52.4409 111.588 52.4409C111.664 52.4504 111.743 52.448 111.817 52.4241C111.999 52.3668 112.155 52.2234 112.192 52.0466C112.232 51.8578 112.153 51.6619 111.973 51.5567V51.5544Z" fill="#F7F9F9"/>
</g>
<g opacity="0.5">
<g style="mix-blend-mode:multiply">
<path d="M34 39.6536V66.8645L0 65.0122V34L34 39.6536Z" fill="#C3DDDC"/>
</g>
<path d="M17.6786 42.5842C22.9278 43.2966 27.1814 47.7629 27.1814 52.5563C27.1814 52.8307 27.166 53.0999 27.139 53.3655L17.6786 52.0796V42.5825V42.5842Z" fill="#F7F9F9"/>
<path d="M17.679 52.0796V59.9462C12.7321 59.2742 8.66916 55.2671 8.21857 50.7938L17.679 52.0796Z" fill="#F7F9F9"/>
<g style="mix-blend-mode:multiply">
<path d="M28.1905 49.9195C28.5178 50.215 28.8433 50.5088 29.1706 50.8025C28.8741 49.2792 28.2232 47.7752 27.2701 46.4119C26.2919 45.0152 24.994 43.7909 23.5094 42.8445C22.7141 42.3362 21.8669 41.914 20.9907 41.5798C21.139 41.7363 21.2738 41.9017 21.3932 42.0776C21.4779 42.2025 21.2757 42.2816 21.191 42.1585C20.9985 41.8735 20.7578 41.6079 20.4843 41.3828C20.4015 41.3159 20.4131 41.2121 20.5113 41.191C20.8945 41.1154 21.2911 41.0714 21.6917 41.0591C21.7533 41.0573 21.8168 41.0925 21.8361 41.1523C21.8515 41.2068 21.8168 41.2702 21.7552 41.2719C21.4818 41.2807 21.2141 41.3036 20.9484 41.3423C22.6025 41.958 24.1526 42.8955 25.4658 44.0724C26.8041 45.272 27.8747 46.7215 28.5833 48.2712C28.9318 49.0329 29.1937 49.8157 29.3613 50.6055C29.4537 50.4085 29.5634 50.2185 29.6905 50.0426C29.7676 49.9353 29.9697 50.0708 29.8927 50.1781C29.6886 50.463 29.5288 50.7726 29.419 51.1068C29.394 51.186 29.29 51.1878 29.2245 51.1279C28.8259 50.7673 28.4254 50.4067 28.0268 50.0479C27.9113 49.9441 28.0769 49.8157 28.1924 49.9195H28.1905ZM20.7789 41.3704C20.7789 41.3704 20.7828 41.374 20.7866 41.3757C20.7866 41.3722 20.7886 41.3704 20.7905 41.3687C20.7866 41.3687 20.7828 41.3687 20.7789 41.3704Z" fill="#8FB0B5"/>
<path d="M28.1018 44.5895C27.8611 44.2113 27.5992 43.8437 27.3162 43.4884C27.2757 43.4391 27.268 43.374 27.3162 43.3371C27.3566 43.3054 27.4413 43.3089 27.4818 43.3599C27.7764 43.7311 28.0517 44.1163 28.3021 44.5104C28.3829 44.637 28.1808 44.7162 28.0999 44.5913L28.1018 44.5895Z" fill="#8FB0B5"/>
<path d="M28.5738 43.9334C28.5738 43.9334 28.5738 43.9351 28.5738 43.9369C28.57 43.9439 28.5661 43.9545 28.5623 43.9615C28.5623 43.9615 28.5623 43.9615 28.5623 43.9633C28.5565 43.9703 28.5488 43.9774 28.543 43.9844C28.543 43.9844 28.543 43.9844 28.5411 43.9862C28.5411 43.9862 28.5411 43.9862 28.5392 43.9879C28.5315 43.9932 28.5218 43.9985 28.5141 44.002C28.5122 44.002 28.5103 44.002 28.5064 44.0038C28.4968 44.0073 28.4852 44.009 28.4756 44.0108C28.4756 44.0108 28.4737 44.0108 28.4718 44.0108C28.4409 44.0125 28.4255 44.0108 28.3967 44.0002C28.3947 44.0002 28.3928 44.0002 28.389 43.9985C28.3813 43.995 28.3639 43.9879 28.3543 43.9791C28.3447 43.9721 28.337 43.9651 28.3293 43.958C28.3293 43.958 28.3273 43.9563 28.3254 43.9545C28.3158 43.9457 28.3081 43.9334 28.3023 43.9246C28.2965 43.9158 28.2927 43.9052 28.2869 43.8964C28.2831 43.8859 28.2773 43.8753 28.2753 43.8648C28.2753 43.8577 28.2715 43.8507 28.2715 43.8437C28.2715 43.8349 28.2696 43.8243 28.2676 43.8155C28.2676 43.8015 28.2696 43.7874 28.2773 43.7751C28.2792 43.7663 28.285 43.7592 28.2927 43.754C28.3004 43.7434 28.3119 43.7364 28.3254 43.7311C28.335 43.7293 28.3447 43.7258 28.3524 43.7241C28.362 43.7241 28.3736 43.7241 28.3832 43.7241C28.3986 43.7241 28.414 43.7311 28.4275 43.7399C28.4429 43.7469 28.4544 43.7557 28.4641 43.7663C28.466 43.768 28.4679 43.7698 28.4698 43.7733C28.4775 43.7733 28.4872 43.7733 28.4949 43.7768C28.5045 43.7821 28.5141 43.7874 28.5218 43.7909C28.5392 43.8032 28.5526 43.8173 28.5642 43.8349C28.568 43.8419 28.5738 43.856 28.5757 43.863C28.5757 43.863 28.5757 43.8648 28.5757 43.8665C28.5757 43.8736 28.5796 43.8894 28.5796 43.8964C28.5796 43.8964 28.5796 43.8982 28.5796 43.9C28.5796 43.9052 28.5777 43.9228 28.5757 43.9281L28.5738 43.9334Z" fill="#8FB0B5"/>
<path d="M27.3105 44.0002C27.3317 43.9985 27.3509 44.0002 27.3721 44.009C27.3817 44.0143 27.3914 44.0196 27.3991 44.0231C27.4164 44.0354 27.4299 44.0495 27.4414 44.0671C27.4645 44.1023 27.4877 44.1357 27.5088 44.1709C27.5165 44.1849 27.5223 44.1973 27.5223 44.2131C27.5262 44.2272 27.5242 44.2412 27.5204 44.2553C27.5165 44.2641 27.5127 44.2711 27.5088 44.2799C27.5011 44.2905 27.4915 44.2993 27.478 44.3063C27.4703 44.3116 27.4626 44.3151 27.453 44.3169C27.4395 44.3222 27.4241 44.3222 27.4087 44.3204C27.3991 44.3169 27.3875 44.3151 27.3779 44.3116C27.3586 44.3046 27.3413 44.2923 27.3259 44.2764C27.3009 44.2448 27.2739 44.2131 27.2489 44.1797C27.2373 44.1691 27.2296 44.1568 27.2238 44.1427C27.2161 44.1287 27.2123 44.1146 27.2142 44.1005C27.2142 44.0864 27.2161 44.0724 27.2238 44.0601C27.2277 44.0477 27.2373 44.0372 27.2489 44.0284C27.2527 44.0266 27.2566 44.0231 27.2604 44.0214C27.2662 44.0161 27.272 44.0108 27.2816 44.0073C27.2912 44.0055 27.3009 44.002 27.3086 44.0002H27.3105Z" fill="#8FB0B5"/>
<path d="M10.1383 50.8694C9.90721 50.6636 10.2384 50.4085 10.4676 50.6126C11.8251 51.8228 13.2269 53.1069 13.9721 54.6883C14.1608 54.3066 14.3977 53.9513 14.6884 53.6347C14.7635 53.552 14.8906 53.5238 15.0081 53.6012C15.1082 53.6681 15.1679 53.8211 15.0909 53.9038C14.7 54.3312 14.4015 54.822 14.207 55.3673C14.1377 55.5643 13.8296 55.5151 13.7564 55.3058C13.1364 53.5414 11.5825 52.157 10.1364 50.8676L10.1383 50.8694Z" fill="#8FB0B5"/>
<path d="M6.96499 54.2802C6.96499 54.2802 6.96884 54.2749 6.97076 54.2732C7.0112 54.1817 7.05164 54.092 7.09785 54.004C7.18258 53.844 7.28078 53.6839 7.30004 53.4957C7.31159 53.3866 7.44638 53.3778 7.51763 53.471C7.73137 53.7543 7.98362 54.0181 8.2609 54.2521C8.31097 54.2943 8.30134 54.3717 8.2609 54.4033C8.21276 54.442 8.14537 54.4227 8.0953 54.3805C7.922 54.2327 7.76218 54.0744 7.61198 53.9091C7.95859 55.8299 9.13704 57.6928 10.8566 59.0033C11.3052 59.3445 11.7866 59.6471 12.2892 59.9039C12.2083 59.8054 12.1217 59.7104 12.037 59.6154C11.8675 59.4272 11.6981 59.2372 11.5286 59.049C11.4266 58.9347 11.5902 58.8063 11.6942 58.9206C11.8714 59.1176 12.0485 59.3164 12.2257 59.5134C12.3855 59.6911 12.5453 59.8687 12.6743 60.0658C12.7148 60.1273 12.6743 60.2065 12.605 60.2135C12.3335 60.2364 12.0793 60.3015 11.8425 60.4053C11.6345 60.4985 11.4131 60.6111 11.1531 60.5477C11.0896 60.5319 11.0376 60.4879 11.0357 60.4246C11.0357 60.3718 11.0896 60.3191 11.1531 60.3331C11.3996 60.3929 11.5999 60.254 11.7982 60.1731C11.9118 60.1273 12.0293 60.0904 12.1506 60.0605C10.1653 59.0209 8.5844 57.3304 7.80454 55.3814C7.61776 54.9135 7.48297 54.4368 7.39439 53.9583C7.37514 53.9988 7.35395 54.0375 7.33277 54.0779C7.29041 54.1571 7.24612 54.238 7.21146 54.3224C7.19991 54.3506 7.18835 54.3822 7.17102 54.4086C7.17102 54.4121 7.17102 54.4174 7.17102 54.4086C7.17102 54.4086 7.17102 54.4104 7.1691 54.4121C7.1691 54.4192 7.1691 54.4315 7.1691 54.4333C7.1614 54.4895 7.12096 54.5335 7.05164 54.5247C6.99387 54.5177 6.9284 54.4596 6.93418 54.4016C6.93803 54.3682 6.93995 54.3312 6.95343 54.2996C6.95728 54.2925 6.96114 54.2872 6.96499 54.2802ZM7.1691 54.4069C7.1691 54.4069 7.1691 54.4069 7.1691 54.4086C7.1691 54.4086 7.1691 54.4086 7.1691 54.4069Z" fill="#8FB0B5"/>
<path d="M16.9758 39.5129V51.2071L5.12195 49.5958C5.08729 49.2598 5.06803 48.9239 5.06803 48.5844C5.06803 42.681 10.4 38.6193 16.9758 39.5129Z" fill="#8FB0B5"/>
<path d="M17.6729 61.3639V52.0796L28.6506 53.5713C28.1288 58.7077 23.415 62.1432 17.6729 61.3639Z" fill="#8FB0B5"/>
</g>
<path d="M32.2401 62.0095C30.5725 61.8248 28.8973 61.7052 27.2162 61.6524C27.0275 61.6472 27.0141 61.3763 27.2047 61.3833C28.9108 61.4378 30.613 61.5592 32.3056 61.7474C32.4943 61.7685 32.4249 62.0306 32.2382 62.0095H32.2401Z" fill="#F7F9F9"/>
<path d="M25.5409 63.0192C25.3542 63.0069 25.3388 62.7378 25.5294 62.7501C27.8074 62.9014 30.0872 63.0527 32.3652 63.2039C32.552 63.2163 32.5674 63.4872 32.3768 63.4731C30.0988 63.3218 27.8189 63.1705 25.5409 63.0192Z" fill="#F7F9F9"/>
<path d="M24.1949 62.9823L23.2726 62.9084C23.1955 62.9031 23.1185 62.8592 23.1185 62.7782C23.1185 62.7132 23.1782 62.6322 23.261 62.6375C23.5691 62.6621 23.8753 62.6868 24.1834 62.7114C24.2604 62.7167 24.3374 62.7606 24.3374 62.8416C24.3374 62.9067 24.2777 62.9876 24.1949 62.9823Z" fill="#F7F9F9"/>
<path d="M30.3916 64.525C31.0425 64.5602 31.6914 64.6077 32.3384 64.6692C32.4173 64.6763 32.4655 64.766 32.4481 64.8311C32.4289 64.9102 32.3499 64.9401 32.271 64.9313C31.649 64.8715 31.0271 64.8258 30.4032 64.7924C30.3242 64.7889 30.253 64.7414 30.2491 64.6622C30.2453 64.5954 30.3107 64.518 30.3916 64.5215V64.525Z" fill="#F7F9F9"/>
<path d="M17.3879 64.0342C19.248 64.0852 21.1062 64.1732 22.9625 64.2629C24.5915 64.342 26.2205 64.4282 27.8477 64.5197C28.1712 64.5373 28.4966 64.5566 28.8201 64.5742C29.0088 64.5848 29.0223 64.8557 28.8316 64.8434C27.9035 64.7906 26.9754 64.7396 26.0472 64.6903C24.1582 64.5901 22.2712 64.4951 20.3822 64.4124C19.3886 64.3702 18.3931 64.3297 17.3975 64.3033C17.2088 64.2981 17.1953 64.0289 17.386 64.0342H17.3879Z" fill="#F7F9F9"/>
<path d="M8.28391 37.3563C6.08682 37.0151 3.89166 36.6756 1.69457 36.3343C1.50779 36.3044 1.57904 36.0423 1.76582 36.0722C3.96291 36.4135 6.15807 36.753 8.35516 37.0942C8.54194 37.1241 8.47069 37.3862 8.28391 37.3563Z" fill="#F7F9F9"/>
<path d="M5.60911 38.5736C4.31127 38.3607 3.01342 38.1496 1.71558 37.9368C1.5288 37.9069 1.60005 37.6448 1.78683 37.6747C3.08467 37.8875 4.38251 38.0986 5.68035 38.3115C5.86713 38.3414 5.79589 38.6035 5.60911 38.5736Z" fill="#F7F9F9"/>
<path d="M4.70066 39.8453C3.72824 39.6589 2.75582 39.4707 1.7834 39.2842C1.59662 39.249 1.66787 38.9869 1.85465 39.0221C2.82707 39.2086 3.79949 39.3968 4.77191 39.5832C4.95869 39.6184 4.88744 39.8805 4.70066 39.8453Z" fill="#F7F9F9"/>
<path d="M6.12916 40.2007C5.99437 40.1673 5.85958 40.1339 5.72286 40.1004C5.68628 40.0917 5.65354 40.0705 5.63236 40.0406C5.6131 40.0125 5.60348 39.9703 5.61503 39.9369C5.63621 39.8683 5.71324 39.819 5.79411 39.8383C5.9289 39.8718 6.06369 39.9052 6.20041 39.9386C6.23699 39.9474 6.26973 39.9685 6.29091 39.9984C6.31017 40.0266 6.31979 40.0688 6.30824 40.1022C6.28706 40.1708 6.21003 40.2201 6.12916 40.2007Z" fill="#F7F9F9"/>
<path d="M5.12009 41.3476C4.00518 41.1295 2.8922 40.9113 1.77728 40.6932C1.5905 40.6563 1.66175 40.3942 1.84853 40.4311C2.96344 40.6492 4.07643 40.8674 5.19134 41.0855C5.37812 41.1224 5.30688 41.3845 5.12009 41.3476Z" fill="#F7F9F9"/>
</g>
<g opacity="0.5">
<rect x="47.4106" y="86.6342" width="25.7073" height="12.8536" fill="#E9E9E9"/>
<rect x="41.7026" y="97.2195" width="37.8048" height="3.78048" fill="white"/>
<rect x="26.0784" y="40.5" width="68.2891" height="48.4146" rx="3.5" fill="#2B2B41" stroke="white" stroke-width="3"/>
<path fill-rule="evenodd" clip-rule="evenodd" d="M70.5659 56.4769H47.8477V64.2125L42.8442 64.2125L59.1264 73.9213L75.4086 64.2125L70.5659 64.2125V56.4769Z" fill="#FF4242"/>
</g>
<mask id="path-41-outside-1_54_3885" maskUnits="userSpaceOnUse" x="17" y="44.0663" width="84.6935" height="37.9337" fill="black">
<rect fill="white" x="17" y="44.0663" width="84.6935" height="37.9337"/>
<path d="M19.8159 60.5269L36.1114 57.6536V69.513L32.4184 70.1641V61.6798L19.8159 63.9019V60.5269ZM18.3618 75.9474L24.8246 74.8078V68.1047L28.5176 67.4535V74.1566L37.6117 72.5531V75.9281L18.3618 79.3224V75.9474ZM51.5991 54.618V65.1414L40.5892 67.0828V56.5593L51.5991 54.618ZM41.5356 68.6268L45.2286 67.9757V71.585L58.0849 69.3181V72.6228L41.5356 75.5409V68.6268ZM47.906 62.5114V58.5504L44.2823 59.1894V63.1503L47.906 62.5114ZM54.0919 53.8972L57.7849 53.246V66.7929L54.0919 67.4441V53.8972ZM60.8778 54.5757L63.9015 54.0425V51.9097L67.4791 51.2789V53.4117L70.4566 52.8867V56.121L60.8778 57.81V54.5757ZM61.4779 63.4698C61.4779 61.9855 61.8549 60.7549 62.6089 59.7782C63.3629 58.8015 64.3554 58.2047 65.5864 57.9876L65.9326 57.9265C67.1636 57.7095 68.1561 57.9564 68.9101 58.6672C69.6641 59.378 70.0411 60.4755 70.0411 61.9599V65.5693C70.0411 67.0537 69.6641 68.2842 68.9101 69.2609C68.1561 70.2376 67.1636 70.8345 65.9326 71.0515L65.5864 71.1126C64.3554 71.3297 63.3629 71.0828 62.6089 70.372C61.8549 69.6612 61.4779 68.5636 61.4779 67.0792V63.4698ZM64.7786 66.7082C64.7786 67.1457 64.8632 67.4589 65.0325 67.6478C65.2171 67.834 65.4479 67.9026 65.7249 67.8538L65.7941 67.8416C66.0711 67.7927 66.2942 67.644 66.4635 67.3954C66.6482 67.1441 66.7405 66.7997 66.7405 66.3622V62.2841C66.7405 61.8466 66.6482 61.5348 66.4635 61.3486C66.2942 61.1597 66.0711 61.0896 65.7941 61.1385L65.7249 61.1507C65.094 61.2619 64.7786 61.755 64.7786 62.63V66.7082ZM71.2644 50.963L74.5651 50.381V57.4357L75.8807 57.2037V50.0552L79.2275 49.4651V69.176L75.8807 69.7662V60.4849L74.5651 60.7169V69.7638L71.2644 70.3458V50.963ZM82.9667 49.0636L93.6073 47.1874V56.2108L89.9142 56.862V51.0026L82.9667 52.2277V49.0636ZM83.9131 59.0452L100.255 56.1637V61.9996L87.7446 64.2055V64.9555L100.601 62.6886V65.3605L84.0516 68.2786V62.4426L96.5617 60.2368V59.4868L83.9131 61.717V59.0452ZM94.2074 52.2613L96.6079 51.838V50.502L94.2074 50.9253V48.3003L96.6079 47.877V46.4005L100.255 45.7574V55.2965L96.6079 55.9395V54.463L94.2074 54.8863V52.2613Z"/>
</mask>
<path d="M19.8159 60.5269L36.1114 57.6536V69.513L32.4184 70.1641V61.6798L19.8159 63.9019V60.5269ZM18.3618 75.9474L24.8246 74.8078V68.1047L28.5176 67.4535V74.1566L37.6117 72.5531V75.9281L18.3618 79.3224V75.9474ZM51.5991 54.618V65.1414L40.5892 67.0828V56.5593L51.5991 54.618ZM41.5356 68.6268L45.2286 67.9757V71.585L58.0849 69.3181V72.6228L41.5356 75.5409V68.6268ZM47.906 62.5114V58.5504L44.2823 59.1894V63.1503L47.906 62.5114ZM54.0919 53.8972L57.7849 53.246V66.7929L54.0919 67.4441V53.8972ZM60.8778 54.5757L63.9015 54.0425V51.9097L67.4791 51.2789V53.4117L70.4566 52.8867V56.121L60.8778 57.81V54.5757ZM61.4779 63.4698C61.4779 61.9855 61.8549 60.7549 62.6089 59.7782C63.3629 58.8015 64.3554 58.2047 65.5864 57.9876L65.9326 57.9265C67.1636 57.7095 68.1561 57.9564 68.9101 58.6672C69.6641 59.378 70.0411 60.4755 70.0411 61.9599V65.5693C70.0411 67.0537 69.6641 68.2842 68.9101 69.2609C68.1561 70.2376 67.1636 70.8345 65.9326 71.0515L65.5864 71.1126C64.3554 71.3297 63.3629 71.0828 62.6089 70.372C61.8549 69.6612 61.4779 68.5636 61.4779 67.0792V63.4698ZM64.7786 66.7082C64.7786 67.1457 64.8632 67.4589 65.0325 67.6478C65.2171 67.834 65.4479 67.9026 65.7249 67.8538L65.7941 67.8416C66.0711 67.7927 66.2942 67.644 66.4635 67.3954C66.6482 67.1441 66.7405 66.7997 66.7405 66.3622V62.2841C66.7405 61.8466 66.6482 61.5348 66.4635 61.3486C66.2942 61.1597 66.0711 61.0896 65.7941 61.1385L65.7249 61.1507C65.094 61.2619 64.7786 61.755 64.7786 62.63V66.7082ZM71.2644 50.963L74.5651 50.381V57.4357L75.8807 57.2037V50.0552L79.2275 49.4651V69.176L75.8807 69.7662V60.4849L74.5651 60.7169V69.7638L71.2644 70.3458V50.963ZM82.9667 49.0636L93.6073 47.1874V56.2108L89.9142 56.862V51.0026L82.9667 52.2277V49.0636ZM83.9131 59.0452L100.255 56.1637V61.9996L87.7446 64.2055V64.9555L100.601 62.6886V65.3605L84.0516 68.2786V62.4426L96.5617 60.2368V59.4868L83.9131 61.717V59.0452ZM94.2074 52.2613L96.6079 51.838V50.502L94.2074 50.9253V48.3003L96.6079 47.877V46.4005L100.255 45.7574V55.2965L96.6079 55.9395V54.463L94.2074 54.8863V52.2613Z" fill="#FF4242"/>
<path d="M19.8159 60.5269V59.5269L18.8311 59.7006V60.7006L19.8159 60.5269ZM36.1114 57.6536L37.0962 57.4799V56.4799L36.1114 56.6536V57.6536ZM36.1114 69.513V70.513L37.0962 70.3393V69.3393L36.1114 69.513ZM32.4184 70.1641L31.4336 70.3378V71.3378L32.4184 71.1641V70.1641ZM32.4184 61.6798L33.4032 61.5061V60.5061L32.4184 60.6798V61.6798ZM19.8159 63.9019L18.8311 64.0756V65.0756L19.8159 64.9019V63.9019ZM18.3618 75.9474V74.9474L17.377 75.121V76.121L18.3618 75.9474ZM24.8246 74.8078V75.8078L25.8094 75.6342V74.6342L24.8246 74.8078ZM24.8246 68.1047V67.1047L23.8398 67.2783V68.2783L24.8246 68.1047ZM28.5176 67.4535L29.5024 67.2799V66.2799L28.5176 66.4535V67.4535ZM28.5176 74.1566L27.5328 74.3303V75.3303L28.5176 75.1566V74.1566ZM37.6117 72.5531L38.5965 72.3794V71.3794L37.6117 71.5531V72.5531ZM37.6117 75.9281V76.9281L38.5965 76.7544V75.7544L37.6117 75.9281ZM18.3618 79.3224L17.377 79.496V80.496L18.3618 80.3224V79.3224ZM19.8159 61.5269L36.1114 58.6536V56.6536L19.8159 59.5269V61.5269ZM35.1266 57.8272V69.6866L37.0962 69.3393V57.4799L35.1266 57.8272ZM36.1114 68.513L32.4184 69.1641V71.1641L36.1114 70.513V68.513ZM33.4032 69.9905V61.5061L31.4336 61.8534V70.3378L33.4032 69.9905ZM32.4184 60.6798L19.8159 62.9019V64.9019L32.4184 62.6798V60.6798ZM20.8007 63.7283V60.3533L18.8311 60.7006V64.0756L20.8007 63.7283ZM18.3618 76.9474L24.8246 75.8078V73.8078L18.3618 74.9474V76.9474ZM25.8094 74.6342V67.931L23.8398 68.2783V74.9815L25.8094 74.6342ZM24.8246 69.1047L28.5176 68.4535V66.4535L24.8246 67.1047V69.1047ZM27.5328 67.6272V74.3303L29.5024 73.983V67.2799L27.5328 67.6272ZM28.5176 75.1566L37.6117 73.5531V71.5531L28.5176 73.1566V75.1566ZM36.6269 72.7267V76.1017L38.5965 75.7544V72.3794L36.6269 72.7267ZM37.6117 74.9281L18.3618 78.3224V80.3224L37.6117 76.9281V74.9281ZM19.3466 79.1487V75.7737L17.377 76.121V79.496L19.3466 79.1487ZM51.5991 54.618L52.5839 54.4444V53.4444L51.5991 53.618V54.618ZM51.5991 65.1414V66.1414L52.5839 65.9678V64.9678L51.5991 65.1414ZM40.5892 67.0828L39.6044 67.2564V68.2564L40.5892 68.0828V67.0828ZM40.5892 56.5593V55.5593L39.6044 55.733V56.733L40.5892 56.5593ZM41.5356 68.6268V67.6268L40.5508 67.8005V68.8005L41.5356 68.6268ZM45.2286 67.9757L46.2134 67.802V66.802L45.2286 66.9757V67.9757ZM45.2286 71.585L44.2438 71.7587V72.7587L45.2286 72.585V71.585ZM58.0849 69.3181L59.0698 69.1445V68.1445L58.0849 68.3181V69.3181ZM58.0849 72.6228V73.6228L59.0698 73.4492V72.4492L58.0849 72.6228ZM41.5356 75.5409L40.5508 75.7146V76.7146L41.5356 76.5409V75.5409ZM47.906 62.5114V63.5114L48.8908 63.3377V62.3377L47.906 62.5114ZM47.906 58.5504L48.8908 58.3768V57.3768L47.906 57.5504V58.5504ZM44.2823 59.1894V58.1894L43.2974 58.3631V59.3631L44.2823 59.1894ZM44.2823 63.1503L43.2974 63.324V64.324L44.2823 64.1503V63.1503ZM54.0919 53.8972V52.8972L53.1071 53.0709V54.0709L54.0919 53.8972ZM57.7849 53.246L58.7697 53.0724V52.0724L57.7849 52.246V53.246ZM57.7849 66.7929V67.7929L58.7697 67.6192V66.6192L57.7849 66.7929ZM54.0919 67.4441L53.1071 67.6177V68.6177L54.0919 68.4441V67.4441ZM50.6143 54.7916V65.3151L52.5839 64.9678V54.4444L50.6143 54.7916ZM51.5991 64.1414L40.5892 66.0828V68.0828L51.5991 66.1414V64.1414ZM41.574 66.9091V56.3857L39.6044 56.733V67.2564L41.574 66.9091ZM40.5892 57.5593L51.5991 55.618V53.618L40.5892 55.5593V57.5593ZM41.5356 69.6268L45.2286 68.9757V66.9757L41.5356 67.6268V69.6268ZM44.2438 68.1493V71.7587L46.2134 71.4114V67.802L44.2438 68.1493ZM45.2286 72.585L58.0849 70.3181V68.3181L45.2286 70.585V72.585ZM57.1001 69.4918V72.7965L59.0698 72.4492V69.1445L57.1001 69.4918ZM58.0849 71.6228L41.5356 74.5409V76.5409L58.0849 73.6228V71.6228ZM42.5204 75.3673V68.4532L40.5508 68.8005V75.7146L42.5204 75.3673ZM48.8908 62.3377V58.3768L46.9212 58.7241V62.685L48.8908 62.3377ZM47.906 57.5504L44.2823 58.1894V60.1894L47.906 59.5504V57.5504ZM43.2974 59.3631V63.324L45.2671 62.9767V59.0158L43.2974 59.3631ZM44.2823 64.1503L47.906 63.5114V61.5114L44.2823 62.1503V64.1503ZM54.0919 54.8972L57.7849 54.246V52.246L54.0919 52.8972V54.8972ZM56.8001 53.4197V66.9665L58.7697 66.6192V53.0724L56.8001 53.4197ZM57.7849 65.7929L54.0919 66.4441V68.4441L57.7849 67.7929V65.7929ZM55.0767 67.2704V53.7236L53.1071 54.0709V67.6177L55.0767 67.2704ZM60.8778 54.5757V53.5757L59.893 53.7493V54.7493L60.8778 54.5757ZM63.9015 54.0425V55.0425L64.8863 54.8689V53.8689L63.9015 54.0425ZM63.9015 51.9097V50.9097L62.9167 51.0833V52.0833L63.9015 51.9097ZM67.4791 51.2789L68.4639 51.1052V50.1052L67.4791 50.2789V51.2789ZM67.4791 53.4117L66.4943 53.5853V54.5853L67.4791 54.4117V53.4117ZM70.4566 52.8867L71.4414 52.713V51.713L70.4566 51.8867V52.8867ZM70.4566 56.121V57.121L71.4414 56.9474V55.9474L70.4566 56.121ZM60.8778 57.81L59.893 57.9837V58.9837L60.8778 58.81V57.81ZM65.0325 67.6478L64.2581 68.4021L64.2711 68.4166L64.2847 68.4304L65.0325 67.6478ZM66.4635 67.3954L65.7158 66.8765L65.7021 66.8951L65.6891 66.9142L66.4635 67.3954ZM66.4635 61.3486L65.6891 62.1029L65.7021 62.1174L65.7158 62.1312L66.4635 61.3486ZM71.2644 50.963V49.963L70.2796 50.1366V51.1366L71.2644 50.963ZM74.5651 50.381L75.5499 50.2073V49.2073L74.5651 49.381V50.381ZM74.5651 57.4357L73.5803 57.6093V58.6093L74.5651 58.4357V57.4357ZM75.8807 57.2037V58.2037L76.8655 58.03V57.03L75.8807 57.2037ZM75.8807 50.0552V49.0552L74.8959 49.2289V50.2289L75.8807 50.0552ZM79.2275 49.4651L80.2123 49.2915V48.2915L79.2275 48.4651V49.4651ZM79.2275 69.176V70.176L80.2123 70.0024V69.0024L79.2275 69.176ZM75.8807 69.7662L74.8959 69.9398V70.9398L75.8807 70.7662V69.7662ZM75.8807 60.4849L76.8655 60.3113V59.3113L75.8807 59.4849V60.4849ZM74.5651 60.7169V59.7169L73.5803 59.8906V60.8906L74.5651 60.7169ZM74.5651 69.7638V70.7638L75.5499 70.5901V69.5901L74.5651 69.7638ZM71.2644 70.3458L70.2796 70.5194V71.5194L71.2644 71.3458V70.3458ZM60.8778 55.5757L63.9015 55.0425V53.0425L60.8778 53.5757V55.5757ZM64.8863 53.8689V51.736L62.9167 52.0833V54.2162L64.8863 53.8689ZM63.9015 52.9097L67.4791 52.2789V50.2789L63.9015 50.9097V52.9097ZM66.4943 51.4525V53.5853L68.4639 53.238V51.1052L66.4943 51.4525ZM67.4791 54.4117L70.4566 53.8867V51.8867L67.4791 52.4117V54.4117ZM69.4718 53.0603V56.2947L71.4414 55.9474V52.713L69.4718 53.0603ZM70.4566 55.121L60.8778 56.81V58.81L70.4566 57.121V55.121ZM61.8626 57.6364V54.402L59.893 54.7493V57.9837L61.8626 57.6364ZM62.4627 63.2962C62.4627 61.983 62.7935 61.0273 63.3382 60.3216L61.8796 59.2348C60.9164 60.4826 60.4931 61.9879 60.4931 63.6435L62.4627 63.2962ZM63.3382 60.3216C63.8862 59.6118 64.6031 59.161 65.5864 58.9876V56.9876C64.1078 57.2483 62.8396 57.9913 61.8796 59.2348L63.3382 60.3216ZM65.5864 58.9876L65.9326 58.9265V56.9265L65.5864 56.9876V58.9876ZM65.9326 58.9265C66.916 58.7531 67.6328 58.9511 68.1808 59.4677L69.6394 57.8666C68.6795 56.9616 67.4113 56.6658 65.9326 56.9265V58.9265ZM68.1808 59.4677C68.7256 59.9813 69.0563 60.8204 69.0563 62.1336L71.0259 61.7863C71.0259 60.1307 70.6027 58.7746 69.6394 57.8666L68.1808 59.4677ZM69.0563 62.1336V65.7429L71.0259 65.3956V61.7863L69.0563 62.1336ZM69.0563 65.7429C69.0563 67.0561 68.7256 68.0118 68.1808 68.7175L69.6394 69.8043C70.6027 68.5566 71.0259 67.0512 71.0259 65.3956L69.0563 65.7429ZM68.1808 68.7175C67.6328 69.4274 66.916 69.8781 65.9326 70.0515V72.0515C67.4113 71.7908 68.6795 71.0478 69.6394 69.8043L68.1808 68.7175ZM65.9326 70.0515L65.5864 70.1126V72.1126L65.9326 72.0515V70.0515ZM65.5864 70.1126C64.6031 70.286 63.8862 70.088 63.3382 69.5714L61.8796 71.1726C62.8396 72.0776 64.1078 72.3733 65.5864 72.1126V70.1126ZM63.3382 69.5714C62.7935 69.0578 62.4627 68.2187 62.4627 66.9056L60.4931 67.2529C60.4931 68.9085 60.9164 70.2645 61.8796 71.1726L63.3382 69.5714ZM62.4627 66.9056V63.2962L60.4931 63.6435V67.2529L62.4627 66.9056ZM63.7938 66.8818C63.7938 67.423 63.8939 67.9957 64.2581 68.4021L65.8068 66.8934C65.8218 66.9101 65.8101 66.907 65.7947 66.8498C65.7789 66.7911 65.7634 66.6911 65.7634 66.5345L63.7938 66.8818ZM64.2847 68.4304C64.6512 68.8 65.1525 68.9547 65.7249 68.8538V66.8538C65.7198 66.8547 65.7221 66.8538 65.7302 66.8541C65.7385 66.8544 65.7492 66.8559 65.7605 66.8593C65.7718 66.8627 65.7799 66.8668 65.7842 66.8694C65.7883 66.8719 65.7867 66.8717 65.7802 66.8651L64.2847 68.4304ZM65.7249 68.8538L65.7941 68.8416V66.8416L65.7249 66.8538V68.8538ZM65.7941 68.8416C66.3694 68.7401 66.8795 68.403 67.2379 67.8767L65.6891 66.9142C65.6873 66.9169 65.6906 66.9115 65.7004 66.9016C65.7105 66.8914 65.7243 66.8796 65.7411 66.8684C65.7781 66.8437 65.802 66.8402 65.7941 66.8416V68.8416ZM67.2112 67.9144C67.611 67.3704 67.7253 66.7457 67.7253 66.1886L65.7557 66.5359C65.7557 66.6864 65.7394 66.7845 65.7243 66.8409C65.71 66.8943 65.7004 66.8975 65.7158 66.8765L67.2112 67.9144ZM67.7253 66.1886V62.1104L65.7557 62.4577V66.5359L67.7253 66.1886ZM67.7253 62.1104C67.7253 61.5533 67.611 60.969 67.2112 60.5659L65.7158 62.1312C65.7004 62.1156 65.71 62.1155 65.7243 62.1638C65.7394 62.2148 65.7557 62.3072 65.7557 62.4577L67.7253 62.1104ZM67.2379 60.5942C66.8795 60.1943 66.3694 60.037 65.7941 60.1385V62.1385C65.802 62.1371 65.7781 62.142 65.7411 62.1304C65.7243 62.1251 65.7105 62.1181 65.7004 62.1115C65.6906 62.105 65.6873 62.1008 65.6891 62.1029L67.2379 60.5942ZM65.7941 60.1385L65.7249 60.1507V62.1507L65.7941 62.1385V60.1385ZM65.7249 60.1507C65.1601 60.2503 64.5989 60.5619 64.2205 61.1533C63.8841 61.6793 63.7938 62.2737 63.7938 62.8037L65.7634 62.4564C65.7634 62.2954 65.7782 62.1842 65.7944 62.1138C65.8105 62.0441 65.8235 62.033 65.8098 62.0546C65.7917 62.0828 65.7586 62.1185 65.7189 62.1439C65.6848 62.1657 65.6785 62.1589 65.7249 62.1507V60.1507ZM63.7938 62.8037V66.8818L65.7634 66.5345V62.4564L63.7938 62.8037ZM71.2644 51.963L74.5651 51.381V49.381L71.2644 49.963V51.963ZM73.5803 50.5546V57.6093L75.5499 57.262V50.2073L73.5803 50.5546ZM74.5651 58.4357L75.8807 58.2037V56.2037L74.5651 56.4357V58.4357ZM76.8655 57.03V49.8816L74.8959 50.2289V57.3773L76.8655 57.03ZM75.8807 51.0552L79.2275 50.4651V48.4651L75.8807 49.0552V51.0552ZM78.2427 49.6388V69.3497L80.2123 69.0024V49.2915L78.2427 49.6388ZM79.2275 68.176L75.8807 68.7662V70.7662L79.2275 70.176V68.176ZM76.8655 69.5925V60.3113L74.8959 60.6586V69.9398L76.8655 69.5925ZM75.8807 59.4849L74.5651 59.7169V61.7169L75.8807 61.4849V59.4849ZM73.5803 60.8906V69.9374L75.5499 69.5901V60.5433L73.5803 60.8906ZM74.5651 68.7638L71.2644 69.3458V71.3458L74.5651 70.7638V68.7638ZM72.2493 70.1721V50.7893L70.2796 51.1366V70.5194L72.2493 70.1721ZM82.9667 49.0636V48.0636L81.9819 48.2372V49.2372L82.9667 49.0636ZM93.6073 47.1874L94.5921 47.0137V46.0137L93.6073 46.1874V47.1874ZM93.6073 56.2108V57.2108L94.5921 57.0372V56.0372L93.6073 56.2108ZM89.9142 56.862L88.9294 57.0356V58.0356L89.9142 57.862V56.862ZM89.9142 51.0026L90.8991 50.829V49.829L89.9142 50.0026V51.0026ZM82.9667 52.2277L81.9819 52.4013V53.4013L82.9667 53.2277V52.2277ZM83.9131 59.0452V58.0452L82.9283 58.2188V59.2188L83.9131 59.0452ZM100.255 56.1637L101.24 55.99V54.99L100.255 55.1637V56.1637ZM100.255 61.9996V62.9996L101.24 62.826V61.826L100.255 61.9996ZM87.7446 64.2055V63.2055L86.7598 63.3792V64.3792L87.7446 64.2055ZM87.7446 64.9555L86.7598 65.1292V66.1292L87.7446 65.9555V64.9555ZM100.601 62.6886L101.586 62.5149V61.5149L100.601 61.6886V62.6886ZM100.601 65.3605V66.3605L101.586 66.1868V65.1868L100.601 65.3605ZM84.0516 68.2786L83.0668 68.4522V69.4522L84.0516 69.2786V68.2786ZM84.0516 62.4426V61.4426L83.0668 61.6163V62.6163L84.0516 62.4426ZM96.5617 60.2368V61.2368L97.5465 61.0631V60.0631L96.5617 60.2368ZM96.5617 59.4868L97.5465 59.3131V58.3131L96.5617 58.4868V59.4868ZM83.9131 61.717L82.9283 61.8907V62.8907L83.9131 62.717V61.717ZM94.2074 52.2613V51.2613L93.2226 51.4349V52.4349L94.2074 52.2613ZM96.6079 51.838V52.838L97.5927 52.6643V51.6643L96.6079 51.838ZM96.6079 50.502L97.5927 50.3284V49.3284L96.6079 49.502V50.502ZM94.2074 50.9253L93.2226 51.099V52.099L94.2074 51.9253V50.9253ZM94.2074 48.3003V47.3003L93.2226 47.474V48.474L94.2074 48.3003ZM96.6079 47.877V48.877L97.5927 48.7034V47.7034L96.6079 47.877ZM96.6079 46.4005V45.4005L95.6231 45.5741V46.5741L96.6079 46.4005ZM100.255 45.7574L101.24 45.5838V44.5838L100.255 44.7574V45.7574ZM100.255 55.2965V56.2965L101.24 56.1229V55.1229L100.255 55.2965ZM96.6079 55.9395L95.6231 56.1132V57.1132L96.6079 56.9395V55.9395ZM96.6079 54.463L97.5927 54.2893V53.2893L96.6079 53.463V54.463ZM94.2074 54.8863L93.2226 55.0599V56.0599L94.2074 55.8863V54.8863ZM82.9667 50.0636L93.6073 48.1874V46.1874L82.9667 48.0636V50.0636ZM92.6225 47.361V56.3845L94.5921 56.0372V47.0137L92.6225 47.361ZM93.6073 55.2108L89.9142 55.862V57.862L93.6073 57.2108V55.2108ZM90.8991 56.6884V50.829L88.9294 51.1763V57.0356L90.8991 56.6884ZM89.9142 50.0026L82.9667 51.2277V53.2277L89.9142 52.0026V50.0026ZM83.9515 52.054V48.8899L81.9819 49.2372V52.4013L83.9515 52.054ZM83.9131 60.0452L100.255 57.1637V55.1637L83.9131 58.0452V60.0452ZM99.2699 56.3373V62.1733L101.24 61.826V55.99L99.2699 56.3373ZM100.255 60.9996L87.7446 63.2055V65.2055L100.255 62.9996V60.9996ZM86.7598 64.3792V65.1292L88.7294 64.7819V64.0319L86.7598 64.3792ZM87.7446 65.9555L100.601 63.6886V61.6886L87.7446 63.9555V65.9555ZM99.6161 62.8622V65.5341L101.586 65.1868V62.5149L99.6161 62.8622ZM100.601 64.3605L84.0516 67.2786V69.2786L100.601 66.3605V64.3605ZM85.0364 68.1049V62.269L83.0668 62.6163V68.4522L85.0364 68.1049ZM84.0516 63.4426L96.5617 61.2368V59.2368L84.0516 61.4426V63.4426ZM97.5465 60.0631V59.3131L95.5769 59.6604V60.4104L97.5465 60.0631ZM96.5617 58.4868L83.9131 60.717V62.717L96.5617 60.4868V58.4868ZM84.8979 61.5434V58.8715L82.9283 59.2188V61.8907L84.8979 61.5434ZM94.2074 53.2613L96.6079 52.838V50.838L94.2074 51.2613V53.2613ZM97.5927 51.6643V50.3284L95.6231 50.6757V52.0116L97.5927 51.6643ZM96.6079 49.502L94.2074 49.9253V51.9253L96.6079 51.502V49.502ZM95.1922 50.7517V48.1267L93.2226 48.474V51.099L95.1922 50.7517ZM94.2074 49.3003L96.6079 48.877V46.877L94.2074 47.3003V49.3003ZM97.5927 47.7034V46.2268L95.6231 46.5741V48.0507L97.5927 47.7034ZM96.6079 47.4005L100.255 46.7574V44.7574L96.6079 45.4005V47.4005ZM99.2699 45.9311V55.4702L101.24 55.1229V45.5838L99.2699 45.9311ZM100.255 54.2965L96.6079 54.9395V56.9395L100.255 56.2965V54.2965ZM97.5927 55.7659V54.2893L95.6231 54.6366V56.1132L97.5927 55.7659ZM96.6079 53.463L94.2074 53.8863V55.8863L96.6079 55.463V53.463ZM95.1922 54.7126V52.0876L93.2226 52.4349V55.0599L95.1922 54.7126Z" fill="white" fill-opacity="0.7" mask="url(#path-41-outside-1_54_3885)"/>
<g clip-path="url(#clip1_54_3885)">
<path d="M98.4381 73.08C93.3226 89.8673 77.8725 102.067 59.6034 102.067C46.0308 102.067 34.0147 95.3309 26.6353 84.9875" stroke="#FF4242" stroke-width="4" stroke-miterlimit="10"/>
<path d="M20.5674 49.4851C25.4707 32.3508 41.0895 19.8209 59.6035 19.8209C72.7407 19.8209 84.4194 26.1271 91.8478 35.9198" stroke="#FF4242" stroke-width="4" stroke-miterlimit="10"/>
</g>
</g>
<rect x="1.5" y="1.5" width="117" height="117" rx="58.5" stroke="#E8E8E8" stroke-width="3"/>
<defs>
<clipPath id="clip0_54_3885">
<rect width="120" height="120" rx="60" fill="white"/>
</clipPath>
<clipPath id="clip1_54_3885">
<rect width="81" height="94" fill="white" transform="translate(19 15)"/>
</clipPath>
</defs>
</svg>
