<?xml version="1.0" encoding="UTF-8"?><svg id="_레이어_2" xmlns="http://www.w3.org/2000/svg" viewBox="0 0 1400 470"><defs><style>.cls-1{fill:#d82a34;}.cls-1,.cls-2,.cls-3{stroke-width:0px;}.cls-2{fill:none;}.cls-3{fill:#fff;}</style></defs><g id="_레이어_1-2"><rect class="cls-2" width="1400" height="470"/><g id="Logo"><path id="Vector" class="cls-1" d="M700,295c33.137,0,60-26.863,60-60s-26.863-60-60-60-60,26.863-60,60,26.863,60,60,60Z"/><path id="Vector_2" class="cls-3" d="M734.284,258.978l-1.152-1.152-22.921-22.951-5.275,5.276,17.676,17.676h-45.235l46.508-45.902.91-.909c2.365-2.334.697-6.336-2.607-6.336h-41.051l-6.791,6.731c-.182.182-.061.515.212.515h38.716l-46.448,45.902-1.122,1.122c-2.365,2.334-.697,6.336,2.607,6.336h63.365c3.305,0,4.972-4.002,2.638-6.336l-.03.03Z"/></g></g></svg>