<svg width="12" height="13" viewBox="0 0 12 13" fill="none" xmlns="http://www.w3.org/2000/svg">
<path id="&#194;&#169;" d="M6 12.5C2.69565 12.5 0 9.80435 0 6.5C0 3.17826 2.69565 0.5 6 0.5C9.32174 0.5 12 3.17826 12 6.5C12 9.80435 9.32174 12.5 6 12.5ZM6 1.23043C3.11304 1.23043 0.730435 3.59565 0.730435 6.5C0.730435 9.38696 3.11304 11.7696 6 11.7696C8.90435 11.7696 11.2696 9.38696 11.2696 6.5C11.2696 3.59565 8.90435 1.23043 6 1.23043ZM8.12174 8.2913L8.78261 8.91739C8.15652 9.64783 7.21739 10.1348 6.13913 10.1348C4.13913 10.1348 2.52174 8.60435 2.52174 6.48261C2.52174 4.36087 4.13913 2.86522 6.13913 2.86522C7.21739 2.86522 8.13913 3.33478 8.74783 4.04783L8.10435 4.6913C7.65217 4.08261 6.95652 3.68261 6.13913 3.68261C4.66087 3.68261 3.47826 4.84783 3.47826 6.48261C3.47826 8.1 4.66087 9.31739 6.13913 9.31739C6.97391 9.31739 7.66957 8.9 8.12174 8.2913Z" fill="#070707"/>
</svg>
