<svg width="167" height="40" viewBox="0 0 167 40" fill="none" xmlns="http://www.w3.org/2000/svg">
<g clip-path="url(#clip0_7_12758)">
<path d="M20.0051 40.0101C31.0535 40.0101 40.0101 31.0535 40.0101 20.0051C40.0101 8.95657 31.0535 0 20.0051 0C8.95657 0 0 8.95657 0 20.0051C0 31.0535 8.95657 40.0101 20.0051 40.0101Z" fill="#D82A34"/>
<path d="M31.4376 28.0001L31.0535 27.616L23.4113 19.9637L21.6524 21.7226L27.5458 27.616H12.4637L27.9704 12.3115L28.2736 12.0082C29.0621 11.2299 28.5061 9.89551 27.4043 9.89551H13.7171L11.4528 12.1396C11.3921 12.2003 11.4326 12.3115 11.5235 12.3115H24.4323L8.94584 27.616L8.57182 27.99C7.78334 28.7684 8.33932 30.1027 9.44116 30.1027H30.5683C31.6701 30.1027 32.2261 28.7684 31.4477 27.99L31.4376 28.0001Z" fill="white"/>
<path d="M154.953 23.2229L162.585 15.7324H165.506L159.987 21.2416L166.062 27.6101H163.242L158.511 22.7074L154.953 26.0736V23.2229Z" fill="#76777A"/>
<path d="M155.204 12.3242H153.152V27.6793H155.204V12.3242Z" fill="#76777A"/>
<path d="M151.239 17.6497V15.5977H144.497C141.1 15.5977 138.351 18.1551 138.351 21.3091V21.9661C138.351 25.12 141.1 27.6775 144.497 27.6775H151.239V25.6356H144.77C142.364 25.6356 140.413 23.9474 140.413 21.8549V21.4202C140.413 19.3278 142.364 17.6396 144.77 17.6396H151.239V17.6497Z" fill="#76777A"/>
<path d="M55.2559 15.6094C51.8594 15.6094 49.1099 18.1669 49.1099 21.3208V27.6892H51.1619V21.432C51.1619 19.3395 53.1129 17.6513 55.5188 17.6513H60.1991C60.1991 17.6513 61.3413 17.6513 61.3717 17.6513V15.6094H55.2559Z" fill="#76777A"/>
<path d="M115.576 15.6094C112.18 15.6094 109.43 18.1669 109.43 21.3208V27.6892H111.482V21.432C111.482 19.3395 113.433 17.6513 115.839 17.6513H121.53C121.53 17.6513 121.652 17.6513 121.682 17.6513V15.6094H115.566H115.576Z" fill="#76777A"/>
<path d="M71.552 15.6513C71.1476 15.5503 70.2985 15.4795 69.318 15.4795C68.3374 15.4795 67.4883 15.5503 67.084 15.6513C64.2535 16.1669 62.1206 18.4717 62.1206 21.2515V21.9086C62.1206 24.6885 64.2535 26.9933 67.084 27.5088C67.4883 27.6099 68.3374 27.6807 69.318 27.6807C70.2985 27.6807 71.1476 27.6099 71.552 27.5088C74.3824 26.9933 76.5153 24.6885 76.5153 21.9086V21.2515C76.5153 18.4717 74.3824 16.1669 71.552 15.6513ZM74.4633 21.7974V21.9086C74.3925 23.7181 72.8762 25.1939 70.8848 25.5174C70.531 25.5882 69.9649 25.6286 69.318 25.6286C68.671 25.6286 68.1049 25.5882 67.7511 25.5174C65.7597 25.204 64.2434 23.7181 64.1828 21.9086V21.7974V21.3627C64.1828 19.5128 65.7294 17.9662 67.7612 17.6427C68.115 17.572 68.6811 17.5316 69.3281 17.5316C69.975 17.5316 70.5411 17.572 70.8949 17.6427C72.9268 17.9662 74.4734 19.5027 74.4734 21.3627V21.7974H74.4633Z" fill="#76777A"/>
<path d="M102.917 15.6513C102.512 15.5503 101.663 15.4795 100.683 15.4795C99.7022 15.4795 98.8531 15.5503 98.4487 15.6513C95.6183 16.1669 93.4854 18.4717 93.4854 21.2515V21.9086C93.4854 24.6885 95.6183 26.9933 98.4487 27.5088C98.8531 27.6099 99.7022 27.6807 100.683 27.6807C101.663 27.6807 102.512 27.6099 102.917 27.5088C105.747 26.9933 107.88 24.6885 107.88 21.9086V21.2515C107.88 18.4717 105.747 16.1669 102.917 15.6513ZM105.828 21.7974V21.9086C105.757 23.7181 104.241 25.1939 102.25 25.5174C101.896 25.5882 101.33 25.6286 100.683 25.6286C100.036 25.6286 99.4697 25.5882 99.1159 25.5174C97.1245 25.204 95.6082 23.7181 95.5475 21.9086V21.7974V21.3627C95.5475 19.5128 97.0941 17.9662 99.126 17.6427C99.4798 17.572 100.046 17.5316 100.693 17.5316C101.34 17.5316 101.906 17.572 102.26 17.6427C104.292 17.9662 105.838 19.5027 105.838 21.3627V21.7974H105.828Z" fill="#76777A"/>
<path d="M131.888 15.6513C131.484 15.5503 130.635 15.4795 129.654 15.4795C128.674 15.4795 127.825 15.5503 127.42 15.6513C124.59 16.1669 122.457 18.4717 122.457 21.2515V21.9086C122.457 24.6885 124.59 26.9933 127.42 27.5088C127.825 27.6099 128.674 27.6807 129.654 27.6807C130.635 27.6807 131.484 27.6099 131.888 27.5088C134.719 26.9933 136.852 24.6885 136.852 21.9086V21.2515C136.852 18.4717 134.719 16.1669 131.888 15.6513ZM134.8 21.7974V21.9086C134.729 23.7181 133.213 25.1939 131.221 25.5174C130.867 25.5882 130.301 25.6286 129.654 25.6286C129.007 25.6286 128.441 25.5882 128.088 25.5174C126.096 25.204 124.58 23.7181 124.519 21.9086V21.7974V21.3627C124.519 19.5128 126.066 17.9662 128.098 17.6427C128.451 17.572 129.018 17.5316 129.665 17.5316C130.311 17.5316 130.878 17.572 131.231 17.6427C133.263 17.9662 134.81 19.5027 134.81 21.3627V21.7974H134.8Z" fill="#76777A"/>
<path d="M87.1203 15.65C86.726 15.5489 85.9173 15.4781 84.9671 15.4781C84.0169 15.4781 83.1981 15.5489 82.814 15.65C81.7829 15.842 80.8428 16.2969 80.0745 16.9338V12.3242H78.0225V21.9173C78.0225 24.6972 80.0846 27.002 82.8241 27.5175C83.2183 27.6186 84.027 27.6894 84.9772 27.6894C85.9274 27.6894 86.7462 27.6186 87.1304 27.5175C89.8597 27.002 91.932 24.6972 91.932 21.9173V21.2603C91.932 18.4804 89.8698 16.1756 87.1304 15.6601L87.1203 15.65ZM89.9305 21.796V21.9072C89.8698 23.7167 88.4041 25.1926 86.4733 25.516C86.1296 25.5868 85.5837 25.6272 84.957 25.6272C84.3303 25.6272 83.7844 25.5868 83.4407 25.516C81.5201 25.2027 80.0543 23.7167 79.9936 21.9072V21.796V21.3614C79.9936 19.5115 81.4796 17.9649 83.4508 17.6414C83.7945 17.5706 84.3404 17.5302 84.9671 17.5302C85.5939 17.5302 86.1397 17.5706 86.4834 17.6414C88.4445 17.9649 89.9406 19.5014 89.9406 21.3614V21.796H89.9305Z" fill="#76777A"/>
</g>
<defs>
<clipPath id="clip0_7_12758">
<rect width="166.197" height="40" fill="white"/>
</clipPath>
</defs>
</svg>
