<svg width="18" height="18" viewBox="0 0 18 18" fill="none" xmlns="http://www.w3.org/2000/svg">
<path d="M4.79343 7.6665C4.50647 7.6665 4.27344 7.89953 4.27344 8.18649C4.27344 8.47345 4.50647 8.70648 4.79343 8.70648C5.08039 8.70648 5.31341 8.47345 5.31341 8.18649C5.31341 7.89953 5.08039 7.6665 4.79343 7.6665Z" fill="white"/>
<path d="M9.92686 8.73068C10.236 8.73068 10.4865 8.4801 10.4865 8.171C10.4865 7.8619 10.236 7.61133 9.92686 7.61133C9.61776 7.61133 9.36719 7.8619 9.36719 8.171C9.36719 8.4801 9.61776 8.73068 9.92686 8.73068Z" fill="white"/>
<path d="M14.575 2.5H3.5189C2.40362 2.5 1.5 3.40362 1.5 4.5189V11.0803C1.5 12.1956 2.40362 13.0992 3.5189 13.0992H7.42339L8.75134 16.2283C8.75134 16.2283 8.84293 16.5 9.06374 16.5C9.28456 16.5 9.37614 16.2283 9.37614 16.2283L10.7041 13.0992H14.573C15.6883 13.0992 16.5919 12.1956 16.5919 11.0803V4.5189C16.5919 3.40362 15.6883 2.5 14.573 2.5H14.575ZM6.24197 8.30026C6.23586 9.5 4.99542 9.53358 4.99542 9.53358C4.51614 9.53358 4.24546 9.21609 4.24546 9.21609V9.43182H3.34286V5.70744C3.34286 5.70744 3.33878 5.70643 3.34286 5.70541V5.70744C3.39882 5.7166 4.24546 5.70541 4.24546 5.70541V7.13003C4.45813 6.76777 5.07174 6.77388 5.07174 6.77388C6.40885 6.89802 6.24197 8.30026 6.24197 8.30026ZM7.83144 6.88785V9.43793H6.94716V6.91329C6.94716 6.56934 6.52079 6.47471 6.52079 6.47471V5.58431C7.93218 5.6413 7.83043 6.88785 7.83043 6.88785H7.83144ZM9.92666 9.53562C9.10852 9.53562 8.44505 8.92506 8.44505 8.17103C8.44505 7.41699 9.10852 6.80644 9.92666 6.80644C10.7448 6.80644 11.4083 7.41699 11.4083 8.17103C11.4083 8.92506 10.7448 9.53562 9.92666 9.53562ZM14.7694 9.53562C14.7694 9.53562 14.7816 10.831 13.4658 10.831H13.0649V9.9915H13.3061C13.3061 9.9915 13.8596 10.0424 13.8525 9.18963C13.8525 9.18963 13.7447 9.5346 12.9682 9.5346C12.9682 9.5346 11.8682 9.45523 11.8682 8.38167V7.97463C11.8682 7.97463 11.8937 6.86139 13.1015 6.77286C13.1015 6.77286 13.5788 6.72198 13.8708 7.1168V6.84307H14.7673V9.5346L14.7694 9.53562Z" fill="white"/>
<path d="M13.3668 8.7174C13.6686 8.7174 13.9132 8.47275 13.9132 8.17096C13.9132 7.86916 13.6686 7.62451 13.3668 7.62451C13.065 7.62451 12.8203 7.86916 12.8203 8.17096C12.8203 8.47275 13.065 8.7174 13.3668 8.7174Z" fill="white"/>
</svg>
