<svg width="18" height="18" viewBox="0 0 18 18" fill="none" xmlns="http://www.w3.org/2000/svg">
<path d="M9 3.26135C10.869 3.26135 11.0896 3.26794 11.8273 3.30252C12.5091 3.3338 12.8796 3.44742 13.1266 3.54293C13.4526 3.66972 13.6864 3.82122 13.9318 4.06657C14.1771 4.31193 14.3286 4.54411 14.4554 4.87179C14.5509 5.1188 14.6645 5.4893 14.6958 6.17102C14.7288 6.90873 14.737 7.13103 14.737 8.99835C14.737 10.8657 14.7304 11.088 14.6958 11.8257C14.6645 12.5074 14.5509 12.8779 14.4554 13.1249C14.3286 13.451 14.1771 13.6848 13.9318 13.9301C13.6864 14.1755 13.4542 14.327 13.1266 14.4538C12.8796 14.5493 12.5091 14.6629 11.8273 14.6942C11.0896 14.7271 10.869 14.7354 9 14.7354C7.13103 14.7354 6.91037 14.7288 6.17267 14.6942C5.49094 14.6629 5.12044 14.5493 4.87344 14.4538C4.5474 14.327 4.31357 14.1755 4.06822 13.9301C3.82286 13.6848 3.67137 13.4526 3.54458 13.1249C3.44907 12.8779 3.33545 12.5074 3.30416 11.8257C3.27123 11.088 3.263 10.8657 3.263 8.99835C3.263 7.13103 3.26958 6.90873 3.30416 6.17102C3.33545 5.4893 3.44907 5.1188 3.54458 4.87179C3.67137 4.54575 3.82286 4.31193 4.06822 4.06657C4.31357 3.82122 4.54575 3.66972 4.87344 3.54293C5.12044 3.44742 5.49094 3.3338 6.17267 3.30252C6.91037 3.26958 7.13267 3.26135 9 3.26135ZM9 2C7.09974 2 6.86097 2.00823 6.11503 2.04281C5.37074 2.07739 4.86191 2.19431 4.41567 2.36885C3.95625 2.54834 3.56598 2.78711 3.17572 3.17572C2.78711 3.56434 2.54669 3.9546 2.36885 4.41567C2.19595 4.86027 2.07739 5.36909 2.04281 6.11503C2.00823 6.86097 2 7.09974 2 9C2 10.9003 2.00823 11.139 2.04281 11.885C2.07739 12.6293 2.19431 13.1381 2.36885 13.5843C2.54834 14.0438 2.78711 14.434 3.17572 14.8243C3.56434 15.2129 3.9546 15.4533 4.41567 15.6311C4.86027 15.804 5.36909 15.9226 6.11503 15.9572C6.86097 15.9918 7.09974 16 9 16C10.9003 16 11.139 15.9918 11.885 15.9572C12.6293 15.9226 13.1381 15.8057 13.5843 15.6311C14.0438 15.4517 14.434 15.2129 14.8243 14.8243C15.2129 14.4357 15.4533 14.0454 15.6311 13.5843C15.804 13.1397 15.9226 12.6309 15.9572 11.885C15.9918 11.139 16 10.9003 16 9C16 7.09974 15.9918 6.86097 15.9572 6.11503C15.9226 5.37074 15.8057 4.86191 15.6311 4.41567C15.4517 3.95625 15.2129 3.56598 14.8243 3.17572C14.4357 2.78711 14.0454 2.54669 13.5843 2.36885C13.1397 2.19595 12.6309 2.07739 11.885 2.04281C11.139 2.00823 10.9003 2 9 2Z" fill="white"/>
<path d="M8.99929 5.40576C7.01505 5.40576 5.40625 7.01456 5.40625 8.9988C5.40625 10.983 7.01505 12.5918 8.99929 12.5918C10.9835 12.5918 12.5923 10.983 12.5923 8.9988C12.5923 7.01456 10.9835 5.40576 8.99929 5.40576ZM8.99929 11.3321C7.71159 11.3321 6.66595 10.2881 6.66595 8.9988C6.66595 7.70945 7.70994 6.66546 8.99929 6.66546C10.2886 6.66546 11.3326 7.70945 11.3326 8.9988C11.3326 10.2881 10.2886 11.3321 8.99929 11.3321Z" fill="white"/>
<path d="M12.7382 6.10197C13.202 6.10197 13.578 5.72598 13.578 5.26217C13.578 4.79836 13.202 4.42236 12.7382 4.42236C12.2744 4.42236 11.8984 4.79836 11.8984 5.26217C11.8984 5.72598 12.2744 6.10197 12.7382 6.10197Z" fill="white"/>
</svg>
