<svg width="18" height="18" viewBox="0 0 18 18" fill="none" xmlns="http://www.w3.org/2000/svg">
<path d="M16.2456 5.15312C16.0725 4.50296 15.5601 3.99056 14.9083 3.81584C13.7289 3.5 9.00141 3.5 9.00141 3.5C9.00141 3.5 4.27389 3.5 3.09453 3.81584C2.44437 3.99056 1.93197 4.50128 1.75725 5.15312C1.44141 6.33248 1.44141 8.792 1.44141 8.792C1.44141 8.792 1.44141 11.2515 1.75725 12.4309C1.93029 13.081 2.44269 13.5934 3.09453 13.7682C4.27389 14.084 9.00141 14.084 9.00141 14.084C9.00141 14.084 13.7289 14.084 14.9083 13.7682C15.5584 13.5934 16.0708 13.0827 16.2456 12.4309C16.5614 11.2515 16.5614 8.792 16.5614 8.792C16.5614 8.792 16.5614 6.33248 16.2456 5.15312ZM7.48941 11.06V6.524L11.4172 8.792L7.48941 11.06Z" fill="white"/>
</svg>
