<svg width="18" height="18" viewBox="0 0 18 18" fill="none" xmlns="http://www.w3.org/2000/svg">
<path fill-rule="evenodd" clip-rule="evenodd" d="M1.125 8.45913C1.125 5.02995 4.65073 2.25 9 2.25C13.3493 2.25 16.875 5.02995 16.875 8.45913C16.875 11.8884 13.3493 14.6683 9 14.6683C8.52265 14.6683 8.05523 14.6349 7.60128 14.5706C7.14688 14.8908 4.52155 16.7349 4.27379 16.7695C4.27379 16.7695 4.17217 16.8091 4.08577 16.7582C3.99938 16.7073 4.01505 16.5739 4.01505 16.5739C4.0411 16.3963 4.69563 14.136 4.81625 13.72C2.59899 12.6215 1.125 10.6762 1.125 8.45913ZM4.19171 10.1928C4.19171 10.432 4.39547 10.6267 4.64603 10.6267C4.8966 10.6267 5.10036 10.432 5.10036 10.1928V7.49369H5.80926C6.05505 7.49369 6.25511 7.29409 6.25511 7.04883C6.25511 6.80357 6.05513 6.60397 5.80926 6.60397H3.48281C3.23701 6.60397 3.03696 6.80357 3.03696 7.04883C3.03696 7.29409 3.23694 7.49369 3.48281 7.49369H4.19171V10.1928ZM8.2518 10.4201C8.29549 10.5438 8.44042 10.6207 8.62987 10.6207C8.72952 10.6208 8.82801 10.5995 8.91868 10.5581C9.04392 10.5005 9.16431 10.3416 9.02605 9.91207L7.93975 7.05292C7.86305 6.83492 7.63051 6.61071 7.33376 6.60404C7.03784 6.61078 6.8053 6.83492 6.72874 7.05246L5.64199 9.91291C5.50403 10.3414 5.62443 10.5003 5.74967 10.558C5.84031 10.5995 5.93882 10.6208 6.03847 10.6207C6.22792 10.6207 6.37278 10.5439 6.41632 10.4204L6.64144 9.83105L8.02683 9.83113L8.2518 10.4201ZM7.33413 7.73721L7.78793 9.02636H6.88034L7.33413 7.73721ZM9.32182 10.1439C9.32182 10.3735 9.5171 10.5604 9.75721 10.5604H11.2148C11.455 10.5604 11.6502 10.3735 11.6502 10.1439C11.6502 9.91434 11.455 9.72746 11.2148 9.72746H10.2494V7.05829C10.2494 6.80773 10.0413 6.60397 9.78561 6.60397C9.5299 6.60397 9.32182 6.80773 9.32182 7.05829V10.1439ZM11.827 10.1664C11.827 10.417 12.0307 10.6207 12.2813 10.6207C12.4018 10.6206 12.5173 10.5726 12.6025 10.4874C12.6877 10.4022 12.7356 10.2867 12.7358 10.1662V9.17493L12.8934 9.01728L13.9589 10.429C14.0011 10.4854 14.0559 10.5311 14.1189 10.5624C14.1819 10.5938 14.2514 10.6099 14.3218 10.6096C14.4205 10.6099 14.5165 10.5776 14.5951 10.5179C14.6429 10.4821 14.683 10.4372 14.7133 10.3858C14.7435 10.3343 14.7633 10.2774 14.7714 10.2183C14.7799 10.1592 14.7765 10.099 14.7615 10.0412C14.7466 9.98347 14.7203 9.92924 14.6842 9.88171L13.5658 8.40015L14.6012 7.36496C14.6723 7.29371 14.708 7.1955 14.7014 7.08835C14.6949 6.98212 14.6474 6.87982 14.5679 6.80031C14.4825 6.71505 14.3686 6.66613 14.2552 6.66613C14.158 6.66613 14.0684 6.70202 14.0032 6.76722L12.7356 8.03479V7.05829C12.7356 6.80773 12.5319 6.60397 12.2813 6.60397C12.0307 6.60397 11.827 6.80773 11.827 7.05829V10.1664Z" fill="white"/>
</svg>
